<?xml version="1.0" encoding="UTF-8" standalone="no"?>
<!DOCTYPE svg PUBLIC "-//W3C//DTD SVG 1.1//EN"
 "http://www.w3.org/Graphics/SVG/1.1/DTD/svg11.dtd">
<!-- Generated by graphviz version 2.43.0 (0)
 -->
<!-- Title: abs.hpp Pages: 1 -->
<svg width="2410pt" height="352pt"
 viewBox="0.00 0.00 2410.00 352.00" xmlns="http://www.w3.org/2000/svg" xmlns:xlink="http://www.w3.org/1999/xlink">
<g id="graph0" class="graph" transform="scale(1 1) rotate(0) translate(4 348)">
<title>abs.hpp</title>
<!-- Node1 -->
<g id="node1" class="node">
<title>Node1</title>
<g id="a_node1"><a xlink:title=" ">
<polygon fill="#bfbfbf" stroke="black" points="1579,-324.5 1579,-343.5 1634,-343.5 1634,-324.5 1579,-324.5"/>
<text text-anchor="middle" x="1606.5" y="-331.5" font-family="Helvetica,sans-Serif" font-size="10.00">abs.hpp</text>
</a>
</g>
</g>
<!-- Node2 -->
<g id="node2" class="node">
<title>Node2</title>
<g id="a_node2"><a xlink:href="CylindricalProfileObservable_8hpp.html" target="_top" xlink:title=" ">
<polygon fill="none" stroke="black" points="1125.5,-196 1125.5,-215 1301.5,-215 1301.5,-196 1125.5,-196"/>
<text text-anchor="middle" x="1213.5" y="-203" font-family="Helvetica,sans-Serif" font-size="10.00">CylindricalProfileObservable.hpp</text>
</a>
</g>
</g>
<!-- Node1&#45;&gt;Node2 -->
<g id="edge1" class="edge">
<title>Node1&#45;&gt;Node2</title>
<path fill="none" stroke="midnightblue" d="M1568.76,-328.51C1523.25,-322.41 1444.86,-309.71 1380.5,-288 1321.19,-268 1255.87,-231.51 1227.71,-215.01"/>
<polygon fill="midnightblue" stroke="midnightblue" points="1568.4,-331.99 1578.77,-329.82 1569.31,-325.05 1568.4,-331.99"/>
</g>
<!-- Node17 -->
<g id="node17" class="node">
<title>Node17</title>
<g id="a_node17"><a xlink:href="HollowConicalFrustum_8cpp.html" target="_top" xlink:title=" ">
<polygon fill="none" stroke="black" points="1623.5,-134.5 1623.5,-153.5 1769.5,-153.5 1769.5,-134.5 1623.5,-134.5"/>
<text text-anchor="middle" x="1696.5" y="-141.5" font-family="Helvetica,sans-Serif" font-size="10.00">HollowConicalFrustum.cpp</text>
</a>
</g>
</g>
<!-- Node1&#45;&gt;Node17 -->
<g id="edge23" class="edge">
<title>Node1&#45;&gt;Node17</title>
<path fill="none" stroke="midnightblue" d="M1614.99,-315.26C1633.84,-275.9 1678.58,-182.44 1692.37,-153.62"/>
<polygon fill="midnightblue" stroke="midnightblue" points="1611.76,-313.9 1610.6,-324.43 1618.08,-316.93 1611.76,-313.9"/>
</g>
<!-- Node18 -->
<g id="node18" class="node">
<title>Node18</title>
<g id="a_node18"><a xlink:href="cylindrical__transformation__parameters_8hpp.html" target="_top" xlink:title=" ">
<polygon fill="none" stroke="black" points="1390,-257.5 1390,-287.5 1535,-287.5 1535,-257.5 1390,-257.5"/>
<text text-anchor="start" x="1398" y="-275.5" font-family="Helvetica,sans-Serif" font-size="10.00">cylindrical_transformation</text>
<text text-anchor="middle" x="1462.5" y="-264.5" font-family="Helvetica,sans-Serif" font-size="10.00">_parameters.hpp</text>
</a>
</g>
</g>
<!-- Node1&#45;&gt;Node18 -->
<g id="edge24" class="edge">
<title>Node1&#45;&gt;Node18</title>
<path fill="none" stroke="midnightblue" d="M1576.47,-320.59C1553.12,-310.94 1520.72,-297.56 1496.44,-287.52"/>
<polygon fill="midnightblue" stroke="midnightblue" points="1575.29,-323.89 1585.87,-324.48 1577.96,-317.42 1575.29,-323.89"/>
</g>
<!-- Node24 -->
<g id="node24" class="node">
<title>Node24</title>
<g id="a_node24"><a xlink:href="sinc_8hpp.html" target="_top" xlink:title=" ">
<polygon fill="none" stroke="black" points="1916,-263 1916,-282 1973,-282 1973,-263 1916,-263"/>
<text text-anchor="middle" x="1944.5" y="-270" font-family="Helvetica,sans-Serif" font-size="10.00">sinc.hpp</text>
</a>
</g>
</g>
<!-- Node1&#45;&gt;Node24 -->
<g id="edge35" class="edge">
<title>Node1&#45;&gt;Node24</title>
<path fill="none" stroke="midnightblue" d="M1644.05,-326.39C1712.26,-314.38 1855.07,-289.24 1915.98,-278.52"/>
<polygon fill="midnightblue" stroke="midnightblue" points="1643.4,-322.95 1634.16,-328.13 1644.62,-329.84 1643.4,-322.95"/>
</g>
<!-- Node3 -->
<g id="node3" class="node">
<title>Node3</title>
<g id="a_node3"><a xlink:href="core_2observables_2CylindricalPidProfileObservable_8hpp.html" target="_top" xlink:title=" ">
<polygon fill="none" stroke="black" points="530,-134.5 530,-153.5 721,-153.5 721,-134.5 530,-134.5"/>
<text text-anchor="middle" x="625.5" y="-141.5" font-family="Helvetica,sans-Serif" font-size="10.00">CylindricalPidProfileObservable.hpp</text>
</a>
</g>
</g>
<!-- Node2&#45;&gt;Node3 -->
<g id="edge2" class="edge">
<title>Node2&#45;&gt;Node3</title>
<path fill="none" stroke="midnightblue" d="M1119.22,-194.96C1006.05,-183.51 818.02,-164.48 709.59,-153.51"/>
<polygon fill="midnightblue" stroke="midnightblue" points="1118.95,-198.45 1129.25,-195.98 1119.66,-191.49 1118.95,-198.45"/>
</g>
<!-- Node13 -->
<g id="node13" class="node">
<title>Node13</title>
<g id="a_node13"><a xlink:href="core_2observables_2CylindricalLBProfileObservable_8hpp.html" target="_top" xlink:title=" ">
<polygon fill="none" stroke="black" points="1116.5,-134.5 1116.5,-153.5 1304.5,-153.5 1304.5,-134.5 1116.5,-134.5"/>
<text text-anchor="middle" x="1210.5" y="-141.5" font-family="Helvetica,sans-Serif" font-size="10.00">CylindricalLBProfileObservable.hpp</text>
</a>
</g>
</g>
<!-- Node2&#45;&gt;Node13 -->
<g id="edge17" class="edge">
<title>Node2&#45;&gt;Node13</title>
<path fill="none" stroke="midnightblue" d="M1212.56,-185.82C1212.01,-175 1211.35,-161.9 1210.93,-153.51"/>
<polygon fill="midnightblue" stroke="midnightblue" points="1209.07,-186.16 1213.07,-195.98 1216.06,-185.81 1209.07,-186.16"/>
</g>
<!-- Node4 -->
<g id="node4" class="node">
<title>Node4</title>
<g id="a_node4"><a xlink:href="CylindricalDensityProfile_8hpp.html" target="_top" xlink:title=" ">
<polygon fill="none" stroke="black" points="724.5,-73 724.5,-92 882.5,-92 882.5,-73 724.5,-73"/>
<text text-anchor="middle" x="803.5" y="-80" font-family="Helvetica,sans-Serif" font-size="10.00">CylindricalDensityProfile.hpp</text>
</a>
</g>
</g>
<!-- Node3&#45;&gt;Node4 -->
<g id="edge3" class="edge">
<title>Node3&#45;&gt;Node4</title>
<path fill="none" stroke="midnightblue" d="M660.71,-131.23C695.31,-119.67 747.27,-102.3 778.04,-92.01"/>
<polygon fill="midnightblue" stroke="midnightblue" points="659.38,-127.99 651,-134.48 661.6,-134.62 659.38,-127.99"/>
</g>
<!-- Node6 -->
<g id="node6" class="node">
<title>Node6</title>
<g id="a_node6"><a xlink:href="CylindricalFluxDensityProfile_8hpp.html" target="_top" xlink:title=" ">
<polygon fill="none" stroke="black" points="348,-73 348,-92 527,-92 527,-73 348,-73"/>
<text text-anchor="middle" x="437.5" y="-80" font-family="Helvetica,sans-Serif" font-size="10.00">CylindricalFluxDensityProfile.hpp</text>
</a>
</g>
</g>
<!-- Node3&#45;&gt;Node6 -->
<g id="edge5" class="edge">
<title>Node3&#45;&gt;Node6</title>
<path fill="none" stroke="midnightblue" d="M588.79,-131.38C552.24,-119.82 497.03,-102.34 464.39,-92.01"/>
<polygon fill="midnightblue" stroke="midnightblue" points="587.97,-134.79 598.56,-134.48 590.09,-128.12 587.97,-134.79"/>
</g>
<!-- Node7 -->
<g id="node7" class="node">
<title>Node7</title>
<g id="a_node7"><a xlink:href="CylindricalLBFluxDensityProfileAtParticlePositions_8hpp.html" target="_top" xlink:title=" ">
<polygon fill="none" stroke="black" points="169,-67.5 169,-97.5 330,-97.5 330,-67.5 169,-67.5"/>
<text text-anchor="start" x="177" y="-85.5" font-family="Helvetica,sans-Serif" font-size="10.00">CylindricalLBFluxDensity</text>
<text text-anchor="middle" x="249.5" y="-74.5" font-family="Helvetica,sans-Serif" font-size="10.00">ProfileAtParticlePositions.hpp</text>
</a>
</g>
</g>
<!-- Node3&#45;&gt;Node7 -->
<g id="edge7" class="edge">
<title>Node3&#45;&gt;Node7</title>
<path fill="none" stroke="midnightblue" d="M560.31,-132.89C502.13,-123.84 414.61,-110.17 338.5,-98 335.72,-97.56 332.89,-97.1 330.03,-96.64"/>
<polygon fill="midnightblue" stroke="midnightblue" points="560.05,-136.39 570.46,-134.47 561.12,-129.48 560.05,-136.39"/>
</g>
<!-- Node9 -->
<g id="node9" class="node">
<title>Node9</title>
<g id="a_node9"><a xlink:href="CylindricalLBVelocityProfileAtParticlePositions_8hpp.html" target="_top" xlink:title=" ">
<polygon fill="none" stroke="black" points="0,-67.5 0,-97.5 151,-97.5 151,-67.5 0,-67.5"/>
<text text-anchor="start" x="8" y="-85.5" font-family="Helvetica,sans-Serif" font-size="10.00">CylindricalLBVelocityProfile</text>
<text text-anchor="middle" x="75.5" y="-74.5" font-family="Helvetica,sans-Serif" font-size="10.00">AtParticlePositions.hpp</text>
</a>
</g>
</g>
<!-- Node3&#45;&gt;Node9 -->
<g id="edge10" class="edge">
<title>Node3&#45;&gt;Node9</title>
<path fill="none" stroke="midnightblue" d="M519.61,-135.04C424.99,-127.39 282.69,-114.56 159.5,-98 156.71,-97.63 153.88,-97.23 151.02,-96.81"/>
<polygon fill="midnightblue" stroke="midnightblue" points="519.52,-138.55 529.76,-135.86 520.08,-131.57 519.52,-138.55"/>
</g>
<!-- Node11 -->
<g id="node11" class="node">
<title>Node11</title>
<g id="a_node11"><a xlink:href="CylindricalVelocityProfile_8hpp.html" target="_top" xlink:title=" ">
<polygon fill="none" stroke="black" points="545,-73 545,-92 706,-92 706,-73 545,-73"/>
<text text-anchor="middle" x="625.5" y="-80" font-family="Helvetica,sans-Serif" font-size="10.00">CylindricalVelocityProfile.hpp</text>
</a>
</g>
</g>
<!-- Node3&#45;&gt;Node11 -->
<g id="edge13" class="edge">
<title>Node3&#45;&gt;Node11</title>
<path fill="none" stroke="midnightblue" d="M625.5,-124.32C625.5,-113.5 625.5,-100.4 625.5,-92.01"/>
<polygon fill="midnightblue" stroke="midnightblue" points="622,-124.48 625.5,-134.48 629,-124.48 622,-124.48"/>
</g>
<!-- Node12 -->
<g id="node12" class="node">
<title>Node12</title>
<g id="a_node12"><a xlink:href="script__interface_2observables_2CylindricalPidProfileObservable_8hpp.html" target="_top" xlink:title=" ">
<polygon fill="none" stroke="black" points="901,-73 901,-92 1092,-92 1092,-73 901,-73"/>
<text text-anchor="middle" x="996.5" y="-80" font-family="Helvetica,sans-Serif" font-size="10.00">CylindricalPidProfileObservable.hpp</text>
</a>
</g>
</g>
<!-- Node3&#45;&gt;Node12 -->
<g id="edge15" class="edge">
<title>Node3&#45;&gt;Node12</title>
<path fill="none" stroke="midnightblue" d="M688.91,-132.83C760.67,-121.32 876.27,-102.78 943.44,-92.01"/>
<polygon fill="midnightblue" stroke="midnightblue" points="687.97,-129.44 678.66,-134.48 689.08,-136.35 687.97,-129.44"/>
</g>
<!-- Node5 -->
<g id="node5" class="node">
<title>Node5</title>
<g id="a_node5"><a xlink:href="observables_2initialize_8cpp.html" target="_top" xlink:title=" ">
<polygon fill="none" stroke="black" points="675,-6 675,-25 754,-25 754,-6 675,-6"/>
<text text-anchor="middle" x="714.5" y="-13" font-family="Helvetica,sans-Serif" font-size="10.00">initialize.cpp</text>
</a>
</g>
</g>
<!-- Node4&#45;&gt;Node5 -->
<g id="edge4" class="edge">
<title>Node4&#45;&gt;Node5</title>
<path fill="none" stroke="midnightblue" d="M783.05,-66.57C765.49,-53.74 740.77,-35.69 726.31,-25.13"/>
<polygon fill="midnightblue" stroke="midnightblue" points="781.36,-69.66 791.5,-72.73 785.49,-64.01 781.36,-69.66"/>
</g>
<!-- Node6&#45;&gt;Node5 -->
<g id="edge6" class="edge">
<title>Node6&#45;&gt;Node5</title>
<path fill="none" stroke="midnightblue" d="M483.76,-70.64C538.34,-57.84 627.95,-36.81 677.92,-25.08"/>
<polygon fill="midnightblue" stroke="midnightblue" points="482.93,-67.24 474,-72.94 484.53,-74.06 482.93,-67.24"/>
</g>
<!-- Node7&#45;&gt;Node5 -->
<g id="edge9" class="edge">
<title>Node7&#45;&gt;Node5</title>
<path fill="none" stroke="midnightblue" d="M340.02,-66.8C468.31,-47.86 608.09,-29.88 674.93,-21.44"/>
<polygon fill="midnightblue" stroke="midnightblue" points="339.39,-63.35 330.01,-68.28 340.42,-70.28 339.39,-63.35"/>
</g>
<!-- Node8 -->
<g id="node8" class="node">
<title>Node8</title>
<g id="a_node8"><a xlink:href="CylindricalLBFluxDensityProfileAtParticlePositions_8cpp.html" target="_top" xlink:title=" ">
<polygon fill="none" stroke="black" points="169.5,-0.5 169.5,-30.5 329.5,-30.5 329.5,-0.5 169.5,-0.5"/>
<text text-anchor="start" x="177.5" y="-18.5" font-family="Helvetica,sans-Serif" font-size="10.00">CylindricalLBFluxDensity</text>
<text text-anchor="middle" x="249.5" y="-7.5" font-family="Helvetica,sans-Serif" font-size="10.00">ProfileAtParticlePositions.cpp</text>
</a>
</g>
</g>
<!-- Node7&#45;&gt;Node8 -->
<g id="edge8" class="edge">
<title>Node7&#45;&gt;Node8</title>
<path fill="none" stroke="midnightblue" d="M249.5,-57.11C249.5,-48.15 249.5,-38.32 249.5,-30.58"/>
<polygon fill="midnightblue" stroke="midnightblue" points="246,-57.4 249.5,-67.4 253,-57.4 246,-57.4"/>
</g>
<!-- Node9&#45;&gt;Node5 -->
<g id="edge12" class="edge">
<title>Node9&#45;&gt;Node5</title>
<path fill="none" stroke="midnightblue" d="M161.04,-66.86C359.48,-41.14 584.85,-24.95 674.67,-19.02"/>
<polygon fill="midnightblue" stroke="midnightblue" points="160.47,-63.4 151.01,-68.17 161.38,-70.35 160.47,-63.4"/>
</g>
<!-- Node10 -->
<g id="node10" class="node">
<title>Node10</title>
<g id="a_node10"><a xlink:href="CylindricalLBVelocityProfileAtParticlePositions_8cpp.html" target="_top" xlink:title=" ">
<polygon fill="none" stroke="black" points="0,-0.5 0,-30.5 151,-30.5 151,-0.5 0,-0.5"/>
<text text-anchor="start" x="8" y="-18.5" font-family="Helvetica,sans-Serif" font-size="10.00">CylindricalLBVelocityProfile</text>
<text text-anchor="middle" x="75.5" y="-7.5" font-family="Helvetica,sans-Serif" font-size="10.00">AtParticlePositions.cpp</text>
</a>
</g>
</g>
<!-- Node9&#45;&gt;Node10 -->
<g id="edge11" class="edge">
<title>Node9&#45;&gt;Node10</title>
<path fill="none" stroke="midnightblue" d="M75.5,-57.11C75.5,-48.15 75.5,-38.32 75.5,-30.58"/>
<polygon fill="midnightblue" stroke="midnightblue" points="72,-57.4 75.5,-67.4 79,-57.4 72,-57.4"/>
</g>
<!-- Node11&#45;&gt;Node5 -->
<g id="edge14" class="edge">
<title>Node11&#45;&gt;Node5</title>
<path fill="none" stroke="midnightblue" d="M645.95,-66.57C663.51,-53.74 688.23,-35.69 702.69,-25.13"/>
<polygon fill="midnightblue" stroke="midnightblue" points="643.51,-64.01 637.5,-72.73 647.64,-69.66 643.51,-64.01"/>
</g>
<!-- Node12&#45;&gt;Node5 -->
<g id="edge16" class="edge">
<title>Node12&#45;&gt;Node5</title>
<path fill="none" stroke="midnightblue" d="M949.4,-70.64C893.84,-57.84 802.61,-36.81 751.74,-25.08"/>
<polygon fill="midnightblue" stroke="midnightblue" points="948.81,-74.1 959.34,-72.94 950.39,-67.28 948.81,-74.1"/>
</g>
<!-- Node14 -->
<g id="node14" class="node">
<title>Node14</title>
<g id="a_node14"><a xlink:href="CylindricalLBVelocityProfile_8hpp.html" target="_top" xlink:title=" ">
<polygon fill="none" stroke="black" points="1110.5,-73 1110.5,-92 1282.5,-92 1282.5,-73 1110.5,-73"/>
<text text-anchor="middle" x="1196.5" y="-80" font-family="Helvetica,sans-Serif" font-size="10.00">CylindricalLBVelocityProfile.hpp</text>
</a>
</g>
</g>
<!-- Node13&#45;&gt;Node14 -->
<g id="edge18" class="edge">
<title>Node13&#45;&gt;Node14</title>
<path fill="none" stroke="midnightblue" d="M1206.18,-124.66C1203.62,-113.77 1200.5,-100.49 1198.5,-92.01"/>
<polygon fill="midnightblue" stroke="midnightblue" points="1202.8,-125.54 1208.49,-134.48 1209.61,-123.94 1202.8,-125.54"/>
</g>
<!-- Node16 -->
<g id="node16" class="node">
<title>Node16</title>
<g id="a_node16"><a xlink:href="script__interface_2observables_2CylindricalLBProfileObservable_8hpp.html" target="_top" xlink:title=" ">
<polygon fill="none" stroke="black" points="1300.5,-73 1300.5,-92 1488.5,-92 1488.5,-73 1300.5,-73"/>
<text text-anchor="middle" x="1394.5" y="-80" font-family="Helvetica,sans-Serif" font-size="10.00">CylindricalLBProfileObservable.hpp</text>
</a>
</g>
</g>
<!-- Node13&#45;&gt;Node16 -->
<g id="edge21" class="edge">
<title>Node13&#45;&gt;Node16</title>
<path fill="none" stroke="midnightblue" d="M1246.43,-131.38C1282.2,-119.82 1336.24,-102.34 1368.19,-92.01"/>
<polygon fill="midnightblue" stroke="midnightblue" points="1245.3,-128.07 1236.86,-134.48 1247.45,-134.73 1245.3,-128.07"/>
</g>
<!-- Node14&#45;&gt;Node5 -->
<g id="edge20" class="edge">
<title>Node14&#45;&gt;Node5</title>
<path fill="none" stroke="midnightblue" d="M1131.27,-71.47C1120.98,-69.94 1110.45,-68.4 1100.5,-67 974.18,-49.2 824.3,-30.19 754.27,-21.44"/>
<polygon fill="midnightblue" stroke="midnightblue" points="1131.04,-74.97 1141.45,-72.99 1132.08,-68.05 1131.04,-74.97"/>
</g>
<!-- Node15 -->
<g id="node15" class="node">
<title>Node15</title>
<g id="a_node15"><a xlink:href="CylindricalLBVelocityProfile_8cpp.html" target="_top" xlink:title=" ">
<polygon fill="none" stroke="black" points="1111,-6 1111,-25 1282,-25 1282,-6 1111,-6"/>
<text text-anchor="middle" x="1196.5" y="-13" font-family="Helvetica,sans-Serif" font-size="10.00">CylindricalLBVelocityProfile.cpp</text>
</a>
</g>
</g>
<!-- Node14&#45;&gt;Node15 -->
<g id="edge19" class="edge">
<title>Node14&#45;&gt;Node15</title>
<path fill="none" stroke="midnightblue" d="M1196.5,-62.54C1196.5,-50.17 1196.5,-34.62 1196.5,-25.13"/>
<polygon fill="midnightblue" stroke="midnightblue" points="1193,-62.73 1196.5,-72.73 1200,-62.73 1193,-62.73"/>
</g>
<!-- Node16&#45;&gt;Node5 -->
<g id="edge22" class="edge">
<title>Node16&#45;&gt;Node5</title>
<path fill="none" stroke="midnightblue" d="M1327.87,-71.6C1315.78,-69.95 1303.27,-68.34 1291.5,-67 1089.93,-44.01 847.71,-25.89 754.1,-19.24"/>
<polygon fill="midnightblue" stroke="midnightblue" points="1327.52,-75.08 1337.9,-72.99 1328.48,-68.15 1327.52,-75.08"/>
</g>
<!-- Node18&#45;&gt;Node2 -->
<g id="edge25" class="edge">
<title>Node18&#45;&gt;Node2</title>
<path fill="none" stroke="midnightblue" d="M1398.95,-254.91C1350.18,-242.18 1284.86,-225.13 1246.17,-215.03"/>
<polygon fill="midnightblue" stroke="midnightblue" points="1398.22,-258.34 1408.78,-257.48 1399.99,-251.56 1398.22,-258.34"/>
</g>
<!-- Node19 -->
<g id="node19" class="node">
<title>Node19</title>
<g id="a_node19"><a xlink:href="CylindricalTransformationParameters_8hpp.html" target="_top" xlink:title=" ">
<polygon fill="none" stroke="black" points="1323,-190.5 1323,-220.5 1466,-220.5 1466,-190.5 1323,-190.5"/>
<text text-anchor="start" x="1331" y="-208.5" font-family="Helvetica,sans-Serif" font-size="10.00">CylindricalTransformation</text>
<text text-anchor="middle" x="1394.5" y="-197.5" font-family="Helvetica,sans-Serif" font-size="10.00">Parameters.hpp</text>
</a>
</g>
</g>
<!-- Node18&#45;&gt;Node19 -->
<g id="edge26" class="edge">
<title>Node18&#45;&gt;Node19</title>
<path fill="none" stroke="midnightblue" d="M1440.33,-250.31C1430.13,-240.56 1418.31,-229.26 1409.23,-220.58"/>
<polygon fill="midnightblue" stroke="midnightblue" points="1438.1,-253.02 1447.75,-257.4 1442.93,-247.96 1438.1,-253.02"/>
</g>
<!-- Node23 -->
<g id="node23" class="node">
<title>Node23</title>
<g id="a_node23"><a xlink:href="shapes_2include_2shapes_2HollowConicalFrustum_8hpp.html" target="_top" xlink:title=" ">
<polygon fill="none" stroke="black" points="1484,-196 1484,-215 1631,-215 1631,-196 1484,-196"/>
<text text-anchor="middle" x="1557.5" y="-203" font-family="Helvetica,sans-Serif" font-size="10.00">HollowConicalFrustum.hpp</text>
</a>
</g>
</g>
<!-- Node18&#45;&gt;Node23 -->
<g id="edge32" class="edge">
<title>Node18&#45;&gt;Node23</title>
<path fill="none" stroke="midnightblue" d="M1491.52,-251.64C1509.45,-239.37 1531.54,-224.26 1545.07,-215.01"/>
<polygon fill="midnightblue" stroke="midnightblue" points="1489.39,-248.86 1483.11,-257.4 1493.34,-254.64 1489.39,-248.86"/>
</g>
<!-- Node19&#45;&gt;Node12 -->
<g id="edge29" class="edge">
<title>Node19&#45;&gt;Node12</title>
<path fill="none" stroke="midnightblue" d="M1312.84,-190.33C1228.86,-175.72 1109.94,-154.94 1107.5,-154 1067.06,-138.31 1025.5,-107.08 1006.77,-92.01"/>
<polygon fill="midnightblue" stroke="midnightblue" points="1312.44,-193.81 1322.9,-192.07 1313.64,-186.91 1312.44,-193.81"/>
</g>
<!-- Node19&#45;&gt;Node16 -->
<g id="edge28" class="edge">
<title>Node19&#45;&gt;Node16</title>
<path fill="none" stroke="midnightblue" d="M1370.5,-183.14C1362.91,-174.88 1355.48,-164.81 1351.5,-154 1342.59,-129.78 1367.47,-104.77 1383.02,-92.05"/>
<polygon fill="midnightblue" stroke="midnightblue" points="1368.2,-185.8 1377.7,-190.47 1373.19,-180.89 1368.2,-185.8"/>
</g>
<!-- Node20 -->
<g id="node20" class="node">
<title>Node20</title>
<g id="a_node20"><a xlink:href="initialize_8cpp.html" target="_top" xlink:title=" ">
<polygon fill="none" stroke="black" points="1361,-134.5 1361,-153.5 1440,-153.5 1440,-134.5 1361,-134.5"/>
<text text-anchor="middle" x="1400.5" y="-141.5" font-family="Helvetica,sans-Serif" font-size="10.00">initialize.cpp</text>
</a>
</g>
</g>
<!-- Node19&#45;&gt;Node20 -->
<g id="edge27" class="edge">
<title>Node19&#45;&gt;Node20</title>
<path fill="none" stroke="midnightblue" d="M1396.94,-180.29C1397.89,-170.86 1398.92,-160.65 1399.63,-153.66"/>
<polygon fill="midnightblue" stroke="midnightblue" points="1393.44,-180.1 1395.92,-190.4 1400.41,-180.8 1393.44,-180.1"/>
</g>
<!-- Node21 -->
<g id="node21" class="node">
<title>Node21</title>
<g id="a_node21"><a xlink:href="script__interface_2shapes_2HollowConicalFrustum_8hpp.html" target="_top" xlink:title=" ">
<polygon fill="none" stroke="black" points="1458,-134.5 1458,-153.5 1605,-153.5 1605,-134.5 1458,-134.5"/>
<text text-anchor="middle" x="1531.5" y="-141.5" font-family="Helvetica,sans-Serif" font-size="10.00">HollowConicalFrustum.hpp</text>
</a>
</g>
</g>
<!-- Node19&#45;&gt;Node21 -->
<g id="edge30" class="edge">
<title>Node19&#45;&gt;Node21</title>
<path fill="none" stroke="midnightblue" d="M1436.24,-186.37C1461.25,-175.51 1491.9,-162.2 1511.57,-153.66"/>
<polygon fill="midnightblue" stroke="midnightblue" points="1434.75,-183.21 1426.97,-190.4 1437.53,-189.63 1434.75,-183.21"/>
</g>
<!-- Node22 -->
<g id="node22" class="node">
<title>Node22</title>
<g id="a_node22"><a xlink:href="shapes_2initialize_8cpp.html" target="_top" xlink:title=" ">
<polygon fill="none" stroke="black" points="1507,-73 1507,-92 1586,-92 1586,-73 1507,-73"/>
<text text-anchor="middle" x="1546.5" y="-80" font-family="Helvetica,sans-Serif" font-size="10.00">initialize.cpp</text>
</a>
</g>
</g>
<!-- Node21&#45;&gt;Node22 -->
<g id="edge31" class="edge">
<title>Node21&#45;&gt;Node22</title>
<path fill="none" stroke="midnightblue" d="M1536.12,-124.66C1538.87,-113.77 1542.22,-100.49 1544.35,-92.01"/>
<polygon fill="midnightblue" stroke="midnightblue" points="1532.7,-123.92 1533.65,-134.48 1539.49,-125.63 1532.7,-123.92"/>
</g>
<!-- Node23&#45;&gt;Node17 -->
<g id="edge34" class="edge">
<title>Node23&#45;&gt;Node17</title>
<path fill="none" stroke="midnightblue" d="M1586.75,-191.98C1613.75,-180.42 1653.1,-163.58 1676.62,-153.51"/>
<polygon fill="midnightblue" stroke="midnightblue" points="1585.23,-188.82 1577.42,-195.98 1587.99,-195.26 1585.23,-188.82"/>
</g>
<!-- Node23&#45;&gt;Node21 -->
<g id="edge33" class="edge">
<title>Node23&#45;&gt;Node21</title>
<path fill="none" stroke="midnightblue" d="M1549.63,-186.5C1544.85,-175.55 1538.96,-162.07 1535.22,-153.51"/>
<polygon fill="midnightblue" stroke="midnightblue" points="1546.56,-188.21 1553.77,-195.98 1552.98,-185.41 1546.56,-188.21"/>
</g>
<!-- Node25 -->
<g id="node25" class="node">
<title>Node25</title>
<g id="a_node25"><a xlink:href="dp3m__influence__function_8hpp.html" target="_top" xlink:title=" ">
<polygon fill="none" stroke="black" points="1755,-196 1755,-215 1916,-215 1916,-196 1755,-196"/>
<text text-anchor="middle" x="1835.5" y="-203" font-family="Helvetica,sans-Serif" font-size="10.00">dp3m_influence_function.hpp</text>
</a>
</g>
</g>
<!-- Node24&#45;&gt;Node25 -->
<g id="edge36" class="edge">
<title>Node24&#45;&gt;Node25</title>
<path fill="none" stroke="midnightblue" d="M1920.93,-257.44C1899.34,-244.57 1868.08,-225.93 1849.97,-215.13"/>
<polygon fill="midnightblue" stroke="midnightblue" points="1919.42,-260.62 1929.8,-262.73 1923,-254.61 1919.42,-260.62"/>
</g>
<!-- Node26 -->
<g id="node26" class="node">
<title>Node26</title>
<g id="a_node26"><a xlink:href="p3m-dipolar_8cpp.html" target="_top" xlink:title=" ">
<polygon fill="none" stroke="black" points="1787.5,-134.5 1787.5,-153.5 1883.5,-153.5 1883.5,-134.5 1787.5,-134.5"/>
<text text-anchor="middle" x="1835.5" y="-141.5" font-family="Helvetica,sans-Serif" font-size="10.00">p3m&#45;dipolar.cpp</text>
</a>
</g>
</g>
<!-- Node24&#45;&gt;Node26 -->
<g id="edge38" class="edge">
<title>Node24&#45;&gt;Node26</title>
<path fill="none" stroke="midnightblue" d="M1905.54,-267.24C1853.33,-260.63 1764.95,-246 1745.5,-221 1737.04,-210.13 1738.26,-201.72 1745.5,-190 1757.07,-171.28 1779.06,-160.08 1798.4,-153.54"/>
<polygon fill="midnightblue" stroke="midnightblue" points="1905.43,-270.75 1915.79,-268.49 1906.28,-263.8 1905.43,-270.75"/>
</g>
<!-- Node27 -->
<g id="node27" class="node">
<title>Node27</title>
<g id="a_node27"><a xlink:href="p3m_8cpp.html" target="_top" xlink:title=" ">
<polygon fill="none" stroke="black" points="1968,-134.5 1968,-153.5 2027,-153.5 2027,-134.5 1968,-134.5"/>
<text text-anchor="middle" x="1997.5" y="-141.5" font-family="Helvetica,sans-Serif" font-size="10.00">p3m.cpp</text>
</a>
</g>
</g>
<!-- Node24&#45;&gt;Node27 -->
<g id="edge39" class="edge">
<title>Node24&#45;&gt;Node27</title>
<path fill="none" stroke="midnightblue" d="M1947.04,-252.26C1949.79,-235.28 1955.09,-210.17 1964.5,-190 1970.97,-176.13 1982.03,-162.24 1989.54,-153.64"/>
<polygon fill="midnightblue" stroke="midnightblue" points="1943.52,-252.16 1945.53,-262.56 1950.45,-253.17 1943.52,-252.16"/>
</g>
<!-- Node28 -->
<g id="node28" class="node">
<title>Node28</title>
<g id="a_node28"><a xlink:href="p3m__gpu__cuda_8cu.html" target="_top" xlink:title=" ">
<polygon fill="none" stroke="black" points="2146.5,-196 2146.5,-215 2250.5,-215 2250.5,-196 2146.5,-196"/>
<text text-anchor="middle" x="2198.5" y="-203" font-family="Helvetica,sans-Serif" font-size="10.00">p3m_gpu_cuda.cu</text>
</a>
</g>
</g>
<!-- Node24&#45;&gt;Node28 -->
<g id="edge40" class="edge">
<title>Node24&#45;&gt;Node28</title>
<path fill="none" stroke="midnightblue" d="M1982.86,-261.68C2032.48,-248.99 2118.11,-227.07 2165.15,-215.03"/>
<polygon fill="midnightblue" stroke="midnightblue" points="1981.96,-258.3 1973.14,-264.17 1983.7,-265.08 1981.96,-258.3"/>
</g>
<!-- Node29 -->
<g id="node29" class="node">
<title>Node29</title>
<g id="a_node29"><a xlink:href="p3m__gpu__error__cuda_8cu.html" target="_top" xlink:title=" ">
<polygon fill="none" stroke="black" points="2269,-196 2269,-215 2402,-215 2402,-196 2269,-196"/>
<text text-anchor="middle" x="2335.5" y="-203" font-family="Helvetica,sans-Serif" font-size="10.00">p3m_gpu_error_cuda.cu</text>
</a>
</g>
</g>
<!-- Node24&#45;&gt;Node29 -->
<g id="edge41" class="edge">
<title>Node24&#45;&gt;Node29</title>
<path fill="none" stroke="midnightblue" d="M1983.29,-265.66C2042.8,-256.61 2160.18,-238.43 2259.5,-221 2270.08,-219.14 2281.48,-217.03 2292.13,-215"/>
<polygon fill="midnightblue" stroke="midnightblue" points="1982.57,-262.23 1973.21,-267.19 1983.62,-269.15 1982.57,-262.23"/>
</g>
<!-- Node30 -->
<g id="node30" class="node">
<title>Node30</title>
<g id="a_node30"><a xlink:href="p3m__influence__function_8hpp.html" target="_top" xlink:title=" ">
<polygon fill="none" stroke="black" points="1973,-196 1973,-215 2128,-215 2128,-196 1973,-196"/>
<text text-anchor="middle" x="2050.5" y="-203" font-family="Helvetica,sans-Serif" font-size="10.00">p3m_influence_function.hpp</text>
</a>
</g>
</g>
<!-- Node24&#45;&gt;Node30 -->
<g id="edge42" class="edge">
<title>Node24&#45;&gt;Node30</title>
<path fill="none" stroke="midnightblue" d="M1967.42,-257.44C1988.42,-244.57 2018.82,-225.93 2036.43,-215.13"/>
<polygon fill="midnightblue" stroke="midnightblue" points="1965.49,-254.52 1958.8,-262.73 1969.15,-260.49 1965.49,-254.52"/>
</g>
<!-- Node25&#45;&gt;Node26 -->
<g id="edge37" class="edge">
<title>Node25&#45;&gt;Node26</title>
<path fill="none" stroke="midnightblue" d="M1835.5,-185.82C1835.5,-175 1835.5,-161.9 1835.5,-153.51"/>
<polygon fill="midnightblue" stroke="midnightblue" points="1832,-185.98 1835.5,-195.98 1839,-185.98 1832,-185.98"/>
</g>
<!-- Node30&#45;&gt;Node27 -->
<g id="edge43" class="edge">
<title>Node30&#45;&gt;Node27</title>
<path fill="none" stroke="midnightblue" d="M2036.25,-188.5C2026.21,-177.24 2013.18,-162.6 2005.08,-153.51"/>
<polygon fill="midnightblue" stroke="midnightblue" points="2033.64,-190.84 2042.91,-195.98 2038.87,-186.18 2033.64,-190.84"/>
</g>
</g>
</svg>
