<?xml version="1.0" encoding="UTF-8" standalone="no"?>
<!DOCTYPE svg PUBLIC "-//W3C//DTD SVG 1.1//EN"
 "http://www.w3.org/Graphics/SVG/1.1/DTD/svg11.dtd">
<!-- Generated by graphviz version 2.43.0 (0)
 -->
<!-- Title: Accumulator.hpp Pages: 1 -->
<!--zoomable 252 -->
<svg id="main" version="1.1" xmlns="http://www.w3.org/2000/svg" xmlns:xlink="http://www.w3.org/1999/xlink" xml:space="preserve" onload="init(evt)">
<style type="text/css"><![CDATA[
.edge:hover path { stroke: red; }
.edge:hover polygon { stroke: red; fill: red; }
]]></style>
<script type="text/javascript"><![CDATA[
var edges = document.getElementsByTagName('g');
if (edges && edges.length) {
  for (var i=0;i<edges.length;i++) {
    if (edges[i].id.substr(0,4)=='edge') {
      edges[i].setAttribute('class','edge');
    }
  }
}
]]></script>
        <defs>
                <circle id="rim" cx="0" cy="0" r="7"/>
                <circle id="rim2" cx="0" cy="0" r="3.5"/>
                <g id="zoomPlus">
                        <use xlink:href="#rim" fill="#404040">
                                <set attributeName="fill" to="#808080" begin="zoomplus.mouseover" end="zoomplus.mouseout"/>
                        </use>
                        <path d="M-4,0h8M0,-4v8" fill="none" stroke="white" stroke-width="1.5" pointer-events="none"/>
                </g>
                <g id="zoomMin">
                        <use xlink:href="#rim" fill="#404040">
                                <set attributeName="fill" to="#808080" begin="zoomminus.mouseover" end="zoomminus.mouseout"/>
                        </use>
                        <path d="M-4,0h8" fill="none" stroke="white" stroke-width="1.5" pointer-events="none"/>
                </g>
                <g id="dirArrow">
                        <path fill="none" stroke="white" stroke-width="1.5" d="M0,-3.0v7 M-2.5,-0.5L0,-3.0L2.5,-0.5"/>
                </g>
               <g id="resetDef">
                       <use xlink:href="#rim2" fill="#404040">
                               <set attributeName="fill" to="#808080" begin="reset.mouseover" end="reset.mouseout"/>
                       </use>
               </g>
        </defs>

<script type="text/javascript">
var viewWidth = 941;
var viewHeight = 252;
var sectionId = 'dynsection-1';
</script>
<script xlink:href="svgpan.js"/>
<svg id="graph" class="graph">
<g id="viewport">
<title>Accumulator.hpp</title>
<!-- Node1 -->
<g id="node1" class="node">
<title>Node1</title>
<g id="a_node1"><a xlink:title=" ">
<polygon fill="#bfbfbf" stroke="black" points="279.5,-224.5 279.5,-243.5 378.5,-243.5 378.5,-224.5 279.5,-224.5"/>
<text text-anchor="middle" x="329" y="-231.5" font-family="Helvetica,sans-Serif" font-size="10.00">Accumulator.hpp</text>
</a>
</g>
</g>
<!-- Node2 -->
<g id="node2" class="node">
<title>Node2</title>
<g id="a_node2"><a xlink:href="core_2accumulators_2MeanVarianceCalculator_8hpp.html" target="_top" xlink:title=" ">
<polygon fill="none" stroke="black" points="174.5,-168.5 174.5,-187.5 331.5,-187.5 331.5,-168.5 174.5,-168.5"/>
<text text-anchor="middle" x="253" y="-175.5" font-family="Helvetica,sans-Serif" font-size="10.00">MeanVarianceCalculator.hpp</text>
</a>
</g>
</g>
<!-- Node1&#45;&gt;Node2 -->
<g id="edge1" class="edge">
<title>Node1&#45;&gt;Node2</title>
<path fill="none" stroke="midnightblue" d="M308.42,-218.38C294.69,-208.62 277.07,-196.11 265.43,-187.83"/>
<polygon fill="midnightblue" stroke="midnightblue" points="306.61,-221.38 316.79,-224.32 310.66,-215.68 306.61,-221.38"/>
</g>
<!-- Node6 -->
<g id="node6" class="node">
<title>Node6</title>
<g id="a_node6"><a xlink:href="SingleReaction_8hpp.html" target="_top" xlink:title=" ">
<polygon fill="none" stroke="black" points="398,-168.5 398,-187.5 508,-187.5 508,-168.5 398,-168.5"/>
<text text-anchor="middle" x="453" y="-175.5" font-family="Helvetica,sans-Serif" font-size="10.00">SingleReaction.hpp</text>
</a>
</g>
</g>
<!-- Node1&#45;&gt;Node6 -->
<g id="edge5" class="edge">
<title>Node1&#45;&gt;Node6</title>
<path fill="none" stroke="midnightblue" d="M358.01,-220.37C381.23,-210.26 413.16,-196.35 433.44,-187.52"/>
<polygon fill="midnightblue" stroke="midnightblue" points="356.42,-217.24 348.65,-224.44 359.21,-223.66 356.42,-217.24"/>
</g>
<!-- Node3 -->
<g id="node3" class="node">
<title>Node3</title>
<g id="a_node3"><a xlink:href="MeanVarianceCalculator_8cpp.html" target="_top" xlink:title=" ">
<polygon fill="none" stroke="black" points="0,-112.5 0,-131.5 156,-131.5 156,-112.5 0,-112.5"/>
<text text-anchor="middle" x="78" y="-119.5" font-family="Helvetica,sans-Serif" font-size="10.00">MeanVarianceCalculator.cpp</text>
</a>
</g>
</g>
<!-- Node2&#45;&gt;Node3 -->
<g id="edge2" class="edge">
<title>Node2&#45;&gt;Node3</title>
<path fill="none" stroke="midnightblue" d="M215.53,-165.44C182.53,-155.26 135.24,-140.66 105.6,-131.52"/>
<polygon fill="midnightblue" stroke="midnightblue" points="214.68,-168.84 225.27,-168.44 216.75,-162.15 214.68,-168.84"/>
</g>
<!-- Node4 -->
<g id="node4" class="node">
<title>Node4</title>
<g id="a_node4"><a xlink:href="script__interface_2accumulators_2MeanVarianceCalculator_8hpp.html" target="_top" xlink:title=" ">
<polygon fill="none" stroke="black" points="174.5,-112.5 174.5,-131.5 331.5,-131.5 331.5,-112.5 174.5,-112.5"/>
<text text-anchor="middle" x="253" y="-119.5" font-family="Helvetica,sans-Serif" font-size="10.00">MeanVarianceCalculator.hpp</text>
</a>
</g>
</g>
<!-- Node2&#45;&gt;Node4 -->
<g id="edge3" class="edge">
<title>Node2&#45;&gt;Node4</title>
<path fill="none" stroke="midnightblue" d="M253,-157.8C253,-148.91 253,-138.78 253,-131.75"/>
<polygon fill="midnightblue" stroke="midnightblue" points="249.5,-158.08 253,-168.08 256.5,-158.08 249.5,-158.08"/>
</g>
<!-- Node5 -->
<g id="node5" class="node">
<title>Node5</title>
<g id="a_node5"><a xlink:href="accumulators_2initialize_8cpp.html" target="_top" xlink:title=" ">
<polygon fill="none" stroke="black" points="189.5,-56.5 189.5,-75.5 268.5,-75.5 268.5,-56.5 189.5,-56.5"/>
<text text-anchor="middle" x="229" y="-63.5" font-family="Helvetica,sans-Serif" font-size="10.00">initialize.cpp</text>
</a>
</g>
</g>
<!-- Node4&#45;&gt;Node5 -->
<g id="edge4" class="edge">
<title>Node4&#45;&gt;Node5</title>
<path fill="none" stroke="midnightblue" d="M244.86,-102.69C240.82,-93.59 236.12,-83.01 232.89,-75.75"/>
<polygon fill="midnightblue" stroke="midnightblue" points="241.78,-104.37 249.04,-112.08 248.17,-101.52 241.78,-104.37"/>
</g>
<!-- Node7 -->
<g id="node7" class="node">
<title>Node7</title>
<g id="a_node7"><a xlink:href="ReactionAlgorithm_8hpp.html" target="_top" xlink:title=" ">
<polygon fill="none" stroke="black" points="469,-112.5 469,-131.5 597,-131.5 597,-112.5 469,-112.5"/>
<text text-anchor="middle" x="533" y="-119.5" font-family="Helvetica,sans-Serif" font-size="10.00">ReactionAlgorithm.hpp</text>
</a>
</g>
</g>
<!-- Node6&#45;&gt;Node7 -->
<g id="edge6" class="edge">
<title>Node6&#45;&gt;Node7</title>
<path fill="none" stroke="midnightblue" d="M474.3,-162.62C488.92,-152.76 507.83,-139.99 520.18,-131.65"/>
<polygon fill="midnightblue" stroke="midnightblue" points="472.18,-159.83 465.85,-168.32 476.1,-165.63 472.18,-159.83"/>
</g>
<!-- Node8 -->
<g id="node8" class="node">
<title>Node8</title>
<g id="a_node8"><a xlink:href="utils_8hpp.html" target="_top" xlink:title=" ">
<polygon fill="none" stroke="black" points="447.5,-56.5 447.5,-75.5 506.5,-75.5 506.5,-56.5 447.5,-56.5"/>
<text text-anchor="middle" x="477" y="-63.5" font-family="Helvetica,sans-Serif" font-size="10.00">utils.hpp</text>
</a>
</g>
</g>
<!-- Node7&#45;&gt;Node8 -->
<g id="edge7" class="edge">
<title>Node7&#45;&gt;Node8</title>
<path fill="none" stroke="midnightblue" d="M516.67,-105.25C506.74,-95.67 494.41,-83.79 486.16,-75.83"/>
<polygon fill="midnightblue" stroke="midnightblue" points="514.37,-107.9 524,-112.32 519.23,-102.86 514.37,-107.9"/>
</g>
<!-- Node12 -->
<g id="node12" class="node">
<title>Node12</title>
<g id="a_node12"><a xlink:href="ConstantpHEnsemble_8hpp.html" target="_top" xlink:title=" ">
<polygon fill="none" stroke="black" points="286.5,-56.5 286.5,-75.5 429.5,-75.5 429.5,-56.5 286.5,-56.5"/>
<text text-anchor="middle" x="358" y="-63.5" font-family="Helvetica,sans-Serif" font-size="10.00">ConstantpHEnsemble.hpp</text>
</a>
</g>
</g>
<!-- Node7&#45;&gt;Node12 -->
<g id="edge11" class="edge">
<title>Node7&#45;&gt;Node12</title>
<path fill="none" stroke="midnightblue" d="M495.53,-109.44C462.53,-99.26 415.24,-84.66 385.6,-75.52"/>
<polygon fill="midnightblue" stroke="midnightblue" points="494.68,-112.84 505.27,-112.44 496.75,-106.15 494.68,-112.84"/>
</g>
<!-- Node13 -->
<g id="node13" class="node">
<title>Node13</title>
<g id="a_node13"><a xlink:href="ReactionAlgorithm_8cpp.html" target="_top" xlink:title=" ">
<polygon fill="none" stroke="black" points="525,-56.5 525,-75.5 653,-75.5 653,-56.5 525,-56.5"/>
<text text-anchor="middle" x="589" y="-63.5" font-family="Helvetica,sans-Serif" font-size="10.00">ReactionAlgorithm.cpp</text>
</a>
</g>
</g>
<!-- Node7&#45;&gt;Node13 -->
<g id="edge13" class="edge">
<title>Node7&#45;&gt;Node13</title>
<path fill="none" stroke="midnightblue" d="M549.33,-105.25C559.26,-95.67 571.59,-83.79 579.84,-75.83"/>
<polygon fill="midnightblue" stroke="midnightblue" points="546.77,-102.86 542,-112.32 551.63,-107.9 546.77,-102.86"/>
</g>
<!-- Node14 -->
<g id="node14" class="node">
<title>Node14</title>
<g id="a_node14"><a xlink:href="ReactionEnsemble_8hpp.html" target="_top" xlink:title=" ">
<polygon fill="none" stroke="black" points="671,-56.5 671,-75.5 799,-75.5 799,-56.5 671,-56.5"/>
<text text-anchor="middle" x="735" y="-63.5" font-family="Helvetica,sans-Serif" font-size="10.00">ReactionEnsemble.hpp</text>
</a>
</g>
</g>
<!-- Node7&#45;&gt;Node14 -->
<g id="edge14" class="edge">
<title>Node7&#45;&gt;Node14</title>
<path fill="none" stroke="midnightblue" d="M574.79,-109.83C612.93,-99.63 668.48,-84.78 703.14,-75.52"/>
<polygon fill="midnightblue" stroke="midnightblue" points="573.76,-106.48 565.01,-112.44 575.57,-113.24 573.76,-106.48"/>
</g>
<!-- Node15 -->
<g id="node15" class="node">
<title>Node15</title>
<g id="a_node15"><a xlink:href="WidomInsertion_8hpp.html" target="_top" xlink:title=" ">
<polygon fill="none" stroke="black" points="817.5,-56.5 817.5,-75.5 932.5,-75.5 932.5,-56.5 817.5,-56.5"/>
<text text-anchor="middle" x="875" y="-63.5" font-family="Helvetica,sans-Serif" font-size="10.00">WidomInsertion.hpp</text>
</a>
</g>
</g>
<!-- Node7&#45;&gt;Node15 -->
<g id="edge16" class="edge">
<title>Node7&#45;&gt;Node15</title>
<path fill="none" stroke="midnightblue" d="M597.26,-110.85C661.88,-100.65 760.38,-85.1 821.06,-75.52"/>
<polygon fill="midnightblue" stroke="midnightblue" points="596.52,-107.43 587.19,-112.44 597.61,-114.34 596.52,-107.43"/>
</g>
<!-- Node9 -->
<g id="node9" class="node">
<title>Node9</title>
<g id="a_node9"><a xlink:href="ConstantpHEnsemble_8cpp.html" target="_top" xlink:title=" ">
<polygon fill="none" stroke="black" points="288,-0.5 288,-19.5 430,-19.5 430,-0.5 288,-0.5"/>
<text text-anchor="middle" x="359" y="-7.5" font-family="Helvetica,sans-Serif" font-size="10.00">ConstantpHEnsemble.cpp</text>
</a>
</g>
</g>
<!-- Node8&#45;&gt;Node9 -->
<g id="edge8" class="edge">
<title>Node8&#45;&gt;Node9</title>
<path fill="none" stroke="midnightblue" d="M449.1,-52.23C427.03,-42.13 396.82,-28.31 377.61,-19.52"/>
<polygon fill="midnightblue" stroke="midnightblue" points="447.75,-55.46 458.3,-56.44 450.67,-49.1 447.75,-55.46"/>
</g>
<!-- Node10 -->
<g id="node10" class="node">
<title>Node10</title>
<g id="a_node10"><a xlink:href="ReactionEnsemble_8cpp.html" target="_top" xlink:title=" ">
<polygon fill="none" stroke="black" points="598,-0.5 598,-19.5 726,-19.5 726,-0.5 598,-0.5"/>
<text text-anchor="middle" x="662" y="-7.5" font-family="Helvetica,sans-Serif" font-size="10.00">ReactionEnsemble.cpp</text>
</a>
</g>
</g>
<!-- Node8&#45;&gt;Node10 -->
<g id="edge9" class="edge">
<title>Node8&#45;&gt;Node10</title>
<path fill="none" stroke="midnightblue" d="M516.17,-53.57C551.07,-43.38 601.35,-28.7 632.82,-19.52"/>
<polygon fill="midnightblue" stroke="midnightblue" points="514.93,-50.28 506.31,-56.44 516.89,-57 514.93,-50.28"/>
</g>
<!-- Node11 -->
<g id="node11" class="node">
<title>Node11</title>
<g id="a_node11"><a xlink:href="utils_8cpp.html" target="_top" xlink:title=" ">
<polygon fill="none" stroke="black" points="448,-0.5 448,-19.5 506,-19.5 506,-0.5 448,-0.5"/>
<text text-anchor="middle" x="477" y="-7.5" font-family="Helvetica,sans-Serif" font-size="10.00">utils.cpp</text>
</a>
</g>
</g>
<!-- Node8&#45;&gt;Node11 -->
<g id="edge10" class="edge">
<title>Node8&#45;&gt;Node11</title>
<path fill="none" stroke="midnightblue" d="M477,-45.8C477,-36.91 477,-26.78 477,-19.75"/>
<polygon fill="midnightblue" stroke="midnightblue" points="473.5,-46.08 477,-56.08 480.5,-46.08 473.5,-46.08"/>
</g>
<!-- Node12&#45;&gt;Node9 -->
<g id="edge12" class="edge">
<title>Node12&#45;&gt;Node9</title>
<path fill="none" stroke="midnightblue" d="M358.36,-45.8C358.52,-36.91 358.71,-26.78 358.84,-19.75"/>
<polygon fill="midnightblue" stroke="midnightblue" points="354.85,-46.02 358.17,-56.08 361.85,-46.15 354.85,-46.02"/>
</g>
<!-- Node14&#45;&gt;Node10 -->
<g id="edge15" class="edge">
<title>Node14&#45;&gt;Node10</title>
<path fill="none" stroke="midnightblue" d="M714.86,-50.1C701.72,-40.38 685.02,-28.03 673.94,-19.83"/>
<polygon fill="midnightblue" stroke="midnightblue" points="713.15,-53.19 723.27,-56.32 717.31,-47.56 713.15,-53.19"/>
</g>
<!-- Node16 -->
<g id="node16" class="node">
<title>Node16</title>
<g id="a_node16"><a xlink:href="WidomInsertion_8cpp.html" target="_top" xlink:title=" ">
<polygon fill="none" stroke="black" points="818,-0.5 818,-19.5 932,-19.5 932,-0.5 818,-0.5"/>
<text text-anchor="middle" x="875" y="-7.5" font-family="Helvetica,sans-Serif" font-size="10.00">WidomInsertion.cpp</text>
</a>
</g>
</g>
<!-- Node15&#45;&gt;Node16 -->
<g id="edge17" class="edge">
<title>Node15&#45;&gt;Node16</title>
<path fill="none" stroke="midnightblue" d="M875,-45.8C875,-36.91 875,-26.78 875,-19.75"/>
<polygon fill="midnightblue" stroke="midnightblue" points="871.5,-46.08 875,-56.08 878.5,-46.08 871.5,-46.08"/>
</g>
</g>
</svg>
        <g id="navigator" transform="translate(0 0)" fill="#404254">
                <rect fill="#f2f5e9" fill-opacity="0.5" stroke="#606060" stroke-width=".5" x="0" y="0" width="60" height="60"/>
                <use id="zoomplus" xlink:href="#zoomPlus" x="17" y="9" onmousedown="handleZoom(evt,'in')"/>
                <use id="zoomminus" xlink:href="#zoomMin" x="42" y="9" onmousedown="handleZoom(evt,'out')"/>
                <use id="reset" xlink:href="#resetDef" x="30" y="36" onmousedown="handleReset()"/>
                <g id="arrowUp" xlink:href="#dirArrow" transform="translate(30 24)" onmousedown="handlePan(0,-1)">
                  <use xlink:href="#rim" fill="#404040">
                        <set attributeName="fill" to="#808080" begin="arrowUp.mouseover" end="arrowUp.mouseout"/>
                  </use>
                  <path fill="none" stroke="white" stroke-width="1.5" d="M0,-3.0v7 M-2.5,-0.5L0,-3.0L2.5,-0.5"/>
                </g>
                <g id="arrowRight" xlink:href="#dirArrow" transform="rotate(90) translate(36 -43)" onmousedown="handlePan(1,0)">
                  <use xlink:href="#rim" fill="#404040">
                        <set attributeName="fill" to="#808080" begin="arrowRight.mouseover" end="arrowRight.mouseout"/>
                  </use>
                  <path fill="none" stroke="white" stroke-width="1.5" d="M0,-3.0v7 M-2.5,-0.5L0,-3.0L2.5,-0.5"/>
                </g>
                <g id="arrowDown" xlink:href="#dirArrow" transform="rotate(180) translate(-30 -48)" onmousedown="handlePan(0,1)">
                  <use xlink:href="#rim" fill="#404040">
                        <set attributeName="fill" to="#808080" begin="arrowDown.mouseover" end="arrowDown.mouseout"/>
                  </use>
                  <path fill="none" stroke="white" stroke-width="1.5" d="M0,-3.0v7 M-2.5,-0.5L0,-3.0L2.5,-0.5"/>
                </g>
                <g id="arrowLeft" xlink:href="#dirArrow" transform="rotate(270) translate(-36 17)" onmousedown="handlePan(-1,0)">
                  <use xlink:href="#rim" fill="#404040">
                        <set attributeName="fill" to="#808080" begin="arrowLeft.mouseover" end="arrowLeft.mouseout"/>
                  </use>
                  <path fill="none" stroke="white" stroke-width="1.5" d="M0,-3.0v7 M-2.5,-0.5L0,-3.0L2.5,-0.5"/>
                </g>
        </g>
        <svg viewBox="0 0 15 15" width="100%" height="30px" preserveAspectRatio="xMaxYMin meet">
         <g id="arrow_out" transform="scale(0.3 0.3)">
          <a xlink:href="Accumulator_8hpp__dep__incl_org.svg" target="_base">
           <rect id="button" ry="5" rx="5" y="6" x="6" height="38" width="38"
                fill="#f2f5e9" fill-opacity="0.5" stroke="#606060" stroke-width="1.0"/>
           <path id="arrow"
             d="M 11.500037,31.436501 C 11.940474,20.09759 22.043105,11.32322 32.158766,21.979434 L 37.068811,17.246167 C 37.068811,17.246167 37.088388,32 37.088388,32 L 22.160133,31.978069 C 22.160133,31.978069 26.997745,27.140456 26.997745,27.140456 C 18.528582,18.264221 13.291696,25.230495 11.500037,31.436501 z"
             style="fill:#404040;"/>
          </a>
         </g>
        </svg>
</svg>
