<?xml version="1.0" encoding="UTF-8" standalone="no"?>
<!DOCTYPE svg PUBLIC "-//W3C//DTD SVG 1.1//EN"
 "http://www.w3.org/Graphics/SVG/1.1/DTD/svg11.dtd">
<!-- Generated by graphviz version 2.43.0 (0)
 -->
<!-- Title: ActorList.hpp Pages: 1 -->
<svg width="1710pt" height="375pt"
 viewBox="0.00 0.00 1710.00 375.00" xmlns="http://www.w3.org/2000/svg" xmlns:xlink="http://www.w3.org/1999/xlink">
<g id="graph0" class="graph" transform="scale(1 1) rotate(0) translate(4 371)">
<title>ActorList.hpp</title>
<!-- Node1 -->
<g id="node1" class="node">
<title>Node1</title>
<g id="a_node1"><a xlink:title=" ">
<polygon fill="#bfbfbf" stroke="black" points="1338.5,-347.5 1338.5,-366.5 1418.5,-366.5 1418.5,-347.5 1338.5,-347.5"/>
<text text-anchor="middle" x="1378.5" y="-354.5" font-family="Helvetica,sans-Serif" font-size="10.00">ActorList.hpp</text>
</a>
</g>
</g>
<!-- Node2 -->
<g id="node2" class="node">
<title>Node2</title>
<g id="a_node2"><a xlink:href="Actor_8hpp.html" target="_top" xlink:title=" ">
<polygon fill="none" stroke="black" points="1317,-291.5 1317,-310.5 1380,-310.5 1380,-291.5 1317,-291.5"/>
<text text-anchor="middle" x="1348.5" y="-298.5" font-family="Helvetica,sans-Serif" font-size="10.00">Actor.hpp</text>
</a>
</g>
</g>
<!-- Node1&#45;&gt;Node2 -->
<g id="edge1" class="edge">
<title>Node1&#45;&gt;Node2</title>
<path fill="none" stroke="midnightblue" d="M1373.55,-347.08C1369.4,-339.61 1363.35,-328.72 1358.23,-319.52"/>
<polygon fill="midnightblue" stroke="midnightblue" points="1361.28,-317.79 1353.36,-310.75 1355.16,-321.19 1361.28,-317.79"/>
</g>
<!-- Node25 -->
<g id="node25" class="node">
<title>Node25</title>
<g id="a_node25"><a xlink:title=" ">
<polygon fill="none" stroke="#bfbfbf" points="1655,-123.5 1655,-142.5 1702,-142.5 1702,-123.5 1655,-123.5"/>
<text text-anchor="middle" x="1678.5" y="-130.5" font-family="Helvetica,sans-Serif" font-size="10.00">vector</text>
</a>
</g>
</g>
<!-- Node1&#45;&gt;Node25 -->
<g id="edge31" class="edge">
<title>Node1&#45;&gt;Node25</title>
<path fill="none" stroke="midnightblue" d="M1390.26,-347.3C1435.81,-313.59 1600.97,-191.37 1658.54,-148.77"/>
<polygon fill="midnightblue" stroke="midnightblue" points="1660.86,-151.4 1666.82,-142.64 1656.7,-145.78 1660.86,-151.4"/>
</g>
<!-- Node3 -->
<g id="node3" class="node">
<title>Node3</title>
<g id="a_node3"><a xlink:href="SystemInterface_8hpp.html" target="_top" xlink:title=" ">
<polygon fill="none" stroke="black" points="1238.5,-235.5 1238.5,-254.5 1356.5,-254.5 1356.5,-235.5 1238.5,-235.5"/>
<text text-anchor="middle" x="1297.5" y="-242.5" font-family="Helvetica,sans-Serif" font-size="10.00">SystemInterface.hpp</text>
</a>
</g>
</g>
<!-- Node2&#45;&gt;Node3 -->
<g id="edge2" class="edge">
<title>Node2&#45;&gt;Node3</title>
<path fill="none" stroke="midnightblue" d="M1340.08,-291.08C1332.65,-283.22 1321.65,-271.57 1312.69,-262.08"/>
<polygon fill="midnightblue" stroke="midnightblue" points="1315.18,-259.62 1305.76,-254.75 1310.09,-264.42 1315.18,-259.62"/>
</g>
<!-- Node4 -->
<g id="node4" class="node">
<title>Node4</title>
<g id="a_node4"><a xlink:href="config_8hpp.html" target="_top" xlink:title=" ">
<polygon fill="none" stroke="black" points="1294.5,-179.5 1294.5,-198.5 1362.5,-198.5 1362.5,-179.5 1294.5,-179.5"/>
<text text-anchor="middle" x="1328.5" y="-186.5" font-family="Helvetica,sans-Serif" font-size="10.00">config.hpp</text>
</a>
</g>
</g>
<!-- Node3&#45;&gt;Node4 -->
<g id="edge3" class="edge">
<title>Node3&#45;&gt;Node4</title>
<path fill="none" stroke="midnightblue" d="M1302.62,-235.08C1306.91,-227.61 1313.16,-216.72 1318.44,-207.52"/>
<polygon fill="midnightblue" stroke="midnightblue" points="1321.53,-209.17 1323.48,-198.75 1315.46,-205.68 1321.53,-209.17"/>
</g>
<!-- Node6 -->
<g id="node6" class="node">
<title>Node6</title>
<g id="a_node6"><a xlink:href="Vector_8hpp.html" target="_top" xlink:title=" ">
<polygon fill="none" stroke="black" points="885,-179.5 885,-198.5 978,-198.5 978,-179.5 885,-179.5"/>
<text text-anchor="middle" x="931.5" y="-186.5" font-family="Helvetica,sans-Serif" font-size="10.00">utils/Vector.hpp</text>
</a>
</g>
</g>
<!-- Node3&#45;&gt;Node6 -->
<g id="edge5" class="edge">
<title>Node3&#45;&gt;Node6</title>
<path fill="none" stroke="midnightblue" d="M1239.51,-235.44C1170.68,-225.29 1056.66,-208.47 988.34,-198.39"/>
<polygon fill="midnightblue" stroke="midnightblue" points="988.59,-194.89 978.19,-196.89 987.57,-201.81 988.59,-194.89"/>
</g>
<!-- Node13 -->
<g id="node13" class="node">
<title>Node13</title>
<g id="a_node13"><a xlink:title=" ">
<polygon fill="none" stroke="#bfbfbf" points="0,-0.5 0,-19.5 53,-19.5 53,-0.5 0,-0.5"/>
<text text-anchor="middle" x="26.5" y="-7.5" font-family="Helvetica,sans-Serif" font-size="10.00">cstddef</text>
</a>
</g>
</g>
<!-- Node3&#45;&gt;Node13 -->
<g id="edge30" class="edge">
<title>Node3&#45;&gt;Node13</title>
<path fill="none" stroke="midnightblue" d="M1238.17,-244.23C1023.72,-244.29 290.34,-237.42 79.5,-143 46.5,-128.22 34.77,-120.22 20.5,-87 12.61,-68.62 16.12,-45.46 20.33,-29.56"/>
<polygon fill="midnightblue" stroke="midnightblue" points="23.72,-30.45 23.22,-19.87 17.01,-28.45 23.72,-30.45"/>
</g>
<!-- Node5 -->
<g id="node5" class="node">
<title>Node5</title>
<g id="a_node5"><a xlink:title=" ">
<polygon fill="none" stroke="#bfbfbf" points="1524.5,-123.5 1524.5,-142.5 1636.5,-142.5 1636.5,-123.5 1524.5,-123.5"/>
<text text-anchor="middle" x="1580.5" y="-130.5" font-family="Helvetica,sans-Serif" font-size="10.00">config&#45;features.hpp</text>
</a>
</g>
</g>
<!-- Node4&#45;&gt;Node5 -->
<g id="edge4" class="edge">
<title>Node4&#45;&gt;Node5</title>
<path fill="none" stroke="midnightblue" d="M1362.75,-180.66C1406.06,-171.38 1480.95,-155.33 1530.62,-144.69"/>
<polygon fill="midnightblue" stroke="midnightblue" points="1531.46,-148.09 1540.5,-142.57 1529.99,-141.24 1531.46,-148.09"/>
</g>
<!-- Node7 -->
<g id="node7" class="node">
<title>Node7</title>
<g id="a_node7"><a xlink:title=" ">
<polygon fill="none" stroke="#bfbfbf" points="1198.5,-123.5 1198.5,-142.5 1348.5,-142.5 1348.5,-123.5 1198.5,-123.5"/>
<text text-anchor="middle" x="1273.5" y="-130.5" font-family="Helvetica,sans-Serif" font-size="10.00">boost/qvm/deduce_vec.hpp</text>
</a>
</g>
</g>
<!-- Node6&#45;&gt;Node7 -->
<g id="edge6" class="edge">
<title>Node6&#45;&gt;Node7</title>
<path fill="none" stroke="midnightblue" d="M978.34,-180.6C1038.28,-171.14 1142.4,-154.7 1209.59,-144.09"/>
<polygon fill="midnightblue" stroke="midnightblue" points="1210.3,-147.52 1219.63,-142.51 1209.21,-140.61 1210.3,-147.52"/>
</g>
<!-- Node8 -->
<g id="node8" class="node">
<title>Node8</title>
<g id="a_node8"><a xlink:title=" ">
<polygon fill="none" stroke="#bfbfbf" points="1366.5,-123.5 1366.5,-142.5 1506.5,-142.5 1506.5,-123.5 1366.5,-123.5"/>
<text text-anchor="middle" x="1436.5" y="-130.5" font-family="Helvetica,sans-Serif" font-size="10.00">boost/qvm/vec_traits.hpp</text>
</a>
</g>
</g>
<!-- Node6&#45;&gt;Node8 -->
<g id="edge7" class="edge">
<title>Node6&#45;&gt;Node8</title>
<path fill="none" stroke="midnightblue" d="M978.16,-183.2C1054.71,-175.29 1212.03,-158.93 1355.95,-143.16"/>
<polygon fill="midnightblue" stroke="midnightblue" points="1356.73,-146.6 1366.29,-142.03 1355.97,-139.64 1356.73,-146.6"/>
</g>
<!-- Node9 -->
<g id="node9" class="node">
<title>Node9</title>
<g id="a_node9"><a xlink:href="Array_8hpp.html" target="_top" xlink:title=" ">
<polygon fill="none" stroke="black" points="340.5,-123.5 340.5,-142.5 426.5,-142.5 426.5,-123.5 340.5,-123.5"/>
<text text-anchor="middle" x="383.5" y="-130.5" font-family="Helvetica,sans-Serif" font-size="10.00">utils/Array.hpp</text>
</a>
</g>
</g>
<!-- Node6&#45;&gt;Node9 -->
<g id="edge8" class="edge">
<title>Node6&#45;&gt;Node9</title>
<path fill="none" stroke="midnightblue" d="M884.78,-183.4C783.45,-173.41 544.03,-149.82 436.92,-139.26"/>
<polygon fill="midnightblue" stroke="midnightblue" points="436.96,-135.75 426.67,-138.25 436.28,-142.72 436.96,-135.75"/>
</g>
<!-- Node11 -->
<g id="node11" class="node">
<title>Node11</title>
<g id="a_node11"><a xlink:title=" ">
<polygon fill="none" stroke="#bfbfbf" points="498.5,-0.5 498.5,-19.5 550.5,-19.5 550.5,-0.5 498.5,-0.5"/>
<text text-anchor="middle" x="524.5" y="-7.5" font-family="Helvetica,sans-Serif" font-size="10.00">cassert</text>
</a>
</g>
</g>
<!-- Node6&#45;&gt;Node11 -->
<g id="edge21" class="edge">
<title>Node6&#45;&gt;Node11</title>
<path fill="none" stroke="midnightblue" d="M884.97,-184.39C824.86,-178.84 724.57,-166.34 696.5,-143 664.58,-116.46 692.68,-84.5 662.5,-56 634.8,-29.85 591.69,-18.89 561.03,-14.3"/>
<polygon fill="midnightblue" stroke="midnightblue" points="561.13,-10.78 550.75,-12.93 560.2,-17.72 561.13,-10.78"/>
</g>
<!-- Node6&#45;&gt;Node13 -->
<g id="edge23" class="edge">
<title>Node6&#45;&gt;Node13</title>
<path fill="none" stroke="midnightblue" d="M884.64,-186.29C783.33,-182.21 536.54,-170.13 331.5,-143 199.63,-125.55 129.44,-183.12 37.5,-87 23.06,-71.9 22.18,-46.82 23.66,-29.63"/>
<polygon fill="midnightblue" stroke="midnightblue" points="27.14,-30 24.86,-19.65 20.19,-29.16 27.14,-30"/>
</g>
<!-- Node16 -->
<g id="node16" class="node">
<title>Node16</title>
<g id="a_node16"><a xlink:title=" ">
<polygon fill="none" stroke="#bfbfbf" points="601,-62 601,-81 654,-81 654,-62 601,-62"/>
<text text-anchor="middle" x="627.5" y="-69" font-family="Helvetica,sans-Serif" font-size="10.00">iterator</text>
</a>
</g>
</g>
<!-- Node6&#45;&gt;Node16 -->
<g id="edge26" class="edge">
<title>Node6&#45;&gt;Node16</title>
<path fill="none" stroke="midnightblue" d="M884.84,-185.18C817.65,-180.29 697.94,-168.24 663.5,-143 646.39,-130.46 636.82,-107.41 631.93,-91.08"/>
<polygon fill="midnightblue" stroke="midnightblue" points="635.21,-89.82 629.25,-81.06 628.45,-91.63 635.21,-89.82"/>
</g>
<!-- Node19 -->
<g id="node19" class="node">
<title>Node19</title>
<g id="a_node19"><a xlink:title=" ">
<polygon fill="none" stroke="#bfbfbf" points="705.5,-123.5 705.5,-142.5 769.5,-142.5 769.5,-123.5 705.5,-123.5"/>
<text text-anchor="middle" x="737.5" y="-130.5" font-family="Helvetica,sans-Serif" font-size="10.00">algorithm</text>
</a>
</g>
</g>
<!-- Node6&#45;&gt;Node19 -->
<g id="edge20" class="edge">
<title>Node6&#45;&gt;Node19</title>
<path fill="none" stroke="midnightblue" d="M900.76,-179.44C867.56,-170.2 814.51,-155.44 777.94,-145.26"/>
<polygon fill="midnightblue" stroke="midnightblue" points="778.67,-141.83 768.1,-142.52 776.79,-148.57 778.67,-141.83"/>
</g>
<!-- Node20 -->
<g id="node20" class="node">
<title>Node20</title>
<g id="a_node20"><a xlink:title=" ">
<polygon fill="none" stroke="#bfbfbf" points="788,-123.5 788,-142.5 835,-142.5 835,-123.5 788,-123.5"/>
<text text-anchor="middle" x="811.5" y="-130.5" font-family="Helvetica,sans-Serif" font-size="10.00">cmath</text>
</a>
</g>
</g>
<!-- Node6&#45;&gt;Node20 -->
<g id="edge22" class="edge">
<title>Node6&#45;&gt;Node20</title>
<path fill="none" stroke="midnightblue" d="M912.49,-179.44C892.91,-170.64 862.19,-156.81 839.77,-146.72"/>
<polygon fill="midnightblue" stroke="midnightblue" points="840.98,-143.43 830.43,-142.52 838.11,-149.81 840.98,-143.43"/>
</g>
<!-- Node21 -->
<g id="node21" class="node">
<title>Node21</title>
<g id="a_node21"><a xlink:title=" ">
<polygon fill="none" stroke="#bfbfbf" points="853,-123.5 853,-142.5 918,-142.5 918,-123.5 853,-123.5"/>
<text text-anchor="middle" x="885.5" y="-130.5" font-family="Helvetica,sans-Serif" font-size="10.00">functional</text>
</a>
</g>
</g>
<!-- Node6&#45;&gt;Node21 -->
<g id="edge24" class="edge">
<title>Node6&#45;&gt;Node21</title>
<path fill="none" stroke="midnightblue" d="M923.9,-179.08C917.27,-171.3 907.48,-159.8 899.44,-150.37"/>
<polygon fill="midnightblue" stroke="midnightblue" points="902.1,-148.09 892.95,-142.75 896.77,-152.63 902.1,-148.09"/>
</g>
<!-- Node22 -->
<g id="node22" class="node">
<title>Node22</title>
<g id="a_node22"><a xlink:title=" ">
<polygon fill="none" stroke="#bfbfbf" points="936,-123.5 936,-142.5 1019,-142.5 1019,-123.5 936,-123.5"/>
<text text-anchor="middle" x="977.5" y="-130.5" font-family="Helvetica,sans-Serif" font-size="10.00">initializer_list</text>
</a>
</g>
</g>
<!-- Node6&#45;&gt;Node22 -->
<g id="edge25" class="edge">
<title>Node6&#45;&gt;Node22</title>
<path fill="none" stroke="midnightblue" d="M939.1,-179.08C945.73,-171.3 955.52,-159.8 963.56,-150.37"/>
<polygon fill="midnightblue" stroke="midnightblue" points="966.23,-152.63 970.05,-142.75 960.9,-148.09 966.23,-152.63"/>
</g>
<!-- Node23 -->
<g id="node23" class="node">
<title>Node23</title>
<g id="a_node23"><a xlink:title=" ">
<polygon fill="none" stroke="#bfbfbf" points="1037.5,-123.5 1037.5,-142.5 1093.5,-142.5 1093.5,-123.5 1037.5,-123.5"/>
<text text-anchor="middle" x="1065.5" y="-130.5" font-family="Helvetica,sans-Serif" font-size="10.00">numeric</text>
</a>
</g>
</g>
<!-- Node6&#45;&gt;Node23 -->
<g id="edge27" class="edge">
<title>Node6&#45;&gt;Node23</title>
<path fill="none" stroke="midnightblue" d="M952.73,-179.44C974.88,-170.52 1009.82,-156.44 1034.94,-146.32"/>
<polygon fill="midnightblue" stroke="midnightblue" points="1036.4,-149.5 1044.37,-142.52 1033.78,-143.01 1036.4,-149.5"/>
</g>
<!-- Node24 -->
<g id="node24" class="node">
<title>Node24</title>
<g id="a_node24"><a xlink:title=" ">
<polygon fill="none" stroke="#bfbfbf" points="1112,-123.5 1112,-142.5 1181,-142.5 1181,-123.5 1112,-123.5"/>
<text text-anchor="middle" x="1146.5" y="-130.5" font-family="Helvetica,sans-Serif" font-size="10.00">type_traits</text>
</a>
</g>
</g>
<!-- Node6&#45;&gt;Node24 -->
<g id="edge28" class="edge">
<title>Node6&#45;&gt;Node24</title>
<path fill="none" stroke="midnightblue" d="M965.57,-179.44C1002.68,-170.12 1062.16,-155.18 1102.71,-145"/>
<polygon fill="midnightblue" stroke="midnightblue" points="1103.75,-148.35 1112.59,-142.52 1102.04,-141.56 1103.75,-148.35"/>
</g>
<!-- Node6&#45;&gt;Node25 -->
<g id="edge29" class="edge">
<title>Node6&#45;&gt;Node25</title>
<path fill="none" stroke="midnightblue" d="M978.44,-186.29C1112.74,-181.2 1497.76,-165.22 1644.68,-142.71"/>
<polygon fill="midnightblue" stroke="midnightblue" points="1645.52,-146.11 1654.83,-141.07 1644.41,-139.2 1645.52,-146.11"/>
</g>
<!-- Node10 -->
<g id="node10" class="node">
<title>Node10</title>
<g id="a_node10"><a xlink:href="device__qualifier_8hpp.html" target="_top" xlink:title=" ">
<polygon fill="none" stroke="black" points="466.5,-62 466.5,-81 582.5,-81 582.5,-62 466.5,-62"/>
<text text-anchor="middle" x="524.5" y="-69" font-family="Helvetica,sans-Serif" font-size="10.00">device_qualifier.hpp</text>
</a>
</g>
</g>
<!-- Node9&#45;&gt;Node10 -->
<g id="edge9" class="edge">
<title>Node9&#45;&gt;Node10</title>
<path fill="none" stroke="midnightblue" d="M403.7,-123.48C427.57,-113.4 467.5,-96.55 494.87,-85"/>
<polygon fill="midnightblue" stroke="midnightblue" points="496.48,-88.12 504.34,-81.01 493.76,-81.67 496.48,-88.12"/>
</g>
<!-- Node9&#45;&gt;Node11 -->
<g id="edge15" class="edge">
<title>Node9&#45;&gt;Node11</title>
<path fill="none" stroke="midnightblue" d="M390.76,-123.46C403.47,-108.77 430.91,-78.17 457.5,-56 471.31,-44.48 488.12,-33.2 501.45,-24.81"/>
<polygon fill="midnightblue" stroke="midnightblue" points="503.37,-27.74 510.04,-19.5 499.69,-21.78 503.37,-27.74"/>
</g>
<!-- Node12 -->
<g id="node12" class="node">
<title>Node12</title>
<g id="a_node12"><a xlink:href="get_8hpp.html" target="_top" xlink:title=" ">
<polygon fill="none" stroke="black" points="357,-62 357,-81 410,-81 410,-62 357,-62"/>
<text text-anchor="middle" x="383.5" y="-69" font-family="Helvetica,sans-Serif" font-size="10.00">get.hpp</text>
</a>
</g>
</g>
<!-- Node9&#45;&gt;Node12 -->
<g id="edge11" class="edge">
<title>Node9&#45;&gt;Node12</title>
<path fill="none" stroke="midnightblue" d="M383.5,-123.48C383.5,-115.08 383.5,-101.98 383.5,-91.16"/>
<polygon fill="midnightblue" stroke="midnightblue" points="387,-91.01 383.5,-81.01 380,-91.01 387,-91.01"/>
</g>
<!-- Node9&#45;&gt;Node13 -->
<g id="edge16" class="edge">
<title>Node9&#45;&gt;Node13</title>
<path fill="none" stroke="midnightblue" d="M340.33,-130.79C263.68,-127.86 107.8,-118.15 64.5,-87 45.46,-73.3 35.41,-47.3 30.53,-29.57"/>
<polygon fill="midnightblue" stroke="midnightblue" points="33.91,-28.65 28.13,-19.77 27.11,-30.32 33.91,-28.65"/>
</g>
<!-- Node15 -->
<g id="node15" class="node">
<title>Node15</title>
<g id="a_node15"><a xlink:title=" ">
<polygon fill="none" stroke="#bfbfbf" points="74,-56.5 74,-86.5 181,-86.5 181,-56.5 74,-56.5"/>
<text text-anchor="start" x="82" y="-74.5" font-family="Helvetica,sans-Serif" font-size="10.00">boost/serialization</text>
<text text-anchor="middle" x="127.5" y="-63.5" font-family="Helvetica,sans-Serif" font-size="10.00">/access.hpp</text>
</a>
</g>
</g>
<!-- Node9&#45;&gt;Node15 -->
<g id="edge14" class="edge">
<title>Node9&#45;&gt;Node15</title>
<path fill="none" stroke="midnightblue" d="M346.67,-123.48C309.7,-114.92 250.84,-101.28 191.23,-87.4"/>
<polygon fill="midnightblue" stroke="midnightblue" points="191.8,-83.94 181.27,-85.08 190.21,-90.76 191.8,-83.94"/>
</g>
<!-- Node9&#45;&gt;Node16 -->
<g id="edge17" class="edge">
<title>Node9&#45;&gt;Node16</title>
<path fill="none" stroke="midnightblue" d="M426.67,-124.87C469.13,-117.35 535.52,-104.19 591.5,-87 593.78,-86.3 596.12,-85.51 598.46,-84.68"/>
<polygon fill="midnightblue" stroke="midnightblue" points="599.81,-87.92 607.91,-81.09 597.32,-81.37 599.81,-87.92"/>
</g>
<!-- Node17 -->
<g id="node17" class="node">
<title>Node17</title>
<g id="a_node17"><a xlink:title=" ">
<polygon fill="none" stroke="#bfbfbf" points="199,-62 199,-81 256,-81 256,-62 199,-62"/>
<text text-anchor="middle" x="227.5" y="-69" font-family="Helvetica,sans-Serif" font-size="10.00">ostream</text>
</a>
</g>
</g>
<!-- Node9&#45;&gt;Node17 -->
<g id="edge18" class="edge">
<title>Node9&#45;&gt;Node17</title>
<path fill="none" stroke="midnightblue" d="M360.66,-123.45C336.68,-114.46 297.89,-99.86 264.5,-87 262.67,-86.29 260.78,-85.56 258.88,-84.83"/>
<polygon fill="midnightblue" stroke="midnightblue" points="259.98,-81.5 249.4,-81.13 257.44,-88.02 259.98,-81.5"/>
</g>
<!-- Node18 -->
<g id="node18" class="node">
<title>Node18</title>
<g id="a_node18"><a xlink:title=" ">
<polygon fill="none" stroke="#bfbfbf" points="274,-62 274,-81 339,-81 339,-62 274,-62"/>
<text text-anchor="middle" x="306.5" y="-69" font-family="Helvetica,sans-Serif" font-size="10.00">stdexcept</text>
</a>
</g>
</g>
<!-- Node9&#45;&gt;Node18 -->
<g id="edge19" class="edge">
<title>Node9&#45;&gt;Node18</title>
<path fill="none" stroke="midnightblue" d="M372.47,-123.48C360.23,-114.02 340.27,-98.6 325.51,-87.19"/>
<polygon fill="midnightblue" stroke="midnightblue" points="327.56,-84.35 317.51,-81.01 323.28,-89.89 327.56,-84.35"/>
</g>
<!-- Node10&#45;&gt;Node11 -->
<g id="edge10" class="edge">
<title>Node10&#45;&gt;Node11</title>
<path fill="none" stroke="midnightblue" d="M524.5,-61.98C524.5,-53.58 524.5,-40.48 524.5,-29.66"/>
<polygon fill="midnightblue" stroke="midnightblue" points="528,-29.51 524.5,-19.51 521,-29.51 528,-29.51"/>
</g>
<!-- Node12&#45;&gt;Node13 -->
<g id="edge12" class="edge">
<title>Node12&#45;&gt;Node13</title>
<path fill="none" stroke="midnightblue" d="M364.74,-61.94C359.27,-59.72 353.23,-57.53 347.5,-56 246.72,-29.07 123.58,-17.55 63.31,-13.24"/>
<polygon fill="midnightblue" stroke="midnightblue" points="63.36,-9.73 53.15,-12.54 62.88,-16.72 63.36,-9.73"/>
</g>
<!-- Node14 -->
<g id="node14" class="node">
<title>Node14</title>
<g id="a_node14"><a xlink:title=" ">
<polygon fill="none" stroke="#bfbfbf" points="363,-0.5 363,-19.5 404,-19.5 404,-0.5 363,-0.5"/>
<text text-anchor="middle" x="383.5" y="-7.5" font-family="Helvetica,sans-Serif" font-size="10.00">tuple</text>
</a>
</g>
</g>
<!-- Node12&#45;&gt;Node14 -->
<g id="edge13" class="edge">
<title>Node12&#45;&gt;Node14</title>
<path fill="none" stroke="midnightblue" d="M383.5,-61.98C383.5,-53.58 383.5,-40.48 383.5,-29.66"/>
<polygon fill="midnightblue" stroke="midnightblue" points="387,-29.51 383.5,-19.51 380,-29.51 387,-29.51"/>
</g>
</g>
</svg>
