<?xml version="1.0" encoding="UTF-8" standalone="no"?>
<!DOCTYPE svg PUBLIC "-//W3C//DTD SVG 1.1//EN"
 "http://www.w3.org/Graphics/SVG/1.1/DTD/svg11.dtd">
<!-- Generated by graphviz version 2.43.0 (0)
 -->
<!-- Title: ActorList.cpp Pages: 1 -->
<svg width="1290pt" height="431pt"
 viewBox="0.00 0.00 1290.00 431.00" xmlns="http://www.w3.org/2000/svg" xmlns:xlink="http://www.w3.org/1999/xlink">
<g id="graph0" class="graph" transform="scale(1 1) rotate(0) translate(4 427)">
<title>ActorList.cpp</title>
<!-- Node1 -->
<g id="node1" class="node">
<title>Node1</title>
<g id="a_node1"><a xlink:title=" ">
<polygon fill="#bfbfbf" stroke="black" points="862,-403.5 862,-422.5 942,-422.5 942,-403.5 862,-403.5"/>
<text text-anchor="middle" x="902" y="-410.5" font-family="Helvetica,sans-Serif" font-size="10.00">ActorList.cpp</text>
</a>
</g>
</g>
<!-- Node2 -->
<g id="node2" class="node">
<title>Node2</title>
<g id="a_node2"><a xlink:href="ActorList_8hpp.html" target="_top" xlink:title=" ">
<polygon fill="none" stroke="black" points="896,-347.5 896,-366.5 976,-366.5 976,-347.5 896,-347.5"/>
<text text-anchor="middle" x="936" y="-354.5" font-family="Helvetica,sans-Serif" font-size="10.00">ActorList.hpp</text>
</a>
</g>
</g>
<!-- Node1&#45;&gt;Node2 -->
<g id="edge1" class="edge">
<title>Node1&#45;&gt;Node2</title>
<path fill="none" stroke="midnightblue" d="M907.61,-403.08C912.37,-395.53 919.32,-384.49 925.15,-375.23"/>
<polygon fill="midnightblue" stroke="midnightblue" points="928.12,-377.08 930.49,-366.75 922.2,-373.35 928.12,-377.08"/>
</g>
<!-- Node3 -->
<g id="node3" class="node">
<title>Node3</title>
<g id="a_node3"><a xlink:href="Actor_8hpp.html" target="_top" xlink:title=" ">
<polygon fill="none" stroke="black" points="836.5,-291.5 836.5,-310.5 899.5,-310.5 899.5,-291.5 836.5,-291.5"/>
<text text-anchor="middle" x="868" y="-298.5" font-family="Helvetica,sans-Serif" font-size="10.00">Actor.hpp</text>
</a>
</g>
</g>
<!-- Node1&#45;&gt;Node3 -->
<g id="edge33" class="edge">
<title>Node1&#45;&gt;Node3</title>
<path fill="none" stroke="midnightblue" d="M899.03,-403.4C895.93,-394.37 890.98,-379.73 887,-367 882.12,-351.4 876.94,-333.56 873.22,-320.53"/>
<polygon fill="midnightblue" stroke="midnightblue" points="876.57,-319.53 870.48,-310.86 869.84,-321.44 876.57,-319.53"/>
</g>
<!-- Node12 -->
<g id="node12" class="node">
<title>Node12</title>
<g id="a_node12"><a xlink:title=" ">
<polygon fill="none" stroke="#bfbfbf" points="237,-0.5 237,-19.5 289,-19.5 289,-0.5 237,-0.5"/>
<text text-anchor="middle" x="263" y="-7.5" font-family="Helvetica,sans-Serif" font-size="10.00">cassert</text>
</a>
</g>
</g>
<!-- Node1&#45;&gt;Node12 -->
<g id="edge35" class="edge">
<title>Node1&#45;&gt;Node12</title>
<path fill="none" stroke="midnightblue" d="M861.78,-411.39C686.75,-408.2 0,-390.1 0,-302 0,-302 0,-302 0,-132 0,-33.32 154.71,-14.83 226.81,-11.57"/>
<polygon fill="midnightblue" stroke="midnightblue" points="226.96,-15.07 236.82,-11.2 226.7,-8.08 226.96,-15.07"/>
</g>
<!-- Node20 -->
<g id="node20" class="node">
<title>Node20</title>
<g id="a_node20"><a xlink:title=" ">
<polygon fill="none" stroke="#bfbfbf" points="1218,-123.5 1218,-142.5 1282,-142.5 1282,-123.5 1218,-123.5"/>
<text text-anchor="middle" x="1250" y="-130.5" font-family="Helvetica,sans-Serif" font-size="10.00">algorithm</text>
</a>
</g>
</g>
<!-- Node1&#45;&gt;Node20 -->
<g id="edge34" class="edge">
<title>Node1&#45;&gt;Node20</title>
<path fill="none" stroke="midnightblue" d="M942.32,-407.47C1031.77,-396.31 1239,-363.78 1239,-302 1239,-302 1239,-302 1239,-244 1239,-211.79 1243.73,-174.53 1246.98,-152.69"/>
<polygon fill="midnightblue" stroke="midnightblue" points="1250.49,-152.95 1248.56,-142.53 1243.57,-151.87 1250.49,-152.95"/>
</g>
<!-- Node2&#45;&gt;Node3 -->
<g id="edge2" class="edge">
<title>Node2&#45;&gt;Node3</title>
<path fill="none" stroke="midnightblue" d="M925.07,-347.32C914.83,-339.18 899.28,-326.84 887,-317.09"/>
<polygon fill="midnightblue" stroke="midnightblue" points="889.13,-314.31 879.12,-310.83 884.78,-319.79 889.13,-314.31"/>
</g>
<!-- Node26 -->
<g id="node26" class="node">
<title>Node26</title>
<g id="a_node26"><a xlink:title=" ">
<polygon fill="none" stroke="#bfbfbf" points="1114.5,-123.5 1114.5,-142.5 1161.5,-142.5 1161.5,-123.5 1114.5,-123.5"/>
<text text-anchor="middle" x="1138" y="-130.5" font-family="Helvetica,sans-Serif" font-size="10.00">vector</text>
</a>
</g>
</g>
<!-- Node2&#45;&gt;Node26 -->
<g id="edge32" class="edge">
<title>Node2&#45;&gt;Node26</title>
<path fill="none" stroke="midnightblue" d="M943.92,-347.3C974.21,-314.01 1083.02,-194.42 1123.07,-150.41"/>
<polygon fill="midnightblue" stroke="midnightblue" points="1125.78,-152.64 1129.92,-142.88 1120.6,-147.92 1125.78,-152.64"/>
</g>
<!-- Node4 -->
<g id="node4" class="node">
<title>Node4</title>
<g id="a_node4"><a xlink:href="SystemInterface_8hpp.html" target="_top" xlink:title=" ">
<polygon fill="none" stroke="black" points="711,-235.5 711,-254.5 829,-254.5 829,-235.5 711,-235.5"/>
<text text-anchor="middle" x="770" y="-242.5" font-family="Helvetica,sans-Serif" font-size="10.00">SystemInterface.hpp</text>
</a>
</g>
</g>
<!-- Node3&#45;&gt;Node4 -->
<g id="edge3" class="edge">
<title>Node3&#45;&gt;Node4</title>
<path fill="none" stroke="midnightblue" d="M852.25,-291.32C836.68,-282.74 812.62,-269.49 794.54,-259.52"/>
<polygon fill="midnightblue" stroke="midnightblue" points="796.15,-256.42 785.71,-254.65 792.78,-262.55 796.15,-256.42"/>
</g>
<!-- Node5 -->
<g id="node5" class="node">
<title>Node5</title>
<g id="a_node5"><a xlink:href="config_8hpp.html" target="_top" xlink:title=" ">
<polygon fill="none" stroke="black" points="332,-179.5 332,-198.5 400,-198.5 400,-179.5 332,-179.5"/>
<text text-anchor="middle" x="366" y="-186.5" font-family="Helvetica,sans-Serif" font-size="10.00">config.hpp</text>
</a>
</g>
</g>
<!-- Node4&#45;&gt;Node5 -->
<g id="edge4" class="edge">
<title>Node4&#45;&gt;Node5</title>
<path fill="none" stroke="midnightblue" d="M710.82,-236.09C629.04,-225.16 483.31,-205.68 410.28,-195.92"/>
<polygon fill="midnightblue" stroke="midnightblue" points="410.43,-192.41 400.05,-194.55 409.5,-199.35 410.43,-192.41"/>
</g>
<!-- Node7 -->
<g id="node7" class="node">
<title>Node7</title>
<g id="a_node7"><a xlink:href="Vector_8hpp.html" target="_top" xlink:title=" ">
<polygon fill="none" stroke="black" points="674.5,-179.5 674.5,-198.5 767.5,-198.5 767.5,-179.5 674.5,-179.5"/>
<text text-anchor="middle" x="721" y="-186.5" font-family="Helvetica,sans-Serif" font-size="10.00">utils/Vector.hpp</text>
</a>
</g>
</g>
<!-- Node4&#45;&gt;Node7 -->
<g id="edge6" class="edge">
<title>Node4&#45;&gt;Node7</title>
<path fill="none" stroke="midnightblue" d="M761.91,-235.08C754.84,-227.3 744.41,-215.8 735.85,-206.37"/>
<polygon fill="midnightblue" stroke="midnightblue" points="738.25,-203.8 728.94,-198.75 733.07,-208.51 738.25,-203.8"/>
</g>
<!-- Node14 -->
<g id="node14" class="node">
<title>Node14</title>
<g id="a_node14"><a xlink:title=" ">
<polygon fill="none" stroke="#bfbfbf" points="990.5,-0.5 990.5,-19.5 1043.5,-19.5 1043.5,-0.5 990.5,-0.5"/>
<text text-anchor="middle" x="1017" y="-7.5" font-family="Helvetica,sans-Serif" font-size="10.00">cstddef</text>
</a>
</g>
</g>
<!-- Node4&#45;&gt;Node14 -->
<g id="edge31" class="edge">
<title>Node4&#45;&gt;Node14</title>
<path fill="none" stroke="midnightblue" d="M829.05,-237.91C930.08,-226.14 1129.24,-196.58 1171,-143 1211.62,-90.88 1109.95,-44.25 1052.76,-23.06"/>
<polygon fill="midnightblue" stroke="midnightblue" points="1053.91,-19.75 1043.32,-19.64 1051.53,-26.34 1053.91,-19.75"/>
</g>
<!-- Node6 -->
<g id="node6" class="node">
<title>Node6</title>
<g id="a_node6"><a xlink:title=" ">
<polygon fill="none" stroke="#bfbfbf" points="28,-123.5 28,-142.5 140,-142.5 140,-123.5 28,-123.5"/>
<text text-anchor="middle" x="84" y="-130.5" font-family="Helvetica,sans-Serif" font-size="10.00">config&#45;features.hpp</text>
</a>
</g>
</g>
<!-- Node5&#45;&gt;Node6 -->
<g id="edge5" class="edge">
<title>Node5&#45;&gt;Node6</title>
<path fill="none" stroke="midnightblue" d="M331.98,-181.49C284.03,-172.3 196.03,-155.45 138.79,-144.49"/>
<polygon fill="midnightblue" stroke="midnightblue" points="139.31,-141.03 128.83,-142.58 137.99,-147.9 139.31,-141.03"/>
</g>
<!-- Node8 -->
<g id="node8" class="node">
<title>Node8</title>
<g id="a_node8"><a xlink:title=" ">
<polygon fill="none" stroke="#bfbfbf" points="234,-123.5 234,-142.5 384,-142.5 384,-123.5 234,-123.5"/>
<text text-anchor="middle" x="309" y="-130.5" font-family="Helvetica,sans-Serif" font-size="10.00">boost/qvm/deduce_vec.hpp</text>
</a>
</g>
</g>
<!-- Node7&#45;&gt;Node8 -->
<g id="edge7" class="edge">
<title>Node7&#45;&gt;Node8</title>
<path fill="none" stroke="midnightblue" d="M674.14,-181.86C603.41,-172.59 468.68,-154.93 384.13,-143.85"/>
<polygon fill="midnightblue" stroke="midnightblue" points="384.45,-140.36 374.08,-142.53 383.54,-147.3 384.45,-140.36"/>
</g>
<!-- Node9 -->
<g id="node9" class="node">
<title>Node9</title>
<g id="a_node9"><a xlink:title=" ">
<polygon fill="none" stroke="#bfbfbf" points="918,-123.5 918,-142.5 1058,-142.5 1058,-123.5 918,-123.5"/>
<text text-anchor="middle" x="988" y="-130.5" font-family="Helvetica,sans-Serif" font-size="10.00">boost/qvm/vec_traits.hpp</text>
</a>
</g>
</g>
<!-- Node7&#45;&gt;Node9 -->
<g id="edge8" class="edge">
<title>Node7&#45;&gt;Node9</title>
<path fill="none" stroke="midnightblue" d="M763.31,-179.44C810.08,-169.98 885.46,-154.74 935.85,-144.55"/>
<polygon fill="midnightblue" stroke="midnightblue" points="936.78,-147.93 945.89,-142.52 935.4,-141.07 936.78,-147.93"/>
</g>
<!-- Node10 -->
<g id="node10" class="node">
<title>Node10</title>
<g id="a_node10"><a xlink:href="Array_8hpp.html" target="_top" xlink:title=" ">
<polygon fill="none" stroke="black" points="550,-123.5 550,-142.5 636,-142.5 636,-123.5 550,-123.5"/>
<text text-anchor="middle" x="593" y="-130.5" font-family="Helvetica,sans-Serif" font-size="10.00">utils/Array.hpp</text>
</a>
</g>
</g>
<!-- Node7&#45;&gt;Node10 -->
<g id="edge9" class="edge">
<title>Node7&#45;&gt;Node10</title>
<path fill="none" stroke="midnightblue" d="M700.72,-179.44C679.65,-170.56 646.48,-156.56 622.51,-146.45"/>
<polygon fill="midnightblue" stroke="midnightblue" points="623.76,-143.18 613.19,-142.52 621.04,-149.63 623.76,-143.18"/>
</g>
<!-- Node7&#45;&gt;Node12 -->
<g id="edge22" class="edge">
<title>Node7&#45;&gt;Node12</title>
<path fill="none" stroke="midnightblue" d="M674.12,-186.83C555.25,-183.43 249.04,-171.95 214,-143 183.69,-117.96 179.75,-90.82 198,-56 205.28,-42.11 219.01,-31.65 231.98,-24.33"/>
<polygon fill="midnightblue" stroke="midnightblue" points="233.93,-27.27 241.19,-19.55 230.7,-21.05 233.93,-27.27"/>
</g>
<!-- Node7&#45;&gt;Node14 -->
<g id="edge24" class="edge">
<title>Node7&#45;&gt;Node14</title>
<path fill="none" stroke="midnightblue" d="M767.6,-185.31C857.45,-179.65 1047.54,-165.16 1067,-143 1097.19,-108.63 1056.76,-54.19 1032.65,-27.23"/>
<polygon fill="midnightblue" stroke="midnightblue" points="1035.14,-24.77 1025.79,-19.8 1030,-29.52 1035.14,-24.77"/>
</g>
<!-- Node17 -->
<g id="node17" class="node">
<title>Node17</title>
<g id="a_node17"><a xlink:title=" ">
<polygon fill="none" stroke="#bfbfbf" points="207.5,-62 207.5,-81 260.5,-81 260.5,-62 207.5,-62"/>
<text text-anchor="middle" x="234" y="-69" font-family="Helvetica,sans-Serif" font-size="10.00">iterator</text>
</a>
</g>
</g>
<!-- Node7&#45;&gt;Node17 -->
<g id="edge27" class="edge">
<title>Node7&#45;&gt;Node17</title>
<path fill="none" stroke="midnightblue" d="M674.21,-187.27C556.43,-184.94 254.96,-175.8 225,-143 212.17,-128.95 218.06,-106.24 224.78,-90.41"/>
<polygon fill="midnightblue" stroke="midnightblue" points="228.04,-91.69 229.12,-81.15 221.7,-88.72 228.04,-91.69"/>
</g>
<!-- Node7&#45;&gt;Node20 -->
<g id="edge21" class="edge">
<title>Node7&#45;&gt;Node20</title>
<path fill="none" stroke="midnightblue" d="M767.66,-183.55C849.42,-175.7 1023.84,-158.74 1171,-143 1182.89,-141.73 1195.78,-140.29 1207.63,-138.94"/>
<polygon fill="midnightblue" stroke="midnightblue" points="1208.19,-142.39 1217.72,-137.78 1207.39,-135.44 1208.19,-142.39"/>
</g>
<!-- Node21 -->
<g id="node21" class="node">
<title>Node21</title>
<g id="a_node21"><a xlink:title=" ">
<polygon fill="none" stroke="#bfbfbf" points="401.5,-123.5 401.5,-142.5 448.5,-142.5 448.5,-123.5 401.5,-123.5"/>
<text text-anchor="middle" x="425" y="-130.5" font-family="Helvetica,sans-Serif" font-size="10.00">cmath</text>
</a>
</g>
</g>
<!-- Node7&#45;&gt;Node21 -->
<g id="edge23" class="edge">
<title>Node7&#45;&gt;Node21</title>
<path fill="none" stroke="midnightblue" d="M674.45,-181.58C623.55,-174.23 539.42,-161.09 458.54,-143.17"/>
<polygon fill="midnightblue" stroke="midnightblue" points="459.22,-139.74 448.69,-140.96 457.69,-146.57 459.22,-139.74"/>
</g>
<!-- Node22 -->
<g id="node22" class="node">
<title>Node22</title>
<g id="a_node22"><a xlink:title=" ">
<polygon fill="none" stroke="#bfbfbf" points="466.5,-123.5 466.5,-142.5 531.5,-142.5 531.5,-123.5 466.5,-123.5"/>
<text text-anchor="middle" x="499" y="-130.5" font-family="Helvetica,sans-Serif" font-size="10.00">functional</text>
</a>
</g>
</g>
<!-- Node7&#45;&gt;Node22 -->
<g id="edge25" class="edge">
<title>Node7&#45;&gt;Node22</title>
<path fill="none" stroke="midnightblue" d="M685.82,-179.44C646.74,-169.94 583.64,-154.59 541.75,-144.4"/>
<polygon fill="midnightblue" stroke="midnightblue" points="542.38,-140.95 531.84,-141.99 540.73,-147.75 542.38,-140.95"/>
</g>
<!-- Node23 -->
<g id="node23" class="node">
<title>Node23</title>
<g id="a_node23"><a xlink:title=" ">
<polygon fill="none" stroke="#bfbfbf" points="654.5,-123.5 654.5,-142.5 737.5,-142.5 737.5,-123.5 654.5,-123.5"/>
<text text-anchor="middle" x="696" y="-130.5" font-family="Helvetica,sans-Serif" font-size="10.00">initializer_list</text>
</a>
</g>
</g>
<!-- Node7&#45;&gt;Node23 -->
<g id="edge26" class="edge">
<title>Node7&#45;&gt;Node23</title>
<path fill="none" stroke="midnightblue" d="M716.87,-179.08C713.49,-171.77 708.58,-161.18 704.38,-152.1"/>
<polygon fill="midnightblue" stroke="midnightblue" points="707.43,-150.36 700.05,-142.75 701.08,-153.3 707.43,-150.36"/>
</g>
<!-- Node24 -->
<g id="node24" class="node">
<title>Node24</title>
<g id="a_node24"><a xlink:title=" ">
<polygon fill="none" stroke="#bfbfbf" points="756,-123.5 756,-142.5 812,-142.5 812,-123.5 756,-123.5"/>
<text text-anchor="middle" x="784" y="-130.5" font-family="Helvetica,sans-Serif" font-size="10.00">numeric</text>
</a>
</g>
</g>
<!-- Node7&#45;&gt;Node24 -->
<g id="edge28" class="edge">
<title>Node7&#45;&gt;Node24</title>
<path fill="none" stroke="midnightblue" d="M731.12,-179.32C740.53,-171.26 754.74,-159.08 766.07,-149.37"/>
<polygon fill="midnightblue" stroke="midnightblue" points="768.38,-152 773.69,-142.83 763.82,-146.68 768.38,-152"/>
</g>
<!-- Node25 -->
<g id="node25" class="node">
<title>Node25</title>
<g id="a_node25"><a xlink:title=" ">
<polygon fill="none" stroke="#bfbfbf" points="830.5,-123.5 830.5,-142.5 899.5,-142.5 899.5,-123.5 830.5,-123.5"/>
<text text-anchor="middle" x="865" y="-130.5" font-family="Helvetica,sans-Serif" font-size="10.00">type_traits</text>
</a>
</g>
</g>
<!-- Node7&#45;&gt;Node25 -->
<g id="edge29" class="edge">
<title>Node7&#45;&gt;Node25</title>
<path fill="none" stroke="midnightblue" d="M743.82,-179.44C767.83,-170.44 805.83,-156.19 832.87,-146.05"/>
<polygon fill="midnightblue" stroke="midnightblue" points="834.16,-149.3 842.29,-142.52 831.7,-142.75 834.16,-149.3"/>
</g>
<!-- Node7&#45;&gt;Node26 -->
<g id="edge30" class="edge">
<title>Node7&#45;&gt;Node26</title>
<path fill="none" stroke="midnightblue" d="M767.63,-184.19C839.4,-177.95 981.09,-164.07 1100,-143 1101.46,-142.74 1102.95,-142.46 1104.45,-142.16"/>
<polygon fill="midnightblue" stroke="midnightblue" points="1105.33,-145.56 1114.37,-140.04 1103.86,-138.71 1105.33,-145.56"/>
</g>
<!-- Node11 -->
<g id="node11" class="node">
<title>Node11</title>
<g id="a_node11"><a xlink:href="device__qualifier_8hpp.html" target="_top" xlink:title=" ">
<polygon fill="none" stroke="black" points="300,-62 300,-81 416,-81 416,-62 300,-62"/>
<text text-anchor="middle" x="358" y="-69" font-family="Helvetica,sans-Serif" font-size="10.00">device_qualifier.hpp</text>
</a>
</g>
</g>
<!-- Node10&#45;&gt;Node11 -->
<g id="edge10" class="edge">
<title>Node10&#45;&gt;Node11</title>
<path fill="none" stroke="midnightblue" d="M559.33,-123.48C517.8,-112.96 447.11,-95.06 401.5,-83.51"/>
<polygon fill="midnightblue" stroke="midnightblue" points="402.16,-80.07 391.61,-81.01 400.44,-86.86 402.16,-80.07"/>
</g>
<!-- Node10&#45;&gt;Node12 -->
<g id="edge16" class="edge">
<title>Node10&#45;&gt;Node12</title>
<path fill="none" stroke="midnightblue" d="M585.7,-123.38C570.23,-105.33 534.25,-64.53 518,-56 447.02,-18.75 351.2,-11.56 299.58,-10.62"/>
<polygon fill="midnightblue" stroke="midnightblue" points="299.3,-7.12 289.27,-10.51 299.23,-14.12 299.3,-7.12"/>
</g>
<!-- Node13 -->
<g id="node13" class="node">
<title>Node13</title>
<g id="a_node13"><a xlink:href="get_8hpp.html" target="_top" xlink:title=" ">
<polygon fill="none" stroke="black" points="566.5,-62 566.5,-81 619.5,-81 619.5,-62 566.5,-62"/>
<text text-anchor="middle" x="593" y="-69" font-family="Helvetica,sans-Serif" font-size="10.00">get.hpp</text>
</a>
</g>
</g>
<!-- Node10&#45;&gt;Node13 -->
<g id="edge12" class="edge">
<title>Node10&#45;&gt;Node13</title>
<path fill="none" stroke="midnightblue" d="M593,-123.48C593,-115.08 593,-101.98 593,-91.16"/>
<polygon fill="midnightblue" stroke="midnightblue" points="596.5,-91.01 593,-81.01 589.5,-91.01 596.5,-91.01"/>
</g>
<!-- Node10&#45;&gt;Node14 -->
<g id="edge17" class="edge">
<title>Node10&#45;&gt;Node14</title>
<path fill="none" stroke="midnightblue" d="M636.01,-124.23C698.74,-112.82 809.87,-92.33 828,-87 887.24,-69.59 953.58,-40.58 989.79,-23.89"/>
<polygon fill="midnightblue" stroke="midnightblue" points="991.58,-26.92 999.17,-19.53 988.62,-20.57 991.58,-26.92"/>
</g>
<!-- Node16 -->
<g id="node16" class="node">
<title>Node16</title>
<g id="a_node16"><a xlink:title=" ">
<polygon fill="none" stroke="#bfbfbf" points="637.5,-56.5 637.5,-86.5 744.5,-86.5 744.5,-56.5 637.5,-56.5"/>
<text text-anchor="start" x="645.5" y="-74.5" font-family="Helvetica,sans-Serif" font-size="10.00">boost/serialization</text>
<text text-anchor="middle" x="691" y="-63.5" font-family="Helvetica,sans-Serif" font-size="10.00">/access.hpp</text>
</a>
</g>
</g>
<!-- Node10&#45;&gt;Node16 -->
<g id="edge15" class="edge">
<title>Node10&#45;&gt;Node16</title>
<path fill="none" stroke="midnightblue" d="M607.04,-123.48C620.56,-115.27 641.49,-102.56 659.07,-91.88"/>
<polygon fill="midnightblue" stroke="midnightblue" points="661.17,-94.7 667.9,-86.52 657.54,-88.72 661.17,-94.7"/>
</g>
<!-- Node10&#45;&gt;Node17 -->
<g id="edge18" class="edge">
<title>Node10&#45;&gt;Node17</title>
<path fill="none" stroke="midnightblue" d="M549.92,-124.59C546.56,-124.04 543.23,-123.51 540,-123 429.54,-105.64 400.67,-108.81 291,-87 284.27,-85.66 277.15,-84.03 270.3,-82.34"/>
<polygon fill="midnightblue" stroke="midnightblue" points="271.1,-78.94 260.55,-79.87 269.38,-85.72 271.1,-78.94"/>
</g>
<!-- Node18 -->
<g id="node18" class="node">
<title>Node18</title>
<g id="a_node18"><a xlink:title=" ">
<polygon fill="none" stroke="#bfbfbf" points="762.5,-62 762.5,-81 819.5,-81 819.5,-62 762.5,-62"/>
<text text-anchor="middle" x="791" y="-69" font-family="Helvetica,sans-Serif" font-size="10.00">ostream</text>
</a>
</g>
</g>
<!-- Node10&#45;&gt;Node18 -->
<g id="edge19" class="edge">
<title>Node10&#45;&gt;Node18</title>
<path fill="none" stroke="midnightblue" d="M626.67,-123.48C659.23,-115.01 709.85,-101.27 753,-87 755.26,-86.25 757.59,-85.45 759.92,-84.62"/>
<polygon fill="midnightblue" stroke="midnightblue" points="761.24,-87.86 769.42,-81.12 758.83,-81.29 761.24,-87.86"/>
</g>
<!-- Node19 -->
<g id="node19" class="node">
<title>Node19</title>
<g id="a_node19"><a xlink:title=" ">
<polygon fill="none" stroke="#bfbfbf" points="444.5,-62 444.5,-81 509.5,-81 509.5,-62 444.5,-62"/>
<text text-anchor="middle" x="477" y="-69" font-family="Helvetica,sans-Serif" font-size="10.00">stdexcept</text>
</a>
</g>
</g>
<!-- Node10&#45;&gt;Node19 -->
<g id="edge20" class="edge">
<title>Node10&#45;&gt;Node19</title>
<path fill="none" stroke="midnightblue" d="M576.38,-123.48C557.08,-113.58 525.04,-97.14 502.57,-85.62"/>
<polygon fill="midnightblue" stroke="midnightblue" points="504.08,-82.46 493.59,-81.01 500.89,-88.69 504.08,-82.46"/>
</g>
<!-- Node11&#45;&gt;Node12 -->
<g id="edge11" class="edge">
<title>Node11&#45;&gt;Node12</title>
<path fill="none" stroke="midnightblue" d="M344.39,-61.98C328.94,-52.3 303.51,-36.37 285.18,-24.89"/>
<polygon fill="midnightblue" stroke="midnightblue" points="286.92,-21.85 276.59,-19.51 283.2,-27.78 286.92,-21.85"/>
</g>
<!-- Node13&#45;&gt;Node14 -->
<g id="edge13" class="edge">
<title>Node13&#45;&gt;Node14</title>
<path fill="none" stroke="midnightblue" d="M610.84,-61.99C616.24,-59.72 622.27,-57.49 628,-56 754.43,-23.18 910.21,-14.28 980.06,-11.88"/>
<polygon fill="midnightblue" stroke="midnightblue" points="980.24,-15.37 990.12,-11.56 980.01,-8.38 980.24,-15.37"/>
</g>
<!-- Node15 -->
<g id="node15" class="node">
<title>Node15</title>
<g id="a_node15"><a xlink:title=" ">
<polygon fill="none" stroke="#bfbfbf" points="572.5,-0.5 572.5,-19.5 613.5,-19.5 613.5,-0.5 572.5,-0.5"/>
<text text-anchor="middle" x="593" y="-7.5" font-family="Helvetica,sans-Serif" font-size="10.00">tuple</text>
</a>
</g>
</g>
<!-- Node13&#45;&gt;Node15 -->
<g id="edge14" class="edge">
<title>Node13&#45;&gt;Node15</title>
<path fill="none" stroke="midnightblue" d="M593,-61.98C593,-53.58 593,-40.48 593,-29.66"/>
<polygon fill="midnightblue" stroke="midnightblue" points="596.5,-29.51 593,-19.51 589.5,-29.51 596.5,-29.51"/>
</g>
</g>
</svg>
