<?xml version="1.0" encoding="UTF-8" standalone="no"?>
<!DOCTYPE svg PUBLIC "-//W3C//DTD SVG 1.1//EN"
 "http://www.w3.org/Graphics/SVG/1.1/DTD/svg11.dtd">
<!-- Generated by graphviz version 2.43.0 (0)
 -->
<!-- Title: Actor.hpp Pages: 1 -->
<svg width="1799pt" height="532pt"
 viewBox="0.00 0.00 1799.00 532.00" xmlns="http://www.w3.org/2000/svg" xmlns:xlink="http://www.w3.org/1999/xlink">
<g id="graph0" class="graph" transform="scale(1 1) rotate(0) translate(4 528)">
<title>Actor.hpp</title>
<!-- Node1 -->
<g id="node1" class="node">
<title>Node1</title>
<g id="a_node1"><a xlink:title=" ">
<polygon fill="#bfbfbf" stroke="black" points="1048,-504.5 1048,-523.5 1111,-523.5 1111,-504.5 1048,-504.5"/>
<text text-anchor="middle" x="1079.5" y="-511.5" font-family="Helvetica,sans-Serif" font-size="10.00">Actor.hpp</text>
</a>
</g>
</g>
<!-- Node2 -->
<g id="node2" class="node">
<title>Node2</title>
<g id="a_node2"><a xlink:href="ActorList_8hpp.html" target="_top" xlink:title=" ">
<polygon fill="none" stroke="black" points="848.5,-448.5 848.5,-467.5 928.5,-467.5 928.5,-448.5 848.5,-448.5"/>
<text text-anchor="middle" x="888.5" y="-455.5" font-family="Helvetica,sans-Serif" font-size="10.00">ActorList.hpp</text>
</a>
</g>
</g>
<!-- Node1&#45;&gt;Node2 -->
<g id="edge1" class="edge">
<title>Node1&#45;&gt;Node2</title>
<path fill="none" stroke="midnightblue" d="M1039.53,-501.7C1003.48,-491.51 951.26,-476.74 918.62,-467.52"/>
<polygon fill="midnightblue" stroke="midnightblue" points="1038.66,-505.09 1049.24,-504.44 1040.56,-498.35 1038.66,-505.09"/>
</g>
<!-- Node3 -->
<g id="node3" class="node">
<title>Node3</title>
<g id="a_node3"><a xlink:href="ActorList_8cpp.html" target="_top" xlink:title=" ">
<polygon fill="none" stroke="black" points="755.5,-392.5 755.5,-411.5 835.5,-411.5 835.5,-392.5 755.5,-392.5"/>
<text text-anchor="middle" x="795.5" y="-399.5" font-family="Helvetica,sans-Serif" font-size="10.00">ActorList.cpp</text>
</a>
</g>
</g>
<!-- Node1&#45;&gt;Node3 -->
<g id="edge67" class="edge">
<title>Node1&#45;&gt;Node3</title>
<path fill="none" stroke="midnightblue" d="M1037.69,-509.06C977.86,-502.77 871.52,-489 839.5,-468 818.31,-454.1 804.68,-426.08 798.82,-411.8"/>
<polygon fill="midnightblue" stroke="midnightblue" points="1037.63,-512.57 1047.94,-510.11 1038.34,-505.61 1037.63,-512.57"/>
</g>
<!-- Node40 -->
<g id="node40" class="node">
<title>Node40</title>
<g id="a_node40"><a xlink:href="forces_8hpp.html" target="_top" xlink:title=" ">
<polygon fill="none" stroke="black" points="1379.5,-392.5 1379.5,-411.5 1447.5,-411.5 1447.5,-392.5 1379.5,-392.5"/>
<text text-anchor="middle" x="1413.5" y="-399.5" font-family="Helvetica,sans-Serif" font-size="10.00">forces.hpp</text>
</a>
</g>
</g>
<!-- Node1&#45;&gt;Node40 -->
<g id="edge77" class="edge">
<title>Node1&#45;&gt;Node40</title>
<path fill="none" stroke="midnightblue" d="M1121.29,-510.03C1189.57,-504.57 1321.46,-491.31 1361.5,-468 1384.73,-454.48 1401.65,-426.29 1409.17,-411.89"/>
<polygon fill="midnightblue" stroke="midnightblue" points="1120.99,-506.54 1111.3,-510.81 1121.54,-513.52 1120.99,-506.54"/>
</g>
<!-- Node46 -->
<g id="node46" class="node">
<title>Node46</title>
<g id="a_node46"><a xlink:href="DipolarBarnesHut_8hpp.html" target="_top" xlink:title=" ">
<polygon fill="none" stroke="black" points="946.5,-448.5 946.5,-467.5 1070.5,-467.5 1070.5,-448.5 946.5,-448.5"/>
<text text-anchor="middle" x="1008.5" y="-455.5" font-family="Helvetica,sans-Serif" font-size="10.00">DipolarBarnesHut.hpp</text>
</a>
</g>
</g>
<!-- Node1&#45;&gt;Node46 -->
<g id="edge68" class="edge">
<title>Node1&#45;&gt;Node46</title>
<path fill="none" stroke="midnightblue" d="M1059.91,-498.1C1047.13,-488.38 1030.89,-476.03 1020.11,-467.83"/>
<polygon fill="midnightblue" stroke="midnightblue" points="1058.01,-501.06 1068.09,-504.32 1062.25,-495.48 1058.01,-501.06"/>
</g>
<!-- Node48 -->
<g id="node48" class="node">
<title>Node48</title>
<g id="a_node48"><a xlink:href="DipolarDirectSum_8hpp.html" target="_top" xlink:title=" ">
<polygon fill="none" stroke="black" points="1088.5,-448.5 1088.5,-467.5 1212.5,-467.5 1212.5,-448.5 1088.5,-448.5"/>
<text text-anchor="middle" x="1150.5" y="-455.5" font-family="Helvetica,sans-Serif" font-size="10.00">DipolarDirectSum.hpp</text>
</a>
</g>
</g>
<!-- Node1&#45;&gt;Node48 -->
<g id="edge71" class="edge">
<title>Node1&#45;&gt;Node48</title>
<path fill="none" stroke="midnightblue" d="M1099.09,-498.1C1111.87,-488.38 1128.11,-476.03 1138.89,-467.83"/>
<polygon fill="midnightblue" stroke="midnightblue" points="1096.75,-495.48 1090.91,-504.32 1100.99,-501.06 1096.75,-495.48"/>
</g>
<!-- Node49 -->
<g id="node49" class="node">
<title>Node49</title>
<g id="a_node49"><a xlink:href="Mmm1dgpuForce_8hpp.html" target="_top" xlink:title=" ">
<polygon fill="none" stroke="black" points="1230.5,-448.5 1230.5,-467.5 1352.5,-467.5 1352.5,-448.5 1230.5,-448.5"/>
<text text-anchor="middle" x="1291.5" y="-455.5" font-family="Helvetica,sans-Serif" font-size="10.00">Mmm1dgpuForce.hpp</text>
</a>
</g>
</g>
<!-- Node1&#45;&gt;Node49 -->
<g id="edge74" class="edge">
<title>Node1&#45;&gt;Node49</title>
<path fill="none" stroke="midnightblue" d="M1120.95,-502.44C1160.92,-492.26 1220.66,-477.05 1257.79,-467.59"/>
<polygon fill="midnightblue" stroke="midnightblue" points="1120.07,-499.06 1111.24,-504.92 1121.79,-505.84 1120.07,-499.06"/>
</g>
<!-- Node2&#45;&gt;Node3 -->
<g id="edge2" class="edge">
<title>Node2&#45;&gt;Node3</title>
<path fill="none" stroke="midnightblue" d="M864.69,-443.18C847.58,-433.24 825.03,-420.15 810.4,-411.65"/>
<polygon fill="midnightblue" stroke="midnightblue" points="863.15,-446.33 873.56,-448.32 866.67,-440.28 863.15,-446.33"/>
</g>
<!-- Node4 -->
<g id="node4" class="node">
<title>Node4</title>
<g id="a_node4"><a xlink:href="DipolarBarnesHut_8cpp.html" target="_top" xlink:title=" ">
<polygon fill="none" stroke="black" points="948,-336.5 948,-355.5 1071,-355.5 1071,-336.5 948,-336.5"/>
<text text-anchor="middle" x="1009.5" y="-343.5" font-family="Helvetica,sans-Serif" font-size="10.00">DipolarBarnesHut.cpp</text>
</a>
</g>
</g>
<!-- Node2&#45;&gt;Node4 -->
<g id="edge3" class="edge">
<title>Node2&#45;&gt;Node4</title>
<path fill="none" stroke="midnightblue" d="M905.54,-441.51C931.39,-418.01 979.68,-374.11 1000.05,-355.59"/>
<polygon fill="midnightblue" stroke="midnightblue" points="903.04,-439.05 897.99,-448.37 907.75,-444.23 903.04,-439.05"/>
</g>
<!-- Node5 -->
<g id="node5" class="node">
<title>Node5</title>
<g id="a_node5"><a xlink:href="energy_8hpp.html" target="_top" xlink:title=" ">
<polygon fill="none" stroke="black" points="853.5,-392.5 853.5,-411.5 923.5,-411.5 923.5,-392.5 853.5,-392.5"/>
<text text-anchor="middle" x="888.5" y="-399.5" font-family="Helvetica,sans-Serif" font-size="10.00">energy.hpp</text>
</a>
</g>
</g>
<!-- Node2&#45;&gt;Node5 -->
<g id="edge4" class="edge">
<title>Node2&#45;&gt;Node5</title>
<path fill="none" stroke="midnightblue" d="M888.5,-437.8C888.5,-428.91 888.5,-418.78 888.5,-411.75"/>
<polygon fill="midnightblue" stroke="midnightblue" points="885,-438.08 888.5,-448.08 892,-438.08 885,-438.08"/>
</g>
<!-- Node2&#45;&gt;Node40 -->
<g id="edge55" class="edge">
<title>Node2&#45;&gt;Node40</title>
<path fill="none" stroke="midnightblue" d="M938.7,-447.97C1130.69,-423.1 1182.67,-439.36 1370.5,-412 1373.37,-411.58 1376.33,-411.09 1379.3,-410.56"/>
<polygon fill="midnightblue" stroke="midnightblue" points="938.02,-444.53 928.56,-449.31 938.93,-451.47 938.02,-444.53"/>
</g>
<!-- Node5&#45;&gt;Node4 -->
<g id="edge5" class="edge">
<title>Node5&#45;&gt;Node4</title>
<path fill="none" stroke="midnightblue" d="M916.81,-388.37C939.47,-378.26 970.63,-364.35 990.42,-355.52"/>
<polygon fill="midnightblue" stroke="midnightblue" points="915.38,-385.17 907.67,-392.44 918.23,-391.56 915.38,-385.17"/>
</g>
<!-- Node6 -->
<g id="node6" class="node">
<title>Node6</title>
<g id="a_node6"><a xlink:href="DipolarDirectSum_8cpp.html" target="_top" xlink:title=" ">
<polygon fill="none" stroke="black" points="1089,-336.5 1089,-355.5 1212,-355.5 1212,-336.5 1089,-336.5"/>
<text text-anchor="middle" x="1150.5" y="-343.5" font-family="Helvetica,sans-Serif" font-size="10.00">DipolarDirectSum.cpp</text>
</a>
</g>
</g>
<!-- Node5&#45;&gt;Node6 -->
<g id="edge6" class="edge">
<title>Node5&#45;&gt;Node6</title>
<path fill="none" stroke="midnightblue" d="M933.63,-391.7C982.98,-381.53 1061.38,-365.37 1109.17,-355.52"/>
<polygon fill="midnightblue" stroke="midnightblue" points="932.65,-388.33 923.56,-393.77 934.06,-395.18 932.65,-388.33"/>
</g>
<!-- Node7 -->
<g id="node7" class="node">
<title>Node7</title>
<g id="a_node7"><a xlink:href="Mmm1dgpuForce_8cpp.html" target="_top" xlink:title=" ">
<polygon fill="none" stroke="black" points="1230.5,-336.5 1230.5,-355.5 1352.5,-355.5 1352.5,-336.5 1230.5,-336.5"/>
<text text-anchor="middle" x="1291.5" y="-343.5" font-family="Helvetica,sans-Serif" font-size="10.00">Mmm1dgpuForce.cpp</text>
</a>
</g>
</g>
<!-- Node5&#45;&gt;Node7 -->
<g id="edge7" class="edge">
<title>Node5&#45;&gt;Node7</title>
<path fill="none" stroke="midnightblue" d="M933.74,-394.94C1006.27,-385.22 1148.7,-366.13 1230.27,-355.2"/>
<polygon fill="midnightblue" stroke="midnightblue" points="933.01,-391.51 923.56,-396.3 933.93,-398.44 933.01,-391.51"/>
</g>
<!-- Node8 -->
<g id="node8" class="node">
<title>Node8</title>
<g id="a_node8"><a xlink:href="core_2constraints_2Constraint_8hpp.html" target="_top" xlink:title=" ">
<polygon fill="none" stroke="black" points="380.5,-336.5 380.5,-355.5 468.5,-355.5 468.5,-336.5 380.5,-336.5"/>
<text text-anchor="middle" x="424.5" y="-343.5" font-family="Helvetica,sans-Serif" font-size="10.00">Constraint.hpp</text>
</a>
</g>
</g>
<!-- Node5&#45;&gt;Node8 -->
<g id="edge8" class="edge">
<title>Node5&#45;&gt;Node8</title>
<path fill="none" stroke="midnightblue" d="M843.26,-391.96C682.88,-368.11 639.6,-375.99 482.5,-356 478.05,-355.43 473.42,-354.8 468.8,-354.13"/>
<polygon fill="midnightblue" stroke="midnightblue" points="843.08,-395.47 853.49,-393.5 844.13,-388.55 843.08,-395.47"/>
</g>
<!-- Node27 -->
<g id="node27" class="node">
<title>Node27</title>
<g id="a_node27"><a xlink:href="energy__inline_8hpp.html" target="_top" xlink:title=" ">
<polygon fill="none" stroke="black" points="1352.5,-280.5 1352.5,-299.5 1456.5,-299.5 1456.5,-280.5 1352.5,-280.5"/>
<text text-anchor="middle" x="1404.5" y="-287.5" font-family="Helvetica,sans-Serif" font-size="10.00">energy_inline.hpp</text>
</a>
</g>
</g>
<!-- Node5&#45;&gt;Node27 -->
<g id="edge39" class="edge">
<title>Node5&#45;&gt;Node27</title>
<path fill="none" stroke="midnightblue" d="M843.43,-392.17C748.95,-381.12 466.3,-387.76 515.5,-336 530,-320.75 1163.75,-298.86 1352.19,-292.68"/>
<polygon fill="midnightblue" stroke="midnightblue" points="843.11,-395.66 853.49,-393.53 844.05,-388.72 843.11,-395.66"/>
</g>
<!-- Node35 -->
<g id="node35" class="node">
<title>Node35</title>
<g id="a_node35"><a xlink:href="EnergyObservable_8hpp.html" target="_top" xlink:title=" ">
<polygon fill="none" stroke="black" points="803,-336.5 803,-355.5 930,-355.5 930,-336.5 803,-336.5"/>
<text text-anchor="middle" x="866.5" y="-343.5" font-family="Helvetica,sans-Serif" font-size="10.00">EnergyObservable.hpp</text>
</a>
</g>
</g>
<!-- Node5&#45;&gt;Node35 -->
<g id="edge50" class="edge">
<title>Node5&#45;&gt;Node35</title>
<path fill="none" stroke="midnightblue" d="M881.04,-382.69C877.33,-373.59 873.02,-363.01 870.07,-355.75"/>
<polygon fill="midnightblue" stroke="midnightblue" points="877.85,-384.14 884.87,-392.08 884.34,-381.5 877.85,-384.14"/>
</g>
<!-- Node38 -->
<g id="node38" class="node">
<title>Node38</title>
<g id="a_node38"><a xlink:href="ReactionAlgorithm_8cpp.html" target="_top" xlink:title=" ">
<polygon fill="none" stroke="black" points="524.5,-336.5 524.5,-355.5 652.5,-355.5 652.5,-336.5 524.5,-336.5"/>
<text text-anchor="middle" x="588.5" y="-343.5" font-family="Helvetica,sans-Serif" font-size="10.00">ReactionAlgorithm.cpp</text>
</a>
</g>
</g>
<!-- Node5&#45;&gt;Node38 -->
<g id="edge53" class="edge">
<title>Node5&#45;&gt;Node38</title>
<path fill="none" stroke="midnightblue" d="M843.61,-391.87C766.87,-377.36 689.18,-363.95 639.58,-355.55"/>
<polygon fill="midnightblue" stroke="midnightblue" points="842.98,-395.31 853.45,-393.74 844.28,-388.44 842.98,-395.31"/>
</g>
<!-- Node39 -->
<g id="node39" class="node">
<title>Node39</title>
<g id="a_node39"><a xlink:href="WidomInsertion_8cpp.html" target="_top" xlink:title=" ">
<polygon fill="none" stroke="black" points="670.5,-336.5 670.5,-355.5 784.5,-355.5 784.5,-336.5 670.5,-336.5"/>
<text text-anchor="middle" x="727.5" y="-343.5" font-family="Helvetica,sans-Serif" font-size="10.00">WidomInsertion.cpp</text>
</a>
</g>
</g>
<!-- Node5&#45;&gt;Node39 -->
<g id="edge54" class="edge">
<title>Node5&#45;&gt;Node39</title>
<path fill="none" stroke="midnightblue" d="M853.24,-389.17C822.92,-379 779.93,-364.59 752.89,-355.52"/>
<polygon fill="midnightblue" stroke="midnightblue" points="852.4,-392.58 862.99,-392.44 854.62,-385.95 852.4,-392.58"/>
</g>
<!-- Node9 -->
<g id="node9" class="node">
<title>Node9</title>
<g id="a_node9"><a xlink:href="core_2constraints_2ExternalField_8hpp.html" target="_top" xlink:title=" ">
<polygon fill="none" stroke="black" points="1,-280.5 1,-299.5 102,-299.5 102,-280.5 1,-280.5"/>
<text text-anchor="middle" x="51.5" y="-287.5" font-family="Helvetica,sans-Serif" font-size="10.00">ExternalField.hpp</text>
</a>
</g>
</g>
<!-- Node8&#45;&gt;Node9 -->
<g id="edge9" class="edge">
<title>Node8&#45;&gt;Node9</title>
<path fill="none" stroke="midnightblue" d="M370.03,-337.11C298.07,-326.7 172.28,-308.49 102.24,-298.35"/>
<polygon fill="midnightblue" stroke="midnightblue" points="369.85,-340.62 380.25,-338.59 370.85,-333.7 369.85,-340.62"/>
</g>
<!-- Node10 -->
<g id="node10" class="node">
<title>Node10</title>
<g id="a_node10"><a xlink:href="script__interface_2constraints_2ExternalField_8hpp.html" target="_top" xlink:title=" ">
<polygon fill="none" stroke="black" points="0,-224.5 0,-243.5 101,-243.5 101,-224.5 0,-224.5"/>
<text text-anchor="middle" x="50.5" y="-231.5" font-family="Helvetica,sans-Serif" font-size="10.00">ExternalField.hpp</text>
</a>
</g>
</g>
<!-- Node8&#45;&gt;Node10 -->
<g id="edge35" class="edge">
<title>Node8&#45;&gt;Node10</title>
<path fill="none" stroke="midnightblue" d="M369.95,-342.76C313.16,-338.91 222.49,-328.44 149.5,-300 131.01,-292.8 84.13,-259.51 62.18,-243.56"/>
<polygon fill="midnightblue" stroke="midnightblue" points="369.95,-346.27 380.15,-343.4 370.39,-339.28 369.95,-346.27"/>
</g>
<!-- Node12 -->
<g id="node12" class="node">
<title>Node12</title>
<g id="a_node12"><a xlink:href="core_2constraints_2ExternalPotential_8hpp.html" target="_top" xlink:title=" ">
<polygon fill="none" stroke="black" points="158.5,-280.5 158.5,-299.5 280.5,-299.5 280.5,-280.5 158.5,-280.5"/>
<text text-anchor="middle" x="219.5" y="-287.5" font-family="Helvetica,sans-Serif" font-size="10.00">ExternalPotential.hpp</text>
</a>
</g>
</g>
<!-- Node8&#45;&gt;Node12 -->
<g id="edge12" class="edge">
<title>Node8&#45;&gt;Node12</title>
<path fill="none" stroke="midnightblue" d="M382.09,-333.83C343.39,-323.63 287.01,-308.78 251.83,-299.52"/>
<polygon fill="midnightblue" stroke="midnightblue" points="381.46,-337.28 392.02,-336.44 383.24,-330.51 381.46,-337.28"/>
</g>
<!-- Node13 -->
<g id="node13" class="node">
<title>Node13</title>
<g id="a_node13"><a xlink:href="script__interface_2constraints_2ExternalPotential_8hpp.html" target="_top" xlink:title=" ">
<polygon fill="none" stroke="black" points="119.5,-224.5 119.5,-243.5 241.5,-243.5 241.5,-224.5 119.5,-224.5"/>
<text text-anchor="middle" x="180.5" y="-231.5" font-family="Helvetica,sans-Serif" font-size="10.00">ExternalPotential.hpp</text>
</a>
</g>
</g>
<!-- Node8&#45;&gt;Node13 -->
<g id="edge36" class="edge">
<title>Node8&#45;&gt;Node13</title>
<path fill="none" stroke="midnightblue" d="M396.19,-332.32C376.75,-323.5 350.42,-311.34 327.5,-300 310.39,-291.54 306.78,-288.09 289.5,-280 260.02,-266.19 225.11,-252.18 202.89,-243.54"/>
<polygon fill="midnightblue" stroke="midnightblue" points="394.85,-335.56 405.41,-336.48 397.74,-329.18 394.85,-335.56"/>
</g>
<!-- Node14 -->
<g id="node14" class="node">
<title>Node14</title>
<g id="a_node14"><a xlink:href="core_2constraints_2HomogeneousMagneticField_8hpp.html" target="_top" xlink:title=" ">
<polygon fill="none" stroke="black" points="336.5,-280.5 336.5,-299.5 512.5,-299.5 512.5,-280.5 336.5,-280.5"/>
<text text-anchor="middle" x="424.5" y="-287.5" font-family="Helvetica,sans-Serif" font-size="10.00">HomogeneousMagneticField.hpp</text>
</a>
</g>
</g>
<!-- Node8&#45;&gt;Node14 -->
<g id="edge15" class="edge">
<title>Node8&#45;&gt;Node14</title>
<path fill="none" stroke="midnightblue" d="M424.5,-325.8C424.5,-316.91 424.5,-306.78 424.5,-299.75"/>
<polygon fill="midnightblue" stroke="midnightblue" points="421,-326.08 424.5,-336.08 428,-326.08 421,-326.08"/>
</g>
<!-- Node16 -->
<g id="node16" class="node">
<title>Node16</title>
<g id="a_node16"><a xlink:href="script__interface_2constraints_2HomogeneousMagneticField_8hpp.html" target="_top" xlink:title=" ">
<polygon fill="none" stroke="black" points="453.5,-224.5 453.5,-243.5 629.5,-243.5 629.5,-224.5 453.5,-224.5"/>
<text text-anchor="middle" x="541.5" y="-231.5" font-family="Helvetica,sans-Serif" font-size="10.00">HomogeneousMagneticField.hpp</text>
</a>
</g>
</g>
<!-- Node8&#45;&gt;Node16 -->
<g id="edge37" class="edge">
<title>Node8&#45;&gt;Node16</title>
<path fill="none" stroke="midnightblue" d="M469.54,-333C487.9,-326.06 507.95,-315.53 521.5,-300 535.78,-283.63 539.87,-257.21 541.03,-243.65"/>
<polygon fill="midnightblue" stroke="midnightblue" points="468.13,-329.78 459.86,-336.4 470.45,-336.39 468.13,-329.78"/>
</g>
<!-- Node17 -->
<g id="node17" class="node">
<title>Node17</title>
<g id="a_node17"><a xlink:href="core_2constraints_2ShapeBasedConstraint_8hpp.html" target="_top" xlink:title=" ">
<polygon fill="none" stroke="black" points="769.5,-280.5 769.5,-299.5 917.5,-299.5 917.5,-280.5 769.5,-280.5"/>
<text text-anchor="middle" x="843.5" y="-287.5" font-family="Helvetica,sans-Serif" font-size="10.00">ShapeBasedConstraint.hpp</text>
</a>
</g>
</g>
<!-- Node8&#45;&gt;Node17 -->
<g id="edge19" class="edge">
<title>Node8&#45;&gt;Node17</title>
<path fill="none" stroke="midnightblue" d="M478.71,-336.54C479.99,-336.35 481.25,-336.17 482.5,-336 581.8,-322.11 696.76,-308.14 769.78,-299.53"/>
<polygon fill="midnightblue" stroke="midnightblue" points="478.2,-333.07 468.81,-337.98 479.21,-340 478.2,-333.07"/>
</g>
<!-- Node20 -->
<g id="node20" class="node">
<title>Node20</title>
<g id="a_node20"><a xlink:href="script__interface_2constraints_2ShapeBasedConstraint_8hpp.html" target="_top" xlink:title=" ">
<polygon fill="none" stroke="black" points="647.5,-224.5 647.5,-243.5 795.5,-243.5 795.5,-224.5 647.5,-224.5"/>
<text text-anchor="middle" x="721.5" y="-231.5" font-family="Helvetica,sans-Serif" font-size="10.00">ShapeBasedConstraint.hpp</text>
</a>
</g>
</g>
<!-- Node8&#45;&gt;Node20 -->
<g id="edge38" class="edge">
<title>Node8&#45;&gt;Node20</title>
<path fill="none" stroke="midnightblue" d="M457.27,-332.86C517.81,-310.44 645.81,-263.03 698.3,-243.59"/>
<polygon fill="midnightblue" stroke="midnightblue" points="455.97,-329.61 447.81,-336.37 458.4,-336.18 455.97,-329.61"/>
</g>
<!-- Node21 -->
<g id="node21" class="node">
<title>Node21</title>
<g id="a_node21"><a xlink:href="constraints_8hpp.html" target="_top" xlink:title=" ">
<polygon fill="none" stroke="black" points="940.5,-280.5 940.5,-299.5 1032.5,-299.5 1032.5,-280.5 940.5,-280.5"/>
<text text-anchor="middle" x="986.5" y="-287.5" font-family="Helvetica,sans-Serif" font-size="10.00">constraints.hpp</text>
</a>
</g>
</g>
<!-- Node8&#45;&gt;Node21 -->
<g id="edge24" class="edge">
<title>Node8&#45;&gt;Node21</title>
<path fill="none" stroke="midnightblue" d="M478.7,-336.46C479.98,-336.3 481.25,-336.15 482.5,-336 679.12,-312.81 729.82,-322.7 926.5,-300 931,-299.48 935.68,-298.88 940.35,-298.25"/>
<polygon fill="midnightblue" stroke="midnightblue" points="478.24,-332.99 468.79,-337.79 479.16,-339.93 478.24,-332.99"/>
</g>
<!-- Node26 -->
<g id="node26" class="node">
<title>Node26</title>
<g id="a_node26"><a xlink:href="script__interface_2constraints_2Constraint_8hpp.html" target="_top" xlink:title=" ">
<polygon fill="none" stroke="black" points="653.5,-280.5 653.5,-299.5 741.5,-299.5 741.5,-280.5 653.5,-280.5"/>
<text text-anchor="middle" x="697.5" y="-287.5" font-family="Helvetica,sans-Serif" font-size="10.00">Constraint.hpp</text>
</a>
</g>
</g>
<!-- Node8&#45;&gt;Node26 -->
<g id="edge31" class="edge">
<title>Node8&#45;&gt;Node26</title>
<path fill="none" stroke="midnightblue" d="M477.72,-334.47C529.31,-324.27 606.6,-308.98 654.44,-299.52"/>
<polygon fill="midnightblue" stroke="midnightblue" points="476.89,-331.07 467.76,-336.44 478.25,-337.94 476.89,-331.07"/>
</g>
<!-- Node9&#45;&gt;Node10 -->
<g id="edge10" class="edge">
<title>Node9&#45;&gt;Node10</title>
<path fill="none" stroke="midnightblue" d="M51.14,-269.8C50.98,-260.91 50.79,-250.78 50.66,-243.75"/>
<polygon fill="midnightblue" stroke="midnightblue" points="47.65,-270.15 51.33,-280.08 54.65,-270.02 47.65,-270.15"/>
</g>
<!-- Node11 -->
<g id="node11" class="node">
<title>Node11</title>
<g id="a_node11"><a xlink:href="constraints_2initialize_8cpp.html" target="_top" xlink:title=" ">
<polygon fill="none" stroke="black" points="502,-168.5 502,-187.5 581,-187.5 581,-168.5 502,-168.5"/>
<text text-anchor="middle" x="541.5" y="-175.5" font-family="Helvetica,sans-Serif" font-size="10.00">initialize.cpp</text>
</a>
</g>
</g>
<!-- Node10&#45;&gt;Node11 -->
<g id="edge11" class="edge">
<title>Node10&#45;&gt;Node11</title>
<path fill="none" stroke="midnightblue" d="M111.56,-223.92C262.01,-204.98 427.63,-189.3 501.92,-182.53"/>
<polygon fill="midnightblue" stroke="midnightblue" points="110.7,-220.5 101.22,-225.23 111.58,-227.44 110.7,-220.5"/>
</g>
<!-- Node12&#45;&gt;Node13 -->
<g id="edge13" class="edge">
<title>Node12&#45;&gt;Node13</title>
<path fill="none" stroke="midnightblue" d="M207.12,-271.86C200.36,-262.5 192.29,-251.33 186.82,-243.75"/>
<polygon fill="midnightblue" stroke="midnightblue" points="204.37,-274.03 213.06,-280.08 210.04,-269.93 204.37,-274.03"/>
</g>
<!-- Node13&#45;&gt;Node11 -->
<g id="edge14" class="edge">
<title>Node13&#45;&gt;Node11</title>
<path fill="none" stroke="midnightblue" d="M247.95,-222.91C322.69,-211.73 440.71,-194.08 501.85,-184.93"/>
<polygon fill="midnightblue" stroke="midnightblue" points="247.07,-219.5 237.7,-224.44 248.11,-226.43 247.07,-219.5"/>
</g>
<!-- Node15 -->
<g id="node15" class="node">
<title>Node15</title>
<g id="a_node15"><a xlink:href="HomogeneousMagneticField_8cpp.html" target="_top" xlink:title=" ">
<polygon fill="none" stroke="black" points="260,-224.5 260,-243.5 435,-243.5 435,-224.5 260,-224.5"/>
<text text-anchor="middle" x="347.5" y="-231.5" font-family="Helvetica,sans-Serif" font-size="10.00">HomogeneousMagneticField.cpp</text>
</a>
</g>
</g>
<!-- Node14&#45;&gt;Node15 -->
<g id="edge16" class="edge">
<title>Node14&#45;&gt;Node15</title>
<path fill="none" stroke="midnightblue" d="M403.6,-274.34C389.59,-264.52 371.62,-251.91 359.84,-243.65"/>
<polygon fill="midnightblue" stroke="midnightblue" points="401.93,-277.45 412.13,-280.32 405.95,-271.72 401.93,-277.45"/>
</g>
<!-- Node14&#45;&gt;Node16 -->
<g id="edge17" class="edge">
<title>Node14&#45;&gt;Node16</title>
<path fill="none" stroke="midnightblue" d="M452.16,-276.23C474.05,-266.13 504,-252.31 523.05,-243.52"/>
<polygon fill="midnightblue" stroke="midnightblue" points="450.65,-273.08 443.04,-280.44 453.59,-279.43 450.65,-273.08"/>
</g>
<!-- Node16&#45;&gt;Node11 -->
<g id="edge18" class="edge">
<title>Node16&#45;&gt;Node11</title>
<path fill="none" stroke="midnightblue" d="M541.5,-213.8C541.5,-204.91 541.5,-194.78 541.5,-187.75"/>
<polygon fill="midnightblue" stroke="midnightblue" points="538,-214.08 541.5,-224.08 545,-214.08 538,-214.08"/>
</g>
<!-- Node18 -->
<g id="node18" class="node">
<title>Node18</title>
<g id="a_node18"><a xlink:href="ShapeBasedConstraint_8cpp.html" target="_top" xlink:title=" ">
<polygon fill="none" stroke="black" points="1331,-224.5 1331,-243.5 1478,-243.5 1478,-224.5 1331,-224.5"/>
<text text-anchor="middle" x="1404.5" y="-231.5" font-family="Helvetica,sans-Serif" font-size="10.00">ShapeBasedConstraint.cpp</text>
</a>
</g>
</g>
<!-- Node17&#45;&gt;Node18 -->
<g id="edge20" class="edge">
<title>Node17&#45;&gt;Node18</title>
<path fill="none" stroke="midnightblue" d="M928.15,-280.33C929.28,-280.22 930.39,-280.11 931.5,-280 1104.75,-263.14 1148.3,-261.38 1321.5,-244 1324.53,-243.7 1327.62,-243.38 1330.74,-243.06"/>
<polygon fill="midnightblue" stroke="midnightblue" points="927.52,-276.87 917.91,-281.34 928.21,-283.84 927.52,-276.87"/>
</g>
<!-- Node19 -->
<g id="node19" class="node">
<title>Node19</title>
<g id="a_node19"><a xlink:href="polymer_8cpp.html" target="_top" xlink:title=" ">
<polygon fill="none" stroke="black" points="925,-224.5 925,-243.5 1002,-243.5 1002,-224.5 925,-224.5"/>
<text text-anchor="middle" x="963.5" y="-231.5" font-family="Helvetica,sans-Serif" font-size="10.00">polymer.cpp</text>
</a>
</g>
</g>
<!-- Node17&#45;&gt;Node19 -->
<g id="edge21" class="edge">
<title>Node17&#45;&gt;Node19</title>
<path fill="none" stroke="midnightblue" d="M871.87,-276.23C894.32,-266.13 925.04,-252.31 944.57,-243.52"/>
<polygon fill="midnightblue" stroke="midnightblue" points="870.2,-273.15 862.51,-280.44 873.07,-279.53 870.2,-273.15"/>
</g>
<!-- Node17&#45;&gt;Node20 -->
<g id="edge22" class="edge">
<title>Node17&#45;&gt;Node20</title>
<path fill="none" stroke="midnightblue" d="M814.96,-276.37C792.11,-266.26 760.69,-252.35 740.74,-243.52"/>
<polygon fill="midnightblue" stroke="midnightblue" points="813.61,-279.6 824.17,-280.44 816.44,-273.2 813.61,-279.6"/>
</g>
<!-- Node20&#45;&gt;Node11 -->
<g id="edge23" class="edge">
<title>Node20&#45;&gt;Node11</title>
<path fill="none" stroke="midnightblue" d="M683.39,-221.57C649.44,-211.38 600.51,-196.7 569.89,-187.52"/>
<polygon fill="midnightblue" stroke="midnightblue" points="682.39,-224.92 692.98,-224.44 684.41,-218.22 682.39,-224.92"/>
</g>
<!-- Node21&#45;&gt;Node19 -->
<g id="edge28" class="edge">
<title>Node21&#45;&gt;Node19</title>
<path fill="none" stroke="midnightblue" d="M978.7,-270.69C974.82,-261.59 970.32,-251.01 967.23,-243.75"/>
<polygon fill="midnightblue" stroke="midnightblue" points="975.56,-272.25 982.7,-280.08 982,-269.51 975.56,-272.25"/>
</g>
<!-- Node22 -->
<g id="node22" class="node">
<title>Node22</title>
<g id="a_node22"><a xlink:href="constraints_8cpp.html" target="_top" xlink:title=" ">
<polygon fill="none" stroke="black" points="1020,-224.5 1020,-243.5 1111,-243.5 1111,-224.5 1020,-224.5"/>
<text text-anchor="middle" x="1065.5" y="-231.5" font-family="Helvetica,sans-Serif" font-size="10.00">constraints.cpp</text>
</a>
</g>
</g>
<!-- Node21&#45;&gt;Node22 -->
<g id="edge25" class="edge">
<title>Node21&#45;&gt;Node22</title>
<path fill="none" stroke="midnightblue" d="M1007.53,-274.62C1021.97,-264.76 1040.64,-251.99 1052.84,-243.65"/>
<polygon fill="midnightblue" stroke="midnightblue" points="1005.47,-271.79 999.19,-280.32 1009.42,-277.57 1005.47,-271.79"/>
</g>
<!-- Node23 -->
<g id="node23" class="node">
<title>Node23</title>
<g id="a_node23"><a xlink:href="energy_8cpp.html" target="_top" xlink:title=" ">
<polygon fill="none" stroke="black" points="1129,-224.5 1129,-243.5 1198,-243.5 1198,-224.5 1129,-224.5"/>
<text text-anchor="middle" x="1163.5" y="-231.5" font-family="Helvetica,sans-Serif" font-size="10.00">energy.cpp</text>
</a>
</g>
</g>
<!-- Node21&#45;&gt;Node23 -->
<g id="edge26" class="edge">
<title>Node21&#45;&gt;Node23</title>
<path fill="none" stroke="midnightblue" d="M1024.4,-277.44C1057.78,-267.26 1105.6,-252.66 1135.59,-243.52"/>
<polygon fill="midnightblue" stroke="midnightblue" points="1023.09,-274.18 1014.55,-280.44 1025.13,-280.87 1023.09,-274.18"/>
</g>
<!-- Node24 -->
<g id="node24" class="node">
<title>Node24</title>
<g id="a_node24"><a xlink:href="forces_8cpp.html" target="_top" xlink:title=" ">
<polygon fill="none" stroke="black" points="1496,-224.5 1496,-243.5 1563,-243.5 1563,-224.5 1496,-224.5"/>
<text text-anchor="middle" x="1529.5" y="-231.5" font-family="Helvetica,sans-Serif" font-size="10.00">forces.cpp</text>
</a>
</g>
</g>
<!-- Node21&#45;&gt;Node24 -->
<g id="edge27" class="edge">
<title>Node21&#45;&gt;Node24</title>
<path fill="none" stroke="midnightblue" d="M1042.69,-286.19C1135.64,-281.03 1327.08,-268.3 1487.5,-244 1490.15,-243.6 1492.89,-243.13 1495.64,-242.63"/>
<polygon fill="midnightblue" stroke="midnightblue" points="1042.45,-282.69 1032.66,-286.73 1042.83,-289.68 1042.45,-282.69"/>
</g>
<!-- Node25 -->
<g id="node25" class="node">
<title>Node25</title>
<g id="a_node25"><a xlink:href="script__interface_2constraints_2Constraints_8hpp.html" target="_top" xlink:title=" ">
<polygon fill="none" stroke="black" points="814,-224.5 814,-243.5 907,-243.5 907,-224.5 814,-224.5"/>
<text text-anchor="middle" x="860.5" y="-231.5" font-family="Helvetica,sans-Serif" font-size="10.00">Constraints.hpp</text>
</a>
</g>
</g>
<!-- Node21&#45;&gt;Node25 -->
<g id="edge29" class="edge">
<title>Node21&#45;&gt;Node25</title>
<path fill="none" stroke="midnightblue" d="M957.34,-276.5C933.72,-266.38 901.07,-252.39 880.37,-243.52"/>
<polygon fill="midnightblue" stroke="midnightblue" points="955.96,-279.72 966.53,-280.44 958.72,-273.29 955.96,-279.72"/>
</g>
<!-- Node25&#45;&gt;Node11 -->
<g id="edge30" class="edge">
<title>Node25&#45;&gt;Node11</title>
<path fill="none" stroke="midnightblue" d="M803.85,-223.41C739.85,-212.58 637.35,-195.23 581.29,-185.74"/>
<polygon fill="midnightblue" stroke="midnightblue" points="803.33,-226.87 813.77,-225.09 804.5,-219.97 803.33,-226.87"/>
</g>
<!-- Node26&#45;&gt;Node16 -->
<g id="edge33" class="edge">
<title>Node26&#45;&gt;Node16</title>
<path fill="none" stroke="midnightblue" d="M663.33,-277.17C633.96,-267 592.3,-252.59 566.1,-243.52"/>
<polygon fill="midnightblue" stroke="midnightblue" points="662.19,-280.48 672.78,-280.44 664.48,-273.86 662.19,-280.48"/>
</g>
<!-- Node26&#45;&gt;Node20 -->
<g id="edge34" class="edge">
<title>Node26&#45;&gt;Node20</title>
<path fill="none" stroke="midnightblue" d="M705.64,-270.69C709.68,-261.59 714.38,-251.01 717.61,-243.75"/>
<polygon fill="midnightblue" stroke="midnightblue" points="702.33,-269.52 701.46,-280.08 708.72,-272.37 702.33,-269.52"/>
</g>
<!-- Node26&#45;&gt;Node25 -->
<g id="edge32" class="edge">
<title>Node26&#45;&gt;Node25</title>
<path fill="none" stroke="midnightblue" d="M733.2,-277.17C763.9,-267 807.42,-252.59 834.79,-243.52"/>
<polygon fill="midnightblue" stroke="midnightblue" points="731.72,-273.98 723.33,-280.44 733.92,-280.62 731.72,-273.98"/>
</g>
<!-- Node27&#45;&gt;Node18 -->
<g id="edge40" class="edge">
<title>Node27&#45;&gt;Node18</title>
<path fill="none" stroke="midnightblue" d="M1404.5,-269.8C1404.5,-260.91 1404.5,-250.78 1404.5,-243.75"/>
<polygon fill="midnightblue" stroke="midnightblue" points="1401,-270.08 1404.5,-280.08 1408,-270.08 1401,-270.08"/>
</g>
<!-- Node27&#45;&gt;Node23 -->
<g id="edge41" class="edge">
<title>Node27&#45;&gt;Node23</title>
<path fill="none" stroke="midnightblue" d="M1356.43,-278.23C1309.74,-267.77 1239.98,-252.14 1198.38,-242.82"/>
<polygon fill="midnightblue" stroke="midnightblue" points="1355.79,-281.67 1366.31,-280.44 1357.32,-274.84 1355.79,-281.67"/>
</g>
<!-- Node28 -->
<g id="node28" class="node">
<title>Node28</title>
<g id="a_node28"><a xlink:href="core_2pair__criteria_2pair__criteria_8hpp.html" target="_top" xlink:title=" ">
<polygon fill="none" stroke="black" points="1216.5,-224.5 1216.5,-243.5 1312.5,-243.5 1312.5,-224.5 1216.5,-224.5"/>
<text text-anchor="middle" x="1264.5" y="-231.5" font-family="Helvetica,sans-Serif" font-size="10.00">pair_criteria.hpp</text>
</a>
</g>
</g>
<!-- Node27&#45;&gt;Node28 -->
<g id="edge42" class="edge">
<title>Node27&#45;&gt;Node28</title>
<path fill="none" stroke="midnightblue" d="M1372.8,-276.77C1346.5,-266.63 1309.78,-252.47 1286.58,-243.52"/>
<polygon fill="midnightblue" stroke="midnightblue" points="1371.73,-280.11 1382.32,-280.44 1374.25,-273.58 1371.73,-280.11"/>
</g>
<!-- Node29 -->
<g id="node29" class="node">
<title>Node29</title>
<g id="a_node29"><a xlink:href="script__interface_2pair__criteria_2pair__criteria_8hpp.html" target="_top" xlink:title=" ">
<polygon fill="none" stroke="black" points="1216.5,-168.5 1216.5,-187.5 1312.5,-187.5 1312.5,-168.5 1216.5,-168.5"/>
<text text-anchor="middle" x="1264.5" y="-175.5" font-family="Helvetica,sans-Serif" font-size="10.00">pair_criteria.hpp</text>
</a>
</g>
</g>
<!-- Node28&#45;&gt;Node29 -->
<g id="edge43" class="edge">
<title>Node28&#45;&gt;Node29</title>
<path fill="none" stroke="midnightblue" d="M1264.5,-213.8C1264.5,-204.91 1264.5,-194.78 1264.5,-187.75"/>
<polygon fill="midnightblue" stroke="midnightblue" points="1261,-214.08 1264.5,-224.08 1268,-214.08 1261,-214.08"/>
</g>
<!-- Node30 -->
<g id="node30" class="node">
<title>Node30</title>
<g id="a_node30"><a xlink:href="core_2cluster__analysis_2ClusterStructure_8hpp.html" target="_top" xlink:title=" ">
<polygon fill="none" stroke="black" points="1120.5,-112.5 1120.5,-131.5 1236.5,-131.5 1236.5,-112.5 1120.5,-112.5"/>
<text text-anchor="middle" x="1178.5" y="-119.5" font-family="Helvetica,sans-Serif" font-size="10.00">ClusterStructure.hpp</text>
</a>
</g>
</g>
<!-- Node29&#45;&gt;Node30 -->
<g id="edge44" class="edge">
<title>Node29&#45;&gt;Node30</title>
<path fill="none" stroke="midnightblue" d="M1242.05,-162.9C1226.28,-153 1205.69,-140.07 1192.28,-131.65"/>
<polygon fill="midnightblue" stroke="midnightblue" points="1240.35,-165.97 1250.68,-168.32 1244.07,-160.04 1240.35,-165.97"/>
</g>
<!-- Node32 -->
<g id="node32" class="node">
<title>Node32</title>
<g id="a_node32"><a xlink:href="script__interface_2cluster__analysis_2ClusterStructure_8hpp.html" target="_top" xlink:title=" ">
<polygon fill="none" stroke="black" points="1206.5,-56.5 1206.5,-75.5 1322.5,-75.5 1322.5,-56.5 1206.5,-56.5"/>
<text text-anchor="middle" x="1264.5" y="-63.5" font-family="Helvetica,sans-Serif" font-size="10.00">ClusterStructure.hpp</text>
</a>
</g>
</g>
<!-- Node29&#45;&gt;Node32 -->
<g id="edge48" class="edge">
<title>Node29&#45;&gt;Node32</title>
<path fill="none" stroke="midnightblue" d="M1264.5,-158.35C1264.5,-134.25 1264.5,-93.31 1264.5,-75.59"/>
<polygon fill="midnightblue" stroke="midnightblue" points="1261,-158.37 1264.5,-168.37 1268,-158.37 1261,-158.37"/>
</g>
<!-- Node34 -->
<g id="node34" class="node">
<title>Node34</title>
<g id="a_node34"><a xlink:href="pair__criteria_2initialize_8cpp.html" target="_top" xlink:title=" ">
<polygon fill="none" stroke="black" points="1293,-112.5 1293,-131.5 1372,-131.5 1372,-112.5 1293,-112.5"/>
<text text-anchor="middle" x="1332.5" y="-119.5" font-family="Helvetica,sans-Serif" font-size="10.00">initialize.cpp</text>
</a>
</g>
</g>
<!-- Node29&#45;&gt;Node34 -->
<g id="edge49" class="edge">
<title>Node29&#45;&gt;Node34</title>
<path fill="none" stroke="midnightblue" d="M1283.26,-162.1C1295.5,-152.38 1311.06,-140.03 1321.38,-131.83"/>
<polygon fill="midnightblue" stroke="midnightblue" points="1281.08,-159.36 1275.43,-168.32 1285.43,-164.85 1281.08,-159.36"/>
</g>
<!-- Node31 -->
<g id="node31" class="node">
<title>Node31</title>
<g id="a_node31"><a xlink:href="ClusterStructure_8cpp.html" target="_top" xlink:title=" ">
<polygon fill="none" stroke="black" points="1072.5,-56.5 1072.5,-75.5 1188.5,-75.5 1188.5,-56.5 1072.5,-56.5"/>
<text text-anchor="middle" x="1130.5" y="-63.5" font-family="Helvetica,sans-Serif" font-size="10.00">ClusterStructure.cpp</text>
</a>
</g>
</g>
<!-- Node30&#45;&gt;Node31 -->
<g id="edge45" class="edge">
<title>Node30&#45;&gt;Node31</title>
<path fill="none" stroke="midnightblue" d="M1163.77,-104.43C1155.36,-94.97 1145.15,-83.48 1138.28,-75.75"/>
<polygon fill="midnightblue" stroke="midnightblue" points="1161.31,-106.93 1170.57,-112.08 1166.55,-102.28 1161.31,-106.93"/>
</g>
<!-- Node30&#45;&gt;Node32 -->
<g id="edge46" class="edge">
<title>Node30&#45;&gt;Node32</title>
<path fill="none" stroke="midnightblue" d="M1200.95,-106.9C1216.72,-97 1237.31,-84.07 1250.72,-75.65"/>
<polygon fill="midnightblue" stroke="midnightblue" points="1198.93,-104.04 1192.32,-112.32 1202.65,-109.97 1198.93,-104.04"/>
</g>
<!-- Node33 -->
<g id="node33" class="node">
<title>Node33</title>
<g id="a_node33"><a xlink:href="cluster__analysis_2initialize_8cpp.html" target="_top" xlink:title=" ">
<polygon fill="none" stroke="black" points="1225,-0.5 1225,-19.5 1304,-19.5 1304,-0.5 1225,-0.5"/>
<text text-anchor="middle" x="1264.5" y="-7.5" font-family="Helvetica,sans-Serif" font-size="10.00">initialize.cpp</text>
</a>
</g>
</g>
<!-- Node32&#45;&gt;Node33 -->
<g id="edge47" class="edge">
<title>Node32&#45;&gt;Node33</title>
<path fill="none" stroke="midnightblue" d="M1264.5,-45.8C1264.5,-36.91 1264.5,-26.78 1264.5,-19.75"/>
<polygon fill="midnightblue" stroke="midnightblue" points="1261,-46.08 1264.5,-56.08 1268,-46.08 1261,-46.08"/>
</g>
<!-- Node36 -->
<g id="node36" class="node">
<title>Node36</title>
<g id="a_node36"><a xlink:href="ParamlessObservable_8hpp.html" target="_top" xlink:title=" ">
<polygon fill="none" stroke="black" points="1636.5,-280.5 1636.5,-299.5 1780.5,-299.5 1780.5,-280.5 1636.5,-280.5"/>
<text text-anchor="middle" x="1708.5" y="-287.5" font-family="Helvetica,sans-Serif" font-size="10.00">ParamlessObservable.hpp</text>
</a>
</g>
</g>
<!-- Node35&#45;&gt;Node36 -->
<g id="edge51" class="edge">
<title>Node35&#45;&gt;Node36</title>
<path fill="none" stroke="midnightblue" d="M940.48,-335.98C1227.65,-310.58 1301.9,-318.28 1585.5,-300 1601.95,-298.94 1619.64,-297.7 1636.32,-296.49"/>
<polygon fill="midnightblue" stroke="midnightblue" points="939.82,-332.52 930.17,-336.89 940.45,-339.49 939.82,-332.52"/>
</g>
<!-- Node37 -->
<g id="node37" class="node">
<title>Node37</title>
<g id="a_node37"><a xlink:href="observables_2initialize_8cpp.html" target="_top" xlink:title=" ">
<polygon fill="none" stroke="black" points="1712,-224.5 1712,-243.5 1791,-243.5 1791,-224.5 1712,-224.5"/>
<text text-anchor="middle" x="1751.5" y="-231.5" font-family="Helvetica,sans-Serif" font-size="10.00">initialize.cpp</text>
</a>
</g>
</g>
<!-- Node36&#45;&gt;Node37 -->
<g id="edge52" class="edge">
<title>Node36&#45;&gt;Node37</title>
<path fill="none" stroke="midnightblue" d="M1721.92,-272.14C1729.41,-262.74 1738.44,-251.4 1744.53,-243.75"/>
<polygon fill="midnightblue" stroke="midnightblue" points="1719.09,-270.08 1715.6,-280.08 1724.57,-274.44 1719.09,-270.08"/>
</g>
<!-- Node40&#45;&gt;Node4 -->
<g id="edge56" class="edge">
<title>Node40&#45;&gt;Node4</title>
<path fill="none" stroke="midnightblue" d="M1369.05,-391.87C1240.65,-370.74 1206.1,-371.76 1080.5,-356 1077.42,-355.61 1074.26,-355.22 1071.07,-354.81"/>
<polygon fill="midnightblue" stroke="midnightblue" points="1368.84,-395.39 1379.28,-393.57 1369.99,-388.48 1368.84,-395.39"/>
</g>
<!-- Node40&#45;&gt;Node6 -->
<g id="edge57" class="edge">
<title>Node40&#45;&gt;Node6</title>
<path fill="none" stroke="midnightblue" d="M1369.31,-391.76C1301.99,-377.84 1234.91,-364.16 1192.69,-355.57"/>
<polygon fill="midnightblue" stroke="midnightblue" points="1368.73,-395.22 1379.24,-393.81 1370.15,-388.36 1368.73,-395.22"/>
</g>
<!-- Node40&#45;&gt;Node7 -->
<g id="edge58" class="edge">
<title>Node40&#45;&gt;Node7</title>
<path fill="none" stroke="midnightblue" d="M1384.96,-388.37C1362.11,-378.26 1330.69,-364.35 1310.74,-355.52"/>
<polygon fill="midnightblue" stroke="midnightblue" points="1383.61,-391.6 1394.17,-392.44 1386.44,-385.2 1383.61,-391.6"/>
</g>
<!-- Node40&#45;&gt;Node23 -->
<g id="edge59" class="edge">
<title>Node40&#45;&gt;Node23</title>
<path fill="none" stroke="midnightblue" d="M1402.68,-383.7C1393.17,-369.52 1378.25,-349.65 1361.5,-336 1306.16,-290.9 1227.4,-258.24 1187.97,-243.59"/>
<polygon fill="midnightblue" stroke="midnightblue" points="1399.99,-385.97 1408.37,-392.45 1405.86,-382.16 1399.99,-385.97"/>
</g>
<!-- Node41 -->
<g id="node41" class="node">
<title>Node41</title>
<g id="a_node41"><a xlink:href="forces__inline_8hpp.html" target="_top" xlink:title=" ">
<polygon fill="none" stroke="black" points="1476.5,-280.5 1476.5,-299.5 1576.5,-299.5 1576.5,-280.5 1476.5,-280.5"/>
<text text-anchor="middle" x="1526.5" y="-287.5" font-family="Helvetica,sans-Serif" font-size="10.00">forces_inline.hpp</text>
</a>
</g>
</g>
<!-- Node40&#45;&gt;Node41 -->
<g id="edge60" class="edge">
<title>Node40&#45;&gt;Node41</title>
<path fill="none" stroke="midnightblue" d="M1416.9,-382.34C1420.29,-368.2 1426.76,-349.05 1438.5,-336 1454.34,-318.4 1478.67,-306.69 1497.74,-299.65"/>
<polygon fill="midnightblue" stroke="midnightblue" points="1413.42,-381.89 1414.79,-392.39 1420.27,-383.32 1413.42,-381.89"/>
</g>
<!-- Node44 -->
<g id="node44" class="node">
<title>Node44</title>
<g id="a_node44"><a xlink:href="integrate_8cpp.html" target="_top" xlink:title=" ">
<polygon fill="none" stroke="black" points="1447,-336.5 1447,-355.5 1528,-355.5 1528,-336.5 1447,-336.5"/>
<text text-anchor="middle" x="1487.5" y="-343.5" font-family="Helvetica,sans-Serif" font-size="10.00">integrate.cpp</text>
</a>
</g>
</g>
<!-- Node40&#45;&gt;Node44 -->
<g id="edge65" class="edge">
<title>Node40&#45;&gt;Node44</title>
<path fill="none" stroke="midnightblue" d="M1433.53,-386.38C1446.91,-376.62 1464.06,-364.11 1475.39,-355.83"/>
<polygon fill="midnightblue" stroke="midnightblue" points="1431.4,-383.6 1425.39,-392.32 1435.53,-389.26 1431.4,-383.6"/>
</g>
<!-- Node45 -->
<g id="node45" class="node">
<title>Node45</title>
<g id="a_node45"><a xlink:href="VirtualSitesRelative_8cpp.html" target="_top" xlink:title=" ">
<polygon fill="none" stroke="black" points="1546.5,-336.5 1546.5,-355.5 1680.5,-355.5 1680.5,-336.5 1546.5,-336.5"/>
<text text-anchor="middle" x="1613.5" y="-343.5" font-family="Helvetica,sans-Serif" font-size="10.00">VirtualSitesRelative.cpp</text>
</a>
</g>
</g>
<!-- Node40&#45;&gt;Node45 -->
<g id="edge66" class="edge">
<title>Node40&#45;&gt;Node45</title>
<path fill="none" stroke="midnightblue" d="M1454.87,-389.83C1492.64,-379.63 1547.64,-364.78 1581.96,-355.52"/>
<polygon fill="midnightblue" stroke="midnightblue" points="1453.93,-386.46 1445.19,-392.44 1455.76,-393.22 1453.93,-386.46"/>
</g>
<!-- Node41&#45;&gt;Node18 -->
<g id="edge61" class="edge">
<title>Node41&#45;&gt;Node18</title>
<path fill="none" stroke="midnightblue" d="M1497.96,-276.37C1475.11,-266.26 1443.69,-252.35 1423.74,-243.52"/>
<polygon fill="midnightblue" stroke="midnightblue" points="1496.61,-279.6 1507.17,-280.44 1499.44,-273.2 1496.61,-279.6"/>
</g>
<!-- Node41&#45;&gt;Node24 -->
<g id="edge62" class="edge">
<title>Node41&#45;&gt;Node24</title>
<path fill="none" stroke="midnightblue" d="M1527.57,-269.8C1528.06,-260.91 1528.62,-250.78 1529.01,-243.75"/>
<polygon fill="midnightblue" stroke="midnightblue" points="1524.06,-269.9 1527,-280.08 1531.04,-270.29 1524.06,-269.9"/>
</g>
<!-- Node42 -->
<g id="node42" class="node">
<title>Node42</title>
<g id="a_node42"><a xlink:href="pressure__inline_8hpp.html" target="_top" xlink:title=" ">
<polygon fill="none" stroke="black" points="1581.5,-224.5 1581.5,-243.5 1693.5,-243.5 1693.5,-224.5 1581.5,-224.5"/>
<text text-anchor="middle" x="1637.5" y="-231.5" font-family="Helvetica,sans-Serif" font-size="10.00">pressure_inline.hpp</text>
</a>
</g>
</g>
<!-- Node41&#45;&gt;Node42 -->
<g id="edge63" class="edge">
<title>Node41&#45;&gt;Node42</title>
<path fill="none" stroke="midnightblue" d="M1553.51,-275.86C1574.09,-265.85 1601.84,-252.35 1619.71,-243.65"/>
<polygon fill="midnightblue" stroke="midnightblue" points="1551.8,-272.8 1544.33,-280.32 1554.86,-279.1 1551.8,-272.8"/>
</g>
<!-- Node43 -->
<g id="node43" class="node">
<title>Node43</title>
<g id="a_node43"><a xlink:href="pressure_8cpp.html" target="_top" xlink:title=" ">
<polygon fill="none" stroke="black" points="1598,-168.5 1598,-187.5 1677,-187.5 1677,-168.5 1598,-168.5"/>
<text text-anchor="middle" x="1637.5" y="-175.5" font-family="Helvetica,sans-Serif" font-size="10.00">pressure.cpp</text>
</a>
</g>
</g>
<!-- Node42&#45;&gt;Node43 -->
<g id="edge64" class="edge">
<title>Node42&#45;&gt;Node43</title>
<path fill="none" stroke="midnightblue" d="M1637.5,-213.8C1637.5,-204.91 1637.5,-194.78 1637.5,-187.75"/>
<polygon fill="midnightblue" stroke="midnightblue" points="1634,-214.08 1637.5,-224.08 1641,-214.08 1634,-214.08"/>
</g>
<!-- Node46&#45;&gt;Node4 -->
<g id="edge69" class="edge">
<title>Node46&#45;&gt;Node4</title>
<path fill="none" stroke="midnightblue" d="M1008.67,-438.35C1008.89,-414.25 1009.26,-373.31 1009.42,-355.59"/>
<polygon fill="midnightblue" stroke="midnightblue" points="1005.17,-438.34 1008.58,-448.37 1012.17,-438.4 1005.17,-438.34"/>
</g>
<!-- Node47 -->
<g id="node47" class="node">
<title>Node47</title>
<g id="a_node47"><a xlink:href="dipole_8cpp.html" target="_top" xlink:title=" ">
<polygon fill="none" stroke="black" points="1047,-392.5 1047,-411.5 1114,-411.5 1114,-392.5 1047,-392.5"/>
<text text-anchor="middle" x="1080.5" y="-399.5" font-family="Helvetica,sans-Serif" font-size="10.00">dipole.cpp</text>
</a>
</g>
</g>
<!-- Node46&#45;&gt;Node47 -->
<g id="edge70" class="edge">
<title>Node46&#45;&gt;Node47</title>
<path fill="none" stroke="midnightblue" d="M1028.37,-442.1C1041.32,-432.38 1057.8,-420.03 1068.72,-411.83"/>
<polygon fill="midnightblue" stroke="midnightblue" points="1025.97,-439.52 1020.07,-448.32 1030.17,-445.12 1025.97,-439.52"/>
</g>
<!-- Node48&#45;&gt;Node6 -->
<g id="edge72" class="edge">
<title>Node48&#45;&gt;Node6</title>
<path fill="none" stroke="midnightblue" d="M1150.5,-438.35C1150.5,-414.25 1150.5,-373.31 1150.5,-355.59"/>
<polygon fill="midnightblue" stroke="midnightblue" points="1147,-438.37 1150.5,-448.37 1154,-438.37 1147,-438.37"/>
</g>
<!-- Node48&#45;&gt;Node47 -->
<g id="edge73" class="edge">
<title>Node48&#45;&gt;Node47</title>
<path fill="none" stroke="midnightblue" d="M1131.19,-442.1C1118.59,-432.38 1102.57,-420.03 1091.95,-411.83"/>
<polygon fill="midnightblue" stroke="midnightblue" points="1129.2,-444.99 1139.25,-448.32 1133.47,-439.44 1129.2,-444.99"/>
</g>
<!-- Node49&#45;&gt;Node7 -->
<g id="edge75" class="edge">
<title>Node49&#45;&gt;Node7</title>
<path fill="none" stroke="midnightblue" d="M1253.03,-444.79C1225.11,-433.7 1194.51,-415.49 1208.5,-392 1219.48,-373.55 1240.96,-362.2 1259.32,-355.51"/>
<polygon fill="midnightblue" stroke="midnightblue" points="1252.12,-448.19 1262.71,-448.42 1254.57,-441.63 1252.12,-448.19"/>
</g>
<!-- Node50 -->
<g id="node50" class="node">
<title>Node50</title>
<g id="a_node50"><a xlink:href="Mmm1dgpuForce__cuda_8cu.html" target="_top" xlink:title=" ">
<polygon fill="none" stroke="black" points="1217.5,-392.5 1217.5,-411.5 1361.5,-411.5 1361.5,-392.5 1217.5,-392.5"/>
<text text-anchor="middle" x="1289.5" y="-399.5" font-family="Helvetica,sans-Serif" font-size="10.00">Mmm1dgpuForce_cuda.cu</text>
</a>
</g>
</g>
<!-- Node49&#45;&gt;Node50 -->
<g id="edge76" class="edge">
<title>Node49&#45;&gt;Node50</title>
<path fill="none" stroke="midnightblue" d="M1290.79,-437.8C1290.46,-428.91 1290.08,-418.78 1289.82,-411.75"/>
<polygon fill="midnightblue" stroke="midnightblue" points="1287.3,-438.22 1291.17,-448.08 1294.3,-437.96 1287.3,-438.22"/>
</g>
</g>
</svg>
