<?xml version="1.0" encoding="UTF-8" standalone="no"?>
<!DOCTYPE svg PUBLIC "-//W3C//DTD SVG 1.1//EN"
 "http://www.w3.org/Graphics/SVG/1.1/DTD/svg11.dtd">
<!-- Generated by graphviz version 2.43.0 (0)
 -->
<!-- Title: ActorList.hpp Pages: 1 -->
<!--zoomable 476 -->
<svg id="main" version="1.1" xmlns="http://www.w3.org/2000/svg" xmlns:xlink="http://www.w3.org/1999/xlink" xml:space="preserve" onload="init(evt)">
<style type="text/css"><![CDATA[
.edge:hover path { stroke: red; }
.edge:hover polygon { stroke: red; fill: red; }
]]></style>
<script type="text/javascript"><![CDATA[
var edges = document.getElementsByTagName('g');
if (edges && edges.length) {
  for (var i=0;i<edges.length;i++) {
    if (edges[i].id.substr(0,4)=='edge') {
      edges[i].setAttribute('class','edge');
    }
  }
}
]]></script>
        <defs>
                <circle id="rim" cx="0" cy="0" r="7"/>
                <circle id="rim2" cx="0" cy="0" r="3.5"/>
                <g id="zoomPlus">
                        <use xlink:href="#rim" fill="#404040">
                                <set attributeName="fill" to="#808080" begin="zoomplus.mouseover" end="zoomplus.mouseout"/>
                        </use>
                        <path d="M-4,0h8M0,-4v8" fill="none" stroke="white" stroke-width="1.5" pointer-events="none"/>
                </g>
                <g id="zoomMin">
                        <use xlink:href="#rim" fill="#404040">
                                <set attributeName="fill" to="#808080" begin="zoomminus.mouseover" end="zoomminus.mouseout"/>
                        </use>
                        <path d="M-4,0h8" fill="none" stroke="white" stroke-width="1.5" pointer-events="none"/>
                </g>
                <g id="dirArrow">
                        <path fill="none" stroke="white" stroke-width="1.5" d="M0,-3.0v7 M-2.5,-0.5L0,-3.0L2.5,-0.5"/>
                </g>
               <g id="resetDef">
                       <use xlink:href="#rim2" fill="#404040">
                               <set attributeName="fill" to="#808080" begin="reset.mouseover" end="reset.mouseout"/>
                       </use>
               </g>
        </defs>

<script type="text/javascript">
var viewWidth = 1930;
var viewHeight = 476;
var sectionId = 'dynsection-1';
</script>
<script xlink:href="svgpan.js"/>
<svg id="graph" class="graph">
<g id="viewport">
<title>ActorList.hpp</title>
<!-- Node1 -->
<g id="node1" class="node">
<title>Node1</title>
<g id="a_node1"><a xlink:title=" ">
<polygon fill="#bfbfbf" stroke="black" points="1174,-448.5 1174,-467.5 1254,-467.5 1254,-448.5 1174,-448.5"/>
<text text-anchor="middle" x="1214" y="-455.5" font-family="Helvetica,sans-Serif" font-size="10.00">ActorList.hpp</text>
</a>
</g>
</g>
<!-- Node2 -->
<g id="node2" class="node">
<title>Node2</title>
<g id="a_node2"><a xlink:href="ActorList_8cpp.html" target="_top" xlink:title=" ">
<polygon fill="none" stroke="black" points="1010,-392.5 1010,-411.5 1090,-411.5 1090,-392.5 1010,-392.5"/>
<text text-anchor="middle" x="1050" y="-399.5" font-family="Helvetica,sans-Serif" font-size="10.00">ActorList.cpp</text>
</a>
</g>
</g>
<!-- Node1&#45;&gt;Node2 -->
<g id="edge1" class="edge">
<title>Node1&#45;&gt;Node2</title>
<path fill="none" stroke="midnightblue" d="M1178.48,-445.3C1147.58,-435.13 1103.53,-420.62 1075.86,-411.52"/>
<polygon fill="midnightblue" stroke="midnightblue" points="1177.42,-448.64 1188.01,-448.44 1179.61,-441.99 1177.42,-448.64"/>
</g>
<!-- Node3 -->
<g id="node3" class="node">
<title>Node3</title>
<g id="a_node3"><a xlink:href="DipolarBarnesHut_8cpp.html" target="_top" xlink:title=" ">
<polygon fill="none" stroke="black" points="1188.5,-336.5 1188.5,-355.5 1311.5,-355.5 1311.5,-336.5 1188.5,-336.5"/>
<text text-anchor="middle" x="1250" y="-343.5" font-family="Helvetica,sans-Serif" font-size="10.00">DipolarBarnesHut.cpp</text>
</a>
</g>
</g>
<!-- Node1&#45;&gt;Node3 -->
<g id="edge2" class="edge">
<title>Node1&#45;&gt;Node3</title>
<path fill="none" stroke="midnightblue" d="M1220,-438.67C1227.87,-414.62 1241.36,-373.39 1247.19,-355.59"/>
<polygon fill="midnightblue" stroke="midnightblue" points="1216.61,-437.78 1216.82,-448.37 1223.26,-439.95 1216.61,-437.78"/>
</g>
<!-- Node4 -->
<g id="node4" class="node">
<title>Node4</title>
<g id="a_node4"><a xlink:href="energy_8hpp.html" target="_top" xlink:title=" ">
<polygon fill="none" stroke="black" points="1108,-392.5 1108,-411.5 1178,-411.5 1178,-392.5 1108,-392.5"/>
<text text-anchor="middle" x="1143" y="-399.5" font-family="Helvetica,sans-Serif" font-size="10.00">energy.hpp</text>
</a>
</g>
</g>
<!-- Node1&#45;&gt;Node4 -->
<g id="edge3" class="edge">
<title>Node1&#45;&gt;Node4</title>
<path fill="none" stroke="midnightblue" d="M1194.41,-442.1C1181.63,-432.38 1165.39,-420.03 1154.61,-411.83"/>
<polygon fill="midnightblue" stroke="midnightblue" points="1192.51,-445.06 1202.59,-448.32 1196.75,-439.48 1192.51,-445.06"/>
</g>
<!-- Node39 -->
<g id="node39" class="node">
<title>Node39</title>
<g id="a_node39"><a xlink:href="forces_8hpp.html" target="_top" xlink:title=" ">
<polygon fill="none" stroke="black" points="1543,-392.5 1543,-411.5 1611,-411.5 1611,-392.5 1543,-392.5"/>
<text text-anchor="middle" x="1577" y="-399.5" font-family="Helvetica,sans-Serif" font-size="10.00">forces.hpp</text>
</a>
</g>
</g>
<!-- Node1&#45;&gt;Node39 -->
<g id="edge54" class="edge">
<title>Node1&#45;&gt;Node39</title>
<path fill="none" stroke="midnightblue" d="M1264.38,-449.51C1339.38,-438.35 1478.46,-417.66 1542.76,-408.09"/>
<polygon fill="midnightblue" stroke="midnightblue" points="1263.61,-446.08 1254.23,-451.01 1264.64,-453.01 1263.61,-446.08"/>
</g>
<!-- Node4&#45;&gt;Node3 -->
<g id="edge4" class="edge">
<title>Node4&#45;&gt;Node3</title>
<path fill="none" stroke="midnightblue" d="M1169.3,-387.73C1189.11,-377.73 1215.71,-364.31 1232.85,-355.65"/>
<polygon fill="midnightblue" stroke="midnightblue" points="1167.54,-384.69 1160.19,-392.32 1170.7,-390.94 1167.54,-384.69"/>
</g>
<!-- Node5 -->
<g id="node5" class="node">
<title>Node5</title>
<g id="a_node5"><a xlink:href="DipolarDirectSum_8cpp.html" target="_top" xlink:title=" ">
<polygon fill="none" stroke="black" points="1470.5,-336.5 1470.5,-355.5 1593.5,-355.5 1593.5,-336.5 1470.5,-336.5"/>
<text text-anchor="middle" x="1532" y="-343.5" font-family="Helvetica,sans-Serif" font-size="10.00">DipolarDirectSum.cpp</text>
</a>
</g>
</g>
<!-- Node4&#45;&gt;Node5 -->
<g id="edge5" class="edge">
<title>Node4&#45;&gt;Node5</title>
<path fill="none" stroke="midnightblue" d="M1188.44,-394.69C1258.31,-384.99 1392.22,-366.4 1470.63,-355.52"/>
<polygon fill="midnightblue" stroke="midnightblue" points="1187.63,-391.27 1178.21,-396.11 1188.59,-398.2 1187.63,-391.27"/>
</g>
<!-- Node6 -->
<g id="node6" class="node">
<title>Node6</title>
<g id="a_node6"><a xlink:href="Mmm1dgpuForce_8cpp.html" target="_top" xlink:title=" ">
<polygon fill="none" stroke="black" points="1330,-336.5 1330,-355.5 1452,-355.5 1452,-336.5 1330,-336.5"/>
<text text-anchor="middle" x="1391" y="-343.5" font-family="Helvetica,sans-Serif" font-size="10.00">Mmm1dgpuForce.cpp</text>
</a>
</g>
</g>
<!-- Node4&#45;&gt;Node6 -->
<g id="edge6" class="edge">
<title>Node4&#45;&gt;Node6</title>
<path fill="none" stroke="midnightblue" d="M1187.86,-391.23C1234.59,-381.06 1307.1,-365.27 1351.67,-355.56"/>
<polygon fill="midnightblue" stroke="midnightblue" points="1187.03,-387.83 1178.01,-393.38 1188.52,-394.67 1187.03,-387.83"/>
</g>
<!-- Node7 -->
<g id="node7" class="node">
<title>Node7</title>
<g id="a_node7"><a xlink:href="core_2constraints_2Constraint_8hpp.html" target="_top" xlink:title=" ">
<polygon fill="none" stroke="black" points="581,-336.5 581,-355.5 669,-355.5 669,-336.5 581,-336.5"/>
<text text-anchor="middle" x="625" y="-343.5" font-family="Helvetica,sans-Serif" font-size="10.00">Constraint.hpp</text>
</a>
</g>
</g>
<!-- Node4&#45;&gt;Node7 -->
<g id="edge7" class="edge">
<title>Node4&#45;&gt;Node7</title>
<path fill="none" stroke="midnightblue" d="M1097.88,-392.19C1037.36,-385.1 775.14,-360.83 669.36,-351.08"/>
<polygon fill="midnightblue" stroke="midnightblue" points="1097.63,-395.68 1108,-393.49 1098.52,-388.74 1097.63,-395.68"/>
</g>
<!-- Node26 -->
<g id="node26" class="node">
<title>Node26</title>
<g id="a_node26"><a xlink:href="energy__inline_8hpp.html" target="_top" xlink:title=" ">
<polygon fill="none" stroke="black" points="1366,-280.5 1366,-299.5 1470,-299.5 1470,-280.5 1366,-280.5"/>
<text text-anchor="middle" x="1418" y="-287.5" font-family="Helvetica,sans-Serif" font-size="10.00">energy_inline.hpp</text>
</a>
</g>
</g>
<!-- Node4&#45;&gt;Node26 -->
<g id="edge38" class="edge">
<title>Node4&#45;&gt;Node26</title>
<path fill="none" stroke="midnightblue" d="M1097.85,-392.17C1000.06,-381 705,-390.22 756,-336 800.77,-288.4 1277.92,-305.9 1343,-300 1350.44,-299.33 1358.29,-298.51 1365.99,-297.64"/>
<polygon fill="midnightblue" stroke="midnightblue" points="1097.62,-395.67 1107.99,-393.52 1098.54,-388.73 1097.62,-395.67"/>
</g>
<!-- Node34 -->
<g id="node34" class="node">
<title>Node34</title>
<g id="a_node34"><a xlink:href="EnergyObservable_8hpp.html" target="_top" xlink:title=" ">
<polygon fill="none" stroke="black" points="1043.5,-336.5 1043.5,-355.5 1170.5,-355.5 1170.5,-336.5 1043.5,-336.5"/>
<text text-anchor="middle" x="1107" y="-343.5" font-family="Helvetica,sans-Serif" font-size="10.00">EnergyObservable.hpp</text>
</a>
</g>
</g>
<!-- Node4&#45;&gt;Node34 -->
<g id="edge49" class="edge">
<title>Node4&#45;&gt;Node34</title>
<path fill="none" stroke="midnightblue" d="M1131.38,-383.57C1125.18,-374.27 1117.83,-363.25 1112.83,-355.75"/>
<polygon fill="midnightblue" stroke="midnightblue" points="1128.6,-385.7 1137.06,-392.08 1134.42,-381.82 1128.6,-385.7"/>
</g>
<!-- Node37 -->
<g id="node37" class="node">
<title>Node37</title>
<g id="a_node37"><a xlink:href="ReactionAlgorithm_8cpp.html" target="_top" xlink:title=" ">
<polygon fill="none" stroke="black" points="765,-336.5 765,-355.5 893,-355.5 893,-336.5 765,-336.5"/>
<text text-anchor="middle" x="829" y="-343.5" font-family="Helvetica,sans-Serif" font-size="10.00">ReactionAlgorithm.cpp</text>
</a>
</g>
</g>
<!-- Node4&#45;&gt;Node37 -->
<g id="edge52" class="edge">
<title>Node4&#45;&gt;Node37</title>
<path fill="none" stroke="midnightblue" d="M1097.69,-391.81C1017.56,-377.05 936.04,-363.8 883.66,-355.51"/>
<polygon fill="midnightblue" stroke="midnightblue" points="1097.49,-395.33 1107.96,-393.71 1098.76,-388.45 1097.49,-395.33"/>
</g>
<!-- Node38 -->
<g id="node38" class="node">
<title>Node38</title>
<g id="a_node38"><a xlink:href="WidomInsertion_8cpp.html" target="_top" xlink:title=" ">
<polygon fill="none" stroke="black" points="911,-336.5 911,-355.5 1025,-355.5 1025,-336.5 911,-336.5"/>
<text text-anchor="middle" x="968" y="-343.5" font-family="Helvetica,sans-Serif" font-size="10.00">WidomInsertion.cpp</text>
</a>
</g>
</g>
<!-- Node4&#45;&gt;Node38 -->
<g id="edge53" class="edge">
<title>Node4&#45;&gt;Node38</title>
<path fill="none" stroke="midnightblue" d="M1105.53,-389.44C1072.53,-379.26 1025.24,-364.66 995.6,-355.52"/>
<polygon fill="midnightblue" stroke="midnightblue" points="1104.68,-392.84 1115.27,-392.44 1106.75,-386.15 1104.68,-392.84"/>
</g>
<!-- Node8 -->
<g id="node8" class="node">
<title>Node8</title>
<g id="a_node8"><a xlink:href="core_2constraints_2ExternalField_8hpp.html" target="_top" xlink:title=" ">
<polygon fill="none" stroke="black" points="963.5,-280.5 963.5,-299.5 1064.5,-299.5 1064.5,-280.5 963.5,-280.5"/>
<text text-anchor="middle" x="1014" y="-287.5" font-family="Helvetica,sans-Serif" font-size="10.00">ExternalField.hpp</text>
</a>
</g>
</g>
<!-- Node7&#45;&gt;Node8 -->
<g id="edge8" class="edge">
<title>Node7&#45;&gt;Node8</title>
<path fill="none" stroke="midnightblue" d="M679.25,-337.8C744.49,-329.09 857.31,-313.86 954,-300 957.02,-299.57 960.13,-299.12 963.27,-298.66"/>
<polygon fill="midnightblue" stroke="midnightblue" points="678.64,-334.35 669.19,-339.14 679.57,-341.29 678.64,-334.35"/>
</g>
<!-- Node9 -->
<g id="node9" class="node">
<title>Node9</title>
<g id="a_node9"><a xlink:href="script__interface_2constraints_2ExternalField_8hpp.html" target="_top" xlink:title=" ">
<polygon fill="none" stroke="black" points="1009.5,-224.5 1009.5,-243.5 1110.5,-243.5 1110.5,-224.5 1009.5,-224.5"/>
<text text-anchor="middle" x="1060" y="-231.5" font-family="Helvetica,sans-Serif" font-size="10.00">ExternalField.hpp</text>
</a>
</g>
</g>
<!-- Node7&#45;&gt;Node9 -->
<g id="edge34" class="edge">
<title>Node7&#45;&gt;Node9</title>
<path fill="none" stroke="midnightblue" d="M679.61,-340.48C797.83,-330.58 1067.44,-307.25 1074,-300 1088.25,-284.25 1074.78,-257.56 1066.08,-243.8"/>
<polygon fill="midnightblue" stroke="midnightblue" points="679,-337.02 669.33,-341.34 679.58,-344 679,-337.02"/>
</g>
<!-- Node11 -->
<g id="node11" class="node">
<title>Node11</title>
<g id="a_node11"><a xlink:href="core_2constraints_2ExternalPotential_8hpp.html" target="_top" xlink:title=" ">
<polygon fill="none" stroke="black" points="51,-280.5 51,-299.5 173,-299.5 173,-280.5 51,-280.5"/>
<text text-anchor="middle" x="112" y="-287.5" font-family="Helvetica,sans-Serif" font-size="10.00">ExternalPotential.hpp</text>
</a>
</g>
</g>
<!-- Node7&#45;&gt;Node11 -->
<g id="edge11" class="edge">
<title>Node7&#45;&gt;Node11</title>
<path fill="none" stroke="midnightblue" d="M570.71,-339.29C474.35,-329.14 274.08,-308.06 173.07,-297.43"/>
<polygon fill="midnightblue" stroke="midnightblue" points="570.51,-342.78 580.82,-340.35 571.24,-335.82 570.51,-342.78"/>
</g>
<!-- Node12 -->
<g id="node12" class="node">
<title>Node12</title>
<g id="a_node12"><a xlink:href="script__interface_2constraints_2ExternalPotential_8hpp.html" target="_top" xlink:title=" ">
<polygon fill="none" stroke="black" points="0,-224.5 0,-243.5 122,-243.5 122,-224.5 0,-224.5"/>
<text text-anchor="middle" x="61" y="-231.5" font-family="Helvetica,sans-Serif" font-size="10.00">ExternalPotential.hpp</text>
</a>
</g>
</g>
<!-- Node7&#45;&gt;Node12 -->
<g id="edge35" class="edge">
<title>Node7&#45;&gt;Node12</title>
<path fill="none" stroke="midnightblue" d="M570.48,-339.51C505.99,-332.53 395.54,-319.05 302,-300 223.44,-284 132.57,-257.18 88.2,-243.53"/>
<polygon fill="midnightblue" stroke="midnightblue" points="570.5,-343.03 580.82,-340.61 571.25,-336.07 570.5,-343.03"/>
</g>
<!-- Node13 -->
<g id="node13" class="node">
<title>Node13</title>
<g id="a_node13"><a xlink:href="core_2constraints_2HomogeneousMagneticField_8hpp.html" target="_top" xlink:title=" ">
<polygon fill="none" stroke="black" points="311,-280.5 311,-299.5 487,-299.5 487,-280.5 311,-280.5"/>
<text text-anchor="middle" x="399" y="-287.5" font-family="Helvetica,sans-Serif" font-size="10.00">HomogeneousMagneticField.hpp</text>
</a>
</g>
</g>
<!-- Node7&#45;&gt;Node13 -->
<g id="edge14" class="edge">
<title>Node7&#45;&gt;Node13</title>
<path fill="none" stroke="midnightblue" d="M579.33,-334.09C536.64,-323.89 473.75,-308.86 434.64,-299.52"/>
<polygon fill="midnightblue" stroke="midnightblue" points="578.65,-337.52 589.19,-336.44 580.28,-330.72 578.65,-337.52"/>
</g>
<!-- Node15 -->
<g id="node15" class="node">
<title>Node15</title>
<g id="a_node15"><a xlink:href="script__interface_2constraints_2HomogeneousMagneticField_8hpp.html" target="_top" xlink:title=" ">
<polygon fill="none" stroke="black" points="334,-224.5 334,-243.5 510,-243.5 510,-224.5 334,-224.5"/>
<text text-anchor="middle" x="422" y="-231.5" font-family="Helvetica,sans-Serif" font-size="10.00">HomogeneousMagneticField.hpp</text>
</a>
</g>
</g>
<!-- Node7&#45;&gt;Node15 -->
<g id="edge36" class="edge">
<title>Node7&#45;&gt;Node15</title>
<path fill="none" stroke="midnightblue" d="M600.25,-331.59C557.99,-308.69 473.07,-262.67 437.86,-243.59"/>
<polygon fill="midnightblue" stroke="midnightblue" points="598.61,-334.68 609.07,-336.37 601.95,-328.53 598.61,-334.68"/>
</g>
<!-- Node16 -->
<g id="node16" class="node">
<title>Node16</title>
<g id="a_node16"><a xlink:href="core_2constraints_2ShapeBasedConstraint_8hpp.html" target="_top" xlink:title=" ">
<polygon fill="none" stroke="black" points="687,-280.5 687,-299.5 835,-299.5 835,-280.5 687,-280.5"/>
<text text-anchor="middle" x="761" y="-287.5" font-family="Helvetica,sans-Serif" font-size="10.00">ShapeBasedConstraint.hpp</text>
</a>
</g>
</g>
<!-- Node7&#45;&gt;Node16 -->
<g id="edge18" class="edge">
<title>Node7&#45;&gt;Node16</title>
<path fill="none" stroke="midnightblue" d="M656.13,-332.64C681.66,-322.5 717.11,-308.43 739.55,-299.52"/>
<polygon fill="midnightblue" stroke="midnightblue" points="654.55,-329.5 646.55,-336.44 657.14,-336.01 654.55,-329.5"/>
</g>
<!-- Node19 -->
<g id="node19" class="node">
<title>Node19</title>
<g id="a_node19"><a xlink:href="script__interface_2constraints_2ShapeBasedConstraint_8hpp.html" target="_top" xlink:title=" ">
<polygon fill="none" stroke="black" points="528,-224.5 528,-243.5 676,-243.5 676,-224.5 528,-224.5"/>
<text text-anchor="middle" x="602" y="-231.5" font-family="Helvetica,sans-Serif" font-size="10.00">ShapeBasedConstraint.hpp</text>
</a>
</g>
</g>
<!-- Node7&#45;&gt;Node19 -->
<g id="edge37" class="edge">
<title>Node7&#45;&gt;Node19</title>
<path fill="none" stroke="midnightblue" d="M600.28,-330.9C589.47,-323.28 577.92,-312.79 572,-300 562.71,-279.92 580.84,-256.34 592.75,-243.83"/>
<polygon fill="midnightblue" stroke="midnightblue" points="598.38,-333.84 608.67,-336.39 602.21,-327.98 598.38,-333.84"/>
</g>
<!-- Node20 -->
<g id="node20" class="node">
<title>Node20</title>
<g id="a_node20"><a xlink:href="constraints_8hpp.html" target="_top" xlink:title=" ">
<polygon fill="none" stroke="black" points="853,-280.5 853,-299.5 945,-299.5 945,-280.5 853,-280.5"/>
<text text-anchor="middle" x="899" y="-287.5" font-family="Helvetica,sans-Serif" font-size="10.00">constraints.hpp</text>
</a>
</g>
</g>
<!-- Node7&#45;&gt;Node20 -->
<g id="edge23" class="edge">
<title>Node7&#45;&gt;Node20</title>
<path fill="none" stroke="midnightblue" d="M678.41,-334.47C730.2,-324.27 807.77,-308.98 855.79,-299.52"/>
<polygon fill="midnightblue" stroke="midnightblue" points="677.55,-331.08 668.42,-336.44 678.9,-337.94 677.55,-331.08"/>
</g>
<!-- Node25 -->
<g id="node25" class="node">
<title>Node25</title>
<g id="a_node25"><a xlink:href="script__interface_2constraints_2Constraint_8hpp.html" target="_top" xlink:title=" ">
<polygon fill="none" stroke="black" points="581,-280.5 581,-299.5 669,-299.5 669,-280.5 581,-280.5"/>
<text text-anchor="middle" x="625" y="-287.5" font-family="Helvetica,sans-Serif" font-size="10.00">Constraint.hpp</text>
</a>
</g>
</g>
<!-- Node7&#45;&gt;Node25 -->
<g id="edge30" class="edge">
<title>Node7&#45;&gt;Node25</title>
<path fill="none" stroke="midnightblue" d="M625,-325.8C625,-316.91 625,-306.78 625,-299.75"/>
<polygon fill="midnightblue" stroke="midnightblue" points="621.5,-326.08 625,-336.08 628.5,-326.08 621.5,-326.08"/>
</g>
<!-- Node8&#45;&gt;Node9 -->
<g id="edge9" class="edge">
<title>Node8&#45;&gt;Node9</title>
<path fill="none" stroke="midnightblue" d="M1028.11,-272.43C1036.18,-262.97 1045.96,-251.48 1052.55,-243.75"/>
<polygon fill="midnightblue" stroke="midnightblue" points="1025.42,-270.2 1021.6,-280.08 1030.75,-274.74 1025.42,-270.2"/>
</g>
<!-- Node10 -->
<g id="node10" class="node">
<title>Node10</title>
<g id="a_node10"><a xlink:href="constraints_2initialize_8cpp.html" target="_top" xlink:title=" ">
<polygon fill="none" stroke="black" points="562.5,-168.5 562.5,-187.5 641.5,-187.5 641.5,-168.5 562.5,-168.5"/>
<text text-anchor="middle" x="602" y="-175.5" font-family="Helvetica,sans-Serif" font-size="10.00">initialize.cpp</text>
</a>
</g>
</g>
<!-- Node9&#45;&gt;Node10 -->
<g id="edge10" class="edge">
<title>Node9&#45;&gt;Node10</title>
<path fill="none" stroke="midnightblue" d="M999.22,-223.81C862.12,-205.8 711.76,-190.06 641.71,-182.96"/>
<polygon fill="midnightblue" stroke="midnightblue" points="999.12,-227.32 1009.49,-225.16 1000.03,-220.38 999.12,-227.32"/>
</g>
<!-- Node11&#45;&gt;Node12 -->
<g id="edge12" class="edge">
<title>Node11&#45;&gt;Node12</title>
<path fill="none" stroke="midnightblue" d="M96.62,-272.72C87.63,-263.2 76.64,-251.56 69.26,-243.75"/>
<polygon fill="midnightblue" stroke="midnightblue" points="94.17,-275.22 103.58,-280.08 99.26,-270.41 94.17,-275.22"/>
</g>
<!-- Node12&#45;&gt;Node10 -->
<g id="edge13" class="edge">
<title>Node12&#45;&gt;Node10</title>
<path fill="none" stroke="midnightblue" d="M132.46,-223.87C298.36,-205.44 482.78,-189.16 562.26,-182.36"/>
<polygon fill="midnightblue" stroke="midnightblue" points="131.62,-220.44 122.07,-225.03 132.4,-227.4 131.62,-220.44"/>
</g>
<!-- Node14 -->
<g id="node14" class="node">
<title>Node14</title>
<g id="a_node14"><a xlink:href="HomogeneousMagneticField_8cpp.html" target="_top" xlink:title=" ">
<polygon fill="none" stroke="black" points="140.5,-224.5 140.5,-243.5 315.5,-243.5 315.5,-224.5 140.5,-224.5"/>
<text text-anchor="middle" x="228" y="-231.5" font-family="Helvetica,sans-Serif" font-size="10.00">HomogeneousMagneticField.cpp</text>
</a>
</g>
</g>
<!-- Node13&#45;&gt;Node14 -->
<g id="edge15" class="edge">
<title>Node13&#45;&gt;Node14</title>
<path fill="none" stroke="midnightblue" d="M361.96,-277.3C329.74,-267.13 283.81,-252.62 254.97,-243.52"/>
<polygon fill="midnightblue" stroke="midnightblue" points="361.31,-280.77 371.9,-280.44 363.42,-274.09 361.31,-280.77"/>
</g>
<!-- Node13&#45;&gt;Node15 -->
<g id="edge16" class="edge">
<title>Node13&#45;&gt;Node15</title>
<path fill="none" stroke="midnightblue" d="M406.8,-270.69C410.68,-261.59 415.18,-251.01 418.27,-243.75"/>
<polygon fill="midnightblue" stroke="midnightblue" points="403.5,-269.51 402.8,-280.08 409.94,-272.25 403.5,-269.51"/>
</g>
<!-- Node15&#45;&gt;Node10 -->
<g id="edge17" class="edge">
<title>Node15&#45;&gt;Node10</title>
<path fill="none" stroke="midnightblue" d="M460.11,-221.57C494.06,-211.38 542.99,-196.7 573.61,-187.52"/>
<polygon fill="midnightblue" stroke="midnightblue" points="459.09,-218.22 450.52,-224.44 461.11,-224.92 459.09,-218.22"/>
</g>
<!-- Node17 -->
<g id="node17" class="node">
<title>Node17</title>
<g id="a_node17"><a xlink:href="ShapeBasedConstraint_8cpp.html" target="_top" xlink:title=" ">
<polygon fill="none" stroke="black" points="1344.5,-224.5 1344.5,-243.5 1491.5,-243.5 1491.5,-224.5 1344.5,-224.5"/>
<text text-anchor="middle" x="1418" y="-231.5" font-family="Helvetica,sans-Serif" font-size="10.00">ShapeBasedConstraint.cpp</text>
</a>
</g>
</g>
<!-- Node16&#45;&gt;Node17 -->
<g id="edge19" class="edge">
<title>Node16&#45;&gt;Node17</title>
<path fill="none" stroke="midnightblue" d="M845.38,-279.9C1063.62,-260.31 1120.39,-263.5 1335,-244 1338.03,-243.72 1341.12,-243.43 1344.25,-243.13"/>
<polygon fill="midnightblue" stroke="midnightblue" points="844.84,-276.44 835.2,-280.82 845.47,-283.41 844.84,-276.44"/>
</g>
<!-- Node18 -->
<g id="node18" class="node">
<title>Node18</title>
<g id="a_node18"><a xlink:href="polymer_8cpp.html" target="_top" xlink:title=" ">
<polygon fill="none" stroke="black" points="805.5,-224.5 805.5,-243.5 882.5,-243.5 882.5,-224.5 805.5,-224.5"/>
<text text-anchor="middle" x="844" y="-231.5" font-family="Helvetica,sans-Serif" font-size="10.00">polymer.cpp</text>
</a>
</g>
</g>
<!-- Node16&#45;&gt;Node18 -->
<g id="edge20" class="edge">
<title>Node16&#45;&gt;Node18</title>
<path fill="none" stroke="midnightblue" d="M783.1,-274.62C798.26,-264.76 817.88,-251.99 830.7,-243.65"/>
<polygon fill="midnightblue" stroke="midnightblue" points="780.81,-271.94 774.34,-280.32 784.63,-277.8 780.81,-271.94"/>
</g>
<!-- Node16&#45;&gt;Node19 -->
<g id="edge21" class="edge">
<title>Node16&#45;&gt;Node19</title>
<path fill="none" stroke="midnightblue" d="M726.17,-277.17C696.23,-267 653.78,-252.59 627.08,-243.52"/>
<polygon fill="midnightblue" stroke="midnightblue" points="725.21,-280.54 735.81,-280.44 727.46,-273.91 725.21,-280.54"/>
</g>
<!-- Node19&#45;&gt;Node10 -->
<g id="edge22" class="edge">
<title>Node19&#45;&gt;Node10</title>
<path fill="none" stroke="midnightblue" d="M602,-213.8C602,-204.91 602,-194.78 602,-187.75"/>
<polygon fill="midnightblue" stroke="midnightblue" points="598.5,-214.08 602,-224.08 605.5,-214.08 598.5,-214.08"/>
</g>
<!-- Node20&#45;&gt;Node18 -->
<g id="edge27" class="edge">
<title>Node20&#45;&gt;Node18</title>
<path fill="none" stroke="midnightblue" d="M882.71,-273C872.96,-263.43 860.95,-251.64 852.91,-243.75"/>
<polygon fill="midnightblue" stroke="midnightblue" points="880.33,-275.57 889.92,-280.08 885.23,-270.58 880.33,-275.57"/>
</g>
<!-- Node21 -->
<g id="node21" class="node">
<title>Node21</title>
<g id="a_node21"><a xlink:href="constraints_8cpp.html" target="_top" xlink:title=" ">
<polygon fill="none" stroke="black" points="900.5,-224.5 900.5,-243.5 991.5,-243.5 991.5,-224.5 900.5,-224.5"/>
<text text-anchor="middle" x="946" y="-231.5" font-family="Helvetica,sans-Serif" font-size="10.00">constraints.cpp</text>
</a>
</g>
</g>
<!-- Node20&#45;&gt;Node21 -->
<g id="edge24" class="edge">
<title>Node20&#45;&gt;Node21</title>
<path fill="none" stroke="midnightblue" d="M913.42,-272.43C921.66,-262.97 931.65,-251.48 938.38,-243.75"/>
<polygon fill="midnightblue" stroke="midnightblue" points="910.69,-270.24 906.76,-280.08 915.97,-274.84 910.69,-270.24"/>
</g>
<!-- Node22 -->
<g id="node22" class="node">
<title>Node22</title>
<g id="a_node22"><a xlink:href="energy_8cpp.html" target="_top" xlink:title=" ">
<polygon fill="none" stroke="black" points="1624.5,-224.5 1624.5,-243.5 1693.5,-243.5 1693.5,-224.5 1624.5,-224.5"/>
<text text-anchor="middle" x="1659" y="-231.5" font-family="Helvetica,sans-Serif" font-size="10.00">energy.cpp</text>
</a>
</g>
</g>
<!-- Node20&#45;&gt;Node22 -->
<g id="edge25" class="edge">
<title>Node20&#45;&gt;Node22</title>
<path fill="none" stroke="midnightblue" d="M955.18,-280.13C1248.84,-249.38 1326.91,-281.12 1615,-244 1618.09,-243.6 1621.29,-243.11 1624.49,-242.56"/>
<polygon fill="midnightblue" stroke="midnightblue" points="954.67,-276.66 945.09,-281.2 955.41,-283.62 954.67,-276.66"/>
</g>
<!-- Node23 -->
<g id="node23" class="node">
<title>Node23</title>
<g id="a_node23"><a xlink:href="forces_8cpp.html" target="_top" xlink:title=" ">
<polygon fill="none" stroke="black" points="1128.5,-224.5 1128.5,-243.5 1195.5,-243.5 1195.5,-224.5 1128.5,-224.5"/>
<text text-anchor="middle" x="1162" y="-231.5" font-family="Helvetica,sans-Serif" font-size="10.00">forces.cpp</text>
</a>
</g>
</g>
<!-- Node20&#45;&gt;Node23 -->
<g id="edge26" class="edge">
<title>Node20&#45;&gt;Node23</title>
<path fill="none" stroke="midnightblue" d="M951.88,-278.39C996.67,-269.37 1062.57,-256 1120,-244 1122.63,-243.45 1125.35,-242.88 1128.08,-242.3"/>
<polygon fill="midnightblue" stroke="midnightblue" points="950.92,-275.01 941.81,-280.42 952.3,-281.88 950.92,-275.01"/>
</g>
<!-- Node24 -->
<g id="node24" class="node">
<title>Node24</title>
<g id="a_node24"><a xlink:href="script__interface_2constraints_2Constraints_8hpp.html" target="_top" xlink:title=" ">
<polygon fill="none" stroke="black" points="694.5,-224.5 694.5,-243.5 787.5,-243.5 787.5,-224.5 694.5,-224.5"/>
<text text-anchor="middle" x="741" y="-231.5" font-family="Helvetica,sans-Serif" font-size="10.00">Constraints.hpp</text>
</a>
</g>
</g>
<!-- Node20&#45;&gt;Node24 -->
<g id="edge28" class="edge">
<title>Node20&#45;&gt;Node24</title>
<path fill="none" stroke="midnightblue" d="M864.39,-277.17C834.64,-267 792.45,-252.59 765.92,-243.52"/>
<polygon fill="midnightblue" stroke="midnightblue" points="863.37,-280.52 873.96,-280.44 865.63,-273.9 863.37,-280.52"/>
</g>
<!-- Node24&#45;&gt;Node10 -->
<g id="edge29" class="edge">
<title>Node24&#45;&gt;Node10</title>
<path fill="none" stroke="midnightblue" d="M709.52,-220.77C683.41,-210.63 646.96,-196.47 623.92,-187.52"/>
<polygon fill="midnightblue" stroke="midnightblue" points="708.39,-224.08 718.98,-224.44 710.92,-217.56 708.39,-224.08"/>
</g>
<!-- Node25&#45;&gt;Node15 -->
<g id="edge32" class="edge">
<title>Node25&#45;&gt;Node15</title>
<path fill="none" stroke="midnightblue" d="M583.01,-277.83C544.68,-267.63 488.85,-252.78 454.02,-243.52"/>
<polygon fill="midnightblue" stroke="midnightblue" points="582.27,-281.26 592.83,-280.44 584.07,-274.49 582.27,-281.26"/>
</g>
<!-- Node25&#45;&gt;Node19 -->
<g id="edge33" class="edge">
<title>Node25&#45;&gt;Node19</title>
<path fill="none" stroke="midnightblue" d="M617.2,-270.69C613.32,-261.59 608.82,-251.01 605.73,-243.75"/>
<polygon fill="midnightblue" stroke="midnightblue" points="614.06,-272.25 621.2,-280.08 620.5,-269.51 614.06,-272.25"/>
</g>
<!-- Node25&#45;&gt;Node24 -->
<g id="edge31" class="edge">
<title>Node25&#45;&gt;Node24</title>
<path fill="none" stroke="midnightblue" d="M652.72,-276.1C674.39,-266.01 703.9,-252.27 722.71,-243.52"/>
<polygon fill="midnightblue" stroke="midnightblue" points="650.97,-273.05 643.38,-280.44 653.92,-279.4 650.97,-273.05"/>
</g>
<!-- Node26&#45;&gt;Node17 -->
<g id="edge39" class="edge">
<title>Node26&#45;&gt;Node17</title>
<path fill="none" stroke="midnightblue" d="M1418,-269.8C1418,-260.91 1418,-250.78 1418,-243.75"/>
<polygon fill="midnightblue" stroke="midnightblue" points="1414.5,-270.08 1418,-280.08 1421.5,-270.08 1414.5,-270.08"/>
</g>
<!-- Node26&#45;&gt;Node22 -->
<g id="edge40" class="edge">
<title>Node26&#45;&gt;Node22</title>
<path fill="none" stroke="midnightblue" d="M1466.07,-278.23C1512.76,-267.77 1582.52,-252.14 1624.12,-242.82"/>
<polygon fill="midnightblue" stroke="midnightblue" points="1465.18,-274.84 1456.19,-280.44 1466.71,-281.67 1465.18,-274.84"/>
</g>
<!-- Node27 -->
<g id="node27" class="node">
<title>Node27</title>
<g id="a_node27"><a xlink:href="core_2pair__criteria_2pair__criteria_8hpp.html" target="_top" xlink:title=" ">
<polygon fill="none" stroke="black" points="1510,-224.5 1510,-243.5 1606,-243.5 1606,-224.5 1510,-224.5"/>
<text text-anchor="middle" x="1558" y="-231.5" font-family="Helvetica,sans-Serif" font-size="10.00">pair_criteria.hpp</text>
</a>
</g>
</g>
<!-- Node26&#45;&gt;Node27 -->
<g id="edge41" class="edge">
<title>Node26&#45;&gt;Node27</title>
<path fill="none" stroke="midnightblue" d="M1449.7,-276.77C1476,-266.63 1512.72,-252.47 1535.92,-243.52"/>
<polygon fill="midnightblue" stroke="midnightblue" points="1448.25,-273.58 1440.18,-280.44 1450.77,-280.11 1448.25,-273.58"/>
</g>
<!-- Node28 -->
<g id="node28" class="node">
<title>Node28</title>
<g id="a_node28"><a xlink:href="script__interface_2pair__criteria_2pair__criteria_8hpp.html" target="_top" xlink:title=" ">
<polygon fill="none" stroke="black" points="1510,-168.5 1510,-187.5 1606,-187.5 1606,-168.5 1510,-168.5"/>
<text text-anchor="middle" x="1558" y="-175.5" font-family="Helvetica,sans-Serif" font-size="10.00">pair_criteria.hpp</text>
</a>
</g>
</g>
<!-- Node27&#45;&gt;Node28 -->
<g id="edge42" class="edge">
<title>Node27&#45;&gt;Node28</title>
<path fill="none" stroke="midnightblue" d="M1558,-213.8C1558,-204.91 1558,-194.78 1558,-187.75"/>
<polygon fill="midnightblue" stroke="midnightblue" points="1554.5,-214.08 1558,-224.08 1561.5,-214.08 1554.5,-214.08"/>
</g>
<!-- Node29 -->
<g id="node29" class="node">
<title>Node29</title>
<g id="a_node29"><a xlink:href="core_2cluster__analysis_2ClusterStructure_8hpp.html" target="_top" xlink:title=" ">
<polygon fill="none" stroke="black" points="1414,-112.5 1414,-131.5 1530,-131.5 1530,-112.5 1414,-112.5"/>
<text text-anchor="middle" x="1472" y="-119.5" font-family="Helvetica,sans-Serif" font-size="10.00">ClusterStructure.hpp</text>
</a>
</g>
</g>
<!-- Node28&#45;&gt;Node29 -->
<g id="edge43" class="edge">
<title>Node28&#45;&gt;Node29</title>
<path fill="none" stroke="midnightblue" d="M1535.55,-162.9C1519.78,-153 1499.19,-140.07 1485.78,-131.65"/>
<polygon fill="midnightblue" stroke="midnightblue" points="1533.85,-165.97 1544.18,-168.32 1537.57,-160.04 1533.85,-165.97"/>
</g>
<!-- Node31 -->
<g id="node31" class="node">
<title>Node31</title>
<g id="a_node31"><a xlink:href="script__interface_2cluster__analysis_2ClusterStructure_8hpp.html" target="_top" xlink:title=" ">
<polygon fill="none" stroke="black" points="1500,-56.5 1500,-75.5 1616,-75.5 1616,-56.5 1500,-56.5"/>
<text text-anchor="middle" x="1558" y="-63.5" font-family="Helvetica,sans-Serif" font-size="10.00">ClusterStructure.hpp</text>
</a>
</g>
</g>
<!-- Node28&#45;&gt;Node31 -->
<g id="edge47" class="edge">
<title>Node28&#45;&gt;Node31</title>
<path fill="none" stroke="midnightblue" d="M1558,-158.35C1558,-134.25 1558,-93.31 1558,-75.59"/>
<polygon fill="midnightblue" stroke="midnightblue" points="1554.5,-158.37 1558,-168.37 1561.5,-158.37 1554.5,-158.37"/>
</g>
<!-- Node33 -->
<g id="node33" class="node">
<title>Node33</title>
<g id="a_node33"><a xlink:href="pair__criteria_2initialize_8cpp.html" target="_top" xlink:title=" ">
<polygon fill="none" stroke="black" points="1586.5,-112.5 1586.5,-131.5 1665.5,-131.5 1665.5,-112.5 1586.5,-112.5"/>
<text text-anchor="middle" x="1626" y="-119.5" font-family="Helvetica,sans-Serif" font-size="10.00">initialize.cpp</text>
</a>
</g>
</g>
<!-- Node28&#45;&gt;Node33 -->
<g id="edge48" class="edge">
<title>Node28&#45;&gt;Node33</title>
<path fill="none" stroke="midnightblue" d="M1576.76,-162.1C1589,-152.38 1604.56,-140.03 1614.88,-131.83"/>
<polygon fill="midnightblue" stroke="midnightblue" points="1574.58,-159.36 1568.93,-168.32 1578.93,-164.85 1574.58,-159.36"/>
</g>
<!-- Node30 -->
<g id="node30" class="node">
<title>Node30</title>
<g id="a_node30"><a xlink:href="ClusterStructure_8cpp.html" target="_top" xlink:title=" ">
<polygon fill="none" stroke="black" points="1366,-56.5 1366,-75.5 1482,-75.5 1482,-56.5 1366,-56.5"/>
<text text-anchor="middle" x="1424" y="-63.5" font-family="Helvetica,sans-Serif" font-size="10.00">ClusterStructure.cpp</text>
</a>
</g>
</g>
<!-- Node29&#45;&gt;Node30 -->
<g id="edge44" class="edge">
<title>Node29&#45;&gt;Node30</title>
<path fill="none" stroke="midnightblue" d="M1457.27,-104.43C1448.86,-94.97 1438.65,-83.48 1431.78,-75.75"/>
<polygon fill="midnightblue" stroke="midnightblue" points="1454.81,-106.93 1464.07,-112.08 1460.05,-102.28 1454.81,-106.93"/>
</g>
<!-- Node29&#45;&gt;Node31 -->
<g id="edge45" class="edge">
<title>Node29&#45;&gt;Node31</title>
<path fill="none" stroke="midnightblue" d="M1494.45,-106.9C1510.22,-97 1530.81,-84.07 1544.22,-75.65"/>
<polygon fill="midnightblue" stroke="midnightblue" points="1492.43,-104.04 1485.82,-112.32 1496.15,-109.97 1492.43,-104.04"/>
</g>
<!-- Node32 -->
<g id="node32" class="node">
<title>Node32</title>
<g id="a_node32"><a xlink:href="cluster__analysis_2initialize_8cpp.html" target="_top" xlink:title=" ">
<polygon fill="none" stroke="black" points="1518.5,-0.5 1518.5,-19.5 1597.5,-19.5 1597.5,-0.5 1518.5,-0.5"/>
<text text-anchor="middle" x="1558" y="-7.5" font-family="Helvetica,sans-Serif" font-size="10.00">initialize.cpp</text>
</a>
</g>
</g>
<!-- Node31&#45;&gt;Node32 -->
<g id="edge46" class="edge">
<title>Node31&#45;&gt;Node32</title>
<path fill="none" stroke="midnightblue" d="M1558,-45.8C1558,-36.91 1558,-26.78 1558,-19.75"/>
<polygon fill="midnightblue" stroke="midnightblue" points="1554.5,-46.08 1558,-56.08 1561.5,-46.08 1554.5,-46.08"/>
</g>
<!-- Node35 -->
<g id="node35" class="node">
<title>Node35</title>
<g id="a_node35"><a xlink:href="ParamlessObservable_8hpp.html" target="_top" xlink:title=" ">
<polygon fill="none" stroke="black" points="1488,-280.5 1488,-299.5 1632,-299.5 1632,-280.5 1488,-280.5"/>
<text text-anchor="middle" x="1560" y="-287.5" font-family="Helvetica,sans-Serif" font-size="10.00">ParamlessObservable.hpp</text>
</a>
</g>
</g>
<!-- Node34&#45;&gt;Node35 -->
<g id="edge50" class="edge">
<title>Node34&#45;&gt;Node35</title>
<path fill="none" stroke="midnightblue" d="M1180.95,-335.89C1294.41,-322.19 1413.64,-308.14 1487.85,-299.44"/>
<polygon fill="midnightblue" stroke="midnightblue" points="1180.21,-332.45 1170.7,-337.13 1181.05,-339.4 1180.21,-332.45"/>
</g>
<!-- Node36 -->
<g id="node36" class="node">
<title>Node36</title>
<g id="a_node36"><a xlink:href="observables_2initialize_8cpp.html" target="_top" xlink:title=" ">
<polygon fill="none" stroke="black" points="1711.5,-224.5 1711.5,-243.5 1790.5,-243.5 1790.5,-224.5 1711.5,-224.5"/>
<text text-anchor="middle" x="1751" y="-231.5" font-family="Helvetica,sans-Serif" font-size="10.00">initialize.cpp</text>
</a>
</g>
</g>
<!-- Node35&#45;&gt;Node36 -->
<g id="edge51" class="edge">
<title>Node35&#45;&gt;Node36</title>
<path fill="none" stroke="midnightblue" d="M1599.97,-277.7C1636.02,-267.51 1688.24,-252.74 1720.88,-243.52"/>
<polygon fill="midnightblue" stroke="midnightblue" points="1598.94,-274.35 1590.26,-280.44 1600.84,-281.09 1598.94,-274.35"/>
</g>
<!-- Node39&#45;&gt;Node3 -->
<g id="edge55" class="edge">
<title>Node39&#45;&gt;Node3</title>
<path fill="none" stroke="midnightblue" d="M1533,-393.73C1472.93,-383.81 1365.46,-366.07 1301.65,-355.53"/>
<polygon fill="midnightblue" stroke="midnightblue" points="1532.49,-397.2 1542.93,-395.37 1533.63,-390.29 1532.49,-397.2"/>
</g>
<!-- Node39&#45;&gt;Node5 -->
<g id="edge56" class="edge">
<title>Node39&#45;&gt;Node5</title>
<path fill="none" stroke="midnightblue" d="M1562.95,-384.14C1555.11,-374.74 1545.67,-363.4 1539.29,-355.75"/>
<polygon fill="midnightblue" stroke="midnightblue" points="1560.48,-386.64 1569.57,-392.08 1565.86,-382.16 1560.48,-386.64"/>
</g>
<!-- Node39&#45;&gt;Node6 -->
<g id="edge57" class="edge">
<title>Node39&#45;&gt;Node6</title>
<path fill="none" stroke="midnightblue" d="M1537.62,-389.57C1502.53,-379.38 1451.98,-364.7 1420.33,-355.52"/>
<polygon fill="midnightblue" stroke="midnightblue" points="1536.95,-393.02 1547.53,-392.44 1538.9,-386.29 1536.95,-393.02"/>
</g>
<!-- Node39&#45;&gt;Node22 -->
<g id="edge58" class="edge">
<title>Node39&#45;&gt;Node22</title>
<path fill="none" stroke="midnightblue" d="M1594.55,-385.21C1602.79,-377.1 1612.26,-366.69 1619,-356 1642.96,-318.01 1654.07,-264.18 1657.65,-243.53"/>
<polygon fill="midnightblue" stroke="midnightblue" points="1592,-382.8 1587.15,-392.22 1596.82,-387.88 1592,-382.8"/>
</g>
<!-- Node40 -->
<g id="node40" class="node">
<title>Node40</title>
<g id="a_node40"><a xlink:href="forces__inline_8hpp.html" target="_top" xlink:title=" ">
<polygon fill="none" stroke="black" points="1234,-280.5 1234,-299.5 1334,-299.5 1334,-280.5 1234,-280.5"/>
<text text-anchor="middle" x="1284" y="-287.5" font-family="Helvetica,sans-Serif" font-size="10.00">forces_inline.hpp</text>
</a>
</g>
</g>
<!-- Node39&#45;&gt;Node40 -->
<g id="edge59" class="edge">
<title>Node39&#45;&gt;Node40</title>
<path fill="none" stroke="midnightblue" d="M1592.3,-384.54C1603.62,-370.35 1615.15,-349.98 1603,-336 1598.62,-330.95 1422.74,-308.33 1334.06,-297.21"/>
<polygon fill="midnightblue" stroke="midnightblue" points="1589.35,-382.61 1585.49,-392.47 1594.66,-387.17 1589.35,-382.61"/>
</g>
<!-- Node43 -->
<g id="node43" class="node">
<title>Node43</title>
<g id="a_node43"><a xlink:href="integrate_8cpp.html" target="_top" xlink:title=" ">
<polygon fill="none" stroke="black" points="1688.5,-336.5 1688.5,-355.5 1769.5,-355.5 1769.5,-336.5 1688.5,-336.5"/>
<text text-anchor="middle" x="1729" y="-343.5" font-family="Helvetica,sans-Serif" font-size="10.00">integrate.cpp</text>
</a>
</g>
</g>
<!-- Node39&#45;&gt;Node43 -->
<g id="edge64" class="edge">
<title>Node39&#45;&gt;Node43</title>
<path fill="none" stroke="midnightblue" d="M1610.67,-389.04C1639.27,-378.88 1679.61,-364.55 1705.03,-355.52"/>
<polygon fill="midnightblue" stroke="midnightblue" points="1609.34,-385.8 1601.08,-392.44 1611.68,-392.39 1609.34,-385.8"/>
</g>
<!-- Node44 -->
<g id="node44" class="node">
<title>Node44</title>
<g id="a_node44"><a xlink:href="VirtualSitesRelative_8cpp.html" target="_top" xlink:title=" ">
<polygon fill="none" stroke="black" points="1788,-336.5 1788,-355.5 1922,-355.5 1922,-336.5 1788,-336.5"/>
<text text-anchor="middle" x="1855" y="-343.5" font-family="Helvetica,sans-Serif" font-size="10.00">VirtualSitesRelative.cpp</text>
</a>
</g>
</g>
<!-- Node39&#45;&gt;Node44 -->
<g id="edge65" class="edge">
<title>Node39&#45;&gt;Node44</title>
<path fill="none" stroke="midnightblue" d="M1621.02,-392.45C1673.02,-382.35 1759.02,-365.64 1811.01,-355.55"/>
<polygon fill="midnightblue" stroke="midnightblue" points="1620.24,-389.04 1611.09,-394.38 1621.57,-395.91 1620.24,-389.04"/>
</g>
<!-- Node40&#45;&gt;Node17 -->
<g id="edge60" class="edge">
<title>Node40&#45;&gt;Node17</title>
<path fill="none" stroke="midnightblue" d="M1314.68,-276.64C1339.82,-266.5 1374.75,-252.43 1396.87,-243.52"/>
<polygon fill="midnightblue" stroke="midnightblue" points="1313.2,-273.46 1305.23,-280.44 1315.82,-279.95 1313.2,-273.46"/>
</g>
<!-- Node40&#45;&gt;Node23 -->
<g id="edge61" class="edge">
<title>Node40&#45;&gt;Node23</title>
<path fill="none" stroke="midnightblue" d="M1255.46,-276.37C1232.61,-266.26 1201.19,-252.35 1181.24,-243.52"/>
<polygon fill="midnightblue" stroke="midnightblue" points="1254.11,-279.6 1264.67,-280.44 1256.94,-273.2 1254.11,-279.6"/>
</g>
<!-- Node41 -->
<g id="node41" class="node">
<title>Node41</title>
<g id="a_node41"><a xlink:href="pressure__inline_8hpp.html" target="_top" xlink:title=" ">
<polygon fill="none" stroke="black" points="1214,-224.5 1214,-243.5 1326,-243.5 1326,-224.5 1214,-224.5"/>
<text text-anchor="middle" x="1270" y="-231.5" font-family="Helvetica,sans-Serif" font-size="10.00">pressure_inline.hpp</text>
</a>
</g>
</g>
<!-- Node40&#45;&gt;Node41 -->
<g id="edge62" class="edge">
<title>Node40&#45;&gt;Node41</title>
<path fill="none" stroke="midnightblue" d="M1279.18,-270.4C1276.83,-261.36 1274.13,-250.94 1272.27,-243.75"/>
<polygon fill="midnightblue" stroke="midnightblue" points="1275.79,-271.28 1281.69,-280.08 1282.57,-269.52 1275.79,-271.28"/>
</g>
<!-- Node42 -->
<g id="node42" class="node">
<title>Node42</title>
<g id="a_node42"><a xlink:href="pressure_8cpp.html" target="_top" xlink:title=" ">
<polygon fill="none" stroke="black" points="1230.5,-168.5 1230.5,-187.5 1309.5,-187.5 1309.5,-168.5 1230.5,-168.5"/>
<text text-anchor="middle" x="1270" y="-175.5" font-family="Helvetica,sans-Serif" font-size="10.00">pressure.cpp</text>
</a>
</g>
</g>
<!-- Node41&#45;&gt;Node42 -->
<g id="edge63" class="edge">
<title>Node41&#45;&gt;Node42</title>
<path fill="none" stroke="midnightblue" d="M1270,-213.8C1270,-204.91 1270,-194.78 1270,-187.75"/>
<polygon fill="midnightblue" stroke="midnightblue" points="1266.5,-214.08 1270,-224.08 1273.5,-214.08 1266.5,-214.08"/>
</g>
</g>
</svg>
        <g id="navigator" transform="translate(0 0)" fill="#404254">
                <rect fill="#f2f5e9" fill-opacity="0.5" stroke="#606060" stroke-width=".5" x="0" y="0" width="60" height="60"/>
                <use id="zoomplus" xlink:href="#zoomPlus" x="17" y="9" onmousedown="handleZoom(evt,'in')"/>
                <use id="zoomminus" xlink:href="#zoomMin" x="42" y="9" onmousedown="handleZoom(evt,'out')"/>
                <use id="reset" xlink:href="#resetDef" x="30" y="36" onmousedown="handleReset()"/>
                <g id="arrowUp" xlink:href="#dirArrow" transform="translate(30 24)" onmousedown="handlePan(0,-1)">
                  <use xlink:href="#rim" fill="#404040">
                        <set attributeName="fill" to="#808080" begin="arrowUp.mouseover" end="arrowUp.mouseout"/>
                  </use>
                  <path fill="none" stroke="white" stroke-width="1.5" d="M0,-3.0v7 M-2.5,-0.5L0,-3.0L2.5,-0.5"/>
                </g>
                <g id="arrowRight" xlink:href="#dirArrow" transform="rotate(90) translate(36 -43)" onmousedown="handlePan(1,0)">
                  <use xlink:href="#rim" fill="#404040">
                        <set attributeName="fill" to="#808080" begin="arrowRight.mouseover" end="arrowRight.mouseout"/>
                  </use>
                  <path fill="none" stroke="white" stroke-width="1.5" d="M0,-3.0v7 M-2.5,-0.5L0,-3.0L2.5,-0.5"/>
                </g>
                <g id="arrowDown" xlink:href="#dirArrow" transform="rotate(180) translate(-30 -48)" onmousedown="handlePan(0,1)">
                  <use xlink:href="#rim" fill="#404040">
                        <set attributeName="fill" to="#808080" begin="arrowDown.mouseover" end="arrowDown.mouseout"/>
                  </use>
                  <path fill="none" stroke="white" stroke-width="1.5" d="M0,-3.0v7 M-2.5,-0.5L0,-3.0L2.5,-0.5"/>
                </g>
                <g id="arrowLeft" xlink:href="#dirArrow" transform="rotate(270) translate(-36 17)" onmousedown="handlePan(-1,0)">
                  <use xlink:href="#rim" fill="#404040">
                        <set attributeName="fill" to="#808080" begin="arrowLeft.mouseover" end="arrowLeft.mouseout"/>
                  </use>
                  <path fill="none" stroke="white" stroke-width="1.5" d="M0,-3.0v7 M-2.5,-0.5L0,-3.0L2.5,-0.5"/>
                </g>
        </g>
        <svg viewBox="0 0 15 15" width="100%" height="30px" preserveAspectRatio="xMaxYMin meet">
         <g id="arrow_out" transform="scale(0.3 0.3)">
          <a xlink:href="ActorList_8hpp__dep__incl_org.svg" target="_base">
           <rect id="button" ry="5" rx="5" y="6" x="6" height="38" width="38"
                fill="#f2f5e9" fill-opacity="0.5" stroke="#606060" stroke-width="1.0"/>
           <path id="arrow"
             d="M 11.500037,31.436501 C 11.940474,20.09759 22.043105,11.32322 32.158766,21.979434 L 37.068811,17.246167 C 37.068811,17.246167 37.088388,32 37.088388,32 L 22.160133,31.978069 C 22.160133,31.978069 26.997745,27.140456 26.997745,27.140456 C 18.528582,18.264221 13.291696,25.230495 11.500037,31.436501 z"
             style="fill:#404040;"/>
          </a>
         </g>
        </svg>
</svg>
