<?xml version="1.0" encoding="UTF-8" standalone="no"?>
<!DOCTYPE svg PUBLIC "-//W3C//DTD SVG 1.1//EN"
 "http://www.w3.org/Graphics/SVG/1.1/DTD/svg11.dtd">
<!-- Generated by graphviz version 2.43.0 (0)
 -->
<!-- Title: angle_cossquare.cpp Pages: 1 -->
<!--zoomable 498 -->
<svg id="main" version="1.1" xmlns="http://www.w3.org/2000/svg" xmlns:xlink="http://www.w3.org/1999/xlink" xml:space="preserve" onload="init(evt)">
<style type="text/css"><![CDATA[
.edge:hover path { stroke: red; }
.edge:hover polygon { stroke: red; fill: red; }
]]></style>
<script type="text/javascript"><![CDATA[
var edges = document.getElementsByTagName('g');
if (edges && edges.length) {
  for (var i=0;i<edges.length;i++) {
    if (edges[i].id.substr(0,4)=='edge') {
      edges[i].setAttribute('class','edge');
    }
  }
}
]]></script>
        <defs>
                <circle id="rim" cx="0" cy="0" r="7"/>
                <circle id="rim2" cx="0" cy="0" r="3.5"/>
                <g id="zoomPlus">
                        <use xlink:href="#rim" fill="#404040">
                                <set attributeName="fill" to="#808080" begin="zoomplus.mouseover" end="zoomplus.mouseout"/>
                        </use>
                        <path d="M-4,0h8M0,-4v8" fill="none" stroke="white" stroke-width="1.5" pointer-events="none"/>
                </g>
                <g id="zoomMin">
                        <use xlink:href="#rim" fill="#404040">
                                <set attributeName="fill" to="#808080" begin="zoomminus.mouseover" end="zoomminus.mouseout"/>
                        </use>
                        <path d="M-4,0h8" fill="none" stroke="white" stroke-width="1.5" pointer-events="none"/>
                </g>
                <g id="dirArrow">
                        <path fill="none" stroke="white" stroke-width="1.5" d="M0,-3.0v7 M-2.5,-0.5L0,-3.0L2.5,-0.5"/>
                </g>
               <g id="resetDef">
                       <use xlink:href="#rim2" fill="#404040">
                               <set attributeName="fill" to="#808080" begin="reset.mouseover" end="reset.mouseout"/>
                       </use>
               </g>
        </defs>

<script type="text/javascript">
var viewWidth = 1351;
var viewHeight = 498;
var sectionId = 'dynsection-0';
</script>
<script xlink:href="svgpan.js"/>
<svg id="graph" class="graph">
<g id="viewport">
<title>angle_cossquare.cpp</title>
<!-- Node1 -->
<g id="node1" class="node">
<title>Node1</title>
<g id="a_node1"><a xlink:title=" ">
<polygon fill="#bfbfbf" stroke="black" points="466.5,-470.5 466.5,-489.5 585.5,-489.5 585.5,-470.5 466.5,-470.5"/>
<text text-anchor="middle" x="526" y="-477.5" font-family="Helvetica,sans-Serif" font-size="10.00">angle_cossquare.cpp</text>
</a>
</g>
</g>
<!-- Node2 -->
<g id="node2" class="node">
<title>Node2</title>
<g id="a_node2"><a xlink:href="angle__cossquare_8hpp.html" target="_top" xlink:title=" ">
<polygon fill="none" stroke="black" points="617.5,-414.5 617.5,-433.5 736.5,-433.5 736.5,-414.5 617.5,-414.5"/>
<text text-anchor="middle" x="677" y="-421.5" font-family="Helvetica,sans-Serif" font-size="10.00">angle_cossquare.hpp</text>
</a>
</g>
</g>
<!-- Node1&#45;&gt;Node2 -->
<g id="edge1" class="edge">
<title>Node1&#45;&gt;Node2</title>
<path fill="none" stroke="midnightblue" d="M549.93,-470.44C575.22,-461.4 615.3,-447.06 643.68,-436.92"/>
<polygon fill="midnightblue" stroke="midnightblue" points="644.95,-440.18 653.19,-433.52 642.59,-433.59 644.95,-440.18"/>
</g>
<!-- Node9 -->
<g id="node9" class="node">
<title>Node9</title>
<g id="a_node9"><a xlink:title=" ">
<polygon fill="none" stroke="#bfbfbf" points="192.5,-123.5 192.5,-142.5 239.5,-142.5 239.5,-123.5 192.5,-123.5"/>
<text text-anchor="middle" x="216" y="-130.5" font-family="Helvetica,sans-Serif" font-size="10.00">cmath</text>
</a>
</g>
</g>
<!-- Node1&#45;&gt;Node9 -->
<g id="edge51" class="edge">
<title>Node1&#45;&gt;Node9</title>
<path fill="none" stroke="midnightblue" d="M492.34,-470.48C448.11,-457.04 376,-426.32 376,-369 376,-369 376,-369 376,-255 376,-216.62 363.88,-204.27 335,-179 310.75,-157.78 275.49,-146.13 249.64,-140.04"/>
<polygon fill="midnightblue" stroke="midnightblue" points="250.07,-136.55 239.55,-137.82 248.57,-143.38 250.07,-136.55"/>
</g>
<!-- Node3 -->
<g id="node3" class="node">
<title>Node3</title>
<g id="a_node3"><a xlink:href="angle__common_8hpp.html" target="_top" xlink:title=" ">
<polygon fill="none" stroke="black" points="620.5,-358.5 620.5,-377.5 733.5,-377.5 733.5,-358.5 620.5,-358.5"/>
<text text-anchor="middle" x="677" y="-365.5" font-family="Helvetica,sans-Serif" font-size="10.00">angle_common.hpp</text>
</a>
</g>
</g>
<!-- Node2&#45;&gt;Node3 -->
<g id="edge2" class="edge">
<title>Node2&#45;&gt;Node3</title>
<path fill="none" stroke="midnightblue" d="M677,-414.08C677,-407.01 677,-396.86 677,-387.99"/>
<polygon fill="midnightblue" stroke="midnightblue" points="680.5,-387.75 677,-377.75 673.5,-387.75 680.5,-387.75"/>
</g>
<!-- Node12 -->
<g id="node12" class="node">
<title>Node12</title>
<g id="a_node12"><a xlink:href="Vector_8hpp.html" target="_top" xlink:title=" ">
<polygon fill="none" stroke="black" points="632.5,-185 632.5,-204 725.5,-204 725.5,-185 632.5,-185"/>
<text text-anchor="middle" x="679" y="-192" font-family="Helvetica,sans-Serif" font-size="10.00">utils/Vector.hpp</text>
</a>
</g>
</g>
<!-- Node2&#45;&gt;Node12 -->
<g id="edge47" class="edge">
<title>Node2&#45;&gt;Node12</title>
<path fill="none" stroke="midnightblue" d="M699.46,-414.38C714.77,-407.18 733.86,-395.29 743,-378 773.53,-320.23 720.66,-244.83 693.54,-211.99"/>
<polygon fill="midnightblue" stroke="midnightblue" points="696.11,-209.6 686.97,-204.24 690.77,-214.13 696.11,-209.6"/>
</g>
<!-- Node20 -->
<g id="node20" class="node">
<title>Node20</title>
<g id="a_node20"><a xlink:title=" ">
<polygon fill="none" stroke="#bfbfbf" points="1284.5,-0.5 1284.5,-19.5 1325.5,-19.5 1325.5,-0.5 1284.5,-0.5"/>
<text text-anchor="middle" x="1305" y="-7.5" font-family="Helvetica,sans-Serif" font-size="10.00">tuple</text>
</a>
</g>
</g>
<!-- Node2&#45;&gt;Node20 -->
<g id="edge50" class="edge">
<title>Node2&#45;&gt;Node20</title>
<path fill="none" stroke="midnightblue" d="M736.69,-419.39C900.16,-408.72 1343,-374.16 1343,-313 1343,-313 1343,-313 1343,-132 1343,-93.81 1325.56,-51.83 1314.31,-28.72"/>
<polygon fill="midnightblue" stroke="midnightblue" points="1317.29,-26.86 1309.66,-19.52 1311.04,-30.02 1317.29,-26.86"/>
</g>
<!-- Node34 -->
<g id="node34" class="node">
<title>Node34</title>
<g id="a_node34"><a xlink:href="sqr_8hpp.html" target="_top" xlink:title=" ">
<polygon fill="none" stroke="black" points="95.5,-358.5 95.5,-377.5 200.5,-377.5 200.5,-358.5 95.5,-358.5"/>
<text text-anchor="middle" x="148" y="-365.5" font-family="Helvetica,sans-Serif" font-size="10.00">utils/math/sqr.hpp</text>
</a>
</g>
</g>
<!-- Node2&#45;&gt;Node34 -->
<g id="edge48" class="edge">
<title>Node2&#45;&gt;Node34</title>
<path fill="none" stroke="midnightblue" d="M617.35,-416.91C516.64,-406.63 313.85,-385.93 210.96,-375.43"/>
<polygon fill="midnightblue" stroke="midnightblue" points="211.02,-371.92 200.72,-374.38 210.31,-378.88 211.02,-371.92"/>
</g>
<!-- Node4 -->
<g id="node4" class="node">
<title>Node4</title>
<g id="a_node4"><a xlink:href="config_8hpp.html" target="_top" xlink:title=" ">
<polygon fill="none" stroke="black" points="189,-302.5 189,-321.5 257,-321.5 257,-302.5 189,-302.5"/>
<text text-anchor="middle" x="223" y="-309.5" font-family="Helvetica,sans-Serif" font-size="10.00">config.hpp</text>
</a>
</g>
</g>
<!-- Node3&#45;&gt;Node4 -->
<g id="edge3" class="edge">
<title>Node3&#45;&gt;Node4</title>
<path fill="none" stroke="midnightblue" d="M620.42,-360.27C528.9,-349.38 350.28,-328.14 267.31,-318.27"/>
<polygon fill="midnightblue" stroke="midnightblue" points="267.55,-314.77 257.21,-317.07 266.72,-321.73 267.55,-314.77"/>
</g>
<!-- Node6 -->
<g id="node6" class="node">
<title>Node6</title>
<g id="a_node6"><a xlink:href="grid_8hpp.html" target="_top" xlink:title=" ">
<polygon fill="none" stroke="black" points="595,-302.5 595,-321.5 651,-321.5 651,-302.5 595,-302.5"/>
<text text-anchor="middle" x="623" y="-309.5" font-family="Helvetica,sans-Serif" font-size="10.00">grid.hpp</text>
</a>
</g>
</g>
<!-- Node3&#45;&gt;Node6 -->
<g id="edge5" class="edge">
<title>Node3&#45;&gt;Node6</title>
<path fill="none" stroke="midnightblue" d="M668.08,-358.08C660.22,-350.22 648.57,-338.57 639.08,-329.08"/>
<polygon fill="midnightblue" stroke="midnightblue" points="641.3,-326.35 631.75,-321.75 636.35,-331.3 641.3,-326.35"/>
</g>
<!-- Node3&#45;&gt;Node12 -->
<g id="edge45" class="edge">
<title>Node3&#45;&gt;Node12</title>
<path fill="none" stroke="midnightblue" d="M679.17,-358.49C683.94,-338.74 694.55,-288.22 690,-246 688.85,-235.36 686.39,-223.66 684.08,-214.21"/>
<polygon fill="midnightblue" stroke="midnightblue" points="687.42,-213.15 681.53,-204.34 680.64,-214.9 687.42,-213.15"/>
</g>
<!-- Node3&#45;&gt;Node20 -->
<g id="edge46" class="edge">
<title>Node3&#45;&gt;Node20</title>
<path fill="none" stroke="midnightblue" d="M733.56,-363.67C887.93,-353.03 1305,-313.39 1305,-195.5 1305,-195.5 1305,-195.5 1305,-132 1305,-95.71 1305,-53.31 1305,-29.56"/>
<polygon fill="midnightblue" stroke="midnightblue" points="1308.5,-29.51 1305,-19.51 1301.5,-29.51 1308.5,-29.51"/>
</g>
<!-- Node5 -->
<g id="node5" class="node">
<title>Node5</title>
<g id="a_node5"><a xlink:title=" ">
<polygon fill="none" stroke="#bfbfbf" points="75,-246.5 75,-265.5 187,-265.5 187,-246.5 75,-246.5"/>
<text text-anchor="middle" x="131" y="-253.5" font-family="Helvetica,sans-Serif" font-size="10.00">config&#45;features.hpp</text>
</a>
</g>
</g>
<!-- Node4&#45;&gt;Node5 -->
<g id="edge4" class="edge">
<title>Node4&#45;&gt;Node5</title>
<path fill="none" stroke="midnightblue" d="M208.22,-302.32C193.73,-293.82 171.43,-280.73 154.51,-270.8"/>
<polygon fill="midnightblue" stroke="midnightblue" points="156.14,-267.7 145.74,-265.65 152.6,-273.74 156.14,-267.7"/>
</g>
<!-- Node7 -->
<g id="node7" class="node">
<title>Node7</title>
<g id="a_node7"><a xlink:href="BoxGeometry_8hpp.html" target="_top" xlink:title=" ">
<polygon fill="none" stroke="black" points="205,-246.5 205,-265.5 309,-265.5 309,-246.5 205,-246.5"/>
<text text-anchor="middle" x="257" y="-253.5" font-family="Helvetica,sans-Serif" font-size="10.00">BoxGeometry.hpp</text>
</a>
</g>
</g>
<!-- Node6&#45;&gt;Node7 -->
<g id="edge6" class="edge">
<title>Node6&#45;&gt;Node7</title>
<path fill="none" stroke="midnightblue" d="M594.89,-306.85C536.22,-298.2 399.52,-278.03 319.13,-266.17"/>
<polygon fill="midnightblue" stroke="midnightblue" points="319.54,-262.69 309.13,-264.69 318.51,-269.61 319.54,-262.69"/>
</g>
<!-- Node6&#45;&gt;Node12 -->
<g id="edge43" class="edge">
<title>Node6&#45;&gt;Node12</title>
<path fill="none" stroke="midnightblue" d="M637.61,-302.31C649.37,-294.44 665.2,-281.69 673,-266 681.02,-249.87 681.82,-229.09 681.04,-214.28"/>
<polygon fill="midnightblue" stroke="midnightblue" points="684.53,-213.97 680.23,-204.29 677.55,-214.54 684.53,-213.97"/>
</g>
<!-- Node32 -->
<g id="node32" class="node">
<title>Node32</title>
<g id="a_node32"><a xlink:href="LocalBox_8hpp.html" target="_top" xlink:title=" ">
<polygon fill="none" stroke="black" points="582,-246.5 582,-265.5 664,-265.5 664,-246.5 582,-246.5"/>
<text text-anchor="middle" x="623" y="-253.5" font-family="Helvetica,sans-Serif" font-size="10.00">LocalBox.hpp</text>
</a>
</g>
</g>
<!-- Node6&#45;&gt;Node32 -->
<g id="edge41" class="edge">
<title>Node6&#45;&gt;Node32</title>
<path fill="none" stroke="midnightblue" d="M623,-302.08C623,-295.01 623,-284.86 623,-275.99"/>
<polygon fill="midnightblue" stroke="midnightblue" points="626.5,-275.75 623,-265.75 619.5,-275.75 626.5,-275.75"/>
</g>
<!-- Node33 -->
<g id="node33" class="node">
<title>Node33</title>
<g id="a_node33"><a xlink:title=" ">
<polygon fill="none" stroke="#bfbfbf" points="404,-246.5 404,-265.5 564,-265.5 564,-246.5 404,-246.5"/>
<text text-anchor="middle" x="484" y="-253.5" font-family="Helvetica,sans-Serif" font-size="10.00">boost/mpi/communicator.hpp</text>
</a>
</g>
</g>
<!-- Node6&#45;&gt;Node33 -->
<g id="edge44" class="edge">
<title>Node6&#45;&gt;Node33</title>
<path fill="none" stroke="midnightblue" d="M600.98,-302.44C577.9,-293.48 541.44,-279.31 515.36,-269.18"/>
<polygon fill="midnightblue" stroke="midnightblue" points="516.51,-265.88 505.92,-265.52 513.98,-272.4 516.51,-265.88"/>
</g>
<!-- Node8 -->
<g id="node8" class="node">
<title>Node8</title>
<g id="a_node8"><a xlink:href="periodic__fold_8hpp.html" target="_top" xlink:title=" ">
<polygon fill="none" stroke="black" points="204,-179.5 204,-209.5 310,-209.5 310,-179.5 204,-179.5"/>
<text text-anchor="start" x="212" y="-197.5" font-family="Helvetica,sans-Serif" font-size="10.00">algorithm/periodic</text>
<text text-anchor="middle" x="257" y="-186.5" font-family="Helvetica,sans-Serif" font-size="10.00">_fold.hpp</text>
</a>
</g>
</g>
<!-- Node7&#45;&gt;Node8 -->
<g id="edge7" class="edge">
<title>Node7&#45;&gt;Node8</title>
<path fill="none" stroke="midnightblue" d="M257,-246.48C257,-239.47 257,-229.19 257,-219.7"/>
<polygon fill="midnightblue" stroke="midnightblue" points="260.5,-219.52 257,-209.52 253.5,-219.52 260.5,-219.52"/>
</g>
<!-- Node7&#45;&gt;Node9 -->
<g id="edge38" class="edge">
<title>Node7&#45;&gt;Node9</title>
<path fill="none" stroke="midnightblue" d="M277.22,-246.49C291.77,-239.17 310.3,-227.06 319,-210 325.26,-197.73 326.54,-190.53 319,-179 310.9,-166.62 276.26,-153.12 249.36,-144.17"/>
<polygon fill="midnightblue" stroke="midnightblue" points="250.1,-140.73 239.5,-140.97 247.94,-147.38 250.1,-140.73"/>
</g>
<!-- Node10 -->
<g id="node10" class="node">
<title>Node10</title>
<g id="a_node10"><a xlink:title=" ">
<polygon fill="none" stroke="#bfbfbf" points="130,-123.5 130,-142.5 174,-142.5 174,-123.5 130,-123.5"/>
<text text-anchor="middle" x="152" y="-130.5" font-family="Helvetica,sans-Serif" font-size="10.00">limits</text>
</a>
</g>
</g>
<!-- Node7&#45;&gt;Node10 -->
<g id="edge39" class="edge">
<title>Node7&#45;&gt;Node10</title>
<path fill="none" stroke="midnightblue" d="M219.71,-246.46C187.06,-238.14 143.25,-224.63 133,-210 120.73,-192.5 130.69,-167.84 140.2,-151.41"/>
<polygon fill="midnightblue" stroke="midnightblue" points="143.25,-153.14 145.58,-142.81 137.32,-149.43 143.25,-153.14"/>
</g>
<!-- Node11 -->
<g id="node11" class="node">
<title>Node11</title>
<g id="a_node11"><a xlink:title=" ">
<polygon fill="none" stroke="#bfbfbf" points="66.5,-123.5 66.5,-142.5 111.5,-142.5 111.5,-123.5 66.5,-123.5"/>
<text text-anchor="middle" x="89" y="-130.5" font-family="Helvetica,sans-Serif" font-size="10.00">utility</text>
</a>
</g>
</g>
<!-- Node7&#45;&gt;Node11 -->
<g id="edge40" class="edge">
<title>Node7&#45;&gt;Node11</title>
<path fill="none" stroke="midnightblue" d="M204.83,-247.76C177.68,-241.65 145.53,-230.45 123,-210 106.23,-194.78 97.25,-169.72 92.81,-152.57"/>
<polygon fill="midnightblue" stroke="midnightblue" points="96.17,-151.58 90.51,-142.62 89.35,-153.15 96.17,-151.58"/>
</g>
<!-- Node7&#45;&gt;Node12 -->
<g id="edge11" class="edge">
<title>Node7&#45;&gt;Node12</title>
<path fill="none" stroke="midnightblue" d="M309.17,-247.64C388.87,-236.41 540.34,-215.05 622.53,-203.46"/>
<polygon fill="midnightblue" stroke="midnightblue" points="623.03,-206.93 632.45,-202.06 622.06,-199.99 623.03,-206.93"/>
</g>
<!-- Node17 -->
<g id="node17" class="node">
<title>Node17</title>
<g id="a_node17"><a xlink:title=" ">
<polygon fill="none" stroke="#bfbfbf" points="285,-0.5 285,-19.5 337,-19.5 337,-0.5 285,-0.5"/>
<text text-anchor="middle" x="311" y="-7.5" font-family="Helvetica,sans-Serif" font-size="10.00">cassert</text>
</a>
</g>
</g>
<!-- Node7&#45;&gt;Node17 -->
<g id="edge37" class="edge">
<title>Node7&#45;&gt;Node17</title>
<path fill="none" stroke="midnightblue" d="M214.33,-246.46C174.05,-237.77 117.19,-223.66 99,-210 64.67,-184.22 33.55,-158.97 57,-123 105.69,-48.32 216.64,-23.09 274.45,-14.83"/>
<polygon fill="midnightblue" stroke="midnightblue" points="275.15,-18.27 284.6,-13.48 274.22,-11.33 275.15,-18.27"/>
</g>
<!-- Node31 -->
<g id="node31" class="node">
<title>Node31</title>
<g id="a_node31"><a xlink:title=" ">
<polygon fill="none" stroke="#bfbfbf" points="142,-185 142,-204 186,-204 186,-185 142,-185"/>
<text text-anchor="middle" x="164" y="-192" font-family="Helvetica,sans-Serif" font-size="10.00">bitset</text>
</a>
</g>
</g>
<!-- Node7&#45;&gt;Node31 -->
<g id="edge36" class="edge">
<title>Node7&#45;&gt;Node31</title>
<path fill="none" stroke="midnightblue" d="M243.68,-246.48C228.62,-236.84 203.88,-221.02 185.96,-209.55"/>
<polygon fill="midnightblue" stroke="midnightblue" points="187.61,-206.45 177.3,-204.01 183.84,-212.35 187.61,-206.45"/>
</g>
<!-- Node8&#45;&gt;Node9 -->
<g id="edge8" class="edge">
<title>Node8&#45;&gt;Node9</title>
<path fill="none" stroke="midnightblue" d="M247.28,-179.4C241.45,-170.93 233.98,-160.1 227.81,-151.14"/>
<polygon fill="midnightblue" stroke="midnightblue" points="230.52,-148.91 221.97,-142.66 224.76,-152.88 230.52,-148.91"/>
</g>
<!-- Node8&#45;&gt;Node10 -->
<g id="edge9" class="edge">
<title>Node8&#45;&gt;Node10</title>
<path fill="none" stroke="midnightblue" d="M232.12,-179.4C215.29,-169.86 193.16,-157.32 176.43,-147.84"/>
<polygon fill="midnightblue" stroke="midnightblue" points="177.7,-144.54 167.28,-142.66 174.25,-150.63 177.7,-144.54"/>
</g>
<!-- Node8&#45;&gt;Node11 -->
<g id="edge10" class="edge">
<title>Node8&#45;&gt;Node11</title>
<path fill="none" stroke="midnightblue" d="M217.19,-179.4C187.8,-168.99 148.34,-155.02 120.99,-145.33"/>
<polygon fill="midnightblue" stroke="midnightblue" points="122.1,-142.01 111.51,-141.97 119.77,-148.61 122.1,-142.01"/>
</g>
<!-- Node12&#45;&gt;Node9 -->
<g id="edge28" class="edge">
<title>Node12&#45;&gt;Node9</title>
<path fill="none" stroke="midnightblue" d="M632.21,-189.7C553.65,-182.93 390.45,-167.18 254,-143 252.54,-142.74 251.05,-142.46 249.55,-142.16"/>
<polygon fill="midnightblue" stroke="midnightblue" points="250.14,-138.71 239.63,-140.04 248.67,-145.56 250.14,-138.71"/>
</g>
<!-- Node13 -->
<g id="node13" class="node">
<title>Node13</title>
<g id="a_node13"><a xlink:title=" ">
<polygon fill="none" stroke="#bfbfbf" points="707,-123.5 707,-142.5 857,-142.5 857,-123.5 707,-123.5"/>
<text text-anchor="middle" x="782" y="-130.5" font-family="Helvetica,sans-Serif" font-size="10.00">boost/qvm/deduce_vec.hpp</text>
</a>
</g>
</g>
<!-- Node12&#45;&gt;Node13 -->
<g id="edge12" class="edge">
<title>Node12&#45;&gt;Node13</title>
<path fill="none" stroke="midnightblue" d="M693.76,-184.98C710.66,-175.21 738.58,-159.08 758.49,-147.58"/>
<polygon fill="midnightblue" stroke="midnightblue" points="760.36,-150.54 767.27,-142.51 756.86,-144.48 760.36,-150.54"/>
</g>
<!-- Node14 -->
<g id="node14" class="node">
<title>Node14</title>
<g id="a_node14"><a xlink:title=" ">
<polygon fill="none" stroke="#bfbfbf" points="875,-123.5 875,-142.5 1015,-142.5 1015,-123.5 875,-123.5"/>
<text text-anchor="middle" x="945" y="-130.5" font-family="Helvetica,sans-Serif" font-size="10.00">boost/qvm/vec_traits.hpp</text>
</a>
</g>
</g>
<!-- Node12&#45;&gt;Node14 -->
<g id="edge13" class="edge">
<title>Node12&#45;&gt;Node14</title>
<path fill="none" stroke="midnightblue" d="M717.11,-184.98C764.52,-174.37 845.48,-156.26 897.06,-144.72"/>
<polygon fill="midnightblue" stroke="midnightblue" points="897.96,-148.11 906.96,-142.51 896.44,-141.28 897.96,-148.11"/>
</g>
<!-- Node15 -->
<g id="node15" class="node">
<title>Node15</title>
<g id="a_node15"><a xlink:href="Array_8hpp.html" target="_top" xlink:title=" ">
<polygon fill="none" stroke="black" points="1071,-123.5 1071,-142.5 1157,-142.5 1157,-123.5 1071,-123.5"/>
<text text-anchor="middle" x="1114" y="-130.5" font-family="Helvetica,sans-Serif" font-size="10.00">utils/Array.hpp</text>
</a>
</g>
</g>
<!-- Node12&#45;&gt;Node15 -->
<g id="edge14" class="edge">
<title>Node12&#45;&gt;Node15</title>
<path fill="none" stroke="midnightblue" d="M725.6,-187.64C797.01,-178.57 937.76,-160.38 1057,-143 1058.25,-142.82 1059.52,-142.63 1060.81,-142.44"/>
<polygon fill="midnightblue" stroke="midnightblue" points="1061.39,-145.89 1070.76,-140.94 1060.35,-138.97 1061.39,-145.89"/>
</g>
<!-- Node12&#45;&gt;Node17 -->
<g id="edge27" class="edge">
<title>Node12&#45;&gt;Node17</title>
<path fill="none" stroke="midnightblue" d="M632.49,-190.85C533.82,-184.77 310.68,-168.34 288,-143 259.27,-110.91 284.14,-56.18 300.09,-28.35"/>
<polygon fill="midnightblue" stroke="midnightblue" points="303.13,-30.09 305.26,-19.71 297.13,-26.5 303.13,-30.09"/>
</g>
<!-- Node19 -->
<g id="node19" class="node">
<title>Node19</title>
<g id="a_node19"><a xlink:title=" ">
<polygon fill="none" stroke="#bfbfbf" points="1097.5,-0.5 1097.5,-19.5 1150.5,-19.5 1150.5,-0.5 1097.5,-0.5"/>
<text text-anchor="middle" x="1124" y="-7.5" font-family="Helvetica,sans-Serif" font-size="10.00">cstddef</text>
</a>
</g>
</g>
<!-- Node12&#45;&gt;Node19 -->
<g id="edge29" class="edge">
<title>Node12&#45;&gt;Node19</title>
<path fill="none" stroke="midnightblue" d="M725.78,-193.85C810.94,-193.39 986,-186.97 1024,-143 1029.81,-136.27 1029.71,-129.81 1024,-123 965.45,-53.09 880.55,-156.91 822,-87 813.15,-76.44 813,-66.44 822,-56 855.81,-16.77 1013.94,-11.21 1086.92,-10.78"/>
<polygon fill="midnightblue" stroke="midnightblue" points="1087.05,-14.28 1097.04,-10.75 1087.03,-7.28 1087.05,-14.28"/>
</g>
<!-- Node22 -->
<g id="node22" class="node">
<title>Node22</title>
<g id="a_node22"><a xlink:title=" ">
<polygon fill="none" stroke="#bfbfbf" points="1223.5,-62 1223.5,-81 1276.5,-81 1276.5,-62 1223.5,-62"/>
<text text-anchor="middle" x="1250" y="-69" font-family="Helvetica,sans-Serif" font-size="10.00">iterator</text>
</a>
</g>
</g>
<!-- Node12&#45;&gt;Node22 -->
<g id="edge32" class="edge">
<title>Node12&#45;&gt;Node22</title>
<path fill="none" stroke="midnightblue" d="M725.89,-192.12C831.98,-188.45 1087.34,-176.33 1166,-143 1194.36,-130.98 1220.43,-105.99 1235.77,-89.23"/>
<polygon fill="midnightblue" stroke="midnightblue" points="1238.76,-91.13 1242.77,-81.33 1233.52,-86.49 1238.76,-91.13"/>
</g>
<!-- Node25 -->
<g id="node25" class="node">
<title>Node25</title>
<g id="a_node25"><a xlink:title=" ">
<polygon fill="none" stroke="#bfbfbf" points="1213,-123.5 1213,-142.5 1277,-142.5 1277,-123.5 1213,-123.5"/>
<text text-anchor="middle" x="1245" y="-130.5" font-family="Helvetica,sans-Serif" font-size="10.00">algorithm</text>
</a>
</g>
</g>
<!-- Node12&#45;&gt;Node25 -->
<g id="edge26" class="edge">
<title>Node12&#45;&gt;Node25</title>
<path fill="none" stroke="midnightblue" d="M725.8,-190.47C817.11,-184.24 1025.33,-168.36 1199,-143 1200.27,-142.81 1201.55,-142.62 1202.85,-142.41"/>
<polygon fill="midnightblue" stroke="midnightblue" points="1203.63,-145.83 1212.9,-140.69 1202.45,-138.93 1203.63,-145.83"/>
</g>
<!-- Node26 -->
<g id="node26" class="node">
<title>Node26</title>
<g id="a_node26"><a xlink:title=" ">
<polygon fill="none" stroke="#bfbfbf" points="296.5,-123.5 296.5,-142.5 361.5,-142.5 361.5,-123.5 296.5,-123.5"/>
<text text-anchor="middle" x="329" y="-130.5" font-family="Helvetica,sans-Serif" font-size="10.00">functional</text>
</a>
</g>
</g>
<!-- Node12&#45;&gt;Node26 -->
<g id="edge30" class="edge">
<title>Node12&#45;&gt;Node26</title>
<path fill="none" stroke="midnightblue" d="M632.44,-186.59C573.96,-177.74 470.33,-161.55 371.39,-142.99"/>
<polygon fill="midnightblue" stroke="midnightblue" points="372,-139.55 361.53,-141.13 370.71,-146.43 372,-139.55"/>
</g>
<!-- Node27 -->
<g id="node27" class="node">
<title>Node27</title>
<g id="a_node27"><a xlink:title=" ">
<polygon fill="none" stroke="#bfbfbf" points="379.5,-123.5 379.5,-142.5 462.5,-142.5 462.5,-123.5 379.5,-123.5"/>
<text text-anchor="middle" x="421" y="-130.5" font-family="Helvetica,sans-Serif" font-size="10.00">initializer_list</text>
</a>
</g>
</g>
<!-- Node12&#45;&gt;Node27 -->
<g id="edge31" class="edge">
<title>Node12&#45;&gt;Node27</title>
<path fill="none" stroke="midnightblue" d="M642.03,-184.98C596.15,-174.39 517.85,-156.34 467.82,-144.8"/>
<polygon fill="midnightblue" stroke="midnightblue" points="468.43,-141.35 457.9,-142.51 466.85,-148.17 468.43,-141.35"/>
</g>
<!-- Node28 -->
<g id="node28" class="node">
<title>Node28</title>
<g id="a_node28"><a xlink:title=" ">
<polygon fill="none" stroke="#bfbfbf" points="481,-123.5 481,-142.5 537,-142.5 537,-123.5 481,-123.5"/>
<text text-anchor="middle" x="509" y="-130.5" font-family="Helvetica,sans-Serif" font-size="10.00">numeric</text>
</a>
</g>
</g>
<!-- Node12&#45;&gt;Node28 -->
<g id="edge33" class="edge">
<title>Node12&#45;&gt;Node28</title>
<path fill="none" stroke="midnightblue" d="M654.64,-184.98C625.36,-174.72 576.03,-157.46 543,-145.9"/>
<polygon fill="midnightblue" stroke="midnightblue" points="543.91,-142.51 533.31,-142.51 541.59,-149.12 543.91,-142.51"/>
</g>
<!-- Node29 -->
<g id="node29" class="node">
<title>Node29</title>
<g id="a_node29"><a xlink:title=" ">
<polygon fill="none" stroke="#bfbfbf" points="555.5,-123.5 555.5,-142.5 624.5,-142.5 624.5,-123.5 555.5,-123.5"/>
<text text-anchor="middle" x="590" y="-130.5" font-family="Helvetica,sans-Serif" font-size="10.00">type_traits</text>
</a>
</g>
</g>
<!-- Node12&#45;&gt;Node29 -->
<g id="edge34" class="edge">
<title>Node12&#45;&gt;Node29</title>
<path fill="none" stroke="midnightblue" d="M666.25,-184.98C651.97,-175.43 628.6,-159.81 611.49,-148.37"/>
<polygon fill="midnightblue" stroke="midnightblue" points="612.99,-145.16 602.73,-142.51 609.1,-150.98 612.99,-145.16"/>
</g>
<!-- Node30 -->
<g id="node30" class="node">
<title>Node30</title>
<g id="a_node30"><a xlink:title=" ">
<polygon fill="none" stroke="#bfbfbf" points="642.5,-123.5 642.5,-142.5 689.5,-142.5 689.5,-123.5 642.5,-123.5"/>
<text text-anchor="middle" x="666" y="-130.5" font-family="Helvetica,sans-Serif" font-size="10.00">vector</text>
</a>
</g>
</g>
<!-- Node12&#45;&gt;Node30 -->
<g id="edge35" class="edge">
<title>Node12&#45;&gt;Node30</title>
<path fill="none" stroke="midnightblue" d="M677.14,-184.98C675.28,-176.49 672.38,-163.2 670,-152.32"/>
<polygon fill="midnightblue" stroke="midnightblue" points="673.41,-151.53 667.86,-142.51 666.57,-153.03 673.41,-151.53"/>
</g>
<!-- Node16 -->
<g id="node16" class="node">
<title>Node16</title>
<g id="a_node16"><a xlink:href="device__qualifier_8hpp.html" target="_top" xlink:title=" ">
<polygon fill="none" stroke="black" points="296,-62 296,-81 412,-81 412,-62 296,-62"/>
<text text-anchor="middle" x="354" y="-69" font-family="Helvetica,sans-Serif" font-size="10.00">device_qualifier.hpp</text>
</a>
</g>
</g>
<!-- Node15&#45;&gt;Node16 -->
<g id="edge15" class="edge">
<title>Node15&#45;&gt;Node16</title>
<path fill="none" stroke="midnightblue" d="M1070.99,-127.48C1056.11,-125.98 1039.33,-124.34 1024,-123 804.38,-103.75 543.87,-85.4 422.54,-77.11"/>
<polygon fill="midnightblue" stroke="midnightblue" points="422.51,-73.6 412.29,-76.41 422.03,-80.58 422.51,-73.6"/>
</g>
<!-- Node15&#45;&gt;Node17 -->
<g id="edge21" class="edge">
<title>Node15&#45;&gt;Node17</title>
<path fill="none" stroke="midnightblue" d="M1070.83,-125.49C928.89,-104.11 478.29,-36.21 347.14,-16.45"/>
<polygon fill="midnightblue" stroke="midnightblue" points="347.61,-12.98 337.2,-14.95 346.56,-19.9 347.61,-12.98"/>
</g>
<!-- Node18 -->
<g id="node18" class="node">
<title>Node18</title>
<g id="a_node18"><a xlink:href="get_8hpp.html" target="_top" xlink:title=" ">
<polygon fill="none" stroke="black" points="1152.5,-62 1152.5,-81 1205.5,-81 1205.5,-62 1152.5,-62"/>
<text text-anchor="middle" x="1179" y="-69" font-family="Helvetica,sans-Serif" font-size="10.00">get.hpp</text>
</a>
</g>
</g>
<!-- Node15&#45;&gt;Node18 -->
<g id="edge17" class="edge">
<title>Node15&#45;&gt;Node18</title>
<path fill="none" stroke="midnightblue" d="M1123.31,-123.48C1133.45,-114.2 1149.86,-99.17 1162.25,-87.83"/>
<polygon fill="midnightblue" stroke="midnightblue" points="1164.69,-90.34 1169.7,-81.01 1159.96,-85.18 1164.69,-90.34"/>
</g>
<!-- Node15&#45;&gt;Node19 -->
<g id="edge22" class="edge">
<title>Node15&#45;&gt;Node19</title>
<path fill="none" stroke="midnightblue" d="M1114.72,-123.3C1116.33,-103.85 1120.24,-56.49 1122.44,-29.9"/>
<polygon fill="midnightblue" stroke="midnightblue" points="1125.95,-29.88 1123.29,-19.62 1118.98,-29.3 1125.95,-29.88"/>
</g>
<!-- Node21 -->
<g id="node21" class="node">
<title>Node21</title>
<g id="a_node21"><a xlink:title=" ">
<polygon fill="none" stroke="#bfbfbf" points="830.5,-56.5 830.5,-86.5 937.5,-86.5 937.5,-56.5 830.5,-56.5"/>
<text text-anchor="start" x="838.5" y="-74.5" font-family="Helvetica,sans-Serif" font-size="10.00">boost/serialization</text>
<text text-anchor="middle" x="884" y="-63.5" font-family="Helvetica,sans-Serif" font-size="10.00">/access.hpp</text>
</a>
</g>
</g>
<!-- Node15&#45;&gt;Node21 -->
<g id="edge20" class="edge">
<title>Node15&#45;&gt;Node21</title>
<path fill="none" stroke="midnightblue" d="M1081.05,-123.48C1046.36,-114.5 990.9,-100.15 947.64,-88.96"/>
<polygon fill="midnightblue" stroke="midnightblue" points="948.32,-85.52 937.76,-86.41 946.57,-92.3 948.32,-85.52"/>
</g>
<!-- Node15&#45;&gt;Node22 -->
<g id="edge23" class="edge">
<title>Node15&#45;&gt;Node22</title>
<path fill="none" stroke="midnightblue" d="M1133.49,-123.48C1156.41,-113.45 1194.69,-96.7 1221.08,-85.15"/>
<polygon fill="midnightblue" stroke="midnightblue" points="1222.79,-88.22 1230.55,-81.01 1219.99,-81.81 1222.79,-88.22"/>
</g>
<!-- Node23 -->
<g id="node23" class="node">
<title>Node23</title>
<g id="a_node23"><a xlink:title=" ">
<polygon fill="none" stroke="#bfbfbf" points="955.5,-62 955.5,-81 1012.5,-81 1012.5,-62 955.5,-62"/>
<text text-anchor="middle" x="984" y="-69" font-family="Helvetica,sans-Serif" font-size="10.00">ostream</text>
</a>
</g>
</g>
<!-- Node15&#45;&gt;Node23 -->
<g id="edge24" class="edge">
<title>Node15&#45;&gt;Node23</title>
<path fill="none" stroke="midnightblue" d="M1095.37,-123.48C1073.56,-113.49 1037.2,-96.85 1011.98,-85.31"/>
<polygon fill="midnightblue" stroke="midnightblue" points="1013.14,-81.99 1002.59,-81.01 1010.23,-88.35 1013.14,-81.99"/>
</g>
<!-- Node24 -->
<g id="node24" class="node">
<title>Node24</title>
<g id="a_node24"><a xlink:title=" ">
<polygon fill="none" stroke="#bfbfbf" points="1030.5,-62 1030.5,-81 1095.5,-81 1095.5,-62 1030.5,-62"/>
<text text-anchor="middle" x="1063" y="-69" font-family="Helvetica,sans-Serif" font-size="10.00">stdexcept</text>
</a>
</g>
</g>
<!-- Node15&#45;&gt;Node24 -->
<g id="edge25" class="edge">
<title>Node15&#45;&gt;Node24</title>
<path fill="none" stroke="midnightblue" d="M1106.69,-123.48C1098.97,-114.46 1086.59,-100.02 1076.98,-88.81"/>
<polygon fill="midnightblue" stroke="midnightblue" points="1079.46,-86.32 1070.29,-81.01 1074.14,-90.88 1079.46,-86.32"/>
</g>
<!-- Node16&#45;&gt;Node17 -->
<g id="edge16" class="edge">
<title>Node16&#45;&gt;Node17</title>
<path fill="none" stroke="midnightblue" d="M347.84,-61.98C341.39,-53.05 331.1,-38.81 323.03,-27.64"/>
<polygon fill="midnightblue" stroke="midnightblue" points="325.84,-25.56 317.15,-19.51 320.17,-29.66 325.84,-25.56"/>
</g>
<!-- Node18&#45;&gt;Node19 -->
<g id="edge18" class="edge">
<title>Node18&#45;&gt;Node19</title>
<path fill="none" stroke="midnightblue" d="M1171.12,-61.98C1162.71,-52.87 1149.18,-38.24 1138.77,-26.98"/>
<polygon fill="midnightblue" stroke="midnightblue" points="1141.22,-24.48 1131.87,-19.51 1136.08,-29.23 1141.22,-24.48"/>
</g>
<!-- Node18&#45;&gt;Node20 -->
<g id="edge19" class="edge">
<title>Node18&#45;&gt;Node20</title>
<path fill="none" stroke="midnightblue" d="M1197.05,-61.98C1218.2,-51.99 1253.44,-35.35 1277.88,-23.81"/>
<polygon fill="midnightblue" stroke="midnightblue" points="1279.43,-26.94 1286.98,-19.51 1276.44,-20.61 1279.43,-26.94"/>
</g>
<!-- Node32&#45;&gt;Node12 -->
<g id="edge42" class="edge">
<title>Node32&#45;&gt;Node12</title>
<path fill="none" stroke="midnightblue" d="M631.02,-246.48C639.59,-237.37 653.36,-222.74 663.96,-211.48"/>
<polygon fill="midnightblue" stroke="midnightblue" points="666.69,-213.69 670.99,-204.01 661.59,-208.89 666.69,-213.69"/>
</g>
<!-- Node34&#45;&gt;Node16 -->
<g id="edge49" class="edge">
<title>Node34&#45;&gt;Node16</title>
<path fill="none" stroke="midnightblue" d="M115.15,-358.46C71.55,-344.91 0,-313.99 0,-257 0,-257 0,-257 0,-193.5 0,-153.21 22.23,-143.36 57,-123 94.77,-100.89 210.11,-86.1 285.44,-78.51"/>
<polygon fill="midnightblue" stroke="midnightblue" points="286.19,-81.96 295.8,-77.49 285.5,-74.99 286.19,-81.96"/>
</g>
</g>
</svg>
        <g id="navigator" transform="translate(0 0)" fill="#404254">
                <rect fill="#f2f5e9" fill-opacity="0.5" stroke="#606060" stroke-width=".5" x="0" y="0" width="60" height="60"/>
                <use id="zoomplus" xlink:href="#zoomPlus" x="17" y="9" onmousedown="handleZoom(evt,'in')"/>
                <use id="zoomminus" xlink:href="#zoomMin" x="42" y="9" onmousedown="handleZoom(evt,'out')"/>
                <use id="reset" xlink:href="#resetDef" x="30" y="36" onmousedown="handleReset()"/>
                <g id="arrowUp" xlink:href="#dirArrow" transform="translate(30 24)" onmousedown="handlePan(0,-1)">
                  <use xlink:href="#rim" fill="#404040">
                        <set attributeName="fill" to="#808080" begin="arrowUp.mouseover" end="arrowUp.mouseout"/>
                  </use>
                  <path fill="none" stroke="white" stroke-width="1.5" d="M0,-3.0v7 M-2.5,-0.5L0,-3.0L2.5,-0.5"/>
                </g>
                <g id="arrowRight" xlink:href="#dirArrow" transform="rotate(90) translate(36 -43)" onmousedown="handlePan(1,0)">
                  <use xlink:href="#rim" fill="#404040">
                        <set attributeName="fill" to="#808080" begin="arrowRight.mouseover" end="arrowRight.mouseout"/>
                  </use>
                  <path fill="none" stroke="white" stroke-width="1.5" d="M0,-3.0v7 M-2.5,-0.5L0,-3.0L2.5,-0.5"/>
                </g>
                <g id="arrowDown" xlink:href="#dirArrow" transform="rotate(180) translate(-30 -48)" onmousedown="handlePan(0,1)">
                  <use xlink:href="#rim" fill="#404040">
                        <set attributeName="fill" to="#808080" begin="arrowDown.mouseover" end="arrowDown.mouseout"/>
                  </use>
                  <path fill="none" stroke="white" stroke-width="1.5" d="M0,-3.0v7 M-2.5,-0.5L0,-3.0L2.5,-0.5"/>
                </g>
                <g id="arrowLeft" xlink:href="#dirArrow" transform="rotate(270) translate(-36 17)" onmousedown="handlePan(-1,0)">
                  <use xlink:href="#rim" fill="#404040">
                        <set attributeName="fill" to="#808080" begin="arrowLeft.mouseover" end="arrowLeft.mouseout"/>
                  </use>
                  <path fill="none" stroke="white" stroke-width="1.5" d="M0,-3.0v7 M-2.5,-0.5L0,-3.0L2.5,-0.5"/>
                </g>
        </g>
        <svg viewBox="0 0 15 15" width="100%" height="30px" preserveAspectRatio="xMaxYMin meet">
         <g id="arrow_out" transform="scale(0.3 0.3)">
          <a xlink:href="angle__cossquare_8cpp__incl_org.svg" target="_base">
           <rect id="button" ry="5" rx="5" y="6" x="6" height="38" width="38"
                fill="#f2f5e9" fill-opacity="0.5" stroke="#606060" stroke-width="1.0"/>
           <path id="arrow"
             d="M 11.500037,31.436501 C 11.940474,20.09759 22.043105,11.32322 32.158766,21.979434 L 37.068811,17.246167 C 37.068811,17.246167 37.088388,32 37.088388,32 L 22.160133,31.978069 C 22.160133,31.978069 26.997745,27.140456 26.997745,27.140456 C 18.528582,18.264221 13.291696,25.230495 11.500037,31.436501 z"
             style="fill:#404040;"/>
          </a>
         </g>
        </svg>
</svg>
