<?xml version="1.0" encoding="UTF-8" standalone="no"?>
<!DOCTYPE svg PUBLIC "-//W3C//DTD SVG 1.1//EN"
 "http://www.w3.org/Graphics/SVG/1.1/DTD/svg11.dtd">
<!-- Generated by graphviz version 2.43.0 (0)
 -->
<!-- Title: angle_common.hpp Pages: 1 -->
<svg width="2429pt" height="610pt"
 viewBox="0.00 0.00 2428.50 610.00" xmlns="http://www.w3.org/2000/svg" xmlns:xlink="http://www.w3.org/1999/xlink">
<g id="graph0" class="graph" transform="scale(1 1) rotate(0) translate(4 606)">
<title>angle_common.hpp</title>
<!-- Node1 -->
<g id="node1" class="node">
<title>Node1</title>
<g id="a_node1"><a xlink:title=" ">
<polygon fill="#bfbfbf" stroke="black" points="1268.5,-582.5 1268.5,-601.5 1381.5,-601.5 1381.5,-582.5 1268.5,-582.5"/>
<text text-anchor="middle" x="1325" y="-589.5" font-family="Helvetica,sans-Serif" font-size="10.00">angle_common.hpp</text>
</a>
</g>
</g>
<!-- Node2 -->
<g id="node2" class="node">
<title>Node2</title>
<g id="a_node2"><a xlink:href="angle__cosine_8hpp.html" target="_top" xlink:title=" ">
<polygon fill="none" stroke="black" points="1058.5,-526.5 1058.5,-545.5 1159.5,-545.5 1159.5,-526.5 1058.5,-526.5"/>
<text text-anchor="middle" x="1109" y="-533.5" font-family="Helvetica,sans-Serif" font-size="10.00">angle_cosine.hpp</text>
</a>
</g>
</g>
<!-- Node1&#45;&gt;Node2 -->
<g id="edge1" class="edge">
<title>Node1&#45;&gt;Node2</title>
<path fill="none" stroke="midnightblue" d="M1280.84,-579.96C1240.04,-569.76 1180.29,-554.82 1143.07,-545.52"/>
<polygon fill="midnightblue" stroke="midnightblue" points="1280.22,-583.41 1290.77,-582.44 1281.92,-576.62 1280.22,-583.41"/>
</g>
<!-- Node4 -->
<g id="node4" class="node">
<title>Node4</title>
<g id="a_node4"><a xlink:href="bonded__interaction__data_8hpp.html" target="_top" xlink:title=" ">
<polygon fill="none" stroke="black" points="1267,-459.5 1267,-489.5 1377,-489.5 1377,-459.5 1267,-459.5"/>
<text text-anchor="start" x="1275" y="-477.5" font-family="Helvetica,sans-Serif" font-size="10.00">bonded_interaction</text>
<text text-anchor="middle" x="1322" y="-466.5" font-family="Helvetica,sans-Serif" font-size="10.00">_data.hpp</text>
</a>
</g>
</g>
<!-- Node1&#45;&gt;Node4 -->
<g id="edge56" class="edge">
<title>Node1&#45;&gt;Node4</title>
<path fill="none" stroke="midnightblue" d="M1324.51,-572.07C1323.91,-548.9 1322.9,-510.22 1322.36,-489.55"/>
<polygon fill="midnightblue" stroke="midnightblue" points="1321.02,-572.41 1324.77,-582.32 1328.01,-572.23 1321.02,-572.41"/>
</g>
<!-- Node40 -->
<g id="node40" class="node">
<title>Node40</title>
<g id="a_node40"><a xlink:href="angle__cossquare_8hpp.html" target="_top" xlink:title=" ">
<polygon fill="none" stroke="black" points="1177.5,-526.5 1177.5,-545.5 1296.5,-545.5 1296.5,-526.5 1177.5,-526.5"/>
<text text-anchor="middle" x="1237" y="-533.5" font-family="Helvetica,sans-Serif" font-size="10.00">angle_cossquare.hpp</text>
</a>
</g>
</g>
<!-- Node1&#45;&gt;Node40 -->
<g id="edge50" class="edge">
<title>Node1&#45;&gt;Node40</title>
<path fill="none" stroke="midnightblue" d="M1302.02,-576.9C1285.89,-567 1264.82,-554.07 1251.1,-545.65"/>
<polygon fill="midnightblue" stroke="midnightblue" points="1300.51,-580.08 1310.86,-582.32 1304.17,-574.11 1300.51,-580.08"/>
</g>
<!-- Node42 -->
<g id="node42" class="node">
<title>Node42</title>
<g id="a_node42"><a xlink:href="angle__harmonic_8hpp.html" target="_top" xlink:title=" ">
<polygon fill="none" stroke="black" points="1467,-526.5 1467,-545.5 1583,-545.5 1583,-526.5 1467,-526.5"/>
<text text-anchor="middle" x="1525" y="-533.5" font-family="Helvetica,sans-Serif" font-size="10.00">angle_harmonic.hpp</text>
</a>
</g>
</g>
<!-- Node1&#45;&gt;Node42 -->
<g id="edge53" class="edge">
<title>Node1&#45;&gt;Node42</title>
<path fill="none" stroke="midnightblue" d="M1366.37,-579.83C1404.14,-569.63 1459.14,-554.78 1493.46,-545.52"/>
<polygon fill="midnightblue" stroke="midnightblue" points="1365.43,-576.46 1356.69,-582.44 1367.26,-583.22 1365.43,-576.46"/>
</g>
<!-- Node44 -->
<g id="node44" class="node">
<title>Node44</title>
<g id="a_node44"><a xlink:href="bonded__tab_8hpp.html" target="_top" xlink:title=" ">
<polygon fill="none" stroke="black" points="1353.5,-526.5 1353.5,-545.5 1448.5,-545.5 1448.5,-526.5 1353.5,-526.5"/>
<text text-anchor="middle" x="1401" y="-533.5" font-family="Helvetica,sans-Serif" font-size="10.00">bonded_tab.hpp</text>
</a>
</g>
</g>
<!-- Node1&#45;&gt;Node44 -->
<g id="edge57" class="edge">
<title>Node1&#45;&gt;Node44</title>
<path fill="none" stroke="midnightblue" d="M1345.58,-576.38C1359.31,-566.62 1376.93,-554.11 1388.57,-545.83"/>
<polygon fill="midnightblue" stroke="midnightblue" points="1343.34,-573.68 1337.21,-582.32 1347.39,-579.38 1343.34,-573.68"/>
</g>
<!-- Node3 -->
<g id="node3" class="node">
<title>Node3</title>
<g id="a_node3"><a xlink:href="angle__cosine_8cpp.html" target="_top" xlink:title=" ">
<polygon fill="none" stroke="black" points="1010.5,-465 1010.5,-484 1111.5,-484 1111.5,-465 1010.5,-465"/>
<text text-anchor="middle" x="1061" y="-472" font-family="Helvetica,sans-Serif" font-size="10.00">angle_cosine.cpp</text>
</a>
</g>
</g>
<!-- Node2&#45;&gt;Node3 -->
<g id="edge2" class="edge">
<title>Node2&#45;&gt;Node3</title>
<path fill="none" stroke="midnightblue" d="M1095.83,-518.67C1086.78,-507.45 1075.13,-493.02 1067.86,-484.01"/>
<polygon fill="midnightblue" stroke="midnightblue" points="1093.12,-520.89 1102.12,-526.48 1098.57,-516.49 1093.12,-520.89"/>
</g>
<!-- Node2&#45;&gt;Node4 -->
<g id="edge3" class="edge">
<title>Node2&#45;&gt;Node4</title>
<path fill="none" stroke="midnightblue" d="M1149.33,-523.73C1184.09,-514.02 1234.43,-499.96 1271.8,-489.52"/>
<polygon fill="midnightblue" stroke="midnightblue" points="1148.21,-520.41 1139.52,-526.48 1150.09,-527.16 1148.21,-520.41"/>
</g>
<!-- Node5 -->
<g id="node5" class="node">
<title>Node5</title>
<g id="a_node5"><a xlink:href="bonded__interaction__data_8cpp.html" target="_top" xlink:title=" ">
<polygon fill="none" stroke="black" points="2197,-392.5 2197,-422.5 2307,-422.5 2307,-392.5 2197,-392.5"/>
<text text-anchor="start" x="2205" y="-410.5" font-family="Helvetica,sans-Serif" font-size="10.00">bonded_interaction</text>
<text text-anchor="middle" x="2252" y="-399.5" font-family="Helvetica,sans-Serif" font-size="10.00">_data.cpp</text>
</a>
</g>
</g>
<!-- Node4&#45;&gt;Node5 -->
<g id="edge4" class="edge">
<title>Node4&#45;&gt;Node5</title>
<path fill="none" stroke="midnightblue" d="M1387.18,-459.51C1388.46,-459.33 1389.74,-459.16 1391,-459 1742.77,-414.39 1836.59,-470.36 2188,-423 2190.94,-422.6 2193.93,-422.14 2196.96,-421.62"/>
<polygon fill="midnightblue" stroke="midnightblue" points="1386.57,-456.07 1377.23,-461.07 1387.65,-462.98 1386.57,-456.07"/>
</g>
<!-- Node6 -->
<g id="node6" class="node">
<title>Node6</title>
<g id="a_node6"><a xlink:href="bonded__interaction__utils_8hpp.html" target="_top" xlink:title=" ">
<polygon fill="none" stroke="black" points="326,-392.5 326,-422.5 436,-422.5 436,-392.5 326,-392.5"/>
<text text-anchor="start" x="334" y="-410.5" font-family="Helvetica,sans-Serif" font-size="10.00">bonded_interaction</text>
<text text-anchor="middle" x="381" y="-399.5" font-family="Helvetica,sans-Serif" font-size="10.00">_utils.hpp</text>
</a>
</g>
</g>
<!-- Node4&#45;&gt;Node6 -->
<g id="edge5" class="edge">
<title>Node4&#45;&gt;Node6</title>
<path fill="none" stroke="midnightblue" d="M1256.69,-459.17C899.32,-412.77 802.88,-467.65 450,-423 445.51,-422.43 440.87,-421.72 436.23,-420.93"/>
<polygon fill="midnightblue" stroke="midnightblue" points="1256.43,-462.66 1266.8,-460.5 1257.34,-455.72 1256.43,-462.66"/>
</g>
<!-- Node7 -->
<g id="node7" class="node">
<title>Node7</title>
<g id="a_node7"><a xlink:href="thole_8hpp.html" target="_top" xlink:title=" ">
<polygon fill="none" stroke="black" points="330,-336.5 330,-355.5 392,-355.5 392,-336.5 330,-336.5"/>
<text text-anchor="middle" x="361" y="-343.5" font-family="Helvetica,sans-Serif" font-size="10.00">thole.hpp</text>
</a>
</g>
</g>
<!-- Node4&#45;&gt;Node7 -->
<g id="edge27" class="edge">
<title>Node4&#45;&gt;Node7</title>
<path fill="none" stroke="midnightblue" d="M1256.76,-459.63C1143.07,-452.84 351.89,-459.26 317,-423 297.02,-402.24 330.52,-370.71 349.43,-355.63"/>
<polygon fill="midnightblue" stroke="midnightblue" points="1256.54,-463.12 1266.8,-460.47 1257.13,-456.15 1256.54,-463.12"/>
</g>
<!-- Node8 -->
<g id="node8" class="node">
<title>Node8</title>
<g id="a_node8"><a xlink:href="energy__inline_8hpp.html" target="_top" xlink:title=" ">
<polygon fill="none" stroke="black" points="208,-280.5 208,-299.5 312,-299.5 312,-280.5 208,-280.5"/>
<text text-anchor="middle" x="260" y="-287.5" font-family="Helvetica,sans-Serif" font-size="10.00">energy_inline.hpp</text>
</a>
</g>
</g>
<!-- Node4&#45;&gt;Node8 -->
<g id="edge26" class="edge">
<title>Node4&#45;&gt;Node8</title>
<path fill="none" stroke="midnightblue" d="M1256.69,-459.59C1142.28,-452.33 347.99,-453.1 307,-423 266.02,-392.91 260.63,-323.97 260.03,-299.67"/>
<polygon fill="midnightblue" stroke="midnightblue" points="1256.54,-463.09 1266.8,-460.47 1257.14,-456.12 1256.54,-463.09"/>
</g>
<!-- Node18 -->
<g id="node18" class="node">
<title>Node18</title>
<g id="a_node18"><a xlink:href="forces__inline_8hpp.html" target="_top" xlink:title=" ">
<polygon fill="none" stroke="black" points="410,-280.5 410,-299.5 510,-299.5 510,-280.5 410,-280.5"/>
<text text-anchor="middle" x="460" y="-287.5" font-family="Helvetica,sans-Serif" font-size="10.00">forces_inline.hpp</text>
</a>
</g>
</g>
<!-- Node4&#45;&gt;Node18 -->
<g id="edge36" class="edge">
<title>Node4&#45;&gt;Node18</title>
<path fill="none" stroke="midnightblue" d="M1256.83,-459.45C1135.76,-449.41 554.54,-475.82 491,-423 453.17,-391.55 456.45,-323.47 458.93,-299.53"/>
<polygon fill="midnightblue" stroke="midnightblue" points="1256.49,-462.94 1266.8,-460.51 1257.22,-455.98 1256.49,-462.94"/>
</g>
<!-- Node20 -->
<g id="node20" class="node">
<title>Node20</title>
<g id="a_node20"><a xlink:href="pressure__inline_8hpp.html" target="_top" xlink:title=" ">
<polygon fill="none" stroke="black" points="596,-224.5 596,-243.5 708,-243.5 708,-224.5 596,-224.5"/>
<text text-anchor="middle" x="652" y="-231.5" font-family="Helvetica,sans-Serif" font-size="10.00">pressure_inline.hpp</text>
</a>
</g>
</g>
<!-- Node4&#45;&gt;Node20 -->
<g id="edge48" class="edge">
<title>Node4&#45;&gt;Node20</title>
<path fill="none" stroke="midnightblue" d="M1256.84,-459.25C1085.3,-437.48 654.49,-477.98 562,-356 530.21,-314.07 603.82,-263.39 636.92,-243.55"/>
<polygon fill="midnightblue" stroke="midnightblue" points="1256.4,-462.72 1266.78,-460.63 1257.36,-455.79 1256.4,-462.72"/>
</g>
<!-- Node21 -->
<g id="node21" class="node">
<title>Node21</title>
<g id="a_node21"><a xlink:href="pressure_8cpp.html" target="_top" xlink:title=" ">
<polygon fill="none" stroke="black" points="954.5,-168.5 954.5,-187.5 1033.5,-187.5 1033.5,-168.5 954.5,-168.5"/>
<text text-anchor="middle" x="994" y="-175.5" font-family="Helvetica,sans-Serif" font-size="10.00">pressure.cpp</text>
</a>
</g>
</g>
<!-- Node4&#45;&gt;Node21 -->
<g id="edge47" class="edge">
<title>Node4&#45;&gt;Node21</title>
<path fill="none" stroke="midnightblue" d="M1260.67,-456.66C1221.36,-445.24 1176.66,-430.86 1171,-423 1162.95,-411.82 1162.5,-402.85 1171,-392 1213.86,-337.29 1353.87,-394.91 1317,-336 1253.82,-235.05 1105.12,-197.34 1033.68,-184.7"/>
<polygon fill="midnightblue" stroke="midnightblue" points="1259.95,-460.09 1270.52,-459.49 1261.88,-453.36 1259.95,-460.09"/>
</g>
<!-- Node23 -->
<g id="node23" class="node">
<title>Node23</title>
<g id="a_node23"><a xlink:href="thermalized__bond__utils_8cpp.html" target="_top" xlink:title=" ">
<polygon fill="none" stroke="black" points="1180.5,-398 1180.5,-417 1331.5,-417 1331.5,-398 1180.5,-398"/>
<text text-anchor="middle" x="1256" y="-405" font-family="Helvetica,sans-Serif" font-size="10.00">thermalized_bond_utils.cpp</text>
</a>
</g>
</g>
<!-- Node4&#45;&gt;Node23 -->
<g id="edge24" class="edge">
<title>Node4&#45;&gt;Node23</title>
<path fill="none" stroke="midnightblue" d="M1300.51,-452.34C1288.39,-440.4 1273.91,-426.14 1264.83,-417.19"/>
<polygon fill="midnightblue" stroke="midnightblue" points="1298.1,-454.87 1307.68,-459.4 1303.01,-449.89 1298.1,-454.87"/>
</g>
<!-- Node24 -->
<g id="node24" class="node">
<title>Node24</title>
<g id="a_node24"><a xlink:href="collision_8cpp.html" target="_top" xlink:title=" ">
<polygon fill="none" stroke="black" points="1349.5,-398 1349.5,-417 1426.5,-417 1426.5,-398 1349.5,-398"/>
<text text-anchor="middle" x="1388" y="-405" font-family="Helvetica,sans-Serif" font-size="10.00">collision.cpp</text>
</a>
</g>
</g>
<!-- Node4&#45;&gt;Node24 -->
<g id="edge25" class="edge">
<title>Node4&#45;&gt;Node24</title>
<path fill="none" stroke="midnightblue" d="M1343.49,-452.34C1355.61,-440.4 1370.09,-426.14 1379.17,-417.19"/>
<polygon fill="midnightblue" stroke="midnightblue" points="1340.99,-449.89 1336.32,-459.4 1345.9,-454.87 1340.99,-449.89"/>
</g>
<!-- Node25 -->
<g id="node25" class="node">
<title>Node25</title>
<g id="a_node25"><a xlink:href="forces_8hpp.html" target="_top" xlink:title=" ">
<polygon fill="none" stroke="black" points="810,-398 810,-417 878,-417 878,-398 810,-398"/>
<text text-anchor="middle" x="844" y="-405" font-family="Helvetica,sans-Serif" font-size="10.00">forces.hpp</text>
</a>
</g>
</g>
<!-- Node4&#45;&gt;Node25 -->
<g id="edge28" class="edge">
<title>Node4&#45;&gt;Node25</title>
<path fill="none" stroke="midnightblue" d="M1256.66,-459.06C1109.79,-434.18 947.48,-417.94 878.16,-411.54"/>
<polygon fill="midnightblue" stroke="midnightblue" points="1256.31,-462.55 1266.75,-460.79 1257.49,-455.65 1256.31,-462.55"/>
</g>
<!-- Node31 -->
<g id="node31" class="node">
<title>Node31</title>
<g id="a_node31"><a xlink:href="ImmersedBoundaries_8cpp.html" target="_top" xlink:title=" ">
<polygon fill="none" stroke="black" points="1444.5,-398 1444.5,-417 1585.5,-417 1585.5,-398 1444.5,-398"/>
<text text-anchor="middle" x="1515" y="-405" font-family="Helvetica,sans-Serif" font-size="10.00">ImmersedBoundaries.cpp</text>
</a>
</g>
</g>
<!-- Node4&#45;&gt;Node31 -->
<g id="edge37" class="edge">
<title>Node4&#45;&gt;Node31</title>
<path fill="none" stroke="midnightblue" d="M1373.64,-456.11C1411.19,-443.46 1460.39,-426.89 1489.74,-417.01"/>
<polygon fill="midnightblue" stroke="midnightblue" points="1372.24,-452.89 1363.88,-459.4 1374.47,-459.52 1372.24,-452.89"/>
</g>
<!-- Node32 -->
<g id="node32" class="node">
<title>Node32</title>
<g id="a_node32"><a xlink:href="rattle_8hpp.html" target="_top" xlink:title=" ">
<polygon fill="none" stroke="black" points="1060,-398 1060,-417 1124,-417 1124,-398 1060,-398"/>
<text text-anchor="middle" x="1092" y="-405" font-family="Helvetica,sans-Serif" font-size="10.00">rattle.hpp</text>
</a>
</g>
</g>
<!-- Node4&#45;&gt;Node32 -->
<g id="edge38" class="edge">
<title>Node4&#45;&gt;Node32</title>
<path fill="none" stroke="midnightblue" d="M1257.01,-458.38C1219.35,-448.62 1171.29,-435.46 1129,-423 1122.74,-421.15 1116.02,-419.09 1109.96,-417.1"/>
<polygon fill="midnightblue" stroke="midnightblue" points="1256.28,-461.81 1266.84,-460.91 1258.03,-455.03 1256.28,-461.81"/>
</g>
<!-- Node34 -->
<g id="node34" class="node">
<title>Node34</title>
<g id="a_node34"><a xlink:href="interactions_8cpp.html" target="_top" xlink:title=" ">
<polygon fill="none" stroke="black" points="2325.5,-398 2325.5,-417 2420.5,-417 2420.5,-398 2325.5,-398"/>
<text text-anchor="middle" x="2373" y="-405" font-family="Helvetica,sans-Serif" font-size="10.00">interactions.cpp</text>
</a>
</g>
</g>
<!-- Node4&#45;&gt;Node34 -->
<g id="edge42" class="edge">
<title>Node4&#45;&gt;Node34</title>
<path fill="none" stroke="midnightblue" d="M1387.18,-459.5C1388.46,-459.32 1389.74,-459.16 1391,-459 1799.31,-408.52 1908.84,-482.04 2316,-423 2325.3,-421.65 2335.27,-419.4 2344.24,-417.07"/>
<polygon fill="midnightblue" stroke="midnightblue" points="1386.57,-456.05 1377.22,-461.04 1387.64,-462.97 1386.57,-456.05"/>
</g>
<!-- Node35 -->
<g id="node35" class="node">
<title>Node35</title>
<g id="a_node35"><a xlink:href="mpiio_8cpp.html" target="_top" xlink:title=" ">
<polygon fill="none" stroke="black" points="1603.5,-398 1603.5,-417 1668.5,-417 1668.5,-398 1603.5,-398"/>
<text text-anchor="middle" x="1636" y="-405" font-family="Helvetica,sans-Serif" font-size="10.00">mpiio.cpp</text>
</a>
</g>
</g>
<!-- Node4&#45;&gt;Node35 -->
<g id="edge43" class="edge">
<title>Node4&#45;&gt;Node35</title>
<path fill="none" stroke="midnightblue" d="M1387.21,-459.74C1388.49,-459.49 1389.75,-459.24 1391,-459 1481.4,-441.53 1505.96,-446.43 1595,-423 1601.28,-421.35 1607.97,-419.17 1614.08,-417"/>
<polygon fill="midnightblue" stroke="midnightblue" points="1386.45,-456.32 1377.33,-461.71 1387.82,-463.19 1386.45,-456.32"/>
</g>
<!-- Node36 -->
<g id="node36" class="node">
<title>Node36</title>
<g id="a_node36"><a xlink:href="nonbonded__interaction__data_8cpp.html" target="_top" xlink:title=" ">
<polygon fill="none" stroke="black" points="1687,-392.5 1687,-422.5 1815,-422.5 1815,-392.5 1687,-392.5"/>
<text text-anchor="start" x="1695" y="-410.5" font-family="Helvetica,sans-Serif" font-size="10.00">nonbonded_interaction</text>
<text text-anchor="middle" x="1751" y="-399.5" font-family="Helvetica,sans-Serif" font-size="10.00">_data.cpp</text>
</a>
</g>
</g>
<!-- Node4&#45;&gt;Node36 -->
<g id="edge44" class="edge">
<title>Node4&#45;&gt;Node36</title>
<path fill="none" stroke="midnightblue" d="M1387.2,-459.65C1388.48,-459.43 1389.74,-459.21 1391,-459 1517.79,-437.76 1551.1,-443.54 1678,-423 1680.93,-422.53 1683.93,-422.02 1686.95,-421.49"/>
<polygon fill="midnightblue" stroke="midnightblue" points="1386.49,-456.22 1377.29,-461.46 1387.75,-463.11 1386.49,-456.22"/>
</g>
<!-- Node37 -->
<g id="node37" class="node">
<title>Node37</title>
<g id="a_node37"><a xlink:href="oif__global__forces_8cpp.html" target="_top" xlink:title=" ">
<polygon fill="none" stroke="black" points="1833,-398 1833,-417 1953,-417 1953,-398 1833,-398"/>
<text text-anchor="middle" x="1893" y="-405" font-family="Helvetica,sans-Serif" font-size="10.00">oif_global_forces.cpp</text>
</a>
</g>
</g>
<!-- Node4&#45;&gt;Node37 -->
<g id="edge45" class="edge">
<title>Node4&#45;&gt;Node37</title>
<path fill="none" stroke="midnightblue" d="M1387.19,-459.58C1388.47,-459.38 1389.74,-459.18 1391,-459 1582.08,-431.09 1632.92,-450.91 1824,-423 1834.66,-421.44 1846.14,-419.24 1856.63,-417.03"/>
<polygon fill="midnightblue" stroke="midnightblue" points="1386.53,-456.14 1377.25,-461.26 1387.7,-463.04 1386.53,-456.14"/>
</g>
<!-- Node38 -->
<g id="node38" class="node">
<title>Node38</title>
<g id="a_node38"><a xlink:href="Observable__stat_8cpp.html" target="_top" xlink:title=" ">
<polygon fill="none" stroke="black" points="1971,-398 1971,-417 2087,-417 2087,-398 1971,-398"/>
<text text-anchor="middle" x="2029" y="-405" font-family="Helvetica,sans-Serif" font-size="10.00">Observable_stat.cpp</text>
</a>
</g>
</g>
<!-- Node4&#45;&gt;Node38 -->
<g id="edge46" class="edge">
<title>Node4&#45;&gt;Node38</title>
<path fill="none" stroke="midnightblue" d="M1387.18,-459.54C1388.46,-459.35 1389.74,-459.17 1391,-459 1642.97,-424.76 1710.14,-457.99 1962,-423 1972.61,-421.53 1984.04,-419.3 1994.4,-417.02"/>
<polygon fill="midnightblue" stroke="midnightblue" points="1386.55,-456.1 1377.24,-461.16 1387.67,-463.01 1386.55,-456.1"/>
</g>
<!-- Node39 -->
<g id="node39" class="node">
<title>Node39</title>
<g id="a_node39"><a xlink:href="bonded_8hpp.html" target="_top" xlink:title=" ">
<polygon fill="none" stroke="black" points="2105,-398 2105,-417 2179,-417 2179,-398 2105,-398"/>
<text text-anchor="middle" x="2142" y="-405" font-family="Helvetica,sans-Serif" font-size="10.00">bonded.hpp</text>
</a>
</g>
</g>
<!-- Node4&#45;&gt;Node39 -->
<g id="edge49" class="edge">
<title>Node4&#45;&gt;Node39</title>
<path fill="none" stroke="midnightblue" d="M1387.18,-459.52C1388.46,-459.34 1389.74,-459.16 1391,-459 1702.13,-418.62 1787.23,-478.61 2096,-423 2103.58,-421.63 2111.65,-419.38 2118.89,-417.05"/>
<polygon fill="midnightblue" stroke="midnightblue" points="1386.56,-456.08 1377.23,-461.1 1387.66,-462.99 1386.56,-456.08"/>
</g>
<!-- Node6&#45;&gt;Node7 -->
<g id="edge6" class="edge">
<title>Node6&#45;&gt;Node7</title>
<path fill="none" stroke="midnightblue" d="M373.07,-382.9C369.84,-373.3 366.31,-362.81 363.91,-355.66"/>
<polygon fill="midnightblue" stroke="midnightblue" points="369.76,-384.04 376.26,-392.4 376.39,-381.81 369.76,-384.04"/>
</g>
<!-- Node7&#45;&gt;Node8 -->
<g id="edge7" class="edge">
<title>Node7&#45;&gt;Node8</title>
<path fill="none" stroke="midnightblue" d="M335.92,-331.59C317.24,-321.61 292.3,-308.27 276.19,-299.65"/>
<polygon fill="midnightblue" stroke="midnightblue" points="334.3,-334.7 344.77,-336.32 337.6,-328.52 334.3,-334.7"/>
</g>
<!-- Node7&#45;&gt;Node18 -->
<g id="edge18" class="edge">
<title>Node7&#45;&gt;Node18</title>
<path fill="none" stroke="midnightblue" d="M385.84,-331.45C404.11,-321.48 428.42,-308.23 444.13,-299.65"/>
<polygon fill="midnightblue" stroke="midnightblue" points="384.01,-328.46 376.91,-336.32 387.36,-334.61 384.01,-328.46"/>
</g>
<!-- Node22 -->
<g id="node22" class="node">
<title>Node22</title>
<g id="a_node22"><a xlink:href="thole_8cpp.html" target="_top" xlink:title=" ">
<polygon fill="none" stroke="black" points="330,-280.5 330,-299.5 392,-299.5 392,-280.5 330,-280.5"/>
<text text-anchor="middle" x="361" y="-287.5" font-family="Helvetica,sans-Serif" font-size="10.00">thole.cpp</text>
</a>
</g>
</g>
<!-- Node7&#45;&gt;Node22 -->
<g id="edge23" class="edge">
<title>Node7&#45;&gt;Node22</title>
<path fill="none" stroke="midnightblue" d="M361,-325.8C361,-316.91 361,-306.78 361,-299.75"/>
<polygon fill="midnightblue" stroke="midnightblue" points="357.5,-326.08 361,-336.08 364.5,-326.08 357.5,-326.08"/>
</g>
<!-- Node9 -->
<g id="node9" class="node">
<title>Node9</title>
<g id="a_node9"><a xlink:href="ShapeBasedConstraint_8cpp.html" target="_top" xlink:title=" ">
<polygon fill="none" stroke="black" points="258.5,-224.5 258.5,-243.5 405.5,-243.5 405.5,-224.5 258.5,-224.5"/>
<text text-anchor="middle" x="332" y="-231.5" font-family="Helvetica,sans-Serif" font-size="10.00">ShapeBasedConstraint.cpp</text>
</a>
</g>
</g>
<!-- Node8&#45;&gt;Node9 -->
<g id="edge8" class="edge">
<title>Node8&#45;&gt;Node9</title>
<path fill="none" stroke="midnightblue" d="M279.87,-274.1C292.82,-264.38 309.3,-252.03 320.22,-243.83"/>
<polygon fill="midnightblue" stroke="midnightblue" points="277.47,-271.52 271.57,-280.32 281.67,-277.12 277.47,-271.52"/>
</g>
<!-- Node10 -->
<g id="node10" class="node">
<title>Node10</title>
<g id="a_node10"><a xlink:href="energy_8cpp.html" target="_top" xlink:title=" ">
<polygon fill="none" stroke="black" points="508.5,-224.5 508.5,-243.5 577.5,-243.5 577.5,-224.5 508.5,-224.5"/>
<text text-anchor="middle" x="543" y="-231.5" font-family="Helvetica,sans-Serif" font-size="10.00">energy.cpp</text>
</a>
</g>
</g>
<!-- Node8&#45;&gt;Node10 -->
<g id="edge9" class="edge">
<title>Node8&#45;&gt;Node10</title>
<path fill="none" stroke="midnightblue" d="M316.73,-278.58C365.19,-269.61 436.73,-256.23 499,-244 502.06,-243.4 505.24,-242.77 508.42,-242.13"/>
<polygon fill="midnightblue" stroke="midnightblue" points="315.95,-275.16 306.75,-280.42 317.22,-282.05 315.95,-275.16"/>
</g>
<!-- Node11 -->
<g id="node11" class="node">
<title>Node11</title>
<g id="a_node11"><a xlink:href="core_2pair__criteria_2pair__criteria_8hpp.html" target="_top" xlink:title=" ">
<polygon fill="none" stroke="black" points="144,-224.5 144,-243.5 240,-243.5 240,-224.5 144,-224.5"/>
<text text-anchor="middle" x="192" y="-231.5" font-family="Helvetica,sans-Serif" font-size="10.00">pair_criteria.hpp</text>
</a>
</g>
</g>
<!-- Node8&#45;&gt;Node11 -->
<g id="edge10" class="edge">
<title>Node8&#45;&gt;Node11</title>
<path fill="none" stroke="midnightblue" d="M241.24,-274.1C229,-264.38 213.44,-252.03 203.12,-243.83"/>
<polygon fill="midnightblue" stroke="midnightblue" points="239.07,-276.85 249.07,-280.32 243.42,-271.36 239.07,-276.85"/>
</g>
<!-- Node12 -->
<g id="node12" class="node">
<title>Node12</title>
<g id="a_node12"><a xlink:href="script__interface_2pair__criteria_2pair__criteria_8hpp.html" target="_top" xlink:title=" ">
<polygon fill="none" stroke="black" points="144,-168.5 144,-187.5 240,-187.5 240,-168.5 144,-168.5"/>
<text text-anchor="middle" x="192" y="-175.5" font-family="Helvetica,sans-Serif" font-size="10.00">pair_criteria.hpp</text>
</a>
</g>
</g>
<!-- Node11&#45;&gt;Node12 -->
<g id="edge11" class="edge">
<title>Node11&#45;&gt;Node12</title>
<path fill="none" stroke="midnightblue" d="M192,-213.8C192,-204.91 192,-194.78 192,-187.75"/>
<polygon fill="midnightblue" stroke="midnightblue" points="188.5,-214.08 192,-224.08 195.5,-214.08 188.5,-214.08"/>
</g>
<!-- Node13 -->
<g id="node13" class="node">
<title>Node13</title>
<g id="a_node13"><a xlink:href="core_2cluster__analysis_2ClusterStructure_8hpp.html" target="_top" xlink:title=" ">
<polygon fill="none" stroke="black" points="48,-112.5 48,-131.5 164,-131.5 164,-112.5 48,-112.5"/>
<text text-anchor="middle" x="106" y="-119.5" font-family="Helvetica,sans-Serif" font-size="10.00">ClusterStructure.hpp</text>
</a>
</g>
</g>
<!-- Node12&#45;&gt;Node13 -->
<g id="edge12" class="edge">
<title>Node12&#45;&gt;Node13</title>
<path fill="none" stroke="midnightblue" d="M169.55,-162.9C153.78,-153 133.19,-140.07 119.78,-131.65"/>
<polygon fill="midnightblue" stroke="midnightblue" points="167.85,-165.97 178.18,-168.32 171.57,-160.04 167.85,-165.97"/>
</g>
<!-- Node15 -->
<g id="node15" class="node">
<title>Node15</title>
<g id="a_node15"><a xlink:href="script__interface_2cluster__analysis_2ClusterStructure_8hpp.html" target="_top" xlink:title=" ">
<polygon fill="none" stroke="black" points="134,-56.5 134,-75.5 250,-75.5 250,-56.5 134,-56.5"/>
<text text-anchor="middle" x="192" y="-63.5" font-family="Helvetica,sans-Serif" font-size="10.00">ClusterStructure.hpp</text>
</a>
</g>
</g>
<!-- Node12&#45;&gt;Node15 -->
<g id="edge16" class="edge">
<title>Node12&#45;&gt;Node15</title>
<path fill="none" stroke="midnightblue" d="M192,-158.35C192,-134.25 192,-93.31 192,-75.59"/>
<polygon fill="midnightblue" stroke="midnightblue" points="188.5,-158.37 192,-168.37 195.5,-158.37 188.5,-158.37"/>
</g>
<!-- Node17 -->
<g id="node17" class="node">
<title>Node17</title>
<g id="a_node17"><a xlink:href="pair__criteria_2initialize_8cpp.html" target="_top" xlink:title=" ">
<polygon fill="none" stroke="black" points="220.5,-112.5 220.5,-131.5 299.5,-131.5 299.5,-112.5 220.5,-112.5"/>
<text text-anchor="middle" x="260" y="-119.5" font-family="Helvetica,sans-Serif" font-size="10.00">initialize.cpp</text>
</a>
</g>
</g>
<!-- Node12&#45;&gt;Node17 -->
<g id="edge17" class="edge">
<title>Node12&#45;&gt;Node17</title>
<path fill="none" stroke="midnightblue" d="M210.76,-162.1C223,-152.38 238.56,-140.03 248.88,-131.83"/>
<polygon fill="midnightblue" stroke="midnightblue" points="208.58,-159.36 202.93,-168.32 212.93,-164.85 208.58,-159.36"/>
</g>
<!-- Node14 -->
<g id="node14" class="node">
<title>Node14</title>
<g id="a_node14"><a xlink:href="ClusterStructure_8cpp.html" target="_top" xlink:title=" ">
<polygon fill="none" stroke="black" points="0,-56.5 0,-75.5 116,-75.5 116,-56.5 0,-56.5"/>
<text text-anchor="middle" x="58" y="-63.5" font-family="Helvetica,sans-Serif" font-size="10.00">ClusterStructure.cpp</text>
</a>
</g>
</g>
<!-- Node13&#45;&gt;Node14 -->
<g id="edge13" class="edge">
<title>Node13&#45;&gt;Node14</title>
<path fill="none" stroke="midnightblue" d="M91.27,-104.43C82.86,-94.97 72.65,-83.48 65.78,-75.75"/>
<polygon fill="midnightblue" stroke="midnightblue" points="88.81,-106.93 98.07,-112.08 94.05,-102.28 88.81,-106.93"/>
</g>
<!-- Node13&#45;&gt;Node15 -->
<g id="edge14" class="edge">
<title>Node13&#45;&gt;Node15</title>
<path fill="none" stroke="midnightblue" d="M128.45,-106.9C144.22,-97 164.81,-84.07 178.22,-75.65"/>
<polygon fill="midnightblue" stroke="midnightblue" points="126.43,-104.04 119.82,-112.32 130.15,-109.97 126.43,-104.04"/>
</g>
<!-- Node16 -->
<g id="node16" class="node">
<title>Node16</title>
<g id="a_node16"><a xlink:href="cluster__analysis_2initialize_8cpp.html" target="_top" xlink:title=" ">
<polygon fill="none" stroke="black" points="152.5,-0.5 152.5,-19.5 231.5,-19.5 231.5,-0.5 152.5,-0.5"/>
<text text-anchor="middle" x="192" y="-7.5" font-family="Helvetica,sans-Serif" font-size="10.00">initialize.cpp</text>
</a>
</g>
</g>
<!-- Node15&#45;&gt;Node16 -->
<g id="edge15" class="edge">
<title>Node15&#45;&gt;Node16</title>
<path fill="none" stroke="midnightblue" d="M192,-45.8C192,-36.91 192,-26.78 192,-19.75"/>
<polygon fill="midnightblue" stroke="midnightblue" points="188.5,-46.08 192,-56.08 195.5,-46.08 188.5,-46.08"/>
</g>
<!-- Node18&#45;&gt;Node9 -->
<g id="edge19" class="edge">
<title>Node18&#45;&gt;Node9</title>
<path fill="none" stroke="midnightblue" d="M430.38,-276.5C406.38,-266.38 373.22,-252.39 352.19,-243.52"/>
<polygon fill="midnightblue" stroke="midnightblue" points="429.14,-279.78 439.72,-280.44 431.86,-273.33 429.14,-279.78"/>
</g>
<!-- Node19 -->
<g id="node19" class="node">
<title>Node19</title>
<g id="a_node19"><a xlink:href="forces_8cpp.html" target="_top" xlink:title=" ">
<polygon fill="none" stroke="black" points="423.5,-224.5 423.5,-243.5 490.5,-243.5 490.5,-224.5 423.5,-224.5"/>
<text text-anchor="middle" x="457" y="-231.5" font-family="Helvetica,sans-Serif" font-size="10.00">forces.cpp</text>
</a>
</g>
</g>
<!-- Node18&#45;&gt;Node19 -->
<g id="edge20" class="edge">
<title>Node18&#45;&gt;Node19</title>
<path fill="none" stroke="midnightblue" d="M458.93,-269.8C458.44,-260.91 457.88,-250.78 457.49,-243.75"/>
<polygon fill="midnightblue" stroke="midnightblue" points="455.46,-270.29 459.5,-280.08 462.44,-269.9 455.46,-270.29"/>
</g>
<!-- Node18&#45;&gt;Node20 -->
<g id="edge21" class="edge">
<title>Node18&#45;&gt;Node20</title>
<path fill="none" stroke="midnightblue" d="M500.18,-277.7C536.42,-267.51 588.91,-252.74 621.72,-243.52"/>
<polygon fill="midnightblue" stroke="midnightblue" points="499.1,-274.37 490.42,-280.44 501,-281.11 499.1,-274.37"/>
</g>
<!-- Node20&#45;&gt;Node21 -->
<g id="edge22" class="edge">
<title>Node20&#45;&gt;Node21</title>
<path fill="none" stroke="midnightblue" d="M716.22,-222.86C786.24,-211.8 896.09,-194.46 954.46,-185.24"/>
<polygon fill="midnightblue" stroke="midnightblue" points="715.52,-219.43 706.19,-224.44 716.61,-226.34 715.52,-219.43"/>
</g>
<!-- Node25&#45;&gt;Node10 -->
<g id="edge32" class="edge">
<title>Node25&#45;&gt;Node10</title>
<path fill="none" stroke="midnightblue" d="M799.48,-404.65C728.49,-400.73 594.35,-389.05 562,-356 531.51,-324.85 537.67,-266 541.33,-243.78"/>
<polygon fill="midnightblue" stroke="midnightblue" points="799.72,-408.17 809.89,-405.19 800.09,-401.18 799.72,-408.17"/>
</g>
<!-- Node25&#45;&gt;Node18 -->
<g id="edge33" class="edge">
<title>Node25&#45;&gt;Node18</title>
<path fill="none" stroke="midnightblue" d="M799.83,-407.42C736.56,-407.02 617.97,-399.78 529,-356 501.53,-342.49 477.55,-314.3 466.49,-299.89"/>
<polygon fill="midnightblue" stroke="midnightblue" points="799.86,-410.92 809.87,-407.43 799.87,-403.92 799.86,-410.92"/>
</g>
<!-- Node26 -->
<g id="node26" class="node">
<title>Node26</title>
<g id="a_node26"><a xlink:href="DipolarBarnesHut_8cpp.html" target="_top" xlink:title=" ">
<polygon fill="none" stroke="black" points="571.5,-336.5 571.5,-355.5 694.5,-355.5 694.5,-336.5 571.5,-336.5"/>
<text text-anchor="middle" x="633" y="-343.5" font-family="Helvetica,sans-Serif" font-size="10.00">DipolarBarnesHut.cpp</text>
</a>
</g>
</g>
<!-- Node25&#45;&gt;Node26 -->
<g id="edge29" class="edge">
<title>Node25&#45;&gt;Node26</title>
<path fill="none" stroke="midnightblue" d="M804.1,-395.25C763.11,-383.69 700.2,-365.95 663.18,-355.51"/>
<polygon fill="midnightblue" stroke="midnightblue" points="803.19,-398.63 813.77,-397.98 805.09,-391.89 803.19,-398.63"/>
</g>
<!-- Node27 -->
<g id="node27" class="node">
<title>Node27</title>
<g id="a_node27"><a xlink:href="DipolarDirectSum_8cpp.html" target="_top" xlink:title=" ">
<polygon fill="none" stroke="black" points="712.5,-336.5 712.5,-355.5 835.5,-355.5 835.5,-336.5 712.5,-336.5"/>
<text text-anchor="middle" x="774" y="-343.5" font-family="Helvetica,sans-Serif" font-size="10.00">DipolarDirectSum.cpp</text>
</a>
</g>
</g>
<!-- Node25&#45;&gt;Node27 -->
<g id="edge30" class="edge">
<title>Node25&#45;&gt;Node27</title>
<path fill="none" stroke="midnightblue" d="M826.32,-391.47C812.93,-380.09 795.02,-364.87 784.01,-355.51"/>
<polygon fill="midnightblue" stroke="midnightblue" points="824.08,-394.17 833.97,-397.98 828.62,-388.83 824.08,-394.17"/>
</g>
<!-- Node28 -->
<g id="node28" class="node">
<title>Node28</title>
<g id="a_node28"><a xlink:href="Mmm1dgpuForce_8cpp.html" target="_top" xlink:title=" ">
<polygon fill="none" stroke="black" points="854,-336.5 854,-355.5 976,-355.5 976,-336.5 854,-336.5"/>
<text text-anchor="middle" x="915" y="-343.5" font-family="Helvetica,sans-Serif" font-size="10.00">Mmm1dgpuForce.cpp</text>
</a>
</g>
</g>
<!-- Node25&#45;&gt;Node28 -->
<g id="edge31" class="edge">
<title>Node25&#45;&gt;Node28</title>
<path fill="none" stroke="midnightblue" d="M861.93,-391.47C875.51,-380.09 893.68,-364.87 904.85,-355.51"/>
<polygon fill="midnightblue" stroke="midnightblue" points="859.59,-388.87 854.17,-397.98 864.09,-394.23 859.59,-388.87"/>
</g>
<!-- Node29 -->
<g id="node29" class="node">
<title>Node29</title>
<g id="a_node29"><a xlink:href="integrate_8cpp.html" target="_top" xlink:title=" ">
<polygon fill="none" stroke="black" points="1146.5,-336.5 1146.5,-355.5 1227.5,-355.5 1227.5,-336.5 1146.5,-336.5"/>
<text text-anchor="middle" x="1187" y="-343.5" font-family="Helvetica,sans-Serif" font-size="10.00">integrate.cpp</text>
</a>
</g>
</g>
<!-- Node25&#45;&gt;Node29 -->
<g id="edge34" class="edge">
<title>Node25&#45;&gt;Node29</title>
<path fill="none" stroke="midnightblue" d="M888.48,-398.94C945.91,-389.15 1048.94,-371.51 1137,-356 1140.04,-355.46 1143.18,-354.91 1146.35,-354.34"/>
<polygon fill="midnightblue" stroke="midnightblue" points="887.57,-395.54 878.3,-400.67 888.74,-402.44 887.57,-395.54"/>
</g>
<!-- Node30 -->
<g id="node30" class="node">
<title>Node30</title>
<g id="a_node30"><a xlink:href="VirtualSitesRelative_8cpp.html" target="_top" xlink:title=" ">
<polygon fill="none" stroke="black" points="994,-336.5 994,-355.5 1128,-355.5 1128,-336.5 994,-336.5"/>
<text text-anchor="middle" x="1061" y="-343.5" font-family="Helvetica,sans-Serif" font-size="10.00">VirtualSitesRelative.cpp</text>
</a>
</g>
</g>
<!-- Node25&#45;&gt;Node30 -->
<g id="edge35" class="edge">
<title>Node25&#45;&gt;Node30</title>
<path fill="none" stroke="midnightblue" d="M884.77,-395.32C926.92,-383.76 991.8,-365.97 1029.97,-355.51"/>
<polygon fill="midnightblue" stroke="midnightblue" points="883.81,-391.96 875.09,-397.98 885.66,-398.71 883.81,-391.96"/>
</g>
<!-- Node32&#45;&gt;Node4 -->
<g id="edge39" class="edge">
<title>Node32&#45;&gt;Node4</title>
<path fill="none" stroke="midnightblue" d="M1133.89,-419.06C1138.34,-420.41 1142.77,-421.75 1147,-423 1190.85,-435.92 1240.89,-449.59 1276.3,-459.44"/>
<polygon fill="midnightblue" stroke="midnightblue" points="1134.77,-415.66 1124.18,-416.12 1132.74,-422.37 1134.77,-415.66"/>
</g>
<!-- Node32&#45;&gt;Node29 -->
<g id="edge40" class="edge">
<title>Node32&#45;&gt;Node29</title>
<path fill="none" stroke="midnightblue" d="M1114.21,-392.59C1132.55,-381.1 1157.98,-365.18 1173.41,-355.51"/>
<polygon fill="midnightblue" stroke="midnightblue" points="1112.23,-389.7 1105.61,-397.98 1115.94,-395.63 1112.23,-389.7"/>
</g>
<!-- Node33 -->
<g id="node33" class="node">
<title>Node33</title>
<g id="a_node33"><a xlink:href="rattle_8cpp.html" target="_top" xlink:title=" ">
<polygon fill="none" stroke="black" points="1245.5,-336.5 1245.5,-355.5 1308.5,-355.5 1308.5,-336.5 1245.5,-336.5"/>
<text text-anchor="middle" x="1277" y="-343.5" font-family="Helvetica,sans-Serif" font-size="10.00">rattle.cpp</text>
</a>
</g>
</g>
<!-- Node32&#45;&gt;Node33 -->
<g id="edge41" class="edge">
<title>Node32&#45;&gt;Node33</title>
<path fill="none" stroke="midnightblue" d="M1128.13,-394.88C1164.09,-383.32 1218.42,-365.84 1250.54,-355.51"/>
<polygon fill="midnightblue" stroke="midnightblue" points="1126.95,-391.58 1118.51,-397.98 1129.1,-398.25 1126.95,-391.58"/>
</g>
<!-- Node40&#45;&gt;Node4 -->
<g id="edge52" class="edge">
<title>Node40&#45;&gt;Node4</title>
<path fill="none" stroke="midnightblue" d="M1257.37,-520.74C1270.88,-511.28 1288.53,-498.93 1301.97,-489.52"/>
<polygon fill="midnightblue" stroke="midnightblue" points="1255.36,-517.87 1249.18,-526.48 1259.38,-523.61 1255.36,-517.87"/>
</g>
<!-- Node41 -->
<g id="node41" class="node">
<title>Node41</title>
<g id="a_node41"><a xlink:href="angle__cossquare_8cpp.html" target="_top" xlink:title=" ">
<polygon fill="none" stroke="black" points="1129.5,-465 1129.5,-484 1248.5,-484 1248.5,-465 1129.5,-465"/>
<text text-anchor="middle" x="1189" y="-472" font-family="Helvetica,sans-Serif" font-size="10.00">angle_cossquare.cpp</text>
</a>
</g>
</g>
<!-- Node40&#45;&gt;Node41 -->
<g id="edge51" class="edge">
<title>Node40&#45;&gt;Node41</title>
<path fill="none" stroke="midnightblue" d="M1223.83,-518.67C1214.78,-507.45 1203.13,-493.02 1195.86,-484.01"/>
<polygon fill="midnightblue" stroke="midnightblue" points="1221.12,-520.89 1230.12,-526.48 1226.57,-516.49 1221.12,-520.89"/>
</g>
<!-- Node42&#45;&gt;Node4 -->
<g id="edge55" class="edge">
<title>Node42&#45;&gt;Node4</title>
<path fill="none" stroke="midnightblue" d="M1486.14,-523.61C1453.02,-513.9 1405.3,-499.92 1369.84,-489.52"/>
<polygon fill="midnightblue" stroke="midnightblue" points="1485.33,-527.02 1495.92,-526.48 1487.3,-520.3 1485.33,-527.02"/>
</g>
<!-- Node43 -->
<g id="node43" class="node">
<title>Node43</title>
<g id="a_node43"><a xlink:href="angle__harmonic_8cpp.html" target="_top" xlink:title=" ">
<polygon fill="none" stroke="black" points="1545.5,-465 1545.5,-484 1660.5,-484 1660.5,-465 1545.5,-465"/>
<text text-anchor="middle" x="1603" y="-472" font-family="Helvetica,sans-Serif" font-size="10.00">angle_harmonic.cpp</text>
</a>
</g>
</g>
<!-- Node42&#45;&gt;Node43 -->
<g id="edge54" class="edge">
<title>Node42&#45;&gt;Node43</title>
<path fill="none" stroke="midnightblue" d="M1544.28,-520.29C1559.24,-508.88 1579.46,-493.46 1591.85,-484.01"/>
<polygon fill="midnightblue" stroke="midnightblue" points="1542,-517.63 1536.18,-526.48 1546.25,-523.19 1542,-517.63"/>
</g>
<!-- Node44&#45;&gt;Node4 -->
<g id="edge58" class="edge">
<title>Node44&#45;&gt;Node4</title>
<path fill="none" stroke="midnightblue" d="M1381.34,-520.2C1368.89,-510.81 1352.87,-498.75 1340.62,-489.52"/>
<polygon fill="midnightblue" stroke="midnightblue" points="1379.59,-523.25 1389.68,-526.48 1383.8,-517.66 1379.59,-523.25"/>
</g>
<!-- Node44&#45;&gt;Node34 -->
<g id="edge60" class="edge">
<title>Node44&#45;&gt;Node34</title>
<path fill="none" stroke="midnightblue" d="M1400.95,-516.06C1402.04,-498.24 1406.75,-472.35 1424,-459 1502.44,-398.29 2217.85,-437.3 2316,-423 2325.3,-421.65 2335.27,-419.39 2344.24,-417.06"/>
<polygon fill="midnightblue" stroke="midnightblue" points="1397.45,-516.07 1400.67,-526.16 1404.45,-516.26 1397.45,-516.07"/>
</g>
<!-- Node45 -->
<g id="node45" class="node">
<title>Node45</title>
<g id="a_node45"><a xlink:href="bonded__tab_8cpp.html" target="_top" xlink:title=" ">
<polygon fill="none" stroke="black" points="1433,-465 1433,-484 1527,-484 1527,-465 1433,-465"/>
<text text-anchor="middle" x="1480" y="-472" font-family="Helvetica,sans-Serif" font-size="10.00">bonded_tab.cpp</text>
</a>
</g>
</g>
<!-- Node44&#45;&gt;Node45 -->
<g id="edge59" class="edge">
<title>Node44&#45;&gt;Node45</title>
<path fill="none" stroke="midnightblue" d="M1420.53,-520.29C1435.68,-508.88 1456.16,-493.46 1468.7,-484.01"/>
<polygon fill="midnightblue" stroke="midnightblue" points="1418.2,-517.66 1412.32,-526.48 1422.41,-523.25 1418.2,-517.66"/>
</g>
</g>
</svg>
