<?xml version="1.0" encoding="UTF-8" standalone="no"?>
<!DOCTYPE svg PUBLIC "-//W3C//DTD SVG 1.1//EN"
 "http://www.w3.org/Graphics/SVG/1.1/DTD/svg11.dtd">
<!-- Generated by graphviz version 2.43.0 (0)
 -->
<!-- Title: angle_harmonic.hpp Pages: 1 -->
<!--zoomable 442 -->
<svg id="main" version="1.1" xmlns="http://www.w3.org/2000/svg" xmlns:xlink="http://www.w3.org/1999/xlink" xml:space="preserve" onload="init(evt)">
<style type="text/css"><![CDATA[
.edge:hover path { stroke: red; }
.edge:hover polygon { stroke: red; fill: red; }
]]></style>
<script type="text/javascript"><![CDATA[
var edges = document.getElementsByTagName('g');
if (edges && edges.length) {
  for (var i=0;i<edges.length;i++) {
    if (edges[i].id.substr(0,4)=='edge') {
      edges[i].setAttribute('class','edge');
    }
  }
}
]]></script>
        <defs>
                <circle id="rim" cx="0" cy="0" r="7"/>
                <circle id="rim2" cx="0" cy="0" r="3.5"/>
                <g id="zoomPlus">
                        <use xlink:href="#rim" fill="#404040">
                                <set attributeName="fill" to="#808080" begin="zoomplus.mouseover" end="zoomplus.mouseout"/>
                        </use>
                        <path d="M-4,0h8M0,-4v8" fill="none" stroke="white" stroke-width="1.5" pointer-events="none"/>
                </g>
                <g id="zoomMin">
                        <use xlink:href="#rim" fill="#404040">
                                <set attributeName="fill" to="#808080" begin="zoomminus.mouseover" end="zoomminus.mouseout"/>
                        </use>
                        <path d="M-4,0h8" fill="none" stroke="white" stroke-width="1.5" pointer-events="none"/>
                </g>
                <g id="dirArrow">
                        <path fill="none" stroke="white" stroke-width="1.5" d="M0,-3.0v7 M-2.5,-0.5L0,-3.0L2.5,-0.5"/>
                </g>
               <g id="resetDef">
                       <use xlink:href="#rim2" fill="#404040">
                               <set attributeName="fill" to="#808080" begin="reset.mouseover" end="reset.mouseout"/>
                       </use>
               </g>
        </defs>

<script type="text/javascript">
var viewWidth = 1396;
var viewHeight = 442;
var sectionId = 'dynsection-0';
</script>
<script xlink:href="svgpan.js"/>
<svg id="graph" class="graph">
<g id="viewport">
<title>angle_harmonic.hpp</title>
<!-- Node1 -->
<g id="node1" class="node">
<title>Node1</title>
<g id="a_node1"><a xlink:title=" ">
<polygon fill="#bfbfbf" stroke="black" points="398.47,-414.5 398.47,-433.5 514.47,-433.5 514.47,-414.5 398.47,-414.5"/>
<text text-anchor="middle" x="456.47" y="-421.5" font-family="Helvetica,sans-Serif" font-size="10.00">angle_harmonic.hpp</text>
</a>
</g>
</g>
<!-- Node2 -->
<g id="node2" class="node">
<title>Node2</title>
<g id="a_node2"><a xlink:href="angle__common_8hpp.html" target="_top" xlink:title=" ">
<polygon fill="none" stroke="black" points="799.97,-358.5 799.97,-377.5 912.97,-377.5 912.97,-358.5 799.97,-358.5"/>
<text text-anchor="middle" x="856.47" y="-365.5" font-family="Helvetica,sans-Serif" font-size="10.00">angle_common.hpp</text>
</a>
</g>
</g>
<!-- Node1&#45;&gt;Node2 -->
<g id="edge1" class="edge">
<title>Node1&#45;&gt;Node2</title>
<path fill="none" stroke="midnightblue" d="M514.64,-415.15C587.73,-405.28 712.91,-388.38 789.8,-378"/>
<polygon fill="midnightblue" stroke="midnightblue" points="790.41,-381.45 799.86,-376.64 789.48,-374.51 790.41,-381.45"/>
</g>
<!-- Node8 -->
<g id="node8" class="node">
<title>Node8</title>
<g id="a_node8"><a xlink:title=" ">
<polygon fill="none" stroke="#bfbfbf" points="72.97,-123.5 72.97,-142.5 119.97,-142.5 119.97,-123.5 72.97,-123.5"/>
<text text-anchor="middle" x="96.47" y="-130.5" font-family="Helvetica,sans-Serif" font-size="10.00">cmath</text>
</a>
</g>
</g>
<!-- Node1&#45;&gt;Node8 -->
<g id="edge49" class="edge">
<title>Node1&#45;&gt;Node8</title>
<path fill="none" stroke="midnightblue" d="M398.26,-421.1C275.32,-415.5 0.47,-393.93 0.47,-313 0.47,-313 0.47,-313 0.47,-255 0.47,-220.18 -1.42,-206.86 19.47,-179 30.55,-164.23 48.02,-153.45 63.51,-146.16"/>
<polygon fill="midnightblue" stroke="midnightblue" points="65.09,-149.29 72.83,-142.06 62.27,-142.88 65.09,-149.29"/>
</g>
<!-- Node11 -->
<g id="node11" class="node">
<title>Node11</title>
<g id="a_node11"><a xlink:href="Vector_8hpp.html" target="_top" xlink:title=" ">
<polygon fill="none" stroke="black" points="694.97,-185 694.97,-204 787.97,-204 787.97,-185 694.97,-185"/>
<text text-anchor="middle" x="741.47" y="-192" font-family="Helvetica,sans-Serif" font-size="10.00">utils/Vector.hpp</text>
</a>
</g>
</g>
<!-- Node1&#45;&gt;Node11 -->
<g id="edge46" class="edge">
<title>Node1&#45;&gt;Node11</title>
<path fill="none" stroke="midnightblue" d="M454.22,-414.2C447.48,-385.64 430.63,-294.61 475.47,-246 503.06,-216.09 614.97,-203.54 684.55,-198.55"/>
<polygon fill="midnightblue" stroke="midnightblue" points="685.18,-202.01 694.91,-197.84 684.7,-195.03 685.18,-202.01"/>
</g>
<!-- Node19 -->
<g id="node19" class="node">
<title>Node19</title>
<g id="a_node19"><a xlink:title=" ">
<polygon fill="none" stroke="#bfbfbf" points="1329.97,-0.5 1329.97,-19.5 1370.97,-19.5 1370.97,-0.5 1329.97,-0.5"/>
<text text-anchor="middle" x="1350.47" y="-7.5" font-family="Helvetica,sans-Serif" font-size="10.00">tuple</text>
</a>
</g>
</g>
<!-- Node1&#45;&gt;Node19 -->
<g id="edge50" class="edge">
<title>Node1&#45;&gt;Node19</title>
<path fill="none" stroke="midnightblue" d="M514.77,-422.27C718.81,-418.97 1388.47,-401.39 1388.47,-313 1388.47,-313 1388.47,-313 1388.47,-132 1388.47,-93.81 1371.03,-51.83 1359.78,-28.72"/>
<polygon fill="midnightblue" stroke="midnightblue" points="1362.76,-26.86 1355.13,-19.52 1356.51,-30.02 1362.76,-26.86"/>
</g>
<!-- Node33 -->
<g id="node33" class="node">
<title>Node33</title>
<g id="a_node33"><a xlink:href="sqr_8hpp.html" target="_top" xlink:title=" ">
<polygon fill="none" stroke="black" points="301.97,-358.5 301.97,-377.5 406.97,-377.5 406.97,-358.5 301.97,-358.5"/>
<text text-anchor="middle" x="354.47" y="-365.5" font-family="Helvetica,sans-Serif" font-size="10.00">utils/math/sqr.hpp</text>
</a>
</g>
</g>
<!-- Node1&#45;&gt;Node33 -->
<g id="edge47" class="edge">
<title>Node1&#45;&gt;Node33</title>
<path fill="none" stroke="midnightblue" d="M440.08,-414.32C423.8,-405.7 398.6,-392.36 379.76,-382.39"/>
<polygon fill="midnightblue" stroke="midnightblue" points="381.3,-379.24 370.82,-377.65 378.02,-385.43 381.3,-379.24"/>
</g>
<!-- Node3 -->
<g id="node3" class="node">
<title>Node3</title>
<g id="a_node3"><a xlink:href="config_8hpp.html" target="_top" xlink:title=" ">
<polygon fill="none" stroke="black" points="822.47,-302.5 822.47,-321.5 890.47,-321.5 890.47,-302.5 822.47,-302.5"/>
<text text-anchor="middle" x="856.47" y="-309.5" font-family="Helvetica,sans-Serif" font-size="10.00">config.hpp</text>
</a>
</g>
</g>
<!-- Node2&#45;&gt;Node3 -->
<g id="edge2" class="edge">
<title>Node2&#45;&gt;Node3</title>
<path fill="none" stroke="midnightblue" d="M856.47,-358.08C856.47,-351.01 856.47,-340.86 856.47,-331.99"/>
<polygon fill="midnightblue" stroke="midnightblue" points="859.97,-331.75 856.47,-321.75 852.97,-331.75 859.97,-331.75"/>
</g>
<!-- Node5 -->
<g id="node5" class="node">
<title>Node5</title>
<g id="a_node5"><a xlink:href="grid_8hpp.html" target="_top" xlink:title=" ">
<polygon fill="none" stroke="black" points="644.47,-302.5 644.47,-321.5 700.47,-321.5 700.47,-302.5 644.47,-302.5"/>
<text text-anchor="middle" x="672.47" y="-309.5" font-family="Helvetica,sans-Serif" font-size="10.00">grid.hpp</text>
</a>
</g>
</g>
<!-- Node2&#45;&gt;Node5 -->
<g id="edge4" class="edge">
<title>Node2&#45;&gt;Node5</title>
<path fill="none" stroke="midnightblue" d="M827.32,-358.44C795.68,-349.16 745.06,-334.3 710.36,-324.12"/>
<polygon fill="midnightblue" stroke="midnightblue" points="711.17,-320.71 700.59,-321.25 709.2,-327.43 711.17,-320.71"/>
</g>
<!-- Node2&#45;&gt;Node11 -->
<g id="edge44" class="edge">
<title>Node2&#45;&gt;Node11</title>
<path fill="none" stroke="midnightblue" d="M867.81,-358.24C893.28,-337.53 950.57,-284.39 921.47,-246 906.49,-226.24 845.28,-212.08 798.35,-203.87"/>
<polygon fill="midnightblue" stroke="midnightblue" points="798.72,-200.38 788.28,-202.16 797.55,-207.29 798.72,-200.38"/>
</g>
<!-- Node2&#45;&gt;Node19 -->
<g id="edge45" class="edge">
<title>Node2&#45;&gt;Node19</title>
<path fill="none" stroke="midnightblue" d="M913.14,-366.23C1042.9,-362.93 1350.47,-345.74 1350.47,-257 1350.47,-257 1350.47,-257 1350.47,-132 1350.47,-95.71 1350.47,-53.31 1350.47,-29.56"/>
<polygon fill="midnightblue" stroke="midnightblue" points="1353.97,-29.51 1350.47,-19.51 1346.97,-29.51 1353.97,-29.51"/>
</g>
<!-- Node4 -->
<g id="node4" class="node">
<title>Node4</title>
<g id="a_node4"><a xlink:title=" ">
<polygon fill="none" stroke="#bfbfbf" points="800.47,-246.5 800.47,-265.5 912.47,-265.5 912.47,-246.5 800.47,-246.5"/>
<text text-anchor="middle" x="856.47" y="-253.5" font-family="Helvetica,sans-Serif" font-size="10.00">config&#45;features.hpp</text>
</a>
</g>
</g>
<!-- Node3&#45;&gt;Node4 -->
<g id="edge3" class="edge">
<title>Node3&#45;&gt;Node4</title>
<path fill="none" stroke="midnightblue" d="M856.47,-302.08C856.47,-295.01 856.47,-284.86 856.47,-275.99"/>
<polygon fill="midnightblue" stroke="midnightblue" points="859.97,-275.75 856.47,-265.75 852.97,-275.75 859.97,-275.75"/>
</g>
<!-- Node6 -->
<g id="node6" class="node">
<title>Node6</title>
<g id="a_node6"><a xlink:href="BoxGeometry_8hpp.html" target="_top" xlink:title=" ">
<polygon fill="none" stroke="black" points="126.47,-246.5 126.47,-265.5 230.47,-265.5 230.47,-246.5 126.47,-246.5"/>
<text text-anchor="middle" x="178.47" y="-253.5" font-family="Helvetica,sans-Serif" font-size="10.00">BoxGeometry.hpp</text>
</a>
</g>
</g>
<!-- Node5&#45;&gt;Node6 -->
<g id="edge5" class="edge">
<title>Node5&#45;&gt;Node6</title>
<path fill="none" stroke="midnightblue" d="M644.14,-307.9C566.48,-299.41 348.86,-275.63 240.87,-263.82"/>
<polygon fill="midnightblue" stroke="midnightblue" points="241.09,-260.32 230.77,-262.72 240.33,-267.28 241.09,-260.32"/>
</g>
<!-- Node5&#45;&gt;Node11 -->
<g id="edge42" class="edge">
<title>Node5&#45;&gt;Node11</title>
<path fill="none" stroke="midnightblue" d="M673.59,-302.47C675.59,-289.51 680.61,-264.44 691.47,-246 699.38,-232.58 711.65,-220.11 722.05,-210.93"/>
<polygon fill="midnightblue" stroke="midnightblue" points="724.51,-213.43 729.88,-204.3 719.98,-208.09 724.51,-213.43"/>
</g>
<!-- Node31 -->
<g id="node31" class="node">
<title>Node31</title>
<g id="a_node31"><a xlink:href="LocalBox_8hpp.html" target="_top" xlink:title=" ">
<polygon fill="none" stroke="black" points="700.47,-246.5 700.47,-265.5 782.47,-265.5 782.47,-246.5 700.47,-246.5"/>
<text text-anchor="middle" x="741.47" y="-253.5" font-family="Helvetica,sans-Serif" font-size="10.00">LocalBox.hpp</text>
</a>
</g>
</g>
<!-- Node5&#45;&gt;Node31 -->
<g id="edge40" class="edge">
<title>Node5&#45;&gt;Node31</title>
<path fill="none" stroke="midnightblue" d="M683.56,-302.32C693.96,-294.18 709.73,-281.84 722.19,-272.09"/>
<polygon fill="midnightblue" stroke="midnightblue" points="724.47,-274.75 730.18,-265.83 720.15,-269.24 724.47,-274.75"/>
</g>
<!-- Node32 -->
<g id="node32" class="node">
<title>Node32</title>
<g id="a_node32"><a xlink:title=" ">
<polygon fill="none" stroke="#bfbfbf" points="484.47,-246.5 484.47,-265.5 644.47,-265.5 644.47,-246.5 484.47,-246.5"/>
<text text-anchor="middle" x="564.47" y="-253.5" font-family="Helvetica,sans-Serif" font-size="10.00">boost/mpi/communicator.hpp</text>
</a>
</g>
</g>
<!-- Node5&#45;&gt;Node32 -->
<g id="edge43" class="edge">
<title>Node5&#45;&gt;Node32</title>
<path fill="none" stroke="midnightblue" d="M655.12,-302.32C637.8,-293.66 610.96,-280.24 590.97,-270.25"/>
<polygon fill="midnightblue" stroke="midnightblue" points="592.29,-267 581.78,-265.65 589.16,-273.26 592.29,-267"/>
</g>
<!-- Node7 -->
<g id="node7" class="node">
<title>Node7</title>
<g id="a_node7"><a xlink:href="periodic__fold_8hpp.html" target="_top" xlink:title=" ">
<polygon fill="none" stroke="black" points="166.47,-179.5 166.47,-209.5 272.47,-209.5 272.47,-179.5 166.47,-179.5"/>
<text text-anchor="start" x="174.47" y="-197.5" font-family="Helvetica,sans-Serif" font-size="10.00">algorithm/periodic</text>
<text text-anchor="middle" x="219.47" y="-186.5" font-family="Helvetica,sans-Serif" font-size="10.00">_fold.hpp</text>
</a>
</g>
</g>
<!-- Node6&#45;&gt;Node7 -->
<g id="edge6" class="edge">
<title>Node6&#45;&gt;Node7</title>
<path fill="none" stroke="midnightblue" d="M184.35,-246.48C189.48,-239.02 197.18,-227.85 204.06,-217.87"/>
<polygon fill="midnightblue" stroke="midnightblue" points="207.02,-219.74 209.81,-209.52 201.25,-215.77 207.02,-219.74"/>
</g>
<!-- Node6&#45;&gt;Node8 -->
<g id="edge37" class="edge">
<title>Node6&#45;&gt;Node8</title>
<path fill="none" stroke="midnightblue" d="M172.57,-246.3C159.1,-226.41 125.85,-177.35 108.09,-151.15"/>
<polygon fill="midnightblue" stroke="midnightblue" points="110.82,-148.94 102.32,-142.62 105.03,-152.86 110.82,-148.94"/>
</g>
<!-- Node9 -->
<g id="node9" class="node">
<title>Node9</title>
<g id="a_node9"><a xlink:title=" ">
<polygon fill="none" stroke="#bfbfbf" points="138.47,-123.5 138.47,-142.5 182.47,-142.5 182.47,-123.5 138.47,-123.5"/>
<text text-anchor="middle" x="160.47" y="-130.5" font-family="Helvetica,sans-Serif" font-size="10.00">limits</text>
</a>
</g>
</g>
<!-- Node6&#45;&gt;Node9 -->
<g id="edge38" class="edge">
<title>Node6&#45;&gt;Node9</title>
<path fill="none" stroke="midnightblue" d="M173.09,-246.44C167.92,-237.68 160.46,-223.47 157.47,-210 153.19,-190.71 154.94,-167.99 157.13,-152.46"/>
<polygon fill="midnightblue" stroke="midnightblue" points="160.59,-152.99 158.73,-142.56 153.68,-151.88 160.59,-152.99"/>
</g>
<!-- Node10 -->
<g id="node10" class="node">
<title>Node10</title>
<g id="a_node10"><a xlink:title=" ">
<polygon fill="none" stroke="#bfbfbf" points="200.97,-123.5 200.97,-142.5 245.97,-142.5 245.97,-123.5 200.97,-123.5"/>
<text text-anchor="middle" x="223.47" y="-130.5" font-family="Helvetica,sans-Serif" font-size="10.00">utility</text>
</a>
</g>
</g>
<!-- Node6&#45;&gt;Node10 -->
<g id="edge39" class="edge">
<title>Node6&#45;&gt;Node10</title>
<path fill="none" stroke="midnightblue" d="M225.8,-246.42C246.57,-240.05 269.02,-229.02 281.47,-210 289.02,-198.47 287.53,-191.37 281.47,-179 274.95,-165.68 262.38,-155.18 250.6,-147.68"/>
<polygon fill="midnightblue" stroke="midnightblue" points="252.25,-144.59 241.86,-142.53 248.7,-150.62 252.25,-144.59"/>
</g>
<!-- Node6&#45;&gt;Node11 -->
<g id="edge10" class="edge">
<title>Node6&#45;&gt;Node11</title>
<path fill="none" stroke="midnightblue" d="M230.68,-249.48C336.44,-238.3 575.23,-213.07 684.7,-201.5"/>
<polygon fill="midnightblue" stroke="midnightblue" points="685.31,-204.96 694.88,-200.42 684.57,-197.99 685.31,-204.96"/>
</g>
<!-- Node16 -->
<g id="node16" class="node">
<title>Node16</title>
<g id="a_node16"><a xlink:title=" ">
<polygon fill="none" stroke="#bfbfbf" points="291.47,-0.5 291.47,-19.5 343.47,-19.5 343.47,-0.5 291.47,-0.5"/>
<text text-anchor="middle" x="317.47" y="-7.5" font-family="Helvetica,sans-Serif" font-size="10.00">cassert</text>
</a>
</g>
</g>
<!-- Node6&#45;&gt;Node16 -->
<g id="edge36" class="edge">
<title>Node6&#45;&gt;Node16</title>
<path fill="none" stroke="midnightblue" d="M126.35,-247.14C85.16,-239.74 32.49,-227.22 19.47,-210 11.16,-199.01 14.97,-192.02 19.47,-179 57.33,-69.55 210.4,-29.37 281.21,-16.43"/>
<polygon fill="midnightblue" stroke="midnightblue" points="282.19,-19.81 291.44,-14.65 280.99,-12.92 282.19,-19.81"/>
</g>
<!-- Node30 -->
<g id="node30" class="node">
<title>Node30</title>
<g id="a_node30"><a xlink:title=" ">
<polygon fill="none" stroke="#bfbfbf" points="28.47,-185 28.47,-204 72.47,-204 72.47,-185 28.47,-185"/>
<text text-anchor="middle" x="50.47" y="-192" font-family="Helvetica,sans-Serif" font-size="10.00">bitset</text>
</a>
</g>
</g>
<!-- Node6&#45;&gt;Node30 -->
<g id="edge35" class="edge">
<title>Node6&#45;&gt;Node30</title>
<path fill="none" stroke="midnightblue" d="M160.13,-246.48C138.65,-236.49 102.85,-219.85 78.02,-208.31"/>
<polygon fill="midnightblue" stroke="midnightblue" points="79.32,-205.05 68.78,-204.01 76.37,-211.4 79.32,-205.05"/>
</g>
<!-- Node7&#45;&gt;Node8 -->
<g id="edge7" class="edge">
<title>Node7&#45;&gt;Node8</title>
<path fill="none" stroke="midnightblue" d="M190.32,-179.4C170.05,-169.59 143.23,-156.62 123.45,-147.05"/>
<polygon fill="midnightblue" stroke="midnightblue" points="124.9,-143.86 114.37,-142.66 121.85,-150.16 124.9,-143.86"/>
</g>
<!-- Node7&#45;&gt;Node9 -->
<g id="edge8" class="edge">
<title>Node7&#45;&gt;Node9</title>
<path fill="none" stroke="midnightblue" d="M205.49,-179.4C196.74,-170.58 185.44,-159.18 176.36,-150.02"/>
<polygon fill="midnightblue" stroke="midnightblue" points="178.58,-147.29 169.06,-142.66 173.61,-152.22 178.58,-147.29"/>
</g>
<!-- Node7&#45;&gt;Node10 -->
<g id="edge9" class="edge">
<title>Node7&#45;&gt;Node10</title>
<path fill="none" stroke="midnightblue" d="M220.42,-179.4C220.95,-171.47 221.63,-161.46 222.2,-152.86"/>
<polygon fill="midnightblue" stroke="midnightblue" points="225.71,-152.87 222.89,-142.66 218.73,-152.4 225.71,-152.87"/>
</g>
<!-- Node11&#45;&gt;Node8 -->
<g id="edge27" class="edge">
<title>Node11&#45;&gt;Node8</title>
<path fill="none" stroke="midnightblue" d="M694.65,-192.57C593.25,-189.91 345.79,-180.05 130.07,-142.76"/>
<polygon fill="midnightblue" stroke="midnightblue" points="130.6,-139.3 120.15,-141.02 129.39,-146.19 130.6,-139.3"/>
</g>
<!-- Node12 -->
<g id="node12" class="node">
<title>Node12</title>
<g id="a_node12"><a xlink:title=" ">
<polygon fill="none" stroke="#bfbfbf" points="405.47,-123.5 405.47,-142.5 555.47,-142.5 555.47,-123.5 405.47,-123.5"/>
<text text-anchor="middle" x="480.47" y="-130.5" font-family="Helvetica,sans-Serif" font-size="10.00">boost/qvm/deduce_vec.hpp</text>
</a>
</g>
</g>
<!-- Node11&#45;&gt;Node12 -->
<g id="edge11" class="edge">
<title>Node11&#45;&gt;Node12</title>
<path fill="none" stroke="midnightblue" d="M704.08,-184.98C657.66,-174.39 578.45,-156.34 527.83,-144.8"/>
<polygon fill="midnightblue" stroke="midnightblue" points="528.33,-141.32 517.8,-142.51 526.77,-148.14 528.33,-141.32"/>
</g>
<!-- Node13 -->
<g id="node13" class="node">
<title>Node13</title>
<g id="a_node13"><a xlink:title=" ">
<polygon fill="none" stroke="#bfbfbf" points="573.47,-123.5 573.47,-142.5 713.47,-142.5 713.47,-123.5 573.47,-123.5"/>
<text text-anchor="middle" x="643.47" y="-130.5" font-family="Helvetica,sans-Serif" font-size="10.00">boost/qvm/vec_traits.hpp</text>
</a>
</g>
</g>
<!-- Node11&#45;&gt;Node13 -->
<g id="edge12" class="edge">
<title>Node11&#45;&gt;Node13</title>
<path fill="none" stroke="midnightblue" d="M727.43,-184.98C711.42,-175.25 685.02,-159.23 666.1,-147.74"/>
<polygon fill="midnightblue" stroke="midnightblue" points="667.85,-144.71 657.49,-142.51 664.22,-150.69 667.85,-144.71"/>
</g>
<!-- Node14 -->
<g id="node14" class="node">
<title>Node14</title>
<g id="a_node14"><a xlink:href="Array_8hpp.html" target="_top" xlink:title=" ">
<polygon fill="none" stroke="black" points="769.47,-123.5 769.47,-142.5 855.47,-142.5 855.47,-123.5 769.47,-123.5"/>
<text text-anchor="middle" x="812.47" y="-130.5" font-family="Helvetica,sans-Serif" font-size="10.00">utils/Array.hpp</text>
</a>
</g>
</g>
<!-- Node11&#45;&gt;Node14 -->
<g id="edge13" class="edge">
<title>Node11&#45;&gt;Node14</title>
<path fill="none" stroke="midnightblue" d="M751.64,-184.98C762.82,-175.61 780.99,-160.38 794.56,-149.01"/>
<polygon fill="midnightblue" stroke="midnightblue" points="796.9,-151.61 802.32,-142.51 792.41,-146.25 796.9,-151.61"/>
</g>
<!-- Node11&#45;&gt;Node16 -->
<g id="edge26" class="edge">
<title>Node11&#45;&gt;Node16</title>
<path fill="none" stroke="midnightblue" d="M694.86,-192.46C600.9,-189.6 392.59,-179.25 332.47,-143 306.5,-127.34 302.56,-115.94 293.47,-87 289.35,-73.85 290.13,-69.37 293.47,-56 295.91,-46.25 300.91,-36.29 305.72,-28.23"/>
<polygon fill="midnightblue" stroke="midnightblue" points="308.69,-30.08 311.11,-19.77 302.78,-26.32 308.69,-30.08"/>
</g>
<!-- Node18 -->
<g id="node18" class="node">
<title>Node18</title>
<g id="a_node18"><a xlink:title=" ">
<polygon fill="none" stroke="#bfbfbf" points="752.97,-0.5 752.97,-19.5 805.97,-19.5 805.97,-0.5 752.97,-0.5"/>
<text text-anchor="middle" x="779.47" y="-7.5" font-family="Helvetica,sans-Serif" font-size="10.00">cstddef</text>
</a>
</g>
</g>
<!-- Node11&#45;&gt;Node18 -->
<g id="edge28" class="edge">
<title>Node11&#45;&gt;Node18</title>
<path fill="none" stroke="midnightblue" d="M743.31,-184.7C749.16,-156.57 767.51,-68.46 775.59,-29.66"/>
<polygon fill="midnightblue" stroke="midnightblue" points="779.05,-30.22 777.66,-19.71 772.19,-28.79 779.05,-30.22"/>
</g>
<!-- Node21 -->
<g id="node21" class="node">
<title>Node21</title>
<g id="a_node21"><a xlink:title=" ">
<polygon fill="none" stroke="#bfbfbf" points="1215.97,-62 1215.97,-81 1268.97,-81 1268.97,-62 1215.97,-62"/>
<text text-anchor="middle" x="1242.47" y="-69" font-family="Helvetica,sans-Serif" font-size="10.00">iterator</text>
</a>
</g>
</g>
<!-- Node11&#45;&gt;Node21 -->
<g id="edge31" class="edge">
<title>Node11&#45;&gt;Node21</title>
<path fill="none" stroke="midnightblue" d="M788.4,-192.75C915.59,-190.22 1259.7,-180.01 1293.47,-143 1309.87,-125.04 1285.47,-101.78 1265.1,-87"/>
<polygon fill="midnightblue" stroke="midnightblue" points="1266.97,-84.03 1256.75,-81.22 1262.98,-89.79 1266.97,-84.03"/>
</g>
<!-- Node24 -->
<g id="node24" class="node">
<title>Node24</title>
<g id="a_node24"><a xlink:title=" ">
<polygon fill="none" stroke="#bfbfbf" points="873.47,-123.5 873.47,-142.5 937.47,-142.5 937.47,-123.5 873.47,-123.5"/>
<text text-anchor="middle" x="905.47" y="-130.5" font-family="Helvetica,sans-Serif" font-size="10.00">algorithm</text>
</a>
</g>
</g>
<!-- Node11&#45;&gt;Node24 -->
<g id="edge25" class="edge">
<title>Node11&#45;&gt;Node24</title>
<path fill="none" stroke="midnightblue" d="M764.97,-184.98C793.1,-174.77 840.4,-157.61 872.26,-146.05"/>
<polygon fill="midnightblue" stroke="midnightblue" points="873.81,-149.21 882.02,-142.51 871.42,-142.63 873.81,-149.21"/>
</g>
<!-- Node25 -->
<g id="node25" class="node">
<title>Node25</title>
<g id="a_node25"><a xlink:title=" ">
<polygon fill="none" stroke="#bfbfbf" points="955.97,-123.5 955.97,-142.5 1020.97,-142.5 1020.97,-123.5 955.97,-123.5"/>
<text text-anchor="middle" x="988.47" y="-130.5" font-family="Helvetica,sans-Serif" font-size="10.00">functional</text>
</a>
</g>
</g>
<!-- Node11&#45;&gt;Node25 -->
<g id="edge29" class="edge">
<title>Node11&#45;&gt;Node25</title>
<path fill="none" stroke="midnightblue" d="M776.86,-184.98C821.57,-174.21 898.42,-155.69 946.18,-144.19"/>
<polygon fill="midnightblue" stroke="midnightblue" points="947,-147.59 955.91,-141.85 945.36,-140.78 947,-147.59"/>
</g>
<!-- Node26 -->
<g id="node26" class="node">
<title>Node26</title>
<g id="a_node26"><a xlink:title=" ">
<polygon fill="none" stroke="#bfbfbf" points="1038.97,-123.5 1038.97,-142.5 1121.97,-142.5 1121.97,-123.5 1038.97,-123.5"/>
<text text-anchor="middle" x="1080.47" y="-130.5" font-family="Helvetica,sans-Serif" font-size="10.00">initializer_list</text>
</a>
</g>
</g>
<!-- Node11&#45;&gt;Node26 -->
<g id="edge30" class="edge">
<title>Node11&#45;&gt;Node26</title>
<path fill="none" stroke="midnightblue" d="M788.04,-185.44C843.15,-175.88 938,-159.38 1028.82,-143.29"/>
<polygon fill="midnightblue" stroke="midnightblue" points="1029.5,-146.72 1038.73,-141.53 1028.28,-139.83 1029.5,-146.72"/>
</g>
<!-- Node27 -->
<g id="node27" class="node">
<title>Node27</title>
<g id="a_node27"><a xlink:title=" ">
<polygon fill="none" stroke="#bfbfbf" points="1140.47,-123.5 1140.47,-142.5 1196.47,-142.5 1196.47,-123.5 1140.47,-123.5"/>
<text text-anchor="middle" x="1168.47" y="-130.5" font-family="Helvetica,sans-Serif" font-size="10.00">numeric</text>
</a>
</g>
</g>
<!-- Node11&#45;&gt;Node27 -->
<g id="edge32" class="edge">
<title>Node11&#45;&gt;Node27</title>
<path fill="none" stroke="midnightblue" d="M788.26,-189.12C859.86,-182.05 1001.06,-166.66 1130.19,-143.06"/>
<polygon fill="midnightblue" stroke="midnightblue" points="1131.06,-146.46 1140.26,-141.2 1129.79,-139.58 1131.06,-146.46"/>
</g>
<!-- Node28 -->
<g id="node28" class="node">
<title>Node28</title>
<g id="a_node28"><a xlink:title=" ">
<polygon fill="none" stroke="#bfbfbf" points="1214.97,-123.5 1214.97,-142.5 1283.97,-142.5 1283.97,-123.5 1214.97,-123.5"/>
<text text-anchor="middle" x="1249.47" y="-130.5" font-family="Helvetica,sans-Serif" font-size="10.00">type_traits</text>
</a>
</g>
</g>
<!-- Node11&#45;&gt;Node28 -->
<g id="edge33" class="edge">
<title>Node11&#45;&gt;Node28</title>
<path fill="none" stroke="midnightblue" d="M788.09,-189.88C870.21,-183.18 1046.15,-167.41 1204.99,-142.93"/>
<polygon fill="midnightblue" stroke="midnightblue" points="1205.6,-146.38 1214.94,-141.38 1204.52,-139.46 1205.6,-146.38"/>
</g>
<!-- Node29 -->
<g id="node29" class="node">
<title>Node29</title>
<g id="a_node29"><a xlink:title=" ">
<polygon fill="none" stroke="#bfbfbf" points="340.97,-123.5 340.97,-142.5 387.97,-142.5 387.97,-123.5 340.97,-123.5"/>
<text text-anchor="middle" x="364.47" y="-130.5" font-family="Helvetica,sans-Serif" font-size="10.00">vector</text>
</a>
</g>
</g>
<!-- Node11&#45;&gt;Node29 -->
<g id="edge34" class="edge">
<title>Node11&#45;&gt;Node29</title>
<path fill="none" stroke="midnightblue" d="M694.82,-188.6C630.14,-181.39 509.49,-166.41 398.2,-143.16"/>
<polygon fill="midnightblue" stroke="midnightblue" points="398.66,-139.67 388.15,-141.03 397.21,-146.52 398.66,-139.67"/>
</g>
<!-- Node15 -->
<g id="node15" class="node">
<title>Node15</title>
<g id="a_node15"><a xlink:href="device__qualifier_8hpp.html" target="_top" xlink:title=" ">
<polygon fill="none" stroke="black" points="302.47,-62 302.47,-81 418.47,-81 418.47,-62 302.47,-62"/>
<text text-anchor="middle" x="360.47" y="-69" font-family="Helvetica,sans-Serif" font-size="10.00">device_qualifier.hpp</text>
</a>
</g>
</g>
<!-- Node14&#45;&gt;Node15 -->
<g id="edge14" class="edge">
<title>Node14&#45;&gt;Node15</title>
<path fill="none" stroke="midnightblue" d="M769.13,-126.29C690.25,-115.91 522.7,-93.85 428.47,-81.45"/>
<polygon fill="midnightblue" stroke="midnightblue" points="428.84,-77.97 418.47,-80.13 427.93,-84.91 428.84,-77.97"/>
</g>
<!-- Node14&#45;&gt;Node16 -->
<g id="edge20" class="edge">
<title>Node14&#45;&gt;Node16</title>
<path fill="none" stroke="midnightblue" d="M777.66,-123.49C687.18,-101.37 445.26,-42.24 353.47,-19.8"/>
<polygon fill="midnightblue" stroke="midnightblue" points="354.09,-16.35 343.54,-17.37 352.42,-23.15 354.09,-16.35"/>
</g>
<!-- Node17 -->
<g id="node17" class="node">
<title>Node17</title>
<g id="a_node17"><a xlink:href="get_8hpp.html" target="_top" xlink:title=" ">
<polygon fill="none" stroke="black" points="1090.97,-62 1090.97,-81 1143.97,-81 1143.97,-62 1090.97,-62"/>
<text text-anchor="middle" x="1117.47" y="-69" font-family="Helvetica,sans-Serif" font-size="10.00">get.hpp</text>
</a>
</g>
</g>
<!-- Node14&#45;&gt;Node17 -->
<g id="edge16" class="edge">
<title>Node14&#45;&gt;Node17</title>
<path fill="none" stroke="midnightblue" d="M855.6,-124.51C858.6,-124 861.58,-123.49 864.47,-123 961.3,-106.63 988.05,-113.97 1082.47,-87 1084.77,-86.34 1087.11,-85.58 1089.45,-84.76"/>
<polygon fill="midnightblue" stroke="midnightblue" points="1090.79,-88 1098.86,-81.14 1088.27,-81.46 1090.79,-88"/>
</g>
<!-- Node14&#45;&gt;Node18 -->
<g id="edge21" class="edge">
<title>Node14&#45;&gt;Node18</title>
<path fill="none" stroke="midnightblue" d="M809.92,-123.39C807.25,-114.35 802.98,-99.7 799.47,-87 794.1,-67.53 788.25,-45.16 784.27,-29.75"/>
<polygon fill="midnightblue" stroke="midnightblue" points="787.62,-28.72 781.74,-19.91 780.84,-30.47 787.62,-28.72"/>
</g>
<!-- Node20 -->
<g id="node20" class="node">
<title>Node20</title>
<g id="a_node20"><a xlink:title=" ">
<polygon fill="none" stroke="#bfbfbf" points="807.97,-56.5 807.97,-86.5 914.97,-86.5 914.97,-56.5 807.97,-56.5"/>
<text text-anchor="start" x="815.97" y="-74.5" font-family="Helvetica,sans-Serif" font-size="10.00">boost/serialization</text>
<text text-anchor="middle" x="861.47" y="-63.5" font-family="Helvetica,sans-Serif" font-size="10.00">/access.hpp</text>
</a>
</g>
</g>
<!-- Node14&#45;&gt;Node20 -->
<g id="edge19" class="edge">
<title>Node14&#45;&gt;Node20</title>
<path fill="none" stroke="midnightblue" d="M819.49,-123.48C825.76,-115.87 835.2,-104.4 843.55,-94.26"/>
<polygon fill="midnightblue" stroke="midnightblue" points="846.27,-96.47 849.92,-86.52 840.87,-92.02 846.27,-96.47"/>
</g>
<!-- Node14&#45;&gt;Node21 -->
<g id="edge22" class="edge">
<title>Node14&#45;&gt;Node21</title>
<path fill="none" stroke="midnightblue" d="M855.58,-124.38C858.58,-123.9 861.57,-123.43 864.47,-123 992.5,-103.96 1025.35,-105.41 1153.47,-87 1170.63,-84.53 1189.6,-81.49 1205.6,-78.83"/>
<polygon fill="midnightblue" stroke="midnightblue" points="1206.36,-82.25 1215.64,-77.14 1205.2,-75.34 1206.36,-82.25"/>
</g>
<!-- Node22 -->
<g id="node22" class="node">
<title>Node22</title>
<g id="a_node22"><a xlink:title=" ">
<polygon fill="none" stroke="#bfbfbf" points="932.97,-62 932.97,-81 989.97,-81 989.97,-62 932.97,-62"/>
<text text-anchor="middle" x="961.47" y="-69" font-family="Helvetica,sans-Serif" font-size="10.00">ostream</text>
</a>
</g>
</g>
<!-- Node14&#45;&gt;Node22 -->
<g id="edge23" class="edge">
<title>Node14&#45;&gt;Node22</title>
<path fill="none" stroke="midnightblue" d="M833.82,-123.48C859.16,-113.36 901.61,-96.4 930.54,-84.85"/>
<polygon fill="midnightblue" stroke="midnightblue" points="932.17,-87.97 940.16,-81.01 929.58,-81.47 932.17,-87.97"/>
</g>
<!-- Node23 -->
<g id="node23" class="node">
<title>Node23</title>
<g id="a_node23"><a xlink:title=" ">
<polygon fill="none" stroke="#bfbfbf" points="1007.97,-62 1007.97,-81 1072.97,-81 1072.97,-62 1007.97,-62"/>
<text text-anchor="middle" x="1040.47" y="-69" font-family="Helvetica,sans-Serif" font-size="10.00">stdexcept</text>
</a>
</g>
</g>
<!-- Node14&#45;&gt;Node23 -->
<g id="edge24" class="edge">
<title>Node14&#45;&gt;Node23</title>
<path fill="none" stroke="midnightblue" d="M853.29,-123.46C891.39,-115.18 949.69,-101.75 999.47,-87 1002.25,-86.18 1005.13,-85.27 1008,-84.33"/>
<polygon fill="midnightblue" stroke="midnightblue" points="1009.29,-87.59 1017.62,-81.05 1007.03,-80.96 1009.29,-87.59"/>
</g>
<!-- Node15&#45;&gt;Node16 -->
<g id="edge15" class="edge">
<title>Node15&#45;&gt;Node16</title>
<path fill="none" stroke="midnightblue" d="M354.31,-61.98C347.86,-53.05 337.57,-38.81 329.5,-27.64"/>
<polygon fill="midnightblue" stroke="midnightblue" points="332.32,-25.56 323.62,-19.51 326.64,-29.66 332.32,-25.56"/>
</g>
<!-- Node17&#45;&gt;Node18 -->
<g id="edge17" class="edge">
<title>Node17&#45;&gt;Node18</title>
<path fill="none" stroke="midnightblue" d="M1099.24,-61.96C1093.93,-59.74 1088.05,-57.54 1082.47,-56 988.63,-30.02 874.02,-18.18 816.36,-13.55"/>
<polygon fill="midnightblue" stroke="midnightblue" points="816.51,-10.05 806.27,-12.76 815.97,-17.03 816.51,-10.05"/>
</g>
<!-- Node17&#45;&gt;Node19 -->
<g id="edge18" class="edge">
<title>Node17&#45;&gt;Node19</title>
<path fill="none" stroke="midnightblue" d="M1144.2,-63.67C1187.78,-52.55 1273.89,-30.56 1319.86,-18.82"/>
<polygon fill="midnightblue" stroke="midnightblue" points="1321.01,-22.14 1329.84,-16.27 1319.28,-15.35 1321.01,-22.14"/>
</g>
<!-- Node31&#45;&gt;Node11 -->
<g id="edge41" class="edge">
<title>Node31&#45;&gt;Node11</title>
<path fill="none" stroke="midnightblue" d="M741.47,-246.48C741.47,-238.08 741.47,-224.98 741.47,-214.16"/>
<polygon fill="midnightblue" stroke="midnightblue" points="744.97,-214.01 741.47,-204.01 737.97,-214.01 744.97,-214.01"/>
</g>
<!-- Node33&#45;&gt;Node15 -->
<g id="edge48" class="edge">
<title>Node33&#45;&gt;Node15</title>
<path fill="none" stroke="midnightblue" d="M351.63,-358.4C341.53,-326.59 309.25,-212.77 332.47,-123 335.56,-111.06 342.14,-98.94 348.15,-89.56"/>
<polygon fill="midnightblue" stroke="midnightblue" points="351.1,-91.45 353.82,-81.21 345.31,-87.52 351.1,-91.45"/>
</g>
</g>
</svg>
        <g id="navigator" transform="translate(0 0)" fill="#404254">
                <rect fill="#f2f5e9" fill-opacity="0.5" stroke="#606060" stroke-width=".5" x="0" y="0" width="60" height="60"/>
                <use id="zoomplus" xlink:href="#zoomPlus" x="17" y="9" onmousedown="handleZoom(evt,'in')"/>
                <use id="zoomminus" xlink:href="#zoomMin" x="42" y="9" onmousedown="handleZoom(evt,'out')"/>
                <use id="reset" xlink:href="#resetDef" x="30" y="36" onmousedown="handleReset()"/>
                <g id="arrowUp" xlink:href="#dirArrow" transform="translate(30 24)" onmousedown="handlePan(0,-1)">
                  <use xlink:href="#rim" fill="#404040">
                        <set attributeName="fill" to="#808080" begin="arrowUp.mouseover" end="arrowUp.mouseout"/>
                  </use>
                  <path fill="none" stroke="white" stroke-width="1.5" d="M0,-3.0v7 M-2.5,-0.5L0,-3.0L2.5,-0.5"/>
                </g>
                <g id="arrowRight" xlink:href="#dirArrow" transform="rotate(90) translate(36 -43)" onmousedown="handlePan(1,0)">
                  <use xlink:href="#rim" fill="#404040">
                        <set attributeName="fill" to="#808080" begin="arrowRight.mouseover" end="arrowRight.mouseout"/>
                  </use>
                  <path fill="none" stroke="white" stroke-width="1.5" d="M0,-3.0v7 M-2.5,-0.5L0,-3.0L2.5,-0.5"/>
                </g>
                <g id="arrowDown" xlink:href="#dirArrow" transform="rotate(180) translate(-30 -48)" onmousedown="handlePan(0,1)">
                  <use xlink:href="#rim" fill="#404040">
                        <set attributeName="fill" to="#808080" begin="arrowDown.mouseover" end="arrowDown.mouseout"/>
                  </use>
                  <path fill="none" stroke="white" stroke-width="1.5" d="M0,-3.0v7 M-2.5,-0.5L0,-3.0L2.5,-0.5"/>
                </g>
                <g id="arrowLeft" xlink:href="#dirArrow" transform="rotate(270) translate(-36 17)" onmousedown="handlePan(-1,0)">
                  <use xlink:href="#rim" fill="#404040">
                        <set attributeName="fill" to="#808080" begin="arrowLeft.mouseover" end="arrowLeft.mouseout"/>
                  </use>
                  <path fill="none" stroke="white" stroke-width="1.5" d="M0,-3.0v7 M-2.5,-0.5L0,-3.0L2.5,-0.5"/>
                </g>
        </g>
        <svg viewBox="0 0 15 15" width="100%" height="30px" preserveAspectRatio="xMaxYMin meet">
         <g id="arrow_out" transform="scale(0.3 0.3)">
          <a xlink:href="angle__harmonic_8hpp__incl_org.svg" target="_base">
           <rect id="button" ry="5" rx="5" y="6" x="6" height="38" width="38"
                fill="#f2f5e9" fill-opacity="0.5" stroke="#606060" stroke-width="1.0"/>
           <path id="arrow"
             d="M 11.500037,31.436501 C 11.940474,20.09759 22.043105,11.32322 32.158766,21.979434 L 37.068811,17.246167 C 37.068811,17.246167 37.088388,32 37.088388,32 L 22.160133,31.978069 C 22.160133,31.978069 26.997745,27.140456 26.997745,27.140456 C 18.528582,18.264221 13.291696,25.230495 11.500037,31.436501 z"
             style="fill:#404040;"/>
          </a>
         </g>
        </svg>
</svg>
