<?xml version="1.0" encoding="UTF-8" standalone="no"?>
<!DOCTYPE svg PUBLIC "-//W3C//DTD SVG 1.1//EN"
 "http://www.w3.org/Graphics/SVG/1.1/DTD/svg11.dtd">
<!-- Generated by graphviz version 2.43.0 (0)
 -->
<!-- Title: angle_common.hpp Pages: 1 -->
<!--zoomable 386 -->
<svg id="main" version="1.1" xmlns="http://www.w3.org/2000/svg" xmlns:xlink="http://www.w3.org/1999/xlink" xml:space="preserve" onload="init(evt)">
<style type="text/css"><![CDATA[
.edge:hover path { stroke: red; }
.edge:hover polygon { stroke: red; fill: red; }
]]></style>
<script type="text/javascript"><![CDATA[
var edges = document.getElementsByTagName('g');
if (edges && edges.length) {
  for (var i=0;i<edges.length;i++) {
    if (edges[i].id.substr(0,4)=='edge') {
      edges[i].setAttribute('class','edge');
    }
  }
}
]]></script>
        <defs>
                <circle id="rim" cx="0" cy="0" r="7"/>
                <circle id="rim2" cx="0" cy="0" r="3.5"/>
                <g id="zoomPlus">
                        <use xlink:href="#rim" fill="#404040">
                                <set attributeName="fill" to="#808080" begin="zoomplus.mouseover" end="zoomplus.mouseout"/>
                        </use>
                        <path d="M-4,0h8M0,-4v8" fill="none" stroke="white" stroke-width="1.5" pointer-events="none"/>
                </g>
                <g id="zoomMin">
                        <use xlink:href="#rim" fill="#404040">
                                <set attributeName="fill" to="#808080" begin="zoomminus.mouseover" end="zoomminus.mouseout"/>
                        </use>
                        <path d="M-4,0h8" fill="none" stroke="white" stroke-width="1.5" pointer-events="none"/>
                </g>
                <g id="dirArrow">
                        <path fill="none" stroke="white" stroke-width="1.5" d="M0,-3.0v7 M-2.5,-0.5L0,-3.0L2.5,-0.5"/>
                </g>
               <g id="resetDef">
                       <use xlink:href="#rim2" fill="#404040">
                               <set attributeName="fill" to="#808080" begin="reset.mouseover" end="reset.mouseout"/>
                       </use>
               </g>
        </defs>

<script type="text/javascript">
var viewWidth = 1418;
var viewHeight = 386;
var sectionId = 'dynsection-0';
</script>
<script xlink:href="svgpan.js"/>
<svg id="graph" class="graph">
<g id="viewport">
<title>angle_common.hpp</title>
<!-- Node1 -->
<g id="node1" class="node">
<title>Node1</title>
<g id="a_node1"><a xlink:title=" ">
<polygon fill="#bfbfbf" stroke="black" points="505.5,-358.5 505.5,-377.5 618.5,-377.5 618.5,-358.5 505.5,-358.5"/>
<text text-anchor="middle" x="562" y="-365.5" font-family="Helvetica,sans-Serif" font-size="10.00">angle_common.hpp</text>
</a>
</g>
</g>
<!-- Node2 -->
<g id="node2" class="node">
<title>Node2</title>
<g id="a_node2"><a xlink:href="config_8hpp.html" target="_top" xlink:title=" ">
<polygon fill="none" stroke="black" points="228,-302.5 228,-321.5 296,-321.5 296,-302.5 228,-302.5"/>
<text text-anchor="middle" x="262" y="-309.5" font-family="Helvetica,sans-Serif" font-size="10.00">config.hpp</text>
</a>
</g>
</g>
<!-- Node1&#45;&gt;Node2 -->
<g id="edge1" class="edge">
<title>Node1&#45;&gt;Node2</title>
<path fill="none" stroke="midnightblue" d="M514.46,-358.44C457.23,-348.14 361.86,-330.97 306.17,-320.95"/>
<polygon fill="midnightblue" stroke="midnightblue" points="306.71,-317.49 296.25,-319.16 305.47,-324.38 306.71,-317.49"/>
</g>
<!-- Node4 -->
<g id="node4" class="node">
<title>Node4</title>
<g id="a_node4"><a xlink:href="grid_8hpp.html" target="_top" xlink:title=" ">
<polygon fill="none" stroke="black" points="481,-302.5 481,-321.5 537,-321.5 537,-302.5 481,-302.5"/>
<text text-anchor="middle" x="509" y="-309.5" font-family="Helvetica,sans-Serif" font-size="10.00">grid.hpp</text>
</a>
</g>
</g>
<!-- Node1&#45;&gt;Node4 -->
<g id="edge3" class="edge">
<title>Node1&#45;&gt;Node4</title>
<path fill="none" stroke="midnightblue" d="M553.25,-358.08C545.53,-350.22 534.1,-338.57 524.78,-329.08"/>
<polygon fill="midnightblue" stroke="midnightblue" points="527.09,-326.44 517.59,-321.75 522.1,-331.34 527.09,-326.44"/>
</g>
<!-- Node10 -->
<g id="node10" class="node">
<title>Node10</title>
<g id="a_node10"><a xlink:href="Vector_8hpp.html" target="_top" xlink:title=" ">
<polygon fill="none" stroke="black" points="569.5,-185 569.5,-204 662.5,-204 662.5,-185 569.5,-185"/>
<text text-anchor="middle" x="616" y="-192" font-family="Helvetica,sans-Serif" font-size="10.00">utils/Vector.hpp</text>
</a>
</g>
</g>
<!-- Node1&#45;&gt;Node10 -->
<g id="edge43" class="edge">
<title>Node1&#45;&gt;Node10</title>
<path fill="none" stroke="midnightblue" d="M564.75,-358.26C573.17,-331.54 598.68,-250.52 610.22,-213.86"/>
<polygon fill="midnightblue" stroke="midnightblue" points="613.65,-214.61 613.32,-204.02 606.98,-212.51 613.65,-214.61"/>
</g>
<!-- Node18 -->
<g id="node18" class="node">
<title>Node18</title>
<g id="a_node18"><a xlink:title=" ">
<polygon fill="none" stroke="#bfbfbf" points="1339.5,-0.5 1339.5,-19.5 1380.5,-19.5 1380.5,-0.5 1339.5,-0.5"/>
<text text-anchor="middle" x="1360" y="-7.5" font-family="Helvetica,sans-Serif" font-size="10.00">tuple</text>
</a>
</g>
</g>
<!-- Node1&#45;&gt;Node18 -->
<g id="edge44" class="edge">
<title>Node1&#45;&gt;Node18</title>
<path fill="none" stroke="midnightblue" d="M618.63,-365.63C808.39,-360.28 1410,-337.03 1410,-257 1410,-257 1410,-257 1410,-132 1410,-92.42 1386.87,-50.7 1372.07,-28.07"/>
<polygon fill="midnightblue" stroke="midnightblue" points="1374.84,-25.91 1366.33,-19.6 1369.04,-29.84 1374.84,-25.91"/>
</g>
<!-- Node3 -->
<g id="node3" class="node">
<title>Node3</title>
<g id="a_node3"><a xlink:title=" ">
<polygon fill="none" stroke="#bfbfbf" points="0,-246.5 0,-265.5 112,-265.5 112,-246.5 0,-246.5"/>
<text text-anchor="middle" x="56" y="-253.5" font-family="Helvetica,sans-Serif" font-size="10.00">config&#45;features.hpp</text>
</a>
</g>
</g>
<!-- Node2&#45;&gt;Node3 -->
<g id="edge2" class="edge">
<title>Node2&#45;&gt;Node3</title>
<path fill="none" stroke="midnightblue" d="M229.36,-302.44C193.95,-293.16 137.29,-278.31 98.45,-268.13"/>
<polygon fill="midnightblue" stroke="midnightblue" points="99.05,-264.67 88.49,-265.52 97.27,-271.44 99.05,-264.67"/>
</g>
<!-- Node5 -->
<g id="node5" class="node">
<title>Node5</title>
<g id="a_node5"><a xlink:href="BoxGeometry_8hpp.html" target="_top" xlink:title=" ">
<polygon fill="none" stroke="black" points="308,-246.5 308,-265.5 412,-265.5 412,-246.5 308,-246.5"/>
<text text-anchor="middle" x="360" y="-253.5" font-family="Helvetica,sans-Serif" font-size="10.00">BoxGeometry.hpp</text>
</a>
</g>
</g>
<!-- Node4&#45;&gt;Node5 -->
<g id="edge4" class="edge">
<title>Node4&#45;&gt;Node5</title>
<path fill="none" stroke="midnightblue" d="M485.39,-302.44C460.54,-293.44 421.23,-279.19 393.25,-269.05"/>
<polygon fill="midnightblue" stroke="midnightblue" points="394.09,-265.63 383.5,-265.52 391.71,-272.21 394.09,-265.63"/>
</g>
<!-- Node4&#45;&gt;Node10 -->
<g id="edge41" class="edge">
<title>Node4&#45;&gt;Node10</title>
<path fill="none" stroke="midnightblue" d="M519.4,-302.48C529.82,-293.75 546.14,-279.56 559,-266 575.5,-248.6 592.56,-226.94 603.66,-212.25"/>
<polygon fill="midnightblue" stroke="midnightblue" points="606.56,-214.21 609.74,-204.11 600.95,-210.02 606.56,-214.21"/>
</g>
<!-- Node30 -->
<g id="node30" class="node">
<title>Node30</title>
<g id="a_node30"><a xlink:href="LocalBox_8hpp.html" target="_top" xlink:title=" ">
<polygon fill="none" stroke="black" points="468,-246.5 468,-265.5 550,-265.5 550,-246.5 468,-246.5"/>
<text text-anchor="middle" x="509" y="-253.5" font-family="Helvetica,sans-Serif" font-size="10.00">LocalBox.hpp</text>
</a>
</g>
</g>
<!-- Node4&#45;&gt;Node30 -->
<g id="edge39" class="edge">
<title>Node4&#45;&gt;Node30</title>
<path fill="none" stroke="midnightblue" d="M509,-302.08C509,-295.01 509,-284.86 509,-275.99"/>
<polygon fill="midnightblue" stroke="midnightblue" points="512.5,-275.75 509,-265.75 505.5,-275.75 512.5,-275.75"/>
</g>
<!-- Node31 -->
<g id="node31" class="node">
<title>Node31</title>
<g id="a_node31"><a xlink:title=" ">
<polygon fill="none" stroke="#bfbfbf" points="130,-246.5 130,-265.5 290,-265.5 290,-246.5 130,-246.5"/>
<text text-anchor="middle" x="210" y="-253.5" font-family="Helvetica,sans-Serif" font-size="10.00">boost/mpi/communicator.hpp</text>
</a>
</g>
</g>
<!-- Node4&#45;&gt;Node31 -->
<g id="edge42" class="edge">
<title>Node4&#45;&gt;Node31</title>
<path fill="none" stroke="midnightblue" d="M480.87,-305.92C432.16,-297.12 331.19,-278.89 267.23,-267.34"/>
<polygon fill="midnightblue" stroke="midnightblue" points="267.76,-263.87 257.3,-265.54 266.51,-270.76 267.76,-263.87"/>
</g>
<!-- Node6 -->
<g id="node6" class="node">
<title>Node6</title>
<g id="a_node6"><a xlink:href="periodic__fold_8hpp.html" target="_top" xlink:title=" ">
<polygon fill="none" stroke="black" points="151,-179.5 151,-209.5 257,-209.5 257,-179.5 151,-179.5"/>
<text text-anchor="start" x="159" y="-197.5" font-family="Helvetica,sans-Serif" font-size="10.00">algorithm/periodic</text>
<text text-anchor="middle" x="204" y="-186.5" font-family="Helvetica,sans-Serif" font-size="10.00">_fold.hpp</text>
</a>
</g>
</g>
<!-- Node5&#45;&gt;Node6 -->
<g id="edge5" class="edge">
<title>Node5&#45;&gt;Node6</title>
<path fill="none" stroke="midnightblue" d="M337.65,-246.48C314.94,-237.81 279.1,-224.15 250.25,-213.14"/>
<polygon fill="midnightblue" stroke="midnightblue" points="251.36,-209.82 240.77,-209.52 248.86,-216.36 251.36,-209.82"/>
</g>
<!-- Node7 -->
<g id="node7" class="node">
<title>Node7</title>
<g id="a_node7"><a xlink:title=" ">
<polygon fill="none" stroke="#bfbfbf" points="280.5,-123.5 280.5,-142.5 327.5,-142.5 327.5,-123.5 280.5,-123.5"/>
<text text-anchor="middle" x="304" y="-130.5" font-family="Helvetica,sans-Serif" font-size="10.00">cmath</text>
</a>
</g>
</g>
<!-- Node5&#45;&gt;Node7 -->
<g id="edge36" class="edge">
<title>Node5&#45;&gt;Node7</title>
<path fill="none" stroke="midnightblue" d="M363.44,-246.45C368.77,-231.76 377.3,-201.17 366,-179 359,-165.27 345.63,-154.75 333.1,-147.35"/>
<polygon fill="midnightblue" stroke="midnightblue" points="334.68,-144.22 324.22,-142.51 331.33,-150.37 334.68,-144.22"/>
</g>
<!-- Node8 -->
<g id="node8" class="node">
<title>Node8</title>
<g id="a_node8"><a xlink:title=" ">
<polygon fill="none" stroke="#bfbfbf" points="91,-123.5 91,-142.5 135,-142.5 135,-123.5 91,-123.5"/>
<text text-anchor="middle" x="113" y="-130.5" font-family="Helvetica,sans-Serif" font-size="10.00">limits</text>
</a>
</g>
</g>
<!-- Node5&#45;&gt;Node8 -->
<g id="edge37" class="edge">
<title>Node5&#45;&gt;Node8</title>
<path fill="none" stroke="midnightblue" d="M309.84,-246.5C244.69,-235.25 138.46,-216.14 132,-210 116.48,-195.24 112.86,-169.87 112.38,-152.54"/>
<polygon fill="midnightblue" stroke="midnightblue" points="115.88,-152.51 112.42,-142.5 108.88,-152.49 115.88,-152.51"/>
</g>
<!-- Node9 -->
<g id="node9" class="node">
<title>Node9</title>
<g id="a_node9"><a xlink:title=" ">
<polygon fill="none" stroke="#bfbfbf" points="167.5,-123.5 167.5,-142.5 212.5,-142.5 212.5,-123.5 167.5,-123.5"/>
<text text-anchor="middle" x="190" y="-130.5" font-family="Helvetica,sans-Serif" font-size="10.00">utility</text>
</a>
</g>
</g>
<!-- Node5&#45;&gt;Node9 -->
<g id="edge38" class="edge">
<title>Node5&#45;&gt;Node9</title>
<path fill="none" stroke="midnightblue" d="M311.01,-246.49C248.4,-235.39 147.37,-216.59 142,-210 125.87,-190.2 149.97,-164.66 169.46,-148.81"/>
<polygon fill="midnightblue" stroke="midnightblue" points="171.64,-151.55 177.4,-142.66 167.35,-146.02 171.64,-151.55"/>
</g>
<!-- Node5&#45;&gt;Node10 -->
<g id="edge9" class="edge">
<title>Node5&#45;&gt;Node10</title>
<path fill="none" stroke="midnightblue" d="M396.68,-246.48C442.21,-235.89 519.9,-217.84 569.55,-206.3"/>
<polygon fill="midnightblue" stroke="midnightblue" points="570.44,-209.68 579.39,-204.01 568.86,-202.86 570.44,-209.68"/>
</g>
<!-- Node15 -->
<g id="node15" class="node">
<title>Node15</title>
<g id="a_node15"><a xlink:title=" ">
<polygon fill="none" stroke="#bfbfbf" points="416,-0.5 416,-19.5 468,-19.5 468,-0.5 416,-0.5"/>
<text text-anchor="middle" x="442" y="-7.5" font-family="Helvetica,sans-Serif" font-size="10.00">cassert</text>
</a>
</g>
</g>
<!-- Node5&#45;&gt;Node15 -->
<g id="edge35" class="edge">
<title>Node5&#45;&gt;Node15</title>
<path fill="none" stroke="midnightblue" d="M346.46,-246.43C315.89,-225.97 246.15,-172.27 272,-123 299.76,-70.09 364.99,-38.22 406.1,-22.67"/>
<polygon fill="midnightblue" stroke="midnightblue" points="407.55,-25.87 415.74,-19.16 405.15,-19.29 407.55,-25.87"/>
</g>
<!-- Node29 -->
<g id="node29" class="node">
<title>Node29</title>
<g id="a_node29"><a xlink:title=" ">
<polygon fill="none" stroke="#bfbfbf" points="313,-185 313,-204 357,-204 357,-185 313,-185"/>
<text text-anchor="middle" x="335" y="-192" font-family="Helvetica,sans-Serif" font-size="10.00">bitset</text>
</a>
</g>
</g>
<!-- Node5&#45;&gt;Node29 -->
<g id="edge34" class="edge">
<title>Node5&#45;&gt;Node29</title>
<path fill="none" stroke="midnightblue" d="M356.42,-246.48C352.82,-237.9 347.15,-224.43 342.56,-213.48"/>
<polygon fill="midnightblue" stroke="midnightblue" points="345.68,-211.87 338.58,-204.01 339.22,-214.58 345.68,-211.87"/>
</g>
<!-- Node6&#45;&gt;Node7 -->
<g id="edge6" class="edge">
<title>Node6&#45;&gt;Node7</title>
<path fill="none" stroke="midnightblue" d="M227.7,-179.4C243.73,-169.86 264.8,-157.32 280.74,-147.84"/>
<polygon fill="midnightblue" stroke="midnightblue" points="282.64,-150.78 289.45,-142.66 279.07,-144.76 282.64,-150.78"/>
</g>
<!-- Node6&#45;&gt;Node8 -->
<g id="edge7" class="edge">
<title>Node6&#45;&gt;Node8</title>
<path fill="none" stroke="midnightblue" d="M182.43,-179.4C168.12,-170.04 149.39,-157.79 134.99,-148.38"/>
<polygon fill="midnightblue" stroke="midnightblue" points="136.53,-145.2 126.24,-142.66 132.7,-151.06 136.53,-145.2"/>
</g>
<!-- Node6&#45;&gt;Node9 -->
<g id="edge8" class="edge">
<title>Node6&#45;&gt;Node9</title>
<path fill="none" stroke="midnightblue" d="M200.68,-179.4C198.79,-171.38 196.41,-161.23 194.37,-152.57"/>
<polygon fill="midnightblue" stroke="midnightblue" points="197.73,-151.59 192.04,-142.66 190.92,-153.19 197.73,-151.59"/>
</g>
<!-- Node10&#45;&gt;Node7 -->
<g id="edge26" class="edge">
<title>Node10&#45;&gt;Node7</title>
<path fill="none" stroke="midnightblue" d="M569.32,-185.63C514.67,-176.25 421.52,-159.73 342,-143 340.55,-142.69 339.07,-142.38 337.57,-142.05"/>
<polygon fill="midnightblue" stroke="midnightblue" points="338.2,-138.6 327.68,-139.8 336.65,-145.43 338.2,-138.6"/>
</g>
<!-- Node11 -->
<g id="node11" class="node">
<title>Node11</title>
<g id="a_node11"><a xlink:title=" ">
<polygon fill="none" stroke="#bfbfbf" points="877,-123.5 877,-142.5 1027,-142.5 1027,-123.5 877,-123.5"/>
<text text-anchor="middle" x="952" y="-130.5" font-family="Helvetica,sans-Serif" font-size="10.00">boost/qvm/deduce_vec.hpp</text>
</a>
</g>
</g>
<!-- Node10&#45;&gt;Node11 -->
<g id="edge10" class="edge">
<title>Node10&#45;&gt;Node11</title>
<path fill="none" stroke="midnightblue" d="M662.72,-185.23C723.05,-174.54 828.08,-155.94 893.61,-144.34"/>
<polygon fill="midnightblue" stroke="midnightblue" points="894.54,-147.73 903.78,-142.54 893.32,-140.84 894.54,-147.73"/>
</g>
<!-- Node12 -->
<g id="node12" class="node">
<title>Node12</title>
<g id="a_node12"><a xlink:title=" ">
<polygon fill="none" stroke="#bfbfbf" points="1045,-123.5 1045,-142.5 1185,-142.5 1185,-123.5 1045,-123.5"/>
<text text-anchor="middle" x="1115" y="-130.5" font-family="Helvetica,sans-Serif" font-size="10.00">boost/qvm/vec_traits.hpp</text>
</a>
</g>
</g>
<!-- Node10&#45;&gt;Node12 -->
<g id="edge11" class="edge">
<title>Node10&#45;&gt;Node12</title>
<path fill="none" stroke="midnightblue" d="M662.94,-187.9C748.26,-177.73 929.63,-156.1 1034.86,-143.56"/>
<polygon fill="midnightblue" stroke="midnightblue" points="1035.29,-147.03 1044.8,-142.37 1034.46,-140.08 1035.29,-147.03"/>
</g>
<!-- Node13 -->
<g id="node13" class="node">
<title>Node13</title>
<g id="a_node13"><a xlink:href="Array_8hpp.html" target="_top" xlink:title=" ">
<polygon fill="none" stroke="black" points="1203,-123.5 1203,-142.5 1289,-142.5 1289,-123.5 1203,-123.5"/>
<text text-anchor="middle" x="1246" y="-130.5" font-family="Helvetica,sans-Serif" font-size="10.00">utils/Array.hpp</text>
</a>
</g>
</g>
<!-- Node10&#45;&gt;Node13 -->
<g id="edge12" class="edge">
<title>Node10&#45;&gt;Node13</title>
<path fill="none" stroke="midnightblue" d="M662.59,-190.77C759.43,-184.79 989.64,-169.1 1192.95,-143.03"/>
<polygon fill="midnightblue" stroke="midnightblue" points="1193.44,-146.5 1202.91,-141.75 1192.55,-139.56 1193.44,-146.5"/>
</g>
<!-- Node10&#45;&gt;Node15 -->
<g id="edge25" class="edge">
<title>Node10&#45;&gt;Node15</title>
<path fill="none" stroke="midnightblue" d="M569.46,-190.54C506.43,-185.45 399.02,-172.57 375,-143 344.77,-105.78 394.2,-52.7 423.22,-26.64"/>
<polygon fill="midnightblue" stroke="midnightblue" points="425.89,-28.97 431.13,-19.76 421.29,-23.69 425.89,-28.97"/>
</g>
<!-- Node17 -->
<g id="node17" class="node">
<title>Node17</title>
<g id="a_node17"><a xlink:title=" ">
<polygon fill="none" stroke="#bfbfbf" points="1219.5,-0.5 1219.5,-19.5 1272.5,-19.5 1272.5,-0.5 1219.5,-0.5"/>
<text text-anchor="middle" x="1246" y="-7.5" font-family="Helvetica,sans-Serif" font-size="10.00">cstddef</text>
</a>
</g>
</g>
<!-- Node10&#45;&gt;Node17 -->
<g id="edge27" class="edge">
<title>Node10&#45;&gt;Node17</title>
<path fill="none" stroke="midnightblue" d="M662.74,-192.57C810.66,-189.31 1262.1,-176.66 1318,-143 1353.7,-121.5 1376.06,-90.72 1353,-56 1337.49,-32.65 1307.23,-21.39 1282.84,-15.97"/>
<polygon fill="midnightblue" stroke="midnightblue" points="1283.3,-12.49 1272.81,-13.99 1281.94,-19.36 1283.3,-12.49"/>
</g>
<!-- Node20 -->
<g id="node20" class="node">
<title>Node20</title>
<g id="a_node20"><a xlink:title=" ">
<polygon fill="none" stroke="#bfbfbf" points="1290.5,-62 1290.5,-81 1343.5,-81 1343.5,-62 1290.5,-62"/>
<text text-anchor="middle" x="1317" y="-69" font-family="Helvetica,sans-Serif" font-size="10.00">iterator</text>
</a>
</g>
</g>
<!-- Node10&#45;&gt;Node20 -->
<g id="edge30" class="edge">
<title>Node10&#45;&gt;Node20</title>
<path fill="none" stroke="midnightblue" d="M662.62,-193.12C808.46,-191.51 1249.21,-183.33 1298,-143 1313.08,-130.53 1316.88,-107.46 1317.53,-91.11"/>
<polygon fill="midnightblue" stroke="midnightblue" points="1321.03,-91.1 1317.56,-81.08 1314.03,-91.07 1321.03,-91.1"/>
</g>
<!-- Node23 -->
<g id="node23" class="node">
<title>Node23</title>
<g id="a_node23"><a xlink:title=" ">
<polygon fill="none" stroke="#bfbfbf" points="384,-123.5 384,-142.5 448,-142.5 448,-123.5 384,-123.5"/>
<text text-anchor="middle" x="416" y="-130.5" font-family="Helvetica,sans-Serif" font-size="10.00">algorithm</text>
</a>
</g>
</g>
<!-- Node10&#45;&gt;Node23 -->
<g id="edge24" class="edge">
<title>Node10&#45;&gt;Node23</title>
<path fill="none" stroke="midnightblue" d="M587.34,-184.98C552.44,-174.59 493.35,-157.01 454.5,-145.45"/>
<polygon fill="midnightblue" stroke="midnightblue" points="455.18,-142.01 444.6,-142.51 453.19,-148.72 455.18,-142.01"/>
</g>
<!-- Node24 -->
<g id="node24" class="node">
<title>Node24</title>
<g id="a_node24"><a xlink:title=" ">
<polygon fill="none" stroke="#bfbfbf" points="466.5,-123.5 466.5,-142.5 531.5,-142.5 531.5,-123.5 466.5,-123.5"/>
<text text-anchor="middle" x="499" y="-130.5" font-family="Helvetica,sans-Serif" font-size="10.00">functional</text>
</a>
</g>
</g>
<!-- Node10&#45;&gt;Node24 -->
<g id="edge28" class="edge">
<title>Node10&#45;&gt;Node24</title>
<path fill="none" stroke="midnightblue" d="M599.24,-184.98C579.78,-175.08 547.45,-158.64 524.79,-147.12"/>
<polygon fill="midnightblue" stroke="midnightblue" points="526.23,-143.92 515.73,-142.51 523.06,-150.16 526.23,-143.92"/>
</g>
<!-- Node25 -->
<g id="node25" class="node">
<title>Node25</title>
<g id="a_node25"><a xlink:title=" ">
<polygon fill="none" stroke="#bfbfbf" points="549.5,-123.5 549.5,-142.5 632.5,-142.5 632.5,-123.5 549.5,-123.5"/>
<text text-anchor="middle" x="591" y="-130.5" font-family="Helvetica,sans-Serif" font-size="10.00">initializer_list</text>
</a>
</g>
</g>
<!-- Node10&#45;&gt;Node25 -->
<g id="edge29" class="edge">
<title>Node10&#45;&gt;Node25</title>
<path fill="none" stroke="midnightblue" d="M612.42,-184.98C608.82,-176.4 603.15,-162.93 598.56,-151.98"/>
<polygon fill="midnightblue" stroke="midnightblue" points="601.68,-150.37 594.58,-142.51 595.22,-153.08 601.68,-150.37"/>
</g>
<!-- Node26 -->
<g id="node26" class="node">
<title>Node26</title>
<g id="a_node26"><a xlink:title=" ">
<polygon fill="none" stroke="#bfbfbf" points="651,-123.5 651,-142.5 707,-142.5 707,-123.5 651,-123.5"/>
<text text-anchor="middle" x="679" y="-130.5" font-family="Helvetica,sans-Serif" font-size="10.00">numeric</text>
</a>
</g>
</g>
<!-- Node10&#45;&gt;Node26 -->
<g id="edge31" class="edge">
<title>Node10&#45;&gt;Node26</title>
<path fill="none" stroke="midnightblue" d="M625.03,-184.98C634.76,-175.78 650.46,-160.96 662.42,-149.66"/>
<polygon fill="midnightblue" stroke="midnightblue" points="665.12,-151.92 669.99,-142.51 660.32,-146.83 665.12,-151.92"/>
</g>
<!-- Node27 -->
<g id="node27" class="node">
<title>Node27</title>
<g id="a_node27"><a xlink:title=" ">
<polygon fill="none" stroke="#bfbfbf" points="725.5,-123.5 725.5,-142.5 794.5,-142.5 794.5,-123.5 725.5,-123.5"/>
<text text-anchor="middle" x="760" y="-130.5" font-family="Helvetica,sans-Serif" font-size="10.00">type_traits</text>
</a>
</g>
</g>
<!-- Node10&#45;&gt;Node27 -->
<g id="edge32" class="edge">
<title>Node10&#45;&gt;Node27</title>
<path fill="none" stroke="midnightblue" d="M636.63,-184.98C661.12,-174.86 702.15,-157.9 730.11,-146.35"/>
<polygon fill="midnightblue" stroke="midnightblue" points="731.5,-149.56 739.41,-142.51 728.83,-143.09 731.5,-149.56"/>
</g>
<!-- Node28 -->
<g id="node28" class="node">
<title>Node28</title>
<g id="a_node28"><a xlink:title=" ">
<polygon fill="none" stroke="#bfbfbf" points="812.5,-123.5 812.5,-142.5 859.5,-142.5 859.5,-123.5 812.5,-123.5"/>
<text text-anchor="middle" x="836" y="-130.5" font-family="Helvetica,sans-Serif" font-size="10.00">vector</text>
</a>
</g>
</g>
<!-- Node10&#45;&gt;Node28 -->
<g id="edge33" class="edge">
<title>Node10&#45;&gt;Node28</title>
<path fill="none" stroke="midnightblue" d="M648.3,-184.95C683.8,-175.52 742.78,-159.78 802.3,-143.45"/>
<polygon fill="midnightblue" stroke="midnightblue" points="803.53,-146.74 812.24,-140.72 801.67,-139.99 803.53,-146.74"/>
</g>
<!-- Node14 -->
<g id="node14" class="node">
<title>Node14</title>
<g id="a_node14"><a xlink:href="device__qualifier_8hpp.html" target="_top" xlink:title=" ">
<polygon fill="none" stroke="black" points="470,-62 470,-81 586,-81 586,-62 470,-62"/>
<text text-anchor="middle" x="528" y="-69" font-family="Helvetica,sans-Serif" font-size="10.00">device_qualifier.hpp</text>
</a>
</g>
</g>
<!-- Node13&#45;&gt;Node14 -->
<g id="edge13" class="edge">
<title>Node13&#45;&gt;Node14</title>
<path fill="none" stroke="midnightblue" d="M1202.92,-124.22C1199.9,-123.77 1196.91,-123.36 1194,-123 1079.73,-108.81 741.91,-86.24 596.18,-76.84"/>
<polygon fill="midnightblue" stroke="midnightblue" points="596.23,-73.33 586.03,-76.18 595.78,-80.32 596.23,-73.33"/>
</g>
<!-- Node13&#45;&gt;Node15 -->
<g id="edge19" class="edge">
<title>Node13&#45;&gt;Node15</title>
<path fill="none" stroke="midnightblue" d="M1202.9,-124.36C1199.89,-123.88 1196.9,-123.42 1194,-123 1058.92,-103.35 1024.1,-106.45 889,-87 735.71,-64.94 554.01,-31.9 478.12,-17.78"/>
<polygon fill="midnightblue" stroke="midnightblue" points="478.6,-14.31 468.13,-15.92 477.32,-21.19 478.6,-14.31"/>
</g>
<!-- Node16 -->
<g id="node16" class="node">
<title>Node16</title>
<g id="a_node16"><a xlink:href="get_8hpp.html" target="_top" xlink:title=" ">
<polygon fill="none" stroke="black" points="1219.5,-62 1219.5,-81 1272.5,-81 1272.5,-62 1219.5,-62"/>
<text text-anchor="middle" x="1246" y="-69" font-family="Helvetica,sans-Serif" font-size="10.00">get.hpp</text>
</a>
</g>
</g>
<!-- Node13&#45;&gt;Node16 -->
<g id="edge15" class="edge">
<title>Node13&#45;&gt;Node16</title>
<path fill="none" stroke="midnightblue" d="M1246,-123.48C1246,-115.08 1246,-101.98 1246,-91.16"/>
<polygon fill="midnightblue" stroke="midnightblue" points="1249.5,-91.01 1246,-81.01 1242.5,-91.01 1249.5,-91.01"/>
</g>
<!-- Node13&#45;&gt;Node17 -->
<g id="edge20" class="edge">
<title>Node13&#45;&gt;Node17</title>
<path fill="none" stroke="midnightblue" d="M1206.47,-123.49C1161.53,-113.41 1093.41,-96.78 1086,-87 1077.68,-76.02 1077.68,-66.98 1086,-56 1100.85,-36.4 1166.85,-22.95 1209.31,-16.15"/>
<polygon fill="midnightblue" stroke="midnightblue" points="1209.94,-19.59 1219.29,-14.6 1208.87,-12.68 1209.94,-19.59"/>
</g>
<!-- Node19 -->
<g id="node19" class="node">
<title>Node19</title>
<g id="a_node19"><a xlink:title=" ">
<polygon fill="none" stroke="#bfbfbf" points="1094.5,-56.5 1094.5,-86.5 1201.5,-86.5 1201.5,-56.5 1094.5,-56.5"/>
<text text-anchor="start" x="1102.5" y="-74.5" font-family="Helvetica,sans-Serif" font-size="10.00">boost/serialization</text>
<text text-anchor="middle" x="1148" y="-63.5" font-family="Helvetica,sans-Serif" font-size="10.00">/access.hpp</text>
</a>
</g>
</g>
<!-- Node13&#45;&gt;Node19 -->
<g id="edge18" class="edge">
<title>Node13&#45;&gt;Node19</title>
<path fill="none" stroke="midnightblue" d="M1231.96,-123.48C1218.44,-115.27 1197.51,-102.56 1179.93,-91.88"/>
<polygon fill="midnightblue" stroke="midnightblue" points="1181.46,-88.72 1171.1,-86.52 1177.83,-94.7 1181.46,-88.72"/>
</g>
<!-- Node13&#45;&gt;Node20 -->
<g id="edge21" class="edge">
<title>Node13&#45;&gt;Node20</title>
<path fill="none" stroke="midnightblue" d="M1256.17,-123.48C1267.35,-114.11 1285.52,-98.88 1299.09,-87.51"/>
<polygon fill="midnightblue" stroke="midnightblue" points="1301.43,-90.11 1306.85,-81.01 1296.93,-84.75 1301.43,-90.11"/>
</g>
<!-- Node21 -->
<g id="node21" class="node">
<title>Node21</title>
<g id="a_node21"><a xlink:title=" ">
<polygon fill="none" stroke="#bfbfbf" points="897.5,-62 897.5,-81 954.5,-81 954.5,-62 897.5,-62"/>
<text text-anchor="middle" x="926" y="-69" font-family="Helvetica,sans-Serif" font-size="10.00">ostream</text>
</a>
</g>
</g>
<!-- Node13&#45;&gt;Node21 -->
<g id="edge22" class="edge">
<title>Node13&#45;&gt;Node21</title>
<path fill="none" stroke="midnightblue" d="M1202.88,-124.48C1199.87,-123.97 1196.89,-123.48 1194,-123 1091.91,-106.18 1063.99,-113.59 964,-87 961.34,-86.29 958.61,-85.47 955.89,-84.57"/>
<polygon fill="midnightblue" stroke="midnightblue" points="956.85,-81.19 946.25,-81.13 954.49,-87.79 956.85,-81.19"/>
</g>
<!-- Node22 -->
<g id="node22" class="node">
<title>Node22</title>
<g id="a_node22"><a xlink:title=" ">
<polygon fill="none" stroke="#bfbfbf" points="972.5,-62 972.5,-81 1037.5,-81 1037.5,-62 972.5,-62"/>
<text text-anchor="middle" x="1005" y="-69" font-family="Helvetica,sans-Serif" font-size="10.00">stdexcept</text>
</a>
</g>
</g>
<!-- Node13&#45;&gt;Node22 -->
<g id="edge23" class="edge">
<title>Node13&#45;&gt;Node22</title>
<path fill="none" stroke="midnightblue" d="M1205.29,-123.44C1165.89,-114.95 1104.57,-101.19 1052,-87 1048.6,-86.08 1045.07,-85.08 1041.55,-84.05"/>
<polygon fill="midnightblue" stroke="midnightblue" points="1042.33,-80.63 1031.75,-81.11 1040.32,-87.34 1042.33,-80.63"/>
</g>
<!-- Node14&#45;&gt;Node15 -->
<g id="edge14" class="edge">
<title>Node14&#45;&gt;Node15</title>
<path fill="none" stroke="midnightblue" d="M515.68,-61.98C501.88,-52.43 479.3,-36.81 462.77,-25.37"/>
<polygon fill="midnightblue" stroke="midnightblue" points="464.51,-22.32 454.3,-19.51 460.53,-28.08 464.51,-22.32"/>
</g>
<!-- Node16&#45;&gt;Node17 -->
<g id="edge16" class="edge">
<title>Node16&#45;&gt;Node17</title>
<path fill="none" stroke="midnightblue" d="M1246,-61.98C1246,-53.58 1246,-40.48 1246,-29.66"/>
<polygon fill="midnightblue" stroke="midnightblue" points="1249.5,-29.51 1246,-19.51 1242.5,-29.51 1249.5,-29.51"/>
</g>
<!-- Node16&#45;&gt;Node18 -->
<g id="edge17" class="edge">
<title>Node16&#45;&gt;Node18</title>
<path fill="none" stroke="midnightblue" d="M1262.33,-61.98C1281.21,-52.12 1312.51,-35.79 1334.58,-24.27"/>
<polygon fill="midnightblue" stroke="midnightblue" points="1336.45,-27.24 1343.7,-19.51 1333.21,-21.03 1336.45,-27.24"/>
</g>
<!-- Node30&#45;&gt;Node10 -->
<g id="edge40" class="edge">
<title>Node30&#45;&gt;Node10</title>
<path fill="none" stroke="midnightblue" d="M524.33,-246.48C541.97,-236.67 571.16,-220.43 591.86,-208.92"/>
<polygon fill="midnightblue" stroke="midnightblue" points="593.66,-211.93 600.7,-204.01 590.26,-205.81 593.66,-211.93"/>
</g>
</g>
</svg>
        <g id="navigator" transform="translate(0 0)" fill="#404254">
                <rect fill="#f2f5e9" fill-opacity="0.5" stroke="#606060" stroke-width=".5" x="0" y="0" width="60" height="60"/>
                <use id="zoomplus" xlink:href="#zoomPlus" x="17" y="9" onmousedown="handleZoom(evt,'in')"/>
                <use id="zoomminus" xlink:href="#zoomMin" x="42" y="9" onmousedown="handleZoom(evt,'out')"/>
                <use id="reset" xlink:href="#resetDef" x="30" y="36" onmousedown="handleReset()"/>
                <g id="arrowUp" xlink:href="#dirArrow" transform="translate(30 24)" onmousedown="handlePan(0,-1)">
                  <use xlink:href="#rim" fill="#404040">
                        <set attributeName="fill" to="#808080" begin="arrowUp.mouseover" end="arrowUp.mouseout"/>
                  </use>
                  <path fill="none" stroke="white" stroke-width="1.5" d="M0,-3.0v7 M-2.5,-0.5L0,-3.0L2.5,-0.5"/>
                </g>
                <g id="arrowRight" xlink:href="#dirArrow" transform="rotate(90) translate(36 -43)" onmousedown="handlePan(1,0)">
                  <use xlink:href="#rim" fill="#404040">
                        <set attributeName="fill" to="#808080" begin="arrowRight.mouseover" end="arrowRight.mouseout"/>
                  </use>
                  <path fill="none" stroke="white" stroke-width="1.5" d="M0,-3.0v7 M-2.5,-0.5L0,-3.0L2.5,-0.5"/>
                </g>
                <g id="arrowDown" xlink:href="#dirArrow" transform="rotate(180) translate(-30 -48)" onmousedown="handlePan(0,1)">
                  <use xlink:href="#rim" fill="#404040">
                        <set attributeName="fill" to="#808080" begin="arrowDown.mouseover" end="arrowDown.mouseout"/>
                  </use>
                  <path fill="none" stroke="white" stroke-width="1.5" d="M0,-3.0v7 M-2.5,-0.5L0,-3.0L2.5,-0.5"/>
                </g>
                <g id="arrowLeft" xlink:href="#dirArrow" transform="rotate(270) translate(-36 17)" onmousedown="handlePan(-1,0)">
                  <use xlink:href="#rim" fill="#404040">
                        <set attributeName="fill" to="#808080" begin="arrowLeft.mouseover" end="arrowLeft.mouseout"/>
                  </use>
                  <path fill="none" stroke="white" stroke-width="1.5" d="M0,-3.0v7 M-2.5,-0.5L0,-3.0L2.5,-0.5"/>
                </g>
        </g>
        <svg viewBox="0 0 15 15" width="100%" height="30px" preserveAspectRatio="xMaxYMin meet">
         <g id="arrow_out" transform="scale(0.3 0.3)">
          <a xlink:href="angle__common_8hpp__incl_org.svg" target="_base">
           <rect id="button" ry="5" rx="5" y="6" x="6" height="38" width="38"
                fill="#f2f5e9" fill-opacity="0.5" stroke="#606060" stroke-width="1.0"/>
           <path id="arrow"
             d="M 11.500037,31.436501 C 11.940474,20.09759 22.043105,11.32322 32.158766,21.979434 L 37.068811,17.246167 C 37.068811,17.246167 37.088388,32 37.088388,32 L 22.160133,31.978069 C 22.160133,31.978069 26.997745,27.140456 26.997745,27.140456 C 18.528582,18.264221 13.291696,25.230495 11.500037,31.436501 z"
             style="fill:#404040;"/>
          </a>
         </g>
        </svg>
</svg>
