<?xml version="1.0" encoding="UTF-8" standalone="no"?>
<!DOCTYPE svg PUBLIC "-//W3C//DTD SVG 1.1//EN"
 "http://www.w3.org/Graphics/SVG/1.1/DTD/svg11.dtd">
<!-- Generated by graphviz version 2.43.0 (0)
 -->
<!-- Title: angle_cosine.cpp Pages: 1 -->
<!--zoomable 498 -->
<svg id="main" version="1.1" xmlns="http://www.w3.org/2000/svg" xmlns:xlink="http://www.w3.org/1999/xlink" xml:space="preserve" onload="init(evt)">
<style type="text/css"><![CDATA[
.edge:hover path { stroke: red; }
.edge:hover polygon { stroke: red; fill: red; }
]]></style>
<script type="text/javascript"><![CDATA[
var edges = document.getElementsByTagName('g');
if (edges && edges.length) {
  for (var i=0;i<edges.length;i++) {
    if (edges[i].id.substr(0,4)=='edge') {
      edges[i].setAttribute('class','edge');
    }
  }
}
]]></script>
        <defs>
                <circle id="rim" cx="0" cy="0" r="7"/>
                <circle id="rim2" cx="0" cy="0" r="3.5"/>
                <g id="zoomPlus">
                        <use xlink:href="#rim" fill="#404040">
                                <set attributeName="fill" to="#808080" begin="zoomplus.mouseover" end="zoomplus.mouseout"/>
                        </use>
                        <path d="M-4,0h8M0,-4v8" fill="none" stroke="white" stroke-width="1.5" pointer-events="none"/>
                </g>
                <g id="zoomMin">
                        <use xlink:href="#rim" fill="#404040">
                                <set attributeName="fill" to="#808080" begin="zoomminus.mouseover" end="zoomminus.mouseout"/>
                        </use>
                        <path d="M-4,0h8" fill="none" stroke="white" stroke-width="1.5" pointer-events="none"/>
                </g>
                <g id="dirArrow">
                        <path fill="none" stroke="white" stroke-width="1.5" d="M0,-3.0v7 M-2.5,-0.5L0,-3.0L2.5,-0.5"/>
                </g>
               <g id="resetDef">
                       <use xlink:href="#rim2" fill="#404040">
                               <set attributeName="fill" to="#808080" begin="reset.mouseover" end="reset.mouseout"/>
                       </use>
               </g>
        </defs>

<script type="text/javascript">
var viewWidth = 1452;
var viewHeight = 498;
var sectionId = 'dynsection-0';
</script>
<script xlink:href="svgpan.js"/>
<svg id="graph" class="graph">
<g id="viewport">
<title>angle_cosine.cpp</title>
<!-- Node1 -->
<g id="node1" class="node">
<title>Node1</title>
<g id="a_node1"><a xlink:title=" ">
<polygon fill="#bfbfbf" stroke="black" points="232.68,-470.5 232.68,-489.5 333.68,-489.5 333.68,-470.5 232.68,-470.5"/>
<text text-anchor="middle" x="283.18" y="-477.5" font-family="Helvetica,sans-Serif" font-size="10.00">angle_cosine.cpp</text>
</a>
</g>
</g>
<!-- Node2 -->
<g id="node2" class="node">
<title>Node2</title>
<g id="a_node2"><a xlink:href="angle__cosine_8hpp.html" target="_top" xlink:title=" ">
<polygon fill="none" stroke="black" points="379.68,-414.5 379.68,-433.5 480.68,-433.5 480.68,-414.5 379.68,-414.5"/>
<text text-anchor="middle" x="430.18" y="-421.5" font-family="Helvetica,sans-Serif" font-size="10.00">angle_cosine.hpp</text>
</a>
</g>
</g>
<!-- Node1&#45;&gt;Node2 -->
<g id="edge1" class="edge">
<title>Node1&#45;&gt;Node2</title>
<path fill="none" stroke="midnightblue" d="M306.47,-470.44C330.98,-461.44 369.77,-447.19 397.38,-437.05"/>
<polygon fill="midnightblue" stroke="midnightblue" points="398.81,-440.25 406.99,-433.52 396.4,-433.68 398.81,-440.25"/>
</g>
<!-- Node9 -->
<g id="node9" class="node">
<title>Node9</title>
<g id="a_node9"><a xlink:title=" ">
<polygon fill="none" stroke="#bfbfbf" points="152.68,-123.5 152.68,-142.5 199.68,-142.5 199.68,-123.5 152.68,-123.5"/>
<text text-anchor="middle" x="176.18" y="-130.5" font-family="Helvetica,sans-Serif" font-size="10.00">cmath</text>
</a>
</g>
</g>
<!-- Node1&#45;&gt;Node9 -->
<g id="edge52" class="edge">
<title>Node1&#45;&gt;Node9</title>
<path fill="none" stroke="midnightblue" d="M264.54,-470.44C233.88,-454.93 176.18,-419.09 176.18,-369 176.18,-369 176.18,-369 176.18,-255 176.18,-218.71 176.18,-176.31 176.18,-152.56"/>
<polygon fill="midnightblue" stroke="midnightblue" points="179.68,-152.51 176.18,-142.51 172.68,-152.51 179.68,-152.51"/>
</g>
<!-- Node3 -->
<g id="node3" class="node">
<title>Node3</title>
<g id="a_node3"><a xlink:href="angle__common_8hpp.html" target="_top" xlink:title=" ">
<polygon fill="none" stroke="black" points="614.68,-358.5 614.68,-377.5 727.68,-377.5 727.68,-358.5 614.68,-358.5"/>
<text text-anchor="middle" x="671.18" y="-365.5" font-family="Helvetica,sans-Serif" font-size="10.00">angle_common.hpp</text>
</a>
</g>
</g>
<!-- Node2&#45;&gt;Node3 -->
<g id="edge2" class="edge">
<title>Node2&#45;&gt;Node3</title>
<path fill="none" stroke="midnightblue" d="M468.36,-414.44C510.32,-405.04 577.77,-389.93 623.25,-379.74"/>
<polygon fill="midnightblue" stroke="midnightblue" points="624.17,-383.12 633.17,-377.52 622.64,-376.29 624.17,-383.12"/>
</g>
<!-- Node2&#45;&gt;Node9 -->
<g id="edge50" class="edge">
<title>Node2&#45;&gt;Node9</title>
<path fill="none" stroke="midnightblue" d="M400.49,-414.43C379.05,-407.2 350.29,-395.24 329.18,-378 250.11,-313.43 199.84,-196.66 182.73,-152.02"/>
<polygon fill="midnightblue" stroke="midnightblue" points="185.96,-150.66 179.17,-142.52 179.4,-153.11 185.96,-150.66"/>
</g>
<!-- Node12 -->
<g id="node12" class="node">
<title>Node12</title>
<g id="a_node12"><a xlink:href="Vector_8hpp.html" target="_top" xlink:title=" ">
<polygon fill="none" stroke="black" points="579.68,-185 579.68,-204 672.68,-204 672.68,-185 579.68,-185"/>
<text text-anchor="middle" x="626.18" y="-192" font-family="Helvetica,sans-Serif" font-size="10.00">utils/Vector.hpp</text>
</a>
</g>
</g>
<!-- Node2&#45;&gt;Node12 -->
<g id="edge47" class="edge">
<title>Node2&#45;&gt;Node12</title>
<path fill="none" stroke="midnightblue" d="M434.57,-414.17C452.17,-378.82 516.77,-249.32 520.18,-246 538.53,-228.11 564.43,-215.61 586.03,-207.52"/>
<polygon fill="midnightblue" stroke="midnightblue" points="587.36,-210.76 595.61,-204.11 585.02,-204.17 587.36,-210.76"/>
</g>
<!-- Node20 -->
<g id="node20" class="node">
<title>Node20</title>
<g id="a_node20"><a xlink:title=" ">
<polygon fill="none" stroke="#bfbfbf" points="1320.68,-0.5 1320.68,-19.5 1361.68,-19.5 1361.68,-0.5 1320.68,-0.5"/>
<text text-anchor="middle" x="1341.18" y="-7.5" font-family="Helvetica,sans-Serif" font-size="10.00">tuple</text>
</a>
</g>
</g>
<!-- Node2&#45;&gt;Node20 -->
<g id="edge51" class="edge">
<title>Node2&#45;&gt;Node20</title>
<path fill="none" stroke="midnightblue" d="M480.81,-422.89C685.92,-421.77 1444.18,-411 1444.18,-313 1444.18,-313 1444.18,-313 1444.18,-132 1444.18,-83.75 1396.1,-44.95 1365.63,-25.21"/>
<polygon fill="midnightblue" stroke="midnightblue" points="1367.16,-22.03 1356.82,-19.7 1363.45,-27.97 1367.16,-22.03"/>
</g>
<!-- Node34 -->
<g id="node34" class="node">
<title>Node34</title>
<g id="a_node34"><a xlink:href="sqr_8hpp.html" target="_top" xlink:title=" ">
<polygon fill="none" stroke="black" points="337.68,-358.5 337.68,-377.5 442.68,-377.5 442.68,-358.5 337.68,-358.5"/>
<text text-anchor="middle" x="390.18" y="-365.5" font-family="Helvetica,sans-Serif" font-size="10.00">utils/math/sqr.hpp</text>
</a>
</g>
</g>
<!-- Node2&#45;&gt;Node34 -->
<g id="edge48" class="edge">
<title>Node2&#45;&gt;Node34</title>
<path fill="none" stroke="midnightblue" d="M423.57,-414.08C417.92,-406.46 409.63,-395.26 402.72,-385.94"/>
<polygon fill="midnightblue" stroke="midnightblue" points="405.42,-383.7 396.66,-377.75 399.8,-387.87 405.42,-383.7"/>
</g>
<!-- Node4 -->
<g id="node4" class="node">
<title>Node4</title>
<g id="a_node4"><a xlink:href="config_8hpp.html" target="_top" xlink:title=" ">
<polygon fill="none" stroke="black" points="1315.18,-302.5 1315.18,-321.5 1383.18,-321.5 1383.18,-302.5 1315.18,-302.5"/>
<text text-anchor="middle" x="1349.18" y="-309.5" font-family="Helvetica,sans-Serif" font-size="10.00">config.hpp</text>
</a>
</g>
</g>
<!-- Node3&#45;&gt;Node4 -->
<g id="edge3" class="edge">
<title>Node3&#45;&gt;Node4</title>
<path fill="none" stroke="midnightblue" d="M728.07,-364.37C837.28,-358.98 1083.79,-345.21 1290.18,-322 1294.94,-321.46 1299.92,-320.83 1304.87,-320.14"/>
<polygon fill="midnightblue" stroke="midnightblue" points="1305.52,-323.59 1314.92,-318.69 1304.52,-316.66 1305.52,-323.59"/>
</g>
<!-- Node6 -->
<g id="node6" class="node">
<title>Node6</title>
<g id="a_node6"><a xlink:href="grid_8hpp.html" target="_top" xlink:title=" ">
<polygon fill="none" stroke="black" points="643.18,-302.5 643.18,-321.5 699.18,-321.5 699.18,-302.5 643.18,-302.5"/>
<text text-anchor="middle" x="671.18" y="-309.5" font-family="Helvetica,sans-Serif" font-size="10.00">grid.hpp</text>
</a>
</g>
</g>
<!-- Node3&#45;&gt;Node6 -->
<g id="edge5" class="edge">
<title>Node3&#45;&gt;Node6</title>
<path fill="none" stroke="midnightblue" d="M671.18,-358.08C671.18,-351.01 671.18,-340.86 671.18,-331.99"/>
<polygon fill="midnightblue" stroke="midnightblue" points="674.68,-331.75 671.18,-321.75 667.68,-331.75 674.68,-331.75"/>
</g>
<!-- Node3&#45;&gt;Node12 -->
<g id="edge45" class="edge">
<title>Node3&#45;&gt;Node12</title>
<path fill="none" stroke="midnightblue" d="M647.5,-358.43C613.81,-344.78 553.34,-314.58 528.18,-266 513.67,-238 550.06,-218.56 582.53,-207.29"/>
<polygon fill="midnightblue" stroke="midnightblue" points="584.01,-210.49 592.42,-204.06 581.83,-203.84 584.01,-210.49"/>
</g>
<!-- Node3&#45;&gt;Node20 -->
<g id="edge46" class="edge">
<title>Node3&#45;&gt;Node20</title>
<path fill="none" stroke="midnightblue" d="M727.11,-358.44C842.09,-338.48 1108.85,-279.77 1284.18,-143 1320.32,-114.81 1333.94,-59.15 1338.75,-29.93"/>
<polygon fill="midnightblue" stroke="midnightblue" points="1342.24,-30.22 1340.23,-19.81 1335.32,-29.2 1342.24,-30.22"/>
</g>
<!-- Node5 -->
<g id="node5" class="node">
<title>Node5</title>
<g id="a_node5"><a xlink:title=" ">
<polygon fill="none" stroke="#bfbfbf" points="1304.18,-246.5 1304.18,-265.5 1416.18,-265.5 1416.18,-246.5 1304.18,-246.5"/>
<text text-anchor="middle" x="1360.18" y="-253.5" font-family="Helvetica,sans-Serif" font-size="10.00">config&#45;features.hpp</text>
</a>
</g>
</g>
<!-- Node4&#45;&gt;Node5 -->
<g id="edge4" class="edge">
<title>Node4&#45;&gt;Node5</title>
<path fill="none" stroke="midnightblue" d="M1350.99,-302.08C1352.45,-294.93 1354.55,-284.64 1356.37,-275.69"/>
<polygon fill="midnightblue" stroke="midnightblue" points="1359.83,-276.25 1358.39,-265.75 1352.97,-274.85 1359.83,-276.25"/>
</g>
<!-- Node7 -->
<g id="node7" class="node">
<title>Node7</title>
<g id="a_node7"><a xlink:href="BoxGeometry_8hpp.html" target="_top" xlink:title=" ">
<polygon fill="none" stroke="black" points="258.18,-246.5 258.18,-265.5 362.18,-265.5 362.18,-246.5 258.18,-246.5"/>
<text text-anchor="middle" x="310.18" y="-253.5" font-family="Helvetica,sans-Serif" font-size="10.00">BoxGeometry.hpp</text>
</a>
</g>
</g>
<!-- Node6&#45;&gt;Node7 -->
<g id="edge6" class="edge">
<title>Node6&#45;&gt;Node7</title>
<path fill="none" stroke="midnightblue" d="M643.15,-306.81C585.44,-298.18 452.12,-278.23 372.79,-266.37"/>
<polygon fill="midnightblue" stroke="midnightblue" points="372.85,-262.84 362.44,-264.82 371.81,-269.76 372.85,-262.84"/>
</g>
<!-- Node6&#45;&gt;Node12 -->
<g id="edge43" class="edge">
<title>Node6&#45;&gt;Node12</title>
<path fill="none" stroke="midnightblue" d="M682.01,-302.14C695.97,-289.6 717.19,-265.98 706.18,-246 696.63,-228.69 678.37,-216.49 661.71,-208.42"/>
<polygon fill="midnightblue" stroke="midnightblue" points="662.71,-205.04 652.16,-204.15 659.85,-211.43 662.71,-205.04"/>
</g>
<!-- Node32 -->
<g id="node32" class="node">
<title>Node32</title>
<g id="a_node32"><a xlink:href="LocalBox_8hpp.html" target="_top" xlink:title=" ">
<polygon fill="none" stroke="black" points="753.18,-246.5 753.18,-265.5 835.18,-265.5 835.18,-246.5 753.18,-246.5"/>
<text text-anchor="middle" x="794.18" y="-253.5" font-family="Helvetica,sans-Serif" font-size="10.00">LocalBox.hpp</text>
</a>
</g>
</g>
<!-- Node6&#45;&gt;Node32 -->
<g id="edge41" class="edge">
<title>Node6&#45;&gt;Node32</title>
<path fill="none" stroke="midnightblue" d="M690.67,-302.44C710.82,-293.6 742.5,-279.69 765.51,-269.59"/>
<polygon fill="midnightblue" stroke="midnightblue" points="767.03,-272.74 774.78,-265.52 764.21,-266.33 767.03,-272.74"/>
</g>
<!-- Node33 -->
<g id="node33" class="node">
<title>Node33</title>
<g id="a_node33"><a xlink:title=" ">
<polygon fill="none" stroke="#bfbfbf" points="537.18,-246.5 537.18,-265.5 697.18,-265.5 697.18,-246.5 537.18,-246.5"/>
<text text-anchor="middle" x="617.18" y="-253.5" font-family="Helvetica,sans-Serif" font-size="10.00">boost/mpi/communicator.hpp</text>
</a>
</g>
</g>
<!-- Node6&#45;&gt;Node33 -->
<g id="edge44" class="edge">
<title>Node6&#45;&gt;Node33</title>
<path fill="none" stroke="midnightblue" d="M662.26,-302.08C654.4,-294.22 642.74,-282.57 633.26,-273.08"/>
<polygon fill="midnightblue" stroke="midnightblue" points="635.47,-270.35 625.93,-265.75 630.52,-275.3 635.47,-270.35"/>
</g>
<!-- Node8 -->
<g id="node8" class="node">
<title>Node8</title>
<g id="a_node8"><a xlink:href="periodic__fold_8hpp.html" target="_top" xlink:title=" ">
<polygon fill="none" stroke="black" points="42.18,-179.5 42.18,-209.5 148.18,-209.5 148.18,-179.5 42.18,-179.5"/>
<text text-anchor="start" x="50.18" y="-197.5" font-family="Helvetica,sans-Serif" font-size="10.00">algorithm/periodic</text>
<text text-anchor="middle" x="95.18" y="-186.5" font-family="Helvetica,sans-Serif" font-size="10.00">_fold.hpp</text>
</a>
</g>
</g>
<!-- Node7&#45;&gt;Node8 -->
<g id="edge7" class="edge">
<title>Node7&#45;&gt;Node8</title>
<path fill="none" stroke="midnightblue" d="M279.37,-246.48C247.19,-237.57 195.88,-223.37 155.57,-212.22"/>
<polygon fill="midnightblue" stroke="midnightblue" points="156.42,-208.82 145.85,-209.52 154.55,-215.56 156.42,-208.82"/>
</g>
<!-- Node7&#45;&gt;Node9 -->
<g id="edge38" class="edge">
<title>Node7&#45;&gt;Node9</title>
<path fill="none" stroke="midnightblue" d="M317.48,-246.14C329.06,-230.98 348.77,-199.7 333.18,-179 329.38,-173.96 254.85,-154.15 209.87,-142.56"/>
<polygon fill="midnightblue" stroke="midnightblue" points="210.49,-139.11 199.94,-140.01 208.76,-145.89 210.49,-139.11"/>
</g>
<!-- Node10 -->
<g id="node10" class="node">
<title>Node10</title>
<g id="a_node10"><a xlink:title=" ">
<polygon fill="none" stroke="#bfbfbf" points="85.18,-123.5 85.18,-142.5 129.18,-142.5 129.18,-123.5 85.18,-123.5"/>
<text text-anchor="middle" x="107.18" y="-130.5" font-family="Helvetica,sans-Serif" font-size="10.00">limits</text>
</a>
</g>
</g>
<!-- Node7&#45;&gt;Node10 -->
<g id="edge39" class="edge">
<title>Node7&#45;&gt;Node10</title>
<path fill="none" stroke="midnightblue" d="M295.9,-246.49C261.33,-225.89 172.86,-173.15 130.49,-147.89"/>
<polygon fill="midnightblue" stroke="midnightblue" points="132.09,-144.77 121.71,-142.66 128.5,-150.79 132.09,-144.77"/>
</g>
<!-- Node11 -->
<g id="node11" class="node">
<title>Node11</title>
<g id="a_node11"><a xlink:title=" ">
<polygon fill="none" stroke="#bfbfbf" points="10.68,-123.5 10.68,-142.5 55.68,-142.5 55.68,-123.5 10.68,-123.5"/>
<text text-anchor="middle" x="33.18" y="-130.5" font-family="Helvetica,sans-Serif" font-size="10.00">utility</text>
</a>
</g>
</g>
<!-- Node7&#45;&gt;Node11 -->
<g id="edge40" class="edge">
<title>Node7&#45;&gt;Node11</title>
<path fill="none" stroke="midnightblue" d="M258.04,-254.26C185.95,-252.01 61.47,-243.26 33.18,-210 19.85,-194.34 22.75,-169.57 27.06,-152.6"/>
<polygon fill="midnightblue" stroke="midnightblue" points="30.49,-153.32 29.94,-142.74 23.77,-151.36 30.49,-153.32"/>
</g>
<!-- Node7&#45;&gt;Node12 -->
<g id="edge11" class="edge">
<title>Node7&#45;&gt;Node12</title>
<path fill="none" stroke="midnightblue" d="M355.45,-246.48C412.35,-235.76 509.96,-217.38 571.12,-205.87"/>
<polygon fill="midnightblue" stroke="midnightblue" points="571.8,-209.3 580.98,-204.01 570.51,-202.42 571.8,-209.3"/>
</g>
<!-- Node17 -->
<g id="node17" class="node">
<title>Node17</title>
<g id="a_node17"><a xlink:title=" ">
<polygon fill="none" stroke="#bfbfbf" points="283.18,-0.5 283.18,-19.5 335.18,-19.5 335.18,-0.5 283.18,-0.5"/>
<text text-anchor="middle" x="309.18" y="-7.5" font-family="Helvetica,sans-Serif" font-size="10.00">cassert</text>
</a>
</g>
</g>
<!-- Node7&#45;&gt;Node17 -->
<g id="edge37" class="edge">
<title>Node7&#45;&gt;Node17</title>
<path fill="none" stroke="midnightblue" d="M258.06,-253.5C184.3,-250.31 54.57,-240.42 20.18,-210 -3.01,-189.49 5.44,-173.66 1.18,-143 -15.08,-26.13 187.76,-11.59 272.73,-10.59"/>
<polygon fill="midnightblue" stroke="midnightblue" points="272.98,-14.09 282.96,-10.53 272.93,-7.09 272.98,-14.09"/>
</g>
<!-- Node31 -->
<g id="node31" class="node">
<title>Node31</title>
<g id="a_node31"><a xlink:title=" ">
<polygon fill="none" stroke="#bfbfbf" points="280.18,-185 280.18,-204 324.18,-204 324.18,-185 280.18,-185"/>
<text text-anchor="middle" x="302.18" y="-192" font-family="Helvetica,sans-Serif" font-size="10.00">bitset</text>
</a>
</g>
</g>
<!-- Node7&#45;&gt;Node31 -->
<g id="edge36" class="edge">
<title>Node7&#45;&gt;Node31</title>
<path fill="none" stroke="midnightblue" d="M309.03,-246.48C307.9,-238.08 306.14,-224.98 304.68,-214.16"/>
<polygon fill="midnightblue" stroke="midnightblue" points="308.12,-213.45 303.32,-204.01 301.18,-214.39 308.12,-213.45"/>
</g>
<!-- Node8&#45;&gt;Node9 -->
<g id="edge8" class="edge">
<title>Node8&#45;&gt;Node9</title>
<path fill="none" stroke="midnightblue" d="M114.37,-179.4C126.99,-170.13 143.47,-158.03 156.24,-148.65"/>
<polygon fill="midnightblue" stroke="midnightblue" points="158.4,-151.4 164.39,-142.66 154.26,-145.76 158.4,-151.4"/>
</g>
<!-- Node8&#45;&gt;Node10 -->
<g id="edge9" class="edge">
<title>Node8&#45;&gt;Node10</title>
<path fill="none" stroke="midnightblue" d="M98.02,-179.4C99.64,-171.38 101.68,-161.23 103.43,-152.57"/>
<polygon fill="midnightblue" stroke="midnightblue" points="106.88,-153.15 105.43,-142.66 100.02,-151.77 106.88,-153.15"/>
</g>
<!-- Node8&#45;&gt;Node11 -->
<g id="edge10" class="edge">
<title>Node8&#45;&gt;Node11</title>
<path fill="none" stroke="midnightblue" d="M80.48,-179.4C71.19,-170.49 59.18,-158.95 49.58,-149.74"/>
<polygon fill="midnightblue" stroke="midnightblue" points="51.84,-147.06 42.2,-142.66 46.99,-152.11 51.84,-147.06"/>
</g>
<!-- Node12&#45;&gt;Node9 -->
<g id="edge28" class="edge">
<title>Node12&#45;&gt;Node9</title>
<path fill="none" stroke="midnightblue" d="M579.29,-187.3C488.16,-175.25 289.13,-148.93 209.79,-138.44"/>
<polygon fill="midnightblue" stroke="midnightblue" points="210.22,-134.97 199.85,-137.13 209.31,-141.91 210.22,-134.97"/>
</g>
<!-- Node13 -->
<g id="node13" class="node">
<title>Node13</title>
<g id="a_node13"><a xlink:title=" ">
<polygon fill="none" stroke="#bfbfbf" points="705.18,-123.5 705.18,-142.5 855.18,-142.5 855.18,-123.5 705.18,-123.5"/>
<text text-anchor="middle" x="780.18" y="-130.5" font-family="Helvetica,sans-Serif" font-size="10.00">boost/qvm/deduce_vec.hpp</text>
</a>
</g>
</g>
<!-- Node12&#45;&gt;Node13 -->
<g id="edge12" class="edge">
<title>Node12&#45;&gt;Node13</title>
<path fill="none" stroke="midnightblue" d="M648.24,-184.98C674.54,-174.81 718.69,-157.76 748.6,-146.2"/>
<polygon fill="midnightblue" stroke="midnightblue" points="750.09,-149.38 758.15,-142.51 747.56,-142.85 750.09,-149.38"/>
</g>
<!-- Node14 -->
<g id="node14" class="node">
<title>Node14</title>
<g id="a_node14"><a xlink:title=" ">
<polygon fill="none" stroke="#bfbfbf" points="873.18,-123.5 873.18,-142.5 1013.18,-142.5 1013.18,-123.5 873.18,-123.5"/>
<text text-anchor="middle" x="943.18" y="-130.5" font-family="Helvetica,sans-Serif" font-size="10.00">boost/qvm/vec_traits.hpp</text>
</a>
</g>
</g>
<!-- Node12&#45;&gt;Node14 -->
<g id="edge13" class="edge">
<title>Node12&#45;&gt;Node14</title>
<path fill="none" stroke="midnightblue" d="M671.59,-184.98C728.68,-174.26 826.59,-155.88 887.95,-144.37"/>
<polygon fill="midnightblue" stroke="midnightblue" points="888.66,-147.79 897.84,-142.51 887.37,-140.91 888.66,-147.79"/>
</g>
<!-- Node15 -->
<g id="node15" class="node">
<title>Node15</title>
<g id="a_node15"><a xlink:href="Array_8hpp.html" target="_top" xlink:title=" ">
<polygon fill="none" stroke="black" points="1069.18,-123.5 1069.18,-142.5 1155.18,-142.5 1155.18,-123.5 1069.18,-123.5"/>
<text text-anchor="middle" x="1112.18" y="-130.5" font-family="Helvetica,sans-Serif" font-size="10.00">utils/Array.hpp</text>
</a>
</g>
</g>
<!-- Node12&#45;&gt;Node15 -->
<g id="edge14" class="edge">
<title>Node12&#45;&gt;Node15</title>
<path fill="none" stroke="midnightblue" d="M672.91,-188.61C751.82,-180.21 916.44,-162.11 1055.18,-143 1056.43,-142.83 1057.7,-142.65 1058.98,-142.47"/>
<polygon fill="midnightblue" stroke="midnightblue" points="1059.55,-145.92 1068.94,-141.01 1058.54,-138.99 1059.55,-145.92"/>
</g>
<!-- Node12&#45;&gt;Node17 -->
<g id="edge27" class="edge">
<title>Node12&#45;&gt;Node17</title>
<path fill="none" stroke="midnightblue" d="M579.48,-193.67C495.43,-192.89 323.88,-185.93 286.18,-143 257.75,-110.63 282.48,-56.03 298.34,-28.29"/>
<polygon fill="midnightblue" stroke="midnightblue" points="301.36,-30.06 303.48,-19.68 295.35,-26.47 301.36,-30.06"/>
</g>
<!-- Node19 -->
<g id="node19" class="node">
<title>Node19</title>
<g id="a_node19"><a xlink:title=" ">
<polygon fill="none" stroke="#bfbfbf" points="1133.68,-0.5 1133.68,-19.5 1186.68,-19.5 1186.68,-0.5 1133.68,-0.5"/>
<text text-anchor="middle" x="1160.18" y="-7.5" font-family="Helvetica,sans-Serif" font-size="10.00">cstddef</text>
</a>
</g>
</g>
<!-- Node12&#45;&gt;Node19 -->
<g id="edge29" class="edge">
<title>Node12&#45;&gt;Node19</title>
<path fill="none" stroke="midnightblue" d="M672.94,-190.95C772.74,-185.04 999.39,-168.88 1022.18,-143 1028.05,-136.33 1027.75,-129.93 1022.18,-123 975.41,-64.85 904.95,-145.15 858.18,-87 849.54,-76.26 849.18,-66.44 858.18,-56 891.99,-16.77 1050.11,-11.21 1123.09,-10.78"/>
<polygon fill="midnightblue" stroke="midnightblue" points="1123.23,-14.28 1133.22,-10.75 1123.21,-7.28 1123.23,-14.28"/>
</g>
<!-- Node22 -->
<g id="node22" class="node">
<title>Node22</title>
<g id="a_node22"><a xlink:title=" ">
<polygon fill="none" stroke="#bfbfbf" points="1259.68,-62 1259.68,-81 1312.68,-81 1312.68,-62 1259.68,-62"/>
<text text-anchor="middle" x="1286.18" y="-69" font-family="Helvetica,sans-Serif" font-size="10.00">iterator</text>
</a>
</g>
</g>
<!-- Node12&#45;&gt;Node22 -->
<g id="edge32" class="edge">
<title>Node12&#45;&gt;Node22</title>
<path fill="none" stroke="midnightblue" d="M672.88,-191.68C786.21,-186.85 1073.12,-172.05 1164.18,-143 1174.68,-139.65 1230.85,-106.08 1263.19,-86.5"/>
<polygon fill="midnightblue" stroke="midnightblue" points="1265.27,-89.33 1272,-81.15 1261.64,-83.35 1265.27,-89.33"/>
</g>
<!-- Node25 -->
<g id="node25" class="node">
<title>Node25</title>
<g id="a_node25"><a xlink:title=" ">
<polygon fill="none" stroke="#bfbfbf" points="1211.18,-123.5 1211.18,-142.5 1275.18,-142.5 1275.18,-123.5 1211.18,-123.5"/>
<text text-anchor="middle" x="1243.18" y="-130.5" font-family="Helvetica,sans-Serif" font-size="10.00">algorithm</text>
</a>
</g>
</g>
<!-- Node12&#45;&gt;Node25 -->
<g id="edge26" class="edge">
<title>Node12&#45;&gt;Node25</title>
<path fill="none" stroke="midnightblue" d="M673,-191.03C770.75,-185.5 1003.55,-170.43 1197.18,-143 1198.44,-142.82 1199.73,-142.63 1201.03,-142.43"/>
<polygon fill="midnightblue" stroke="midnightblue" points="1201.8,-145.85 1211.08,-140.73 1200.63,-138.94 1201.8,-145.85"/>
</g>
<!-- Node26 -->
<g id="node26" class="node">
<title>Node26</title>
<g id="a_node26"><a xlink:title=" ">
<polygon fill="none" stroke="#bfbfbf" points="294.68,-123.5 294.68,-142.5 359.68,-142.5 359.68,-123.5 294.68,-123.5"/>
<text text-anchor="middle" x="327.18" y="-130.5" font-family="Helvetica,sans-Serif" font-size="10.00">functional</text>
</a>
</g>
</g>
<!-- Node12&#45;&gt;Node26 -->
<g id="edge30" class="edge">
<title>Node12&#45;&gt;Node26</title>
<path fill="none" stroke="midnightblue" d="M581.56,-184.97C532.27,-175.5 450.28,-159.58 369.56,-143.05"/>
<polygon fill="midnightblue" stroke="midnightblue" points="370.22,-139.61 359.72,-141.03 368.82,-146.47 370.22,-139.61"/>
</g>
<!-- Node27 -->
<g id="node27" class="node">
<title>Node27</title>
<g id="a_node27"><a xlink:title=" ">
<polygon fill="none" stroke="#bfbfbf" points="377.68,-123.5 377.68,-142.5 460.68,-142.5 460.68,-123.5 377.68,-123.5"/>
<text text-anchor="middle" x="419.18" y="-130.5" font-family="Helvetica,sans-Serif" font-size="10.00">initializer_list</text>
</a>
</g>
</g>
<!-- Node12&#45;&gt;Node27 -->
<g id="edge31" class="edge">
<title>Node12&#45;&gt;Node27</title>
<path fill="none" stroke="midnightblue" d="M596.52,-184.98C560.24,-174.55 498.71,-156.86 458.51,-145.31"/>
<polygon fill="midnightblue" stroke="midnightblue" points="459.36,-141.91 448.78,-142.51 457.42,-148.64 459.36,-141.91"/>
</g>
<!-- Node28 -->
<g id="node28" class="node">
<title>Node28</title>
<g id="a_node28"><a xlink:title=" ">
<polygon fill="none" stroke="#bfbfbf" points="479.18,-123.5 479.18,-142.5 535.18,-142.5 535.18,-123.5 479.18,-123.5"/>
<text text-anchor="middle" x="507.18" y="-130.5" font-family="Helvetica,sans-Serif" font-size="10.00">numeric</text>
</a>
</g>
</g>
<!-- Node12&#45;&gt;Node28 -->
<g id="edge33" class="edge">
<title>Node12&#45;&gt;Node28</title>
<path fill="none" stroke="midnightblue" d="M609.13,-184.98C589.33,-175.08 556.46,-158.64 533.41,-147.12"/>
<polygon fill="midnightblue" stroke="midnightblue" points="534.7,-143.85 524.19,-142.51 531.57,-150.11 534.7,-143.85"/>
</g>
<!-- Node29 -->
<g id="node29" class="node">
<title>Node29</title>
<g id="a_node29"><a xlink:title=" ">
<polygon fill="none" stroke="#bfbfbf" points="553.68,-123.5 553.68,-142.5 622.68,-142.5 622.68,-123.5 553.68,-123.5"/>
<text text-anchor="middle" x="588.18" y="-130.5" font-family="Helvetica,sans-Serif" font-size="10.00">type_traits</text>
</a>
</g>
</g>
<!-- Node12&#45;&gt;Node29 -->
<g id="edge34" class="edge">
<title>Node12&#45;&gt;Node29</title>
<path fill="none" stroke="midnightblue" d="M620.73,-184.98C615.09,-176.14 606.11,-162.09 599.02,-150.98"/>
<polygon fill="midnightblue" stroke="midnightblue" points="601.94,-149.05 593.61,-142.51 596.04,-152.82 601.94,-149.05"/>
</g>
<!-- Node30 -->
<g id="node30" class="node">
<title>Node30</title>
<g id="a_node30"><a xlink:title=" ">
<polygon fill="none" stroke="#bfbfbf" points="640.68,-123.5 640.68,-142.5 687.68,-142.5 687.68,-123.5 640.68,-123.5"/>
<text text-anchor="middle" x="664.18" y="-130.5" font-family="Helvetica,sans-Serif" font-size="10.00">vector</text>
</a>
</g>
</g>
<!-- Node12&#45;&gt;Node30 -->
<g id="edge35" class="edge">
<title>Node12&#45;&gt;Node30</title>
<path fill="none" stroke="midnightblue" d="M631.62,-184.98C637.26,-176.14 646.24,-162.09 653.33,-150.98"/>
<polygon fill="midnightblue" stroke="midnightblue" points="656.31,-152.82 658.74,-142.51 650.41,-149.05 656.31,-152.82"/>
</g>
<!-- Node16 -->
<g id="node16" class="node">
<title>Node16</title>
<g id="a_node16"><a xlink:href="device__qualifier_8hpp.html" target="_top" xlink:title=" ">
<polygon fill="none" stroke="black" points="294.18,-62 294.18,-81 410.18,-81 410.18,-62 294.18,-62"/>
<text text-anchor="middle" x="352.18" y="-69" font-family="Helvetica,sans-Serif" font-size="10.00">device_qualifier.hpp</text>
</a>
</g>
</g>
<!-- Node15&#45;&gt;Node16 -->
<g id="edge15" class="edge">
<title>Node15&#45;&gt;Node16</title>
<path fill="none" stroke="midnightblue" d="M1069.16,-127.48C1054.29,-125.98 1037.51,-124.34 1022.18,-123 802.56,-103.75 542.05,-85.4 420.72,-77.11"/>
<polygon fill="midnightblue" stroke="midnightblue" points="420.68,-73.6 410.47,-76.41 420.21,-80.58 420.68,-73.6"/>
</g>
<!-- Node15&#45;&gt;Node17 -->
<g id="edge21" class="edge">
<title>Node15&#45;&gt;Node17</title>
<path fill="none" stroke="midnightblue" d="M1069,-125.49C927.07,-104.11 476.46,-36.21 345.31,-16.45"/>
<polygon fill="midnightblue" stroke="midnightblue" points="345.78,-12.98 335.37,-14.95 344.74,-19.9 345.78,-12.98"/>
</g>
<!-- Node18 -->
<g id="node18" class="node">
<title>Node18</title>
<g id="a_node18"><a xlink:href="get_8hpp.html" target="_top" xlink:title=" ">
<polygon fill="none" stroke="black" points="1188.68,-62 1188.68,-81 1241.68,-81 1241.68,-62 1188.68,-62"/>
<text text-anchor="middle" x="1215.18" y="-69" font-family="Helvetica,sans-Serif" font-size="10.00">get.hpp</text>
</a>
</g>
</g>
<!-- Node15&#45;&gt;Node18 -->
<g id="edge17" class="edge">
<title>Node15&#45;&gt;Node18</title>
<path fill="none" stroke="midnightblue" d="M1126.93,-123.48C1143.84,-113.71 1171.76,-97.58 1191.67,-86.08"/>
<polygon fill="midnightblue" stroke="midnightblue" points="1193.54,-89.04 1200.45,-81.01 1190.04,-82.98 1193.54,-89.04"/>
</g>
<!-- Node15&#45;&gt;Node19 -->
<g id="edge22" class="edge">
<title>Node15&#45;&gt;Node19</title>
<path fill="none" stroke="midnightblue" d="M1119.11,-123.19C1125.66,-114.46 1135.34,-100.48 1141.18,-87 1149.27,-68.32 1154.39,-45.5 1157.25,-29.77"/>
<polygon fill="midnightblue" stroke="midnightblue" points="1160.73,-30.18 1158.95,-19.73 1153.83,-29.01 1160.73,-30.18"/>
</g>
<!-- Node21 -->
<g id="node21" class="node">
<title>Node21</title>
<g id="a_node21"><a xlink:title=" ">
<polygon fill="none" stroke="#bfbfbf" points="866.68,-56.5 866.68,-86.5 973.68,-86.5 973.68,-56.5 866.68,-56.5"/>
<text text-anchor="start" x="874.68" y="-74.5" font-family="Helvetica,sans-Serif" font-size="10.00">boost/serialization</text>
<text text-anchor="middle" x="920.18" y="-63.5" font-family="Helvetica,sans-Serif" font-size="10.00">/access.hpp</text>
</a>
</g>
</g>
<!-- Node15&#45;&gt;Node21 -->
<g id="edge20" class="edge">
<title>Node15&#45;&gt;Node21</title>
<path fill="none" stroke="midnightblue" d="M1084.67,-123.48C1056.23,-114.66 1011.07,-100.67 975.26,-89.57"/>
<polygon fill="midnightblue" stroke="midnightblue" points="976.01,-86.14 965.43,-86.52 973.94,-92.83 976.01,-86.14"/>
</g>
<!-- Node15&#45;&gt;Node22 -->
<g id="edge23" class="edge">
<title>Node15&#45;&gt;Node22</title>
<path fill="none" stroke="midnightblue" d="M1140.89,-123.44C1169.16,-114.84 1213.45,-100.9 1251.18,-87 1253.03,-86.32 1254.93,-85.6 1256.83,-84.85"/>
<polygon fill="midnightblue" stroke="midnightblue" points="1258.32,-88.03 1266.29,-81.06 1255.71,-81.53 1258.32,-88.03"/>
</g>
<!-- Node23 -->
<g id="node23" class="node">
<title>Node23</title>
<g id="a_node23"><a xlink:title=" ">
<polygon fill="none" stroke="#bfbfbf" points="991.68,-62 991.68,-81 1048.68,-81 1048.68,-62 991.68,-62"/>
<text text-anchor="middle" x="1020.18" y="-69" font-family="Helvetica,sans-Serif" font-size="10.00">ostream</text>
</a>
</g>
</g>
<!-- Node15&#45;&gt;Node23 -->
<g id="edge24" class="edge">
<title>Node15&#45;&gt;Node23</title>
<path fill="none" stroke="midnightblue" d="M1098.99,-123.48C1084.1,-113.84 1059.63,-98.02 1041.9,-86.55"/>
<polygon fill="midnightblue" stroke="midnightblue" points="1043.63,-83.5 1033.33,-81.01 1039.83,-89.38 1043.63,-83.5"/>
</g>
<!-- Node24 -->
<g id="node24" class="node">
<title>Node24</title>
<g id="a_node24"><a xlink:title=" ">
<polygon fill="none" stroke="#bfbfbf" points="1066.68,-62 1066.68,-81 1131.68,-81 1131.68,-62 1066.68,-62"/>
<text text-anchor="middle" x="1099.18" y="-69" font-family="Helvetica,sans-Serif" font-size="10.00">stdexcept</text>
</a>
</g>
</g>
<!-- Node15&#45;&gt;Node24 -->
<g id="edge25" class="edge">
<title>Node15&#45;&gt;Node24</title>
<path fill="none" stroke="midnightblue" d="M1110.31,-123.48C1108.46,-114.99 1105.56,-101.7 1103.18,-90.82"/>
<polygon fill="midnightblue" stroke="midnightblue" points="1106.59,-90.03 1101.03,-81.01 1099.75,-91.53 1106.59,-90.03"/>
</g>
<!-- Node16&#45;&gt;Node17 -->
<g id="edge16" class="edge">
<title>Node16&#45;&gt;Node17</title>
<path fill="none" stroke="midnightblue" d="M346.01,-61.98C339.56,-53.05 329.27,-38.81 321.2,-27.64"/>
<polygon fill="midnightblue" stroke="midnightblue" points="324.02,-25.56 315.32,-19.51 318.35,-29.66 324.02,-25.56"/>
</g>
<!-- Node18&#45;&gt;Node19 -->
<g id="edge18" class="edge">
<title>Node18&#45;&gt;Node19</title>
<path fill="none" stroke="midnightblue" d="M1207.3,-61.98C1198.88,-52.87 1185.36,-38.24 1174.95,-26.98"/>
<polygon fill="midnightblue" stroke="midnightblue" points="1177.4,-24.48 1168.04,-19.51 1172.26,-29.23 1177.4,-24.48"/>
</g>
<!-- Node18&#45;&gt;Node20 -->
<g id="edge19" class="edge">
<title>Node18&#45;&gt;Node20</title>
<path fill="none" stroke="midnightblue" d="M1233.23,-61.98C1254.37,-51.99 1289.62,-35.35 1314.05,-23.81"/>
<polygon fill="midnightblue" stroke="midnightblue" points="1315.61,-26.94 1323.16,-19.51 1312.62,-20.61 1315.61,-26.94"/>
</g>
<!-- Node32&#45;&gt;Node12 -->
<g id="edge42" class="edge">
<title>Node32&#45;&gt;Node12</title>
<path fill="none" stroke="midnightblue" d="M770.11,-246.48C741.16,-236.22 692.41,-218.96 659.77,-207.4"/>
<polygon fill="midnightblue" stroke="midnightblue" points="660.8,-204.05 650.2,-204.01 658.46,-210.65 660.8,-204.05"/>
</g>
<!-- Node34&#45;&gt;Node16 -->
<g id="edge49" class="edge">
<title>Node34&#45;&gt;Node16</title>
<path fill="none" stroke="midnightblue" d="M390.85,-358.36C392.64,-329.43 394.59,-234.65 349.18,-179 328.79,-154.01 302.36,-170.89 286.18,-143 273.03,-120.34 300.52,-99.08 323.94,-85.95"/>
<polygon fill="midnightblue" stroke="midnightblue" points="325.75,-88.95 332.94,-81.16 322.47,-82.76 325.75,-88.95"/>
</g>
</g>
</svg>
        <g id="navigator" transform="translate(0 0)" fill="#404254">
                <rect fill="#f2f5e9" fill-opacity="0.5" stroke="#606060" stroke-width=".5" x="0" y="0" width="60" height="60"/>
                <use id="zoomplus" xlink:href="#zoomPlus" x="17" y="9" onmousedown="handleZoom(evt,'in')"/>
                <use id="zoomminus" xlink:href="#zoomMin" x="42" y="9" onmousedown="handleZoom(evt,'out')"/>
                <use id="reset" xlink:href="#resetDef" x="30" y="36" onmousedown="handleReset()"/>
                <g id="arrowUp" xlink:href="#dirArrow" transform="translate(30 24)" onmousedown="handlePan(0,-1)">
                  <use xlink:href="#rim" fill="#404040">
                        <set attributeName="fill" to="#808080" begin="arrowUp.mouseover" end="arrowUp.mouseout"/>
                  </use>
                  <path fill="none" stroke="white" stroke-width="1.5" d="M0,-3.0v7 M-2.5,-0.5L0,-3.0L2.5,-0.5"/>
                </g>
                <g id="arrowRight" xlink:href="#dirArrow" transform="rotate(90) translate(36 -43)" onmousedown="handlePan(1,0)">
                  <use xlink:href="#rim" fill="#404040">
                        <set attributeName="fill" to="#808080" begin="arrowRight.mouseover" end="arrowRight.mouseout"/>
                  </use>
                  <path fill="none" stroke="white" stroke-width="1.5" d="M0,-3.0v7 M-2.5,-0.5L0,-3.0L2.5,-0.5"/>
                </g>
                <g id="arrowDown" xlink:href="#dirArrow" transform="rotate(180) translate(-30 -48)" onmousedown="handlePan(0,1)">
                  <use xlink:href="#rim" fill="#404040">
                        <set attributeName="fill" to="#808080" begin="arrowDown.mouseover" end="arrowDown.mouseout"/>
                  </use>
                  <path fill="none" stroke="white" stroke-width="1.5" d="M0,-3.0v7 M-2.5,-0.5L0,-3.0L2.5,-0.5"/>
                </g>
                <g id="arrowLeft" xlink:href="#dirArrow" transform="rotate(270) translate(-36 17)" onmousedown="handlePan(-1,0)">
                  <use xlink:href="#rim" fill="#404040">
                        <set attributeName="fill" to="#808080" begin="arrowLeft.mouseover" end="arrowLeft.mouseout"/>
                  </use>
                  <path fill="none" stroke="white" stroke-width="1.5" d="M0,-3.0v7 M-2.5,-0.5L0,-3.0L2.5,-0.5"/>
                </g>
        </g>
        <svg viewBox="0 0 15 15" width="100%" height="30px" preserveAspectRatio="xMaxYMin meet">
         <g id="arrow_out" transform="scale(0.3 0.3)">
          <a xlink:href="angle__cosine_8cpp__incl_org.svg" target="_base">
           <rect id="button" ry="5" rx="5" y="6" x="6" height="38" width="38"
                fill="#f2f5e9" fill-opacity="0.5" stroke="#606060" stroke-width="1.0"/>
           <path id="arrow"
             d="M 11.500037,31.436501 C 11.940474,20.09759 22.043105,11.32322 32.158766,21.979434 L 37.068811,17.246167 C 37.068811,17.246167 37.088388,32 37.088388,32 L 22.160133,31.978069 C 22.160133,31.978069 26.997745,27.140456 26.997745,27.140456 C 18.528582,18.264221 13.291696,25.230495 11.500037,31.436501 z"
             style="fill:#404040;"/>
          </a>
         </g>
        </svg>
</svg>
