<?xml version="1.0" encoding="UTF-8" standalone="no"?>
<!DOCTYPE svg PUBLIC "-//W3C//DTD SVG 1.1//EN"
 "http://www.w3.org/Graphics/SVG/1.1/DTD/svg11.dtd">
<!-- Generated by graphviz version 2.43.0 (0)
 -->
<!-- Title: Array.hpp Pages: 1 -->
<svg width="626pt" height="151pt"
 viewBox="0.00 0.00 625.50 151.00" xmlns="http://www.w3.org/2000/svg" xmlns:xlink="http://www.w3.org/1999/xlink">
<g id="graph0" class="graph" transform="scale(1 1) rotate(0) translate(4 147)">
<title>Array.hpp</title>
<!-- Node1 -->
<g id="node1" class="node">
<title>Node1</title>
<g id="a_node1"><a xlink:title=" ">
<polygon fill="#bfbfbf" stroke="black" points="255,-123.5 255,-142.5 317,-142.5 317,-123.5 255,-123.5"/>
<text text-anchor="middle" x="286" y="-130.5" font-family="Helvetica,sans-Serif" font-size="10.00">Array.hpp</text>
</a>
</g>
</g>
<!-- Node2 -->
<g id="node2" class="node">
<title>Node2</title>
<g id="a_node2"><a xlink:href="device__qualifier_8hpp.html" target="_top" xlink:title=" ">
<polygon fill="none" stroke="black" points="0,-62 0,-81 116,-81 116,-62 0,-62"/>
<text text-anchor="middle" x="58" y="-69" font-family="Helvetica,sans-Serif" font-size="10.00">device_qualifier.hpp</text>
</a>
</g>
</g>
<!-- Node1&#45;&gt;Node2 -->
<g id="edge1" class="edge">
<title>Node1&#45;&gt;Node2</title>
<path fill="none" stroke="midnightblue" d="M254.78,-123.85C214.75,-113.41 145.19,-95.25 100.4,-83.57"/>
<polygon fill="midnightblue" stroke="midnightblue" points="101.25,-80.17 90.69,-81.03 99.48,-86.94 101.25,-80.17"/>
</g>
<!-- Node3 -->
<g id="node3" class="node">
<title>Node3</title>
<g id="a_node3"><a xlink:title=" ">
<polygon fill="none" stroke="#bfbfbf" points="59,-0.5 59,-19.5 111,-19.5 111,-0.5 59,-0.5"/>
<text text-anchor="middle" x="85" y="-7.5" font-family="Helvetica,sans-Serif" font-size="10.00">cassert</text>
</a>
</g>
</g>
<!-- Node1&#45;&gt;Node3 -->
<g id="edge7" class="edge">
<title>Node1&#45;&gt;Node3</title>
<path fill="none" stroke="midnightblue" d="M261.86,-123.41C240.45,-115.34 208.67,-102.24 183,-87 152.66,-68.99 121,-42.89 102.14,-26.44"/>
<polygon fill="midnightblue" stroke="midnightblue" points="104.24,-23.62 94.43,-19.62 99.61,-28.87 104.24,-23.62"/>
</g>
<!-- Node4 -->
<g id="node4" class="node">
<title>Node4</title>
<g id="a_node4"><a xlink:href="get_8hpp.html" target="_top" xlink:title=" ">
<polygon fill="none" stroke="black" points="210.5,-62 210.5,-81 263.5,-81 263.5,-62 210.5,-62"/>
<text text-anchor="middle" x="237" y="-69" font-family="Helvetica,sans-Serif" font-size="10.00">get.hpp</text>
</a>
</g>
</g>
<!-- Node1&#45;&gt;Node4 -->
<g id="edge3" class="edge">
<title>Node1&#45;&gt;Node4</title>
<path fill="none" stroke="midnightblue" d="M278.98,-123.48C271.56,-114.46 259.67,-100.02 250.43,-88.81"/>
<polygon fill="midnightblue" stroke="midnightblue" points="253.07,-86.5 244.01,-81.01 247.66,-90.95 253.07,-86.5"/>
</g>
<!-- Node5 -->
<g id="node5" class="node">
<title>Node5</title>
<g id="a_node5"><a xlink:title=" ">
<polygon fill="none" stroke="#bfbfbf" points="155.5,-0.5 155.5,-19.5 208.5,-19.5 208.5,-0.5 155.5,-0.5"/>
<text text-anchor="middle" x="182" y="-7.5" font-family="Helvetica,sans-Serif" font-size="10.00">cstddef</text>
</a>
</g>
</g>
<!-- Node1&#45;&gt;Node5 -->
<g id="edge8" class="edge">
<title>Node1&#45;&gt;Node5</title>
<path fill="none" stroke="midnightblue" d="M256.71,-123.39C238.12,-116.46 215,-104.88 201,-87 188.19,-70.64 183.9,-46.75 182.53,-30.13"/>
<polygon fill="midnightblue" stroke="midnightblue" points="186.01,-29.77 181.97,-19.98 179.02,-30.15 186.01,-29.77"/>
</g>
<!-- Node7 -->
<g id="node7" class="node">
<title>Node7</title>
<g id="a_node7"><a xlink:title=" ">
<polygon fill="none" stroke="#bfbfbf" points="281.5,-56.5 281.5,-86.5 388.5,-86.5 388.5,-56.5 281.5,-56.5"/>
<text text-anchor="start" x="289.5" y="-74.5" font-family="Helvetica,sans-Serif" font-size="10.00">boost/serialization</text>
<text text-anchor="middle" x="335" y="-63.5" font-family="Helvetica,sans-Serif" font-size="10.00">/access.hpp</text>
</a>
</g>
</g>
<!-- Node1&#45;&gt;Node7 -->
<g id="edge6" class="edge">
<title>Node1&#45;&gt;Node7</title>
<path fill="none" stroke="midnightblue" d="M293.02,-123.48C299.28,-115.87 308.73,-104.4 317.08,-94.26"/>
<polygon fill="midnightblue" stroke="midnightblue" points="319.8,-96.47 323.45,-86.52 314.39,-92.02 319.8,-96.47"/>
</g>
<!-- Node8 -->
<g id="node8" class="node">
<title>Node8</title>
<g id="a_node8"><a xlink:title=" ">
<polygon fill="none" stroke="#bfbfbf" points="406.5,-62 406.5,-81 459.5,-81 459.5,-62 406.5,-62"/>
<text text-anchor="middle" x="433" y="-69" font-family="Helvetica,sans-Serif" font-size="10.00">iterator</text>
</a>
</g>
</g>
<!-- Node1&#45;&gt;Node8 -->
<g id="edge9" class="edge">
<title>Node1&#45;&gt;Node8</title>
<path fill="none" stroke="midnightblue" d="M307.5,-123.44C330.07,-114.44 366.57,-99.82 398,-87 399.59,-86.35 401.22,-85.68 402.87,-85.01"/>
<polygon fill="midnightblue" stroke="midnightblue" points="404.38,-88.17 412.29,-81.12 401.71,-81.7 404.38,-88.17"/>
</g>
<!-- Node9 -->
<g id="node9" class="node">
<title>Node9</title>
<g id="a_node9"><a xlink:title=" ">
<polygon fill="none" stroke="#bfbfbf" points="477.5,-62 477.5,-81 534.5,-81 534.5,-62 477.5,-62"/>
<text text-anchor="middle" x="506" y="-69" font-family="Helvetica,sans-Serif" font-size="10.00">ostream</text>
</a>
</g>
</g>
<!-- Node1&#45;&gt;Node9 -->
<g id="edge10" class="edge">
<title>Node1&#45;&gt;Node9</title>
<path fill="none" stroke="midnightblue" d="M317.11,-125.67C353.8,-117.9 416.45,-103.68 469,-87 471.27,-86.28 473.61,-85.49 475.95,-84.66"/>
<polygon fill="midnightblue" stroke="midnightblue" points="477.29,-87.89 485.43,-81.12 474.84,-81.34 477.29,-87.89"/>
</g>
<!-- Node10 -->
<g id="node10" class="node">
<title>Node10</title>
<g id="a_node10"><a xlink:title=" ">
<polygon fill="none" stroke="#bfbfbf" points="552.5,-62 552.5,-81 617.5,-81 617.5,-62 552.5,-62"/>
<text text-anchor="middle" x="585" y="-69" font-family="Helvetica,sans-Serif" font-size="10.00">stdexcept</text>
</a>
</g>
</g>
<!-- Node1&#45;&gt;Node10 -->
<g id="edge11" class="edge">
<title>Node1&#45;&gt;Node10</title>
<path fill="none" stroke="midnightblue" d="M317.34,-128.26C366.26,-122.02 463.51,-108.09 544,-87 547.04,-86.2 550.18,-85.28 553.3,-84.3"/>
<polygon fill="midnightblue" stroke="midnightblue" points="554.72,-87.51 563.08,-81.01 552.49,-80.88 554.72,-87.51"/>
</g>
<!-- Node2&#45;&gt;Node3 -->
<g id="edge2" class="edge">
<title>Node2&#45;&gt;Node3</title>
<path fill="none" stroke="midnightblue" d="M61.87,-61.98C65.8,-53.32 72,-39.65 76.99,-28.65"/>
<polygon fill="midnightblue" stroke="midnightblue" points="80.19,-30.06 81.14,-19.51 73.82,-27.17 80.19,-30.06"/>
</g>
<!-- Node4&#45;&gt;Node5 -->
<g id="edge4" class="edge">
<title>Node4&#45;&gt;Node5</title>
<path fill="none" stroke="midnightblue" d="M229.12,-61.98C220.71,-52.87 207.18,-38.24 196.77,-26.98"/>
<polygon fill="midnightblue" stroke="midnightblue" points="199.22,-24.48 189.87,-19.51 194.08,-29.23 199.22,-24.48"/>
</g>
<!-- Node6 -->
<g id="node6" class="node">
<title>Node6</title>
<g id="a_node6"><a xlink:title=" ">
<polygon fill="none" stroke="#bfbfbf" points="226.5,-0.5 226.5,-19.5 267.5,-19.5 267.5,-0.5 226.5,-0.5"/>
<text text-anchor="middle" x="247" y="-7.5" font-family="Helvetica,sans-Serif" font-size="10.00">tuple</text>
</a>
</g>
</g>
<!-- Node4&#45;&gt;Node6 -->
<g id="edge5" class="edge">
<title>Node4&#45;&gt;Node6</title>
<path fill="none" stroke="midnightblue" d="M238.43,-61.98C239.84,-53.58 242.05,-40.48 243.86,-29.66"/>
<polygon fill="midnightblue" stroke="midnightblue" points="247.36,-29.95 245.57,-19.51 240.46,-28.79 247.36,-29.95"/>
</g>
</g>
</svg>
