<?xml version="1.0" encoding="UTF-8" standalone="no"?>
<!DOCTYPE svg PUBLIC "-//W3C//DTD SVG 1.1//EN"
 "http://www.w3.org/Graphics/SVG/1.1/DTD/svg11.dtd">
<!-- Generated by graphviz version 2.43.0 (0)
 -->
<!-- Title: AS_erfc_part.hpp Pages: 1 -->
<svg width="2240pt" height="722pt"
 viewBox="0.00 0.00 2240.00 722.00" xmlns="http://www.w3.org/2000/svg" xmlns:xlink="http://www.w3.org/1999/xlink">
<g id="graph0" class="graph" transform="scale(1 1) rotate(0) translate(4 718)">
<title>AS_erfc_part.hpp</title>
<!-- Node1 -->
<g id="node1" class="node">
<title>Node1</title>
<g id="a_node1"><a xlink:title=" ">
<polygon fill="#bfbfbf" stroke="black" points="333.5,-694.5 333.5,-713.5 432.5,-713.5 432.5,-694.5 333.5,-694.5"/>
<text text-anchor="middle" x="383" y="-701.5" font-family="Helvetica,sans-Serif" font-size="10.00">AS_erfc_part.hpp</text>
</a>
</g>
</g>
<!-- Node2 -->
<g id="node2" class="node">
<title>Node2</title>
<g id="a_node2"><a xlink:href="p3m-dipolar_8hpp.html" target="_top" xlink:title=" ">
<polygon fill="none" stroke="black" points="208.5,-398 208.5,-417 305.5,-417 305.5,-398 208.5,-398"/>
<text text-anchor="middle" x="257" y="-405" font-family="Helvetica,sans-Serif" font-size="10.00">p3m&#45;dipolar.hpp</text>
</a>
</g>
</g>
<!-- Node1&#45;&gt;Node2 -->
<g id="edge1" class="edge">
<title>Node1&#45;&gt;Node2</title>
<path fill="none" stroke="midnightblue" d="M356.88,-689.49C326.66,-671.77 281,-637.61 281,-593 281,-593 281,-593 281,-535 281,-490.07 266.2,-437.71 259.85,-417.29"/>
<polygon fill="midnightblue" stroke="midnightblue" points="355.27,-692.6 365.7,-694.45 358.7,-686.5 355.27,-692.6"/>
</g>
<!-- Node21 -->
<g id="node21" class="node">
<title>Node21</title>
<g id="a_node21"><a xlink:href="p3m_8hpp.html" target="_top" xlink:title=" ">
<polygon fill="none" stroke="black" points="506.5,-638.5 506.5,-657.5 565.5,-657.5 565.5,-638.5 506.5,-638.5"/>
<text text-anchor="middle" x="536" y="-645.5" font-family="Helvetica,sans-Serif" font-size="10.00">p3m.hpp</text>
</a>
</g>
</g>
<!-- Node1&#45;&gt;Node21 -->
<g id="edge22" class="edge">
<title>Node1&#45;&gt;Node21</title>
<path fill="none" stroke="midnightblue" d="M416.89,-691.04C445.68,-680.88 486.29,-666.55 511.87,-657.52"/>
<polygon fill="midnightblue" stroke="midnightblue" points="415.51,-687.81 407.24,-694.44 417.84,-694.42 415.51,-687.81"/>
</g>
<!-- Node3 -->
<g id="node3" class="node">
<title>Node3</title>
<g id="a_node3"><a xlink:href="dipole_8cpp.html" target="_top" xlink:title=" ">
<polygon fill="none" stroke="black" points="114.5,-336.5 114.5,-355.5 181.5,-355.5 181.5,-336.5 114.5,-336.5"/>
<text text-anchor="middle" x="148" y="-343.5" font-family="Helvetica,sans-Serif" font-size="10.00">dipole.cpp</text>
</a>
</g>
</g>
<!-- Node2&#45;&gt;Node3 -->
<g id="edge2" class="edge">
<title>Node2&#45;&gt;Node3</title>
<path fill="none" stroke="midnightblue" d="M232.37,-393.06C211.28,-381.54 181.54,-365.31 163.59,-355.51"/>
<polygon fill="midnightblue" stroke="midnightblue" points="230.93,-396.26 241.38,-397.98 234.28,-390.11 230.93,-396.26"/>
</g>
<!-- Node4 -->
<g id="node4" class="node">
<title>Node4</title>
<g id="a_node4"><a xlink:href="dipole__inline_8hpp.html" target="_top" xlink:title=" ">
<polygon fill="none" stroke="black" points="371,-336.5 371,-355.5 471,-355.5 471,-336.5 371,-336.5"/>
<text text-anchor="middle" x="421" y="-343.5" font-family="Helvetica,sans-Serif" font-size="10.00">dipole_inline.hpp</text>
</a>
</g>
</g>
<!-- Node2&#45;&gt;Node4 -->
<g id="edge3" class="edge">
<title>Node2&#45;&gt;Node4</title>
<path fill="none" stroke="midnightblue" d="M290.26,-394.43C322.14,-382.87 369.43,-365.71 397.55,-355.51"/>
<polygon fill="midnightblue" stroke="midnightblue" points="288.7,-391.27 280.5,-397.98 291.09,-397.85 288.7,-391.27"/>
</g>
<!-- Node19 -->
<g id="node19" class="node">
<title>Node19</title>
<g id="a_node19"><a xlink:href="mdlc__correction_8cpp.html" target="_top" xlink:title=" ">
<polygon fill="none" stroke="black" points="199.5,-336.5 199.5,-355.5 314.5,-355.5 314.5,-336.5 199.5,-336.5"/>
<text text-anchor="middle" x="257" y="-343.5" font-family="Helvetica,sans-Serif" font-size="10.00">mdlc_correction.cpp</text>
</a>
</g>
</g>
<!-- Node2&#45;&gt;Node19 -->
<g id="edge20" class="edge">
<title>Node2&#45;&gt;Node19</title>
<path fill="none" stroke="midnightblue" d="M257,-387.82C257,-377 257,-363.9 257,-355.51"/>
<polygon fill="midnightblue" stroke="midnightblue" points="253.5,-387.98 257,-397.98 260.5,-387.98 253.5,-387.98"/>
</g>
<!-- Node20 -->
<g id="node20" class="node">
<title>Node20</title>
<g id="a_node20"><a xlink:href="p3m-dipolar_8cpp.html" target="_top" xlink:title=" ">
<polygon fill="none" stroke="black" points="0,-336.5 0,-355.5 96,-355.5 96,-336.5 0,-336.5"/>
<text text-anchor="middle" x="48" y="-343.5" font-family="Helvetica,sans-Serif" font-size="10.00">p3m&#45;dipolar.cpp</text>
</a>
</g>
</g>
<!-- Node2&#45;&gt;Node20 -->
<g id="edge21" class="edge">
<title>Node2&#45;&gt;Node20</title>
<path fill="none" stroke="midnightblue" d="M217.22,-395.18C176.61,-383.61 114.49,-365.93 77.89,-355.51"/>
<polygon fill="midnightblue" stroke="midnightblue" points="216.48,-398.6 227.06,-397.98 218.4,-391.87 216.48,-398.6"/>
</g>
<!-- Node5 -->
<g id="node5" class="node">
<title>Node5</title>
<g id="a_node5"><a xlink:href="energy__inline_8hpp.html" target="_top" xlink:title=" ">
<polygon fill="none" stroke="black" points="447,-280.5 447,-299.5 551,-299.5 551,-280.5 447,-280.5"/>
<text text-anchor="middle" x="499" y="-287.5" font-family="Helvetica,sans-Serif" font-size="10.00">energy_inline.hpp</text>
</a>
</g>
</g>
<!-- Node4&#45;&gt;Node5 -->
<g id="edge4" class="edge">
<title>Node4&#45;&gt;Node5</title>
<path fill="none" stroke="midnightblue" d="M441.77,-330.62C456.02,-320.76 474.46,-307.99 486.5,-299.65"/>
<polygon fill="midnightblue" stroke="midnightblue" points="439.76,-327.75 433.53,-336.32 443.75,-333.51 439.76,-327.75"/>
</g>
<!-- Node15 -->
<g id="node15" class="node">
<title>Node15</title>
<g id="a_node15"><a xlink:href="forces__inline_8hpp.html" target="_top" xlink:title=" ">
<polygon fill="none" stroke="black" points="1437,-280.5 1437,-299.5 1537,-299.5 1537,-280.5 1437,-280.5"/>
<text text-anchor="middle" x="1487" y="-287.5" font-family="Helvetica,sans-Serif" font-size="10.00">forces_inline.hpp</text>
</a>
</g>
</g>
<!-- Node4&#45;&gt;Node15 -->
<g id="edge15" class="edge">
<title>Node4&#45;&gt;Node15</title>
<path fill="none" stroke="midnightblue" d="M481.28,-340.07C499.79,-338.64 520.23,-337.16 539,-336 882.09,-314.78 1295.58,-298.26 1436.87,-292.87"/>
<polygon fill="midnightblue" stroke="midnightblue" points="480.92,-336.58 471.22,-340.85 481.46,-343.56 480.92,-336.58"/>
</g>
<!-- Node6 -->
<g id="node6" class="node">
<title>Node6</title>
<g id="a_node6"><a xlink:href="ShapeBasedConstraint_8cpp.html" target="_top" xlink:title=" ">
<polygon fill="none" stroke="black" points="1124.5,-224.5 1124.5,-243.5 1271.5,-243.5 1271.5,-224.5 1124.5,-224.5"/>
<text text-anchor="middle" x="1198" y="-231.5" font-family="Helvetica,sans-Serif" font-size="10.00">ShapeBasedConstraint.cpp</text>
</a>
</g>
</g>
<!-- Node5&#45;&gt;Node6 -->
<g id="edge5" class="edge">
<title>Node5&#45;&gt;Node6</title>
<path fill="none" stroke="midnightblue" d="M561.19,-279.95C771.18,-257.4 1007.01,-244.15 1124.16,-238.38"/>
<polygon fill="midnightblue" stroke="midnightblue" points="560.77,-276.47 551.21,-281.03 561.53,-283.43 560.77,-276.47"/>
</g>
<!-- Node7 -->
<g id="node7" class="node">
<title>Node7</title>
<g id="a_node7"><a xlink:href="energy_8cpp.html" target="_top" xlink:title=" ">
<polygon fill="none" stroke="black" points="709.5,-224.5 709.5,-243.5 778.5,-243.5 778.5,-224.5 709.5,-224.5"/>
<text text-anchor="middle" x="744" y="-231.5" font-family="Helvetica,sans-Serif" font-size="10.00">energy.cpp</text>
</a>
</g>
</g>
<!-- Node5&#45;&gt;Node7 -->
<g id="edge6" class="edge">
<title>Node5&#45;&gt;Node7</title>
<path fill="none" stroke="midnightblue" d="M547.63,-278.28C595.39,-267.75 667.06,-251.96 709.32,-242.64"/>
<polygon fill="midnightblue" stroke="midnightblue" points="546.83,-274.87 537.82,-280.44 548.34,-281.71 546.83,-274.87"/>
</g>
<!-- Node8 -->
<g id="node8" class="node">
<title>Node8</title>
<g id="a_node8"><a xlink:href="core_2pair__criteria_2pair__criteria_8hpp.html" target="_top" xlink:title=" ">
<polygon fill="none" stroke="black" points="451,-224.5 451,-243.5 547,-243.5 547,-224.5 451,-224.5"/>
<text text-anchor="middle" x="499" y="-231.5" font-family="Helvetica,sans-Serif" font-size="10.00">pair_criteria.hpp</text>
</a>
</g>
</g>
<!-- Node5&#45;&gt;Node8 -->
<g id="edge7" class="edge">
<title>Node5&#45;&gt;Node8</title>
<path fill="none" stroke="midnightblue" d="M499,-269.8C499,-260.91 499,-250.78 499,-243.75"/>
<polygon fill="midnightblue" stroke="midnightblue" points="495.5,-270.08 499,-280.08 502.5,-270.08 495.5,-270.08"/>
</g>
<!-- Node9 -->
<g id="node9" class="node">
<title>Node9</title>
<g id="a_node9"><a xlink:href="script__interface_2pair__criteria_2pair__criteria_8hpp.html" target="_top" xlink:title=" ">
<polygon fill="none" stroke="black" points="451,-168.5 451,-187.5 547,-187.5 547,-168.5 451,-168.5"/>
<text text-anchor="middle" x="499" y="-175.5" font-family="Helvetica,sans-Serif" font-size="10.00">pair_criteria.hpp</text>
</a>
</g>
</g>
<!-- Node8&#45;&gt;Node9 -->
<g id="edge8" class="edge">
<title>Node8&#45;&gt;Node9</title>
<path fill="none" stroke="midnightblue" d="M499,-213.8C499,-204.91 499,-194.78 499,-187.75"/>
<polygon fill="midnightblue" stroke="midnightblue" points="495.5,-214.08 499,-224.08 502.5,-214.08 495.5,-214.08"/>
</g>
<!-- Node10 -->
<g id="node10" class="node">
<title>Node10</title>
<g id="a_node10"><a xlink:href="core_2cluster__analysis_2ClusterStructure_8hpp.html" target="_top" xlink:title=" ">
<polygon fill="none" stroke="black" points="355,-112.5 355,-131.5 471,-131.5 471,-112.5 355,-112.5"/>
<text text-anchor="middle" x="413" y="-119.5" font-family="Helvetica,sans-Serif" font-size="10.00">ClusterStructure.hpp</text>
</a>
</g>
</g>
<!-- Node9&#45;&gt;Node10 -->
<g id="edge9" class="edge">
<title>Node9&#45;&gt;Node10</title>
<path fill="none" stroke="midnightblue" d="M476.55,-162.9C460.78,-153 440.19,-140.07 426.78,-131.65"/>
<polygon fill="midnightblue" stroke="midnightblue" points="474.85,-165.97 485.18,-168.32 478.57,-160.04 474.85,-165.97"/>
</g>
<!-- Node12 -->
<g id="node12" class="node">
<title>Node12</title>
<g id="a_node12"><a xlink:href="script__interface_2cluster__analysis_2ClusterStructure_8hpp.html" target="_top" xlink:title=" ">
<polygon fill="none" stroke="black" points="441,-56.5 441,-75.5 557,-75.5 557,-56.5 441,-56.5"/>
<text text-anchor="middle" x="499" y="-63.5" font-family="Helvetica,sans-Serif" font-size="10.00">ClusterStructure.hpp</text>
</a>
</g>
</g>
<!-- Node9&#45;&gt;Node12 -->
<g id="edge13" class="edge">
<title>Node9&#45;&gt;Node12</title>
<path fill="none" stroke="midnightblue" d="M499,-158.35C499,-134.25 499,-93.31 499,-75.59"/>
<polygon fill="midnightblue" stroke="midnightblue" points="495.5,-158.37 499,-168.37 502.5,-158.37 495.5,-158.37"/>
</g>
<!-- Node14 -->
<g id="node14" class="node">
<title>Node14</title>
<g id="a_node14"><a xlink:href="pair__criteria_2initialize_8cpp.html" target="_top" xlink:title=" ">
<polygon fill="none" stroke="black" points="527.5,-112.5 527.5,-131.5 606.5,-131.5 606.5,-112.5 527.5,-112.5"/>
<text text-anchor="middle" x="567" y="-119.5" font-family="Helvetica,sans-Serif" font-size="10.00">initialize.cpp</text>
</a>
</g>
</g>
<!-- Node9&#45;&gt;Node14 -->
<g id="edge14" class="edge">
<title>Node9&#45;&gt;Node14</title>
<path fill="none" stroke="midnightblue" d="M517.76,-162.1C530,-152.38 545.56,-140.03 555.88,-131.83"/>
<polygon fill="midnightblue" stroke="midnightblue" points="515.58,-159.36 509.93,-168.32 519.93,-164.85 515.58,-159.36"/>
</g>
<!-- Node11 -->
<g id="node11" class="node">
<title>Node11</title>
<g id="a_node11"><a xlink:href="ClusterStructure_8cpp.html" target="_top" xlink:title=" ">
<polygon fill="none" stroke="black" points="307,-56.5 307,-75.5 423,-75.5 423,-56.5 307,-56.5"/>
<text text-anchor="middle" x="365" y="-63.5" font-family="Helvetica,sans-Serif" font-size="10.00">ClusterStructure.cpp</text>
</a>
</g>
</g>
<!-- Node10&#45;&gt;Node11 -->
<g id="edge10" class="edge">
<title>Node10&#45;&gt;Node11</title>
<path fill="none" stroke="midnightblue" d="M398.27,-104.43C389.86,-94.97 379.65,-83.48 372.78,-75.75"/>
<polygon fill="midnightblue" stroke="midnightblue" points="395.81,-106.93 405.07,-112.08 401.05,-102.28 395.81,-106.93"/>
</g>
<!-- Node10&#45;&gt;Node12 -->
<g id="edge11" class="edge">
<title>Node10&#45;&gt;Node12</title>
<path fill="none" stroke="midnightblue" d="M435.45,-106.9C451.22,-97 471.81,-84.07 485.22,-75.65"/>
<polygon fill="midnightblue" stroke="midnightblue" points="433.43,-104.04 426.82,-112.32 437.15,-109.97 433.43,-104.04"/>
</g>
<!-- Node13 -->
<g id="node13" class="node">
<title>Node13</title>
<g id="a_node13"><a xlink:href="cluster__analysis_2initialize_8cpp.html" target="_top" xlink:title=" ">
<polygon fill="none" stroke="black" points="459.5,-0.5 459.5,-19.5 538.5,-19.5 538.5,-0.5 459.5,-0.5"/>
<text text-anchor="middle" x="499" y="-7.5" font-family="Helvetica,sans-Serif" font-size="10.00">initialize.cpp</text>
</a>
</g>
</g>
<!-- Node12&#45;&gt;Node13 -->
<g id="edge12" class="edge">
<title>Node12&#45;&gt;Node13</title>
<path fill="none" stroke="midnightblue" d="M499,-45.8C499,-36.91 499,-26.78 499,-19.75"/>
<polygon fill="midnightblue" stroke="midnightblue" points="495.5,-46.08 499,-56.08 502.5,-46.08 495.5,-46.08"/>
</g>
<!-- Node15&#45;&gt;Node6 -->
<g id="edge16" class="edge">
<title>Node15&#45;&gt;Node6</title>
<path fill="none" stroke="midnightblue" d="M1431.34,-278.6C1376.73,-268.4 1294.43,-253.02 1243.58,-243.52"/>
<polygon fill="midnightblue" stroke="midnightblue" points="1430.73,-282.05 1441.21,-280.44 1432.02,-275.17 1430.73,-282.05"/>
</g>
<!-- Node16 -->
<g id="node16" class="node">
<title>Node16</title>
<g id="a_node16"><a xlink:href="forces_8cpp.html" target="_top" xlink:title=" ">
<polygon fill="none" stroke="black" points="1453.5,-224.5 1453.5,-243.5 1520.5,-243.5 1520.5,-224.5 1453.5,-224.5"/>
<text text-anchor="middle" x="1487" y="-231.5" font-family="Helvetica,sans-Serif" font-size="10.00">forces.cpp</text>
</a>
</g>
</g>
<!-- Node15&#45;&gt;Node16 -->
<g id="edge17" class="edge">
<title>Node15&#45;&gt;Node16</title>
<path fill="none" stroke="midnightblue" d="M1487,-269.8C1487,-260.91 1487,-250.78 1487,-243.75"/>
<polygon fill="midnightblue" stroke="midnightblue" points="1483.5,-270.08 1487,-280.08 1490.5,-270.08 1483.5,-270.08"/>
</g>
<!-- Node17 -->
<g id="node17" class="node">
<title>Node17</title>
<g id="a_node17"><a xlink:href="pressure__inline_8hpp.html" target="_top" xlink:title=" ">
<polygon fill="none" stroke="black" points="2092,-224.5 2092,-243.5 2204,-243.5 2204,-224.5 2092,-224.5"/>
<text text-anchor="middle" x="2148" y="-231.5" font-family="Helvetica,sans-Serif" font-size="10.00">pressure_inline.hpp</text>
</a>
</g>
</g>
<!-- Node15&#45;&gt;Node17 -->
<g id="edge18" class="edge">
<title>Node15&#45;&gt;Node17</title>
<path fill="none" stroke="midnightblue" d="M1547.56,-284.05C1674.83,-273.66 1968.49,-249.66 2091.84,-239.59"/>
<polygon fill="midnightblue" stroke="midnightblue" points="1546.91,-280.59 1537.22,-284.9 1547.48,-287.57 1546.91,-280.59"/>
</g>
<!-- Node18 -->
<g id="node18" class="node">
<title>Node18</title>
<g id="a_node18"><a xlink:href="pressure_8cpp.html" target="_top" xlink:title=" ">
<polygon fill="none" stroke="black" points="2150.5,-168.5 2150.5,-187.5 2229.5,-187.5 2229.5,-168.5 2150.5,-168.5"/>
<text text-anchor="middle" x="2190" y="-175.5" font-family="Helvetica,sans-Serif" font-size="10.00">pressure.cpp</text>
</a>
</g>
</g>
<!-- Node17&#45;&gt;Node18 -->
<g id="edge19" class="edge">
<title>Node17&#45;&gt;Node18</title>
<path fill="none" stroke="midnightblue" d="M2161.11,-216.14C2168.43,-206.74 2177.24,-195.4 2183.19,-187.75"/>
<polygon fill="midnightblue" stroke="midnightblue" points="2158.31,-214.04 2154.94,-224.08 2163.84,-218.34 2158.31,-214.04"/>
</g>
<!-- Node22 -->
<g id="node22" class="node">
<title>Node22</title>
<g id="a_node22"><a xlink:href="coulomb_8cpp.html" target="_top" xlink:title=" ">
<polygon fill="none" stroke="black" points="496.5,-582.5 496.5,-601.5 575.5,-601.5 575.5,-582.5 496.5,-582.5"/>
<text text-anchor="middle" x="536" y="-589.5" font-family="Helvetica,sans-Serif" font-size="10.00">coulomb.cpp</text>
</a>
</g>
</g>
<!-- Node21&#45;&gt;Node22 -->
<g id="edge23" class="edge">
<title>Node21&#45;&gt;Node22</title>
<path fill="none" stroke="midnightblue" d="M536,-627.8C536,-618.91 536,-608.78 536,-601.75"/>
<polygon fill="midnightblue" stroke="midnightblue" points="532.5,-628.08 536,-638.08 539.5,-628.08 532.5,-628.08"/>
</g>
<!-- Node23 -->
<g id="node23" class="node">
<title>Node23</title>
<g id="a_node23"><a xlink:href="coulomb__inline_8hpp.html" target="_top" xlink:title=" ">
<polygon fill="none" stroke="black" points="366,-582.5 366,-601.5 478,-601.5 478,-582.5 366,-582.5"/>
<text text-anchor="middle" x="422" y="-589.5" font-family="Helvetica,sans-Serif" font-size="10.00">coulomb_inline.hpp</text>
</a>
</g>
</g>
<!-- Node21&#45;&gt;Node23 -->
<g id="edge24" class="edge">
<title>Node21&#45;&gt;Node23</title>
<path fill="none" stroke="midnightblue" d="M508.76,-634.1C487.46,-624.01 458.46,-610.27 439.98,-601.52"/>
<polygon fill="midnightblue" stroke="midnightblue" points="507.4,-637.33 517.94,-638.44 510.4,-631 507.4,-637.33"/>
</g>
<!-- Node49 -->
<g id="node49" class="node">
<title>Node49</title>
<g id="a_node49"><a xlink:href="elc_8cpp.html" target="_top" xlink:title=" ">
<polygon fill="none" stroke="black" points="593.5,-582.5 593.5,-601.5 644.5,-601.5 644.5,-582.5 593.5,-582.5"/>
<text text-anchor="middle" x="619" y="-589.5" font-family="Helvetica,sans-Serif" font-size="10.00">elc.cpp</text>
</a>
</g>
</g>
<!-- Node21&#45;&gt;Node49 -->
<g id="edge64" class="edge">
<title>Node21&#45;&gt;Node49</title>
<path fill="none" stroke="midnightblue" d="M558.1,-632.62C573.26,-622.76 592.88,-609.99 605.7,-601.65"/>
<polygon fill="midnightblue" stroke="midnightblue" points="555.81,-629.94 549.34,-638.32 559.63,-635.8 555.81,-629.94"/>
</g>
<!-- Node50 -->
<g id="node50" class="node">
<title>Node50</title>
<g id="a_node50"><a xlink:href="p3m_8cpp.html" target="_top" xlink:title=" ">
<polygon fill="none" stroke="black" points="662.5,-582.5 662.5,-601.5 721.5,-601.5 721.5,-582.5 662.5,-582.5"/>
<text text-anchor="middle" x="692" y="-589.5" font-family="Helvetica,sans-Serif" font-size="10.00">p3m.cpp</text>
</a>
</g>
</g>
<!-- Node21&#45;&gt;Node50 -->
<g id="edge65" class="edge">
<title>Node21&#45;&gt;Node50</title>
<path fill="none" stroke="midnightblue" d="M570.17,-635.17C599.54,-625 641.2,-610.59 667.4,-601.52"/>
<polygon fill="midnightblue" stroke="midnightblue" points="569.02,-631.86 560.72,-638.44 571.31,-638.48 569.02,-631.86"/>
</g>
<!-- Node23&#45;&gt;Node5 -->
<g id="edge62" class="edge">
<title>Node23&#45;&gt;Node5</title>
<path fill="none" stroke="midnightblue" d="M396.23,-577.1C384.2,-569.41 370.67,-558.8 362,-546 343.8,-519.13 343,-507.95 343,-475.5 343,-475.5 343,-475.5 343,-406.5 343,-374.05 339.68,-359.56 362,-336 383.95,-312.83 418.02,-301.57 446.69,-296.12"/>
<polygon fill="midnightblue" stroke="midnightblue" points="394.65,-580.24 405.02,-582.41 398.26,-574.24 394.65,-580.24"/>
</g>
<!-- Node23&#45;&gt;Node15 -->
<g id="edge63" class="edge">
<title>Node23&#45;&gt;Node15</title>
<path fill="none" stroke="midnightblue" d="M488.22,-582.32C656.39,-572.49 2156,-566.09 2156,-475.5 2156,-475.5 2156,-475.5 2156,-406.5 2156,-366.48 2135.37,-354.71 2100,-336 2050.83,-310 1675.13,-296.5 1537.4,-292.39"/>
<polygon fill="midnightblue" stroke="midnightblue" points="487.85,-578.84 478.14,-583.07 488.37,-585.82 487.85,-578.84"/>
</g>
<!-- Node24 -->
<g id="node24" class="node">
<title>Node24</title>
<g id="a_node24"><a xlink:href="bonded__coulomb__sr_8hpp.html" target="_top" xlink:title=" ">
<polygon fill="none" stroke="black" points="788.5,-526.5 788.5,-545.5 923.5,-545.5 923.5,-526.5 788.5,-526.5"/>
<text text-anchor="middle" x="856" y="-533.5" font-family="Helvetica,sans-Serif" font-size="10.00">bonded_coulomb_sr.hpp</text>
</a>
</g>
</g>
<!-- Node23&#45;&gt;Node24 -->
<g id="edge25" class="edge">
<title>Node23&#45;&gt;Node24</title>
<path fill="none" stroke="midnightblue" d="M488.26,-581.98C599.94,-567.59 716.8,-553.5 788.48,-544.97"/>
<polygon fill="midnightblue" stroke="midnightblue" points="487.63,-578.54 478.16,-583.29 488.53,-585.48 487.63,-578.54"/>
</g>
<!-- Node29 -->
<g id="node29" class="node">
<title>Node29</title>
<g id="a_node29"><a xlink:href="thole_8hpp.html" target="_top" xlink:title=" ">
<polygon fill="none" stroke="black" points="548,-336.5 548,-355.5 610,-355.5 610,-336.5 548,-336.5"/>
<text text-anchor="middle" x="579" y="-343.5" font-family="Helvetica,sans-Serif" font-size="10.00">thole.hpp</text>
</a>
</g>
</g>
<!-- Node23&#45;&gt;Node29 -->
<g id="edge61" class="edge">
<title>Node23&#45;&gt;Node29</title>
<path fill="none" stroke="midnightblue" d="M430.15,-572.85C446.84,-536.62 487.33,-453.52 534,-392 544.55,-378.09 559.22,-364.21 568.9,-355.62"/>
<polygon fill="midnightblue" stroke="midnightblue" points="426.87,-571.59 425.91,-582.15 433.24,-574.5 426.87,-571.59"/>
</g>
<!-- Node48 -->
<g id="node48" class="node">
<title>Node48</title>
<g id="a_node48"><a xlink:href="icc_8cpp.html" target="_top" xlink:title=" ">
<polygon fill="none" stroke="black" points="371,-526.5 371,-545.5 421,-545.5 421,-526.5 371,-526.5"/>
<text text-anchor="middle" x="396" y="-533.5" font-family="Helvetica,sans-Serif" font-size="10.00">icc.cpp</text>
</a>
</g>
</g>
<!-- Node23&#45;&gt;Node48 -->
<g id="edge60" class="edge">
<title>Node23&#45;&gt;Node48</title>
<path fill="none" stroke="midnightblue" d="M413.33,-572.98C408.91,-563.82 403.75,-553.09 400.21,-545.75"/>
<polygon fill="midnightblue" stroke="midnightblue" points="410.21,-574.59 417.71,-582.08 416.52,-571.55 410.21,-574.59"/>
</g>
<!-- Node25 -->
<g id="node25" class="node">
<title>Node25</title>
<g id="a_node25"><a xlink:href="bonded__coulomb__sr_8cpp.html" target="_top" xlink:title=" ">
<polygon fill="none" stroke="black" points="789,-465 789,-484 923,-484 923,-465 789,-465"/>
<text text-anchor="middle" x="856" y="-472" font-family="Helvetica,sans-Serif" font-size="10.00">bonded_coulomb_sr.cpp</text>
</a>
</g>
</g>
<!-- Node24&#45;&gt;Node25 -->
<g id="edge26" class="edge">
<title>Node24&#45;&gt;Node25</title>
<path fill="none" stroke="midnightblue" d="M856,-516.32C856,-505.5 856,-492.4 856,-484.01"/>
<polygon fill="midnightblue" stroke="midnightblue" points="852.5,-516.48 856,-526.48 859.5,-516.48 852.5,-516.48"/>
</g>
<!-- Node26 -->
<g id="node26" class="node">
<title>Node26</title>
<g id="a_node26"><a xlink:href="bonded__interaction__data_8hpp.html" target="_top" xlink:title=" ">
<polygon fill="none" stroke="black" points="1252,-459.5 1252,-489.5 1362,-489.5 1362,-459.5 1252,-459.5"/>
<text text-anchor="start" x="1260" y="-477.5" font-family="Helvetica,sans-Serif" font-size="10.00">bonded_interaction</text>
<text text-anchor="middle" x="1307" y="-466.5" font-family="Helvetica,sans-Serif" font-size="10.00">_data.hpp</text>
</a>
</g>
</g>
<!-- Node24&#45;&gt;Node26 -->
<g id="edge27" class="edge">
<title>Node24&#45;&gt;Node26</title>
<path fill="none" stroke="midnightblue" d="M930.79,-525.13C1021.18,-513.21 1171.14,-493.42 1251.72,-482.79"/>
<polygon fill="midnightblue" stroke="midnightblue" points="930.07,-521.7 920.62,-526.48 930.99,-528.64 930.07,-521.7"/>
</g>
<!-- Node26&#45;&gt;Node5 -->
<g id="edge36" class="edge">
<title>Node26&#45;&gt;Node5</title>
<path fill="none" stroke="midnightblue" d="M1241.64,-471.29C1060.08,-464.89 561.16,-445.34 534,-423 495.73,-391.52 496.62,-323.46 498.24,-299.53"/>
<polygon fill="midnightblue" stroke="midnightblue" points="1241.73,-474.8 1251.85,-471.65 1241.98,-467.8 1241.73,-474.8"/>
</g>
<!-- Node26&#45;&gt;Node15 -->
<g id="edge46" class="edge">
<title>Node26&#45;&gt;Node15</title>
<path fill="none" stroke="midnightblue" d="M1372.23,-471.18C1408.47,-466.23 1451.13,-453.64 1476,-423 1483.75,-413.45 1486.23,-327.63 1486.83,-299.72"/>
<polygon fill="midnightblue" stroke="midnightblue" points="1371.71,-467.72 1362.2,-472.38 1372.54,-474.67 1371.71,-467.72"/>
</g>
<!-- Node26&#45;&gt;Node17 -->
<g id="edge58" class="edge">
<title>Node26&#45;&gt;Node17</title>
<path fill="none" stroke="midnightblue" d="M1372.45,-471.87C1563.73,-466.78 2110.11,-449.95 2137,-423 2186.88,-373.01 2160.42,-273.54 2150.93,-243.67"/>
<polygon fill="midnightblue" stroke="midnightblue" points="1372.16,-468.37 1362.26,-472.13 1372.35,-475.37 1372.16,-468.37"/>
</g>
<!-- Node26&#45;&gt;Node18 -->
<g id="edge57" class="edge">
<title>Node26&#45;&gt;Node18</title>
<path fill="none" stroke="midnightblue" d="M1372.48,-472.39C1559.87,-468.82 2089.34,-455.9 2160,-423 2202.18,-403.36 2232,-393.53 2232,-347 2232,-347 2232,-347 2232,-289 2232,-248.93 2207.38,-205.74 2195.84,-187.69"/>
<polygon fill="midnightblue" stroke="midnightblue" points="1372.16,-468.89 1362.22,-472.58 1372.29,-475.89 1372.16,-468.89"/>
</g>
<!-- Node27 -->
<g id="node27" class="node">
<title>Node27</title>
<g id="a_node27"><a xlink:href="bonded__interaction__data_8cpp.html" target="_top" xlink:title=" ">
<polygon fill="none" stroke="black" points="1357,-392.5 1357,-422.5 1467,-422.5 1467,-392.5 1357,-392.5"/>
<text text-anchor="start" x="1365" y="-410.5" font-family="Helvetica,sans-Serif" font-size="10.00">bonded_interaction</text>
<text text-anchor="middle" x="1412" y="-399.5" font-family="Helvetica,sans-Serif" font-size="10.00">_data.cpp</text>
</a>
</g>
</g>
<!-- Node26&#45;&gt;Node27 -->
<g id="edge28" class="edge">
<title>Node26&#45;&gt;Node27</title>
<path fill="none" stroke="midnightblue" d="M1338.48,-454.02C1354.82,-443.9 1374.41,-431.77 1389.26,-422.58"/>
<polygon fill="midnightblue" stroke="midnightblue" points="1336.44,-451.16 1329.78,-459.4 1340.13,-457.11 1336.44,-451.16"/>
</g>
<!-- Node28 -->
<g id="node28" class="node">
<title>Node28</title>
<g id="a_node28"><a xlink:href="bonded__interaction__utils_8hpp.html" target="_top" xlink:title=" ">
<polygon fill="none" stroke="black" points="1147,-392.5 1147,-422.5 1257,-422.5 1257,-392.5 1147,-392.5"/>
<text text-anchor="start" x="1155" y="-410.5" font-family="Helvetica,sans-Serif" font-size="10.00">bonded_interaction</text>
<text text-anchor="middle" x="1202" y="-399.5" font-family="Helvetica,sans-Serif" font-size="10.00">_utils.hpp</text>
</a>
</g>
</g>
<!-- Node26&#45;&gt;Node28 -->
<g id="edge29" class="edge">
<title>Node26&#45;&gt;Node28</title>
<path fill="none" stroke="midnightblue" d="M1275.52,-454.02C1259.18,-443.9 1239.59,-431.77 1224.74,-422.58"/>
<polygon fill="midnightblue" stroke="midnightblue" points="1273.87,-457.11 1284.22,-459.4 1277.56,-451.16 1273.87,-457.11"/>
</g>
<!-- Node26&#45;&gt;Node29 -->
<g id="edge37" class="edge">
<title>Node26&#45;&gt;Node29</title>
<path fill="none" stroke="midnightblue" d="M1241.9,-470.37C1059.49,-461.44 555.88,-435.69 544,-423 525.14,-402.85 553.55,-370.75 569.46,-355.53"/>
<polygon fill="midnightblue" stroke="midnightblue" points="1241.74,-473.86 1251.9,-470.86 1242.08,-466.87 1241.74,-473.86"/>
</g>
<!-- Node31 -->
<g id="node31" class="node">
<title>Node31</title>
<g id="a_node31"><a xlink:href="thermalized__bond__utils_8cpp.html" target="_top" xlink:title=" ">
<polygon fill="none" stroke="black" points="1609.5,-398 1609.5,-417 1760.5,-417 1760.5,-398 1609.5,-398"/>
<text text-anchor="middle" x="1685" y="-405" font-family="Helvetica,sans-Serif" font-size="10.00">thermalized_bond_utils.cpp</text>
</a>
</g>
</g>
<!-- Node26&#45;&gt;Node31 -->
<g id="edge34" class="edge">
<title>Node26&#45;&gt;Node31</title>
<path fill="none" stroke="midnightblue" d="M1372.62,-462.22C1447.46,-449.35 1568.15,-428.59 1635.51,-417.01"/>
<polygon fill="midnightblue" stroke="midnightblue" points="1371.63,-458.83 1362.37,-463.98 1372.82,-465.73 1371.63,-458.83"/>
</g>
<!-- Node32 -->
<g id="node32" class="node">
<title>Node32</title>
<g id="a_node32"><a xlink:href="collision_8cpp.html" target="_top" xlink:title=" ">
<polygon fill="none" stroke="black" points="1778.5,-398 1778.5,-417 1855.5,-417 1855.5,-398 1778.5,-398"/>
<text text-anchor="middle" x="1817" y="-405" font-family="Helvetica,sans-Serif" font-size="10.00">collision.cpp</text>
</a>
</g>
</g>
<!-- Node26&#45;&gt;Node32 -->
<g id="edge35" class="edge">
<title>Node26&#45;&gt;Node32</title>
<path fill="none" stroke="midnightblue" d="M1372.13,-470.32C1462.3,-465.02 1629.9,-451.98 1770,-423 1777.36,-421.48 1785.21,-419.29 1792.35,-417.07"/>
<polygon fill="midnightblue" stroke="midnightblue" points="1371.84,-466.83 1362.05,-470.89 1372.24,-473.82 1371.84,-466.83"/>
</g>
<!-- Node33 -->
<g id="node33" class="node">
<title>Node33</title>
<g id="a_node33"><a xlink:href="forces_8hpp.html" target="_top" xlink:title=" ">
<polygon fill="none" stroke="black" points="1523,-398 1523,-417 1591,-417 1591,-398 1523,-398"/>
<text text-anchor="middle" x="1557" y="-405" font-family="Helvetica,sans-Serif" font-size="10.00">forces.hpp</text>
</a>
</g>
</g>
<!-- Node26&#45;&gt;Node33 -->
<g id="edge38" class="edge">
<title>Node26&#45;&gt;Node33</title>
<path fill="none" stroke="midnightblue" d="M1371.88,-458.12C1411.6,-448.5 1463.38,-435.58 1509,-423 1515.71,-421.15 1522.92,-419.04 1529.65,-417.01"/>
<polygon fill="midnightblue" stroke="midnightblue" points="1370.96,-454.75 1362.06,-460.5 1372.6,-461.55 1370.96,-454.75"/>
</g>
<!-- Node39 -->
<g id="node39" class="node">
<title>Node39</title>
<g id="a_node39"><a xlink:href="ImmersedBoundaries_8cpp.html" target="_top" xlink:title=" ">
<polygon fill="none" stroke="black" points="1873.5,-398 1873.5,-417 2014.5,-417 2014.5,-398 1873.5,-398"/>
<text text-anchor="middle" x="1944" y="-405" font-family="Helvetica,sans-Serif" font-size="10.00">ImmersedBoundaries.cpp</text>
</a>
</g>
</g>
<!-- Node26&#45;&gt;Node39 -->
<g id="edge47" class="edge">
<title>Node26&#45;&gt;Node39</title>
<path fill="none" stroke="midnightblue" d="M1372.3,-469.53C1476.72,-462.75 1687.56,-447.26 1865,-423 1876.88,-421.38 1889.7,-419.21 1901.47,-417.04"/>
<polygon fill="midnightblue" stroke="midnightblue" points="1371.99,-466.04 1362.23,-470.18 1372.44,-473.03 1371.99,-466.04"/>
</g>
<!-- Node40 -->
<g id="node40" class="node">
<title>Node40</title>
<g id="a_node40"><a xlink:href="rattle_8hpp.html" target="_top" xlink:title=" ">
<polygon fill="none" stroke="black" points="1275,-398 1275,-417 1339,-417 1339,-398 1275,-398"/>
<text text-anchor="middle" x="1307" y="-405" font-family="Helvetica,sans-Serif" font-size="10.00">rattle.hpp</text>
</a>
</g>
</g>
<!-- Node26&#45;&gt;Node40 -->
<g id="edge48" class="edge">
<title>Node26&#45;&gt;Node40</title>
<path fill="none" stroke="midnightblue" d="M1300.45,-449.25C1299.9,-438.02 1300.49,-425.38 1302.23,-417.19"/>
<polygon fill="midnightblue" stroke="midnightblue" points="1296.98,-449.73 1301.32,-459.4 1303.95,-449.13 1296.98,-449.73"/>
</g>
<!-- Node42 -->
<g id="node42" class="node">
<title>Node42</title>
<g id="a_node42"><a xlink:href="interactions_8cpp.html" target="_top" xlink:title=" ">
<polygon fill="none" stroke="black" points="2032.5,-398 2032.5,-417 2127.5,-417 2127.5,-398 2032.5,-398"/>
<text text-anchor="middle" x="2080" y="-405" font-family="Helvetica,sans-Serif" font-size="10.00">interactions.cpp</text>
</a>
</g>
</g>
<!-- Node26&#45;&gt;Node42 -->
<g id="edge52" class="edge">
<title>Node26&#45;&gt;Node42</title>
<path fill="none" stroke="midnightblue" d="M1372.57,-472.88C1499.27,-470.81 1786.22,-461.82 2024,-423 2032.92,-421.54 2042.49,-419.32 2051.15,-417.05"/>
<polygon fill="midnightblue" stroke="midnightblue" points="1372.21,-469.39 1362.27,-473.04 1372.32,-476.39 1372.21,-469.39"/>
</g>
<!-- Node43 -->
<g id="node43" class="node">
<title>Node43</title>
<g id="a_node43"><a xlink:href="mpiio_8cpp.html" target="_top" xlink:title=" ">
<polygon fill="none" stroke="black" points="553.5,-398 553.5,-417 618.5,-417 618.5,-398 553.5,-398"/>
<text text-anchor="middle" x="586" y="-405" font-family="Helvetica,sans-Serif" font-size="10.00">mpiio.cpp</text>
</a>
</g>
</g>
<!-- Node26&#45;&gt;Node43 -->
<g id="edge53" class="edge">
<title>Node26&#45;&gt;Node43</title>
<path fill="none" stroke="midnightblue" d="M1241.6,-470.79C1095.04,-464.36 744.1,-446.94 628,-423 621.2,-421.6 613.99,-419.39 607.5,-417.12"/>
<polygon fill="midnightblue" stroke="midnightblue" points="1241.65,-474.29 1251.79,-471.23 1241.95,-467.3 1241.65,-474.29"/>
</g>
<!-- Node44 -->
<g id="node44" class="node">
<title>Node44</title>
<g id="a_node44"><a xlink:href="nonbonded__interaction__data_8cpp.html" target="_top" xlink:title=" ">
<polygon fill="none" stroke="black" points="637,-392.5 637,-422.5 765,-422.5 765,-392.5 637,-392.5"/>
<text text-anchor="start" x="645" y="-410.5" font-family="Helvetica,sans-Serif" font-size="10.00">nonbonded_interaction</text>
<text text-anchor="middle" x="701" y="-399.5" font-family="Helvetica,sans-Serif" font-size="10.00">_data.cpp</text>
</a>
</g>
</g>
<!-- Node26&#45;&gt;Node44 -->
<g id="edge54" class="edge">
<title>Node26&#45;&gt;Node44</title>
<path fill="none" stroke="midnightblue" d="M1241.9,-469.47C1141.22,-462.76 941.83,-447.55 774,-423 771.06,-422.57 768.06,-422.1 765.03,-421.6"/>
<polygon fill="midnightblue" stroke="midnightblue" points="1241.71,-472.97 1251.92,-470.13 1242.17,-465.98 1241.71,-472.97"/>
</g>
<!-- Node45 -->
<g id="node45" class="node">
<title>Node45</title>
<g id="a_node45"><a xlink:href="oif__global__forces_8cpp.html" target="_top" xlink:title=" ">
<polygon fill="none" stroke="black" points="783,-398 783,-417 903,-417 903,-398 783,-398"/>
<text text-anchor="middle" x="843" y="-405" font-family="Helvetica,sans-Serif" font-size="10.00">oif_global_forces.cpp</text>
</a>
</g>
</g>
<!-- Node26&#45;&gt;Node45 -->
<g id="edge55" class="edge">
<title>Node26&#45;&gt;Node45</title>
<path fill="none" stroke="midnightblue" d="M1241.61,-466.76C1163.08,-458.29 1027.48,-442.48 912,-423 901.86,-421.29 890.95,-419.14 880.86,-417.02"/>
<polygon fill="midnightblue" stroke="midnightblue" points="1241.52,-470.27 1251.84,-467.86 1242.27,-463.31 1241.52,-470.27"/>
</g>
<!-- Node46 -->
<g id="node46" class="node">
<title>Node46</title>
<g id="a_node46"><a xlink:href="Observable__stat_8cpp.html" target="_top" xlink:title=" ">
<polygon fill="none" stroke="black" points="921,-398 921,-417 1037,-417 1037,-398 921,-398"/>
<text text-anchor="middle" x="979" y="-405" font-family="Helvetica,sans-Serif" font-size="10.00">Observable_stat.cpp</text>
</a>
</g>
</g>
<!-- Node26&#45;&gt;Node46 -->
<g id="edge56" class="edge">
<title>Node26&#45;&gt;Node46</title>
<path fill="none" stroke="midnightblue" d="M1242.02,-461.34C1189.17,-451.35 1112.69,-436.67 1046,-423 1036.79,-421.11 1026.88,-419.01 1017.59,-417"/>
<polygon fill="midnightblue" stroke="midnightblue" points="1241.46,-464.79 1251.94,-463.21 1242.76,-457.92 1241.46,-464.79"/>
</g>
<!-- Node47 -->
<g id="node47" class="node">
<title>Node47</title>
<g id="a_node47"><a xlink:href="bonded_8hpp.html" target="_top" xlink:title=" ">
<polygon fill="none" stroke="black" points="1055,-398 1055,-417 1129,-417 1129,-398 1055,-398"/>
<text text-anchor="middle" x="1092" y="-405" font-family="Helvetica,sans-Serif" font-size="10.00">bonded.hpp</text>
</a>
</g>
</g>
<!-- Node26&#45;&gt;Node47 -->
<g id="edge59" class="edge">
<title>Node26&#45;&gt;Node47</title>
<path fill="none" stroke="midnightblue" d="M1249.38,-456.52C1216.68,-446.82 1175.01,-434.36 1138,-423 1131.76,-421.08 1125.05,-418.99 1118.74,-417"/>
<polygon fill="midnightblue" stroke="midnightblue" points="1248.65,-459.95 1259.23,-459.43 1250.63,-453.24 1248.65,-459.95"/>
</g>
<!-- Node28&#45;&gt;Node29 -->
<g id="edge30" class="edge">
<title>Node28&#45;&gt;Node29</title>
<path fill="none" stroke="midnightblue" d="M1136.82,-391.97C930.49,-361.16 693.7,-350.83 610.08,-347.95"/>
<polygon fill="midnightblue" stroke="midnightblue" points="1136.53,-395.47 1146.94,-393.5 1137.57,-388.54 1136.53,-395.47"/>
</g>
<!-- Node29&#45;&gt;Node5 -->
<g id="edge31" class="edge">
<title>Node29&#45;&gt;Node5</title>
<path fill="none" stroke="midnightblue" d="M557.7,-330.62C543.08,-320.76 524.17,-307.99 511.82,-299.65"/>
<polygon fill="midnightblue" stroke="midnightblue" points="555.9,-333.63 566.15,-336.32 559.82,-327.83 555.9,-333.63"/>
</g>
<!-- Node29&#45;&gt;Node15 -->
<g id="edge32" class="edge">
<title>Node29&#45;&gt;Node15</title>
<path fill="none" stroke="midnightblue" d="M620.32,-342.54C768.76,-333.71 1274.88,-303.62 1436.77,-293.99"/>
<polygon fill="midnightblue" stroke="midnightblue" points="620.03,-339.05 610.26,-343.14 620.45,-346.04 620.03,-339.05"/>
</g>
<!-- Node30 -->
<g id="node30" class="node">
<title>Node30</title>
<g id="a_node30"><a xlink:href="thole_8cpp.html" target="_top" xlink:title=" ">
<polygon fill="none" stroke="black" points="569,-280.5 569,-299.5 631,-299.5 631,-280.5 569,-280.5"/>
<text text-anchor="middle" x="600" y="-287.5" font-family="Helvetica,sans-Serif" font-size="10.00">thole.cpp</text>
</a>
</g>
</g>
<!-- Node29&#45;&gt;Node30 -->
<g id="edge33" class="edge">
<title>Node29&#45;&gt;Node30</title>
<path fill="none" stroke="midnightblue" d="M586.12,-326.69C589.66,-317.59 593.77,-307.01 596.6,-299.75"/>
<polygon fill="midnightblue" stroke="midnightblue" points="582.83,-325.49 582.47,-336.08 589.35,-328.03 582.83,-325.49"/>
</g>
<!-- Node33&#45;&gt;Node7 -->
<g id="edge42" class="edge">
<title>Node33&#45;&gt;Node7</title>
<path fill="none" stroke="midnightblue" d="M1531.27,-393.3C1499.07,-377.33 1441.84,-350.76 1390,-336 1162.09,-271.13 876.33,-244.9 778.6,-237.42"/>
<polygon fill="midnightblue" stroke="midnightblue" points="1529.92,-396.53 1540.43,-397.89 1533.06,-390.28 1529.92,-396.53"/>
</g>
<!-- Node33&#45;&gt;Node15 -->
<g id="edge43" class="edge">
<title>Node33&#45;&gt;Node15</title>
<path fill="none" stroke="midnightblue" d="M1589.77,-394.88C1593.53,-393.8 1597.33,-392.8 1601,-392 1671.31,-376.62 1968.19,-389.46 1920,-336 1894.76,-308 1645.9,-296.31 1537.28,-292.52"/>
<polygon fill="midnightblue" stroke="midnightblue" points="1588.55,-391.6 1580.04,-397.92 1590.63,-398.28 1588.55,-391.6"/>
</g>
<!-- Node34 -->
<g id="node34" class="node">
<title>Node34</title>
<g id="a_node34"><a xlink:href="DipolarBarnesHut_8cpp.html" target="_top" xlink:title=" ">
<polygon fill="none" stroke="black" points="1967.5,-336.5 1967.5,-355.5 2090.5,-355.5 2090.5,-336.5 1967.5,-336.5"/>
<text text-anchor="middle" x="2029" y="-343.5" font-family="Helvetica,sans-Serif" font-size="10.00">DipolarBarnesHut.cpp</text>
</a>
</g>
</g>
<!-- Node33&#45;&gt;Node34 -->
<g id="edge39" class="edge">
<title>Node33&#45;&gt;Node34</title>
<path fill="none" stroke="midnightblue" d="M1589.76,-394.85C1593.52,-393.77 1597.32,-392.78 1601,-392 1754.8,-359.2 1796.69,-373.25 1953,-356 1957.62,-355.49 1962.4,-354.95 1967.21,-354.4"/>
<polygon fill="midnightblue" stroke="midnightblue" points="1588.54,-391.56 1580.03,-397.87 1590.62,-398.24 1588.54,-391.56"/>
</g>
<!-- Node35 -->
<g id="node35" class="node">
<title>Node35</title>
<g id="a_node35"><a xlink:href="DipolarDirectSum_8cpp.html" target="_top" xlink:title=" ">
<polygon fill="none" stroke="black" points="1495.5,-336.5 1495.5,-355.5 1618.5,-355.5 1618.5,-336.5 1495.5,-336.5"/>
<text text-anchor="middle" x="1557" y="-343.5" font-family="Helvetica,sans-Serif" font-size="10.00">DipolarDirectSum.cpp</text>
</a>
</g>
</g>
<!-- Node33&#45;&gt;Node35 -->
<g id="edge40" class="edge">
<title>Node33&#45;&gt;Node35</title>
<path fill="none" stroke="midnightblue" d="M1557,-387.82C1557,-377 1557,-363.9 1557,-355.51"/>
<polygon fill="midnightblue" stroke="midnightblue" points="1553.5,-387.98 1557,-397.98 1560.5,-387.98 1553.5,-387.98"/>
</g>
<!-- Node36 -->
<g id="node36" class="node">
<title>Node36</title>
<g id="a_node36"><a xlink:href="Mmm1dgpuForce_8cpp.html" target="_top" xlink:title=" ">
<polygon fill="none" stroke="black" points="1637,-336.5 1637,-355.5 1759,-355.5 1759,-336.5 1637,-336.5"/>
<text text-anchor="middle" x="1698" y="-343.5" font-family="Helvetica,sans-Serif" font-size="10.00">Mmm1dgpuForce.cpp</text>
</a>
</g>
</g>
<!-- Node33&#45;&gt;Node36 -->
<g id="edge41" class="edge">
<title>Node33&#45;&gt;Node36</title>
<path fill="none" stroke="midnightblue" d="M1586.67,-393.98C1614.05,-382.42 1653.98,-365.58 1677.84,-355.51"/>
<polygon fill="midnightblue" stroke="midnightblue" points="1585.05,-390.86 1577.2,-397.98 1587.78,-397.31 1585.05,-390.86"/>
</g>
<!-- Node37 -->
<g id="node37" class="node">
<title>Node37</title>
<g id="a_node37"><a xlink:href="integrate_8cpp.html" target="_top" xlink:title=" ">
<polygon fill="none" stroke="black" points="1299.5,-336.5 1299.5,-355.5 1380.5,-355.5 1380.5,-336.5 1299.5,-336.5"/>
<text text-anchor="middle" x="1340" y="-343.5" font-family="Helvetica,sans-Serif" font-size="10.00">integrate.cpp</text>
</a>
</g>
</g>
<!-- Node33&#45;&gt;Node37 -->
<g id="edge44" class="edge">
<title>Node33&#45;&gt;Node37</title>
<path fill="none" stroke="midnightblue" d="M1516.23,-395.32C1474.08,-383.76 1409.2,-365.97 1371.03,-355.51"/>
<polygon fill="midnightblue" stroke="midnightblue" points="1515.34,-398.71 1525.91,-397.98 1517.19,-391.96 1515.34,-398.71"/>
</g>
<!-- Node38 -->
<g id="node38" class="node">
<title>Node38</title>
<g id="a_node38"><a xlink:href="VirtualSitesRelative_8cpp.html" target="_top" xlink:title=" ">
<polygon fill="none" stroke="black" points="1777,-336.5 1777,-355.5 1911,-355.5 1911,-336.5 1777,-336.5"/>
<text text-anchor="middle" x="1844" y="-343.5" font-family="Helvetica,sans-Serif" font-size="10.00">VirtualSitesRelative.cpp</text>
</a>
</g>
</g>
<!-- Node33&#45;&gt;Node38 -->
<g id="edge45" class="edge">
<title>Node33&#45;&gt;Node38</title>
<path fill="none" stroke="midnightblue" d="M1590.66,-394.89C1594.13,-393.85 1597.63,-392.86 1601,-392 1663.34,-376.03 1736.06,-363.33 1785.58,-355.54"/>
<polygon fill="midnightblue" stroke="midnightblue" points="1589.52,-391.58 1581.03,-397.93 1591.62,-398.26 1589.52,-391.58"/>
</g>
<!-- Node40&#45;&gt;Node26 -->
<g id="edge49" class="edge">
<title>Node40&#45;&gt;Node26</title>
<path fill="none" stroke="midnightblue" d="M1313.18,-427.19C1314.08,-437.45 1313.92,-449.96 1312.68,-459.4"/>
<polygon fill="midnightblue" stroke="midnightblue" points="1316.63,-426.61 1311.77,-417.19 1309.7,-427.58 1316.63,-426.61"/>
</g>
<!-- Node40&#45;&gt;Node37 -->
<g id="edge50" class="edge">
<title>Node40&#45;&gt;Node37</title>
<path fill="none" stroke="midnightblue" d="M1316.61,-389.17C1322.75,-378.11 1330.43,-364.25 1335.28,-355.51"/>
<polygon fill="midnightblue" stroke="midnightblue" points="1313.52,-387.53 1311.73,-397.98 1319.64,-390.93 1313.52,-387.53"/>
</g>
<!-- Node41 -->
<g id="node41" class="node">
<title>Node41</title>
<g id="a_node41"><a xlink:href="rattle_8cpp.html" target="_top" xlink:title=" ">
<polygon fill="none" stroke="black" points="1218.5,-336.5 1218.5,-355.5 1281.5,-355.5 1281.5,-336.5 1218.5,-336.5"/>
<text text-anchor="middle" x="1250" y="-343.5" font-family="Helvetica,sans-Serif" font-size="10.00">rattle.cpp</text>
</a>
</g>
</g>
<!-- Node40&#45;&gt;Node41 -->
<g id="edge51" class="edge">
<title>Node40&#45;&gt;Node41</title>
<path fill="none" stroke="midnightblue" d="M1291.67,-390.5C1280.88,-379.24 1266.86,-364.6 1258.15,-355.51"/>
<polygon fill="midnightblue" stroke="midnightblue" points="1289.39,-393.18 1298.83,-397.98 1294.44,-388.33 1289.39,-393.18"/>
</g>
</g>
</svg>
