<?xml version="1.0" encoding="UTF-8" standalone="no"?>
<!DOCTYPE svg PUBLIC "-//W3C//DTD SVG 1.1//EN"
 "http://www.w3.org/Graphics/SVG/1.1/DTD/svg11.dtd">
<!-- Generated by graphviz version 2.43.0 (0)
 -->
<!-- Title: AutoParameters.hpp Pages: 1 -->
<svg width="2108pt" height="531pt"
 viewBox="0.00 0.00 2108.00 531.00" xmlns="http://www.w3.org/2000/svg" xmlns:xlink="http://www.w3.org/1999/xlink">
<g id="graph0" class="graph" transform="scale(1 1) rotate(0) translate(4 527)">
<title>AutoParameters.hpp</title>
<!-- Node1 -->
<g id="node1" class="node">
<title>Node1</title>
<g id="a_node1"><a xlink:title=" ">
<polygon fill="#bfbfbf" stroke="black" points="240,-503.5 240,-522.5 356,-522.5 356,-503.5 240,-503.5"/>
<text text-anchor="middle" x="298" y="-510.5" font-family="Helvetica,sans-Serif" font-size="10.00">AutoParameters.hpp</text>
</a>
</g>
</g>
<!-- Node2 -->
<g id="node2" class="node">
<title>Node2</title>
<g id="a_node2"><a xlink:href="Exception_8hpp.html" target="_top" xlink:title=" ">
<polygon fill="none" stroke="black" points="216,-313.5 216,-332.5 380,-332.5 380,-313.5 216,-313.5"/>
<text text-anchor="middle" x="298" y="-320.5" font-family="Helvetica,sans-Serif" font-size="10.00">script_interface/Exception.hpp</text>
</a>
</g>
</g>
<!-- Node1&#45;&gt;Node2 -->
<g id="edge1" class="edge">
<title>Node1&#45;&gt;Node2</title>
<path fill="none" stroke="midnightblue" d="M298,-503.43C298,-474.93 298,-382.82 298,-342.83"/>
<polygon fill="midnightblue" stroke="midnightblue" points="301.5,-342.62 298,-332.62 294.5,-342.62 301.5,-342.62"/>
</g>
<!-- Node3 -->
<g id="node3" class="node">
<title>Node3</title>
<g id="a_node3"><a xlink:title=" ">
<polygon fill="none" stroke="#bfbfbf" points="112.5,-62 112.5,-81 177.5,-81 177.5,-62 112.5,-62"/>
<text text-anchor="middle" x="145" y="-69" font-family="Helvetica,sans-Serif" font-size="10.00">stdexcept</text>
</a>
</g>
</g>
<!-- Node1&#45;&gt;Node3 -->
<g id="edge80" class="edge">
<title>Node1&#45;&gt;Node3</title>
<path fill="none" stroke="midnightblue" d="M239.84,-512.12C153.11,-508.91 0,-488.64 0,-385.5 0,-385.5 0,-385.5 0,-193.5 0,-136.92 65.88,-101.64 108.83,-84.65"/>
<polygon fill="midnightblue" stroke="midnightblue" points="110.3,-87.84 118.4,-81.01 107.81,-81.29 110.3,-87.84"/>
</g>
<!-- Node4 -->
<g id="node4" class="node">
<title>Node4</title>
<g id="a_node4"><a xlink:title=" ">
<polygon fill="none" stroke="#bfbfbf" points="511,-185 511,-204 555,-204 555,-185 511,-185"/>
<text text-anchor="middle" x="533" y="-192" font-family="Helvetica,sans-Serif" font-size="10.00">string</text>
</a>
</g>
</g>
<!-- Node1&#45;&gt;Node4 -->
<g id="edge81" class="edge">
<title>Node1&#45;&gt;Node4</title>
<path fill="none" stroke="midnightblue" d="M287.98,-503.26C256.47,-474.69 163.96,-381.97 207,-313 270.19,-211.75 431.22,-196.86 500.5,-195.29"/>
<polygon fill="midnightblue" stroke="midnightblue" points="500.85,-198.79 510.8,-195.14 500.75,-191.79 500.85,-198.79"/>
</g>
<!-- Node5 -->
<g id="node5" class="node">
<title>Node5</title>
<g id="a_node5"><a xlink:title=" ">
<polygon fill="none" stroke="#bfbfbf" points="580.5,-252 580.5,-271 625.5,-271 625.5,-252 580.5,-252"/>
<text text-anchor="middle" x="603" y="-259" font-family="Helvetica,sans-Serif" font-size="10.00">utility</text>
</a>
</g>
</g>
<!-- Node1&#45;&gt;Node5 -->
<g id="edge84" class="edge">
<title>Node1&#45;&gt;Node5</title>
<path fill="none" stroke="midnightblue" d="M325.76,-503.48C384.67,-483.86 522.23,-429.61 589,-333 599.52,-317.78 602.55,-296.56 603.24,-281.38"/>
<polygon fill="midnightblue" stroke="midnightblue" points="606.74,-281.2 603.39,-271.15 599.74,-281.09 606.74,-281.2"/>
</g>
<!-- Node6 -->
<g id="node6" class="node">
<title>Node6</title>
<g id="a_node6"><a xlink:href="ObjectHandle_8hpp.html" target="_top" xlink:title=" ">
<polygon fill="none" stroke="black" points="398,-313.5 398,-332.5 580,-332.5 580,-313.5 398,-313.5"/>
<text text-anchor="middle" x="489" y="-320.5" font-family="Helvetica,sans-Serif" font-size="10.00">script_interface/ObjectHandle.hpp</text>
</a>
</g>
</g>
<!-- Node1&#45;&gt;Node6 -->
<g id="edge5" class="edge">
<title>Node1&#45;&gt;Node6</title>
<path fill="none" stroke="midnightblue" d="M306.7,-503.43C336.41,-474.19 434.1,-378.04 472.91,-339.84"/>
<polygon fill="midnightblue" stroke="midnightblue" points="475.57,-342.13 480.25,-332.62 470.66,-337.14 475.57,-342.13"/>
</g>
<!-- Node26 -->
<g id="node26" class="node">
<title>Node26</title>
<g id="a_node26"><a xlink:title=" ">
<polygon fill="none" stroke="#bfbfbf" points="325.5,-123.5 325.5,-142.5 394.5,-142.5 394.5,-123.5 325.5,-123.5"/>
<text text-anchor="middle" x="360" y="-130.5" font-family="Helvetica,sans-Serif" font-size="10.00">type_traits</text>
</a>
</g>
</g>
<!-- Node1&#45;&gt;Node26 -->
<g id="edge82" class="edge">
<title>Node1&#45;&gt;Node26</title>
<path fill="none" stroke="midnightblue" d="M288.52,-503.36C259.53,-475.85 175.85,-387.68 207,-313 232.04,-252.96 270.02,-260.53 311,-210 326.23,-191.22 340.87,-167.52 350.12,-151.63"/>
<polygon fill="midnightblue" stroke="midnightblue" points="353.21,-153.27 355.14,-142.85 347.14,-149.8 353.21,-153.27"/>
</g>
<!-- Node27 -->
<g id="node27" class="node">
<title>Node27</title>
<g id="a_node27"><a xlink:title=" ">
<polygon fill="none" stroke="#bfbfbf" points="1400.5,-123.5 1400.5,-142.5 1447.5,-142.5 1447.5,-123.5 1400.5,-123.5"/>
<text text-anchor="middle" x="1424" y="-130.5" font-family="Helvetica,sans-Serif" font-size="10.00">vector</text>
</a>
</g>
</g>
<!-- Node1&#45;&gt;Node27 -->
<g id="edge85" class="edge">
<title>Node1&#45;&gt;Node27</title>
<path fill="none" stroke="midnightblue" d="M356.19,-510.94C661.24,-505.02 2062,-473.05 2062,-385.5 2062,-385.5 2062,-385.5 2062,-260.5 2062,-223.31 2071.41,-203 2043,-179 1995.07,-138.5 1556.69,-152.45 1457.77,-142.39"/>
<polygon fill="midnightblue" stroke="midnightblue" points="1458.03,-138.89 1447.66,-141.08 1457.13,-145.84 1458.03,-138.89"/>
</g>
<!-- Node37 -->
<g id="node37" class="node">
<title>Node37</title>
<g id="a_node37"><a xlink:title=" ">
<polygon fill="none" stroke="#bfbfbf" points="66.5,-185 66.5,-204 159.5,-204 159.5,-185 66.5,-185"/>
<text text-anchor="middle" x="113" y="-192" font-family="Helvetica,sans-Serif" font-size="10.00">unordered_map</text>
</a>
</g>
</g>
<!-- Node1&#45;&gt;Node37 -->
<g id="edge83" class="edge">
<title>Node1&#45;&gt;Node37</title>
<path fill="none" stroke="midnightblue" d="M242.29,-503.46C218.32,-497.13 191.79,-486.11 174,-467 106.2,-394.15 108.02,-262.76 111.31,-214.2"/>
<polygon fill="midnightblue" stroke="midnightblue" points="114.8,-214.43 112.1,-204.19 107.83,-213.88 114.8,-214.43"/>
</g>
<!-- Node40 -->
<g id="node40" class="node">
<title>Node40</title>
<g id="a_node40"><a xlink:href="AutoParameter_8hpp.html" target="_top" xlink:title=" ">
<polygon fill="none" stroke="black" points="796,-436.5 796,-466.5 972,-466.5 972,-436.5 796,-436.5"/>
<text text-anchor="start" x="804" y="-454.5" font-family="Helvetica,sans-Serif" font-size="10.00">script_interface/auto</text>
<text text-anchor="middle" x="884" y="-443.5" font-family="Helvetica,sans-Serif" font-size="10.00">_parameters/AutoParameter.hpp</text>
</a>
</g>
</g>
<!-- Node1&#45;&gt;Node40 -->
<g id="edge59" class="edge">
<title>Node1&#45;&gt;Node40</title>
<path fill="none" stroke="midnightblue" d="M356.06,-506.1C456.24,-495.93 662.63,-474.98 785.59,-462.49"/>
<polygon fill="midnightblue" stroke="midnightblue" points="786.16,-465.95 795.75,-461.46 785.45,-458.99 786.16,-465.95"/>
</g>
<!-- Node2&#45;&gt;Node3 -->
<g id="edge2" class="edge">
<title>Node2&#45;&gt;Node3</title>
<path fill="none" stroke="midnightblue" d="M289.6,-313.31C272.43,-295.24 232.79,-251.79 207,-210 182.22,-169.85 161.61,-118.11 151.57,-90.98"/>
<polygon fill="midnightblue" stroke="midnightblue" points="154.75,-89.46 148.04,-81.26 148.17,-91.85 154.75,-89.46"/>
</g>
<!-- Node2&#45;&gt;Node4 -->
<g id="edge3" class="edge">
<title>Node2&#45;&gt;Node4</title>
<path fill="none" stroke="midnightblue" d="M306.36,-313.32C321.66,-297.86 355.74,-265.39 390,-246 425.67,-225.82 470.82,-211.51 500.75,-203.39"/>
<polygon fill="midnightblue" stroke="midnightblue" points="501.88,-206.71 510.66,-200.78 500.09,-199.94 501.88,-206.71"/>
</g>
<!-- Node2&#45;&gt;Node5 -->
<g id="edge4" class="edge">
<title>Node2&#45;&gt;Node5</title>
<path fill="none" stroke="midnightblue" d="M341.7,-313.48C403.6,-301.4 515.39,-279.59 570.5,-268.84"/>
<polygon fill="midnightblue" stroke="midnightblue" points="571.27,-272.26 580.42,-266.91 569.93,-265.38 571.27,-272.26"/>
</g>
<!-- Node6&#45;&gt;Node4 -->
<g id="edge58" class="edge">
<title>Node6&#45;&gt;Node4</title>
<path fill="none" stroke="midnightblue" d="M494.74,-313.39C500.38,-304.58 508.85,-290.34 514,-277 521.99,-256.29 527.21,-231.28 530.12,-214.47"/>
<polygon fill="midnightblue" stroke="midnightblue" points="533.62,-214.73 531.77,-204.3 526.71,-213.61 533.62,-214.73"/>
</g>
<!-- Node7 -->
<g id="node7" class="node">
<title>Node7</title>
<g id="a_node7"><a xlink:href="Variant_8hpp.html" target="_top" xlink:title=" ">
<polygon fill="none" stroke="black" points="1078.5,-252 1078.5,-271 1151.5,-271 1151.5,-252 1078.5,-252"/>
<text text-anchor="middle" x="1115" y="-259" font-family="Helvetica,sans-Serif" font-size="10.00">Variant.hpp</text>
</a>
</g>
</g>
<!-- Node6&#45;&gt;Node7 -->
<g id="edge6" class="edge">
<title>Node6&#45;&gt;Node7</title>
<path fill="none" stroke="midnightblue" d="M578.69,-313.48C713.68,-300.64 964.3,-276.82 1068.1,-266.96"/>
<polygon fill="midnightblue" stroke="midnightblue" points="1068.64,-270.42 1078.26,-265.99 1067.97,-263.45 1068.64,-270.42"/>
</g>
<!-- Node36 -->
<g id="node36" class="node">
<title>Node36</title>
<g id="a_node36"><a xlink:title=" ">
<polygon fill="none" stroke="#bfbfbf" points="1976,-185 1976,-204 2034,-204 2034,-185 1976,-185"/>
<text text-anchor="middle" x="2005" y="-192" font-family="Helvetica,sans-Serif" font-size="10.00">memory</text>
</a>
</g>
</g>
<!-- Node6&#45;&gt;Node36 -->
<g id="edge57" class="edge">
<title>Node6&#45;&gt;Node36</title>
<path fill="none" stroke="midnightblue" d="M580.06,-316.37C709.3,-308.27 953.31,-292.59 1161,-277 1183.4,-275.32 1945.09,-214.98 1967,-210 1970,-209.32 1973.08,-208.45 1976.13,-207.47"/>
<polygon fill="midnightblue" stroke="midnightblue" points="1977.35,-210.75 1985.6,-204.11 1975.01,-204.15 1977.35,-210.75"/>
</g>
<!-- Node38 -->
<g id="node38" class="node">
<title>Node38</title>
<g id="a_node38"><a xlink:href="Span_8hpp.html" target="_top" xlink:title=" ">
<polygon fill="none" stroke="black" points="216,-185 216,-204 302,-204 302,-185 216,-185"/>
<text text-anchor="middle" x="259" y="-192" font-family="Helvetica,sans-Serif" font-size="10.00">utils/Span.hpp</text>
</a>
</g>
</g>
<!-- Node6&#45;&gt;Node38 -->
<g id="edge49" class="edge">
<title>Node6&#45;&gt;Node38</title>
<path fill="none" stroke="midnightblue" d="M468.15,-313.46C447.85,-304.92 416.3,-291.08 390,-277 350.04,-255.61 305.67,-226.88 280.18,-209.87"/>
<polygon fill="midnightblue" stroke="midnightblue" points="281.94,-206.84 271.69,-204.17 278.04,-212.65 281.94,-206.84"/>
</g>
<!-- Node39 -->
<g id="node39" class="node">
<title>Node39</title>
<g id="a_node39"><a xlink:title=" ">
<polygon fill="none" stroke="#bfbfbf" points="399,-246.5 399,-276.5 505,-276.5 505,-246.5 399,-246.5"/>
<text text-anchor="start" x="407" y="-264.5" font-family="Helvetica,sans-Serif" font-size="10.00">boost/utility/string</text>
<text text-anchor="middle" x="452" y="-253.5" font-family="Helvetica,sans-Serif" font-size="10.00">_ref.hpp</text>
</a>
</g>
</g>
<!-- Node6&#45;&gt;Node39 -->
<g id="edge56" class="edge">
<title>Node6&#45;&gt;Node39</title>
<path fill="none" stroke="midnightblue" d="M483.7,-313.48C479.11,-306.09 472.26,-295.08 466.1,-285.17"/>
<polygon fill="midnightblue" stroke="midnightblue" points="468.97,-283.17 460.72,-276.52 463.03,-286.86 468.97,-283.17"/>
</g>
<!-- Node7&#45;&gt;Node4 -->
<g id="edge45" class="edge">
<title>Node7&#45;&gt;Node4</title>
<path fill="none" stroke="midnightblue" d="M1078.2,-258.04C994.31,-252.17 782.58,-235.87 607,-210 593.2,-207.97 578.08,-205.12 565.11,-202.48"/>
<polygon fill="midnightblue" stroke="midnightblue" points="565.75,-199.04 555.25,-200.43 564.33,-205.89 565.75,-199.04"/>
</g>
<!-- Node8 -->
<g id="node8" class="node">
<title>Node8</title>
<g id="a_node8"><a xlink:href="None_8hpp.html" target="_top" xlink:title=" ">
<polygon fill="none" stroke="black" points="1465.5,-123.5 1465.5,-142.5 1528.5,-142.5 1528.5,-123.5 1465.5,-123.5"/>
<text text-anchor="middle" x="1497" y="-130.5" font-family="Helvetica,sans-Serif" font-size="10.00">None.hpp</text>
</a>
</g>
</g>
<!-- Node7&#45;&gt;Node8 -->
<g id="edge7" class="edge">
<title>Node7&#45;&gt;Node8</title>
<path fill="none" stroke="midnightblue" d="M1140.96,-251.96C1148.91,-249.66 1157.74,-247.42 1166,-246 1228.98,-235.2 1696.25,-256.58 1740,-210 1799.77,-146.36 1622.66,-135.68 1538.62,-134.12"/>
<polygon fill="midnightblue" stroke="midnightblue" points="1538.66,-130.62 1528.61,-133.97 1538.56,-137.62 1538.66,-130.62"/>
</g>
<!-- Node10 -->
<g id="node10" class="node">
<title>Node10</title>
<g id="a_node10"><a xlink:title=" ">
<polygon fill="none" stroke="#bfbfbf" points="772.5,-0.5 772.5,-19.5 825.5,-19.5 825.5,-0.5 772.5,-0.5"/>
<text text-anchor="middle" x="799" y="-7.5" font-family="Helvetica,sans-Serif" font-size="10.00">cstddef</text>
</a>
</g>
</g>
<!-- Node7&#45;&gt;Node10 -->
<g id="edge43" class="edge">
<title>Node7&#45;&gt;Node10</title>
<path fill="none" stroke="midnightblue" d="M1136.06,-251.97C1142.66,-249.64 1150.04,-247.38 1157,-246 1289.24,-219.74 1842.86,-285.36 1760,-179 1643.75,-29.78 998.74,-13.06 836.2,-11.22"/>
<polygon fill="midnightblue" stroke="midnightblue" points="835.8,-7.72 825.77,-11.11 835.73,-14.72 835.8,-7.72"/>
</g>
<!-- Node11 -->
<g id="node11" class="node">
<title>Node11</title>
<g id="a_node11"><a xlink:href="Vector_8hpp.html" target="_top" xlink:title=" ">
<polygon fill="none" stroke="black" points="649.5,-185 649.5,-204 742.5,-204 742.5,-185 649.5,-185"/>
<text text-anchor="middle" x="696" y="-192" font-family="Helvetica,sans-Serif" font-size="10.00">utils/Vector.hpp</text>
</a>
</g>
</g>
<!-- Node7&#45;&gt;Node11 -->
<g id="edge10" class="edge">
<title>Node7&#45;&gt;Node11</title>
<path fill="none" stroke="midnightblue" d="M1078.18,-254.79C1004.81,-243.41 839.9,-217.82 752.64,-204.29"/>
<polygon fill="midnightblue" stroke="midnightblue" points="753.07,-200.81 742.65,-202.74 752,-207.73 753.07,-200.81"/>
</g>
<!-- Node7&#45;&gt;Node26 -->
<g id="edge46" class="edge">
<title>Node7&#45;&gt;Node26</title>
<path fill="none" stroke="midnightblue" d="M1078.49,-257.12C970.92,-247.08 661.45,-217.7 641,-210 618.61,-201.57 619.03,-188.33 597,-179 592.56,-177.12 472,-154.68 404.59,-142.22"/>
<polygon fill="midnightblue" stroke="midnightblue" points="405.12,-138.76 394.65,-140.38 403.84,-145.64 405.12,-138.76"/>
</g>
<!-- Node7&#45;&gt;Node27 -->
<g id="edge48" class="edge">
<title>Node7&#45;&gt;Node27</title>
<path fill="none" stroke="midnightblue" d="M1140.96,-251.98C1148.92,-249.68 1157.75,-247.43 1166,-246 1225.58,-235.67 1667.68,-254.15 1709,-210 1770.02,-144.8 1787.87,-210.24 1457.58,-142.88"/>
<polygon fill="midnightblue" stroke="midnightblue" points="1458.21,-139.43 1447.71,-140.84 1456.8,-146.29 1458.21,-139.43"/>
</g>
<!-- Node28 -->
<g id="node28" class="node">
<title>Node28</title>
<g id="a_node28"><a xlink:title=" ">
<polygon fill="none" stroke="#bfbfbf" points="837,-185 837,-204 939,-204 939,-185 837,-185"/>
<text text-anchor="middle" x="888" y="-192" font-family="Helvetica,sans-Serif" font-size="10.00">boost/variant.hpp</text>
</a>
</g>
</g>
<!-- Node7&#45;&gt;Node28 -->
<g id="edge35" class="edge">
<title>Node7&#45;&gt;Node28</title>
<path fill="none" stroke="midnightblue" d="M1084.86,-251.87C1044.38,-240.28 972.38,-219.66 927.58,-206.83"/>
<polygon fill="midnightblue" stroke="midnightblue" points="928.48,-203.45 917.91,-204.06 926.56,-210.18 928.48,-203.45"/>
</g>
<!-- Node29 -->
<g id="node29" class="node">
<title>Node29</title>
<g id="a_node29"><a xlink:title=" ">
<polygon fill="none" stroke="#bfbfbf" points="957.5,-179.5 957.5,-209.5 1064.5,-209.5 1064.5,-179.5 957.5,-179.5"/>
<text text-anchor="start" x="965.5" y="-197.5" font-family="Helvetica,sans-Serif" font-size="10.00">boost/serialization</text>
<text text-anchor="middle" x="1011" y="-186.5" font-family="Helvetica,sans-Serif" font-size="10.00">/version.hpp</text>
</a>
</g>
</g>
<!-- Node7&#45;&gt;Node29 -->
<g id="edge36" class="edge">
<title>Node7&#45;&gt;Node29</title>
<path fill="none" stroke="midnightblue" d="M1100.97,-251.73C1085.97,-242.36 1061.7,-227.19 1042.15,-214.97"/>
<polygon fill="midnightblue" stroke="midnightblue" points="1043.88,-211.92 1033.54,-209.59 1040.17,-217.86 1043.88,-211.92"/>
</g>
<!-- Node30 -->
<g id="node30" class="node">
<title>Node30</title>
<g id="a_node30"><a xlink:title=" ">
<polygon fill="none" stroke="#bfbfbf" points="1832.5,-179.5 1832.5,-209.5 1957.5,-209.5 1957.5,-179.5 1832.5,-179.5"/>
<text text-anchor="start" x="1840.5" y="-197.5" font-family="Helvetica,sans-Serif" font-size="10.00">boost/range/algorithm</text>
<text text-anchor="middle" x="1895" y="-186.5" font-family="Helvetica,sans-Serif" font-size="10.00">/transform.hpp</text>
</a>
</g>
</g>
<!-- Node7&#45;&gt;Node30 -->
<g id="edge37" class="edge">
<title>Node7&#45;&gt;Node30</title>
<path fill="none" stroke="midnightblue" d="M1140.69,-252C1148.71,-249.67 1157.65,-247.4 1166,-246 1452.23,-198.02 1529.89,-244.93 1818,-210 1819.48,-209.82 1820.97,-209.63 1822.47,-209.43"/>
<polygon fill="midnightblue" stroke="midnightblue" points="1823.1,-212.88 1832.49,-207.98 1822.09,-205.95 1823.1,-212.88"/>
</g>
<!-- Node31 -->
<g id="node31" class="node">
<title>Node31</title>
<g id="a_node31"><a xlink:title=" ">
<polygon fill="none" stroke="#bfbfbf" points="1082.5,-179.5 1082.5,-209.5 1189.5,-209.5 1189.5,-179.5 1082.5,-179.5"/>
<text text-anchor="start" x="1090.5" y="-197.5" font-family="Helvetica,sans-Serif" font-size="10.00">boost/serialization</text>
<text text-anchor="middle" x="1136" y="-186.5" font-family="Helvetica,sans-Serif" font-size="10.00">/serialization.hpp</text>
</a>
</g>
</g>
<!-- Node7&#45;&gt;Node31 -->
<g id="edge38" class="edge">
<title>Node7&#45;&gt;Node31</title>
<path fill="none" stroke="midnightblue" d="M1117.83,-251.73C1120.51,-243.46 1124.64,-230.66 1128.29,-219.37"/>
<polygon fill="midnightblue" stroke="midnightblue" points="1131.7,-220.18 1131.45,-209.59 1125.04,-218.03 1131.7,-220.18"/>
</g>
<!-- Node32 -->
<g id="node32" class="node">
<title>Node32</title>
<g id="a_node32"><a xlink:title=" ">
<polygon fill="none" stroke="#bfbfbf" points="1207.5,-179.5 1207.5,-209.5 1314.5,-209.5 1314.5,-179.5 1207.5,-179.5"/>
<text text-anchor="start" x="1215.5" y="-197.5" font-family="Helvetica,sans-Serif" font-size="10.00">boost/serialization</text>
<text text-anchor="middle" x="1261" y="-186.5" font-family="Helvetica,sans-Serif" font-size="10.00">/string.hpp</text>
</a>
</g>
</g>
<!-- Node7&#45;&gt;Node32 -->
<g id="edge39" class="edge">
<title>Node7&#45;&gt;Node32</title>
<path fill="none" stroke="midnightblue" d="M1134.39,-251.87C1156.2,-242.16 1192.25,-226.11 1220.31,-213.61"/>
<polygon fill="midnightblue" stroke="midnightblue" points="1221.78,-216.79 1229.49,-209.53 1218.93,-210.4 1221.78,-216.79"/>
</g>
<!-- Node33 -->
<g id="node33" class="node">
<title>Node33</title>
<g id="a_node33"><a xlink:title=" ">
<polygon fill="none" stroke="#bfbfbf" points="1332.5,-179.5 1332.5,-209.5 1449.5,-209.5 1449.5,-179.5 1332.5,-179.5"/>
<text text-anchor="start" x="1340.5" y="-197.5" font-family="Helvetica,sans-Serif" font-size="10.00">boost/serialization</text>
<text text-anchor="middle" x="1391" y="-186.5" font-family="Helvetica,sans-Serif" font-size="10.00">/unordered_map.hpp</text>
</a>
</g>
</g>
<!-- Node7&#45;&gt;Node33 -->
<g id="edge40" class="edge">
<title>Node7&#45;&gt;Node33</title>
<path fill="none" stroke="midnightblue" d="M1144.05,-251.94C1151.21,-249.91 1158.86,-247.81 1166,-246 1195.13,-238.6 1267.5,-222.5 1322.36,-210.46"/>
<polygon fill="midnightblue" stroke="midnightblue" points="1323.36,-213.83 1332.38,-208.26 1321.86,-206.99 1323.36,-213.83"/>
</g>
<!-- Node34 -->
<g id="node34" class="node">
<title>Node34</title>
<g id="a_node34"><a xlink:title=" ">
<polygon fill="none" stroke="#bfbfbf" points="1467.5,-179.5 1467.5,-209.5 1574.5,-209.5 1574.5,-179.5 1467.5,-179.5"/>
<text text-anchor="start" x="1475.5" y="-197.5" font-family="Helvetica,sans-Serif" font-size="10.00">boost/serialization</text>
<text text-anchor="middle" x="1521" y="-186.5" font-family="Helvetica,sans-Serif" font-size="10.00">/variant.hpp</text>
</a>
</g>
</g>
<!-- Node7&#45;&gt;Node34 -->
<g id="edge41" class="edge">
<title>Node7&#45;&gt;Node34</title>
<path fill="none" stroke="midnightblue" d="M1142.07,-251.96C1149.75,-249.77 1158.15,-247.59 1166,-246 1291.46,-220.62 1328.05,-232.36 1457.42,-210.16"/>
<polygon fill="midnightblue" stroke="midnightblue" points="1458.06,-213.6 1467.3,-208.43 1456.85,-206.71 1458.06,-213.6"/>
</g>
<!-- Node35 -->
<g id="node35" class="node">
<title>Node35</title>
<g id="a_node35"><a xlink:title=" ">
<polygon fill="none" stroke="#bfbfbf" points="1592.5,-179.5 1592.5,-209.5 1699.5,-209.5 1699.5,-179.5 1592.5,-179.5"/>
<text text-anchor="start" x="1600.5" y="-197.5" font-family="Helvetica,sans-Serif" font-size="10.00">boost/serialization</text>
<text text-anchor="middle" x="1646" y="-186.5" font-family="Helvetica,sans-Serif" font-size="10.00">/vector.hpp</text>
</a>
</g>
</g>
<!-- Node7&#45;&gt;Node35 -->
<g id="edge42" class="edge">
<title>Node7&#45;&gt;Node35</title>
<path fill="none" stroke="midnightblue" d="M1141.51,-251.93C1149.32,-249.68 1157.94,-247.48 1166,-246 1346.18,-212.94 1398.04,-238.38 1582.31,-210.12"/>
<polygon fill="midnightblue" stroke="midnightblue" points="1582.99,-213.56 1592.32,-208.55 1581.9,-206.64 1582.99,-213.56"/>
</g>
<!-- Node7&#45;&gt;Node36 -->
<g id="edge44" class="edge">
<title>Node7&#45;&gt;Node36</title>
<path fill="none" stroke="midnightblue" d="M1140.68,-251.94C1148.7,-249.61 1157.64,-247.36 1166,-246 1517.75,-188.89 1618.08,-282.45 1967,-210 1970.08,-209.36 1973.24,-208.5 1976.36,-207.53"/>
<polygon fill="midnightblue" stroke="midnightblue" points="1977.77,-210.74 1986.03,-204.1 1975.43,-204.14 1977.77,-210.74"/>
</g>
<!-- Node7&#45;&gt;Node37 -->
<g id="edge47" class="edge">
<title>Node7&#45;&gt;Node37</title>
<path fill="none" stroke="midnightblue" d="M1078.19,-257.73C1036.63,-254.65 966.98,-249.63 907,-246 596.05,-227.17 516.9,-241.79 207,-210 194.94,-208.76 182.06,-207.04 169.83,-205.22"/>
<polygon fill="midnightblue" stroke="midnightblue" points="170.15,-201.73 159.74,-203.67 169.09,-208.64 170.15,-201.73"/>
</g>
<!-- Node9 -->
<g id="node9" class="node">
<title>Node9</title>
<g id="a_node9"><a xlink:title=" ">
<polygon fill="none" stroke="#bfbfbf" points="961.5,-56.5 961.5,-86.5 1068.5,-86.5 1068.5,-56.5 961.5,-56.5"/>
<text text-anchor="start" x="969.5" y="-74.5" font-family="Helvetica,sans-Serif" font-size="10.00">boost/serialization</text>
<text text-anchor="middle" x="1015" y="-63.5" font-family="Helvetica,sans-Serif" font-size="10.00">/access.hpp</text>
</a>
</g>
</g>
<!-- Node8&#45;&gt;Node9 -->
<g id="edge8" class="edge">
<title>Node8&#45;&gt;Node9</title>
<path fill="none" stroke="midnightblue" d="M1465.18,-124.52C1462.42,-123.97 1459.67,-123.45 1457,-123 1323.27,-100.38 1165.02,-85.03 1078.82,-77.62"/>
<polygon fill="midnightblue" stroke="midnightblue" points="1078.93,-74.12 1068.67,-76.76 1078.34,-81.09 1078.93,-74.12"/>
</g>
<!-- Node8&#45;&gt;Node10 -->
<g id="edge9" class="edge">
<title>Node8&#45;&gt;Node10</title>
<path fill="none" stroke="midnightblue" d="M1465.15,-124.69C1462.4,-124.11 1459.65,-123.53 1457,-123 1289.29,-89.33 1246.66,-84.51 1078,-56 991.15,-41.32 888.9,-25.1 835.56,-16.72"/>
<polygon fill="midnightblue" stroke="midnightblue" points="835.99,-13.24 825.57,-15.15 834.9,-20.16 835.99,-13.24"/>
</g>
<!-- Node11&#45;&gt;Node10 -->
<g id="edge28" class="edge">
<title>Node11&#45;&gt;Node10</title>
<path fill="none" stroke="midnightblue" d="M721.98,-184.84C741.21,-177.02 766.35,-163.55 780,-143 803.09,-108.24 803.08,-56.99 801.06,-29.7"/>
<polygon fill="midnightblue" stroke="midnightblue" points="804.53,-29.23 800.13,-19.59 797.56,-29.87 804.53,-29.23"/>
</g>
<!-- Node12 -->
<g id="node12" class="node">
<title>Node12</title>
<g id="a_node12"><a xlink:title=" ">
<polygon fill="none" stroke="#bfbfbf" points="1150,-123.5 1150,-142.5 1300,-142.5 1300,-123.5 1150,-123.5"/>
<text text-anchor="middle" x="1225" y="-130.5" font-family="Helvetica,sans-Serif" font-size="10.00">boost/qvm/deduce_vec.hpp</text>
</a>
</g>
</g>
<!-- Node11&#45;&gt;Node12 -->
<g id="edge11" class="edge">
<title>Node11&#45;&gt;Node12</title>
<path fill="none" stroke="midnightblue" d="M728.12,-184.98C737.39,-182.76 747.55,-180.56 757,-179 922.91,-151.64 968.71,-159.8 1139.79,-143.1"/>
<polygon fill="midnightblue" stroke="midnightblue" points="1140.29,-146.57 1149.9,-142.1 1139.6,-139.6 1140.29,-146.57"/>
</g>
<!-- Node13 -->
<g id="node13" class="node">
<title>Node13</title>
<g id="a_node13"><a xlink:title=" ">
<polygon fill="none" stroke="#bfbfbf" points="631,-123.5 631,-142.5 771,-142.5 771,-123.5 631,-123.5"/>
<text text-anchor="middle" x="701" y="-130.5" font-family="Helvetica,sans-Serif" font-size="10.00">boost/qvm/vec_traits.hpp</text>
</a>
</g>
</g>
<!-- Node11&#45;&gt;Node13 -->
<g id="edge12" class="edge">
<title>Node11&#45;&gt;Node13</title>
<path fill="none" stroke="midnightblue" d="M696.72,-184.98C697.42,-176.58 698.52,-163.48 699.43,-152.66"/>
<polygon fill="midnightblue" stroke="midnightblue" points="702.94,-152.77 700.28,-142.51 695.96,-152.18 702.94,-152.77"/>
</g>
<!-- Node14 -->
<g id="node14" class="node">
<title>Node14</title>
<g id="a_node14"><a xlink:href="Array_8hpp.html" target="_top" xlink:title=" ">
<polygon fill="none" stroke="black" points="489,-123.5 489,-142.5 575,-142.5 575,-123.5 489,-123.5"/>
<text text-anchor="middle" x="532" y="-130.5" font-family="Helvetica,sans-Serif" font-size="10.00">utils/Array.hpp</text>
</a>
</g>
</g>
<!-- Node11&#45;&gt;Node14 -->
<g id="edge13" class="edge">
<title>Node11&#45;&gt;Node14</title>
<path fill="none" stroke="midnightblue" d="M672.5,-184.98C644.37,-174.77 597.07,-157.61 565.21,-146.05"/>
<polygon fill="midnightblue" stroke="midnightblue" points="566.05,-142.63 555.45,-142.51 563.66,-149.21 566.05,-142.63"/>
</g>
<!-- Node16 -->
<g id="node16" class="node">
<title>Node16</title>
<g id="a_node16"><a xlink:title=" ">
<polygon fill="none" stroke="#bfbfbf" points="289,-0.5 289,-19.5 341,-19.5 341,-0.5 289,-0.5"/>
<text text-anchor="middle" x="315" y="-7.5" font-family="Helvetica,sans-Serif" font-size="10.00">cassert</text>
</a>
</g>
</g>
<!-- Node11&#45;&gt;Node16 -->
<g id="edge26" class="edge">
<title>Node11&#45;&gt;Node16</title>
<path fill="none" stroke="midnightblue" d="M659.38,-184.96C650.73,-182.98 641.55,-180.89 633,-179 558.02,-162.39 538.15,-162.99 464,-143 436.45,-135.57 430.14,-131.81 403,-123 353.27,-106.86 321.8,-129.25 291,-87 278.07,-69.26 290.38,-44.33 301.61,-27.92"/>
<polygon fill="midnightblue" stroke="midnightblue" points="304.49,-29.92 307.58,-19.79 298.84,-25.78 304.49,-29.92"/>
</g>
<!-- Node19 -->
<g id="node19" class="node">
<title>Node19</title>
<g id="a_node19"><a xlink:title=" ">
<polygon fill="none" stroke="#bfbfbf" points="434.5,-62 434.5,-81 487.5,-81 487.5,-62 434.5,-62"/>
<text text-anchor="middle" x="461" y="-69" font-family="Helvetica,sans-Serif" font-size="10.00">iterator</text>
</a>
</g>
</g>
<!-- Node11&#45;&gt;Node19 -->
<g id="edge31" class="edge">
<title>Node11&#45;&gt;Node19</title>
<path fill="none" stroke="midnightblue" d="M660.2,-184.96C651.93,-182.99 643.16,-180.92 635,-179 566.15,-162.82 530.88,-192.12 480,-143 466.2,-129.68 462.08,-107.48 461.01,-91.55"/>
<polygon fill="midnightblue" stroke="midnightblue" points="464.5,-91.16 460.68,-81.28 457.5,-91.38 464.5,-91.16"/>
</g>
<!-- Node21 -->
<g id="node21" class="node">
<title>Node21</title>
<g id="a_node21"><a xlink:title=" ">
<polygon fill="none" stroke="#bfbfbf" points="827,-123.5 827,-142.5 891,-142.5 891,-123.5 827,-123.5"/>
<text text-anchor="middle" x="859" y="-130.5" font-family="Helvetica,sans-Serif" font-size="10.00">algorithm</text>
</a>
</g>
</g>
<!-- Node11&#45;&gt;Node21 -->
<g id="edge25" class="edge">
<title>Node11&#45;&gt;Node21</title>
<path fill="none" stroke="midnightblue" d="M719.35,-184.98C747.31,-174.77 794.33,-157.61 825.99,-146.05"/>
<polygon fill="midnightblue" stroke="midnightblue" points="827.5,-149.23 835.69,-142.51 825.1,-142.65 827.5,-149.23"/>
</g>
<!-- Node22 -->
<g id="node22" class="node">
<title>Node22</title>
<g id="a_node22"><a xlink:title=" ">
<polygon fill="none" stroke="#bfbfbf" points="909.5,-123.5 909.5,-142.5 956.5,-142.5 956.5,-123.5 909.5,-123.5"/>
<text text-anchor="middle" x="933" y="-130.5" font-family="Helvetica,sans-Serif" font-size="10.00">cmath</text>
</a>
</g>
</g>
<!-- Node11&#45;&gt;Node22 -->
<g id="edge27" class="edge">
<title>Node11&#45;&gt;Node22</title>
<path fill="none" stroke="midnightblue" d="M731.44,-184.99C770.2,-175.64 834.37,-159.96 899.23,-143.15"/>
<polygon fill="midnightblue" stroke="midnightblue" points="900.43,-146.46 909.22,-140.56 898.67,-139.68 900.43,-146.46"/>
</g>
<!-- Node23 -->
<g id="node23" class="node">
<title>Node23</title>
<g id="a_node23"><a xlink:title=" ">
<polygon fill="none" stroke="#bfbfbf" points="1317.5,-123.5 1317.5,-142.5 1382.5,-142.5 1382.5,-123.5 1317.5,-123.5"/>
<text text-anchor="middle" x="1350" y="-130.5" font-family="Helvetica,sans-Serif" font-size="10.00">functional</text>
</a>
</g>
</g>
<!-- Node11&#45;&gt;Node23 -->
<g id="edge29" class="edge">
<title>Node11&#45;&gt;Node23</title>
<path fill="none" stroke="midnightblue" d="M727.46,-184.95C736.9,-182.68 747.31,-180.46 757,-179 996.8,-142.94 1063.75,-176.51 1307.18,-143.05"/>
<polygon fill="midnightblue" stroke="midnightblue" points="1307.99,-146.47 1317.41,-141.62 1307.02,-139.54 1307.99,-146.47"/>
</g>
<!-- Node24 -->
<g id="node24" class="node">
<title>Node24</title>
<g id="a_node24"><a xlink:title=" ">
<polygon fill="none" stroke="#bfbfbf" points="974.5,-123.5 974.5,-142.5 1057.5,-142.5 1057.5,-123.5 974.5,-123.5"/>
<text text-anchor="middle" x="1016" y="-130.5" font-family="Helvetica,sans-Serif" font-size="10.00">initializer_list</text>
</a>
</g>
</g>
<!-- Node11&#45;&gt;Node24 -->
<g id="edge30" class="edge">
<title>Node11&#45;&gt;Node24</title>
<path fill="none" stroke="midnightblue" d="M730.11,-184.99C738.85,-182.92 748.26,-180.79 757,-179 846.18,-160.74 871.46,-159.42 964.16,-143.31"/>
<polygon fill="midnightblue" stroke="midnightblue" points="965.02,-146.71 974.26,-141.54 963.81,-139.81 965.02,-146.71"/>
</g>
<!-- Node25 -->
<g id="node25" class="node">
<title>Node25</title>
<g id="a_node25"><a xlink:title=" ">
<polygon fill="none" stroke="#bfbfbf" points="1076,-123.5 1076,-142.5 1132,-142.5 1132,-123.5 1076,-123.5"/>
<text text-anchor="middle" x="1104" y="-130.5" font-family="Helvetica,sans-Serif" font-size="10.00">numeric</text>
</a>
</g>
</g>
<!-- Node11&#45;&gt;Node25 -->
<g id="edge32" class="edge">
<title>Node11&#45;&gt;Node25</title>
<path fill="none" stroke="midnightblue" d="M728.78,-184.96C737.87,-182.79 747.78,-180.63 757,-179 890.4,-155.48 928.68,-166.87 1065.75,-143.02"/>
<polygon fill="midnightblue" stroke="midnightblue" points="1066.56,-146.43 1075.79,-141.24 1065.34,-139.54 1066.56,-146.43"/>
</g>
<!-- Node11&#45;&gt;Node26 -->
<g id="edge33" class="edge">
<title>Node11&#45;&gt;Node26</title>
<path fill="none" stroke="midnightblue" d="M662.22,-184.99C653.39,-182.9 643.86,-180.76 635,-179 535.23,-159.23 509.25,-160.19 409,-143 407.53,-142.75 406.05,-142.49 404.54,-142.23"/>
<polygon fill="midnightblue" stroke="midnightblue" points="404.97,-138.75 394.52,-140.45 403.75,-145.64 404.97,-138.75"/>
</g>
<!-- Node11&#45;&gt;Node27 -->
<g id="edge34" class="edge">
<title>Node11&#45;&gt;Node27</title>
<path fill="none" stroke="midnightblue" d="M742.73,-185.82C759.21,-183.33 777.89,-180.77 795,-179 1056.05,-152.06 1128.07,-186.35 1390.16,-142.97"/>
<polygon fill="midnightblue" stroke="midnightblue" points="1391.08,-146.36 1400.36,-141.26 1389.92,-139.46 1391.08,-146.36"/>
</g>
<!-- Node14&#45;&gt;Node3 -->
<g id="edge24" class="edge">
<title>Node14&#45;&gt;Node3</title>
<path fill="none" stroke="midnightblue" d="M488.73,-125.35C414.04,-113.86 261.8,-90.46 187.58,-79.05"/>
<polygon fill="midnightblue" stroke="midnightblue" points="188.06,-75.58 177.65,-77.52 187,-82.5 188.06,-75.58"/>
</g>
<!-- Node14&#45;&gt;Node9 -->
<g id="edge19" class="edge">
<title>Node14&#45;&gt;Node9</title>
<path fill="none" stroke="midnightblue" d="M575.29,-126.67C660.8,-116.13 851.73,-92.61 951.51,-80.32"/>
<polygon fill="midnightblue" stroke="midnightblue" points="951.96,-83.79 961.46,-79.1 951.11,-76.84 951.96,-83.79"/>
</g>
<!-- Node14&#45;&gt;Node10 -->
<g id="edge21" class="edge">
<title>Node14&#45;&gt;Node10</title>
<path fill="none" stroke="midnightblue" d="M573.49,-123.49C604.41,-116.22 647.13,-104.19 682,-87 703.13,-76.58 705.36,-69.02 725,-56 741.45,-45.09 760.48,-33.54 775.13,-24.87"/>
<polygon fill="midnightblue" stroke="midnightblue" points="777.2,-27.72 784.04,-19.63 773.65,-21.68 777.2,-27.72"/>
</g>
<!-- Node15 -->
<g id="node15" class="node">
<title>Node15</title>
<g id="a_node15"><a xlink:href="device__qualifier_8hpp.html" target="_top" xlink:title=" ">
<polygon fill="none" stroke="black" points="300,-62 300,-81 416,-81 416,-62 300,-62"/>
<text text-anchor="middle" x="358" y="-69" font-family="Helvetica,sans-Serif" font-size="10.00">device_qualifier.hpp</text>
</a>
</g>
</g>
<!-- Node14&#45;&gt;Node15 -->
<g id="edge14" class="edge">
<title>Node14&#45;&gt;Node15</title>
<path fill="none" stroke="midnightblue" d="M507.07,-123.48C476.96,-113.18 426.17,-95.81 392.36,-84.25"/>
<polygon fill="midnightblue" stroke="midnightblue" points="393.48,-80.93 382.88,-81.01 391.21,-87.56 393.48,-80.93"/>
</g>
<!-- Node14&#45;&gt;Node16 -->
<g id="edge20" class="edge">
<title>Node14&#45;&gt;Node16</title>
<path fill="none" stroke="midnightblue" d="M530.44,-123.45C527.09,-107.63 517.69,-73.76 496,-56 454.49,-22.01 390.89,-13.17 351.18,-11.16"/>
<polygon fill="midnightblue" stroke="midnightblue" points="351.27,-7.66 341.14,-10.77 351,-14.66 351.27,-7.66"/>
</g>
<!-- Node17 -->
<g id="node17" class="node">
<title>Node17</title>
<g id="a_node17"><a xlink:href="get_8hpp.html" target="_top" xlink:title=" ">
<polygon fill="none" stroke="black" points="544.5,-62 544.5,-81 597.5,-81 597.5,-62 544.5,-62"/>
<text text-anchor="middle" x="571" y="-69" font-family="Helvetica,sans-Serif" font-size="10.00">get.hpp</text>
</a>
</g>
</g>
<!-- Node14&#45;&gt;Node17 -->
<g id="edge16" class="edge">
<title>Node14&#45;&gt;Node17</title>
<path fill="none" stroke="midnightblue" d="M537.59,-123.48C543.38,-114.64 552.59,-100.59 559.87,-89.48"/>
<polygon fill="midnightblue" stroke="midnightblue" points="562.87,-91.29 565.42,-81.01 557.01,-87.45 562.87,-91.29"/>
</g>
<!-- Node14&#45;&gt;Node19 -->
<g id="edge22" class="edge">
<title>Node14&#45;&gt;Node19</title>
<path fill="none" stroke="midnightblue" d="M521.83,-123.48C510.65,-114.11 492.48,-98.88 478.91,-87.51"/>
<polygon fill="midnightblue" stroke="midnightblue" points="481.07,-84.75 471.15,-81.01 476.57,-90.11 481.07,-84.75"/>
</g>
<!-- Node20 -->
<g id="node20" class="node">
<title>Node20</title>
<g id="a_node20"><a xlink:title=" ">
<polygon fill="none" stroke="#bfbfbf" points="615.5,-62 615.5,-81 672.5,-81 672.5,-62 615.5,-62"/>
<text text-anchor="middle" x="644" y="-69" font-family="Helvetica,sans-Serif" font-size="10.00">ostream</text>
</a>
</g>
</g>
<!-- Node14&#45;&gt;Node20 -->
<g id="edge23" class="edge">
<title>Node14&#45;&gt;Node20</title>
<path fill="none" stroke="midnightblue" d="M548.05,-123.48C566.59,-113.62 597.34,-97.29 619.02,-85.77"/>
<polygon fill="midnightblue" stroke="midnightblue" points="620.79,-88.79 627.98,-81.01 617.51,-82.61 620.79,-88.79"/>
</g>
<!-- Node15&#45;&gt;Node16 -->
<g id="edge15" class="edge">
<title>Node15&#45;&gt;Node16</title>
<path fill="none" stroke="midnightblue" d="M351.84,-61.98C345.39,-53.05 335.1,-38.81 327.03,-27.64"/>
<polygon fill="midnightblue" stroke="midnightblue" points="329.84,-25.56 321.15,-19.51 324.17,-29.66 329.84,-25.56"/>
</g>
<!-- Node17&#45;&gt;Node10 -->
<g id="edge17" class="edge">
<title>Node17&#45;&gt;Node10</title>
<path fill="none" stroke="midnightblue" d="M590.04,-61.95C595.16,-59.83 600.74,-57.69 606,-56 659.52,-38.8 723.35,-25.22 762.52,-17.65"/>
<polygon fill="midnightblue" stroke="midnightblue" points="763.24,-21.08 772.41,-15.77 761.93,-14.2 763.24,-21.08"/>
</g>
<!-- Node18 -->
<g id="node18" class="node">
<title>Node18</title>
<g id="a_node18"><a xlink:title=" ">
<polygon fill="none" stroke="#bfbfbf" points="550.5,-0.5 550.5,-19.5 591.5,-19.5 591.5,-0.5 550.5,-0.5"/>
<text text-anchor="middle" x="571" y="-7.5" font-family="Helvetica,sans-Serif" font-size="10.00">tuple</text>
</a>
</g>
</g>
<!-- Node17&#45;&gt;Node18 -->
<g id="edge18" class="edge">
<title>Node17&#45;&gt;Node18</title>
<path fill="none" stroke="midnightblue" d="M571,-61.98C571,-53.58 571,-40.48 571,-29.66"/>
<polygon fill="midnightblue" stroke="midnightblue" points="574.5,-29.51 571,-19.51 567.5,-29.51 574.5,-29.51"/>
</g>
<!-- Node38&#45;&gt;Node3 -->
<g id="edge54" class="edge">
<title>Node38&#45;&gt;Node3</title>
<path fill="none" stroke="midnightblue" d="M249.58,-184.77C238.99,-174.87 221.4,-158.13 207,-143 189.9,-125.04 171.23,-103.52 158.89,-89.03"/>
<polygon fill="midnightblue" stroke="midnightblue" points="161.55,-86.75 152.42,-81.38 156.21,-91.27 161.55,-86.75"/>
</g>
<!-- Node38&#45;&gt;Node10 -->
<g id="edge52" class="edge">
<title>Node38&#45;&gt;Node10</title>
<path fill="none" stroke="midnightblue" d="M302.12,-191.32C365.38,-187.12 486.41,-175.26 584,-143 602.12,-137.01 604.6,-130.84 622,-123 663.17,-104.45 678.62,-110.79 717,-87 743.69,-70.46 769.4,-44.47 784.7,-27.58"/>
<polygon fill="midnightblue" stroke="midnightblue" points="787.7,-29.48 791.71,-19.68 782.46,-24.84 787.7,-29.48"/>
</g>
<!-- Node38&#45;&gt;Node15 -->
<g id="edge50" class="edge">
<title>Node38&#45;&gt;Node15</title>
<path fill="none" stroke="midnightblue" d="M260.12,-184.85C262.34,-170.66 268.39,-142.1 283,-123 295.17,-107.1 313.82,-94.51 329.49,-85.88"/>
<polygon fill="midnightblue" stroke="midnightblue" points="331.53,-88.76 338.77,-81.02 328.28,-82.56 331.53,-88.76"/>
</g>
<!-- Node38&#45;&gt;Node16 -->
<g id="edge51" class="edge">
<title>Node38&#45;&gt;Node16</title>
<path fill="none" stroke="midnightblue" d="M256.45,-184.88C250.27,-162.32 236.55,-100.25 258,-56 264.4,-42.8 276.75,-32.3 288.33,-24.78"/>
<polygon fill="midnightblue" stroke="midnightblue" points="290.16,-27.77 296.92,-19.61 286.55,-21.77 290.16,-27.77"/>
</g>
<!-- Node38&#45;&gt;Node19 -->
<g id="edge53" class="edge">
<title>Node38&#45;&gt;Node19</title>
<path fill="none" stroke="midnightblue" d="M263.78,-184.78C272.33,-169.96 291.66,-139.83 316,-123 357.96,-93.99 377.09,-104.54 425,-87 426.9,-86.31 428.85,-85.57 430.81,-84.82"/>
<polygon fill="midnightblue" stroke="midnightblue" points="432.5,-87.92 440.53,-81.01 429.94,-81.4 432.5,-87.92"/>
</g>
<!-- Node38&#45;&gt;Node26 -->
<g id="edge55" class="edge">
<title>Node38&#45;&gt;Node26</title>
<path fill="none" stroke="midnightblue" d="M273.47,-184.98C289.97,-175.25 317.18,-159.23 336.68,-147.74"/>
<polygon fill="midnightblue" stroke="midnightblue" points="338.72,-150.6 345.56,-142.51 335.16,-144.57 338.72,-150.6"/>
</g>
<!-- Node40&#45;&gt;Node4 -->
<g id="edge78" class="edge">
<title>Node40&#45;&gt;Node4</title>
<path fill="none" stroke="midnightblue" d="M866.02,-436.41C853.17,-426.31 835.48,-412.37 820,-400 752.11,-345.75 733.92,-333.63 668,-277 652.49,-263.67 650.86,-257.57 634,-246 611.81,-230.77 584.38,-217.36 563.71,-208.19"/>
<polygon fill="midnightblue" stroke="midnightblue" points="565.01,-204.94 554.44,-204.16 562.22,-211.36 565.01,-204.94"/>
</g>
<!-- Node40&#45;&gt;Node5 -->
<g id="edge79" class="edge">
<title>Node40&#45;&gt;Node5</title>
<path fill="none" stroke="midnightblue" d="M795.95,-446.93C754.01,-441.22 705.4,-428.31 670,-400 650.07,-384.06 622.3,-314.55 609.7,-280.89"/>
<polygon fill="midnightblue" stroke="midnightblue" points="612.92,-279.51 606.17,-271.34 606.35,-281.93 612.92,-279.51"/>
</g>
<!-- Node40&#45;&gt;Node7 -->
<g id="edge60" class="edge">
<title>Node40&#45;&gt;Node7</title>
<path fill="none" stroke="midnightblue" d="M972.21,-438.93C1021.14,-430.68 1075.39,-417.86 1092,-400 1122.27,-367.46 1120.95,-310.86 1117.78,-281.45"/>
<polygon fill="midnightblue" stroke="midnightblue" points="1121.22,-280.78 1116.49,-271.3 1114.28,-281.66 1121.22,-280.78"/>
</g>
<!-- Node40&#45;&gt;Node23 -->
<g id="edge76" class="edge">
<title>Node40&#45;&gt;Node23</title>
<path fill="none" stroke="midnightblue" d="M912.48,-436.35C926.21,-427.86 941.34,-415.66 949,-400 968.24,-360.69 972.79,-300.42 927,-246 896.86,-210.18 854.86,-248.35 828,-210 820.1,-198.72 818.63,-189.1 828,-179 862.85,-141.44 1222.25,-149.89 1307.45,-142.69"/>
<polygon fill="midnightblue" stroke="midnightblue" points="1307.85,-146.17 1317.4,-141.59 1307.08,-139.21 1307.85,-146.17"/>
</g>
<!-- Node40&#45;&gt;Node36 -->
<g id="edge77" class="edge">
<title>Node40&#45;&gt;Node36</title>
<path fill="none" stroke="midnightblue" d="M969.26,-436.45C1125.43,-410.05 1467.42,-349.15 1751,-277 1848.41,-252.22 1872,-242.82 1967,-210 1969.25,-209.22 1971.57,-208.4 1973.9,-207.55"/>
<polygon fill="midnightblue" stroke="midnightblue" points="1975.23,-210.79 1983.38,-204.02 1972.79,-204.23 1975.23,-210.79"/>
</g>
<!-- Node41 -->
<g id="node41" class="node">
<title>Node41</title>
<g id="a_node41"><a xlink:href="get__value_8hpp.html" target="_top" xlink:title=" ">
<polygon fill="none" stroke="black" points="828.5,-369.5 828.5,-399.5 939.5,-399.5 939.5,-369.5 828.5,-369.5"/>
<text text-anchor="start" x="836.5" y="-387.5" font-family="Helvetica,sans-Serif" font-size="10.00">script_interface/get</text>
<text text-anchor="middle" x="884" y="-376.5" font-family="Helvetica,sans-Serif" font-size="10.00">_value.hpp</text>
</a>
</g>
</g>
<!-- Node40&#45;&gt;Node41 -->
<g id="edge61" class="edge">
<title>Node40&#45;&gt;Node41</title>
<path fill="none" stroke="midnightblue" d="M884,-436.4C884,-428.64 884,-418.81 884,-409.86"/>
<polygon fill="midnightblue" stroke="midnightblue" points="887.5,-409.58 884,-399.58 880.5,-409.58 887.5,-409.58"/>
</g>
<!-- Node41&#45;&gt;Node2 -->
<g id="edge62" class="edge">
<title>Node41&#45;&gt;Node2</title>
<path fill="none" stroke="midnightblue" d="M828.34,-377.85C727.4,-367.6 513.22,-345.85 390.16,-333.36"/>
<polygon fill="midnightblue" stroke="midnightblue" points="390.31,-329.85 380,-332.33 389.6,-336.82 390.31,-329.85"/>
</g>
<!-- Node41&#45;&gt;Node3 -->
<g id="edge71" class="edge">
<title>Node41&#45;&gt;Node3</title>
<path fill="none" stroke="midnightblue" d="M828.49,-383.63C687.61,-383.29 319.43,-377.99 207,-333 126.96,-300.97 93.88,-287.93 57,-210 34.51,-162.46 90.85,-111.6 123.57,-87.21"/>
<polygon fill="midnightblue" stroke="midnightblue" points="126.03,-89.75 132.08,-81.05 121.93,-84.07 126.03,-89.75"/>
</g>
<!-- Node41&#45;&gt;Node4 -->
<g id="edge72" class="edge">
<title>Node41&#45;&gt;Node4</title>
<path fill="none" stroke="midnightblue" d="M850.45,-369.49C829.36,-360.17 801.92,-347.09 779,-333 744.17,-311.58 738.07,-302.37 706,-277 688.91,-263.48 686.95,-256.76 668,-246 627.29,-222.88 612.72,-226.75 569,-210 567.16,-209.29 565.27,-208.56 563.37,-207.82"/>
<polygon fill="midnightblue" stroke="midnightblue" points="564.48,-204.49 553.89,-204.06 561.9,-211 564.48,-204.49"/>
</g>
<!-- Node41&#45;&gt;Node5 -->
<g id="edge74" class="edge">
<title>Node41&#45;&gt;Node5</title>
<path fill="none" stroke="midnightblue" d="M841.88,-369.4C814.31,-359.85 777.66,-346.55 746,-333 703.89,-314.98 656.46,-290.79 628.19,-275.95"/>
<polygon fill="midnightblue" stroke="midnightblue" points="629.51,-272.68 619.03,-271.11 626.24,-278.87 629.51,-272.68"/>
</g>
<!-- Node41&#45;&gt;Node6 -->
<g id="edge63" class="edge">
<title>Node41&#45;&gt;Node6</title>
<path fill="none" stroke="midnightblue" d="M828.24,-375.1C756.5,-364.29 632.02,-345.54 555.45,-334.01"/>
<polygon fill="midnightblue" stroke="midnightblue" points="555.84,-330.53 545.43,-332.5 554.8,-337.45 555.84,-330.53"/>
</g>
<!-- Node41&#45;&gt;Node7 -->
<g id="edge64" class="edge">
<title>Node41&#45;&gt;Node7</title>
<path fill="none" stroke="midnightblue" d="M910.95,-369.38C955.97,-345.8 1045.83,-298.73 1089.72,-275.74"/>
<polygon fill="midnightblue" stroke="midnightblue" points="1091.36,-278.83 1098.6,-271.09 1088.11,-272.63 1091.36,-278.83"/>
</g>
<!-- Node41&#45;&gt;Node10 -->
<g id="edge69" class="edge">
<title>Node41&#45;&gt;Node10</title>
<path fill="none" stroke="midnightblue" d="M939.81,-380.85C1178.33,-368.8 2100,-314.53 2100,-195.5 2100,-195.5 2100,-195.5 2100,-132 2100,-66.71 1047.59,-20.98 835.85,-12.45"/>
<polygon fill="midnightblue" stroke="midnightblue" points="835.71,-8.94 825.58,-12.03 835.43,-15.93 835.71,-8.94"/>
</g>
<!-- Node41&#45;&gt;Node26 -->
<g id="edge73" class="edge">
<title>Node41&#45;&gt;Node26</title>
<path fill="none" stroke="midnightblue" d="M892.89,-369.38C908.92,-341.95 938.23,-281.06 907,-246 860.88,-194.21 659.9,-239.22 597,-210 578.75,-201.52 581.81,-188.37 564,-179 500.56,-145.61 474.6,-158.16 404.99,-144.22"/>
<polygon fill="midnightblue" stroke="midnightblue" points="405.37,-140.72 394.87,-142.07 403.92,-147.57 405.37,-140.72"/>
</g>
<!-- Node41&#45;&gt;Node27 -->
<g id="edge75" class="edge">
<title>Node41&#45;&gt;Node27</title>
<path fill="none" stroke="midnightblue" d="M900.8,-369.47C910.48,-360.24 921.75,-347.26 927,-333 940.36,-296.71 949.18,-277.67 927,-246 900.14,-207.65 854.86,-248.35 828,-210 820.1,-198.72 818.57,-189.05 828,-179 869.29,-134.99 1294.87,-152.07 1390.4,-142.55"/>
<polygon fill="midnightblue" stroke="midnightblue" points="1390.9,-146.01 1400.36,-141.25 1389.99,-139.07 1390.9,-146.01"/>
</g>
<!-- Node41&#45;&gt;Node30 -->
<g id="edge68" class="edge">
<title>Node41&#45;&gt;Node30</title>
<path fill="none" stroke="midnightblue" d="M939.61,-370.87C1054.5,-345.06 1326.6,-285.38 1557,-246 1672.42,-226.27 1702.43,-228.84 1818,-210 1819.47,-209.76 1820.95,-209.52 1822.45,-209.26"/>
<polygon fill="midnightblue" stroke="midnightblue" points="1823.17,-212.69 1832.43,-207.55 1821.98,-205.79 1823.17,-212.69"/>
</g>
<!-- Node41&#45;&gt;Node36 -->
<g id="edge70" class="edge">
<title>Node41&#45;&gt;Node36</title>
<path fill="none" stroke="midnightblue" d="M939.78,-378.65C1101.14,-363.75 1581.43,-313.27 1967,-210 1969.66,-209.29 1972.39,-208.46 1975.1,-207.56"/>
<polygon fill="midnightblue" stroke="midnightblue" points="1976.51,-210.78 1984.74,-204.11 1974.15,-204.18 1976.51,-210.78"/>
</g>
<!-- Node42 -->
<g id="node42" class="node">
<title>Node42</title>
<g id="a_node42"><a xlink:href="demangle_8hpp.html" target="_top" xlink:title=" ">
<polygon fill="none" stroke="black" points="788,-313.5 788,-332.5 898,-332.5 898,-313.5 788,-313.5"/>
<text text-anchor="middle" x="843" y="-320.5" font-family="Helvetica,sans-Serif" font-size="10.00">utils/demangle.hpp</text>
</a>
</g>
</g>
<!-- Node41&#45;&gt;Node42 -->
<g id="edge65" class="edge">
<title>Node41&#45;&gt;Node42</title>
<path fill="none" stroke="midnightblue" d="M874.28,-369.4C868.45,-360.93 860.98,-350.1 854.81,-341.14"/>
<polygon fill="midnightblue" stroke="midnightblue" points="857.52,-338.91 848.97,-332.66 851.76,-342.88 857.52,-338.91"/>
</g>
<!-- Node42&#45;&gt;Node4 -->
<g id="edge67" class="edge">
<title>Node42&#45;&gt;Node4</title>
<path fill="none" stroke="midnightblue" d="M822.29,-313.36C802.87,-304.96 773.27,-291.4 749,-277 728.74,-264.98 727.31,-256.05 706,-246 649.06,-219.14 628.76,-229.8 569,-210 566.87,-209.29 564.68,-208.53 562.49,-207.72"/>
<polygon fill="midnightblue" stroke="midnightblue" points="563.61,-204.4 553.02,-204.08 561.09,-210.94 563.61,-204.4"/>
</g>
<!-- Node43 -->
<g id="node43" class="node">
<title>Node43</title>
<g id="a_node43"><a xlink:title=" ">
<polygon fill="none" stroke="#bfbfbf" points="758,-252 758,-271 898,-271 898,-252 758,-252"/>
<text text-anchor="middle" x="828" y="-259" font-family="Helvetica,sans-Serif" font-size="10.00">boost/core/demangle.hpp</text>
</a>
</g>
</g>
<!-- Node42&#45;&gt;Node43 -->
<g id="edge66" class="edge">
<title>Node42&#45;&gt;Node43</title>
<path fill="none" stroke="midnightblue" d="M840.85,-313.48C838.71,-304.99 835.36,-291.7 832.62,-280.82"/>
<polygon fill="midnightblue" stroke="midnightblue" points="835.98,-279.85 830.15,-271.01 829.2,-281.56 835.98,-279.85"/>
</g>
</g>
</svg>
