<?xml version="1.0" encoding="UTF-8" standalone="no"?>
<!DOCTYPE svg PUBLIC "-//W3C//DTD SVG 1.1//EN"
 "http://www.w3.org/Graphics/SVG/1.1/DTD/svg11.dtd">
<!-- Generated by graphviz version 2.43.0 (0)
 -->
<!-- Title: bonded_coulomb.hpp Pages: 1 -->
<!--zoomable 263 -->
<svg id="main" version="1.1" xmlns="http://www.w3.org/2000/svg" xmlns:xlink="http://www.w3.org/1999/xlink" xml:space="preserve" onload="init(evt)">
<style type="text/css"><![CDATA[
.edge:hover path { stroke: red; }
.edge:hover polygon { stroke: red; fill: red; }
]]></style>
<script type="text/javascript"><![CDATA[
var edges = document.getElementsByTagName('g');
if (edges && edges.length) {
  for (var i=0;i<edges.length;i++) {
    if (edges[i].id.substr(0,4)=='edge') {
      edges[i].setAttribute('class','edge');
    }
  }
}
]]></script>
        <defs>
                <circle id="rim" cx="0" cy="0" r="7"/>
                <circle id="rim2" cx="0" cy="0" r="3.5"/>
                <g id="zoomPlus">
                        <use xlink:href="#rim" fill="#404040">
                                <set attributeName="fill" to="#808080" begin="zoomplus.mouseover" end="zoomplus.mouseout"/>
                        </use>
                        <path d="M-4,0h8M0,-4v8" fill="none" stroke="white" stroke-width="1.5" pointer-events="none"/>
                </g>
                <g id="zoomMin">
                        <use xlink:href="#rim" fill="#404040">
                                <set attributeName="fill" to="#808080" begin="zoomminus.mouseover" end="zoomminus.mouseout"/>
                        </use>
                        <path d="M-4,0h8" fill="none" stroke="white" stroke-width="1.5" pointer-events="none"/>
                </g>
                <g id="dirArrow">
                        <path fill="none" stroke="white" stroke-width="1.5" d="M0,-3.0v7 M-2.5,-0.5L0,-3.0L2.5,-0.5"/>
                </g>
               <g id="resetDef">
                       <use xlink:href="#rim2" fill="#404040">
                               <set attributeName="fill" to="#808080" begin="reset.mouseover" end="reset.mouseout"/>
                       </use>
               </g>
        </defs>

<script type="text/javascript">
var viewWidth = 1713;
var viewHeight = 263;
var sectionId = 'dynsection-0';
</script>
<script xlink:href="svgpan.js"/>
<svg id="graph" class="graph">
<g id="viewport">
<title>bonded_coulomb.hpp</title>
<!-- Node1 -->
<g id="node1" class="node">
<title>Node1</title>
<g id="a_node1"><a xlink:title=" ">
<polygon fill="#bfbfbf" stroke="black" points="1021.5,-235.5 1021.5,-254.5 1142.5,-254.5 1142.5,-235.5 1021.5,-235.5"/>
<text text-anchor="middle" x="1082" y="-242.5" font-family="Helvetica,sans-Serif" font-size="10.00">bonded_coulomb.hpp</text>
</a>
</g>
</g>
<!-- Node2 -->
<g id="node2" class="node">
<title>Node2</title>
<g id="a_node2"><a xlink:href="config_8hpp.html" target="_top" xlink:title=" ">
<polygon fill="none" stroke="black" points="473,-179.5 473,-198.5 541,-198.5 541,-179.5 473,-179.5"/>
<text text-anchor="middle" x="507" y="-186.5" font-family="Helvetica,sans-Serif" font-size="10.00">config.hpp</text>
</a>
</g>
</g>
<!-- Node1&#45;&gt;Node2 -->
<g id="edge1" class="edge">
<title>Node1&#45;&gt;Node2</title>
<path fill="none" stroke="midnightblue" d="M1021.28,-238.3C905.01,-227.38 653.44,-203.75 551.37,-194.17"/>
<polygon fill="midnightblue" stroke="midnightblue" points="551.4,-190.65 541.11,-193.2 550.74,-197.62 551.4,-190.65"/>
</g>
<!-- Node4 -->
<g id="node4" class="node">
<title>Node4</title>
<g id="a_node4"><a xlink:href="Vector_8hpp.html" target="_top" xlink:title=" ">
<polygon fill="none" stroke="black" points="998.5,-179.5 998.5,-198.5 1091.5,-198.5 1091.5,-179.5 998.5,-179.5"/>
<text text-anchor="middle" x="1045" y="-186.5" font-family="Helvetica,sans-Serif" font-size="10.00">utils/Vector.hpp</text>
</a>
</g>
</g>
<!-- Node1&#45;&gt;Node4 -->
<g id="edge3" class="edge">
<title>Node1&#45;&gt;Node4</title>
<path fill="none" stroke="midnightblue" d="M1075.89,-235.08C1070.72,-227.53 1063.15,-216.49 1056.81,-207.23"/>
<polygon fill="midnightblue" stroke="midnightblue" points="1059.54,-205.02 1051,-198.75 1053.76,-208.98 1059.54,-205.02"/>
</g>
<!-- Node18 -->
<g id="node18" class="node">
<title>Node18</title>
<g id="a_node18"><a xlink:title=" ">
<polygon fill="none" stroke="#bfbfbf" points="1657.5,-123.5 1657.5,-142.5 1704.5,-142.5 1704.5,-123.5 1657.5,-123.5"/>
<text text-anchor="middle" x="1681" y="-130.5" font-family="Helvetica,sans-Serif" font-size="10.00">cmath</text>
</a>
</g>
</g>
<!-- Node1&#45;&gt;Node18 -->
<g id="edge29" class="edge">
<title>Node1&#45;&gt;Node18</title>
<path fill="none" stroke="midnightblue" d="M1086.7,-235.33C1095.16,-220.71 1114.48,-191.53 1140,-179 1238.9,-130.43 1521.02,-160.3 1647.41,-142.6"/>
<polygon fill="midnightblue" stroke="midnightblue" points="1647.99,-146.05 1657.33,-141.05 1646.91,-139.13 1647.99,-146.05"/>
</g>
<!-- Node24 -->
<g id="node24" class="node">
<title>Node24</title>
<g id="a_node24"><a xlink:title=" ">
<polygon fill="none" stroke="#bfbfbf" points="1148.5,-179.5 1148.5,-198.5 1255.5,-198.5 1255.5,-179.5 1148.5,-179.5"/>
<text text-anchor="middle" x="1202" y="-186.5" font-family="Helvetica,sans-Serif" font-size="10.00">boost/optional.hpp</text>
</a>
</g>
</g>
<!-- Node1&#45;&gt;Node24 -->
<g id="edge28" class="edge">
<title>Node1&#45;&gt;Node24</title>
<path fill="none" stroke="midnightblue" d="M1101.01,-235.44C1120.59,-226.64 1151.31,-212.81 1173.73,-202.72"/>
<polygon fill="midnightblue" stroke="midnightblue" points="1175.39,-205.81 1183.07,-198.52 1172.52,-199.43 1175.39,-205.81"/>
</g>
<!-- Node3 -->
<g id="node3" class="node">
<title>Node3</title>
<g id="a_node3"><a xlink:title=" ">
<polygon fill="none" stroke="#bfbfbf" points="0,-123.5 0,-142.5 112,-142.5 112,-123.5 0,-123.5"/>
<text text-anchor="middle" x="56" y="-130.5" font-family="Helvetica,sans-Serif" font-size="10.00">config&#45;features.hpp</text>
</a>
</g>
</g>
<!-- Node2&#45;&gt;Node3 -->
<g id="edge2" class="edge">
<title>Node2&#45;&gt;Node3</title>
<path fill="none" stroke="midnightblue" d="M472.83,-184.08C406.13,-176.41 253.91,-158.78 126,-143 124.73,-142.84 123.46,-142.69 122.17,-142.53"/>
<polygon fill="midnightblue" stroke="midnightblue" points="122.51,-139.04 112.16,-141.27 121.65,-145.99 122.51,-139.04"/>
</g>
<!-- Node5 -->
<g id="node5" class="node">
<title>Node5</title>
<g id="a_node5"><a xlink:title=" ">
<polygon fill="none" stroke="#bfbfbf" points="1331,-123.5 1331,-142.5 1481,-142.5 1481,-123.5 1331,-123.5"/>
<text text-anchor="middle" x="1406" y="-130.5" font-family="Helvetica,sans-Serif" font-size="10.00">boost/qvm/deduce_vec.hpp</text>
</a>
</g>
</g>
<!-- Node4&#45;&gt;Node5 -->
<g id="edge4" class="edge">
<title>Node4&#45;&gt;Node5</title>
<path fill="none" stroke="midnightblue" d="M1091.82,-181C1154.74,-171.58 1266.95,-154.8 1338.85,-144.04"/>
<polygon fill="midnightblue" stroke="midnightblue" points="1339.78,-147.44 1349.15,-142.5 1338.75,-140.52 1339.78,-147.44"/>
</g>
<!-- Node6 -->
<g id="node6" class="node">
<title>Node6</title>
<g id="a_node6"><a xlink:title=" ">
<polygon fill="none" stroke="#bfbfbf" points="1499,-123.5 1499,-142.5 1639,-142.5 1639,-123.5 1499,-123.5"/>
<text text-anchor="middle" x="1569" y="-130.5" font-family="Helvetica,sans-Serif" font-size="10.00">boost/qvm/vec_traits.hpp</text>
</a>
</g>
</g>
<!-- Node4&#45;&gt;Node6 -->
<g id="edge5" class="edge">
<title>Node4&#45;&gt;Node6</title>
<path fill="none" stroke="midnightblue" d="M1091.59,-180.87C1096.45,-180.2 1101.32,-179.56 1106,-179 1272.94,-158.87 1317.81,-160.63 1488.7,-143.11"/>
<polygon fill="midnightblue" stroke="midnightblue" points="1489.21,-146.58 1498.8,-142.07 1488.49,-139.62 1489.21,-146.58"/>
</g>
<!-- Node7 -->
<g id="node7" class="node">
<title>Node7</title>
<g id="a_node7"><a xlink:href="Array_8hpp.html" target="_top" xlink:title=" ">
<polygon fill="none" stroke="black" points="467,-123.5 467,-142.5 553,-142.5 553,-123.5 467,-123.5"/>
<text text-anchor="middle" x="510" y="-130.5" font-family="Helvetica,sans-Serif" font-size="10.00">utils/Array.hpp</text>
</a>
</g>
</g>
<!-- Node4&#45;&gt;Node7 -->
<g id="edge6" class="edge">
<title>Node4&#45;&gt;Node7</title>
<path fill="none" stroke="midnightblue" d="M998.46,-183.3C899.31,-173.29 667.78,-149.93 563.09,-139.36"/>
<polygon fill="midnightblue" stroke="midnightblue" points="563.36,-135.87 553.06,-138.35 562.66,-142.83 563.36,-135.87"/>
</g>
<!-- Node9 -->
<g id="node9" class="node">
<title>Node9</title>
<g id="a_node9"><a xlink:title=" ">
<polygon fill="none" stroke="#bfbfbf" points="631,-0.5 631,-19.5 683,-19.5 683,-0.5 631,-0.5"/>
<text text-anchor="middle" x="657" y="-7.5" font-family="Helvetica,sans-Serif" font-size="10.00">cassert</text>
</a>
</g>
</g>
<!-- Node4&#45;&gt;Node9 -->
<g id="edge19" class="edge">
<title>Node4&#45;&gt;Node9</title>
<path fill="none" stroke="midnightblue" d="M998.13,-183.46C942.5,-177.2 854.08,-164.21 829,-143 797.3,-116.2 825.18,-84.5 795,-56 767.3,-29.85 724.19,-18.89 693.53,-14.3"/>
<polygon fill="midnightblue" stroke="midnightblue" points="693.63,-10.78 683.25,-12.93 692.7,-17.72 693.63,-10.78"/>
</g>
<!-- Node11 -->
<g id="node11" class="node">
<title>Node11</title>
<g id="a_node11"><a xlink:title=" ">
<polygon fill="none" stroke="#bfbfbf" points="146.5,-0.5 146.5,-19.5 199.5,-19.5 199.5,-0.5 146.5,-0.5"/>
<text text-anchor="middle" x="173" y="-7.5" font-family="Helvetica,sans-Serif" font-size="10.00">cstddef</text>
</a>
</g>
</g>
<!-- Node4&#45;&gt;Node11 -->
<g id="edge21" class="edge">
<title>Node4&#45;&gt;Node11</title>
<path fill="none" stroke="midnightblue" d="M998.38,-186.31C898.78,-182.29 658,-170.36 458,-143 330.97,-125.62 257.69,-184.99 175,-87 161.73,-71.28 163.88,-46.53 167.59,-29.57"/>
<polygon fill="midnightblue" stroke="midnightblue" points="171.02,-30.28 170.11,-19.73 164.24,-28.55 171.02,-30.28"/>
</g>
<!-- Node14 -->
<g id="node14" class="node">
<title>Node14</title>
<g id="a_node14"><a xlink:title=" ">
<polygon fill="none" stroke="#bfbfbf" points="733.5,-62 733.5,-81 786.5,-81 786.5,-62 733.5,-62"/>
<text text-anchor="middle" x="760" y="-69" font-family="Helvetica,sans-Serif" font-size="10.00">iterator</text>
</a>
</g>
</g>
<!-- Node4&#45;&gt;Node14 -->
<g id="edge24" class="edge">
<title>Node4&#45;&gt;Node14</title>
<path fill="none" stroke="midnightblue" d="M998.48,-184.5C935.51,-178.96 827.39,-166.31 796,-143 778.97,-130.35 769.39,-107.32 764.46,-91.03"/>
<polygon fill="midnightblue" stroke="midnightblue" points="767.75,-89.78 761.76,-81.04 760.99,-91.6 767.75,-89.78"/>
</g>
<!-- Node17 -->
<g id="node17" class="node">
<title>Node17</title>
<g id="a_node17"><a xlink:title=" ">
<polygon fill="none" stroke="#bfbfbf" points="838,-123.5 838,-142.5 902,-142.5 902,-123.5 838,-123.5"/>
<text text-anchor="middle" x="870" y="-130.5" font-family="Helvetica,sans-Serif" font-size="10.00">algorithm</text>
</a>
</g>
</g>
<!-- Node4&#45;&gt;Node17 -->
<g id="edge18" class="edge">
<title>Node4&#45;&gt;Node17</title>
<path fill="none" stroke="midnightblue" d="M1017.27,-179.44C987.57,-170.28 940.28,-155.69 907.33,-145.52"/>
<polygon fill="midnightblue" stroke="midnightblue" points="908.19,-142.12 897.6,-142.52 906.12,-148.81 908.19,-142.12"/>
</g>
<!-- Node4&#45;&gt;Node18 -->
<g id="edge20" class="edge">
<title>Node4&#45;&gt;Node18</title>
<path fill="none" stroke="midnightblue" d="M1091.58,-180.74C1096.44,-180.09 1101.32,-179.5 1106,-179 1342.77,-153.71 1408.13,-182.16 1647.29,-142.74"/>
<polygon fill="midnightblue" stroke="midnightblue" points="1648.05,-146.16 1657.33,-141.06 1646.89,-139.26 1648.05,-146.16"/>
</g>
<!-- Node19 -->
<g id="node19" class="node">
<title>Node19</title>
<g id="a_node19"><a xlink:title=" ">
<polygon fill="none" stroke="#bfbfbf" points="920.5,-123.5 920.5,-142.5 985.5,-142.5 985.5,-123.5 920.5,-123.5"/>
<text text-anchor="middle" x="953" y="-130.5" font-family="Helvetica,sans-Serif" font-size="10.00">functional</text>
</a>
</g>
</g>
<!-- Node4&#45;&gt;Node19 -->
<g id="edge22" class="edge">
<title>Node4&#45;&gt;Node19</title>
<path fill="none" stroke="midnightblue" d="M1030.22,-179.32C1015.73,-170.82 993.43,-157.73 976.51,-147.8"/>
<polygon fill="midnightblue" stroke="midnightblue" points="978.14,-144.7 967.74,-142.65 974.6,-150.74 978.14,-144.7"/>
</g>
<!-- Node20 -->
<g id="node20" class="node">
<title>Node20</title>
<g id="a_node20"><a xlink:title=" ">
<polygon fill="none" stroke="#bfbfbf" points="1003.5,-123.5 1003.5,-142.5 1086.5,-142.5 1086.5,-123.5 1003.5,-123.5"/>
<text text-anchor="middle" x="1045" y="-130.5" font-family="Helvetica,sans-Serif" font-size="10.00">initializer_list</text>
</a>
</g>
</g>
<!-- Node4&#45;&gt;Node20 -->
<g id="edge23" class="edge">
<title>Node4&#45;&gt;Node20</title>
<path fill="none" stroke="midnightblue" d="M1045,-179.08C1045,-172.01 1045,-161.86 1045,-152.99"/>
<polygon fill="midnightblue" stroke="midnightblue" points="1048.5,-152.75 1045,-142.75 1041.5,-152.75 1048.5,-152.75"/>
</g>
<!-- Node21 -->
<g id="node21" class="node">
<title>Node21</title>
<g id="a_node21"><a xlink:title=" ">
<polygon fill="none" stroke="#bfbfbf" points="1105,-123.5 1105,-142.5 1161,-142.5 1161,-123.5 1105,-123.5"/>
<text text-anchor="middle" x="1133" y="-130.5" font-family="Helvetica,sans-Serif" font-size="10.00">numeric</text>
</a>
</g>
</g>
<!-- Node4&#45;&gt;Node21 -->
<g id="edge25" class="edge">
<title>Node4&#45;&gt;Node21</title>
<path fill="none" stroke="midnightblue" d="M1059.14,-179.32C1072.87,-170.9 1093.94,-157.97 1110.06,-148.07"/>
<polygon fill="midnightblue" stroke="midnightblue" points="1112.2,-150.87 1118.9,-142.65 1108.54,-144.9 1112.2,-150.87"/>
</g>
<!-- Node22 -->
<g id="node22" class="node">
<title>Node22</title>
<g id="a_node22"><a xlink:title=" ">
<polygon fill="none" stroke="#bfbfbf" points="1179.5,-123.5 1179.5,-142.5 1248.5,-142.5 1248.5,-123.5 1179.5,-123.5"/>
<text text-anchor="middle" x="1214" y="-130.5" font-family="Helvetica,sans-Serif" font-size="10.00">type_traits</text>
</a>
</g>
</g>
<!-- Node4&#45;&gt;Node22 -->
<g id="edge26" class="edge">
<title>Node4&#45;&gt;Node22</title>
<path fill="none" stroke="midnightblue" d="M1071.78,-179.44C1100.33,-170.32 1145.73,-155.81 1177.54,-145.65"/>
<polygon fill="midnightblue" stroke="midnightblue" points="1178.89,-148.89 1187.35,-142.52 1176.76,-142.23 1178.89,-148.89"/>
</g>
<!-- Node23 -->
<g id="node23" class="node">
<title>Node23</title>
<g id="a_node23"><a xlink:title=" ">
<polygon fill="none" stroke="#bfbfbf" points="1266.5,-123.5 1266.5,-142.5 1313.5,-142.5 1313.5,-123.5 1266.5,-123.5"/>
<text text-anchor="middle" x="1290" y="-130.5" font-family="Helvetica,sans-Serif" font-size="10.00">vector</text>
</a>
</g>
</g>
<!-- Node4&#45;&gt;Node23 -->
<g id="edge27" class="edge">
<title>Node4&#45;&gt;Node23</title>
<path fill="none" stroke="midnightblue" d="M1089.66,-179.46C1130.7,-171.41 1193.42,-158.6 1256.21,-143.33"/>
<polygon fill="midnightblue" stroke="midnightblue" points="1257.4,-146.64 1266.28,-140.86 1255.73,-139.84 1257.4,-146.64"/>
</g>
<!-- Node8 -->
<g id="node8" class="node">
<title>Node8</title>
<g id="a_node8"><a xlink:href="device__qualifier_8hpp.html" target="_top" xlink:title=" ">
<polygon fill="none" stroke="black" points="599,-62 599,-81 715,-81 715,-62 599,-62"/>
<text text-anchor="middle" x="657" y="-69" font-family="Helvetica,sans-Serif" font-size="10.00">device_qualifier.hpp</text>
</a>
</g>
</g>
<!-- Node7&#45;&gt;Node8 -->
<g id="edge7" class="edge">
<title>Node7&#45;&gt;Node8</title>
<path fill="none" stroke="midnightblue" d="M531.06,-123.48C556.06,-113.36 597.94,-96.4 626.49,-84.85"/>
<polygon fill="midnightblue" stroke="midnightblue" points="628.02,-88.01 635.98,-81.01 625.39,-81.52 628.02,-88.01"/>
</g>
<!-- Node7&#45;&gt;Node9 -->
<g id="edge13" class="edge">
<title>Node7&#45;&gt;Node9</title>
<path fill="none" stroke="midnightblue" d="M518.44,-123.06C532.56,-108.31 562.2,-78.28 590,-56 604.04,-44.75 620.84,-33.47 634.11,-25.01"/>
<polygon fill="midnightblue" stroke="midnightblue" points="636.05,-27.93 642.66,-19.65 632.33,-22 636.05,-27.93"/>
</g>
<!-- Node10 -->
<g id="node10" class="node">
<title>Node10</title>
<g id="a_node10"><a xlink:href="get_8hpp.html" target="_top" xlink:title=" ">
<polygon fill="none" stroke="black" points="206.5,-62 206.5,-81 259.5,-81 259.5,-62 206.5,-62"/>
<text text-anchor="middle" x="233" y="-69" font-family="Helvetica,sans-Serif" font-size="10.00">get.hpp</text>
</a>
</g>
</g>
<!-- Node7&#45;&gt;Node10 -->
<g id="edge9" class="edge">
<title>Node7&#45;&gt;Node10</title>
<path fill="none" stroke="midnightblue" d="M466.96,-126.76C418.07,-120.18 336.22,-107.23 268,-87 265.71,-86.32 263.37,-85.54 261.03,-84.71"/>
<polygon fill="midnightblue" stroke="midnightblue" points="262.22,-81.41 251.63,-81.06 259.69,-87.94 262.22,-81.41"/>
</g>
<!-- Node7&#45;&gt;Node11 -->
<g id="edge14" class="edge">
<title>Node7&#45;&gt;Node11</title>
<path fill="none" stroke="midnightblue" d="M466.84,-131.32C390.72,-129.24 236.86,-120.84 197,-87 180.39,-72.9 175.13,-47.38 173.55,-29.83"/>
<polygon fill="midnightblue" stroke="midnightblue" points="177.03,-29.43 172.95,-19.65 170.04,-29.84 177.03,-29.43"/>
</g>
<!-- Node13 -->
<g id="node13" class="node">
<title>Node13</title>
<g id="a_node13"><a xlink:title=" ">
<polygon fill="none" stroke="#bfbfbf" points="277.5,-56.5 277.5,-86.5 384.5,-86.5 384.5,-56.5 277.5,-56.5"/>
<text text-anchor="start" x="285.5" y="-74.5" font-family="Helvetica,sans-Serif" font-size="10.00">boost/serialization</text>
<text text-anchor="middle" x="331" y="-63.5" font-family="Helvetica,sans-Serif" font-size="10.00">/access.hpp</text>
</a>
</g>
</g>
<!-- Node7&#45;&gt;Node13 -->
<g id="edge12" class="edge">
<title>Node7&#45;&gt;Node13</title>
<path fill="none" stroke="midnightblue" d="M484.35,-123.48C457.96,-114.7 416.1,-100.79 382.78,-89.71"/>
<polygon fill="midnightblue" stroke="midnightblue" points="383.78,-86.36 373.19,-86.52 381.57,-93 383.78,-86.36"/>
</g>
<!-- Node7&#45;&gt;Node14 -->
<g id="edge15" class="edge">
<title>Node7&#45;&gt;Node14</title>
<path fill="none" stroke="midnightblue" d="M553.19,-125.21C596.82,-117.83 665.88,-104.67 724,-87 726.28,-86.31 728.63,-85.53 730.97,-84.7"/>
<polygon fill="midnightblue" stroke="midnightblue" points="732.31,-87.93 740.42,-81.11 729.83,-81.39 732.31,-87.93"/>
</g>
<!-- Node15 -->
<g id="node15" class="node">
<title>Node15</title>
<g id="a_node15"><a xlink:title=" ">
<polygon fill="none" stroke="#bfbfbf" points="402.5,-62 402.5,-81 459.5,-81 459.5,-62 402.5,-62"/>
<text text-anchor="middle" x="431" y="-69" font-family="Helvetica,sans-Serif" font-size="10.00">ostream</text>
</a>
</g>
</g>
<!-- Node7&#45;&gt;Node15 -->
<g id="edge16" class="edge">
<title>Node7&#45;&gt;Node15</title>
<path fill="none" stroke="midnightblue" d="M498.68,-123.48C486.13,-114.02 465.65,-98.6 450.5,-87.19"/>
<polygon fill="midnightblue" stroke="midnightblue" points="452.39,-84.23 442.3,-81.01 448.18,-89.82 452.39,-84.23"/>
</g>
<!-- Node16 -->
<g id="node16" class="node">
<title>Node16</title>
<g id="a_node16"><a xlink:title=" ">
<polygon fill="none" stroke="#bfbfbf" points="477.5,-62 477.5,-81 542.5,-81 542.5,-62 477.5,-62"/>
<text text-anchor="middle" x="510" y="-69" font-family="Helvetica,sans-Serif" font-size="10.00">stdexcept</text>
</a>
</g>
</g>
<!-- Node7&#45;&gt;Node16 -->
<g id="edge17" class="edge">
<title>Node7&#45;&gt;Node16</title>
<path fill="none" stroke="midnightblue" d="M510,-123.48C510,-115.08 510,-101.98 510,-91.16"/>
<polygon fill="midnightblue" stroke="midnightblue" points="513.5,-91.01 510,-81.01 506.5,-91.01 513.5,-91.01"/>
</g>
<!-- Node8&#45;&gt;Node9 -->
<g id="edge8" class="edge">
<title>Node8&#45;&gt;Node9</title>
<path fill="none" stroke="midnightblue" d="M657,-61.98C657,-53.58 657,-40.48 657,-29.66"/>
<polygon fill="midnightblue" stroke="midnightblue" points="660.5,-29.51 657,-19.51 653.5,-29.51 660.5,-29.51"/>
</g>
<!-- Node10&#45;&gt;Node11 -->
<g id="edge10" class="edge">
<title>Node10&#45;&gt;Node11</title>
<path fill="none" stroke="midnightblue" d="M224.4,-61.98C215.14,-52.78 200.18,-37.96 188.79,-26.66"/>
<polygon fill="midnightblue" stroke="midnightblue" points="191.15,-24.07 181.58,-19.51 186.22,-29.04 191.15,-24.07"/>
</g>
<!-- Node12 -->
<g id="node12" class="node">
<title>Node12</title>
<g id="a_node12"><a xlink:title=" ">
<polygon fill="none" stroke="#bfbfbf" points="217.5,-0.5 217.5,-19.5 258.5,-19.5 258.5,-0.5 217.5,-0.5"/>
<text text-anchor="middle" x="238" y="-7.5" font-family="Helvetica,sans-Serif" font-size="10.00">tuple</text>
</a>
</g>
</g>
<!-- Node10&#45;&gt;Node12 -->
<g id="edge11" class="edge">
<title>Node10&#45;&gt;Node12</title>
<path fill="none" stroke="midnightblue" d="M233.72,-61.98C234.42,-53.58 235.52,-40.48 236.43,-29.66"/>
<polygon fill="midnightblue" stroke="midnightblue" points="239.94,-29.77 237.28,-19.51 232.96,-29.18 239.94,-29.77"/>
</g>
</g>
</svg>
        <g id="navigator" transform="translate(0 0)" fill="#404254">
                <rect fill="#f2f5e9" fill-opacity="0.5" stroke="#606060" stroke-width=".5" x="0" y="0" width="60" height="60"/>
                <use id="zoomplus" xlink:href="#zoomPlus" x="17" y="9" onmousedown="handleZoom(evt,'in')"/>
                <use id="zoomminus" xlink:href="#zoomMin" x="42" y="9" onmousedown="handleZoom(evt,'out')"/>
                <use id="reset" xlink:href="#resetDef" x="30" y="36" onmousedown="handleReset()"/>
                <g id="arrowUp" xlink:href="#dirArrow" transform="translate(30 24)" onmousedown="handlePan(0,-1)">
                  <use xlink:href="#rim" fill="#404040">
                        <set attributeName="fill" to="#808080" begin="arrowUp.mouseover" end="arrowUp.mouseout"/>
                  </use>
                  <path fill="none" stroke="white" stroke-width="1.5" d="M0,-3.0v7 M-2.5,-0.5L0,-3.0L2.5,-0.5"/>
                </g>
                <g id="arrowRight" xlink:href="#dirArrow" transform="rotate(90) translate(36 -43)" onmousedown="handlePan(1,0)">
                  <use xlink:href="#rim" fill="#404040">
                        <set attributeName="fill" to="#808080" begin="arrowRight.mouseover" end="arrowRight.mouseout"/>
                  </use>
                  <path fill="none" stroke="white" stroke-width="1.5" d="M0,-3.0v7 M-2.5,-0.5L0,-3.0L2.5,-0.5"/>
                </g>
                <g id="arrowDown" xlink:href="#dirArrow" transform="rotate(180) translate(-30 -48)" onmousedown="handlePan(0,1)">
                  <use xlink:href="#rim" fill="#404040">
                        <set attributeName="fill" to="#808080" begin="arrowDown.mouseover" end="arrowDown.mouseout"/>
                  </use>
                  <path fill="none" stroke="white" stroke-width="1.5" d="M0,-3.0v7 M-2.5,-0.5L0,-3.0L2.5,-0.5"/>
                </g>
                <g id="arrowLeft" xlink:href="#dirArrow" transform="rotate(270) translate(-36 17)" onmousedown="handlePan(-1,0)">
                  <use xlink:href="#rim" fill="#404040">
                        <set attributeName="fill" to="#808080" begin="arrowLeft.mouseover" end="arrowLeft.mouseout"/>
                  </use>
                  <path fill="none" stroke="white" stroke-width="1.5" d="M0,-3.0v7 M-2.5,-0.5L0,-3.0L2.5,-0.5"/>
                </g>
        </g>
        <svg viewBox="0 0 15 15" width="100%" height="30px" preserveAspectRatio="xMaxYMin meet">
         <g id="arrow_out" transform="scale(0.3 0.3)">
          <a xlink:href="bonded__coulomb_8hpp__incl_org.svg" target="_base">
           <rect id="button" ry="5" rx="5" y="6" x="6" height="38" width="38"
                fill="#f2f5e9" fill-opacity="0.5" stroke="#606060" stroke-width="1.0"/>
           <path id="arrow"
             d="M 11.500037,31.436501 C 11.940474,20.09759 22.043105,11.32322 32.158766,21.979434 L 37.068811,17.246167 C 37.068811,17.246167 37.088388,32 37.088388,32 L 22.160133,31.978069 C 22.160133,31.978069 26.997745,27.140456 26.997745,27.140456 C 18.528582,18.264221 13.291696,25.230495 11.500037,31.436501 z"
             style="fill:#404040;"/>
          </a>
         </g>
        </svg>
</svg>
