<?xml version="1.0" encoding="UTF-8" standalone="no"?>
<!DOCTYPE svg PUBLIC "-//W3C//DTD SVG 1.1//EN"
 "http://www.w3.org/Graphics/SVG/1.1/DTD/svg11.dtd">
<!-- Generated by graphviz version 2.43.0 (0)
 -->
<!-- Title: bond_error.cpp Pages: 1 -->
<!--zoomable 263 -->
<svg id="main" version="1.1" xmlns="http://www.w3.org/2000/svg" xmlns:xlink="http://www.w3.org/1999/xlink" xml:space="preserve" onload="init(evt)">
<style type="text/css"><![CDATA[
.edge:hover path { stroke: red; }
.edge:hover polygon { stroke: red; fill: red; }
]]></style>
<script type="text/javascript"><![CDATA[
var edges = document.getElementsByTagName('g');
if (edges && edges.length) {
  for (var i=0;i<edges.length;i++) {
    if (edges[i].id.substr(0,4)=='edge') {
      edges[i].setAttribute('class','edge');
    }
  }
}
]]></script>
        <defs>
                <circle id="rim" cx="0" cy="0" r="7"/>
                <circle id="rim2" cx="0" cy="0" r="3.5"/>
                <g id="zoomPlus">
                        <use xlink:href="#rim" fill="#404040">
                                <set attributeName="fill" to="#808080" begin="zoomplus.mouseover" end="zoomplus.mouseout"/>
                        </use>
                        <path d="M-4,0h8M0,-4v8" fill="none" stroke="white" stroke-width="1.5" pointer-events="none"/>
                </g>
                <g id="zoomMin">
                        <use xlink:href="#rim" fill="#404040">
                                <set attributeName="fill" to="#808080" begin="zoomminus.mouseover" end="zoomminus.mouseout"/>
                        </use>
                        <path d="M-4,0h8" fill="none" stroke="white" stroke-width="1.5" pointer-events="none"/>
                </g>
                <g id="dirArrow">
                        <path fill="none" stroke="white" stroke-width="1.5" d="M0,-3.0v7 M-2.5,-0.5L0,-3.0L2.5,-0.5"/>
                </g>
               <g id="resetDef">
                       <use xlink:href="#rim2" fill="#404040">
                               <set attributeName="fill" to="#808080" begin="reset.mouseover" end="reset.mouseout"/>
                       </use>
               </g>
        </defs>

<script type="text/javascript">
var viewWidth = 897;
var viewHeight = 263;
var sectionId = 'dynsection-0';
</script>
<script xlink:href="svgpan.js"/>
<svg id="graph" class="graph">
<g id="viewport">
<title>bond_error.cpp</title>
<!-- Node1 -->
<g id="node1" class="node">
<title>Node1</title>
<g id="a_node1"><a xlink:title=" ">
<polygon fill="#bfbfbf" stroke="black" points="468,-235.5 468,-254.5 557,-254.5 557,-235.5 468,-235.5"/>
<text text-anchor="middle" x="512.5" y="-242.5" font-family="Helvetica,sans-Serif" font-size="10.00">bond_error.cpp</text>
</a>
</g>
</g>
<!-- Node2 -->
<g id="node2" class="node">
<title>Node2</title>
<g id="a_node2"><a xlink:href="bond__error_8hpp.html" target="_top" xlink:title=" ">
<polygon fill="none" stroke="black" points="408.5,-179.5 408.5,-198.5 498.5,-198.5 498.5,-179.5 408.5,-179.5"/>
<text text-anchor="middle" x="453.5" y="-186.5" font-family="Helvetica,sans-Serif" font-size="10.00">bond_error.hpp</text>
</a>
</g>
</g>
<!-- Node1&#45;&gt;Node2 -->
<g id="edge1" class="edge">
<title>Node1&#45;&gt;Node2</title>
<path fill="none" stroke="midnightblue" d="M503.02,-235.32C494.3,-227.34 481.16,-215.31 470.6,-205.65"/>
<polygon fill="midnightblue" stroke="midnightblue" points="472.89,-203 463.15,-198.83 468.17,-208.17 472.89,-203"/>
</g>
<!-- Node3 -->
<g id="node3" class="node">
<title>Node3</title>
<g id="a_node3"><a xlink:href="Span_8hpp.html" target="_top" xlink:title=" ">
<polygon fill="none" stroke="black" points="276.5,-123.5 276.5,-142.5 362.5,-142.5 362.5,-123.5 276.5,-123.5"/>
<text text-anchor="middle" x="319.5" y="-130.5" font-family="Helvetica,sans-Serif" font-size="10.00">utils/Span.hpp</text>
</a>
</g>
</g>
<!-- Node1&#45;&gt;Node3 -->
<g id="edge26" class="edge">
<title>Node1&#45;&gt;Node3</title>
<path fill="none" stroke="midnightblue" d="M484.47,-235.49C460.92,-227.72 426.82,-215.03 399.5,-199 375.54,-184.94 351.22,-164.03 335.79,-149.75"/>
<polygon fill="midnightblue" stroke="midnightblue" points="337.86,-146.89 328.19,-142.58 333.06,-151.99 337.86,-146.89"/>
</g>
<!-- Node11 -->
<g id="node11" class="node">
<title>Node11</title>
<g id="a_node11"><a xlink:href="RuntimeErrorStream_8hpp.html" target="_top" xlink:title=" ">
<polygon fill="none" stroke="black" points="524,-123.5 524,-142.5 661,-142.5 661,-123.5 524,-123.5"/>
<text text-anchor="middle" x="592.5" y="-130.5" font-family="Helvetica,sans-Serif" font-size="10.00">RuntimeErrorStream.hpp</text>
</a>
</g>
</g>
<!-- Node1&#45;&gt;Node11 -->
<g id="edge11" class="edge">
<title>Node1&#45;&gt;Node11</title>
<path fill="none" stroke="midnightblue" d="M518.78,-235.37C531.98,-217.22 562.83,-174.8 580.14,-150.99"/>
<polygon fill="midnightblue" stroke="midnightblue" points="583.2,-152.74 586.25,-142.59 577.54,-148.62 583.2,-152.74"/>
</g>
<!-- Node18 -->
<g id="node18" class="node">
<title>Node18</title>
<g id="a_node18"><a xlink:href="errorhandling_8hpp.html" target="_top" xlink:title=" ">
<polygon fill="none" stroke="black" points="657,-179.5 657,-198.5 760,-198.5 760,-179.5 657,-179.5"/>
<text text-anchor="middle" x="708.5" y="-186.5" font-family="Helvetica,sans-Serif" font-size="10.00">errorhandling.hpp</text>
</a>
</g>
</g>
<!-- Node1&#45;&gt;Node18 -->
<g id="edge19" class="edge">
<title>Node1&#45;&gt;Node18</title>
<path fill="none" stroke="midnightblue" d="M543.56,-235.44C577.1,-226.2 630.7,-211.44 667.64,-201.26"/>
<polygon fill="midnightblue" stroke="midnightblue" points="668.88,-204.55 677.59,-198.52 667.02,-197.8 668.88,-204.55"/>
</g>
<!-- Node2&#45;&gt;Node3 -->
<g id="edge2" class="edge">
<title>Node2&#45;&gt;Node3</title>
<path fill="none" stroke="midnightblue" d="M432.27,-179.44C410.12,-170.52 375.18,-156.44 350.06,-146.32"/>
<polygon fill="midnightblue" stroke="midnightblue" points="351.22,-143.01 340.63,-142.52 348.6,-149.5 351.22,-143.01"/>
</g>
<!-- Node10 -->
<g id="node10" class="node">
<title>Node10</title>
<g id="a_node10"><a xlink:title=" ">
<polygon fill="none" stroke="#bfbfbf" points="421,-123.5 421,-142.5 486,-142.5 486,-123.5 421,-123.5"/>
<text text-anchor="middle" x="453.5" y="-130.5" font-family="Helvetica,sans-Serif" font-size="10.00">exception</text>
</a>
</g>
</g>
<!-- Node2&#45;&gt;Node10 -->
<g id="edge10" class="edge">
<title>Node2&#45;&gt;Node10</title>
<path fill="none" stroke="midnightblue" d="M453.5,-179.08C453.5,-172.01 453.5,-161.86 453.5,-152.99"/>
<polygon fill="midnightblue" stroke="midnightblue" points="457,-152.75 453.5,-142.75 450,-152.75 457,-152.75"/>
</g>
<!-- Node4 -->
<g id="node4" class="node">
<title>Node4</title>
<g id="a_node4"><a xlink:href="device__qualifier_8hpp.html" target="_top" xlink:title=" ">
<polygon fill="none" stroke="black" points="241.5,-67.5 241.5,-86.5 357.5,-86.5 357.5,-67.5 241.5,-67.5"/>
<text text-anchor="middle" x="299.5" y="-74.5" font-family="Helvetica,sans-Serif" font-size="10.00">device_qualifier.hpp</text>
</a>
</g>
</g>
<!-- Node3&#45;&gt;Node4 -->
<g id="edge3" class="edge">
<title>Node3&#45;&gt;Node4</title>
<path fill="none" stroke="midnightblue" d="M316.2,-123.08C313.52,-115.85 309.65,-105.41 306.31,-96.4"/>
<polygon fill="midnightblue" stroke="midnightblue" points="309.5,-94.91 302.74,-86.75 302.93,-97.34 309.5,-94.91"/>
</g>
<!-- Node5 -->
<g id="node5" class="node">
<title>Node5</title>
<g id="a_node5"><a xlink:title=" ">
<polygon fill="none" stroke="#bfbfbf" points="297.5,-6 297.5,-25 349.5,-25 349.5,-6 297.5,-6"/>
<text text-anchor="middle" x="323.5" y="-13" font-family="Helvetica,sans-Serif" font-size="10.00">cassert</text>
</a>
</g>
</g>
<!-- Node3&#45;&gt;Node5 -->
<g id="edge5" class="edge">
<title>Node3&#45;&gt;Node5</title>
<path fill="none" stroke="midnightblue" d="M333.58,-123.26C344.85,-115.35 359.85,-102.58 366.5,-87 375.05,-66.98 358.32,-45.9 343.3,-32.06"/>
<polygon fill="midnightblue" stroke="midnightblue" points="345.16,-29.05 335.3,-25.18 340.59,-34.35 345.16,-29.05"/>
</g>
<!-- Node6 -->
<g id="node6" class="node">
<title>Node6</title>
<g id="a_node6"><a xlink:title=" ">
<polygon fill="none" stroke="#bfbfbf" points="414,-67.5 414,-86.5 467,-86.5 467,-67.5 414,-67.5"/>
<text text-anchor="middle" x="440.5" y="-74.5" font-family="Helvetica,sans-Serif" font-size="10.00">cstddef</text>
</a>
</g>
</g>
<!-- Node3&#45;&gt;Node6 -->
<g id="edge6" class="edge">
<title>Node3&#45;&gt;Node6</title>
<path fill="none" stroke="midnightblue" d="M338.67,-123.44C358.41,-114.64 389.39,-100.81 411.99,-90.72"/>
<polygon fill="midnightblue" stroke="midnightblue" points="413.71,-93.79 421.42,-86.52 410.86,-87.4 413.71,-93.79"/>
</g>
<!-- Node7 -->
<g id="node7" class="node">
<title>Node7</title>
<g id="a_node7"><a xlink:title=" ">
<polygon fill="none" stroke="#bfbfbf" points="0,-67.5 0,-86.5 53,-86.5 53,-67.5 0,-67.5"/>
<text text-anchor="middle" x="26.5" y="-74.5" font-family="Helvetica,sans-Serif" font-size="10.00">iterator</text>
</a>
</g>
</g>
<!-- Node3&#45;&gt;Node7 -->
<g id="edge7" class="edge">
<title>Node3&#45;&gt;Node7</title>
<path fill="none" stroke="midnightblue" d="M276.39,-125.55C227,-117.92 143.47,-104.3 63,-87.2"/>
<polygon fill="midnightblue" stroke="midnightblue" points="63.71,-83.77 53.2,-85.1 62.24,-90.62 63.71,-83.77"/>
</g>
<!-- Node8 -->
<g id="node8" class="node">
<title>Node8</title>
<g id="a_node8"><a xlink:title=" ">
<polygon fill="none" stroke="#bfbfbf" points="71,-67.5 71,-86.5 136,-86.5 136,-67.5 71,-67.5"/>
<text text-anchor="middle" x="103.5" y="-74.5" font-family="Helvetica,sans-Serif" font-size="10.00">stdexcept</text>
</a>
</g>
</g>
<!-- Node3&#45;&gt;Node8 -->
<g id="edge8" class="edge">
<title>Node3&#45;&gt;Node8</title>
<path fill="none" stroke="midnightblue" d="M285.27,-123.44C247.55,-114.01 186.82,-98.83 146.06,-88.64"/>
<polygon fill="midnightblue" stroke="midnightblue" points="146.7,-85.19 136.15,-86.16 145,-91.98 146.7,-85.19"/>
</g>
<!-- Node9 -->
<g id="node9" class="node">
<title>Node9</title>
<g id="a_node9"><a xlink:title=" ">
<polygon fill="none" stroke="#bfbfbf" points="154,-67.5 154,-86.5 223,-86.5 223,-67.5 154,-67.5"/>
<text text-anchor="middle" x="188.5" y="-74.5" font-family="Helvetica,sans-Serif" font-size="10.00">type_traits</text>
</a>
</g>
</g>
<!-- Node3&#45;&gt;Node9 -->
<g id="edge9" class="edge">
<title>Node3&#45;&gt;Node9</title>
<path fill="none" stroke="midnightblue" d="M298.74,-123.44C277.18,-114.56 243.24,-100.56 218.71,-90.45"/>
<polygon fill="midnightblue" stroke="midnightblue" points="219.74,-87.09 209.16,-86.52 217.07,-93.56 219.74,-87.09"/>
</g>
<!-- Node4&#45;&gt;Node5 -->
<g id="edge4" class="edge">
<title>Node4&#45;&gt;Node5</title>
<path fill="none" stroke="midnightblue" d="M302.94,-67.48C306.4,-58.9 311.83,-45.43 316.25,-34.48"/>
<polygon fill="midnightblue" stroke="midnightblue" points="319.57,-35.59 320.07,-25.01 313.08,-32.97 319.57,-35.59"/>
</g>
<!-- Node12 -->
<g id="node12" class="node">
<title>Node12</title>
<g id="a_node12"><a xlink:href="RuntimeError_8hpp.html" target="_top" xlink:title=" ">
<polygon fill="none" stroke="black" points="559.5,-67.5 559.5,-86.5 661.5,-86.5 661.5,-67.5 559.5,-67.5"/>
<text text-anchor="middle" x="610.5" y="-74.5" font-family="Helvetica,sans-Serif" font-size="10.00">RuntimeError.hpp</text>
</a>
</g>
</g>
<!-- Node11&#45;&gt;Node12 -->
<g id="edge12" class="edge">
<title>Node11&#45;&gt;Node12</title>
<path fill="none" stroke="midnightblue" d="M595.47,-123.08C597.88,-115.85 601.36,-105.41 604.37,-96.4"/>
<polygon fill="midnightblue" stroke="midnightblue" points="607.74,-97.34 607.58,-86.75 601.1,-95.13 607.74,-97.34"/>
</g>
<!-- Node15 -->
<g id="node15" class="node">
<title>Node15</title>
<g id="a_node15"><a xlink:title=" ">
<polygon fill="none" stroke="#bfbfbf" points="686.5,-6 686.5,-25 730.5,-25 730.5,-6 686.5,-6"/>
<text text-anchor="middle" x="708.5" y="-13" font-family="Helvetica,sans-Serif" font-size="10.00">string</text>
</a>
</g>
</g>
<!-- Node11&#45;&gt;Node15 -->
<g id="edge18" class="edge">
<title>Node11&#45;&gt;Node15</title>
<path fill="none" stroke="midnightblue" d="M614.17,-123.44C631.14,-115.87 654.49,-103.48 670.5,-87 685.14,-71.93 695.74,-50.08 701.96,-34.71"/>
<polygon fill="midnightblue" stroke="midnightblue" points="705.27,-35.86 705.57,-25.27 698.73,-33.36 705.27,-35.86"/>
</g>
<!-- Node17 -->
<g id="node17" class="node">
<title>Node17</title>
<g id="a_node17"><a xlink:title=" ">
<polygon fill="none" stroke="#bfbfbf" points="485.5,-67.5 485.5,-86.5 541.5,-86.5 541.5,-67.5 485.5,-67.5"/>
<text text-anchor="middle" x="513.5" y="-74.5" font-family="Helvetica,sans-Serif" font-size="10.00">sstream</text>
</a>
</g>
</g>
<!-- Node11&#45;&gt;Node17 -->
<g id="edge17" class="edge">
<title>Node11&#45;&gt;Node17</title>
<path fill="none" stroke="midnightblue" d="M579.81,-123.32C567.6,-114.98 548.92,-102.21 534.5,-92.35"/>
<polygon fill="midnightblue" stroke="midnightblue" points="536.39,-89.41 526.16,-86.65 532.44,-95.19 536.39,-89.41"/>
</g>
<!-- Node13 -->
<g id="node13" class="node">
<title>Node13</title>
<g id="a_node13"><a xlink:title=" ">
<polygon fill="none" stroke="#bfbfbf" points="373,-0.5 373,-30.5 480,-30.5 480,-0.5 373,-0.5"/>
<text text-anchor="start" x="381" y="-18.5" font-family="Helvetica,sans-Serif" font-size="10.00">boost/serialization</text>
<text text-anchor="middle" x="426.5" y="-7.5" font-family="Helvetica,sans-Serif" font-size="10.00">/access.hpp</text>
</a>
</g>
</g>
<!-- Node12&#45;&gt;Node13 -->
<g id="edge13" class="edge">
<title>Node12&#45;&gt;Node13</title>
<path fill="none" stroke="midnightblue" d="M584.14,-67.48C557,-58.7 513.98,-44.79 479.73,-33.71"/>
<polygon fill="midnightblue" stroke="midnightblue" points="480.46,-30.27 469.87,-30.52 478.3,-36.93 480.46,-30.27"/>
</g>
<!-- Node14 -->
<g id="node14" class="node">
<title>Node14</title>
<g id="a_node14"><a xlink:title=" ">
<polygon fill="none" stroke="#bfbfbf" points="498,-0.5 498,-30.5 605,-30.5 605,-0.5 498,-0.5"/>
<text text-anchor="start" x="506" y="-18.5" font-family="Helvetica,sans-Serif" font-size="10.00">boost/serialization</text>
<text text-anchor="middle" x="551.5" y="-7.5" font-family="Helvetica,sans-Serif" font-size="10.00">/string.hpp</text>
</a>
</g>
</g>
<!-- Node12&#45;&gt;Node14 -->
<g id="edge14" class="edge">
<title>Node12&#45;&gt;Node14</title>
<path fill="none" stroke="midnightblue" d="M602.05,-67.48C594.35,-59.72 582.68,-47.94 572.49,-37.66"/>
<polygon fill="midnightblue" stroke="midnightblue" points="574.93,-35.16 565.41,-30.52 569.96,-40.09 574.93,-35.16"/>
</g>
<!-- Node12&#45;&gt;Node15 -->
<g id="edge15" class="edge">
<title>Node12&#45;&gt;Node15</title>
<path fill="none" stroke="midnightblue" d="M624.54,-67.48C640.55,-57.75 666.95,-41.73 685.87,-30.24"/>
<polygon fill="midnightblue" stroke="midnightblue" points="687.75,-33.19 694.49,-25.01 684.12,-27.21 687.75,-33.19"/>
</g>
<!-- Node16 -->
<g id="node16" class="node">
<title>Node16</title>
<g id="a_node16"><a xlink:title=" ">
<polygon fill="none" stroke="#bfbfbf" points="623,-6 623,-25 668,-25 668,-6 623,-6"/>
<text text-anchor="middle" x="645.5" y="-13" font-family="Helvetica,sans-Serif" font-size="10.00">utility</text>
</a>
</g>
</g>
<!-- Node12&#45;&gt;Node16 -->
<g id="edge16" class="edge">
<title>Node12&#45;&gt;Node16</title>
<path fill="none" stroke="midnightblue" d="M615.51,-67.48C620.66,-58.73 628.81,-44.87 635.32,-33.81"/>
<polygon fill="midnightblue" stroke="midnightblue" points="638.44,-35.4 640.49,-25.01 632.41,-31.85 638.44,-35.4"/>
</g>
<!-- Node18&#45;&gt;Node11 -->
<g id="edge23" class="edge">
<title>Node18&#45;&gt;Node11</title>
<path fill="none" stroke="midnightblue" d="M690.12,-179.44C671.28,-170.68 641.77,-156.94 620.12,-146.86"/>
<polygon fill="midnightblue" stroke="midnightblue" points="621.34,-143.56 610.79,-142.52 618.38,-149.91 621.34,-143.56"/>
</g>
<!-- Node18&#45;&gt;Node12 -->
<g id="edge22" class="edge">
<title>Node18&#45;&gt;Node12</title>
<path fill="none" stroke="midnightblue" d="M704.61,-179.32C698.44,-166.17 685.47,-140.85 669.5,-123 658.96,-111.22 644.97,-100.39 633.25,-92.31"/>
<polygon fill="midnightblue" stroke="midnightblue" points="635.1,-89.33 624.84,-86.7 631.21,-95.16 635.1,-89.33"/>
</g>
<!-- Node18&#45;&gt;Node15 -->
<g id="edge24" class="edge">
<title>Node18&#45;&gt;Node15</title>
<path fill="none" stroke="midnightblue" d="M708.5,-179.26C708.5,-152.65 708.5,-72.21 708.5,-35.34"/>
<polygon fill="midnightblue" stroke="midnightblue" points="712,-35.02 708.5,-25.02 705,-35.02 712,-35.02"/>
</g>
<!-- Node19 -->
<g id="node19" class="node">
<title>Node19</title>
<g id="a_node19"><a xlink:href="config_8hpp.html" target="_top" xlink:title=" ">
<polygon fill="none" stroke="black" points="755.5,-123.5 755.5,-142.5 823.5,-142.5 823.5,-123.5 755.5,-123.5"/>
<text text-anchor="middle" x="789.5" y="-130.5" font-family="Helvetica,sans-Serif" font-size="10.00">config.hpp</text>
</a>
</g>
</g>
<!-- Node18&#45;&gt;Node19 -->
<g id="edge20" class="edge">
<title>Node18&#45;&gt;Node19</title>
<path fill="none" stroke="midnightblue" d="M721.51,-179.32C734.03,-170.98 753.18,-158.21 767.97,-148.35"/>
<polygon fill="midnightblue" stroke="midnightblue" points="770.14,-151.11 776.52,-142.65 766.26,-145.29 770.14,-151.11"/>
</g>
<!-- Node21 -->
<g id="node21" class="node">
<title>Node21</title>
<g id="a_node21"><a xlink:title=" ">
<polygon fill="none" stroke="#bfbfbf" points="842,-123.5 842,-142.5 889,-142.5 889,-123.5 842,-123.5"/>
<text text-anchor="middle" x="865.5" y="-130.5" font-family="Helvetica,sans-Serif" font-size="10.00">vector</text>
</a>
</g>
</g>
<!-- Node18&#45;&gt;Node21 -->
<g id="edge25" class="edge">
<title>Node18&#45;&gt;Node21</title>
<path fill="none" stroke="midnightblue" d="M733.38,-179.44C760.1,-170.25 802.7,-155.6 832.28,-145.43"/>
<polygon fill="midnightblue" stroke="midnightblue" points="833.45,-148.73 841.77,-142.16 831.17,-142.11 833.45,-148.73"/>
</g>
<!-- Node20 -->
<g id="node20" class="node">
<title>Node20</title>
<g id="a_node20"><a xlink:title=" ">
<polygon fill="none" stroke="#bfbfbf" points="755.5,-67.5 755.5,-86.5 867.5,-86.5 867.5,-67.5 755.5,-67.5"/>
<text text-anchor="middle" x="811.5" y="-74.5" font-family="Helvetica,sans-Serif" font-size="10.00">config&#45;features.hpp</text>
</a>
</g>
</g>
<!-- Node19&#45;&gt;Node20 -->
<g id="edge21" class="edge">
<title>Node19&#45;&gt;Node20</title>
<path fill="none" stroke="midnightblue" d="M793.13,-123.08C796.11,-115.77 800.43,-105.18 804.12,-96.1"/>
<polygon fill="midnightblue" stroke="midnightblue" points="807.4,-97.33 807.93,-86.75 800.92,-94.69 807.4,-97.33"/>
</g>
</g>
</svg>
        <g id="navigator" transform="translate(0 0)" fill="#404254">
                <rect fill="#f2f5e9" fill-opacity="0.5" stroke="#606060" stroke-width=".5" x="0" y="0" width="60" height="60"/>
                <use id="zoomplus" xlink:href="#zoomPlus" x="17" y="9" onmousedown="handleZoom(evt,'in')"/>
                <use id="zoomminus" xlink:href="#zoomMin" x="42" y="9" onmousedown="handleZoom(evt,'out')"/>
                <use id="reset" xlink:href="#resetDef" x="30" y="36" onmousedown="handleReset()"/>
                <g id="arrowUp" xlink:href="#dirArrow" transform="translate(30 24)" onmousedown="handlePan(0,-1)">
                  <use xlink:href="#rim" fill="#404040">
                        <set attributeName="fill" to="#808080" begin="arrowUp.mouseover" end="arrowUp.mouseout"/>
                  </use>
                  <path fill="none" stroke="white" stroke-width="1.5" d="M0,-3.0v7 M-2.5,-0.5L0,-3.0L2.5,-0.5"/>
                </g>
                <g id="arrowRight" xlink:href="#dirArrow" transform="rotate(90) translate(36 -43)" onmousedown="handlePan(1,0)">
                  <use xlink:href="#rim" fill="#404040">
                        <set attributeName="fill" to="#808080" begin="arrowRight.mouseover" end="arrowRight.mouseout"/>
                  </use>
                  <path fill="none" stroke="white" stroke-width="1.5" d="M0,-3.0v7 M-2.5,-0.5L0,-3.0L2.5,-0.5"/>
                </g>
                <g id="arrowDown" xlink:href="#dirArrow" transform="rotate(180) translate(-30 -48)" onmousedown="handlePan(0,1)">
                  <use xlink:href="#rim" fill="#404040">
                        <set attributeName="fill" to="#808080" begin="arrowDown.mouseover" end="arrowDown.mouseout"/>
                  </use>
                  <path fill="none" stroke="white" stroke-width="1.5" d="M0,-3.0v7 M-2.5,-0.5L0,-3.0L2.5,-0.5"/>
                </g>
                <g id="arrowLeft" xlink:href="#dirArrow" transform="rotate(270) translate(-36 17)" onmousedown="handlePan(-1,0)">
                  <use xlink:href="#rim" fill="#404040">
                        <set attributeName="fill" to="#808080" begin="arrowLeft.mouseover" end="arrowLeft.mouseout"/>
                  </use>
                  <path fill="none" stroke="white" stroke-width="1.5" d="M0,-3.0v7 M-2.5,-0.5L0,-3.0L2.5,-0.5"/>
                </g>
        </g>
        <svg viewBox="0 0 15 15" width="100%" height="30px" preserveAspectRatio="xMaxYMin meet">
         <g id="arrow_out" transform="scale(0.3 0.3)">
          <a xlink:href="bond__error_8cpp__incl_org.svg" target="_base">
           <rect id="button" ry="5" rx="5" y="6" x="6" height="38" width="38"
                fill="#f2f5e9" fill-opacity="0.5" stroke="#606060" stroke-width="1.0"/>
           <path id="arrow"
             d="M 11.500037,31.436501 C 11.940474,20.09759 22.043105,11.32322 32.158766,21.979434 L 37.068811,17.246167 C 37.068811,17.246167 37.088388,32 37.088388,32 L 22.160133,31.978069 C 22.160133,31.978069 26.997745,27.140456 26.997745,27.140456 C 18.528582,18.264221 13.291696,25.230495 11.500037,31.436501 z"
             style="fill:#404040;"/>
          </a>
         </g>
        </svg>
</svg>
