<?xml version="1.0" encoding="UTF-8" standalone="no"?>
<!DOCTYPE svg PUBLIC "-//W3C//DTD SVG 1.1//EN"
 "http://www.w3.org/Graphics/SVG/1.1/DTD/svg11.dtd">
<!-- Generated by graphviz version 2.43.0 (0)
 -->
<!-- Title: BondList.hpp Pages: 1 -->
<!--zoomable 207 -->
<svg id="main" version="1.1" xmlns="http://www.w3.org/2000/svg" xmlns:xlink="http://www.w3.org/1999/xlink" xml:space="preserve" onload="init(evt)">
<style type="text/css"><![CDATA[
.edge:hover path { stroke: red; }
.edge:hover polygon { stroke: red; fill: red; }
]]></style>
<script type="text/javascript"><![CDATA[
var edges = document.getElementsByTagName('g');
if (edges && edges.length) {
  for (var i=0;i<edges.length;i++) {
    if (edges[i].id.substr(0,4)=='edge') {
      edges[i].setAttribute('class','edge');
    }
  }
}
]]></script>
        <defs>
                <circle id="rim" cx="0" cy="0" r="7"/>
                <circle id="rim2" cx="0" cy="0" r="3.5"/>
                <g id="zoomPlus">
                        <use xlink:href="#rim" fill="#404040">
                                <set attributeName="fill" to="#808080" begin="zoomplus.mouseover" end="zoomplus.mouseout"/>
                        </use>
                        <path d="M-4,0h8M0,-4v8" fill="none" stroke="white" stroke-width="1.5" pointer-events="none"/>
                </g>
                <g id="zoomMin">
                        <use xlink:href="#rim" fill="#404040">
                                <set attributeName="fill" to="#808080" begin="zoomminus.mouseover" end="zoomminus.mouseout"/>
                        </use>
                        <path d="M-4,0h8" fill="none" stroke="white" stroke-width="1.5" pointer-events="none"/>
                </g>
                <g id="dirArrow">
                        <path fill="none" stroke="white" stroke-width="1.5" d="M0,-3.0v7 M-2.5,-0.5L0,-3.0L2.5,-0.5"/>
                </g>
               <g id="resetDef">
                       <use xlink:href="#rim2" fill="#404040">
                               <set attributeName="fill" to="#808080" begin="reset.mouseover" end="reset.mouseout"/>
                       </use>
               </g>
        </defs>

<script type="text/javascript">
var viewWidth = 1397;
var viewHeight = 207;
var sectionId = 'dynsection-0';
</script>
<script xlink:href="svgpan.js"/>
<svg id="graph" class="graph">
<g id="viewport">
<title>BondList.hpp</title>
<!-- Node1 -->
<g id="node1" class="node">
<title>Node1</title>
<g id="a_node1"><a xlink:title=" ">
<polygon fill="#bfbfbf" stroke="black" points="614.42,-179.5 614.42,-198.5 694.42,-198.5 694.42,-179.5 614.42,-179.5"/>
<text text-anchor="middle" x="654.42" y="-186.5" font-family="Helvetica,sans-Serif" font-size="10.00">BondList.hpp</text>
</a>
</g>
</g>
<!-- Node2 -->
<g id="node2" class="node">
<title>Node2</title>
<g id="a_node2"><a xlink:href="Span_8hpp.html" target="_top" xlink:title=" ">
<polygon fill="none" stroke="black" points="141.42,-118 141.42,-137 227.42,-137 227.42,-118 141.42,-118"/>
<text text-anchor="middle" x="184.42" y="-125" font-family="Helvetica,sans-Serif" font-size="10.00">utils/Span.hpp</text>
</a>
</g>
</g>
<!-- Node1&#45;&gt;Node2 -->
<g id="edge1" class="edge">
<title>Node1&#45;&gt;Node2</title>
<path fill="none" stroke="midnightblue" d="M614.29,-185.51C540.16,-180.49 376.99,-167.5 241.42,-143 235.96,-142.01 230.25,-140.79 224.64,-139.48"/>
<polygon fill="midnightblue" stroke="midnightblue" points="225.27,-136.03 214.72,-137.05 223.6,-142.83 225.27,-136.03"/>
</g>
<!-- Node4 -->
<g id="node4" class="node">
<title>Node4</title>
<g id="a_node4"><a xlink:title=" ">
<polygon fill="none" stroke="#bfbfbf" points="72.42,-0.5 72.42,-19.5 124.42,-19.5 124.42,-0.5 72.42,-0.5"/>
<text text-anchor="middle" x="98.42" y="-7.5" font-family="Helvetica,sans-Serif" font-size="10.00">cassert</text>
</a>
</g>
</g>
<!-- Node1&#45;&gt;Node4 -->
<g id="edge17" class="edge">
<title>Node1&#45;&gt;Node4</title>
<path fill="none" stroke="midnightblue" d="M614.25,-188.11C500.67,-187.89 179.34,-183.62 83.42,-143 36.15,-122.98 -19.66,-99.61 7.42,-56 19.44,-36.66 42.5,-25.38 62.4,-18.95"/>
<polygon fill="midnightblue" stroke="midnightblue" points="63.53,-22.26 72.14,-16.09 61.56,-15.55 63.53,-22.26"/>
</g>
<!-- Node5 -->
<g id="node5" class="node">
<title>Node5</title>
<g id="a_node5"><a xlink:title=" ">
<polygon fill="none" stroke="#bfbfbf" points="16.92,-56.5 16.92,-75.5 69.92,-75.5 69.92,-56.5 16.92,-56.5"/>
<text text-anchor="middle" x="43.42" y="-63.5" font-family="Helvetica,sans-Serif" font-size="10.00">cstddef</text>
</a>
</g>
</g>
<!-- Node1&#45;&gt;Node5 -->
<g id="edge18" class="edge">
<title>Node1&#45;&gt;Node5</title>
<path fill="none" stroke="midnightblue" d="M614.31,-187.69C507.66,-186.35 219.37,-179.39 132.42,-143 101.18,-129.92 72.88,-101.64 56.95,-83.51"/>
<polygon fill="midnightblue" stroke="midnightblue" points="59.31,-80.88 50.16,-75.54 53.98,-85.42 59.31,-80.88"/>
</g>
<!-- Node8 -->
<g id="node8" class="node">
<title>Node8</title>
<g id="a_node8"><a xlink:title=" ">
<polygon fill="none" stroke="#bfbfbf" points="414.92,-56.5 414.92,-75.5 483.92,-75.5 483.92,-56.5 414.92,-56.5"/>
<text text-anchor="middle" x="449.42" y="-63.5" font-family="Helvetica,sans-Serif" font-size="10.00">type_traits</text>
</a>
</g>
</g>
<!-- Node1&#45;&gt;Node8 -->
<g id="edge20" class="edge">
<title>Node1&#45;&gt;Node8</title>
<path fill="none" stroke="midnightblue" d="M614.15,-186.2C520.98,-181.63 296.74,-168.11 274.42,-143 265.27,-132.7 265.98,-122.89 274.42,-112 278.5,-106.74 354.16,-88.66 404.65,-77.08"/>
<polygon fill="midnightblue" stroke="midnightblue" points="405.73,-80.42 414.7,-74.79 404.17,-73.6 405.73,-80.42"/>
</g>
<!-- Node9 -->
<g id="node9" class="node">
<title>Node9</title>
<g id="a_node9"><a xlink:title=" ">
<polygon fill="none" stroke="#bfbfbf" points="283.42,-112.5 283.42,-142.5 409.42,-142.5 409.42,-112.5 283.42,-112.5"/>
<text text-anchor="start" x="291.42" y="-130.5" font-family="Helvetica,sans-Serif" font-size="10.00">boost/algorithm/cxx11</text>
<text text-anchor="middle" x="346.42" y="-119.5" font-family="Helvetica,sans-Serif" font-size="10.00">/any_of.hpp</text>
</a>
</g>
</g>
<!-- Node1&#45;&gt;Node9 -->
<g id="edge9" class="edge">
<title>Node1&#45;&gt;Node9</title>
<path fill="none" stroke="midnightblue" d="M614.07,-180.36C569.26,-171.86 494.49,-157.61 419.79,-143.06"/>
<polygon fill="midnightblue" stroke="midnightblue" points="420.21,-139.58 409.73,-141.1 418.87,-146.45 420.21,-139.58"/>
</g>
<!-- Node10 -->
<g id="node10" class="node">
<title>Node10</title>
<g id="a_node10"><a xlink:title=" ">
<polygon fill="none" stroke="#bfbfbf" points="427.92,-118 427.92,-137 574.92,-137 574.92,-118 427.92,-118"/>
<text text-anchor="middle" x="501.42" y="-125" font-family="Helvetica,sans-Serif" font-size="10.00">boost/container/vector.hpp</text>
</a>
</g>
</g>
<!-- Node1&#45;&gt;Node10 -->
<g id="edge10" class="edge">
<title>Node1&#45;&gt;Node10</title>
<path fill="none" stroke="midnightblue" d="M632.5,-179.48C606.37,-169.31 562.51,-152.26 532.8,-140.7"/>
<polygon fill="midnightblue" stroke="midnightblue" points="533.89,-137.37 523.31,-137.01 531.36,-143.9 533.89,-137.37"/>
</g>
<!-- Node11 -->
<g id="node11" class="node">
<title>Node11</title>
<g id="a_node11"><a xlink:title=" ">
<polygon fill="none" stroke="#bfbfbf" points="593.42,-112.5 593.42,-142.5 715.42,-142.5 715.42,-112.5 593.42,-112.5"/>
<text text-anchor="start" x="601.42" y="-130.5" font-family="Helvetica,sans-Serif" font-size="10.00">boost/iterator/iterator</text>
<text text-anchor="middle" x="654.42" y="-119.5" font-family="Helvetica,sans-Serif" font-size="10.00">_facade.hpp</text>
</a>
</g>
</g>
<!-- Node1&#45;&gt;Node11 -->
<g id="edge11" class="edge">
<title>Node1&#45;&gt;Node11</title>
<path fill="none" stroke="midnightblue" d="M654.42,-179.48C654.42,-172.47 654.42,-162.19 654.42,-152.7"/>
<polygon fill="midnightblue" stroke="midnightblue" points="657.92,-152.52 654.42,-142.52 650.92,-152.52 657.92,-152.52"/>
</g>
<!-- Node12 -->
<g id="node12" class="node">
<title>Node12</title>
<g id="a_node12"><a xlink:title=" ">
<polygon fill="none" stroke="#bfbfbf" points="733.92,-112.5 733.92,-142.5 858.92,-142.5 858.92,-112.5 733.92,-112.5"/>
<text text-anchor="start" x="741.92" y="-130.5" font-family="Helvetica,sans-Serif" font-size="10.00">boost/range/algorithm</text>
<text text-anchor="middle" x="796.42" y="-119.5" font-family="Helvetica,sans-Serif" font-size="10.00">/copy.hpp</text>
</a>
</g>
</g>
<!-- Node1&#45;&gt;Node12 -->
<g id="edge12" class="edge">
<title>Node1&#45;&gt;Node12</title>
<path fill="none" stroke="midnightblue" d="M674.77,-179.48C695.26,-170.89 727.49,-157.38 753.64,-146.43"/>
<polygon fill="midnightblue" stroke="midnightblue" points="755.09,-149.62 762.96,-142.52 752.38,-143.16 755.09,-149.62"/>
</g>
<!-- Node13 -->
<g id="node13" class="node">
<title>Node13</title>
<g id="a_node13"><a xlink:title=" ">
<polygon fill="none" stroke="#bfbfbf" points="876.92,-112.5 876.92,-142.5 983.92,-142.5 983.92,-112.5 876.92,-112.5"/>
<text text-anchor="start" x="884.92" y="-130.5" font-family="Helvetica,sans-Serif" font-size="10.00">boost/serialization</text>
<text text-anchor="middle" x="930.42" y="-119.5" font-family="Helvetica,sans-Serif" font-size="10.00">/access.hpp</text>
</a>
</g>
</g>
<!-- Node1&#45;&gt;Node13 -->
<g id="edge13" class="edge">
<title>Node1&#45;&gt;Node13</title>
<path fill="none" stroke="midnightblue" d="M694.71,-179.81C735.67,-171.42 801.22,-157.82 866.61,-143.38"/>
<polygon fill="midnightblue" stroke="midnightblue" points="867.67,-146.73 876.67,-141.15 866.15,-139.9 867.67,-146.73"/>
</g>
<!-- Node14 -->
<g id="node14" class="node">
<title>Node14</title>
<g id="a_node14"><a xlink:title=" ">
<polygon fill="none" stroke="#bfbfbf" points="1001.92,-112.5 1001.92,-142.5 1108.92,-142.5 1108.92,-112.5 1001.92,-112.5"/>
<text text-anchor="start" x="1009.92" y="-130.5" font-family="Helvetica,sans-Serif" font-size="10.00">boost/serialization</text>
<text text-anchor="middle" x="1055.42" y="-119.5" font-family="Helvetica,sans-Serif" font-size="10.00">/array.hpp</text>
</a>
</g>
</g>
<!-- Node1&#45;&gt;Node14 -->
<g id="edge14" class="edge">
<title>Node1&#45;&gt;Node14</title>
<path fill="none" stroke="midnightblue" d="M694.55,-183.96C756.4,-177.45 878.92,-163.45 991.87,-143.19"/>
<polygon fill="midnightblue" stroke="midnightblue" points="992.51,-146.63 1001.72,-141.4 991.26,-139.74 992.51,-146.63"/>
</g>
<!-- Node15 -->
<g id="node15" class="node">
<title>Node15</title>
<g id="a_node15"><a xlink:title=" ">
<polygon fill="none" stroke="#bfbfbf" points="1127.42,-118 1127.42,-137 1231.42,-137 1231.42,-118 1127.42,-118"/>
<text text-anchor="middle" x="1179.42" y="-125" font-family="Helvetica,sans-Serif" font-size="10.00">boost/version.hpp</text>
</a>
</g>
</g>
<!-- Node1&#45;&gt;Node15 -->
<g id="edge15" class="edge">
<title>Node1&#45;&gt;Node15</title>
<path fill="none" stroke="midnightblue" d="M694.7,-185.95C775.5,-181.43 962.95,-168.89 1118.42,-143 1124.63,-141.97 1131.13,-140.66 1137.49,-139.26"/>
<polygon fill="midnightblue" stroke="midnightblue" points="1138.34,-142.66 1147.3,-137 1136.77,-135.84 1138.34,-142.66"/>
</g>
<!-- Node16 -->
<g id="node16" class="node">
<title>Node16</title>
<g id="a_node16"><a xlink:title=" ">
<polygon fill="none" stroke="#bfbfbf" points="1249.42,-118 1249.42,-137 1313.42,-137 1313.42,-118 1249.42,-118"/>
<text text-anchor="middle" x="1281.42" y="-125" font-family="Helvetica,sans-Serif" font-size="10.00">algorithm</text>
</a>
</g>
</g>
<!-- Node1&#45;&gt;Node16 -->
<g id="edge16" class="edge">
<title>Node1&#45;&gt;Node16</title>
<path fill="none" stroke="midnightblue" d="M694.73,-188.53C790.5,-189 1038.77,-185.62 1240.42,-143 1243.85,-142.28 1247.39,-141.34 1250.87,-140.29"/>
<polygon fill="midnightblue" stroke="midnightblue" points="1252.06,-143.58 1260.45,-137.11 1249.86,-136.94 1252.06,-143.58"/>
</g>
<!-- Node17 -->
<g id="node17" class="node">
<title>Node17</title>
<g id="a_node17"><a xlink:title=" ">
<polygon fill="none" stroke="#bfbfbf" points="1331.42,-118 1331.42,-137 1389.42,-137 1389.42,-118 1331.42,-118"/>
<text text-anchor="middle" x="1360.42" y="-125" font-family="Helvetica,sans-Serif" font-size="10.00">memory</text>
</a>
</g>
</g>
<!-- Node1&#45;&gt;Node17 -->
<g id="edge19" class="edge">
<title>Node1&#45;&gt;Node17</title>
<path fill="none" stroke="midnightblue" d="M694.84,-186.85C820.26,-183.03 1201.65,-169.49 1322.42,-143 1325.5,-142.33 1328.65,-141.45 1331.77,-140.46"/>
<polygon fill="midnightblue" stroke="midnightblue" points="1333.19,-143.67 1341.43,-137.01 1330.84,-137.07 1333.19,-143.67"/>
</g>
<!-- Node3 -->
<g id="node3" class="node">
<title>Node3</title>
<g id="a_node3"><a xlink:href="device__qualifier_8hpp.html" target="_top" xlink:title=" ">
<polygon fill="none" stroke="black" points="126.42,-56.5 126.42,-75.5 242.42,-75.5 242.42,-56.5 126.42,-56.5"/>
<text text-anchor="middle" x="184.42" y="-63.5" font-family="Helvetica,sans-Serif" font-size="10.00">device_qualifier.hpp</text>
</a>
</g>
</g>
<!-- Node2&#45;&gt;Node3 -->
<g id="edge2" class="edge">
<title>Node2&#45;&gt;Node3</title>
<path fill="none" stroke="midnightblue" d="M184.42,-117.98C184.42,-109.58 184.42,-96.48 184.42,-85.66"/>
<polygon fill="midnightblue" stroke="midnightblue" points="187.92,-85.51 184.42,-75.51 180.92,-85.51 187.92,-85.51"/>
</g>
<!-- Node2&#45;&gt;Node4 -->
<g id="edge4" class="edge">
<title>Node2&#45;&gt;Node4</title>
<path fill="none" stroke="midnightblue" d="M167.65,-117.96C152.4,-109.36 130.34,-94.69 117.42,-76 107.92,-62.25 103.11,-43.72 100.72,-29.96"/>
<polygon fill="midnightblue" stroke="midnightblue" points="104.13,-29.13 99.22,-19.74 97.21,-30.14 104.13,-29.13"/>
</g>
<!-- Node2&#45;&gt;Node5 -->
<g id="edge5" class="edge">
<title>Node2&#45;&gt;Node5</title>
<path fill="none" stroke="midnightblue" d="M164.22,-117.98C140.35,-107.9 100.42,-91.05 73.05,-79.5"/>
<polygon fill="midnightblue" stroke="midnightblue" points="74.16,-76.17 63.59,-75.51 71.44,-82.62 74.16,-76.17"/>
</g>
<!-- Node6 -->
<g id="node6" class="node">
<title>Node6</title>
<g id="a_node6"><a xlink:title=" ">
<polygon fill="none" stroke="#bfbfbf" points="260.92,-56.5 260.92,-75.5 313.92,-75.5 313.92,-56.5 260.92,-56.5"/>
<text text-anchor="middle" x="287.42" y="-63.5" font-family="Helvetica,sans-Serif" font-size="10.00">iterator</text>
</a>
</g>
</g>
<!-- Node2&#45;&gt;Node6 -->
<g id="edge6" class="edge">
<title>Node2&#45;&gt;Node6</title>
<path fill="none" stroke="midnightblue" d="M199.18,-117.98C216.09,-108.21 244.01,-92.08 263.92,-80.58"/>
<polygon fill="midnightblue" stroke="midnightblue" points="265.79,-83.54 272.69,-75.51 262.29,-77.48 265.79,-83.54"/>
</g>
<!-- Node7 -->
<g id="node7" class="node">
<title>Node7</title>
<g id="a_node7"><a xlink:title=" ">
<polygon fill="none" stroke="#bfbfbf" points="331.92,-56.5 331.92,-75.5 396.92,-75.5 396.92,-56.5 331.92,-56.5"/>
<text text-anchor="middle" x="364.42" y="-63.5" font-family="Helvetica,sans-Serif" font-size="10.00">stdexcept</text>
</a>
</g>
</g>
<!-- Node2&#45;&gt;Node7 -->
<g id="edge7" class="edge">
<title>Node2&#45;&gt;Node7</title>
<path fill="none" stroke="midnightblue" d="M210.21,-117.98C241.36,-107.68 293.91,-90.31 328.88,-78.75"/>
<polygon fill="midnightblue" stroke="midnightblue" points="330.29,-81.97 338.68,-75.51 328.09,-75.32 330.29,-81.97"/>
</g>
<!-- Node2&#45;&gt;Node8 -->
<g id="edge8" class="edge">
<title>Node2&#45;&gt;Node8</title>
<path fill="none" stroke="midnightblue" d="M217.23,-117.94C225.14,-115.94 233.57,-113.85 241.42,-112 271.94,-104.82 353.39,-87.39 404.84,-76.45"/>
<polygon fill="midnightblue" stroke="midnightblue" points="405.65,-79.85 414.71,-74.35 404.2,-73.01 405.65,-79.85"/>
</g>
<!-- Node3&#45;&gt;Node4 -->
<g id="edge3" class="edge">
<title>Node3&#45;&gt;Node4</title>
<path fill="none" stroke="midnightblue" d="M170.61,-56.32C157.19,-47.9 136.6,-34.97 120.84,-25.07"/>
<polygon fill="midnightblue" stroke="midnightblue" points="122.54,-22.01 112.21,-19.65 118.82,-27.94 122.54,-22.01"/>
</g>
</g>
</svg>
        <g id="navigator" transform="translate(0 0)" fill="#404254">
                <rect fill="#f2f5e9" fill-opacity="0.5" stroke="#606060" stroke-width=".5" x="0" y="0" width="60" height="60"/>
                <use id="zoomplus" xlink:href="#zoomPlus" x="17" y="9" onmousedown="handleZoom(evt,'in')"/>
                <use id="zoomminus" xlink:href="#zoomMin" x="42" y="9" onmousedown="handleZoom(evt,'out')"/>
                <use id="reset" xlink:href="#resetDef" x="30" y="36" onmousedown="handleReset()"/>
                <g id="arrowUp" xlink:href="#dirArrow" transform="translate(30 24)" onmousedown="handlePan(0,-1)">
                  <use xlink:href="#rim" fill="#404040">
                        <set attributeName="fill" to="#808080" begin="arrowUp.mouseover" end="arrowUp.mouseout"/>
                  </use>
                  <path fill="none" stroke="white" stroke-width="1.5" d="M0,-3.0v7 M-2.5,-0.5L0,-3.0L2.5,-0.5"/>
                </g>
                <g id="arrowRight" xlink:href="#dirArrow" transform="rotate(90) translate(36 -43)" onmousedown="handlePan(1,0)">
                  <use xlink:href="#rim" fill="#404040">
                        <set attributeName="fill" to="#808080" begin="arrowRight.mouseover" end="arrowRight.mouseout"/>
                  </use>
                  <path fill="none" stroke="white" stroke-width="1.5" d="M0,-3.0v7 M-2.5,-0.5L0,-3.0L2.5,-0.5"/>
                </g>
                <g id="arrowDown" xlink:href="#dirArrow" transform="rotate(180) translate(-30 -48)" onmousedown="handlePan(0,1)">
                  <use xlink:href="#rim" fill="#404040">
                        <set attributeName="fill" to="#808080" begin="arrowDown.mouseover" end="arrowDown.mouseout"/>
                  </use>
                  <path fill="none" stroke="white" stroke-width="1.5" d="M0,-3.0v7 M-2.5,-0.5L0,-3.0L2.5,-0.5"/>
                </g>
                <g id="arrowLeft" xlink:href="#dirArrow" transform="rotate(270) translate(-36 17)" onmousedown="handlePan(-1,0)">
                  <use xlink:href="#rim" fill="#404040">
                        <set attributeName="fill" to="#808080" begin="arrowLeft.mouseover" end="arrowLeft.mouseout"/>
                  </use>
                  <path fill="none" stroke="white" stroke-width="1.5" d="M0,-3.0v7 M-2.5,-0.5L0,-3.0L2.5,-0.5"/>
                </g>
        </g>
        <svg viewBox="0 0 15 15" width="100%" height="30px" preserveAspectRatio="xMaxYMin meet">
         <g id="arrow_out" transform="scale(0.3 0.3)">
          <a xlink:href="BondList_8hpp__incl_org.svg" target="_base">
           <rect id="button" ry="5" rx="5" y="6" x="6" height="38" width="38"
                fill="#f2f5e9" fill-opacity="0.5" stroke="#606060" stroke-width="1.0"/>
           <path id="arrow"
             d="M 11.500037,31.436501 C 11.940474,20.09759 22.043105,11.32322 32.158766,21.979434 L 37.068811,17.246167 C 37.068811,17.246167 37.088388,32 37.088388,32 L 22.160133,31.978069 C 22.160133,31.978069 26.997745,27.140456 26.997745,27.140456 C 18.528582,18.264221 13.291696,25.230495 11.500037,31.436501 z"
             style="fill:#404040;"/>
          </a>
         </g>
        </svg>
</svg>
