<?xml version="1.0" encoding="UTF-8" standalone="no"?>
<!DOCTYPE svg PUBLIC "-//W3C//DTD SVG 1.1//EN"
 "http://www.w3.org/Graphics/SVG/1.1/DTD/svg11.dtd">
<!-- Generated by graphviz version 2.43.0 (0)
 -->
<!-- Title: BoxGeometry.hpp Pages: 1 -->
<svg width="1264pt" height="274pt"
 viewBox="0.00 0.00 1264.40 274.00" xmlns="http://www.w3.org/2000/svg" xmlns:xlink="http://www.w3.org/1999/xlink">
<g id="graph0" class="graph" transform="scale(1 1) rotate(0) translate(4 270)">
<title>BoxGeometry.hpp</title>
<!-- Node1 -->
<g id="node1" class="node">
<title>Node1</title>
<g id="a_node1"><a xlink:title=" ">
<polygon fill="#bfbfbf" stroke="black" points="1013.4,-246.5 1013.4,-265.5 1117.4,-265.5 1117.4,-246.5 1013.4,-246.5"/>
<text text-anchor="middle" x="1065.4" y="-253.5" font-family="Helvetica,sans-Serif" font-size="10.00">BoxGeometry.hpp</text>
</a>
</g>
</g>
<!-- Node2 -->
<g id="node2" class="node">
<title>Node2</title>
<g id="a_node2"><a xlink:href="periodic__fold_8hpp.html" target="_top" xlink:title=" ">
<polygon fill="none" stroke="black" points="1012.4,-179.5 1012.4,-209.5 1118.4,-209.5 1118.4,-179.5 1012.4,-179.5"/>
<text text-anchor="start" x="1020.4" y="-197.5" font-family="Helvetica,sans-Serif" font-size="10.00">algorithm/periodic</text>
<text text-anchor="middle" x="1065.4" y="-186.5" font-family="Helvetica,sans-Serif" font-size="10.00">_fold.hpp</text>
</a>
</g>
</g>
<!-- Node1&#45;&gt;Node2 -->
<g id="edge1" class="edge">
<title>Node1&#45;&gt;Node2</title>
<path fill="none" stroke="midnightblue" d="M1065.4,-246.48C1065.4,-239.47 1065.4,-229.19 1065.4,-219.7"/>
<polygon fill="midnightblue" stroke="midnightblue" points="1068.9,-219.52 1065.4,-209.52 1061.9,-219.52 1068.9,-219.52"/>
</g>
<!-- Node3 -->
<g id="node3" class="node">
<title>Node3</title>
<g id="a_node3"><a xlink:title=" ">
<polygon fill="none" stroke="#bfbfbf" points="1037.9,-123.5 1037.9,-142.5 1084.9,-142.5 1084.9,-123.5 1037.9,-123.5"/>
<text text-anchor="middle" x="1061.4" y="-130.5" font-family="Helvetica,sans-Serif" font-size="10.00">cmath</text>
</a>
</g>
</g>
<!-- Node1&#45;&gt;Node3 -->
<g id="edge32" class="edge">
<title>Node1&#45;&gt;Node3</title>
<path fill="none" stroke="midnightblue" d="M1045.18,-246.49C1030.63,-239.17 1012.1,-227.06 1003.4,-210 997.14,-197.73 997.34,-191.37 1003.4,-179 1009.93,-165.68 1022.5,-155.18 1034.28,-147.68"/>
<polygon fill="midnightblue" stroke="midnightblue" points="1036.17,-150.62 1043.01,-142.53 1032.62,-144.59 1036.17,-150.62"/>
</g>
<!-- Node4 -->
<g id="node4" class="node">
<title>Node4</title>
<g id="a_node4"><a xlink:title=" ">
<polygon fill="none" stroke="#bfbfbf" points="1103.4,-123.5 1103.4,-142.5 1147.4,-142.5 1147.4,-123.5 1103.4,-123.5"/>
<text text-anchor="middle" x="1125.4" y="-130.5" font-family="Helvetica,sans-Serif" font-size="10.00">limits</text>
</a>
</g>
</g>
<!-- Node1&#45;&gt;Node4 -->
<g id="edge33" class="edge">
<title>Node1&#45;&gt;Node4</title>
<path fill="none" stroke="midnightblue" d="M1085.63,-246.49C1100.17,-239.17 1118.7,-227.06 1127.4,-210 1136.56,-192.04 1134.08,-168.45 1130.59,-152.35"/>
<polygon fill="midnightblue" stroke="midnightblue" points="1133.96,-151.41 1128.14,-142.56 1127.17,-153.11 1133.96,-151.41"/>
</g>
<!-- Node5 -->
<g id="node5" class="node">
<title>Node5</title>
<g id="a_node5"><a xlink:title=" ">
<polygon fill="none" stroke="#bfbfbf" points="1165.9,-123.5 1165.9,-142.5 1210.9,-142.5 1210.9,-123.5 1165.9,-123.5"/>
<text text-anchor="middle" x="1188.4" y="-130.5" font-family="Helvetica,sans-Serif" font-size="10.00">utility</text>
</a>
</g>
</g>
<!-- Node1&#45;&gt;Node5 -->
<g id="edge34" class="edge">
<title>Node1&#45;&gt;Node5</title>
<path fill="none" stroke="midnightblue" d="M1087.54,-246.47C1104.9,-238.93 1128.82,-226.54 1145.4,-210 1161.96,-193.49 1174.17,-169.29 1181.27,-152.66"/>
<polygon fill="midnightblue" stroke="midnightblue" points="1184.68,-153.56 1185.18,-142.98 1178.19,-150.93 1184.68,-153.56"/>
</g>
<!-- Node6 -->
<g id="node6" class="node">
<title>Node6</title>
<g id="a_node6"><a xlink:href="Vector_8hpp.html" target="_top" xlink:title=" ">
<polygon fill="none" stroke="black" points="602.9,-185 602.9,-204 695.9,-204 695.9,-185 602.9,-185"/>
<text text-anchor="middle" x="649.4" y="-192" font-family="Helvetica,sans-Serif" font-size="10.00">utils/Vector.hpp</text>
</a>
</g>
</g>
<!-- Node1&#45;&gt;Node6 -->
<g id="edge5" class="edge">
<title>Node1&#45;&gt;Node6</title>
<path fill="none" stroke="midnightblue" d="M1013.14,-247.52C934.66,-236.3 786.98,-215.18 706.03,-203.6"/>
<polygon fill="midnightblue" stroke="midnightblue" points="706.41,-200.12 696.02,-202.17 705.42,-207.05 706.41,-200.12"/>
</g>
<!-- Node11 -->
<g id="node11" class="node">
<title>Node11</title>
<g id="a_node11"><a xlink:title=" ">
<polygon fill="none" stroke="#bfbfbf" points="27.4,-0.5 27.4,-19.5 79.4,-19.5 79.4,-0.5 27.4,-0.5"/>
<text text-anchor="middle" x="53.4" y="-7.5" font-family="Helvetica,sans-Serif" font-size="10.00">cassert</text>
</a>
</g>
</g>
<!-- Node1&#45;&gt;Node11 -->
<g id="edge31" class="edge">
<title>Node1&#45;&gt;Node11</title>
<path fill="none" stroke="midnightblue" d="M1013.27,-253.46C810.54,-246.92 82.51,-218.33 15.4,-143 -10.32,-114.13 2.12,-92.31 15.4,-56 19.46,-44.91 27.59,-34.67 35.29,-26.76"/>
<polygon fill="midnightblue" stroke="midnightblue" points="37.88,-29.14 42.69,-19.7 33.04,-24.07 37.88,-29.14"/>
</g>
<!-- Node25 -->
<g id="node25" class="node">
<title>Node25</title>
<g id="a_node25"><a xlink:title=" ">
<polygon fill="none" stroke="#bfbfbf" points="1212.4,-185 1212.4,-204 1256.4,-204 1256.4,-185 1212.4,-185"/>
<text text-anchor="middle" x="1234.4" y="-192" font-family="Helvetica,sans-Serif" font-size="10.00">bitset</text>
</a>
</g>
</g>
<!-- Node1&#45;&gt;Node25 -->
<g id="edge30" class="edge">
<title>Node1&#45;&gt;Node25</title>
<path fill="none" stroke="midnightblue" d="M1092.05,-246.47C1119.02,-237.73 1161.83,-223.54 1198.4,-210 1200.25,-209.32 1202.15,-208.6 1204.06,-207.86"/>
<polygon fill="midnightblue" stroke="midnightblue" points="1205.51,-211.05 1213.54,-204.14 1202.95,-204.54 1205.51,-211.05"/>
</g>
<!-- Node2&#45;&gt;Node3 -->
<g id="edge2" class="edge">
<title>Node2&#45;&gt;Node3</title>
<path fill="none" stroke="midnightblue" d="M1064.45,-179.4C1063.92,-171.47 1063.25,-161.46 1062.67,-152.86"/>
<polygon fill="midnightblue" stroke="midnightblue" points="1066.15,-152.4 1061.98,-142.66 1059.16,-152.87 1066.15,-152.4"/>
</g>
<!-- Node2&#45;&gt;Node4 -->
<g id="edge3" class="edge">
<title>Node2&#45;&gt;Node4</title>
<path fill="none" stroke="midnightblue" d="M1079.62,-179.4C1088.61,-170.49 1100.24,-158.95 1109.53,-149.74"/>
<polygon fill="midnightblue" stroke="midnightblue" points="1112.04,-152.18 1116.67,-142.66 1107.11,-147.21 1112.04,-152.18"/>
</g>
<!-- Node2&#45;&gt;Node5 -->
<g id="edge4" class="edge">
<title>Node2&#45;&gt;Node5</title>
<path fill="none" stroke="midnightblue" d="M1094.55,-179.4C1114.82,-169.59 1141.64,-156.62 1161.42,-147.05"/>
<polygon fill="midnightblue" stroke="midnightblue" points="1163.03,-150.16 1170.51,-142.66 1159.98,-143.86 1163.03,-150.16"/>
</g>
<!-- Node6&#45;&gt;Node3 -->
<g id="edge22" class="edge">
<title>Node6&#45;&gt;Node3</title>
<path fill="none" stroke="midnightblue" d="M696.12,-189.31C766.1,-182.58 902.39,-167.77 1027.56,-142.91"/>
<polygon fill="midnightblue" stroke="midnightblue" points="1028.59,-146.28 1037.7,-140.87 1027.21,-139.41 1028.59,-146.28"/>
</g>
<!-- Node7 -->
<g id="node7" class="node">
<title>Node7</title>
<g id="a_node7"><a xlink:title=" ">
<polygon fill="none" stroke="#bfbfbf" points="190.4,-123.5 190.4,-142.5 340.4,-142.5 340.4,-123.5 190.4,-123.5"/>
<text text-anchor="middle" x="265.4" y="-130.5" font-family="Helvetica,sans-Serif" font-size="10.00">boost/qvm/deduce_vec.hpp</text>
</a>
</g>
</g>
<!-- Node6&#45;&gt;Node7 -->
<g id="edge6" class="edge">
<title>Node6&#45;&gt;Node7</title>
<path fill="none" stroke="midnightblue" d="M602.7,-186.26C534.6,-175.71 407.78,-156.06 330.54,-144.09"/>
<polygon fill="midnightblue" stroke="midnightblue" points="330.86,-140.6 320.44,-142.53 329.79,-147.52 330.86,-140.6"/>
</g>
<!-- Node8 -->
<g id="node8" class="node">
<title>Node8</title>
<g id="a_node8"><a xlink:title=" ">
<polygon fill="none" stroke="#bfbfbf" points="358.4,-123.5 358.4,-142.5 498.4,-142.5 498.4,-123.5 358.4,-123.5"/>
<text text-anchor="middle" x="428.4" y="-130.5" font-family="Helvetica,sans-Serif" font-size="10.00">boost/qvm/vec_traits.hpp</text>
</a>
</g>
</g>
<!-- Node6&#45;&gt;Node8 -->
<g id="edge7" class="edge">
<title>Node6&#45;&gt;Node8</title>
<path fill="none" stroke="midnightblue" d="M617.74,-184.98C578.84,-174.5 512.76,-156.71 469.85,-145.16"/>
<polygon fill="midnightblue" stroke="midnightblue" points="470.57,-141.73 460.01,-142.51 468.75,-148.49 470.57,-141.73"/>
</g>
<!-- Node9 -->
<g id="node9" class="node">
<title>Node9</title>
<g id="a_node9"><a xlink:href="Array_8hpp.html" target="_top" xlink:title=" ">
<polygon fill="none" stroke="black" points="516.4,-123.5 516.4,-142.5 602.4,-142.5 602.4,-123.5 516.4,-123.5"/>
<text text-anchor="middle" x="559.4" y="-130.5" font-family="Helvetica,sans-Serif" font-size="10.00">utils/Array.hpp</text>
</a>
</g>
</g>
<!-- Node6&#45;&gt;Node9 -->
<g id="edge8" class="edge">
<title>Node6&#45;&gt;Node9</title>
<path fill="none" stroke="midnightblue" d="M636.51,-184.98C621.94,-175.34 598,-159.52 580.66,-148.05"/>
<polygon fill="midnightblue" stroke="midnightblue" points="582.55,-145.1 572.27,-142.51 578.69,-150.94 582.55,-145.1"/>
</g>
<!-- Node6&#45;&gt;Node11 -->
<g id="edge21" class="edge">
<title>Node6&#45;&gt;Node11</title>
<path fill="none" stroke="midnightblue" d="M602.73,-193.25C465.11,-192.05 68.06,-184.93 29.4,-143 0.17,-111.29 25.78,-56.39 42.19,-28.44"/>
<polygon fill="midnightblue" stroke="midnightblue" points="45.27,-30.12 47.51,-19.76 39.3,-26.46 45.27,-30.12"/>
</g>
<!-- Node13 -->
<g id="node13" class="node">
<title>Node13</title>
<g id="a_node13"><a xlink:title=" ">
<polygon fill="none" stroke="#bfbfbf" points="470.9,-0.5 470.9,-19.5 523.9,-19.5 523.9,-0.5 470.9,-0.5"/>
<text text-anchor="middle" x="497.4" y="-7.5" font-family="Helvetica,sans-Serif" font-size="10.00">cstddef</text>
</a>
</g>
</g>
<!-- Node6&#45;&gt;Node13 -->
<g id="edge23" class="edge">
<title>Node6&#45;&gt;Node13</title>
<path fill="none" stroke="midnightblue" d="M654.09,-184.99C666.25,-161.64 695.84,-95.66 665.4,-56 649.53,-35.32 578.65,-22.07 534.18,-15.63"/>
<polygon fill="midnightblue" stroke="midnightblue" points="534.42,-12.13 524.04,-14.21 533.46,-19.06 534.42,-12.13"/>
</g>
<!-- Node16 -->
<g id="node16" class="node">
<title>Node16</title>
<g id="a_node16"><a xlink:title=" ">
<polygon fill="none" stroke="#bfbfbf" points="603.9,-62 603.9,-81 656.9,-81 656.9,-62 603.9,-62"/>
<text text-anchor="middle" x="630.4" y="-69" font-family="Helvetica,sans-Serif" font-size="10.00">iterator</text>
</a>
</g>
</g>
<!-- Node6&#45;&gt;Node16 -->
<g id="edge26" class="edge">
<title>Node6&#45;&gt;Node16</title>
<path fill="none" stroke="midnightblue" d="M648.04,-184.8C644.97,-165.26 637.48,-117.56 633.32,-91.05"/>
<polygon fill="midnightblue" stroke="midnightblue" points="636.77,-90.46 631.76,-81.12 629.85,-91.55 636.77,-90.46"/>
</g>
<!-- Node19 -->
<g id="node19" class="node">
<title>Node19</title>
<g id="a_node19"><a xlink:title=" ">
<polygon fill="none" stroke="#bfbfbf" points="696.4,-123.5 696.4,-142.5 760.4,-142.5 760.4,-123.5 696.4,-123.5"/>
<text text-anchor="middle" x="728.4" y="-130.5" font-family="Helvetica,sans-Serif" font-size="10.00">algorithm</text>
</a>
</g>
</g>
<!-- Node6&#45;&gt;Node19 -->
<g id="edge20" class="edge">
<title>Node6&#45;&gt;Node19</title>
<path fill="none" stroke="midnightblue" d="M660.72,-184.98C673.28,-175.52 693.75,-160.1 708.9,-148.69"/>
<polygon fill="midnightblue" stroke="midnightblue" points="711.22,-151.32 717.1,-142.51 707.01,-145.73 711.22,-151.32"/>
</g>
<!-- Node20 -->
<g id="node20" class="node">
<title>Node20</title>
<g id="a_node20"><a xlink:title=" ">
<polygon fill="none" stroke="#bfbfbf" points="778.9,-123.5 778.9,-142.5 843.9,-142.5 843.9,-123.5 778.9,-123.5"/>
<text text-anchor="middle" x="811.4" y="-130.5" font-family="Helvetica,sans-Serif" font-size="10.00">functional</text>
</a>
</g>
</g>
<!-- Node6&#45;&gt;Node20 -->
<g id="edge24" class="edge">
<title>Node6&#45;&gt;Node20</title>
<path fill="none" stroke="midnightblue" d="M672.61,-184.98C700.4,-174.77 747.13,-157.61 778.6,-146.05"/>
<polygon fill="midnightblue" stroke="midnightblue" points="780.05,-149.24 788.24,-142.51 777.64,-142.67 780.05,-149.24"/>
</g>
<!-- Node21 -->
<g id="node21" class="node">
<title>Node21</title>
<g id="a_node21"><a xlink:title=" ">
<polygon fill="none" stroke="#bfbfbf" points="861.9,-123.5 861.9,-142.5 944.9,-142.5 944.9,-123.5 861.9,-123.5"/>
<text text-anchor="middle" x="903.4" y="-130.5" font-family="Helvetica,sans-Serif" font-size="10.00">initializer_list</text>
</a>
</g>
</g>
<!-- Node6&#45;&gt;Node21 -->
<g id="edge25" class="edge">
<title>Node6&#45;&gt;Node21</title>
<path fill="none" stroke="midnightblue" d="M685.79,-184.98C730.97,-174.39 808.05,-156.34 857.31,-144.8"/>
<polygon fill="midnightblue" stroke="midnightblue" points="858.14,-148.2 867.08,-142.51 856.54,-141.38 858.14,-148.2"/>
</g>
<!-- Node22 -->
<g id="node22" class="node">
<title>Node22</title>
<g id="a_node22"><a xlink:title=" ">
<polygon fill="none" stroke="#bfbfbf" points="963.4,-123.5 963.4,-142.5 1019.4,-142.5 1019.4,-123.5 963.4,-123.5"/>
<text text-anchor="middle" x="991.4" y="-130.5" font-family="Helvetica,sans-Serif" font-size="10.00">numeric</text>
</a>
</g>
</g>
<!-- Node6&#45;&gt;Node22 -->
<g id="edge27" class="edge">
<title>Node6&#45;&gt;Node22</title>
<path fill="none" stroke="midnightblue" d="M695.93,-186.78C755.73,-177.9 862.66,-161.26 953.4,-143 953.5,-142.98 953.6,-142.96 953.7,-142.94"/>
<polygon fill="midnightblue" stroke="midnightblue" points="954.18,-146.42 963.23,-140.9 952.72,-139.57 954.18,-146.42"/>
</g>
<!-- Node23 -->
<g id="node23" class="node">
<title>Node23</title>
<g id="a_node23"><a xlink:title=" ">
<polygon fill="none" stroke="#bfbfbf" points="38.9,-123.5 38.9,-142.5 107.9,-142.5 107.9,-123.5 38.9,-123.5"/>
<text text-anchor="middle" x="73.4" y="-130.5" font-family="Helvetica,sans-Serif" font-size="10.00">type_traits</text>
</a>
</g>
</g>
<!-- Node6&#45;&gt;Node23 -->
<g id="edge28" class="edge">
<title>Node6&#45;&gt;Node23</title>
<path fill="none" stroke="midnightblue" d="M602.85,-190.85C511.59,-185.27 302.66,-170.61 117.97,-143.09"/>
<polygon fill="midnightblue" stroke="midnightblue" points="118.49,-139.63 108.08,-141.6 117.44,-146.56 118.49,-139.63"/>
</g>
<!-- Node24 -->
<g id="node24" class="node">
<title>Node24</title>
<g id="a_node24"><a xlink:title=" ">
<polygon fill="none" stroke="#bfbfbf" points="125.9,-123.5 125.9,-142.5 172.9,-142.5 172.9,-123.5 125.9,-123.5"/>
<text text-anchor="middle" x="149.4" y="-130.5" font-family="Helvetica,sans-Serif" font-size="10.00">vector</text>
</a>
</g>
</g>
<!-- Node6&#45;&gt;Node24 -->
<g id="edge29" class="edge">
<title>Node6&#45;&gt;Node24</title>
<path fill="none" stroke="midnightblue" d="M602.86,-191.05C520.02,-186.14 341.57,-173.04 183,-143.04"/>
<polygon fill="midnightblue" stroke="midnightblue" points="183.54,-139.58 173.06,-141.13 182.22,-146.45 183.54,-139.58"/>
</g>
<!-- Node10 -->
<g id="node10" class="node">
<title>Node10</title>
<g id="a_node10"><a xlink:href="device__qualifier_8hpp.html" target="_top" xlink:title=" ">
<polygon fill="none" stroke="black" points="38.4,-62 38.4,-81 154.4,-81 154.4,-62 38.4,-62"/>
<text text-anchor="middle" x="96.4" y="-69" font-family="Helvetica,sans-Serif" font-size="10.00">device_qualifier.hpp</text>
</a>
</g>
</g>
<!-- Node9&#45;&gt;Node10 -->
<g id="edge9" class="edge">
<title>Node9&#45;&gt;Node10</title>
<path fill="none" stroke="midnightblue" d="M516.31,-124.32C513.3,-123.85 510.31,-123.41 507.4,-123 357.34,-102.07 318.16,-109.98 168.4,-87 160.95,-85.86 153.11,-84.47 145.44,-83.01"/>
<polygon fill="midnightblue" stroke="midnightblue" points="146.01,-79.55 135.52,-81.07 144.66,-86.42 146.01,-79.55"/>
</g>
<!-- Node9&#45;&gt;Node11 -->
<g id="edge15" class="edge">
<title>Node9&#45;&gt;Node11</title>
<path fill="none" stroke="midnightblue" d="M516.3,-124.35C513.29,-123.88 510.3,-123.42 507.4,-123 371.89,-103.32 327.49,-140.41 201.4,-87 181.33,-78.5 182.14,-67.14 163.4,-56 140.02,-42.1 111.56,-30.59 89.44,-22.68"/>
<polygon fill="midnightblue" stroke="midnightblue" points="90.36,-19.3 79.77,-19.31 88.06,-25.91 90.36,-19.3"/>
</g>
<!-- Node12 -->
<g id="node12" class="node">
<title>Node12</title>
<g id="a_node12"><a xlink:href="get_8hpp.html" target="_top" xlink:title=" ">
<polygon fill="none" stroke="black" points="410.9,-62 410.9,-81 463.9,-81 463.9,-62 410.9,-62"/>
<text text-anchor="middle" x="437.4" y="-69" font-family="Helvetica,sans-Serif" font-size="10.00">get.hpp</text>
</a>
</g>
</g>
<!-- Node9&#45;&gt;Node12 -->
<g id="edge11" class="edge">
<title>Node9&#45;&gt;Node12</title>
<path fill="none" stroke="midnightblue" d="M541.92,-123.48C521.54,-113.53 487.63,-96.99 463.98,-85.46"/>
<polygon fill="midnightblue" stroke="midnightblue" points="465.37,-82.25 454.85,-81.01 462.3,-88.54 465.37,-82.25"/>
</g>
<!-- Node9&#45;&gt;Node13 -->
<g id="edge16" class="edge">
<title>Node9&#45;&gt;Node13</title>
<path fill="none" stroke="midnightblue" d="M546.19,-123.3C535.09,-115.25 519.73,-102.24 511.4,-87 501.67,-69.19 498.55,-45.89 497.63,-29.81"/>
<polygon fill="midnightblue" stroke="midnightblue" points="501.12,-29.43 497.28,-19.55 494.12,-29.67 501.12,-29.43"/>
</g>
<!-- Node15 -->
<g id="node15" class="node">
<title>Node15</title>
<g id="a_node15"><a xlink:title=" ">
<polygon fill="none" stroke="#bfbfbf" points="210.9,-56.5 210.9,-86.5 317.9,-86.5 317.9,-56.5 210.9,-56.5"/>
<text text-anchor="start" x="218.9" y="-74.5" font-family="Helvetica,sans-Serif" font-size="10.00">boost/serialization</text>
<text text-anchor="middle" x="264.4" y="-63.5" font-family="Helvetica,sans-Serif" font-size="10.00">/access.hpp</text>
</a>
</g>
</g>
<!-- Node9&#45;&gt;Node15 -->
<g id="edge14" class="edge">
<title>Node9&#45;&gt;Node15</title>
<path fill="none" stroke="midnightblue" d="M516.36,-124.21C471.62,-115.99 399.34,-102.39 328.17,-87.34"/>
<polygon fill="midnightblue" stroke="midnightblue" points="328.65,-83.86 318.14,-85.2 327.2,-90.71 328.65,-83.86"/>
</g>
<!-- Node9&#45;&gt;Node16 -->
<g id="edge17" class="edge">
<title>Node9&#45;&gt;Node16</title>
<path fill="none" stroke="midnightblue" d="M569.58,-123.48C580.75,-114.11 598.92,-98.88 612.49,-87.51"/>
<polygon fill="midnightblue" stroke="midnightblue" points="614.83,-90.11 620.25,-81.01 610.34,-84.75 614.83,-90.11"/>
</g>
<!-- Node17 -->
<g id="node17" class="node">
<title>Node17</title>
<g id="a_node17"><a xlink:title=" ">
<polygon fill="none" stroke="#bfbfbf" points="335.9,-62 335.9,-81 392.9,-81 392.9,-62 335.9,-62"/>
<text text-anchor="middle" x="364.4" y="-69" font-family="Helvetica,sans-Serif" font-size="10.00">ostream</text>
</a>
</g>
</g>
<!-- Node9&#45;&gt;Node17 -->
<g id="edge18" class="edge">
<title>Node9&#45;&gt;Node17</title>
<path fill="none" stroke="midnightblue" d="M525.83,-123.44C493.64,-115 443.83,-101.32 401.4,-87 399.28,-86.28 397.1,-85.51 394.91,-84.72"/>
<polygon fill="midnightblue" stroke="midnightblue" points="396,-81.39 385.41,-81.13 393.53,-87.94 396,-81.39"/>
</g>
<!-- Node18 -->
<g id="node18" class="node">
<title>Node18</title>
<g id="a_node18"><a xlink:title=" ">
<polygon fill="none" stroke="#bfbfbf" points="520.9,-62 520.9,-81 585.9,-81 585.9,-62 520.9,-62"/>
<text text-anchor="middle" x="553.4" y="-69" font-family="Helvetica,sans-Serif" font-size="10.00">stdexcept</text>
</a>
</g>
</g>
<!-- Node9&#45;&gt;Node18 -->
<g id="edge19" class="edge">
<title>Node9&#45;&gt;Node18</title>
<path fill="none" stroke="midnightblue" d="M558.54,-123.48C557.7,-115.08 556.38,-101.98 555.28,-91.16"/>
<polygon fill="midnightblue" stroke="midnightblue" points="558.75,-90.61 554.26,-81.01 551.78,-91.31 558.75,-90.61"/>
</g>
<!-- Node10&#45;&gt;Node11 -->
<g id="edge10" class="edge">
<title>Node10&#45;&gt;Node11</title>
<path fill="none" stroke="midnightblue" d="M90.24,-61.98C83.79,-53.05 73.5,-38.81 65.43,-27.64"/>
<polygon fill="midnightblue" stroke="midnightblue" points="68.25,-25.56 59.55,-19.51 62.57,-29.66 68.25,-25.56"/>
</g>
<!-- Node12&#45;&gt;Node13 -->
<g id="edge12" class="edge">
<title>Node12&#45;&gt;Node13</title>
<path fill="none" stroke="midnightblue" d="M446,-61.98C455.27,-52.78 470.22,-37.96 481.62,-26.66"/>
<polygon fill="midnightblue" stroke="midnightblue" points="484.19,-29.04 488.82,-19.51 479.26,-24.07 484.19,-29.04"/>
</g>
<!-- Node14 -->
<g id="node14" class="node">
<title>Node14</title>
<g id="a_node14"><a xlink:title=" ">
<polygon fill="none" stroke="#bfbfbf" points="411.9,-0.5 411.9,-19.5 452.9,-19.5 452.9,-0.5 411.9,-0.5"/>
<text text-anchor="middle" x="432.4" y="-7.5" font-family="Helvetica,sans-Serif" font-size="10.00">tuple</text>
</a>
</g>
</g>
<!-- Node12&#45;&gt;Node14 -->
<g id="edge13" class="edge">
<title>Node12&#45;&gt;Node14</title>
<path fill="none" stroke="midnightblue" d="M436.69,-61.98C435.98,-53.58 434.88,-40.48 433.97,-29.66"/>
<polygon fill="midnightblue" stroke="midnightblue" points="437.44,-29.18 433.12,-19.51 430.47,-29.77 437.44,-29.18"/>
</g>
</g>
</svg>
