<?xml version="1.0" encoding="UTF-8" standalone="no"?>
<!DOCTYPE svg PUBLIC "-//W3C//DTD SVG 1.1//EN"
 "http://www.w3.org/Graphics/SVG/1.1/DTD/svg11.dtd">
<!-- Generated by graphviz version 2.43.0 (0)
 -->
<!-- Title: bspline_3d_gradient.hpp Pages: 1 -->
<svg width="2858pt" height="375pt"
 viewBox="0.00 0.00 2857.50 375.00" xmlns="http://www.w3.org/2000/svg" xmlns:xlink="http://www.w3.org/1999/xlink">
<g id="graph0" class="graph" transform="scale(1 1) rotate(0) translate(4 371)">
<title>bspline_3d_gradient.hpp</title>
<!-- Node1 -->
<g id="node1" class="node">
<title>Node1</title>
<g id="a_node1"><a xlink:title=" ">
<polygon fill="#bfbfbf" stroke="black" points="177,-347.5 177,-366.5 313,-366.5 313,-347.5 177,-347.5"/>
<text text-anchor="middle" x="245" y="-354.5" font-family="Helvetica,sans-Serif" font-size="10.00">bspline_3d_gradient.hpp</text>
</a>
</g>
</g>
<!-- Node2 -->
<g id="node2" class="node">
<title>Node2</title>
<g id="a_node2"><a xlink:href="Vector_8hpp.html" target="_top" xlink:title=" ">
<polygon fill="none" stroke="black" points="265.5,-179.5 265.5,-198.5 358.5,-198.5 358.5,-179.5 265.5,-179.5"/>
<text text-anchor="middle" x="312" y="-186.5" font-family="Helvetica,sans-Serif" font-size="10.00">utils/Vector.hpp</text>
</a>
</g>
</g>
<!-- Node1&#45;&gt;Node2 -->
<g id="edge1" class="edge">
<title>Node1&#45;&gt;Node2</title>
<path fill="none" stroke="midnightblue" d="M248.6,-347.08C259.19,-320.83 290.39,-243.55 304.69,-208.12"/>
<polygon fill="midnightblue" stroke="midnightblue" points="308.04,-209.15 308.54,-198.57 301.55,-206.53 308.04,-209.15"/>
</g>
<!-- Node9 -->
<g id="node9" class="node">
<title>Node9</title>
<g id="a_node9"><a xlink:title=" ">
<polygon fill="none" stroke="#bfbfbf" points="236.5,-0.5 236.5,-19.5 289.5,-19.5 289.5,-0.5 236.5,-0.5"/>
<text text-anchor="middle" x="263" y="-7.5" font-family="Helvetica,sans-Serif" font-size="10.00">cstddef</text>
</a>
</g>
</g>
<!-- Node1&#45;&gt;Node9 -->
<g id="edge68" class="edge">
<title>Node1&#45;&gt;Node9</title>
<path fill="none" stroke="midnightblue" d="M176.75,-353.59C104.26,-346.95 0,-323.86 0,-246 0,-246 0,-246 0,-132 0,-33.56 153.96,-14.92 226.28,-11.6"/>
<polygon fill="midnightblue" stroke="midnightblue" points="226.48,-15.09 236.33,-11.21 226.21,-8.1 226.48,-15.09"/>
</g>
<!-- Node22 -->
<g id="node22" class="node">
<title>Node22</title>
<g id="a_node22"><a xlink:href="ll__and__dist_8hpp.html" target="_top" xlink:title=" ">
<polygon fill="none" stroke="black" points="118.5,-235.5 118.5,-254.5 239.5,-254.5 239.5,-235.5 118.5,-235.5"/>
<text text-anchor="middle" x="179" y="-242.5" font-family="Helvetica,sans-Serif" font-size="10.00">detail/ll_and_dist.hpp</text>
</a>
</g>
</g>
<!-- Node1&#45;&gt;Node22 -->
<g id="edge26" class="edge">
<title>Node1&#45;&gt;Node22</title>
<path fill="none" stroke="midnightblue" d="M239.82,-347.37C228.98,-329.3 203.71,-287.18 189.38,-263.31"/>
<polygon fill="midnightblue" stroke="midnightblue" points="192.3,-261.37 184.15,-254.59 186.3,-264.97 192.3,-261.37"/>
</g>
<!-- Node23 -->
<g id="node23" class="node">
<title>Node23</title>
<g id="a_node23"><a xlink:title=" ">
<polygon fill="none" stroke="#bfbfbf" points="66,-179.5 66,-198.5 108,-198.5 108,-179.5 66,-179.5"/>
<text text-anchor="middle" x="87" y="-186.5" font-family="Helvetica,sans-Serif" font-size="10.00">array</text>
</a>
</g>
</g>
<!-- Node1&#45;&gt;Node23 -->
<g id="edge67" class="edge">
<title>Node1&#45;&gt;Node23</title>
<path fill="none" stroke="midnightblue" d="M227.28,-347.4C198.4,-332.5 141.19,-299.23 109,-255 98.93,-241.17 93.24,-222.4 90.18,-208.59"/>
<polygon fill="midnightblue" stroke="midnightblue" points="93.61,-207.9 88.25,-198.76 86.74,-209.25 93.61,-207.9"/>
</g>
<!-- Node25 -->
<g id="node25" class="node">
<title>Node25</title>
<g id="a_node25"><a xlink:href="bspline_8hpp.html" target="_top" xlink:title=" ">
<polygon fill="none" stroke="black" points="2724.5,-179.5 2724.5,-198.5 2849.5,-198.5 2849.5,-179.5 2724.5,-179.5"/>
<text text-anchor="middle" x="2787" y="-186.5" font-family="Helvetica,sans-Serif" font-size="10.00">utils/math/bspline.hpp</text>
</a>
</g>
</g>
<!-- Node1&#45;&gt;Node25 -->
<g id="edge33" class="edge">
<title>Node1&#45;&gt;Node25</title>
<path fill="none" stroke="midnightblue" d="M313.38,-352.65C547.74,-341.02 1340.15,-300.67 1994,-255 2259.51,-236.45 2574.57,-209 2714.18,-196.56"/>
<polygon fill="midnightblue" stroke="midnightblue" points="2714.68,-200.03 2724.33,-195.65 2714.06,-193.06 2714.68,-200.03"/>
</g>
<!-- Node27 -->
<g id="node27" class="node">
<title>Node27</title>
<g id="a_node27"><a xlink:href="tensor__product_8hpp.html" target="_top" xlink:title=" ">
<polygon fill="none" stroke="black" points="296.5,-291.5 296.5,-310.5 459.5,-310.5 459.5,-291.5 296.5,-291.5"/>
<text text-anchor="middle" x="378" y="-298.5" font-family="Helvetica,sans-Serif" font-size="10.00">utils/math/tensor_product.hpp</text>
</a>
</g>
</g>
<!-- Node1&#45;&gt;Node27 -->
<g id="edge39" class="edge">
<title>Node1&#45;&gt;Node27</title>
<path fill="none" stroke="midnightblue" d="M266.07,-347.44C288.06,-338.52 322.73,-324.44 347.66,-314.32"/>
<polygon fill="midnightblue" stroke="midnightblue" points="349.08,-317.52 357.02,-310.52 346.44,-311.04 349.08,-317.52"/>
</g>
<!-- Node3 -->
<g id="node3" class="node">
<title>Node3</title>
<g id="a_node3"><a xlink:title=" ">
<polygon fill="none" stroke="#bfbfbf" points="729,-123.5 729,-142.5 879,-142.5 879,-123.5 729,-123.5"/>
<text text-anchor="middle" x="804" y="-130.5" font-family="Helvetica,sans-Serif" font-size="10.00">boost/qvm/deduce_vec.hpp</text>
</a>
</g>
</g>
<!-- Node2&#45;&gt;Node3 -->
<g id="edge2" class="edge">
<title>Node2&#45;&gt;Node3</title>
<path fill="none" stroke="midnightblue" d="M358.6,-180.92C363.46,-180.24 368.33,-179.59 373,-179 406.28,-174.81 602.42,-154.61 718.31,-142.75"/>
<polygon fill="midnightblue" stroke="midnightblue" points="718.99,-146.2 728.58,-141.7 718.28,-139.23 718.99,-146.2"/>
</g>
<!-- Node4 -->
<g id="node4" class="node">
<title>Node4</title>
<g id="a_node4"><a xlink:title=" ">
<polygon fill="none" stroke="#bfbfbf" points="533,-123.5 533,-142.5 673,-142.5 673,-123.5 533,-123.5"/>
<text text-anchor="middle" x="603" y="-130.5" font-family="Helvetica,sans-Serif" font-size="10.00">boost/qvm/vec_traits.hpp</text>
</a>
</g>
</g>
<!-- Node2&#45;&gt;Node4 -->
<g id="edge3" class="edge">
<title>Node2&#45;&gt;Node4</title>
<path fill="none" stroke="midnightblue" d="M358.11,-179.44C409.41,-169.92 492.27,-154.55 547.19,-144.36"/>
<polygon fill="midnightblue" stroke="midnightblue" points="547.91,-147.78 557.11,-142.52 546.64,-140.9 547.91,-147.78"/>
</g>
<!-- Node5 -->
<g id="node5" class="node">
<title>Node5</title>
<g id="a_node5"><a xlink:href="Array_8hpp.html" target="_top" xlink:title=" ">
<polygon fill="none" stroke="black" points="1589,-123.5 1589,-142.5 1675,-142.5 1675,-123.5 1589,-123.5"/>
<text text-anchor="middle" x="1632" y="-130.5" font-family="Helvetica,sans-Serif" font-size="10.00">utils/Array.hpp</text>
</a>
</g>
</g>
<!-- Node2&#45;&gt;Node5 -->
<g id="edge4" class="edge">
<title>Node2&#45;&gt;Node5</title>
<path fill="none" stroke="midnightblue" d="M358.55,-183.25C375.09,-181.7 393.86,-180.09 411,-179 862.25,-150.19 1408.57,-138.16 1578.78,-134.94"/>
<polygon fill="midnightblue" stroke="midnightblue" points="1579.04,-138.43 1588.97,-134.75 1578.91,-131.44 1579.04,-138.43"/>
</g>
<!-- Node7 -->
<g id="node7" class="node">
<title>Node7</title>
<g id="a_node7"><a xlink:title=" ">
<polygon fill="none" stroke="#bfbfbf" points="2246,-0.5 2246,-19.5 2298,-19.5 2298,-0.5 2246,-0.5"/>
<text text-anchor="middle" x="2272" y="-7.5" font-family="Helvetica,sans-Serif" font-size="10.00">cassert</text>
</a>
</g>
</g>
<!-- Node2&#45;&gt;Node7 -->
<g id="edge17" class="edge">
<title>Node2&#45;&gt;Node7</title>
<path fill="none" stroke="midnightblue" d="M358.72,-180.72C364.2,-180.05 369.72,-179.45 375,-179 954.91,-129.77 1106.48,-215.08 1684,-143 1896.43,-116.49 2144.92,-48.03 2236.11,-21.62"/>
<polygon fill="midnightblue" stroke="midnightblue" points="2237.32,-24.91 2245.95,-18.75 2235.37,-18.19 2237.32,-24.91"/>
</g>
<!-- Node2&#45;&gt;Node9 -->
<g id="edge19" class="edge">
<title>Node2&#45;&gt;Node9</title>
<path fill="none" stroke="midnightblue" d="M304.51,-179.36C297.49,-170.75 287.3,-156.86 282,-143 267.3,-104.57 263.85,-55.89 263.12,-29.71"/>
<polygon fill="midnightblue" stroke="midnightblue" points="266.62,-29.6 262.94,-19.67 259.62,-29.73 266.62,-29.6"/>
</g>
<!-- Node12 -->
<g id="node12" class="node">
<title>Node12</title>
<g id="a_node12"><a xlink:title=" ">
<polygon fill="none" stroke="#bfbfbf" points="1372.5,-62 1372.5,-81 1425.5,-81 1425.5,-62 1372.5,-62"/>
<text text-anchor="middle" x="1399" y="-69" font-family="Helvetica,sans-Serif" font-size="10.00">iterator</text>
</a>
</g>
</g>
<!-- Node2&#45;&gt;Node12 -->
<g id="edge22" class="edge">
<title>Node2&#45;&gt;Node12</title>
<path fill="none" stroke="midnightblue" d="M358.69,-184.44C444.23,-177.57 622.7,-161.52 682,-143 700.22,-137.31 701.65,-128.26 720,-123 842.28,-87.92 1238.89,-76.13 1362.12,-73.27"/>
<polygon fill="midnightblue" stroke="midnightblue" points="1362.27,-76.76 1372.18,-73.04 1362.11,-69.77 1362.27,-76.76"/>
</g>
<!-- Node15 -->
<g id="node15" class="node">
<title>Node15</title>
<g id="a_node15"><a xlink:title=" ">
<polygon fill="none" stroke="#bfbfbf" points="2566,-123.5 2566,-142.5 2630,-142.5 2630,-123.5 2566,-123.5"/>
<text text-anchor="middle" x="2598" y="-130.5" font-family="Helvetica,sans-Serif" font-size="10.00">algorithm</text>
</a>
</g>
</g>
<!-- Node2&#45;&gt;Node15 -->
<g id="edge16" class="edge">
<title>Node2&#45;&gt;Node15</title>
<path fill="none" stroke="midnightblue" d="M358.52,-185.14C392.68,-183.14 440.21,-180.55 482,-179 907.33,-163.22 2295.68,-139.15 2555.8,-134.71"/>
<polygon fill="midnightblue" stroke="midnightblue" points="2556.02,-138.21 2565.96,-134.54 2555.9,-131.21 2556.02,-138.21"/>
</g>
<!-- Node16 -->
<g id="node16" class="node">
<title>Node16</title>
<g id="a_node16"><a xlink:title=" ">
<polygon fill="none" stroke="#bfbfbf" points="104.5,-123.5 104.5,-142.5 151.5,-142.5 151.5,-123.5 104.5,-123.5"/>
<text text-anchor="middle" x="128" y="-130.5" font-family="Helvetica,sans-Serif" font-size="10.00">cmath</text>
</a>
</g>
</g>
<!-- Node2&#45;&gt;Node16 -->
<g id="edge18" class="edge">
<title>Node2&#45;&gt;Node16</title>
<path fill="none" stroke="midnightblue" d="M282.84,-179.44C249.83,-169.75 196.12,-153.99 161.43,-143.81"/>
<polygon fill="midnightblue" stroke="midnightblue" points="162.33,-140.43 151.75,-140.97 160.36,-147.15 162.33,-140.43"/>
</g>
<!-- Node17 -->
<g id="node17" class="node">
<title>Node17</title>
<g id="a_node17"><a xlink:title=" ">
<polygon fill="none" stroke="#bfbfbf" points="169.5,-123.5 169.5,-142.5 234.5,-142.5 234.5,-123.5 169.5,-123.5"/>
<text text-anchor="middle" x="202" y="-130.5" font-family="Helvetica,sans-Serif" font-size="10.00">functional</text>
</a>
</g>
</g>
<!-- Node2&#45;&gt;Node17 -->
<g id="edge20" class="edge">
<title>Node2&#45;&gt;Node17</title>
<path fill="none" stroke="midnightblue" d="M294.33,-179.32C276.61,-170.62 249.1,-157.12 228.71,-147.11"/>
<polygon fill="midnightblue" stroke="midnightblue" points="230.15,-143.92 219.63,-142.65 227.06,-150.2 230.15,-143.92"/>
</g>
<!-- Node18 -->
<g id="node18" class="node">
<title>Node18</title>
<g id="a_node18"><a xlink:title=" ">
<polygon fill="none" stroke="#bfbfbf" points="291.5,-123.5 291.5,-142.5 374.5,-142.5 374.5,-123.5 291.5,-123.5"/>
<text text-anchor="middle" x="333" y="-130.5" font-family="Helvetica,sans-Serif" font-size="10.00">initializer_list</text>
</a>
</g>
</g>
<!-- Node2&#45;&gt;Node18 -->
<g id="edge21" class="edge">
<title>Node2&#45;&gt;Node18</title>
<path fill="none" stroke="midnightblue" d="M315.47,-179.08C318.31,-171.77 322.43,-161.18 325.96,-152.1"/>
<polygon fill="midnightblue" stroke="midnightblue" points="329.23,-153.34 329.6,-142.75 322.71,-150.8 329.23,-153.34"/>
</g>
<!-- Node19 -->
<g id="node19" class="node">
<title>Node19</title>
<g id="a_node19"><a xlink:title=" ">
<polygon fill="none" stroke="#bfbfbf" points="393,-123.5 393,-142.5 449,-142.5 449,-123.5 393,-123.5"/>
<text text-anchor="middle" x="421" y="-130.5" font-family="Helvetica,sans-Serif" font-size="10.00">numeric</text>
</a>
</g>
</g>
<!-- Node2&#45;&gt;Node19 -->
<g id="edge23" class="edge">
<title>Node2&#45;&gt;Node19</title>
<path fill="none" stroke="midnightblue" d="M329.51,-179.32C347.07,-170.62 374.33,-157.12 394.53,-147.11"/>
<polygon fill="midnightblue" stroke="midnightblue" points="396.12,-150.23 403.53,-142.65 393.02,-143.96 396.12,-150.23"/>
</g>
<!-- Node20 -->
<g id="node20" class="node">
<title>Node20</title>
<g id="a_node20"><a xlink:title=" ">
<polygon fill="none" stroke="#bfbfbf" points="1914.5,-123.5 1914.5,-142.5 1983.5,-142.5 1983.5,-123.5 1914.5,-123.5"/>
<text text-anchor="middle" x="1949" y="-130.5" font-family="Helvetica,sans-Serif" font-size="10.00">type_traits</text>
</a>
</g>
</g>
<!-- Node2&#45;&gt;Node20 -->
<g id="edge24" class="edge">
<title>Node2&#45;&gt;Node20</title>
<path fill="none" stroke="midnightblue" d="M358.54,-183.13C375.08,-181.56 393.86,-179.99 411,-179 1071.88,-141.01 1241.53,-211 1900,-143 1901.31,-142.87 1902.63,-142.71 1903.97,-142.55"/>
<polygon fill="midnightblue" stroke="midnightblue" points="1904.9,-145.95 1914.3,-141.07 1903.9,-139.02 1904.9,-145.95"/>
</g>
<!-- Node21 -->
<g id="node21" class="node">
<title>Node21</title>
<g id="a_node21"><a xlink:title=" ">
<polygon fill="none" stroke="#bfbfbf" points="467.5,-123.5 467.5,-142.5 514.5,-142.5 514.5,-123.5 467.5,-123.5"/>
<text text-anchor="middle" x="491" y="-130.5" font-family="Helvetica,sans-Serif" font-size="10.00">vector</text>
</a>
</g>
</g>
<!-- Node2&#45;&gt;Node21 -->
<g id="edge25" class="edge">
<title>Node2&#45;&gt;Node21</title>
<path fill="none" stroke="midnightblue" d="M340.36,-179.44C372.17,-169.85 423.7,-154.3 457.47,-144.11"/>
<polygon fill="midnightblue" stroke="midnightblue" points="458.78,-147.38 467.34,-141.14 456.76,-140.67 458.78,-147.38"/>
</g>
<!-- Node6 -->
<g id="node6" class="node">
<title>Node6</title>
<g id="a_node6"><a xlink:href="device__qualifier_8hpp.html" target="_top" xlink:title=" ">
<polygon fill="none" stroke="black" points="2689,-62 2689,-81 2805,-81 2805,-62 2689,-62"/>
<text text-anchor="middle" x="2747" y="-69" font-family="Helvetica,sans-Serif" font-size="10.00">device_qualifier.hpp</text>
</a>
</g>
</g>
<!-- Node5&#45;&gt;Node6 -->
<g id="edge5" class="edge">
<title>Node5&#45;&gt;Node6</title>
<path fill="none" stroke="midnightblue" d="M1675.03,-129.7C1844.95,-120.64 2470.22,-87.27 2678.78,-76.14"/>
<polygon fill="midnightblue" stroke="midnightblue" points="2679.19,-79.62 2688.99,-75.6 2678.81,-72.63 2679.19,-79.62"/>
</g>
<!-- Node5&#45;&gt;Node7 -->
<g id="edge11" class="edge">
<title>Node5&#45;&gt;Node7</title>
<path fill="none" stroke="midnightblue" d="M1659.73,-123.37C1683.05,-115.54 1716.83,-102.8 1744,-87 1763.14,-75.87 1762.45,-64.25 1783,-56 1865.35,-22.95 2137.1,-13.89 2235.79,-11.66"/>
<polygon fill="midnightblue" stroke="midnightblue" points="2235.94,-15.16 2245.87,-11.45 2235.79,-8.16 2235.94,-15.16"/>
</g>
<!-- Node8 -->
<g id="node8" class="node">
<title>Node8</title>
<g id="a_node8"><a xlink:href="get_8hpp.html" target="_top" xlink:title=" ">
<polygon fill="none" stroke="black" points="1482.5,-62 1482.5,-81 1535.5,-81 1535.5,-62 1482.5,-62"/>
<text text-anchor="middle" x="1509" y="-69" font-family="Helvetica,sans-Serif" font-size="10.00">get.hpp</text>
</a>
</g>
</g>
<!-- Node5&#45;&gt;Node8 -->
<g id="edge7" class="edge">
<title>Node5&#45;&gt;Node8</title>
<path fill="none" stroke="midnightblue" d="M1614.38,-123.48C1593.83,-113.53 1559.64,-96.99 1535.79,-85.46"/>
<polygon fill="midnightblue" stroke="midnightblue" points="1537.12,-82.21 1526.59,-81.01 1534.07,-88.51 1537.12,-82.21"/>
</g>
<!-- Node5&#45;&gt;Node9 -->
<g id="edge12" class="edge">
<title>Node5&#45;&gt;Node9</title>
<path fill="none" stroke="midnightblue" d="M1588.78,-124.59C1555.79,-117.81 1509.89,-105.91 1473,-87 1453.3,-76.9 1454.76,-63.7 1434,-56 1325.58,-15.81 486.27,-11.51 299.68,-11.05"/>
<polygon fill="midnightblue" stroke="midnightblue" points="299.56,-7.55 289.56,-11.03 299.55,-14.55 299.56,-7.55"/>
</g>
<!-- Node11 -->
<g id="node11" class="node">
<title>Node11</title>
<g id="a_node11"><a xlink:title=" ">
<polygon fill="none" stroke="#bfbfbf" points="1628.5,-56.5 1628.5,-86.5 1735.5,-86.5 1735.5,-56.5 1628.5,-56.5"/>
<text text-anchor="start" x="1636.5" y="-74.5" font-family="Helvetica,sans-Serif" font-size="10.00">boost/serialization</text>
<text text-anchor="middle" x="1682" y="-63.5" font-family="Helvetica,sans-Serif" font-size="10.00">/access.hpp</text>
</a>
</g>
</g>
<!-- Node5&#45;&gt;Node11 -->
<g id="edge10" class="edge">
<title>Node5&#45;&gt;Node11</title>
<path fill="none" stroke="midnightblue" d="M1639.16,-123.48C1645.56,-115.87 1655.19,-104.4 1663.71,-94.26"/>
<polygon fill="midnightblue" stroke="midnightblue" points="1666.46,-96.43 1670.22,-86.52 1661.1,-91.93 1666.46,-96.43"/>
</g>
<!-- Node5&#45;&gt;Node12 -->
<g id="edge13" class="edge">
<title>Node5&#45;&gt;Node12</title>
<path fill="none" stroke="midnightblue" d="M1589.7,-123.48C1550.57,-115.27 1490.93,-101.92 1440,-87 1437.22,-86.18 1434.34,-85.29 1431.47,-84.35"/>
<polygon fill="midnightblue" stroke="midnightblue" points="1432.44,-80.98 1421.84,-81.08 1430.18,-87.61 1432.44,-80.98"/>
</g>
<!-- Node13 -->
<g id="node13" class="node">
<title>Node13</title>
<g id="a_node13"><a xlink:title=" ">
<polygon fill="none" stroke="#bfbfbf" points="1553.5,-62 1553.5,-81 1610.5,-81 1610.5,-62 1553.5,-62"/>
<text text-anchor="middle" x="1582" y="-69" font-family="Helvetica,sans-Serif" font-size="10.00">ostream</text>
</a>
</g>
</g>
<!-- Node5&#45;&gt;Node13 -->
<g id="edge14" class="edge">
<title>Node5&#45;&gt;Node13</title>
<path fill="none" stroke="midnightblue" d="M1624.84,-123.48C1617.26,-114.46 1605.13,-100.02 1595.71,-88.81"/>
<polygon fill="midnightblue" stroke="midnightblue" points="1598.26,-86.41 1589.15,-81.01 1592.9,-90.92 1598.26,-86.41"/>
</g>
<!-- Node14 -->
<g id="node14" class="node">
<title>Node14</title>
<g id="a_node14"><a xlink:title=" ">
<polygon fill="none" stroke="#bfbfbf" points="1792.5,-62 1792.5,-81 1857.5,-81 1857.5,-62 1792.5,-62"/>
<text text-anchor="middle" x="1825" y="-69" font-family="Helvetica,sans-Serif" font-size="10.00">stdexcept</text>
</a>
</g>
</g>
<!-- Node5&#45;&gt;Node14 -->
<g id="edge15" class="edge">
<title>Node5&#45;&gt;Node14</title>
<path fill="none" stroke="midnightblue" d="M1659.72,-123.46C1689.09,-114.41 1736.81,-99.7 1778,-87 1781.1,-86.04 1784.32,-85.05 1787.55,-84.06"/>
<polygon fill="midnightblue" stroke="midnightblue" points="1788.64,-87.38 1797.17,-81.09 1786.58,-80.69 1788.64,-87.38"/>
</g>
<!-- Node6&#45;&gt;Node7 -->
<g id="edge6" class="edge">
<title>Node6&#45;&gt;Node7</title>
<path fill="none" stroke="midnightblue" d="M2705.84,-61.94C2694.87,-59.82 2683.01,-57.68 2672,-56 2538.61,-35.64 2378.88,-20.39 2308.43,-14.13"/>
<polygon fill="midnightblue" stroke="midnightblue" points="2308.57,-10.63 2298.3,-13.23 2307.96,-17.6 2308.57,-10.63"/>
</g>
<!-- Node8&#45;&gt;Node9 -->
<g id="edge8" class="edge">
<title>Node8&#45;&gt;Node9</title>
<path fill="none" stroke="midnightblue" d="M1488.48,-61.88C1482.04,-59.54 1474.82,-57.3 1468,-56 1235.88,-11.69 476.01,-10.53 299.75,-10.88"/>
<polygon fill="midnightblue" stroke="midnightblue" points="299.68,-7.38 289.68,-10.9 299.69,-14.38 299.68,-7.38"/>
</g>
<!-- Node10 -->
<g id="node10" class="node">
<title>Node10</title>
<g id="a_node10"><a xlink:title=" ">
<polygon fill="none" stroke="#bfbfbf" points="1488.5,-0.5 1488.5,-19.5 1529.5,-19.5 1529.5,-0.5 1488.5,-0.5"/>
<text text-anchor="middle" x="1509" y="-7.5" font-family="Helvetica,sans-Serif" font-size="10.00">tuple</text>
</a>
</g>
</g>
<!-- Node8&#45;&gt;Node10 -->
<g id="edge9" class="edge">
<title>Node8&#45;&gt;Node10</title>
<path fill="none" stroke="midnightblue" d="M1509,-61.98C1509,-53.58 1509,-40.48 1509,-29.66"/>
<polygon fill="midnightblue" stroke="midnightblue" points="1512.5,-29.51 1509,-19.51 1505.5,-29.51 1512.5,-29.51"/>
</g>
<!-- Node22&#45;&gt;Node2 -->
<g id="edge27" class="edge">
<title>Node22&#45;&gt;Node2</title>
<path fill="none" stroke="midnightblue" d="M200.07,-235.44C222.06,-226.52 256.73,-212.44 281.66,-202.32"/>
<polygon fill="midnightblue" stroke="midnightblue" points="283.08,-205.52 291.02,-198.52 280.44,-199.04 283.08,-205.52"/>
</g>
<!-- Node22&#45;&gt;Node9 -->
<g id="edge30" class="edge">
<title>Node22&#45;&gt;Node9</title>
<path fill="none" stroke="midnightblue" d="M170.41,-235.31C150.6,-215.02 102.83,-164.66 95,-143 91.98,-134.64 90.81,-130.84 95,-123 122.81,-71.04 186.56,-39.02 227.04,-23.16"/>
<polygon fill="midnightblue" stroke="midnightblue" points="228.43,-26.38 236.55,-19.56 225.96,-19.83 228.43,-26.38"/>
</g>
<!-- Node22&#45;&gt;Node16 -->
<g id="edge29" class="edge">
<title>Node22&#45;&gt;Node16</title>
<path fill="none" stroke="midnightblue" d="M175.16,-235.12C169.7,-222.57 159.31,-198.93 150,-179 145.76,-169.93 140.88,-159.91 136.8,-151.63"/>
<polygon fill="midnightblue" stroke="midnightblue" points="139.89,-149.99 132.31,-142.58 133.62,-153.1 139.89,-149.99"/>
</g>
<!-- Node22&#45;&gt;Node20 -->
<g id="edge31" class="edge">
<title>Node22&#45;&gt;Node20</title>
<path fill="none" stroke="midnightblue" d="M214.59,-235.49C282.89,-219.31 430.18,-185.16 482,-179 1108.02,-104.56 1272.95,-208.14 1900,-143 1901.31,-142.86 1902.63,-142.71 1903.97,-142.55"/>
<polygon fill="midnightblue" stroke="midnightblue" points="1904.9,-145.95 1914.3,-141.07 1903.9,-139.02 1904.9,-145.95"/>
</g>
<!-- Node22&#45;&gt;Node23 -->
<g id="edge28" class="edge">
<title>Node22&#45;&gt;Node23</title>
<path fill="none" stroke="midnightblue" d="M164.22,-235.32C149.73,-226.82 127.43,-213.73 110.51,-203.8"/>
<polygon fill="midnightblue" stroke="midnightblue" points="112.14,-200.7 101.74,-198.65 108.6,-206.74 112.14,-200.7"/>
</g>
<!-- Node24 -->
<g id="node24" class="node">
<title>Node24</title>
<g id="a_node24"><a xlink:title=" ">
<polygon fill="none" stroke="#bfbfbf" points="202.5,-179.5 202.5,-198.5 247.5,-198.5 247.5,-179.5 202.5,-179.5"/>
<text text-anchor="middle" x="225" y="-186.5" font-family="Helvetica,sans-Serif" font-size="10.00">utility</text>
</a>
</g>
</g>
<!-- Node22&#45;&gt;Node24 -->
<g id="edge32" class="edge">
<title>Node22&#45;&gt;Node24</title>
<path fill="none" stroke="midnightblue" d="M186.6,-235.08C193.23,-227.3 203.02,-215.8 211.06,-206.37"/>
<polygon fill="midnightblue" stroke="midnightblue" points="213.73,-208.63 217.55,-198.75 208.4,-204.09 213.73,-208.63"/>
</g>
<!-- Node25&#45;&gt;Node6 -->
<g id="edge36" class="edge">
<title>Node25&#45;&gt;Node6</title>
<path fill="none" stroke="midnightblue" d="M2788.56,-179.29C2790.48,-166.52 2792.71,-142.18 2786,-123 2781.42,-109.9 2771.98,-97.52 2763.53,-88.3"/>
<polygon fill="midnightblue" stroke="midnightblue" points="2765.99,-85.81 2756.52,-81.07 2760.97,-90.69 2765.99,-85.81"/>
</g>
<!-- Node25&#45;&gt;Node14 -->
<g id="edge37" class="edge">
<title>Node25&#45;&gt;Node14</title>
<path fill="none" stroke="midnightblue" d="M2772.07,-179.31C2746.06,-164.66 2690.27,-135.43 2639,-123 2490.49,-86.99 2013.73,-75.8 1867.83,-73.18"/>
<polygon fill="midnightblue" stroke="midnightblue" points="1867.57,-69.67 1857.51,-73 1867.45,-76.67 1867.57,-69.67"/>
</g>
<!-- Node25&#45;&gt;Node20 -->
<g id="edge38" class="edge">
<title>Node25&#45;&gt;Node20</title>
<path fill="none" stroke="midnightblue" d="M2724.36,-183.96C2562.71,-173.55 2134.39,-145.95 1994.15,-136.91"/>
<polygon fill="midnightblue" stroke="midnightblue" points="1993.99,-133.39 1983.79,-136.24 1993.54,-140.38 1993.99,-133.39"/>
</g>
<!-- Node26 -->
<g id="node26" class="node">
<title>Node26</title>
<g id="a_node26"><a xlink:href="sqr_8hpp.html" target="_top" xlink:title=" ">
<polygon fill="none" stroke="black" points="2724.5,-123.5 2724.5,-142.5 2777.5,-142.5 2777.5,-123.5 2724.5,-123.5"/>
<text text-anchor="middle" x="2751" y="-130.5" font-family="Helvetica,sans-Serif" font-size="10.00">sqr.hpp</text>
</a>
</g>
</g>
<!-- Node25&#45;&gt;Node26 -->
<g id="edge34" class="edge">
<title>Node25&#45;&gt;Node26</title>
<path fill="none" stroke="midnightblue" d="M2781.06,-179.08C2776.02,-171.53 2768.66,-160.49 2762.49,-151.23"/>
<polygon fill="midnightblue" stroke="midnightblue" points="2765.29,-149.13 2756.83,-142.75 2759.47,-153.01 2765.29,-149.13"/>
</g>
<!-- Node26&#45;&gt;Node6 -->
<g id="edge35" class="edge">
<title>Node26&#45;&gt;Node6</title>
<path fill="none" stroke="midnightblue" d="M2750.43,-123.48C2749.86,-115.08 2748.98,-101.98 2748.25,-91.16"/>
<polygon fill="midnightblue" stroke="midnightblue" points="2751.74,-90.75 2747.57,-81.01 2744.75,-91.22 2751.74,-90.75"/>
</g>
<!-- Node27&#45;&gt;Node2 -->
<g id="edge40" class="edge">
<title>Node27&#45;&gt;Node2</title>
<path fill="none" stroke="midnightblue" d="M372.82,-291.37C361.98,-273.3 336.71,-231.18 322.38,-207.31"/>
<polygon fill="midnightblue" stroke="midnightblue" points="325.3,-205.37 317.15,-198.59 319.3,-208.97 325.3,-205.37"/>
</g>
<!-- Node27&#45;&gt;Node9 -->
<g id="edge66" class="edge">
<title>Node27&#45;&gt;Node9</title>
<path fill="none" stroke="midnightblue" d="M296.24,-292.17C229.28,-284.69 140.63,-272.04 109,-255 79.1,-238.89 69.41,-230.61 57,-199 35.05,-143.11 58.27,-108.72 121,-56 150.97,-30.81 195.15,-19.68 226.26,-14.78"/>
<polygon fill="midnightblue" stroke="midnightblue" points="226.86,-18.23 236.26,-13.35 225.87,-11.3 226.86,-18.23"/>
</g>
<!-- Node27&#45;&gt;Node15 -->
<g id="edge65" class="edge">
<title>Node27&#45;&gt;Node15</title>
<path fill="none" stroke="midnightblue" d="M459.5,-296.58C634.72,-289.2 1060.33,-271.16 1417,-255 1680.14,-243.08 2419.2,-389.6 2601,-199 2612.67,-186.77 2609.67,-166.62 2605.16,-151.99"/>
<polygon fill="midnightblue" stroke="midnightblue" points="2608.44,-150.77 2601.8,-142.51 2601.84,-153.11 2608.44,-150.77"/>
</g>
<!-- Node28 -->
<g id="node28" class="node">
<title>Node28</title>
<g id="a_node28"><a xlink:href="matrix_8hpp.html" target="_top" xlink:title="This file contains a matrix implementation and the trait types needed for the boost qvm interoperabil...">
<polygon fill="none" stroke="black" points="1314,-235.5 1314,-254.5 1408,-254.5 1408,-235.5 1314,-235.5"/>
<text text-anchor="middle" x="1361" y="-242.5" font-family="Helvetica,sans-Serif" font-size="10.00">utils/matrix.hpp</text>
</a>
</g>
</g>
<!-- Node27&#45;&gt;Node28 -->
<g id="edge41" class="edge">
<title>Node27&#45;&gt;Node28</title>
<path fill="none" stroke="midnightblue" d="M459.7,-295.51C653.52,-284.86 1137.33,-258.29 1303.72,-249.15"/>
<polygon fill="midnightblue" stroke="midnightblue" points="1303.96,-252.64 1313.75,-248.6 1303.57,-245.65 1303.96,-252.64"/>
</g>
<!-- Node28&#45;&gt;Node2 -->
<g id="edge43" class="edge">
<title>Node28&#45;&gt;Node2</title>
<path fill="none" stroke="midnightblue" d="M1313.83,-243.54C1171.49,-241.79 733.84,-233.75 373,-199 371.53,-198.86 370.05,-198.71 368.56,-198.55"/>
<polygon fill="midnightblue" stroke="midnightblue" points="368.91,-195.06 358.57,-197.36 368.09,-202.02 368.91,-195.06"/>
</g>
<!-- Node28&#45;&gt;Node3 -->
<g id="edge58" class="edge">
<title>Node28&#45;&gt;Node3</title>
<path fill="none" stroke="midnightblue" d="M1313.75,-243.45C1130.99,-241.11 479.06,-230.58 449,-199 442.87,-192.56 443.12,-185.67 449,-179 453.45,-173.95 614.88,-155.08 718.5,-143.44"/>
<polygon fill="midnightblue" stroke="midnightblue" points="719.1,-146.89 728.65,-142.3 718.32,-139.94 719.1,-146.89"/>
</g>
<!-- Node28&#45;&gt;Node5 -->
<g id="edge42" class="edge">
<title>Node28&#45;&gt;Node5</title>
<path fill="none" stroke="midnightblue" d="M1408.12,-241.61C1473.1,-237.35 1585.54,-226.18 1615,-199 1627.71,-187.28 1631.4,-167.34 1632.25,-152.63"/>
<polygon fill="midnightblue" stroke="midnightblue" points="1635.75,-152.69 1632.46,-142.62 1628.76,-152.55 1635.75,-152.69"/>
</g>
<!-- Node28&#45;&gt;Node7 -->
<g id="edge49" class="edge">
<title>Node28&#45;&gt;Node7</title>
<path fill="none" stroke="midnightblue" d="M1408.08,-243.48C1628.25,-240.89 2547.93,-228.37 2601,-199 2634.04,-180.71 2661.47,-153.35 2639,-123 2598.86,-68.78 2392.49,-30.24 2308.06,-16.52"/>
<polygon fill="midnightblue" stroke="midnightblue" points="2308.58,-13.06 2298.16,-14.93 2307.48,-19.97 2308.58,-13.06"/>
</g>
<!-- Node28&#45;&gt;Node9 -->
<g id="edge50" class="edge">
<title>Node28&#45;&gt;Node9</title>
<path fill="none" stroke="midnightblue" d="M1313.95,-243.37C1135.74,-240.74 510.86,-229.38 482,-199 355.55,-65.91 1005.81,-263.79 888,-123 811.95,-32.11 422.77,-14.89 300.09,-11.7"/>
<polygon fill="midnightblue" stroke="midnightblue" points="299.81,-8.2 289.73,-11.45 299.64,-15.19 299.81,-8.2"/>
</g>
<!-- Node28&#45;&gt;Node15 -->
<g id="edge47" class="edge">
<title>Node28&#45;&gt;Node15</title>
<path fill="none" stroke="midnightblue" d="M1408.24,-243.8C1627.03,-242.71 2533.27,-235.93 2580,-199 2593.62,-188.24 2597.5,-168.15 2598.36,-153.14"/>
<polygon fill="midnightblue" stroke="midnightblue" points="2601.86,-152.95 2598.53,-142.89 2594.86,-152.83 2601.86,-152.95"/>
</g>
<!-- Node28&#45;&gt;Node20 -->
<g id="edge51" class="edge">
<title>Node28&#45;&gt;Node20</title>
<path fill="none" stroke="midnightblue" d="M1408.18,-244.04C1625.61,-244 2522.28,-241.28 2563,-199 2569.17,-192.6 2569.05,-185.51 2563,-179 2524.44,-137.51 2128.75,-133.88 1993.8,-133.85"/>
<polygon fill="midnightblue" stroke="midnightblue" points="1993.8,-130.35 1983.8,-133.86 1993.8,-137.35 1993.8,-130.35"/>
</g>
<!-- Node28&#45;&gt;Node23 -->
<g id="edge48" class="edge">
<title>Node28&#45;&gt;Node23</title>
<path fill="none" stroke="midnightblue" d="M1313.95,-242.97C1155.71,-239.33 628.21,-225.85 193,-199 167.77,-197.44 139.22,-194.98 118.11,-193.02"/>
<polygon fill="midnightblue" stroke="midnightblue" points="118.38,-189.53 108.1,-192.08 117.72,-196.5 118.38,-189.53"/>
</g>
<!-- Node28&#45;&gt;Node24 -->
<g id="edge52" class="edge">
<title>Node28&#45;&gt;Node24</title>
<path fill="none" stroke="midnightblue" d="M1313.96,-243.6C1133.47,-241.82 484.51,-233.25 257.7,-198.83"/>
<polygon fill="midnightblue" stroke="midnightblue" points="257.97,-195.33 247.54,-197.23 256.87,-202.25 257.97,-195.33"/>
</g>
<!-- Node29 -->
<g id="node29" class="node">
<title>Node29</title>
<g id="a_node29"><a xlink:href="flatten_8hpp.html" target="_top" xlink:title=" ">
<polygon fill="none" stroke="black" points="1512,-179.5 1512,-198.5 1606,-198.5 1606,-179.5 1512,-179.5"/>
<text text-anchor="middle" x="1559" y="-186.5" font-family="Helvetica,sans-Serif" font-size="10.00">utils/flatten.hpp</text>
</a>
</g>
</g>
<!-- Node28&#45;&gt;Node29 -->
<g id="edge44" class="edge">
<title>Node28&#45;&gt;Node29</title>
<path fill="none" stroke="midnightblue" d="M1392.37,-235.44C1426.26,-226.2 1480.4,-211.44 1517.72,-201.26"/>
<polygon fill="midnightblue" stroke="midnightblue" points="1519.05,-204.52 1527.77,-198.52 1517.2,-197.77 1519.05,-204.52"/>
</g>
<!-- Node30 -->
<g id="node30" class="node">
<title>Node30</title>
<g id="a_node30"><a xlink:title=" ">
<polygon fill="none" stroke="#bfbfbf" points="1991.5,-179.5 1991.5,-198.5 2160.5,-198.5 2160.5,-179.5 1991.5,-179.5"/>
<text text-anchor="middle" x="2076" y="-186.5" font-family="Helvetica,sans-Serif" font-size="10.00">boost/qvm/mat_operations.hpp</text>
</a>
</g>
</g>
<!-- Node28&#45;&gt;Node30 -->
<g id="edge53" class="edge">
<title>Node28&#45;&gt;Node30</title>
<path fill="none" stroke="midnightblue" d="M1408.16,-240.96C1510.37,-234.28 1760.2,-217.52 1981.28,-199.04"/>
<polygon fill="midnightblue" stroke="midnightblue" points="1981.78,-202.51 1991.46,-198.19 1981.2,-195.54 1981.78,-202.51"/>
</g>
<!-- Node31 -->
<g id="node31" class="node">
<title>Node31</title>
<g id="a_node31"><a xlink:title=" ">
<polygon fill="none" stroke="#bfbfbf" points="2178.5,-179.5 2178.5,-198.5 2369.5,-198.5 2369.5,-179.5 2178.5,-179.5"/>
<text text-anchor="middle" x="2274" y="-186.5" font-family="Helvetica,sans-Serif" font-size="10.00">boost/qvm/vec_mat_operations.hpp</text>
</a>
</g>
</g>
<!-- Node28&#45;&gt;Node31 -->
<g id="edge54" class="edge">
<title>Node28&#45;&gt;Node31</title>
<path fill="none" stroke="midnightblue" d="M1408.39,-241.86C1531.63,-236.17 1872.53,-219.78 2168.38,-199.02"/>
<polygon fill="midnightblue" stroke="midnightblue" points="2168.71,-202.51 2178.44,-198.31 2168.22,-195.52 2168.71,-202.51"/>
</g>
<!-- Node32 -->
<g id="node32" class="node">
<title>Node32</title>
<g id="a_node32"><a xlink:title=" ">
<polygon fill="none" stroke="#bfbfbf" points="2387.5,-179.5 2387.5,-198.5 2554.5,-198.5 2554.5,-179.5 2387.5,-179.5"/>
<text text-anchor="middle" x="2471" y="-186.5" font-family="Helvetica,sans-Serif" font-size="10.00">boost/qvm/vec_operations.hpp</text>
</a>
</g>
</g>
<!-- Node28&#45;&gt;Node32 -->
<g id="edge55" class="edge">
<title>Node28&#45;&gt;Node32</title>
<path fill="none" stroke="midnightblue" d="M1408.19,-242.79C1551.87,-238.92 1996.77,-225.54 2377.26,-199.01"/>
<polygon fill="midnightblue" stroke="midnightblue" points="2377.64,-202.49 2387.37,-198.3 2377.15,-195.51 2377.64,-202.49"/>
</g>
<!-- Node33 -->
<g id="node33" class="node">
<title>Node33</title>
<g id="a_node33"><a xlink:title=" ">
<polygon fill="none" stroke="#bfbfbf" points="491,-179.5 491,-198.5 643,-198.5 643,-179.5 491,-179.5"/>
<text text-anchor="middle" x="567" y="-186.5" font-family="Helvetica,sans-Serif" font-size="10.00">boost/qvm/deduce_mat.hpp</text>
</a>
</g>
</g>
<!-- Node28&#45;&gt;Node33 -->
<g id="edge56" class="edge">
<title>Node28&#45;&gt;Node33</title>
<path fill="none" stroke="midnightblue" d="M1313.65,-241.69C1201.15,-236.04 908.72,-220.48 653.64,-199.11"/>
<polygon fill="midnightblue" stroke="midnightblue" points="653.7,-195.6 643.44,-198.25 653.11,-202.57 653.7,-195.6"/>
</g>
<!-- Node34 -->
<g id="node34" class="node">
<title>Node34</title>
<g id="a_node34"><a xlink:title=" ">
<polygon fill="none" stroke="#bfbfbf" points="661,-179.5 661,-198.5 823,-198.5 823,-179.5 661,-179.5"/>
<text text-anchor="middle" x="742" y="-186.5" font-family="Helvetica,sans-Serif" font-size="10.00">boost/qvm/deduce_scalar.hpp</text>
</a>
</g>
</g>
<!-- Node28&#45;&gt;Node34 -->
<g id="edge57" class="edge">
<title>Node28&#45;&gt;Node34</title>
<path fill="none" stroke="midnightblue" d="M1313.92,-240.23C1223.16,-232.91 1017.43,-216.08 833.56,-199.13"/>
<polygon fill="midnightblue" stroke="midnightblue" points="833.71,-195.63 823.43,-198.2 833.07,-202.6 833.71,-195.63"/>
</g>
<!-- Node35 -->
<g id="node35" class="node">
<title>Node35</title>
<g id="a_node35"><a xlink:title=" ">
<polygon fill="none" stroke="#bfbfbf" points="841,-179.5 841,-198.5 1005,-198.5 1005,-179.5 841,-179.5"/>
<text text-anchor="middle" x="923" y="-186.5" font-family="Helvetica,sans-Serif" font-size="10.00">boost/qvm/map_mat_mat.hpp</text>
</a>
</g>
</g>
<!-- Node28&#45;&gt;Node35 -->
<g id="edge59" class="edge">
<title>Node28&#45;&gt;Node35</title>
<path fill="none" stroke="midnightblue" d="M1313.71,-238.17C1238.98,-228.96 1092.76,-210.93 1001.93,-199.73"/>
<polygon fill="midnightblue" stroke="midnightblue" points="1002.31,-196.25 991.96,-198.5 1001.45,-203.2 1002.31,-196.25"/>
</g>
<!-- Node36 -->
<g id="node36" class="node">
<title>Node36</title>
<g id="a_node36"><a xlink:title=" ">
<polygon fill="none" stroke="#bfbfbf" points="1023.5,-179.5 1023.5,-198.5 1184.5,-198.5 1184.5,-179.5 1023.5,-179.5"/>
<text text-anchor="middle" x="1104" y="-186.5" font-family="Helvetica,sans-Serif" font-size="10.00">boost/qvm/map_mat_vec.hpp</text>
</a>
</g>
</g>
<!-- Node28&#45;&gt;Node36 -->
<g id="edge60" class="edge">
<title>Node28&#45;&gt;Node36</title>
<path fill="none" stroke="midnightblue" d="M1320.28,-235.44C1275.35,-226 1203,-210.8 1154.5,-200.61"/>
<polygon fill="midnightblue" stroke="midnightblue" points="1155.04,-197.15 1144.53,-198.52 1153.6,-204 1155.04,-197.15"/>
</g>
<!-- Node37 -->
<g id="node37" class="node">
<title>Node37</title>
<g id="a_node37"><a xlink:title=" ">
<polygon fill="none" stroke="#bfbfbf" points="1202.5,-179.5 1202.5,-198.5 1363.5,-198.5 1363.5,-179.5 1202.5,-179.5"/>
<text text-anchor="middle" x="1283" y="-186.5" font-family="Helvetica,sans-Serif" font-size="10.00">boost/qvm/map_vec_mat.hpp</text>
</a>
</g>
</g>
<!-- Node28&#45;&gt;Node37 -->
<g id="edge61" class="edge">
<title>Node28&#45;&gt;Node37</title>
<path fill="none" stroke="midnightblue" d="M1348.47,-235.32C1336.41,-226.98 1317.97,-214.21 1303.73,-204.35"/>
<polygon fill="midnightblue" stroke="midnightblue" points="1305.72,-201.47 1295.5,-198.65 1301.73,-207.22 1305.72,-201.47"/>
</g>
<!-- Node38 -->
<g id="node38" class="node">
<title>Node38</title>
<g id="a_node38"><a xlink:title=" ">
<polygon fill="none" stroke="#bfbfbf" points="1382,-179.5 1382,-198.5 1494,-198.5 1494,-179.5 1382,-179.5"/>
<text text-anchor="middle" x="1438" y="-186.5" font-family="Helvetica,sans-Serif" font-size="10.00">boost/qvm/mat.hpp</text>
</a>
</g>
</g>
<!-- Node28&#45;&gt;Node38 -->
<g id="edge62" class="edge">
<title>Node28&#45;&gt;Node38</title>
<path fill="none" stroke="midnightblue" d="M1373.37,-235.32C1385.16,-227.06 1403.13,-214.45 1417.14,-204.63"/>
<polygon fill="midnightblue" stroke="midnightblue" points="1419.48,-207.26 1425.66,-198.65 1415.46,-201.53 1419.48,-207.26"/>
</g>
<!-- Node39 -->
<g id="node39" class="node">
<title>Node39</title>
<g id="a_node39"><a xlink:title=" ">
<polygon fill="none" stroke="#bfbfbf" points="1662,-179.5 1662,-198.5 1812,-198.5 1812,-179.5 1662,-179.5"/>
<text text-anchor="middle" x="1737" y="-186.5" font-family="Helvetica,sans-Serif" font-size="10.00">boost/qvm/mat_access.hpp</text>
</a>
</g>
</g>
<!-- Node28&#45;&gt;Node39 -->
<g id="edge63" class="edge">
<title>Node28&#45;&gt;Node39</title>
<path fill="none" stroke="midnightblue" d="M1408.24,-237.22C1473.51,-227.84 1591.75,-210.86 1667.22,-200.02"/>
<polygon fill="midnightblue" stroke="midnightblue" points="1668.18,-203.42 1677.58,-198.53 1667.18,-196.49 1668.18,-203.42"/>
</g>
<!-- Node40 -->
<g id="node40" class="node">
<title>Node40</title>
<g id="a_node40"><a xlink:title=" ">
<polygon fill="none" stroke="#bfbfbf" points="1830.5,-179.5 1830.5,-198.5 1973.5,-198.5 1973.5,-179.5 1830.5,-179.5"/>
<text text-anchor="middle" x="1902" y="-186.5" font-family="Helvetica,sans-Serif" font-size="10.00">boost/qvm/mat_traits.hpp</text>
</a>
</g>
</g>
<!-- Node28&#45;&gt;Node40 -->
<g id="edge64" class="edge">
<title>Node28&#45;&gt;Node40</title>
<path fill="none" stroke="midnightblue" d="M1408.04,-239.6C1489.53,-231.94 1662.52,-215.48 1820.1,-199.08"/>
<polygon fill="midnightblue" stroke="midnightblue" points="1820.87,-202.52 1830.45,-198 1820.14,-195.56 1820.87,-202.52"/>
</g>
<!-- Node29&#45;&gt;Node12 -->
<g id="edge45" class="edge">
<title>Node29&#45;&gt;Node12</title>
<path fill="none" stroke="midnightblue" d="M1546.97,-179.32C1519.75,-159.67 1453.18,-111.61 1419.39,-87.22"/>
<polygon fill="midnightblue" stroke="midnightblue" points="1421.32,-84.3 1411.17,-81.28 1417.23,-89.97 1421.32,-84.3"/>
</g>
<!-- Node29&#45;&gt;Node20 -->
<g id="edge46" class="edge">
<title>Node29&#45;&gt;Node20</title>
<path fill="none" stroke="midnightblue" d="M1606.27,-182.53C1672.2,-174.72 1795.45,-159.49 1900,-143 1901.3,-142.8 1902.61,-142.58 1903.94,-142.37"/>
<polygon fill="midnightblue" stroke="midnightblue" points="1904.97,-145.74 1914.24,-140.61 1903.79,-138.84 1904.97,-145.74"/>
</g>
</g>
</svg>
