<?xml version="1.0" encoding="UTF-8" standalone="no"?>
<!DOCTYPE svg PUBLIC "-//W3C//DTD SVG 1.1//EN"
 "http://www.w3.org/Graphics/SVG/1.1/DTD/svg11.dtd">
<!-- Generated by graphviz version 2.43.0 (0)
 -->
<!-- Title: bspline_3d.hpp Pages: 1 -->
<!--zoomable 319 -->
<svg id="main" version="1.1" xmlns="http://www.w3.org/2000/svg" xmlns:xlink="http://www.w3.org/1999/xlink" xml:space="preserve" onload="init(evt)">
<style type="text/css"><![CDATA[
.edge:hover path { stroke: red; }
.edge:hover polygon { stroke: red; fill: red; }
]]></style>
<script type="text/javascript"><![CDATA[
var edges = document.getElementsByTagName('g');
if (edges && edges.length) {
  for (var i=0;i<edges.length;i++) {
    if (edges[i].id.substr(0,4)=='edge') {
      edges[i].setAttribute('class','edge');
    }
  }
}
]]></script>
        <defs>
                <circle id="rim" cx="0" cy="0" r="7"/>
                <circle id="rim2" cx="0" cy="0" r="3.5"/>
                <g id="zoomPlus">
                        <use xlink:href="#rim" fill="#404040">
                                <set attributeName="fill" to="#808080" begin="zoomplus.mouseover" end="zoomplus.mouseout"/>
                        </use>
                        <path d="M-4,0h8M0,-4v8" fill="none" stroke="white" stroke-width="1.5" pointer-events="none"/>
                </g>
                <g id="zoomMin">
                        <use xlink:href="#rim" fill="#404040">
                                <set attributeName="fill" to="#808080" begin="zoomminus.mouseover" end="zoomminus.mouseout"/>
                        </use>
                        <path d="M-4,0h8" fill="none" stroke="white" stroke-width="1.5" pointer-events="none"/>
                </g>
                <g id="dirArrow">
                        <path fill="none" stroke="white" stroke-width="1.5" d="M0,-3.0v7 M-2.5,-0.5L0,-3.0L2.5,-0.5"/>
                </g>
               <g id="resetDef">
                       <use xlink:href="#rim2" fill="#404040">
                               <set attributeName="fill" to="#808080" begin="reset.mouseover" end="reset.mouseout"/>
                       </use>
               </g>
        </defs>

<script type="text/javascript">
var viewWidth = 1328;
var viewHeight = 319;
var sectionId = 'dynsection-0';
</script>
<script xlink:href="svgpan.js"/>
<svg id="graph" class="graph">
<g id="viewport">
<title>bspline_3d.hpp</title>
<!-- Node1 -->
<g id="node1" class="node">
<title>Node1</title>
<g id="a_node1"><a xlink:title=" ">
<polygon fill="#bfbfbf" stroke="black" points="1090,-291.5 1090,-310.5 1180,-310.5 1180,-291.5 1090,-291.5"/>
<text text-anchor="middle" x="1135" y="-298.5" font-family="Helvetica,sans-Serif" font-size="10.00">bspline_3d.hpp</text>
</a>
</g>
</g>
<!-- Node2 -->
<g id="node2" class="node">
<title>Node2</title>
<g id="a_node2"><a xlink:href="Vector_8hpp.html" target="_top" xlink:title=" ">
<polygon fill="none" stroke="black" points="671.5,-179.5 671.5,-198.5 764.5,-198.5 764.5,-179.5 671.5,-179.5"/>
<text text-anchor="middle" x="718" y="-186.5" font-family="Helvetica,sans-Serif" font-size="10.00">utils/Vector.hpp</text>
</a>
</g>
</g>
<!-- Node1&#45;&gt;Node2 -->
<g id="edge1" class="edge">
<title>Node1&#45;&gt;Node2</title>
<path fill="none" stroke="midnightblue" d="M1102.63,-291.46C1027.95,-271.76 843.68,-223.15 760.25,-201.15"/>
<polygon fill="midnightblue" stroke="midnightblue" points="760.92,-197.7 750.35,-198.53 759.13,-204.47 760.92,-197.7"/>
</g>
<!-- Node9 -->
<g id="node9" class="node">
<title>Node9</title>
<g id="a_node9"><a xlink:title=" ">
<polygon fill="none" stroke="#bfbfbf" points="663.5,-0.5 663.5,-19.5 716.5,-19.5 716.5,-0.5 663.5,-0.5"/>
<text text-anchor="middle" x="690" y="-7.5" font-family="Helvetica,sans-Serif" font-size="10.00">cstddef</text>
</a>
</g>
</g>
<!-- Node1&#45;&gt;Node9 -->
<g id="edge40" class="edge">
<title>Node1&#45;&gt;Node9</title>
<path fill="none" stroke="midnightblue" d="M1180.26,-293.29C1235.03,-282.31 1320,-254.83 1320,-190 1320,-190 1320,-190 1320,-132 1320,-46.39 1225.9,-77.37 1143,-56 992.06,-17.09 804.82,-11.42 726.8,-10.87"/>
<polygon fill="midnightblue" stroke="midnightblue" points="726.55,-7.37 716.53,-10.83 726.52,-14.37 726.55,-7.37"/>
</g>
<!-- Node22 -->
<g id="node22" class="node">
<title>Node22</title>
<g id="a_node22"><a xlink:href="ll__and__dist_8hpp.html" target="_top" xlink:title=" ">
<polygon fill="none" stroke="black" points="1074.5,-235.5 1074.5,-254.5 1195.5,-254.5 1195.5,-235.5 1074.5,-235.5"/>
<text text-anchor="middle" x="1135" y="-242.5" font-family="Helvetica,sans-Serif" font-size="10.00">detail/ll_and_dist.hpp</text>
</a>
</g>
</g>
<!-- Node1&#45;&gt;Node22 -->
<g id="edge26" class="edge">
<title>Node1&#45;&gt;Node22</title>
<path fill="none" stroke="midnightblue" d="M1135,-291.08C1135,-284.01 1135,-273.86 1135,-264.99"/>
<polygon fill="midnightblue" stroke="midnightblue" points="1138.5,-264.75 1135,-254.75 1131.5,-264.75 1138.5,-264.75"/>
</g>
<!-- Node23 -->
<g id="node23" class="node">
<title>Node23</title>
<g id="a_node23"><a xlink:title=" ">
<polygon fill="none" stroke="#bfbfbf" points="1250,-179.5 1250,-198.5 1292,-198.5 1292,-179.5 1250,-179.5"/>
<text text-anchor="middle" x="1271" y="-186.5" font-family="Helvetica,sans-Serif" font-size="10.00">array</text>
</a>
</g>
</g>
<!-- Node1&#45;&gt;Node23 -->
<g id="edge39" class="edge">
<title>Node1&#45;&gt;Node23</title>
<path fill="none" stroke="midnightblue" d="M1150.36,-291.37C1164.97,-282.88 1187.29,-269.17 1205,-255 1223.93,-239.86 1243.45,-220.02 1256.3,-206.26"/>
<polygon fill="midnightblue" stroke="midnightblue" points="1259.18,-208.3 1263.37,-198.57 1254.03,-203.56 1259.18,-208.3"/>
</g>
<!-- Node25 -->
<g id="node25" class="node">
<title>Node25</title>
<g id="a_node25"><a xlink:href="bspline_8hpp.html" target="_top" xlink:title=" ">
<polygon fill="none" stroke="black" points="48.5,-179.5 48.5,-198.5 173.5,-198.5 173.5,-179.5 48.5,-179.5"/>
<text text-anchor="middle" x="111" y="-186.5" font-family="Helvetica,sans-Serif" font-size="10.00">utils/math/bspline.hpp</text>
</a>
</g>
</g>
<!-- Node1&#45;&gt;Node25 -->
<g id="edge33" class="edge">
<title>Node1&#45;&gt;Node25</title>
<path fill="none" stroke="midnightblue" d="M1089.68,-295.13C928.46,-277.81 381.88,-219.1 183.61,-197.8"/>
<polygon fill="midnightblue" stroke="midnightblue" points="183.9,-194.31 173.59,-196.72 183.15,-201.27 183.9,-194.31"/>
</g>
<!-- Node3 -->
<g id="node3" class="node">
<title>Node3</title>
<g id="a_node3"><a xlink:title=" ">
<polygon fill="none" stroke="#bfbfbf" points="1009,-123.5 1009,-142.5 1159,-142.5 1159,-123.5 1009,-123.5"/>
<text text-anchor="middle" x="1084" y="-130.5" font-family="Helvetica,sans-Serif" font-size="10.00">boost/qvm/deduce_vec.hpp</text>
</a>
</g>
</g>
<!-- Node2&#45;&gt;Node3 -->
<g id="edge2" class="edge">
<title>Node2&#45;&gt;Node3</title>
<path fill="none" stroke="midnightblue" d="M764.73,-181.11C828.41,-171.71 942.89,-154.82 1016.06,-144.02"/>
<polygon fill="midnightblue" stroke="midnightblue" points="1016.72,-147.46 1026.11,-142.54 1015.7,-140.54 1016.72,-147.46"/>
</g>
<!-- Node4 -->
<g id="node4" class="node">
<title>Node4</title>
<g id="a_node4"><a xlink:title=" ">
<polygon fill="none" stroke="#bfbfbf" points="265,-123.5 265,-142.5 405,-142.5 405,-123.5 265,-123.5"/>
<text text-anchor="middle" x="335" y="-130.5" font-family="Helvetica,sans-Serif" font-size="10.00">boost/qvm/vec_traits.hpp</text>
</a>
</g>
</g>
<!-- Node2&#45;&gt;Node4 -->
<g id="edge3" class="edge">
<title>Node2&#45;&gt;Node4</title>
<path fill="none" stroke="midnightblue" d="M671.42,-181.43C605.12,-172.08 483.01,-154.87 405.57,-143.95"/>
<polygon fill="midnightblue" stroke="midnightblue" points="405.8,-140.45 395.41,-142.52 404.83,-147.38 405.8,-140.45"/>
</g>
<!-- Node5 -->
<g id="node5" class="node">
<title>Node5</title>
<g id="a_node5"><a xlink:href="Array_8hpp.html" target="_top" xlink:title=" ">
<polygon fill="none" stroke="black" points="423,-123.5 423,-142.5 509,-142.5 509,-123.5 423,-123.5"/>
<text text-anchor="middle" x="466" y="-130.5" font-family="Helvetica,sans-Serif" font-size="10.00">utils/Array.hpp</text>
</a>
</g>
</g>
<!-- Node2&#45;&gt;Node5 -->
<g id="edge4" class="edge">
<title>Node2&#45;&gt;Node5</title>
<path fill="none" stroke="midnightblue" d="M678.07,-179.44C634.11,-170.02 563.37,-154.87 515.82,-144.68"/>
<polygon fill="midnightblue" stroke="midnightblue" points="516.25,-141.19 505.74,-142.52 514.79,-148.03 516.25,-141.19"/>
</g>
<!-- Node7 -->
<g id="node7" class="node">
<title>Node7</title>
<g id="a_node7"><a xlink:title=" ">
<polygon fill="none" stroke="#bfbfbf" points="206,-0.5 206,-19.5 258,-19.5 258,-0.5 206,-0.5"/>
<text text-anchor="middle" x="232" y="-7.5" font-family="Helvetica,sans-Serif" font-size="10.00">cassert</text>
</a>
</g>
</g>
<!-- Node2&#45;&gt;Node7 -->
<g id="edge17" class="edge">
<title>Node2&#45;&gt;Node7</title>
<path fill="none" stroke="midnightblue" d="M671.2,-184.19C555.28,-174.64 263.6,-149.99 256,-143 224.53,-114.03 225.86,-58.71 229.12,-29.74"/>
<polygon fill="midnightblue" stroke="midnightblue" points="232.61,-30.09 230.46,-19.72 225.67,-29.17 232.61,-30.09"/>
</g>
<!-- Node2&#45;&gt;Node9 -->
<g id="edge19" class="edge">
<title>Node2&#45;&gt;Node9</title>
<path fill="none" stroke="midnightblue" d="M706.46,-179.49C696.52,-171.38 682.88,-158.18 677,-143 669.19,-122.82 679.85,-61.14 686.07,-29.76"/>
<polygon fill="midnightblue" stroke="midnightblue" points="689.56,-30.2 688.12,-19.7 682.7,-28.8 689.56,-30.2"/>
</g>
<!-- Node12 -->
<g id="node12" class="node">
<title>Node12</title>
<g id="a_node12"><a xlink:title=" ">
<polygon fill="none" stroke="#bfbfbf" points="608.5,-62 608.5,-81 661.5,-81 661.5,-62 608.5,-62"/>
<text text-anchor="middle" x="635" y="-69" font-family="Helvetica,sans-Serif" font-size="10.00">iterator</text>
</a>
</g>
</g>
<!-- Node2&#45;&gt;Node12 -->
<g id="edge22" class="edge">
<title>Node2&#45;&gt;Node12</title>
<path fill="none" stroke="midnightblue" d="M671.49,-181.4C628.76,-174.28 570,-161.42 556,-143 538.31,-119.73 573.08,-98.16 601.96,-85.17"/>
<polygon fill="midnightblue" stroke="midnightblue" points="603.64,-88.26 611.45,-81.1 600.88,-81.82 603.64,-88.26"/>
</g>
<!-- Node15 -->
<g id="node15" class="node">
<title>Node15</title>
<g id="a_node15"><a xlink:title=" ">
<polygon fill="none" stroke="#bfbfbf" points="565,-123.5 565,-142.5 629,-142.5 629,-123.5 565,-123.5"/>
<text text-anchor="middle" x="597" y="-130.5" font-family="Helvetica,sans-Serif" font-size="10.00">algorithm</text>
</a>
</g>
</g>
<!-- Node2&#45;&gt;Node15 -->
<g id="edge16" class="edge">
<title>Node2&#45;&gt;Node15</title>
<path fill="none" stroke="midnightblue" d="M698.83,-179.44C679.09,-170.64 648.11,-156.81 625.51,-146.72"/>
<polygon fill="midnightblue" stroke="midnightblue" points="626.64,-143.4 616.08,-142.52 623.79,-149.79 626.64,-143.4"/>
</g>
<!-- Node16 -->
<g id="node16" class="node">
<title>Node16</title>
<g id="a_node16"><a xlink:title=" ">
<polygon fill="none" stroke="#bfbfbf" points="1176.5,-123.5 1176.5,-142.5 1223.5,-142.5 1223.5,-123.5 1176.5,-123.5"/>
<text text-anchor="middle" x="1200" y="-130.5" font-family="Helvetica,sans-Serif" font-size="10.00">cmath</text>
</a>
</g>
</g>
<!-- Node2&#45;&gt;Node16 -->
<g id="edge18" class="edge">
<title>Node2&#45;&gt;Node16</title>
<path fill="none" stroke="midnightblue" d="M764.7,-186.02C845.1,-182.02 1014.89,-171.03 1166.39,-143.02"/>
<polygon fill="midnightblue" stroke="midnightblue" points="1167.16,-146.44 1176.34,-141.15 1165.87,-139.56 1167.16,-146.44"/>
</g>
<!-- Node17 -->
<g id="node17" class="node">
<title>Node17</title>
<g id="a_node17"><a xlink:title=" ">
<polygon fill="none" stroke="#bfbfbf" points="685.5,-123.5 685.5,-142.5 750.5,-142.5 750.5,-123.5 685.5,-123.5"/>
<text text-anchor="middle" x="718" y="-130.5" font-family="Helvetica,sans-Serif" font-size="10.00">functional</text>
</a>
</g>
</g>
<!-- Node2&#45;&gt;Node17 -->
<g id="edge20" class="edge">
<title>Node2&#45;&gt;Node17</title>
<path fill="none" stroke="midnightblue" d="M718,-179.08C718,-172.01 718,-161.86 718,-152.99"/>
<polygon fill="midnightblue" stroke="midnightblue" points="721.5,-152.75 718,-142.75 714.5,-152.75 721.5,-152.75"/>
</g>
<!-- Node18 -->
<g id="node18" class="node">
<title>Node18</title>
<g id="a_node18"><a xlink:title=" ">
<polygon fill="none" stroke="#bfbfbf" points="768.5,-123.5 768.5,-142.5 851.5,-142.5 851.5,-123.5 768.5,-123.5"/>
<text text-anchor="middle" x="810" y="-130.5" font-family="Helvetica,sans-Serif" font-size="10.00">initializer_list</text>
</a>
</g>
</g>
<!-- Node2&#45;&gt;Node18 -->
<g id="edge21" class="edge">
<title>Node2&#45;&gt;Node18</title>
<path fill="none" stroke="midnightblue" d="M732.78,-179.32C747.27,-170.82 769.57,-157.73 786.49,-147.8"/>
<polygon fill="midnightblue" stroke="midnightblue" points="788.4,-150.74 795.26,-142.65 784.86,-144.7 788.4,-150.74"/>
</g>
<!-- Node19 -->
<g id="node19" class="node">
<title>Node19</title>
<g id="a_node19"><a xlink:title=" ">
<polygon fill="none" stroke="#bfbfbf" points="870,-123.5 870,-142.5 926,-142.5 926,-123.5 870,-123.5"/>
<text text-anchor="middle" x="898" y="-130.5" font-family="Helvetica,sans-Serif" font-size="10.00">numeric</text>
</a>
</g>
</g>
<!-- Node2&#45;&gt;Node19 -->
<g id="edge23" class="edge">
<title>Node2&#45;&gt;Node19</title>
<path fill="none" stroke="midnightblue" d="M746.52,-179.44C777.16,-170.25 825.99,-155.6 859.9,-145.43"/>
<polygon fill="midnightblue" stroke="midnightblue" points="861.34,-148.65 869.91,-142.43 859.32,-141.95 861.34,-148.65"/>
</g>
<!-- Node20 -->
<g id="node20" class="node">
<title>Node20</title>
<g id="a_node20"><a xlink:title=" ">
<polygon fill="none" stroke="#bfbfbf" points="139.5,-123.5 139.5,-142.5 208.5,-142.5 208.5,-123.5 139.5,-123.5"/>
<text text-anchor="middle" x="174" y="-130.5" font-family="Helvetica,sans-Serif" font-size="10.00">type_traits</text>
</a>
</g>
</g>
<!-- Node2&#45;&gt;Node20 -->
<g id="edge24" class="edge">
<title>Node2&#45;&gt;Node20</title>
<path fill="none" stroke="midnightblue" d="M671.43,-185.19C583.51,-179.56 387.15,-165.49 223,-143 221.7,-142.82 220.38,-142.63 219.05,-142.44"/>
<polygon fill="midnightblue" stroke="midnightblue" points="219.16,-138.91 208.74,-140.78 218.06,-145.82 219.16,-138.91"/>
</g>
<!-- Node21 -->
<g id="node21" class="node">
<title>Node21</title>
<g id="a_node21"><a xlink:title=" ">
<polygon fill="none" stroke="#bfbfbf" points="944.5,-123.5 944.5,-142.5 991.5,-142.5 991.5,-123.5 944.5,-123.5"/>
<text text-anchor="middle" x="968" y="-130.5" font-family="Helvetica,sans-Serif" font-size="10.00">vector</text>
</a>
</g>
</g>
<!-- Node2&#45;&gt;Node21 -->
<g id="edge25" class="edge">
<title>Node2&#45;&gt;Node21</title>
<path fill="none" stroke="midnightblue" d="M763.06,-179.5C804.93,-171.41 869.23,-158.51 934.24,-143.06"/>
<polygon fill="midnightblue" stroke="midnightblue" points="935.34,-146.4 944.25,-140.67 933.71,-139.59 935.34,-146.4"/>
</g>
<!-- Node6 -->
<g id="node6" class="node">
<title>Node6</title>
<g id="a_node6"><a xlink:href="device__qualifier_8hpp.html" target="_top" xlink:title=" ">
<polygon fill="none" stroke="black" points="0,-62 0,-81 116,-81 116,-62 0,-62"/>
<text text-anchor="middle" x="58" y="-69" font-family="Helvetica,sans-Serif" font-size="10.00">device_qualifier.hpp</text>
</a>
</g>
</g>
<!-- Node5&#45;&gt;Node6 -->
<g id="edge5" class="edge">
<title>Node5&#45;&gt;Node6</title>
<path fill="none" stroke="midnightblue" d="M422.89,-124.38C419.89,-123.9 416.9,-123.43 414,-123 287.73,-104.11 254.97,-107.79 129,-87 121.83,-85.82 114.28,-84.43 106.89,-82.99"/>
<polygon fill="midnightblue" stroke="midnightblue" points="107.45,-79.53 96.96,-81.01 106.09,-86.4 107.45,-79.53"/>
</g>
<!-- Node5&#45;&gt;Node7 -->
<g id="edge11" class="edge">
<title>Node5&#45;&gt;Node7</title>
<path fill="none" stroke="midnightblue" d="M422.91,-124.35C378.14,-115.81 311.63,-101.32 290,-87 267.78,-72.3 250.63,-46.16 240.92,-28.7"/>
<polygon fill="midnightblue" stroke="midnightblue" points="243.86,-26.77 236.08,-19.58 237.67,-30.05 243.86,-26.77"/>
</g>
<!-- Node8 -->
<g id="node8" class="node">
<title>Node8</title>
<g id="a_node8"><a xlink:href="get_8hpp.html" target="_top" xlink:title=" ">
<polygon fill="none" stroke="black" points="498.5,-62 498.5,-81 551.5,-81 551.5,-62 498.5,-62"/>
<text text-anchor="middle" x="525" y="-69" font-family="Helvetica,sans-Serif" font-size="10.00">get.hpp</text>
</a>
</g>
</g>
<!-- Node5&#45;&gt;Node8 -->
<g id="edge7" class="edge">
<title>Node5&#45;&gt;Node8</title>
<path fill="none" stroke="midnightblue" d="M474.45,-123.48C483.57,-114.28 498.27,-99.46 509.48,-88.16"/>
<polygon fill="midnightblue" stroke="midnightblue" points="512.01,-90.57 516.56,-81.01 507.04,-85.65 512.01,-90.57"/>
</g>
<!-- Node5&#45;&gt;Node9 -->
<g id="edge12" class="edge">
<title>Node5&#45;&gt;Node9</title>
<path fill="none" stroke="midnightblue" d="M487.48,-123.5C507.23,-115.3 536.99,-101.95 561,-87 579.8,-75.29 581.33,-67.9 600,-56 619.39,-43.64 642.63,-32.09 660.64,-23.79"/>
<polygon fill="midnightblue" stroke="midnightblue" points="662.38,-26.84 670.05,-19.53 659.5,-20.47 662.38,-26.84"/>
</g>
<!-- Node11 -->
<g id="node11" class="node">
<title>Node11</title>
<g id="a_node11"><a xlink:title=" ">
<polygon fill="none" stroke="#bfbfbf" points="298.5,-56.5 298.5,-86.5 405.5,-86.5 405.5,-56.5 298.5,-56.5"/>
<text text-anchor="start" x="306.5" y="-74.5" font-family="Helvetica,sans-Serif" font-size="10.00">boost/serialization</text>
<text text-anchor="middle" x="352" y="-63.5" font-family="Helvetica,sans-Serif" font-size="10.00">/access.hpp</text>
</a>
</g>
</g>
<!-- Node5&#45;&gt;Node11 -->
<g id="edge10" class="edge">
<title>Node5&#45;&gt;Node11</title>
<path fill="none" stroke="midnightblue" d="M449.67,-123.48C433.58,-115.08 408.47,-101.97 387.74,-91.15"/>
<polygon fill="midnightblue" stroke="midnightblue" points="389.35,-88.05 378.87,-86.52 386.11,-94.25 389.35,-88.05"/>
</g>
<!-- Node5&#45;&gt;Node12 -->
<g id="edge13" class="edge">
<title>Node5&#45;&gt;Node12</title>
<path fill="none" stroke="midnightblue" d="M490.54,-123.39C516.31,-114.34 558.01,-99.69 594,-87 596.37,-86.17 598.81,-85.3 601.27,-84.43"/>
<polygon fill="midnightblue" stroke="midnightblue" points="602.46,-87.73 610.72,-81.09 600.13,-81.13 602.46,-87.73"/>
</g>
<!-- Node13 -->
<g id="node13" class="node">
<title>Node13</title>
<g id="a_node13"><a xlink:title=" ">
<polygon fill="none" stroke="#bfbfbf" points="423.5,-62 423.5,-81 480.5,-81 480.5,-62 423.5,-62"/>
<text text-anchor="middle" x="452" y="-69" font-family="Helvetica,sans-Serif" font-size="10.00">ostream</text>
</a>
</g>
</g>
<!-- Node5&#45;&gt;Node13 -->
<g id="edge14" class="edge">
<title>Node5&#45;&gt;Node13</title>
<path fill="none" stroke="midnightblue" d="M463.99,-123.48C462,-114.99 458.87,-101.7 456.31,-90.82"/>
<polygon fill="midnightblue" stroke="midnightblue" points="459.7,-89.94 454,-81.01 452.89,-91.54 459.7,-89.94"/>
</g>
<!-- Node14 -->
<g id="node14" class="node">
<title>Node14</title>
<g id="a_node14"><a xlink:title=" ">
<polygon fill="none" stroke="#bfbfbf" points="137.5,-62 137.5,-81 202.5,-81 202.5,-62 137.5,-62"/>
<text text-anchor="middle" x="170" y="-69" font-family="Helvetica,sans-Serif" font-size="10.00">stdexcept</text>
</a>
</g>
</g>
<!-- Node5&#45;&gt;Node14 -->
<g id="edge15" class="edge">
<title>Node5&#45;&gt;Node14</title>
<path fill="none" stroke="midnightblue" d="M423.59,-123.48C367.46,-112.19 269.04,-92.41 212.74,-81.09"/>
<polygon fill="midnightblue" stroke="midnightblue" points="213.23,-77.62 202.74,-79.08 211.85,-84.48 213.23,-77.62"/>
</g>
<!-- Node6&#45;&gt;Node7 -->
<g id="edge6" class="edge">
<title>Node6&#45;&gt;Node7</title>
<path fill="none" stroke="midnightblue" d="M82.93,-61.98C113.04,-51.68 163.83,-34.31 197.64,-22.75"/>
<polygon fill="midnightblue" stroke="midnightblue" points="198.79,-26.06 207.12,-19.51 196.52,-19.43 198.79,-26.06"/>
</g>
<!-- Node8&#45;&gt;Node9 -->
<g id="edge8" class="edge">
<title>Node8&#45;&gt;Node9</title>
<path fill="none" stroke="midnightblue" d="M548.64,-61.98C576.94,-51.77 624.53,-34.61 656.59,-23.05"/>
<polygon fill="midnightblue" stroke="midnightblue" points="658.18,-26.19 666.4,-19.51 655.81,-19.61 658.18,-26.19"/>
</g>
<!-- Node10 -->
<g id="node10" class="node">
<title>Node10</title>
<g id="a_node10"><a xlink:title=" ">
<polygon fill="none" stroke="#bfbfbf" points="504.5,-0.5 504.5,-19.5 545.5,-19.5 545.5,-0.5 504.5,-0.5"/>
<text text-anchor="middle" x="525" y="-7.5" font-family="Helvetica,sans-Serif" font-size="10.00">tuple</text>
</a>
</g>
</g>
<!-- Node8&#45;&gt;Node10 -->
<g id="edge9" class="edge">
<title>Node8&#45;&gt;Node10</title>
<path fill="none" stroke="midnightblue" d="M525,-61.98C525,-53.58 525,-40.48 525,-29.66"/>
<polygon fill="midnightblue" stroke="midnightblue" points="528.5,-29.51 525,-19.51 521.5,-29.51 528.5,-29.51"/>
</g>
<!-- Node22&#45;&gt;Node2 -->
<g id="edge27" class="edge">
<title>Node22&#45;&gt;Node2</title>
<path fill="none" stroke="midnightblue" d="M1074.36,-236.15C993.95,-225.73 853.06,-207.49 774.68,-197.34"/>
<polygon fill="midnightblue" stroke="midnightblue" points="774.88,-193.84 764.51,-196.02 773.98,-200.78 774.88,-193.84"/>
</g>
<!-- Node22&#45;&gt;Node9 -->
<g id="edge30" class="edge">
<title>Node22&#45;&gt;Node9</title>
<path fill="none" stroke="midnightblue" d="M1151.38,-235.48C1187.33,-215.69 1267.32,-165.12 1233,-123 1168.5,-43.84 837.97,-18.96 726.65,-12.76"/>
<polygon fill="midnightblue" stroke="midnightblue" points="726.75,-9.27 716.58,-12.22 726.37,-16.26 726.75,-9.27"/>
</g>
<!-- Node22&#45;&gt;Node16 -->
<g id="edge29" class="edge">
<title>Node22&#45;&gt;Node16</title>
<path fill="none" stroke="midnightblue" d="M1133.53,-235.37C1131.74,-222.29 1130.09,-197.06 1140,-179 1147.29,-165.72 1160.35,-155.22 1172.42,-147.71"/>
<polygon fill="midnightblue" stroke="midnightblue" points="1174.44,-150.58 1181.35,-142.55 1170.94,-144.52 1174.44,-150.58"/>
</g>
<!-- Node22&#45;&gt;Node20 -->
<g id="edge31" class="edge">
<title>Node22&#45;&gt;Node20</title>
<path fill="none" stroke="midnightblue" d="M1074.46,-239.14C927.83,-226.98 542.16,-192.58 223,-143 221.7,-142.8 220.39,-142.59 219.06,-142.37"/>
<polygon fill="midnightblue" stroke="midnightblue" points="219.2,-138.85 208.76,-140.63 218.03,-145.75 219.2,-138.85"/>
</g>
<!-- Node22&#45;&gt;Node23 -->
<g id="edge28" class="edge">
<title>Node22&#45;&gt;Node23</title>
<path fill="none" stroke="midnightblue" d="M1156.55,-235.44C1179.16,-226.46 1214.91,-212.27 1240.43,-202.14"/>
<polygon fill="midnightblue" stroke="midnightblue" points="1242,-205.28 1250,-198.34 1239.41,-198.78 1242,-205.28"/>
</g>
<!-- Node24 -->
<g id="node24" class="node">
<title>Node24</title>
<g id="a_node24"><a xlink:title=" ">
<polygon fill="none" stroke="#bfbfbf" points="1148.5,-179.5 1148.5,-198.5 1193.5,-198.5 1193.5,-179.5 1148.5,-179.5"/>
<text text-anchor="middle" x="1171" y="-186.5" font-family="Helvetica,sans-Serif" font-size="10.00">utility</text>
</a>
</g>
</g>
<!-- Node22&#45;&gt;Node24 -->
<g id="edge32" class="edge">
<title>Node22&#45;&gt;Node24</title>
<path fill="none" stroke="midnightblue" d="M1140.94,-235.08C1145.98,-227.53 1153.34,-216.49 1159.51,-207.23"/>
<polygon fill="midnightblue" stroke="midnightblue" points="1162.53,-209.01 1165.17,-198.75 1156.71,-205.13 1162.53,-209.01"/>
</g>
<!-- Node25&#45;&gt;Node6 -->
<g id="edge36" class="edge">
<title>Node25&#45;&gt;Node6</title>
<path fill="none" stroke="midnightblue" d="M73.9,-179.46C54.56,-172.92 32.57,-161.72 21,-143 9.78,-124.84 25.55,-102.94 39.84,-88.42"/>
<polygon fill="midnightblue" stroke="midnightblue" points="42.62,-90.61 47.45,-81.18 37.79,-85.54 42.62,-90.61"/>
</g>
<!-- Node25&#45;&gt;Node14 -->
<g id="edge37" class="edge">
<title>Node25&#45;&gt;Node14</title>
<path fill="none" stroke="midnightblue" d="M112.66,-179.2C115.31,-166.34 121.22,-141.87 131,-123 137.4,-110.65 146.9,-98.27 154.93,-88.85"/>
<polygon fill="midnightblue" stroke="midnightblue" points="157.75,-90.94 161.75,-81.13 152.5,-86.31 157.75,-90.94"/>
</g>
<!-- Node25&#45;&gt;Node20 -->
<g id="edge38" class="edge">
<title>Node25&#45;&gt;Node20</title>
<path fill="none" stroke="midnightblue" d="M121.12,-179.32C130.53,-171.26 144.74,-159.08 156.07,-149.37"/>
<polygon fill="midnightblue" stroke="midnightblue" points="158.38,-152 163.69,-142.83 153.82,-146.68 158.38,-152"/>
</g>
<!-- Node26 -->
<g id="node26" class="node">
<title>Node26</title>
<g id="a_node26"><a xlink:href="sqr_8hpp.html" target="_top" xlink:title=" ">
<polygon fill="none" stroke="black" points="29.5,-123.5 29.5,-142.5 82.5,-142.5 82.5,-123.5 29.5,-123.5"/>
<text text-anchor="middle" x="56" y="-130.5" font-family="Helvetica,sans-Serif" font-size="10.00">sqr.hpp</text>
</a>
</g>
</g>
<!-- Node25&#45;&gt;Node26 -->
<g id="edge34" class="edge">
<title>Node25&#45;&gt;Node26</title>
<path fill="none" stroke="midnightblue" d="M101.92,-179.08C93.83,-171.14 81.8,-159.34 72.09,-149.8"/>
<polygon fill="midnightblue" stroke="midnightblue" points="74.5,-147.26 64.91,-142.75 69.6,-152.25 74.5,-147.26"/>
</g>
<!-- Node26&#45;&gt;Node6 -->
<g id="edge35" class="edge">
<title>Node26&#45;&gt;Node6</title>
<path fill="none" stroke="midnightblue" d="M56.29,-123.48C56.57,-115.08 57.01,-101.98 57.37,-91.16"/>
<polygon fill="midnightblue" stroke="midnightblue" points="60.88,-91.12 57.71,-81.01 53.88,-90.89 60.88,-91.12"/>
</g>
</g>
</svg>
        <g id="navigator" transform="translate(0 0)" fill="#404254">
                <rect fill="#f2f5e9" fill-opacity="0.5" stroke="#606060" stroke-width=".5" x="0" y="0" width="60" height="60"/>
                <use id="zoomplus" xlink:href="#zoomPlus" x="17" y="9" onmousedown="handleZoom(evt,'in')"/>
                <use id="zoomminus" xlink:href="#zoomMin" x="42" y="9" onmousedown="handleZoom(evt,'out')"/>
                <use id="reset" xlink:href="#resetDef" x="30" y="36" onmousedown="handleReset()"/>
                <g id="arrowUp" xlink:href="#dirArrow" transform="translate(30 24)" onmousedown="handlePan(0,-1)">
                  <use xlink:href="#rim" fill="#404040">
                        <set attributeName="fill" to="#808080" begin="arrowUp.mouseover" end="arrowUp.mouseout"/>
                  </use>
                  <path fill="none" stroke="white" stroke-width="1.5" d="M0,-3.0v7 M-2.5,-0.5L0,-3.0L2.5,-0.5"/>
                </g>
                <g id="arrowRight" xlink:href="#dirArrow" transform="rotate(90) translate(36 -43)" onmousedown="handlePan(1,0)">
                  <use xlink:href="#rim" fill="#404040">
                        <set attributeName="fill" to="#808080" begin="arrowRight.mouseover" end="arrowRight.mouseout"/>
                  </use>
                  <path fill="none" stroke="white" stroke-width="1.5" d="M0,-3.0v7 M-2.5,-0.5L0,-3.0L2.5,-0.5"/>
                </g>
                <g id="arrowDown" xlink:href="#dirArrow" transform="rotate(180) translate(-30 -48)" onmousedown="handlePan(0,1)">
                  <use xlink:href="#rim" fill="#404040">
                        <set attributeName="fill" to="#808080" begin="arrowDown.mouseover" end="arrowDown.mouseout"/>
                  </use>
                  <path fill="none" stroke="white" stroke-width="1.5" d="M0,-3.0v7 M-2.5,-0.5L0,-3.0L2.5,-0.5"/>
                </g>
                <g id="arrowLeft" xlink:href="#dirArrow" transform="rotate(270) translate(-36 17)" onmousedown="handlePan(-1,0)">
                  <use xlink:href="#rim" fill="#404040">
                        <set attributeName="fill" to="#808080" begin="arrowLeft.mouseover" end="arrowLeft.mouseout"/>
                  </use>
                  <path fill="none" stroke="white" stroke-width="1.5" d="M0,-3.0v7 M-2.5,-0.5L0,-3.0L2.5,-0.5"/>
                </g>
        </g>
        <svg viewBox="0 0 15 15" width="100%" height="30px" preserveAspectRatio="xMaxYMin meet">
         <g id="arrow_out" transform="scale(0.3 0.3)">
          <a xlink:href="bspline__3d_8hpp__incl_org.svg" target="_base">
           <rect id="button" ry="5" rx="5" y="6" x="6" height="38" width="38"
                fill="#f2f5e9" fill-opacity="0.5" stroke="#606060" stroke-width="1.0"/>
           <path id="arrow"
             d="M 11.500037,31.436501 C 11.940474,20.09759 22.043105,11.32322 32.158766,21.979434 L 37.068811,17.246167 C 37.068811,17.246167 37.088388,32 37.088388,32 L 22.160133,31.978069 C 22.160133,31.978069 26.997745,27.140456 26.997745,27.140456 C 18.528582,18.264221 13.291696,25.230495 11.500037,31.436501 z"
             style="fill:#404040;"/>
          </a>
         </g>
        </svg>
</svg>
