<?xml version="1.0" encoding="UTF-8" standalone="no"?>
<!DOCTYPE svg PUBLIC "-//W3C//DTD SVG 1.1//EN"
 "http://www.w3.org/Graphics/SVG/1.1/DTD/svg11.dtd">
<!-- Generated by graphviz version 2.43.0 (0)
 -->
<!-- Title: cart_comm.hpp Pages: 1 -->
<svg width="613pt" height="84pt"
 viewBox="0.00 0.00 613.00 84.00" xmlns="http://www.w3.org/2000/svg" xmlns:xlink="http://www.w3.org/1999/xlink">
<g id="graph0" class="graph" transform="scale(1 1) rotate(0) translate(4 80)">
<title>cart_comm.hpp</title>
<!-- Node1 -->
<g id="node1" class="node">
<title>Node1</title>
<g id="a_node1"><a xlink:title=" ">
<polygon fill="#bfbfbf" stroke="black" points="311.5,-56.5 311.5,-75.5 403.5,-75.5 403.5,-56.5 311.5,-56.5"/>
<text text-anchor="middle" x="357.5" y="-63.5" font-family="Helvetica,sans-Serif" font-size="10.00">cart_comm.hpp</text>
</a>
</g>
</g>
<!-- Node2 -->
<g id="node2" class="node">
<title>Node2</title>
<g id="a_node2"><a xlink:href="communication_8cpp.html" target="_top" xlink:title=" ">
<polygon fill="none" stroke="black" points="0,-0.5 0,-19.5 113,-19.5 113,-0.5 0,-0.5"/>
<text text-anchor="middle" x="56.5" y="-7.5" font-family="Helvetica,sans-Serif" font-size="10.00">communication.cpp</text>
</a>
</g>
</g>
<!-- Node1&#45;&gt;Node2 -->
<g id="edge1" class="edge">
<title>Node1&#45;&gt;Node2</title>
<path fill="none" stroke="midnightblue" d="M301.56,-54.96C244.72,-44.77 157.63,-29.14 104.03,-19.53"/>
<polygon fill="midnightblue" stroke="midnightblue" points="301,-58.42 311.46,-56.74 302.23,-51.53 301,-58.42"/>
</g>
<!-- Node3 -->
<g id="node3" class="node">
<title>Node3</title>
<g id="a_node3"><a xlink:href="DomainDecomposition_8cpp.html" target="_top" xlink:title=" ">
<polygon fill="none" stroke="black" points="131,-0.5 131,-19.5 280,-19.5 280,-0.5 131,-0.5"/>
<text text-anchor="middle" x="205.5" y="-7.5" font-family="Helvetica,sans-Serif" font-size="10.00">DomainDecomposition.cpp</text>
</a>
</g>
</g>
<!-- Node1&#45;&gt;Node3 -->
<g id="edge2" class="edge">
<title>Node1&#45;&gt;Node3</title>
<path fill="none" stroke="midnightblue" d="M323.83,-53.04C295.23,-42.88 254.89,-28.55 229.47,-19.52"/>
<polygon fill="midnightblue" stroke="midnightblue" points="322.82,-56.39 333.42,-56.44 325.16,-49.8 322.82,-56.39"/>
</g>
<!-- Node4 -->
<g id="node4" class="node">
<title>Node4</title>
<g id="a_node4"><a xlink:href="p3m__send__mesh_8cpp.html" target="_top" xlink:title=" ">
<polygon fill="none" stroke="black" points="298,-0.5 298,-19.5 417,-19.5 417,-0.5 298,-0.5"/>
<text text-anchor="middle" x="357.5" y="-7.5" font-family="Helvetica,sans-Serif" font-size="10.00">p3m_send_mesh.cpp</text>
</a>
</g>
</g>
<!-- Node1&#45;&gt;Node4 -->
<g id="edge3" class="edge">
<title>Node1&#45;&gt;Node4</title>
<path fill="none" stroke="midnightblue" d="M357.5,-45.8C357.5,-36.91 357.5,-26.78 357.5,-19.75"/>
<polygon fill="midnightblue" stroke="midnightblue" points="354,-46.08 357.5,-56.08 361,-46.08 354,-46.08"/>
</g>
<!-- Node5 -->
<g id="node5" class="node">
<title>Node5</title>
<g id="a_node5"><a xlink:href="grid_8cpp.html" target="_top" xlink:title=" ">
<polygon fill="none" stroke="black" points="435.5,-0.5 435.5,-19.5 491.5,-19.5 491.5,-0.5 435.5,-0.5"/>
<text text-anchor="middle" x="463.5" y="-7.5" font-family="Helvetica,sans-Serif" font-size="10.00">grid.cpp</text>
</a>
</g>
</g>
<!-- Node1&#45;&gt;Node5 -->
<g id="edge4" class="edge">
<title>Node1&#45;&gt;Node5</title>
<path fill="none" stroke="midnightblue" d="M383.56,-51.73C403.18,-41.73 429.53,-28.31 446.51,-19.65"/>
<polygon fill="midnightblue" stroke="midnightblue" points="381.85,-48.67 374.53,-56.32 385.03,-54.9 381.85,-48.67"/>
</g>
<!-- Node6 -->
<g id="node6" class="node">
<title>Node6</title>
<g id="a_node6"><a xlink:href="interactions_8cpp.html" target="_top" xlink:title=" ">
<polygon fill="none" stroke="black" points="510,-0.5 510,-19.5 605,-19.5 605,-0.5 510,-0.5"/>
<text text-anchor="middle" x="557.5" y="-7.5" font-family="Helvetica,sans-Serif" font-size="10.00">interactions.cpp</text>
</a>
</g>
</g>
<!-- Node1&#45;&gt;Node6 -->
<g id="edge5" class="edge">
<title>Node1&#45;&gt;Node6</title>
<path fill="none" stroke="midnightblue" d="M398.87,-53.83C436.64,-43.63 491.64,-28.78 525.96,-19.52"/>
<polygon fill="midnightblue" stroke="midnightblue" points="397.93,-50.46 389.19,-56.44 399.76,-57.22 397.93,-50.46"/>
</g>
</g>
</svg>
