<?xml version="1.0" encoding="UTF-8" standalone="no"?>
<!DOCTYPE svg PUBLIC "-//W3C//DTD SVG 1.1//EN"
 "http://www.w3.org/Graphics/SVG/1.1/DTD/svg11.dtd">
<!-- Generated by graphviz version 2.43.0 (0)
 -->
<!-- Title: cart_comm.hpp Pages: 1 -->
<!--zoomable 263 -->
<svg id="main" version="1.1" xmlns="http://www.w3.org/2000/svg" xmlns:xlink="http://www.w3.org/1999/xlink" xml:space="preserve" onload="init(evt)">
<style type="text/css"><![CDATA[
.edge:hover path { stroke: red; }
.edge:hover polygon { stroke: red; fill: red; }
]]></style>
<script type="text/javascript"><![CDATA[
var edges = document.getElementsByTagName('g');
if (edges && edges.length) {
  for (var i=0;i<edges.length;i++) {
    if (edges[i].id.substr(0,4)=='edge') {
      edges[i].setAttribute('class','edge');
    }
  }
}
]]></script>
        <defs>
                <circle id="rim" cx="0" cy="0" r="7"/>
                <circle id="rim2" cx="0" cy="0" r="3.5"/>
                <g id="zoomPlus">
                        <use xlink:href="#rim" fill="#404040">
                                <set attributeName="fill" to="#808080" begin="zoomplus.mouseover" end="zoomplus.mouseout"/>
                        </use>
                        <path d="M-4,0h8M0,-4v8" fill="none" stroke="white" stroke-width="1.5" pointer-events="none"/>
                </g>
                <g id="zoomMin">
                        <use xlink:href="#rim" fill="#404040">
                                <set attributeName="fill" to="#808080" begin="zoomminus.mouseover" end="zoomminus.mouseout"/>
                        </use>
                        <path d="M-4,0h8" fill="none" stroke="white" stroke-width="1.5" pointer-events="none"/>
                </g>
                <g id="dirArrow">
                        <path fill="none" stroke="white" stroke-width="1.5" d="M0,-3.0v7 M-2.5,-0.5L0,-3.0L2.5,-0.5"/>
                </g>
               <g id="resetDef">
                       <use xlink:href="#rim2" fill="#404040">
                               <set attributeName="fill" to="#808080" begin="reset.mouseover" end="reset.mouseout"/>
                       </use>
               </g>
        </defs>

<script type="text/javascript">
var viewWidth = 1410;
var viewHeight = 263;
var sectionId = 'dynsection-0';
</script>
<script xlink:href="svgpan.js"/>
<svg id="graph" class="graph">
<g id="viewport">
<title>cart_comm.hpp</title>
<!-- Node1 -->
<g id="node1" class="node">
<title>Node1</title>
<g id="a_node1"><a xlink:title=" ">
<polygon fill="#bfbfbf" stroke="black" points="944.5,-235.5 944.5,-254.5 1036.5,-254.5 1036.5,-235.5 944.5,-235.5"/>
<text text-anchor="middle" x="990.5" y="-242.5" font-family="Helvetica,sans-Serif" font-size="10.00">cart_comm.hpp</text>
</a>
</g>
</g>
<!-- Node2 -->
<g id="node2" class="node">
<title>Node2</title>
<g id="a_node2"><a xlink:href="Vector_8hpp.html" target="_top" xlink:title=" ">
<polygon fill="none" stroke="black" points="716,-179.5 716,-198.5 809,-198.5 809,-179.5 716,-179.5"/>
<text text-anchor="middle" x="762.5" y="-186.5" font-family="Helvetica,sans-Serif" font-size="10.00">utils/Vector.hpp</text>
</a>
</g>
</g>
<!-- Node1&#45;&gt;Node2 -->
<g id="edge1" class="edge">
<title>Node1&#45;&gt;Node2</title>
<path fill="none" stroke="midnightblue" d="M954.37,-235.44C914.85,-226.08 851.4,-211.06 808.39,-200.87"/>
<polygon fill="midnightblue" stroke="midnightblue" points="809,-197.42 798.46,-198.52 807.38,-204.23 809,-197.42"/>
</g>
<!-- Node9 -->
<g id="node9" class="node">
<title>Node9</title>
<g id="a_node9"><a xlink:title=" ">
<polygon fill="none" stroke="#bfbfbf" points="0,-0.5 0,-19.5 53,-19.5 53,-0.5 0,-0.5"/>
<text text-anchor="middle" x="26.5" y="-7.5" font-family="Helvetica,sans-Serif" font-size="10.00">cstddef</text>
</a>
</g>
</g>
<!-- Node1&#45;&gt;Node9 -->
<g id="edge29" class="edge">
<title>Node1&#45;&gt;Node9</title>
<path fill="none" stroke="midnightblue" d="M944.32,-242.85C781.36,-238.16 234.63,-217.15 78.5,-143 46.42,-127.76 35.24,-119.75 21.5,-87 13.77,-68.57 16.91,-45.42 20.78,-29.54"/>
<polygon fill="midnightblue" stroke="midnightblue" points="24.16,-30.42 23.45,-19.85 17.42,-28.56 24.16,-30.42"/>
</g>
<!-- Node22 -->
<g id="node22" class="node">
<title>Node22</title>
<g id="a_node22"><a xlink:title=" ">
<polygon fill="none" stroke="#bfbfbf" points="827.5,-179.5 827.5,-198.5 987.5,-198.5 987.5,-179.5 827.5,-179.5"/>
<text text-anchor="middle" x="907.5" y="-186.5" font-family="Helvetica,sans-Serif" font-size="10.00">boost/mpi/communicator.hpp</text>
</a>
</g>
</g>
<!-- Node1&#45;&gt;Node22 -->
<g id="edge26" class="edge">
<title>Node1&#45;&gt;Node22</title>
<path fill="none" stroke="midnightblue" d="M977.16,-235.32C964.34,-226.98 944.72,-214.21 929.56,-204.35"/>
<polygon fill="midnightblue" stroke="midnightblue" points="931.09,-201.17 920.8,-198.65 927.28,-207.04 931.09,-201.17"/>
</g>
<!-- Node23 -->
<g id="node23" class="node">
<title>Node23</title>
<g id="a_node23"><a xlink:title=" ">
<polygon fill="none" stroke="#bfbfbf" points="1006,-179.5 1006,-198.5 1143,-198.5 1143,-179.5 1006,-179.5"/>
<text text-anchor="middle" x="1074.5" y="-186.5" font-family="Helvetica,sans-Serif" font-size="10.00">boost/mpi/exception.hpp</text>
</a>
</g>
</g>
<!-- Node1&#45;&gt;Node23 -->
<g id="edge27" class="edge">
<title>Node1&#45;&gt;Node23</title>
<path fill="none" stroke="midnightblue" d="M1004,-235.32C1017.1,-226.9 1037.21,-213.97 1052.61,-204.07"/>
<polygon fill="midnightblue" stroke="midnightblue" points="1054.52,-207.01 1061.04,-198.65 1050.73,-201.12 1054.52,-207.01"/>
</g>
<!-- Node24 -->
<g id="node24" class="node">
<title>Node24</title>
<g id="a_node24"><a xlink:title=" ">
<polygon fill="none" stroke="#bfbfbf" points="1161.5,-179.5 1161.5,-198.5 1205.5,-198.5 1205.5,-179.5 1161.5,-179.5"/>
<text text-anchor="middle" x="1183.5" y="-186.5" font-family="Helvetica,sans-Serif" font-size="10.00">mpi.h</text>
</a>
</g>
</g>
<!-- Node1&#45;&gt;Node24 -->
<g id="edge28" class="edge">
<title>Node1&#45;&gt;Node24</title>
<path fill="none" stroke="midnightblue" d="M1021.59,-235.48C1052.25,-227.05 1100.69,-213.67 1151.62,-199.23"/>
<polygon fill="midnightblue" stroke="midnightblue" points="1152.83,-202.52 1161.49,-196.42 1150.92,-195.79 1152.83,-202.52"/>
</g>
<!-- Node25 -->
<g id="node25" class="node">
<title>Node25</title>
<g id="a_node25"><a xlink:title=" ">
<polygon fill="none" stroke="#bfbfbf" points="1224,-179.5 1224,-198.5 1269,-198.5 1269,-179.5 1224,-179.5"/>
<text text-anchor="middle" x="1246.5" y="-186.5" font-family="Helvetica,sans-Serif" font-size="10.00">utility</text>
</a>
</g>
</g>
<!-- Node1&#45;&gt;Node25 -->
<g id="edge30" class="edge">
<title>Node1&#45;&gt;Node25</title>
<path fill="none" stroke="midnightblue" d="M1036.63,-235.79C1079.94,-227.85 1146.75,-214.99 1213.92,-198.99"/>
<polygon fill="midnightblue" stroke="midnightblue" points="1214.93,-202.35 1223.83,-196.61 1213.29,-195.54 1214.93,-202.35"/>
</g>
<!-- Node3 -->
<g id="node3" class="node">
<title>Node3</title>
<g id="a_node3"><a xlink:title=" ">
<polygon fill="none" stroke="#bfbfbf" points="1251.5,-123.5 1251.5,-142.5 1401.5,-142.5 1401.5,-123.5 1251.5,-123.5"/>
<text text-anchor="middle" x="1326.5" y="-130.5" font-family="Helvetica,sans-Serif" font-size="10.00">boost/qvm/deduce_vec.hpp</text>
</a>
</g>
</g>
<!-- Node2&#45;&gt;Node3 -->
<g id="edge2" class="edge">
<title>Node2&#45;&gt;Node3</title>
<path fill="none" stroke="midnightblue" d="M809.21,-180.22C812.35,-179.78 815.47,-179.37 818.5,-179 1003.35,-156.35 1053.08,-161.04 1241.18,-143.2"/>
<polygon fill="midnightblue" stroke="midnightblue" points="1241.79,-146.66 1251.41,-142.22 1241.12,-139.69 1241.79,-146.66"/>
</g>
<!-- Node4 -->
<g id="node4" class="node">
<title>Node4</title>
<g id="a_node4"><a xlink:title=" ">
<polygon fill="none" stroke="#bfbfbf" points="209.5,-123.5 209.5,-142.5 349.5,-142.5 349.5,-123.5 209.5,-123.5"/>
<text text-anchor="middle" x="279.5" y="-130.5" font-family="Helvetica,sans-Serif" font-size="10.00">boost/qvm/vec_traits.hpp</text>
</a>
</g>
</g>
<!-- Node2&#45;&gt;Node4 -->
<g id="edge3" class="edge">
<title>Node2&#45;&gt;Node4</title>
<path fill="none" stroke="midnightblue" d="M715.84,-182.84C642.45,-174.72 495.3,-158.4 359.86,-143.15"/>
<polygon fill="midnightblue" stroke="midnightblue" points="360.04,-139.65 349.71,-142.01 359.26,-146.61 360.04,-139.65"/>
</g>
<!-- Node5 -->
<g id="node5" class="node">
<title>Node5</title>
<g id="a_node5"><a xlink:href="Array_8hpp.html" target="_top" xlink:title=" ">
<polygon fill="none" stroke="black" points="367.5,-123.5 367.5,-142.5 453.5,-142.5 453.5,-123.5 367.5,-123.5"/>
<text text-anchor="middle" x="410.5" y="-130.5" font-family="Helvetica,sans-Serif" font-size="10.00">utils/Array.hpp</text>
</a>
</g>
</g>
<!-- Node2&#45;&gt;Node5 -->
<g id="edge4" class="edge">
<title>Node2&#45;&gt;Node5</title>
<path fill="none" stroke="midnightblue" d="M715.76,-180.83C650.47,-170.81 532.31,-152.69 463.72,-142.17"/>
<polygon fill="midnightblue" stroke="midnightblue" points="463.98,-138.66 453.57,-140.61 462.92,-145.58 463.98,-138.66"/>
</g>
<!-- Node7 -->
<g id="node7" class="node">
<title>Node7</title>
<g id="a_node7"><a xlink:title=" ">
<polygon fill="none" stroke="#bfbfbf" points="498.5,-0.5 498.5,-19.5 550.5,-19.5 550.5,-0.5 498.5,-0.5"/>
<text text-anchor="middle" x="524.5" y="-7.5" font-family="Helvetica,sans-Serif" font-size="10.00">cassert</text>
</a>
</g>
</g>
<!-- Node2&#45;&gt;Node7 -->
<g id="edge17" class="edge">
<title>Node2&#45;&gt;Node7</title>
<path fill="none" stroke="midnightblue" d="M737.04,-179.45C719.71,-172.34 697.61,-160.53 684.5,-143 660.68,-111.15 690.53,-85.18 663.5,-56 637.01,-27.41 592.26,-16.93 560.7,-13.12"/>
<polygon fill="midnightblue" stroke="midnightblue" points="560.85,-9.62 550.55,-12.07 560.13,-16.58 560.85,-9.62"/>
</g>
<!-- Node2&#45;&gt;Node9 -->
<g id="edge19" class="edge">
<title>Node2&#45;&gt;Node9</title>
<path fill="none" stroke="midnightblue" d="M715.68,-188.19C618.56,-187.74 388.55,-182.18 200.5,-143 125.51,-127.38 86.37,-145.99 37.5,-87 24.37,-71.15 23.08,-46.78 24.12,-29.93"/>
<polygon fill="midnightblue" stroke="midnightblue" points="27.63,-29.95 25.09,-19.66 20.66,-29.28 27.63,-29.95"/>
</g>
<!-- Node12 -->
<g id="node12" class="node">
<title>Node12</title>
<g id="a_node12"><a xlink:title=" ">
<polygon fill="none" stroke="#bfbfbf" points="601,-62 601,-81 654,-81 654,-62 601,-62"/>
<text text-anchor="middle" x="627.5" y="-69" font-family="Helvetica,sans-Serif" font-size="10.00">iterator</text>
</a>
</g>
</g>
<!-- Node2&#45;&gt;Node12 -->
<g id="edge22" class="edge">
<title>Node2&#45;&gt;Node12</title>
<path fill="none" stroke="midnightblue" d="M718.8,-179.48C696.02,-172.98 669.28,-161.82 651.5,-143 638.07,-128.78 632.13,-106.75 629.52,-91.1"/>
<polygon fill="midnightblue" stroke="midnightblue" points="632.97,-90.47 628.15,-81.04 626.03,-91.42 632.97,-90.47"/>
</g>
<!-- Node15 -->
<g id="node15" class="node">
<title>Node15</title>
<g id="a_node15"><a xlink:title=" ">
<polygon fill="none" stroke="#bfbfbf" points="693.5,-123.5 693.5,-142.5 757.5,-142.5 757.5,-123.5 693.5,-123.5"/>
<text text-anchor="middle" x="725.5" y="-130.5" font-family="Helvetica,sans-Serif" font-size="10.00">algorithm</text>
</a>
</g>
</g>
<!-- Node2&#45;&gt;Node15 -->
<g id="edge16" class="edge">
<title>Node2&#45;&gt;Node15</title>
<path fill="none" stroke="midnightblue" d="M756.39,-179.08C751.22,-171.53 743.65,-160.49 737.31,-151.23"/>
<polygon fill="midnightblue" stroke="midnightblue" points="740.04,-149.02 731.5,-142.75 734.26,-152.98 740.04,-149.02"/>
</g>
<!-- Node16 -->
<g id="node16" class="node">
<title>Node16</title>
<g id="a_node16"><a xlink:title=" ">
<polygon fill="none" stroke="#bfbfbf" points="776,-123.5 776,-142.5 823,-142.5 823,-123.5 776,-123.5"/>
<text text-anchor="middle" x="799.5" y="-130.5" font-family="Helvetica,sans-Serif" font-size="10.00">cmath</text>
</a>
</g>
</g>
<!-- Node2&#45;&gt;Node16 -->
<g id="edge18" class="edge">
<title>Node2&#45;&gt;Node16</title>
<path fill="none" stroke="midnightblue" d="M768.61,-179.08C773.78,-171.53 781.35,-160.49 787.69,-151.23"/>
<polygon fill="midnightblue" stroke="midnightblue" points="790.74,-152.98 793.5,-142.75 784.96,-149.02 790.74,-152.98"/>
</g>
<!-- Node17 -->
<g id="node17" class="node">
<title>Node17</title>
<g id="a_node17"><a xlink:title=" ">
<polygon fill="none" stroke="#bfbfbf" points="841,-123.5 841,-142.5 906,-142.5 906,-123.5 841,-123.5"/>
<text text-anchor="middle" x="873.5" y="-130.5" font-family="Helvetica,sans-Serif" font-size="10.00">functional</text>
</a>
</g>
</g>
<!-- Node2&#45;&gt;Node17 -->
<g id="edge20" class="edge">
<title>Node2&#45;&gt;Node17</title>
<path fill="none" stroke="midnightblue" d="M780.33,-179.32C798.22,-170.62 825.98,-157.12 846.55,-147.11"/>
<polygon fill="midnightblue" stroke="midnightblue" points="848.25,-150.18 855.71,-142.65 845.19,-143.88 848.25,-150.18"/>
</g>
<!-- Node18 -->
<g id="node18" class="node">
<title>Node18</title>
<g id="a_node18"><a xlink:title=" ">
<polygon fill="none" stroke="#bfbfbf" points="924,-123.5 924,-142.5 1007,-142.5 1007,-123.5 924,-123.5"/>
<text text-anchor="middle" x="965.5" y="-130.5" font-family="Helvetica,sans-Serif" font-size="10.00">initializer_list</text>
</a>
</g>
</g>
<!-- Node2&#45;&gt;Node18 -->
<g id="edge21" class="edge">
<title>Node2&#45;&gt;Node18</title>
<path fill="none" stroke="midnightblue" d="M794.67,-179.44C829.56,-170.16 885.39,-155.31 923.67,-145.13"/>
<polygon fill="midnightblue" stroke="midnightblue" points="924.72,-148.47 933.48,-142.52 922.92,-141.7 924.72,-148.47"/>
</g>
<!-- Node19 -->
<g id="node19" class="node">
<title>Node19</title>
<g id="a_node19"><a xlink:title=" ">
<polygon fill="none" stroke="#bfbfbf" points="1025.5,-123.5 1025.5,-142.5 1081.5,-142.5 1081.5,-123.5 1025.5,-123.5"/>
<text text-anchor="middle" x="1053.5" y="-130.5" font-family="Helvetica,sans-Serif" font-size="10.00">numeric</text>
</a>
</g>
</g>
<!-- Node2&#45;&gt;Node19 -->
<g id="edge23" class="edge">
<title>Node2&#45;&gt;Node19</title>
<path fill="none" stroke="midnightblue" d="M809.06,-180.12C867.14,-170.22 964.16,-153.48 1015.36,-143.11"/>
<polygon fill="midnightblue" stroke="midnightblue" points="1016.18,-146.52 1025.26,-141.06 1014.76,-139.66 1016.18,-146.52"/>
</g>
<!-- Node20 -->
<g id="node20" class="node">
<title>Node20</title>
<g id="a_node20"><a xlink:title=" ">
<polygon fill="none" stroke="#bfbfbf" points="1100,-123.5 1100,-142.5 1169,-142.5 1169,-123.5 1100,-123.5"/>
<text text-anchor="middle" x="1134.5" y="-130.5" font-family="Helvetica,sans-Serif" font-size="10.00">type_traits</text>
</a>
</g>
</g>
<!-- Node2&#45;&gt;Node20 -->
<g id="edge24" class="edge">
<title>Node2&#45;&gt;Node20</title>
<path fill="none" stroke="midnightblue" d="M809.24,-180.39C812.37,-179.91 815.48,-179.44 818.5,-179 935.97,-161.79 968.54,-163.14 1089.9,-142.99"/>
<polygon fill="midnightblue" stroke="midnightblue" points="1090.67,-146.41 1099.96,-141.3 1089.51,-139.51 1090.67,-146.41"/>
</g>
<!-- Node21 -->
<g id="node21" class="node">
<title>Node21</title>
<g id="a_node21"><a xlink:title=" ">
<polygon fill="none" stroke="#bfbfbf" points="1187,-123.5 1187,-142.5 1234,-142.5 1234,-123.5 1187,-123.5"/>
<text text-anchor="middle" x="1210.5" y="-130.5" font-family="Helvetica,sans-Serif" font-size="10.00">vector</text>
</a>
</g>
</g>
<!-- Node2&#45;&gt;Node21 -->
<g id="edge25" class="edge">
<title>Node2&#45;&gt;Node21</title>
<path fill="none" stroke="midnightblue" d="M809.22,-180.28C812.36,-179.82 815.47,-179.39 818.5,-179 974.68,-158.66 1018.71,-172.3 1176.76,-143.04"/>
<polygon fill="midnightblue" stroke="midnightblue" points="1177.66,-146.44 1186.84,-141.15 1176.37,-139.56 1177.66,-146.44"/>
</g>
<!-- Node6 -->
<g id="node6" class="node">
<title>Node6</title>
<g id="a_node6"><a xlink:href="device__qualifier_8hpp.html" target="_top" xlink:title=" ">
<polygon fill="none" stroke="black" points="466.5,-62 466.5,-81 582.5,-81 582.5,-62 466.5,-62"/>
<text text-anchor="middle" x="524.5" y="-69" font-family="Helvetica,sans-Serif" font-size="10.00">device_qualifier.hpp</text>
</a>
</g>
</g>
<!-- Node5&#45;&gt;Node6 -->
<g id="edge5" class="edge">
<title>Node5&#45;&gt;Node6</title>
<path fill="none" stroke="midnightblue" d="M426.83,-123.48C445.71,-113.62 477.01,-97.29 499.08,-85.77"/>
<polygon fill="midnightblue" stroke="midnightblue" points="500.95,-88.74 508.2,-81.01 497.71,-82.53 500.95,-88.74"/>
</g>
<!-- Node5&#45;&gt;Node7 -->
<g id="edge11" class="edge">
<title>Node5&#45;&gt;Node7</title>
<path fill="none" stroke="midnightblue" d="M414.4,-123.21C421.4,-108.15 437.27,-77.01 457.5,-56 469.5,-43.54 485.52,-32.62 498.88,-24.67"/>
<polygon fill="midnightblue" stroke="midnightblue" points="500.7,-27.66 507.63,-19.65 497.21,-21.59 500.7,-27.66"/>
</g>
<!-- Node8 -->
<g id="node8" class="node">
<title>Node8</title>
<g id="a_node8"><a xlink:href="get_8hpp.html" target="_top" xlink:title=" ">
<polygon fill="none" stroke="black" points="357,-62 357,-81 410,-81 410,-62 357,-62"/>
<text text-anchor="middle" x="383.5" y="-69" font-family="Helvetica,sans-Serif" font-size="10.00">get.hpp</text>
</a>
</g>
</g>
<!-- Node5&#45;&gt;Node8 -->
<g id="edge7" class="edge">
<title>Node5&#45;&gt;Node8</title>
<path fill="none" stroke="midnightblue" d="M406.63,-123.48C402.7,-114.82 396.5,-101.15 391.51,-90.15"/>
<polygon fill="midnightblue" stroke="midnightblue" points="394.68,-88.67 387.36,-81.01 388.31,-91.56 394.68,-88.67"/>
</g>
<!-- Node5&#45;&gt;Node9 -->
<g id="edge12" class="edge">
<title>Node5&#45;&gt;Node9</title>
<path fill="none" stroke="midnightblue" d="M367.4,-124.37C364.39,-123.89 361.4,-123.43 358.5,-123 293.38,-113.38 118.28,-124.95 64.5,-87 45.34,-73.48 35.32,-47.43 30.48,-29.64"/>
<polygon fill="midnightblue" stroke="midnightblue" points="33.85,-28.71 28.1,-19.81 27.05,-30.36 33.85,-28.71"/>
</g>
<!-- Node11 -->
<g id="node11" class="node">
<title>Node11</title>
<g id="a_node11"><a xlink:title=" ">
<polygon fill="none" stroke="#bfbfbf" points="74,-56.5 74,-86.5 181,-86.5 181,-56.5 74,-56.5"/>
<text text-anchor="start" x="82" y="-74.5" font-family="Helvetica,sans-Serif" font-size="10.00">boost/serialization</text>
<text text-anchor="middle" x="127.5" y="-63.5" font-family="Helvetica,sans-Serif" font-size="10.00">/access.hpp</text>
</a>
</g>
</g>
<!-- Node5&#45;&gt;Node11 -->
<g id="edge10" class="edge">
<title>Node5&#45;&gt;Node11</title>
<path fill="none" stroke="midnightblue" d="M367.23,-123.57C324.71,-115.21 257.73,-101.8 191.08,-87.31"/>
<polygon fill="midnightblue" stroke="midnightblue" points="191.76,-83.88 181.25,-85.17 190.27,-90.72 191.76,-83.88"/>
</g>
<!-- Node5&#45;&gt;Node12 -->
<g id="edge13" class="edge">
<title>Node5&#45;&gt;Node12</title>
<path fill="none" stroke="midnightblue" d="M451.94,-123.42C488.92,-115.36 544.37,-102.27 591.5,-87 593.64,-86.31 595.82,-85.55 598.02,-84.76"/>
<polygon fill="midnightblue" stroke="midnightblue" points="599.41,-87.97 607.5,-81.13 596.91,-81.43 599.41,-87.97"/>
</g>
<!-- Node13 -->
<g id="node13" class="node">
<title>Node13</title>
<g id="a_node13"><a xlink:title=" ">
<polygon fill="none" stroke="#bfbfbf" points="199,-62 199,-81 256,-81 256,-62 199,-62"/>
<text text-anchor="middle" x="227.5" y="-69" font-family="Helvetica,sans-Serif" font-size="10.00">ostream</text>
</a>
</g>
</g>
<!-- Node5&#45;&gt;Node13 -->
<g id="edge14" class="edge">
<title>Node5&#45;&gt;Node13</title>
<path fill="none" stroke="midnightblue" d="M380.37,-123.43C350.7,-114.82 304.19,-100.87 264.5,-87 262.38,-86.26 260.21,-85.47 258.02,-84.67"/>
<polygon fill="midnightblue" stroke="midnightblue" points="259.12,-81.34 248.53,-81.05 256.63,-87.88 259.12,-81.34"/>
</g>
<!-- Node14 -->
<g id="node14" class="node">
<title>Node14</title>
<g id="a_node14"><a xlink:title=" ">
<polygon fill="none" stroke="#bfbfbf" points="274,-62 274,-81 339,-81 339,-62 274,-62"/>
<text text-anchor="middle" x="306.5" y="-69" font-family="Helvetica,sans-Serif" font-size="10.00">stdexcept</text>
</a>
</g>
</g>
<!-- Node5&#45;&gt;Node14 -->
<g id="edge15" class="edge">
<title>Node5&#45;&gt;Node14</title>
<path fill="none" stroke="midnightblue" d="M395.6,-123.48C378.53,-113.71 350.34,-97.58 330.24,-86.08"/>
<polygon fill="midnightblue" stroke="midnightblue" points="331.79,-82.94 321.37,-81.01 328.31,-89.01 331.79,-82.94"/>
</g>
<!-- Node6&#45;&gt;Node7 -->
<g id="edge6" class="edge">
<title>Node6&#45;&gt;Node7</title>
<path fill="none" stroke="midnightblue" d="M524.5,-61.98C524.5,-53.58 524.5,-40.48 524.5,-29.66"/>
<polygon fill="midnightblue" stroke="midnightblue" points="528,-29.51 524.5,-19.51 521,-29.51 528,-29.51"/>
</g>
<!-- Node8&#45;&gt;Node9 -->
<g id="edge8" class="edge">
<title>Node8&#45;&gt;Node9</title>
<path fill="none" stroke="midnightblue" d="M365.28,-61.93C359.97,-59.71 354.08,-57.52 348.5,-56 247.54,-28.51 123.96,-17.24 63.45,-13.11"/>
<polygon fill="midnightblue" stroke="midnightblue" points="63.46,-9.6 53.25,-12.44 63,-16.59 63.46,-9.6"/>
</g>
<!-- Node10 -->
<g id="node10" class="node">
<title>Node10</title>
<g id="a_node10"><a xlink:title=" ">
<polygon fill="none" stroke="#bfbfbf" points="363,-0.5 363,-19.5 404,-19.5 404,-0.5 363,-0.5"/>
<text text-anchor="middle" x="383.5" y="-7.5" font-family="Helvetica,sans-Serif" font-size="10.00">tuple</text>
</a>
</g>
</g>
<!-- Node8&#45;&gt;Node10 -->
<g id="edge9" class="edge">
<title>Node8&#45;&gt;Node10</title>
<path fill="none" stroke="midnightblue" d="M383.5,-61.98C383.5,-53.58 383.5,-40.48 383.5,-29.66"/>
<polygon fill="midnightblue" stroke="midnightblue" points="387,-29.51 383.5,-19.51 380,-29.51 387,-29.51"/>
</g>
</g>
</svg>
        <g id="navigator" transform="translate(0 0)" fill="#404254">
                <rect fill="#f2f5e9" fill-opacity="0.5" stroke="#606060" stroke-width=".5" x="0" y="0" width="60" height="60"/>
                <use id="zoomplus" xlink:href="#zoomPlus" x="17" y="9" onmousedown="handleZoom(evt,'in')"/>
                <use id="zoomminus" xlink:href="#zoomMin" x="42" y="9" onmousedown="handleZoom(evt,'out')"/>
                <use id="reset" xlink:href="#resetDef" x="30" y="36" onmousedown="handleReset()"/>
                <g id="arrowUp" xlink:href="#dirArrow" transform="translate(30 24)" onmousedown="handlePan(0,-1)">
                  <use xlink:href="#rim" fill="#404040">
                        <set attributeName="fill" to="#808080" begin="arrowUp.mouseover" end="arrowUp.mouseout"/>
                  </use>
                  <path fill="none" stroke="white" stroke-width="1.5" d="M0,-3.0v7 M-2.5,-0.5L0,-3.0L2.5,-0.5"/>
                </g>
                <g id="arrowRight" xlink:href="#dirArrow" transform="rotate(90) translate(36 -43)" onmousedown="handlePan(1,0)">
                  <use xlink:href="#rim" fill="#404040">
                        <set attributeName="fill" to="#808080" begin="arrowRight.mouseover" end="arrowRight.mouseout"/>
                  </use>
                  <path fill="none" stroke="white" stroke-width="1.5" d="M0,-3.0v7 M-2.5,-0.5L0,-3.0L2.5,-0.5"/>
                </g>
                <g id="arrowDown" xlink:href="#dirArrow" transform="rotate(180) translate(-30 -48)" onmousedown="handlePan(0,1)">
                  <use xlink:href="#rim" fill="#404040">
                        <set attributeName="fill" to="#808080" begin="arrowDown.mouseover" end="arrowDown.mouseout"/>
                  </use>
                  <path fill="none" stroke="white" stroke-width="1.5" d="M0,-3.0v7 M-2.5,-0.5L0,-3.0L2.5,-0.5"/>
                </g>
                <g id="arrowLeft" xlink:href="#dirArrow" transform="rotate(270) translate(-36 17)" onmousedown="handlePan(-1,0)">
                  <use xlink:href="#rim" fill="#404040">
                        <set attributeName="fill" to="#808080" begin="arrowLeft.mouseover" end="arrowLeft.mouseout"/>
                  </use>
                  <path fill="none" stroke="white" stroke-width="1.5" d="M0,-3.0v7 M-2.5,-0.5L0,-3.0L2.5,-0.5"/>
                </g>
        </g>
        <svg viewBox="0 0 15 15" width="100%" height="30px" preserveAspectRatio="xMaxYMin meet">
         <g id="arrow_out" transform="scale(0.3 0.3)">
          <a xlink:href="cart__comm_8hpp__incl_org.svg" target="_base">
           <rect id="button" ry="5" rx="5" y="6" x="6" height="38" width="38"
                fill="#f2f5e9" fill-opacity="0.5" stroke="#606060" stroke-width="1.0"/>
           <path id="arrow"
             d="M 11.500037,31.436501 C 11.940474,20.09759 22.043105,11.32322 32.158766,21.979434 L 37.068811,17.246167 C 37.068811,17.246167 37.088388,32 37.088388,32 L 22.160133,31.978069 C 22.160133,31.978069 26.997745,27.140456 26.997745,27.140456 C 18.528582,18.264221 13.291696,25.230495 11.500037,31.436501 z"
             style="fill:#404040;"/>
          </a>
         </g>
        </svg>
</svg>
