<?xml version="1.0" encoding="UTF-8" standalone="no"?>
<!DOCTYPE svg PUBLIC "-//W3C//DTD SVG 1.1//EN"
 "http://www.w3.org/Graphics/SVG/1.1/DTD/svg11.dtd">
<!-- Generated by graphviz version 2.43.0 (0)
 -->
<!-- Title: Observables::PidObservable Pages: 1 -->
<!--zoomable 531 -->
<svg id="main" version="1.1" xmlns="http://www.w3.org/2000/svg" xmlns:xlink="http://www.w3.org/1999/xlink" xml:space="preserve" onload="init(evt)">
<style type="text/css"><![CDATA[
.edge:hover path { stroke: red; }
.edge:hover polygon { stroke: red; fill: red; }
]]></style>
<script type="text/javascript"><![CDATA[
var edges = document.getElementsByTagName('g');
if (edges && edges.length) {
  for (var i=0;i<edges.length;i++) {
    if (edges[i].id.substr(0,4)=='edge') {
      edges[i].setAttribute('class','edge');
    }
  }
}
]]></script>
        <defs>
                <circle id="rim" cx="0" cy="0" r="7"/>
                <circle id="rim2" cx="0" cy="0" r="3.5"/>
                <g id="zoomPlus">
                        <use xlink:href="#rim" fill="#404040">
                                <set attributeName="fill" to="#808080" begin="zoomplus.mouseover" end="zoomplus.mouseout"/>
                        </use>
                        <path d="M-4,0h8M0,-4v8" fill="none" stroke="white" stroke-width="1.5" pointer-events="none"/>
                </g>
                <g id="zoomMin">
                        <use xlink:href="#rim" fill="#404040">
                                <set attributeName="fill" to="#808080" begin="zoomminus.mouseover" end="zoomminus.mouseout"/>
                        </use>
                        <path d="M-4,0h8" fill="none" stroke="white" stroke-width="1.5" pointer-events="none"/>
                </g>
                <g id="dirArrow">
                        <path fill="none" stroke="white" stroke-width="1.5" d="M0,-3.0v7 M-2.5,-0.5L0,-3.0L2.5,-0.5"/>
                </g>
               <g id="resetDef">
                       <use xlink:href="#rim2" fill="#404040">
                               <set attributeName="fill" to="#808080" begin="reset.mouseover" end="reset.mouseout"/>
                       </use>
               </g>
        </defs>

<script type="text/javascript">
var viewWidth = 785;
var viewHeight = 531;
var sectionId = 'dynsection-0';
</script>
<script xlink:href="svgpan.js"/>
<svg id="graph" class="graph">
<g id="viewport">
<title>Observables::PidObservable</title>
<!-- Node1 -->
<g id="node1" class="node">
<title>Node1</title>
<g id="a_node1"><a xlink:title="Particle&#45;based observable.">
<polygon fill="#bfbfbf" stroke="black" points="175,-249 175,-268 329,-268 329,-249 175,-249"/>
<text text-anchor="middle" x="252" y="-256" font-family="Helvetica,sans-Serif" font-size="10.00">Observables::PidObservable</text>
</a>
</g>
</g>
<!-- Node3 -->
<g id="node3" class="node">
<title>Node3</title>
<g id="a_node3"><a xlink:href="classObservables_1_1BondAngles.html" target="_top" xlink:title="Calculate bond angles between particles in a polymer.">
<polygon fill="none" stroke="black" points="387,-503 387,-522 528,-522 528,-503 387,-503"/>
<text text-anchor="middle" x="457.5" y="-510" font-family="Helvetica,sans-Serif" font-size="10.00">Observables::BondAngles</text>
</a>
</g>
</g>
<!-- Node1&#45;&gt;Node3 -->
<g id="edge2" class="edge">
<title>Node1&#45;&gt;Node3</title>
<path fill="none" stroke="midnightblue" d="M256.34,-278.34C265.14,-324.09 293.4,-437.31 365,-493.5 371.51,-498.61 379.06,-502.44 386.97,-505.29"/>
<polygon fill="midnightblue" stroke="midnightblue" points="259.78,-277.69 254.55,-268.48 252.89,-278.94 259.78,-277.69"/>
</g>
<!-- Node4 -->
<g id="node4" class="node">
<title>Node4</title>
<g id="a_node4"><a xlink:href="classObservables_1_1BondDihedrals.html" target="_top" xlink:title="Calculate dihedral angles between particles in a polymer.">
<polygon fill="none" stroke="black" points="380,-465 380,-484 535,-484 535,-465 380,-465"/>
<text text-anchor="middle" x="457.5" y="-472" font-family="Helvetica,sans-Serif" font-size="10.00">Observables::BondDihedrals</text>
</a>
</g>
</g>
<!-- Node1&#45;&gt;Node4 -->
<g id="edge3" class="edge">
<title>Node1&#45;&gt;Node4</title>
<path fill="none" stroke="midnightblue" d="M258.21,-278.09C269.95,-318.26 302.49,-409.99 365,-455.5 370.25,-459.32 376.09,-462.41 382.21,-464.9"/>
<polygon fill="midnightblue" stroke="midnightblue" points="261.51,-276.89 255.44,-268.21 254.76,-278.78 261.51,-276.89"/>
</g>
<!-- Node5 -->
<g id="node5" class="node">
<title>Node5</title>
<g id="a_node5"><a xlink:href="classObservables_1_1CosPersistenceAngles.html" target="_top" xlink:title="Calculate bond angles in a polymer.">
<polygon fill="none" stroke="black" points="378.5,-415.5 378.5,-445.5 536.5,-445.5 536.5,-415.5 378.5,-415.5"/>
<text text-anchor="start" x="386.5" y="-433.5" font-family="Helvetica,sans-Serif" font-size="10.00">Observables::CosPersistence</text>
<text text-anchor="middle" x="457.5" y="-422.5" font-family="Helvetica,sans-Serif" font-size="10.00">Angles</text>
</a>
</g>
</g>
<!-- Node1&#45;&gt;Node5 -->
<g id="edge4" class="edge">
<title>Node1&#45;&gt;Node5</title>
<path fill="none" stroke="midnightblue" d="M261.93,-277.31C277.97,-309 314.74,-372.87 365,-406.5 370.19,-409.97 375.85,-412.94 381.73,-415.48"/>
<polygon fill="midnightblue" stroke="midnightblue" points="265.02,-275.65 257.46,-268.23 258.74,-278.74 265.02,-275.65"/>
</g>
<!-- Node6 -->
<g id="node6" class="node">
<title>Node6</title>
<g id="a_node6"><a xlink:href="classObservables_1_1CylindricalPidProfileObservable.html" target="_top" xlink:title=" ">
<polygon fill="none" stroke="black" points="390,-366.5 390,-396.5 525,-396.5 525,-366.5 390,-366.5"/>
<text text-anchor="start" x="398" y="-384.5" font-family="Helvetica,sans-Serif" font-size="10.00">Observables::Cylindrical</text>
<text text-anchor="middle" x="457.5" y="-373.5" font-family="Helvetica,sans-Serif" font-size="10.00">PidProfileObservable</text>
</a>
</g>
</g>
<!-- Node1&#45;&gt;Node6 -->
<g id="edge5" class="edge">
<title>Node1&#45;&gt;Node6</title>
<path fill="none" stroke="midnightblue" d="M267.62,-275.66C287.44,-297.85 325,-336.16 365,-357.5 372.68,-361.6 381.1,-365.03 389.63,-367.89"/>
<polygon fill="midnightblue" stroke="midnightblue" points="270.14,-273.23 260.92,-268.02 264.88,-277.84 270.14,-273.23"/>
</g>
<!-- Node12 -->
<g id="node12" class="node">
<title>Node12</title>
<g id="a_node12"><a xlink:href="classObservables_1_1ParticleAngularVelocities.html" target="_top" xlink:title=" ">
<polygon fill="none" stroke="black" points="378.5,-317.5 378.5,-347.5 536.5,-347.5 536.5,-317.5 378.5,-317.5"/>
<text text-anchor="start" x="386.5" y="-335.5" font-family="Helvetica,sans-Serif" font-size="10.00">Observables::ParticleAngular</text>
<text text-anchor="middle" x="457.5" y="-324.5" font-family="Helvetica,sans-Serif" font-size="10.00">Velocities</text>
</a>
</g>
</g>
<!-- Node1&#45;&gt;Node12 -->
<g id="edge11" class="edge">
<title>Node1&#45;&gt;Node12</title>
<path fill="none" stroke="midnightblue" d="M281.26,-272.67C303.6,-283.48 335.78,-298.22 365,-308.5 374.14,-311.71 383.93,-314.72 393.58,-317.45"/>
<polygon fill="midnightblue" stroke="midnightblue" points="282.56,-269.4 272.03,-268.15 279.48,-275.69 282.56,-269.4"/>
</g>
<!-- Node13 -->
<g id="node13" class="node">
<title>Node13</title>
<g id="a_node13"><a xlink:href="classObservables_1_1ParticleBodyAngularVelocities.html" target="_top" xlink:title=" ">
<polygon fill="none" stroke="black" points="385,-268.5 385,-298.5 530,-298.5 530,-268.5 385,-268.5"/>
<text text-anchor="start" x="393" y="-286.5" font-family="Helvetica,sans-Serif" font-size="10.00">Observables::ParticleBody</text>
<text text-anchor="middle" x="457.5" y="-275.5" font-family="Helvetica,sans-Serif" font-size="10.00">AngularVelocities</text>
</a>
</g>
</g>
<!-- Node1&#45;&gt;Node13 -->
<g id="edge12" class="edge">
<title>Node1&#45;&gt;Node13</title>
<path fill="none" stroke="midnightblue" d="M339.02,-269.07C354.31,-270.95 370.08,-272.88 384.9,-274.7"/>
<polygon fill="midnightblue" stroke="midnightblue" points="339.42,-265.59 329.07,-267.84 338.56,-272.54 339.42,-265.59"/>
</g>
<!-- Node14 -->
<g id="node14" class="node">
<title>Node14</title>
<g id="a_node14"><a xlink:href="classObservables_1_1ParticleBodyVelocities.html" target="_top" xlink:title=" ">
<polygon fill="none" stroke="black" points="385,-219.5 385,-249.5 530,-249.5 530,-219.5 385,-219.5"/>
<text text-anchor="start" x="393" y="-237.5" font-family="Helvetica,sans-Serif" font-size="10.00">Observables::ParticleBody</text>
<text text-anchor="middle" x="457.5" y="-226.5" font-family="Helvetica,sans-Serif" font-size="10.00">Velocities</text>
</a>
</g>
</g>
<!-- Node1&#45;&gt;Node14 -->
<g id="edge13" class="edge">
<title>Node1&#45;&gt;Node14</title>
<path fill="none" stroke="midnightblue" d="M339.02,-248.35C354.31,-246.55 370.08,-244.69 384.9,-242.94"/>
<polygon fill="midnightblue" stroke="midnightblue" points="338.59,-244.88 329.07,-249.53 339.41,-251.83 338.59,-244.88"/>
</g>
<!-- Node15 -->
<g id="node15" class="node">
<title>Node15</title>
<g id="a_node15"><a xlink:href="classObservables_1_1ParticleDistances.html" target="_top" xlink:title="Calculate distances between particles in a polymer.">
<polygon fill="none" stroke="black" points="373.5,-181 373.5,-200 541.5,-200 541.5,-181 373.5,-181"/>
<text text-anchor="middle" x="457.5" y="-188" font-family="Helvetica,sans-Serif" font-size="10.00">Observables::ParticleDistances</text>
</a>
</g>
</g>
<!-- Node1&#45;&gt;Node15 -->
<g id="edge14" class="edge">
<title>Node1&#45;&gt;Node15</title>
<path fill="none" stroke="midnightblue" d="M280.76,-244.42C303.05,-233.59 335.41,-218.93 365,-209.5 376.59,-205.8 389.25,-202.64 401.35,-200.02"/>
<polygon fill="midnightblue" stroke="midnightblue" points="278.99,-241.39 271.56,-248.95 282.08,-247.67 278.99,-241.39"/>
</g>
<!-- Node16 -->
<g id="node16" class="node">
<title>Node16</title>
<g id="a_node16"><a xlink:href="classObservables_1_1ParticleForces.html" target="_top" xlink:title="Extract particle forces.">
<polygon fill="none" stroke="black" points="381.5,-143 381.5,-162 533.5,-162 533.5,-143 381.5,-143"/>
<text text-anchor="middle" x="457.5" y="-150" font-family="Helvetica,sans-Serif" font-size="10.00">Observables::ParticleForces</text>
</a>
</g>
</g>
<!-- Node1&#45;&gt;Node16 -->
<g id="edge15" class="edge">
<title>Node1&#45;&gt;Node16</title>
<path fill="none" stroke="midnightblue" d="M269.42,-241.72C289.91,-221.8 326.91,-189.09 365,-171.5 373.4,-167.62 382.59,-164.53 391.81,-162.07"/>
<polygon fill="midnightblue" stroke="midnightblue" points="266.81,-239.38 262.17,-248.91 271.74,-244.35 266.81,-239.38"/>
</g>
<!-- Node17 -->
<g id="node17" class="node">
<title>Node17</title>
<g id="a_node17"><a xlink:href="classObservables_1_1ParticleObservable.html" target="_top" xlink:title="This class implements an interface to the particle_observables library that implements necessary algo...">
<polygon fill="none" stroke="black" points="369.5,-93.5 369.5,-123.5 545.5,-123.5 545.5,-93.5 369.5,-93.5"/>
<text text-anchor="start" x="377.5" y="-111.5" font-family="Helvetica,sans-Serif" font-size="10.00">Observables::ParticleObservable</text>
<text text-anchor="middle" x="457.5" y="-100.5" font-family="Helvetica,sans-Serif" font-size="10.00">&lt; ObsType &gt;</text>
</a>
</g>
</g>
<!-- Node1&#45;&gt;Node17 -->
<g id="edge16" class="edge">
<title>Node1&#45;&gt;Node17</title>
<path fill="none" stroke="midnightblue" d="M264.21,-240.41C282.11,-213.07 319.77,-161.45 365,-133.5 371.3,-129.6 378.22,-126.31 385.34,-123.52"/>
<polygon fill="midnightblue" stroke="midnightblue" points="261.17,-238.68 258.73,-248.99 267.06,-242.45 261.17,-238.68"/>
</g>
<!-- Node18 -->
<g id="node18" class="node">
<title>Node18</title>
<g id="a_node18"><a xlink:href="classObservables_1_1PidProfileObservable.html" target="_top" xlink:title=" ">
<polygon fill="none" stroke="black" points="365,-55 365,-74 550,-74 550,-55 365,-55"/>
<text text-anchor="middle" x="457.5" y="-62" font-family="Helvetica,sans-Serif" font-size="10.00">Observables::PidProfileObservable</text>
</a>
</g>
</g>
<!-- Node1&#45;&gt;Node18 -->
<g id="edge17" class="edge">
<title>Node1&#45;&gt;Node18</title>
<path fill="none" stroke="midnightblue" d="M259.6,-239.07C273.14,-202.36 307.68,-122.98 365,-83.5 370.61,-79.63 376.85,-76.53 383.35,-74.03"/>
<polygon fill="midnightblue" stroke="midnightblue" points="256.26,-238.02 256.21,-248.61 262.86,-240.36 256.26,-238.02"/>
</g>
<!-- Node22 -->
<g id="node22" class="node">
<title>Node22</title>
<g id="a_node22"><a xlink:href="classObservables_1_1TotalForce.html" target="_top" xlink:title=" ">
<polygon fill="none" stroke="black" points="391,-17 391,-36 524,-36 524,-17 391,-17"/>
<text text-anchor="middle" x="457.5" y="-24" font-family="Helvetica,sans-Serif" font-size="10.00">Observables::TotalForce</text>
</a>
</g>
</g>
<!-- Node1&#45;&gt;Node22 -->
<g id="edge21" class="edge">
<title>Node1&#45;&gt;Node22</title>
<path fill="none" stroke="midnightblue" d="M257.28,-239.09C267.69,-196.69 298.53,-95.58 365,-45.5 372.65,-39.74 381.63,-35.63 390.92,-32.7"/>
<polygon fill="midnightblue" stroke="midnightblue" points="253.84,-238.44 254.96,-248.97 260.65,-240.04 253.84,-238.44"/>
</g>
<!-- Node2 -->
<g id="node2" class="node">
<title>Node2</title>
<g id="a_node2"><a xlink:href="classObservables_1_1Observable.html" target="_top" xlink:title="Base class for observables.">
<polygon fill="none" stroke="black" points="0,-249 0,-268 139,-268 139,-249 0,-249"/>
<text text-anchor="middle" x="69.5" y="-256" font-family="Helvetica,sans-Serif" font-size="10.00">Observables::Observable</text>
</a>
</g>
</g>
<!-- Node2&#45;&gt;Node1 -->
<g id="edge1" class="edge">
<title>Node2&#45;&gt;Node1</title>
<path fill="none" stroke="midnightblue" d="M149.47,-258.5C157.92,-258.5 166.5,-258.5 174.91,-258.5"/>
<polygon fill="midnightblue" stroke="midnightblue" points="149.25,-255 139.25,-258.5 149.25,-262 149.25,-255"/>
</g>
<!-- Node7 -->
<g id="node7" class="node">
<title>Node7</title>
<g id="a_node7"><a xlink:href="classObservables_1_1CylindricalDensityProfile.html" target="_top" xlink:title=" ">
<polygon fill="none" stroke="black" points="614,-470.5 614,-500.5 749,-500.5 749,-470.5 614,-470.5"/>
<text text-anchor="start" x="622" y="-488.5" font-family="Helvetica,sans-Serif" font-size="10.00">Observables::Cylindrical</text>
<text text-anchor="middle" x="681.5" y="-477.5" font-family="Helvetica,sans-Serif" font-size="10.00">DensityProfile</text>
</a>
</g>
</g>
<!-- Node6&#45;&gt;Node7 -->
<g id="edge6" class="edge">
<title>Node6&#45;&gt;Node7</title>
<path fill="none" stroke="midnightblue" d="M534.52,-397.46C539.99,-400.03 545.22,-403.02 550,-406.5 573.62,-423.69 562.22,-444.53 586,-461.5 594.27,-467.4 603.85,-471.85 613.68,-475.21"/>
<polygon fill="midnightblue" stroke="midnightblue" points="535.7,-394.16 525.13,-393.5 532.98,-400.61 535.7,-394.16"/>
</g>
<!-- Node8 -->
<g id="node8" class="node">
<title>Node8</title>
<g id="a_node8"><a xlink:href="classObservables_1_1CylindricalFluxDensityProfile.html" target="_top" xlink:title=" ">
<polygon fill="none" stroke="black" points="614,-421.5 614,-451.5 749,-451.5 749,-421.5 614,-421.5"/>
<text text-anchor="start" x="622" y="-439.5" font-family="Helvetica,sans-Serif" font-size="10.00">Observables::Cylindrical</text>
<text text-anchor="middle" x="681.5" y="-428.5" font-family="Helvetica,sans-Serif" font-size="10.00">FluxDensityProfile</text>
</a>
</g>
</g>
<!-- Node6&#45;&gt;Node8 -->
<g id="edge7" class="edge">
<title>Node6&#45;&gt;Node8</title>
<path fill="none" stroke="midnightblue" d="M528.9,-398.94C558.16,-406.19 591.78,-414.52 619.91,-421.49"/>
<polygon fill="midnightblue" stroke="midnightblue" points="529.71,-395.54 519.16,-396.53 528.03,-402.33 529.71,-395.54"/>
</g>
<!-- Node9 -->
<g id="node9" class="node">
<title>Node9</title>
<g id="a_node9"><a xlink:href="classObservables_1_1CylindricalLBFluxDensityProfileAtParticlePositions.html" target="_top" xlink:title=" ">
<polygon fill="none" stroke="black" points="598.5,-361 598.5,-402 764.5,-402 764.5,-361 598.5,-361"/>
<text text-anchor="start" x="606.5" y="-390" font-family="Helvetica,sans-Serif" font-size="10.00">Observables::Cylindrical</text>
<text text-anchor="start" x="606.5" y="-379" font-family="Helvetica,sans-Serif" font-size="10.00">LBFluxDensityProfileAtParticle</text>
<text text-anchor="middle" x="681.5" y="-368" font-family="Helvetica,sans-Serif" font-size="10.00">Positions</text>
</a>
</g>
</g>
<!-- Node6&#45;&gt;Node9 -->
<g id="edge8" class="edge">
<title>Node6&#45;&gt;Node9</title>
<path fill="none" stroke="midnightblue" d="M535.25,-381.5C555.58,-381.5 577.61,-381.5 598.22,-381.5"/>
<polygon fill="midnightblue" stroke="midnightblue" points="535.11,-378 525.11,-381.5 535.11,-385 535.11,-378"/>
</g>
<!-- Node10 -->
<g id="node10" class="node">
<title>Node10</title>
<g id="a_node10"><a xlink:href="classObservables_1_1CylindricalLBVelocityProfileAtParticlePositions.html" target="_top" xlink:title=" ">
<polygon fill="none" stroke="black" points="586,-311.5 586,-341.5 777,-341.5 777,-311.5 586,-311.5"/>
<text text-anchor="start" x="594" y="-329.5" font-family="Helvetica,sans-Serif" font-size="10.00">Observables::Cylindrical</text>
<text text-anchor="middle" x="681.5" y="-318.5" font-family="Helvetica,sans-Serif" font-size="10.00">LBVelocityProfileAtParticlePositions</text>
</a>
</g>
</g>
<!-- Node6&#45;&gt;Node10 -->
<g id="edge9" class="edge">
<title>Node6&#45;&gt;Node10</title>
<path fill="none" stroke="midnightblue" d="M528.9,-364.06C558.16,-356.81 591.78,-348.48 619.91,-341.51"/>
<polygon fill="midnightblue" stroke="midnightblue" points="528.03,-360.67 519.16,-366.47 529.71,-367.46 528.03,-360.67"/>
</g>
<!-- Node11 -->
<g id="node11" class="node">
<title>Node11</title>
<g id="a_node11"><a xlink:href="classObservables_1_1CylindricalVelocityProfile.html" target="_top" xlink:title=" ">
<polygon fill="none" stroke="black" points="614,-262.5 614,-292.5 749,-292.5 749,-262.5 614,-262.5"/>
<text text-anchor="start" x="622" y="-280.5" font-family="Helvetica,sans-Serif" font-size="10.00">Observables::Cylindrical</text>
<text text-anchor="middle" x="681.5" y="-269.5" font-family="Helvetica,sans-Serif" font-size="10.00">VelocityProfile</text>
</a>
</g>
</g>
<!-- Node6&#45;&gt;Node11 -->
<g id="edge10" class="edge">
<title>Node6&#45;&gt;Node11</title>
<path fill="none" stroke="midnightblue" d="M534.51,-366.42C539.98,-363.89 545.22,-360.94 550,-357.5 573.71,-340.43 562.31,-319.59 586,-302.5 594.26,-296.54 603.84,-292 613.66,-288.55"/>
<polygon fill="midnightblue" stroke="midnightblue" points="533.03,-363.24 525.11,-370.28 535.69,-369.71 533.03,-363.24"/>
</g>
<!-- Node19 -->
<g id="node19" class="node">
<title>Node19</title>
<g id="a_node19"><a xlink:href="classObservables_1_1DensityProfile.html" target="_top" xlink:title=" ">
<polygon fill="none" stroke="black" points="605.5,-99 605.5,-118 757.5,-118 757.5,-99 605.5,-99"/>
<text text-anchor="middle" x="681.5" y="-106" font-family="Helvetica,sans-Serif" font-size="10.00">Observables::DensityProfile</text>
</a>
</g>
</g>
<!-- Node18&#45;&gt;Node19 -->
<g id="edge18" class="edge">
<title>Node18&#45;&gt;Node19</title>
<path fill="none" stroke="midnightblue" d="M516.56,-76.01C552.62,-83.15 598.41,-92.23 632.42,-98.97"/>
<polygon fill="midnightblue" stroke="midnightblue" points="517.16,-72.56 506.67,-74.05 515.8,-79.42 517.16,-72.56"/>
</g>
<!-- Node20 -->
<g id="node20" class="node">
<title>Node20</title>
<g id="a_node20"><a xlink:href="classObservables_1_1FluxDensityProfile.html" target="_top" xlink:title=" ">
<polygon fill="none" stroke="black" points="610.5,-49.5 610.5,-79.5 752.5,-79.5 752.5,-49.5 610.5,-49.5"/>
<text text-anchor="start" x="618.5" y="-67.5" font-family="Helvetica,sans-Serif" font-size="10.00">Observables::FluxDensity</text>
<text text-anchor="middle" x="681.5" y="-56.5" font-family="Helvetica,sans-Serif" font-size="10.00">Profile</text>
</a>
</g>
</g>
<!-- Node18&#45;&gt;Node20 -->
<g id="edge19" class="edge">
<title>Node18&#45;&gt;Node20</title>
<path fill="none" stroke="midnightblue" d="M560.49,-64.5C577.29,-64.5 594.36,-64.5 610.16,-64.5"/>
<polygon fill="midnightblue" stroke="midnightblue" points="560.08,-61 550.08,-64.5 560.08,-68 560.08,-61"/>
</g>
<!-- Node21 -->
<g id="node21" class="node">
<title>Node21</title>
<g id="a_node21"><a xlink:href="classObservables_1_1ForceDensityProfile.html" target="_top" xlink:title=" ">
<polygon fill="none" stroke="black" points="608,-0.5 608,-30.5 755,-30.5 755,-0.5 608,-0.5"/>
<text text-anchor="start" x="616" y="-18.5" font-family="Helvetica,sans-Serif" font-size="10.00">Observables::ForceDensity</text>
<text text-anchor="middle" x="681.5" y="-7.5" font-family="Helvetica,sans-Serif" font-size="10.00">Profile</text>
</a>
</g>
</g>
<!-- Node18&#45;&gt;Node21 -->
<g id="edge20" class="edge">
<title>Node18&#45;&gt;Node21</title>
<path fill="none" stroke="midnightblue" d="M515.46,-52.87C526.91,-50.47 538.84,-47.94 550,-45.5 571.57,-40.78 595.11,-35.43 616.18,-30.57"/>
<polygon fill="midnightblue" stroke="midnightblue" points="514.64,-49.46 505.56,-54.93 516.06,-56.32 514.64,-49.46"/>
</g>
</g>
</svg>
        <g id="navigator" transform="translate(0 0)" fill="#404254">
                <rect fill="#f2f5e9" fill-opacity="0.5" stroke="#606060" stroke-width=".5" x="0" y="0" width="60" height="60"/>
                <use id="zoomplus" xlink:href="#zoomPlus" x="17" y="9" onmousedown="handleZoom(evt,'in')"/>
                <use id="zoomminus" xlink:href="#zoomMin" x="42" y="9" onmousedown="handleZoom(evt,'out')"/>
                <use id="reset" xlink:href="#resetDef" x="30" y="36" onmousedown="handleReset()"/>
                <g id="arrowUp" xlink:href="#dirArrow" transform="translate(30 24)" onmousedown="handlePan(0,-1)">
                  <use xlink:href="#rim" fill="#404040">
                        <set attributeName="fill" to="#808080" begin="arrowUp.mouseover" end="arrowUp.mouseout"/>
                  </use>
                  <path fill="none" stroke="white" stroke-width="1.5" d="M0,-3.0v7 M-2.5,-0.5L0,-3.0L2.5,-0.5"/>
                </g>
                <g id="arrowRight" xlink:href="#dirArrow" transform="rotate(90) translate(36 -43)" onmousedown="handlePan(1,0)">
                  <use xlink:href="#rim" fill="#404040">
                        <set attributeName="fill" to="#808080" begin="arrowRight.mouseover" end="arrowRight.mouseout"/>
                  </use>
                  <path fill="none" stroke="white" stroke-width="1.5" d="M0,-3.0v7 M-2.5,-0.5L0,-3.0L2.5,-0.5"/>
                </g>
                <g id="arrowDown" xlink:href="#dirArrow" transform="rotate(180) translate(-30 -48)" onmousedown="handlePan(0,1)">
                  <use xlink:href="#rim" fill="#404040">
                        <set attributeName="fill" to="#808080" begin="arrowDown.mouseover" end="arrowDown.mouseout"/>
                  </use>
                  <path fill="none" stroke="white" stroke-width="1.5" d="M0,-3.0v7 M-2.5,-0.5L0,-3.0L2.5,-0.5"/>
                </g>
                <g id="arrowLeft" xlink:href="#dirArrow" transform="rotate(270) translate(-36 17)" onmousedown="handlePan(-1,0)">
                  <use xlink:href="#rim" fill="#404040">
                        <set attributeName="fill" to="#808080" begin="arrowLeft.mouseover" end="arrowLeft.mouseout"/>
                  </use>
                  <path fill="none" stroke="white" stroke-width="1.5" d="M0,-3.0v7 M-2.5,-0.5L0,-3.0L2.5,-0.5"/>
                </g>
        </g>
        <svg viewBox="0 0 15 15" width="100%" height="30px" preserveAspectRatio="xMaxYMin meet">
         <g id="arrow_out" transform="scale(0.3 0.3)">
          <a xlink:href="classObservables_1_1PidObservable__inherit__graph_org.svg" target="_base">
           <rect id="button" ry="5" rx="5" y="6" x="6" height="38" width="38"
                fill="#f2f5e9" fill-opacity="0.5" stroke="#606060" stroke-width="1.0"/>
           <path id="arrow"
             d="M 11.500037,31.436501 C 11.940474,20.09759 22.043105,11.32322 32.158766,21.979434 L 37.068811,17.246167 C 37.068811,17.246167 37.088388,32 37.088388,32 L 22.160133,31.978069 C 22.160133,31.978069 26.997745,27.140456 26.997745,27.140456 C 18.528582,18.264221 13.291696,25.230495 11.500037,31.436501 z"
             style="fill:#404040;"/>
          </a>
         </g>
        </svg>
</svg>
