<?xml version="1.0" encoding="UTF-8" standalone="no"?>
<!DOCTYPE svg PUBLIC "-//W3C//DTD SVG 1.1//EN"
 "http://www.w3.org/Graphics/SVG/1.1/DTD/svg11.dtd">
<!-- Generated by graphviz version 2.43.0 (0)
 -->
<!-- Title: communication.hpp Pages: 1 -->
<!--zoomable 263 -->
<svg id="main" version="1.1" xmlns="http://www.w3.org/2000/svg" xmlns:xlink="http://www.w3.org/1999/xlink" xml:space="preserve" onload="init(evt)">
<style type="text/css"><![CDATA[
.edge:hover path { stroke: red; }
.edge:hover polygon { stroke: red; fill: red; }
]]></style>
<script type="text/javascript"><![CDATA[
var edges = document.getElementsByTagName('g');
if (edges && edges.length) {
  for (var i=0;i<edges.length;i++) {
    if (edges[i].id.substr(0,4)=='edge') {
      edges[i].setAttribute('class','edge');
    }
  }
}
]]></script>
        <defs>
                <circle id="rim" cx="0" cy="0" r="7"/>
                <circle id="rim2" cx="0" cy="0" r="3.5"/>
                <g id="zoomPlus">
                        <use xlink:href="#rim" fill="#404040">
                                <set attributeName="fill" to="#808080" begin="zoomplus.mouseover" end="zoomplus.mouseout"/>
                        </use>
                        <path d="M-4,0h8M0,-4v8" fill="none" stroke="white" stroke-width="1.5" pointer-events="none"/>
                </g>
                <g id="zoomMin">
                        <use xlink:href="#rim" fill="#404040">
                                <set attributeName="fill" to="#808080" begin="zoomminus.mouseover" end="zoomminus.mouseout"/>
                        </use>
                        <path d="M-4,0h8" fill="none" stroke="white" stroke-width="1.5" pointer-events="none"/>
                </g>
                <g id="dirArrow">
                        <path fill="none" stroke="white" stroke-width="1.5" d="M0,-3.0v7 M-2.5,-0.5L0,-3.0L2.5,-0.5"/>
                </g>
               <g id="resetDef">
                       <use xlink:href="#rim2" fill="#404040">
                               <set attributeName="fill" to="#808080" begin="reset.mouseover" end="reset.mouseout"/>
                       </use>
               </g>
        </defs>

<script type="text/javascript">
var viewWidth = 1625;
var viewHeight = 263;
var sectionId = 'dynsection-0';
</script>
<script xlink:href="svgpan.js"/>
<svg id="graph" class="graph">
<g id="viewport">
<title>communication.hpp</title>
<!-- Node1 -->
<g id="node1" class="node">
<title>Node1</title>
<g id="a_node1"><a xlink:title=" ">
<polygon fill="#bfbfbf" stroke="black" points="832.66,-235.5 832.66,-254.5 945.66,-254.5 945.66,-235.5 832.66,-235.5"/>
<text text-anchor="middle" x="889.16" y="-242.5" font-family="Helvetica,sans-Serif" font-size="10.00">communication.hpp</text>
</a>
</g>
</g>
<!-- Node2 -->
<g id="node2" class="node">
<title>Node2</title>
<g id="a_node2"><a xlink:href="MpiCallbacks_8hpp.html" target="_top" xlink:title=" ">
<polygon fill="none" stroke="black" points="797.66,-179.5 797.66,-198.5 900.66,-198.5 900.66,-179.5 797.66,-179.5"/>
<text text-anchor="middle" x="849.16" y="-186.5" font-family="Helvetica,sans-Serif" font-size="10.00">MpiCallbacks.hpp</text>
</a>
</g>
</g>
<!-- Node1&#45;&gt;Node2 -->
<g id="edge1" class="edge">
<title>Node1&#45;&gt;Node2</title>
<path fill="none" stroke="midnightblue" d="M882.55,-235.08C876.9,-227.46 868.61,-216.26 861.7,-206.94"/>
<polygon fill="midnightblue" stroke="midnightblue" points="864.4,-204.7 855.64,-198.75 858.78,-208.87 864.4,-204.7"/>
</g>
<!-- Node15 -->
<g id="node15" class="node">
<title>Node15</title>
<g id="a_node15"><a xlink:title=" ">
<polygon fill="none" stroke="#bfbfbf" points="16.66,-56.5 16.66,-75.5 61.66,-75.5 61.66,-56.5 16.66,-56.5"/>
<text text-anchor="middle" x="39.16" y="-63.5" font-family="Helvetica,sans-Serif" font-size="10.00">utility</text>
</a>
</g>
</g>
<!-- Node1&#45;&gt;Node15 -->
<g id="edge37" class="edge">
<title>Node1&#45;&gt;Node15</title>
<path fill="none" stroke="midnightblue" d="M832.61,-243.18C670.7,-239.87 209.06,-223.42 85.16,-143 64.49,-129.59 51.7,-103.32 45.01,-85.46"/>
<polygon fill="midnightblue" stroke="midnightblue" points="48.26,-84.16 41.69,-75.85 41.65,-86.45 48.26,-84.16"/>
</g>
<!-- Node18 -->
<g id="node18" class="node">
<title>Node18</title>
<g id="a_node18"><a xlink:title=" ">
<polygon fill="none" stroke="#bfbfbf" points="1381.16,-118 1381.16,-137 1541.16,-137 1541.16,-118 1381.16,-118"/>
<text text-anchor="middle" x="1461.16" y="-125" font-family="Helvetica,sans-Serif" font-size="10.00">boost/mpi/communicator.hpp</text>
</a>
</g>
</g>
<!-- Node1&#45;&gt;Node18 -->
<g id="edge35" class="edge">
<title>Node1&#45;&gt;Node18</title>
<path fill="none" stroke="midnightblue" d="M931.68,-235.41C1034.5,-214.65 1296.33,-161.78 1408.66,-139.1"/>
<polygon fill="midnightblue" stroke="midnightblue" points="1409.63,-142.48 1418.74,-137.06 1408.24,-135.61 1409.63,-142.48"/>
</g>
<!-- Node23 -->
<g id="node23" class="node">
<title>Node23</title>
<g id="a_node23"><a xlink:title=" ">
<polygon fill="none" stroke="#bfbfbf" points="1559.16,-118 1559.16,-137 1617.16,-137 1617.16,-118 1559.16,-118"/>
<text text-anchor="middle" x="1588.16" y="-125" font-family="Helvetica,sans-Serif" font-size="10.00">memory</text>
</a>
</g>
</g>
<!-- Node1&#45;&gt;Node23 -->
<g id="edge36" class="edge">
<title>Node1&#45;&gt;Node23</title>
<path fill="none" stroke="midnightblue" d="M945.69,-239.45C1060.95,-229.28 1330.72,-200.92 1550.16,-143 1552.82,-142.3 1555.55,-141.47 1558.27,-140.58"/>
<polygon fill="midnightblue" stroke="midnightblue" points="1559.67,-143.8 1567.91,-137.14 1557.31,-137.2 1559.67,-143.8"/>
</g>
<!-- Node3 -->
<g id="node3" class="node">
<title>Node3</title>
<g id="a_node3"><a xlink:href="NumeratedContainer_8hpp.html" target="_top" xlink:title=" ">
<polygon fill="none" stroke="black" points="1161.16,-118 1161.16,-137 1325.16,-137 1325.16,-118 1161.16,-118"/>
<text text-anchor="middle" x="1243.16" y="-125" font-family="Helvetica,sans-Serif" font-size="10.00">utils/NumeratedContainer.hpp</text>
</a>
</g>
</g>
<!-- Node2&#45;&gt;Node3 -->
<g id="edge2" class="edge">
<title>Node2&#45;&gt;Node3</title>
<path fill="none" stroke="midnightblue" d="M900.66,-180.22C971.43,-169.53 1098.8,-150.3 1176.68,-138.54"/>
<polygon fill="midnightblue" stroke="midnightblue" points="1177.49,-141.96 1186.86,-137 1176.45,-135.03 1177.49,-141.96"/>
</g>
<!-- Node4 -->
<g id="node4" class="node">
<title>Node4</title>
<g id="a_node4"><a xlink:title=" ">
<polygon fill="none" stroke="#bfbfbf" points="1072.16,-56.5 1072.16,-75.5 1124.16,-75.5 1124.16,-56.5 1072.16,-56.5"/>
<text text-anchor="middle" x="1098.16" y="-63.5" font-family="Helvetica,sans-Serif" font-size="10.00">cassert</text>
</a>
</g>
</g>
<!-- Node2&#45;&gt;Node4 -->
<g id="edge27" class="edge">
<title>Node2&#45;&gt;Node4</title>
<path fill="none" stroke="midnightblue" d="M900.9,-186.8C969.92,-183.97 1086.54,-174.53 1113.16,-143 1126.93,-126.68 1117.84,-101.35 1108.95,-84.48"/>
<polygon fill="midnightblue" stroke="midnightblue" points="1111.91,-82.61 1103.92,-75.66 1105.83,-86.08 1111.91,-82.61"/>
</g>
<!-- Node8 -->
<g id="node8" class="node">
<title>Node8</title>
<g id="a_node8"><a xlink:href="as__const_8hpp.html" target="_top" xlink:title=" ">
<polygon fill="none" stroke="black" points="1342.16,-56.5 1342.16,-75.5 1446.16,-75.5 1446.16,-56.5 1342.16,-56.5"/>
<text text-anchor="middle" x="1394.16" y="-63.5" font-family="Helvetica,sans-Serif" font-size="10.00">utils/as_const.hpp</text>
</a>
</g>
</g>
<!-- Node2&#45;&gt;Node8 -->
<g id="edge7" class="edge">
<title>Node2&#45;&gt;Node8</title>
<path fill="none" stroke="midnightblue" d="M900.82,-188.27C1010.06,-188.04 1260.49,-183 1334.16,-143 1358.09,-130 1375.76,-103.02 1385.51,-84.96"/>
<polygon fill="midnightblue" stroke="midnightblue" points="1388.66,-86.48 1390.1,-75.99 1382.43,-83.29 1388.66,-86.48"/>
</g>
<!-- Node9 -->
<g id="node9" class="node">
<title>Node9</title>
<g id="a_node9"><a xlink:title=" ">
<polygon fill="none" stroke="#bfbfbf" points="378.66,-0.5 378.66,-19.5 447.66,-19.5 447.66,-0.5 378.66,-0.5"/>
<text text-anchor="middle" x="413.16" y="-7.5" font-family="Helvetica,sans-Serif" font-size="10.00">type_traits</text>
</a>
</g>
</g>
<!-- Node2&#45;&gt;Node9 -->
<g id="edge32" class="edge">
<title>Node2&#45;&gt;Node9</title>
<path fill="none" stroke="midnightblue" d="M797.22,-187.5C669.88,-185.73 350.16,-177.83 318.16,-143 269.3,-89.83 379.13,-99.18 398.16,-76 408.83,-63 412.22,-43.84 413.15,-29.69"/>
<polygon fill="midnightblue" stroke="midnightblue" points="416.66,-29.73 413.47,-19.62 409.66,-29.51 416.66,-29.73"/>
</g>
<!-- Node10 -->
<g id="node10" class="node">
<title>Node10</title>
<g id="a_node10"><a xlink:href="tuple_8hpp.html" target="_top" xlink:title=" ">
<polygon fill="none" stroke="black" points="147.16,-118 147.16,-137 233.16,-137 233.16,-118 147.16,-118"/>
<text text-anchor="middle" x="190.16" y="-125" font-family="Helvetica,sans-Serif" font-size="10.00">utils/tuple.hpp</text>
</a>
</g>
</g>
<!-- Node2&#45;&gt;Node10 -->
<g id="edge9" class="edge">
<title>Node2&#45;&gt;Node10</title>
<path fill="none" stroke="midnightblue" d="M797.26,-187.16C692.57,-184.81 448.86,-175.93 247.16,-143 241.35,-142.05 235.26,-140.79 229.32,-139.42"/>
<polygon fill="midnightblue" stroke="midnightblue" points="230.08,-136 219.53,-137.02 228.41,-142.8 230.08,-136"/>
</g>
<!-- Node12 -->
<g id="node12" class="node">
<title>Node12</title>
<g id="a_node12"><a xlink:title=" ">
<polygon fill="none" stroke="#bfbfbf" points="69.66,-0.5 69.66,-19.5 110.66,-19.5 110.66,-0.5 69.66,-0.5"/>
<text text-anchor="middle" x="90.16" y="-7.5" font-family="Helvetica,sans-Serif" font-size="10.00">tuple</text>
</a>
</g>
</g>
<!-- Node2&#45;&gt;Node12 -->
<g id="edge31" class="edge">
<title>Node2&#45;&gt;Node12</title>
<path fill="none" stroke="midnightblue" d="M797.57,-186.87C636.66,-183.08 150.79,-169.54 85.16,-143 37.01,-123.53 -19.41,-100.62 7.16,-56 18.53,-36.9 41.15,-25.41 59.9,-18.82"/>
<polygon fill="midnightblue" stroke="midnightblue" points="61.1,-22.11 69.55,-15.73 58.96,-15.45 61.1,-22.11"/>
</g>
<!-- Node13 -->
<g id="node13" class="node">
<title>Node13</title>
<g id="a_node13"><a xlink:href="type__traits_8hpp.html" target="_top" xlink:title=" ">
<polygon fill="none" stroke="black" points="252.16,-56.5 252.16,-75.5 366.16,-75.5 366.16,-56.5 252.16,-56.5"/>
<text text-anchor="middle" x="309.16" y="-63.5" font-family="Helvetica,sans-Serif" font-size="10.00">utils/type_traits.hpp</text>
</a>
</g>
</g>
<!-- Node2&#45;&gt;Node13 -->
<g id="edge21" class="edge">
<title>Node2&#45;&gt;Node13</title>
<path fill="none" stroke="midnightblue" d="M797.43,-187.78C664.6,-186.67 319.52,-180.21 285.16,-143 270.11,-126.7 283.32,-101.01 295.3,-84.09"/>
<polygon fill="midnightblue" stroke="midnightblue" points="298.4,-85.79 301.64,-75.7 292.81,-81.57 298.4,-85.79"/>
</g>
<!-- Node2&#45;&gt;Node15 -->
<g id="edge33" class="edge">
<title>Node2&#45;&gt;Node15</title>
<path fill="none" stroke="midnightblue" d="M797.53,-188.6C655.06,-189.66 258.95,-188.32 138.16,-143 104.03,-130.19 72,-101.4 54.05,-83.16"/>
<polygon fill="midnightblue" stroke="midnightblue" points="56.28,-80.42 46.84,-75.62 51.22,-85.26 56.28,-80.42"/>
</g>
<!-- Node16 -->
<g id="node16" class="node">
<title>Node16</title>
<g id="a_node16"><a xlink:title=" ">
<polygon fill="none" stroke="#bfbfbf" points="327.66,-112.5 327.66,-142.5 448.66,-142.5 448.66,-112.5 327.66,-112.5"/>
<text text-anchor="start" x="335.66" y="-130.5" font-family="Helvetica,sans-Serif" font-size="10.00">boost/mpi/collectives</text>
<text text-anchor="middle" x="388.16" y="-119.5" font-family="Helvetica,sans-Serif" font-size="10.00">/all_reduce.hpp</text>
</a>
</g>
</g>
<!-- Node2&#45;&gt;Node16 -->
<g id="edge22" class="edge">
<title>Node2&#45;&gt;Node16</title>
<path fill="none" stroke="midnightblue" d="M797.58,-183.62C724.33,-177.05 585.8,-163.39 458.6,-143.15"/>
<polygon fill="midnightblue" stroke="midnightblue" points="459.11,-139.68 448.68,-141.55 458,-146.59 459.11,-139.68"/>
</g>
<!-- Node17 -->
<g id="node17" class="node">
<title>Node17</title>
<g id="a_node17"><a xlink:title=" ">
<polygon fill="none" stroke="#bfbfbf" points="466.66,-112.5 466.66,-142.5 587.66,-142.5 587.66,-112.5 466.66,-112.5"/>
<text text-anchor="start" x="474.66" y="-130.5" font-family="Helvetica,sans-Serif" font-size="10.00">boost/mpi/collectives</text>
<text text-anchor="middle" x="527.16" y="-119.5" font-family="Helvetica,sans-Serif" font-size="10.00">/broadcast.hpp</text>
</a>
</g>
</g>
<!-- Node2&#45;&gt;Node17 -->
<g id="edge23" class="edge">
<title>Node2&#45;&gt;Node17</title>
<path fill="none" stroke="midnightblue" d="M798.67,-179.5C749.74,-171.15 673.16,-157.8 597.85,-143.3"/>
<polygon fill="midnightblue" stroke="midnightblue" points="598.2,-139.8 587.72,-141.34 596.87,-146.67 598.2,-139.8"/>
</g>
<!-- Node2&#45;&gt;Node18 -->
<g id="edge24" class="edge">
<title>Node2&#45;&gt;Node18</title>
<path fill="none" stroke="midnightblue" d="M900.74,-184.66C994.02,-178.36 1196.87,-163.51 1367.16,-143 1377.82,-141.72 1389.14,-140.15 1400.09,-138.52"/>
<polygon fill="midnightblue" stroke="midnightblue" points="1400.65,-141.98 1410.02,-137.02 1399.6,-135.06 1400.65,-141.98"/>
</g>
<!-- Node19 -->
<g id="node19" class="node">
<title>Node19</title>
<g id="a_node19"><a xlink:title=" ">
<polygon fill="none" stroke="#bfbfbf" points="605.66,-118 605.66,-137 712.66,-137 712.66,-118 605.66,-118"/>
<text text-anchor="middle" x="659.16" y="-125" font-family="Helvetica,sans-Serif" font-size="10.00">boost/optional.hpp</text>
</a>
</g>
</g>
<!-- Node2&#45;&gt;Node19 -->
<g id="edge25" class="edge">
<title>Node2&#45;&gt;Node19</title>
<path fill="none" stroke="midnightblue" d="M821.93,-179.48C788.92,-169.14 733.12,-151.66 696.2,-140.1"/>
<polygon fill="midnightblue" stroke="midnightblue" points="696.92,-136.66 686.33,-137.01 694.82,-143.34 696.92,-136.66"/>
</g>
<!-- Node20 -->
<g id="node20" class="node">
<title>Node20</title>
<g id="a_node20"><a xlink:title=" ">
<polygon fill="none" stroke="#bfbfbf" points="730.66,-112.5 730.66,-142.5 855.66,-142.5 855.66,-112.5 730.66,-112.5"/>
<text text-anchor="start" x="738.66" y="-130.5" font-family="Helvetica,sans-Serif" font-size="10.00">boost/range/algorithm</text>
<text text-anchor="middle" x="793.16" y="-119.5" font-family="Helvetica,sans-Serif" font-size="10.00">/remove_if.hpp</text>
</a>
</g>
</g>
<!-- Node2&#45;&gt;Node20 -->
<g id="edge26" class="edge">
<title>Node2&#45;&gt;Node20</title>
<path fill="none" stroke="midnightblue" d="M841.13,-179.48C833.9,-171.79 822.96,-160.17 813.36,-149.96"/>
<polygon fill="midnightblue" stroke="midnightblue" points="815.76,-147.41 806.35,-142.52 810.66,-152.2 815.76,-147.41"/>
</g>
<!-- Node21 -->
<g id="node21" class="node">
<title>Node21</title>
<g id="a_node21"><a xlink:title=" ">
<polygon fill="none" stroke="#bfbfbf" points="873.66,-118 873.66,-137 938.66,-137 938.66,-118 873.66,-118"/>
<text text-anchor="middle" x="906.16" y="-125" font-family="Helvetica,sans-Serif" font-size="10.00">functional</text>
</a>
</g>
</g>
<!-- Node2&#45;&gt;Node21 -->
<g id="edge28" class="edge">
<title>Node2&#45;&gt;Node21</title>
<path fill="none" stroke="midnightblue" d="M857.32,-179.48C866.04,-170.37 880.06,-155.74 890.84,-144.48"/>
<polygon fill="midnightblue" stroke="midnightblue" points="893.61,-146.65 898,-137.01 888.56,-141.81 893.61,-146.65"/>
</g>
<!-- Node22 -->
<g id="node22" class="node">
<title>Node22</title>
<g id="a_node22"><a xlink:title=" ">
<polygon fill="none" stroke="#bfbfbf" points="956.66,-118 956.66,-137 1039.66,-137 1039.66,-118 956.66,-118"/>
<text text-anchor="middle" x="998.16" y="-125" font-family="Helvetica,sans-Serif" font-size="10.00">initializer_list</text>
</a>
</g>
</g>
<!-- Node2&#45;&gt;Node22 -->
<g id="edge29" class="edge">
<title>Node2&#45;&gt;Node22</title>
<path fill="none" stroke="midnightblue" d="M870.5,-179.48C895.84,-169.36 938.29,-152.4 967.23,-140.85"/>
<polygon fill="midnightblue" stroke="midnightblue" points="968.86,-143.97 976.85,-137.01 966.26,-137.47 968.86,-143.97"/>
</g>
<!-- Node2&#45;&gt;Node23 -->
<g id="edge30" class="edge">
<title>Node2&#45;&gt;Node23</title>
<path fill="none" stroke="midnightblue" d="M900.78,-186.69C1040.91,-182.82 1426.23,-169.97 1550.16,-143 1553.23,-142.33 1556.39,-141.46 1559.5,-140.47"/>
<polygon fill="midnightblue" stroke="midnightblue" points="1560.92,-143.68 1569.17,-137.03 1558.57,-137.08 1560.92,-143.68"/>
</g>
<!-- Node24 -->
<g id="node24" class="node">
<title>Node24</title>
<g id="a_node24"><a xlink:title=" ">
<polygon fill="none" stroke="#bfbfbf" points="1057.66,-118 1057.66,-137 1104.66,-137 1104.66,-118 1057.66,-118"/>
<text text-anchor="middle" x="1081.16" y="-125" font-family="Helvetica,sans-Serif" font-size="10.00">vector</text>
</a>
</g>
</g>
<!-- Node2&#45;&gt;Node24 -->
<g id="edge34" class="edge">
<title>Node2&#45;&gt;Node24</title>
<path fill="none" stroke="midnightblue" d="M898.94,-179.49C939.63,-171.88 998.36,-159.4 1048.16,-143 1050.03,-142.38 1051.94,-141.7 1053.85,-140.97"/>
<polygon fill="midnightblue" stroke="midnightblue" points="1055.32,-144.15 1063.24,-137.11 1052.66,-137.68 1055.32,-144.15"/>
</g>
<!-- Node3&#45;&gt;Node4 -->
<g id="edge3" class="edge">
<title>Node3&#45;&gt;Node4</title>
<path fill="none" stroke="midnightblue" d="M1222.38,-117.98C1197.72,-107.86 1156.41,-90.9 1128.25,-79.35"/>
<polygon fill="midnightblue" stroke="midnightblue" points="1129.47,-76.07 1118.89,-75.51 1126.82,-82.54 1129.47,-76.07"/>
</g>
<!-- Node5 -->
<g id="node5" class="node">
<title>Node5</title>
<g id="a_node5"><a xlink:title=" ">
<polygon fill="none" stroke="#bfbfbf" points="204.66,-0.5 204.66,-19.5 257.66,-19.5 257.66,-0.5 204.66,-0.5"/>
<text text-anchor="middle" x="231.16" y="-7.5" font-family="Helvetica,sans-Serif" font-size="10.00">cstddef</text>
</a>
</g>
</g>
<!-- Node3&#45;&gt;Node5 -->
<g id="edge4" class="edge">
<title>Node3&#45;&gt;Node5</title>
<path fill="none" stroke="midnightblue" d="M1231.35,-117.8C1207.57,-100.46 1154.35,-62.7 1133.16,-56 951.18,1.48 464.58,-43.2 275.16,-20 272.81,-19.71 270.39,-19.37 267.97,-18.98"/>
<polygon fill="midnightblue" stroke="midnightblue" points="268.5,-15.52 258.04,-17.21 267.27,-22.41 268.5,-15.52"/>
</g>
<!-- Node6 -->
<g id="node6" class="node">
<title>Node6</title>
<g id="a_node6"><a xlink:title=" ">
<polygon fill="none" stroke="#bfbfbf" points="1180.16,-56.5 1180.16,-75.5 1212.16,-75.5 1212.16,-56.5 1180.16,-56.5"/>
<text text-anchor="middle" x="1196.16" y="-63.5" font-family="Helvetica,sans-Serif" font-size="10.00">set</text>
</a>
</g>
</g>
<!-- Node3&#45;&gt;Node6 -->
<g id="edge5" class="edge">
<title>Node3&#45;&gt;Node6</title>
<path fill="none" stroke="midnightblue" d="M1236.42,-117.98C1229.37,-109.05 1218.12,-94.81 1209.3,-83.64"/>
<polygon fill="midnightblue" stroke="midnightblue" points="1211.82,-81.19 1202.88,-75.51 1206.33,-85.53 1211.82,-81.19"/>
</g>
<!-- Node7 -->
<g id="node7" class="node">
<title>Node7</title>
<g id="a_node7"><a xlink:title=" ">
<polygon fill="none" stroke="#bfbfbf" points="1230.66,-56.5 1230.66,-75.5 1323.66,-75.5 1323.66,-56.5 1230.66,-56.5"/>
<text text-anchor="middle" x="1277.16" y="-63.5" font-family="Helvetica,sans-Serif" font-size="10.00">unordered_map</text>
</a>
</g>
</g>
<!-- Node3&#45;&gt;Node7 -->
<g id="edge6" class="edge">
<title>Node3&#45;&gt;Node7</title>
<path fill="none" stroke="midnightblue" d="M1248.03,-117.98C1253.03,-109.23 1260.95,-95.37 1267.27,-84.31"/>
<polygon fill="midnightblue" stroke="midnightblue" points="1270.37,-85.93 1272.29,-75.51 1264.29,-82.46 1270.37,-85.93"/>
</g>
<!-- Node8&#45;&gt;Node9 -->
<g id="edge8" class="edge">
<title>Node8&#45;&gt;Node9</title>
<path fill="none" stroke="midnightblue" d="M1342.1,-57.08C1338.74,-56.68 1335.4,-56.31 1332.16,-56 997.39,-23.58 591.65,-14.05 458.12,-11.69"/>
<polygon fill="midnightblue" stroke="midnightblue" points="457.94,-8.18 447.88,-11.51 457.82,-15.18 457.94,-8.18"/>
</g>
<!-- Node10&#45;&gt;Node5 -->
<g id="edge17" class="edge">
<title>Node10&#45;&gt;Node5</title>
<path fill="none" stroke="midnightblue" d="M193.24,-117.82C199.89,-99.09 215.7,-54.55 224.66,-29.29"/>
<polygon fill="midnightblue" stroke="midnightblue" points="227.99,-30.38 228.04,-19.78 221.39,-28.04 227.99,-30.38"/>
</g>
<!-- Node10&#45;&gt;Node9 -->
<g id="edge19" class="edge">
<title>Node10&#45;&gt;Node9</title>
<path fill="none" stroke="midnightblue" d="M233.26,-118.65C280.66,-109.35 353.03,-92.97 375.16,-76 390.68,-64.1 401.04,-43.89 406.97,-29.16"/>
<polygon fill="midnightblue" stroke="midnightblue" points="410.32,-30.2 410.51,-19.6 403.76,-27.76 410.32,-30.2"/>
</g>
<!-- Node11 -->
<g id="node11" class="node">
<title>Node11</title>
<g id="a_node11"><a xlink:href="get_8hpp.html" target="_top" xlink:title=" ">
<polygon fill="none" stroke="black" points="118.66,-56.5 118.66,-75.5 195.66,-75.5 195.66,-56.5 118.66,-56.5"/>
<text text-anchor="middle" x="157.16" y="-63.5" font-family="Helvetica,sans-Serif" font-size="10.00">utils/get.hpp</text>
</a>
</g>
</g>
<!-- Node10&#45;&gt;Node11 -->
<g id="edge10" class="edge">
<title>Node10&#45;&gt;Node11</title>
<path fill="none" stroke="midnightblue" d="M185.43,-117.98C180.58,-109.23 172.89,-95.37 166.76,-84.31"/>
<polygon fill="midnightblue" stroke="midnightblue" points="169.79,-82.56 161.88,-75.51 163.66,-85.95 169.79,-82.56"/>
</g>
<!-- Node10&#45;&gt;Node12 -->
<g id="edge18" class="edge">
<title>Node10&#45;&gt;Node12</title>
<path fill="none" stroke="midnightblue" d="M167.72,-117.88C149.4,-109.74 124.18,-95.81 109.16,-76 98.95,-62.55 94.22,-43.73 92.03,-29.81"/>
<polygon fill="midnightblue" stroke="midnightblue" points="95.5,-29.36 90.76,-19.88 88.55,-30.24 95.5,-29.36"/>
</g>
<!-- Node10&#45;&gt;Node13 -->
<g id="edge13" class="edge">
<title>Node10&#45;&gt;Node13</title>
<path fill="none" stroke="midnightblue" d="M207.21,-117.98C227,-108.08 259.87,-91.64 282.93,-80.12"/>
<polygon fill="midnightblue" stroke="midnightblue" points="284.76,-83.11 292.14,-75.51 281.63,-76.85 284.76,-83.11"/>
</g>
<!-- Node10&#45;&gt;Node15 -->
<g id="edge20" class="edge">
<title>Node10&#45;&gt;Node15</title>
<path fill="none" stroke="midnightblue" d="M168.52,-117.98C142.73,-107.81 99.45,-90.76 70.12,-79.2"/>
<polygon fill="midnightblue" stroke="midnightblue" points="71.34,-75.92 60.75,-75.51 68.77,-82.43 71.34,-75.92"/>
</g>
<!-- Node11&#45;&gt;Node5 -->
<g id="edge11" class="edge">
<title>Node11&#45;&gt;Node5</title>
<path fill="none" stroke="midnightblue" d="M169.05,-56.32C180.31,-48.11 197.44,-35.6 210.87,-25.81"/>
<polygon fill="midnightblue" stroke="midnightblue" points="213.04,-28.56 219.05,-19.83 208.91,-22.9 213.04,-28.56"/>
</g>
<!-- Node11&#45;&gt;Node12 -->
<g id="edge12" class="edge">
<title>Node11&#45;&gt;Node12</title>
<path fill="none" stroke="midnightblue" d="M146.39,-56.32C136.39,-48.26 121.27,-36.08 109.23,-26.37"/>
<polygon fill="midnightblue" stroke="midnightblue" points="111.1,-23.38 101.12,-19.83 106.71,-28.83 111.1,-23.38"/>
</g>
<!-- Node13&#45;&gt;Node5 -->
<g id="edge15" class="edge">
<title>Node13&#45;&gt;Node5</title>
<path fill="none" stroke="midnightblue" d="M296.62,-56.32C284.57,-47.98 266.13,-35.21 251.89,-25.35"/>
<polygon fill="midnightblue" stroke="midnightblue" points="253.87,-22.47 243.66,-19.65 249.89,-28.22 253.87,-22.47"/>
</g>
<!-- Node13&#45;&gt;Node9 -->
<g id="edge16" class="edge">
<title>Node13&#45;&gt;Node9</title>
<path fill="none" stroke="midnightblue" d="M325.87,-56.32C342.47,-47.7 368.16,-34.36 387.38,-24.39"/>
<polygon fill="midnightblue" stroke="midnightblue" points="389.23,-27.37 396.49,-19.65 386,-21.16 389.23,-27.37"/>
</g>
<!-- Node14 -->
<g id="node14" class="node">
<title>Node14</title>
<g id="a_node14"><a xlink:title=" ">
<polygon fill="none" stroke="#bfbfbf" points="284.16,-0.5 284.16,-19.5 334.16,-19.5 334.16,-0.5 284.16,-0.5"/>
<text text-anchor="middle" x="309.16" y="-7.5" font-family="Helvetica,sans-Serif" font-size="10.00">climits</text>
</a>
</g>
</g>
<!-- Node13&#45;&gt;Node14 -->
<g id="edge14" class="edge">
<title>Node13&#45;&gt;Node14</title>
<path fill="none" stroke="midnightblue" d="M309.16,-56.08C309.16,-49.01 309.16,-38.86 309.16,-29.99"/>
<polygon fill="midnightblue" stroke="midnightblue" points="312.66,-29.75 309.16,-19.75 305.66,-29.75 312.66,-29.75"/>
</g>
</g>
</svg>
        <g id="navigator" transform="translate(0 0)" fill="#404254">
                <rect fill="#f2f5e9" fill-opacity="0.5" stroke="#606060" stroke-width=".5" x="0" y="0" width="60" height="60"/>
                <use id="zoomplus" xlink:href="#zoomPlus" x="17" y="9" onmousedown="handleZoom(evt,'in')"/>
                <use id="zoomminus" xlink:href="#zoomMin" x="42" y="9" onmousedown="handleZoom(evt,'out')"/>
                <use id="reset" xlink:href="#resetDef" x="30" y="36" onmousedown="handleReset()"/>
                <g id="arrowUp" xlink:href="#dirArrow" transform="translate(30 24)" onmousedown="handlePan(0,-1)">
                  <use xlink:href="#rim" fill="#404040">
                        <set attributeName="fill" to="#808080" begin="arrowUp.mouseover" end="arrowUp.mouseout"/>
                  </use>
                  <path fill="none" stroke="white" stroke-width="1.5" d="M0,-3.0v7 M-2.5,-0.5L0,-3.0L2.5,-0.5"/>
                </g>
                <g id="arrowRight" xlink:href="#dirArrow" transform="rotate(90) translate(36 -43)" onmousedown="handlePan(1,0)">
                  <use xlink:href="#rim" fill="#404040">
                        <set attributeName="fill" to="#808080" begin="arrowRight.mouseover" end="arrowRight.mouseout"/>
                  </use>
                  <path fill="none" stroke="white" stroke-width="1.5" d="M0,-3.0v7 M-2.5,-0.5L0,-3.0L2.5,-0.5"/>
                </g>
                <g id="arrowDown" xlink:href="#dirArrow" transform="rotate(180) translate(-30 -48)" onmousedown="handlePan(0,1)">
                  <use xlink:href="#rim" fill="#404040">
                        <set attributeName="fill" to="#808080" begin="arrowDown.mouseover" end="arrowDown.mouseout"/>
                  </use>
                  <path fill="none" stroke="white" stroke-width="1.5" d="M0,-3.0v7 M-2.5,-0.5L0,-3.0L2.5,-0.5"/>
                </g>
                <g id="arrowLeft" xlink:href="#dirArrow" transform="rotate(270) translate(-36 17)" onmousedown="handlePan(-1,0)">
                  <use xlink:href="#rim" fill="#404040">
                        <set attributeName="fill" to="#808080" begin="arrowLeft.mouseover" end="arrowLeft.mouseout"/>
                  </use>
                  <path fill="none" stroke="white" stroke-width="1.5" d="M0,-3.0v7 M-2.5,-0.5L0,-3.0L2.5,-0.5"/>
                </g>
        </g>
        <svg viewBox="0 0 15 15" width="100%" height="30px" preserveAspectRatio="xMaxYMin meet">
         <g id="arrow_out" transform="scale(0.3 0.3)">
          <a xlink:href="communication_8hpp__incl_org.svg" target="_base">
           <rect id="button" ry="5" rx="5" y="6" x="6" height="38" width="38"
                fill="#f2f5e9" fill-opacity="0.5" stroke="#606060" stroke-width="1.0"/>
           <path id="arrow"
             d="M 11.500037,31.436501 C 11.940474,20.09759 22.043105,11.32322 32.158766,21.979434 L 37.068811,17.246167 C 37.068811,17.246167 37.088388,32 37.088388,32 L 22.160133,31.978069 C 22.160133,31.978069 26.997745,27.140456 26.997745,27.140456 C 18.528582,18.264221 13.291696,25.230495 11.500037,31.436501 z"
             style="fill:#404040;"/>
          </a>
         </g>
        </svg>
</svg>
