<?xml version="1.0" encoding="UTF-8" standalone="no"?>
<!DOCTYPE svg PUBLIC "-//W3C//DTD SVG 1.1//EN"
 "http://www.w3.org/Graphics/SVG/1.1/DTD/svg11.dtd">
<!-- Generated by graphviz version 2.43.0 (0)
 -->
<!-- Title: Constant.hpp Pages: 1 -->
<svg width="3107pt" height="375pt"
 viewBox="0.00 0.00 3107.23 375.00" xmlns="http://www.w3.org/2000/svg" xmlns:xlink="http://www.w3.org/1999/xlink">
<g id="graph0" class="graph" transform="scale(1 1) rotate(0) translate(4 371)">
<title>Constant.hpp</title>
<!-- Node1 -->
<g id="node1" class="node">
<title>Node1</title>
<g id="a_node1"><a xlink:title=" ">
<polygon fill="#bfbfbf" stroke="black" points="1560.5,-347.5 1560.5,-366.5 1641.5,-366.5 1641.5,-347.5 1560.5,-347.5"/>
<text text-anchor="middle" x="1601" y="-354.5" font-family="Helvetica,sans-Serif" font-size="10.00">Constant.hpp</text>
</a>
</g>
</g>
<!-- Node2 -->
<g id="node2" class="node">
<title>Node2</title>
<g id="a_node2"><a xlink:href="jacobian__type_8hpp.html" target="_top" xlink:title=" ">
<polygon fill="none" stroke="black" points="1548,-291.5 1548,-310.5 1654,-310.5 1654,-291.5 1548,-291.5"/>
<text text-anchor="middle" x="1601" y="-298.5" font-family="Helvetica,sans-Serif" font-size="10.00">jacobian_type.hpp</text>
</a>
</g>
</g>
<!-- Node1&#45;&gt;Node2 -->
<g id="edge1" class="edge">
<title>Node1&#45;&gt;Node2</title>
<path fill="none" stroke="midnightblue" d="M1601,-347.08C1601,-340.01 1601,-329.86 1601,-320.99"/>
<polygon fill="midnightblue" stroke="midnightblue" points="1604.5,-320.75 1601,-310.75 1597.5,-320.75 1604.5,-320.75"/>
</g>
<!-- Node3 -->
<g id="node3" class="node">
<title>Node3</title>
<g id="a_node3"><a xlink:href="Vector_8hpp.html" target="_top" xlink:title=" ">
<polygon fill="none" stroke="black" points="2386.5,-179.5 2386.5,-198.5 2479.5,-198.5 2479.5,-179.5 2386.5,-179.5"/>
<text text-anchor="middle" x="2433" y="-186.5" font-family="Helvetica,sans-Serif" font-size="10.00">utils/Vector.hpp</text>
</a>
</g>
</g>
<!-- Node1&#45;&gt;Node3 -->
<g id="edge52" class="edge">
<title>Node1&#45;&gt;Node3</title>
<path fill="none" stroke="midnightblue" d="M1641.69,-347.88C1779.07,-320.47 2225.7,-231.36 2379.99,-200.58"/>
<polygon fill="midnightblue" stroke="midnightblue" points="2381.04,-203.94 2390.16,-198.55 2379.67,-197.07 2381.04,-203.94"/>
</g>
<!-- Node10 -->
<g id="node10" class="node">
<title>Node10</title>
<g id="a_node10"><a xlink:title=" ">
<polygon fill="none" stroke="#bfbfbf" points="1146.5,-0.5 1146.5,-19.5 1199.5,-19.5 1199.5,-0.5 1146.5,-0.5"/>
<text text-anchor="middle" x="1173" y="-7.5" font-family="Helvetica,sans-Serif" font-size="10.00">cstddef</text>
</a>
</g>
</g>
<!-- Node1&#45;&gt;Node10 -->
<g id="edge53" class="edge">
<title>Node1&#45;&gt;Node10</title>
<path fill="none" stroke="midnightblue" d="M1560.22,-355.39C1310.64,-351.41 0,-326.67 0,-246 0,-246 0,-246 0,-132 0,-91.32 15.5,-75.86 51,-56 99.38,-28.94 947.56,-14.44 1136.08,-11.54"/>
<polygon fill="midnightblue" stroke="midnightblue" points="1136.35,-15.04 1146.3,-11.39 1136.25,-8.04 1136.35,-15.04"/>
</g>
<!-- Node2&#45;&gt;Node3 -->
<g id="edge2" class="edge">
<title>Node2&#45;&gt;Node3</title>
<path fill="none" stroke="midnightblue" d="M1654.31,-292.95C1803.32,-273.25 2223.21,-217.74 2376.27,-197.5"/>
<polygon fill="midnightblue" stroke="midnightblue" points="2376.94,-200.94 2386.39,-196.16 2376.02,-194 2376.94,-200.94"/>
</g>
<!-- Node2&#45;&gt;Node10 -->
<g id="edge51" class="edge">
<title>Node2&#45;&gt;Node10</title>
<path fill="none" stroke="midnightblue" d="M1547.65,-299.1C1273.72,-294.12 38,-267.4 38,-190 38,-190 38,-190 38,-132 38,-38.15 143.18,-75.39 235,-56 411.62,-18.71 984.5,-12.26 1135.98,-11.2"/>
<polygon fill="midnightblue" stroke="midnightblue" points="1136.17,-14.7 1146.14,-11.13 1136.12,-7.7 1136.17,-14.7"/>
</g>
<!-- Node23 -->
<g id="node23" class="node">
<title>Node23</title>
<g id="a_node23"><a xlink:href="matrix_8hpp.html" target="_top" xlink:title="This file contains a matrix implementation and the trait types needed for the boost qvm interoperabil...">
<polygon fill="none" stroke="black" points="1554,-235.5 1554,-254.5 1648,-254.5 1648,-235.5 1554,-235.5"/>
<text text-anchor="middle" x="1601" y="-242.5" font-family="Helvetica,sans-Serif" font-size="10.00">utils/matrix.hpp</text>
</a>
</g>
</g>
<!-- Node2&#45;&gt;Node23 -->
<g id="edge27" class="edge">
<title>Node2&#45;&gt;Node23</title>
<path fill="none" stroke="midnightblue" d="M1601,-291.08C1601,-284.01 1601,-273.86 1601,-264.99"/>
<polygon fill="midnightblue" stroke="midnightblue" points="1604.5,-264.75 1601,-254.75 1597.5,-264.75 1604.5,-264.75"/>
</g>
<!-- Node4 -->
<g id="node4" class="node">
<title>Node4</title>
<g id="a_node4"><a xlink:title=" ">
<polygon fill="none" stroke="#bfbfbf" points="2009,-123.5 2009,-142.5 2159,-142.5 2159,-123.5 2009,-123.5"/>
<text text-anchor="middle" x="2084" y="-130.5" font-family="Helvetica,sans-Serif" font-size="10.00">boost/qvm/deduce_vec.hpp</text>
</a>
</g>
</g>
<!-- Node3&#45;&gt;Node4 -->
<g id="edge3" class="edge">
<title>Node3&#45;&gt;Node4</title>
<path fill="none" stroke="midnightblue" d="M2386.29,-180.77C2325.22,-171.32 2217.9,-154.72 2148.94,-144.05"/>
<polygon fill="midnightblue" stroke="midnightblue" points="2149.47,-140.59 2139.05,-142.52 2148.4,-147.51 2149.47,-140.59"/>
</g>
<!-- Node5 -->
<g id="node5" class="node">
<title>Node5</title>
<g id="a_node5"><a xlink:title=" ">
<polygon fill="none" stroke="#bfbfbf" points="2725,-123.5 2725,-142.5 2865,-142.5 2865,-123.5 2725,-123.5"/>
<text text-anchor="middle" x="2795" y="-130.5" font-family="Helvetica,sans-Serif" font-size="10.00">boost/qvm/vec_traits.hpp</text>
</a>
</g>
</g>
<!-- Node3&#45;&gt;Node5 -->
<g id="edge4" class="edge">
<title>Node3&#45;&gt;Node5</title>
<path fill="none" stroke="midnightblue" d="M2479.58,-181.05C2542.69,-171.64 2655.73,-154.78 2727.96,-144"/>
<polygon fill="midnightblue" stroke="midnightblue" points="2728.49,-147.46 2737.87,-142.52 2727.46,-140.54 2728.49,-147.46"/>
</g>
<!-- Node6 -->
<g id="node6" class="node">
<title>Node6</title>
<g id="a_node6"><a xlink:href="Array_8hpp.html" target="_top" xlink:title=" ">
<polygon fill="none" stroke="black" points="2883,-123.5 2883,-142.5 2969,-142.5 2969,-123.5 2883,-123.5"/>
<text text-anchor="middle" x="2926" y="-130.5" font-family="Helvetica,sans-Serif" font-size="10.00">utils/Array.hpp</text>
</a>
</g>
</g>
<!-- Node3&#45;&gt;Node6 -->
<g id="edge5" class="edge">
<title>Node3&#45;&gt;Node6</title>
<path fill="none" stroke="midnightblue" d="M2479.8,-184.3C2558.66,-177.84 2723.24,-163.34 2872.63,-143.1"/>
<polygon fill="midnightblue" stroke="midnightblue" points="2873.47,-146.52 2882.91,-141.7 2872.52,-139.58 2873.47,-146.52"/>
</g>
<!-- Node8 -->
<g id="node8" class="node">
<title>Node8</title>
<g id="a_node8"><a xlink:title=" ">
<polygon fill="none" stroke="#bfbfbf" points="3029,-0.5 3029,-19.5 3081,-19.5 3081,-0.5 3029,-0.5"/>
<text text-anchor="middle" x="3055" y="-7.5" font-family="Helvetica,sans-Serif" font-size="10.00">cassert</text>
</a>
</g>
</g>
<!-- Node3&#45;&gt;Node8 -->
<g id="edge18" class="edge">
<title>Node3&#45;&gt;Node8</title>
<path fill="none" stroke="midnightblue" d="M2479.85,-186.66C2594.27,-182.99 2885.33,-171.09 2978,-143 3027.12,-128.11 3052.95,-131.23 3079,-87 3089.92,-68.46 3078.72,-44.41 3068.24,-28.38"/>
<polygon fill="midnightblue" stroke="midnightblue" points="3070.95,-26.13 3062.33,-19.97 3065.22,-30.16 3070.95,-26.13"/>
</g>
<!-- Node3&#45;&gt;Node10 -->
<g id="edge20" class="edge">
<title>Node3&#45;&gt;Node10</title>
<path fill="none" stroke="midnightblue" d="M2410.97,-179.43C2369.63,-163.48 2281.73,-130.18 2250,-123 1849.27,-32.35 1347.79,-14.85 1209.66,-11.67"/>
<polygon fill="midnightblue" stroke="midnightblue" points="1209.69,-8.17 1199.62,-11.45 1209.54,-15.17 1209.69,-8.17"/>
</g>
<!-- Node13 -->
<g id="node13" class="node">
<title>Node13</title>
<g id="a_node13"><a xlink:title=" ">
<polygon fill="none" stroke="#bfbfbf" points="2297.5,-62 2297.5,-81 2350.5,-81 2350.5,-62 2297.5,-62"/>
<text text-anchor="middle" x="2324" y="-69" font-family="Helvetica,sans-Serif" font-size="10.00">iterator</text>
</a>
</g>
</g>
<!-- Node3&#45;&gt;Node13 -->
<g id="edge23" class="edge">
<title>Node3&#45;&gt;Node13</title>
<path fill="none" stroke="midnightblue" d="M2386.33,-180.01C2364.61,-173.75 2340.61,-162.64 2327,-143 2316.56,-127.93 2317.3,-106.38 2319.72,-91.08"/>
<polygon fill="midnightblue" stroke="midnightblue" points="2323.16,-91.71 2321.64,-81.23 2316.29,-90.38 2323.16,-91.71"/>
</g>
<!-- Node16 -->
<g id="node16" class="node">
<title>Node16</title>
<g id="a_node16"><a xlink:title=" ">
<polygon fill="none" stroke="#bfbfbf" points="2177,-123.5 2177,-142.5 2241,-142.5 2241,-123.5 2177,-123.5"/>
<text text-anchor="middle" x="2209" y="-130.5" font-family="Helvetica,sans-Serif" font-size="10.00">algorithm</text>
</a>
</g>
</g>
<!-- Node3&#45;&gt;Node16 -->
<g id="edge17" class="edge">
<title>Node3&#45;&gt;Node16</title>
<path fill="none" stroke="midnightblue" d="M2397.51,-179.44C2357.73,-169.86 2293.3,-154.32 2251.04,-144.13"/>
<polygon fill="midnightblue" stroke="midnightblue" points="2251.6,-140.67 2241.06,-141.73 2249.96,-147.48 2251.6,-140.67"/>
</g>
<!-- Node17 -->
<g id="node17" class="node">
<title>Node17</title>
<g id="a_node17"><a xlink:title=" ">
<polygon fill="none" stroke="#bfbfbf" points="2335.5,-123.5 2335.5,-142.5 2382.5,-142.5 2382.5,-123.5 2335.5,-123.5"/>
<text text-anchor="middle" x="2359" y="-130.5" font-family="Helvetica,sans-Serif" font-size="10.00">cmath</text>
</a>
</g>
</g>
<!-- Node3&#45;&gt;Node17 -->
<g id="edge19" class="edge">
<title>Node3&#45;&gt;Node17</title>
<path fill="none" stroke="midnightblue" d="M2421.11,-179.32C2409.85,-171.11 2392.71,-158.6 2379.29,-148.81"/>
<polygon fill="midnightblue" stroke="midnightblue" points="2381.25,-145.9 2371.11,-142.83 2377.12,-151.56 2381.25,-145.9"/>
</g>
<!-- Node18 -->
<g id="node18" class="node">
<title>Node18</title>
<g id="a_node18"><a xlink:title=" ">
<polygon fill="none" stroke="#bfbfbf" points="2400.5,-123.5 2400.5,-142.5 2465.5,-142.5 2465.5,-123.5 2400.5,-123.5"/>
<text text-anchor="middle" x="2433" y="-130.5" font-family="Helvetica,sans-Serif" font-size="10.00">functional</text>
</a>
</g>
</g>
<!-- Node3&#45;&gt;Node18 -->
<g id="edge21" class="edge">
<title>Node3&#45;&gt;Node18</title>
<path fill="none" stroke="midnightblue" d="M2433,-179.08C2433,-172.01 2433,-161.86 2433,-152.99"/>
<polygon fill="midnightblue" stroke="midnightblue" points="2436.5,-152.75 2433,-142.75 2429.5,-152.75 2436.5,-152.75"/>
</g>
<!-- Node19 -->
<g id="node19" class="node">
<title>Node19</title>
<g id="a_node19"><a xlink:title=" ">
<polygon fill="none" stroke="#bfbfbf" points="2483.5,-123.5 2483.5,-142.5 2566.5,-142.5 2566.5,-123.5 2483.5,-123.5"/>
<text text-anchor="middle" x="2525" y="-130.5" font-family="Helvetica,sans-Serif" font-size="10.00">initializer_list</text>
</a>
</g>
</g>
<!-- Node3&#45;&gt;Node19 -->
<g id="edge22" class="edge">
<title>Node3&#45;&gt;Node19</title>
<path fill="none" stroke="midnightblue" d="M2447.78,-179.32C2462.27,-170.82 2484.57,-157.73 2501.49,-147.8"/>
<polygon fill="midnightblue" stroke="midnightblue" points="2503.4,-150.74 2510.26,-142.65 2499.86,-144.7 2503.4,-150.74"/>
</g>
<!-- Node20 -->
<g id="node20" class="node">
<title>Node20</title>
<g id="a_node20"><a xlink:title=" ">
<polygon fill="none" stroke="#bfbfbf" points="2585,-123.5 2585,-142.5 2641,-142.5 2641,-123.5 2585,-123.5"/>
<text text-anchor="middle" x="2613" y="-130.5" font-family="Helvetica,sans-Serif" font-size="10.00">numeric</text>
</a>
</g>
</g>
<!-- Node3&#45;&gt;Node20 -->
<g id="edge24" class="edge">
<title>Node3&#45;&gt;Node20</title>
<path fill="none" stroke="midnightblue" d="M2461.52,-179.44C2492.16,-170.25 2540.99,-155.6 2574.9,-145.43"/>
<polygon fill="midnightblue" stroke="midnightblue" points="2576.34,-148.65 2584.91,-142.43 2574.32,-141.95 2576.34,-148.65"/>
</g>
<!-- Node21 -->
<g id="node21" class="node">
<title>Node21</title>
<g id="a_node21"><a xlink:title=" ">
<polygon fill="none" stroke="#bfbfbf" points="1922.5,-123.5 1922.5,-142.5 1991.5,-142.5 1991.5,-123.5 1922.5,-123.5"/>
<text text-anchor="middle" x="1957" y="-130.5" font-family="Helvetica,sans-Serif" font-size="10.00">type_traits</text>
</a>
</g>
</g>
<!-- Node3&#45;&gt;Node21 -->
<g id="edge25" class="edge">
<title>Node3&#45;&gt;Node21</title>
<path fill="none" stroke="midnightblue" d="M2386.34,-184.73C2308.55,-178.94 2147.28,-165.46 2001.69,-143.13"/>
<polygon fill="midnightblue" stroke="midnightblue" points="2002.1,-139.65 1991.68,-141.58 2001.02,-146.57 2002.1,-139.65"/>
</g>
<!-- Node22 -->
<g id="node22" class="node">
<title>Node22</title>
<g id="a_node22"><a xlink:title=" ">
<polygon fill="none" stroke="#bfbfbf" points="2659.5,-123.5 2659.5,-142.5 2706.5,-142.5 2706.5,-123.5 2659.5,-123.5"/>
<text text-anchor="middle" x="2683" y="-130.5" font-family="Helvetica,sans-Serif" font-size="10.00">vector</text>
</a>
</g>
</g>
<!-- Node3&#45;&gt;Node22 -->
<g id="edge26" class="edge">
<title>Node3&#45;&gt;Node22</title>
<path fill="none" stroke="midnightblue" d="M2478.06,-179.5C2519.93,-171.41 2584.23,-158.51 2649.24,-143.06"/>
<polygon fill="midnightblue" stroke="midnightblue" points="2650.34,-146.4 2659.25,-140.67 2648.71,-139.59 2650.34,-146.4"/>
</g>
<!-- Node7 -->
<g id="node7" class="node">
<title>Node7</title>
<g id="a_node7"><a xlink:href="device__qualifier_8hpp.html" target="_top" xlink:title=" ">
<polygon fill="none" stroke="black" points="2954,-62 2954,-81 3070,-81 3070,-62 2954,-62"/>
<text text-anchor="middle" x="3012" y="-69" font-family="Helvetica,sans-Serif" font-size="10.00">device_qualifier.hpp</text>
</a>
</g>
</g>
<!-- Node6&#45;&gt;Node7 -->
<g id="edge6" class="edge">
<title>Node6&#45;&gt;Node7</title>
<path fill="none" stroke="midnightblue" d="M2938.32,-123.48C2952.12,-113.93 2974.7,-98.31 2991.23,-86.87"/>
<polygon fill="midnightblue" stroke="midnightblue" points="2993.47,-89.58 2999.7,-81.01 2989.49,-83.82 2993.47,-89.58"/>
</g>
<!-- Node6&#45;&gt;Node8 -->
<g id="edge12" class="edge">
<title>Node6&#45;&gt;Node8</title>
<path fill="none" stroke="midnightblue" d="M2925.76,-123.35C2925.81,-107.94 2928.08,-75.53 2945,-56 2963.79,-34.3 2994.65,-22.9 3018.9,-17.01"/>
<polygon fill="midnightblue" stroke="midnightblue" points="3019.83,-20.38 3028.84,-14.8 3018.32,-13.55 3019.83,-20.38"/>
</g>
<!-- Node9 -->
<g id="node9" class="node">
<title>Node9</title>
<g id="a_node9"><a xlink:href="get_8hpp.html" target="_top" xlink:title=" ">
<polygon fill="none" stroke="black" points="2844.5,-62 2844.5,-81 2897.5,-81 2897.5,-62 2844.5,-62"/>
<text text-anchor="middle" x="2871" y="-69" font-family="Helvetica,sans-Serif" font-size="10.00">get.hpp</text>
</a>
</g>
</g>
<!-- Node6&#45;&gt;Node9 -->
<g id="edge8" class="edge">
<title>Node6&#45;&gt;Node9</title>
<path fill="none" stroke="midnightblue" d="M2918.12,-123.48C2909.71,-114.37 2896.18,-99.74 2885.77,-88.48"/>
<polygon fill="midnightblue" stroke="midnightblue" points="2888.22,-85.98 2878.87,-81.01 2883.08,-90.73 2888.22,-85.98"/>
</g>
<!-- Node6&#45;&gt;Node10 -->
<g id="edge13" class="edge">
<title>Node6&#45;&gt;Node10</title>
<path fill="none" stroke="midnightblue" d="M2882.9,-124.34C2879.89,-123.86 2876.9,-123.41 2874,-123 2731.87,-102.75 2695.25,-106.39 2553,-87 2466.92,-75.27 2446.46,-64.55 2360,-56 1908.52,-11.35 1356.42,-10.21 1210.04,-10.77"/>
<polygon fill="midnightblue" stroke="midnightblue" points="1209.81,-7.27 1199.83,-10.82 1209.84,-14.27 1209.81,-7.27"/>
</g>
<!-- Node12 -->
<g id="node12" class="node">
<title>Node12</title>
<g id="a_node12"><a xlink:title=" ">
<polygon fill="none" stroke="#bfbfbf" points="2719.5,-56.5 2719.5,-86.5 2826.5,-86.5 2826.5,-56.5 2719.5,-56.5"/>
<text text-anchor="start" x="2727.5" y="-74.5" font-family="Helvetica,sans-Serif" font-size="10.00">boost/serialization</text>
<text text-anchor="middle" x="2773" y="-63.5" font-family="Helvetica,sans-Serif" font-size="10.00">/access.hpp</text>
</a>
</g>
</g>
<!-- Node6&#45;&gt;Node12 -->
<g id="edge11" class="edge">
<title>Node6&#45;&gt;Node12</title>
<path fill="none" stroke="midnightblue" d="M2904.08,-123.48C2881.9,-114.85 2846.96,-101.26 2818.73,-90.29"/>
<polygon fill="midnightblue" stroke="midnightblue" points="2819.65,-86.89 2809.06,-86.52 2817.11,-93.41 2819.65,-86.89"/>
</g>
<!-- Node6&#45;&gt;Node13 -->
<g id="edge14" class="edge">
<title>Node6&#45;&gt;Node13</title>
<path fill="none" stroke="midnightblue" d="M2882.91,-124.24C2879.9,-123.79 2876.91,-123.37 2874,-123 2682.89,-98.55 2633.65,-106.75 2442,-87 2414.76,-84.19 2384.06,-80.4 2360.8,-77.4"/>
<polygon fill="midnightblue" stroke="midnightblue" points="2361.05,-73.9 2350.68,-76.08 2360.14,-80.84 2361.05,-73.9"/>
</g>
<!-- Node14 -->
<g id="node14" class="node">
<title>Node14</title>
<g id="a_node14"><a xlink:title=" ">
<polygon fill="none" stroke="#bfbfbf" points="2561.5,-62 2561.5,-81 2618.5,-81 2618.5,-62 2561.5,-62"/>
<text text-anchor="middle" x="2590" y="-69" font-family="Helvetica,sans-Serif" font-size="10.00">ostream</text>
</a>
</g>
</g>
<!-- Node6&#45;&gt;Node14 -->
<g id="edge15" class="edge">
<title>Node6&#45;&gt;Node14</title>
<path fill="none" stroke="midnightblue" d="M2882.88,-124.45C2879.88,-123.95 2876.9,-123.46 2874,-123 2764.88,-105.58 2734.93,-114.86 2628,-87 2625.18,-86.27 2622.28,-85.39 2619.41,-84.44"/>
<polygon fill="midnightblue" stroke="midnightblue" points="2620.44,-81.09 2609.85,-81.01 2618.08,-87.68 2620.44,-81.09"/>
</g>
<!-- Node15 -->
<g id="node15" class="node">
<title>Node15</title>
<g id="a_node15"><a xlink:title=" ">
<polygon fill="none" stroke="#bfbfbf" points="2636.5,-62 2636.5,-81 2701.5,-81 2701.5,-62 2636.5,-62"/>
<text text-anchor="middle" x="2669" y="-69" font-family="Helvetica,sans-Serif" font-size="10.00">stdexcept</text>
</a>
</g>
</g>
<!-- Node6&#45;&gt;Node15 -->
<g id="edge16" class="edge">
<title>Node6&#45;&gt;Node15</title>
<path fill="none" stroke="midnightblue" d="M2882.88,-123.64C2829.8,-113.24 2742.8,-95.78 2711,-87 2707.97,-86.16 2704.85,-85.23 2701.73,-84.24"/>
<polygon fill="midnightblue" stroke="midnightblue" points="2702.54,-80.82 2691.94,-81.01 2700.34,-87.47 2702.54,-80.82"/>
</g>
<!-- Node7&#45;&gt;Node8 -->
<g id="edge7" class="edge">
<title>Node7&#45;&gt;Node8</title>
<path fill="none" stroke="midnightblue" d="M3018.16,-61.98C3024.61,-53.05 3034.9,-38.81 3042.97,-27.64"/>
<polygon fill="midnightblue" stroke="midnightblue" points="3045.83,-29.66 3048.85,-19.51 3040.16,-25.56 3045.83,-29.66"/>
</g>
<!-- Node9&#45;&gt;Node10 -->
<g id="edge9" class="edge">
<title>Node9&#45;&gt;Node10</title>
<path fill="none" stroke="midnightblue" d="M2853.96,-61.98C2848.37,-59.59 2842.05,-57.29 2836,-56 2672.2,-21.1 1440.08,-12.5 1209.96,-11.19"/>
<polygon fill="midnightblue" stroke="midnightblue" points="1209.78,-7.69 1199.76,-11.14 1209.74,-14.69 1209.78,-7.69"/>
</g>
<!-- Node11 -->
<g id="node11" class="node">
<title>Node11</title>
<g id="a_node11"><a xlink:title=" ">
<polygon fill="none" stroke="#bfbfbf" points="2850.5,-0.5 2850.5,-19.5 2891.5,-19.5 2891.5,-0.5 2850.5,-0.5"/>
<text text-anchor="middle" x="2871" y="-7.5" font-family="Helvetica,sans-Serif" font-size="10.00">tuple</text>
</a>
</g>
</g>
<!-- Node9&#45;&gt;Node11 -->
<g id="edge10" class="edge">
<title>Node9&#45;&gt;Node11</title>
<path fill="none" stroke="midnightblue" d="M2871,-61.98C2871,-53.58 2871,-40.48 2871,-29.66"/>
<polygon fill="midnightblue" stroke="midnightblue" points="2874.5,-29.51 2871,-19.51 2867.5,-29.51 2874.5,-29.51"/>
</g>
<!-- Node23&#45;&gt;Node3 -->
<g id="edge29" class="edge">
<title>Node23&#45;&gt;Node3</title>
<path fill="none" stroke="midnightblue" d="M1648.05,-242.7C1768.65,-239.05 2098.57,-227.1 2372,-199 2373.46,-198.85 2374.95,-198.69 2376.44,-198.52"/>
<polygon fill="midnightblue" stroke="midnightblue" points="2376.92,-201.99 2386.43,-197.3 2376.08,-195.04 2376.92,-201.99"/>
</g>
<!-- Node23&#45;&gt;Node4 -->
<g id="edge44" class="edge">
<title>Node23&#45;&gt;Node4</title>
<path fill="none" stroke="midnightblue" d="M1648.09,-242.63C1798.43,-238.02 2258.41,-222.07 2280,-199 2286.07,-192.51 2285.54,-185.95 2280,-179 2271.5,-168.33 2200.34,-153.92 2146.19,-144.31"/>
<polygon fill="midnightblue" stroke="midnightblue" points="2146.75,-140.85 2136.29,-142.57 2145.54,-147.75 2146.75,-140.85"/>
</g>
<!-- Node23&#45;&gt;Node6 -->
<g id="edge28" class="edge">
<title>Node23&#45;&gt;Node6</title>
<path fill="none" stroke="midnightblue" d="M1648.29,-243.16C1781.09,-240.48 2168.68,-230.34 2489,-199 2628.09,-185.39 2790.57,-158.23 2872.67,-143.7"/>
<polygon fill="midnightblue" stroke="midnightblue" points="2873.53,-147.1 2882.76,-141.9 2872.3,-140.21 2873.53,-147.1"/>
</g>
<!-- Node23&#45;&gt;Node8 -->
<g id="edge35" class="edge">
<title>Node23&#45;&gt;Node8</title>
<path fill="none" stroke="midnightblue" d="M1648.01,-243.17C1789.37,-240.4 2222.95,-229.8 2581,-199 2778.73,-181.99 2840.96,-219.69 3024,-143 3061.07,-127.47 3077.47,-123.16 3095,-87 3101.01,-74.6 3099.9,-68.88 3095,-56 3090.66,-44.6 3081.97,-34.24 3073.79,-26.34"/>
<polygon fill="midnightblue" stroke="midnightblue" points="3076.04,-23.66 3066.27,-19.57 3071.36,-28.86 3076.04,-23.66"/>
</g>
<!-- Node23&#45;&gt;Node10 -->
<g id="edge36" class="edge">
<title>Node23&#45;&gt;Node10</title>
<path fill="none" stroke="midnightblue" d="M1553.91,-243.49C1301.7,-240.63 121.03,-225.82 95,-199 -56.92,-42.47 931.15,-15.49 1136.24,-11.59"/>
<polygon fill="midnightblue" stroke="midnightblue" points="1136.55,-15.09 1146.48,-11.4 1136.42,-8.09 1136.55,-15.09"/>
</g>
<!-- Node23&#45;&gt;Node16 -->
<g id="edge33" class="edge">
<title>Node23&#45;&gt;Node16</title>
<path fill="none" stroke="midnightblue" d="M1648.19,-242.7C1801.17,-238.27 2274.8,-222.69 2297,-199 2317.37,-177.27 2279.78,-157.78 2247.59,-145.93"/>
<polygon fill="midnightblue" stroke="midnightblue" points="2248.43,-142.52 2237.84,-142.51 2246.11,-149.12 2248.43,-142.52"/>
</g>
<!-- Node23&#45;&gt;Node21 -->
<g id="edge37" class="edge">
<title>Node23&#45;&gt;Node21</title>
<path fill="none" stroke="midnightblue" d="M1648.2,-242.54C1796.11,-237.74 2242.02,-221.45 2263,-199 2269.07,-192.5 2268.84,-185.7 2263,-179 2226.04,-136.63 2073.42,-151.45 2001.67,-142.92"/>
<polygon fill="midnightblue" stroke="midnightblue" points="2002.09,-139.44 1991.69,-141.48 2001.09,-146.37 2002.09,-139.44"/>
</g>
<!-- Node24 -->
<g id="node24" class="node">
<title>Node24</title>
<g id="a_node24"><a xlink:href="flatten_8hpp.html" target="_top" xlink:title=" ">
<polygon fill="none" stroke="black" points="2160,-179.5 2160,-198.5 2254,-198.5 2254,-179.5 2160,-179.5"/>
<text text-anchor="middle" x="2207" y="-186.5" font-family="Helvetica,sans-Serif" font-size="10.00">utils/flatten.hpp</text>
</a>
</g>
</g>
<!-- Node23&#45;&gt;Node24 -->
<g id="edge30" class="edge">
<title>Node23&#45;&gt;Node24</title>
<path fill="none" stroke="midnightblue" d="M1648.12,-241.33C1741.6,-235.77 1957.3,-221.67 2149.74,-198.93"/>
<polygon fill="midnightblue" stroke="midnightblue" points="2150.25,-202.4 2159.76,-197.74 2149.42,-195.45 2150.25,-202.4"/>
</g>
<!-- Node25 -->
<g id="node25" class="node">
<title>Node25</title>
<g id="a_node25"><a xlink:title=" ">
<polygon fill="none" stroke="#bfbfbf" points="104,-179.5 104,-198.5 146,-198.5 146,-179.5 104,-179.5"/>
<text text-anchor="middle" x="125" y="-186.5" font-family="Helvetica,sans-Serif" font-size="10.00">array</text>
</a>
</g>
</g>
<!-- Node23&#45;&gt;Node25 -->
<g id="edge34" class="edge">
<title>Node23&#45;&gt;Node25</title>
<path fill="none" stroke="midnightblue" d="M1553.71,-244.18C1338.97,-244.74 453.62,-244.31 156.06,-198.66"/>
<polygon fill="midnightblue" stroke="midnightblue" points="156.57,-195.2 146.15,-197.09 155.47,-202.11 156.57,-195.2"/>
</g>
<!-- Node26 -->
<g id="node26" class="node">
<title>Node26</title>
<g id="a_node26"><a xlink:title=" ">
<polygon fill="none" stroke="#bfbfbf" points="164.5,-179.5 164.5,-198.5 209.5,-198.5 209.5,-179.5 164.5,-179.5"/>
<text text-anchor="middle" x="187" y="-186.5" font-family="Helvetica,sans-Serif" font-size="10.00">utility</text>
</a>
</g>
</g>
<!-- Node23&#45;&gt;Node26 -->
<g id="edge38" class="edge">
<title>Node23&#45;&gt;Node26</title>
<path fill="none" stroke="midnightblue" d="M1553.68,-244.05C1344.91,-244 504.45,-241.26 219.83,-198.84"/>
<polygon fill="midnightblue" stroke="midnightblue" points="219.96,-195.32 209.54,-197.25 218.89,-202.24 219.96,-195.32"/>
</g>
<!-- Node27 -->
<g id="node27" class="node">
<title>Node27</title>
<g id="a_node27"><a xlink:title=" ">
<polygon fill="none" stroke="#bfbfbf" points="227.5,-179.5 227.5,-198.5 396.5,-198.5 396.5,-179.5 227.5,-179.5"/>
<text text-anchor="middle" x="312" y="-186.5" font-family="Helvetica,sans-Serif" font-size="10.00">boost/qvm/mat_operations.hpp</text>
</a>
</g>
</g>
<!-- Node23&#45;&gt;Node27 -->
<g id="edge39" class="edge">
<title>Node23&#45;&gt;Node27</title>
<path fill="none" stroke="midnightblue" d="M1553.94,-243.22C1394.42,-240.39 859.43,-229.15 406.64,-199.07"/>
<polygon fill="midnightblue" stroke="midnightblue" points="406.84,-195.58 396.63,-198.4 406.37,-202.56 406.84,-195.58"/>
</g>
<!-- Node28 -->
<g id="node28" class="node">
<title>Node28</title>
<g id="a_node28"><a xlink:title=" ">
<polygon fill="none" stroke="#bfbfbf" points="414.5,-179.5 414.5,-198.5 605.5,-198.5 605.5,-179.5 414.5,-179.5"/>
<text text-anchor="middle" x="510" y="-186.5" font-family="Helvetica,sans-Serif" font-size="10.00">boost/qvm/vec_mat_operations.hpp</text>
</a>
</g>
</g>
<!-- Node23&#45;&gt;Node28 -->
<g id="edge40" class="edge">
<title>Node23&#45;&gt;Node28</title>
<path fill="none" stroke="midnightblue" d="M1553.96,-242.54C1413.27,-238.01 983.22,-223.14 615.79,-199.09"/>
<polygon fill="midnightblue" stroke="midnightblue" points="615.97,-195.6 605.76,-198.43 615.51,-202.58 615.97,-195.6"/>
</g>
<!-- Node29 -->
<g id="node29" class="node">
<title>Node29</title>
<g id="a_node29"><a xlink:title=" ">
<polygon fill="none" stroke="#bfbfbf" points="623.5,-179.5 623.5,-198.5 790.5,-198.5 790.5,-179.5 623.5,-179.5"/>
<text text-anchor="middle" x="707" y="-186.5" font-family="Helvetica,sans-Serif" font-size="10.00">boost/qvm/vec_operations.hpp</text>
</a>
</g>
</g>
<!-- Node23&#45;&gt;Node29 -->
<g id="edge41" class="edge">
<title>Node23&#45;&gt;Node29</title>
<path fill="none" stroke="midnightblue" d="M1553.56,-242C1431.03,-236.71 1093.77,-221.21 801.03,-199.05"/>
<polygon fill="midnightblue" stroke="midnightblue" points="800.87,-195.52 790.64,-198.25 800.34,-202.5 800.87,-195.52"/>
</g>
<!-- Node30 -->
<g id="node30" class="node">
<title>Node30</title>
<g id="a_node30"><a xlink:title=" ">
<polygon fill="none" stroke="#bfbfbf" points="809,-179.5 809,-198.5 961,-198.5 961,-179.5 809,-179.5"/>
<text text-anchor="middle" x="885" y="-186.5" font-family="Helvetica,sans-Serif" font-size="10.00">boost/qvm/deduce_mat.hpp</text>
</a>
</g>
</g>
<!-- Node23&#45;&gt;Node30 -->
<g id="edge42" class="edge">
<title>Node23&#45;&gt;Node30</title>
<path fill="none" stroke="midnightblue" d="M1553.86,-241.19C1450.43,-234.91 1195.59,-218.79 971.42,-199.1"/>
<polygon fill="midnightblue" stroke="midnightblue" points="971.71,-195.61 961.44,-198.22 971.1,-202.58 971.71,-195.61"/>
</g>
<!-- Node31 -->
<g id="node31" class="node">
<title>Node31</title>
<g id="a_node31"><a xlink:title=" ">
<polygon fill="none" stroke="#bfbfbf" points="979,-179.5 979,-198.5 1141,-198.5 1141,-179.5 979,-179.5"/>
<text text-anchor="middle" x="1060" y="-186.5" font-family="Helvetica,sans-Serif" font-size="10.00">boost/qvm/deduce_scalar.hpp</text>
</a>
</g>
</g>
<!-- Node23&#45;&gt;Node31 -->
<g id="edge43" class="edge">
<title>Node23&#45;&gt;Node31</title>
<path fill="none" stroke="midnightblue" d="M1553.93,-239.31C1473.65,-231.3 1304.85,-214.47 1151.51,-199.15"/>
<polygon fill="midnightblue" stroke="midnightblue" points="1151.73,-195.66 1141.43,-198.14 1151.04,-202.62 1151.73,-195.66"/>
</g>
<!-- Node32 -->
<g id="node32" class="node">
<title>Node32</title>
<g id="a_node32"><a xlink:title=" ">
<polygon fill="none" stroke="#bfbfbf" points="1159,-179.5 1159,-198.5 1323,-198.5 1323,-179.5 1159,-179.5"/>
<text text-anchor="middle" x="1241" y="-186.5" font-family="Helvetica,sans-Serif" font-size="10.00">boost/qvm/map_mat_mat.hpp</text>
</a>
</g>
</g>
<!-- Node23&#45;&gt;Node32 -->
<g id="edge45" class="edge">
<title>Node23&#45;&gt;Node32</title>
<path fill="none" stroke="midnightblue" d="M1553.94,-236.94C1491.17,-227.53 1379.69,-210.8 1308.13,-200.07"/>
<polygon fill="midnightblue" stroke="midnightblue" points="1308.27,-196.55 1297.87,-198.53 1307.24,-203.47 1308.27,-196.55"/>
</g>
<!-- Node33 -->
<g id="node33" class="node">
<title>Node33</title>
<g id="a_node33"><a xlink:title=" ">
<polygon fill="none" stroke="#bfbfbf" points="1341.5,-179.5 1341.5,-198.5 1502.5,-198.5 1502.5,-179.5 1341.5,-179.5"/>
<text text-anchor="middle" x="1422" y="-186.5" font-family="Helvetica,sans-Serif" font-size="10.00">boost/qvm/map_mat_vec.hpp</text>
</a>
</g>
</g>
<!-- Node23&#45;&gt;Node33 -->
<g id="edge46" class="edge">
<title>Node23&#45;&gt;Node33</title>
<path fill="none" stroke="midnightblue" d="M1572.64,-235.44C1542.26,-226.28 1493.89,-211.69 1460.18,-201.52"/>
<polygon fill="midnightblue" stroke="midnightblue" points="1460.82,-198.05 1450.23,-198.52 1458.79,-204.76 1460.82,-198.05"/>
</g>
<!-- Node34 -->
<g id="node34" class="node">
<title>Node34</title>
<g id="a_node34"><a xlink:title=" ">
<polygon fill="none" stroke="#bfbfbf" points="1520.5,-179.5 1520.5,-198.5 1681.5,-198.5 1681.5,-179.5 1520.5,-179.5"/>
<text text-anchor="middle" x="1601" y="-186.5" font-family="Helvetica,sans-Serif" font-size="10.00">boost/qvm/map_vec_mat.hpp</text>
</a>
</g>
</g>
<!-- Node23&#45;&gt;Node34 -->
<g id="edge47" class="edge">
<title>Node23&#45;&gt;Node34</title>
<path fill="none" stroke="midnightblue" d="M1601,-235.08C1601,-228.01 1601,-217.86 1601,-208.99"/>
<polygon fill="midnightblue" stroke="midnightblue" points="1604.5,-208.75 1601,-198.75 1597.5,-208.75 1604.5,-208.75"/>
</g>
<!-- Node35 -->
<g id="node35" class="node">
<title>Node35</title>
<g id="a_node35"><a xlink:title=" ">
<polygon fill="none" stroke="#bfbfbf" points="1700,-179.5 1700,-198.5 1812,-198.5 1812,-179.5 1700,-179.5"/>
<text text-anchor="middle" x="1756" y="-186.5" font-family="Helvetica,sans-Serif" font-size="10.00">boost/qvm/mat.hpp</text>
</a>
</g>
</g>
<!-- Node23&#45;&gt;Node35 -->
<g id="edge48" class="edge">
<title>Node23&#45;&gt;Node35</title>
<path fill="none" stroke="midnightblue" d="M1625.56,-235.44C1651.52,-226.4 1692.67,-212.06 1721.8,-201.92"/>
<polygon fill="midnightblue" stroke="midnightblue" points="1723.26,-205.11 1731.55,-198.52 1720.96,-198.5 1723.26,-205.11"/>
</g>
<!-- Node36 -->
<g id="node36" class="node">
<title>Node36</title>
<g id="a_node36"><a xlink:title=" ">
<polygon fill="none" stroke="#bfbfbf" points="1830,-179.5 1830,-198.5 1980,-198.5 1980,-179.5 1830,-179.5"/>
<text text-anchor="middle" x="1905" y="-186.5" font-family="Helvetica,sans-Serif" font-size="10.00">boost/qvm/mat_access.hpp</text>
</a>
</g>
</g>
<!-- Node23&#45;&gt;Node36 -->
<g id="edge49" class="edge">
<title>Node23&#45;&gt;Node36</title>
<path fill="none" stroke="midnightblue" d="M1648.17,-235.62C1701.74,-226.11 1789.18,-210.57 1846.91,-200.32"/>
<polygon fill="midnightblue" stroke="midnightblue" points="1847.74,-203.73 1856.97,-198.53 1846.51,-196.83 1847.74,-203.73"/>
</g>
<!-- Node37 -->
<g id="node37" class="node">
<title>Node37</title>
<g id="a_node37"><a xlink:title=" ">
<polygon fill="none" stroke="#bfbfbf" points="1998.5,-179.5 1998.5,-198.5 2141.5,-198.5 2141.5,-179.5 1998.5,-179.5"/>
<text text-anchor="middle" x="2070" y="-186.5" font-family="Helvetica,sans-Serif" font-size="10.00">boost/qvm/mat_traits.hpp</text>
</a>
</g>
</g>
<!-- Node23&#45;&gt;Node37 -->
<g id="edge50" class="edge">
<title>Node23&#45;&gt;Node37</title>
<path fill="none" stroke="midnightblue" d="M1648.12,-238.58C1727.65,-229.42 1889.47,-210.79 1987.96,-199.45"/>
<polygon fill="midnightblue" stroke="midnightblue" points="1988.64,-202.89 1998.17,-198.27 1987.84,-195.94 1988.64,-202.89"/>
</g>
<!-- Node24&#45;&gt;Node13 -->
<g id="edge31" class="edge">
<title>Node24&#45;&gt;Node13</title>
<path fill="none" stroke="midnightblue" d="M2159.73,-180.51C2156.43,-180 2153.17,-179.49 2150,-179 2043.04,-162.43 1841.29,-204.07 1913,-123 1937.65,-95.14 2191.13,-79.32 2287.29,-74.28"/>
<polygon fill="midnightblue" stroke="midnightblue" points="2287.61,-77.77 2297.42,-73.76 2287.25,-70.78 2287.61,-77.77"/>
</g>
<!-- Node24&#45;&gt;Node21 -->
<g id="edge32" class="edge">
<title>Node24&#45;&gt;Node21</title>
<path fill="none" stroke="midnightblue" d="M2167.39,-179.44C2122.24,-169.69 2048.61,-153.79 2001.51,-143.62"/>
<polygon fill="midnightblue" stroke="midnightblue" points="2002.11,-140.16 1991.6,-141.47 2000.63,-147.01 2002.11,-140.16"/>
</g>
</g>
</svg>
