<?xml version="1.0" encoding="UTF-8" standalone="no"?>
<!DOCTYPE svg PUBLIC "-//W3C//DTD SVG 1.1//EN"
 "http://www.w3.org/Graphics/SVG/1.1/DTD/svg11.dtd">
<!-- Generated by graphviz version 2.43.0 (0)
 -->
<!-- Title: Context.hpp Pages: 1 -->
<svg width="1732pt" height="397pt"
 viewBox="0.00 0.00 1732.44 397.00" xmlns="http://www.w3.org/2000/svg" xmlns:xlink="http://www.w3.org/1999/xlink">
<g id="graph0" class="graph" transform="scale(1 1) rotate(0) translate(4 393)">
<title>Context.hpp</title>
<!-- Node1 -->
<g id="node1" class="node">
<title>Node1</title>
<g id="a_node1"><a xlink:title=" ">
<polygon fill="#bfbfbf" stroke="black" points="1575.5,-369.5 1575.5,-388.5 1651.5,-388.5 1651.5,-369.5 1575.5,-369.5"/>
<text text-anchor="middle" x="1613.5" y="-376.5" font-family="Helvetica,sans-Serif" font-size="10.00">Context.hpp</text>
</a>
</g>
</g>
<!-- Node2 -->
<g id="node2" class="node">
<title>Node2</title>
<g id="a_node2"><a xlink:href="ObjectHandle_8hpp.html" target="_top" xlink:title=" ">
<polygon fill="none" stroke="black" points="1461.5,-313.5 1461.5,-332.5 1565.5,-332.5 1565.5,-313.5 1461.5,-313.5"/>
<text text-anchor="middle" x="1513.5" y="-320.5" font-family="Helvetica,sans-Serif" font-size="10.00">ObjectHandle.hpp</text>
</a>
</g>
</g>
<!-- Node1&#45;&gt;Node2 -->
<g id="edge1" class="edge">
<title>Node1&#45;&gt;Node2</title>
<path fill="none" stroke="midnightblue" d="M1597.43,-369.32C1581.54,-360.74 1556.99,-347.49 1538.54,-337.52"/>
<polygon fill="midnightblue" stroke="midnightblue" points="1539.99,-334.33 1529.53,-332.65 1536.66,-340.49 1539.99,-334.33"/>
</g>
<!-- Node3 -->
<g id="node3" class="node">
<title>Node3</title>
<g id="a_node3"><a xlink:href="Variant_8hpp.html" target="_top" xlink:title=" ">
<polygon fill="none" stroke="black" points="920,-252 920,-271 993,-271 993,-252 920,-252"/>
<text text-anchor="middle" x="956.5" y="-259" font-family="Helvetica,sans-Serif" font-size="10.00">Variant.hpp</text>
</a>
</g>
</g>
<!-- Node1&#45;&gt;Node3 -->
<g id="edge55" class="edge">
<title>Node1&#45;&gt;Node3</title>
<path fill="none" stroke="midnightblue" d="M1575.34,-371.29C1461.86,-351.34 1126.75,-292.43 1003.06,-270.69"/>
<polygon fill="midnightblue" stroke="midnightblue" points="1003.59,-267.23 993.14,-268.94 1002.38,-274.12 1003.59,-267.23"/>
</g>
<!-- Node33 -->
<g id="node33" class="node">
<title>Node33</title>
<g id="a_node33"><a xlink:title=" ">
<polygon fill="none" stroke="#bfbfbf" points="1484.5,-185 1484.5,-204 1542.5,-204 1542.5,-185 1484.5,-185"/>
<text text-anchor="middle" x="1513.5" y="-192" font-family="Helvetica,sans-Serif" font-size="10.00">memory</text>
</a>
</g>
</g>
<!-- Node1&#45;&gt;Node33 -->
<g id="edge57" class="edge">
<title>Node1&#45;&gt;Node33</title>
<path fill="none" stroke="midnightblue" d="M1623.61,-369.31C1648.16,-347.18 1706.67,-287.5 1675.5,-246 1641.04,-200.11 1605.91,-228.24 1551.5,-210 1549.24,-209.24 1546.92,-208.43 1544.58,-207.6"/>
<polygon fill="midnightblue" stroke="midnightblue" points="1545.69,-204.27 1535.09,-204.09 1543.26,-210.84 1545.69,-204.27"/>
</g>
<!-- Node34 -->
<g id="node34" class="node">
<title>Node34</title>
<g id="a_node34"><a xlink:title=" ">
<polygon fill="none" stroke="#bfbfbf" points="1560.5,-185 1560.5,-204 1604.5,-204 1604.5,-185 1560.5,-185"/>
<text text-anchor="middle" x="1582.5" y="-192" font-family="Helvetica,sans-Serif" font-size="10.00">string</text>
</a>
</g>
</g>
<!-- Node1&#45;&gt;Node34 -->
<g id="edge58" class="edge">
<title>Node1&#45;&gt;Node34</title>
<path fill="none" stroke="midnightblue" d="M1651.63,-370.3C1672.26,-363.99 1696.01,-352.74 1708.5,-333 1729.18,-300.33 1730.17,-278.03 1708.5,-246 1687.71,-215.27 1644.84,-203.24 1614.9,-198.53"/>
<polygon fill="midnightblue" stroke="midnightblue" points="1615.3,-195.05 1604.91,-197.15 1614.34,-201.98 1615.3,-195.05"/>
</g>
<!-- Node37 -->
<g id="node37" class="node">
<title>Node37</title>
<g id="a_node37"><a xlink:title=" ">
<polygon fill="none" stroke="#bfbfbf" points="1560.5,-246.5 1560.5,-276.5 1666.5,-276.5 1666.5,-246.5 1560.5,-246.5"/>
<text text-anchor="start" x="1568.5" y="-264.5" font-family="Helvetica,sans-Serif" font-size="10.00">boost/utility/string</text>
<text text-anchor="middle" x="1613.5" y="-253.5" font-family="Helvetica,sans-Serif" font-size="10.00">_ref.hpp</text>
</a>
</g>
</g>
<!-- Node1&#45;&gt;Node37 -->
<g id="edge56" class="edge">
<title>Node1&#45;&gt;Node37</title>
<path fill="none" stroke="midnightblue" d="M1613.5,-369.32C1613.5,-351.97 1613.5,-312.46 1613.5,-286.66"/>
<polygon fill="midnightblue" stroke="midnightblue" points="1617,-286.55 1613.5,-276.55 1610,-286.55 1617,-286.55"/>
</g>
<!-- Node2&#45;&gt;Node3 -->
<g id="edge2" class="edge">
<title>Node2&#45;&gt;Node3</title>
<path fill="none" stroke="midnightblue" d="M1461.35,-316.43C1353.36,-304.89 1106.77,-278.55 1003.43,-267.51"/>
<polygon fill="midnightblue" stroke="midnightblue" points="1003.61,-264.01 993.3,-266.43 1002.87,-270.97 1003.61,-264.01"/>
</g>
<!-- Node2&#45;&gt;Node33 -->
<g id="edge53" class="edge">
<title>Node2&#45;&gt;Node33</title>
<path fill="none" stroke="midnightblue" d="M1513.5,-313.31C1513.5,-292.99 1513.5,-242.05 1513.5,-214.28"/>
<polygon fill="midnightblue" stroke="midnightblue" points="1517,-214.26 1513.5,-204.26 1510,-214.26 1517,-214.26"/>
</g>
<!-- Node2&#45;&gt;Node34 -->
<g id="edge54" class="edge">
<title>Node2&#45;&gt;Node34</title>
<path fill="none" stroke="midnightblue" d="M1517.48,-313.44C1524.15,-299.24 1538.17,-269.99 1551.5,-246 1557.72,-234.8 1565.22,-222.55 1571.29,-212.92"/>
<polygon fill="midnightblue" stroke="midnightblue" points="1574.36,-214.62 1576.77,-204.3 1568.45,-210.86 1574.36,-214.62"/>
</g>
<!-- Node36 -->
<g id="node36" class="node">
<title>Node36</title>
<g id="a_node36"><a xlink:href="Span_8hpp.html" target="_top" xlink:title=" ">
<polygon fill="none" stroke="black" points="1459.5,-123.5 1459.5,-142.5 1545.5,-142.5 1545.5,-123.5 1459.5,-123.5"/>
<text text-anchor="middle" x="1502.5" y="-130.5" font-family="Helvetica,sans-Serif" font-size="10.00">utils/Span.hpp</text>
</a>
</g>
</g>
<!-- Node2&#45;&gt;Node36 -->
<g id="edge45" class="edge">
<title>Node2&#45;&gt;Node36</title>
<path fill="none" stroke="midnightblue" d="M1507.9,-313.28C1494.27,-290.92 1461.44,-229.75 1475.5,-179 1478.29,-168.92 1484.01,-158.83 1489.47,-150.77"/>
<polygon fill="midnightblue" stroke="midnightblue" points="1492.32,-152.79 1495.35,-142.64 1486.65,-148.69 1492.32,-152.79"/>
</g>
<!-- Node2&#45;&gt;Node37 -->
<g id="edge52" class="edge">
<title>Node2&#45;&gt;Node37</title>
<path fill="none" stroke="midnightblue" d="M1527.83,-313.48C1541.62,-305.27 1562.98,-292.56 1580.92,-281.88"/>
<polygon fill="midnightblue" stroke="midnightblue" points="1583.13,-284.64 1589.93,-276.52 1579.55,-278.63 1583.13,-284.64"/>
</g>
<!-- Node4 -->
<g id="node4" class="node">
<title>Node4</title>
<g id="a_node4"><a xlink:href="None_8hpp.html" target="_top" xlink:title=" ">
<polygon fill="none" stroke="black" points="401,-123.5 401,-142.5 464,-142.5 464,-123.5 401,-123.5"/>
<text text-anchor="middle" x="432.5" y="-130.5" font-family="Helvetica,sans-Serif" font-size="10.00">None.hpp</text>
</a>
</g>
</g>
<!-- Node3&#45;&gt;Node4 -->
<g id="edge3" class="edge">
<title>Node3&#45;&gt;Node4</title>
<path fill="none" stroke="midnightblue" d="M954.77,-251.75C950.86,-234.48 939.54,-196.18 913.5,-179 833.92,-126.48 585.38,-155.91 474.29,-142.92"/>
<polygon fill="midnightblue" stroke="midnightblue" points="474.68,-139.44 464.3,-141.58 473.74,-146.38 474.68,-139.44"/>
</g>
<!-- Node6 -->
<g id="node6" class="node">
<title>Node6</title>
<g id="a_node6"><a xlink:title=" ">
<polygon fill="none" stroke="#bfbfbf" points="619,-0.5 619,-19.5 672,-19.5 672,-0.5 619,-0.5"/>
<text text-anchor="middle" x="645.5" y="-7.5" font-family="Helvetica,sans-Serif" font-size="10.00">cstddef</text>
</a>
</g>
</g>
<!-- Node3&#45;&gt;Node6 -->
<g id="edge39" class="edge">
<title>Node3&#45;&gt;Node6</title>
<path fill="none" stroke="midnightblue" d="M948.85,-251.71C931.19,-231.52 888.38,-183.22 879.5,-179 781.29,-132.32 465.51,-222.67 391.5,-143 322.75,-68.99 523.32,-29.29 608.86,-16.07"/>
<polygon fill="midnightblue" stroke="midnightblue" points="609.57,-19.51 618.94,-14.56 608.53,-12.58 609.57,-19.51"/>
</g>
<!-- Node7 -->
<g id="node7" class="node">
<title>Node7</title>
<g id="a_node7"><a xlink:href="Vector_8hpp.html" target="_top" xlink:title=" ">
<polygon fill="none" stroke="black" points="1004,-185 1004,-204 1097,-204 1097,-185 1004,-185"/>
<text text-anchor="middle" x="1050.5" y="-192" font-family="Helvetica,sans-Serif" font-size="10.00">utils/Vector.hpp</text>
</a>
</g>
</g>
<!-- Node3&#45;&gt;Node7 -->
<g id="edge6" class="edge">
<title>Node3&#45;&gt;Node7</title>
<path fill="none" stroke="midnightblue" d="M969.18,-251.73C984.68,-241.01 1011.14,-222.72 1029.66,-209.91"/>
<polygon fill="midnightblue" stroke="midnightblue" points="1031.79,-212.69 1038.02,-204.13 1027.81,-206.94 1031.79,-212.69"/>
</g>
<!-- Node23 -->
<g id="node23" class="node">
<title>Node23</title>
<g id="a_node23"><a xlink:title=" ">
<polygon fill="none" stroke="#bfbfbf" points="1602,-62 1602,-81 1671,-81 1671,-62 1602,-62"/>
<text text-anchor="middle" x="1636.5" y="-69" font-family="Helvetica,sans-Serif" font-size="10.00">type_traits</text>
</a>
</g>
</g>
<!-- Node3&#45;&gt;Node23 -->
<g id="edge42" class="edge">
<title>Node3&#45;&gt;Node23</title>
<path fill="none" stroke="midnightblue" d="M993.23,-257.34C1063.31,-250.97 1220.79,-235.03 1351.5,-210 1355.18,-209.3 1609.75,-145.54 1612.5,-143 1626.85,-129.71 1632.62,-107.51 1634.94,-91.57"/>
<polygon fill="midnightblue" stroke="midnightblue" points="1638.46,-91.61 1636.09,-81.28 1631.5,-90.83 1638.46,-91.61"/>
</g>
<!-- Node24 -->
<g id="node24" class="node">
<title>Node24</title>
<g id="a_node24"><a xlink:title=" ">
<polygon fill="none" stroke="#bfbfbf" points="482,-123.5 482,-142.5 529,-142.5 529,-123.5 482,-123.5"/>
<text text-anchor="middle" x="505.5" y="-130.5" font-family="Helvetica,sans-Serif" font-size="10.00">vector</text>
</a>
</g>
</g>
<!-- Node3&#45;&gt;Node24 -->
<g id="edge44" class="edge">
<title>Node3&#45;&gt;Node24</title>
<path fill="none" stroke="midnightblue" d="M959.14,-251.94C963.67,-235.34 970.7,-198.69 951.5,-179 920.92,-147.62 615.89,-150.69 539.13,-142.38"/>
<polygon fill="midnightblue" stroke="midnightblue" points="539.56,-138.91 529.18,-141 538.6,-145.84 539.56,-138.91"/>
</g>
<!-- Node25 -->
<g id="node25" class="node">
<title>Node25</title>
<g id="a_node25"><a xlink:title=" ">
<polygon fill="none" stroke="#bfbfbf" points="1115.5,-185 1115.5,-204 1217.5,-204 1217.5,-185 1115.5,-185"/>
<text text-anchor="middle" x="1166.5" y="-192" font-family="Helvetica,sans-Serif" font-size="10.00">boost/variant.hpp</text>
</a>
</g>
</g>
<!-- Node3&#45;&gt;Node25 -->
<g id="edge31" class="edge">
<title>Node3&#45;&gt;Node25</title>
<path fill="none" stroke="midnightblue" d="M984.39,-251.87C1021.6,-240.35 1087.6,-219.92 1129.1,-207.08"/>
<polygon fill="midnightblue" stroke="midnightblue" points="1130.31,-210.36 1138.83,-204.06 1128.24,-203.68 1130.31,-210.36"/>
</g>
<!-- Node26 -->
<g id="node26" class="node">
<title>Node26</title>
<g id="a_node26"><a xlink:title=" ">
<polygon fill="none" stroke="#bfbfbf" points="1236,-179.5 1236,-209.5 1343,-209.5 1343,-179.5 1236,-179.5"/>
<text text-anchor="start" x="1244" y="-197.5" font-family="Helvetica,sans-Serif" font-size="10.00">boost/serialization</text>
<text text-anchor="middle" x="1289.5" y="-186.5" font-family="Helvetica,sans-Serif" font-size="10.00">/version.hpp</text>
</a>
</g>
</g>
<!-- Node3&#45;&gt;Node26 -->
<g id="edge32" class="edge">
<title>Node3&#45;&gt;Node26</title>
<path fill="none" stroke="midnightblue" d="M993.28,-254.12C1043.45,-245.3 1136.38,-228.59 1225.87,-210.08"/>
<polygon fill="midnightblue" stroke="midnightblue" points="1226.84,-213.45 1235.92,-207.99 1225.41,-206.6 1226.84,-213.45"/>
</g>
<!-- Node27 -->
<g id="node27" class="node">
<title>Node27</title>
<g id="a_node27"><a xlink:title=" ">
<polygon fill="none" stroke="#bfbfbf" points="0,-179.5 0,-209.5 125,-209.5 125,-179.5 0,-179.5"/>
<text text-anchor="start" x="8" y="-197.5" font-family="Helvetica,sans-Serif" font-size="10.00">boost/range/algorithm</text>
<text text-anchor="middle" x="62.5" y="-186.5" font-family="Helvetica,sans-Serif" font-size="10.00">/transform.hpp</text>
</a>
</g>
</g>
<!-- Node3&#45;&gt;Node27 -->
<g id="edge33" class="edge">
<title>Node3&#45;&gt;Node27</title>
<path fill="none" stroke="midnightblue" d="M919.82,-260.08C805.17,-258.38 443.32,-250.08 135.16,-210.1"/>
<polygon fill="midnightblue" stroke="midnightblue" points="135.51,-206.62 125.14,-208.79 134.6,-213.56 135.51,-206.62"/>
</g>
<!-- Node28 -->
<g id="node28" class="node">
<title>Node28</title>
<g id="a_node28"><a xlink:title=" ">
<polygon fill="none" stroke="#bfbfbf" points="143,-179.5 143,-209.5 250,-209.5 250,-179.5 143,-179.5"/>
<text text-anchor="start" x="151" y="-197.5" font-family="Helvetica,sans-Serif" font-size="10.00">boost/serialization</text>
<text text-anchor="middle" x="196.5" y="-186.5" font-family="Helvetica,sans-Serif" font-size="10.00">/serialization.hpp</text>
</a>
</g>
</g>
<!-- Node3&#45;&gt;Node28 -->
<g id="edge34" class="edge">
<title>Node3&#45;&gt;Node28</title>
<path fill="none" stroke="midnightblue" d="M919.94,-259.88C817.23,-257.71 517.29,-248.43 260.07,-210.09"/>
<polygon fill="midnightblue" stroke="midnightblue" points="260.58,-206.63 250.17,-208.6 259.53,-213.55 260.58,-206.63"/>
</g>
<!-- Node29 -->
<g id="node29" class="node">
<title>Node29</title>
<g id="a_node29"><a xlink:title=" ">
<polygon fill="none" stroke="#bfbfbf" points="268,-179.5 268,-209.5 375,-209.5 375,-179.5 268,-179.5"/>
<text text-anchor="start" x="276" y="-197.5" font-family="Helvetica,sans-Serif" font-size="10.00">boost/serialization</text>
<text text-anchor="middle" x="321.5" y="-186.5" font-family="Helvetica,sans-Serif" font-size="10.00">/string.hpp</text>
</a>
</g>
</g>
<!-- Node3&#45;&gt;Node29 -->
<g id="edge35" class="edge">
<title>Node3&#45;&gt;Node29</title>
<path fill="none" stroke="midnightblue" d="M919.74,-259.07C829.95,-255.19 592.24,-242.6 385.32,-210.15"/>
<polygon fill="midnightblue" stroke="midnightblue" points="385.6,-206.66 375.18,-208.54 384.5,-213.57 385.6,-206.66"/>
</g>
<!-- Node30 -->
<g id="node30" class="node">
<title>Node30</title>
<g id="a_node30"><a xlink:title=" ">
<polygon fill="none" stroke="#bfbfbf" points="393,-179.5 393,-209.5 510,-209.5 510,-179.5 393,-179.5"/>
<text text-anchor="start" x="401" y="-197.5" font-family="Helvetica,sans-Serif" font-size="10.00">boost/serialization</text>
<text text-anchor="middle" x="451.5" y="-186.5" font-family="Helvetica,sans-Serif" font-size="10.00">/unordered_map.hpp</text>
</a>
</g>
</g>
<!-- Node3&#45;&gt;Node30 -->
<g id="edge36" class="edge">
<title>Node3&#45;&gt;Node30</title>
<path fill="none" stroke="midnightblue" d="M919.99,-257.51C846.25,-251.22 674.12,-235.2 520.36,-210.22"/>
<polygon fill="midnightblue" stroke="midnightblue" points="520.7,-206.73 510.26,-208.56 519.56,-213.63 520.7,-206.73"/>
</g>
<!-- Node31 -->
<g id="node31" class="node">
<title>Node31</title>
<g id="a_node31"><a xlink:title=" ">
<polygon fill="none" stroke="#bfbfbf" points="528,-179.5 528,-209.5 635,-209.5 635,-179.5 528,-179.5"/>
<text text-anchor="start" x="536" y="-197.5" font-family="Helvetica,sans-Serif" font-size="10.00">boost/serialization</text>
<text text-anchor="middle" x="581.5" y="-186.5" font-family="Helvetica,sans-Serif" font-size="10.00">/variant.hpp</text>
</a>
</g>
</g>
<!-- Node3&#45;&gt;Node31 -->
<g id="edge37" class="edge">
<title>Node3&#45;&gt;Node31</title>
<path fill="none" stroke="midnightblue" d="M919.73,-255.42C862.92,-247.38 750.19,-230.7 645.34,-210.29"/>
<polygon fill="midnightblue" stroke="midnightblue" points="645.71,-206.8 635.22,-208.31 644.36,-213.67 645.71,-206.8"/>
</g>
<!-- Node32 -->
<g id="node32" class="node">
<title>Node32</title>
<g id="a_node32"><a xlink:title=" ">
<polygon fill="none" stroke="#bfbfbf" points="653,-179.5 653,-209.5 760,-209.5 760,-179.5 653,-179.5"/>
<text text-anchor="start" x="661" y="-197.5" font-family="Helvetica,sans-Serif" font-size="10.00">boost/serialization</text>
<text text-anchor="middle" x="706.5" y="-186.5" font-family="Helvetica,sans-Serif" font-size="10.00">/vector.hpp</text>
</a>
</g>
</g>
<!-- Node3&#45;&gt;Node32 -->
<g id="edge38" class="edge">
<title>Node3&#45;&gt;Node32</title>
<path fill="none" stroke="midnightblue" d="M923.56,-251.94C884.61,-241.81 818.9,-224.72 769.96,-212"/>
<polygon fill="midnightblue" stroke="midnightblue" points="770.66,-208.56 760.1,-209.44 768.9,-215.34 770.66,-208.56"/>
</g>
<!-- Node3&#45;&gt;Node33 -->
<g id="edge40" class="edge">
<title>Node3&#45;&gt;Node33</title>
<path fill="none" stroke="midnightblue" d="M993.04,-257.52C1072.95,-250.81 1269.19,-233.25 1432.5,-210 1446.12,-208.06 1460.94,-205.53 1474.15,-203.13"/>
<polygon fill="midnightblue" stroke="midnightblue" points="1475.14,-206.5 1484.34,-201.24 1473.87,-199.62 1475.14,-206.5"/>
</g>
<!-- Node3&#45;&gt;Node34 -->
<g id="edge41" class="edge">
<title>Node3&#45;&gt;Node34</title>
<path fill="none" stroke="midnightblue" d="M993.38,-259.07C1106.16,-254.42 1445.21,-238.4 1551.5,-210 1553.44,-209.48 1555.4,-208.85 1557.35,-208.14"/>
<polygon fill="midnightblue" stroke="midnightblue" points="1558.97,-211.26 1566.82,-204.14 1556.24,-204.81 1558.97,-211.26"/>
</g>
<!-- Node35 -->
<g id="node35" class="node">
<title>Node35</title>
<g id="a_node35"><a xlink:title=" ">
<polygon fill="none" stroke="#bfbfbf" points="778,-185 778,-204 871,-204 871,-185 778,-185"/>
<text text-anchor="middle" x="824.5" y="-192" font-family="Helvetica,sans-Serif" font-size="10.00">unordered_map</text>
</a>
</g>
</g>
<!-- Node3&#45;&gt;Node35 -->
<g id="edge43" class="edge">
<title>Node3&#45;&gt;Node35</title>
<path fill="none" stroke="midnightblue" d="M938.97,-251.87C916.49,-240.8 877.27,-221.49 851.1,-208.6"/>
<polygon fill="midnightblue" stroke="midnightblue" points="852.62,-205.44 842.1,-204.17 849.53,-211.72 852.62,-205.44"/>
</g>
<!-- Node5 -->
<g id="node5" class="node">
<title>Node5</title>
<g id="a_node5"><a xlink:title=" ">
<polygon fill="none" stroke="#bfbfbf" points="487,-56.5 487,-86.5 594,-86.5 594,-56.5 487,-56.5"/>
<text text-anchor="start" x="495" y="-74.5" font-family="Helvetica,sans-Serif" font-size="10.00">boost/serialization</text>
<text text-anchor="middle" x="540.5" y="-63.5" font-family="Helvetica,sans-Serif" font-size="10.00">/access.hpp</text>
</a>
</g>
</g>
<!-- Node4&#45;&gt;Node5 -->
<g id="edge4" class="edge">
<title>Node4&#45;&gt;Node5</title>
<path fill="none" stroke="midnightblue" d="M447.97,-123.48C463.08,-115.15 486.58,-102.21 506.11,-91.45"/>
<polygon fill="midnightblue" stroke="midnightblue" points="507.98,-94.41 515.05,-86.52 504.6,-88.28 507.98,-94.41"/>
</g>
<!-- Node4&#45;&gt;Node6 -->
<g id="edge5" class="edge">
<title>Node4&#45;&gt;Node6</title>
<path fill="none" stroke="midnightblue" d="M435.13,-123.46C440.46,-107.65 454.04,-73.79 477.5,-56 516.04,-26.77 572.12,-16.5 608.71,-12.91"/>
<polygon fill="midnightblue" stroke="midnightblue" points="609.28,-16.37 618.94,-12.03 608.68,-9.4 609.28,-16.37"/>
</g>
<!-- Node7&#45;&gt;Node6 -->
<g id="edge24" class="edge">
<title>Node7&#45;&gt;Node6</title>
<path fill="none" stroke="midnightblue" d="M1007.68,-184.96C996.28,-182.85 983.94,-180.7 972.5,-179 901.28,-168.41 699.51,-195.75 650.5,-143 621.97,-112.3 631.63,-58.17 639.49,-29.7"/>
<polygon fill="midnightblue" stroke="midnightblue" points="642.92,-30.42 642.43,-19.83 636.22,-28.42 642.92,-30.42"/>
</g>
<!-- Node8 -->
<g id="node8" class="node">
<title>Node8</title>
<g id="a_node8"><a xlink:title=" ">
<polygon fill="none" stroke="#bfbfbf" points="763.5,-123.5 763.5,-142.5 913.5,-142.5 913.5,-123.5 763.5,-123.5"/>
<text text-anchor="middle" x="838.5" y="-130.5" font-family="Helvetica,sans-Serif" font-size="10.00">boost/qvm/deduce_vec.hpp</text>
</a>
</g>
</g>
<!-- Node7&#45;&gt;Node8 -->
<g id="edge7" class="edge">
<title>Node7&#45;&gt;Node8</title>
<path fill="none" stroke="midnightblue" d="M1020.13,-184.98C982.89,-174.53 919.69,-156.79 878.52,-145.23"/>
<polygon fill="midnightblue" stroke="midnightblue" points="879.39,-141.84 868.82,-142.51 877.5,-148.58 879.39,-141.84"/>
</g>
<!-- Node9 -->
<g id="node9" class="node">
<title>Node9</title>
<g id="a_node9"><a xlink:title=" ">
<polygon fill="none" stroke="#bfbfbf" points="931.5,-123.5 931.5,-142.5 1071.5,-142.5 1071.5,-123.5 931.5,-123.5"/>
<text text-anchor="middle" x="1001.5" y="-130.5" font-family="Helvetica,sans-Serif" font-size="10.00">boost/qvm/vec_traits.hpp</text>
</a>
</g>
</g>
<!-- Node7&#45;&gt;Node9 -->
<g id="edge8" class="edge">
<title>Node7&#45;&gt;Node9</title>
<path fill="none" stroke="midnightblue" d="M1043.48,-184.98C1036.06,-175.96 1024.17,-161.52 1014.93,-150.31"/>
<polygon fill="midnightblue" stroke="midnightblue" points="1017.57,-148 1008.51,-142.51 1012.16,-152.45 1017.57,-148"/>
</g>
<!-- Node10 -->
<g id="node10" class="node">
<title>Node10</title>
<g id="a_node10"><a xlink:href="Array_8hpp.html" target="_top" xlink:title=" ">
<polygon fill="none" stroke="black" points="659.5,-123.5 659.5,-142.5 745.5,-142.5 745.5,-123.5 659.5,-123.5"/>
<text text-anchor="middle" x="702.5" y="-130.5" font-family="Helvetica,sans-Serif" font-size="10.00">utils/Array.hpp</text>
</a>
</g>
</g>
<!-- Node7&#45;&gt;Node10 -->
<g id="edge9" class="edge">
<title>Node7&#45;&gt;Node10</title>
<path fill="none" stroke="midnightblue" d="M1016.73,-184.95C1007.9,-182.86 998.37,-180.73 989.5,-179 888.93,-159.38 860.49,-159.96 755.66,-143.15"/>
<polygon fill="midnightblue" stroke="midnightblue" points="756.05,-139.67 745.62,-141.53 754.93,-146.58 756.05,-139.67"/>
</g>
<!-- Node12 -->
<g id="node12" class="node">
<title>Node12</title>
<g id="a_node12"><a xlink:title=" ">
<polygon fill="none" stroke="#bfbfbf" points="1237.5,-0.5 1237.5,-19.5 1289.5,-19.5 1289.5,-0.5 1237.5,-0.5"/>
<text text-anchor="middle" x="1263.5" y="-7.5" font-family="Helvetica,sans-Serif" font-size="10.00">cassert</text>
</a>
</g>
</g>
<!-- Node7&#45;&gt;Node12 -->
<g id="edge22" class="edge">
<title>Node7&#45;&gt;Node12</title>
<path fill="none" stroke="midnightblue" d="M1079.65,-184.93C1088.23,-182.69 1097.69,-180.48 1106.5,-179 1155.75,-170.71 1520.63,-179.7 1554.5,-143 1632.39,-58.6 1394,-24.38 1299.93,-14.38"/>
<polygon fill="midnightblue" stroke="midnightblue" points="1300.03,-10.87 1289.73,-13.33 1299.32,-17.83 1300.03,-10.87"/>
</g>
<!-- Node15 -->
<g id="node15" class="node">
<title>Node15</title>
<g id="a_node15"><a xlink:title=" ">
<polygon fill="none" stroke="#bfbfbf" points="1087,-62 1087,-81 1140,-81 1140,-62 1087,-62"/>
<text text-anchor="middle" x="1113.5" y="-69" font-family="Helvetica,sans-Serif" font-size="10.00">iterator</text>
</a>
</g>
</g>
<!-- Node7&#45;&gt;Node15 -->
<g id="edge27" class="edge">
<title>Node7&#45;&gt;Node15</title>
<path fill="none" stroke="midnightblue" d="M1056.08,-184.71C1062.32,-174.75 1072.58,-157.96 1080.5,-143 1089.76,-125.51 1099.23,-104.96 1105.63,-90.57"/>
<polygon fill="midnightblue" stroke="midnightblue" points="1108.88,-91.88 1109.71,-81.32 1102.47,-89.06 1108.88,-91.88"/>
</g>
<!-- Node18 -->
<g id="node18" class="node">
<title>Node18</title>
<g id="a_node18"><a xlink:title=" ">
<polygon fill="none" stroke="#bfbfbf" points="1127.5,-123.5 1127.5,-142.5 1191.5,-142.5 1191.5,-123.5 1127.5,-123.5"/>
<text text-anchor="middle" x="1159.5" y="-130.5" font-family="Helvetica,sans-Serif" font-size="10.00">algorithm</text>
</a>
</g>
</g>
<!-- Node7&#45;&gt;Node18 -->
<g id="edge21" class="edge">
<title>Node7&#45;&gt;Node18</title>
<path fill="none" stroke="midnightblue" d="M1066.12,-184.98C1084.09,-175.17 1113.82,-158.93 1134.91,-147.42"/>
<polygon fill="midnightblue" stroke="midnightblue" points="1136.81,-150.37 1143.91,-142.51 1133.46,-144.23 1136.81,-150.37"/>
</g>
<!-- Node19 -->
<g id="node19" class="node">
<title>Node19</title>
<g id="a_node19"><a xlink:title=" ">
<polygon fill="none" stroke="#bfbfbf" points="1210,-123.5 1210,-142.5 1257,-142.5 1257,-123.5 1210,-123.5"/>
<text text-anchor="middle" x="1233.5" y="-130.5" font-family="Helvetica,sans-Serif" font-size="10.00">cmath</text>
</a>
</g>
</g>
<!-- Node7&#45;&gt;Node19 -->
<g id="edge23" class="edge">
<title>Node7&#45;&gt;Node19</title>
<path fill="none" stroke="midnightblue" d="M1076.72,-184.98C1109.19,-174.42 1164.55,-156.42 1200.05,-144.88"/>
<polygon fill="midnightblue" stroke="midnightblue" points="1201.52,-148.08 1209.94,-141.66 1199.35,-141.42 1201.52,-148.08"/>
</g>
<!-- Node20 -->
<g id="node20" class="node">
<title>Node20</title>
<g id="a_node20"><a xlink:title=" ">
<polygon fill="none" stroke="#bfbfbf" points="1275,-123.5 1275,-142.5 1340,-142.5 1340,-123.5 1275,-123.5"/>
<text text-anchor="middle" x="1307.5" y="-130.5" font-family="Helvetica,sans-Serif" font-size="10.00">functional</text>
</a>
</g>
</g>
<!-- Node7&#45;&gt;Node20 -->
<g id="edge25" class="edge">
<title>Node7&#45;&gt;Node20</title>
<path fill="none" stroke="midnightblue" d="M1082.73,-184.96C1090.5,-182.95 1098.79,-180.86 1106.5,-179 1136.09,-171.86 1215.24,-154.31 1264.93,-143.36"/>
<polygon fill="midnightblue" stroke="midnightblue" points="1265.74,-146.76 1274.75,-141.19 1264.24,-139.93 1265.74,-146.76"/>
</g>
<!-- Node21 -->
<g id="node21" class="node">
<title>Node21</title>
<g id="a_node21"><a xlink:title=" ">
<polygon fill="none" stroke="#bfbfbf" points="1358,-123.5 1358,-142.5 1441,-142.5 1441,-123.5 1358,-123.5"/>
<text text-anchor="middle" x="1399.5" y="-130.5" font-family="Helvetica,sans-Serif" font-size="10.00">initializer_list</text>
</a>
</g>
</g>
<!-- Node7&#45;&gt;Node21 -->
<g id="edge26" class="edge">
<title>Node7&#45;&gt;Node21</title>
<path fill="none" stroke="midnightblue" d="M1081.17,-184.93C1089.36,-182.82 1098.23,-180.68 1106.5,-179 1209.94,-157.98 1239.46,-160.29 1347.74,-143.07"/>
<polygon fill="midnightblue" stroke="midnightblue" points="1348.45,-146.5 1357.77,-141.46 1347.34,-139.59 1348.45,-146.5"/>
</g>
<!-- Node22 -->
<g id="node22" class="node">
<title>Node22</title>
<g id="a_node22"><a xlink:title=" ">
<polygon fill="none" stroke="#bfbfbf" points="547.5,-123.5 547.5,-142.5 603.5,-142.5 603.5,-123.5 547.5,-123.5"/>
<text text-anchor="middle" x="575.5" y="-130.5" font-family="Helvetica,sans-Serif" font-size="10.00">numeric</text>
</a>
</g>
</g>
<!-- Node7&#45;&gt;Node22 -->
<g id="edge28" class="edge">
<title>Node7&#45;&gt;Node22</title>
<path fill="none" stroke="midnightblue" d="M1018.38,-184.99C1009.11,-182.78 998.95,-180.57 989.5,-179 825.65,-151.73 781.65,-168.44 617.5,-143 616.26,-142.81 614.99,-142.6 613.72,-142.38"/>
<polygon fill="midnightblue" stroke="midnightblue" points="614.36,-138.94 603.88,-140.54 613.07,-145.82 614.36,-138.94"/>
</g>
<!-- Node7&#45;&gt;Node23 -->
<g id="edge29" class="edge">
<title>Node7&#45;&gt;Node23</title>
<path fill="none" stroke="midnightblue" d="M1079.35,-184.98C1088.01,-182.71 1097.58,-180.48 1106.5,-179 1212.25,-161.5 1494.43,-196.17 1587.5,-143 1607.86,-131.37 1621.71,-107.4 1629.35,-90.66"/>
<polygon fill="midnightblue" stroke="midnightblue" points="1632.62,-91.91 1633.31,-81.34 1626.18,-89.17 1632.62,-91.91"/>
</g>
<!-- Node7&#45;&gt;Node24 -->
<g id="edge30" class="edge">
<title>Node7&#45;&gt;Node24</title>
<path fill="none" stroke="midnightblue" d="M1018.71,-184.97C1009.36,-182.72 999.07,-180.51 989.5,-179 794.08,-148.16 738.37,-176.66 539.08,-142.74"/>
<polygon fill="midnightblue" stroke="midnightblue" points="539.62,-139.28 529.17,-141.02 538.43,-146.18 539.62,-139.28"/>
</g>
<!-- Node10&#45;&gt;Node5 -->
<g id="edge15" class="edge">
<title>Node10&#45;&gt;Node5</title>
<path fill="none" stroke="midnightblue" d="M679.29,-123.48C655.61,-114.78 618.17,-101.03 588.14,-90"/>
<polygon fill="midnightblue" stroke="midnightblue" points="589.27,-86.69 578.68,-86.52 586.86,-93.26 589.27,-86.69"/>
</g>
<!-- Node10&#45;&gt;Node6 -->
<g id="edge17" class="edge">
<title>Node10&#45;&gt;Node6</title>
<path fill="none" stroke="midnightblue" d="M698.4,-123.3C689.12,-103.59 666.33,-55.21 653.9,-28.84"/>
<polygon fill="midnightblue" stroke="midnightblue" points="656.99,-27.18 649.56,-19.62 650.66,-30.16 656.99,-27.18"/>
</g>
<!-- Node11 -->
<g id="node11" class="node">
<title>Node11</title>
<g id="a_node11"><a xlink:href="device__qualifier_8hpp.html" target="_top" xlink:title=" ">
<polygon fill="none" stroke="black" points="952.5,-62 952.5,-81 1068.5,-81 1068.5,-62 952.5,-62"/>
<text text-anchor="middle" x="1010.5" y="-69" font-family="Helvetica,sans-Serif" font-size="10.00">device_qualifier.hpp</text>
</a>
</g>
</g>
<!-- Node10&#45;&gt;Node11 -->
<g id="edge10" class="edge">
<title>Node10&#45;&gt;Node11</title>
<path fill="none" stroke="midnightblue" d="M745.65,-123.66C800.74,-113.02 896.09,-94.6 956.1,-83.01"/>
<polygon fill="midnightblue" stroke="midnightblue" points="956.99,-86.4 966.15,-81.07 955.66,-79.53 956.99,-86.4"/>
</g>
<!-- Node10&#45;&gt;Node12 -->
<g id="edge16" class="edge">
<title>Node10&#45;&gt;Node12</title>
<path fill="none" stroke="midnightblue" d="M727.88,-123.41C780.75,-105.61 901.25,-65.56 943.5,-56 1044.93,-33.04 1167.25,-19.74 1227.03,-14.14"/>
<polygon fill="midnightblue" stroke="midnightblue" points="1227.46,-17.62 1237.1,-13.22 1226.82,-10.65 1227.46,-17.62"/>
</g>
<!-- Node13 -->
<g id="node13" class="node">
<title>Node13</title>
<g id="a_node13"><a xlink:href="get_8hpp.html" target="_top" xlink:title=" ">
<polygon fill="none" stroke="black" points="698,-62 698,-81 751,-81 751,-62 698,-62"/>
<text text-anchor="middle" x="724.5" y="-69" font-family="Helvetica,sans-Serif" font-size="10.00">get.hpp</text>
</a>
</g>
</g>
<!-- Node10&#45;&gt;Node13 -->
<g id="edge12" class="edge">
<title>Node10&#45;&gt;Node13</title>
<path fill="none" stroke="midnightblue" d="M705.65,-123.48C708.82,-114.9 713.8,-101.43 717.85,-90.48"/>
<polygon fill="midnightblue" stroke="midnightblue" points="721.17,-91.6 721.35,-81.01 714.6,-89.17 721.17,-91.6"/>
</g>
<!-- Node10&#45;&gt;Node15 -->
<g id="edge18" class="edge">
<title>Node10&#45;&gt;Node15</title>
<path fill="none" stroke="midnightblue" d="M745.6,-124.33C748.61,-123.86 751.6,-123.41 754.5,-123 897.51,-102.67 937.44,-122.31 1077.5,-87 1080.16,-86.33 1082.89,-85.5 1085.6,-84.59"/>
<polygon fill="midnightblue" stroke="midnightblue" points="1087,-87.8 1095.14,-81.01 1084.54,-81.25 1087,-87.8"/>
</g>
<!-- Node16 -->
<g id="node16" class="node">
<title>Node16</title>
<g id="a_node16"><a xlink:title=" ">
<polygon fill="none" stroke="#bfbfbf" points="769,-62 769,-81 826,-81 826,-62 769,-62"/>
<text text-anchor="middle" x="797.5" y="-69" font-family="Helvetica,sans-Serif" font-size="10.00">ostream</text>
</a>
</g>
</g>
<!-- Node10&#45;&gt;Node16 -->
<g id="edge19" class="edge">
<title>Node10&#45;&gt;Node16</title>
<path fill="none" stroke="midnightblue" d="M716.11,-123.48C731.56,-113.8 756.99,-97.87 775.32,-86.39"/>
<polygon fill="midnightblue" stroke="midnightblue" points="777.3,-89.28 783.91,-81.01 773.58,-83.35 777.3,-89.28"/>
</g>
<!-- Node17 -->
<g id="node17" class="node">
<title>Node17</title>
<g id="a_node17"><a xlink:title=" ">
<polygon fill="none" stroke="#bfbfbf" points="1173,-62 1173,-81 1238,-81 1238,-62 1173,-62"/>
<text text-anchor="middle" x="1205.5" y="-69" font-family="Helvetica,sans-Serif" font-size="10.00">stdexcept</text>
</a>
</g>
</g>
<!-- Node10&#45;&gt;Node17 -->
<g id="edge20" class="edge">
<title>Node10&#45;&gt;Node17</title>
<path fill="none" stroke="midnightblue" d="M745.59,-124.27C748.6,-123.81 751.59,-123.38 754.5,-123 928.83,-99.99 975.2,-116.77 1148.5,-87 1154.03,-86.05 1159.82,-84.84 1165.5,-83.52"/>
<polygon fill="midnightblue" stroke="midnightblue" points="1166.63,-86.85 1175.52,-81.07 1164.97,-80.05 1166.63,-86.85"/>
</g>
<!-- Node11&#45;&gt;Node12 -->
<g id="edge11" class="edge">
<title>Node11&#45;&gt;Node12</title>
<path fill="none" stroke="midnightblue" d="M1046.75,-61.98C1094.87,-50.66 1179.33,-30.79 1227.38,-19.49"/>
<polygon fill="midnightblue" stroke="midnightblue" points="1228.41,-22.85 1237.34,-17.15 1226.81,-16.03 1228.41,-22.85"/>
</g>
<!-- Node13&#45;&gt;Node6 -->
<g id="edge13" class="edge">
<title>Node13&#45;&gt;Node6</title>
<path fill="none" stroke="midnightblue" d="M713.18,-61.98C700.63,-52.52 680.15,-37.1 665,-25.69"/>
<polygon fill="midnightblue" stroke="midnightblue" points="666.89,-22.73 656.8,-19.51 662.68,-28.32 666.89,-22.73"/>
</g>
<!-- Node14 -->
<g id="node14" class="node">
<title>Node14</title>
<g id="a_node14"><a xlink:title=" ">
<polygon fill="none" stroke="#bfbfbf" points="704,-0.5 704,-19.5 745,-19.5 745,-0.5 704,-0.5"/>
<text text-anchor="middle" x="724.5" y="-7.5" font-family="Helvetica,sans-Serif" font-size="10.00">tuple</text>
</a>
</g>
</g>
<!-- Node13&#45;&gt;Node14 -->
<g id="edge14" class="edge">
<title>Node13&#45;&gt;Node14</title>
<path fill="none" stroke="midnightblue" d="M724.5,-61.98C724.5,-53.58 724.5,-40.48 724.5,-29.66"/>
<polygon fill="midnightblue" stroke="midnightblue" points="728,-29.51 724.5,-19.51 721,-29.51 728,-29.51"/>
</g>
<!-- Node36&#45;&gt;Node6 -->
<g id="edge48" class="edge">
<title>Node36&#45;&gt;Node6</title>
<path fill="none" stroke="midnightblue" d="M1479.97,-123.44C1435.88,-107.13 1334.81,-71.78 1246.5,-56 1004.48,-12.75 938.49,-50.26 694.5,-20 690.51,-19.51 686.35,-18.89 682.22,-18.22"/>
<polygon fill="midnightblue" stroke="midnightblue" points="682.57,-14.73 672.12,-16.47 681.37,-21.63 682.57,-14.73"/>
</g>
<!-- Node36&#45;&gt;Node11 -->
<g id="edge46" class="edge">
<title>Node36&#45;&gt;Node11</title>
<path fill="none" stroke="midnightblue" d="M1459.44,-124.42C1456.08,-123.91 1452.74,-123.43 1449.5,-123 1284.85,-101.08 1241.62,-112.61 1077.5,-87 1070.63,-85.93 1063.4,-84.59 1056.34,-83.16"/>
<polygon fill="midnightblue" stroke="midnightblue" points="1056.68,-79.66 1046.17,-81.03 1055.24,-86.51 1056.68,-79.66"/>
</g>
<!-- Node36&#45;&gt;Node12 -->
<g id="edge47" class="edge">
<title>Node36&#45;&gt;Node12</title>
<path fill="none" stroke="midnightblue" d="M1492.29,-123.42C1473.68,-108.12 1432.56,-75.89 1393.5,-56 1363.12,-40.53 1326.19,-28.32 1299.47,-20.54"/>
<polygon fill="midnightblue" stroke="midnightblue" points="1300.34,-17.15 1289.76,-17.78 1298.43,-23.88 1300.34,-17.15"/>
</g>
<!-- Node36&#45;&gt;Node15 -->
<g id="edge49" class="edge">
<title>Node36&#45;&gt;Node15</title>
<path fill="none" stroke="midnightblue" d="M1459.43,-124.53C1456.07,-123.99 1452.73,-123.48 1449.5,-123 1322.76,-104.27 1288.96,-112.92 1163.5,-87 1159.05,-86.08 1154.42,-84.96 1149.84,-83.76"/>
<polygon fill="midnightblue" stroke="midnightblue" points="1150.6,-80.34 1140.03,-81.03 1148.73,-87.08 1150.6,-80.34"/>
</g>
<!-- Node36&#45;&gt;Node17 -->
<g id="edge50" class="edge">
<title>Node36&#45;&gt;Node17</title>
<path fill="none" stroke="midnightblue" d="M1459.95,-123.48C1403.62,-112.19 1304.88,-92.41 1248.39,-81.09"/>
<polygon fill="midnightblue" stroke="midnightblue" points="1248.84,-77.61 1238.35,-79.08 1247.47,-84.48 1248.84,-77.61"/>
</g>
<!-- Node36&#45;&gt;Node23 -->
<g id="edge51" class="edge">
<title>Node36&#45;&gt;Node23</title>
<path fill="none" stroke="midnightblue" d="M1521.7,-123.48C1544.29,-113.45 1582,-96.7 1608,-85.15"/>
<polygon fill="midnightblue" stroke="midnightblue" points="1609.62,-88.27 1617.34,-81.01 1606.78,-81.87 1609.62,-88.27"/>
</g>
</g>
</svg>
