<?xml version="1.0" encoding="UTF-8" standalone="no"?>
<!DOCTYPE svg PUBLIC "-//W3C//DTD SVG 1.1//EN"
 "http://www.w3.org/Graphics/SVG/1.1/DTD/svg11.dtd">
<!-- Generated by graphviz version 2.43.0 (0)
 -->
<!-- Title: coordinate_transformation.hpp Pages: 1 -->
<svg width="3566pt" height="453pt"
 viewBox="0.00 0.00 3565.65 453.00" xmlns="http://www.w3.org/2000/svg" xmlns:xlink="http://www.w3.org/1999/xlink">
<g id="graph0" class="graph" transform="scale(1 1) rotate(0) translate(4 449)">
<title>coordinate_transformation.hpp</title>
<!-- Node1 -->
<g id="node1" class="node">
<title>Node1</title>
<g id="a_node1"><a xlink:title=" ">
<polygon fill="#bfbfbf" stroke="black" points="310.15,-425.5 310.15,-444.5 477.15,-444.5 477.15,-425.5 310.15,-425.5"/>
<text text-anchor="middle" x="393.65" y="-432.5" font-family="Helvetica,sans-Serif" font-size="10.00">coordinate_transformation.hpp</text>
</a>
</g>
</g>
<!-- Node2 -->
<g id="node2" class="node">
<title>Node2</title>
<g id="a_node2"><a xlink:href="Vector_8hpp.html" target="_top" xlink:title=" ">
<polygon fill="none" stroke="black" points="704.15,-179.5 704.15,-198.5 797.15,-198.5 797.15,-179.5 704.15,-179.5"/>
<text text-anchor="middle" x="750.65" y="-186.5" font-family="Helvetica,sans-Serif" font-size="10.00">utils/Vector.hpp</text>
</a>
</g>
</g>
<!-- Node1&#45;&gt;Node2 -->
<g id="edge1" class="edge">
<title>Node1&#45;&gt;Node2</title>
<path fill="none" stroke="midnightblue" d="M415.21,-425.39C432.46,-417.72 456.53,-405.22 473.65,-389 532.55,-333.21 505.87,-282.48 571.65,-235 607.27,-209.29 656.08,-198.21 693.74,-193.47"/>
<polygon fill="midnightblue" stroke="midnightblue" points="694.5,-196.9 704.04,-192.29 693.71,-189.95 694.5,-196.9"/>
</g>
<!-- Node7 -->
<g id="node7" class="node">
<title>Node7</title>
<g id="a_node7"><a xlink:title=" ">
<polygon fill="none" stroke="#bfbfbf" points="841.65,-0.5 841.65,-19.5 893.65,-19.5 893.65,-0.5 841.65,-0.5"/>
<text text-anchor="middle" x="867.65" y="-7.5" font-family="Helvetica,sans-Serif" font-size="10.00">cassert</text>
</a>
</g>
</g>
<!-- Node1&#45;&gt;Node7 -->
<g id="edge77" class="edge">
<title>Node1&#45;&gt;Node7</title>
<path fill="none" stroke="midnightblue" d="M309.9,-429.49C224.42,-423.73 98.41,-411.65 55.65,-389 16.24,-368.12 -12.21,-342.87 5.65,-302 34.99,-234.85 126.65,-263.28 126.65,-190 126.65,-190 126.65,-190 126.65,-132 126.65,-59.76 682.29,-21.9 831.27,-13.05"/>
<polygon fill="midnightblue" stroke="midnightblue" points="831.5,-16.54 841.28,-12.46 831.09,-9.55 831.5,-16.54"/>
</g>
<!-- Node16 -->
<g id="node16" class="node">
<title>Node16</title>
<g id="a_node16"><a xlink:title=" ">
<polygon fill="none" stroke="#bfbfbf" points="241.15,-123.5 241.15,-142.5 288.15,-142.5 288.15,-123.5 241.15,-123.5"/>
<text text-anchor="middle" x="264.65" y="-130.5" font-family="Helvetica,sans-Serif" font-size="10.00">cmath</text>
</a>
</g>
</g>
<!-- Node1&#45;&gt;Node16 -->
<g id="edge78" class="edge">
<title>Node1&#45;&gt;Node16</title>
<path fill="none" stroke="midnightblue" d="M341.21,-425.46C284.66,-412.91 202.65,-383.51 202.65,-318.5 202.65,-318.5 202.65,-318.5 202.65,-249.5 202.65,-210.3 230.72,-171.55 249.09,-150.4"/>
<polygon fill="midnightblue" stroke="midnightblue" points="251.93,-152.48 256.03,-142.71 246.73,-147.79 251.93,-152.48"/>
</g>
<!-- Node22 -->
<g id="node22" class="node">
<title>Node22</title>
<g id="a_node22"><a xlink:href="constants_8hpp.html" target="_top" xlink:title=" ">
<polygon fill="none" stroke="black" points="65.15,-369.5 65.15,-388.5 174.15,-388.5 174.15,-369.5 65.15,-369.5"/>
<text text-anchor="middle" x="119.65" y="-376.5" font-family="Helvetica,sans-Serif" font-size="10.00">utils/constants.hpp</text>
</a>
</g>
</g>
<!-- Node1&#45;&gt;Node22 -->
<g id="edge26" class="edge">
<title>Node1&#45;&gt;Node22</title>
<path fill="none" stroke="midnightblue" d="M350.23,-425.44C302.13,-415.96 224.55,-400.67 172.84,-390.48"/>
<polygon fill="midnightblue" stroke="midnightblue" points="173.35,-387.02 162.86,-388.52 172,-393.88 173.35,-387.02"/>
</g>
<!-- Node24 -->
<g id="node24" class="node">
<title>Node24</title>
<g id="a_node24"><a xlink:href="vec__rotate_8hpp.html" target="_top" xlink:title=" ">
<polygon fill="none" stroke="black" points="322.65,-369.5 322.65,-388.5 464.65,-388.5 464.65,-369.5 322.65,-369.5"/>
<text text-anchor="middle" x="393.65" y="-376.5" font-family="Helvetica,sans-Serif" font-size="10.00">utils/math/vec_rotate.hpp</text>
</a>
</g>
</g>
<!-- Node1&#45;&gt;Node24 -->
<g id="edge29" class="edge">
<title>Node1&#45;&gt;Node24</title>
<path fill="none" stroke="midnightblue" d="M393.65,-425.08C393.65,-418.01 393.65,-407.86 393.65,-398.99"/>
<polygon fill="midnightblue" stroke="midnightblue" points="397.15,-398.75 393.65,-388.75 390.15,-398.75 397.15,-398.75"/>
</g>
<!-- Node27 -->
<g id="node27" class="node">
<title>Node27</title>
<g id="a_node27"><a xlink:href="quaternion_8hpp.html" target="_top" xlink:title="This file contains a matrix implementation and the trait types needed for the boost qvm interoperabil...">
<polygon fill="none" stroke="black" points="1061.65,-308 1061.65,-327 1175.65,-327 1175.65,-308 1061.65,-308"/>
<text text-anchor="middle" x="1118.65" y="-315" font-family="Helvetica,sans-Serif" font-size="10.00">utils/quaternion.hpp</text>
</a>
</g>
</g>
<!-- Node1&#45;&gt;Node27 -->
<g id="edge76" class="edge">
<title>Node1&#45;&gt;Node27</title>
<path fill="none" stroke="midnightblue" d="M447.25,-425.46C578.13,-404.61 913.53,-351.18 1054.61,-328.7"/>
<polygon fill="midnightblue" stroke="midnightblue" points="1055.5,-332.1 1064.83,-327.07 1054.4,-325.19 1055.5,-332.1"/>
</g>
<!-- Node35 -->
<g id="node35" class="node">
<title>Node35</title>
<g id="a_node35"><a xlink:href="matrix_8hpp.html" target="_top" xlink:title="This file contains a matrix implementation and the trait types needed for the boost qvm interoperabil...">
<polygon fill="none" stroke="black" points="1952.65,-241 1952.65,-260 2046.65,-260 2046.65,-241 1952.65,-241"/>
<text text-anchor="middle" x="1999.65" y="-248" font-family="Helvetica,sans-Serif" font-size="10.00">utils/matrix.hpp</text>
</a>
</g>
</g>
<!-- Node1&#45;&gt;Node35 -->
<g id="edge75" class="edge">
<title>Node1&#45;&gt;Node35</title>
<path fill="none" stroke="midnightblue" d="M468.69,-425.47C744.36,-394.15 1697.77,-285.8 1942.2,-258.03"/>
<polygon fill="midnightblue" stroke="midnightblue" points="1942.74,-261.49 1952.29,-256.88 1941.95,-254.53 1942.74,-261.49"/>
</g>
<!-- Node3 -->
<g id="node3" class="node">
<title>Node3</title>
<g id="a_node3"><a xlink:title=" ">
<polygon fill="none" stroke="#bfbfbf" points="1173.65,-123.5 1173.65,-142.5 1323.65,-142.5 1323.65,-123.5 1173.65,-123.5"/>
<text text-anchor="middle" x="1248.65" y="-130.5" font-family="Helvetica,sans-Serif" font-size="10.00">boost/qvm/deduce_vec.hpp</text>
</a>
</g>
</g>
<!-- Node2&#45;&gt;Node3 -->
<g id="edge2" class="edge">
<title>Node2&#45;&gt;Node3</title>
<path fill="none" stroke="midnightblue" d="M797.5,-182.92C881.24,-173.84 1057.7,-154.71 1163.41,-143.24"/>
<polygon fill="midnightblue" stroke="midnightblue" points="1163.84,-146.72 1173.41,-142.16 1163.09,-139.76 1163.84,-146.72"/>
</g>
<!-- Node4 -->
<g id="node4" class="node">
<title>Node4</title>
<g id="a_node4"><a xlink:title=" ">
<polygon fill="none" stroke="#bfbfbf" points="680.65,-123.5 680.65,-142.5 820.65,-142.5 820.65,-123.5 680.65,-123.5"/>
<text text-anchor="middle" x="750.65" y="-130.5" font-family="Helvetica,sans-Serif" font-size="10.00">boost/qvm/vec_traits.hpp</text>
</a>
</g>
</g>
<!-- Node2&#45;&gt;Node4 -->
<g id="edge3" class="edge">
<title>Node2&#45;&gt;Node4</title>
<path fill="none" stroke="midnightblue" d="M750.65,-179.08C750.65,-172.01 750.65,-161.86 750.65,-152.99"/>
<polygon fill="midnightblue" stroke="midnightblue" points="754.15,-152.75 750.65,-142.75 747.15,-152.75 754.15,-152.75"/>
</g>
<!-- Node5 -->
<g id="node5" class="node">
<title>Node5</title>
<g id="a_node5"><a xlink:href="Array_8hpp.html" target="_top" xlink:title=" ">
<polygon fill="none" stroke="black" points="993.65,-123.5 993.65,-142.5 1079.65,-142.5 1079.65,-123.5 993.65,-123.5"/>
<text text-anchor="middle" x="1036.65" y="-130.5" font-family="Helvetica,sans-Serif" font-size="10.00">utils/Array.hpp</text>
</a>
</g>
</g>
<!-- Node2&#45;&gt;Node5 -->
<g id="edge4" class="edge">
<title>Node2&#45;&gt;Node5</title>
<path fill="none" stroke="midnightblue" d="M795.97,-179.44C846.87,-169.83 929.4,-154.25 983.36,-144.06"/>
<polygon fill="midnightblue" stroke="midnightblue" points="984.24,-147.46 993.42,-142.16 982.94,-140.58 984.24,-147.46"/>
</g>
<!-- Node2&#45;&gt;Node7 -->
<g id="edge17" class="edge">
<title>Node2&#45;&gt;Node7</title>
<path fill="none" stroke="midnightblue" d="M776.19,-179.35C793.64,-172.2 815.98,-160.37 829.65,-143 856.23,-109.22 864.22,-57.57 866.62,-29.96"/>
<polygon fill="midnightblue" stroke="midnightblue" points="870.13,-29.94 867.34,-19.72 863.15,-29.45 870.13,-29.94"/>
</g>
<!-- Node9 -->
<g id="node9" class="node">
<title>Node9</title>
<g id="a_node9"><a xlink:title=" ">
<polygon fill="none" stroke="#bfbfbf" points="1401.15,-0.5 1401.15,-19.5 1454.15,-19.5 1454.15,-0.5 1401.15,-0.5"/>
<text text-anchor="middle" x="1427.65" y="-7.5" font-family="Helvetica,sans-Serif" font-size="10.00">cstddef</text>
</a>
</g>
</g>
<!-- Node2&#45;&gt;Node9 -->
<g id="edge19" class="edge">
<title>Node2&#45;&gt;Node9</title>
<path fill="none" stroke="midnightblue" d="M797.3,-187.32C868.91,-185.19 1009.63,-176.65 1123.65,-143 1143.1,-137.26 1145.28,-128.99 1164.65,-123 1269.37,-90.59 1327.42,-160.6 1408.65,-87 1424.52,-72.62 1428.06,-47.16 1428.43,-29.71"/>
<polygon fill="midnightblue" stroke="midnightblue" points="1431.92,-29.55 1428.31,-19.59 1424.92,-29.63 1431.92,-29.55"/>
</g>
<!-- Node12 -->
<g id="node12" class="node">
<title>Node12</title>
<g id="a_node12"><a xlink:title=" ">
<polygon fill="none" stroke="#bfbfbf" points="1346.15,-62 1346.15,-81 1399.15,-81 1399.15,-62 1346.15,-62"/>
<text text-anchor="middle" x="1372.65" y="-69" font-family="Helvetica,sans-Serif" font-size="10.00">iterator</text>
</a>
</g>
</g>
<!-- Node2&#45;&gt;Node12 -->
<g id="edge22" class="edge">
<title>Node2&#45;&gt;Node12</title>
<path fill="none" stroke="midnightblue" d="M797.21,-186.25C863.25,-182.77 987.35,-172.55 1088.65,-143 1108.88,-137.1 1111.56,-129.36 1131.65,-123 1217.75,-95.73 1244.34,-110.13 1331.65,-87 1334.62,-86.21 1337.68,-85.31 1340.73,-84.35"/>
<polygon fill="midnightblue" stroke="midnightblue" points="1341.93,-87.64 1350.3,-81.14 1339.7,-81 1341.93,-87.64"/>
</g>
<!-- Node15 -->
<g id="node15" class="node">
<title>Node15</title>
<g id="a_node15"><a xlink:title=" ">
<polygon fill="none" stroke="#bfbfbf" points="1341.65,-123.5 1341.65,-142.5 1405.65,-142.5 1405.65,-123.5 1341.65,-123.5"/>
<text text-anchor="middle" x="1373.65" y="-130.5" font-family="Helvetica,sans-Serif" font-size="10.00">algorithm</text>
</a>
</g>
</g>
<!-- Node2&#45;&gt;Node15 -->
<g id="edge16" class="edge">
<title>Node2&#45;&gt;Node15</title>
<path fill="none" stroke="midnightblue" d="M797.29,-186.59C894.76,-183.18 1127.24,-172.56 1331.49,-142.97"/>
<polygon fill="midnightblue" stroke="midnightblue" points="1332.11,-146.41 1341.5,-141.5 1331.1,-139.49 1332.11,-146.41"/>
</g>
<!-- Node2&#45;&gt;Node16 -->
<g id="edge18" class="edge">
<title>Node2&#45;&gt;Node16</title>
<path fill="none" stroke="midnightblue" d="M704.05,-182.82C606.65,-172 383.51,-147.21 298.44,-137.75"/>
<polygon fill="midnightblue" stroke="midnightblue" points="298.63,-134.25 288.3,-136.63 297.86,-141.21 298.63,-134.25"/>
</g>
<!-- Node17 -->
<g id="node17" class="node">
<title>Node17</title>
<g id="a_node17"><a xlink:title=" ">
<polygon fill="none" stroke="#bfbfbf" points="356.15,-123.5 356.15,-142.5 421.15,-142.5 421.15,-123.5 356.15,-123.5"/>
<text text-anchor="middle" x="388.65" y="-130.5" font-family="Helvetica,sans-Serif" font-size="10.00">functional</text>
</a>
</g>
</g>
<!-- Node2&#45;&gt;Node17 -->
<g id="edge20" class="edge">
<title>Node2&#45;&gt;Node17</title>
<path fill="none" stroke="midnightblue" d="M703.96,-182.6C643.28,-175.32 533.83,-161.34 431.19,-143.17"/>
<polygon fill="midnightblue" stroke="midnightblue" points="431.74,-139.71 421.28,-141.4 430.51,-146.6 431.74,-139.71"/>
</g>
<!-- Node18 -->
<g id="node18" class="node">
<title>Node18</title>
<g id="a_node18"><a xlink:title=" ">
<polygon fill="none" stroke="#bfbfbf" points="439.15,-123.5 439.15,-142.5 522.15,-142.5 522.15,-123.5 439.15,-123.5"/>
<text text-anchor="middle" x="480.65" y="-130.5" font-family="Helvetica,sans-Serif" font-size="10.00">initializer_list</text>
</a>
</g>
</g>
<!-- Node2&#45;&gt;Node18 -->
<g id="edge21" class="edge">
<title>Node2&#45;&gt;Node18</title>
<path fill="none" stroke="midnightblue" d="M707.87,-179.44C660.19,-169.91 583.12,-154.49 532.17,-144.3"/>
<polygon fill="midnightblue" stroke="midnightblue" points="532.84,-140.87 522.34,-142.34 531.46,-147.73 532.84,-140.87"/>
</g>
<!-- Node19 -->
<g id="node19" class="node">
<title>Node19</title>
<g id="a_node19"><a xlink:title=" ">
<polygon fill="none" stroke="#bfbfbf" points="540.65,-123.5 540.65,-142.5 596.65,-142.5 596.65,-123.5 540.65,-123.5"/>
<text text-anchor="middle" x="568.65" y="-130.5" font-family="Helvetica,sans-Serif" font-size="10.00">numeric</text>
</a>
</g>
</g>
<!-- Node2&#45;&gt;Node19 -->
<g id="edge23" class="edge">
<title>Node2&#45;&gt;Node19</title>
<path fill="none" stroke="midnightblue" d="M721.81,-179.44C690.61,-170.19 640.74,-155.39 606.43,-145.21"/>
<polygon fill="midnightblue" stroke="midnightblue" points="607.34,-141.83 596.75,-142.34 605.35,-148.54 607.34,-141.83"/>
</g>
<!-- Node20 -->
<g id="node20" class="node">
<title>Node20</title>
<g id="a_node20"><a xlink:title=" ">
<polygon fill="none" stroke="#bfbfbf" points="2008.15,-123.5 2008.15,-142.5 2077.15,-142.5 2077.15,-123.5 2008.15,-123.5"/>
<text text-anchor="middle" x="2042.65" y="-130.5" font-family="Helvetica,sans-Serif" font-size="10.00">type_traits</text>
</a>
</g>
</g>
<!-- Node2&#45;&gt;Node20 -->
<g id="edge24" class="edge">
<title>Node2&#45;&gt;Node20</title>
<path fill="none" stroke="midnightblue" d="M797.4,-186.05C999.84,-177.58 1799.65,-144.16 1997.97,-135.87"/>
<polygon fill="midnightblue" stroke="midnightblue" points="1998.19,-139.36 2008.03,-135.45 1997.89,-132.37 1998.19,-139.36"/>
</g>
<!-- Node21 -->
<g id="node21" class="node">
<title>Node21</title>
<g id="a_node21"><a xlink:title=" ">
<polygon fill="none" stroke="#bfbfbf" points="615.15,-123.5 615.15,-142.5 662.15,-142.5 662.15,-123.5 615.15,-123.5"/>
<text text-anchor="middle" x="638.65" y="-130.5" font-family="Helvetica,sans-Serif" font-size="10.00">vector</text>
</a>
</g>
</g>
<!-- Node2&#45;&gt;Node21 -->
<g id="edge25" class="edge">
<title>Node2&#45;&gt;Node21</title>
<path fill="none" stroke="midnightblue" d="M732.65,-179.32C714.61,-170.62 686.6,-157.12 665.85,-147.11"/>
<polygon fill="midnightblue" stroke="midnightblue" points="667.13,-143.84 656.6,-142.65 664.09,-150.15 667.13,-143.84"/>
</g>
<!-- Node6 -->
<g id="node6" class="node">
<title>Node6</title>
<g id="a_node6"><a xlink:href="device__qualifier_8hpp.html" target="_top" xlink:title=" ">
<polygon fill="none" stroke="black" points="487.65,-62 487.65,-81 603.65,-81 603.65,-62 487.65,-62"/>
<text text-anchor="middle" x="545.65" y="-69" font-family="Helvetica,sans-Serif" font-size="10.00">device_qualifier.hpp</text>
</a>
</g>
</g>
<!-- Node5&#45;&gt;Node6 -->
<g id="edge5" class="edge">
<title>Node5&#45;&gt;Node6</title>
<path fill="none" stroke="midnightblue" d="M993.51,-126.77C908.01,-116.41 716.5,-93.2 613.8,-80.76"/>
<polygon fill="midnightblue" stroke="midnightblue" points="614.19,-77.28 603.84,-79.55 613.35,-84.23 614.19,-77.28"/>
</g>
<!-- Node5&#45;&gt;Node7 -->
<g id="edge11" class="edge">
<title>Node5&#45;&gt;Node7</title>
<path fill="none" stroke="midnightblue" d="M1014.35,-123.5C994.99,-115.57 966.69,-102.63 944.65,-87 920.12,-69.6 896.16,-44.24 881.65,-27.68"/>
<polygon fill="midnightblue" stroke="midnightblue" points="884.14,-25.21 874.97,-19.91 878.83,-29.78 884.14,-25.21"/>
</g>
<!-- Node8 -->
<g id="node8" class="node">
<title>Node8</title>
<g id="a_node8"><a xlink:href="get_8hpp.html" target="_top" xlink:title=" ">
<polygon fill="none" stroke="black" points="953.15,-62 953.15,-81 1006.15,-81 1006.15,-62 953.15,-62"/>
<text text-anchor="middle" x="979.65" y="-69" font-family="Helvetica,sans-Serif" font-size="10.00">get.hpp</text>
</a>
</g>
</g>
<!-- Node5&#45;&gt;Node8 -->
<g id="edge7" class="edge">
<title>Node5&#45;&gt;Node8</title>
<path fill="none" stroke="midnightblue" d="M1028.48,-123.48C1019.76,-114.37 1005.75,-99.74 994.96,-88.48"/>
<polygon fill="midnightblue" stroke="midnightblue" points="997.25,-85.81 987.8,-81.01 992.19,-90.65 997.25,-85.81"/>
</g>
<!-- Node5&#45;&gt;Node9 -->
<g id="edge12" class="edge">
<title>Node5&#45;&gt;Node9</title>
<path fill="none" stroke="midnightblue" d="M1079.9,-125.15C1151.73,-113.68 1288.74,-91.44 1298.65,-87 1318.86,-77.95 1318.98,-67.9 1337.65,-56 1357.04,-43.64 1380.28,-32.09 1398.29,-23.79"/>
<polygon fill="midnightblue" stroke="midnightblue" points="1400.03,-26.84 1407.7,-19.53 1397.15,-20.47 1400.03,-26.84"/>
</g>
<!-- Node11 -->
<g id="node11" class="node">
<title>Node11</title>
<g id="a_node11"><a xlink:title=" ">
<polygon fill="none" stroke="#bfbfbf" points="1024.15,-56.5 1024.15,-86.5 1131.15,-86.5 1131.15,-56.5 1024.15,-56.5"/>
<text text-anchor="start" x="1032.15" y="-74.5" font-family="Helvetica,sans-Serif" font-size="10.00">boost/serialization</text>
<text text-anchor="middle" x="1077.65" y="-63.5" font-family="Helvetica,sans-Serif" font-size="10.00">/access.hpp</text>
</a>
</g>
</g>
<!-- Node5&#45;&gt;Node11 -->
<g id="edge10" class="edge">
<title>Node5&#45;&gt;Node11</title>
<path fill="none" stroke="midnightblue" d="M1042.52,-123.48C1047.66,-116.02 1055.36,-104.85 1062.24,-94.87"/>
<polygon fill="midnightblue" stroke="midnightblue" points="1065.19,-96.74 1067.99,-86.52 1059.43,-92.77 1065.19,-96.74"/>
</g>
<!-- Node5&#45;&gt;Node12 -->
<g id="edge13" class="edge">
<title>Node5&#45;&gt;Node12</title>
<path fill="none" stroke="midnightblue" d="M1079.9,-125.14C1084.54,-124.41 1089.19,-123.69 1093.65,-123 1199.37,-106.66 1227.86,-112.95 1331.65,-87 1334.7,-86.24 1337.84,-85.34 1340.97,-84.37"/>
<polygon fill="midnightblue" stroke="midnightblue" points="1342.38,-87.59 1350.76,-81.11 1340.16,-80.95 1342.38,-87.59"/>
</g>
<!-- Node13 -->
<g id="node13" class="node">
<title>Node13</title>
<g id="a_node13"><a xlink:title=" ">
<polygon fill="none" stroke="#bfbfbf" points="1149.15,-62 1149.15,-81 1206.15,-81 1206.15,-62 1149.15,-62"/>
<text text-anchor="middle" x="1177.65" y="-69" font-family="Helvetica,sans-Serif" font-size="10.00">ostream</text>
</a>
</g>
</g>
<!-- Node5&#45;&gt;Node13 -->
<g id="edge14" class="edge">
<title>Node5&#45;&gt;Node13</title>
<path fill="none" stroke="midnightblue" d="M1056.85,-123.48C1080.72,-113.4 1120.65,-96.55 1148.02,-85"/>
<polygon fill="midnightblue" stroke="midnightblue" points="1149.63,-88.12 1157.49,-81.01 1146.91,-81.67 1149.63,-88.12"/>
</g>
<!-- Node14 -->
<g id="node14" class="node">
<title>Node14</title>
<g id="a_node14"><a xlink:title=" ">
<polygon fill="none" stroke="#bfbfbf" points="1224.15,-62 1224.15,-81 1289.15,-81 1289.15,-62 1224.15,-62"/>
<text text-anchor="middle" x="1256.65" y="-69" font-family="Helvetica,sans-Serif" font-size="10.00">stdexcept</text>
</a>
</g>
</g>
<!-- Node5&#45;&gt;Node14 -->
<g id="edge15" class="edge">
<title>Node5&#45;&gt;Node14</title>
<path fill="none" stroke="midnightblue" d="M1074.99,-123.46C1111.43,-115.08 1167.64,-101.49 1215.65,-87 1218.43,-86.16 1221.3,-85.25 1224.16,-84.3"/>
<polygon fill="midnightblue" stroke="midnightblue" points="1225.46,-87.56 1233.79,-81.01 1223.19,-80.93 1225.46,-87.56"/>
</g>
<!-- Node6&#45;&gt;Node7 -->
<g id="edge6" class="edge">
<title>Node6&#45;&gt;Node7</title>
<path fill="none" stroke="midnightblue" d="M591.78,-61.98C656.42,-50.03 772.59,-28.57 831.41,-17.7"/>
<polygon fill="midnightblue" stroke="midnightblue" points="832.17,-21.12 841.36,-15.86 830.89,-14.23 832.17,-21.12"/>
</g>
<!-- Node8&#45;&gt;Node9 -->
<g id="edge8" class="edge">
<title>Node8&#45;&gt;Node9</title>
<path fill="none" stroke="midnightblue" d="M998.01,-61.98C1003.57,-59.71 1009.77,-57.48 1015.65,-56 1151.01,-22.03 1317.77,-13.71 1390.64,-11.66"/>
<polygon fill="midnightblue" stroke="midnightblue" points="1390.79,-15.16 1400.69,-11.41 1390.61,-8.16 1390.79,-15.16"/>
</g>
<!-- Node10 -->
<g id="node10" class="node">
<title>Node10</title>
<g id="a_node10"><a xlink:title=" ">
<polygon fill="none" stroke="#bfbfbf" points="421.15,-0.5 421.15,-19.5 462.15,-19.5 462.15,-0.5 421.15,-0.5"/>
<text text-anchor="middle" x="441.65" y="-7.5" font-family="Helvetica,sans-Serif" font-size="10.00">tuple</text>
</a>
</g>
</g>
<!-- Node8&#45;&gt;Node10 -->
<g id="edge9" class="edge">
<title>Node8&#45;&gt;Node10</title>
<path fill="none" stroke="midnightblue" d="M952.97,-67.55C862.63,-57.56 568.54,-25.03 472.38,-14.4"/>
<polygon fill="midnightblue" stroke="midnightblue" points="472.49,-10.89 462.17,-13.27 471.72,-17.85 472.49,-10.89"/>
</g>
<!-- Node22&#45;&gt;Node6 -->
<g id="edge27" class="edge">
<title>Node22&#45;&gt;Node6</title>
<path fill="none" stroke="midnightblue" d="M125.64,-369.43C131.51,-360.65 140.34,-346.43 145.65,-333 159.32,-298.41 164.65,-288.69 164.65,-251.5 164.65,-251.5 164.65,-251.5 164.65,-188 164.65,-146.51 194.56,-141.6 231.65,-123 273.57,-101.98 398.12,-86.62 477.18,-78.66"/>
<polygon fill="midnightblue" stroke="midnightblue" points="477.93,-82.11 487.54,-77.64 477.24,-75.14 477.93,-82.11"/>
</g>
<!-- Node23 -->
<g id="node23" class="node">
<title>Node23</title>
<g id="a_node23"><a xlink:title=" ">
<polygon fill="none" stroke="#bfbfbf" points="14.65,-302.5 14.65,-332.5 136.65,-332.5 136.65,-302.5 14.65,-302.5"/>
<text text-anchor="start" x="22.65" y="-320.5" font-family="Helvetica,sans-Serif" font-size="10.00">boost/math/constants</text>
<text text-anchor="middle" x="75.65" y="-309.5" font-family="Helvetica,sans-Serif" font-size="10.00">/constants.hpp</text>
</a>
</g>
</g>
<!-- Node22&#45;&gt;Node23 -->
<g id="edge28" class="edge">
<title>Node22&#45;&gt;Node23</title>
<path fill="none" stroke="midnightblue" d="M113.35,-369.48C107.78,-361.94 99.41,-350.63 91.97,-340.57"/>
<polygon fill="midnightblue" stroke="midnightblue" points="94.78,-338.48 86.02,-332.52 89.15,-342.64 94.78,-338.48"/>
</g>
<!-- Node24&#45;&gt;Node2 -->
<g id="edge31" class="edge">
<title>Node24&#45;&gt;Node2</title>
<path fill="none" stroke="midnightblue" d="M401.19,-369.3C412.7,-354.89 432.18,-325.35 420.65,-302 409,-278.41 385.3,-289.59 373.65,-266 367.55,-253.65 364.5,-245.3 373.65,-235 394.52,-211.49 593.6,-198.03 693.73,-192.7"/>
<polygon fill="midnightblue" stroke="midnightblue" points="694.17,-196.18 703.97,-192.16 693.8,-189.19 694.17,-196.18"/>
</g>
<!-- Node24&#45;&gt;Node10 -->
<g id="edge74" class="edge">
<title>Node24&#45;&gt;Node10</title>
<path fill="none" stroke="midnightblue" d="M337.71,-369.47C249.66,-352.52 88.65,-305.7 88.65,-190 88.65,-190 88.65,-190 88.65,-132 88.65,-96.58 85.57,-78.83 112.65,-56 157.3,-18.36 337.34,-12.11 410.5,-11.14"/>
<polygon fill="midnightblue" stroke="midnightblue" points="410.93,-14.64 420.89,-11.03 410.86,-7.64 410.93,-14.64"/>
</g>
<!-- Node24&#45;&gt;Node16 -->
<g id="edge73" class="edge">
<title>Node24&#45;&gt;Node16</title>
<path fill="none" stroke="midnightblue" d="M355.84,-369.43C335.5,-362.85 311.77,-351.63 297.65,-333 256.25,-278.36 258.87,-190.93 262.39,-152.8"/>
<polygon fill="midnightblue" stroke="midnightblue" points="265.9,-152.95 263.47,-142.64 258.94,-152.22 265.9,-152.95"/>
</g>
<!-- Node25 -->
<g id="node25" class="node">
<title>Node25</title>
<g id="a_node25"><a xlink:title=" ">
<polygon fill="none" stroke="#bfbfbf" points="382.65,-235.5 382.65,-265.5 498.65,-265.5 498.65,-235.5 382.65,-235.5"/>
<text text-anchor="start" x="390.65" y="-253.5" font-family="Helvetica,sans-Serif" font-size="10.00">boost/qvm/quat_vec</text>
<text text-anchor="middle" x="440.65" y="-242.5" font-family="Helvetica,sans-Serif" font-size="10.00">_operations.hpp</text>
</a>
</g>
</g>
<!-- Node24&#45;&gt;Node25 -->
<g id="edge30" class="edge">
<title>Node24&#45;&gt;Node25</title>
<path fill="none" stroke="midnightblue" d="M413.56,-369.41C427.87,-362.04 446.11,-349.92 454.65,-333 463.76,-314.96 458.62,-292.11 452.14,-275.2"/>
<polygon fill="midnightblue" stroke="midnightblue" points="455.17,-273.38 448.05,-265.54 448.72,-276.11 455.17,-273.38"/>
</g>
<!-- Node26 -->
<g id="node26" class="node">
<title>Node26</title>
<g id="a_node26"><a xlink:href="sqr_8hpp.html" target="_top" xlink:title=" ">
<polygon fill="none" stroke="black" points="307.15,-308 307.15,-327 412.15,-327 412.15,-308 307.15,-308"/>
<text text-anchor="middle" x="359.65" y="-315" font-family="Helvetica,sans-Serif" font-size="10.00">utils/math/sqr.hpp</text>
</a>
</g>
</g>
<!-- Node24&#45;&gt;Node26 -->
<g id="edge32" class="edge">
<title>Node24&#45;&gt;Node26</title>
<path fill="none" stroke="midnightblue" d="M388.78,-369.48C383.78,-360.73 375.86,-346.87 369.54,-335.81"/>
<polygon fill="midnightblue" stroke="midnightblue" points="372.51,-333.96 364.51,-327.01 366.43,-337.43 372.51,-333.96"/>
</g>
<!-- Node24&#45;&gt;Node27 -->
<g id="edge34" class="edge">
<title>Node24&#45;&gt;Node27</title>
<path fill="none" stroke="midnightblue" d="M464.82,-372.16C604.77,-360.67 914.08,-335.29 1051.08,-324.05"/>
<polygon fill="midnightblue" stroke="midnightblue" points="1051.75,-327.5 1061.43,-323.2 1051.18,-320.53 1051.75,-327.5"/>
</g>
<!-- Node26&#45;&gt;Node6 -->
<g id="edge33" class="edge">
<title>Node26&#45;&gt;Node6</title>
<path fill="none" stroke="midnightblue" d="M355.34,-307.6C341.58,-277.78 302.2,-180.14 346.65,-123 362.81,-102.23 426.53,-88.62 477.57,-80.82"/>
<polygon fill="midnightblue" stroke="midnightblue" points="478.21,-84.26 487.59,-79.34 477.19,-77.34 478.21,-84.26"/>
</g>
<!-- Node27&#45;&gt;Node2 -->
<g id="edge45" class="edge">
<title>Node27&#45;&gt;Node2</title>
<path fill="none" stroke="midnightblue" d="M1061.62,-315.35C930.48,-312.12 616.3,-300.78 584.65,-266 548.53,-226.3 632.81,-205.87 694.03,-196.59"/>
<polygon fill="midnightblue" stroke="midnightblue" points="694.62,-200.04 704.01,-195.14 693.61,-193.11 694.62,-200.04"/>
</g>
<!-- Node27&#45;&gt;Node3 -->
<g id="edge37" class="edge">
<title>Node27&#45;&gt;Node3</title>
<path fill="none" stroke="midnightblue" d="M1118.64,-307.88C1118.51,-292.95 1117.71,-261.34 1113.65,-235 1111.13,-218.7 1106.66,-215.37 1104.65,-199 1103.56,-190.18 1099.38,-186.16 1104.65,-179 1118.7,-159.89 1140.83,-148.67 1163.57,-142.15"/>
<polygon fill="midnightblue" stroke="midnightblue" points="1164.52,-145.52 1173.32,-139.63 1162.77,-138.74 1164.52,-145.52"/>
</g>
<!-- Node27&#45;&gt;Node5 -->
<g id="edge44" class="edge">
<title>Node27&#45;&gt;Node5</title>
<path fill="none" stroke="midnightblue" d="M1116.9,-307.65C1113.7,-292.36 1106.15,-260.24 1094.65,-235 1086.78,-217.72 1081.27,-215.37 1071.65,-199 1062.34,-183.15 1052.47,-164.66 1045.6,-151.46"/>
<polygon fill="midnightblue" stroke="midnightblue" points="1048.68,-149.8 1040.98,-142.53 1042.46,-153.02 1048.68,-149.8"/>
</g>
<!-- Node27&#45;&gt;Node7 -->
<g id="edge70" class="edge">
<title>Node27&#45;&gt;Node7</title>
<path fill="none" stroke="midnightblue" d="M1113.52,-307.98C1104.13,-292.68 1083.14,-259.79 1061.65,-235 998.63,-162.3 960.35,-164.73 903.65,-87 890.51,-68.98 880.23,-45.41 874.08,-29.32"/>
<polygon fill="midnightblue" stroke="midnightblue" points="877.22,-27.73 870.5,-19.54 870.65,-30.14 877.22,-27.73"/>
</g>
<!-- Node27&#45;&gt;Node9 -->
<g id="edge71" class="edge">
<title>Node27&#45;&gt;Node9</title>
<path fill="none" stroke="midnightblue" d="M1175.94,-316.61C1543.72,-316.97 3557.65,-313.29 3557.65,-190 3557.65,-190 3557.65,-190 3557.65,-132 3557.65,-22.69 1746.09,-12.09 1464.3,-11.1"/>
<polygon fill="midnightblue" stroke="midnightblue" points="1464.21,-7.6 1454.19,-11.06 1464.18,-14.6 1464.21,-7.6"/>
</g>
<!-- Node27&#45;&gt;Node20 -->
<g id="edge72" class="edge">
<title>Node27&#45;&gt;Node20</title>
<path fill="none" stroke="midnightblue" d="M1175.92,-315.88C1530.85,-311.78 3417.91,-285.92 3500.65,-199 3506.78,-192.56 3506.84,-185.38 3500.65,-179 3475.43,-153 2330.18,-137.52 2087.52,-134.53"/>
<polygon fill="midnightblue" stroke="midnightblue" points="2087.35,-131.03 2077.31,-134.41 2087.26,-138.03 2087.35,-131.03"/>
</g>
<!-- Node27&#45;&gt;Node25 -->
<g id="edge42" class="edge">
<title>Node27&#45;&gt;Node25</title>
<path fill="none" stroke="midnightblue" d="M1061.33,-312.21C958.76,-304.36 737.12,-286.57 550.65,-266 537.09,-264.5 522.62,-262.73 508.77,-260.94"/>
<polygon fill="midnightblue" stroke="midnightblue" points="509.19,-257.46 498.82,-259.64 508.28,-264.4 509.19,-257.46"/>
</g>
<!-- Node28 -->
<g id="node28" class="node">
<title>Node28</title>
<g id="a_node28"><a xlink:title=" ">
<polygon fill="none" stroke="#bfbfbf" points="1223.15,-241 1223.15,-260 1378.15,-260 1378.15,-241 1223.15,-241"/>
<text text-anchor="middle" x="1300.65" y="-248" font-family="Helvetica,sans-Serif" font-size="10.00">boost/qvm/deduce_quat.hpp</text>
</a>
</g>
</g>
<!-- Node27&#45;&gt;Node28 -->
<g id="edge35" class="edge">
<title>Node27&#45;&gt;Node28</title>
<path fill="none" stroke="midnightblue" d="M1142.82,-307.87C1174.72,-296.47 1231.06,-276.35 1267.09,-263.49"/>
<polygon fill="midnightblue" stroke="midnightblue" points="1268.43,-266.72 1276.67,-260.06 1266.08,-260.13 1268.43,-266.72"/>
</g>
<!-- Node29 -->
<g id="node29" class="node">
<title>Node29</title>
<g id="a_node29"><a xlink:title=" ">
<polygon fill="none" stroke="#bfbfbf" points="1113.65,-179.5 1113.65,-198.5 1275.65,-198.5 1275.65,-179.5 1113.65,-179.5"/>
<text text-anchor="middle" x="1194.65" y="-186.5" font-family="Helvetica,sans-Serif" font-size="10.00">boost/qvm/deduce_scalar.hpp</text>
</a>
</g>
</g>
<!-- Node27&#45;&gt;Node29 -->
<g id="edge36" class="edge">
<title>Node27&#45;&gt;Node29</title>
<path fill="none" stroke="midnightblue" d="M1130.64,-307.75C1142.41,-298.58 1160.07,-283.13 1170.65,-266 1181.64,-248.19 1188.02,-224.89 1191.41,-208.81"/>
<polygon fill="midnightblue" stroke="midnightblue" points="1194.93,-209.03 1193.36,-198.55 1188.05,-207.72 1194.93,-209.03"/>
</g>
<!-- Node30 -->
<g id="node30" class="node">
<title>Node30</title>
<g id="a_node30"><a xlink:title=" ">
<polygon fill="none" stroke="#bfbfbf" points="1396.65,-241 1396.65,-260 1510.65,-260 1510.65,-241 1396.65,-241"/>
<text text-anchor="middle" x="1453.65" y="-248" font-family="Helvetica,sans-Serif" font-size="10.00">boost/qvm/quat.hpp</text>
</a>
</g>
</g>
<!-- Node27&#45;&gt;Node30 -->
<g id="edge38" class="edge">
<title>Node27&#45;&gt;Node30</title>
<path fill="none" stroke="midnightblue" d="M1166.84,-307.91C1220.74,-298.2 1310.59,-281.69 1387.65,-266 1393.47,-264.82 1399.56,-263.53 1405.6,-262.24"/>
<polygon fill="midnightblue" stroke="midnightblue" points="1406.62,-265.6 1415.65,-260.06 1405.14,-258.76 1406.62,-265.6"/>
</g>
<!-- Node31 -->
<g id="node31" class="node">
<title>Node31</title>
<g id="a_node31"><a xlink:title=" ">
<polygon fill="none" stroke="#bfbfbf" points="1528.65,-241 1528.65,-260 1680.65,-260 1680.65,-241 1528.65,-241"/>
<text text-anchor="middle" x="1604.65" y="-248" font-family="Helvetica,sans-Serif" font-size="10.00">boost/qvm/quat_access.hpp</text>
</a>
</g>
</g>
<!-- Node27&#45;&gt;Node31 -->
<g id="edge39" class="edge">
<title>Node27&#45;&gt;Node31</title>
<path fill="none" stroke="midnightblue" d="M1175.87,-310.09C1253.76,-301.18 1397.49,-284.1 1519.65,-266 1528.36,-264.71 1537.56,-263.24 1546.57,-261.76"/>
<polygon fill="midnightblue" stroke="midnightblue" points="1547.33,-265.18 1556.61,-260.07 1546.17,-258.27 1547.33,-265.18"/>
</g>
<!-- Node32 -->
<g id="node32" class="node">
<title>Node32</title>
<g id="a_node32"><a xlink:title=" ">
<polygon fill="none" stroke="#bfbfbf" points="593.15,-241 593.15,-260 764.15,-260 764.15,-241 593.15,-241"/>
<text text-anchor="middle" x="678.65" y="-248" font-family="Helvetica,sans-Serif" font-size="10.00">boost/qvm/quat_operations.hpp</text>
</a>
</g>
</g>
<!-- Node27&#45;&gt;Node32 -->
<g id="edge40" class="edge">
<title>Node27&#45;&gt;Node32</title>
<path fill="none" stroke="midnightblue" d="M1061.56,-308.25C993.12,-298.34 874.98,-281.15 773.65,-266 764.16,-264.58 754.14,-263.07 744.3,-261.57"/>
<polygon fill="midnightblue" stroke="midnightblue" points="744.56,-258.07 734.15,-260.03 743.51,-264.99 744.56,-258.07"/>
</g>
<!-- Node33 -->
<g id="node33" class="node">
<title>Node33</title>
<g id="a_node33"><a xlink:title=" ">
<polygon fill="none" stroke="#bfbfbf" points="782.15,-241 782.15,-260 927.15,-260 927.15,-241 782.15,-241"/>
<text text-anchor="middle" x="854.65" y="-248" font-family="Helvetica,sans-Serif" font-size="10.00">boost/qvm/quat_traits.hpp</text>
</a>
</g>
</g>
<!-- Node27&#45;&gt;Node33 -->
<g id="edge41" class="edge">
<title>Node27&#45;&gt;Node33</title>
<path fill="none" stroke="midnightblue" d="M1083.86,-307.94C1036.48,-296.27 951.59,-275.37 899.48,-262.54"/>
<polygon fill="midnightblue" stroke="midnightblue" points="900.06,-259.08 889.51,-260.08 898.38,-265.87 900.06,-259.08"/>
</g>
<!-- Node34 -->
<g id="node34" class="node">
<title>Node34</title>
<g id="a_node34"><a xlink:title=" ">
<polygon fill="none" stroke="#bfbfbf" points="945.15,-235.5 945.15,-265.5 1052.15,-265.5 1052.15,-235.5 945.15,-235.5"/>
<text text-anchor="start" x="953.15" y="-253.5" font-family="Helvetica,sans-Serif" font-size="10.00">boost/serialization</text>
<text text-anchor="middle" x="998.65" y="-242.5" font-family="Helvetica,sans-Serif" font-size="10.00">/array.hpp</text>
</a>
</g>
</g>
<!-- Node27&#45;&gt;Node34 -->
<g id="edge43" class="edge">
<title>Node27&#45;&gt;Node34</title>
<path fill="none" stroke="midnightblue" d="M1102.47,-307.73C1084.92,-298.23 1056.39,-282.78 1033.67,-270.47"/>
<polygon fill="midnightblue" stroke="midnightblue" points="1035.12,-267.27 1024.66,-265.59 1031.79,-273.43 1035.12,-267.27"/>
</g>
<!-- Node27&#45;&gt;Node35 -->
<g id="edge46" class="edge">
<title>Node27&#45;&gt;Node35</title>
<path fill="none" stroke="midnightblue" d="M1175.78,-312.29C1335.09,-300.53 1783.05,-267.48 1942.45,-255.72"/>
<polygon fill="midnightblue" stroke="midnightblue" points="1942.81,-259.2 1952.53,-254.98 1942.3,-252.22 1942.81,-259.2"/>
</g>
<!-- Node35&#45;&gt;Node2 -->
<g id="edge48" class="edge">
<title>Node35&#45;&gt;Node2</title>
<path fill="none" stroke="midnightblue" d="M1952.59,-247.26C1758.3,-238 1018.88,-202.78 807.44,-192.71"/>
<polygon fill="midnightblue" stroke="midnightblue" points="807.34,-189.2 797.18,-192.22 807.01,-196.19 807.34,-189.2"/>
</g>
<!-- Node35&#45;&gt;Node3 -->
<g id="edge63" class="edge">
<title>Node35&#45;&gt;Node3</title>
<path fill="none" stroke="midnightblue" d="M1952.28,-247.88C1827.14,-243.24 1489.96,-228.31 1382.65,-199 1340.89,-187.59 1296.43,-163.3 1270.67,-147.86"/>
<polygon fill="midnightblue" stroke="midnightblue" points="1272.42,-144.83 1262.06,-142.61 1268.78,-150.81 1272.42,-144.83"/>
</g>
<!-- Node35&#45;&gt;Node5 -->
<g id="edge47" class="edge">
<title>Node35&#45;&gt;Node5</title>
<path fill="none" stroke="midnightblue" d="M1952.57,-246.91C1809.93,-238.95 1388.66,-214.38 1328.65,-199 1307.84,-193.67 1305.15,-185.41 1284.65,-179 1219.2,-158.54 1140.95,-146.26 1090.1,-139.82"/>
<polygon fill="midnightblue" stroke="midnightblue" points="1090.35,-136.33 1079.99,-138.57 1089.49,-143.27 1090.35,-136.33"/>
</g>
<!-- Node35&#45;&gt;Node7 -->
<g id="edge54" class="edge">
<title>Node35&#45;&gt;Node7</title>
<path fill="none" stroke="midnightblue" d="M1952.56,-246.81C1820.63,-239.07 1455.74,-216.2 1436.65,-199 1388.54,-155.65 1456.9,-99.2 1408.65,-56 1371.11,-22.39 1018.85,-13.53 903.81,-11.53"/>
<polygon fill="midnightblue" stroke="midnightblue" points="903.8,-8.02 893.74,-11.36 903.68,-15.02 903.8,-8.02"/>
</g>
<!-- Node35&#45;&gt;Node9 -->
<g id="edge55" class="edge">
<title>Node35&#45;&gt;Node9</title>
<path fill="none" stroke="midnightblue" d="M2046.82,-248.86C2176.47,-246.6 2530.9,-236.99 2565.65,-199 2571.65,-192.44 2571.46,-185.73 2565.65,-179 2491.48,-93.08 1651.61,-27.27 1464.46,-13.62"/>
<polygon fill="midnightblue" stroke="midnightblue" points="1464.54,-10.11 1454.31,-12.88 1464.03,-17.09 1464.54,-10.11"/>
</g>
<!-- Node35&#45;&gt;Node15 -->
<g id="edge52" class="edge">
<title>Node35&#45;&gt;Node15</title>
<path fill="none" stroke="midnightblue" d="M1952.47,-246.8C1815.49,-238.78 1426.05,-214.7 1403.65,-199 1388.42,-188.32 1380.74,-167.91 1376.99,-152.8"/>
<polygon fill="midnightblue" stroke="midnightblue" points="1380.4,-152 1374.91,-142.95 1373.55,-153.45 1380.4,-152"/>
</g>
<!-- Node35&#45;&gt;Node20 -->
<g id="edge56" class="edge">
<title>Node35&#45;&gt;Node20</title>
<path fill="none" stroke="midnightblue" d="M2046.86,-248.72C2173.96,-246.15 2516.04,-235.83 2549.65,-199 2555.64,-192.43 2555.65,-185.56 2549.65,-179 2518.74,-145.23 2205.6,-136.64 2087.45,-134.6"/>
<polygon fill="midnightblue" stroke="midnightblue" points="2087.35,-131.1 2077.3,-134.43 2087.24,-138.1 2087.35,-131.1"/>
</g>
<!-- Node35&#45;&gt;Node29 -->
<g id="edge62" class="edge">
<title>Node35&#45;&gt;Node29</title>
<path fill="none" stroke="midnightblue" d="M1952.26,-246.51C1838.14,-239.24 1539.03,-219.68 1289.65,-199 1288.37,-198.89 1287.09,-198.79 1285.79,-198.68"/>
<polygon fill="midnightblue" stroke="midnightblue" points="1286.01,-195.18 1275.74,-197.81 1285.41,-202.16 1286.01,-195.18"/>
</g>
<!-- Node36 -->
<g id="node36" class="node">
<title>Node36</title>
<g id="a_node36"><a xlink:href="flatten_8hpp.html" target="_top" xlink:title=" ">
<polygon fill="none" stroke="black" points="1445.65,-179.5 1445.65,-198.5 1539.65,-198.5 1539.65,-179.5 1445.65,-179.5"/>
<text text-anchor="middle" x="1492.65" y="-186.5" font-family="Helvetica,sans-Serif" font-size="10.00">utils/flatten.hpp</text>
</a>
</g>
</g>
<!-- Node35&#45;&gt;Node36 -->
<g id="edge49" class="edge">
<title>Node35&#45;&gt;Node36</title>
<path fill="none" stroke="midnightblue" d="M1952.48,-244.97C1872.08,-237.08 1703.07,-219.79 1549.75,-199.09"/>
<polygon fill="midnightblue" stroke="midnightblue" points="1550.06,-195.6 1539.68,-197.73 1549.12,-202.54 1550.06,-195.6"/>
</g>
<!-- Node37 -->
<g id="node37" class="node">
<title>Node37</title>
<g id="a_node37"><a xlink:title=" ">
<polygon fill="none" stroke="#bfbfbf" points="2634.65,-179.5 2634.65,-198.5 2676.65,-198.5 2676.65,-179.5 2634.65,-179.5"/>
<text text-anchor="middle" x="2655.65" y="-186.5" font-family="Helvetica,sans-Serif" font-size="10.00">array</text>
</a>
</g>
</g>
<!-- Node35&#45;&gt;Node37 -->
<g id="edge53" class="edge">
<title>Node35&#45;&gt;Node37</title>
<path fill="none" stroke="midnightblue" d="M2046.73,-248.41C2150.87,-245.39 2408.37,-234.66 2620.65,-199 2621.9,-198.79 2623.18,-198.56 2624.46,-198.3"/>
<polygon fill="midnightblue" stroke="midnightblue" points="2625.31,-201.7 2634.3,-196.11 2623.78,-194.87 2625.31,-201.7"/>
</g>
<!-- Node38 -->
<g id="node38" class="node">
<title>Node38</title>
<g id="a_node38"><a xlink:title=" ">
<polygon fill="none" stroke="#bfbfbf" points="2695.15,-179.5 2695.15,-198.5 2740.15,-198.5 2740.15,-179.5 2695.15,-179.5"/>
<text text-anchor="middle" x="2717.65" y="-186.5" font-family="Helvetica,sans-Serif" font-size="10.00">utility</text>
</a>
</g>
</g>
<!-- Node35&#45;&gt;Node38 -->
<g id="edge57" class="edge">
<title>Node35&#45;&gt;Node38</title>
<path fill="none" stroke="midnightblue" d="M2047.04,-249.27C2157.48,-248.04 2440.47,-240.87 2684.91,-198.73"/>
<polygon fill="midnightblue" stroke="midnightblue" points="2685.81,-202.13 2695.05,-196.96 2684.6,-195.23 2685.81,-202.13"/>
</g>
<!-- Node39 -->
<g id="node39" class="node">
<title>Node39</title>
<g id="a_node39"><a xlink:title=" ">
<polygon fill="none" stroke="#bfbfbf" points="2758.15,-179.5 2758.15,-198.5 2927.15,-198.5 2927.15,-179.5 2758.15,-179.5"/>
<text text-anchor="middle" x="2842.65" y="-186.5" font-family="Helvetica,sans-Serif" font-size="10.00">boost/qvm/mat_operations.hpp</text>
</a>
</g>
</g>
<!-- Node35&#45;&gt;Node39 -->
<g id="edge58" class="edge">
<title>Node35&#45;&gt;Node39</title>
<path fill="none" stroke="midnightblue" d="M2047.07,-246.79C2164.15,-239.99 2476.56,-221.23 2747.97,-199.12"/>
<polygon fill="midnightblue" stroke="midnightblue" points="2748.33,-202.6 2758.01,-198.3 2747.76,-195.62 2748.33,-202.6"/>
</g>
<!-- Node40 -->
<g id="node40" class="node">
<title>Node40</title>
<g id="a_node40"><a xlink:title=" ">
<polygon fill="none" stroke="#bfbfbf" points="2945.15,-179.5 2945.15,-198.5 3136.15,-198.5 3136.15,-179.5 2945.15,-179.5"/>
<text text-anchor="middle" x="3040.65" y="-186.5" font-family="Helvetica,sans-Serif" font-size="10.00">boost/qvm/vec_mat_operations.hpp</text>
</a>
</g>
</g>
<!-- Node35&#45;&gt;Node40 -->
<g id="edge59" class="edge">
<title>Node35&#45;&gt;Node40</title>
<path fill="none" stroke="midnightblue" d="M2046.97,-247.49C2183.16,-241.6 2587.98,-223.28 2934.9,-199.1"/>
<polygon fill="midnightblue" stroke="midnightblue" points="2935.16,-202.59 2944.89,-198.4 2934.67,-195.61 2935.16,-202.59"/>
</g>
<!-- Node41 -->
<g id="node41" class="node">
<title>Node41</title>
<g id="a_node41"><a xlink:title=" ">
<polygon fill="none" stroke="#bfbfbf" points="3154.15,-179.5 3154.15,-198.5 3321.15,-198.5 3321.15,-179.5 3154.15,-179.5"/>
<text text-anchor="middle" x="3237.65" y="-186.5" font-family="Helvetica,sans-Serif" font-size="10.00">boost/qvm/vec_operations.hpp</text>
</a>
</g>
</g>
<!-- Node35&#45;&gt;Node41 -->
<g id="edge60" class="edge">
<title>Node35&#45;&gt;Node41</title>
<path fill="none" stroke="midnightblue" d="M2046.91,-248.32C2202.31,-244.26 2711.74,-229.43 3143.74,-199.1"/>
<polygon fill="midnightblue" stroke="midnightblue" points="3144.2,-202.58 3153.93,-198.38 3143.71,-195.59 3144.2,-202.58"/>
</g>
<!-- Node42 -->
<g id="node42" class="node">
<title>Node42</title>
<g id="a_node42"><a xlink:title=" ">
<polygon fill="none" stroke="#bfbfbf" points="3339.65,-179.5 3339.65,-198.5 3491.65,-198.5 3491.65,-179.5 3339.65,-179.5"/>
<text text-anchor="middle" x="3415.65" y="-186.5" font-family="Helvetica,sans-Serif" font-size="10.00">boost/qvm/deduce_mat.hpp</text>
</a>
</g>
</g>
<!-- Node35&#45;&gt;Node42 -->
<g id="edge61" class="edge">
<title>Node35&#45;&gt;Node42</title>
<path fill="none" stroke="midnightblue" d="M2046.87,-248.86C2217.86,-246.31 2820.97,-235.18 3329.11,-199.06"/>
<polygon fill="midnightblue" stroke="midnightblue" points="3329.49,-202.54 3339.22,-198.34 3328.99,-195.56 3329.49,-202.54"/>
</g>
<!-- Node43 -->
<g id="node43" class="node">
<title>Node43</title>
<g id="a_node43"><a xlink:title=" ">
<polygon fill="none" stroke="#bfbfbf" points="1557.65,-179.5 1557.65,-198.5 1721.65,-198.5 1721.65,-179.5 1557.65,-179.5"/>
<text text-anchor="middle" x="1639.65" y="-186.5" font-family="Helvetica,sans-Serif" font-size="10.00">boost/qvm/map_mat_mat.hpp</text>
</a>
</g>
</g>
<!-- Node35&#45;&gt;Node43 -->
<g id="edge64" class="edge">
<title>Node35&#45;&gt;Node43</title>
<path fill="none" stroke="midnightblue" d="M1952.59,-241.72C1888.19,-231.08 1772.5,-211.96 1701.26,-200.18"/>
<polygon fill="midnightblue" stroke="midnightblue" points="1701.53,-196.68 1691.09,-198.5 1700.38,-203.59 1701.53,-196.68"/>
</g>
<!-- Node44 -->
<g id="node44" class="node">
<title>Node44</title>
<g id="a_node44"><a xlink:title=" ">
<polygon fill="none" stroke="#bfbfbf" points="1740.15,-179.5 1740.15,-198.5 1901.15,-198.5 1901.15,-179.5 1740.15,-179.5"/>
<text text-anchor="middle" x="1820.65" y="-186.5" font-family="Helvetica,sans-Serif" font-size="10.00">boost/qvm/map_mat_vec.hpp</text>
</a>
</g>
</g>
<!-- Node35&#45;&gt;Node44 -->
<g id="edge65" class="edge">
<title>Node35&#45;&gt;Node44</title>
<path fill="none" stroke="midnightblue" d="M1974,-240.98C1943.03,-230.68 1890.78,-213.31 1856,-201.75"/>
<polygon fill="midnightblue" stroke="midnightblue" points="1856.84,-198.34 1846.25,-198.51 1854.63,-204.98 1856.84,-198.34"/>
</g>
<!-- Node45 -->
<g id="node45" class="node">
<title>Node45</title>
<g id="a_node45"><a xlink:title=" ">
<polygon fill="none" stroke="#bfbfbf" points="1919.15,-179.5 1919.15,-198.5 2080.15,-198.5 2080.15,-179.5 1919.15,-179.5"/>
<text text-anchor="middle" x="1999.65" y="-186.5" font-family="Helvetica,sans-Serif" font-size="10.00">boost/qvm/map_vec_mat.hpp</text>
</a>
</g>
</g>
<!-- Node35&#45;&gt;Node45 -->
<g id="edge66" class="edge">
<title>Node35&#45;&gt;Node45</title>
<path fill="none" stroke="midnightblue" d="M1999.65,-240.98C1999.65,-232.58 1999.65,-219.48 1999.65,-208.66"/>
<polygon fill="midnightblue" stroke="midnightblue" points="2003.15,-208.51 1999.65,-198.51 1996.15,-208.51 2003.15,-208.51"/>
</g>
<!-- Node46 -->
<g id="node46" class="node">
<title>Node46</title>
<g id="a_node46"><a xlink:title=" ">
<polygon fill="none" stroke="#bfbfbf" points="2098.65,-179.5 2098.65,-198.5 2210.65,-198.5 2210.65,-179.5 2098.65,-179.5"/>
<text text-anchor="middle" x="2154.65" y="-186.5" font-family="Helvetica,sans-Serif" font-size="10.00">boost/qvm/mat.hpp</text>
</a>
</g>
</g>
<!-- Node35&#45;&gt;Node46 -->
<g id="edge67" class="edge">
<title>Node35&#45;&gt;Node46</title>
<path fill="none" stroke="midnightblue" d="M2021.86,-240.98C2048.33,-230.81 2092.76,-213.76 2122.87,-202.2"/>
<polygon fill="midnightblue" stroke="midnightblue" points="2124.4,-205.36 2132.48,-198.51 2121.89,-198.83 2124.4,-205.36"/>
</g>
<!-- Node47 -->
<g id="node47" class="node">
<title>Node47</title>
<g id="a_node47"><a xlink:title=" ">
<polygon fill="none" stroke="#bfbfbf" points="2228.65,-179.5 2228.65,-198.5 2378.65,-198.5 2378.65,-179.5 2228.65,-179.5"/>
<text text-anchor="middle" x="2303.65" y="-186.5" font-family="Helvetica,sans-Serif" font-size="10.00">boost/qvm/mat_access.hpp</text>
</a>
</g>
</g>
<!-- Node35&#45;&gt;Node47 -->
<g id="edge68" class="edge">
<title>Node35&#45;&gt;Node47</title>
<path fill="none" stroke="midnightblue" d="M2043.21,-240.98C2097.84,-230.28 2191.46,-211.96 2250.32,-200.44"/>
<polygon fill="midnightblue" stroke="midnightblue" points="2251.03,-203.86 2260.17,-198.51 2249.69,-197 2251.03,-203.86"/>
</g>
<!-- Node48 -->
<g id="node48" class="node">
<title>Node48</title>
<g id="a_node48"><a xlink:title=" ">
<polygon fill="none" stroke="#bfbfbf" points="2397.15,-179.5 2397.15,-198.5 2540.15,-198.5 2540.15,-179.5 2397.15,-179.5"/>
<text text-anchor="middle" x="2468.65" y="-186.5" font-family="Helvetica,sans-Serif" font-size="10.00">boost/qvm/mat_traits.hpp</text>
</a>
</g>
</g>
<!-- Node35&#45;&gt;Node48 -->
<g id="edge69" class="edge">
<title>Node35&#45;&gt;Node48</title>
<path fill="none" stroke="midnightblue" d="M2046.77,-243.52C2127.53,-233.28 2293.16,-212.26 2391.15,-199.83"/>
<polygon fill="midnightblue" stroke="midnightblue" points="2391.81,-203.28 2401.29,-198.55 2390.93,-196.33 2391.81,-203.28"/>
</g>
<!-- Node36&#45;&gt;Node12 -->
<g id="edge50" class="edge">
<title>Node36&#45;&gt;Node12</title>
<path fill="none" stroke="midnightblue" d="M1483.63,-179.32C1463.56,-160 1414.97,-113.24 1389.25,-88.48"/>
<polygon fill="midnightblue" stroke="midnightblue" points="1391.41,-85.7 1381.77,-81.28 1386.55,-90.74 1391.41,-85.7"/>
</g>
<!-- Node36&#45;&gt;Node20 -->
<g id="edge51" class="edge">
<title>Node36&#45;&gt;Node20</title>
<path fill="none" stroke="midnightblue" d="M1539.67,-180.2C1542.71,-179.77 1545.72,-179.37 1548.65,-179 1713.89,-158.22 1911.39,-143.16 1998.11,-137.03"/>
<polygon fill="midnightblue" stroke="midnightblue" points="1998.39,-140.52 2008.12,-136.33 1997.9,-133.54 1998.39,-140.52"/>
</g>
</g>
</svg>
