<?xml version="1.0" encoding="UTF-8" standalone="no"?>
<!DOCTYPE svg PUBLIC "-//W3C//DTD SVG 1.1//EN"
 "http://www.w3.org/Graphics/SVG/1.1/DTD/svg11.dtd">
<!-- Generated by graphviz version 2.43.0 (0)
 -->
<!-- Title: LBProfileObservable.hpp Pages: 1 -->
<!--zoomable 397 -->
<svg id="main" version="1.1" xmlns="http://www.w3.org/2000/svg" xmlns:xlink="http://www.w3.org/1999/xlink" xml:space="preserve" onload="init(evt)">
<style type="text/css"><![CDATA[
.edge:hover path { stroke: red; }
.edge:hover polygon { stroke: red; fill: red; }
]]></style>
<script type="text/javascript"><![CDATA[
var edges = document.getElementsByTagName('g');
if (edges && edges.length) {
  for (var i=0;i<edges.length;i++) {
    if (edges[i].id.substr(0,4)=='edge') {
      edges[i].setAttribute('class','edge');
    }
  }
}
]]></script>
        <defs>
                <circle id="rim" cx="0" cy="0" r="7"/>
                <circle id="rim2" cx="0" cy="0" r="3.5"/>
                <g id="zoomPlus">
                        <use xlink:href="#rim" fill="#404040">
                                <set attributeName="fill" to="#808080" begin="zoomplus.mouseover" end="zoomplus.mouseout"/>
                        </use>
                        <path d="M-4,0h8M0,-4v8" fill="none" stroke="white" stroke-width="1.5" pointer-events="none"/>
                </g>
                <g id="zoomMin">
                        <use xlink:href="#rim" fill="#404040">
                                <set attributeName="fill" to="#808080" begin="zoomminus.mouseover" end="zoomminus.mouseout"/>
                        </use>
                        <path d="M-4,0h8" fill="none" stroke="white" stroke-width="1.5" pointer-events="none"/>
                </g>
                <g id="dirArrow">
                        <path fill="none" stroke="white" stroke-width="1.5" d="M0,-3.0v7 M-2.5,-0.5L0,-3.0L2.5,-0.5"/>
                </g>
               <g id="resetDef">
                       <use xlink:href="#rim2" fill="#404040">
                               <set attributeName="fill" to="#808080" begin="reset.mouseover" end="reset.mouseout"/>
                       </use>
               </g>
        </defs>

<script type="text/javascript">
var viewWidth = 2007;
var viewHeight = 397;
var sectionId = 'dynsection-0';
</script>
<script xlink:href="svgpan.js"/>
<svg id="graph" class="graph">
<g id="viewport">
<title>LBProfileObservable.hpp</title>
<!-- Node1 -->
<g id="node1" class="node">
<title>Node1</title>
<g id="a_node1"><a xlink:title=" ">
<polygon fill="#bfbfbf" stroke="black" points="843.66,-369.5 843.66,-388.5 980.66,-388.5 980.66,-369.5 843.66,-369.5"/>
<text text-anchor="middle" x="912.16" y="-376.5" font-family="Helvetica,sans-Serif" font-size="10.00">LBProfileObservable.hpp</text>
</a>
</g>
</g>
<!-- Node2 -->
<g id="node2" class="node">
<title>Node2</title>
<g id="a_node2"><a xlink:href="core_2observables_2ProfileObservable_8hpp.html" target="_top" xlink:title=" ">
<polygon fill="none" stroke="black" points="500.66,-257.5 500.66,-276.5 625.66,-276.5 625.66,-257.5 500.66,-257.5"/>
<text text-anchor="middle" x="563.16" y="-264.5" font-family="Helvetica,sans-Serif" font-size="10.00">ProfileObservable.hpp</text>
</a>
</g>
</g>
<!-- Node1&#45;&gt;Node2 -->
<g id="edge1" class="edge">
<title>Node1&#45;&gt;Node2</title>
<path fill="none" stroke="midnightblue" d="M885.07,-369.46C823.09,-349.93 670.92,-301.96 600.29,-279.7"/>
<polygon fill="midnightblue" stroke="midnightblue" points="601.07,-276.28 590.48,-276.61 598.97,-282.95 601.07,-276.28"/>
</g>
<!-- Node4 -->
<g id="node4" class="node">
<title>Node4</title>
<g id="a_node4"><a xlink:title=" ">
<polygon fill="none" stroke="#bfbfbf" points="887.66,-0.5 887.66,-19.5 940.66,-19.5 940.66,-0.5 887.66,-0.5"/>
<text text-anchor="middle" x="914.16" y="-7.5" font-family="Helvetica,sans-Serif" font-size="10.00">cstddef</text>
</a>
</g>
</g>
<!-- Node1&#45;&gt;Node4 -->
<g id="edge62" class="edge">
<title>Node1&#45;&gt;Node4</title>
<path fill="none" stroke="midnightblue" d="M912.21,-369.29C912.47,-322.19 913.69,-97.55 914.06,-30.16"/>
<polygon fill="midnightblue" stroke="midnightblue" points="917.56,-29.81 914.12,-19.79 910.56,-29.77 917.56,-29.81"/>
</g>
<!-- Node7 -->
<g id="node7" class="node">
<title>Node7</title>
<g id="a_node7"><a xlink:title=" ">
<polygon fill="none" stroke="#bfbfbf" points="598.66,-129 598.66,-148 645.66,-148 645.66,-129 598.66,-129"/>
<text text-anchor="middle" x="622.16" y="-136" font-family="Helvetica,sans-Serif" font-size="10.00">vector</text>
</a>
</g>
</g>
<!-- Node1&#45;&gt;Node7 -->
<g id="edge64" class="edge">
<title>Node1&#45;&gt;Node7</title>
<path fill="none" stroke="midnightblue" d="M843.42,-369.78C737.62,-355.8 541.78,-324.25 491.16,-277 462.23,-249.99 449.07,-222.14 472.16,-190 498.46,-153.4 552.64,-142.97 588.18,-140.2"/>
<polygon fill="midnightblue" stroke="midnightblue" points="588.79,-143.67 598.56,-139.56 588.36,-136.68 588.79,-143.67"/>
</g>
<!-- Node13 -->
<g id="node13" class="node">
<title>Node13</title>
<g id="a_node13"><a xlink:title=" ">
<polygon fill="none" stroke="#bfbfbf" points="804.16,-196 804.16,-215 846.16,-215 846.16,-196 804.16,-196"/>
<text text-anchor="middle" x="825.16" y="-203" font-family="Helvetica,sans-Serif" font-size="10.00">array</text>
</a>
</g>
</g>
<!-- Node1&#45;&gt;Node13 -->
<g id="edge59" class="edge">
<title>Node1&#45;&gt;Node13</title>
<path fill="none" stroke="midnightblue" d="M898.19,-369.35C886.37,-361.33 869.86,-348.34 860.16,-333 838.53,-298.77 830.06,-251.11 826.91,-225.16"/>
<polygon fill="midnightblue" stroke="midnightblue" points="830.39,-224.74 825.83,-215.17 823.43,-225.49 830.39,-224.74"/>
</g>
<!-- Node14 -->
<g id="node14" class="node">
<title>Node14</title>
<g id="a_node14"><a xlink:title=" ">
<polygon fill="none" stroke="#bfbfbf" points="708.66,-62 708.66,-81 773.66,-81 773.66,-62 708.66,-62"/>
<text text-anchor="middle" x="741.16" y="-69" font-family="Helvetica,sans-Serif" font-size="10.00">stdexcept</text>
</a>
</g>
</g>
<!-- Node1&#45;&gt;Node14 -->
<g id="edge63" class="edge">
<title>Node1&#45;&gt;Node14</title>
<path fill="none" stroke="midnightblue" d="M909.46,-369.38C906.62,-360.33 902.04,-345.67 898.16,-333 878.75,-269.54 902,-237.02 855.16,-190 816.47,-151.15 769.79,-198.07 737.16,-154 723.7,-135.81 728.59,-108.59 734.18,-90.69"/>
<polygon fill="midnightblue" stroke="midnightblue" points="737.52,-91.73 737.5,-81.14 730.91,-89.43 737.52,-91.73"/>
</g>
<!-- Node16 -->
<g id="node16" class="node">
<title>Node16</title>
<g id="a_node16"><a xlink:href="grid_8hpp.html" target="_top" xlink:title=" ">
<polygon fill="none" stroke="black" points="1244.16,-313.5 1244.16,-332.5 1300.16,-332.5 1300.16,-313.5 1244.16,-313.5"/>
<text text-anchor="middle" x="1272.16" y="-320.5" font-family="Helvetica,sans-Serif" font-size="10.00">grid.hpp</text>
</a>
</g>
</g>
<!-- Node1&#45;&gt;Node16 -->
<g id="edge18" class="edge">
<title>Node1&#45;&gt;Node16</title>
<path fill="none" stroke="midnightblue" d="M969.21,-369.44C1043.2,-358.34 1170.3,-339.28 1233.77,-329.76"/>
<polygon fill="midnightblue" stroke="midnightblue" points="1234.38,-333.21 1243.75,-328.26 1233.34,-326.28 1234.38,-333.21"/>
</g>
<!-- Node19 -->
<g id="node19" class="node">
<title>Node19</title>
<g id="a_node19"><a xlink:title=" ">
<polygon fill="none" stroke="#bfbfbf" points="1070.66,-129 1070.66,-148 1117.66,-148 1117.66,-129 1070.66,-129"/>
<text text-anchor="middle" x="1094.16" y="-136" font-family="Helvetica,sans-Serif" font-size="10.00">cmath</text>
</a>
</g>
</g>
<!-- Node1&#45;&gt;Node19 -->
<g id="edge61" class="edge">
<title>Node1&#45;&gt;Node19</title>
<path fill="none" stroke="midnightblue" d="M929.62,-369.43C967.83,-349.58 1058.25,-296.28 1093.16,-221 1102.44,-200.99 1100.79,-175.14 1098.08,-157.97"/>
<polygon fill="midnightblue" stroke="midnightblue" points="1101.52,-157.29 1096.25,-148.09 1094.63,-158.56 1101.52,-157.29"/>
</g>
<!-- Node21 -->
<g id="node21" class="node">
<title>Node21</title>
<g id="a_node21"><a xlink:href="Vector_8hpp.html" target="_top" xlink:title=" ">
<polygon fill="none" stroke="black" points="1316.66,-196 1316.66,-215 1409.66,-215 1409.66,-196 1316.66,-196"/>
<text text-anchor="middle" x="1363.16" y="-203" font-family="Helvetica,sans-Serif" font-size="10.00">utils/Vector.hpp</text>
</a>
</g>
</g>
<!-- Node1&#45;&gt;Node21 -->
<g id="edge58" class="edge">
<title>Node1&#45;&gt;Node21</title>
<path fill="none" stroke="midnightblue" d="M980.88,-378.51C1134.19,-377.99 1496.43,-367.06 1569.16,-277 1611.58,-224.48 1494.55,-210.93 1419.9,-207.53"/>
<polygon fill="midnightblue" stroke="midnightblue" points="1419.8,-204.03 1409.67,-207.12 1419.52,-211.02 1419.8,-204.03"/>
</g>
<!-- Node26 -->
<g id="node26" class="node">
<title>Node26</title>
<g id="a_node26"><a xlink:title=" ">
<polygon fill="none" stroke="#bfbfbf" points="1446.16,-0.5 1446.16,-19.5 1498.16,-19.5 1498.16,-0.5 1446.16,-0.5"/>
<text text-anchor="middle" x="1472.16" y="-7.5" font-family="Helvetica,sans-Serif" font-size="10.00">cassert</text>
</a>
</g>
</g>
<!-- Node1&#45;&gt;Node26 -->
<g id="edge60" class="edge">
<title>Node1&#45;&gt;Node26</title>
<path fill="none" stroke="midnightblue" d="M980.98,-378.28C1219.93,-378.37 1999.16,-370.78 1999.16,-268 1999.16,-268 1999.16,-268 1999.16,-137.5 1999.16,-36.35 1627.41,-15.87 1508.37,-11.91"/>
<polygon fill="midnightblue" stroke="midnightblue" points="1508.4,-8.41 1498.3,-11.6 1508.18,-15.41 1508.4,-8.41"/>
</g>
<!-- Node3 -->
<g id="node3" class="node">
<title>Node3</title>
<g id="a_node3"><a xlink:href="core_2observables_2Observable_8hpp.html" target="_top" xlink:title=" ">
<polygon fill="none" stroke="black" points="654.66,-196 654.66,-215 747.66,-215 747.66,-196 654.66,-196"/>
<text text-anchor="middle" x="701.16" y="-203" font-family="Helvetica,sans-Serif" font-size="10.00">Observable.hpp</text>
</a>
</g>
</g>
<!-- Node2&#45;&gt;Node3 -->
<g id="edge2" class="edge">
<title>Node2&#45;&gt;Node3</title>
<path fill="none" stroke="midnightblue" d="M582.94,-257.48C606.3,-247.4 645.38,-230.55 672.17,-219"/>
<polygon fill="midnightblue" stroke="midnightblue" points="673.63,-222.18 681.43,-215.01 670.86,-215.75 673.63,-222.18"/>
</g>
<!-- Node2&#45;&gt;Node4 -->
<g id="edge14" class="edge">
<title>Node2&#45;&gt;Node4</title>
<path fill="none" stroke="midnightblue" d="M500.44,-260.58C341.51,-245.65 -59.76,-199.83 8.16,-123 66.84,-56.62 714.27,-20.75 877.15,-12.74"/>
<polygon fill="midnightblue" stroke="midnightblue" points="877.77,-16.21 887.59,-12.23 877.43,-9.22 877.77,-16.21"/>
</g>
<!-- Node2&#45;&gt;Node7 -->
<g id="edge17" class="edge">
<title>Node2&#45;&gt;Node7</title>
<path fill="none" stroke="midnightblue" d="M531.35,-257.38C513.22,-250.66 492,-239.31 481.16,-221 474.15,-209.14 473.23,-201.27 481.16,-190 505.27,-155.76 554.86,-144.61 588.32,-141.06"/>
<polygon fill="midnightblue" stroke="midnightblue" points="588.91,-144.52 598.57,-140.15 588.3,-137.54 588.91,-144.52"/>
</g>
<!-- Node8 -->
<g id="node8" class="node">
<title>Node8</title>
<g id="a_node8"><a xlink:href="make__lin__space_8hpp.html" target="_top" xlink:title=" ">
<polygon fill="none" stroke="black" points="244.66,-190.5 244.66,-220.5 357.66,-220.5 357.66,-190.5 244.66,-190.5"/>
<text text-anchor="start" x="252.66" y="-208.5" font-family="Helvetica,sans-Serif" font-size="10.00">utils/math/make_lin</text>
<text text-anchor="middle" x="301.16" y="-197.5" font-family="Helvetica,sans-Serif" font-size="10.00">_space.hpp</text>
</a>
</g>
</g>
<!-- Node2&#45;&gt;Node8 -->
<g id="edge7" class="edge">
<title>Node2&#45;&gt;Node8</title>
<path fill="none" stroke="midnightblue" d="M525.63,-257.48C484.5,-248.14 417.74,-232.98 367.7,-221.61"/>
<polygon fill="midnightblue" stroke="midnightblue" points="368.45,-218.19 357.93,-219.39 366.9,-225.02 368.45,-218.19"/>
</g>
<!-- Node12 -->
<g id="node12" class="node">
<title>Node12</title>
<g id="a_node12"><a xlink:title=" ">
<polygon fill="none" stroke="#bfbfbf" points="490.16,-196 490.16,-215 636.16,-215 636.16,-196 490.16,-196"/>
<text text-anchor="middle" x="563.16" y="-203" font-family="Helvetica,sans-Serif" font-size="10.00">boost/range/algorithm.hpp</text>
</a>
</g>
</g>
<!-- Node2&#45;&gt;Node12 -->
<g id="edge12" class="edge">
<title>Node2&#45;&gt;Node12</title>
<path fill="none" stroke="midnightblue" d="M563.16,-257.48C563.16,-249.08 563.16,-235.98 563.16,-225.16"/>
<polygon fill="midnightblue" stroke="midnightblue" points="566.66,-225.01 563.16,-215.01 559.66,-225.01 566.66,-225.01"/>
</g>
<!-- Node2&#45;&gt;Node13 -->
<g id="edge13" class="edge">
<title>Node2&#45;&gt;Node13</title>
<path fill="none" stroke="midnightblue" d="M622.74,-257.48C668.99,-250.09 734.41,-237.89 790.16,-221 792.45,-220.31 794.79,-219.52 797.12,-218.68"/>
<polygon fill="midnightblue" stroke="midnightblue" points="798.47,-221.91 806.52,-215.02 795.93,-215.39 798.47,-221.91"/>
</g>
<!-- Node2&#45;&gt;Node14 -->
<g id="edge15" class="edge">
<title>Node2&#45;&gt;Node14</title>
<path fill="none" stroke="midnightblue" d="M525.2,-257.41C505.76,-250.88 483.79,-239.72 472.16,-221 464.89,-209.3 465.25,-201.92 472.16,-190 518.65,-109.81 634.86,-84.26 698.26,-76.18"/>
<polygon fill="midnightblue" stroke="midnightblue" points="698.81,-79.64 708.33,-74.99 697.99,-72.69 698.81,-79.64"/>
</g>
<!-- Node15 -->
<g id="node15" class="node">
<title>Node15</title>
<g id="a_node15"><a xlink:title=" ">
<polygon fill="none" stroke="#bfbfbf" points="942.66,-129 942.66,-148 987.66,-148 987.66,-129 942.66,-129"/>
<text text-anchor="middle" x="965.16" y="-136" font-family="Helvetica,sans-Serif" font-size="10.00">utility</text>
</a>
</g>
</g>
<!-- Node2&#45;&gt;Node15 -->
<g id="edge16" class="edge">
<title>Node2&#45;&gt;Node15</title>
<path fill="none" stroke="midnightblue" d="M625.92,-258.54C664.86,-252.2 715.12,-240.84 756.16,-221 776.1,-211.36 775.53,-200.23 795.16,-190 819.19,-177.48 890.52,-158.31 932.77,-147.55"/>
<polygon fill="midnightblue" stroke="midnightblue" points="933.74,-150.91 942.58,-145.07 932.03,-144.12 933.74,-150.91"/>
</g>
<!-- Node3&#45;&gt;Node4 -->
<g id="edge3" class="edge">
<title>Node3&#45;&gt;Node4</title>
<path fill="none" stroke="midnightblue" d="M697.69,-195.91C688.24,-171.03 665.02,-98.03 699.16,-56 721.19,-28.89 821.79,-17.54 877.23,-13.27"/>
<polygon fill="midnightblue" stroke="midnightblue" points="877.63,-16.75 887.35,-12.53 877.12,-9.77 877.63,-16.75"/>
</g>
<!-- Node5 -->
<g id="node5" class="node">
<title>Node5</title>
<g id="a_node5"><a xlink:title=" ">
<polygon fill="none" stroke="#bfbfbf" points="746.66,-129 746.66,-148 811.66,-148 811.66,-129 746.66,-129"/>
<text text-anchor="middle" x="779.16" y="-136" font-family="Helvetica,sans-Serif" font-size="10.00">functional</text>
</a>
</g>
</g>
<!-- Node3&#45;&gt;Node5 -->
<g id="edge4" class="edge">
<title>Node3&#45;&gt;Node5</title>
<path fill="none" stroke="midnightblue" d="M711.68,-195.73C724.31,-185.21 745.71,-167.38 761.02,-154.62"/>
<polygon fill="midnightblue" stroke="midnightblue" points="763.37,-157.22 768.81,-148.13 758.89,-151.84 763.37,-157.22"/>
</g>
<!-- Node6 -->
<g id="node6" class="node">
<title>Node6</title>
<g id="a_node6"><a xlink:title=" ">
<polygon fill="none" stroke="#bfbfbf" points="830.16,-129 830.16,-148 886.16,-148 886.16,-129 830.16,-129"/>
<text text-anchor="middle" x="858.16" y="-136" font-family="Helvetica,sans-Serif" font-size="10.00">numeric</text>
</a>
</g>
</g>
<!-- Node3&#45;&gt;Node6 -->
<g id="edge5" class="edge">
<title>Node3&#45;&gt;Node6</title>
<path fill="none" stroke="midnightblue" d="M722.01,-195.87C749.11,-184.65 796.63,-164.98 827.75,-152.09"/>
<polygon fill="midnightblue" stroke="midnightblue" points="829.33,-155.23 837.23,-148.17 826.65,-148.76 829.33,-155.23"/>
</g>
<!-- Node3&#45;&gt;Node7 -->
<g id="edge6" class="edge">
<title>Node3&#45;&gt;Node7</title>
<path fill="none" stroke="midnightblue" d="M690.51,-195.73C677.72,-185.21 656.05,-167.38 640.54,-154.62"/>
<polygon fill="midnightblue" stroke="midnightblue" points="642.59,-151.78 632.65,-148.13 638.15,-157.18 642.59,-151.78"/>
</g>
<!-- Node8&#45;&gt;Node4 -->
<g id="edge11" class="edge">
<title>Node8&#45;&gt;Node4</title>
<path fill="none" stroke="midnightblue" d="M342.36,-190.43C369.55,-180.85 405.82,-167.49 437.16,-154 465.83,-141.66 471.49,-135.32 500.16,-123 578.97,-89.13 598.55,-79.1 681.16,-56 749.45,-36.91 831.22,-23.15 877.49,-16.18"/>
<polygon fill="midnightblue" stroke="midnightblue" points="878.25,-19.61 887.63,-14.68 877.22,-12.68 878.25,-19.61"/>
</g>
<!-- Node9 -->
<g id="node9" class="node">
<title>Node9</title>
<g id="a_node9"><a xlink:title=" ">
<polygon fill="none" stroke="#bfbfbf" points="17.16,-123.5 17.16,-153.5 145.16,-153.5 145.16,-123.5 17.16,-123.5"/>
<text text-anchor="start" x="25.16" y="-141.5" font-family="Helvetica,sans-Serif" font-size="10.00">boost/iterator/counting</text>
<text text-anchor="middle" x="81.16" y="-130.5" font-family="Helvetica,sans-Serif" font-size="10.00">_iterator.hpp</text>
</a>
</g>
</g>
<!-- Node8&#45;&gt;Node9 -->
<g id="edge8" class="edge">
<title>Node8&#45;&gt;Node9</title>
<path fill="none" stroke="midnightblue" d="M253.7,-190.48C219.98,-180.51 174.53,-167.09 138.74,-156.51"/>
<polygon fill="midnightblue" stroke="midnightblue" points="139.51,-153.09 128.92,-153.61 137.52,-159.8 139.51,-153.09"/>
</g>
<!-- Node10 -->
<g id="node10" class="node">
<title>Node10</title>
<g id="a_node10"><a xlink:title=" ">
<polygon fill="none" stroke="#bfbfbf" points="163.16,-123.5 163.16,-153.5 297.16,-153.5 297.16,-123.5 163.16,-123.5"/>
<text text-anchor="start" x="171.16" y="-141.5" font-family="Helvetica,sans-Serif" font-size="10.00">boost/iterator/transform</text>
<text text-anchor="middle" x="230.16" y="-130.5" font-family="Helvetica,sans-Serif" font-size="10.00">_iterator.hpp</text>
</a>
</g>
</g>
<!-- Node8&#45;&gt;Node10 -->
<g id="edge9" class="edge">
<title>Node8&#45;&gt;Node10</title>
<path fill="none" stroke="midnightblue" d="M285.76,-190.4C276.17,-181.62 263.68,-170.18 252.96,-160.37"/>
<polygon fill="midnightblue" stroke="midnightblue" points="255.28,-157.75 245.54,-153.58 250.55,-162.91 255.28,-157.75"/>
</g>
<!-- Node11 -->
<g id="node11" class="node">
<title>Node11</title>
<g id="a_node11"><a xlink:title=" ">
<polygon fill="none" stroke="#bfbfbf" points="315.66,-123.5 315.66,-153.5 428.66,-153.5 428.66,-123.5 315.66,-123.5"/>
<text text-anchor="start" x="323.66" y="-141.5" font-family="Helvetica,sans-Serif" font-size="10.00">boost/range/iterator</text>
<text text-anchor="middle" x="372.16" y="-130.5" font-family="Helvetica,sans-Serif" font-size="10.00">_range.hpp</text>
</a>
</g>
</g>
<!-- Node8&#45;&gt;Node11 -->
<g id="edge10" class="edge">
<title>Node8&#45;&gt;Node11</title>
<path fill="none" stroke="midnightblue" d="M316.57,-190.4C326.15,-181.62 338.65,-170.18 349.37,-160.37"/>
<polygon fill="midnightblue" stroke="midnightblue" points="351.78,-162.91 356.79,-153.58 347.05,-157.75 351.78,-162.91"/>
</g>
<!-- Node17 -->
<g id="node17" class="node">
<title>Node17</title>
<g id="a_node17"><a xlink:href="BoxGeometry_8hpp.html" target="_top" xlink:title=" ">
<polygon fill="none" stroke="black" points="1140.16,-257.5 1140.16,-276.5 1244.16,-276.5 1244.16,-257.5 1140.16,-257.5"/>
<text text-anchor="middle" x="1192.16" y="-264.5" font-family="Helvetica,sans-Serif" font-size="10.00">BoxGeometry.hpp</text>
</a>
</g>
</g>
<!-- Node16&#45;&gt;Node17 -->
<g id="edge19" class="edge">
<title>Node16&#45;&gt;Node17</title>
<path fill="none" stroke="midnightblue" d="M1259.31,-313.32C1246.95,-304.98 1228.03,-292.21 1213.43,-282.35"/>
<polygon fill="midnightblue" stroke="midnightblue" points="1215.23,-279.35 1204.98,-276.65 1211.32,-285.15 1215.23,-279.35"/>
</g>
<!-- Node16&#45;&gt;Node21 -->
<g id="edge56" class="edge">
<title>Node16&#45;&gt;Node21</title>
<path fill="none" stroke="midnightblue" d="M1272.88,-313.21C1274.35,-299.91 1278.7,-274.39 1291.16,-257 1302.51,-241.17 1320.41,-228.58 1335.53,-219.93"/>
<polygon fill="midnightblue" stroke="midnightblue" points="1337.39,-222.91 1344.5,-215.06 1334.05,-216.76 1337.39,-222.91"/>
</g>
<!-- Node36 -->
<g id="node36" class="node">
<title>Node36</title>
<g id="a_node36"><a xlink:href="LocalBox_8hpp.html" target="_top" xlink:title=" ">
<polygon fill="none" stroke="black" points="1478.16,-257.5 1478.16,-276.5 1560.16,-276.5 1560.16,-257.5 1478.16,-257.5"/>
<text text-anchor="middle" x="1519.16" y="-264.5" font-family="Helvetica,sans-Serif" font-size="10.00">LocalBox.hpp</text>
</a>
</g>
</g>
<!-- Node16&#45;&gt;Node36 -->
<g id="edge54" class="edge">
<title>Node16&#45;&gt;Node36</title>
<path fill="none" stroke="midnightblue" d="M1300.5,-315.81C1341.87,-306.76 1419.4,-289.81 1470.15,-278.72"/>
<polygon fill="midnightblue" stroke="midnightblue" points="1471.21,-282.07 1480.23,-276.51 1469.72,-275.23 1471.21,-282.07"/>
</g>
<!-- Node37 -->
<g id="node37" class="node">
<title>Node37</title>
<g id="a_node37"><a xlink:title=" ">
<polygon fill="none" stroke="#bfbfbf" points="1300.16,-257.5 1300.16,-276.5 1460.16,-276.5 1460.16,-257.5 1300.16,-257.5"/>
<text text-anchor="middle" x="1380.16" y="-264.5" font-family="Helvetica,sans-Serif" font-size="10.00">boost/mpi/communicator.hpp</text>
</a>
</g>
</g>
<!-- Node16&#45;&gt;Node37 -->
<g id="edge57" class="edge">
<title>Node16&#45;&gt;Node37</title>
<path fill="none" stroke="midnightblue" d="M1289.52,-313.32C1306.84,-304.66 1333.68,-291.24 1353.67,-281.25"/>
<polygon fill="midnightblue" stroke="midnightblue" points="1355.48,-284.26 1362.85,-276.65 1352.34,-278 1355.48,-284.26"/>
</g>
<!-- Node17&#45;&gt;Node15 -->
<g id="edge53" class="edge">
<title>Node17&#45;&gt;Node15</title>
<path fill="none" stroke="midnightblue" d="M1139.94,-262.71C1081.14,-257.81 990.93,-246.3 969.16,-221 954.41,-203.84 956.51,-176.36 960.18,-158.12"/>
<polygon fill="midnightblue" stroke="midnightblue" points="963.59,-158.9 962.46,-148.37 956.77,-157.31 963.59,-158.9"/>
</g>
<!-- Node18 -->
<g id="node18" class="node">
<title>Node18</title>
<g id="a_node18"><a xlink:href="periodic__fold_8hpp.html" target="_top" xlink:title=" ">
<polygon fill="none" stroke="black" points="978.16,-190.5 978.16,-220.5 1084.16,-220.5 1084.16,-190.5 978.16,-190.5"/>
<text text-anchor="start" x="986.16" y="-208.5" font-family="Helvetica,sans-Serif" font-size="10.00">algorithm/periodic</text>
<text text-anchor="middle" x="1031.16" y="-197.5" font-family="Helvetica,sans-Serif" font-size="10.00">_fold.hpp</text>
</a>
</g>
</g>
<!-- Node17&#45;&gt;Node18 -->
<g id="edge20" class="edge">
<title>Node17&#45;&gt;Node18</title>
<path fill="none" stroke="midnightblue" d="M1169.1,-257.48C1145.56,-248.78 1108.35,-235.03 1078.51,-224"/>
<polygon fill="midnightblue" stroke="midnightblue" points="1079.7,-220.71 1069.11,-220.52 1077.27,-227.27 1079.7,-220.71"/>
</g>
<!-- Node17&#45;&gt;Node19 -->
<g id="edge51" class="edge">
<title>Node17&#45;&gt;Node19</title>
<path fill="none" stroke="midnightblue" d="M1202.6,-257.36C1218.93,-242.8 1247.07,-212.71 1231.16,-190 1204.3,-151.65 1176.04,-170.35 1132.16,-154 1130.28,-153.3 1128.34,-152.57 1126.39,-151.84"/>
<polygon fill="midnightblue" stroke="midnightblue" points="1127.24,-148.42 1116.65,-148.15 1124.76,-154.96 1127.24,-148.42"/>
</g>
<!-- Node20 -->
<g id="node20" class="node">
<title>Node20</title>
<g id="a_node20"><a xlink:title=" ">
<polygon fill="none" stroke="#bfbfbf" points="1008.16,-129 1008.16,-148 1052.16,-148 1052.16,-129 1008.16,-129"/>
<text text-anchor="middle" x="1030.16" y="-136" font-family="Helvetica,sans-Serif" font-size="10.00">limits</text>
</a>
</g>
</g>
<!-- Node17&#45;&gt;Node20 -->
<g id="edge52" class="edge">
<title>Node17&#45;&gt;Node20</title>
<path fill="none" stroke="midnightblue" d="M1181.03,-257.31C1153.86,-236.09 1083.9,-181.46 1049.65,-154.72"/>
<polygon fill="midnightblue" stroke="midnightblue" points="1051.41,-151.65 1041.38,-148.26 1047.1,-157.17 1051.41,-151.65"/>
</g>
<!-- Node17&#45;&gt;Node21 -->
<g id="edge24" class="edge">
<title>Node17&#45;&gt;Node21</title>
<path fill="none" stroke="midnightblue" d="M1216.66,-257.48C1246.12,-247.22 1295.74,-229.96 1328.97,-218.4"/>
<polygon fill="midnightblue" stroke="midnightblue" points="1330.41,-221.6 1338.71,-215.01 1328.11,-214.99 1330.41,-221.6"/>
</g>
<!-- Node17&#45;&gt;Node26 -->
<g id="edge50" class="edge">
<title>Node17&#45;&gt;Node26</title>
<path fill="none" stroke="midnightblue" d="M1204.97,-257.38C1216.81,-249.01 1234.46,-235.46 1247.16,-221 1281.03,-182.46 1266.9,-153.49 1308.16,-123 1358.45,-85.84 1397.92,-129.08 1444.16,-87 1460.46,-72.17 1467.3,-47.03 1470.15,-29.75"/>
<polygon fill="midnightblue" stroke="midnightblue" points="1473.63,-30.09 1471.51,-19.71 1466.7,-29.15 1473.63,-30.09"/>
</g>
<!-- Node35 -->
<g id="node35" class="node">
<title>Node35</title>
<g id="a_node35"><a xlink:title=" ">
<polygon fill="none" stroke="#bfbfbf" points="1178.16,-196 1178.16,-215 1222.16,-215 1222.16,-196 1178.16,-196"/>
<text text-anchor="middle" x="1200.16" y="-203" font-family="Helvetica,sans-Serif" font-size="10.00">bitset</text>
</a>
</g>
</g>
<!-- Node17&#45;&gt;Node35 -->
<g id="edge49" class="edge">
<title>Node17&#45;&gt;Node35</title>
<path fill="none" stroke="midnightblue" d="M1193.31,-257.48C1194.44,-249.08 1196.2,-235.98 1197.65,-225.16"/>
<polygon fill="midnightblue" stroke="midnightblue" points="1201.16,-225.39 1199.02,-215.01 1194.22,-224.45 1201.16,-225.39"/>
</g>
<!-- Node18&#45;&gt;Node15 -->
<g id="edge23" class="edge">
<title>Node18&#45;&gt;Node15</title>
<path fill="none" stroke="midnightblue" d="M1016.84,-190.4C1006.35,-180.06 992.1,-166.02 981.22,-155.31"/>
<polygon fill="midnightblue" stroke="midnightblue" points="983.57,-152.72 973.99,-148.19 978.66,-157.71 983.57,-152.72"/>
</g>
<!-- Node18&#45;&gt;Node19 -->
<g id="edge21" class="edge">
<title>Node18&#45;&gt;Node19</title>
<path fill="none" stroke="midnightblue" d="M1044.83,-190.4C1054.75,-180.16 1068.19,-166.3 1078.54,-155.62"/>
<polygon fill="midnightblue" stroke="midnightblue" points="1081.29,-157.81 1085.74,-148.19 1076.26,-152.94 1081.29,-157.81"/>
</g>
<!-- Node18&#45;&gt;Node20 -->
<g id="edge22" class="edge">
<title>Node18&#45;&gt;Node20</title>
<path fill="none" stroke="midnightblue" d="M1030.95,-190.4C1030.8,-181.06 1030.61,-168.71 1030.46,-158.52"/>
<polygon fill="midnightblue" stroke="midnightblue" points="1033.95,-158.14 1030.3,-148.19 1026.95,-158.25 1033.95,-158.14"/>
</g>
<!-- Node21&#45;&gt;Node4 -->
<g id="edge42" class="edge">
<title>Node21&#45;&gt;Node4</title>
<path fill="none" stroke="midnightblue" d="M1316.34,-198.42C1274.89,-191.7 1213.63,-178.44 1165.16,-154 1145.7,-144.19 1146.77,-132.52 1127.16,-123 1061.21,-90.97 1026.87,-128.12 966.16,-87 944.92,-72.61 929.87,-46.39 921.6,-28.83"/>
<polygon fill="midnightblue" stroke="midnightblue" points="924.78,-27.36 917.52,-19.65 918.39,-30.21 924.78,-27.36"/>
</g>
<!-- Node21&#45;&gt;Node5 -->
<g id="edge43" class="edge">
<title>Node21&#45;&gt;Node5</title>
<path fill="none" stroke="midnightblue" d="M1316.46,-199.12C1291.21,-196.27 1259.5,-192.8 1231.16,-190 1049.13,-172.01 1000.07,-192.13 821.16,-154 817.66,-153.25 814.05,-152.3 810.48,-151.24"/>
<polygon fill="midnightblue" stroke="midnightblue" points="811.27,-147.82 800.68,-148.06 809.11,-154.48 811.27,-147.82"/>
</g>
<!-- Node21&#45;&gt;Node6 -->
<g id="edge46" class="edge">
<title>Node21&#45;&gt;Node6</title>
<path fill="none" stroke="midnightblue" d="M1316.55,-199.22C1213.07,-187.48 970.39,-159.78 933.16,-154 921.1,-152.13 908.02,-149.73 896.21,-147.42"/>
<polygon fill="midnightblue" stroke="midnightblue" points="896.7,-143.95 886.21,-145.43 895.34,-150.82 896.7,-143.95"/>
</g>
<!-- Node21&#45;&gt;Node7 -->
<g id="edge48" class="edge">
<title>Node21&#45;&gt;Node7</title>
<path fill="none" stroke="midnightblue" d="M1316.47,-198.95C1291.24,-196.06 1259.52,-192.59 1231.16,-190 1011.94,-169.98 956.22,-175.78 737.16,-154 709.73,-151.27 678.72,-147.31 655.82,-144.22"/>
<polygon fill="midnightblue" stroke="midnightblue" points="656.29,-140.75 645.91,-142.87 655.34,-147.69 656.29,-140.75"/>
</g>
<!-- Node21&#45;&gt;Node19 -->
<g id="edge41" class="edge">
<title>Node21&#45;&gt;Node19</title>
<path fill="none" stroke="midnightblue" d="M1316.63,-196.44C1269.6,-187.81 1195.11,-172.77 1132.16,-154 1129.59,-153.23 1126.94,-152.37 1124.29,-151.46"/>
<polygon fill="midnightblue" stroke="midnightblue" points="1125.47,-148.17 1114.88,-148.05 1123.08,-154.75 1125.47,-148.17"/>
</g>
<!-- Node22 -->
<g id="node22" class="node">
<title>Node22</title>
<g id="a_node22"><a xlink:title=" ">
<polygon fill="none" stroke="#bfbfbf" points="1403.16,-129 1403.16,-148 1553.16,-148 1553.16,-129 1403.16,-129"/>
<text text-anchor="middle" x="1478.16" y="-136" font-family="Helvetica,sans-Serif" font-size="10.00">boost/qvm/deduce_vec.hpp</text>
</a>
</g>
</g>
<!-- Node21&#45;&gt;Node22 -->
<g id="edge25" class="edge">
<title>Node21&#45;&gt;Node22</title>
<path fill="none" stroke="midnightblue" d="M1378.67,-195.73C1398.07,-184.77 1431.49,-165.88 1454.19,-153.05"/>
<polygon fill="midnightblue" stroke="midnightblue" points="1455.92,-156.09 1462.9,-148.13 1452.47,-150 1455.92,-156.09"/>
</g>
<!-- Node23 -->
<g id="node23" class="node">
<title>Node23</title>
<g id="a_node23"><a xlink:title=" ">
<polygon fill="none" stroke="#bfbfbf" points="1571.16,-129 1571.16,-148 1711.16,-148 1711.16,-129 1571.16,-129"/>
<text text-anchor="middle" x="1641.16" y="-136" font-family="Helvetica,sans-Serif" font-size="10.00">boost/qvm/vec_traits.hpp</text>
</a>
</g>
</g>
<!-- Node21&#45;&gt;Node23 -->
<g id="edge26" class="edge">
<title>Node21&#45;&gt;Node23</title>
<path fill="none" stroke="midnightblue" d="M1399.79,-195.94C1449.9,-184.22 1539.83,-163.19 1594.64,-150.38"/>
<polygon fill="midnightblue" stroke="midnightblue" points="1595.51,-153.77 1604.45,-148.08 1593.92,-146.95 1595.51,-153.77"/>
</g>
<!-- Node24 -->
<g id="node24" class="node">
<title>Node24</title>
<g id="a_node24"><a xlink:href="Array_8hpp.html" target="_top" xlink:title=" ">
<polygon fill="none" stroke="black" points="1174.16,-129 1174.16,-148 1260.16,-148 1260.16,-129 1174.16,-129"/>
<text text-anchor="middle" x="1217.16" y="-136" font-family="Helvetica,sans-Serif" font-size="10.00">utils/Array.hpp</text>
</a>
</g>
</g>
<!-- Node21&#45;&gt;Node24 -->
<g id="edge27" class="edge">
<title>Node21&#45;&gt;Node24</title>
<path fill="none" stroke="midnightblue" d="M1343.78,-195.87C1318.69,-184.7 1274.77,-165.15 1245.82,-152.26"/>
<polygon fill="midnightblue" stroke="midnightblue" points="1247.19,-149.04 1236.63,-148.17 1244.34,-155.43 1247.19,-149.04"/>
</g>
<!-- Node21&#45;&gt;Node26 -->
<g id="edge40" class="edge">
<title>Node21&#45;&gt;Node26</title>
<path fill="none" stroke="midnightblue" d="M1409.86,-201.59C1505.37,-195.15 1715.9,-178.33 1737.16,-154 1807.58,-73.43 1596,-30.29 1508.33,-16.22"/>
<polygon fill="midnightblue" stroke="midnightblue" points="1508.7,-12.74 1498.28,-14.65 1507.62,-19.65 1508.7,-12.74"/>
</g>
<!-- Node30 -->
<g id="node30" class="node">
<title>Node30</title>
<g id="a_node30"><a xlink:title=" ">
<polygon fill="none" stroke="#bfbfbf" points="1598.66,-62 1598.66,-81 1651.66,-81 1651.66,-62 1598.66,-62"/>
<text text-anchor="middle" x="1625.16" y="-69" font-family="Helvetica,sans-Serif" font-size="10.00">iterator</text>
</a>
</g>
</g>
<!-- Node21&#45;&gt;Node30 -->
<g id="edge45" class="edge">
<title>Node21&#45;&gt;Node30</title>
<path fill="none" stroke="midnightblue" d="M1409.85,-205.12C1497.28,-205.16 1680.5,-199.67 1720.16,-154 1744.23,-126.29 1695.18,-99.67 1659.03,-84.76"/>
<polygon fill="midnightblue" stroke="midnightblue" points="1660.29,-81.49 1649.7,-81.05 1657.7,-88 1660.29,-81.49"/>
</g>
<!-- Node32 -->
<g id="node32" class="node">
<title>Node32</title>
<g id="a_node32"><a xlink:title=" ">
<polygon fill="none" stroke="#bfbfbf" points="1805.16,-129 1805.16,-148 1869.16,-148 1869.16,-129 1805.16,-129"/>
<text text-anchor="middle" x="1837.16" y="-136" font-family="Helvetica,sans-Serif" font-size="10.00">algorithm</text>
</a>
</g>
</g>
<!-- Node21&#45;&gt;Node32 -->
<g id="edge39" class="edge">
<title>Node21&#45;&gt;Node32</title>
<path fill="none" stroke="midnightblue" d="M1409.87,-201.87C1489.05,-196.77 1654.36,-183.36 1791.16,-154 1795.1,-153.15 1799.19,-152.11 1803.22,-150.98"/>
<polygon fill="midnightblue" stroke="midnightblue" points="1804.47,-154.26 1813.04,-148.04 1802.46,-147.56 1804.47,-154.26"/>
</g>
<!-- Node33 -->
<g id="node33" class="node">
<title>Node33</title>
<g id="a_node33"><a xlink:title=" ">
<polygon fill="none" stroke="#bfbfbf" points="1887.66,-129 1887.66,-148 1970.66,-148 1970.66,-129 1887.66,-129"/>
<text text-anchor="middle" x="1929.16" y="-136" font-family="Helvetica,sans-Serif" font-size="10.00">initializer_list</text>
</a>
</g>
</g>
<!-- Node21&#45;&gt;Node33 -->
<g id="edge44" class="edge">
<title>Node21&#45;&gt;Node33</title>
<path fill="none" stroke="midnightblue" d="M1409.72,-202.73C1500.54,-198.66 1707.37,-186.38 1878.16,-154 1882.94,-153.09 1887.92,-151.94 1892.81,-150.69"/>
<polygon fill="midnightblue" stroke="midnightblue" points="1893.92,-154.02 1902.65,-148.01 1892.08,-147.26 1893.92,-154.02"/>
</g>
<!-- Node34 -->
<g id="node34" class="node">
<title>Node34</title>
<g id="a_node34"><a xlink:title=" ">
<polygon fill="none" stroke="#bfbfbf" points="1316.66,-129 1316.66,-148 1385.66,-148 1385.66,-129 1316.66,-129"/>
<text text-anchor="middle" x="1351.16" y="-136" font-family="Helvetica,sans-Serif" font-size="10.00">type_traits</text>
</a>
</g>
</g>
<!-- Node21&#45;&gt;Node34 -->
<g id="edge47" class="edge">
<title>Node21&#45;&gt;Node34</title>
<path fill="none" stroke="midnightblue" d="M1361.55,-195.73C1359.78,-186.18 1356.91,-170.62 1354.63,-158.28"/>
<polygon fill="midnightblue" stroke="midnightblue" points="1358.01,-157.33 1352.76,-148.13 1351.13,-158.6 1358.01,-157.33"/>
</g>
<!-- Node24&#45;&gt;Node4 -->
<g id="edge35" class="edge">
<title>Node24&#45;&gt;Node4</title>
<path fill="none" stroke="midnightblue" d="M1184.03,-128.99C1176.21,-127 1167.9,-124.91 1160.16,-123 1093.61,-106.55 1071.82,-116.98 1010.16,-87 993.31,-78.8 954.12,-45.84 931.37,-26.11"/>
<polygon fill="midnightblue" stroke="midnightblue" points="933.64,-23.45 923.8,-19.52 929.04,-28.73 933.64,-23.45"/>
</g>
<!-- Node24&#45;&gt;Node14 -->
<g id="edge38" class="edge">
<title>Node24&#45;&gt;Node14</title>
<path fill="none" stroke="midnightblue" d="M1173.72,-130.23C1158.95,-127.84 1142.35,-125.22 1127.16,-123 1002.55,-104.81 854.84,-86.35 783.67,-77.64"/>
<polygon fill="midnightblue" stroke="midnightblue" points="784.09,-74.17 773.74,-76.43 783.24,-81.12 784.09,-74.17"/>
</g>
<!-- Node25 -->
<g id="node25" class="node">
<title>Node25</title>
<g id="a_node25"><a xlink:href="device__qualifier_8hpp.html" target="_top" xlink:title=" ">
<polygon fill="none" stroke="black" points="1290.16,-62 1290.16,-81 1406.16,-81 1406.16,-62 1290.16,-62"/>
<text text-anchor="middle" x="1348.16" y="-69" font-family="Helvetica,sans-Serif" font-size="10.00">device_qualifier.hpp</text>
</a>
</g>
</g>
<!-- Node24&#45;&gt;Node25 -->
<g id="edge28" class="edge">
<title>Node24&#45;&gt;Node25</title>
<path fill="none" stroke="midnightblue" d="M1234.56,-128.87C1256.78,-117.84 1295.45,-98.66 1321.42,-85.77"/>
<polygon fill="midnightblue" stroke="midnightblue" points="1323.29,-88.75 1330.7,-81.17 1320.18,-82.48 1323.29,-88.75"/>
</g>
<!-- Node24&#45;&gt;Node26 -->
<g id="edge34" class="edge">
<title>Node24&#45;&gt;Node26</title>
<path fill="none" stroke="midnightblue" d="M1250.71,-128.96C1307.13,-114.6 1414.95,-87.15 1415.16,-87 1437.18,-72.31 1454,-46.16 1463.48,-28.7"/>
<polygon fill="midnightblue" stroke="midnightblue" points="1466.71,-30.07 1468.2,-19.58 1460.49,-26.85 1466.71,-30.07"/>
</g>
<!-- Node27 -->
<g id="node27" class="node">
<title>Node27</title>
<g id="a_node27"><a xlink:href="get_8hpp.html" target="_top" xlink:title=" ">
<polygon fill="none" stroke="black" points="1018.66,-62 1018.66,-81 1071.66,-81 1071.66,-62 1018.66,-62"/>
<text text-anchor="middle" x="1045.16" y="-69" font-family="Helvetica,sans-Serif" font-size="10.00">get.hpp</text>
</a>
</g>
</g>
<!-- Node24&#45;&gt;Node27 -->
<g id="edge30" class="edge">
<title>Node24&#45;&gt;Node27</title>
<path fill="none" stroke="midnightblue" d="M1193.5,-128.94C1166.31,-119.04 1120.39,-102.18 1081.16,-87 1079.33,-86.29 1077.44,-85.55 1075.53,-84.8"/>
<polygon fill="midnightblue" stroke="midnightblue" points="1076.65,-81.48 1066.06,-81.03 1074.06,-87.98 1076.65,-81.48"/>
</g>
<!-- Node29 -->
<g id="node29" class="node">
<title>Node29</title>
<g id="a_node29"><a xlink:title=" ">
<polygon fill="none" stroke="#bfbfbf" points="1089.66,-56.5 1089.66,-86.5 1196.66,-86.5 1196.66,-56.5 1089.66,-56.5"/>
<text text-anchor="start" x="1097.66" y="-74.5" font-family="Helvetica,sans-Serif" font-size="10.00">boost/serialization</text>
<text text-anchor="middle" x="1143.16" y="-63.5" font-family="Helvetica,sans-Serif" font-size="10.00">/access.hpp</text>
</a>
</g>
</g>
<!-- Node24&#45;&gt;Node29 -->
<g id="edge33" class="edge">
<title>Node24&#45;&gt;Node29</title>
<path fill="none" stroke="midnightblue" d="M1207.18,-128.73C1196.89,-119.7 1180.48,-105.27 1166.84,-93.3"/>
<polygon fill="midnightblue" stroke="midnightblue" points="1169.03,-90.56 1159.2,-86.59 1164.41,-95.82 1169.03,-90.56"/>
</g>
<!-- Node24&#45;&gt;Node30 -->
<g id="edge36" class="edge">
<title>Node24&#45;&gt;Node30</title>
<path fill="none" stroke="midnightblue" d="M1260.44,-130.61C1341.14,-117.75 1513.22,-90.33 1588.56,-78.33"/>
<polygon fill="midnightblue" stroke="midnightblue" points="1589.2,-81.77 1598.53,-76.74 1588.1,-74.86 1589.2,-81.77"/>
</g>
<!-- Node31 -->
<g id="node31" class="node">
<title>Node31</title>
<g id="a_node31"><a xlink:title=" ">
<polygon fill="none" stroke="#bfbfbf" points="1214.66,-62 1214.66,-81 1271.66,-81 1271.66,-62 1214.66,-62"/>
<text text-anchor="middle" x="1243.16" y="-69" font-family="Helvetica,sans-Serif" font-size="10.00">ostream</text>
</a>
</g>
</g>
<!-- Node24&#45;&gt;Node31 -->
<g id="edge37" class="edge">
<title>Node24&#45;&gt;Node31</title>
<path fill="none" stroke="midnightblue" d="M1220.67,-128.73C1224.57,-118.99 1230.97,-102.98 1235.95,-90.53"/>
<polygon fill="midnightblue" stroke="midnightblue" points="1239.25,-91.71 1239.71,-81.13 1232.75,-89.11 1239.25,-91.71"/>
</g>
<!-- Node25&#45;&gt;Node26 -->
<g id="edge29" class="edge">
<title>Node25&#45;&gt;Node26</title>
<path fill="none" stroke="midnightblue" d="M1365.93,-61.98C1386.65,-52.03 1421.12,-35.49 1445.15,-23.96"/>
<polygon fill="midnightblue" stroke="midnightblue" points="1446.93,-26.99 1454.43,-19.51 1443.9,-20.68 1446.93,-26.99"/>
</g>
<!-- Node27&#45;&gt;Node4 -->
<g id="edge31" class="edge">
<title>Node27&#45;&gt;Node4</title>
<path fill="none" stroke="midnightblue" d="M1026.39,-61.98C1004.31,-51.95 967.44,-35.2 942.02,-23.65"/>
<polygon fill="midnightblue" stroke="midnightblue" points="943.45,-20.46 932.9,-19.51 940.56,-26.83 943.45,-20.46"/>
</g>
<!-- Node28 -->
<g id="node28" class="node">
<title>Node28</title>
<g id="a_node28"><a xlink:title=" ">
<polygon fill="none" stroke="#bfbfbf" points="1024.66,-0.5 1024.66,-19.5 1065.66,-19.5 1065.66,-0.5 1024.66,-0.5"/>
<text text-anchor="middle" x="1045.16" y="-7.5" font-family="Helvetica,sans-Serif" font-size="10.00">tuple</text>
</a>
</g>
</g>
<!-- Node27&#45;&gt;Node28 -->
<g id="edge32" class="edge">
<title>Node27&#45;&gt;Node28</title>
<path fill="none" stroke="midnightblue" d="M1045.16,-61.98C1045.16,-53.58 1045.16,-40.48 1045.16,-29.66"/>
<polygon fill="midnightblue" stroke="midnightblue" points="1048.66,-29.51 1045.16,-19.51 1041.66,-29.51 1048.66,-29.51"/>
</g>
<!-- Node36&#45;&gt;Node21 -->
<g id="edge55" class="edge">
<title>Node36&#45;&gt;Node21</title>
<path fill="none" stroke="midnightblue" d="M1496.81,-257.48C1470.17,-247.31 1425.45,-230.26 1395.15,-218.7"/>
<polygon fill="midnightblue" stroke="midnightblue" points="1396.06,-215.3 1385.47,-215.01 1393.57,-221.84 1396.06,-215.3"/>
</g>
</g>
</svg>
        <g id="navigator" transform="translate(0 0)" fill="#404254">
                <rect fill="#f2f5e9" fill-opacity="0.5" stroke="#606060" stroke-width=".5" x="0" y="0" width="60" height="60"/>
                <use id="zoomplus" xlink:href="#zoomPlus" x="17" y="9" onmousedown="handleZoom(evt,'in')"/>
                <use id="zoomminus" xlink:href="#zoomMin" x="42" y="9" onmousedown="handleZoom(evt,'out')"/>
                <use id="reset" xlink:href="#resetDef" x="30" y="36" onmousedown="handleReset()"/>
                <g id="arrowUp" xlink:href="#dirArrow" transform="translate(30 24)" onmousedown="handlePan(0,-1)">
                  <use xlink:href="#rim" fill="#404040">
                        <set attributeName="fill" to="#808080" begin="arrowUp.mouseover" end="arrowUp.mouseout"/>
                  </use>
                  <path fill="none" stroke="white" stroke-width="1.5" d="M0,-3.0v7 M-2.5,-0.5L0,-3.0L2.5,-0.5"/>
                </g>
                <g id="arrowRight" xlink:href="#dirArrow" transform="rotate(90) translate(36 -43)" onmousedown="handlePan(1,0)">
                  <use xlink:href="#rim" fill="#404040">
                        <set attributeName="fill" to="#808080" begin="arrowRight.mouseover" end="arrowRight.mouseout"/>
                  </use>
                  <path fill="none" stroke="white" stroke-width="1.5" d="M0,-3.0v7 M-2.5,-0.5L0,-3.0L2.5,-0.5"/>
                </g>
                <g id="arrowDown" xlink:href="#dirArrow" transform="rotate(180) translate(-30 -48)" onmousedown="handlePan(0,1)">
                  <use xlink:href="#rim" fill="#404040">
                        <set attributeName="fill" to="#808080" begin="arrowDown.mouseover" end="arrowDown.mouseout"/>
                  </use>
                  <path fill="none" stroke="white" stroke-width="1.5" d="M0,-3.0v7 M-2.5,-0.5L0,-3.0L2.5,-0.5"/>
                </g>
                <g id="arrowLeft" xlink:href="#dirArrow" transform="rotate(270) translate(-36 17)" onmousedown="handlePan(-1,0)">
                  <use xlink:href="#rim" fill="#404040">
                        <set attributeName="fill" to="#808080" begin="arrowLeft.mouseover" end="arrowLeft.mouseout"/>
                  </use>
                  <path fill="none" stroke="white" stroke-width="1.5" d="M0,-3.0v7 M-2.5,-0.5L0,-3.0L2.5,-0.5"/>
                </g>
        </g>
        <svg viewBox="0 0 15 15" width="100%" height="30px" preserveAspectRatio="xMaxYMin meet">
         <g id="arrow_out" transform="scale(0.3 0.3)">
          <a xlink:href="core_2observables_2LBProfileObservable_8hpp__incl_org.svg" target="_base">
           <rect id="button" ry="5" rx="5" y="6" x="6" height="38" width="38"
                fill="#f2f5e9" fill-opacity="0.5" stroke="#606060" stroke-width="1.0"/>
           <path id="arrow"
             d="M 11.500037,31.436501 C 11.940474,20.09759 22.043105,11.32322 32.158766,21.979434 L 37.068811,17.246167 C 37.068811,17.246167 37.088388,32 37.088388,32 L 22.160133,31.978069 C 22.160133,31.978069 26.997745,27.140456 26.997745,27.140456 C 18.528582,18.264221 13.291696,25.230495 11.500037,31.436501 z"
             style="fill:#404040;"/>
          </a>
         </g>
        </svg>
</svg>
