<?xml version="1.0" encoding="UTF-8" standalone="no"?>
<!DOCTYPE svg PUBLIC "-//W3C//DTD SVG 1.1//EN"
 "http://www.w3.org/Graphics/SVG/1.1/DTD/svg11.dtd">
<!-- Generated by graphviz version 2.43.0 (0)
 -->
<!-- Title: VirtualSitesRelative.hpp Pages: 1 -->
<!--zoomable 375 -->
<svg id="main" version="1.1" xmlns="http://www.w3.org/2000/svg" xmlns:xlink="http://www.w3.org/1999/xlink" xml:space="preserve" onload="init(evt)">
<style type="text/css"><![CDATA[
.edge:hover path { stroke: red; }
.edge:hover polygon { stroke: red; fill: red; }
]]></style>
<script type="text/javascript"><![CDATA[
var edges = document.getElementsByTagName('g');
if (edges && edges.length) {
  for (var i=0;i<edges.length;i++) {
    if (edges[i].id.substr(0,4)=='edge') {
      edges[i].setAttribute('class','edge');
    }
  }
}
]]></script>
        <defs>
                <circle id="rim" cx="0" cy="0" r="7"/>
                <circle id="rim2" cx="0" cy="0" r="3.5"/>
                <g id="zoomPlus">
                        <use xlink:href="#rim" fill="#404040">
                                <set attributeName="fill" to="#808080" begin="zoomplus.mouseover" end="zoomplus.mouseout"/>
                        </use>
                        <path d="M-4,0h8M0,-4v8" fill="none" stroke="white" stroke-width="1.5" pointer-events="none"/>
                </g>
                <g id="zoomMin">
                        <use xlink:href="#rim" fill="#404040">
                                <set attributeName="fill" to="#808080" begin="zoomminus.mouseover" end="zoomminus.mouseout"/>
                        </use>
                        <path d="M-4,0h8" fill="none" stroke="white" stroke-width="1.5" pointer-events="none"/>
                </g>
                <g id="dirArrow">
                        <path fill="none" stroke="white" stroke-width="1.5" d="M0,-3.0v7 M-2.5,-0.5L0,-3.0L2.5,-0.5"/>
                </g>
               <g id="resetDef">
                       <use xlink:href="#rim2" fill="#404040">
                               <set attributeName="fill" to="#808080" begin="reset.mouseover" end="reset.mouseout"/>
                       </use>
               </g>
        </defs>

<script type="text/javascript">
var viewWidth = 3210;
var viewHeight = 375;
var sectionId = 'dynsection-0';
</script>
<script xlink:href="svgpan.js"/>
<svg id="graph" class="graph">
<g id="viewport">
<title>VirtualSitesRelative.hpp</title>
<!-- Node1 -->
<g id="node1" class="node">
<title>Node1</title>
<g id="a_node1"><a xlink:title=" ">
<polygon fill="#bfbfbf" stroke="black" points="1169.5,-347.5 1169.5,-366.5 1303.5,-366.5 1303.5,-347.5 1169.5,-347.5"/>
<text text-anchor="middle" x="1236.5" y="-354.5" font-family="Helvetica,sans-Serif" font-size="10.00">VirtualSitesRelative.hpp</text>
</a>
</g>
</g>
<!-- Node2 -->
<g id="node2" class="node">
<title>Node2</title>
<g id="a_node2"><a xlink:href="config_8hpp.html" target="_top" xlink:title=" ">
<polygon fill="none" stroke="black" points="1092.5,-291.5 1092.5,-310.5 1160.5,-310.5 1160.5,-291.5 1092.5,-291.5"/>
<text text-anchor="middle" x="1126.5" y="-298.5" font-family="Helvetica,sans-Serif" font-size="10.00">config.hpp</text>
</a>
</g>
</g>
<!-- Node1&#45;&gt;Node2 -->
<g id="edge1" class="edge">
<title>Node1&#45;&gt;Node2</title>
<path fill="none" stroke="midnightblue" d="M1218.83,-347.32C1201.11,-338.62 1173.6,-325.12 1153.21,-315.11"/>
<polygon fill="midnightblue" stroke="midnightblue" points="1154.65,-311.92 1144.13,-310.65 1151.56,-318.2 1154.65,-311.92"/>
</g>
<!-- Node4 -->
<g id="node4" class="node">
<title>Node4</title>
<g id="a_node4"><a xlink:href="core_2virtual__sites_2VirtualSites_8hpp.html" target="_top" xlink:title=" ">
<polygon fill="none" stroke="black" points="1227.5,-291.5 1227.5,-310.5 1321.5,-310.5 1321.5,-291.5 1227.5,-291.5"/>
<text text-anchor="middle" x="1274.5" y="-298.5" font-family="Helvetica,sans-Serif" font-size="10.00">VirtualSites.hpp</text>
</a>
</g>
</g>
<!-- Node1&#45;&gt;Node4 -->
<g id="edge3" class="edge">
<title>Node1&#45;&gt;Node4</title>
<path fill="none" stroke="midnightblue" d="M1242.77,-347.08C1248.14,-339.46 1256.02,-328.26 1262.58,-318.94"/>
<polygon fill="midnightblue" stroke="midnightblue" points="1265.45,-320.94 1268.34,-310.75 1259.72,-316.91 1265.45,-320.94"/>
</g>
<!-- Node5 -->
<g id="node5" class="node">
<title>Node5</title>
<g id="a_node5"><a xlink:href="Vector_8hpp.html" target="_top" xlink:title=" ">
<polygon fill="none" stroke="black" points="625,-179.5 625,-198.5 718,-198.5 718,-179.5 625,-179.5"/>
<text text-anchor="middle" x="671.5" y="-186.5" font-family="Helvetica,sans-Serif" font-size="10.00">utils/Vector.hpp</text>
</a>
</g>
</g>
<!-- Node1&#45;&gt;Node5 -->
<g id="edge53" class="edge">
<title>Node1&#45;&gt;Node5</title>
<path fill="none" stroke="midnightblue" d="M1233,-347.13C1222.35,-320.41 1190.54,-242.06 1180.5,-235 1175.91,-231.77 860.81,-205.55 728.74,-194.69"/>
<polygon fill="midnightblue" stroke="midnightblue" points="728.68,-191.17 718.43,-193.84 728.11,-198.15 728.68,-191.17"/>
</g>
<!-- Node25 -->
<g id="node25" class="node">
<title>Node25</title>
<g id="a_node25"><a xlink:href="matrix_8hpp.html" target="_top" xlink:title="This file contains a matrix implementation and the trait types needed for the boost qvm interoperabil...">
<polygon fill="none" stroke="black" points="1311.5,-235.5 1311.5,-254.5 1405.5,-254.5 1405.5,-235.5 1311.5,-235.5"/>
<text text-anchor="middle" x="1358.5" y="-242.5" font-family="Helvetica,sans-Serif" font-size="10.00">utils/matrix.hpp</text>
</a>
</g>
</g>
<!-- Node1&#45;&gt;Node25 -->
<g id="edge54" class="edge">
<title>Node1&#45;&gt;Node25</title>
<path fill="none" stroke="midnightblue" d="M1267.42,-347.45C1287.61,-340.5 1313.32,-328.87 1330.5,-311 1342.86,-298.14 1350.21,-278.96 1354.25,-264.76"/>
<polygon fill="midnightblue" stroke="midnightblue" points="1357.75,-265.22 1356.82,-254.66 1350.96,-263.49 1357.75,-265.22"/>
</g>
<!-- Node3 -->
<g id="node3" class="node">
<title>Node3</title>
<g id="a_node3"><a xlink:title=" ">
<polygon fill="none" stroke="#bfbfbf" points="1059.5,-235.5 1059.5,-254.5 1171.5,-254.5 1171.5,-235.5 1059.5,-235.5"/>
<text text-anchor="middle" x="1115.5" y="-242.5" font-family="Helvetica,sans-Serif" font-size="10.00">config&#45;features.hpp</text>
</a>
</g>
</g>
<!-- Node2&#45;&gt;Node3 -->
<g id="edge2" class="edge">
<title>Node2&#45;&gt;Node3</title>
<path fill="none" stroke="midnightblue" d="M1124.68,-291.08C1123.23,-283.93 1121.13,-273.64 1119.31,-264.69"/>
<polygon fill="midnightblue" stroke="midnightblue" points="1122.71,-263.85 1117.28,-254.75 1115.85,-265.25 1122.71,-263.85"/>
</g>
<!-- Node4&#45;&gt;Node5 -->
<g id="edge4" class="edge">
<title>Node4&#45;&gt;Node5</title>
<path fill="none" stroke="midnightblue" d="M1269.42,-291.35C1260.33,-276.75 1239.72,-247.61 1213.5,-235 1122.49,-191.24 861.07,-208.08 760.5,-199 750.07,-198.06 738.96,-196.99 728.24,-195.92"/>
<polygon fill="midnightblue" stroke="midnightblue" points="728.43,-192.42 718.13,-194.91 727.73,-199.39 728.43,-192.42"/>
</g>
<!-- Node4&#45;&gt;Node25 -->
<g id="edge29" class="edge">
<title>Node4&#45;&gt;Node25</title>
<path fill="none" stroke="midnightblue" d="M1288,-291.32C1301.1,-282.9 1321.21,-269.97 1336.61,-260.07"/>
<polygon fill="midnightblue" stroke="midnightblue" points="1338.52,-263.01 1345.04,-254.65 1334.73,-257.12 1338.52,-263.01"/>
</g>
<!-- Node6 -->
<g id="node6" class="node">
<title>Node6</title>
<g id="a_node6"><a xlink:title=" ">
<polygon fill="none" stroke="#bfbfbf" points="848.5,-123.5 848.5,-142.5 998.5,-142.5 998.5,-123.5 848.5,-123.5"/>
<text text-anchor="middle" x="923.5" y="-130.5" font-family="Helvetica,sans-Serif" font-size="10.00">boost/qvm/deduce_vec.hpp</text>
</a>
</g>
</g>
<!-- Node5&#45;&gt;Node6 -->
<g id="edge5" class="edge">
<title>Node5&#45;&gt;Node6</title>
<path fill="none" stroke="midnightblue" d="M711.43,-179.44C755.39,-170.02 826.13,-154.87 873.68,-144.68"/>
<polygon fill="midnightblue" stroke="midnightblue" points="874.71,-148.03 883.76,-142.52 873.25,-141.19 874.71,-148.03"/>
</g>
<!-- Node7 -->
<g id="node7" class="node">
<title>Node7</title>
<g id="a_node7"><a xlink:title=" ">
<polygon fill="none" stroke="#bfbfbf" points="324.5,-123.5 324.5,-142.5 464.5,-142.5 464.5,-123.5 324.5,-123.5"/>
<text text-anchor="middle" x="394.5" y="-130.5" font-family="Helvetica,sans-Serif" font-size="10.00">boost/qvm/vec_traits.hpp</text>
</a>
</g>
</g>
<!-- Node5&#45;&gt;Node7 -->
<g id="edge6" class="edge">
<title>Node5&#45;&gt;Node7</title>
<path fill="none" stroke="midnightblue" d="M627.61,-179.44C578.98,-169.96 500.55,-154.67 448.28,-144.48"/>
<polygon fill="midnightblue" stroke="midnightblue" points="448.67,-140.99 438.19,-142.52 447.33,-147.87 448.67,-140.99"/>
</g>
<!-- Node8 -->
<g id="node8" class="node">
<title>Node8</title>
<g id="a_node8"><a xlink:href="Array_8hpp.html" target="_top" xlink:title=" ">
<polygon fill="none" stroke="black" points="586.5,-123.5 586.5,-142.5 672.5,-142.5 672.5,-123.5 586.5,-123.5"/>
<text text-anchor="middle" x="629.5" y="-130.5" font-family="Helvetica,sans-Serif" font-size="10.00">utils/Array.hpp</text>
</a>
</g>
</g>
<!-- Node5&#45;&gt;Node8 -->
<g id="edge7" class="edge">
<title>Node5&#45;&gt;Node8</title>
<path fill="none" stroke="midnightblue" d="M664.56,-179.08C658.57,-171.38 649.75,-160.03 642.45,-150.65"/>
<polygon fill="midnightblue" stroke="midnightblue" points="645.21,-148.5 636.31,-142.75 639.68,-152.79 645.21,-148.5"/>
</g>
<!-- Node10 -->
<g id="node10" class="node">
<title>Node10</title>
<g id="a_node10"><a xlink:title=" ">
<polygon fill="none" stroke="#bfbfbf" points="558.5,-0.5 558.5,-19.5 610.5,-19.5 610.5,-0.5 558.5,-0.5"/>
<text text-anchor="middle" x="584.5" y="-7.5" font-family="Helvetica,sans-Serif" font-size="10.00">cassert</text>
</a>
</g>
</g>
<!-- Node5&#45;&gt;Node10 -->
<g id="edge20" class="edge">
<title>Node5&#45;&gt;Node10</title>
<path fill="none" stroke="midnightblue" d="M624.98,-183.66C590.85,-178.52 544.83,-167.33 511.5,-143 487.41,-125.41 483.09,-115.57 474.5,-87 470.53,-73.81 466.82,-67.44 474.5,-56 490.88,-31.61 523.06,-20.43 548.41,-15.31"/>
<polygon fill="midnightblue" stroke="midnightblue" points="549.21,-18.72 558.43,-13.52 547.98,-11.83 549.21,-18.72"/>
</g>
<!-- Node12 -->
<g id="node12" class="node">
<title>Node12</title>
<g id="a_node12"><a xlink:title=" ">
<polygon fill="none" stroke="#bfbfbf" points="1057,-0.5 1057,-19.5 1110,-19.5 1110,-0.5 1057,-0.5"/>
<text text-anchor="middle" x="1083.5" y="-7.5" font-family="Helvetica,sans-Serif" font-size="10.00">cstddef</text>
</a>
</g>
</g>
<!-- Node5&#45;&gt;Node12 -->
<g id="edge22" class="edge">
<title>Node5&#45;&gt;Node12</title>
<path fill="none" stroke="midnightblue" d="M675.14,-179.44C681.78,-165 697.37,-136.07 720.5,-123 788,-84.88 1009.9,-138.89 1067.5,-87 1083.28,-72.79 1085.7,-47.29 1085.22,-29.78"/>
<polygon fill="midnightblue" stroke="midnightblue" points="1088.71,-29.39 1084.61,-19.63 1081.72,-29.82 1088.71,-29.39"/>
</g>
<!-- Node15 -->
<g id="node15" class="node">
<title>Node15</title>
<g id="a_node15"><a xlink:title=" ">
<polygon fill="none" stroke="#bfbfbf" points="1126,-62 1126,-81 1179,-81 1179,-62 1126,-62"/>
<text text-anchor="middle" x="1152.5" y="-69" font-family="Helvetica,sans-Serif" font-size="10.00">iterator</text>
</a>
</g>
</g>
<!-- Node5&#45;&gt;Node15 -->
<g id="edge25" class="edge">
<title>Node5&#45;&gt;Node15</title>
<path fill="none" stroke="midnightblue" d="M679.55,-179.4C693.72,-164.89 724.75,-135.86 757.5,-123 904.7,-65.18 957.19,-121.61 1111.5,-87 1114.92,-86.23 1118.45,-85.27 1121.93,-84.2"/>
<polygon fill="midnightblue" stroke="midnightblue" points="1123.12,-87.49 1131.5,-81.01 1120.91,-80.85 1123.12,-87.49"/>
</g>
<!-- Node18 -->
<g id="node18" class="node">
<title>Node18</title>
<g id="a_node18"><a xlink:title=" ">
<polygon fill="none" stroke="#bfbfbf" points="766.5,-123.5 766.5,-142.5 830.5,-142.5 830.5,-123.5 766.5,-123.5"/>
<text text-anchor="middle" x="798.5" y="-130.5" font-family="Helvetica,sans-Serif" font-size="10.00">algorithm</text>
</a>
</g>
</g>
<!-- Node5&#45;&gt;Node18 -->
<g id="edge19" class="edge">
<title>Node5&#45;&gt;Node18</title>
<path fill="none" stroke="midnightblue" d="M691.62,-179.44C712.52,-170.56 745.43,-156.56 769.22,-146.45"/>
<polygon fill="midnightblue" stroke="midnightblue" points="770.64,-149.65 778.47,-142.52 767.9,-143.21 770.64,-149.65"/>
</g>
<!-- Node19 -->
<g id="node19" class="node">
<title>Node19</title>
<g id="a_node19"><a xlink:title=" ">
<polygon fill="none" stroke="#bfbfbf" points="521,-123.5 521,-142.5 568,-142.5 568,-123.5 521,-123.5"/>
<text text-anchor="middle" x="544.5" y="-130.5" font-family="Helvetica,sans-Serif" font-size="10.00">cmath</text>
</a>
</g>
</g>
<!-- Node5&#45;&gt;Node19 -->
<g id="edge21" class="edge">
<title>Node5&#45;&gt;Node19</title>
<path fill="none" stroke="midnightblue" d="M651.38,-179.44C630.48,-170.56 597.57,-156.56 573.78,-146.45"/>
<polygon fill="midnightblue" stroke="midnightblue" points="575.1,-143.21 564.53,-142.52 572.36,-149.65 575.1,-143.21"/>
</g>
<!-- Node20 -->
<g id="node20" class="node">
<title>Node20</title>
<g id="a_node20"><a xlink:title=" ">
<polygon fill="none" stroke="#bfbfbf" points="0,-123.5 0,-142.5 65,-142.5 65,-123.5 0,-123.5"/>
<text text-anchor="middle" x="32.5" y="-130.5" font-family="Helvetica,sans-Serif" font-size="10.00">functional</text>
</a>
</g>
</g>
<!-- Node5&#45;&gt;Node20 -->
<g id="edge23" class="edge">
<title>Node5&#45;&gt;Node20</title>
<path fill="none" stroke="midnightblue" d="M624.73,-186.72C525.23,-183.52 285.12,-173.24 75.08,-143.04"/>
<polygon fill="midnightblue" stroke="midnightblue" points="75.5,-139.57 65.1,-141.59 74.49,-146.49 75.5,-139.57"/>
</g>
<!-- Node21 -->
<g id="node21" class="node">
<title>Node21</title>
<g id="a_node21"><a xlink:title=" ">
<polygon fill="none" stroke="#bfbfbf" points="83,-123.5 83,-142.5 166,-142.5 166,-123.5 83,-123.5"/>
<text text-anchor="middle" x="124.5" y="-130.5" font-family="Helvetica,sans-Serif" font-size="10.00">initializer_list</text>
</a>
</g>
</g>
<!-- Node5&#45;&gt;Node21 -->
<g id="edge24" class="edge">
<title>Node5&#45;&gt;Node21</title>
<path fill="none" stroke="midnightblue" d="M624.85,-185.08C538.46,-179.4 347.51,-165.49 176.16,-142.98"/>
<polygon fill="midnightblue" stroke="midnightblue" points="176.58,-139.5 166.2,-141.65 175.66,-146.44 176.58,-139.5"/>
</g>
<!-- Node22 -->
<g id="node22" class="node">
<title>Node22</title>
<g id="a_node22"><a xlink:title=" ">
<polygon fill="none" stroke="#bfbfbf" points="184.5,-123.5 184.5,-142.5 240.5,-142.5 240.5,-123.5 184.5,-123.5"/>
<text text-anchor="middle" x="212.5" y="-130.5" font-family="Helvetica,sans-Serif" font-size="10.00">numeric</text>
</a>
</g>
</g>
<!-- Node5&#45;&gt;Node22 -->
<g id="edge26" class="edge">
<title>Node5&#45;&gt;Node22</title>
<path fill="none" stroke="midnightblue" d="M624.7,-185.04C548.37,-179.78 392.23,-167.15 250.85,-143.02"/>
<polygon fill="midnightblue" stroke="midnightblue" points="251.15,-139.52 240.7,-141.27 249.96,-146.42 251.15,-139.52"/>
</g>
<!-- Node23 -->
<g id="node23" class="node">
<title>Node23</title>
<g id="a_node23"><a xlink:title=" ">
<polygon fill="none" stroke="#bfbfbf" points="1055,-123.5 1055,-142.5 1124,-142.5 1124,-123.5 1055,-123.5"/>
<text text-anchor="middle" x="1089.5" y="-130.5" font-family="Helvetica,sans-Serif" font-size="10.00">type_traits</text>
</a>
</g>
</g>
<!-- Node5&#45;&gt;Node23 -->
<g id="edge27" class="edge">
<title>Node5&#45;&gt;Node23</title>
<path fill="none" stroke="midnightblue" d="M718.23,-181.96C799.28,-171.49 964.85,-150.1 1044.6,-139.8"/>
<polygon fill="midnightblue" stroke="midnightblue" points="1045.34,-143.23 1054.81,-138.48 1044.44,-136.29 1045.34,-143.23"/>
</g>
<!-- Node24 -->
<g id="node24" class="node">
<title>Node24</title>
<g id="a_node24"><a xlink:title=" ">
<polygon fill="none" stroke="#bfbfbf" points="259,-123.5 259,-142.5 306,-142.5 306,-123.5 259,-123.5"/>
<text text-anchor="middle" x="282.5" y="-130.5" font-family="Helvetica,sans-Serif" font-size="10.00">vector</text>
</a>
</g>
</g>
<!-- Node5&#45;&gt;Node24 -->
<g id="edge28" class="edge">
<title>Node5&#45;&gt;Node24</title>
<path fill="none" stroke="midnightblue" d="M624.8,-184.21C558.38,-178.35 432.71,-165.56 316.35,-142.9"/>
<polygon fill="midnightblue" stroke="midnightblue" points="316.69,-139.4 306.2,-140.89 315.33,-146.26 316.69,-139.4"/>
</g>
<!-- Node9 -->
<g id="node9" class="node">
<title>Node9</title>
<g id="a_node9"><a xlink:href="device__qualifier_8hpp.html" target="_top" xlink:title=" ">
<polygon fill="none" stroke="black" points="483.5,-62 483.5,-81 599.5,-81 599.5,-62 483.5,-62"/>
<text text-anchor="middle" x="541.5" y="-69" font-family="Helvetica,sans-Serif" font-size="10.00">device_qualifier.hpp</text>
</a>
</g>
</g>
<!-- Node8&#45;&gt;Node9 -->
<g id="edge8" class="edge">
<title>Node8&#45;&gt;Node9</title>
<path fill="none" stroke="midnightblue" d="M616.89,-123.48C602.78,-113.93 579.67,-98.31 562.75,-86.87"/>
<polygon fill="midnightblue" stroke="midnightblue" points="564.33,-83.71 554.08,-81.01 560.41,-89.51 564.33,-83.71"/>
</g>
<!-- Node8&#45;&gt;Node10 -->
<g id="edge14" class="edge">
<title>Node8&#45;&gt;Node10</title>
<path fill="none" stroke="midnightblue" d="M627.77,-123.36C624.75,-109.05 617.94,-79.65 608.5,-56 604.77,-46.65 599.61,-36.72 595.04,-28.58"/>
<polygon fill="midnightblue" stroke="midnightblue" points="597.92,-26.58 589.88,-19.69 591.87,-30.09 597.92,-26.58"/>
</g>
<!-- Node11 -->
<g id="node11" class="node">
<title>Node11</title>
<g id="a_node11"><a xlink:href="get_8hpp.html" target="_top" xlink:title=" ">
<polygon fill="none" stroke="black" points="978,-62 978,-81 1031,-81 1031,-62 978,-62"/>
<text text-anchor="middle" x="1004.5" y="-69" font-family="Helvetica,sans-Serif" font-size="10.00">get.hpp</text>
</a>
</g>
</g>
<!-- Node8&#45;&gt;Node11 -->
<g id="edge10" class="edge">
<title>Node8&#45;&gt;Node11</title>
<path fill="none" stroke="midnightblue" d="M672.75,-125.13C677.39,-124.4 682.04,-123.68 686.5,-123 794.42,-106.49 821.88,-105.37 929.5,-87 942.06,-84.86 955.76,-82.28 967.97,-79.9"/>
<polygon fill="midnightblue" stroke="midnightblue" points="968.69,-83.32 977.82,-77.95 967.34,-76.45 968.69,-83.32"/>
</g>
<!-- Node8&#45;&gt;Node12 -->
<g id="edge15" class="edge">
<title>Node8&#45;&gt;Node12</title>
<path fill="none" stroke="midnightblue" d="M672.72,-124.92C677.37,-124.23 682.03,-123.58 686.5,-123 764.69,-112.85 973.28,-129.8 1039.5,-87 1059.95,-73.78 1072.01,-47.46 1078.19,-29.54"/>
<polygon fill="midnightblue" stroke="midnightblue" points="1081.57,-30.49 1081.23,-19.9 1074.89,-28.38 1081.57,-30.49"/>
</g>
<!-- Node14 -->
<g id="node14" class="node">
<title>Node14</title>
<g id="a_node14"><a xlink:title=" ">
<polygon fill="none" stroke="#bfbfbf" points="656,-56.5 656,-86.5 763,-86.5 763,-56.5 656,-56.5"/>
<text text-anchor="start" x="664" y="-74.5" font-family="Helvetica,sans-Serif" font-size="10.00">boost/serialization</text>
<text text-anchor="middle" x="709.5" y="-63.5" font-family="Helvetica,sans-Serif" font-size="10.00">/access.hpp</text>
</a>
</g>
</g>
<!-- Node8&#45;&gt;Node14 -->
<g id="edge13" class="edge">
<title>Node8&#45;&gt;Node14</title>
<path fill="none" stroke="midnightblue" d="M640.96,-123.48C651.7,-115.49 668.15,-103.25 682.25,-92.77"/>
<polygon fill="midnightblue" stroke="midnightblue" points="684.71,-95.3 690.65,-86.52 680.53,-89.68 684.71,-95.3"/>
</g>
<!-- Node8&#45;&gt;Node15 -->
<g id="edge16" class="edge">
<title>Node8&#45;&gt;Node15</title>
<path fill="none" stroke="midnightblue" d="M672.55,-127.84C776.3,-117.77 1034.43,-92.56 1073.5,-87 1087.33,-85.03 1102.44,-82.38 1115.71,-79.89"/>
<polygon fill="midnightblue" stroke="midnightblue" points="1116.73,-83.26 1125.89,-77.94 1115.41,-76.38 1116.73,-83.26"/>
</g>
<!-- Node16 -->
<g id="node16" class="node">
<title>Node16</title>
<g id="a_node16"><a xlink:title=" ">
<polygon fill="none" stroke="#bfbfbf" points="781,-62 781,-81 838,-81 838,-62 781,-62"/>
<text text-anchor="middle" x="809.5" y="-69" font-family="Helvetica,sans-Serif" font-size="10.00">ostream</text>
</a>
</g>
</g>
<!-- Node8&#45;&gt;Node16 -->
<g id="edge17" class="edge">
<title>Node8&#45;&gt;Node16</title>
<path fill="none" stroke="midnightblue" d="M658.22,-123.43C687.02,-114.71 732.55,-100.59 771.5,-87 773.61,-86.26 775.78,-85.49 777.97,-84.69"/>
<polygon fill="midnightblue" stroke="midnightblue" points="779.33,-87.92 787.48,-81.15 776.88,-81.36 779.33,-87.92"/>
</g>
<!-- Node17 -->
<g id="node17" class="node">
<title>Node17</title>
<g id="a_node17"><a xlink:title=" ">
<polygon fill="none" stroke="#bfbfbf" points="856,-62 856,-81 921,-81 921,-62 856,-62"/>
<text text-anchor="middle" x="888.5" y="-69" font-family="Helvetica,sans-Serif" font-size="10.00">stdexcept</text>
</a>
</g>
</g>
<!-- Node8&#45;&gt;Node17 -->
<g id="edge18" class="edge">
<title>Node8&#45;&gt;Node17</title>
<path fill="none" stroke="midnightblue" d="M672.71,-124.72C716.78,-116.91 786.96,-103.38 846.5,-87 849.53,-86.17 852.65,-85.23 855.77,-84.25"/>
<polygon fill="midnightblue" stroke="midnightblue" points="857.16,-87.48 865.56,-81.01 854.97,-80.83 857.16,-87.48"/>
</g>
<!-- Node9&#45;&gt;Node10 -->
<g id="edge9" class="edge">
<title>Node9&#45;&gt;Node10</title>
<path fill="none" stroke="midnightblue" d="M547.66,-61.98C554.11,-53.05 564.4,-38.81 572.47,-27.64"/>
<polygon fill="midnightblue" stroke="midnightblue" points="575.33,-29.66 578.35,-19.51 569.66,-25.56 575.33,-29.66"/>
</g>
<!-- Node11&#45;&gt;Node12 -->
<g id="edge11" class="edge">
<title>Node11&#45;&gt;Node12</title>
<path fill="none" stroke="midnightblue" d="M1015.82,-61.98C1028.37,-52.52 1048.85,-37.1 1064,-25.69"/>
<polygon fill="midnightblue" stroke="midnightblue" points="1066.32,-28.32 1072.2,-19.51 1062.11,-22.73 1066.32,-28.32"/>
</g>
<!-- Node13 -->
<g id="node13" class="node">
<title>Node13</title>
<g id="a_node13"><a xlink:title=" ">
<polygon fill="none" stroke="#bfbfbf" points="984,-0.5 984,-19.5 1025,-19.5 1025,-0.5 984,-0.5"/>
<text text-anchor="middle" x="1004.5" y="-7.5" font-family="Helvetica,sans-Serif" font-size="10.00">tuple</text>
</a>
</g>
</g>
<!-- Node11&#45;&gt;Node13 -->
<g id="edge12" class="edge">
<title>Node11&#45;&gt;Node13</title>
<path fill="none" stroke="midnightblue" d="M1004.5,-61.98C1004.5,-53.58 1004.5,-40.48 1004.5,-29.66"/>
<polygon fill="midnightblue" stroke="midnightblue" points="1008,-29.51 1004.5,-19.51 1001,-29.51 1008,-29.51"/>
</g>
<!-- Node25&#45;&gt;Node5 -->
<g id="edge31" class="edge">
<title>Node25&#45;&gt;Node5</title>
<path fill="none" stroke="midnightblue" d="M1311.33,-238.28C1300.86,-237.11 1289.81,-235.94 1279.5,-235 1049.24,-213.91 990.89,-218.63 760.5,-199 750.06,-198.11 738.95,-197.07 728.24,-196.01"/>
<polygon fill="midnightblue" stroke="midnightblue" points="728.43,-192.51 718.13,-194.99 727.73,-199.47 728.43,-192.51"/>
</g>
<!-- Node25&#45;&gt;Node6 -->
<g id="edge46" class="edge">
<title>Node25&#45;&gt;Node6</title>
<path fill="none" stroke="midnightblue" d="M1311.3,-238.61C1300.83,-237.42 1289.79,-236.16 1279.5,-235 1208.17,-226.94 1017.97,-239.19 958.5,-199 942.61,-188.26 933.33,-167.86 928.37,-152.77"/>
<polygon fill="midnightblue" stroke="midnightblue" points="931.66,-151.54 925.49,-142.93 924.94,-153.51 931.66,-151.54"/>
</g>
<!-- Node25&#45;&gt;Node8 -->
<g id="edge30" class="edge">
<title>Node25&#45;&gt;Node8</title>
<path fill="none" stroke="midnightblue" d="M1311.48,-240.5C1208.19,-232.66 964.17,-213.26 882.5,-199 804.72,-185.42 715.7,-160.24 666.72,-145.53"/>
<polygon fill="midnightblue" stroke="midnightblue" points="667.48,-142.1 656.89,-142.55 665.45,-148.8 667.48,-142.1"/>
</g>
<!-- Node25&#45;&gt;Node10 -->
<g id="edge37" class="edge">
<title>Node25&#45;&gt;Node10</title>
<path fill="none" stroke="midnightblue" d="M1311.3,-239.17C1221.03,-229.73 1031.9,-208.89 1021.5,-199 996.62,-175.32 1024.61,-152.78 1007.5,-123 1004.65,-118.05 934.72,-58.33 929.5,-56 874.78,-31.58 697.63,-17.98 620.71,-13.1"/>
<polygon fill="midnightblue" stroke="midnightblue" points="620.74,-9.6 610.54,-12.47 620.3,-16.58 620.74,-9.6"/>
</g>
<!-- Node25&#45;&gt;Node12 -->
<g id="edge38" class="edge">
<title>Node25&#45;&gt;Node12</title>
<path fill="none" stroke="midnightblue" d="M1405.84,-243.75C1690.67,-242.11 3165.26,-232.04 3197.5,-199 3203.71,-192.64 3203.53,-185.53 3197.5,-179 3050.59,-19.95 1388.74,-11.35 1120.08,-11"/>
<polygon fill="midnightblue" stroke="midnightblue" points="1120.07,-7.5 1110.06,-10.99 1120.06,-14.5 1120.07,-7.5"/>
</g>
<!-- Node25&#45;&gt;Node18 -->
<g id="edge35" class="edge">
<title>Node25&#45;&gt;Node18</title>
<path fill="none" stroke="midnightblue" d="M1311.3,-238.56C1300.83,-237.37 1289.79,-236.13 1279.5,-235 1127.57,-218.35 1084.76,-239.94 937.5,-199 894.75,-187.12 848.79,-163.18 821.9,-147.91"/>
<polygon fill="midnightblue" stroke="midnightblue" points="823.3,-144.68 812.89,-142.71 819.8,-150.74 823.3,-144.68"/>
</g>
<!-- Node25&#45;&gt;Node23 -->
<g id="edge39" class="edge">
<title>Node25&#45;&gt;Node23</title>
<path fill="none" stroke="midnightblue" d="M1311.46,-238.37C1221.63,-227.51 1034.11,-204.28 1029.5,-199 1013.7,-180.9 1039.62,-160.64 1062.17,-147.63"/>
<polygon fill="midnightblue" stroke="midnightblue" points="1064.09,-150.57 1071.18,-142.69 1060.73,-144.43 1064.09,-150.57"/>
</g>
<!-- Node26 -->
<g id="node26" class="node">
<title>Node26</title>
<g id="a_node26"><a xlink:href="flatten_8hpp.html" target="_top" xlink:title=" ">
<polygon fill="none" stroke="black" points="1038.5,-179.5 1038.5,-198.5 1132.5,-198.5 1132.5,-179.5 1038.5,-179.5"/>
<text text-anchor="middle" x="1085.5" y="-186.5" font-family="Helvetica,sans-Serif" font-size="10.00">utils/flatten.hpp</text>
</a>
</g>
</g>
<!-- Node25&#45;&gt;Node26 -->
<g id="edge32" class="edge">
<title>Node25&#45;&gt;Node26</title>
<path fill="none" stroke="midnightblue" d="M1315.24,-235.44C1267.32,-225.96 1190.02,-210.67 1138.5,-200.48"/>
<polygon fill="midnightblue" stroke="midnightblue" points="1139.04,-197.02 1128.56,-198.52 1137.69,-203.89 1139.04,-197.02"/>
</g>
<!-- Node27 -->
<g id="node27" class="node">
<title>Node27</title>
<g id="a_node27"><a xlink:title=" ">
<polygon fill="none" stroke="#bfbfbf" points="1150.5,-179.5 1150.5,-198.5 1192.5,-198.5 1192.5,-179.5 1150.5,-179.5"/>
<text text-anchor="middle" x="1171.5" y="-186.5" font-family="Helvetica,sans-Serif" font-size="10.00">array</text>
</a>
</g>
</g>
<!-- Node25&#45;&gt;Node27 -->
<g id="edge36" class="edge">
<title>Node25&#45;&gt;Node27</title>
<path fill="none" stroke="midnightblue" d="M1328.88,-235.47C1297.5,-226.43 1246.5,-211.73 1202.5,-199 1202.4,-198.97 1202.3,-198.94 1202.2,-198.91"/>
<polygon fill="midnightblue" stroke="midnightblue" points="1203.09,-195.53 1192.51,-196.1 1201.14,-202.25 1203.09,-195.53"/>
</g>
<!-- Node28 -->
<g id="node28" class="node">
<title>Node28</title>
<g id="a_node28"><a xlink:title=" ">
<polygon fill="none" stroke="#bfbfbf" points="1211,-179.5 1211,-198.5 1256,-198.5 1256,-179.5 1211,-179.5"/>
<text text-anchor="middle" x="1233.5" y="-186.5" font-family="Helvetica,sans-Serif" font-size="10.00">utility</text>
</a>
</g>
</g>
<!-- Node25&#45;&gt;Node28 -->
<g id="edge40" class="edge">
<title>Node25&#45;&gt;Node28</title>
<path fill="none" stroke="midnightblue" d="M1338.69,-235.44C1318.21,-226.6 1286.02,-212.69 1262.64,-202.59"/>
<polygon fill="midnightblue" stroke="midnightblue" points="1263.78,-199.27 1253.21,-198.52 1261.01,-205.7 1263.78,-199.27"/>
</g>
<!-- Node29 -->
<g id="node29" class="node">
<title>Node29</title>
<g id="a_node29"><a xlink:title=" ">
<polygon fill="none" stroke="#bfbfbf" points="1274,-179.5 1274,-198.5 1443,-198.5 1443,-179.5 1274,-179.5"/>
<text text-anchor="middle" x="1358.5" y="-186.5" font-family="Helvetica,sans-Serif" font-size="10.00">boost/qvm/mat_operations.hpp</text>
</a>
</g>
</g>
<!-- Node25&#45;&gt;Node29 -->
<g id="edge41" class="edge">
<title>Node25&#45;&gt;Node29</title>
<path fill="none" stroke="midnightblue" d="M1358.5,-235.08C1358.5,-228.01 1358.5,-217.86 1358.5,-208.99"/>
<polygon fill="midnightblue" stroke="midnightblue" points="1362,-208.75 1358.5,-198.75 1355,-208.75 1362,-208.75"/>
</g>
<!-- Node30 -->
<g id="node30" class="node">
<title>Node30</title>
<g id="a_node30"><a xlink:title=" ">
<polygon fill="none" stroke="#bfbfbf" points="1461,-179.5 1461,-198.5 1652,-198.5 1652,-179.5 1461,-179.5"/>
<text text-anchor="middle" x="1556.5" y="-186.5" font-family="Helvetica,sans-Serif" font-size="10.00">boost/qvm/vec_mat_operations.hpp</text>
</a>
</g>
</g>
<!-- Node25&#45;&gt;Node30 -->
<g id="edge42" class="edge">
<title>Node25&#45;&gt;Node30</title>
<path fill="none" stroke="midnightblue" d="M1389.87,-235.44C1423.76,-226.2 1477.9,-211.44 1515.22,-201.26"/>
<polygon fill="midnightblue" stroke="midnightblue" points="1516.55,-204.52 1525.27,-198.52 1514.7,-197.77 1516.55,-204.52"/>
</g>
<!-- Node31 -->
<g id="node31" class="node">
<title>Node31</title>
<g id="a_node31"><a xlink:title=" ">
<polygon fill="none" stroke="#bfbfbf" points="1670,-179.5 1670,-198.5 1837,-198.5 1837,-179.5 1670,-179.5"/>
<text text-anchor="middle" x="1753.5" y="-186.5" font-family="Helvetica,sans-Serif" font-size="10.00">boost/qvm/vec_operations.hpp</text>
</a>
</g>
</g>
<!-- Node25&#45;&gt;Node31 -->
<g id="edge43" class="edge">
<title>Node25&#45;&gt;Node31</title>
<path fill="none" stroke="midnightblue" d="M1405.75,-237.54C1474.09,-228.2 1601.09,-210.84 1681.24,-199.88"/>
<polygon fill="midnightblue" stroke="midnightblue" points="1681.82,-203.33 1691.25,-198.51 1680.87,-196.4 1681.82,-203.33"/>
</g>
<!-- Node32 -->
<g id="node32" class="node">
<title>Node32</title>
<g id="a_node32"><a xlink:title=" ">
<polygon fill="none" stroke="#bfbfbf" points="1855.5,-179.5 1855.5,-198.5 2007.5,-198.5 2007.5,-179.5 1855.5,-179.5"/>
<text text-anchor="middle" x="1931.5" y="-186.5" font-family="Helvetica,sans-Serif" font-size="10.00">boost/qvm/deduce_mat.hpp</text>
</a>
</g>
</g>
<!-- Node25&#45;&gt;Node32 -->
<g id="edge44" class="edge">
<title>Node25&#45;&gt;Node32</title>
<path fill="none" stroke="midnightblue" d="M1405.63,-239.87C1491.03,-232.33 1677.32,-215.68 1845.05,-199.13"/>
<polygon fill="midnightblue" stroke="midnightblue" points="1845.44,-202.61 1855.05,-198.14 1844.75,-195.65 1845.44,-202.61"/>
</g>
<!-- Node33 -->
<g id="node33" class="node">
<title>Node33</title>
<g id="a_node33"><a xlink:title=" ">
<polygon fill="none" stroke="#bfbfbf" points="2025.5,-179.5 2025.5,-198.5 2187.5,-198.5 2187.5,-179.5 2025.5,-179.5"/>
<text text-anchor="middle" x="2106.5" y="-186.5" font-family="Helvetica,sans-Serif" font-size="10.00">boost/qvm/deduce_scalar.hpp</text>
</a>
</g>
</g>
<!-- Node25&#45;&gt;Node33 -->
<g id="edge45" class="edge">
<title>Node25&#45;&gt;Node33</title>
<path fill="none" stroke="midnightblue" d="M1405.61,-241.29C1512.15,-235.04 1780,-218.73 2014.97,-199.11"/>
<polygon fill="midnightblue" stroke="midnightblue" points="2015.4,-202.58 2025.08,-198.26 2014.82,-195.61 2015.4,-202.58"/>
</g>
<!-- Node34 -->
<g id="node34" class="node">
<title>Node34</title>
<g id="a_node34"><a xlink:title=" ">
<polygon fill="none" stroke="#bfbfbf" points="2205.5,-179.5 2205.5,-198.5 2369.5,-198.5 2369.5,-179.5 2205.5,-179.5"/>
<text text-anchor="middle" x="2287.5" y="-186.5" font-family="Helvetica,sans-Serif" font-size="10.00">boost/qvm/map_mat_mat.hpp</text>
</a>
</g>
</g>
<!-- Node25&#45;&gt;Node34 -->
<g id="edge47" class="edge">
<title>Node25&#45;&gt;Node34</title>
<path fill="none" stroke="midnightblue" d="M1405.8,-242.21C1532.11,-237.25 1888.03,-222.26 2195.19,-199.07"/>
<polygon fill="midnightblue" stroke="midnightblue" points="2195.47,-202.56 2205.17,-198.31 2194.94,-195.58 2195.47,-202.56"/>
</g>
<!-- Node35 -->
<g id="node35" class="node">
<title>Node35</title>
<g id="a_node35"><a xlink:title=" ">
<polygon fill="none" stroke="#bfbfbf" points="2388,-179.5 2388,-198.5 2549,-198.5 2549,-179.5 2388,-179.5"/>
<text text-anchor="middle" x="2468.5" y="-186.5" font-family="Helvetica,sans-Serif" font-size="10.00">boost/qvm/map_mat_vec.hpp</text>
</a>
</g>
</g>
<!-- Node25&#45;&gt;Node35 -->
<g id="edge48" class="edge">
<title>Node25&#45;&gt;Node35</title>
<path fill="none" stroke="midnightblue" d="M1405.58,-242.85C1549.41,-239.15 1995.97,-226.2 2377.43,-199.03"/>
<polygon fill="midnightblue" stroke="midnightblue" points="2377.84,-202.51 2387.57,-198.31 2377.34,-195.53 2377.84,-202.51"/>
</g>
<!-- Node36 -->
<g id="node36" class="node">
<title>Node36</title>
<g id="a_node36"><a xlink:title=" ">
<polygon fill="none" stroke="#bfbfbf" points="2567,-179.5 2567,-198.5 2728,-198.5 2728,-179.5 2567,-179.5"/>
<text text-anchor="middle" x="2647.5" y="-186.5" font-family="Helvetica,sans-Serif" font-size="10.00">boost/qvm/map_vec_mat.hpp</text>
</a>
</g>
</g>
<!-- Node25&#45;&gt;Node36 -->
<g id="edge49" class="edge">
<title>Node25&#45;&gt;Node36</title>
<path fill="none" stroke="midnightblue" d="M1405.73,-243.3C1565.79,-240.71 2102.62,-230.17 2556.95,-199.06"/>
<polygon fill="midnightblue" stroke="midnightblue" points="2557.25,-202.55 2566.99,-198.37 2556.77,-195.57 2557.25,-202.55"/>
</g>
<!-- Node37 -->
<g id="node37" class="node">
<title>Node37</title>
<g id="a_node37"><a xlink:title=" ">
<polygon fill="none" stroke="#bfbfbf" points="2746.5,-179.5 2746.5,-198.5 2858.5,-198.5 2858.5,-179.5 2746.5,-179.5"/>
<text text-anchor="middle" x="2802.5" y="-186.5" font-family="Helvetica,sans-Serif" font-size="10.00">boost/qvm/mat.hpp</text>
</a>
</g>
</g>
<!-- Node25&#45;&gt;Node37 -->
<g id="edge50" class="edge">
<title>Node25&#45;&gt;Node37</title>
<path fill="none" stroke="midnightblue" d="M1405.63,-244.25C1580.47,-244.81 2208.56,-243.46 2736.07,-199.02"/>
<polygon fill="midnightblue" stroke="midnightblue" points="2736.5,-202.5 2746.17,-198.17 2735.91,-195.53 2736.5,-202.5"/>
</g>
<!-- Node38 -->
<g id="node38" class="node">
<title>Node38</title>
<g id="a_node38"><a xlink:title=" ">
<polygon fill="none" stroke="#bfbfbf" points="2876.5,-179.5 2876.5,-198.5 3026.5,-198.5 3026.5,-179.5 2876.5,-179.5"/>
<text text-anchor="middle" x="2951.5" y="-186.5" font-family="Helvetica,sans-Serif" font-size="10.00">boost/qvm/mat_access.hpp</text>
</a>
</g>
</g>
<!-- Node25&#45;&gt;Node38 -->
<g id="edge51" class="edge">
<title>Node25&#45;&gt;Node38</title>
<path fill="none" stroke="midnightblue" d="M1405.5,-243.91C1590.18,-243.3 2284.04,-238.39 2866.14,-199.03"/>
<polygon fill="midnightblue" stroke="midnightblue" points="2866.68,-202.5 2876.42,-198.33 2866.2,-195.52 2866.68,-202.5"/>
</g>
<!-- Node39 -->
<g id="node39" class="node">
<title>Node39</title>
<g id="a_node39"><a xlink:title=" ">
<polygon fill="none" stroke="#bfbfbf" points="3045,-179.5 3045,-198.5 3188,-198.5 3188,-179.5 3045,-179.5"/>
<text text-anchor="middle" x="3116.5" y="-186.5" font-family="Helvetica,sans-Serif" font-size="10.00">boost/qvm/mat_traits.hpp</text>
</a>
</g>
</g>
<!-- Node25&#45;&gt;Node39 -->
<g id="edge52" class="edge">
<title>Node25&#45;&gt;Node39</title>
<path fill="none" stroke="midnightblue" d="M1405.59,-244.18C1602.9,-244.63 2382.76,-243.4 3034.9,-198.97"/>
<polygon fill="midnightblue" stroke="midnightblue" points="3035.24,-202.45 3044.98,-198.28 3034.76,-195.47 3035.24,-202.45"/>
</g>
<!-- Node26&#45;&gt;Node15 -->
<g id="edge33" class="edge">
<title>Node26&#45;&gt;Node15</title>
<path fill="none" stroke="midnightblue" d="M1097.67,-179.36C1108.34,-171.16 1123.53,-157.91 1132.5,-143 1142.12,-127.02 1147.28,-106.22 1149.93,-91.36"/>
<polygon fill="midnightblue" stroke="midnightblue" points="1153.42,-91.76 1151.51,-81.33 1146.5,-90.67 1153.42,-91.76"/>
</g>
<!-- Node26&#45;&gt;Node23 -->
<g id="edge34" class="edge">
<title>Node26&#45;&gt;Node23</title>
<path fill="none" stroke="midnightblue" d="M1086.16,-179.08C1086.68,-172.01 1087.44,-161.86 1088.09,-152.99"/>
<polygon fill="midnightblue" stroke="midnightblue" points="1091.6,-152.98 1088.85,-142.75 1084.62,-152.47 1091.6,-152.98"/>
</g>
</g>
</svg>
        <g id="navigator" transform="translate(0 0)" fill="#404254">
                <rect fill="#f2f5e9" fill-opacity="0.5" stroke="#606060" stroke-width=".5" x="0" y="0" width="60" height="60"/>
                <use id="zoomplus" xlink:href="#zoomPlus" x="17" y="9" onmousedown="handleZoom(evt,'in')"/>
                <use id="zoomminus" xlink:href="#zoomMin" x="42" y="9" onmousedown="handleZoom(evt,'out')"/>
                <use id="reset" xlink:href="#resetDef" x="30" y="36" onmousedown="handleReset()"/>
                <g id="arrowUp" xlink:href="#dirArrow" transform="translate(30 24)" onmousedown="handlePan(0,-1)">
                  <use xlink:href="#rim" fill="#404040">
                        <set attributeName="fill" to="#808080" begin="arrowUp.mouseover" end="arrowUp.mouseout"/>
                  </use>
                  <path fill="none" stroke="white" stroke-width="1.5" d="M0,-3.0v7 M-2.5,-0.5L0,-3.0L2.5,-0.5"/>
                </g>
                <g id="arrowRight" xlink:href="#dirArrow" transform="rotate(90) translate(36 -43)" onmousedown="handlePan(1,0)">
                  <use xlink:href="#rim" fill="#404040">
                        <set attributeName="fill" to="#808080" begin="arrowRight.mouseover" end="arrowRight.mouseout"/>
                  </use>
                  <path fill="none" stroke="white" stroke-width="1.5" d="M0,-3.0v7 M-2.5,-0.5L0,-3.0L2.5,-0.5"/>
                </g>
                <g id="arrowDown" xlink:href="#dirArrow" transform="rotate(180) translate(-30 -48)" onmousedown="handlePan(0,1)">
                  <use xlink:href="#rim" fill="#404040">
                        <set attributeName="fill" to="#808080" begin="arrowDown.mouseover" end="arrowDown.mouseout"/>
                  </use>
                  <path fill="none" stroke="white" stroke-width="1.5" d="M0,-3.0v7 M-2.5,-0.5L0,-3.0L2.5,-0.5"/>
                </g>
                <g id="arrowLeft" xlink:href="#dirArrow" transform="rotate(270) translate(-36 17)" onmousedown="handlePan(-1,0)">
                  <use xlink:href="#rim" fill="#404040">
                        <set attributeName="fill" to="#808080" begin="arrowLeft.mouseover" end="arrowLeft.mouseout"/>
                  </use>
                  <path fill="none" stroke="white" stroke-width="1.5" d="M0,-3.0v7 M-2.5,-0.5L0,-3.0L2.5,-0.5"/>
                </g>
        </g>
        <svg viewBox="0 0 15 15" width="100%" height="30px" preserveAspectRatio="xMaxYMin meet">
         <g id="arrow_out" transform="scale(0.3 0.3)">
          <a xlink:href="core_2virtual__sites_2VirtualSitesRelative_8hpp__incl_org.svg" target="_base">
           <rect id="button" ry="5" rx="5" y="6" x="6" height="38" width="38"
                fill="#f2f5e9" fill-opacity="0.5" stroke="#606060" stroke-width="1.0"/>
           <path id="arrow"
             d="M 11.500037,31.436501 C 11.940474,20.09759 22.043105,11.32322 32.158766,21.979434 L 37.068811,17.246167 C 37.068811,17.246167 37.088388,32 37.088388,32 L 22.160133,31.978069 C 22.160133,31.978069 26.997745,27.140456 26.997745,27.140456 C 18.528582,18.264221 13.291696,25.230495 11.500037,31.436501 z"
             style="fill:#404040;"/>
          </a>
         </g>
        </svg>
</svg>
