<?xml version="1.0" encoding="UTF-8" standalone="no"?>
<!DOCTYPE svg PUBLIC "-//W3C//DTD SVG 1.1//EN"
 "http://www.w3.org/Graphics/SVG/1.1/DTD/svg11.dtd">
<!-- Generated by graphviz version 2.43.0 (0)
 -->
<!-- Title: Constraint.hpp Pages: 1 -->
<!--zoomable 196 -->
<svg id="main" version="1.1" xmlns="http://www.w3.org/2000/svg" xmlns:xlink="http://www.w3.org/1999/xlink" xml:space="preserve" onload="init(evt)">
<style type="text/css"><![CDATA[
.edge:hover path { stroke: red; }
.edge:hover polygon { stroke: red; fill: red; }
]]></style>
<script type="text/javascript"><![CDATA[
var edges = document.getElementsByTagName('g');
if (edges && edges.length) {
  for (var i=0;i<edges.length;i++) {
    if (edges[i].id.substr(0,4)=='edge') {
      edges[i].setAttribute('class','edge');
    }
  }
}
]]></script>
        <defs>
                <circle id="rim" cx="0" cy="0" r="7"/>
                <circle id="rim2" cx="0" cy="0" r="3.5"/>
                <g id="zoomPlus">
                        <use xlink:href="#rim" fill="#404040">
                                <set attributeName="fill" to="#808080" begin="zoomplus.mouseover" end="zoomplus.mouseout"/>
                        </use>
                        <path d="M-4,0h8M0,-4v8" fill="none" stroke="white" stroke-width="1.5" pointer-events="none"/>
                </g>
                <g id="zoomMin">
                        <use xlink:href="#rim" fill="#404040">
                                <set attributeName="fill" to="#808080" begin="zoomminus.mouseover" end="zoomminus.mouseout"/>
                        </use>
                        <path d="M-4,0h8" fill="none" stroke="white" stroke-width="1.5" pointer-events="none"/>
                </g>
                <g id="dirArrow">
                        <path fill="none" stroke="white" stroke-width="1.5" d="M0,-3.0v7 M-2.5,-0.5L0,-3.0L2.5,-0.5"/>
                </g>
               <g id="resetDef">
                       <use xlink:href="#rim2" fill="#404040">
                               <set attributeName="fill" to="#808080" begin="reset.mouseover" end="reset.mouseout"/>
                       </use>
               </g>
        </defs>

<script type="text/javascript">
var viewWidth = 1456;
var viewHeight = 196;
var sectionId = 'dynsection-1';
</script>
<script xlink:href="svgpan.js"/>
<svg id="graph" class="graph">
<g id="viewport">
<title>Constraint.hpp</title>
<!-- Node1 -->
<g id="node1" class="node">
<title>Node1</title>
<g id="a_node1"><a xlink:title=" ">
<polygon fill="#bfbfbf" stroke="black" points="475.5,-168.5 475.5,-187.5 563.5,-187.5 563.5,-168.5 475.5,-168.5"/>
<text text-anchor="middle" x="519.5" y="-175.5" font-family="Helvetica,sans-Serif" font-size="10.00">Constraint.hpp</text>
</a>
</g>
</g>
<!-- Node2 -->
<g id="node2" class="node">
<title>Node2</title>
<g id="a_node2"><a xlink:href="core_2constraints_2ExternalField_8hpp.html" target="_top" xlink:title=" ">
<polygon fill="none" stroke="black" points="76,-112.5 76,-131.5 177,-131.5 177,-112.5 76,-112.5"/>
<text text-anchor="middle" x="126.5" y="-119.5" font-family="Helvetica,sans-Serif" font-size="10.00">ExternalField.hpp</text>
</a>
</g>
</g>
<!-- Node1&#45;&gt;Node2 -->
<g id="edge1" class="edge">
<title>Node1&#45;&gt;Node2</title>
<path fill="none" stroke="midnightblue" d="M465.45,-169.6C400.43,-160.71 287.98,-145.3 191.5,-132 186.87,-131.36 182.06,-130.7 177.24,-130.03"/>
<polygon fill="midnightblue" stroke="midnightblue" points="465.08,-173.09 475.46,-170.98 466.03,-166.15 465.08,-173.09"/>
</g>
<!-- Node3 -->
<g id="node3" class="node">
<title>Node3</title>
<g id="a_node3"><a xlink:href="script__interface_2constraints_2ExternalField_8hpp.html" target="_top" xlink:title=" ">
<polygon fill="none" stroke="black" points="0,-56.5 0,-75.5 101,-75.5 101,-56.5 0,-56.5"/>
<text text-anchor="middle" x="50.5" y="-63.5" font-family="Helvetica,sans-Serif" font-size="10.00">ExternalField.hpp</text>
</a>
</g>
</g>
<!-- Node1&#45;&gt;Node3 -->
<g id="edge27" class="edge">
<title>Node1&#45;&gt;Node3</title>
<path fill="none" stroke="midnightblue" d="M464.95,-175.07C351.05,-170.54 96.07,-157.63 66.5,-132 50.17,-117.84 49.12,-89.94 49.77,-75.75"/>
<polygon fill="midnightblue" stroke="midnightblue" points="465.06,-178.57 475.19,-175.47 465.33,-171.58 465.06,-178.57"/>
</g>
<!-- Node5 -->
<g id="node5" class="node">
<title>Node5</title>
<g id="a_node5"><a xlink:href="core_2constraints_2ExternalPotential_8hpp.html" target="_top" xlink:title=" ">
<polygon fill="none" stroke="black" points="233.5,-112.5 233.5,-131.5 355.5,-131.5 355.5,-112.5 233.5,-112.5"/>
<text text-anchor="middle" x="294.5" y="-119.5" font-family="Helvetica,sans-Serif" font-size="10.00">ExternalPotential.hpp</text>
</a>
</g>
</g>
<!-- Node1&#45;&gt;Node5 -->
<g id="edge4" class="edge">
<title>Node1&#45;&gt;Node5</title>
<path fill="none" stroke="midnightblue" d="M474.03,-166.09C431.53,-155.89 368.92,-140.86 329.99,-131.52"/>
<polygon fill="midnightblue" stroke="midnightblue" points="473.31,-169.51 483.85,-168.44 474.94,-162.71 473.31,-169.51"/>
</g>
<!-- Node6 -->
<g id="node6" class="node">
<title>Node6</title>
<g id="a_node6"><a xlink:href="script__interface_2constraints_2ExternalPotential_8hpp.html" target="_top" xlink:title=" ">
<polygon fill="none" stroke="black" points="119.5,-56.5 119.5,-75.5 241.5,-75.5 241.5,-56.5 119.5,-56.5"/>
<text text-anchor="middle" x="180.5" y="-63.5" font-family="Helvetica,sans-Serif" font-size="10.00">ExternalPotential.hpp</text>
</a>
</g>
</g>
<!-- Node1&#45;&gt;Node6 -->
<g id="edge28" class="edge">
<title>Node1&#45;&gt;Node6</title>
<path fill="none" stroke="midnightblue" d="M465.34,-173.9C391.39,-168.81 263.56,-156.68 224.5,-132 203.07,-118.46 189.55,-90.28 183.76,-75.88"/>
<polygon fill="midnightblue" stroke="midnightblue" points="465.19,-177.4 475.4,-174.58 465.65,-170.42 465.19,-177.4"/>
</g>
<!-- Node7 -->
<g id="node7" class="node">
<title>Node7</title>
<g id="a_node7"><a xlink:href="core_2constraints_2HomogeneousMagneticField_8hpp.html" target="_top" xlink:title=" ">
<polygon fill="none" stroke="black" points="373.5,-112.5 373.5,-131.5 549.5,-131.5 549.5,-112.5 373.5,-112.5"/>
<text text-anchor="middle" x="461.5" y="-119.5" font-family="Helvetica,sans-Serif" font-size="10.00">HomogeneousMagneticField.hpp</text>
</a>
</g>
</g>
<!-- Node1&#45;&gt;Node7 -->
<g id="edge7" class="edge">
<title>Node1&#45;&gt;Node7</title>
<path fill="none" stroke="midnightblue" d="M502.59,-161.25C492.3,-151.67 479.53,-139.79 470.99,-131.83"/>
<polygon fill="midnightblue" stroke="midnightblue" points="500.48,-164.07 510.18,-168.32 505.25,-158.95 500.48,-164.07"/>
</g>
<!-- Node9 -->
<g id="node9" class="node">
<title>Node9</title>
<g id="a_node9"><a xlink:href="script__interface_2constraints_2HomogeneousMagneticField_8hpp.html" target="_top" xlink:title=" ">
<polygon fill="none" stroke="black" points="453.5,-56.5 453.5,-75.5 629.5,-75.5 629.5,-56.5 453.5,-56.5"/>
<text text-anchor="middle" x="541.5" y="-63.5" font-family="Helvetica,sans-Serif" font-size="10.00">HomogeneousMagneticField.hpp</text>
</a>
</g>
</g>
<!-- Node1&#45;&gt;Node9 -->
<g id="edge29" class="edge">
<title>Node1&#45;&gt;Node9</title>
<path fill="none" stroke="midnightblue" d="M538.08,-161.32C545.98,-153.44 554.33,-143.19 558.5,-132 565.84,-112.33 554.45,-88.18 547.05,-75.58"/>
<polygon fill="midnightblue" stroke="midnightblue" points="535.44,-159 530.49,-168.37 540.2,-164.13 535.44,-159"/>
</g>
<!-- Node10 -->
<g id="node10" class="node">
<title>Node10</title>
<g id="a_node10"><a xlink:href="core_2constraints_2ShapeBasedConstraint_8hpp.html" target="_top" xlink:title=" ">
<polygon fill="none" stroke="black" points="878.5,-112.5 878.5,-131.5 1026.5,-131.5 1026.5,-112.5 878.5,-112.5"/>
<text text-anchor="middle" x="952.5" y="-119.5" font-family="Helvetica,sans-Serif" font-size="10.00">ShapeBasedConstraint.hpp</text>
</a>
</g>
</g>
<!-- Node1&#45;&gt;Node10 -->
<g id="edge11" class="edge">
<title>Node1&#45;&gt;Node10</title>
<path fill="none" stroke="midnightblue" d="M574,-170.2C652.76,-160.38 798.36,-142.22 884.19,-131.52"/>
<polygon fill="midnightblue" stroke="midnightblue" points="573.29,-166.76 563.8,-171.47 574.16,-173.71 573.29,-166.76"/>
</g>
<!-- Node13 -->
<g id="node13" class="node">
<title>Node13</title>
<g id="a_node13"><a xlink:href="script__interface_2constraints_2ShapeBasedConstraint_8hpp.html" target="_top" xlink:title=" ">
<polygon fill="none" stroke="black" points="647.5,-56.5 647.5,-75.5 795.5,-75.5 795.5,-56.5 647.5,-56.5"/>
<text text-anchor="middle" x="721.5" y="-63.5" font-family="Helvetica,sans-Serif" font-size="10.00">ShapeBasedConstraint.hpp</text>
</a>
</g>
</g>
<!-- Node1&#45;&gt;Node13 -->
<g id="edge30" class="edge">
<title>Node1&#45;&gt;Node13</title>
<path fill="none" stroke="midnightblue" d="M573.82,-169.72C620.87,-162.35 684.17,-149.55 702.5,-132 718.29,-116.88 721.17,-89.42 721.56,-75.53"/>
<polygon fill="midnightblue" stroke="midnightblue" points="573.11,-166.29 563.75,-171.25 574.16,-173.21 573.11,-166.29"/>
</g>
<!-- Node14 -->
<g id="node14" class="node">
<title>Node14</title>
<g id="a_node14"><a xlink:href="constraints_8hpp.html" target="_top" xlink:title=" ">
<polygon fill="none" stroke="black" points="1127.5,-112.5 1127.5,-131.5 1219.5,-131.5 1219.5,-112.5 1127.5,-112.5"/>
<text text-anchor="middle" x="1173.5" y="-119.5" font-family="Helvetica,sans-Serif" font-size="10.00">constraints.hpp</text>
</a>
</g>
</g>
<!-- Node1&#45;&gt;Node14 -->
<g id="edge16" class="edge">
<title>Node1&#45;&gt;Node14</title>
<path fill="none" stroke="midnightblue" d="M573.86,-172.51C699.76,-162.12 1009.61,-136.53 1127.21,-126.82"/>
<polygon fill="midnightblue" stroke="midnightblue" points="573.36,-169.04 563.68,-173.35 573.94,-176.02 573.36,-169.04"/>
</g>
<!-- Node19 -->
<g id="node19" class="node">
<title>Node19</title>
<g id="a_node19"><a xlink:href="script__interface_2constraints_2Constraint_8hpp.html" target="_top" xlink:title=" ">
<polygon fill="none" stroke="black" points="605.5,-112.5 605.5,-131.5 693.5,-131.5 693.5,-112.5 605.5,-112.5"/>
<text text-anchor="middle" x="649.5" y="-119.5" font-family="Helvetica,sans-Serif" font-size="10.00">Constraint.hpp</text>
</a>
</g>
</g>
<!-- Node1&#45;&gt;Node19 -->
<g id="edge23" class="edge">
<title>Node1&#45;&gt;Node19</title>
<path fill="none" stroke="midnightblue" d="M549.59,-164.5C573.96,-154.38 607.64,-140.39 629,-131.52"/>
<polygon fill="midnightblue" stroke="midnightblue" points="547.99,-161.38 540.1,-168.44 550.68,-167.84 547.99,-161.38"/>
</g>
<!-- Node2&#45;&gt;Node3 -->
<g id="edge2" class="edge">
<title>Node2&#45;&gt;Node3</title>
<path fill="none" stroke="midnightblue" d="M105.92,-106.38C92.19,-96.62 74.57,-84.11 62.93,-75.83"/>
<polygon fill="midnightblue" stroke="midnightblue" points="104.11,-109.38 114.29,-112.32 108.16,-103.68 104.11,-109.38"/>
</g>
<!-- Node4 -->
<g id="node4" class="node">
<title>Node4</title>
<g id="a_node4"><a xlink:href="constraints_2initialize_8cpp.html" target="_top" xlink:title=" ">
<polygon fill="none" stroke="black" points="502,-0.5 502,-19.5 581,-19.5 581,-0.5 502,-0.5"/>
<text text-anchor="middle" x="541.5" y="-7.5" font-family="Helvetica,sans-Serif" font-size="10.00">initialize.cpp</text>
</a>
</g>
</g>
<!-- Node3&#45;&gt;Node4 -->
<g id="edge3" class="edge">
<title>Node3&#45;&gt;Node4</title>
<path fill="none" stroke="midnightblue" d="M111.56,-55.92C262.01,-36.98 427.63,-21.3 501.92,-14.53"/>
<polygon fill="midnightblue" stroke="midnightblue" points="110.7,-52.5 101.22,-57.23 111.58,-59.44 110.7,-52.5"/>
</g>
<!-- Node5&#45;&gt;Node6 -->
<g id="edge5" class="edge">
<title>Node5&#45;&gt;Node6</title>
<path fill="none" stroke="midnightblue" d="M267.26,-108.1C245.96,-98.01 216.96,-84.27 198.48,-75.52"/>
<polygon fill="midnightblue" stroke="midnightblue" points="265.9,-111.33 276.44,-112.44 268.9,-105 265.9,-111.33"/>
</g>
<!-- Node6&#45;&gt;Node4 -->
<g id="edge6" class="edge">
<title>Node6&#45;&gt;Node4</title>
<path fill="none" stroke="midnightblue" d="M247.95,-54.91C322.69,-43.73 440.71,-26.08 501.85,-16.93"/>
<polygon fill="midnightblue" stroke="midnightblue" points="247.07,-51.5 237.7,-56.44 248.11,-58.43 247.07,-51.5"/>
</g>
<!-- Node8 -->
<g id="node8" class="node">
<title>Node8</title>
<g id="a_node8"><a xlink:href="HomogeneousMagneticField_8cpp.html" target="_top" xlink:title=" ">
<polygon fill="none" stroke="black" points="260,-56.5 260,-75.5 435,-75.5 435,-56.5 260,-56.5"/>
<text text-anchor="middle" x="347.5" y="-63.5" font-family="Helvetica,sans-Serif" font-size="10.00">HomogeneousMagneticField.cpp</text>
</a>
</g>
</g>
<!-- Node7&#45;&gt;Node8 -->
<g id="edge8" class="edge">
<title>Node7&#45;&gt;Node8</title>
<path fill="none" stroke="midnightblue" d="M434.26,-108.1C412.96,-98.01 383.96,-84.27 365.48,-75.52"/>
<polygon fill="midnightblue" stroke="midnightblue" points="432.9,-111.33 443.44,-112.44 435.9,-105 432.9,-111.33"/>
</g>
<!-- Node7&#45;&gt;Node9 -->
<g id="edge9" class="edge">
<title>Node7&#45;&gt;Node9</title>
<path fill="none" stroke="midnightblue" d="M482.8,-106.62C497.42,-96.76 516.33,-83.99 528.68,-75.65"/>
<polygon fill="midnightblue" stroke="midnightblue" points="480.68,-103.83 474.35,-112.32 484.6,-109.63 480.68,-103.83"/>
</g>
<!-- Node9&#45;&gt;Node4 -->
<g id="edge10" class="edge">
<title>Node9&#45;&gt;Node4</title>
<path fill="none" stroke="midnightblue" d="M541.5,-45.8C541.5,-36.91 541.5,-26.78 541.5,-19.75"/>
<polygon fill="midnightblue" stroke="midnightblue" points="538,-46.08 541.5,-56.08 545,-46.08 538,-46.08"/>
</g>
<!-- Node11 -->
<g id="node11" class="node">
<title>Node11</title>
<g id="a_node11"><a xlink:href="ShapeBasedConstraint_8cpp.html" target="_top" xlink:title=" ">
<polygon fill="none" stroke="black" points="925,-56.5 925,-75.5 1072,-75.5 1072,-56.5 925,-56.5"/>
<text text-anchor="middle" x="998.5" y="-63.5" font-family="Helvetica,sans-Serif" font-size="10.00">ShapeBasedConstraint.cpp</text>
</a>
</g>
</g>
<!-- Node10&#45;&gt;Node11 -->
<g id="edge12" class="edge">
<title>Node10&#45;&gt;Node11</title>
<path fill="none" stroke="midnightblue" d="M966.61,-104.43C974.68,-94.97 984.46,-83.48 991.05,-75.75"/>
<polygon fill="midnightblue" stroke="midnightblue" points="963.92,-102.2 960.1,-112.08 969.25,-106.74 963.92,-102.2"/>
</g>
<!-- Node12 -->
<g id="node12" class="node">
<title>Node12</title>
<g id="a_node12"><a xlink:href="polymer_8cpp.html" target="_top" xlink:title=" ">
<polygon fill="none" stroke="black" points="1090,-56.5 1090,-75.5 1167,-75.5 1167,-56.5 1090,-56.5"/>
<text text-anchor="middle" x="1128.5" y="-63.5" font-family="Helvetica,sans-Serif" font-size="10.00">polymer.cpp</text>
</a>
</g>
</g>
<!-- Node10&#45;&gt;Node12 -->
<g id="edge13" class="edge">
<title>Node10&#45;&gt;Node12</title>
<path fill="none" stroke="midnightblue" d="M990.19,-109.44C1023.37,-99.26 1070.93,-84.66 1100.74,-75.52"/>
<polygon fill="midnightblue" stroke="midnightblue" points="988.92,-106.16 980.39,-112.44 990.97,-112.86 988.92,-106.16"/>
</g>
<!-- Node10&#45;&gt;Node13 -->
<g id="edge14" class="edge">
<title>Node10&#45;&gt;Node13</title>
<path fill="none" stroke="midnightblue" d="M906.1,-110.15C862.45,-99.95 797.99,-84.88 757.93,-75.52"/>
<polygon fill="midnightblue" stroke="midnightblue" points="905.36,-113.58 915.9,-112.44 906.96,-106.76 905.36,-113.58"/>
</g>
<!-- Node13&#45;&gt;Node4 -->
<g id="edge15" class="edge">
<title>Node13&#45;&gt;Node4</title>
<path fill="none" stroke="midnightblue" d="M683.39,-53.57C649.44,-43.38 600.51,-28.7 569.89,-19.52"/>
<polygon fill="midnightblue" stroke="midnightblue" points="682.39,-56.92 692.98,-56.44 684.41,-50.22 682.39,-56.92"/>
</g>
<!-- Node14&#45;&gt;Node12 -->
<g id="edge20" class="edge">
<title>Node14&#45;&gt;Node12</title>
<path fill="none" stroke="midnightblue" d="M1159.45,-104.14C1151.61,-94.74 1142.17,-83.4 1135.79,-75.75"/>
<polygon fill="midnightblue" stroke="midnightblue" points="1156.98,-106.64 1166.07,-112.08 1162.36,-102.16 1156.98,-106.64"/>
</g>
<!-- Node15 -->
<g id="node15" class="node">
<title>Node15</title>
<g id="a_node15"><a xlink:href="constraints_8cpp.html" target="_top" xlink:title=" ">
<polygon fill="none" stroke="black" points="1357,-56.5 1357,-75.5 1448,-75.5 1448,-56.5 1357,-56.5"/>
<text text-anchor="middle" x="1402.5" y="-63.5" font-family="Helvetica,sans-Serif" font-size="10.00">constraints.cpp</text>
</a>
</g>
</g>
<!-- Node14&#45;&gt;Node15 -->
<g id="edge17" class="edge">
<title>Node14&#45;&gt;Node15</title>
<path fill="none" stroke="midnightblue" d="M1219.77,-110.09C1263.04,-99.89 1326.76,-84.86 1366.38,-75.52"/>
<polygon fill="midnightblue" stroke="midnightblue" points="1218.72,-106.74 1209.79,-112.44 1220.32,-113.55 1218.72,-106.74"/>
</g>
<!-- Node16 -->
<g id="node16" class="node">
<title>Node16</title>
<g id="a_node16"><a xlink:href="energy_8cpp.html" target="_top" xlink:title=" ">
<polygon fill="none" stroke="black" points="1185,-56.5 1185,-75.5 1254,-75.5 1254,-56.5 1185,-56.5"/>
<text text-anchor="middle" x="1219.5" y="-63.5" font-family="Helvetica,sans-Serif" font-size="10.00">energy.cpp</text>
</a>
</g>
</g>
<!-- Node14&#45;&gt;Node16 -->
<g id="edge18" class="edge">
<title>Node14&#45;&gt;Node16</title>
<path fill="none" stroke="midnightblue" d="M1187.61,-104.43C1195.68,-94.97 1205.46,-83.48 1212.05,-75.75"/>
<polygon fill="midnightblue" stroke="midnightblue" points="1184.92,-102.2 1181.1,-112.08 1190.25,-106.74 1184.92,-102.2"/>
</g>
<!-- Node17 -->
<g id="node17" class="node">
<title>Node17</title>
<g id="a_node17"><a xlink:href="forces_8cpp.html" target="_top" xlink:title=" ">
<polygon fill="none" stroke="black" points="1272,-56.5 1272,-75.5 1339,-75.5 1339,-56.5 1272,-56.5"/>
<text text-anchor="middle" x="1305.5" y="-63.5" font-family="Helvetica,sans-Serif" font-size="10.00">forces.cpp</text>
</a>
</g>
</g>
<!-- Node14&#45;&gt;Node17 -->
<g id="edge19" class="edge">
<title>Node14&#45;&gt;Node17</title>
<path fill="none" stroke="midnightblue" d="M1203.72,-108.64C1228.49,-98.5 1262.9,-84.43 1284.68,-75.52"/>
<polygon fill="midnightblue" stroke="midnightblue" points="1202.35,-105.42 1194.42,-112.44 1205,-111.9 1202.35,-105.42"/>
</g>
<!-- Node18 -->
<g id="node18" class="node">
<title>Node18</title>
<g id="a_node18"><a xlink:href="script__interface_2constraints_2Constraints_8hpp.html" target="_top" xlink:title=" ">
<polygon fill="none" stroke="black" points="814,-56.5 814,-75.5 907,-75.5 907,-56.5 814,-56.5"/>
<text text-anchor="middle" x="860.5" y="-63.5" font-family="Helvetica,sans-Serif" font-size="10.00">Constraints.hpp</text>
</a>
</g>
</g>
<!-- Node14&#45;&gt;Node18 -->
<g id="edge21" class="edge">
<title>Node14&#45;&gt;Node18</title>
<path fill="none" stroke="midnightblue" d="M1117.25,-111.3C1057.22,-100.94 963.19,-84.72 907.13,-75.04"/>
<polygon fill="midnightblue" stroke="midnightblue" points="1116.87,-114.78 1127.32,-113.03 1118.06,-107.88 1116.87,-114.78"/>
</g>
<!-- Node18&#45;&gt;Node4 -->
<g id="edge22" class="edge">
<title>Node18&#45;&gt;Node4</title>
<path fill="none" stroke="midnightblue" d="M803.85,-55.41C739.85,-44.58 637.35,-27.23 581.29,-17.74"/>
<polygon fill="midnightblue" stroke="midnightblue" points="803.33,-58.87 813.77,-57.09 804.5,-51.97 803.33,-58.87"/>
</g>
<!-- Node19&#45;&gt;Node9 -->
<g id="edge25" class="edge">
<title>Node19&#45;&gt;Node9</title>
<path fill="none" stroke="midnightblue" d="M622.95,-107.73C602.95,-97.73 576.11,-84.31 558.81,-75.65"/>
<polygon fill="midnightblue" stroke="midnightblue" points="621.64,-110.98 632.15,-112.32 624.77,-104.72 621.64,-110.98"/>
</g>
<!-- Node19&#45;&gt;Node13 -->
<g id="edge26" class="edge">
<title>Node19&#45;&gt;Node13</title>
<path fill="none" stroke="midnightblue" d="M669.37,-106.1C682.32,-96.38 698.8,-84.03 709.72,-75.83"/>
<polygon fill="midnightblue" stroke="midnightblue" points="666.97,-103.52 661.07,-112.32 671.17,-109.12 666.97,-103.52"/>
</g>
<!-- Node19&#45;&gt;Node18 -->
<g id="edge24" class="edge">
<title>Node19&#45;&gt;Node18</title>
<path fill="none" stroke="midnightblue" d="M692.64,-109.96C732.49,-99.76 790.86,-84.82 827.22,-75.52"/>
<polygon fill="midnightblue" stroke="midnightblue" points="691.75,-106.57 682.93,-112.44 693.49,-113.35 691.75,-106.57"/>
</g>
</g>
</svg>
        <g id="navigator" transform="translate(0 0)" fill="#404254">
                <rect fill="#f2f5e9" fill-opacity="0.5" stroke="#606060" stroke-width=".5" x="0" y="0" width="60" height="60"/>
                <use id="zoomplus" xlink:href="#zoomPlus" x="17" y="9" onmousedown="handleZoom(evt,'in')"/>
                <use id="zoomminus" xlink:href="#zoomMin" x="42" y="9" onmousedown="handleZoom(evt,'out')"/>
                <use id="reset" xlink:href="#resetDef" x="30" y="36" onmousedown="handleReset()"/>
                <g id="arrowUp" xlink:href="#dirArrow" transform="translate(30 24)" onmousedown="handlePan(0,-1)">
                  <use xlink:href="#rim" fill="#404040">
                        <set attributeName="fill" to="#808080" begin="arrowUp.mouseover" end="arrowUp.mouseout"/>
                  </use>
                  <path fill="none" stroke="white" stroke-width="1.5" d="M0,-3.0v7 M-2.5,-0.5L0,-3.0L2.5,-0.5"/>
                </g>
                <g id="arrowRight" xlink:href="#dirArrow" transform="rotate(90) translate(36 -43)" onmousedown="handlePan(1,0)">
                  <use xlink:href="#rim" fill="#404040">
                        <set attributeName="fill" to="#808080" begin="arrowRight.mouseover" end="arrowRight.mouseout"/>
                  </use>
                  <path fill="none" stroke="white" stroke-width="1.5" d="M0,-3.0v7 M-2.5,-0.5L0,-3.0L2.5,-0.5"/>
                </g>
                <g id="arrowDown" xlink:href="#dirArrow" transform="rotate(180) translate(-30 -48)" onmousedown="handlePan(0,1)">
                  <use xlink:href="#rim" fill="#404040">
                        <set attributeName="fill" to="#808080" begin="arrowDown.mouseover" end="arrowDown.mouseout"/>
                  </use>
                  <path fill="none" stroke="white" stroke-width="1.5" d="M0,-3.0v7 M-2.5,-0.5L0,-3.0L2.5,-0.5"/>
                </g>
                <g id="arrowLeft" xlink:href="#dirArrow" transform="rotate(270) translate(-36 17)" onmousedown="handlePan(-1,0)">
                  <use xlink:href="#rim" fill="#404040">
                        <set attributeName="fill" to="#808080" begin="arrowLeft.mouseover" end="arrowLeft.mouseout"/>
                  </use>
                  <path fill="none" stroke="white" stroke-width="1.5" d="M0,-3.0v7 M-2.5,-0.5L0,-3.0L2.5,-0.5"/>
                </g>
        </g>
        <svg viewBox="0 0 15 15" width="100%" height="30px" preserveAspectRatio="xMaxYMin meet">
         <g id="arrow_out" transform="scale(0.3 0.3)">
          <a xlink:href="core_2constraints_2Constraint_8hpp__dep__incl_org.svg" target="_base">
           <rect id="button" ry="5" rx="5" y="6" x="6" height="38" width="38"
                fill="#f2f5e9" fill-opacity="0.5" stroke="#606060" stroke-width="1.0"/>
           <path id="arrow"
             d="M 11.500037,31.436501 C 11.940474,20.09759 22.043105,11.32322 32.158766,21.979434 L 37.068811,17.246167 C 37.068811,17.246167 37.088388,32 37.088388,32 L 22.160133,31.978069 C 22.160133,31.978069 26.997745,27.140456 26.997745,27.140456 C 18.528582,18.264221 13.291696,25.230495 11.500037,31.436501 z"
             style="fill:#404040;"/>
          </a>
         </g>
        </svg>
</svg>
