<?xml version="1.0" encoding="UTF-8" standalone="no"?>
<!DOCTYPE svg PUBLIC "-//W3C//DTD SVG 1.1//EN"
 "http://www.w3.org/Graphics/SVG/1.1/DTD/svg11.dtd">
<!-- Generated by graphviz version 2.43.0 (0)
 -->
<!-- Title: VirtualSitesOff.hpp Pages: 1 -->
<svg width="3158pt" height="375pt"
 viewBox="0.00 0.00 3158.12 375.00" xmlns="http://www.w3.org/2000/svg" xmlns:xlink="http://www.w3.org/1999/xlink">
<g id="graph0" class="graph" transform="scale(1 1) rotate(0) translate(4 371)">
<title>VirtualSitesOff.hpp</title>
<!-- Node1 -->
<g id="node1" class="node">
<title>Node1</title>
<g id="a_node1"><a xlink:title=" ">
<polygon fill="#bfbfbf" stroke="black" points="889.5,-347.5 889.5,-366.5 997.5,-366.5 997.5,-347.5 889.5,-347.5"/>
<text text-anchor="middle" x="943.5" y="-354.5" font-family="Helvetica,sans-Serif" font-size="10.00">VirtualSitesOff.hpp</text>
</a>
</g>
</g>
<!-- Node2 -->
<g id="node2" class="node">
<title>Node2</title>
<g id="a_node2"><a xlink:href="config_8hpp.html" target="_top" xlink:title=" ">
<polygon fill="none" stroke="black" points="860.5,-291.5 860.5,-310.5 928.5,-310.5 928.5,-291.5 860.5,-291.5"/>
<text text-anchor="middle" x="894.5" y="-298.5" font-family="Helvetica,sans-Serif" font-size="10.00">config.hpp</text>
</a>
</g>
</g>
<!-- Node1&#45;&gt;Node2 -->
<g id="edge1" class="edge">
<title>Node1&#45;&gt;Node2</title>
<path fill="none" stroke="midnightblue" d="M935.41,-347.08C928.34,-339.3 917.91,-327.8 909.35,-318.37"/>
<polygon fill="midnightblue" stroke="midnightblue" points="911.75,-315.8 902.44,-310.75 906.57,-320.51 911.75,-315.8"/>
</g>
<!-- Node4 -->
<g id="node4" class="node">
<title>Node4</title>
<g id="a_node4"><a xlink:href="core_2virtual__sites_2VirtualSites_8hpp.html" target="_top" xlink:title=" ">
<polygon fill="none" stroke="black" points="946.5,-291.5 946.5,-310.5 1040.5,-310.5 1040.5,-291.5 946.5,-291.5"/>
<text text-anchor="middle" x="993.5" y="-298.5" font-family="Helvetica,sans-Serif" font-size="10.00">VirtualSites.hpp</text>
</a>
</g>
</g>
<!-- Node1&#45;&gt;Node4 -->
<g id="edge3" class="edge">
<title>Node1&#45;&gt;Node4</title>
<path fill="none" stroke="midnightblue" d="M951.76,-347.08C958.96,-339.3 969.61,-327.8 978.35,-318.37"/>
<polygon fill="midnightblue" stroke="midnightblue" points="981.17,-320.47 985.4,-310.75 976.03,-315.71 981.17,-320.47"/>
</g>
<!-- Node3 -->
<g id="node3" class="node">
<title>Node3</title>
<g id="a_node3"><a xlink:title=" ">
<polygon fill="none" stroke="#bfbfbf" points="838.5,-235.5 838.5,-254.5 950.5,-254.5 950.5,-235.5 838.5,-235.5"/>
<text text-anchor="middle" x="894.5" y="-242.5" font-family="Helvetica,sans-Serif" font-size="10.00">config&#45;features.hpp</text>
</a>
</g>
</g>
<!-- Node2&#45;&gt;Node3 -->
<g id="edge2" class="edge">
<title>Node2&#45;&gt;Node3</title>
<path fill="none" stroke="midnightblue" d="M894.5,-291.08C894.5,-284.01 894.5,-273.86 894.5,-264.99"/>
<polygon fill="midnightblue" stroke="midnightblue" points="898,-264.75 894.5,-254.75 891,-264.75 898,-264.75"/>
</g>
<!-- Node5 -->
<g id="node5" class="node">
<title>Node5</title>
<g id="a_node5"><a xlink:href="Vector_8hpp.html" target="_top" xlink:title=" ">
<polygon fill="none" stroke="black" points="693,-179.5 693,-198.5 786,-198.5 786,-179.5 693,-179.5"/>
<text text-anchor="middle" x="739.5" y="-186.5" font-family="Helvetica,sans-Serif" font-size="10.00">utils/Vector.hpp</text>
</a>
</g>
</g>
<!-- Node4&#45;&gt;Node5 -->
<g id="edge4" class="edge">
<title>Node4&#45;&gt;Node5</title>
<path fill="none" stroke="midnightblue" d="M991.51,-291.27C987.8,-277.1 978.42,-249.25 959.5,-235 934.28,-216.02 852.95,-203.04 796.58,-196.07"/>
<polygon fill="midnightblue" stroke="midnightblue" points="796.71,-192.56 786.36,-194.84 795.87,-199.51 796.71,-192.56"/>
</g>
<!-- Node25 -->
<g id="node25" class="node">
<title>Node25</title>
<g id="a_node25"><a xlink:href="matrix_8hpp.html" target="_top" xlink:title="This file contains a matrix implementation and the trait types needed for the boost qvm interoperabil...">
<polygon fill="none" stroke="black" points="1358.5,-235.5 1358.5,-254.5 1452.5,-254.5 1452.5,-235.5 1358.5,-235.5"/>
<text text-anchor="middle" x="1405.5" y="-242.5" font-family="Helvetica,sans-Serif" font-size="10.00">utils/matrix.hpp</text>
</a>
</g>
</g>
<!-- Node4&#45;&gt;Node25 -->
<g id="edge29" class="edge">
<title>Node4&#45;&gt;Node25</title>
<path fill="none" stroke="midnightblue" d="M1040.76,-293.81C1116.87,-283.83 1266.34,-264.24 1348.33,-253.49"/>
<polygon fill="midnightblue" stroke="midnightblue" points="1349.01,-256.93 1358.47,-252.16 1348.1,-249.99 1349.01,-256.93"/>
</g>
<!-- Node6 -->
<g id="node6" class="node">
<title>Node6</title>
<g id="a_node6"><a xlink:title=" ">
<polygon fill="none" stroke="#bfbfbf" points="875.5,-123.5 875.5,-142.5 1025.5,-142.5 1025.5,-123.5 875.5,-123.5"/>
<text text-anchor="middle" x="950.5" y="-130.5" font-family="Helvetica,sans-Serif" font-size="10.00">boost/qvm/deduce_vec.hpp</text>
</a>
</g>
</g>
<!-- Node5&#45;&gt;Node6 -->
<g id="edge5" class="edge">
<title>Node5&#45;&gt;Node6</title>
<path fill="none" stroke="midnightblue" d="M772.93,-179.44C809.36,-170.12 867.73,-155.18 907.53,-145"/>
<polygon fill="midnightblue" stroke="midnightblue" points="908.4,-148.39 917.22,-142.52 906.67,-141.61 908.4,-148.39"/>
</g>
<!-- Node7 -->
<g id="node7" class="node">
<title>Node7</title>
<g id="a_node7"><a xlink:title=" ">
<polygon fill="none" stroke="#bfbfbf" points="391.5,-123.5 391.5,-142.5 531.5,-142.5 531.5,-123.5 391.5,-123.5"/>
<text text-anchor="middle" x="461.5" y="-130.5" font-family="Helvetica,sans-Serif" font-size="10.00">boost/qvm/vec_traits.hpp</text>
</a>
</g>
</g>
<!-- Node5&#45;&gt;Node7 -->
<g id="edge6" class="edge">
<title>Node5&#45;&gt;Node7</title>
<path fill="none" stroke="midnightblue" d="M695.45,-179.44C646.65,-169.96 567.94,-154.67 515.47,-144.48"/>
<polygon fill="midnightblue" stroke="midnightblue" points="515.83,-140.99 505.34,-142.52 514.49,-147.86 515.83,-140.99"/>
</g>
<!-- Node8 -->
<g id="node8" class="node">
<title>Node8</title>
<g id="a_node8"><a xlink:href="Array_8hpp.html" target="_top" xlink:title=" ">
<polygon fill="none" stroke="black" points="147.5,-123.5 147.5,-142.5 233.5,-142.5 233.5,-123.5 147.5,-123.5"/>
<text text-anchor="middle" x="190.5" y="-130.5" font-family="Helvetica,sans-Serif" font-size="10.00">utils/Array.hpp</text>
</a>
</g>
</g>
<!-- Node5&#45;&gt;Node8 -->
<g id="edge7" class="edge">
<title>Node5&#45;&gt;Node8</title>
<path fill="none" stroke="midnightblue" d="M692.77,-185.04C606.2,-179.28 414.89,-165.25 243.54,-143.04"/>
<polygon fill="midnightblue" stroke="midnightblue" points="243.96,-139.56 233.59,-141.73 243.05,-146.5 243.96,-139.56"/>
</g>
<!-- Node10 -->
<g id="node10" class="node">
<title>Node10</title>
<g id="a_node10"><a xlink:title=" ">
<polygon fill="none" stroke="#bfbfbf" points="724.5,-0.5 724.5,-19.5 776.5,-19.5 776.5,-0.5 724.5,-0.5"/>
<text text-anchor="middle" x="750.5" y="-7.5" font-family="Helvetica,sans-Serif" font-size="10.00">cassert</text>
</a>
</g>
</g>
<!-- Node5&#45;&gt;Node10 -->
<g id="edge20" class="edge">
<title>Node5&#45;&gt;Node10</title>
<path fill="none" stroke="midnightblue" d="M754.45,-179.47C766.43,-171.7 782.37,-159 789.5,-143 807.16,-103.34 780.11,-53.49 762.92,-27.89"/>
<polygon fill="midnightblue" stroke="midnightblue" points="765.73,-25.8 757.13,-19.61 759.99,-29.81 765.73,-25.8"/>
</g>
<!-- Node12 -->
<g id="node12" class="node">
<title>Node12</title>
<g id="a_node12"><a xlink:title=" ">
<polygon fill="none" stroke="#bfbfbf" points="79,-0.5 79,-19.5 132,-19.5 132,-0.5 79,-0.5"/>
<text text-anchor="middle" x="105.5" y="-7.5" font-family="Helvetica,sans-Serif" font-size="10.00">cstddef</text>
</a>
</g>
</g>
<!-- Node5&#45;&gt;Node12 -->
<g id="edge22" class="edge">
<title>Node5&#45;&gt;Node12</title>
<path fill="none" stroke="midnightblue" d="M692.81,-187.6C558.92,-186.02 180.55,-178.44 138.5,-143 105.33,-115.05 102.77,-59.28 103.97,-29.98"/>
<polygon fill="midnightblue" stroke="midnightblue" points="107.47,-30.04 104.58,-19.84 100.48,-29.61 107.47,-30.04"/>
</g>
<!-- Node15 -->
<g id="node15" class="node">
<title>Node15</title>
<g id="a_node15"><a xlink:title=" ">
<polygon fill="none" stroke="#bfbfbf" points="838,-62 838,-81 891,-81 891,-62 838,-62"/>
<text text-anchor="middle" x="864.5" y="-69" font-family="Helvetica,sans-Serif" font-size="10.00">iterator</text>
</a>
</g>
</g>
<!-- Node5&#45;&gt;Node15 -->
<g id="edge25" class="edge">
<title>Node5&#45;&gt;Node15</title>
<path fill="none" stroke="midnightblue" d="M763.45,-179.35C781.59,-171.89 806.24,-159.66 823.5,-143 838.89,-128.14 850.4,-106.25 857.24,-90.82"/>
<polygon fill="midnightblue" stroke="midnightblue" points="860.59,-91.9 861.23,-81.33 854.13,-89.19 860.59,-91.9"/>
</g>
<!-- Node18 -->
<g id="node18" class="node">
<title>Node18</title>
<g id="a_node18"><a xlink:title=" ">
<polygon fill="none" stroke="#bfbfbf" points="1169.5,-123.5 1169.5,-142.5 1233.5,-142.5 1233.5,-123.5 1169.5,-123.5"/>
<text text-anchor="middle" x="1201.5" y="-130.5" font-family="Helvetica,sans-Serif" font-size="10.00">algorithm</text>
</a>
</g>
</g>
<!-- Node5&#45;&gt;Node18 -->
<g id="edge19" class="edge">
<title>Node5&#45;&gt;Node18</title>
<path fill="none" stroke="midnightblue" d="M786.13,-184.69C862.2,-178.94 1017.85,-165.63 1159.19,-143.05"/>
<polygon fill="midnightblue" stroke="midnightblue" points="1160.02,-146.46 1169.34,-141.41 1158.9,-139.55 1160.02,-146.46"/>
</g>
<!-- Node19 -->
<g id="node19" class="node">
<title>Node19</title>
<g id="a_node19"><a xlink:title=" ">
<polygon fill="none" stroke="#bfbfbf" points="550,-123.5 550,-142.5 597,-142.5 597,-123.5 550,-123.5"/>
<text text-anchor="middle" x="573.5" y="-130.5" font-family="Helvetica,sans-Serif" font-size="10.00">cmath</text>
</a>
</g>
</g>
<!-- Node5&#45;&gt;Node19 -->
<g id="edge21" class="edge">
<title>Node5&#45;&gt;Node19</title>
<path fill="none" stroke="midnightblue" d="M713.2,-179.44C684.41,-170.08 638.18,-155.04 606.86,-144.85"/>
<polygon fill="midnightblue" stroke="midnightblue" points="607.85,-141.49 597.26,-141.73 605.69,-148.15 607.85,-141.49"/>
</g>
<!-- Node20 -->
<g id="node20" class="node">
<title>Node20</title>
<g id="a_node20"><a xlink:title=" ">
<polygon fill="none" stroke="#bfbfbf" points="615,-123.5 615,-142.5 680,-142.5 680,-123.5 615,-123.5"/>
<text text-anchor="middle" x="647.5" y="-130.5" font-family="Helvetica,sans-Serif" font-size="10.00">functional</text>
</a>
</g>
</g>
<!-- Node5&#45;&gt;Node20 -->
<g id="edge23" class="edge">
<title>Node5&#45;&gt;Node20</title>
<path fill="none" stroke="midnightblue" d="M724.72,-179.32C710.23,-170.82 687.93,-157.73 671.01,-147.8"/>
<polygon fill="midnightblue" stroke="midnightblue" points="672.64,-144.7 662.24,-142.65 669.1,-150.74 672.64,-144.7"/>
</g>
<!-- Node21 -->
<g id="node21" class="node">
<title>Node21</title>
<g id="a_node21"><a xlink:title=" ">
<polygon fill="none" stroke="#bfbfbf" points="698,-123.5 698,-142.5 781,-142.5 781,-123.5 698,-123.5"/>
<text text-anchor="middle" x="739.5" y="-130.5" font-family="Helvetica,sans-Serif" font-size="10.00">initializer_list</text>
</a>
</g>
</g>
<!-- Node5&#45;&gt;Node21 -->
<g id="edge24" class="edge">
<title>Node5&#45;&gt;Node21</title>
<path fill="none" stroke="midnightblue" d="M739.5,-179.08C739.5,-172.01 739.5,-161.86 739.5,-152.99"/>
<polygon fill="midnightblue" stroke="midnightblue" points="743,-152.75 739.5,-142.75 736,-152.75 743,-152.75"/>
</g>
<!-- Node22 -->
<g id="node22" class="node">
<title>Node22</title>
<g id="a_node22"><a xlink:title=" ">
<polygon fill="none" stroke="#bfbfbf" points="251.5,-123.5 251.5,-142.5 307.5,-142.5 307.5,-123.5 251.5,-123.5"/>
<text text-anchor="middle" x="279.5" y="-130.5" font-family="Helvetica,sans-Serif" font-size="10.00">numeric</text>
</a>
</g>
</g>
<!-- Node5&#45;&gt;Node22 -->
<g id="edge26" class="edge">
<title>Node5&#45;&gt;Node22</title>
<path fill="none" stroke="midnightblue" d="M692.9,-185.07C616.51,-179.83 459.76,-167.22 317.89,-143.03"/>
<polygon fill="midnightblue" stroke="midnightblue" points="318.15,-139.52 307.7,-141.27 316.96,-146.42 318.15,-139.52"/>
</g>
<!-- Node23 -->
<g id="node23" class="node">
<title>Node23</title>
<g id="a_node23"><a xlink:title=" ">
<polygon fill="none" stroke="#bfbfbf" points="1082,-123.5 1082,-142.5 1151,-142.5 1151,-123.5 1082,-123.5"/>
<text text-anchor="middle" x="1116.5" y="-130.5" font-family="Helvetica,sans-Serif" font-size="10.00">type_traits</text>
</a>
</g>
</g>
<!-- Node5&#45;&gt;Node23 -->
<g id="edge27" class="edge">
<title>Node5&#45;&gt;Node23</title>
<path fill="none" stroke="midnightblue" d="M786.11,-181.32C859.24,-170.85 1000.02,-150.68 1071.9,-140.39"/>
<polygon fill="midnightblue" stroke="midnightblue" points="1072.59,-143.83 1081.99,-138.94 1071.59,-136.9 1072.59,-143.83"/>
</g>
<!-- Node24 -->
<g id="node24" class="node">
<title>Node24</title>
<g id="a_node24"><a xlink:title=" ">
<polygon fill="none" stroke="#bfbfbf" points="326,-123.5 326,-142.5 373,-142.5 373,-123.5 326,-123.5"/>
<text text-anchor="middle" x="349.5" y="-130.5" font-family="Helvetica,sans-Serif" font-size="10.00">vector</text>
</a>
</g>
</g>
<!-- Node5&#45;&gt;Node24 -->
<g id="edge28" class="edge">
<title>Node5&#45;&gt;Node24</title>
<path fill="none" stroke="midnightblue" d="M692.95,-184.24C626.36,-178.4 499.95,-165.6 383.03,-142.84"/>
<polygon fill="midnightblue" stroke="midnightblue" points="383.69,-139.4 373.2,-140.89 382.33,-146.26 383.69,-139.4"/>
</g>
<!-- Node9 -->
<g id="node9" class="node">
<title>Node9</title>
<g id="a_node9"><a xlink:href="device__qualifier_8hpp.html" target="_top" xlink:title=" ">
<polygon fill="none" stroke="black" points="344.5,-62 344.5,-81 460.5,-81 460.5,-62 344.5,-62"/>
<text text-anchor="middle" x="402.5" y="-69" font-family="Helvetica,sans-Serif" font-size="10.00">device_qualifier.hpp</text>
</a>
</g>
</g>
<!-- Node8&#45;&gt;Node9 -->
<g id="edge8" class="edge">
<title>Node8&#45;&gt;Node9</title>
<path fill="none" stroke="midnightblue" d="M220.87,-123.48C258.11,-113.03 321.31,-95.29 362.48,-83.73"/>
<polygon fill="midnightblue" stroke="midnightblue" points="363.5,-87.08 372.18,-81.01 361.61,-80.34 363.5,-87.08"/>
</g>
<!-- Node8&#45;&gt;Node10 -->
<g id="edge14" class="edge">
<title>Node8&#45;&gt;Node10</title>
<path fill="none" stroke="midnightblue" d="M233.59,-124.3C236.6,-123.84 239.6,-123.4 242.5,-123 398.29,-101.58 443.26,-130.1 594.5,-87 644.96,-72.62 698.96,-42.63 728.33,-24.93"/>
<polygon fill="midnightblue" stroke="midnightblue" points="730.26,-27.85 736.97,-19.65 726.61,-21.88 730.26,-27.85"/>
</g>
<!-- Node11 -->
<g id="node11" class="node">
<title>Node11</title>
<g id="a_node11"><a xlink:href="get_8hpp.html" target="_top" xlink:title=" ">
<polygon fill="none" stroke="black" points="0,-62 0,-81 53,-81 53,-62 0,-62"/>
<text text-anchor="middle" x="26.5" y="-69" font-family="Helvetica,sans-Serif" font-size="10.00">get.hpp</text>
</a>
</g>
</g>
<!-- Node8&#45;&gt;Node11 -->
<g id="edge10" class="edge">
<title>Node8&#45;&gt;Node11</title>
<path fill="none" stroke="midnightblue" d="M167,-123.48C138.87,-113.27 91.57,-96.11 59.71,-84.55"/>
<polygon fill="midnightblue" stroke="midnightblue" points="60.55,-81.13 49.95,-81.01 58.16,-87.71 60.55,-81.13"/>
</g>
<!-- Node8&#45;&gt;Node12 -->
<g id="edge15" class="edge">
<title>Node8&#45;&gt;Node12</title>
<path fill="none" stroke="midnightblue" d="M233.72,-125.29C256.5,-119.32 282.54,-108.09 296.5,-87 304.1,-75.51 305.05,-66.8 296.5,-56 277.65,-32.19 192.39,-19.71 142.38,-14.34"/>
<polygon fill="midnightblue" stroke="midnightblue" points="142.59,-10.84 132.28,-13.3 141.87,-17.8 142.59,-10.84"/>
</g>
<!-- Node14 -->
<g id="node14" class="node">
<title>Node14</title>
<g id="a_node14"><a xlink:title=" ">
<polygon fill="none" stroke="#bfbfbf" points="479,-56.5 479,-86.5 586,-86.5 586,-56.5 479,-56.5"/>
<text text-anchor="start" x="487" y="-74.5" font-family="Helvetica,sans-Serif" font-size="10.00">boost/serialization</text>
<text text-anchor="middle" x="532.5" y="-63.5" font-family="Helvetica,sans-Serif" font-size="10.00">/access.hpp</text>
</a>
</g>
</g>
<!-- Node8&#45;&gt;Node14 -->
<g id="edge13" class="edge">
<title>Node8&#45;&gt;Node14</title>
<path fill="none" stroke="midnightblue" d="M233.62,-124.49C236.63,-123.98 239.61,-123.48 242.5,-123 340.12,-106.81 367.53,-106.47 468.89,-87.03"/>
<polygon fill="midnightblue" stroke="midnightblue" points="469.78,-90.43 478.94,-85.09 468.45,-83.55 469.78,-90.43"/>
</g>
<!-- Node8&#45;&gt;Node15 -->
<g id="edge16" class="edge">
<title>Node8&#45;&gt;Node15</title>
<path fill="none" stroke="midnightblue" d="M233.58,-124.22C236.6,-123.78 239.59,-123.36 242.5,-123 447.74,-97.33 500.4,-104.45 706.5,-87 748.05,-83.48 795.71,-79.05 827.73,-76.02"/>
<polygon fill="midnightblue" stroke="midnightblue" points="828.33,-79.48 837.95,-75.05 827.67,-72.51 828.33,-79.48"/>
</g>
<!-- Node16 -->
<g id="node16" class="node">
<title>Node16</title>
<g id="a_node16"><a xlink:title=" ">
<polygon fill="none" stroke="#bfbfbf" points="148,-62 148,-81 205,-81 205,-62 148,-62"/>
<text text-anchor="middle" x="176.5" y="-69" font-family="Helvetica,sans-Serif" font-size="10.00">ostream</text>
</a>
</g>
</g>
<!-- Node8&#45;&gt;Node16 -->
<g id="edge17" class="edge">
<title>Node8&#45;&gt;Node16</title>
<path fill="none" stroke="midnightblue" d="M188.49,-123.48C186.5,-114.99 183.37,-101.7 180.81,-90.82"/>
<polygon fill="midnightblue" stroke="midnightblue" points="184.2,-89.94 178.5,-81.01 177.39,-91.54 184.2,-89.94"/>
</g>
<!-- Node17 -->
<g id="node17" class="node">
<title>Node17</title>
<g id="a_node17"><a xlink:title=" ">
<polygon fill="none" stroke="#bfbfbf" points="223,-62 223,-81 288,-81 288,-62 223,-62"/>
<text text-anchor="middle" x="255.5" y="-69" font-family="Helvetica,sans-Serif" font-size="10.00">stdexcept</text>
</a>
</g>
</g>
<!-- Node8&#45;&gt;Node17 -->
<g id="edge18" class="edge">
<title>Node8&#45;&gt;Node17</title>
<path fill="none" stroke="midnightblue" d="M199.81,-123.48C209.95,-114.2 226.36,-99.17 238.75,-87.83"/>
<polygon fill="midnightblue" stroke="midnightblue" points="241.19,-90.34 246.2,-81.01 236.46,-85.18 241.19,-90.34"/>
</g>
<!-- Node9&#45;&gt;Node10 -->
<g id="edge9" class="edge">
<title>Node9&#45;&gt;Node10</title>
<path fill="none" stroke="midnightblue" d="M440.34,-61.93C449.84,-59.89 460.03,-57.78 469.5,-56 557.13,-39.51 660.85,-23.91 714.43,-16.14"/>
<polygon fill="midnightblue" stroke="midnightblue" points="715.06,-19.58 724.46,-14.69 714.06,-12.65 715.06,-19.58"/>
</g>
<!-- Node11&#45;&gt;Node12 -->
<g id="edge11" class="edge">
<title>Node11&#45;&gt;Node12</title>
<path fill="none" stroke="midnightblue" d="M37.82,-61.98C50.37,-52.52 70.85,-37.1 86,-25.69"/>
<polygon fill="midnightblue" stroke="midnightblue" points="88.32,-28.32 94.2,-19.51 84.11,-22.73 88.32,-28.32"/>
</g>
<!-- Node13 -->
<g id="node13" class="node">
<title>Node13</title>
<g id="a_node13"><a xlink:title=" ">
<polygon fill="none" stroke="#bfbfbf" points="6,-0.5 6,-19.5 47,-19.5 47,-0.5 6,-0.5"/>
<text text-anchor="middle" x="26.5" y="-7.5" font-family="Helvetica,sans-Serif" font-size="10.00">tuple</text>
</a>
</g>
</g>
<!-- Node11&#45;&gt;Node13 -->
<g id="edge12" class="edge">
<title>Node11&#45;&gt;Node13</title>
<path fill="none" stroke="midnightblue" d="M26.5,-61.98C26.5,-53.58 26.5,-40.48 26.5,-29.66"/>
<polygon fill="midnightblue" stroke="midnightblue" points="30,-29.51 26.5,-19.51 23,-29.51 30,-29.51"/>
</g>
<!-- Node25&#45;&gt;Node5 -->
<g id="edge31" class="edge">
<title>Node25&#45;&gt;Node5</title>
<path fill="none" stroke="midnightblue" d="M1358.4,-240.18C1239.12,-230.51 925.46,-205.08 796.31,-194.61"/>
<polygon fill="midnightblue" stroke="midnightblue" points="796.48,-191.11 786.23,-193.79 795.91,-198.09 796.48,-191.11"/>
</g>
<!-- Node25&#45;&gt;Node6 -->
<g id="edge46" class="edge">
<title>Node25&#45;&gt;Node6</title>
<path fill="none" stroke="midnightblue" d="M1358.39,-243.33C1239.03,-241.16 932,-232.34 901.5,-199 886.53,-182.63 908.34,-161.9 927.45,-148.31"/>
<polygon fill="midnightblue" stroke="midnightblue" points="929.57,-151.1 935.9,-142.61 925.65,-145.3 929.57,-151.1"/>
</g>
<!-- Node25&#45;&gt;Node8 -->
<g id="edge30" class="edge">
<title>Node25&#45;&gt;Node8</title>
<path fill="none" stroke="midnightblue" d="M1358.11,-242.1C1242.59,-237.23 937.32,-223 683.5,-199 490.07,-180.71 439.55,-172.57 243.65,-143.12"/>
<polygon fill="midnightblue" stroke="midnightblue" points="244.02,-139.64 233.61,-141.61 242.97,-146.56 244.02,-139.64"/>
</g>
<!-- Node25&#45;&gt;Node10 -->
<g id="edge37" class="edge">
<title>Node25&#45;&gt;Node10</title>
<path fill="none" stroke="midnightblue" d="M1452.5,-243.68C1727.32,-241.71 3115.1,-230.2 3145.5,-199 3151.7,-192.63 3151.56,-185.5 3145.5,-179 3061.31,-88.7 1081.2,-21.64 786.93,-12.15"/>
<polygon fill="midnightblue" stroke="midnightblue" points="786.9,-8.65 776.8,-11.83 786.68,-15.65 786.9,-8.65"/>
</g>
<!-- Node25&#45;&gt;Node12 -->
<g id="edge38" class="edge">
<title>Node25&#45;&gt;Node12</title>
<path fill="none" stroke="midnightblue" d="M1358.29,-243.6C1139.42,-241.3 230.12,-226.74 138.5,-143 106.62,-113.87 103.45,-59.03 104.23,-30.05"/>
<polygon fill="midnightblue" stroke="midnightblue" points="107.75,-29.84 104.72,-19.69 100.76,-29.51 107.75,-29.84"/>
</g>
<!-- Node25&#45;&gt;Node18 -->
<g id="edge35" class="edge">
<title>Node25&#45;&gt;Node18</title>
<path fill="none" stroke="midnightblue" d="M1358.32,-244.49C1278.88,-244.2 1123.73,-238.45 1089.5,-199 1083.67,-192.29 1084.52,-186.36 1089.5,-179 1097.85,-166.65 1131.49,-154.14 1159.74,-145.45"/>
<polygon fill="midnightblue" stroke="midnightblue" points="1160.89,-148.76 1169.46,-142.54 1158.88,-142.05 1160.89,-148.76"/>
</g>
<!-- Node25&#45;&gt;Node23 -->
<g id="edge39" class="edge">
<title>Node25&#45;&gt;Node23</title>
<path fill="none" stroke="midnightblue" d="M1358.28,-244.71C1277,-244.8 1115.95,-239.7 1080.5,-199 1067.49,-184.06 1083.04,-163.66 1097.57,-149.72"/>
<polygon fill="midnightblue" stroke="midnightblue" points="1100.26,-152.01 1105.35,-142.72 1095.58,-146.81 1100.26,-152.01"/>
</g>
<!-- Node26 -->
<g id="node26" class="node">
<title>Node26</title>
<g id="a_node26"><a xlink:href="flatten_8hpp.html" target="_top" xlink:title=" ">
<polygon fill="none" stroke="black" points="910.5,-179.5 910.5,-198.5 1004.5,-198.5 1004.5,-179.5 910.5,-179.5"/>
<text text-anchor="middle" x="957.5" y="-186.5" font-family="Helvetica,sans-Serif" font-size="10.00">utils/flatten.hpp</text>
</a>
</g>
</g>
<!-- Node25&#45;&gt;Node26 -->
<g id="edge32" class="edge">
<title>Node25&#45;&gt;Node26</title>
<path fill="none" stroke="midnightblue" d="M1358.38,-238.99C1285.45,-231.14 1140.88,-215.14 1018.5,-199 1017.25,-198.83 1015.98,-198.67 1014.7,-198.49"/>
<polygon fill="midnightblue" stroke="midnightblue" points="1015.15,-195.02 1004.77,-197.12 1014.2,-201.96 1015.15,-195.02"/>
</g>
<!-- Node27 -->
<g id="node27" class="node">
<title>Node27</title>
<g id="a_node27"><a xlink:title=" ">
<polygon fill="none" stroke="#bfbfbf" points="1098.5,-179.5 1098.5,-198.5 1140.5,-198.5 1140.5,-179.5 1098.5,-179.5"/>
<text text-anchor="middle" x="1119.5" y="-186.5" font-family="Helvetica,sans-Serif" font-size="10.00">array</text>
</a>
</g>
</g>
<!-- Node25&#45;&gt;Node27 -->
<g id="edge36" class="edge">
<title>Node25&#45;&gt;Node27</title>
<path fill="none" stroke="midnightblue" d="M1358.19,-237.22C1306.76,-229.48 1222.31,-215.71 1150.5,-199 1150.4,-198.98 1150.3,-198.95 1150.2,-198.93"/>
<polygon fill="midnightblue" stroke="midnightblue" points="1151.32,-195.6 1140.77,-196.5 1149.58,-202.38 1151.32,-195.6"/>
</g>
<!-- Node28 -->
<g id="node28" class="node">
<title>Node28</title>
<g id="a_node28"><a xlink:title=" ">
<polygon fill="none" stroke="#bfbfbf" points="1159,-179.5 1159,-198.5 1204,-198.5 1204,-179.5 1159,-179.5"/>
<text text-anchor="middle" x="1181.5" y="-186.5" font-family="Helvetica,sans-Serif" font-size="10.00">utility</text>
</a>
</g>
</g>
<!-- Node25&#45;&gt;Node28 -->
<g id="edge40" class="edge">
<title>Node25&#45;&gt;Node28</title>
<path fill="none" stroke="midnightblue" d="M1366.76,-235.45C1329.95,-227.2 1272.81,-214.1 1214.02,-199.05"/>
<polygon fill="midnightblue" stroke="midnightblue" points="1214.75,-195.62 1204.19,-196.52 1213,-202.4 1214.75,-195.62"/>
</g>
<!-- Node29 -->
<g id="node29" class="node">
<title>Node29</title>
<g id="a_node29"><a xlink:title=" ">
<polygon fill="none" stroke="#bfbfbf" points="1222,-179.5 1222,-198.5 1391,-198.5 1391,-179.5 1222,-179.5"/>
<text text-anchor="middle" x="1306.5" y="-186.5" font-family="Helvetica,sans-Serif" font-size="10.00">boost/qvm/mat_operations.hpp</text>
</a>
</g>
</g>
<!-- Node25&#45;&gt;Node29 -->
<g id="edge41" class="edge">
<title>Node25&#45;&gt;Node29</title>
<path fill="none" stroke="midnightblue" d="M1389.59,-235.32C1373.86,-226.74 1349.56,-213.49 1331.29,-203.52"/>
<polygon fill="midnightblue" stroke="midnightblue" points="1332.82,-200.37 1322.37,-198.65 1329.47,-206.52 1332.82,-200.37"/>
</g>
<!-- Node30 -->
<g id="node30" class="node">
<title>Node30</title>
<g id="a_node30"><a xlink:title=" ">
<polygon fill="none" stroke="#bfbfbf" points="1409,-179.5 1409,-198.5 1600,-198.5 1600,-179.5 1409,-179.5"/>
<text text-anchor="middle" x="1504.5" y="-186.5" font-family="Helvetica,sans-Serif" font-size="10.00">boost/qvm/vec_mat_operations.hpp</text>
</a>
</g>
</g>
<!-- Node25&#45;&gt;Node30 -->
<g id="edge42" class="edge">
<title>Node25&#45;&gt;Node30</title>
<path fill="none" stroke="midnightblue" d="M1421.41,-235.32C1437.14,-226.74 1461.44,-213.49 1479.71,-203.52"/>
<polygon fill="midnightblue" stroke="midnightblue" points="1481.53,-206.52 1488.63,-198.65 1478.18,-200.37 1481.53,-206.52"/>
</g>
<!-- Node31 -->
<g id="node31" class="node">
<title>Node31</title>
<g id="a_node31"><a xlink:title=" ">
<polygon fill="none" stroke="#bfbfbf" points="1618,-179.5 1618,-198.5 1785,-198.5 1785,-179.5 1618,-179.5"/>
<text text-anchor="middle" x="1701.5" y="-186.5" font-family="Helvetica,sans-Serif" font-size="10.00">boost/qvm/vec_operations.hpp</text>
</a>
</g>
</g>
<!-- Node25&#45;&gt;Node31 -->
<g id="edge43" class="edge">
<title>Node25&#45;&gt;Node31</title>
<path fill="none" stroke="midnightblue" d="M1452.4,-235.44C1504.58,-225.92 1588.87,-210.55 1644.73,-200.36"/>
<polygon fill="midnightblue" stroke="midnightblue" points="1645.61,-203.75 1654.82,-198.52 1644.35,-196.87 1645.61,-203.75"/>
</g>
<!-- Node32 -->
<g id="node32" class="node">
<title>Node32</title>
<g id="a_node32"><a xlink:title=" ">
<polygon fill="none" stroke="#bfbfbf" points="1803.5,-179.5 1803.5,-198.5 1955.5,-198.5 1955.5,-179.5 1803.5,-179.5"/>
<text text-anchor="middle" x="1879.5" y="-186.5" font-family="Helvetica,sans-Serif" font-size="10.00">boost/qvm/deduce_mat.hpp</text>
</a>
</g>
</g>
<!-- Node25&#45;&gt;Node32 -->
<g id="edge44" class="edge">
<title>Node25&#45;&gt;Node32</title>
<path fill="none" stroke="midnightblue" d="M1452.68,-238.62C1532.37,-229.55 1694.69,-211.05 1794.59,-199.67"/>
<polygon fill="midnightblue" stroke="midnightblue" points="1795.12,-203.14 1804.65,-198.53 1794.32,-196.18 1795.12,-203.14"/>
</g>
<!-- Node33 -->
<g id="node33" class="node">
<title>Node33</title>
<g id="a_node33"><a xlink:title=" ">
<polygon fill="none" stroke="#bfbfbf" points="1973.5,-179.5 1973.5,-198.5 2135.5,-198.5 2135.5,-179.5 1973.5,-179.5"/>
<text text-anchor="middle" x="2054.5" y="-186.5" font-family="Helvetica,sans-Serif" font-size="10.00">boost/qvm/deduce_scalar.hpp</text>
</a>
</g>
</g>
<!-- Node25&#45;&gt;Node33 -->
<g id="edge45" class="edge">
<title>Node25&#45;&gt;Node33</title>
<path fill="none" stroke="midnightblue" d="M1452.64,-240.51C1547.25,-233.45 1767.24,-216.69 1962.89,-199.13"/>
<polygon fill="midnightblue" stroke="midnightblue" points="1963.43,-202.6 1973.07,-198.21 1962.8,-195.62 1963.43,-202.6"/>
</g>
<!-- Node34 -->
<g id="node34" class="node">
<title>Node34</title>
<g id="a_node34"><a xlink:title=" ">
<polygon fill="none" stroke="#bfbfbf" points="2153.5,-179.5 2153.5,-198.5 2317.5,-198.5 2317.5,-179.5 2153.5,-179.5"/>
<text text-anchor="middle" x="2235.5" y="-186.5" font-family="Helvetica,sans-Serif" font-size="10.00">boost/qvm/map_mat_mat.hpp</text>
</a>
</g>
</g>
<!-- Node25&#45;&gt;Node34 -->
<g id="edge47" class="edge">
<title>Node25&#45;&gt;Node34</title>
<path fill="none" stroke="midnightblue" d="M1452.66,-241.75C1568.32,-236.09 1875.51,-220.26 2142.88,-199.1"/>
<polygon fill="midnightblue" stroke="midnightblue" points="2143.48,-202.56 2153.17,-198.28 2142.93,-195.59 2143.48,-202.56"/>
</g>
<!-- Node35 -->
<g id="node35" class="node">
<title>Node35</title>
<g id="a_node35"><a xlink:title=" ">
<polygon fill="none" stroke="#bfbfbf" points="2336,-179.5 2336,-198.5 2497,-198.5 2497,-179.5 2336,-179.5"/>
<text text-anchor="middle" x="2416.5" y="-186.5" font-family="Helvetica,sans-Serif" font-size="10.00">boost/qvm/map_mat_vec.hpp</text>
</a>
</g>
</g>
<!-- Node25&#45;&gt;Node35 -->
<g id="edge48" class="edge">
<title>Node25&#45;&gt;Node35</title>
<path fill="none" stroke="midnightblue" d="M1452.52,-242.55C1586.87,-238.22 1984.18,-224.16 2325.48,-199.04"/>
<polygon fill="midnightblue" stroke="midnightblue" points="2325.85,-202.52 2335.56,-198.29 2325.33,-195.54 2325.85,-202.52"/>
</g>
<!-- Node36 -->
<g id="node36" class="node">
<title>Node36</title>
<g id="a_node36"><a xlink:title=" ">
<polygon fill="none" stroke="#bfbfbf" points="2515,-179.5 2515,-198.5 2676,-198.5 2676,-179.5 2515,-179.5"/>
<text text-anchor="middle" x="2595.5" y="-186.5" font-family="Helvetica,sans-Serif" font-size="10.00">boost/qvm/map_vec_mat.hpp</text>
</a>
</g>
</g>
<!-- Node25&#45;&gt;Node36 -->
<g id="edge49" class="edge">
<title>Node25&#45;&gt;Node36</title>
<path fill="none" stroke="midnightblue" d="M1452.5,-243.09C1603.64,-239.93 2090.91,-228.11 2504.92,-199.07"/>
<polygon fill="midnightblue" stroke="midnightblue" points="2505.26,-202.56 2514.99,-198.36 2504.77,-195.57 2505.26,-202.56"/>
</g>
<!-- Node37 -->
<g id="node37" class="node">
<title>Node37</title>
<g id="a_node37"><a xlink:title=" ">
<polygon fill="none" stroke="#bfbfbf" points="2694.5,-179.5 2694.5,-198.5 2806.5,-198.5 2806.5,-179.5 2694.5,-179.5"/>
<text text-anchor="middle" x="2750.5" y="-186.5" font-family="Helvetica,sans-Serif" font-size="10.00">boost/qvm/mat.hpp</text>
</a>
</g>
</g>
<!-- Node25&#45;&gt;Node37 -->
<g id="edge50" class="edge">
<title>Node25&#45;&gt;Node37</title>
<path fill="none" stroke="midnightblue" d="M1452.68,-244.08C1619.52,-244.01 2197.36,-240.62 2684.13,-199.02"/>
<polygon fill="midnightblue" stroke="midnightblue" points="2684.51,-202.5 2694.17,-198.16 2683.91,-195.53 2684.51,-202.5"/>
</g>
<!-- Node38 -->
<g id="node38" class="node">
<title>Node38</title>
<g id="a_node38"><a xlink:title=" ">
<polygon fill="none" stroke="#bfbfbf" points="2824.5,-179.5 2824.5,-198.5 2974.5,-198.5 2974.5,-179.5 2824.5,-179.5"/>
<text text-anchor="middle" x="2899.5" y="-186.5" font-family="Helvetica,sans-Serif" font-size="10.00">boost/qvm/mat_access.hpp</text>
</a>
</g>
</g>
<!-- Node25&#45;&gt;Node38 -->
<g id="edge51" class="edge">
<title>Node25&#45;&gt;Node38</title>
<path fill="none" stroke="midnightblue" d="M1452.73,-243.77C1630.05,-242.66 2273.1,-236.17 2814.06,-199.04"/>
<polygon fill="midnightblue" stroke="midnightblue" points="2814.68,-202.51 2824.42,-198.33 2814.2,-195.52 2814.68,-202.51"/>
</g>
<!-- Node39 -->
<g id="node39" class="node">
<title>Node39</title>
<g id="a_node39"><a xlink:title=" ">
<polygon fill="none" stroke="#bfbfbf" points="2993,-179.5 2993,-198.5 3136,-198.5 3136,-179.5 2993,-179.5"/>
<text text-anchor="middle" x="3064.5" y="-186.5" font-family="Helvetica,sans-Serif" font-size="10.00">boost/qvm/mat_traits.hpp</text>
</a>
</g>
</g>
<!-- Node25&#45;&gt;Node39 -->
<g id="edge52" class="edge">
<title>Node25&#45;&gt;Node39</title>
<path fill="none" stroke="midnightblue" d="M1452.69,-244.07C1642.86,-244.04 2371.71,-241.1 2982.64,-198.99"/>
<polygon fill="midnightblue" stroke="midnightblue" points="2983.24,-202.45 2992.98,-198.27 2982.76,-195.47 2983.24,-202.45"/>
</g>
<!-- Node26&#45;&gt;Node15 -->
<g id="edge33" class="edge">
<title>Node26&#45;&gt;Node15</title>
<path fill="none" stroke="midnightblue" d="M982.74,-179.39C1011.55,-168.17 1052.49,-147.12 1034.5,-123 1018.53,-101.59 946.13,-86.01 901.12,-78.19"/>
<polygon fill="midnightblue" stroke="midnightblue" points="901.58,-74.71 891.14,-76.5 900.42,-81.62 901.58,-74.71"/>
</g>
<!-- Node26&#45;&gt;Node23 -->
<g id="edge34" class="edge">
<title>Node26&#45;&gt;Node23</title>
<path fill="none" stroke="midnightblue" d="M982.69,-179.44C1009.44,-170.36 1051.9,-155.94 1081.81,-145.78"/>
<polygon fill="midnightblue" stroke="midnightblue" points="1083.08,-149.05 1091.42,-142.52 1080.83,-142.42 1083.08,-149.05"/>
</g>
</g>
</svg>
