<?xml version="1.0" encoding="UTF-8" standalone="no"?>
<!DOCTYPE svg PUBLIC "-//W3C//DTD SVG 1.1//EN"
 "http://www.w3.org/Graphics/SVG/1.1/DTD/svg11.dtd">
<!-- Generated by graphviz version 2.43.0 (0)
 -->
<!-- Title: Correlator.hpp Pages: 1 -->
<!--zoomable 263 -->
<svg id="main" version="1.1" xmlns="http://www.w3.org/2000/svg" xmlns:xlink="http://www.w3.org/1999/xlink" xml:space="preserve" onload="init(evt)">
<style type="text/css"><![CDATA[
.edge:hover path { stroke: red; }
.edge:hover polygon { stroke: red; fill: red; }
]]></style>
<script type="text/javascript"><![CDATA[
var edges = document.getElementsByTagName('g');
if (edges && edges.length) {
  for (var i=0;i<edges.length;i++) {
    if (edges[i].id.substr(0,4)=='edge') {
      edges[i].setAttribute('class','edge');
    }
  }
}
]]></script>
        <defs>
                <circle id="rim" cx="0" cy="0" r="7"/>
                <circle id="rim2" cx="0" cy="0" r="3.5"/>
                <g id="zoomPlus">
                        <use xlink:href="#rim" fill="#404040">
                                <set attributeName="fill" to="#808080" begin="zoomplus.mouseover" end="zoomplus.mouseout"/>
                        </use>
                        <path d="M-4,0h8M0,-4v8" fill="none" stroke="white" stroke-width="1.5" pointer-events="none"/>
                </g>
                <g id="zoomMin">
                        <use xlink:href="#rim" fill="#404040">
                                <set attributeName="fill" to="#808080" begin="zoomminus.mouseover" end="zoomminus.mouseout"/>
                        </use>
                        <path d="M-4,0h8" fill="none" stroke="white" stroke-width="1.5" pointer-events="none"/>
                </g>
                <g id="dirArrow">
                        <path fill="none" stroke="white" stroke-width="1.5" d="M0,-3.0v7 M-2.5,-0.5L0,-3.0L2.5,-0.5"/>
                </g>
               <g id="resetDef">
                       <use xlink:href="#rim2" fill="#404040">
                               <set attributeName="fill" to="#808080" begin="reset.mouseover" end="reset.mouseout"/>
                       </use>
               </g>
        </defs>

<script type="text/javascript">
var viewWidth = 1287;
var viewHeight = 263;
var sectionId = 'dynsection-0';
</script>
<script xlink:href="svgpan.js"/>
<svg id="graph" class="graph">
<g id="viewport">
<title>Correlator.hpp</title>
<!-- Node1 -->
<g id="node1" class="node">
<title>Node1</title>
<g id="a_node1"><a xlink:title=" ">
<polygon fill="#bfbfbf" stroke="black" points="679.32,-235.5 679.32,-254.5 765.32,-254.5 765.32,-235.5 679.32,-235.5"/>
<text text-anchor="middle" x="722.32" y="-242.5" font-family="Helvetica,sans-Serif" font-size="10.00">Correlator.hpp</text>
</a>
</g>
</g>
<!-- Node2 -->
<g id="node2" class="node">
<title>Node2</title>
<g id="a_node2"><a xlink:href="core_2accumulators_2AccumulatorBase_8hpp.html" target="_top" xlink:title=" ">
<polygon fill="none" stroke="black" points="25.82,-179.5 25.82,-198.5 148.82,-198.5 148.82,-179.5 25.82,-179.5"/>
<text text-anchor="middle" x="87.32" y="-186.5" font-family="Helvetica,sans-Serif" font-size="10.00">AccumulatorBase.hpp</text>
</a>
</g>
</g>
<!-- Node1&#45;&gt;Node2 -->
<g id="edge1" class="edge">
<title>Node1&#45;&gt;Node2</title>
<path fill="none" stroke="midnightblue" d="M679.14,-241.08C585.22,-234.6 355.4,-218.1 163.32,-199 162.02,-198.87 160.71,-198.74 159.38,-198.6"/>
<polygon fill="midnightblue" stroke="midnightblue" points="159.42,-195.09 149.1,-197.51 158.68,-202.05 159.42,-195.09"/>
</g>
<!-- Node3 -->
<g id="node3" class="node">
<title>Node3</title>
<g id="a_node3"><a xlink:title=" ">
<polygon fill="none" stroke="#bfbfbf" points="59.82,-0.5 59.82,-19.5 112.82,-19.5 112.82,-0.5 59.82,-0.5"/>
<text text-anchor="middle" x="86.32" y="-7.5" font-family="Helvetica,sans-Serif" font-size="10.00">cstddef</text>
</a>
</g>
</g>
<!-- Node1&#45;&gt;Node3 -->
<g id="edge33" class="edge">
<title>Node1&#45;&gt;Node3</title>
<path fill="none" stroke="midnightblue" d="M679.23,-242.86C529.41,-238.7 39.09,-223.27 16.32,-199 -31.11,-148.45 37.53,-62.85 70.43,-27.27"/>
<polygon fill="midnightblue" stroke="midnightblue" points="73.24,-29.39 77.57,-19.72 68.15,-24.58 73.24,-29.39"/>
</g>
<!-- Node4 -->
<g id="node4" class="node">
<title>Node4</title>
<g id="a_node4"><a xlink:title=" ">
<polygon fill="none" stroke="#bfbfbf" points="132.82,-123.5 132.82,-142.5 179.82,-142.5 179.82,-123.5 132.82,-123.5"/>
<text text-anchor="middle" x="156.32" y="-130.5" font-family="Helvetica,sans-Serif" font-size="10.00">vector</text>
</a>
</g>
</g>
<!-- Node1&#45;&gt;Node4 -->
<g id="edge37" class="edge">
<title>Node1&#45;&gt;Node4</title>
<path fill="none" stroke="midnightblue" d="M678.97,-242.36C561.34,-237.63 242.21,-222.72 201.32,-199 183.19,-188.48 170.67,-167.37 163.53,-152.06"/>
<polygon fill="midnightblue" stroke="midnightblue" points="166.61,-150.37 159.44,-142.58 160.19,-153.15 166.61,-150.37"/>
</g>
<!-- Node5 -->
<g id="node5" class="node">
<title>Node5</title>
<g id="a_node5"><a xlink:href="integrate_8hpp.html" target="_top" xlink:title=" ">
<polygon fill="none" stroke="black" points="681.32,-179.5 681.32,-198.5 763.32,-198.5 763.32,-179.5 681.32,-179.5"/>
<text text-anchor="middle" x="722.32" y="-186.5" font-family="Helvetica,sans-Serif" font-size="10.00">integrate.hpp</text>
</a>
</g>
</g>
<!-- Node1&#45;&gt;Node5 -->
<g id="edge4" class="edge">
<title>Node1&#45;&gt;Node5</title>
<path fill="none" stroke="midnightblue" d="M722.32,-235.08C722.32,-228.01 722.32,-217.86 722.32,-208.99"/>
<polygon fill="midnightblue" stroke="midnightblue" points="725.82,-208.75 722.32,-198.75 718.82,-208.75 725.82,-208.75"/>
</g>
<!-- Node6 -->
<g id="node6" class="node">
<title>Node6</title>
<g id="a_node6"><a xlink:title=" ">
<polygon fill="none" stroke="#bfbfbf" points="781.82,-179.5 781.82,-198.5 936.82,-198.5 936.82,-179.5 781.82,-179.5"/>
<text text-anchor="middle" x="859.32" y="-186.5" font-family="Helvetica,sans-Serif" font-size="10.00">observables/Observable.hpp</text>
</a>
</g>
</g>
<!-- Node1&#45;&gt;Node6 -->
<g id="edge5" class="edge">
<title>Node1&#45;&gt;Node6</title>
<path fill="none" stroke="midnightblue" d="M744.03,-235.44C766.68,-226.52 802.39,-212.44 828.07,-202.32"/>
<polygon fill="midnightblue" stroke="midnightblue" points="829.7,-205.44 837.72,-198.52 827.13,-198.93 829.7,-205.44"/>
</g>
<!-- Node7 -->
<g id="node7" class="node">
<title>Node7</title>
<g id="a_node7"><a xlink:href="Vector_8hpp.html" target="_top" xlink:title=" ">
<polygon fill="none" stroke="black" points="569.82,-179.5 569.82,-198.5 662.82,-198.5 662.82,-179.5 569.82,-179.5"/>
<text text-anchor="middle" x="616.32" y="-186.5" font-family="Helvetica,sans-Serif" font-size="10.00">utils/Vector.hpp</text>
</a>
</g>
</g>
<!-- Node1&#45;&gt;Node7 -->
<g id="edge6" class="edge">
<title>Node1&#45;&gt;Node7</title>
<path fill="none" stroke="midnightblue" d="M705.29,-235.32C688.29,-226.66 661.95,-213.24 642.33,-203.25"/>
<polygon fill="midnightblue" stroke="midnightblue" points="643.81,-200.08 633.31,-198.65 640.63,-206.31 643.81,-200.08"/>
</g>
<!-- Node15 -->
<g id="node15" class="node">
<title>Node15</title>
<g id="a_node15"><a xlink:title=" ">
<polygon fill="none" stroke="#bfbfbf" points="114.82,-56.5 114.82,-86.5 221.82,-86.5 221.82,-56.5 114.82,-56.5"/>
<text text-anchor="start" x="122.82" y="-74.5" font-family="Helvetica,sans-Serif" font-size="10.00">boost/serialization</text>
<text text-anchor="middle" x="168.32" y="-63.5" font-family="Helvetica,sans-Serif" font-size="10.00">/access.hpp</text>
</a>
</g>
</g>
<!-- Node1&#45;&gt;Node15 -->
<g id="edge32" class="edge">
<title>Node1&#45;&gt;Node15</title>
<path fill="none" stroke="midnightblue" d="M679.22,-240.39C595.94,-232.15 408.51,-207.46 265.32,-143 237.54,-130.49 209.82,-109.25 191.18,-93.34"/>
<polygon fill="midnightblue" stroke="midnightblue" points="193.36,-90.6 183.52,-86.67 188.77,-95.88 193.36,-90.6"/>
</g>
<!-- Node25 -->
<g id="node25" class="node">
<title>Node25</title>
<g id="a_node25"><a xlink:title=" ">
<polygon fill="none" stroke="#bfbfbf" points="955.32,-179.5 955.32,-198.5 1077.32,-198.5 1077.32,-179.5 955.32,-179.5"/>
<text text-anchor="middle" x="1016.32" y="-186.5" font-family="Helvetica,sans-Serif" font-size="10.00">boost/multi_array.hpp</text>
</a>
</g>
</g>
<!-- Node1&#45;&gt;Node25 -->
<g id="edge31" class="edge">
<title>Node1&#45;&gt;Node25</title>
<path fill="none" stroke="midnightblue" d="M765.39,-236.09C816.85,-226.64 903.09,-210.8 959.85,-200.37"/>
<polygon fill="midnightblue" stroke="midnightblue" points="960.54,-203.8 969.74,-198.56 959.27,-196.92 960.54,-203.8"/>
</g>
<!-- Node26 -->
<g id="node26" class="node">
<title>Node26</title>
<g id="a_node26"><a xlink:title=" ">
<polygon fill="none" stroke="#bfbfbf" points="1095.32,-179.5 1095.32,-198.5 1153.32,-198.5 1153.32,-179.5 1095.32,-179.5"/>
<text text-anchor="middle" x="1124.32" y="-186.5" font-family="Helvetica,sans-Serif" font-size="10.00">memory</text>
</a>
</g>
</g>
<!-- Node1&#45;&gt;Node26 -->
<g id="edge34" class="edge">
<title>Node1&#45;&gt;Node26</title>
<path fill="none" stroke="midnightblue" d="M765.42,-240.21C831.92,-234.04 963.7,-220.46 1084.75,-199.12"/>
<polygon fill="midnightblue" stroke="midnightblue" points="1085.7,-202.5 1094.93,-197.3 1084.47,-195.61 1085.7,-202.5"/>
</g>
<!-- Node27 -->
<g id="node27" class="node">
<title>Node27</title>
<g id="a_node27"><a xlink:title=" ">
<polygon fill="none" stroke="#bfbfbf" points="1171.32,-179.5 1171.32,-198.5 1215.32,-198.5 1215.32,-179.5 1171.32,-179.5"/>
<text text-anchor="middle" x="1193.32" y="-186.5" font-family="Helvetica,sans-Serif" font-size="10.00">string</text>
</a>
</g>
</g>
<!-- Node1&#45;&gt;Node27 -->
<g id="edge35" class="edge">
<title>Node1&#45;&gt;Node27</title>
<path fill="none" stroke="midnightblue" d="M765.48,-242.17C843.04,-238.33 1011.12,-227.46 1161.23,-198.88"/>
<polygon fill="midnightblue" stroke="midnightblue" points="1161.94,-202.31 1171.09,-196.98 1160.61,-195.44 1161.94,-202.31"/>
</g>
<!-- Node28 -->
<g id="node28" class="node">
<title>Node28</title>
<g id="a_node28"><a xlink:title=" ">
<polygon fill="none" stroke="#bfbfbf" points="1233.82,-179.5 1233.82,-198.5 1278.82,-198.5 1278.82,-179.5 1233.82,-179.5"/>
<text text-anchor="middle" x="1256.32" y="-186.5" font-family="Helvetica,sans-Serif" font-size="10.00">utility</text>
</a>
</g>
</g>
<!-- Node1&#45;&gt;Node28 -->
<g id="edge36" class="edge">
<title>Node1&#45;&gt;Node28</title>
<path fill="none" stroke="midnightblue" d="M765.33,-242.82C850.94,-239.89 1048.77,-230.25 1223.82,-198.73"/>
<polygon fill="midnightblue" stroke="midnightblue" points="1224.51,-202.16 1233.72,-196.92 1223.25,-195.27 1224.51,-202.16"/>
</g>
<!-- Node2&#45;&gt;Node3 -->
<g id="edge2" class="edge">
<title>Node2&#45;&gt;Node3</title>
<path fill="none" stroke="midnightblue" d="M84.76,-179.32C78.84,-158.17 65.29,-102.29 72.32,-56 73.69,-47 76.51,-37.33 79.27,-29.26"/>
<polygon fill="midnightblue" stroke="midnightblue" points="82.59,-30.37 82.72,-19.78 76.01,-27.98 82.59,-30.37"/>
</g>
<!-- Node2&#45;&gt;Node4 -->
<g id="edge3" class="edge">
<title>Node2&#45;&gt;Node4</title>
<path fill="none" stroke="midnightblue" d="M98.41,-179.32C108.81,-171.18 124.58,-158.84 137.04,-149.09"/>
<polygon fill="midnightblue" stroke="midnightblue" points="139.32,-151.75 145.03,-142.83 135,-146.24 139.32,-151.75"/>
</g>
<!-- Node7&#45;&gt;Node3 -->
<g id="edge24" class="edge">
<title>Node7&#45;&gt;Node3</title>
<path fill="none" stroke="midnightblue" d="M569.78,-185.14C502.03,-180.28 372.64,-168.37 265.32,-143 246.99,-138.67 118.02,-100.91 105.32,-87 91.17,-71.49 87.18,-47.05 86.24,-30.09"/>
<polygon fill="midnightblue" stroke="midnightblue" points="89.73,-29.66 85.99,-19.74 82.73,-29.83 89.73,-29.66"/>
</g>
<!-- Node7&#45;&gt;Node4 -->
<g id="edge30" class="edge">
<title>Node7&#45;&gt;Node4</title>
<path fill="none" stroke="midnightblue" d="M569.62,-182.55C497.33,-174.1 353.98,-157.33 232.32,-143 218.47,-141.37 203.21,-139.56 190.01,-138"/>
<polygon fill="midnightblue" stroke="midnightblue" points="190.29,-134.51 179.94,-136.8 189.46,-141.46 190.29,-134.51"/>
</g>
<!-- Node8 -->
<g id="node8" class="node">
<title>Node8</title>
<g id="a_node8"><a xlink:title=" ">
<polygon fill="none" stroke="#bfbfbf" points="378.32,-123.5 378.32,-142.5 528.32,-142.5 528.32,-123.5 378.32,-123.5"/>
<text text-anchor="middle" x="453.32" y="-130.5" font-family="Helvetica,sans-Serif" font-size="10.00">boost/qvm/deduce_vec.hpp</text>
</a>
</g>
</g>
<!-- Node7&#45;&gt;Node8 -->
<g id="edge7" class="edge">
<title>Node7&#45;&gt;Node8</title>
<path fill="none" stroke="midnightblue" d="M590.49,-179.44C563.07,-170.36 519.55,-155.94 488.89,-145.78"/>
<polygon fill="midnightblue" stroke="midnightblue" points="489.62,-142.34 479.03,-142.52 487.42,-148.98 489.62,-142.34"/>
</g>
<!-- Node9 -->
<g id="node9" class="node">
<title>Node9</title>
<g id="a_node9"><a xlink:title=" ">
<polygon fill="none" stroke="#bfbfbf" points="546.32,-123.5 546.32,-142.5 686.32,-142.5 686.32,-123.5 546.32,-123.5"/>
<text text-anchor="middle" x="616.32" y="-130.5" font-family="Helvetica,sans-Serif" font-size="10.00">boost/qvm/vec_traits.hpp</text>
</a>
</g>
</g>
<!-- Node7&#45;&gt;Node9 -->
<g id="edge8" class="edge">
<title>Node7&#45;&gt;Node9</title>
<path fill="none" stroke="midnightblue" d="M616.32,-179.08C616.32,-172.01 616.32,-161.86 616.32,-152.99"/>
<polygon fill="midnightblue" stroke="midnightblue" points="619.82,-152.75 616.32,-142.75 612.82,-152.75 619.82,-152.75"/>
</g>
<!-- Node10 -->
<g id="node10" class="node">
<title>Node10</title>
<g id="a_node10"><a xlink:href="Array_8hpp.html" target="_top" xlink:title=" ">
<polygon fill="none" stroke="black" points="274.32,-123.5 274.32,-142.5 360.32,-142.5 360.32,-123.5 274.32,-123.5"/>
<text text-anchor="middle" x="317.32" y="-130.5" font-family="Helvetica,sans-Serif" font-size="10.00">utils/Array.hpp</text>
</a>
</g>
</g>
<!-- Node7&#45;&gt;Node10 -->
<g id="edge9" class="edge">
<title>Node7&#45;&gt;Node10</title>
<path fill="none" stroke="midnightblue" d="M569.6,-179.56C515.8,-169.84 427.56,-153.91 370.98,-143.69"/>
<polygon fill="midnightblue" stroke="midnightblue" points="371.26,-140.19 360.8,-141.85 370.02,-147.07 371.26,-140.19"/>
</g>
<!-- Node12 -->
<g id="node12" class="node">
<title>Node12</title>
<g id="a_node12"><a xlink:title=" ">
<polygon fill="none" stroke="#bfbfbf" points="578.32,-0.5 578.32,-19.5 630.32,-19.5 630.32,-0.5 578.32,-0.5"/>
<text text-anchor="middle" x="604.32" y="-7.5" font-family="Helvetica,sans-Serif" font-size="10.00">cassert</text>
</a>
</g>
</g>
<!-- Node7&#45;&gt;Node12 -->
<g id="edge22" class="edge">
<title>Node7&#45;&gt;Node12</title>
<path fill="none" stroke="midnightblue" d="M646.83,-179.49C667.58,-172.46 694.56,-160.71 713.32,-143 743.06,-114.92 767.38,-89.08 743.32,-56 720.03,-23.98 673.46,-14.28 640.66,-11.58"/>
<polygon fill="midnightblue" stroke="midnightblue" points="640.75,-8.08 630.54,-10.93 640.3,-15.07 640.75,-8.08"/>
</g>
<!-- Node16 -->
<g id="node16" class="node">
<title>Node16</title>
<g id="a_node16"><a xlink:title=" ">
<polygon fill="none" stroke="#bfbfbf" points="680.82,-62 680.82,-81 733.82,-81 733.82,-62 680.82,-62"/>
<text text-anchor="middle" x="707.32" y="-69" font-family="Helvetica,sans-Serif" font-size="10.00">iterator</text>
</a>
</g>
</g>
<!-- Node7&#45;&gt;Node16 -->
<g id="edge27" class="edge">
<title>Node7&#45;&gt;Node16</title>
<path fill="none" stroke="midnightblue" d="M643.62,-179.35C661.17,-172.36 682.92,-160.71 695.32,-143 705.88,-127.93 708.23,-106.67 708.34,-91.45"/>
<polygon fill="midnightblue" stroke="midnightblue" points="711.84,-91.1 708.09,-81.19 704.84,-91.27 711.84,-91.1"/>
</g>
<!-- Node19 -->
<g id="node19" class="node">
<title>Node19</title>
<g id="a_node19"><a xlink:title=" ">
<polygon fill="none" stroke="#bfbfbf" points="780.32,-123.5 780.32,-142.5 844.32,-142.5 844.32,-123.5 780.32,-123.5"/>
<text text-anchor="middle" x="812.32" y="-130.5" font-family="Helvetica,sans-Serif" font-size="10.00">algorithm</text>
</a>
</g>
</g>
<!-- Node7&#45;&gt;Node19 -->
<g id="edge21" class="edge">
<title>Node7&#45;&gt;Node19</title>
<path fill="none" stroke="midnightblue" d="M647.38,-179.44C680.93,-170.2 734.52,-155.44 771.46,-145.26"/>
<polygon fill="midnightblue" stroke="midnightblue" points="772.7,-148.55 781.41,-142.52 770.84,-141.8 772.7,-148.55"/>
</g>
<!-- Node20 -->
<g id="node20" class="node">
<title>Node20</title>
<g id="a_node20"><a xlink:title=" ">
<polygon fill="none" stroke="#bfbfbf" points="862.82,-123.5 862.82,-142.5 909.82,-142.5 909.82,-123.5 862.82,-123.5"/>
<text text-anchor="middle" x="886.32" y="-130.5" font-family="Helvetica,sans-Serif" font-size="10.00">cmath</text>
</a>
</g>
</g>
<!-- Node7&#45;&gt;Node20 -->
<g id="edge23" class="edge">
<title>Node7&#45;&gt;Node20</title>
<path fill="none" stroke="midnightblue" d="M662.87,-180.28C708.67,-172.43 780.78,-159.41 852.48,-143.04"/>
<polygon fill="midnightblue" stroke="midnightblue" points="853.63,-146.37 862.59,-140.71 852.06,-139.55 853.63,-146.37"/>
</g>
<!-- Node21 -->
<g id="node21" class="node">
<title>Node21</title>
<g id="a_node21"><a xlink:title=" ">
<polygon fill="none" stroke="#bfbfbf" points="927.82,-123.5 927.82,-142.5 992.82,-142.5 992.82,-123.5 927.82,-123.5"/>
<text text-anchor="middle" x="960.32" y="-130.5" font-family="Helvetica,sans-Serif" font-size="10.00">functional</text>
</a>
</g>
</g>
<!-- Node7&#45;&gt;Node21 -->
<g id="edge25" class="edge">
<title>Node7&#45;&gt;Node21</title>
<path fill="none" stroke="midnightblue" d="M663.07,-180.44C666.2,-179.94 669.31,-179.46 672.32,-179 778.77,-162.69 808.46,-162.88 917.59,-143.22"/>
<polygon fill="midnightblue" stroke="midnightblue" points="918.48,-146.61 927.69,-141.38 917.23,-139.73 918.48,-146.61"/>
</g>
<!-- Node22 -->
<g id="node22" class="node">
<title>Node22</title>
<g id="a_node22"><a xlink:title=" ">
<polygon fill="none" stroke="#bfbfbf" points="1010.82,-123.5 1010.82,-142.5 1093.82,-142.5 1093.82,-123.5 1010.82,-123.5"/>
<text text-anchor="middle" x="1052.32" y="-130.5" font-family="Helvetica,sans-Serif" font-size="10.00">initializer_list</text>
</a>
</g>
</g>
<!-- Node7&#45;&gt;Node22 -->
<g id="edge26" class="edge">
<title>Node7&#45;&gt;Node22</title>
<path fill="none" stroke="midnightblue" d="M663.05,-180.31C666.18,-179.85 669.3,-179.41 672.32,-179 815.25,-159.73 854.55,-163.88 1000.39,-143.2"/>
<polygon fill="midnightblue" stroke="midnightblue" points="1001.21,-146.61 1010.62,-141.73 1000.22,-139.69 1001.21,-146.61"/>
</g>
<!-- Node23 -->
<g id="node23" class="node">
<title>Node23</title>
<g id="a_node23"><a xlink:title=" ">
<polygon fill="none" stroke="#bfbfbf" points="1112.32,-123.5 1112.32,-142.5 1168.32,-142.5 1168.32,-123.5 1112.32,-123.5"/>
<text text-anchor="middle" x="1140.32" y="-130.5" font-family="Helvetica,sans-Serif" font-size="10.00">numeric</text>
</a>
</g>
</g>
<!-- Node7&#45;&gt;Node23 -->
<g id="edge28" class="edge">
<title>Node7&#45;&gt;Node23</title>
<path fill="none" stroke="midnightblue" d="M663.04,-180.22C666.18,-179.78 669.29,-179.37 672.32,-179 859.87,-156.13 911.82,-173.2 1102.08,-142.96"/>
<polygon fill="midnightblue" stroke="midnightblue" points="1102.82,-146.38 1112.13,-141.33 1101.7,-139.47 1102.82,-146.38"/>
</g>
<!-- Node24 -->
<g id="node24" class="node">
<title>Node24</title>
<g id="a_node24"><a xlink:title=" ">
<polygon fill="none" stroke="#bfbfbf" points="1186.82,-123.5 1186.82,-142.5 1255.82,-142.5 1255.82,-123.5 1186.82,-123.5"/>
<text text-anchor="middle" x="1221.32" y="-130.5" font-family="Helvetica,sans-Serif" font-size="10.00">type_traits</text>
</a>
</g>
</g>
<!-- Node7&#45;&gt;Node24 -->
<g id="edge29" class="edge">
<title>Node7&#45;&gt;Node24</title>
<path fill="none" stroke="midnightblue" d="M663.03,-180.18C666.17,-179.75 669.29,-179.35 672.32,-179 892.57,-153.5 952.65,-173.02 1176.71,-142.88"/>
<polygon fill="midnightblue" stroke="midnightblue" points="1177.37,-146.32 1186.81,-141.5 1176.43,-139.39 1177.37,-146.32"/>
</g>
<!-- Node10&#45;&gt;Node3 -->
<g id="edge17" class="edge">
<title>Node10&#45;&gt;Node3</title>
<path fill="none" stroke="midnightblue" d="M308.34,-123.29C289.79,-105.45 247.56,-65.65 230.32,-56 196.28,-36.94 153.11,-24.83 122.95,-18.03"/>
<polygon fill="midnightblue" stroke="midnightblue" points="123.38,-14.54 112.87,-15.84 121.9,-21.38 123.38,-14.54"/>
</g>
<!-- Node11 -->
<g id="node11" class="node">
<title>Node11</title>
<g id="a_node11"><a xlink:href="device__qualifier_8hpp.html" target="_top" xlink:title=" ">
<polygon fill="none" stroke="black" points="546.32,-62 546.32,-81 662.32,-81 662.32,-62 546.32,-62"/>
<text text-anchor="middle" x="604.32" y="-69" font-family="Helvetica,sans-Serif" font-size="10.00">device_qualifier.hpp</text>
</a>
</g>
</g>
<!-- Node10&#45;&gt;Node11 -->
<g id="edge10" class="edge">
<title>Node10&#45;&gt;Node11</title>
<path fill="none" stroke="midnightblue" d="M358.44,-123.48C409.8,-112.83 497.68,-94.61 553.29,-83.08"/>
<polygon fill="midnightblue" stroke="midnightblue" points="554.2,-86.47 563.28,-81.01 552.78,-79.61 554.2,-86.47"/>
</g>
<!-- Node10&#45;&gt;Node12 -->
<g id="edge16" class="edge">
<title>Node10&#45;&gt;Node12</title>
<path fill="none" stroke="midnightblue" d="M360.44,-123.62C406.22,-114.32 475.23,-99.04 499.32,-87 518.82,-77.26 519.81,-68.98 537.32,-56 551.96,-45.15 569.01,-33.72 582.24,-25.09"/>
<polygon fill="midnightblue" stroke="midnightblue" points="584.23,-27.98 590.72,-19.61 580.42,-22.1 584.23,-27.98"/>
</g>
<!-- Node13 -->
<g id="node13" class="node">
<title>Node13</title>
<g id="a_node13"><a xlink:href="get_8hpp.html" target="_top" xlink:title=" ">
<polygon fill="none" stroke="black" points="436.82,-62 436.82,-81 489.82,-81 489.82,-62 436.82,-62"/>
<text text-anchor="middle" x="463.32" y="-69" font-family="Helvetica,sans-Serif" font-size="10.00">get.hpp</text>
</a>
</g>
</g>
<!-- Node10&#45;&gt;Node13 -->
<g id="edge12" class="edge">
<title>Node10&#45;&gt;Node13</title>
<path fill="none" stroke="midnightblue" d="M338.62,-123.42C360.98,-114.4 397.15,-99.77 428.32,-87 429.91,-86.35 431.54,-85.68 433.19,-85"/>
<polygon fill="midnightblue" stroke="midnightblue" points="434.7,-88.16 442.61,-81.11 432.03,-81.69 434.7,-88.16"/>
</g>
<!-- Node10&#45;&gt;Node15 -->
<g id="edge15" class="edge">
<title>Node10&#45;&gt;Node15</title>
<path fill="none" stroke="midnightblue" d="M295.97,-123.48C274.38,-114.85 240.35,-101.26 212.86,-90.29"/>
<polygon fill="midnightblue" stroke="midnightblue" points="214.02,-86.98 203.44,-86.52 211.43,-93.48 214.02,-86.98"/>
</g>
<!-- Node10&#45;&gt;Node16 -->
<g id="edge18" class="edge">
<title>Node10&#45;&gt;Node16</title>
<path fill="none" stroke="midnightblue" d="M360.42,-124.36C363.43,-123.88 366.42,-123.42 369.32,-123 503.08,-103.47 540.38,-120.54 671.32,-87 673.84,-86.36 676.41,-85.58 678.96,-84.72"/>
<polygon fill="midnightblue" stroke="midnightblue" points="680.43,-87.91 688.58,-81.14 677.99,-81.35 680.43,-87.91"/>
</g>
<!-- Node17 -->
<g id="node17" class="node">
<title>Node17</title>
<g id="a_node17"><a xlink:title=" ">
<polygon fill="none" stroke="#bfbfbf" points="278.82,-62 278.82,-81 335.82,-81 335.82,-62 278.82,-62"/>
<text text-anchor="middle" x="307.32" y="-69" font-family="Helvetica,sans-Serif" font-size="10.00">ostream</text>
</a>
</g>
</g>
<!-- Node10&#45;&gt;Node17 -->
<g id="edge19" class="edge">
<title>Node10&#45;&gt;Node17</title>
<path fill="none" stroke="midnightblue" d="M315.89,-123.48C314.48,-115.08 312.28,-101.98 310.46,-91.16"/>
<polygon fill="midnightblue" stroke="midnightblue" points="313.86,-90.29 308.75,-81.01 306.96,-91.45 313.86,-90.29"/>
</g>
<!-- Node18 -->
<g id="node18" class="node">
<title>Node18</title>
<g id="a_node18"><a xlink:title=" ">
<polygon fill="none" stroke="#bfbfbf" points="353.82,-62 353.82,-81 418.82,-81 418.82,-62 353.82,-62"/>
<text text-anchor="middle" x="386.32" y="-69" font-family="Helvetica,sans-Serif" font-size="10.00">stdexcept</text>
</a>
</g>
</g>
<!-- Node10&#45;&gt;Node18 -->
<g id="edge20" class="edge">
<title>Node10&#45;&gt;Node18</title>
<path fill="none" stroke="midnightblue" d="M327.21,-123.48C337.97,-114.2 355.39,-99.17 368.54,-87.83"/>
<polygon fill="midnightblue" stroke="midnightblue" points="371.17,-90.19 376.45,-81.01 366.6,-84.89 371.17,-90.19"/>
</g>
<!-- Node11&#45;&gt;Node12 -->
<g id="edge11" class="edge">
<title>Node11&#45;&gt;Node12</title>
<path fill="none" stroke="midnightblue" d="M604.32,-61.98C604.32,-53.58 604.32,-40.48 604.32,-29.66"/>
<polygon fill="midnightblue" stroke="midnightblue" points="607.82,-29.51 604.32,-19.51 600.82,-29.51 607.82,-29.51"/>
</g>
<!-- Node13&#45;&gt;Node3 -->
<g id="edge13" class="edge">
<title>Node13&#45;&gt;Node3</title>
<path fill="none" stroke="midnightblue" d="M445.11,-61.9C439.8,-59.68 433.91,-57.5 428.32,-56 319.78,-26.92 186.61,-16.29 123.23,-12.69"/>
<polygon fill="midnightblue" stroke="midnightblue" points="123.13,-9.18 112.95,-12.13 122.75,-16.17 123.13,-9.18"/>
</g>
<!-- Node14 -->
<g id="node14" class="node">
<title>Node14</title>
<g id="a_node14"><a xlink:title=" ">
<polygon fill="none" stroke="#bfbfbf" points="442.82,-0.5 442.82,-19.5 483.82,-19.5 483.82,-0.5 442.82,-0.5"/>
<text text-anchor="middle" x="463.32" y="-7.5" font-family="Helvetica,sans-Serif" font-size="10.00">tuple</text>
</a>
</g>
</g>
<!-- Node13&#45;&gt;Node14 -->
<g id="edge14" class="edge">
<title>Node13&#45;&gt;Node14</title>
<path fill="none" stroke="midnightblue" d="M463.32,-61.98C463.32,-53.58 463.32,-40.48 463.32,-29.66"/>
<polygon fill="midnightblue" stroke="midnightblue" points="466.82,-29.51 463.32,-19.51 459.82,-29.51 466.82,-29.51"/>
</g>
</g>
</svg>
        <g id="navigator" transform="translate(0 0)" fill="#404254">
                <rect fill="#f2f5e9" fill-opacity="0.5" stroke="#606060" stroke-width=".5" x="0" y="0" width="60" height="60"/>
                <use id="zoomplus" xlink:href="#zoomPlus" x="17" y="9" onmousedown="handleZoom(evt,'in')"/>
                <use id="zoomminus" xlink:href="#zoomMin" x="42" y="9" onmousedown="handleZoom(evt,'out')"/>
                <use id="reset" xlink:href="#resetDef" x="30" y="36" onmousedown="handleReset()"/>
                <g id="arrowUp" xlink:href="#dirArrow" transform="translate(30 24)" onmousedown="handlePan(0,-1)">
                  <use xlink:href="#rim" fill="#404040">
                        <set attributeName="fill" to="#808080" begin="arrowUp.mouseover" end="arrowUp.mouseout"/>
                  </use>
                  <path fill="none" stroke="white" stroke-width="1.5" d="M0,-3.0v7 M-2.5,-0.5L0,-3.0L2.5,-0.5"/>
                </g>
                <g id="arrowRight" xlink:href="#dirArrow" transform="rotate(90) translate(36 -43)" onmousedown="handlePan(1,0)">
                  <use xlink:href="#rim" fill="#404040">
                        <set attributeName="fill" to="#808080" begin="arrowRight.mouseover" end="arrowRight.mouseout"/>
                  </use>
                  <path fill="none" stroke="white" stroke-width="1.5" d="M0,-3.0v7 M-2.5,-0.5L0,-3.0L2.5,-0.5"/>
                </g>
                <g id="arrowDown" xlink:href="#dirArrow" transform="rotate(180) translate(-30 -48)" onmousedown="handlePan(0,1)">
                  <use xlink:href="#rim" fill="#404040">
                        <set attributeName="fill" to="#808080" begin="arrowDown.mouseover" end="arrowDown.mouseout"/>
                  </use>
                  <path fill="none" stroke="white" stroke-width="1.5" d="M0,-3.0v7 M-2.5,-0.5L0,-3.0L2.5,-0.5"/>
                </g>
                <g id="arrowLeft" xlink:href="#dirArrow" transform="rotate(270) translate(-36 17)" onmousedown="handlePan(-1,0)">
                  <use xlink:href="#rim" fill="#404040">
                        <set attributeName="fill" to="#808080" begin="arrowLeft.mouseover" end="arrowLeft.mouseout"/>
                  </use>
                  <path fill="none" stroke="white" stroke-width="1.5" d="M0,-3.0v7 M-2.5,-0.5L0,-3.0L2.5,-0.5"/>
                </g>
        </g>
        <svg viewBox="0 0 15 15" width="100%" height="30px" preserveAspectRatio="xMaxYMin meet">
         <g id="arrow_out" transform="scale(0.3 0.3)">
          <a xlink:href="core_2accumulators_2Correlator_8hpp__incl_org.svg" target="_base">
           <rect id="button" ry="5" rx="5" y="6" x="6" height="38" width="38"
                fill="#f2f5e9" fill-opacity="0.5" stroke="#606060" stroke-width="1.0"/>
           <path id="arrow"
             d="M 11.500037,31.436501 C 11.940474,20.09759 22.043105,11.32322 32.158766,21.979434 L 37.068811,17.246167 C 37.068811,17.246167 37.088388,32 37.088388,32 L 22.160133,31.978069 C 22.160133,31.978069 26.997745,27.140456 26.997745,27.140456 C 18.528582,18.264221 13.291696,25.230495 11.500037,31.436501 z"
             style="fill:#404040;"/>
          </a>
         </g>
        </svg>
</svg>
