<?xml version="1.0" encoding="UTF-8" standalone="no"?>
<!DOCTYPE svg PUBLIC "-//W3C//DTD SVG 1.1//EN"
 "http://www.w3.org/Graphics/SVG/1.1/DTD/svg11.dtd">
<!-- Generated by graphviz version 2.43.0 (0)
 -->
<!-- Title: ComFixed.hpp Pages: 1 -->
<!--zoomable 274 -->
<svg id="main" version="1.1" xmlns="http://www.w3.org/2000/svg" xmlns:xlink="http://www.w3.org/1999/xlink" xml:space="preserve" onload="init(evt)">
<style type="text/css"><![CDATA[
.edge:hover path { stroke: red; }
.edge:hover polygon { stroke: red; fill: red; }
]]></style>
<script type="text/javascript"><![CDATA[
var edges = document.getElementsByTagName('g');
if (edges && edges.length) {
  for (var i=0;i<edges.length;i++) {
    if (edges[i].id.substr(0,4)=='edge') {
      edges[i].setAttribute('class','edge');
    }
  }
}
]]></script>
        <defs>
                <circle id="rim" cx="0" cy="0" r="7"/>
                <circle id="rim2" cx="0" cy="0" r="3.5"/>
                <g id="zoomPlus">
                        <use xlink:href="#rim" fill="#404040">
                                <set attributeName="fill" to="#808080" begin="zoomplus.mouseover" end="zoomplus.mouseout"/>
                        </use>
                        <path d="M-4,0h8M0,-4v8" fill="none" stroke="white" stroke-width="1.5" pointer-events="none"/>
                </g>
                <g id="zoomMin">
                        <use xlink:href="#rim" fill="#404040">
                                <set attributeName="fill" to="#808080" begin="zoomminus.mouseover" end="zoomminus.mouseout"/>
                        </use>
                        <path d="M-4,0h8" fill="none" stroke="white" stroke-width="1.5" pointer-events="none"/>
                </g>
                <g id="dirArrow">
                        <path fill="none" stroke="white" stroke-width="1.5" d="M0,-3.0v7 M-2.5,-0.5L0,-3.0L2.5,-0.5"/>
                </g>
               <g id="resetDef">
                       <use xlink:href="#rim2" fill="#404040">
                               <set attributeName="fill" to="#808080" begin="reset.mouseover" end="reset.mouseout"/>
                       </use>
               </g>
        </defs>

<script type="text/javascript">
var viewWidth = 1495;
var viewHeight = 274;
var sectionId = 'dynsection-0';
</script>
<script xlink:href="svgpan.js"/>
<svg id="graph" class="graph">
<g id="viewport">
<title>ComFixed.hpp</title>
<!-- Node1 -->
<g id="node1" class="node">
<title>Node1</title>
<g id="a_node1"><a xlink:title=" ">
<polygon fill="#bfbfbf" stroke="black" points="1048.61,-246.5 1048.61,-265.5 1134.61,-265.5 1134.61,-246.5 1048.61,-246.5"/>
<text text-anchor="middle" x="1091.61" y="-253.5" font-family="Helvetica,sans-Serif" font-size="10.00">ComFixed.hpp</text>
</a>
</g>
</g>
<!-- Node2 -->
<g id="node2" class="node">
<title>Node2</title>
<g id="a_node2"><a xlink:href="Vector_8hpp.html" target="_top" xlink:title=" ">
<polygon fill="none" stroke="black" points="415.11,-185 415.11,-204 508.11,-204 508.11,-185 415.11,-185"/>
<text text-anchor="middle" x="461.61" y="-192" font-family="Helvetica,sans-Serif" font-size="10.00">utils/Vector.hpp</text>
</a>
</g>
</g>
<!-- Node1&#45;&gt;Node2 -->
<g id="edge1" class="edge">
<title>Node1&#45;&gt;Node2</title>
<path fill="none" stroke="midnightblue" d="M1048.31,-250.91C937.31,-240.43 642.63,-212.6 518.26,-200.85"/>
<polygon fill="midnightblue" stroke="midnightblue" points="518.47,-197.35 508.18,-199.9 517.81,-204.32 518.47,-197.35"/>
</g>
<!-- Node21 -->
<g id="node21" class="node">
<title>Node21</title>
<g id="a_node21"><a xlink:title=" ">
<polygon fill="none" stroke="#bfbfbf" points="1026.11,-123.5 1026.11,-142.5 1073.11,-142.5 1073.11,-123.5 1026.11,-123.5"/>
<text text-anchor="middle" x="1049.61" y="-130.5" font-family="Helvetica,sans-Serif" font-size="10.00">vector</text>
</a>
</g>
</g>
<!-- Node1&#45;&gt;Node21 -->
<g id="edge32" class="edge">
<title>Node1&#45;&gt;Node21</title>
<path fill="none" stroke="midnightblue" d="M1086.13,-246.35C1080.74,-237.52 1072.62,-223.25 1067.61,-210 1060.44,-191.02 1055.5,-168.25 1052.63,-152.62"/>
<polygon fill="midnightblue" stroke="midnightblue" points="1056.06,-151.91 1050.91,-142.65 1049.16,-153.1 1056.06,-151.91"/>
</g>
<!-- Node22 -->
<g id="node22" class="node">
<title>Node22</title>
<g id="a_node22"><a xlink:href="keys_8hpp.html" target="_top" xlink:title=" ">
<polygon fill="none" stroke="black" points="935.61,-185 935.61,-204 1019.61,-204 1019.61,-185 935.61,-185"/>
<text text-anchor="middle" x="977.61" y="-192" font-family="Helvetica,sans-Serif" font-size="10.00">utils/keys.hpp</text>
</a>
</g>
</g>
<!-- Node1&#45;&gt;Node22 -->
<g id="edge26" class="edge">
<title>Node1&#45;&gt;Node22</title>
<path fill="none" stroke="midnightblue" d="M1075.27,-246.48C1056.4,-236.62 1025.1,-220.29 1003.03,-208.77"/>
<polygon fill="midnightblue" stroke="midnightblue" points="1004.4,-205.53 993.91,-204.01 1001.16,-211.74 1004.4,-205.53"/>
</g>
<!-- Node23 -->
<g id="node23" class="node">
<title>Node23</title>
<g id="a_node23"><a xlink:title=" ">
<polygon fill="none" stroke="#bfbfbf" points="1076.11,-179.5 1076.11,-209.5 1197.11,-209.5 1197.11,-179.5 1076.11,-179.5"/>
<text text-anchor="start" x="1084.11" y="-197.5" font-family="Helvetica,sans-Serif" font-size="10.00">boost/mpi/collectives</text>
<text text-anchor="middle" x="1136.61" y="-186.5" font-family="Helvetica,sans-Serif" font-size="10.00">/all_reduce.hpp</text>
</a>
</g>
</g>
<!-- Node1&#45;&gt;Node23 -->
<g id="edge29" class="edge">
<title>Node1&#45;&gt;Node23</title>
<path fill="none" stroke="midnightblue" d="M1098.06,-246.48C1103.75,-238.94 1112.31,-227.63 1119.92,-217.57"/>
<polygon fill="midnightblue" stroke="midnightblue" points="1122.76,-219.61 1126,-209.52 1117.18,-215.39 1122.76,-219.61"/>
</g>
<!-- Node24 -->
<g id="node24" class="node">
<title>Node24</title>
<g id="a_node24"><a xlink:title=" ">
<polygon fill="none" stroke="#bfbfbf" points="1215.61,-185 1215.61,-204 1375.61,-204 1375.61,-185 1215.61,-185"/>
<text text-anchor="middle" x="1295.61" y="-192" font-family="Helvetica,sans-Serif" font-size="10.00">boost/mpi/communicator.hpp</text>
</a>
</g>
</g>
<!-- Node1&#45;&gt;Node24 -->
<g id="edge30" class="edge">
<title>Node1&#45;&gt;Node24</title>
<path fill="none" stroke="midnightblue" d="M1120.84,-246.48C1156.51,-236.07 1216.97,-218.44 1256.59,-206.88"/>
<polygon fill="midnightblue" stroke="midnightblue" points="1257.81,-210.17 1266.43,-204.01 1255.85,-203.45 1257.81,-210.17"/>
</g>
<!-- Node25 -->
<g id="node25" class="node">
<title>Node25</title>
<g id="a_node25"><a xlink:title=" ">
<polygon fill="none" stroke="#bfbfbf" points="1394.11,-185 1394.11,-204 1487.11,-204 1487.11,-185 1394.11,-185"/>
<text text-anchor="middle" x="1440.61" y="-192" font-family="Helvetica,sans-Serif" font-size="10.00">unordered_map</text>
</a>
</g>
</g>
<!-- Node1&#45;&gt;Node25 -->
<g id="edge31" class="edge">
<title>Node1&#45;&gt;Node25</title>
<path fill="none" stroke="midnightblue" d="M1135.04,-249.72C1192.46,-242.43 1296.64,-228.09 1384.61,-210 1389.64,-208.96 1394.9,-207.76 1400.1,-206.5"/>
<polygon fill="midnightblue" stroke="midnightblue" points="1401.08,-209.87 1409.93,-204.04 1399.38,-203.08 1401.08,-209.87"/>
</g>
<!-- Node3 -->
<g id="node3" class="node">
<title>Node3</title>
<g id="a_node3"><a xlink:title=" ">
<polygon fill="none" stroke="#bfbfbf" points="449.61,-123.5 449.61,-142.5 599.61,-142.5 599.61,-123.5 449.61,-123.5"/>
<text text-anchor="middle" x="524.61" y="-130.5" font-family="Helvetica,sans-Serif" font-size="10.00">boost/qvm/deduce_vec.hpp</text>
</a>
</g>
</g>
<!-- Node2&#45;&gt;Node3 -->
<g id="edge2" class="edge">
<title>Node2&#45;&gt;Node3</title>
<path fill="none" stroke="midnightblue" d="M470.63,-184.98C480.37,-175.78 496.07,-160.96 508.03,-149.66"/>
<polygon fill="midnightblue" stroke="midnightblue" points="510.73,-151.92 515.6,-142.51 505.93,-146.83 510.73,-151.92"/>
</g>
<!-- Node4 -->
<g id="node4" class="node">
<title>Node4</title>
<g id="a_node4"><a xlink:title=" ">
<polygon fill="none" stroke="#bfbfbf" points="617.61,-123.5 617.61,-142.5 757.61,-142.5 757.61,-123.5 617.61,-123.5"/>
<text text-anchor="middle" x="687.61" y="-130.5" font-family="Helvetica,sans-Serif" font-size="10.00">boost/qvm/vec_traits.hpp</text>
</a>
</g>
</g>
<!-- Node2&#45;&gt;Node4 -->
<g id="edge3" class="edge">
<title>Node2&#45;&gt;Node4</title>
<path fill="none" stroke="midnightblue" d="M493.99,-184.98C533.85,-174.48 601.63,-156.64 645.5,-145.09"/>
<polygon fill="midnightblue" stroke="midnightblue" points="646.51,-148.44 655.29,-142.51 644.73,-141.67 646.51,-148.44"/>
</g>
<!-- Node5 -->
<g id="node5" class="node">
<title>Node5</title>
<g id="a_node5"><a xlink:href="Array_8hpp.html" target="_top" xlink:title=" ">
<polygon fill="none" stroke="black" points="775.61,-123.5 775.61,-142.5 861.61,-142.5 861.61,-123.5 775.61,-123.5"/>
<text text-anchor="middle" x="818.61" y="-130.5" font-family="Helvetica,sans-Serif" font-size="10.00">utils/Array.hpp</text>
</a>
</g>
</g>
<!-- Node2&#45;&gt;Node5 -->
<g id="edge4" class="edge">
<title>Node2&#45;&gt;Node5</title>
<path fill="none" stroke="midnightblue" d="M508.13,-185.91C565.97,-176.44 668,-159.66 765.46,-143.19"/>
<polygon fill="midnightblue" stroke="midnightblue" points="766.21,-146.61 775.48,-141.49 765.04,-139.71 766.21,-146.61"/>
</g>
<!-- Node7 -->
<g id="node7" class="node">
<title>Node7</title>
<g id="a_node7"><a xlink:title=" ">
<polygon fill="none" stroke="#bfbfbf" points="348.61,-0.5 348.61,-19.5 400.61,-19.5 400.61,-0.5 348.61,-0.5"/>
<text text-anchor="middle" x="374.61" y="-7.5" font-family="Helvetica,sans-Serif" font-size="10.00">cassert</text>
</a>
</g>
</g>
<!-- Node2&#45;&gt;Node7 -->
<g id="edge17" class="edge">
<title>Node2&#45;&gt;Node7</title>
<path fill="none" stroke="midnightblue" d="M414.97,-191.64C306.35,-186.84 43.76,-172.3 17.61,-143 -75.66,-38.52 230.2,-16.56 338.24,-12.1"/>
<polygon fill="midnightblue" stroke="midnightblue" points="338.49,-15.59 348.35,-11.71 338.22,-8.6 338.49,-15.59"/>
</g>
<!-- Node9 -->
<g id="node9" class="node">
<title>Node9</title>
<g id="a_node9"><a xlink:title=" ">
<polygon fill="none" stroke="#bfbfbf" points="756.11,-0.5 756.11,-19.5 809.11,-19.5 809.11,-0.5 756.11,-0.5"/>
<text text-anchor="middle" x="782.61" y="-7.5" font-family="Helvetica,sans-Serif" font-size="10.00">cstddef</text>
</a>
</g>
</g>
<!-- Node2&#45;&gt;Node9 -->
<g id="edge19" class="edge">
<title>Node2&#45;&gt;Node9</title>
<path fill="none" stroke="midnightblue" d="M508.22,-191.79C601.67,-187.71 808.33,-175.22 870.61,-143 910.42,-122.4 947.97,-92.25 921.61,-56 898.38,-24.07 852.01,-14.33 819.23,-11.6"/>
<polygon fill="midnightblue" stroke="midnightblue" points="819.32,-8.1 809.11,-10.95 818.86,-15.09 819.32,-8.1"/>
</g>
<!-- Node12 -->
<g id="node12" class="node">
<title>Node12</title>
<g id="a_node12"><a xlink:title=" ">
<polygon fill="none" stroke="#bfbfbf" points="168.11,-62 168.11,-81 221.11,-81 221.11,-62 168.11,-62"/>
<text text-anchor="middle" x="194.61" y="-69" font-family="Helvetica,sans-Serif" font-size="10.00">iterator</text>
</a>
</g>
</g>
<!-- Node2&#45;&gt;Node12 -->
<g id="edge22" class="edge">
<title>Node2&#45;&gt;Node12</title>
<path fill="none" stroke="midnightblue" d="M415.04,-191.49C308.65,-186.42 54.93,-171.45 29.61,-143 -9.37,-99.2 98.14,-81.7 157.82,-75.5"/>
<polygon fill="midnightblue" stroke="midnightblue" points="158.4,-78.96 168.01,-74.5 157.71,-71.99 158.4,-78.96"/>
</g>
<!-- Node15 -->
<g id="node15" class="node">
<title>Node15</title>
<g id="a_node15"><a xlink:title=" ">
<polygon fill="none" stroke="#bfbfbf" points="943.61,-123.5 943.61,-142.5 1007.61,-142.5 1007.61,-123.5 943.61,-123.5"/>
<text text-anchor="middle" x="975.61" y="-130.5" font-family="Helvetica,sans-Serif" font-size="10.00">algorithm</text>
</a>
</g>
</g>
<!-- Node2&#45;&gt;Node15 -->
<g id="edge16" class="edge">
<title>Node2&#45;&gt;Node15</title>
<path fill="none" stroke="midnightblue" d="M508.28,-189.8C592.66,-182.81 776.09,-166.26 929.61,-143 930.88,-142.81 932.16,-142.61 933.46,-142.39"/>
<polygon fill="midnightblue" stroke="midnightblue" points="934.25,-145.81 943.5,-140.65 933.05,-138.91 934.25,-145.81"/>
</g>
<!-- Node16 -->
<g id="node16" class="node">
<title>Node16</title>
<g id="a_node16"><a xlink:title=" ">
<polygon fill="none" stroke="#bfbfbf" points="39.11,-123.5 39.11,-142.5 86.11,-142.5 86.11,-123.5 39.11,-123.5"/>
<text text-anchor="middle" x="62.61" y="-130.5" font-family="Helvetica,sans-Serif" font-size="10.00">cmath</text>
</a>
</g>
</g>
<!-- Node2&#45;&gt;Node16 -->
<g id="edge18" class="edge">
<title>Node2&#45;&gt;Node16</title>
<path fill="none" stroke="midnightblue" d="M414.91,-189.15C346.76,-182.35 215.97,-167.59 96.35,-143.14"/>
<polygon fill="midnightblue" stroke="midnightblue" points="96.79,-139.65 86.28,-141.05 95.37,-146.51 96.79,-139.65"/>
</g>
<!-- Node17 -->
<g id="node17" class="node">
<title>Node17</title>
<g id="a_node17"><a xlink:title=" ">
<polygon fill="none" stroke="#bfbfbf" points="104.11,-123.5 104.11,-142.5 169.11,-142.5 169.11,-123.5 104.11,-123.5"/>
<text text-anchor="middle" x="136.61" y="-130.5" font-family="Helvetica,sans-Serif" font-size="10.00">functional</text>
</a>
</g>
</g>
<!-- Node2&#45;&gt;Node17 -->
<g id="edge20" class="edge">
<title>Node2&#45;&gt;Node17</title>
<path fill="none" stroke="midnightblue" d="M415.01,-185.8C360.7,-176.7 267.99,-160.76 179.22,-143.26"/>
<polygon fill="midnightblue" stroke="midnightblue" points="179.75,-139.8 169.26,-141.29 178.39,-146.67 179.75,-139.8"/>
</g>
<!-- Node18 -->
<g id="node18" class="node">
<title>Node18</title>
<g id="a_node18"><a xlink:title=" ">
<polygon fill="none" stroke="#bfbfbf" points="187.11,-123.5 187.11,-142.5 270.11,-142.5 270.11,-123.5 187.11,-123.5"/>
<text text-anchor="middle" x="228.61" y="-130.5" font-family="Helvetica,sans-Serif" font-size="10.00">initializer_list</text>
</a>
</g>
</g>
<!-- Node2&#45;&gt;Node18 -->
<g id="edge21" class="edge">
<title>Node2&#45;&gt;Node18</title>
<path fill="none" stroke="midnightblue" d="M428.22,-184.98C387.05,-174.46 316.96,-156.56 271.74,-145.01"/>
<polygon fill="midnightblue" stroke="midnightblue" points="272.48,-141.59 261.93,-142.51 270.75,-148.37 272.48,-141.59"/>
</g>
<!-- Node19 -->
<g id="node19" class="node">
<title>Node19</title>
<g id="a_node19"><a xlink:title=" ">
<polygon fill="none" stroke="#bfbfbf" points="288.61,-123.5 288.61,-142.5 344.61,-142.5 344.61,-123.5 288.61,-123.5"/>
<text text-anchor="middle" x="316.61" y="-130.5" font-family="Helvetica,sans-Serif" font-size="10.00">numeric</text>
</a>
</g>
</g>
<!-- Node2&#45;&gt;Node19 -->
<g id="edge23" class="edge">
<title>Node2&#45;&gt;Node19</title>
<path fill="none" stroke="midnightblue" d="M440.83,-184.98C416.18,-174.86 374.86,-157.9 346.71,-146.35"/>
<polygon fill="midnightblue" stroke="midnightblue" points="347.92,-143.07 337.34,-142.51 345.27,-149.54 347.92,-143.07"/>
</g>
<!-- Node20 -->
<g id="node20" class="node">
<title>Node20</title>
<g id="a_node20"><a xlink:title=" ">
<polygon fill="none" stroke="#bfbfbf" points="363.11,-123.5 363.11,-142.5 432.11,-142.5 432.11,-123.5 363.11,-123.5"/>
<text text-anchor="middle" x="397.61" y="-130.5" font-family="Helvetica,sans-Serif" font-size="10.00">type_traits</text>
</a>
</g>
</g>
<!-- Node2&#45;&gt;Node20 -->
<g id="edge24" class="edge">
<title>Node2&#45;&gt;Node20</title>
<path fill="none" stroke="midnightblue" d="M452.44,-184.98C442.46,-175.7 426.3,-160.67 414.1,-149.33"/>
<polygon fill="midnightblue" stroke="midnightblue" points="416.47,-146.75 406.76,-142.51 411.7,-151.88 416.47,-146.75"/>
</g>
<!-- Node2&#45;&gt;Node21 -->
<g id="edge25" class="edge">
<title>Node2&#45;&gt;Node21</title>
<path fill="none" stroke="midnightblue" d="M508.39,-192.01C602.74,-188.42 822.54,-177.03 1015.87,-142.8"/>
<polygon fill="midnightblue" stroke="midnightblue" points="1016.7,-146.2 1025.93,-140.99 1015.47,-139.31 1016.7,-146.2"/>
</g>
<!-- Node6 -->
<g id="node6" class="node">
<title>Node6</title>
<g id="a_node6"><a xlink:href="device__qualifier_8hpp.html" target="_top" xlink:title=" ">
<polygon fill="none" stroke="black" points="561.61,-62 561.61,-81 677.61,-81 677.61,-62 561.61,-62"/>
<text text-anchor="middle" x="619.61" y="-69" font-family="Helvetica,sans-Serif" font-size="10.00">device_qualifier.hpp</text>
</a>
</g>
</g>
<!-- Node5&#45;&gt;Node6 -->
<g id="edge5" class="edge">
<title>Node5&#45;&gt;Node6</title>
<path fill="none" stroke="midnightblue" d="M790.1,-123.48C755.37,-113.09 696.57,-95.51 657.92,-83.95"/>
<polygon fill="midnightblue" stroke="midnightblue" points="658.65,-80.52 648.07,-81.01 656.65,-87.23 658.65,-80.52"/>
</g>
<!-- Node5&#45;&gt;Node7 -->
<g id="edge11" class="edge">
<title>Node5&#45;&gt;Node7</title>
<path fill="none" stroke="midnightblue" d="M775.52,-124.29C772.51,-123.83 769.51,-123.39 766.61,-123 684.08,-111.89 456.7,-141.35 393.61,-87 377.38,-73.02 373.93,-47.48 373.67,-29.89"/>
<polygon fill="midnightblue" stroke="midnightblue" points="377.18,-29.74 373.87,-19.68 370.18,-29.61 377.18,-29.74"/>
</g>
<!-- Node8 -->
<g id="node8" class="node">
<title>Node8</title>
<g id="a_node8"><a xlink:href="get_8hpp.html" target="_top" xlink:title=" ">
<polygon fill="none" stroke="black" points="696.11,-62 696.11,-81 749.11,-81 749.11,-62 696.11,-62"/>
<text text-anchor="middle" x="722.61" y="-69" font-family="Helvetica,sans-Serif" font-size="10.00">get.hpp</text>
</a>
</g>
</g>
<!-- Node5&#45;&gt;Node8 -->
<g id="edge7" class="edge">
<title>Node5&#45;&gt;Node8</title>
<path fill="none" stroke="midnightblue" d="M804.85,-123.48C789.24,-113.8 763.54,-97.87 745.03,-86.39"/>
<polygon fill="midnightblue" stroke="midnightblue" points="746.68,-83.3 736.34,-81.01 742.99,-89.25 746.68,-83.3"/>
</g>
<!-- Node5&#45;&gt;Node9 -->
<g id="edge12" class="edge">
<title>Node5&#45;&gt;Node9</title>
<path fill="none" stroke="midnightblue" d="M813.49,-123.34C808.47,-114.49 800.96,-100.21 796.61,-87 790.32,-67.93 786.6,-45.18 784.59,-29.57"/>
<polygon fill="midnightblue" stroke="midnightblue" points="788.07,-29.15 783.42,-19.62 781.12,-29.96 788.07,-29.15"/>
</g>
<!-- Node11 -->
<g id="node11" class="node">
<title>Node11</title>
<g id="a_node11"><a xlink:title=" ">
<polygon fill="none" stroke="#bfbfbf" points="806.11,-56.5 806.11,-86.5 913.11,-86.5 913.11,-56.5 806.11,-56.5"/>
<text text-anchor="start" x="814.11" y="-74.5" font-family="Helvetica,sans-Serif" font-size="10.00">boost/serialization</text>
<text text-anchor="middle" x="859.61" y="-63.5" font-family="Helvetica,sans-Serif" font-size="10.00">/access.hpp</text>
</a>
</g>
</g>
<!-- Node5&#45;&gt;Node11 -->
<g id="edge10" class="edge">
<title>Node5&#45;&gt;Node11</title>
<path fill="none" stroke="midnightblue" d="M824.48,-123.48C829.62,-116.02 837.32,-104.85 844.19,-94.87"/>
<polygon fill="midnightblue" stroke="midnightblue" points="847.15,-96.74 849.95,-86.52 841.39,-92.77 847.15,-96.74"/>
</g>
<!-- Node5&#45;&gt;Node12 -->
<g id="edge13" class="edge">
<title>Node5&#45;&gt;Node12</title>
<path fill="none" stroke="midnightblue" d="M775.52,-124.26C772.51,-123.8 769.52,-123.38 766.61,-123 759.94,-122.13 357.47,-86.79 231.73,-75.76"/>
<polygon fill="midnightblue" stroke="midnightblue" points="231.72,-72.24 221.45,-74.86 231.11,-79.22 231.72,-72.24"/>
</g>
<!-- Node13 -->
<g id="node13" class="node">
<title>Node13</title>
<g id="a_node13"><a xlink:title=" ">
<polygon fill="none" stroke="#bfbfbf" points="403.11,-62 403.11,-81 460.11,-81 460.11,-62 403.11,-62"/>
<text text-anchor="middle" x="431.61" y="-69" font-family="Helvetica,sans-Serif" font-size="10.00">ostream</text>
</a>
</g>
</g>
<!-- Node5&#45;&gt;Node13 -->
<g id="edge14" class="edge">
<title>Node5&#45;&gt;Node13</title>
<path fill="none" stroke="midnightblue" d="M775.51,-124.37C772.5,-123.89 769.51,-123.43 766.61,-123 634.62,-103.62 597.97,-119.6 468.61,-87 465.94,-86.33 463.21,-85.51 460.49,-84.62"/>
<polygon fill="midnightblue" stroke="midnightblue" points="461.49,-81.25 450.89,-81.12 459.09,-87.83 461.49,-81.25"/>
</g>
<!-- Node14 -->
<g id="node14" class="node">
<title>Node14</title>
<g id="a_node14"><a xlink:title=" ">
<polygon fill="none" stroke="#bfbfbf" points="478.11,-62 478.11,-81 543.11,-81 543.11,-62 478.11,-62"/>
<text text-anchor="middle" x="510.61" y="-69" font-family="Helvetica,sans-Serif" font-size="10.00">stdexcept</text>
</a>
</g>
</g>
<!-- Node5&#45;&gt;Node14 -->
<g id="edge15" class="edge">
<title>Node5&#45;&gt;Node14</title>
<path fill="none" stroke="midnightblue" d="M775.48,-124.52C772.48,-124 769.5,-123.49 766.61,-123 671.54,-106.78 646.07,-110.82 552.61,-87 549.39,-86.18 546.07,-85.23 542.78,-84.21"/>
<polygon fill="midnightblue" stroke="midnightblue" points="543.66,-80.82 533.07,-81.02 541.48,-87.47 543.66,-80.82"/>
</g>
<!-- Node6&#45;&gt;Node7 -->
<g id="edge6" class="edge">
<title>Node6&#45;&gt;Node7</title>
<path fill="none" stroke="midnightblue" d="M584.51,-61.98C538.25,-50.74 457.32,-31.09 410.62,-19.75"/>
<polygon fill="midnightblue" stroke="midnightblue" points="411.18,-16.28 400.64,-17.32 409.53,-23.08 411.18,-16.28"/>
</g>
<!-- Node8&#45;&gt;Node9 -->
<g id="edge8" class="edge">
<title>Node8&#45;&gt;Node9</title>
<path fill="none" stroke="midnightblue" d="M731.2,-61.98C740.47,-52.78 755.43,-37.96 766.82,-26.66"/>
<polygon fill="midnightblue" stroke="midnightblue" points="769.39,-29.04 774.03,-19.51 764.46,-24.07 769.39,-29.04"/>
</g>
<!-- Node10 -->
<g id="node10" class="node">
<title>Node10</title>
<g id="a_node10"><a xlink:title=" ">
<polygon fill="none" stroke="#bfbfbf" points="697.11,-0.5 697.11,-19.5 738.11,-19.5 738.11,-0.5 697.11,-0.5"/>
<text text-anchor="middle" x="717.61" y="-7.5" font-family="Helvetica,sans-Serif" font-size="10.00">tuple</text>
</a>
</g>
</g>
<!-- Node8&#45;&gt;Node10 -->
<g id="edge9" class="edge">
<title>Node8&#45;&gt;Node10</title>
<path fill="none" stroke="midnightblue" d="M721.89,-61.98C721.19,-53.58 720.09,-40.48 719.18,-29.66"/>
<polygon fill="midnightblue" stroke="midnightblue" points="722.65,-29.18 718.32,-19.51 715.67,-29.77 722.65,-29.18"/>
</g>
<!-- Node22&#45;&gt;Node15 -->
<g id="edge27" class="edge">
<title>Node22&#45;&gt;Node15</title>
<path fill="none" stroke="midnightblue" d="M977.32,-184.98C977.04,-176.58 976.6,-163.48 976.24,-152.66"/>
<polygon fill="midnightblue" stroke="midnightblue" points="979.73,-152.39 975.89,-142.51 972.73,-152.62 979.73,-152.39"/>
</g>
<!-- Node22&#45;&gt;Node21 -->
<g id="edge28" class="edge">
<title>Node22&#45;&gt;Node21</title>
<path fill="none" stroke="midnightblue" d="M987.92,-184.98C999.26,-175.61 1017.68,-160.38 1031.45,-149.01"/>
<polygon fill="midnightblue" stroke="midnightblue" points="1033.83,-151.58 1039.31,-142.51 1029.37,-146.18 1033.83,-151.58"/>
</g>
</g>
</svg>
        <g id="navigator" transform="translate(0 0)" fill="#404254">
                <rect fill="#f2f5e9" fill-opacity="0.5" stroke="#606060" stroke-width=".5" x="0" y="0" width="60" height="60"/>
                <use id="zoomplus" xlink:href="#zoomPlus" x="17" y="9" onmousedown="handleZoom(evt,'in')"/>
                <use id="zoomminus" xlink:href="#zoomMin" x="42" y="9" onmousedown="handleZoom(evt,'out')"/>
                <use id="reset" xlink:href="#resetDef" x="30" y="36" onmousedown="handleReset()"/>
                <g id="arrowUp" xlink:href="#dirArrow" transform="translate(30 24)" onmousedown="handlePan(0,-1)">
                  <use xlink:href="#rim" fill="#404040">
                        <set attributeName="fill" to="#808080" begin="arrowUp.mouseover" end="arrowUp.mouseout"/>
                  </use>
                  <path fill="none" stroke="white" stroke-width="1.5" d="M0,-3.0v7 M-2.5,-0.5L0,-3.0L2.5,-0.5"/>
                </g>
                <g id="arrowRight" xlink:href="#dirArrow" transform="rotate(90) translate(36 -43)" onmousedown="handlePan(1,0)">
                  <use xlink:href="#rim" fill="#404040">
                        <set attributeName="fill" to="#808080" begin="arrowRight.mouseover" end="arrowRight.mouseout"/>
                  </use>
                  <path fill="none" stroke="white" stroke-width="1.5" d="M0,-3.0v7 M-2.5,-0.5L0,-3.0L2.5,-0.5"/>
                </g>
                <g id="arrowDown" xlink:href="#dirArrow" transform="rotate(180) translate(-30 -48)" onmousedown="handlePan(0,1)">
                  <use xlink:href="#rim" fill="#404040">
                        <set attributeName="fill" to="#808080" begin="arrowDown.mouseover" end="arrowDown.mouseout"/>
                  </use>
                  <path fill="none" stroke="white" stroke-width="1.5" d="M0,-3.0v7 M-2.5,-0.5L0,-3.0L2.5,-0.5"/>
                </g>
                <g id="arrowLeft" xlink:href="#dirArrow" transform="rotate(270) translate(-36 17)" onmousedown="handlePan(-1,0)">
                  <use xlink:href="#rim" fill="#404040">
                        <set attributeName="fill" to="#808080" begin="arrowLeft.mouseover" end="arrowLeft.mouseout"/>
                  </use>
                  <path fill="none" stroke="white" stroke-width="1.5" d="M0,-3.0v7 M-2.5,-0.5L0,-3.0L2.5,-0.5"/>
                </g>
        </g>
        <svg viewBox="0 0 15 15" width="100%" height="30px" preserveAspectRatio="xMaxYMin meet">
         <g id="arrow_out" transform="scale(0.3 0.3)">
          <a xlink:href="core_2ComFixed_8hpp__incl_org.svg" target="_base">
           <rect id="button" ry="5" rx="5" y="6" x="6" height="38" width="38"
                fill="#f2f5e9" fill-opacity="0.5" stroke="#606060" stroke-width="1.0"/>
           <path id="arrow"
             d="M 11.500037,31.436501 C 11.940474,20.09759 22.043105,11.32322 32.158766,21.979434 L 37.068811,17.246167 C 37.068811,17.246167 37.088388,32 37.088388,32 L 22.160133,31.978069 C 22.160133,31.978069 26.997745,27.140456 26.997745,27.140456 C 18.528582,18.264221 13.291696,25.230495 11.500037,31.436501 z"
             style="fill:#404040;"/>
          </a>
         </g>
        </svg>
</svg>
