<?xml version="1.0" encoding="UTF-8" standalone="no"?>
<!DOCTYPE svg PUBLIC "-//W3C//DTD SVG 1.1//EN"
 "http://www.w3.org/Graphics/SVG/1.1/DTD/svg11.dtd">
<!-- Generated by graphviz version 2.43.0 (0)
 -->
<!-- Title: cuda_init.cpp Pages: 1 -->
<!--zoomable 341 -->
<svg id="main" version="1.1" xmlns="http://www.w3.org/2000/svg" xmlns:xlink="http://www.w3.org/1999/xlink" xml:space="preserve" onload="init(evt)">
<style type="text/css"><![CDATA[
.edge:hover path { stroke: red; }
.edge:hover polygon { stroke: red; fill: red; }
]]></style>
<script type="text/javascript"><![CDATA[
var edges = document.getElementsByTagName('g');
if (edges && edges.length) {
  for (var i=0;i<edges.length;i++) {
    if (edges[i].id.substr(0,4)=='edge') {
      edges[i].setAttribute('class','edge');
    }
  }
}
]]></script>
        <defs>
                <circle id="rim" cx="0" cy="0" r="7"/>
                <circle id="rim2" cx="0" cy="0" r="3.5"/>
                <g id="zoomPlus">
                        <use xlink:href="#rim" fill="#404040">
                                <set attributeName="fill" to="#808080" begin="zoomplus.mouseover" end="zoomplus.mouseout"/>
                        </use>
                        <path d="M-4,0h8M0,-4v8" fill="none" stroke="white" stroke-width="1.5" pointer-events="none"/>
                </g>
                <g id="zoomMin">
                        <use xlink:href="#rim" fill="#404040">
                                <set attributeName="fill" to="#808080" begin="zoomminus.mouseover" end="zoomminus.mouseout"/>
                        </use>
                        <path d="M-4,0h8" fill="none" stroke="white" stroke-width="1.5" pointer-events="none"/>
                </g>
                <g id="dirArrow">
                        <path fill="none" stroke="white" stroke-width="1.5" d="M0,-3.0v7 M-2.5,-0.5L0,-3.0L2.5,-0.5"/>
                </g>
               <g id="resetDef">
                       <use xlink:href="#rim2" fill="#404040">
                               <set attributeName="fill" to="#808080" begin="reset.mouseover" end="reset.mouseout"/>
                       </use>
               </g>
        </defs>

<script type="text/javascript">
var viewWidth = 2228;
var viewHeight = 341;
var sectionId = 'dynsection-0';
</script>
<script xlink:href="svgpan.js"/>
<svg id="graph" class="graph">
<g id="viewport">
<title>cuda_init.cpp</title>
<!-- Node1 -->
<g id="node1" class="node">
<title>Node1</title>
<g id="a_node1"><a xlink:title=" ">
<polygon fill="#bfbfbf" stroke="black" points="894,-313.5 894,-332.5 975,-332.5 975,-313.5 894,-313.5"/>
<text text-anchor="middle" x="934.5" y="-320.5" font-family="Helvetica,sans-Serif" font-size="10.00">cuda_init.cpp</text>
</a>
</g>
</g>
<!-- Node2 -->
<g id="node2" class="node">
<title>Node2</title>
<g id="a_node2"><a xlink:href="config_8hpp.html" target="_top" xlink:title=" ">
<polygon fill="none" stroke="black" points="146.5,-196 146.5,-215 214.5,-215 214.5,-196 146.5,-196"/>
<text text-anchor="middle" x="180.5" y="-203" font-family="Helvetica,sans-Serif" font-size="10.00">config.hpp</text>
</a>
</g>
</g>
<!-- Node1&#45;&gt;Node2 -->
<g id="edge1" class="edge">
<title>Node1&#45;&gt;Node2</title>
<path fill="none" stroke="midnightblue" d="M893.78,-320.38C780.19,-315.63 461.46,-300.51 359.5,-277 302.92,-263.95 240.64,-236.12 206.49,-219.59"/>
<polygon fill="midnightblue" stroke="midnightblue" points="207.76,-216.31 197.24,-215.05 204.68,-222.6 207.76,-216.31"/>
</g>
<!-- Node4 -->
<g id="node4" class="node">
<title>Node4</title>
<g id="a_node4"><a xlink:href="cuda__init_8hpp.html" target="_top" xlink:title=" ">
<polygon fill="none" stroke="black" points="553.5,-257.5 553.5,-276.5 635.5,-276.5 635.5,-257.5 553.5,-257.5"/>
<text text-anchor="middle" x="594.5" y="-264.5" font-family="Helvetica,sans-Serif" font-size="10.00">cuda_init.hpp</text>
</a>
</g>
</g>
<!-- Node1&#45;&gt;Node4 -->
<g id="edge3" class="edge">
<title>Node1&#45;&gt;Node4</title>
<path fill="none" stroke="midnightblue" d="M893.83,-315.54C831.79,-305.69 713.61,-286.92 645.78,-276.15"/>
<polygon fill="midnightblue" stroke="midnightblue" points="646.18,-272.66 635.75,-274.55 645.08,-279.58 646.18,-272.66"/>
</g>
<!-- Node6 -->
<g id="node6" class="node">
<title>Node6</title>
<g id="a_node6"><a xlink:title=" ">
<polygon fill="none" stroke="#bfbfbf" points="522,-129 522,-148 569,-148 569,-129 522,-129"/>
<text text-anchor="middle" x="545.5" y="-136" font-family="Helvetica,sans-Serif" font-size="10.00">vector</text>
</a>
</g>
</g>
<!-- Node1&#45;&gt;Node6 -->
<g id="edge71" class="edge">
<title>Node1&#45;&gt;Node6</title>
<path fill="none" stroke="midnightblue" d="M893.88,-320.32C798.69,-315.96 567.49,-302.79 544.5,-277 515.21,-244.13 528.64,-187.25 538.44,-158.02"/>
<polygon fill="midnightblue" stroke="midnightblue" points="541.85,-158.87 541.92,-148.28 535.26,-156.52 541.85,-158.87"/>
</g>
<!-- Node7 -->
<g id="node7" class="node">
<title>Node7</title>
<g id="a_node7"><a xlink:href="cuda__utils_8hpp.html" target="_top" xlink:title=" ">
<polygon fill="none" stroke="black" points="94,-257.5 94,-276.5 181,-276.5 181,-257.5 94,-257.5"/>
<text text-anchor="middle" x="137.5" y="-264.5" font-family="Helvetica,sans-Serif" font-size="10.00">cuda_utils.hpp</text>
</a>
</g>
</g>
<!-- Node1&#45;&gt;Node7 -->
<g id="edge7" class="edge">
<title>Node1&#45;&gt;Node7</title>
<path fill="none" stroke="midnightblue" d="M893.88,-319.25C761.45,-310.28 342.1,-281.86 191.78,-271.68"/>
<polygon fill="midnightblue" stroke="midnightblue" points="191.64,-268.16 181.43,-270.98 191.17,-275.14 191.64,-268.16"/>
</g>
<!-- Node10 -->
<g id="node10" class="node">
<title>Node10</title>
<g id="a_node10"><a xlink:href="communication_8hpp.html" target="_top" xlink:title=" ">
<polygon fill="none" stroke="black" points="814,-257.5 814,-276.5 927,-276.5 927,-257.5 814,-257.5"/>
<text text-anchor="middle" x="870.5" y="-264.5" font-family="Helvetica,sans-Serif" font-size="10.00">communication.hpp</text>
</a>
</g>
</g>
<!-- Node1&#45;&gt;Node10 -->
<g id="edge11" class="edge">
<title>Node1&#45;&gt;Node10</title>
<path fill="none" stroke="midnightblue" d="M924.22,-313.32C914.66,-305.26 900.22,-293.08 888.72,-283.37"/>
<polygon fill="midnightblue" stroke="midnightblue" points="890.87,-280.61 880.97,-276.83 886.36,-285.96 890.87,-280.61"/>
</g>
<!-- Node14 -->
<g id="node14" class="node">
<title>Node14</title>
<g id="a_node14"><a xlink:title=" ">
<polygon fill="none" stroke="#bfbfbf" points="2187.5,-62 2187.5,-81 2219.5,-81 2219.5,-62 2187.5,-62"/>
<text text-anchor="middle" x="2203.5" y="-69" font-family="Helvetica,sans-Serif" font-size="10.00">set</text>
</a>
</g>
</g>
<!-- Node1&#45;&gt;Node14 -->
<g id="edge70" class="edge">
<title>Node1&#45;&gt;Node14</title>
<path fill="none" stroke="midnightblue" d="M975.01,-321.38C1041.79,-319.36 1178.57,-311.02 1288.5,-277 1307.11,-271.24 1308.71,-262.14 1327.5,-257 1583.46,-186.96 1661.72,-264.5 1923.5,-221 2034.01,-202.63 2081.31,-226.76 2166.5,-154 2185.57,-137.71 2195.3,-109.56 2199.89,-90.98"/>
<polygon fill="midnightblue" stroke="midnightblue" points="2203.34,-91.6 2202.07,-81.08 2196.5,-90.09 2203.34,-91.6"/>
</g>
<!-- Node32 -->
<g id="node32" class="node">
<title>Node32</title>
<g id="a_node32"><a xlink:href="errorhandling_8hpp.html" target="_top" xlink:title=" ">
<polygon fill="none" stroke="black" points="369,-257.5 369,-276.5 472,-276.5 472,-257.5 369,-257.5"/>
<text text-anchor="middle" x="420.5" y="-264.5" font-family="Helvetica,sans-Serif" font-size="10.00">errorhandling.hpp</text>
</a>
</g>
</g>
<!-- Node1&#45;&gt;Node32 -->
<g id="edge49" class="edge">
<title>Node1&#45;&gt;Node32</title>
<path fill="none" stroke="midnightblue" d="M893.74,-317.72C803.91,-308.28 588.48,-285.65 482.08,-274.47"/>
<polygon fill="midnightblue" stroke="midnightblue" points="482.45,-270.99 472.14,-273.42 481.72,-277.95 482.45,-270.99"/>
</g>
<!-- Node38 -->
<g id="node38" class="node">
<title>Node38</title>
<g id="a_node38"><a xlink:href="constants_8hpp.html" target="_top" xlink:title=" ">
<polygon fill="none" stroke="black" points="1171,-257.5 1171,-276.5 1280,-276.5 1280,-257.5 1171,-257.5"/>
<text text-anchor="middle" x="1225.5" y="-264.5" font-family="Helvetica,sans-Serif" font-size="10.00">utils/constants.hpp</text>
</a>
</g>
</g>
<!-- Node1&#45;&gt;Node38 -->
<g id="edge62" class="edge">
<title>Node1&#45;&gt;Node38</title>
<path fill="none" stroke="midnightblue" d="M975.27,-314.43C1025.88,-305.04 1112.46,-288.98 1169.34,-278.42"/>
<polygon fill="midnightblue" stroke="midnightblue" points="1170.05,-281.85 1179.25,-276.58 1168.77,-274.97 1170.05,-281.85"/>
</g>
<!-- Node41 -->
<g id="node41" class="node">
<title>Node41</title>
<g id="a_node41"><a xlink:title=" ">
<polygon fill="none" stroke="#bfbfbf" points="1336.5,-257.5 1336.5,-276.5 1380.5,-276.5 1380.5,-257.5 1336.5,-257.5"/>
<text text-anchor="middle" x="1358.5" y="-264.5" font-family="Helvetica,sans-Serif" font-size="10.00">mpi.h</text>
</a>
</g>
</g>
<!-- Node1&#45;&gt;Node41 -->
<g id="edge66" class="edge">
<title>Node1&#45;&gt;Node41</title>
<path fill="none" stroke="midnightblue" d="M975.25,-319.02C1046.22,-313.44 1196.91,-299.88 1322.5,-277 1323.75,-276.77 1325.02,-276.53 1326.3,-276.27"/>
<polygon fill="midnightblue" stroke="midnightblue" points="1327.13,-279.67 1336.13,-274.07 1325.61,-272.84 1327.13,-279.67"/>
</g>
<!-- Node42 -->
<g id="node42" class="node">
<title>Node42</title>
<g id="a_node42"><a xlink:title=" ">
<polygon fill="none" stroke="#bfbfbf" points="1398.5,-257.5 1398.5,-276.5 1462.5,-276.5 1462.5,-257.5 1398.5,-257.5"/>
<text text-anchor="middle" x="1430.5" y="-264.5" font-family="Helvetica,sans-Serif" font-size="10.00">algorithm</text>
</a>
</g>
</g>
<!-- Node1&#45;&gt;Node42 -->
<g id="edge67" class="edge">
<title>Node1&#45;&gt;Node42</title>
<path fill="none" stroke="midnightblue" d="M975.18,-319.59C1053.37,-314.6 1230.16,-301.64 1388.42,-277"/>
<polygon fill="midnightblue" stroke="midnightblue" points="1389.01,-280.45 1398.34,-275.43 1387.92,-273.53 1389.01,-280.45"/>
</g>
<!-- Node43 -->
<g id="node43" class="node">
<title>Node43</title>
<g id="a_node43"><a xlink:title=" ">
<polygon fill="none" stroke="#bfbfbf" points="1480.5,-257.5 1480.5,-276.5 1530.5,-276.5 1530.5,-257.5 1480.5,-257.5"/>
<text text-anchor="middle" x="1505.5" y="-264.5" font-family="Helvetica,sans-Serif" font-size="10.00">cstring</text>
</a>
</g>
</g>
<!-- Node1&#45;&gt;Node43 -->
<g id="edge68" class="edge">
<title>Node1&#45;&gt;Node43</title>
<path fill="none" stroke="midnightblue" d="M975.23,-321.02C1063.78,-318.36 1280.47,-309.04 1470.47,-276.88"/>
<polygon fill="midnightblue" stroke="midnightblue" points="1471.09,-280.32 1480.36,-275.18 1469.91,-273.42 1471.09,-280.32"/>
</g>
<!-- Node44 -->
<g id="node44" class="node">
<title>Node44</title>
<g id="a_node44"><a xlink:title=" ">
<polygon fill="none" stroke="#bfbfbf" points="1549,-257.5 1549,-276.5 1602,-276.5 1602,-257.5 1549,-257.5"/>
<text text-anchor="middle" x="1575.5" y="-264.5" font-family="Helvetica,sans-Serif" font-size="10.00">iterator</text>
</a>
</g>
</g>
<!-- Node1&#45;&gt;Node44 -->
<g id="edge69" class="edge">
<title>Node1&#45;&gt;Node44</title>
<path fill="none" stroke="midnightblue" d="M975.14,-321.37C1071.46,-319.36 1321.21,-311.15 1538.86,-276.8"/>
<polygon fill="midnightblue" stroke="midnightblue" points="1539.55,-280.23 1548.87,-275.2 1538.44,-273.32 1539.55,-280.23"/>
</g>
<!-- Node3 -->
<g id="node3" class="node">
<title>Node3</title>
<g id="a_node3"><a xlink:title=" ">
<polygon fill="none" stroke="#bfbfbf" points="121.5,-129 121.5,-148 233.5,-148 233.5,-129 121.5,-129"/>
<text text-anchor="middle" x="177.5" y="-136" font-family="Helvetica,sans-Serif" font-size="10.00">config&#45;features.hpp</text>
</a>
</g>
</g>
<!-- Node2&#45;&gt;Node3 -->
<g id="edge2" class="edge">
<title>Node2&#45;&gt;Node3</title>
<path fill="none" stroke="midnightblue" d="M180.1,-195.73C179.65,-186.18 178.94,-170.62 178.37,-158.28"/>
<polygon fill="midnightblue" stroke="midnightblue" points="181.86,-157.96 177.9,-148.13 174.86,-158.28 181.86,-157.96"/>
</g>
<!-- Node4&#45;&gt;Node2 -->
<g id="edge4" class="edge">
<title>Node4&#45;&gt;Node2</title>
<path fill="none" stroke="midnightblue" d="M553.45,-262.09C470.51,-254.02 285.59,-235.08 223.5,-221 220.01,-220.21 216.41,-219.24 212.85,-218.19"/>
<polygon fill="midnightblue" stroke="midnightblue" points="213.61,-214.76 203.01,-215.06 211.48,-221.43 213.61,-214.76"/>
</g>
<!-- Node5 -->
<g id="node5" class="node">
<title>Node5</title>
<g id="a_node5"><a xlink:title=" ">
<polygon fill="none" stroke="#bfbfbf" points="1417,-0.5 1417,-19.5 1470,-19.5 1470,-0.5 1417,-0.5"/>
<text text-anchor="middle" x="1443.5" y="-7.5" font-family="Helvetica,sans-Serif" font-size="10.00">cstddef</text>
</a>
</g>
</g>
<!-- Node4&#45;&gt;Node5 -->
<g id="edge5" class="edge">
<title>Node4&#45;&gt;Node5</title>
<path fill="none" stroke="midnightblue" d="M595.56,-257.29C598.85,-233.35 610.89,-165.52 645.5,-123 681.63,-78.6 700.84,-73.01 755.5,-56 890.87,-13.86 1251.66,-36.35 1392.5,-20 1397.1,-19.47 1401.9,-18.78 1406.65,-18.03"/>
<polygon fill="midnightblue" stroke="midnightblue" points="1407.57,-21.43 1416.85,-16.32 1406.41,-14.53 1407.57,-21.43"/>
</g>
<!-- Node4&#45;&gt;Node6 -->
<g id="edge6" class="edge">
<title>Node4&#45;&gt;Node6</title>
<path fill="none" stroke="midnightblue" d="M591.13,-257.31C583.23,-236.9 563.36,-185.6 552.63,-157.91"/>
<polygon fill="midnightblue" stroke="midnightblue" points="555.77,-156.32 548.89,-148.26 549.24,-158.84 555.77,-156.32"/>
</g>
<!-- Node7&#45;&gt;Node2 -->
<g id="edge8" class="edge">
<title>Node7&#45;&gt;Node2</title>
<path fill="none" stroke="midnightblue" d="M143.66,-257.48C150.11,-248.55 160.4,-234.31 168.47,-223.14"/>
<polygon fill="midnightblue" stroke="midnightblue" points="171.33,-225.16 174.35,-215.01 165.66,-221.06 171.33,-225.16"/>
</g>
<!-- Node8 -->
<g id="node8" class="node">
<title>Node8</title>
<g id="a_node8"><a xlink:title=" ">
<polygon fill="none" stroke="#bfbfbf" points="0,-196 0,-215 65,-215 65,-196 0,-196"/>
<text text-anchor="middle" x="32.5" y="-203" font-family="Helvetica,sans-Serif" font-size="10.00">stdexcept</text>
</a>
</g>
</g>
<!-- Node7&#45;&gt;Node8 -->
<g id="edge9" class="edge">
<title>Node7&#45;&gt;Node8</title>
<path fill="none" stroke="midnightblue" d="M122.46,-257.48C105.22,-247.71 76.76,-231.58 56.47,-220.08"/>
<polygon fill="midnightblue" stroke="midnightblue" points="57.94,-216.89 47.52,-215.01 54.49,-222.98 57.94,-216.89"/>
</g>
<!-- Node9 -->
<g id="node9" class="node">
<title>Node9</title>
<g id="a_node9"><a xlink:title=" ">
<polygon fill="none" stroke="#bfbfbf" points="248.5,-62 248.5,-81 292.5,-81 292.5,-62 248.5,-62"/>
<text text-anchor="middle" x="270.5" y="-69" font-family="Helvetica,sans-Serif" font-size="10.00">string</text>
</a>
</g>
</g>
<!-- Node7&#45;&gt;Node9 -->
<g id="edge10" class="edge">
<title>Node7&#45;&gt;Node9</title>
<path fill="none" stroke="midnightblue" d="M131.93,-257.27C117.41,-233.28 81.59,-165.34 112.5,-123 141.17,-83.73 200.75,-74.3 237.99,-72.42"/>
<polygon fill="midnightblue" stroke="midnightblue" points="238.45,-75.91 248.32,-72.06 238.2,-68.91 238.45,-75.91"/>
</g>
<!-- Node11 -->
<g id="node11" class="node">
<title>Node11</title>
<g id="a_node11"><a xlink:href="MpiCallbacks_8hpp.html" target="_top" xlink:title=" ">
<polygon fill="none" stroke="black" points="1269,-196 1269,-215 1372,-215 1372,-196 1269,-196"/>
<text text-anchor="middle" x="1320.5" y="-203" font-family="Helvetica,sans-Serif" font-size="10.00">MpiCallbacks.hpp</text>
</a>
</g>
</g>
<!-- Node10&#45;&gt;Node11 -->
<g id="edge12" class="edge">
<title>Node10&#45;&gt;Node11</title>
<path fill="none" stroke="midnightblue" d="M927.04,-258.52C1011.73,-247.33 1170.94,-226.27 1258.64,-214.68"/>
<polygon fill="midnightblue" stroke="midnightblue" points="1259.26,-218.13 1268.72,-213.35 1258.34,-211.19 1259.26,-218.13"/>
</g>
<!-- Node23 -->
<g id="node23" class="node">
<title>Node23</title>
<g id="a_node23"><a xlink:title=" ">
<polygon fill="none" stroke="#bfbfbf" points="765,-62 765,-81 810,-81 810,-62 765,-62"/>
<text text-anchor="middle" x="787.5" y="-69" font-family="Helvetica,sans-Serif" font-size="10.00">utility</text>
</a>
</g>
</g>
<!-- Node10&#45;&gt;Node23 -->
<g id="edge48" class="edge">
<title>Node10&#45;&gt;Node23</title>
<path fill="none" stroke="midnightblue" d="M826.83,-257.46C775.3,-244.79 691.91,-215.54 654.5,-154 628.75,-111.64 707.84,-88.19 755,-78.26"/>
<polygon fill="midnightblue" stroke="midnightblue" points="755.69,-81.69 764.81,-76.29 754.31,-74.83 755.69,-81.69"/>
</g>
<!-- Node26 -->
<g id="node26" class="node">
<title>Node26</title>
<g id="a_node26"><a xlink:title=" ">
<polygon fill="none" stroke="#bfbfbf" points="663.5,-129 663.5,-148 823.5,-148 823.5,-129 663.5,-129"/>
<text text-anchor="middle" x="743.5" y="-136" font-family="Helvetica,sans-Serif" font-size="10.00">boost/mpi/communicator.hpp</text>
</a>
</g>
</g>
<!-- Node10&#45;&gt;Node26 -->
<g id="edge46" class="edge">
<title>Node10&#45;&gt;Node26</title>
<path fill="none" stroke="midnightblue" d="M861.77,-257.31C840.65,-236.27 786.56,-182.39 759.47,-155.4"/>
<polygon fill="midnightblue" stroke="midnightblue" points="761.85,-152.83 752.29,-148.26 756.91,-157.79 761.85,-152.83"/>
</g>
<!-- Node31 -->
<g id="node31" class="node">
<title>Node31</title>
<g id="a_node31"><a xlink:title=" ">
<polygon fill="none" stroke="#bfbfbf" points="841.5,-129 841.5,-148 899.5,-148 899.5,-129 841.5,-129"/>
<text text-anchor="middle" x="870.5" y="-136" font-family="Helvetica,sans-Serif" font-size="10.00">memory</text>
</a>
</g>
</g>
<!-- Node10&#45;&gt;Node31 -->
<g id="edge47" class="edge">
<title>Node10&#45;&gt;Node31</title>
<path fill="none" stroke="midnightblue" d="M870.5,-257.31C870.5,-236.99 870.5,-186.05 870.5,-158.28"/>
<polygon fill="midnightblue" stroke="midnightblue" points="874,-158.26 870.5,-148.26 867,-158.26 874,-158.26"/>
</g>
<!-- Node11&#45;&gt;Node6 -->
<g id="edge45" class="edge">
<title>Node11&#45;&gt;Node6</title>
<path fill="none" stroke="midnightblue" d="M1268.6,-201.57C1156.38,-195.01 882.85,-177.83 654.5,-154 629.21,-151.36 600.73,-147.54 579.22,-144.49"/>
<polygon fill="midnightblue" stroke="midnightblue" points="579.67,-141.01 569.27,-143.06 578.67,-147.94 579.67,-141.01"/>
</g>
<!-- Node12 -->
<g id="node12" class="node">
<title>Node12</title>
<g id="a_node12"><a xlink:href="NumeratedContainer_8hpp.html" target="_top" xlink:title=" ">
<polygon fill="none" stroke="black" points="1943.5,-129 1943.5,-148 2107.5,-148 2107.5,-129 1943.5,-129"/>
<text text-anchor="middle" x="2025.5" y="-136" font-family="Helvetica,sans-Serif" font-size="10.00">utils/NumeratedContainer.hpp</text>
</a>
</g>
</g>
<!-- Node11&#45;&gt;Node12 -->
<g id="edge13" class="edge">
<title>Node11&#45;&gt;Node12</title>
<path fill="none" stroke="midnightblue" d="M1351.96,-195.95C1361.4,-193.68 1371.81,-191.46 1381.5,-190 1625.06,-153.39 1689.73,-181.41 1934.5,-154 1945.21,-152.8 1956.59,-151.23 1967.54,-149.56"/>
<polygon fill="midnightblue" stroke="midnightblue" points="1968.1,-153.02 1977.44,-148.01 1967.02,-146.1 1968.1,-153.02"/>
</g>
<!-- Node13 -->
<g id="node13" class="node">
<title>Node13</title>
<g id="a_node13"><a xlink:title=" ">
<polygon fill="none" stroke="#bfbfbf" points="2109.5,-62 2109.5,-81 2161.5,-81 2161.5,-62 2109.5,-62"/>
<text text-anchor="middle" x="2135.5" y="-69" font-family="Helvetica,sans-Serif" font-size="10.00">cassert</text>
</a>
</g>
</g>
<!-- Node11&#45;&gt;Node13 -->
<g id="edge38" class="edge">
<title>Node11&#45;&gt;Node13</title>
<path fill="none" stroke="midnightblue" d="M1351.63,-195.93C1361.15,-193.63 1371.69,-191.39 1381.5,-190 1462.45,-178.5 2053.72,-206.38 2116.5,-154 2134.6,-138.9 2137.39,-110.2 2137,-91.21"/>
<polygon fill="midnightblue" stroke="midnightblue" points="2140.49,-90.89 2136.48,-81.09 2133.5,-91.25 2140.49,-90.89"/>
</g>
<!-- Node16 -->
<g id="node16" class="node">
<title>Node16</title>
<g id="a_node16"><a xlink:href="as__const_8hpp.html" target="_top" xlink:title=" ">
<polygon fill="none" stroke="black" points="1605.5,-62 1605.5,-81 1709.5,-81 1709.5,-62 1605.5,-62"/>
<text text-anchor="middle" x="1657.5" y="-69" font-family="Helvetica,sans-Serif" font-size="10.00">utils/as_const.hpp</text>
</a>
</g>
</g>
<!-- Node11&#45;&gt;Node16 -->
<g id="edge18" class="edge">
<title>Node11&#45;&gt;Node16</title>
<path fill="none" stroke="midnightblue" d="M1353.28,-195.99C1362.38,-193.82 1372.28,-191.64 1381.5,-190 1447.38,-178.24 1636.1,-204.07 1680.5,-154 1696.45,-136.02 1682.64,-107.76 1670.59,-89.69"/>
<polygon fill="midnightblue" stroke="midnightblue" points="1673.25,-87.4 1664.61,-81.27 1667.55,-91.45 1673.25,-87.4"/>
</g>
<!-- Node17 -->
<g id="node17" class="node">
<title>Node17</title>
<g id="a_node17"><a xlink:title=" ">
<polygon fill="none" stroke="#bfbfbf" points="1583,-0.5 1583,-19.5 1652,-19.5 1652,-0.5 1583,-0.5"/>
<text text-anchor="middle" x="1617.5" y="-7.5" font-family="Helvetica,sans-Serif" font-size="10.00">type_traits</text>
</a>
</g>
</g>
<!-- Node11&#45;&gt;Node17 -->
<g id="edge43" class="edge">
<title>Node11&#45;&gt;Node17</title>
<path fill="none" stroke="midnightblue" d="M1353.27,-195.94C1362.37,-193.78 1372.28,-191.61 1381.5,-190 1451.34,-177.78 1644.13,-199.5 1698.5,-154 1732.59,-125.47 1742.71,-93.28 1718.5,-56 1705.96,-36.68 1682.98,-25.58 1662.11,-19.25"/>
<polygon fill="midnightblue" stroke="midnightblue" points="1662.97,-15.86 1652.4,-16.58 1661.12,-22.61 1662.97,-15.86"/>
</g>
<!-- Node18 -->
<g id="node18" class="node">
<title>Node18</title>
<g id="a_node18"><a xlink:href="tuple_8hpp.html" target="_top" xlink:title=" ">
<polygon fill="none" stroke="black" points="1585.5,-129 1585.5,-148 1671.5,-148 1671.5,-129 1585.5,-129"/>
<text text-anchor="middle" x="1628.5" y="-136" font-family="Helvetica,sans-Serif" font-size="10.00">utils/tuple.hpp</text>
</a>
</g>
</g>
<!-- Node11&#45;&gt;Node18 -->
<g id="edge20" class="edge">
<title>Node11&#45;&gt;Node18</title>
<path fill="none" stroke="midnightblue" d="M1354.95,-195.99C1363.6,-193.95 1372.87,-191.82 1381.5,-190 1467.3,-171.85 1490.02,-173.59 1575.5,-154 1579.91,-152.99 1584.5,-151.86 1589.06,-150.68"/>
<polygon fill="midnightblue" stroke="midnightblue" points="1590.13,-154.02 1598.9,-148.07 1588.33,-147.25 1590.13,-154.02"/>
</g>
<!-- Node20 -->
<g id="node20" class="node">
<title>Node20</title>
<g id="a_node20"><a xlink:title=" ">
<polygon fill="none" stroke="#bfbfbf" points="1755,-0.5 1755,-19.5 1796,-19.5 1796,-0.5 1755,-0.5"/>
<text text-anchor="middle" x="1775.5" y="-7.5" font-family="Helvetica,sans-Serif" font-size="10.00">tuple</text>
</a>
</g>
</g>
<!-- Node11&#45;&gt;Node20 -->
<g id="edge42" class="edge">
<title>Node11&#45;&gt;Node20</title>
<path fill="none" stroke="midnightblue" d="M1352.95,-195.96C1362.13,-193.77 1372.16,-191.59 1381.5,-190 1457.49,-177.06 1666.19,-202.01 1726.5,-154 1764.92,-123.42 1773.35,-61.16 1775.11,-29.86"/>
<polygon fill="midnightblue" stroke="midnightblue" points="1778.62,-29.63 1775.51,-19.51 1771.63,-29.36 1778.62,-29.63"/>
</g>
<!-- Node21 -->
<g id="node21" class="node">
<title>Node21</title>
<g id="a_node21"><a xlink:href="type__traits_8hpp.html" target="_top" xlink:title=" ">
<polygon fill="none" stroke="black" points="1301.5,-62 1301.5,-81 1415.5,-81 1415.5,-62 1301.5,-62"/>
<text text-anchor="middle" x="1358.5" y="-69" font-family="Helvetica,sans-Serif" font-size="10.00">utils/type_traits.hpp</text>
</a>
</g>
</g>
<!-- Node11&#45;&gt;Node21 -->
<g id="edge32" class="edge">
<title>Node11&#45;&gt;Node21</title>
<path fill="none" stroke="midnightblue" d="M1268.95,-204.59C1184.05,-203.52 1020.58,-195.91 984.5,-154 975.51,-143.56 975.43,-133.37 984.5,-123 1004.33,-100.32 1188.73,-84.16 1290.98,-76.86"/>
<polygon fill="midnightblue" stroke="midnightblue" points="1291.49,-80.33 1301.22,-76.14 1291,-73.35 1291.49,-80.33"/>
</g>
<!-- Node11&#45;&gt;Node23 -->
<g id="edge44" class="edge">
<title>Node11&#45;&gt;Node23</title>
<path fill="none" stroke="midnightblue" d="M1268.76,-201.7C1200.21,-196.92 1076.09,-184.54 974.5,-154 943.46,-144.67 938.13,-136.13 908.5,-123 878.14,-109.54 843.08,-95.02 818.54,-85.02"/>
<polygon fill="midnightblue" stroke="midnightblue" points="819.62,-81.68 809.04,-81.16 816.99,-88.17 819.62,-81.68"/>
</g>
<!-- Node24 -->
<g id="node24" class="node">
<title>Node24</title>
<g id="a_node24"><a xlink:title=" ">
<polygon fill="none" stroke="#bfbfbf" points="1804,-123.5 1804,-153.5 1925,-153.5 1925,-123.5 1804,-123.5"/>
<text text-anchor="start" x="1812" y="-141.5" font-family="Helvetica,sans-Serif" font-size="10.00">boost/mpi/collectives</text>
<text text-anchor="middle" x="1864.5" y="-130.5" font-family="Helvetica,sans-Serif" font-size="10.00">/all_reduce.hpp</text>
</a>
</g>
</g>
<!-- Node11&#45;&gt;Node24 -->
<g id="edge33" class="edge">
<title>Node11&#45;&gt;Node24</title>
<path fill="none" stroke="midnightblue" d="M1352.61,-195.94C1361.88,-193.72 1372.04,-191.53 1381.5,-190 1561.19,-160.87 1609.23,-179.31 1789.5,-154 1790.79,-153.82 1792.1,-153.63 1793.41,-153.43"/>
<polygon fill="midnightblue" stroke="midnightblue" points="1794.27,-156.84 1803.6,-151.82 1793.17,-149.93 1794.27,-156.84"/>
</g>
<!-- Node25 -->
<g id="node25" class="node">
<title>Node25</title>
<g id="a_node25"><a xlink:title=" ">
<polygon fill="none" stroke="#bfbfbf" points="994,-123.5 994,-153.5 1115,-153.5 1115,-123.5 994,-123.5"/>
<text text-anchor="start" x="1002" y="-141.5" font-family="Helvetica,sans-Serif" font-size="10.00">boost/mpi/collectives</text>
<text text-anchor="middle" x="1054.5" y="-130.5" font-family="Helvetica,sans-Serif" font-size="10.00">/broadcast.hpp</text>
</a>
</g>
</g>
<!-- Node11&#45;&gt;Node25 -->
<g id="edge34" class="edge">
<title>Node11&#45;&gt;Node25</title>
<path fill="none" stroke="midnightblue" d="M1285.45,-195.94C1243.97,-185.8 1173.96,-168.69 1121.87,-155.96"/>
<polygon fill="midnightblue" stroke="midnightblue" points="1122.58,-152.53 1112.03,-153.56 1120.92,-159.33 1122.58,-152.53"/>
</g>
<!-- Node11&#45;&gt;Node26 -->
<g id="edge35" class="edge">
<title>Node11&#45;&gt;Node26</title>
<path fill="none" stroke="midnightblue" d="M1268.74,-200.14C1179.5,-192.41 991.02,-175.1 832.5,-154 822.94,-152.73 812.83,-151.23 802.98,-149.68"/>
<polygon fill="midnightblue" stroke="midnightblue" points="803.28,-146.19 792.85,-148.07 802.18,-153.1 803.28,-146.19"/>
</g>
<!-- Node27 -->
<g id="node27" class="node">
<title>Node27</title>
<g id="a_node27"><a xlink:title=" ">
<polygon fill="none" stroke="#bfbfbf" points="1133,-129 1133,-148 1240,-148 1240,-129 1133,-129"/>
<text text-anchor="middle" x="1186.5" y="-136" font-family="Helvetica,sans-Serif" font-size="10.00">boost/optional.hpp</text>
</a>
</g>
</g>
<!-- Node11&#45;&gt;Node27 -->
<g id="edge36" class="edge">
<title>Node11&#45;&gt;Node27</title>
<path fill="none" stroke="midnightblue" d="M1302.71,-195.87C1279.88,-184.8 1240.07,-165.49 1213.5,-152.6"/>
<polygon fill="midnightblue" stroke="midnightblue" points="1214.89,-149.38 1204.37,-148.17 1211.84,-155.68 1214.89,-149.38"/>
</g>
<!-- Node28 -->
<g id="node28" class="node">
<title>Node28</title>
<g id="a_node28"><a xlink:title=" ">
<polygon fill="none" stroke="#bfbfbf" points="1258,-123.5 1258,-153.5 1383,-153.5 1383,-123.5 1258,-123.5"/>
<text text-anchor="start" x="1266" y="-141.5" font-family="Helvetica,sans-Serif" font-size="10.00">boost/range/algorithm</text>
<text text-anchor="middle" x="1320.5" y="-130.5" font-family="Helvetica,sans-Serif" font-size="10.00">/remove_if.hpp</text>
</a>
</g>
</g>
<!-- Node11&#45;&gt;Node28 -->
<g id="edge37" class="edge">
<title>Node11&#45;&gt;Node28</title>
<path fill="none" stroke="midnightblue" d="M1320.5,-195.73C1320.5,-187.54 1320.5,-174.92 1320.5,-163.71"/>
<polygon fill="midnightblue" stroke="midnightblue" points="1324,-163.59 1320.5,-153.59 1317,-163.59 1324,-163.59"/>
</g>
<!-- Node29 -->
<g id="node29" class="node">
<title>Node29</title>
<g id="a_node29"><a xlink:title=" ">
<polygon fill="none" stroke="#bfbfbf" points="1401,-129 1401,-148 1466,-148 1466,-129 1401,-129"/>
<text text-anchor="middle" x="1433.5" y="-136" font-family="Helvetica,sans-Serif" font-size="10.00">functional</text>
</a>
</g>
</g>
<!-- Node11&#45;&gt;Node29 -->
<g id="edge39" class="edge">
<title>Node11&#45;&gt;Node29</title>
<path fill="none" stroke="midnightblue" d="M1335.74,-195.73C1354.72,-184.82 1387.35,-166.05 1409.65,-153.22"/>
<polygon fill="midnightblue" stroke="midnightblue" points="1411.58,-156.15 1418.5,-148.13 1408.09,-150.08 1411.58,-156.15"/>
</g>
<!-- Node30 -->
<g id="node30" class="node">
<title>Node30</title>
<g id="a_node30"><a xlink:title=" ">
<polygon fill="none" stroke="#bfbfbf" points="1484,-129 1484,-148 1567,-148 1567,-129 1484,-129"/>
<text text-anchor="middle" x="1525.5" y="-136" font-family="Helvetica,sans-Serif" font-size="10.00">initializer_list</text>
</a>
</g>
</g>
<!-- Node11&#45;&gt;Node30 -->
<g id="edge40" class="edge">
<title>Node11&#45;&gt;Node30</title>
<path fill="none" stroke="midnightblue" d="M1347.72,-195.87C1383.97,-184.38 1448.2,-164.01 1488.73,-151.16"/>
<polygon fill="midnightblue" stroke="midnightblue" points="1490.02,-154.42 1498.49,-148.06 1487.9,-147.75 1490.02,-154.42"/>
</g>
<!-- Node11&#45;&gt;Node31 -->
<g id="edge41" class="edge">
<title>Node11&#45;&gt;Node31</title>
<path fill="none" stroke="midnightblue" d="M1268.84,-201.44C1191,-196.08 1039.32,-182.71 913.5,-154 910.01,-153.2 906.41,-152.24 902.85,-151.18"/>
<polygon fill="midnightblue" stroke="midnightblue" points="903.61,-147.75 893.02,-148.05 901.48,-154.42 903.61,-147.75"/>
</g>
<!-- Node12&#45;&gt;Node5 -->
<g id="edge15" class="edge">
<title>Node12&#45;&gt;Node5</title>
<path fill="none" stroke="midnightblue" d="M1996.94,-128.92C1942.95,-112.92 1822.03,-78.16 1718.5,-56 1633.79,-37.87 1533.04,-23.09 1480.13,-15.84"/>
<polygon fill="midnightblue" stroke="midnightblue" points="1480.59,-12.37 1470.21,-14.49 1479.65,-19.3 1480.59,-12.37"/>
</g>
<!-- Node12&#45;&gt;Node13 -->
<g id="edge14" class="edge">
<title>Node12&#45;&gt;Node13</title>
<path fill="none" stroke="midnightblue" d="M2040.34,-128.73C2058.81,-117.82 2090.57,-99.05 2112.28,-86.22"/>
<polygon fill="midnightblue" stroke="midnightblue" points="2114.07,-89.23 2120.9,-81.13 2110.51,-83.2 2114.07,-89.23"/>
</g>
<!-- Node12&#45;&gt;Node14 -->
<g id="edge16" class="edge">
<title>Node12&#45;&gt;Node14</title>
<path fill="none" stroke="midnightblue" d="M2051.92,-128.99C2081.16,-119.42 2129.57,-103.09 2170.5,-87 2173.03,-86 2175.66,-84.93 2178.27,-83.83"/>
<polygon fill="midnightblue" stroke="midnightblue" points="2179.71,-87.02 2187.49,-79.84 2176.93,-80.6 2179.71,-87.02"/>
</g>
<!-- Node15 -->
<g id="node15" class="node">
<title>Node15</title>
<g id="a_node15"><a xlink:title=" ">
<polygon fill="none" stroke="#bfbfbf" points="1979,-62 1979,-81 2072,-81 2072,-62 1979,-62"/>
<text text-anchor="middle" x="2025.5" y="-69" font-family="Helvetica,sans-Serif" font-size="10.00">unordered_map</text>
</a>
</g>
</g>
<!-- Node12&#45;&gt;Node15 -->
<g id="edge17" class="edge">
<title>Node12&#45;&gt;Node15</title>
<path fill="none" stroke="midnightblue" d="M2025.5,-128.73C2025.5,-119.18 2025.5,-103.62 2025.5,-91.28"/>
<polygon fill="midnightblue" stroke="midnightblue" points="2029,-91.13 2025.5,-81.13 2022,-91.13 2029,-91.13"/>
</g>
<!-- Node16&#45;&gt;Node17 -->
<g id="edge19" class="edge">
<title>Node16&#45;&gt;Node17</title>
<path fill="none" stroke="midnightblue" d="M1651.77,-61.98C1645.83,-53.14 1636.38,-39.09 1628.91,-27.98"/>
<polygon fill="midnightblue" stroke="midnightblue" points="1631.7,-25.86 1623.22,-19.51 1625.89,-29.76 1631.7,-25.86"/>
</g>
<!-- Node18&#45;&gt;Node5 -->
<g id="edge28" class="edge">
<title>Node18&#45;&gt;Node5</title>
<path fill="none" stroke="midnightblue" d="M1597.63,-128.95C1550.94,-115.91 1467.27,-92.02 1462.5,-87 1447.96,-71.7 1444.06,-47.02 1443.25,-29.96"/>
<polygon fill="midnightblue" stroke="midnightblue" points="1446.75,-29.51 1443.09,-19.57 1439.75,-29.62 1446.75,-29.51"/>
</g>
<!-- Node18&#45;&gt;Node17 -->
<g id="edge30" class="edge">
<title>Node18&#45;&gt;Node17</title>
<path fill="none" stroke="midnightblue" d="M1620.91,-128.96C1613.04,-119.48 1601.24,-103.35 1596.5,-87 1592.66,-73.77 1593.52,-69.45 1596.5,-56 1598.62,-46.43 1603.01,-36.48 1607.22,-28.37"/>
<polygon fill="midnightblue" stroke="midnightblue" points="1610.32,-30 1612.12,-19.56 1604.2,-26.6 1610.32,-30"/>
</g>
<!-- Node19 -->
<g id="node19" class="node">
<title>Node19</title>
<g id="a_node19"><a xlink:href="get_8hpp.html" target="_top" xlink:title=" ">
<polygon fill="none" stroke="black" points="1472,-62 1472,-81 1549,-81 1549,-62 1472,-62"/>
<text text-anchor="middle" x="1510.5" y="-69" font-family="Helvetica,sans-Serif" font-size="10.00">utils/get.hpp</text>
</a>
</g>
</g>
<!-- Node18&#45;&gt;Node19 -->
<g id="edge21" class="edge">
<title>Node18&#45;&gt;Node19</title>
<path fill="none" stroke="midnightblue" d="M1612.59,-128.73C1592.68,-117.77 1558.39,-98.88 1535.1,-86.05"/>
<polygon fill="midnightblue" stroke="midnightblue" points="1536.61,-82.89 1526.16,-81.13 1533.23,-89.02 1536.61,-82.89"/>
</g>
<!-- Node18&#45;&gt;Node20 -->
<g id="edge29" class="edge">
<title>Node18&#45;&gt;Node20</title>
<path fill="none" stroke="midnightblue" d="M1648.98,-129C1668.28,-120.33 1697.34,-105.53 1718.5,-87 1738,-69.92 1755.04,-45.17 1765.29,-28.6"/>
<polygon fill="midnightblue" stroke="midnightblue" points="1768.36,-30.29 1770.51,-19.91 1762.36,-26.68 1768.36,-30.29"/>
</g>
<!-- Node18&#45;&gt;Node21 -->
<g id="edge24" class="edge">
<title>Node18&#45;&gt;Node21</title>
<path fill="none" stroke="midnightblue" d="M1598,-128.94C1590.65,-126.94 1582.81,-124.85 1575.5,-123 1517.93,-108.43 1451.35,-93.17 1407.29,-83.29"/>
<polygon fill="midnightblue" stroke="midnightblue" points="1407.94,-79.85 1397.42,-81.08 1406.41,-86.68 1407.94,-79.85"/>
</g>
<!-- Node18&#45;&gt;Node23 -->
<g id="edge31" class="edge">
<title>Node18&#45;&gt;Node23</title>
<path fill="none" stroke="midnightblue" d="M1601.5,-128.98C1593.23,-126.68 1584.06,-124.43 1575.5,-123 1285.95,-74.63 929.42,-71.85 820.58,-72.23"/>
<polygon fill="midnightblue" stroke="midnightblue" points="820.24,-68.73 810.26,-72.28 820.28,-75.73 820.24,-68.73"/>
</g>
<!-- Node19&#45;&gt;Node5 -->
<g id="edge22" class="edge">
<title>Node19&#45;&gt;Node5</title>
<path fill="none" stroke="midnightblue" d="M1500.9,-61.98C1490.45,-52.7 1473.53,-37.67 1460.76,-26.33"/>
<polygon fill="midnightblue" stroke="midnightblue" points="1462.88,-23.53 1453.08,-19.51 1458.23,-28.77 1462.88,-23.53"/>
</g>
<!-- Node19&#45;&gt;Node20 -->
<g id="edge23" class="edge">
<title>Node19&#45;&gt;Node20</title>
<path fill="none" stroke="midnightblue" d="M1548.47,-61.98C1601.4,-50.09 1696.33,-28.78 1744.96,-17.86"/>
<polygon fill="midnightblue" stroke="midnightblue" points="1745.89,-21.23 1754.88,-15.63 1744.36,-14.4 1745.89,-21.23"/>
</g>
<!-- Node21&#45;&gt;Node5 -->
<g id="edge26" class="edge">
<title>Node21&#45;&gt;Node5</title>
<path fill="none" stroke="midnightblue" d="M1370.68,-61.98C1384.31,-52.43 1406.63,-36.81 1422.97,-25.37"/>
<polygon fill="midnightblue" stroke="midnightblue" points="1425.16,-28.11 1431.34,-19.51 1421.14,-22.38 1425.16,-28.11"/>
</g>
<!-- Node21&#45;&gt;Node17 -->
<g id="edge27" class="edge">
<title>Node21&#45;&gt;Node17</title>
<path fill="none" stroke="midnightblue" d="M1395.61,-61.98C1442.46,-51.21 1522.96,-32.72 1573.05,-21.21"/>
<polygon fill="midnightblue" stroke="midnightblue" points="1573.98,-24.59 1582.94,-18.94 1572.41,-17.77 1573.98,-24.59"/>
</g>
<!-- Node22 -->
<g id="node22" class="node">
<title>Node22</title>
<g id="a_node22"><a xlink:title=" ">
<polygon fill="none" stroke="#bfbfbf" points="1333.5,-0.5 1333.5,-19.5 1383.5,-19.5 1383.5,-0.5 1333.5,-0.5"/>
<text text-anchor="middle" x="1358.5" y="-7.5" font-family="Helvetica,sans-Serif" font-size="10.00">climits</text>
</a>
</g>
</g>
<!-- Node21&#45;&gt;Node22 -->
<g id="edge25" class="edge">
<title>Node21&#45;&gt;Node22</title>
<path fill="none" stroke="midnightblue" d="M1358.5,-61.98C1358.5,-53.58 1358.5,-40.48 1358.5,-29.66"/>
<polygon fill="midnightblue" stroke="midnightblue" points="1362,-29.51 1358.5,-19.51 1355,-29.51 1362,-29.51"/>
</g>
<!-- Node32&#45;&gt;Node2 -->
<g id="edge50" class="edge">
<title>Node32&#45;&gt;Node2</title>
<path fill="none" stroke="midnightblue" d="M377.53,-257.49C337.41,-249.23 276,-235.81 223.5,-221 220.49,-220.15 217.38,-219.22 214.27,-218.24"/>
<polygon fill="midnightblue" stroke="midnightblue" points="215.07,-214.82 204.47,-215.06 212.9,-221.48 215.07,-214.82"/>
</g>
<!-- Node32&#45;&gt;Node6 -->
<g id="edge61" class="edge">
<title>Node32&#45;&gt;Node6</title>
<path fill="none" stroke="midnightblue" d="M429.09,-257.31C449.88,-236.27 503.12,-182.39 529.78,-155.4"/>
<polygon fill="midnightblue" stroke="midnightblue" points="532.31,-157.83 536.85,-148.26 527.33,-152.91 532.31,-157.83"/>
</g>
<!-- Node32&#45;&gt;Node9 -->
<g id="edge60" class="edge">
<title>Node32&#45;&gt;Node9</title>
<path fill="none" stroke="midnightblue" d="M418.41,-257.27C412.31,-233.28 392.47,-165.34 354.5,-123 339.84,-106.65 318.6,-93.94 301.15,-85.37"/>
<polygon fill="midnightblue" stroke="midnightblue" points="302.45,-82.11 291.91,-81.03 299.48,-88.45 302.45,-82.11"/>
</g>
<!-- Node33 -->
<g id="node33" class="node">
<title>Node33</title>
<g id="a_node33"><a xlink:href="RuntimeError_8hpp.html" target="_top" xlink:title=" ">
<polygon fill="none" stroke="black" points="401.5,-129 401.5,-148 503.5,-148 503.5,-129 401.5,-129"/>
<text text-anchor="middle" x="452.5" y="-136" font-family="Helvetica,sans-Serif" font-size="10.00">RuntimeError.hpp</text>
</a>
</g>
</g>
<!-- Node32&#45;&gt;Node33 -->
<g id="edge51" class="edge">
<title>Node32&#45;&gt;Node33</title>
<path fill="none" stroke="midnightblue" d="M422.7,-257.31C427.84,-236.99 440.72,-186.05 447.75,-158.28"/>
<polygon fill="midnightblue" stroke="midnightblue" points="451.23,-158.81 450.29,-148.26 444.44,-157.09 451.23,-158.81"/>
</g>
<!-- Node36 -->
<g id="node36" class="node">
<title>Node36</title>
<g id="a_node36"><a xlink:href="RuntimeErrorStream_8hpp.html" target="_top" xlink:title=" ">
<polygon fill="none" stroke="black" points="233,-196 233,-215 370,-215 370,-196 233,-196"/>
<text text-anchor="middle" x="301.5" y="-203" font-family="Helvetica,sans-Serif" font-size="10.00">RuntimeErrorStream.hpp</text>
</a>
</g>
</g>
<!-- Node32&#45;&gt;Node36 -->
<g id="edge56" class="edge">
<title>Node32&#45;&gt;Node36</title>
<path fill="none" stroke="midnightblue" d="M403.45,-257.48C383.66,-247.58 350.78,-231.14 327.73,-219.62"/>
<polygon fill="midnightblue" stroke="midnightblue" points="329.03,-216.35 318.52,-215.01 325.9,-222.61 329.03,-216.35"/>
</g>
<!-- Node33&#45;&gt;Node9 -->
<g id="edge54" class="edge">
<title>Node33&#45;&gt;Node9</title>
<path fill="none" stroke="midnightblue" d="M428.33,-128.87C395.89,-117.28 338.21,-96.68 302.28,-83.85"/>
<polygon fill="midnightblue" stroke="midnightblue" points="303.36,-80.52 292.77,-80.45 301.01,-87.11 303.36,-80.52"/>
</g>
<!-- Node33&#45;&gt;Node23 -->
<g id="edge55" class="edge">
<title>Node33&#45;&gt;Node23</title>
<path fill="none" stroke="midnightblue" d="M486.38,-128.97C494.88,-126.92 504.01,-124.8 512.5,-123 599.79,-104.45 703.52,-86.5 755.07,-77.85"/>
<polygon fill="midnightblue" stroke="midnightblue" points="755.67,-81.3 764.96,-76.2 754.52,-74.4 755.67,-81.3"/>
</g>
<!-- Node34 -->
<g id="node34" class="node">
<title>Node34</title>
<g id="a_node34"><a xlink:title=" ">
<polygon fill="none" stroke="#bfbfbf" points="328,-56.5 328,-86.5 435,-86.5 435,-56.5 328,-56.5"/>
<text text-anchor="start" x="336" y="-74.5" font-family="Helvetica,sans-Serif" font-size="10.00">boost/serialization</text>
<text text-anchor="middle" x="381.5" y="-63.5" font-family="Helvetica,sans-Serif" font-size="10.00">/access.hpp</text>
</a>
</g>
</g>
<!-- Node33&#45;&gt;Node34 -->
<g id="edge52" class="edge">
<title>Node33&#45;&gt;Node34</title>
<path fill="none" stroke="midnightblue" d="M442.92,-128.73C433.14,-119.78 417.59,-105.54 404.59,-93.63"/>
<polygon fill="midnightblue" stroke="midnightblue" points="406.63,-90.76 396.89,-86.59 401.9,-95.92 406.63,-90.76"/>
</g>
<!-- Node35 -->
<g id="node35" class="node">
<title>Node35</title>
<g id="a_node35"><a xlink:title=" ">
<polygon fill="none" stroke="#bfbfbf" points="453,-56.5 453,-86.5 560,-86.5 560,-56.5 453,-56.5"/>
<text text-anchor="start" x="461" y="-74.5" font-family="Helvetica,sans-Serif" font-size="10.00">boost/serialization</text>
<text text-anchor="middle" x="506.5" y="-63.5" font-family="Helvetica,sans-Serif" font-size="10.00">/string.hpp</text>
</a>
</g>
</g>
<!-- Node33&#45;&gt;Node35 -->
<g id="edge53" class="edge">
<title>Node33&#45;&gt;Node35</title>
<path fill="none" stroke="midnightblue" d="M459.78,-128.73C467.08,-119.95 478.6,-106.08 488.38,-94.31"/>
<polygon fill="midnightblue" stroke="midnightblue" points="491.1,-96.52 494.8,-86.59 485.71,-92.04 491.1,-96.52"/>
</g>
<!-- Node36&#45;&gt;Node9 -->
<g id="edge59" class="edge">
<title>Node36&#45;&gt;Node9</title>
<path fill="none" stroke="midnightblue" d="M297.03,-195.81C292.16,-185.95 284.52,-169.24 280.5,-154 274.94,-132.95 272.46,-108 271.36,-91.3"/>
<polygon fill="midnightblue" stroke="midnightblue" points="274.84,-91 270.79,-81.21 267.86,-91.39 274.84,-91"/>
</g>
<!-- Node36&#45;&gt;Node33 -->
<g id="edge57" class="edge">
<title>Node36&#45;&gt;Node33</title>
<path fill="none" stroke="midnightblue" d="M321.55,-195.87C347.5,-184.7 392.92,-165.15 422.86,-152.26"/>
<polygon fill="midnightblue" stroke="midnightblue" points="424.56,-155.34 432.37,-148.17 421.8,-148.91 424.56,-155.34"/>
</g>
<!-- Node37 -->
<g id="node37" class="node">
<title>Node37</title>
<g id="a_node37"><a xlink:title=" ">
<polygon fill="none" stroke="#bfbfbf" points="289.5,-129 289.5,-148 345.5,-148 345.5,-129 289.5,-129"/>
<text text-anchor="middle" x="317.5" y="-136" font-family="Helvetica,sans-Serif" font-size="10.00">sstream</text>
</a>
</g>
</g>
<!-- Node36&#45;&gt;Node37 -->
<g id="edge58" class="edge">
<title>Node36&#45;&gt;Node37</title>
<path fill="none" stroke="midnightblue" d="M303.66,-195.73C306.03,-186.09 309.92,-170.3 312.97,-157.91"/>
<polygon fill="midnightblue" stroke="midnightblue" points="316.38,-158.67 315.38,-148.13 309.59,-157 316.38,-158.67"/>
</g>
<!-- Node39 -->
<g id="node39" class="node">
<title>Node39</title>
<g id="a_node39"><a xlink:href="device__qualifier_8hpp.html" target="_top" xlink:title=" ">
<polygon fill="none" stroke="black" points="1798.5,-196 1798.5,-215 1914.5,-215 1914.5,-196 1798.5,-196"/>
<text text-anchor="middle" x="1856.5" y="-203" font-family="Helvetica,sans-Serif" font-size="10.00">device_qualifier.hpp</text>
</a>
</g>
</g>
<!-- Node38&#45;&gt;Node39 -->
<g id="edge63" class="edge">
<title>Node38&#45;&gt;Node39</title>
<path fill="none" stroke="midnightblue" d="M1280.09,-258.67C1284.96,-258.08 1289.82,-257.52 1294.5,-257 1472.14,-237.44 1681.99,-220.11 1787.94,-211.77"/>
<polygon fill="midnightblue" stroke="midnightblue" points="1788.48,-215.24 1798.17,-210.97 1787.93,-208.26 1788.48,-215.24"/>
</g>
<!-- Node40 -->
<g id="node40" class="node">
<title>Node40</title>
<g id="a_node40"><a xlink:title=" ">
<polygon fill="none" stroke="#bfbfbf" points="1390.5,-190.5 1390.5,-220.5 1512.5,-220.5 1512.5,-190.5 1390.5,-190.5"/>
<text text-anchor="start" x="1398.5" y="-208.5" font-family="Helvetica,sans-Serif" font-size="10.00">boost/math/constants</text>
<text text-anchor="middle" x="1451.5" y="-197.5" font-family="Helvetica,sans-Serif" font-size="10.00">/constants.hpp</text>
</a>
</g>
</g>
<!-- Node38&#45;&gt;Node40 -->
<g id="edge65" class="edge">
<title>Node38&#45;&gt;Node40</title>
<path fill="none" stroke="midnightblue" d="M1257.88,-257.48C1291.85,-248.53 1346.1,-234.25 1388.55,-223.07"/>
<polygon fill="midnightblue" stroke="midnightblue" points="1389.46,-226.45 1398.24,-220.52 1387.67,-219.68 1389.46,-226.45"/>
</g>
<!-- Node39&#45;&gt;Node13 -->
<g id="edge64" class="edge">
<title>Node39&#45;&gt;Node13</title>
<path fill="none" stroke="midnightblue" d="M1914.58,-203.02C1991.27,-199.7 2120.07,-188.94 2149.5,-154 2164.48,-136.21 2154.9,-108.3 2145.84,-90.2"/>
<polygon fill="midnightblue" stroke="midnightblue" points="2148.85,-88.42 2141.02,-81.28 2142.69,-91.74 2148.85,-88.42"/>
</g>
</g>
</svg>
        <g id="navigator" transform="translate(0 0)" fill="#404254">
                <rect fill="#f2f5e9" fill-opacity="0.5" stroke="#606060" stroke-width=".5" x="0" y="0" width="60" height="60"/>
                <use id="zoomplus" xlink:href="#zoomPlus" x="17" y="9" onmousedown="handleZoom(evt,'in')"/>
                <use id="zoomminus" xlink:href="#zoomMin" x="42" y="9" onmousedown="handleZoom(evt,'out')"/>
                <use id="reset" xlink:href="#resetDef" x="30" y="36" onmousedown="handleReset()"/>
                <g id="arrowUp" xlink:href="#dirArrow" transform="translate(30 24)" onmousedown="handlePan(0,-1)">
                  <use xlink:href="#rim" fill="#404040">
                        <set attributeName="fill" to="#808080" begin="arrowUp.mouseover" end="arrowUp.mouseout"/>
                  </use>
                  <path fill="none" stroke="white" stroke-width="1.5" d="M0,-3.0v7 M-2.5,-0.5L0,-3.0L2.5,-0.5"/>
                </g>
                <g id="arrowRight" xlink:href="#dirArrow" transform="rotate(90) translate(36 -43)" onmousedown="handlePan(1,0)">
                  <use xlink:href="#rim" fill="#404040">
                        <set attributeName="fill" to="#808080" begin="arrowRight.mouseover" end="arrowRight.mouseout"/>
                  </use>
                  <path fill="none" stroke="white" stroke-width="1.5" d="M0,-3.0v7 M-2.5,-0.5L0,-3.0L2.5,-0.5"/>
                </g>
                <g id="arrowDown" xlink:href="#dirArrow" transform="rotate(180) translate(-30 -48)" onmousedown="handlePan(0,1)">
                  <use xlink:href="#rim" fill="#404040">
                        <set attributeName="fill" to="#808080" begin="arrowDown.mouseover" end="arrowDown.mouseout"/>
                  </use>
                  <path fill="none" stroke="white" stroke-width="1.5" d="M0,-3.0v7 M-2.5,-0.5L0,-3.0L2.5,-0.5"/>
                </g>
                <g id="arrowLeft" xlink:href="#dirArrow" transform="rotate(270) translate(-36 17)" onmousedown="handlePan(-1,0)">
                  <use xlink:href="#rim" fill="#404040">
                        <set attributeName="fill" to="#808080" begin="arrowLeft.mouseover" end="arrowLeft.mouseout"/>
                  </use>
                  <path fill="none" stroke="white" stroke-width="1.5" d="M0,-3.0v7 M-2.5,-0.5L0,-3.0L2.5,-0.5"/>
                </g>
        </g>
        <svg viewBox="0 0 15 15" width="100%" height="30px" preserveAspectRatio="xMaxYMin meet">
         <g id="arrow_out" transform="scale(0.3 0.3)">
          <a xlink:href="cuda__init_8cpp__incl_org.svg" target="_base">
           <rect id="button" ry="5" rx="5" y="6" x="6" height="38" width="38"
                fill="#f2f5e9" fill-opacity="0.5" stroke="#606060" stroke-width="1.0"/>
           <path id="arrow"
             d="M 11.500037,31.436501 C 11.940474,20.09759 22.043105,11.32322 32.158766,21.979434 L 37.068811,17.246167 C 37.068811,17.246167 37.088388,32 37.088388,32 L 22.160133,31.978069 C 22.160133,31.978069 26.997745,27.140456 26.997745,27.140456 C 18.528582,18.264221 13.291696,25.230495 11.500037,31.436501 z"
             style="fill:#404040;"/>
          </a>
         </g>
        </svg>
</svg>
