<?xml version="1.0" encoding="UTF-8" standalone="no"?>
<!DOCTYPE svg PUBLIC "-//W3C//DTD SVG 1.1//EN"
 "http://www.w3.org/Graphics/SVG/1.1/DTD/svg11.dtd">
<!-- Generated by graphviz version 2.43.0 (0)
 -->
<!-- Title: cuda_init.hpp Pages: 1 -->
<svg width="609pt" height="84pt"
 viewBox="0.00 0.00 608.50 84.00" xmlns="http://www.w3.org/2000/svg" xmlns:xlink="http://www.w3.org/1999/xlink">
<g id="graph0" class="graph" transform="scale(1 1) rotate(0) translate(4 80)">
<title>cuda_init.hpp</title>
<!-- Node1 -->
<g id="node1" class="node">
<title>Node1</title>
<g id="a_node1"><a xlink:title=" ">
<polygon fill="#bfbfbf" stroke="black" points="313,-56.5 313,-75.5 395,-75.5 395,-56.5 313,-56.5"/>
<text text-anchor="middle" x="354" y="-63.5" font-family="Helvetica,sans-Serif" font-size="10.00">cuda_init.hpp</text>
</a>
</g>
</g>
<!-- Node2 -->
<g id="node2" class="node">
<title>Node2</title>
<g id="a_node2"><a xlink:href="DipolarBarnesHut__cuda_8cu.html" target="_top" xlink:title=" ">
<polygon fill="none" stroke="black" points="0,-0.5 0,-19.5 146,-19.5 146,-0.5 0,-0.5"/>
<text text-anchor="middle" x="73" y="-7.5" font-family="Helvetica,sans-Serif" font-size="10.00">DipolarBarnesHut_cuda.cu</text>
</a>
</g>
</g>
<!-- Node1&#45;&gt;Node2 -->
<g id="edge1" class="edge">
<title>Node1&#45;&gt;Node2</title>
<path fill="none" stroke="midnightblue" d="M302.97,-55.19C250,-45.01 167.96,-29.25 117.52,-19.56"/>
<polygon fill="midnightblue" stroke="midnightblue" points="302.36,-58.64 312.84,-57.09 303.68,-51.77 302.36,-58.64"/>
</g>
<!-- Node3 -->
<g id="node3" class="node">
<title>Node3</title>
<g id="a_node3"><a xlink:href="cuda__common__cuda_8cu.html" target="_top" xlink:title=" ">
<polygon fill="none" stroke="black" points="164.5,-0.5 164.5,-19.5 295.5,-19.5 295.5,-0.5 164.5,-0.5"/>
<text text-anchor="middle" x="230" y="-7.5" font-family="Helvetica,sans-Serif" font-size="10.00">cuda_common_cuda.cu</text>
</a>
</g>
</g>
<!-- Node1&#45;&gt;Node3 -->
<g id="edge2" class="edge">
<title>Node1&#45;&gt;Node3</title>
<path fill="none" stroke="midnightblue" d="M324.99,-52.37C301.77,-42.26 269.84,-28.35 249.56,-19.52"/>
<polygon fill="midnightblue" stroke="midnightblue" points="323.79,-55.66 334.35,-56.44 326.58,-49.24 323.79,-55.66"/>
</g>
<!-- Node4 -->
<g id="node4" class="node">
<title>Node4</title>
<g id="a_node4"><a xlink:href="cuda__init_8cpp.html" target="_top" xlink:title=" ">
<polygon fill="none" stroke="black" points="313.5,-0.5 313.5,-19.5 394.5,-19.5 394.5,-0.5 313.5,-0.5"/>
<text text-anchor="middle" x="354" y="-7.5" font-family="Helvetica,sans-Serif" font-size="10.00">cuda_init.cpp</text>
</a>
</g>
</g>
<!-- Node1&#45;&gt;Node4 -->
<g id="edge3" class="edge">
<title>Node1&#45;&gt;Node4</title>
<path fill="none" stroke="midnightblue" d="M354,-45.8C354,-36.91 354,-26.78 354,-19.75"/>
<polygon fill="midnightblue" stroke="midnightblue" points="350.5,-46.08 354,-56.08 357.5,-46.08 350.5,-46.08"/>
</g>
<!-- Node5 -->
<g id="node5" class="node">
<title>Node5</title>
<g id="a_node5"><a xlink:href="cuda__init__cuda_8cu.html" target="_top" xlink:title=" ">
<polygon fill="none" stroke="black" points="413,-0.5 413,-19.5 517,-19.5 517,-0.5 413,-0.5"/>
<text text-anchor="middle" x="465" y="-7.5" font-family="Helvetica,sans-Serif" font-size="10.00">cuda_init_cuda.cu</text>
</a>
</g>
</g>
<!-- Node1&#45;&gt;Node5 -->
<g id="edge4" class="edge">
<title>Node1&#45;&gt;Node5</title>
<path fill="none" stroke="midnightblue" d="M381.01,-51.86C401.59,-41.85 429.34,-28.35 447.21,-19.65"/>
<polygon fill="midnightblue" stroke="midnightblue" points="379.3,-48.8 371.83,-56.32 382.36,-55.1 379.3,-48.8"/>
</g>
<!-- Node6 -->
<g id="node6" class="node">
<title>Node6</title>
<g id="a_node6"><a xlink:href="event_8cpp.html" target="_top" xlink:title=" ">
<polygon fill="none" stroke="black" points="535.5,-0.5 535.5,-19.5 600.5,-19.5 600.5,-0.5 535.5,-0.5"/>
<text text-anchor="middle" x="568" y="-7.5" font-family="Helvetica,sans-Serif" font-size="10.00">event.cpp</text>
</a>
</g>
</g>
<!-- Node1&#45;&gt;Node6 -->
<g id="edge5" class="edge">
<title>Node1&#45;&gt;Node6</title>
<path fill="none" stroke="midnightblue" d="M397.85,-53.94C438.65,-43.64 498.54,-28.53 535.3,-19.25"/>
<polygon fill="midnightblue" stroke="midnightblue" points="396.75,-50.6 387.91,-56.44 398.46,-57.39 396.75,-50.6"/>
</g>
</g>
</svg>
