<?xml version="1.0" encoding="UTF-8" standalone="no"?>
<!DOCTYPE svg PUBLIC "-//W3C//DTD SVG 1.1//EN"
 "http://www.w3.org/Graphics/SVG/1.1/DTD/svg11.dtd">
<!-- Generated by graphviz version 2.43.0 (0)
 -->
<!-- Title: cuda_utils.hpp Pages: 1 -->
<svg width="1961pt" height="151pt"
 viewBox="0.00 0.00 1961.00 151.00" xmlns="http://www.w3.org/2000/svg" xmlns:xlink="http://www.w3.org/1999/xlink">
<g id="graph0" class="graph" transform="scale(1 1) rotate(0) translate(4 147)">
<title>cuda_utils.hpp</title>
<!-- Node1 -->
<g id="node1" class="node">
<title>Node1</title>
<g id="a_node1"><a xlink:title=" ">
<polygon fill="#bfbfbf" stroke="black" points="1048,-123.5 1048,-142.5 1135,-142.5 1135,-123.5 1048,-123.5"/>
<text text-anchor="middle" x="1091.5" y="-130.5" font-family="Helvetica,sans-Serif" font-size="10.00">cuda_utils.hpp</text>
</a>
</g>
</g>
<!-- Node2 -->
<g id="node2" class="node">
<title>Node2</title>
<g id="a_node2"><a xlink:href="DipolarBarnesHut_8hpp.html" target="_top" xlink:title=" ">
<polygon fill="none" stroke="black" points="112.5,-67.5 112.5,-86.5 236.5,-86.5 236.5,-67.5 112.5,-67.5"/>
<text text-anchor="middle" x="174.5" y="-74.5" font-family="Helvetica,sans-Serif" font-size="10.00">DipolarBarnesHut.hpp</text>
</a>
</g>
</g>
<!-- Node1&#45;&gt;Node2 -->
<g id="edge1" class="edge">
<title>Node1&#45;&gt;Node2</title>
<path fill="none" stroke="midnightblue" d="M1037.83,-128.84C878.18,-119.44 406.81,-91.68 236.65,-81.66"/>
<polygon fill="midnightblue" stroke="midnightblue" points="1037.7,-132.34 1047.89,-129.43 1038.11,-125.35 1037.7,-132.34"/>
</g>
<!-- Node5 -->
<g id="node5" class="node">
<title>Node5</title>
<g id="a_node5"><a xlink:href="cuda__utils_8cuh.html" target="_top" xlink:title=" ">
<polygon fill="none" stroke="black" points="997.5,-67.5 997.5,-86.5 1083.5,-86.5 1083.5,-67.5 997.5,-67.5"/>
<text text-anchor="middle" x="1040.5" y="-74.5" font-family="Helvetica,sans-Serif" font-size="10.00">cuda_utils.cuh</text>
</a>
</g>
</g>
<!-- Node1&#45;&gt;Node5 -->
<g id="edge4" class="edge">
<title>Node1&#45;&gt;Node5</title>
<path fill="none" stroke="midnightblue" d="M1076.12,-115.72C1067.13,-106.2 1056.14,-94.56 1048.76,-86.75"/>
<polygon fill="midnightblue" stroke="midnightblue" points="1073.67,-118.22 1083.08,-123.08 1078.76,-113.41 1073.67,-118.22"/>
</g>
<!-- Node18 -->
<g id="node18" class="node">
<title>Node18</title>
<g id="a_node18"><a xlink:href="cuda__init_8cpp.html" target="_top" xlink:title=" ">
<polygon fill="none" stroke="black" points="1102,-67.5 1102,-86.5 1183,-86.5 1183,-67.5 1102,-67.5"/>
<text text-anchor="middle" x="1142.5" y="-74.5" font-family="Helvetica,sans-Serif" font-size="10.00">cuda_init.cpp</text>
</a>
</g>
</g>
<!-- Node1&#45;&gt;Node18 -->
<g id="edge17" class="edge">
<title>Node1&#45;&gt;Node18</title>
<path fill="none" stroke="midnightblue" d="M1106.88,-115.72C1115.87,-106.2 1126.86,-94.56 1134.24,-86.75"/>
<polygon fill="midnightblue" stroke="midnightblue" points="1104.24,-113.41 1099.92,-123.08 1109.33,-118.22 1104.24,-113.41"/>
</g>
<!-- Node19 -->
<g id="node19" class="node">
<title>Node19</title>
<g id="a_node19"><a xlink:href="event_8cpp.html" target="_top" xlink:title=" ">
<polygon fill="none" stroke="black" points="1201,-67.5 1201,-86.5 1266,-86.5 1266,-67.5 1201,-67.5"/>
<text text-anchor="middle" x="1233.5" y="-74.5" font-family="Helvetica,sans-Serif" font-size="10.00">event.cpp</text>
</a>
</g>
</g>
<!-- Node1&#45;&gt;Node19 -->
<g id="edge18" class="edge">
<title>Node1&#45;&gt;Node19</title>
<path fill="none" stroke="midnightblue" d="M1123.66,-119.77C1150.33,-109.63 1187.57,-95.47 1211.1,-86.52"/>
<polygon fill="midnightblue" stroke="midnightblue" points="1122.1,-116.62 1114,-123.44 1124.59,-123.16 1122.1,-116.62"/>
</g>
<!-- Node3 -->
<g id="node3" class="node">
<title>Node3</title>
<g id="a_node3"><a xlink:href="DipolarBarnesHut_8cpp.html" target="_top" xlink:title=" ">
<polygon fill="none" stroke="black" points="0,-6 0,-25 123,-25 123,-6 0,-6"/>
<text text-anchor="middle" x="61.5" y="-13" font-family="Helvetica,sans-Serif" font-size="10.00">DipolarBarnesHut.cpp</text>
</a>
</g>
</g>
<!-- Node2&#45;&gt;Node3 -->
<g id="edge2" class="edge">
<title>Node2&#45;&gt;Node3</title>
<path fill="none" stroke="midnightblue" d="M149.26,-62.71C127.38,-51.19 96.36,-34.86 77.66,-25.01"/>
<polygon fill="midnightblue" stroke="midnightblue" points="147.83,-65.91 158.31,-67.48 151.09,-59.72 147.83,-65.91"/>
</g>
<!-- Node4 -->
<g id="node4" class="node">
<title>Node4</title>
<g id="a_node4"><a xlink:href="dipole_8cpp.html" target="_top" xlink:title=" ">
<polygon fill="none" stroke="black" points="141,-6 141,-25 208,-25 208,-6 141,-6"/>
<text text-anchor="middle" x="174.5" y="-13" font-family="Helvetica,sans-Serif" font-size="10.00">dipole.cpp</text>
</a>
</g>
</g>
<!-- Node2&#45;&gt;Node4 -->
<g id="edge3" class="edge">
<title>Node2&#45;&gt;Node4</title>
<path fill="none" stroke="midnightblue" d="M174.5,-57.32C174.5,-46.5 174.5,-33.4 174.5,-25.01"/>
<polygon fill="midnightblue" stroke="midnightblue" points="171,-57.48 174.5,-67.48 178,-57.48 171,-57.48"/>
</g>
<!-- Node6 -->
<g id="node6" class="node">
<title>Node6</title>
<g id="a_node6"><a xlink:href="DipolarBarnesHut__cuda_8cu.html" target="_top" xlink:title=" ">
<polygon fill="none" stroke="black" points="226.5,-6 226.5,-25 372.5,-25 372.5,-6 226.5,-6"/>
<text text-anchor="middle" x="299.5" y="-13" font-family="Helvetica,sans-Serif" font-size="10.00">DipolarBarnesHut_cuda.cu</text>
</a>
</g>
</g>
<!-- Node5&#45;&gt;Node6 -->
<g id="edge5" class="edge">
<title>Node5&#45;&gt;Node6</title>
<path fill="none" stroke="midnightblue" d="M987.11,-74.29C874.71,-70.26 605.58,-58.38 381.5,-31 368.87,-29.46 355.24,-27.26 342.78,-25.04"/>
<polygon fill="midnightblue" stroke="midnightblue" points="987.05,-77.79 997.17,-74.64 987.3,-70.79 987.05,-77.79"/>
</g>
<!-- Node7 -->
<g id="node7" class="node">
<title>Node7</title>
<g id="a_node7"><a xlink:href="DipolarDirectSum__cuda_8cu.html" target="_top" xlink:title=" ">
<polygon fill="none" stroke="black" points="390.5,-6 390.5,-25 536.5,-25 536.5,-6 390.5,-6"/>
<text text-anchor="middle" x="463.5" y="-13" font-family="Helvetica,sans-Serif" font-size="10.00">DipolarDirectSum_cuda.cu</text>
</a>
</g>
</g>
<!-- Node5&#45;&gt;Node7 -->
<g id="edge6" class="edge">
<title>Node5&#45;&gt;Node7</title>
<path fill="none" stroke="midnightblue" d="M987.27,-72.64C896.42,-66.58 705.69,-52.41 545.5,-31 533.18,-29.35 519.88,-27.18 507.65,-25.01"/>
<polygon fill="midnightblue" stroke="midnightblue" points="987.12,-76.14 997.33,-73.31 987.58,-69.15 987.12,-76.14"/>
</g>
<!-- Node8 -->
<g id="node8" class="node">
<title>Node8</title>
<g id="a_node8"><a xlink:href="Mmm1dgpuForce__cuda_8cu.html" target="_top" xlink:title=" ">
<polygon fill="none" stroke="black" points="554.5,-6 554.5,-25 698.5,-25 698.5,-6 554.5,-6"/>
<text text-anchor="middle" x="626.5" y="-13" font-family="Helvetica,sans-Serif" font-size="10.00">Mmm1dgpuForce_cuda.cu</text>
</a>
</g>
</g>
<!-- Node5&#45;&gt;Node8 -->
<g id="edge7" class="edge">
<title>Node5&#45;&gt;Node8</title>
<path fill="none" stroke="midnightblue" d="M987.18,-69.51C921.33,-61.33 805.97,-46.46 707.5,-31 696.07,-29.21 683.76,-27.09 672.28,-25.05"/>
<polygon fill="midnightblue" stroke="midnightblue" points="986.95,-73.01 997.31,-70.76 987.81,-66.06 986.95,-73.01"/>
</g>
<!-- Node9 -->
<g id="node9" class="node">
<title>Node9</title>
<g id="a_node9"><a xlink:href="cuda__common__cuda_8cu.html" target="_top" xlink:title=" ">
<polygon fill="none" stroke="black" points="717,-6 717,-25 848,-25 848,-6 717,-6"/>
<text text-anchor="middle" x="782.5" y="-13" font-family="Helvetica,sans-Serif" font-size="10.00">cuda_common_cuda.cu</text>
</a>
</g>
</g>
<!-- Node5&#45;&gt;Node9 -->
<g id="edge8" class="edge">
<title>Node5&#45;&gt;Node9</title>
<path fill="none" stroke="midnightblue" d="M993.61,-65.19C943.55,-53.64 865.25,-35.58 819.4,-25.01"/>
<polygon fill="midnightblue" stroke="midnightblue" points="993,-68.64 1003.53,-67.48 994.58,-61.82 993,-68.64"/>
</g>
<!-- Node10 -->
<g id="node10" class="node">
<title>Node10</title>
<g id="a_node10"><a xlink:href="cuda__init__cuda_8cu.html" target="_top" xlink:title=" ">
<polygon fill="none" stroke="black" points="866.5,-6 866.5,-25 970.5,-25 970.5,-6 866.5,-6"/>
<text text-anchor="middle" x="918.5" y="-13" font-family="Helvetica,sans-Serif" font-size="10.00">cuda_init_cuda.cu</text>
</a>
</g>
</g>
<!-- Node5&#45;&gt;Node10 -->
<g id="edge9" class="edge">
<title>Node5&#45;&gt;Node10</title>
<path fill="none" stroke="midnightblue" d="M1013.89,-63.02C990.23,-51.48 956.32,-34.94 935.95,-25.01"/>
<polygon fill="midnightblue" stroke="midnightblue" points="1012.5,-66.24 1023.02,-67.48 1015.57,-59.95 1012.5,-66.24"/>
</g>
<!-- Node11 -->
<g id="node11" class="node">
<title>Node11</title>
<g id="a_node11"><a xlink:href="p3m__gpu__cuda_8cu.html" target="_top" xlink:title=" ">
<polygon fill="none" stroke="black" points="988.5,-6 988.5,-25 1092.5,-25 1092.5,-6 988.5,-6"/>
<text text-anchor="middle" x="1040.5" y="-13" font-family="Helvetica,sans-Serif" font-size="10.00">p3m_gpu_cuda.cu</text>
</a>
</g>
</g>
<!-- Node5&#45;&gt;Node11 -->
<g id="edge10" class="edge">
<title>Node5&#45;&gt;Node11</title>
<path fill="none" stroke="midnightblue" d="M1040.5,-57.32C1040.5,-46.5 1040.5,-33.4 1040.5,-25.01"/>
<polygon fill="midnightblue" stroke="midnightblue" points="1037,-57.48 1040.5,-67.48 1044,-57.48 1037,-57.48"/>
</g>
<!-- Node12 -->
<g id="node12" class="node">
<title>Node12</title>
<g id="a_node12"><a xlink:href="p3m__gpu__error__cuda_8cu.html" target="_top" xlink:title=" ">
<polygon fill="none" stroke="black" points="1111,-6 1111,-25 1244,-25 1244,-6 1111,-6"/>
<text text-anchor="middle" x="1177.5" y="-13" font-family="Helvetica,sans-Serif" font-size="10.00">p3m_gpu_error_cuda.cu</text>
</a>
</g>
</g>
<!-- Node5&#45;&gt;Node12 -->
<g id="edge11" class="edge">
<title>Node5&#45;&gt;Node12</title>
<path fill="none" stroke="midnightblue" d="M1069.33,-63.48C1095.94,-51.92 1134.73,-35.08 1157.91,-25.01"/>
<polygon fill="midnightblue" stroke="midnightblue" points="1067.91,-60.28 1060.13,-67.48 1070.7,-66.7 1067.91,-60.28"/>
</g>
<!-- Node13 -->
<g id="node13" class="node">
<title>Node13</title>
<g id="a_node13"><a xlink:href="EspressoSystemInterface__cuda_8cu.html" target="_top" xlink:title=" ">
<polygon fill="none" stroke="black" points="1262.5,-0.5 1262.5,-30.5 1402.5,-30.5 1402.5,-0.5 1262.5,-0.5"/>
<text text-anchor="start" x="1270.5" y="-18.5" font-family="Helvetica,sans-Serif" font-size="10.00">EspressoSystemInterface</text>
<text text-anchor="middle" x="1332.5" y="-7.5" font-family="Helvetica,sans-Serif" font-size="10.00">_cuda.cu</text>
</a>
</g>
</g>
<!-- Node5&#45;&gt;Node13 -->
<g id="edge12" class="edge">
<title>Node5&#45;&gt;Node13</title>
<path fill="none" stroke="midnightblue" d="M1092.15,-65.48C1139.88,-55.75 1211.14,-41.23 1263.68,-30.52"/>
<polygon fill="midnightblue" stroke="midnightblue" points="1091.44,-62.05 1082.34,-67.48 1092.83,-68.91 1091.44,-62.05"/>
</g>
<!-- Node14 -->
<g id="node14" class="node">
<title>Node14</title>
<g id="a_node14"><a xlink:href="electrokinetics__cuda_8cu.html" target="_top" xlink:title=" ">
<polygon fill="none" stroke="black" points="1421,-6 1421,-25 1552,-25 1552,-6 1421,-6"/>
<text text-anchor="middle" x="1486.5" y="-13" font-family="Helvetica,sans-Serif" font-size="10.00">electrokinetics_cuda.cu</text>
</a>
</g>
</g>
<!-- Node5&#45;&gt;Node14 -->
<g id="edge13" class="edge">
<title>Node5&#45;&gt;Node14</title>
<path fill="none" stroke="midnightblue" d="M1093.2,-67.04C1093.3,-67.03 1093.4,-67.01 1093.5,-67 1234.34,-47.09 1270.9,-52.52 1411.5,-31 1422.51,-29.31 1434.37,-27.17 1445.34,-25.06"/>
<polygon fill="midnightblue" stroke="midnightblue" points="1092.94,-63.54 1083.57,-68.48 1093.97,-70.47 1092.94,-63.54"/>
</g>
<!-- Node15 -->
<g id="node15" class="node">
<title>Node15</title>
<g id="a_node15"><a xlink:href="fd-electrostatics__cuda_8cu.html" target="_top" xlink:title=" ">
<polygon fill="none" stroke="black" points="1570,-6 1570,-25 1709,-25 1709,-6 1570,-6"/>
<text text-anchor="middle" x="1639.5" y="-13" font-family="Helvetica,sans-Serif" font-size="10.00">fd&#45;electrostatics_cuda.cu</text>
</a>
</g>
</g>
<!-- Node5&#45;&gt;Node15 -->
<g id="edge14" class="edge">
<title>Node5&#45;&gt;Node15</title>
<path fill="none" stroke="midnightblue" d="M1093.2,-67.04C1093.3,-67.03 1093.4,-67.01 1093.5,-67 1300.55,-41.51 1354.65,-58.1 1561.5,-31 1573.52,-29.43 1586.49,-27.22 1598.34,-25"/>
<polygon fill="midnightblue" stroke="midnightblue" points="1092.99,-63.53 1083.55,-68.35 1093.93,-70.47 1092.99,-63.53"/>
</g>
<!-- Node16 -->
<g id="node16" class="node">
<title>Node16</title>
<g id="a_node16"><a xlink:href="lbgpu__cuda_8cu.html" target="_top" xlink:title=" ">
<polygon fill="none" stroke="black" points="1727.5,-6 1727.5,-25 1813.5,-25 1813.5,-6 1727.5,-6"/>
<text text-anchor="middle" x="1770.5" y="-13" font-family="Helvetica,sans-Serif" font-size="10.00">lbgpu_cuda.cu</text>
</a>
</g>
</g>
<!-- Node5&#45;&gt;Node16 -->
<g id="edge15" class="edge">
<title>Node5&#45;&gt;Node16</title>
<path fill="none" stroke="midnightblue" d="M1093.2,-67.03C1093.3,-67.02 1093.4,-67.01 1093.5,-67 1369.97,-35.66 1444.03,-76.63 1718.5,-31 1726.91,-29.6 1735.92,-27.36 1744.03,-25.06"/>
<polygon fill="midnightblue" stroke="midnightblue" points="1093.01,-63.53 1083.54,-68.28 1093.91,-70.47 1093.01,-63.53"/>
</g>
<!-- Node17 -->
<g id="node17" class="node">
<title>Node17</title>
<g id="a_node17"><a xlink:href="lb__inertialess__tracers__cuda_8cu.html" target="_top" xlink:title=" ">
<polygon fill="none" stroke="black" points="1832,-0.5 1832,-30.5 1953,-30.5 1953,-0.5 1832,-0.5"/>
<text text-anchor="start" x="1840" y="-18.5" font-family="Helvetica,sans-Serif" font-size="10.00">lb_inertialess_tracers</text>
<text text-anchor="middle" x="1892.5" y="-7.5" font-family="Helvetica,sans-Serif" font-size="10.00">_cuda.cu</text>
</a>
</g>
</g>
<!-- Node5&#45;&gt;Node17 -->
<g id="edge16" class="edge">
<title>Node5&#45;&gt;Node17</title>
<path fill="none" stroke="midnightblue" d="M1093.2,-67.03C1093.3,-67.02 1093.4,-67.01 1093.5,-67 1415.98,-31.78 1500.71,-72.02 1822.5,-31 1825.58,-30.61 1828.72,-30.15 1831.89,-29.65"/>
<polygon fill="midnightblue" stroke="midnightblue" points="1093.02,-63.53 1083.54,-68.25 1093.9,-70.47 1093.02,-63.53"/>
</g>
</g>
</svg>
