<?xml version="1.0" encoding="UTF-8" standalone="no"?>
<!DOCTYPE svg PUBLIC "-//W3C//DTD SVG 1.1//EN"
 "http://www.w3.org/Graphics/SVG/1.1/DTD/svg11.dtd">
<!-- Generated by graphviz version 2.43.0 (0)
 -->
<!-- Title: CudaHostAllocator.hpp Pages: 1 -->
<!--zoomable 218 -->
<svg id="main" version="1.1" xmlns="http://www.w3.org/2000/svg" xmlns:xlink="http://www.w3.org/1999/xlink" xml:space="preserve" onload="init(evt)">
<style type="text/css"><![CDATA[
.edge:hover path { stroke: red; }
.edge:hover polygon { stroke: red; fill: red; }
]]></style>
<script type="text/javascript"><![CDATA[
var edges = document.getElementsByTagName('g');
if (edges && edges.length) {
  for (var i=0;i<edges.length;i++) {
    if (edges[i].id.substr(0,4)=='edge') {
      edges[i].setAttribute('class','edge');
    }
  }
}
]]></script>
        <defs>
                <circle id="rim" cx="0" cy="0" r="7"/>
                <circle id="rim2" cx="0" cy="0" r="3.5"/>
                <g id="zoomPlus">
                        <use xlink:href="#rim" fill="#404040">
                                <set attributeName="fill" to="#808080" begin="zoomplus.mouseover" end="zoomplus.mouseout"/>
                        </use>
                        <path d="M-4,0h8M0,-4v8" fill="none" stroke="white" stroke-width="1.5" pointer-events="none"/>
                </g>
                <g id="zoomMin">
                        <use xlink:href="#rim" fill="#404040">
                                <set attributeName="fill" to="#808080" begin="zoomminus.mouseover" end="zoomminus.mouseout"/>
                        </use>
                        <path d="M-4,0h8" fill="none" stroke="white" stroke-width="1.5" pointer-events="none"/>
                </g>
                <g id="dirArrow">
                        <path fill="none" stroke="white" stroke-width="1.5" d="M0,-3.0v7 M-2.5,-0.5L0,-3.0L2.5,-0.5"/>
                </g>
               <g id="resetDef">
                       <use xlink:href="#rim2" fill="#404040">
                               <set attributeName="fill" to="#808080" begin="reset.mouseover" end="reset.mouseout"/>
                       </use>
               </g>
        </defs>

<script type="text/javascript">
var viewWidth = 1567;
var viewHeight = 218;
var sectionId = 'dynsection-1';
</script>
<script xlink:href="svgpan.js"/>
<svg id="graph" class="graph">
<g id="viewport">
<title>CudaHostAllocator.hpp</title>
<!-- Node1 -->
<g id="node1" class="node">
<title>Node1</title>
<g id="a_node1"><a xlink:title=" ">
<polygon fill="#bfbfbf" stroke="black" points="1075.5,-190.5 1075.5,-209.5 1203.5,-209.5 1203.5,-190.5 1075.5,-190.5"/>
<text text-anchor="middle" x="1139.5" y="-197.5" font-family="Helvetica,sans-Serif" font-size="10.00">CudaHostAllocator.hpp</text>
</a>
</g>
</g>
<!-- Node2 -->
<g id="node2" class="node">
<title>Node2</title>
<g id="a_node2"><a xlink:href="cuda__interface_8hpp.html" target="_top" xlink:title=" ">
<polygon fill="none" stroke="black" points="647.5,-134.5 647.5,-153.5 757.5,-153.5 757.5,-134.5 647.5,-134.5"/>
<text text-anchor="middle" x="702.5" y="-141.5" font-family="Helvetica,sans-Serif" font-size="10.00">cuda_interface.hpp</text>
</a>
</g>
</g>
<!-- Node1&#45;&gt;Node2 -->
<g id="edge1" class="edge">
<title>Node1&#45;&gt;Node2</title>
<path fill="none" stroke="midnightblue" d="M1065.41,-189.84C978.27,-179.08 835.66,-161.45 757.69,-151.82"/>
<polygon fill="midnightblue" stroke="midnightblue" points="1065.13,-193.34 1075.49,-191.09 1065.99,-186.39 1065.13,-193.34"/>
</g>
<!-- Node8 -->
<g id="node8" class="node">
<title>Node8</title>
<g id="a_node8"><a xlink:href="cuda__common__cuda_8cu.html" target="_top" xlink:title=" ">
<polygon fill="none" stroke="black" points="1428,-73 1428,-92 1559,-92 1559,-73 1428,-73"/>
<text text-anchor="middle" x="1493.5" y="-80" font-family="Helvetica,sans-Serif" font-size="10.00">cuda_common_cuda.cu</text>
</a>
</g>
</g>
<!-- Node1&#45;&gt;Node8 -->
<g id="edge31" class="edge">
<title>Node1&#45;&gt;Node8</title>
<path fill="none" stroke="midnightblue" d="M1139.75,-180.19C1141.02,-165.38 1145.31,-145.39 1158.5,-134 1202.66,-95.89 1360.96,-107.54 1418.5,-98 1429.23,-96.22 1440.78,-94.09 1451.52,-92.03"/>
<polygon fill="midnightblue" stroke="midnightblue" points="1136.25,-180.13 1139.27,-190.28 1143.24,-180.46 1136.25,-180.13"/>
</g>
<!-- Node23 -->
<g id="node23" class="node">
<title>Node23</title>
<g id="a_node23"><a xlink:href="CudaHostAllocator_8cu.html" target="_top" xlink:title=" ">
<polygon fill="none" stroke="black" points="1167.5,-134.5 1167.5,-153.5 1289.5,-153.5 1289.5,-134.5 1167.5,-134.5"/>
<text text-anchor="middle" x="1228.5" y="-141.5" font-family="Helvetica,sans-Serif" font-size="10.00">CudaHostAllocator.cu</text>
</a>
</g>
</g>
<!-- Node1&#45;&gt;Node23 -->
<g id="edge32" class="edge">
<title>Node1&#45;&gt;Node23</title>
<path fill="none" stroke="midnightblue" d="M1162.74,-184.9C1179.06,-175 1200.37,-162.07 1214.24,-153.65"/>
<polygon fill="midnightblue" stroke="midnightblue" points="1160.53,-182.14 1153.8,-190.32 1164.16,-188.13 1160.53,-182.14"/>
</g>
<!-- Node3 -->
<g id="node3" class="node">
<title>Node3</title>
<g id="a_node3"><a xlink:href="DipolarBarnesHut_8hpp.html" target="_top" xlink:title=" ">
<polygon fill="none" stroke="black" points="1285.5,-73 1285.5,-92 1409.5,-92 1409.5,-73 1285.5,-73"/>
<text text-anchor="middle" x="1347.5" y="-80" font-family="Helvetica,sans-Serif" font-size="10.00">DipolarBarnesHut.hpp</text>
</a>
</g>
</g>
<!-- Node2&#45;&gt;Node3 -->
<g id="edge2" class="edge">
<title>Node2&#45;&gt;Node3</title>
<path fill="none" stroke="midnightblue" d="M767.94,-140.43C874.64,-135.65 1092.58,-123.51 1275.5,-98 1286.61,-96.45 1298.59,-94.25 1309.53,-92.04"/>
<polygon fill="midnightblue" stroke="midnightblue" points="767.49,-136.94 757.65,-140.88 767.8,-143.94 767.49,-136.94"/>
</g>
<!-- Node6 -->
<g id="node6" class="node">
<title>Node6</title>
<g id="a_node6"><a xlink:href="DipolarDirectSum_8hpp.html" target="_top" xlink:title=" ">
<polygon fill="none" stroke="black" points="584.5,-73 584.5,-92 708.5,-92 708.5,-73 584.5,-73"/>
<text text-anchor="middle" x="646.5" y="-80" font-family="Helvetica,sans-Serif" font-size="10.00">DipolarDirectSum.hpp</text>
</a>
</g>
</g>
<!-- Node2&#45;&gt;Node6 -->
<g id="edge5" class="edge">
<title>Node2&#45;&gt;Node6</title>
<path fill="none" stroke="midnightblue" d="M687.44,-127C676.84,-115.74 663.07,-101.1 654.51,-92.01"/>
<polygon fill="midnightblue" stroke="midnightblue" points="685.07,-129.59 694.48,-134.48 690.17,-124.79 685.07,-129.59"/>
</g>
<!-- Node2&#45;&gt;Node8 -->
<g id="edge8" class="edge">
<title>Node2&#45;&gt;Node8</title>
<path fill="none" stroke="midnightblue" d="M767.78,-141.7C893.97,-138.55 1179.96,-128.43 1418.5,-98 1430.21,-96.51 1442.84,-94.3 1454.34,-92.05"/>
<polygon fill="midnightblue" stroke="midnightblue" points="767.43,-138.2 757.52,-141.94 767.6,-145.2 767.43,-138.2"/>
</g>
<!-- Node9 -->
<g id="node9" class="node">
<title>Node9</title>
<g id="a_node9"><a xlink:href="cuda__interface_8cpp.html" target="_top" xlink:title=" ">
<polygon fill="none" stroke="black" points="0,-6 0,-25 109,-25 109,-6 0,-6"/>
<text text-anchor="middle" x="54.5" y="-13" font-family="Helvetica,sans-Serif" font-size="10.00">cuda_interface.cpp</text>
</a>
</g>
</g>
<!-- Node2&#45;&gt;Node9 -->
<g id="edge9" class="edge">
<title>Node2&#45;&gt;Node9</title>
<path fill="none" stroke="midnightblue" d="M637.38,-142.28C487.12,-140.05 125.71,-131.27 82.5,-98 59.38,-80.2 55.24,-42.23 54.57,-25.15"/>
<polygon fill="midnightblue" stroke="midnightblue" points="637.35,-145.78 647.4,-142.42 637.45,-138.78 637.35,-145.78"/>
</g>
<!-- Node10 -->
<g id="node10" class="node">
<title>Node10</title>
<g id="a_node10"><a xlink:href="EspressoSystemInterface_8hpp.html" target="_top" xlink:title=" ">
<polygon fill="none" stroke="black" points="329,-73 329,-92 490,-92 490,-73 329,-73"/>
<text text-anchor="middle" x="409.5" y="-80" font-family="Helvetica,sans-Serif" font-size="10.00">EspressoSystemInterface.hpp</text>
</a>
</g>
</g>
<!-- Node2&#45;&gt;Node10 -->
<g id="edge10" class="edge">
<title>Node2&#45;&gt;Node10</title>
<path fill="none" stroke="midnightblue" d="M650.67,-132.47C593.88,-120.94 503.91,-102.67 451.4,-92.01"/>
<polygon fill="midnightblue" stroke="midnightblue" points="650.02,-135.91 660.52,-134.48 651.42,-129.05 650.02,-135.91"/>
</g>
<!-- Node12 -->
<g id="node12" class="node">
<title>Node12</title>
<g id="a_node12"><a xlink:href="p3m__gpu__cuda_8cu.html" target="_top" xlink:title=" ">
<polygon fill="none" stroke="black" points="127.5,-6 127.5,-25 231.5,-25 231.5,-6 127.5,-6"/>
<text text-anchor="middle" x="179.5" y="-13" font-family="Helvetica,sans-Serif" font-size="10.00">p3m_gpu_cuda.cu</text>
</a>
</g>
</g>
<!-- Node2&#45;&gt;Node12 -->
<g id="edge22" class="edge">
<title>Node2&#45;&gt;Node12</title>
<path fill="none" stroke="midnightblue" d="M637.02,-139.83C537.85,-134.34 354.64,-121.37 293.5,-98 248.96,-80.97 205.8,-42.24 188.01,-25.03"/>
<polygon fill="midnightblue" stroke="midnightblue" points="637.05,-143.33 647.22,-140.38 637.43,-136.34 637.05,-143.33"/>
</g>
<!-- Node13 -->
<g id="node13" class="node">
<title>Node13</title>
<g id="a_node13"><a xlink:href="energy_8cpp.html" target="_top" xlink:title=" ">
<polygon fill="none" stroke="black" points="250,-6 250,-25 319,-25 319,-6 250,-6"/>
<text text-anchor="middle" x="284.5" y="-13" font-family="Helvetica,sans-Serif" font-size="10.00">energy.cpp</text>
</a>
</g>
</g>
<!-- Node2&#45;&gt;Node13 -->
<g id="edge23" class="edge">
<title>Node2&#45;&gt;Node13</title>
<path fill="none" stroke="midnightblue" d="M637.03,-143.02C541.07,-141.8 368.29,-134.41 319.5,-98 295.43,-80.04 287.72,-42.15 285.42,-25.12"/>
<polygon fill="midnightblue" stroke="midnightblue" points="637.17,-146.53 647.21,-143.14 637.25,-139.53 637.17,-146.53"/>
</g>
<!-- Node14 -->
<g id="node14" class="node">
<title>Node14</title>
<g id="a_node14"><a xlink:href="EspressoSystemInterface_8cpp.html" target="_top" xlink:title=" ">
<polygon fill="none" stroke="black" points="585,-6 585,-25 746,-25 746,-6 585,-6"/>
<text text-anchor="middle" x="665.5" y="-13" font-family="Helvetica,sans-Serif" font-size="10.00">EspressoSystemInterface.cpp</text>
</a>
</g>
</g>
<!-- Node2&#45;&gt;Node14 -->
<g id="edge24" class="edge">
<title>Node2&#45;&gt;Node14</title>
<path fill="none" stroke="midnightblue" d="M636.89,-132.74C598.07,-125.18 554.26,-113.52 542.5,-98 515.43,-62.27 582.85,-37.3 628.22,-25.08"/>
<polygon fill="midnightblue" stroke="midnightblue" points="636.67,-136.26 647.15,-134.67 637.97,-129.38 636.67,-136.26"/>
</g>
<!-- Node15 -->
<g id="node15" class="node">
<title>Node15</title>
<g id="a_node15"><a xlink:href="EspressoSystemInterface__cuda_8cu.html" target="_top" xlink:title=" ">
<polygon fill="none" stroke="black" points="764.5,-0.5 764.5,-30.5 904.5,-30.5 904.5,-0.5 764.5,-0.5"/>
<text text-anchor="start" x="772.5" y="-18.5" font-family="Helvetica,sans-Serif" font-size="10.00">EspressoSystemInterface</text>
<text text-anchor="middle" x="834.5" y="-7.5" font-family="Helvetica,sans-Serif" font-size="10.00">_cuda.cu</text>
</a>
</g>
</g>
<!-- Node2&#45;&gt;Node15 -->
<g id="edge25" class="edge">
<title>Node2&#45;&gt;Node15</title>
<path fill="none" stroke="midnightblue" d="M649.89,-131.98C604.37,-120.04 549.62,-98.41 575.5,-67 577.03,-65.14 688.09,-43.98 764.27,-29.64"/>
<polygon fill="midnightblue" stroke="midnightblue" points="649.18,-135.4 659.73,-134.45 650.88,-128.62 649.18,-135.4"/>
</g>
<!-- Node17 -->
<g id="node17" class="node">
<title>Node17</title>
<g id="a_node17"><a xlink:href="CUDA__particle__data_8hpp.html" target="_top" xlink:title=" ">
<polygon fill="none" stroke="black" points="92,-73 92,-92 227,-92 227,-73 92,-73"/>
<text text-anchor="middle" x="159.5" y="-80" font-family="Helvetica,sans-Serif" font-size="10.00">CUDA_particle_data.hpp</text>
</a>
</g>
</g>
<!-- Node2&#45;&gt;Node17 -->
<g id="edge20" class="edge">
<title>Node2&#45;&gt;Node17</title>
<path fill="none" stroke="midnightblue" d="M637.3,-138C548.49,-130.87 384.61,-116.55 245.5,-98 232.89,-96.32 219.3,-94.18 206.73,-92.06"/>
<polygon fill="midnightblue" stroke="midnightblue" points="637.24,-141.51 647.49,-138.81 637.8,-134.53 637.24,-141.51"/>
</g>
<!-- Node18 -->
<g id="node18" class="node">
<title>Node18</title>
<g id="a_node18"><a xlink:href="event_8cpp.html" target="_top" xlink:title=" ">
<polygon fill="none" stroke="black" points="727,-73 727,-92 792,-92 792,-73 727,-73"/>
<text text-anchor="middle" x="759.5" y="-80" font-family="Helvetica,sans-Serif" font-size="10.00">event.cpp</text>
</a>
</g>
</g>
<!-- Node2&#45;&gt;Node18 -->
<g id="edge26" class="edge">
<title>Node2&#45;&gt;Node18</title>
<path fill="none" stroke="midnightblue" d="M717.83,-127C728.62,-115.74 742.64,-101.1 751.35,-92.01"/>
<polygon fill="midnightblue" stroke="midnightblue" points="715.06,-124.83 710.67,-134.48 720.11,-129.68 715.06,-124.83"/>
</g>
<!-- Node19 -->
<g id="node19" class="node">
<title>Node19</title>
<g id="a_node19"><a xlink:href="electrokinetics__cuda_8cu.html" target="_top" xlink:title=" ">
<polygon fill="none" stroke="black" points="810,-73 810,-92 941,-92 941,-73 810,-73"/>
<text text-anchor="middle" x="875.5" y="-80" font-family="Helvetica,sans-Serif" font-size="10.00">electrokinetics_cuda.cu</text>
</a>
</g>
</g>
<!-- Node2&#45;&gt;Node19 -->
<g id="edge27" class="edge">
<title>Node2&#45;&gt;Node19</title>
<path fill="none" stroke="midnightblue" d="M737.15,-131.08C770.78,-119.52 820.98,-102.25 850.76,-92.01"/>
<polygon fill="midnightblue" stroke="midnightblue" points="735.6,-127.91 727.29,-134.48 737.88,-134.53 735.6,-127.91"/>
</g>
<!-- Node20 -->
<g id="node20" class="node">
<title>Node20</title>
<g id="a_node20"><a xlink:href="lbgpu_8cpp.html" target="_top" xlink:title=" ">
<polygon fill="none" stroke="black" points="959.5,-73 959.5,-92 1023.5,-92 1023.5,-73 959.5,-73"/>
<text text-anchor="middle" x="991.5" y="-80" font-family="Helvetica,sans-Serif" font-size="10.00">lbgpu.cpp</text>
</a>
</g>
</g>
<!-- Node2&#45;&gt;Node20 -->
<g id="edge28" class="edge">
<title>Node2&#45;&gt;Node20</title>
<path fill="none" stroke="midnightblue" d="M768.02,-133.85C818.15,-126.17 888.75,-113.92 949.5,-98 955.77,-96.36 962.44,-94.23 968.59,-92.12"/>
<polygon fill="midnightblue" stroke="midnightblue" points="767.33,-130.41 757.96,-135.37 768.37,-137.33 767.33,-130.41"/>
</g>
<!-- Node21 -->
<g id="node21" class="node">
<title>Node21</title>
<g id="a_node21"><a xlink:href="lbgpu__cuda_8cu.html" target="_top" xlink:title=" ">
<polygon fill="none" stroke="black" points="1041.5,-73 1041.5,-92 1127.5,-92 1127.5,-73 1041.5,-73"/>
<text text-anchor="middle" x="1084.5" y="-80" font-family="Helvetica,sans-Serif" font-size="10.00">lbgpu_cuda.cu</text>
</a>
</g>
</g>
<!-- Node2&#45;&gt;Node21 -->
<g id="edge29" class="edge">
<title>Node2&#45;&gt;Node21</title>
<path fill="none" stroke="midnightblue" d="M767.76,-136.76C834.65,-129.74 941.47,-116.81 1032.5,-98 1040.39,-96.37 1048.85,-94.2 1056.6,-92.03"/>
<polygon fill="midnightblue" stroke="midnightblue" points="767.36,-133.28 757.78,-137.79 768.08,-140.24 767.36,-133.28"/>
</g>
<!-- Node22 -->
<g id="node22" class="node">
<title>Node22</title>
<g id="a_node22"><a xlink:href="lb__inertialess__tracers__cuda_8cu.html" target="_top" xlink:title=" ">
<polygon fill="none" stroke="black" points="1146,-67.5 1146,-97.5 1267,-97.5 1267,-67.5 1146,-67.5"/>
<text text-anchor="start" x="1154" y="-85.5" font-family="Helvetica,sans-Serif" font-size="10.00">lb_inertialess_tracers</text>
<text text-anchor="middle" x="1206.5" y="-74.5" font-family="Helvetica,sans-Serif" font-size="10.00">_cuda.cu</text>
</a>
</g>
</g>
<!-- Node2&#45;&gt;Node22 -->
<g id="edge30" class="edge">
<title>Node2&#45;&gt;Node22</title>
<path fill="none" stroke="midnightblue" d="M767.57,-138.31C852.68,-131.71 1006.3,-118.18 1136.5,-98 1139.57,-97.52 1142.7,-97 1145.86,-96.45"/>
<polygon fill="midnightblue" stroke="midnightblue" points="767.24,-134.83 757.54,-139.08 767.78,-141.81 767.24,-134.83"/>
</g>
<!-- Node4 -->
<g id="node4" class="node">
<title>Node4</title>
<g id="a_node4"><a xlink:href="DipolarBarnesHut_8cpp.html" target="_top" xlink:title=" ">
<polygon fill="none" stroke="black" points="1118,-6 1118,-25 1241,-25 1241,-6 1118,-6"/>
<text text-anchor="middle" x="1179.5" y="-13" font-family="Helvetica,sans-Serif" font-size="10.00">DipolarBarnesHut.cpp</text>
</a>
</g>
</g>
<!-- Node3&#45;&gt;Node4 -->
<g id="edge3" class="edge">
<title>Node3&#45;&gt;Node4</title>
<path fill="none" stroke="midnightblue" d="M1315.46,-69.1C1282.11,-56.2 1230.75,-36.33 1201.63,-25.06"/>
<polygon fill="midnightblue" stroke="midnightblue" points="1314.6,-72.52 1325.19,-72.87 1317.13,-66 1314.6,-72.52"/>
</g>
<!-- Node5 -->
<g id="node5" class="node">
<title>Node5</title>
<g id="a_node5"><a xlink:href="dipole_8cpp.html" target="_top" xlink:title=" ">
<polygon fill="none" stroke="black" points="1286,-6 1286,-25 1353,-25 1353,-6 1286,-6"/>
<text text-anchor="middle" x="1319.5" y="-13" font-family="Helvetica,sans-Serif" font-size="10.00">dipole.cpp</text>
</a>
</g>
</g>
<!-- Node3&#45;&gt;Node5 -->
<g id="edge4" class="edge">
<title>Node3&#45;&gt;Node5</title>
<path fill="none" stroke="midnightblue" d="M1339.66,-63.29C1334.28,-50.81 1327.39,-34.81 1323.22,-25.13"/>
<polygon fill="midnightblue" stroke="midnightblue" points="1336.55,-64.93 1343.72,-72.73 1342.98,-62.16 1336.55,-64.93"/>
</g>
<!-- Node6&#45;&gt;Node5 -->
<g id="edge7" class="edge">
<title>Node6&#45;&gt;Node5</title>
<path fill="none" stroke="midnightblue" d="M693.49,-70.98C701.47,-69.46 709.7,-68.06 717.5,-67 952.34,-35.22 1014.7,-63.11 1249.5,-31 1261.43,-29.37 1274.37,-26.89 1285.84,-24.44"/>
<polygon fill="midnightblue" stroke="midnightblue" points="692.68,-67.57 683.56,-72.96 694.05,-74.44 692.68,-67.57"/>
</g>
<!-- Node7 -->
<g id="node7" class="node">
<title>Node7</title>
<g id="a_node7"><a xlink:href="DipolarDirectSum_8cpp.html" target="_top" xlink:title=" ">
<polygon fill="none" stroke="black" points="923,-6 923,-25 1046,-25 1046,-6 923,-6"/>
<text text-anchor="middle" x="984.5" y="-13" font-family="Helvetica,sans-Serif" font-size="10.00">DipolarDirectSum.cpp</text>
</a>
</g>
</g>
<!-- Node6&#45;&gt;Node7 -->
<g id="edge6" class="edge">
<title>Node6&#45;&gt;Node7</title>
<path fill="none" stroke="midnightblue" d="M697.98,-70.86C704.55,-69.54 711.18,-68.23 717.5,-67 804.45,-50.14 826.55,-47.86 913.5,-31 923.13,-29.13 933.49,-27.06 943.23,-25.07"/>
<polygon fill="midnightblue" stroke="midnightblue" points="696.88,-67.51 687.77,-72.93 698.27,-74.37 696.88,-67.51"/>
</g>
<!-- Node10&#45;&gt;Node4 -->
<g id="edge11" class="edge">
<title>Node10&#45;&gt;Node4</title>
<path fill="none" stroke="midnightblue" d="M500.1,-73.39C524.57,-71.25 551.04,-68.99 575.5,-67 788.29,-49.71 841.98,-51.3 1054.5,-31 1075.16,-29.03 1097.7,-26.52 1117.88,-24.15"/>
<polygon fill="midnightblue" stroke="midnightblue" points="499.77,-69.9 490.12,-74.26 500.38,-76.87 499.77,-69.9"/>
</g>
<!-- Node10&#45;&gt;Node7 -->
<g id="edge12" class="edge">
<title>Node10&#45;&gt;Node7</title>
<path fill="none" stroke="midnightblue" d="M500.32,-73.52C623.28,-62.52 836.23,-42.73 913.5,-31 924.2,-29.38 935.72,-27.21 946.31,-25.04"/>
<polygon fill="midnightblue" stroke="midnightblue" points="499.81,-70.05 490.16,-74.42 500.44,-77.02 499.81,-70.05"/>
</g>
<!-- Node10&#45;&gt;Node9 -->
<g id="edge14" class="edge">
<title>Node10&#45;&gt;Node9</title>
<path fill="none" stroke="midnightblue" d="M345.51,-71.36C286.44,-61.77 196.33,-46.56 118.5,-31 109.45,-29.19 99.72,-27.08 90.65,-25.03"/>
<polygon fill="midnightblue" stroke="midnightblue" points="345.02,-74.82 355.45,-72.97 346.13,-67.91 345.02,-74.82"/>
</g>
<!-- Node11 -->
<g id="node11" class="node">
<title>Node11</title>
<g id="a_node11"><a xlink:href="Mmm1dgpuForce__cuda_8cu.html" target="_top" xlink:title=" ">
<polygon fill="none" stroke="black" points="337.5,-6 337.5,-25 481.5,-25 481.5,-6 337.5,-6"/>
<text text-anchor="middle" x="409.5" y="-13" font-family="Helvetica,sans-Serif" font-size="10.00">Mmm1dgpuForce_cuda.cu</text>
</a>
</g>
</g>
<!-- Node10&#45;&gt;Node11 -->
<g id="edge13" class="edge">
<title>Node10&#45;&gt;Node11</title>
<path fill="none" stroke="midnightblue" d="M409.5,-62.54C409.5,-50.17 409.5,-34.62 409.5,-25.13"/>
<polygon fill="midnightblue" stroke="midnightblue" points="406,-62.73 409.5,-72.73 413,-62.73 406,-62.73"/>
</g>
<!-- Node10&#45;&gt;Node12 -->
<g id="edge15" class="edge">
<title>Node10&#45;&gt;Node12</title>
<path fill="none" stroke="midnightblue" d="M369.13,-70.09C323.63,-57.23 250.69,-36.62 209.8,-25.06"/>
<polygon fill="midnightblue" stroke="midnightblue" points="368.38,-73.52 378.96,-72.87 370.29,-66.78 368.38,-73.52"/>
</g>
<!-- Node10&#45;&gt;Node13 -->
<g id="edge16" class="edge">
<title>Node10&#45;&gt;Node13</title>
<path fill="none" stroke="midnightblue" d="M383.74,-68.1C358.98,-55.23 322.31,-36.16 301.17,-25.17"/>
<polygon fill="midnightblue" stroke="midnightblue" points="382.41,-71.36 392.9,-72.87 385.64,-65.15 382.41,-71.36"/>
</g>
<!-- Node10&#45;&gt;Node14 -->
<g id="edge17" class="edge">
<title>Node10&#45;&gt;Node14</title>
<path fill="none" stroke="midnightblue" d="M453.2,-70.4C503.73,-57.58 585.8,-36.74 631.69,-25.08"/>
<polygon fill="midnightblue" stroke="midnightblue" points="452.06,-67.08 443.23,-72.94 453.78,-73.87 452.06,-67.08"/>
</g>
<!-- Node10&#45;&gt;Node15 -->
<g id="edge18" class="edge">
<title>Node10&#45;&gt;Node15</title>
<path fill="none" stroke="midnightblue" d="M482.26,-71.58C552.16,-61.88 660.69,-46.36 754.5,-31 757.7,-30.48 760.98,-29.93 764.28,-29.37"/>
<polygon fill="midnightblue" stroke="midnightblue" points="481.66,-68.13 472.24,-72.97 482.62,-75.06 481.66,-68.13"/>
</g>
<!-- Node16 -->
<g id="node16" class="node">
<title>Node16</title>
<g id="a_node16"><a xlink:href="forces_8cpp.html" target="_top" xlink:title=" ">
<polygon fill="none" stroke="black" points="500,-6 500,-25 567,-25 567,-6 500,-6"/>
<text text-anchor="middle" x="533.5" y="-13" font-family="Helvetica,sans-Serif" font-size="10.00">forces.cpp</text>
</a>
</g>
</g>
<!-- Node10&#45;&gt;Node16 -->
<g id="edge19" class="edge">
<title>Node10&#45;&gt;Node16</title>
<path fill="none" stroke="midnightblue" d="M435.06,-68.1C459.61,-55.23 495.99,-36.16 516.97,-25.17"/>
<polygon fill="midnightblue" stroke="midnightblue" points="433.2,-65.13 425.97,-72.87 436.45,-71.33 433.2,-65.13"/>
</g>
<!-- Node17&#45;&gt;Node9 -->
<g id="edge21" class="edge">
<title>Node17&#45;&gt;Node9</title>
<path fill="none" stroke="midnightblue" d="M136.79,-67.44C116,-54.57 85.88,-35.93 68.44,-25.13"/>
<polygon fill="midnightblue" stroke="midnightblue" points="134.99,-70.45 145.34,-72.73 138.68,-64.49 134.99,-70.45"/>
</g>
</g>
</svg>
        <g id="navigator" transform="translate(0 0)" fill="#404254">
                <rect fill="#f2f5e9" fill-opacity="0.5" stroke="#606060" stroke-width=".5" x="0" y="0" width="60" height="60"/>
                <use id="zoomplus" xlink:href="#zoomPlus" x="17" y="9" onmousedown="handleZoom(evt,'in')"/>
                <use id="zoomminus" xlink:href="#zoomMin" x="42" y="9" onmousedown="handleZoom(evt,'out')"/>
                <use id="reset" xlink:href="#resetDef" x="30" y="36" onmousedown="handleReset()"/>
                <g id="arrowUp" xlink:href="#dirArrow" transform="translate(30 24)" onmousedown="handlePan(0,-1)">
                  <use xlink:href="#rim" fill="#404040">
                        <set attributeName="fill" to="#808080" begin="arrowUp.mouseover" end="arrowUp.mouseout"/>
                  </use>
                  <path fill="none" stroke="white" stroke-width="1.5" d="M0,-3.0v7 M-2.5,-0.5L0,-3.0L2.5,-0.5"/>
                </g>
                <g id="arrowRight" xlink:href="#dirArrow" transform="rotate(90) translate(36 -43)" onmousedown="handlePan(1,0)">
                  <use xlink:href="#rim" fill="#404040">
                        <set attributeName="fill" to="#808080" begin="arrowRight.mouseover" end="arrowRight.mouseout"/>
                  </use>
                  <path fill="none" stroke="white" stroke-width="1.5" d="M0,-3.0v7 M-2.5,-0.5L0,-3.0L2.5,-0.5"/>
                </g>
                <g id="arrowDown" xlink:href="#dirArrow" transform="rotate(180) translate(-30 -48)" onmousedown="handlePan(0,1)">
                  <use xlink:href="#rim" fill="#404040">
                        <set attributeName="fill" to="#808080" begin="arrowDown.mouseover" end="arrowDown.mouseout"/>
                  </use>
                  <path fill="none" stroke="white" stroke-width="1.5" d="M0,-3.0v7 M-2.5,-0.5L0,-3.0L2.5,-0.5"/>
                </g>
                <g id="arrowLeft" xlink:href="#dirArrow" transform="rotate(270) translate(-36 17)" onmousedown="handlePan(-1,0)">
                  <use xlink:href="#rim" fill="#404040">
                        <set attributeName="fill" to="#808080" begin="arrowLeft.mouseover" end="arrowLeft.mouseout"/>
                  </use>
                  <path fill="none" stroke="white" stroke-width="1.5" d="M0,-3.0v7 M-2.5,-0.5L0,-3.0L2.5,-0.5"/>
                </g>
        </g>
        <svg viewBox="0 0 15 15" width="100%" height="30px" preserveAspectRatio="xMaxYMin meet">
         <g id="arrow_out" transform="scale(0.3 0.3)">
          <a xlink:href="CudaHostAllocator_8hpp__dep__incl_org.svg" target="_base">
           <rect id="button" ry="5" rx="5" y="6" x="6" height="38" width="38"
                fill="#f2f5e9" fill-opacity="0.5" stroke="#606060" stroke-width="1.0"/>
           <path id="arrow"
             d="M 11.500037,31.436501 C 11.940474,20.09759 22.043105,11.32322 32.158766,21.979434 L 37.068811,17.246167 C 37.068811,17.246167 37.088388,32 37.088388,32 L 22.160133,31.978069 C 22.160133,31.978069 26.997745,27.140456 26.997745,27.140456 C 18.528582,18.264221 13.291696,25.230495 11.500037,31.436501 z"
             style="fill:#404040;"/>
          </a>
         </g>
        </svg>
</svg>
