<?xml version="1.0" encoding="UTF-8" standalone="no"?>
<!DOCTYPE svg PUBLIC "-//W3C//DTD SVG 1.1//EN"
 "http://www.w3.org/Graphics/SVG/1.1/DTD/svg11.dtd">
<!-- Generated by graphviz version 2.43.0 (0)
 -->
<!-- Title: cuda_interface.hpp Pages: 1 -->
<svg width="1634pt" height="162pt"
 viewBox="0.00 0.00 1634.00 162.00" xmlns="http://www.w3.org/2000/svg" xmlns:xlink="http://www.w3.org/1999/xlink">
<g id="graph0" class="graph" transform="scale(1 1) rotate(0) translate(4 158)">
<title>cuda_interface.hpp</title>
<!-- Node1 -->
<g id="node1" class="node">
<title>Node1</title>
<g id="a_node1"><a xlink:title=" ">
<polygon fill="#bfbfbf" stroke="black" points="815.5,-134.5 815.5,-153.5 925.5,-153.5 925.5,-134.5 815.5,-134.5"/>
<text text-anchor="middle" x="870.5" y="-141.5" font-family="Helvetica,sans-Serif" font-size="10.00">cuda_interface.hpp</text>
</a>
</g>
</g>
<!-- Node2 -->
<g id="node2" class="node">
<title>Node2</title>
<g id="a_node2"><a xlink:href="DipolarBarnesHut_8hpp.html" target="_top" xlink:title=" ">
<polygon fill="none" stroke="black" points="83.5,-73 83.5,-92 207.5,-92 207.5,-73 83.5,-73"/>
<text text-anchor="middle" x="145.5" y="-80" font-family="Helvetica,sans-Serif" font-size="10.00">DipolarBarnesHut.hpp</text>
</a>
</g>
</g>
<!-- Node1&#45;&gt;Node2 -->
<g id="edge1" class="edge">
<title>Node1&#45;&gt;Node2</title>
<path fill="none" stroke="midnightblue" d="M804.81,-141.36C686.62,-137.78 430.51,-127.09 216.5,-98 205.41,-96.49 193.44,-94.28 182.56,-92.04"/>
<polygon fill="midnightblue" stroke="midnightblue" points="805.03,-144.87 815.13,-141.67 805.23,-137.87 805.03,-144.87"/>
</g>
<!-- Node5 -->
<g id="node5" class="node">
<title>Node5</title>
<g id="a_node5"><a xlink:href="DipolarDirectSum_8hpp.html" target="_top" xlink:title=" ">
<polygon fill="none" stroke="black" points="225.5,-73 225.5,-92 349.5,-92 349.5,-73 225.5,-73"/>
<text text-anchor="middle" x="287.5" y="-80" font-family="Helvetica,sans-Serif" font-size="10.00">DipolarDirectSum.hpp</text>
</a>
</g>
</g>
<!-- Node1&#45;&gt;Node5 -->
<g id="edge4" class="edge">
<title>Node1&#45;&gt;Node5</title>
<path fill="none" stroke="midnightblue" d="M805.11,-138.86C709.43,-132.4 525.77,-118.51 370.5,-98 358.03,-96.35 344.57,-94.18 332.19,-92.01"/>
<polygon fill="midnightblue" stroke="midnightblue" points="805,-142.36 815.21,-139.53 805.47,-135.37 805,-142.36"/>
</g>
<!-- Node7 -->
<g id="node7" class="node">
<title>Node7</title>
<g id="a_node7"><a xlink:href="cuda__common__cuda_8cu.html" target="_top" xlink:title=" ">
<polygon fill="none" stroke="black" points="937,-73 937,-92 1068,-92 1068,-73 937,-73"/>
<text text-anchor="middle" x="1002.5" y="-80" font-family="Helvetica,sans-Serif" font-size="10.00">cuda_common_cuda.cu</text>
</a>
</g>
</g>
<!-- Node1&#45;&gt;Node7 -->
<g id="edge7" class="edge">
<title>Node1&#45;&gt;Node7</title>
<path fill="none" stroke="midnightblue" d="M898.61,-130.33C924.24,-118.78 961.39,-102.03 983.62,-92.01"/>
<polygon fill="midnightblue" stroke="midnightblue" points="897.09,-127.17 889.41,-134.48 899.97,-133.56 897.09,-127.17"/>
</g>
<!-- Node8 -->
<g id="node8" class="node">
<title>Node8</title>
<g id="a_node8"><a xlink:href="cuda__interface_8cpp.html" target="_top" xlink:title=" ">
<polygon fill="none" stroke="black" points="367,-6 367,-25 476,-25 476,-6 367,-6"/>
<text text-anchor="middle" x="421.5" y="-13" font-family="Helvetica,sans-Serif" font-size="10.00">cuda_interface.cpp</text>
</a>
</g>
</g>
<!-- Node1&#45;&gt;Node8 -->
<g id="edge8" class="edge">
<title>Node1&#45;&gt;Node8</title>
<path fill="none" stroke="midnightblue" d="M805.25,-137.44C748.79,-131.42 665.44,-119.64 595.5,-98 579.37,-93.01 479.88,-44.92 439.01,-25.04"/>
<polygon fill="midnightblue" stroke="midnightblue" points="805.17,-140.95 815.47,-138.5 805.89,-133.98 805.17,-140.95"/>
</g>
<!-- Node9 -->
<g id="node9" class="node">
<title>Node9</title>
<g id="a_node9"><a xlink:href="EspressoSystemInterface_8hpp.html" target="_top" xlink:title=" ">
<polygon fill="none" stroke="black" points="605,-73 605,-92 766,-92 766,-73 605,-73"/>
<text text-anchor="middle" x="685.5" y="-80" font-family="Helvetica,sans-Serif" font-size="10.00">EspressoSystemInterface.hpp</text>
</a>
</g>
</g>
<!-- Node1&#45;&gt;Node9 -->
<g id="edge9" class="edge">
<title>Node1&#45;&gt;Node9</title>
<path fill="none" stroke="midnightblue" d="M834.37,-131.38C798.41,-119.82 744.08,-102.34 711.96,-92.01"/>
<polygon fill="midnightblue" stroke="midnightblue" points="833.4,-134.75 843.99,-134.48 835.55,-128.08 833.4,-134.75"/>
</g>
<!-- Node11 -->
<g id="node11" class="node">
<title>Node11</title>
<g id="a_node11"><a xlink:href="p3m__gpu__cuda_8cu.html" target="_top" xlink:title=" ">
<polygon fill="none" stroke="black" points="742.5,-6 742.5,-25 846.5,-25 846.5,-6 742.5,-6"/>
<text text-anchor="middle" x="794.5" y="-13" font-family="Helvetica,sans-Serif" font-size="10.00">p3m_gpu_cuda.cu</text>
</a>
</g>
</g>
<!-- Node1&#45;&gt;Node11 -->
<g id="edge21" class="edge">
<title>Node1&#45;&gt;Node11</title>
<path fill="none" stroke="midnightblue" d="M859.93,-125.4C843.43,-97.94 812.16,-45.9 799.76,-25.26"/>
<polygon fill="midnightblue" stroke="midnightblue" points="857.13,-127.54 865.28,-134.31 863.13,-123.93 857.13,-127.54"/>
</g>
<!-- Node12 -->
<g id="node12" class="node">
<title>Node12</title>
<g id="a_node12"><a xlink:href="energy_8cpp.html" target="_top" xlink:title=" ">
<polygon fill="none" stroke="black" points="865,-6 865,-25 934,-25 934,-6 865,-6"/>
<text text-anchor="middle" x="899.5" y="-13" font-family="Helvetica,sans-Serif" font-size="10.00">energy.cpp</text>
</a>
</g>
</g>
<!-- Node1&#45;&gt;Node12 -->
<g id="edge22" class="edge">
<title>Node1&#45;&gt;Node12</title>
<path fill="none" stroke="midnightblue" d="M861.85,-124.77C855.64,-109.08 849.5,-86.03 856.5,-67 862.86,-49.71 878.07,-34.31 888.58,-25.18"/>
<polygon fill="midnightblue" stroke="midnightblue" points="858.8,-126.54 866,-134.31 865.22,-123.75 858.8,-126.54"/>
</g>
<!-- Node13 -->
<g id="node13" class="node">
<title>Node13</title>
<g id="a_node13"><a xlink:href="EspressoSystemInterface_8cpp.html" target="_top" xlink:title=" ">
<polygon fill="none" stroke="black" points="952,-6 952,-25 1113,-25 1113,-6 952,-6"/>
<text text-anchor="middle" x="1032.5" y="-13" font-family="Helvetica,sans-Serif" font-size="10.00">EspressoSystemInterface.cpp</text>
</a>
</g>
</g>
<!-- Node1&#45;&gt;Node13 -->
<g id="edge23" class="edge">
<title>Node1&#45;&gt;Node13</title>
<path fill="none" stroke="midnightblue" d="M871.87,-123.88C874.05,-106.89 879.74,-82.44 894.5,-67 916.01,-44.5 948.36,-31.98 976.33,-25.03"/>
<polygon fill="midnightblue" stroke="midnightblue" points="868.34,-123.94 870.84,-134.24 875.31,-124.63 868.34,-123.94"/>
</g>
<!-- Node14 -->
<g id="node14" class="node">
<title>Node14</title>
<g id="a_node14"><a xlink:href="EspressoSystemInterface__cuda_8cu.html" target="_top" xlink:title=" ">
<polygon fill="none" stroke="black" points="1131.5,-0.5 1131.5,-30.5 1271.5,-30.5 1271.5,-0.5 1131.5,-0.5"/>
<text text-anchor="start" x="1139.5" y="-18.5" font-family="Helvetica,sans-Serif" font-size="10.00">EspressoSystemInterface</text>
<text text-anchor="middle" x="1201.5" y="-7.5" font-family="Helvetica,sans-Serif" font-size="10.00">_cuda.cu</text>
</a>
</g>
</g>
<!-- Node1&#45;&gt;Node14 -->
<g id="edge24" class="edge">
<title>Node1&#45;&gt;Node14</title>
<path fill="none" stroke="midnightblue" d="M879.22,-124.98C888.77,-107.28 905.8,-80.95 928.5,-67 929.05,-66.66 1050.67,-44.24 1131.38,-29.39"/>
<polygon fill="midnightblue" stroke="midnightblue" points="875.91,-123.76 874.47,-134.25 882.14,-126.95 875.91,-123.76"/>
</g>
<!-- Node16 -->
<g id="node16" class="node">
<title>Node16</title>
<g id="a_node16"><a xlink:href="CUDA__particle__data_8hpp.html" target="_top" xlink:title=" ">
<polygon fill="none" stroke="black" points="380,-73 380,-92 515,-92 515,-73 380,-73"/>
<text text-anchor="middle" x="447.5" y="-80" font-family="Helvetica,sans-Serif" font-size="10.00">CUDA_particle_data.hpp</text>
</a>
</g>
</g>
<!-- Node1&#45;&gt;Node16 -->
<g id="edge19" class="edge">
<title>Node1&#45;&gt;Node16</title>
<path fill="none" stroke="midnightblue" d="M805.11,-133.8C723.96,-122.39 586.72,-103.08 507.94,-92"/>
<polygon fill="midnightblue" stroke="midnightblue" points="804.81,-137.29 815.2,-135.22 805.79,-130.36 804.81,-137.29"/>
</g>
<!-- Node17 -->
<g id="node17" class="node">
<title>Node17</title>
<g id="a_node17"><a xlink:href="event_8cpp.html" target="_top" xlink:title=" ">
<polygon fill="none" stroke="black" points="1086,-73 1086,-92 1151,-92 1151,-73 1086,-73"/>
<text text-anchor="middle" x="1118.5" y="-80" font-family="Helvetica,sans-Serif" font-size="10.00">event.cpp</text>
</a>
</g>
</g>
<!-- Node1&#45;&gt;Node17 -->
<g id="edge25" class="edge">
<title>Node1&#45;&gt;Node17</title>
<path fill="none" stroke="midnightblue" d="M927.78,-132.56C969.61,-124.45 1027.5,-112.22 1077.5,-98 1083.46,-96.31 1089.8,-94.21 1095.68,-92.14"/>
<polygon fill="midnightblue" stroke="midnightblue" points="926.94,-129.16 917.78,-134.48 928.26,-136.03 926.94,-129.16"/>
</g>
<!-- Node18 -->
<g id="node18" class="node">
<title>Node18</title>
<g id="a_node18"><a xlink:href="electrokinetics__cuda_8cu.html" target="_top" xlink:title=" ">
<polygon fill="none" stroke="black" points="1169,-73 1169,-92 1300,-92 1300,-73 1169,-73"/>
<text text-anchor="middle" x="1234.5" y="-80" font-family="Helvetica,sans-Serif" font-size="10.00">electrokinetics_cuda.cu</text>
</a>
</g>
</g>
<!-- Node1&#45;&gt;Node18 -->
<g id="edge26" class="edge">
<title>Node1&#45;&gt;Node18</title>
<path fill="none" stroke="midnightblue" d="M935.57,-133.66C994.42,-125.02 1083.41,-111.53 1160.5,-98 1170.82,-96.19 1181.91,-94.09 1192.29,-92.07"/>
<polygon fill="midnightblue" stroke="midnightblue" points="935.05,-130.19 925.66,-135.1 936.06,-137.12 935.05,-130.19"/>
</g>
<!-- Node19 -->
<g id="node19" class="node">
<title>Node19</title>
<g id="a_node19"><a xlink:href="lbgpu_8cpp.html" target="_top" xlink:title=" ">
<polygon fill="none" stroke="black" points="1318.5,-73 1318.5,-92 1382.5,-92 1382.5,-73 1318.5,-73"/>
<text text-anchor="middle" x="1350.5" y="-80" font-family="Helvetica,sans-Serif" font-size="10.00">lbgpu.cpp</text>
</a>
</g>
</g>
<!-- Node1&#45;&gt;Node19 -->
<g id="edge27" class="edge">
<title>Node1&#45;&gt;Node19</title>
<path fill="none" stroke="midnightblue" d="M935.77,-141.14C1022.2,-137.59 1178.95,-127.34 1309.5,-98 1316.13,-96.51 1323.17,-94.28 1329.5,-92"/>
<polygon fill="midnightblue" stroke="midnightblue" points="935.44,-137.65 925.58,-141.54 935.71,-144.65 935.44,-137.65"/>
</g>
<!-- Node20 -->
<g id="node20" class="node">
<title>Node20</title>
<g id="a_node20"><a xlink:href="lbgpu__cuda_8cu.html" target="_top" xlink:title=" ">
<polygon fill="none" stroke="black" points="1400.5,-73 1400.5,-92 1486.5,-92 1486.5,-73 1400.5,-73"/>
<text text-anchor="middle" x="1443.5" y="-80" font-family="Helvetica,sans-Serif" font-size="10.00">lbgpu_cuda.cu</text>
</a>
</g>
</g>
<!-- Node1&#45;&gt;Node20 -->
<g id="edge28" class="edge">
<title>Node1&#45;&gt;Node20</title>
<path fill="none" stroke="midnightblue" d="M935.87,-141.25C1035.08,-137.71 1229.29,-127.36 1391.5,-98 1399.71,-96.51 1408.49,-94.31 1416.46,-92.06"/>
<polygon fill="midnightblue" stroke="midnightblue" points="935.57,-137.75 925.7,-141.6 935.82,-144.75 935.57,-137.75"/>
</g>
<!-- Node21 -->
<g id="node21" class="node">
<title>Node21</title>
<g id="a_node21"><a xlink:href="lb__inertialess__tracers__cuda_8cu.html" target="_top" xlink:title=" ">
<polygon fill="none" stroke="black" points="1505,-67.5 1505,-97.5 1626,-97.5 1626,-67.5 1505,-67.5"/>
<text text-anchor="start" x="1513" y="-85.5" font-family="Helvetica,sans-Serif" font-size="10.00">lb_inertialess_tracers</text>
<text text-anchor="middle" x="1565.5" y="-74.5" font-family="Helvetica,sans-Serif" font-size="10.00">_cuda.cu</text>
</a>
</g>
</g>
<!-- Node1&#45;&gt;Node21 -->
<g id="edge29" class="edge">
<title>Node1&#45;&gt;Node21</title>
<path fill="none" stroke="midnightblue" d="M935.82,-141.14C1049.86,-137.27 1292.53,-126.2 1495.5,-98 1498.57,-97.57 1501.71,-97.09 1504.88,-96.57"/>
<polygon fill="midnightblue" stroke="midnightblue" points="935.39,-137.65 925.52,-141.48 935.63,-144.65 935.39,-137.65"/>
</g>
<!-- Node3 -->
<g id="node3" class="node">
<title>Node3</title>
<g id="a_node3"><a xlink:href="DipolarBarnesHut_8cpp.html" target="_top" xlink:title=" ">
<polygon fill="none" stroke="black" points="85,-6 85,-25 208,-25 208,-6 85,-6"/>
<text text-anchor="middle" x="146.5" y="-13" font-family="Helvetica,sans-Serif" font-size="10.00">DipolarBarnesHut.cpp</text>
</a>
</g>
</g>
<!-- Node2&#45;&gt;Node3 -->
<g id="edge2" class="edge">
<title>Node2&#45;&gt;Node3</title>
<path fill="none" stroke="midnightblue" d="M145.79,-62.54C145.98,-50.17 146.22,-34.62 146.37,-25.13"/>
<polygon fill="midnightblue" stroke="midnightblue" points="142.29,-62.68 145.63,-72.73 149.29,-62.79 142.29,-62.68"/>
</g>
<!-- Node4 -->
<g id="node4" class="node">
<title>Node4</title>
<g id="a_node4"><a xlink:href="dipole_8cpp.html" target="_top" xlink:title=" ">
<polygon fill="none" stroke="black" points="0,-6 0,-25 67,-25 67,-6 0,-6"/>
<text text-anchor="middle" x="33.5" y="-13" font-family="Helvetica,sans-Serif" font-size="10.00">dipole.cpp</text>
</a>
</g>
</g>
<!-- Node2&#45;&gt;Node4 -->
<g id="edge3" class="edge">
<title>Node2&#45;&gt;Node4</title>
<path fill="none" stroke="midnightblue" d="M121.58,-67.62C99.39,-54.74 67.06,-35.98 48.37,-25.13"/>
<polygon fill="midnightblue" stroke="midnightblue" points="119.99,-70.74 130.4,-72.73 123.5,-64.69 119.99,-70.74"/>
</g>
<!-- Node5&#45;&gt;Node4 -->
<g id="edge6" class="edge">
<title>Node5&#45;&gt;Node4</title>
<path fill="none" stroke="midnightblue" d="M236.17,-70.76C193,-61.37 129.82,-46.8 75.5,-31 69.43,-29.23 62.93,-27.11 56.92,-25.04"/>
<polygon fill="midnightblue" stroke="midnightblue" points="235.63,-74.22 246.15,-72.91 237.11,-67.38 235.63,-74.22"/>
</g>
<!-- Node6 -->
<g id="node6" class="node">
<title>Node6</title>
<g id="a_node6"><a xlink:href="DipolarDirectSum_8cpp.html" target="_top" xlink:title=" ">
<polygon fill="none" stroke="black" points="226,-6 226,-25 349,-25 349,-6 226,-6"/>
<text text-anchor="middle" x="287.5" y="-13" font-family="Helvetica,sans-Serif" font-size="10.00">DipolarDirectSum.cpp</text>
</a>
</g>
</g>
<!-- Node5&#45;&gt;Node6 -->
<g id="edge5" class="edge">
<title>Node5&#45;&gt;Node6</title>
<path fill="none" stroke="midnightblue" d="M287.5,-62.54C287.5,-50.17 287.5,-34.62 287.5,-25.13"/>
<polygon fill="midnightblue" stroke="midnightblue" points="284,-62.73 287.5,-72.73 291,-62.73 284,-62.73"/>
</g>
<!-- Node9&#45;&gt;Node3 -->
<g id="edge10" class="edge">
<title>Node9&#45;&gt;Node3</title>
<path fill="none" stroke="midnightblue" d="M594.59,-72.77C479.32,-61.52 287.08,-42.08 216.5,-31 206.08,-29.36 194.86,-27.22 184.52,-25.08"/>
<polygon fill="midnightblue" stroke="midnightblue" points="594.52,-76.28 604.81,-73.77 595.2,-69.31 594.52,-76.28"/>
</g>
<!-- Node9&#45;&gt;Node6 -->
<g id="edge11" class="edge">
<title>Node9&#45;&gt;Node6</title>
<path fill="none" stroke="midnightblue" d="M614.02,-71.58C547.45,-62.08 445.54,-46.89 357.5,-31 347.61,-29.22 336.97,-27.11 327.04,-25.06"/>
<polygon fill="midnightblue" stroke="midnightblue" points="613.59,-75.05 623.98,-72.99 614.58,-68.12 613.59,-75.05"/>
</g>
<!-- Node9&#45;&gt;Node8 -->
<g id="edge13" class="edge">
<title>Node9&#45;&gt;Node8</title>
<path fill="none" stroke="midnightblue" d="M640.76,-70.48C588.68,-57.66 503.79,-36.76 456.36,-25.08"/>
<polygon fill="midnightblue" stroke="midnightblue" points="640.17,-73.94 650.72,-72.94 641.84,-67.15 640.17,-73.94"/>
</g>
<!-- Node10 -->
<g id="node10" class="node">
<title>Node10</title>
<g id="a_node10"><a xlink:href="Mmm1dgpuForce__cuda_8cu.html" target="_top" xlink:title=" ">
<polygon fill="none" stroke="black" points="494.5,-6 494.5,-25 638.5,-25 638.5,-6 494.5,-6"/>
<text text-anchor="middle" x="566.5" y="-13" font-family="Helvetica,sans-Serif" font-size="10.00">Mmm1dgpuForce_cuda.cu</text>
</a>
</g>
</g>
<!-- Node9&#45;&gt;Node10 -->
<g id="edge12" class="edge">
<title>Node9&#45;&gt;Node10</title>
<path fill="none" stroke="midnightblue" d="M660.39,-67.79C636.81,-54.9 602.24,-36.02 582.29,-25.13"/>
<polygon fill="midnightblue" stroke="midnightblue" points="659,-71.01 669.45,-72.73 662.35,-64.87 659,-71.01"/>
</g>
<!-- Node9&#45;&gt;Node11 -->
<g id="edge14" class="edge">
<title>Node9&#45;&gt;Node11</title>
<path fill="none" stroke="midnightblue" d="M709.07,-67.44C730.66,-54.57 761.92,-35.93 780.03,-25.13"/>
<polygon fill="midnightblue" stroke="midnightblue" points="707,-64.61 700.2,-72.73 710.58,-70.62 707,-64.61"/>
</g>
<!-- Node9&#45;&gt;Node12 -->
<g id="edge15" class="edge">
<title>Node9&#45;&gt;Node12</title>
<path fill="none" stroke="midnightblue" d="M725.08,-70.1C759.59,-60.08 810.98,-44.95 855.5,-31 861.49,-29.12 867.91,-27.05 873.95,-25.06"/>
<polygon fill="midnightblue" stroke="midnightblue" points="724,-66.77 715.37,-72.92 725.95,-73.49 724,-66.77"/>
</g>
<!-- Node9&#45;&gt;Node13 -->
<g id="edge16" class="edge">
<title>Node9&#45;&gt;Node13</title>
<path fill="none" stroke="midnightblue" d="M741.36,-71.04C809.6,-58.25 923.77,-36.87 986.95,-25.03"/>
<polygon fill="midnightblue" stroke="midnightblue" points="740.41,-67.65 731.22,-72.94 741.69,-74.53 740.41,-67.65"/>
</g>
<!-- Node9&#45;&gt;Node14 -->
<g id="edge17" class="edge">
<title>Node9&#45;&gt;Node14</title>
<path fill="none" stroke="midnightblue" d="M776.27,-72.79C864.81,-63.87 1003.22,-48.82 1122.5,-31 1125.4,-30.57 1128.35,-30.11 1131.33,-29.63"/>
<polygon fill="midnightblue" stroke="midnightblue" points="775.86,-69.31 766.25,-73.79 776.55,-76.28 775.86,-69.31"/>
</g>
<!-- Node15 -->
<g id="node15" class="node">
<title>Node15</title>
<g id="a_node15"><a xlink:href="forces_8cpp.html" target="_top" xlink:title=" ">
<polygon fill="none" stroke="black" points="657,-6 657,-25 724,-25 724,-6 657,-6"/>
<text text-anchor="middle" x="690.5" y="-13" font-family="Helvetica,sans-Serif" font-size="10.00">forces.cpp</text>
</a>
</g>
</g>
<!-- Node9&#45;&gt;Node15 -->
<g id="edge18" class="edge">
<title>Node9&#45;&gt;Node15</title>
<path fill="none" stroke="midnightblue" d="M686.96,-62.54C687.91,-50.17 689.11,-34.62 689.84,-25.13"/>
<polygon fill="midnightblue" stroke="midnightblue" points="683.45,-62.49 686.17,-72.73 690.43,-63.03 683.45,-62.49"/>
</g>
<!-- Node16&#45;&gt;Node8 -->
<g id="edge20" class="edge">
<title>Node16&#45;&gt;Node8</title>
<path fill="none" stroke="midnightblue" d="M440.22,-63.29C435.22,-50.81 428.83,-34.81 424.95,-25.13"/>
<polygon fill="midnightblue" stroke="midnightblue" points="437.03,-64.75 443.99,-72.73 443.53,-62.15 437.03,-64.75"/>
</g>
</g>
</svg>
