<?xml version="1.0" encoding="UTF-8" standalone="no"?>
<!DOCTYPE svg PUBLIC "-//W3C//DTD SVG 1.1//EN"
 "http://www.w3.org/Graphics/SVG/1.1/DTD/svg11.dtd">
<!-- Generated by graphviz version 2.43.0 (0)
 -->
<!-- Title: cuda_init_cuda.cu Pages: 1 -->
<!--zoomable 263 -->
<svg id="main" version="1.1" xmlns="http://www.w3.org/2000/svg" xmlns:xlink="http://www.w3.org/1999/xlink" xml:space="preserve" onload="init(evt)">
<style type="text/css"><![CDATA[
.edge:hover path { stroke: red; }
.edge:hover polygon { stroke: red; fill: red; }
]]></style>
<script type="text/javascript"><![CDATA[
var edges = document.getElementsByTagName('g');
if (edges && edges.length) {
  for (var i=0;i<edges.length;i++) {
    if (edges[i].id.substr(0,4)=='edge') {
      edges[i].setAttribute('class','edge');
    }
  }
}
]]></script>
        <defs>
                <circle id="rim" cx="0" cy="0" r="7"/>
                <circle id="rim2" cx="0" cy="0" r="3.5"/>
                <g id="zoomPlus">
                        <use xlink:href="#rim" fill="#404040">
                                <set attributeName="fill" to="#808080" begin="zoomplus.mouseover" end="zoomplus.mouseout"/>
                        </use>
                        <path d="M-4,0h8M0,-4v8" fill="none" stroke="white" stroke-width="1.5" pointer-events="none"/>
                </g>
                <g id="zoomMin">
                        <use xlink:href="#rim" fill="#404040">
                                <set attributeName="fill" to="#808080" begin="zoomminus.mouseover" end="zoomminus.mouseout"/>
                        </use>
                        <path d="M-4,0h8" fill="none" stroke="white" stroke-width="1.5" pointer-events="none"/>
                </g>
                <g id="dirArrow">
                        <path fill="none" stroke="white" stroke-width="1.5" d="M0,-3.0v7 M-2.5,-0.5L0,-3.0L2.5,-0.5"/>
                </g>
               <g id="resetDef">
                       <use xlink:href="#rim2" fill="#404040">
                               <set attributeName="fill" to="#808080" begin="reset.mouseover" end="reset.mouseout"/>
                       </use>
               </g>
        </defs>

<script type="text/javascript">
var viewWidth = 663;
var viewHeight = 263;
var sectionId = 'dynsection-0';
</script>
<script xlink:href="svgpan.js"/>
<svg id="graph" class="graph">
<g id="viewport">
<title>cuda_init_cuda.cu</title>
<!-- Node1 -->
<g id="node1" class="node">
<title>Node1</title>
<g id="a_node1"><a xlink:title=" ">
<polygon fill="#bfbfbf" stroke="black" points="230.06,-235.5 230.06,-254.5 334.06,-254.5 334.06,-235.5 230.06,-235.5"/>
<text text-anchor="middle" x="282.06" y="-242.5" font-family="Helvetica,sans-Serif" font-size="10.00">cuda_init_cuda.cu</text>
</a>
</g>
</g>
<!-- Node2 -->
<g id="node2" class="node">
<title>Node2</title>
<g id="a_node2"><a xlink:title=" ">
<polygon fill="none" stroke="#bfbfbf" points="150.56,-118 150.56,-137 199.56,-137 199.56,-118 150.56,-118"/>
<text text-anchor="middle" x="175.06" y="-125" font-family="Helvetica,sans-Serif" font-size="10.00">cuda.h</text>
</a>
</g>
</g>
<!-- Node1&#45;&gt;Node2 -->
<g id="edge1" class="edge">
<title>Node1&#45;&gt;Node2</title>
<path fill="none" stroke="midnightblue" d="M270.75,-235.28C259.82,-226.61 243.06,-212.67 230.06,-199 213.77,-181.85 197.38,-160.14 186.79,-145.37"/>
<polygon fill="midnightblue" stroke="midnightblue" points="189.63,-143.32 181,-137.18 183.91,-147.37 189.63,-143.32"/>
</g>
<!-- Node3 -->
<g id="node3" class="node">
<title>Node3</title>
<g id="a_node3"><a xlink:href="cuda__init_8hpp.html" target="_top" xlink:title=" ">
<polygon fill="none" stroke="black" points="34.06,-179.5 34.06,-198.5 116.06,-198.5 116.06,-179.5 34.06,-179.5"/>
<text text-anchor="middle" x="75.06" y="-186.5" font-family="Helvetica,sans-Serif" font-size="10.00">cuda_init.hpp</text>
</a>
</g>
</g>
<!-- Node1&#45;&gt;Node3 -->
<g id="edge2" class="edge">
<title>Node1&#45;&gt;Node3</title>
<path fill="none" stroke="midnightblue" d="M249.26,-235.44C213.68,-226.16 156.75,-211.31 117.72,-201.13"/>
<polygon fill="midnightblue" stroke="midnightblue" points="118.27,-197.65 107.71,-198.52 116.5,-204.43 118.27,-197.65"/>
</g>
<!-- Node8 -->
<g id="node8" class="node">
<title>Node8</title>
<g id="a_node8"><a xlink:href="cuda__utils_8cuh.html" target="_top" xlink:title=" ">
<polygon fill="none" stroke="black" points="239.06,-179.5 239.06,-198.5 325.06,-198.5 325.06,-179.5 239.06,-179.5"/>
<text text-anchor="middle" x="282.06" y="-186.5" font-family="Helvetica,sans-Serif" font-size="10.00">cuda_utils.cuh</text>
</a>
</g>
</g>
<!-- Node1&#45;&gt;Node8 -->
<g id="edge7" class="edge">
<title>Node1&#45;&gt;Node8</title>
<path fill="none" stroke="midnightblue" d="M282.06,-235.08C282.06,-228.01 282.06,-217.86 282.06,-208.99"/>
<polygon fill="midnightblue" stroke="midnightblue" points="285.56,-208.75 282.06,-198.75 278.56,-208.75 285.56,-208.75"/>
</g>
<!-- Node13 -->
<g id="node13" class="node">
<title>Node13</title>
<g id="a_node13"><a xlink:href="constants_8hpp.html" target="_top" xlink:title=" ">
<polygon fill="none" stroke="black" points="384.56,-179.5 384.56,-198.5 493.56,-198.5 493.56,-179.5 384.56,-179.5"/>
<text text-anchor="middle" x="439.06" y="-186.5" font-family="Helvetica,sans-Serif" font-size="10.00">utils/constants.hpp</text>
</a>
</g>
</g>
<!-- Node1&#45;&gt;Node13 -->
<g id="edge15" class="edge">
<title>Node1&#45;&gt;Node13</title>
<path fill="none" stroke="midnightblue" d="M306.94,-235.44C333.35,-226.36 375.28,-211.94 404.8,-201.78"/>
<polygon fill="midnightblue" stroke="midnightblue" points="405.98,-205.08 414.3,-198.52 403.71,-198.46 405.98,-205.08"/>
</g>
<!-- Node16 -->
<g id="node16" class="node">
<title>Node16</title>
<g id="a_node16"><a xlink:title=" ">
<polygon fill="none" stroke="#bfbfbf" points="512.06,-179.5 512.06,-198.5 562.06,-198.5 562.06,-179.5 512.06,-179.5"/>
<text text-anchor="middle" x="537.06" y="-186.5" font-family="Helvetica,sans-Serif" font-size="10.00">cstring</text>
</a>
</g>
</g>
<!-- Node1&#45;&gt;Node16 -->
<g id="edge19" class="edge">
<title>Node1&#45;&gt;Node16</title>
<path fill="none" stroke="midnightblue" d="M327.94,-235.46C370.57,-227.35 436.04,-214.43 501.74,-199.21"/>
<polygon fill="midnightblue" stroke="midnightblue" points="502.91,-202.53 511.85,-196.85 501.32,-195.71 502.91,-202.53"/>
</g>
<!-- Node4 -->
<g id="node4" class="node">
<title>Node4</title>
<g id="a_node4"><a xlink:href="config_8hpp.html" target="_top" xlink:title=" ">
<polygon fill="none" stroke="black" points="47.06,-56.5 47.06,-75.5 115.06,-75.5 115.06,-56.5 47.06,-56.5"/>
<text text-anchor="middle" x="81.06" y="-63.5" font-family="Helvetica,sans-Serif" font-size="10.00">config.hpp</text>
</a>
</g>
</g>
<!-- Node3&#45;&gt;Node4 -->
<g id="edge3" class="edge">
<title>Node3&#45;&gt;Node4</title>
<path fill="none" stroke="midnightblue" d="M50.59,-179.44C34.5,-172.38 14.69,-160.63 5.06,-143 -1.54,-130.91 -1.76,-123.97 5.06,-112 13.47,-97.25 28.83,-86.84 43.55,-79.77"/>
<polygon fill="midnightblue" stroke="midnightblue" points="45.3,-82.83 53.05,-75.6 42.48,-76.42 45.3,-82.83"/>
</g>
<!-- Node6 -->
<g id="node6" class="node">
<title>Node6</title>
<g id="a_node6"><a xlink:title=" ">
<polygon fill="none" stroke="#bfbfbf" points="14.56,-118 14.56,-137 67.56,-137 67.56,-118 14.56,-118"/>
<text text-anchor="middle" x="41.06" y="-125" font-family="Helvetica,sans-Serif" font-size="10.00">cstddef</text>
</a>
</g>
</g>
<!-- Node3&#45;&gt;Node6 -->
<g id="edge5" class="edge">
<title>Node3&#45;&gt;Node6</title>
<path fill="none" stroke="midnightblue" d="M70.19,-179.48C65.19,-170.73 57.27,-156.87 50.95,-145.81"/>
<polygon fill="midnightblue" stroke="midnightblue" points="53.92,-143.96 45.92,-137.01 47.85,-147.43 53.92,-143.96"/>
</g>
<!-- Node7 -->
<g id="node7" class="node">
<title>Node7</title>
<g id="a_node7"><a xlink:title=" ">
<polygon fill="none" stroke="#bfbfbf" points="85.56,-118 85.56,-137 132.56,-137 132.56,-118 85.56,-118"/>
<text text-anchor="middle" x="109.06" y="-125" font-family="Helvetica,sans-Serif" font-size="10.00">vector</text>
</a>
</g>
</g>
<!-- Node3&#45;&gt;Node7 -->
<g id="edge6" class="edge">
<title>Node3&#45;&gt;Node7</title>
<path fill="none" stroke="midnightblue" d="M79.93,-179.48C84.93,-170.73 92.85,-156.87 99.17,-145.81"/>
<polygon fill="midnightblue" stroke="midnightblue" points="102.28,-147.43 104.2,-137.01 96.2,-143.96 102.28,-147.43"/>
</g>
<!-- Node5 -->
<g id="node5" class="node">
<title>Node5</title>
<g id="a_node5"><a xlink:title=" ">
<polygon fill="none" stroke="#bfbfbf" points="25.06,-0.5 25.06,-19.5 137.06,-19.5 137.06,-0.5 25.06,-0.5"/>
<text text-anchor="middle" x="81.06" y="-7.5" font-family="Helvetica,sans-Serif" font-size="10.00">config&#45;features.hpp</text>
</a>
</g>
</g>
<!-- Node4&#45;&gt;Node5 -->
<g id="edge4" class="edge">
<title>Node4&#45;&gt;Node5</title>
<path fill="none" stroke="midnightblue" d="M81.06,-56.08C81.06,-49.01 81.06,-38.86 81.06,-29.99"/>
<polygon fill="midnightblue" stroke="midnightblue" points="84.56,-29.75 81.06,-19.75 77.56,-29.75 84.56,-29.75"/>
</g>
<!-- Node8&#45;&gt;Node2 -->
<g id="edge12" class="edge">
<title>Node8&#45;&gt;Node2</title>
<path fill="none" stroke="midnightblue" d="M266.73,-179.48C249.09,-169.67 219.9,-153.43 199.2,-141.92"/>
<polygon fill="midnightblue" stroke="midnightblue" points="200.8,-138.81 190.36,-137.01 197.4,-144.93 200.8,-138.81"/>
</g>
<!-- Node9 -->
<g id="node9" class="node">
<title>Node9</title>
<g id="a_node9"><a xlink:href="cuda__utils_8hpp.html" target="_top" xlink:title=" ">
<polygon fill="none" stroke="black" points="217.56,-118 217.56,-137 304.56,-137 304.56,-118 217.56,-118"/>
<text text-anchor="middle" x="261.06" y="-125" font-family="Helvetica,sans-Serif" font-size="10.00">cuda_utils.hpp</text>
</a>
</g>
</g>
<!-- Node8&#45;&gt;Node9 -->
<g id="edge8" class="edge">
<title>Node8&#45;&gt;Node9</title>
<path fill="none" stroke="midnightblue" d="M279.05,-179.48C276.03,-170.9 271.27,-157.43 267.41,-146.48"/>
<polygon fill="midnightblue" stroke="midnightblue" points="270.69,-145.27 264.07,-137.01 264.09,-147.6 270.69,-145.27"/>
</g>
<!-- Node11 -->
<g id="node11" class="node">
<title>Node11</title>
<g id="a_node11"><a xlink:title=" ">
<polygon fill="none" stroke="#bfbfbf" points="311.06,-56.5 311.06,-75.5 355.06,-75.5 355.06,-56.5 311.06,-56.5"/>
<text text-anchor="middle" x="333.06" y="-63.5" font-family="Helvetica,sans-Serif" font-size="10.00">string</text>
</a>
</g>
</g>
<!-- Node8&#45;&gt;Node11 -->
<g id="edge14" class="edge">
<title>Node8&#45;&gt;Node11</title>
<path fill="none" stroke="midnightblue" d="M289.46,-179.25C296.47,-170.57 306.81,-156.62 313.06,-143 321.58,-124.44 326.97,-101.6 329.99,-85.84"/>
<polygon fill="midnightblue" stroke="midnightblue" points="333.47,-86.22 331.77,-75.77 326.58,-85 333.47,-86.22"/>
</g>
<!-- Node12 -->
<g id="node12" class="node">
<title>Node12</title>
<g id="a_node12"><a xlink:title=" ">
<polygon fill="none" stroke="#bfbfbf" points="472.06,-56.5 472.06,-75.5 524.06,-75.5 524.06,-56.5 472.06,-56.5"/>
<text text-anchor="middle" x="498.06" y="-63.5" font-family="Helvetica,sans-Serif" font-size="10.00">cassert</text>
</a>
</g>
</g>
<!-- Node8&#45;&gt;Node12 -->
<g id="edge13" class="edge">
<title>Node8&#45;&gt;Node12</title>
<path fill="none" stroke="midnightblue" d="M292.59,-179.41C311.33,-164.38 352.12,-132.93 390.06,-112 413.82,-98.9 442.18,-87.22 463.87,-79.05"/>
<polygon fill="midnightblue" stroke="midnightblue" points="465.17,-82.3 473.33,-75.54 462.74,-75.73 465.17,-82.3"/>
</g>
<!-- Node9&#45;&gt;Node4 -->
<g id="edge9" class="edge">
<title>Node9&#45;&gt;Node4</title>
<path fill="none" stroke="midnightblue" d="M235.27,-117.98C204.13,-107.68 151.58,-90.31 116.61,-78.75"/>
<polygon fill="midnightblue" stroke="midnightblue" points="117.4,-75.32 106.8,-75.51 115.2,-81.97 117.4,-75.32"/>
</g>
<!-- Node10 -->
<g id="node10" class="node">
<title>Node10</title>
<g id="a_node10"><a xlink:title=" ">
<polygon fill="none" stroke="#bfbfbf" points="227.56,-56.5 227.56,-75.5 292.56,-75.5 292.56,-56.5 227.56,-56.5"/>
<text text-anchor="middle" x="260.06" y="-63.5" font-family="Helvetica,sans-Serif" font-size="10.00">stdexcept</text>
</a>
</g>
</g>
<!-- Node9&#45;&gt;Node10 -->
<g id="edge10" class="edge">
<title>Node9&#45;&gt;Node10</title>
<path fill="none" stroke="midnightblue" d="M260.92,-117.98C260.78,-109.58 260.56,-96.48 260.38,-85.66"/>
<polygon fill="midnightblue" stroke="midnightblue" points="263.87,-85.45 260.21,-75.51 256.87,-85.57 263.87,-85.45"/>
</g>
<!-- Node9&#45;&gt;Node11 -->
<g id="edge11" class="edge">
<title>Node9&#45;&gt;Node11</title>
<path fill="none" stroke="midnightblue" d="M271.38,-117.98C282.71,-108.61 301.14,-93.38 314.9,-82.01"/>
<polygon fill="midnightblue" stroke="midnightblue" points="317.29,-84.58 322.77,-75.51 312.83,-79.18 317.29,-84.58"/>
</g>
<!-- Node14 -->
<g id="node14" class="node">
<title>Node14</title>
<g id="a_node14"><a xlink:href="device__qualifier_8hpp.html" target="_top" xlink:title=" ">
<polygon fill="none" stroke="black" points="539.06,-118 539.06,-137 655.06,-137 655.06,-118 539.06,-118"/>
<text text-anchor="middle" x="597.06" y="-125" font-family="Helvetica,sans-Serif" font-size="10.00">device_qualifier.hpp</text>
</a>
</g>
</g>
<!-- Node13&#45;&gt;Node14 -->
<g id="edge16" class="edge">
<title>Node13&#45;&gt;Node14</title>
<path fill="none" stroke="midnightblue" d="M461.7,-179.48C488.8,-169.27 534.37,-152.11 565.07,-140.55"/>
<polygon fill="midnightblue" stroke="midnightblue" points="566.34,-143.81 574.47,-137.01 563.87,-137.26 566.34,-143.81"/>
</g>
<!-- Node15 -->
<g id="node15" class="node">
<title>Node15</title>
<g id="a_node15"><a xlink:title=" ">
<polygon fill="none" stroke="#bfbfbf" points="399.06,-112.5 399.06,-142.5 521.06,-142.5 521.06,-112.5 399.06,-112.5"/>
<text text-anchor="start" x="407.06" y="-130.5" font-family="Helvetica,sans-Serif" font-size="10.00">boost/math/constants</text>
<text text-anchor="middle" x="460.06" y="-119.5" font-family="Helvetica,sans-Serif" font-size="10.00">/constants.hpp</text>
</a>
</g>
</g>
<!-- Node13&#45;&gt;Node15 -->
<g id="edge18" class="edge">
<title>Node13&#45;&gt;Node15</title>
<path fill="none" stroke="midnightblue" d="M442.07,-179.48C444.6,-172.32 448.33,-161.75 451.74,-152.08"/>
<polygon fill="midnightblue" stroke="midnightblue" points="455.09,-153.12 455.11,-142.52 448.48,-150.79 455.09,-153.12"/>
</g>
<!-- Node14&#45;&gt;Node12 -->
<g id="edge17" class="edge">
<title>Node14&#45;&gt;Node12</title>
<path fill="none" stroke="midnightblue" d="M582.88,-117.98C566.7,-108.25 540.04,-92.23 520.92,-80.74"/>
<polygon fill="midnightblue" stroke="midnightblue" points="522.59,-77.66 512.22,-75.51 518.99,-83.66 522.59,-77.66"/>
</g>
</g>
</svg>
        <g id="navigator" transform="translate(0 0)" fill="#404254">
                <rect fill="#f2f5e9" fill-opacity="0.5" stroke="#606060" stroke-width=".5" x="0" y="0" width="60" height="60"/>
                <use id="zoomplus" xlink:href="#zoomPlus" x="17" y="9" onmousedown="handleZoom(evt,'in')"/>
                <use id="zoomminus" xlink:href="#zoomMin" x="42" y="9" onmousedown="handleZoom(evt,'out')"/>
                <use id="reset" xlink:href="#resetDef" x="30" y="36" onmousedown="handleReset()"/>
                <g id="arrowUp" xlink:href="#dirArrow" transform="translate(30 24)" onmousedown="handlePan(0,-1)">
                  <use xlink:href="#rim" fill="#404040">
                        <set attributeName="fill" to="#808080" begin="arrowUp.mouseover" end="arrowUp.mouseout"/>
                  </use>
                  <path fill="none" stroke="white" stroke-width="1.5" d="M0,-3.0v7 M-2.5,-0.5L0,-3.0L2.5,-0.5"/>
                </g>
                <g id="arrowRight" xlink:href="#dirArrow" transform="rotate(90) translate(36 -43)" onmousedown="handlePan(1,0)">
                  <use xlink:href="#rim" fill="#404040">
                        <set attributeName="fill" to="#808080" begin="arrowRight.mouseover" end="arrowRight.mouseout"/>
                  </use>
                  <path fill="none" stroke="white" stroke-width="1.5" d="M0,-3.0v7 M-2.5,-0.5L0,-3.0L2.5,-0.5"/>
                </g>
                <g id="arrowDown" xlink:href="#dirArrow" transform="rotate(180) translate(-30 -48)" onmousedown="handlePan(0,1)">
                  <use xlink:href="#rim" fill="#404040">
                        <set attributeName="fill" to="#808080" begin="arrowDown.mouseover" end="arrowDown.mouseout"/>
                  </use>
                  <path fill="none" stroke="white" stroke-width="1.5" d="M0,-3.0v7 M-2.5,-0.5L0,-3.0L2.5,-0.5"/>
                </g>
                <g id="arrowLeft" xlink:href="#dirArrow" transform="rotate(270) translate(-36 17)" onmousedown="handlePan(-1,0)">
                  <use xlink:href="#rim" fill="#404040">
                        <set attributeName="fill" to="#808080" begin="arrowLeft.mouseover" end="arrowLeft.mouseout"/>
                  </use>
                  <path fill="none" stroke="white" stroke-width="1.5" d="M0,-3.0v7 M-2.5,-0.5L0,-3.0L2.5,-0.5"/>
                </g>
        </g>
        <svg viewBox="0 0 15 15" width="100%" height="30px" preserveAspectRatio="xMaxYMin meet">
         <g id="arrow_out" transform="scale(0.3 0.3)">
          <a xlink:href="cuda__init__cuda_8cu__incl_org.svg" target="_base">
           <rect id="button" ry="5" rx="5" y="6" x="6" height="38" width="38"
                fill="#f2f5e9" fill-opacity="0.5" stroke="#606060" stroke-width="1.0"/>
           <path id="arrow"
             d="M 11.500037,31.436501 C 11.940474,20.09759 22.043105,11.32322 32.158766,21.979434 L 37.068811,17.246167 C 37.068811,17.246167 37.088388,32 37.088388,32 L 22.160133,31.978069 C 22.160133,31.978069 26.997745,27.140456 26.997745,27.140456 C 18.528582,18.264221 13.291696,25.230495 11.500037,31.436501 z"
             style="fill:#404040;"/>
          </a>
         </g>
        </svg>
</svg>
