<?xml version="1.0" encoding="UTF-8" standalone="no"?>
<!DOCTYPE svg PUBLIC "-//W3C//DTD SVG 1.1//EN"
 "http://www.w3.org/Graphics/SVG/1.1/DTD/svg11.dtd">
<!-- Generated by graphviz version 2.43.0 (0)
 -->
<!-- Title: cylindrical_transformation_parameters.hpp Pages: 1 -->
<svg width="1342pt" height="352pt"
 viewBox="0.00 0.00 1341.99 352.00" xmlns="http://www.w3.org/2000/svg" xmlns:xlink="http://www.w3.org/1999/xlink">
<g id="graph0" class="graph" transform="scale(1 1) rotate(0) translate(4 348)">
<title>cylindrical_transformation_parameters.hpp</title>
<!-- Node1 -->
<g id="node1" class="node">
<title>Node1</title>
<g id="a_node1"><a xlink:title=" ">
<polygon fill="#bfbfbf" stroke="black" points="12.12,-313.5 12.12,-343.5 157.12,-343.5 157.12,-313.5 12.12,-313.5"/>
<text text-anchor="start" x="20.12" y="-331.5" font-family="Helvetica,sans-Serif" font-size="10.00">cylindrical_transformation</text>
<text text-anchor="middle" x="84.62" y="-320.5" font-family="Helvetica,sans-Serif" font-size="10.00">_parameters.hpp</text>
</a>
</g>
</g>
<!-- Node2 -->
<g id="node2" class="node">
<title>Node2</title>
<g id="a_node2"><a xlink:title=" ">
<polygon fill="none" stroke="#bfbfbf" points="814.12,-62 814.12,-81 879.12,-81 879.12,-62 814.12,-62"/>
<text text-anchor="middle" x="846.62" y="-69" font-family="Helvetica,sans-Serif" font-size="10.00">stdexcept</text>
</a>
</g>
</g>
<!-- Node1&#45;&gt;Node2 -->
<g id="edge1" class="edge">
<title>Node1&#45;&gt;Node2</title>
<path fill="none" stroke="midnightblue" d="M61.15,-313.32C48.99,-304.54 35.32,-292.07 28.62,-277 0.8,-214.46 -18.26,-172.87 28.62,-123 35.33,-115.86 636.79,-83.58 803.95,-74.74"/>
<polygon fill="midnightblue" stroke="midnightblue" points="804.29,-78.23 814.09,-74.21 803.92,-71.24 804.29,-78.23"/>
</g>
<!-- Node3 -->
<g id="node3" class="node">
<title>Node3</title>
<g id="a_node3"><a xlink:title=" ">
<polygon fill="none" stroke="#bfbfbf" points="37.62,-252 37.62,-271 81.62,-271 81.62,-252 37.62,-252"/>
<text text-anchor="middle" x="59.62" y="-259" font-family="Helvetica,sans-Serif" font-size="10.00">string</text>
</a>
</g>
</g>
<!-- Node1&#45;&gt;Node3 -->
<g id="edge2" class="edge">
<title>Node1&#45;&gt;Node3</title>
<path fill="none" stroke="midnightblue" d="M79.2,-313.4C75.49,-303.76 70.55,-290.91 66.56,-280.54"/>
<polygon fill="midnightblue" stroke="midnightblue" points="69.82,-279.27 62.96,-271.19 63.29,-281.78 69.82,-279.27"/>
</g>
<!-- Node4 -->
<g id="node4" class="node">
<title>Node4</title>
<g id="a_node4"><a xlink:href="abs_8hpp.html" target="_top" xlink:title=" ">
<polygon fill="none" stroke="black" points="38.12,-190.5 38.12,-209.5 145.12,-209.5 145.12,-190.5 38.12,-190.5"/>
<text text-anchor="middle" x="91.62" y="-197.5" font-family="Helvetica,sans-Serif" font-size="10.00">utils/math/abs.hpp</text>
</a>
</g>
</g>
<!-- Node1&#45;&gt;Node4 -->
<g id="edge3" class="edge">
<title>Node1&#45;&gt;Node4</title>
<path fill="none" stroke="midnightblue" d="M86.7,-313.39C88.09,-303.28 89.81,-289.33 90.62,-277 91.89,-257.69 92.03,-235.57 91.92,-220.19"/>
<polygon fill="midnightblue" stroke="midnightblue" points="95.42,-219.86 91.81,-209.9 88.42,-219.94 95.42,-219.86"/>
</g>
<!-- Node8 -->
<g id="node8" class="node">
<title>Node8</title>
<g id="a_node8"><a xlink:href="orthonormal__vec_8hpp.html" target="_top" xlink:title=" ">
<polygon fill="none" stroke="black" points="410.12,-246.5 410.12,-276.5 539.12,-276.5 539.12,-246.5 410.12,-246.5"/>
<text text-anchor="start" x="418.12" y="-264.5" font-family="Helvetica,sans-Serif" font-size="10.00">utils/math/orthonormal</text>
<text text-anchor="middle" x="474.62" y="-253.5" font-family="Helvetica,sans-Serif" font-size="10.00">_vec.hpp</text>
</a>
</g>
</g>
<!-- Node1&#45;&gt;Node8 -->
<g id="edge7" class="edge">
<title>Node1&#45;&gt;Node8</title>
<path fill="none" stroke="midnightblue" d="M157.52,-315.35C226.65,-303.83 330.05,-286.6 399.81,-274.97"/>
<polygon fill="midnightblue" stroke="midnightblue" points="400.56,-278.39 409.85,-273.3 399.41,-271.49 400.56,-278.39"/>
</g>
<!-- Node5 -->
<g id="node5" class="node">
<title>Node5</title>
<g id="a_node5"><a xlink:href="device__qualifier_8hpp.html" target="_top" xlink:title=" ">
<polygon fill="none" stroke="black" points="400.62,-62 400.62,-81 540.62,-81 540.62,-62 400.62,-62"/>
<text text-anchor="middle" x="470.62" y="-69" font-family="Helvetica,sans-Serif" font-size="10.00">utils/device_qualifier.hpp</text>
</a>
</g>
</g>
<!-- Node4&#45;&gt;Node5 -->
<g id="edge4" class="edge">
<title>Node4&#45;&gt;Node5</title>
<path fill="none" stroke="midnightblue" d="M70.77,-190.43C56.04,-183.13 37.41,-171.09 28.62,-154 22.32,-141.75 19.45,-133.28 28.62,-123 52.2,-96.58 268.85,-82.09 389.84,-76.01"/>
<polygon fill="midnightblue" stroke="midnightblue" points="390.35,-79.48 400.16,-75.49 390,-72.49 390.35,-79.48"/>
</g>
<!-- Node7 -->
<g id="node7" class="node">
<title>Node7</title>
<g id="a_node7"><a xlink:title=" ">
<polygon fill="none" stroke="#bfbfbf" points="38.12,-129 38.12,-148 85.12,-148 85.12,-129 38.12,-129"/>
<text text-anchor="middle" x="61.62" y="-136" font-family="Helvetica,sans-Serif" font-size="10.00">cmath</text>
</a>
</g>
</g>
<!-- Node4&#45;&gt;Node7 -->
<g id="edge6" class="edge">
<title>Node4&#45;&gt;Node7</title>
<path fill="none" stroke="midnightblue" d="M87.32,-190.48C82.96,-181.82 76.06,-168.15 70.52,-157.15"/>
<polygon fill="midnightblue" stroke="midnightblue" points="73.54,-155.36 65.91,-148.01 67.29,-158.51 73.54,-155.36"/>
</g>
<!-- Node6 -->
<g id="node6" class="node">
<title>Node6</title>
<g id="a_node6"><a xlink:title=" ">
<polygon fill="none" stroke="#bfbfbf" points="759.62,-0.5 759.62,-19.5 811.62,-19.5 811.62,-0.5 759.62,-0.5"/>
<text text-anchor="middle" x="785.62" y="-7.5" font-family="Helvetica,sans-Serif" font-size="10.00">cassert</text>
</a>
</g>
</g>
<!-- Node5&#45;&gt;Node6 -->
<g id="edge5" class="edge">
<title>Node5&#45;&gt;Node6</title>
<path fill="none" stroke="midnightblue" d="M515.75,-61.98C578.69,-50.09 691.58,-28.76 749.37,-17.85"/>
<polygon fill="midnightblue" stroke="midnightblue" points="750.32,-21.23 759.5,-15.93 749.02,-14.35 750.32,-21.23"/>
</g>
<!-- Node9 -->
<g id="node9" class="node">
<title>Node9</title>
<g id="a_node9"><a xlink:href="Vector_8hpp.html" target="_top" xlink:title=" ">
<polygon fill="none" stroke="black" points="649.12,-190.5 649.12,-209.5 742.12,-209.5 742.12,-190.5 649.12,-190.5"/>
<text text-anchor="middle" x="695.62" y="-197.5" font-family="Helvetica,sans-Serif" font-size="10.00">utils/Vector.hpp</text>
</a>
</g>
</g>
<!-- Node8&#45;&gt;Node9 -->
<g id="edge8" class="edge">
<title>Node8&#45;&gt;Node9</title>
<path fill="none" stroke="midnightblue" d="M526.71,-246.47C565.67,-235.99 618.23,-221.84 654.31,-212.12"/>
<polygon fill="midnightblue" stroke="midnightblue" points="655.28,-215.49 664.02,-209.51 653.46,-208.73 655.28,-215.49"/>
</g>
<!-- Node14 -->
<g id="node14" class="node">
<title>Node14</title>
<g id="a_node14"><a xlink:title=" ">
<polygon fill="none" stroke="#bfbfbf" points="1246.12,-0.5 1246.12,-19.5 1299.12,-19.5 1299.12,-0.5 1246.12,-0.5"/>
<text text-anchor="middle" x="1272.62" y="-7.5" font-family="Helvetica,sans-Serif" font-size="10.00">cstddef</text>
</a>
</g>
</g>
<!-- Node8&#45;&gt;Node14 -->
<g id="edge35" class="edge">
<title>Node8&#45;&gt;Node14</title>
<path fill="none" stroke="midnightblue" d="M539.21,-260.05C711.17,-257.63 1175.18,-242.83 1294.62,-154 1331.17,-126.82 1343.56,-97.43 1324.62,-56 1318.84,-43.36 1307.57,-32.91 1296.99,-25.27"/>
<polygon fill="midnightblue" stroke="midnightblue" points="1298.66,-22.18 1288.4,-19.53 1294.77,-28 1298.66,-22.18"/>
</g>
<!-- Node25 -->
<g id="node25" class="node">
<title>Node25</title>
<g id="a_node25"><a xlink:href="constants_8hpp.html" target="_top" xlink:title=" ">
<polygon fill="none" stroke="black" points="199.12,-190.5 199.12,-209.5 308.12,-209.5 308.12,-190.5 199.12,-190.5"/>
<text text-anchor="middle" x="253.62" y="-197.5" font-family="Helvetica,sans-Serif" font-size="10.00">utils/constants.hpp</text>
</a>
</g>
</g>
<!-- Node8&#45;&gt;Node25 -->
<g id="edge32" class="edge">
<title>Node8&#45;&gt;Node25</title>
<path fill="none" stroke="midnightblue" d="M422.53,-246.47C383.57,-235.99 331.01,-221.84 294.93,-212.12"/>
<polygon fill="midnightblue" stroke="midnightblue" points="295.78,-208.73 285.21,-209.51 293.96,-215.49 295.78,-208.73"/>
</g>
<!-- Node9&#45;&gt;Node6 -->
<g id="edge23" class="edge">
<title>Node9&#45;&gt;Node6</title>
<path fill="none" stroke="midnightblue" d="M718.32,-190.46C734.23,-183.24 754.56,-171.28 765.62,-154 790.43,-115.23 789.94,-58.5 787.68,-29.53"/>
<polygon fill="midnightblue" stroke="midnightblue" points="791.16,-29.19 786.74,-19.56 784.19,-29.85 791.16,-29.19"/>
</g>
<!-- Node9&#45;&gt;Node7 -->
<g id="edge24" class="edge">
<title>Node9&#45;&gt;Node7</title>
<path fill="none" stroke="midnightblue" d="M649.1,-197.55C527,-193.42 199.57,-180.17 94.62,-154 92.26,-153.41 89.86,-152.67 87.49,-151.83"/>
<polygon fill="midnightblue" stroke="midnightblue" points="88.6,-148.51 78.02,-148.01 85.98,-155 88.6,-148.51"/>
</g>
<!-- Node10 -->
<g id="node10" class="node">
<title>Node10</title>
<g id="a_node10"><a xlink:title=" ">
<polygon fill="none" stroke="#bfbfbf" points="813.62,-129 813.62,-148 963.62,-148 963.62,-129 813.62,-129"/>
<text text-anchor="middle" x="888.62" y="-136" font-family="Helvetica,sans-Serif" font-size="10.00">boost/qvm/deduce_vec.hpp</text>
</a>
</g>
</g>
<!-- Node9&#45;&gt;Node10 -->
<g id="edge9" class="edge">
<title>Node9&#45;&gt;Node10</title>
<path fill="none" stroke="midnightblue" d="M723.27,-190.48C756.81,-180.14 813.49,-162.66 850.99,-151.1"/>
<polygon fill="midnightblue" stroke="midnightblue" points="852.49,-154.3 861.02,-148.01 850.43,-147.61 852.49,-154.3"/>
</g>
<!-- Node11 -->
<g id="node11" class="node">
<title>Node11</title>
<g id="a_node11"><a xlink:title=" ">
<polygon fill="none" stroke="#bfbfbf" points="981.62,-129 981.62,-148 1121.62,-148 1121.62,-129 981.62,-129"/>
<text text-anchor="middle" x="1051.62" y="-136" font-family="Helvetica,sans-Serif" font-size="10.00">boost/qvm/vec_traits.hpp</text>
</a>
</g>
</g>
<!-- Node9&#45;&gt;Node11 -->
<g id="edge10" class="edge">
<title>Node9&#45;&gt;Node11</title>
<path fill="none" stroke="midnightblue" d="M742.23,-191.73C797.32,-183.06 891.73,-167.99 972.62,-154 980.25,-152.68 988.29,-151.25 996.2,-149.82"/>
<polygon fill="midnightblue" stroke="midnightblue" points="996.9,-153.25 1006.11,-148.02 995.65,-146.36 996.9,-153.25"/>
</g>
<!-- Node12 -->
<g id="node12" class="node">
<title>Node12</title>
<g id="a_node12"><a xlink:href="Array_8hpp.html" target="_top" xlink:title=" ">
<polygon fill="none" stroke="black" points="1139.62,-129 1139.62,-148 1225.62,-148 1225.62,-129 1139.62,-129"/>
<text text-anchor="middle" x="1182.62" y="-136" font-family="Helvetica,sans-Serif" font-size="10.00">utils/Array.hpp</text>
</a>
</g>
</g>
<!-- Node9&#45;&gt;Node12 -->
<g id="edge11" class="edge">
<title>Node9&#45;&gt;Node12</title>
<path fill="none" stroke="midnightblue" d="M742.35,-196.76C822.42,-192.34 990.76,-180.54 1130.62,-154 1135.43,-153.09 1140.44,-151.94 1145.38,-150.7"/>
<polygon fill="midnightblue" stroke="midnightblue" points="1146.54,-154.01 1155.3,-148.05 1144.73,-147.25 1146.54,-154.01"/>
</g>
<!-- Node9&#45;&gt;Node14 -->
<g id="edge25" class="edge">
<title>Node9&#45;&gt;Node14</title>
<path fill="none" stroke="midnightblue" d="M742.16,-197.56C869.31,-193.3 1216.09,-179.45 1260.62,-154 1302.56,-130.03 1323.3,-101.69 1307.62,-56 1303.9,-45.16 1296.39,-34.92 1289.27,-26.96"/>
<polygon fill="midnightblue" stroke="midnightblue" points="1291.62,-24.35 1282.18,-19.55 1286.57,-29.19 1291.62,-24.35"/>
</g>
<!-- Node17 -->
<g id="node17" class="node">
<title>Node17</title>
<g id="a_node17"><a xlink:title=" ">
<polygon fill="none" stroke="#bfbfbf" points="1246.12,-62 1246.12,-81 1299.12,-81 1299.12,-62 1246.12,-62"/>
<text text-anchor="middle" x="1272.62" y="-69" font-family="Helvetica,sans-Serif" font-size="10.00">iterator</text>
</a>
</g>
</g>
<!-- Node9&#45;&gt;Node17 -->
<g id="edge28" class="edge">
<title>Node9&#45;&gt;Node17</title>
<path fill="none" stroke="midnightblue" d="M742.47,-197.75C866.16,-194.09 1194.71,-181.83 1234.62,-154 1255.49,-139.44 1265.19,-110.38 1269.48,-91.19"/>
<polygon fill="midnightblue" stroke="midnightblue" points="1272.95,-91.7 1271.43,-81.21 1266.08,-90.36 1272.95,-91.7"/>
</g>
<!-- Node19 -->
<g id="node19" class="node">
<title>Node19</title>
<g id="a_node19"><a xlink:title=" ">
<polygon fill="none" stroke="#bfbfbf" points="281.62,-129 281.62,-148 345.62,-148 345.62,-129 281.62,-129"/>
<text text-anchor="middle" x="313.62" y="-136" font-family="Helvetica,sans-Serif" font-size="10.00">algorithm</text>
</a>
</g>
</g>
<!-- Node9&#45;&gt;Node19 -->
<g id="edge22" class="edge">
<title>Node9&#45;&gt;Node19</title>
<path fill="none" stroke="midnightblue" d="M649,-195.94C582.81,-190.91 458.12,-178.84 354.62,-154 351.39,-153.22 348.06,-152.29 344.76,-151.27"/>
<polygon fill="midnightblue" stroke="midnightblue" points="345.66,-147.88 335.07,-148.03 343.45,-154.52 345.66,-147.88"/>
</g>
<!-- Node20 -->
<g id="node20" class="node">
<title>Node20</title>
<g id="a_node20"><a xlink:title=" ">
<polygon fill="none" stroke="#bfbfbf" points="364.12,-129 364.12,-148 429.12,-148 429.12,-129 364.12,-129"/>
<text text-anchor="middle" x="396.62" y="-136" font-family="Helvetica,sans-Serif" font-size="10.00">functional</text>
</a>
</g>
</g>
<!-- Node9&#45;&gt;Node20 -->
<g id="edge26" class="edge">
<title>Node9&#45;&gt;Node20</title>
<path fill="none" stroke="midnightblue" d="M648.98,-193.26C596.91,-186.29 510.41,-173.08 437.62,-154 434.58,-153.2 431.44,-152.28 428.32,-151.3"/>
<polygon fill="midnightblue" stroke="midnightblue" points="429.13,-147.88 418.54,-148.01 426.9,-154.51 429.13,-147.88"/>
</g>
<!-- Node21 -->
<g id="node21" class="node">
<title>Node21</title>
<g id="a_node21"><a xlink:title=" ">
<polygon fill="none" stroke="#bfbfbf" points="447.12,-129 447.12,-148 530.12,-148 530.12,-129 447.12,-129"/>
<text text-anchor="middle" x="488.62" y="-136" font-family="Helvetica,sans-Serif" font-size="10.00">initializer_list</text>
</a>
</g>
</g>
<!-- Node9&#45;&gt;Node21 -->
<g id="edge27" class="edge">
<title>Node9&#45;&gt;Node21</title>
<path fill="none" stroke="midnightblue" d="M665.96,-190.48C629.69,-180.05 568.16,-162.36 527.96,-150.81"/>
<polygon fill="midnightblue" stroke="midnightblue" points="528.8,-147.41 518.22,-148.01 526.87,-154.14 528.8,-147.41"/>
</g>
<!-- Node22 -->
<g id="node22" class="node">
<title>Node22</title>
<g id="a_node22"><a xlink:title=" ">
<polygon fill="none" stroke="#bfbfbf" points="548.62,-129 548.62,-148 604.62,-148 604.62,-129 548.62,-129"/>
<text text-anchor="middle" x="576.62" y="-136" font-family="Helvetica,sans-Serif" font-size="10.00">numeric</text>
</a>
</g>
</g>
<!-- Node9&#45;&gt;Node22 -->
<g id="edge29" class="edge">
<title>Node9&#45;&gt;Node22</title>
<path fill="none" stroke="midnightblue" d="M678.57,-190.48C658.78,-180.58 625.9,-164.14 602.85,-152.62"/>
<polygon fill="midnightblue" stroke="midnightblue" points="604.15,-149.35 593.64,-148.01 601.02,-155.61 604.15,-149.35"/>
</g>
<!-- Node23 -->
<g id="node23" class="node">
<title>Node23</title>
<g id="a_node23"><a xlink:title=" ">
<polygon fill="none" stroke="#bfbfbf" points="623.12,-129 623.12,-148 692.12,-148 692.12,-129 623.12,-129"/>
<text text-anchor="middle" x="657.62" y="-136" font-family="Helvetica,sans-Serif" font-size="10.00">type_traits</text>
</a>
</g>
</g>
<!-- Node9&#45;&gt;Node23 -->
<g id="edge30" class="edge">
<title>Node9&#45;&gt;Node23</title>
<path fill="none" stroke="midnightblue" d="M690.18,-190.48C684.53,-181.64 675.56,-167.59 668.46,-156.48"/>
<polygon fill="midnightblue" stroke="midnightblue" points="671.39,-154.55 663.05,-148.01 665.49,-158.32 671.39,-154.55"/>
</g>
<!-- Node24 -->
<g id="node24" class="node">
<title>Node24</title>
<g id="a_node24"><a xlink:title=" ">
<polygon fill="none" stroke="#bfbfbf" points="710.12,-129 710.12,-148 757.12,-148 757.12,-129 710.12,-129"/>
<text text-anchor="middle" x="733.62" y="-136" font-family="Helvetica,sans-Serif" font-size="10.00">vector</text>
</a>
</g>
</g>
<!-- Node9&#45;&gt;Node24 -->
<g id="edge31" class="edge">
<title>Node9&#45;&gt;Node24</title>
<path fill="none" stroke="midnightblue" d="M701.06,-190.48C706.71,-181.64 715.68,-167.59 722.78,-156.48"/>
<polygon fill="midnightblue" stroke="midnightblue" points="725.75,-158.32 728.19,-148.01 719.85,-154.55 725.75,-158.32"/>
</g>
<!-- Node12&#45;&gt;Node2 -->
<g id="edge21" class="edge">
<title>Node12&#45;&gt;Node2</title>
<path fill="none" stroke="midnightblue" d="M1154.44,-128.97C1146.76,-126.83 1138.41,-124.67 1130.62,-123 1026.45,-100.65 997.48,-110.77 893.62,-87 889.7,-86.1 885.64,-85.05 881.62,-83.92"/>
<polygon fill="midnightblue" stroke="midnightblue" points="882.38,-80.5 871.8,-81.02 880.4,-87.21 882.38,-80.5"/>
</g>
<!-- Node12&#45;&gt;Node5 -->
<g id="edge12" class="edge">
<title>Node12&#45;&gt;Node5</title>
<path fill="none" stroke="midnightblue" d="M1155.86,-128.96C1147.82,-126.69 1138.93,-124.46 1130.62,-123 1021.36,-103.78 701.52,-84.83 550.87,-76.67"/>
<polygon fill="midnightblue" stroke="midnightblue" points="550.93,-73.17 540.75,-76.13 550.55,-80.16 550.93,-73.17"/>
</g>
<!-- Node12&#45;&gt;Node6 -->
<g id="edge17" class="edge">
<title>Node12&#45;&gt;Node6</title>
<path fill="none" stroke="midnightblue" d="M1153.87,-128.94C1146.34,-126.85 1138.21,-124.72 1130.62,-123 1040.84,-102.61 1010.57,-124.81 926.62,-87 906.43,-77.91 906.57,-67.45 887.62,-56 865.84,-42.84 839.52,-31.33 819.08,-23.24"/>
<polygon fill="midnightblue" stroke="midnightblue" points="820.15,-19.9 809.56,-19.55 817.62,-26.43 820.15,-19.9"/>
</g>
<!-- Node13 -->
<g id="node13" class="node">
<title>Node13</title>
<g id="a_node13"><a xlink:href="get_8hpp.html" target="_top" xlink:title=" ">
<polygon fill="none" stroke="black" points="936.12,-62 936.12,-81 989.12,-81 989.12,-62 936.12,-62"/>
<text text-anchor="middle" x="962.62" y="-69" font-family="Helvetica,sans-Serif" font-size="10.00">get.hpp</text>
</a>
</g>
</g>
<!-- Node12&#45;&gt;Node13 -->
<g id="edge13" class="edge">
<title>Node12&#45;&gt;Node13</title>
<path fill="none" stroke="midnightblue" d="M1152.11,-128.95C1145.06,-126.99 1137.58,-124.91 1130.62,-123 1071.57,-106.78 1055.58,-106.76 997.62,-87 995.71,-86.35 993.75,-85.64 991.78,-84.91"/>
<polygon fill="midnightblue" stroke="midnightblue" points="992.66,-81.49 982.07,-81.08 990.09,-88 992.66,-81.49"/>
</g>
<!-- Node12&#45;&gt;Node14 -->
<g id="edge18" class="edge">
<title>Node12&#45;&gt;Node14</title>
<path fill="none" stroke="midnightblue" d="M1188.05,-128.76C1197.51,-113.65 1217.82,-81.78 1236.62,-56 1243.62,-46.4 1251.87,-36.02 1258.71,-27.66"/>
<polygon fill="midnightblue" stroke="midnightblue" points="1261.54,-29.72 1265.21,-19.78 1256.14,-25.27 1261.54,-29.72"/>
</g>
<!-- Node16 -->
<g id="node16" class="node">
<title>Node16</title>
<g id="a_node16"><a xlink:title=" ">
<polygon fill="none" stroke="#bfbfbf" points="1007.12,-56.5 1007.12,-86.5 1114.12,-86.5 1114.12,-56.5 1007.12,-56.5"/>
<text text-anchor="start" x="1015.12" y="-74.5" font-family="Helvetica,sans-Serif" font-size="10.00">boost/serialization</text>
<text text-anchor="middle" x="1060.62" y="-63.5" font-family="Helvetica,sans-Serif" font-size="10.00">/access.hpp</text>
</a>
</g>
</g>
<!-- Node12&#45;&gt;Node16 -->
<g id="edge16" class="edge">
<title>Node12&#45;&gt;Node16</title>
<path fill="none" stroke="midnightblue" d="M1166.42,-128.87C1148.57,-119.36 1119.3,-103.77 1096.07,-91.39"/>
<polygon fill="midnightblue" stroke="midnightblue" points="1097.65,-88.26 1087.18,-86.65 1094.36,-94.44 1097.65,-88.26"/>
</g>
<!-- Node12&#45;&gt;Node17 -->
<g id="edge19" class="edge">
<title>Node12&#45;&gt;Node17</title>
<path fill="none" stroke="midnightblue" d="M1194.76,-128.73C1209.47,-118.11 1234.48,-100.05 1252.18,-87.26"/>
<polygon fill="midnightblue" stroke="midnightblue" points="1254.62,-89.82 1260.67,-81.13 1250.52,-84.14 1254.62,-89.82"/>
</g>
<!-- Node18 -->
<g id="node18" class="node">
<title>Node18</title>
<g id="a_node18"><a xlink:title=" ">
<polygon fill="none" stroke="#bfbfbf" points="1132.12,-62 1132.12,-81 1189.12,-81 1189.12,-62 1132.12,-62"/>
<text text-anchor="middle" x="1160.62" y="-69" font-family="Helvetica,sans-Serif" font-size="10.00">ostream</text>
</a>
</g>
</g>
<!-- Node12&#45;&gt;Node18 -->
<g id="edge20" class="edge">
<title>Node12&#45;&gt;Node18</title>
<path fill="none" stroke="midnightblue" d="M1179.65,-128.73C1176.39,-119.09 1171.04,-103.3 1166.85,-90.91"/>
<polygon fill="midnightblue" stroke="midnightblue" points="1170.06,-89.48 1163.54,-81.13 1163.43,-91.72 1170.06,-89.48"/>
</g>
<!-- Node13&#45;&gt;Node14 -->
<g id="edge14" class="edge">
<title>Node13&#45;&gt;Node14</title>
<path fill="none" stroke="midnightblue" d="M981.23,-61.86C986.44,-59.69 992.18,-57.55 997.62,-56 1081.15,-32.21 1182.77,-19.65 1236.03,-14.28"/>
<polygon fill="midnightblue" stroke="midnightblue" points="1236.4,-17.76 1246.01,-13.3 1235.72,-10.79 1236.4,-17.76"/>
</g>
<!-- Node15 -->
<g id="node15" class="node">
<title>Node15</title>
<g id="a_node15"><a xlink:title=" ">
<polygon fill="none" stroke="#bfbfbf" points="942.12,-0.5 942.12,-19.5 983.12,-19.5 983.12,-0.5 942.12,-0.5"/>
<text text-anchor="middle" x="962.62" y="-7.5" font-family="Helvetica,sans-Serif" font-size="10.00">tuple</text>
</a>
</g>
</g>
<!-- Node13&#45;&gt;Node15 -->
<g id="edge15" class="edge">
<title>Node13&#45;&gt;Node15</title>
<path fill="none" stroke="midnightblue" d="M962.62,-61.98C962.62,-53.58 962.62,-40.48 962.62,-29.66"/>
<polygon fill="midnightblue" stroke="midnightblue" points="966.12,-29.51 962.62,-19.51 959.12,-29.51 966.12,-29.51"/>
</g>
<!-- Node25&#45;&gt;Node5 -->
<g id="edge33" class="edge">
<title>Node25&#45;&gt;Node5</title>
<path fill="none" stroke="midnightblue" d="M253.13,-190.35C252.74,-174.66 254.29,-141.41 272.62,-123 290.59,-104.95 350.7,-91.26 400.03,-82.71"/>
<polygon fill="midnightblue" stroke="midnightblue" points="400.77,-86.14 410.05,-81.02 399.61,-79.24 400.77,-86.14"/>
</g>
<!-- Node26 -->
<g id="node26" class="node">
<title>Node26</title>
<g id="a_node26"><a xlink:title=" ">
<polygon fill="none" stroke="#bfbfbf" points="103.62,-123.5 103.62,-153.5 225.62,-153.5 225.62,-123.5 103.62,-123.5"/>
<text text-anchor="start" x="111.62" y="-141.5" font-family="Helvetica,sans-Serif" font-size="10.00">boost/math/constants</text>
<text text-anchor="middle" x="164.62" y="-130.5" font-family="Helvetica,sans-Serif" font-size="10.00">/constants.hpp</text>
</a>
</g>
</g>
<!-- Node25&#45;&gt;Node26 -->
<g id="edge34" class="edge">
<title>Node25&#45;&gt;Node26</title>
<path fill="none" stroke="midnightblue" d="M240.87,-190.48C228.7,-182.34 209.93,-169.79 194.06,-159.18"/>
<polygon fill="midnightblue" stroke="midnightblue" points="195.85,-156.17 185.6,-153.52 191.96,-161.99 195.85,-156.17"/>
</g>
</g>
</svg>
