<?xml version="1.0" encoding="UTF-8" standalone="no"?>
<!DOCTYPE svg PUBLIC "-//W3C//DTD SVG 1.1//EN"
 "http://www.w3.org/Graphics/SVG/1.1/DTD/svg11.dtd">
<!-- Generated by graphviz version 2.43.0 (0)
 -->
<!-- Title: dipole_inline.hpp Pages: 1 -->
<svg width="629pt" height="364pt"
 viewBox="0.00 0.00 629.00 364.00" xmlns="http://www.w3.org/2000/svg" xmlns:xlink="http://www.w3.org/1999/xlink">
<g id="graph0" class="graph" transform="scale(1 1) rotate(0) translate(4 360)">
<title>dipole_inline.hpp</title>
<!-- Node1 -->
<g id="node1" class="node">
<title>Node1</title>
<g id="a_node1"><a xlink:title=" ">
<polygon fill="#bfbfbf" stroke="black" points="274,-336.5 274,-355.5 374,-355.5 374,-336.5 274,-336.5"/>
<text text-anchor="middle" x="324" y="-343.5" font-family="Helvetica,sans-Serif" font-size="10.00">dipole_inline.hpp</text>
</a>
</g>
</g>
<!-- Node2 -->
<g id="node2" class="node">
<title>Node2</title>
<g id="a_node2"><a xlink:href="energy__inline_8hpp.html" target="_top" xlink:title=" ">
<polygon fill="none" stroke="black" points="212,-280.5 212,-299.5 316,-299.5 316,-280.5 212,-280.5"/>
<text text-anchor="middle" x="264" y="-287.5" font-family="Helvetica,sans-Serif" font-size="10.00">energy_inline.hpp</text>
</a>
</g>
</g>
<!-- Node1&#45;&gt;Node2 -->
<g id="edge1" class="edge">
<title>Node1&#45;&gt;Node2</title>
<path fill="none" stroke="midnightblue" d="M306.82,-329.54C296.12,-319.91 282.74,-307.87 273.82,-299.83"/>
<polygon fill="midnightblue" stroke="midnightblue" points="304.59,-332.24 314.36,-336.32 309.27,-327.03 304.59,-332.24"/>
</g>
<!-- Node12 -->
<g id="node12" class="node">
<title>Node12</title>
<g id="a_node12"><a xlink:href="forces__inline_8hpp.html" target="_top" xlink:title=" ">
<polygon fill="none" stroke="black" points="344,-280.5 344,-299.5 444,-299.5 444,-280.5 344,-280.5"/>
<text text-anchor="middle" x="394" y="-287.5" font-family="Helvetica,sans-Serif" font-size="10.00">forces_inline.hpp</text>
</a>
</g>
</g>
<!-- Node1&#45;&gt;Node12 -->
<g id="edge12" class="edge">
<title>Node1&#45;&gt;Node12</title>
<path fill="none" stroke="midnightblue" d="M343.31,-330.1C355.91,-320.38 371.93,-308.03 382.55,-299.83"/>
<polygon fill="midnightblue" stroke="midnightblue" points="341.03,-327.44 335.25,-336.32 345.3,-332.99 341.03,-327.44"/>
</g>
<!-- Node3 -->
<g id="node3" class="node">
<title>Node3</title>
<g id="a_node3"><a xlink:href="ShapeBasedConstraint_8cpp.html" target="_top" xlink:title=" ">
<polygon fill="none" stroke="black" points="258.5,-224.5 258.5,-243.5 405.5,-243.5 405.5,-224.5 258.5,-224.5"/>
<text text-anchor="middle" x="332" y="-231.5" font-family="Helvetica,sans-Serif" font-size="10.00">ShapeBasedConstraint.cpp</text>
</a>
</g>
</g>
<!-- Node2&#45;&gt;Node3 -->
<g id="edge2" class="edge">
<title>Node2&#45;&gt;Node3</title>
<path fill="none" stroke="midnightblue" d="M282.76,-274.1C295,-264.38 310.56,-252.03 320.88,-243.83"/>
<polygon fill="midnightblue" stroke="midnightblue" points="280.58,-271.36 274.93,-280.32 284.93,-276.85 280.58,-271.36"/>
</g>
<!-- Node4 -->
<g id="node4" class="node">
<title>Node4</title>
<g id="a_node4"><a xlink:href="energy_8cpp.html" target="_top" xlink:title=" ">
<polygon fill="none" stroke="black" points="56.5,-224.5 56.5,-243.5 125.5,-243.5 125.5,-224.5 56.5,-224.5"/>
<text text-anchor="middle" x="91" y="-231.5" font-family="Helvetica,sans-Serif" font-size="10.00">energy.cpp</text>
</a>
</g>
</g>
<!-- Node2&#45;&gt;Node4 -->
<g id="edge3" class="edge">
<title>Node2&#45;&gt;Node4</title>
<path fill="none" stroke="midnightblue" d="M226.95,-277.44C194.34,-267.26 147.59,-252.66 118.28,-243.52"/>
<polygon fill="midnightblue" stroke="midnightblue" points="226,-280.8 236.59,-280.44 228.08,-274.12 226,-280.8"/>
</g>
<!-- Node5 -->
<g id="node5" class="node">
<title>Node5</title>
<g id="a_node5"><a xlink:href="core_2pair__criteria_2pair__criteria_8hpp.html" target="_top" xlink:title=" ">
<polygon fill="none" stroke="black" points="144,-224.5 144,-243.5 240,-243.5 240,-224.5 144,-224.5"/>
<text text-anchor="middle" x="192" y="-231.5" font-family="Helvetica,sans-Serif" font-size="10.00">pair_criteria.hpp</text>
</a>
</g>
</g>
<!-- Node2&#45;&gt;Node5 -->
<g id="edge4" class="edge">
<title>Node2&#45;&gt;Node5</title>
<path fill="none" stroke="midnightblue" d="M244.13,-274.1C231.18,-264.38 214.7,-252.03 203.78,-243.83"/>
<polygon fill="midnightblue" stroke="midnightblue" points="242.33,-277.12 252.43,-280.32 246.53,-271.52 242.33,-277.12"/>
</g>
<!-- Node6 -->
<g id="node6" class="node">
<title>Node6</title>
<g id="a_node6"><a xlink:href="script__interface_2pair__criteria_2pair__criteria_8hpp.html" target="_top" xlink:title=" ">
<polygon fill="none" stroke="black" points="144,-168.5 144,-187.5 240,-187.5 240,-168.5 144,-168.5"/>
<text text-anchor="middle" x="192" y="-175.5" font-family="Helvetica,sans-Serif" font-size="10.00">pair_criteria.hpp</text>
</a>
</g>
</g>
<!-- Node5&#45;&gt;Node6 -->
<g id="edge5" class="edge">
<title>Node5&#45;&gt;Node6</title>
<path fill="none" stroke="midnightblue" d="M192,-213.8C192,-204.91 192,-194.78 192,-187.75"/>
<polygon fill="midnightblue" stroke="midnightblue" points="188.5,-214.08 192,-224.08 195.5,-214.08 188.5,-214.08"/>
</g>
<!-- Node7 -->
<g id="node7" class="node">
<title>Node7</title>
<g id="a_node7"><a xlink:href="core_2cluster__analysis_2ClusterStructure_8hpp.html" target="_top" xlink:title=" ">
<polygon fill="none" stroke="black" points="48,-112.5 48,-131.5 164,-131.5 164,-112.5 48,-112.5"/>
<text text-anchor="middle" x="106" y="-119.5" font-family="Helvetica,sans-Serif" font-size="10.00">ClusterStructure.hpp</text>
</a>
</g>
</g>
<!-- Node6&#45;&gt;Node7 -->
<g id="edge6" class="edge">
<title>Node6&#45;&gt;Node7</title>
<path fill="none" stroke="midnightblue" d="M169.55,-162.9C153.78,-153 133.19,-140.07 119.78,-131.65"/>
<polygon fill="midnightblue" stroke="midnightblue" points="167.85,-165.97 178.18,-168.32 171.57,-160.04 167.85,-165.97"/>
</g>
<!-- Node9 -->
<g id="node9" class="node">
<title>Node9</title>
<g id="a_node9"><a xlink:href="script__interface_2cluster__analysis_2ClusterStructure_8hpp.html" target="_top" xlink:title=" ">
<polygon fill="none" stroke="black" points="134,-56.5 134,-75.5 250,-75.5 250,-56.5 134,-56.5"/>
<text text-anchor="middle" x="192" y="-63.5" font-family="Helvetica,sans-Serif" font-size="10.00">ClusterStructure.hpp</text>
</a>
</g>
</g>
<!-- Node6&#45;&gt;Node9 -->
<g id="edge10" class="edge">
<title>Node6&#45;&gt;Node9</title>
<path fill="none" stroke="midnightblue" d="M192,-158.35C192,-134.25 192,-93.31 192,-75.59"/>
<polygon fill="midnightblue" stroke="midnightblue" points="188.5,-158.37 192,-168.37 195.5,-158.37 188.5,-158.37"/>
</g>
<!-- Node11 -->
<g id="node11" class="node">
<title>Node11</title>
<g id="a_node11"><a xlink:href="pair__criteria_2initialize_8cpp.html" target="_top" xlink:title=" ">
<polygon fill="none" stroke="black" points="220.5,-112.5 220.5,-131.5 299.5,-131.5 299.5,-112.5 220.5,-112.5"/>
<text text-anchor="middle" x="260" y="-119.5" font-family="Helvetica,sans-Serif" font-size="10.00">initialize.cpp</text>
</a>
</g>
</g>
<!-- Node6&#45;&gt;Node11 -->
<g id="edge11" class="edge">
<title>Node6&#45;&gt;Node11</title>
<path fill="none" stroke="midnightblue" d="M210.76,-162.1C223,-152.38 238.56,-140.03 248.88,-131.83"/>
<polygon fill="midnightblue" stroke="midnightblue" points="208.58,-159.36 202.93,-168.32 212.93,-164.85 208.58,-159.36"/>
</g>
<!-- Node8 -->
<g id="node8" class="node">
<title>Node8</title>
<g id="a_node8"><a xlink:href="ClusterStructure_8cpp.html" target="_top" xlink:title=" ">
<polygon fill="none" stroke="black" points="0,-56.5 0,-75.5 116,-75.5 116,-56.5 0,-56.5"/>
<text text-anchor="middle" x="58" y="-63.5" font-family="Helvetica,sans-Serif" font-size="10.00">ClusterStructure.cpp</text>
</a>
</g>
</g>
<!-- Node7&#45;&gt;Node8 -->
<g id="edge7" class="edge">
<title>Node7&#45;&gt;Node8</title>
<path fill="none" stroke="midnightblue" d="M91.27,-104.43C82.86,-94.97 72.65,-83.48 65.78,-75.75"/>
<polygon fill="midnightblue" stroke="midnightblue" points="88.81,-106.93 98.07,-112.08 94.05,-102.28 88.81,-106.93"/>
</g>
<!-- Node7&#45;&gt;Node9 -->
<g id="edge8" class="edge">
<title>Node7&#45;&gt;Node9</title>
<path fill="none" stroke="midnightblue" d="M128.45,-106.9C144.22,-97 164.81,-84.07 178.22,-75.65"/>
<polygon fill="midnightblue" stroke="midnightblue" points="126.43,-104.04 119.82,-112.32 130.15,-109.97 126.43,-104.04"/>
</g>
<!-- Node10 -->
<g id="node10" class="node">
<title>Node10</title>
<g id="a_node10"><a xlink:href="cluster__analysis_2initialize_8cpp.html" target="_top" xlink:title=" ">
<polygon fill="none" stroke="black" points="152.5,-0.5 152.5,-19.5 231.5,-19.5 231.5,-0.5 152.5,-0.5"/>
<text text-anchor="middle" x="192" y="-7.5" font-family="Helvetica,sans-Serif" font-size="10.00">initialize.cpp</text>
</a>
</g>
</g>
<!-- Node9&#45;&gt;Node10 -->
<g id="edge9" class="edge">
<title>Node9&#45;&gt;Node10</title>
<path fill="none" stroke="midnightblue" d="M192,-45.8C192,-36.91 192,-26.78 192,-19.75"/>
<polygon fill="midnightblue" stroke="midnightblue" points="188.5,-46.08 192,-56.08 195.5,-46.08 188.5,-46.08"/>
</g>
<!-- Node12&#45;&gt;Node3 -->
<g id="edge13" class="edge">
<title>Node12&#45;&gt;Node3</title>
<path fill="none" stroke="midnightblue" d="M376.25,-273.54C365.19,-263.91 351.37,-251.87 342.14,-243.83"/>
<polygon fill="midnightblue" stroke="midnightblue" points="374.2,-276.4 384.04,-280.32 378.8,-271.12 374.2,-276.4"/>
</g>
<!-- Node13 -->
<g id="node13" class="node">
<title>Node13</title>
<g id="a_node13"><a xlink:href="forces_8cpp.html" target="_top" xlink:title=" ">
<polygon fill="none" stroke="black" points="423.5,-224.5 423.5,-243.5 490.5,-243.5 490.5,-224.5 423.5,-224.5"/>
<text text-anchor="middle" x="457" y="-231.5" font-family="Helvetica,sans-Serif" font-size="10.00">forces.cpp</text>
</a>
</g>
</g>
<!-- Node12&#45;&gt;Node13 -->
<g id="edge14" class="edge">
<title>Node12&#45;&gt;Node13</title>
<path fill="none" stroke="midnightblue" d="M412.04,-273.54C423.27,-263.91 437.32,-251.87 446.69,-243.83"/>
<polygon fill="midnightblue" stroke="midnightblue" points="409.44,-271.16 404.12,-280.32 413.99,-276.47 409.44,-271.16"/>
</g>
<!-- Node14 -->
<g id="node14" class="node">
<title>Node14</title>
<g id="a_node14"><a xlink:href="pressure__inline_8hpp.html" target="_top" xlink:title=" ">
<polygon fill="none" stroke="black" points="509,-224.5 509,-243.5 621,-243.5 621,-224.5 509,-224.5"/>
<text text-anchor="middle" x="565" y="-231.5" font-family="Helvetica,sans-Serif" font-size="10.00">pressure_inline.hpp</text>
</a>
</g>
</g>
<!-- Node12&#45;&gt;Node14 -->
<g id="edge15" class="edge">
<title>Node12&#45;&gt;Node14</title>
<path fill="none" stroke="midnightblue" d="M431.04,-277.3C463.26,-267.13 509.19,-252.62 538.03,-243.52"/>
<polygon fill="midnightblue" stroke="midnightblue" points="429.58,-274.09 421.1,-280.44 431.69,-280.77 429.58,-274.09"/>
</g>
<!-- Node15 -->
<g id="node15" class="node">
<title>Node15</title>
<g id="a_node15"><a xlink:href="pressure_8cpp.html" target="_top" xlink:title=" ">
<polygon fill="none" stroke="black" points="525.5,-168.5 525.5,-187.5 604.5,-187.5 604.5,-168.5 525.5,-168.5"/>
<text text-anchor="middle" x="565" y="-175.5" font-family="Helvetica,sans-Serif" font-size="10.00">pressure.cpp</text>
</a>
</g>
</g>
<!-- Node14&#45;&gt;Node15 -->
<g id="edge16" class="edge">
<title>Node14&#45;&gt;Node15</title>
<path fill="none" stroke="midnightblue" d="M565,-213.8C565,-204.91 565,-194.78 565,-187.75"/>
<polygon fill="midnightblue" stroke="midnightblue" points="561.5,-214.08 565,-224.08 568.5,-214.08 561.5,-214.08"/>
</g>
</g>
</svg>
