<?xml version="1.0" encoding="UTF-8" standalone="no"?>
<!DOCTYPE svg PUBLIC "-//W3C//DTD SVG 1.1//EN"
 "http://www.w3.org/Graphics/SVG/1.1/DTD/svg11.dtd">
<!-- Generated by graphviz version 2.43.0 (0)
 -->
<!-- Title: DipolarBarnesHut_cuda.cuh Pages: 1 -->
<svg width="352pt" height="140pt"
 viewBox="0.00 0.00 351.50 140.00" xmlns="http://www.w3.org/2000/svg" xmlns:xlink="http://www.w3.org/1999/xlink">
<g id="graph0" class="graph" transform="scale(1 1) rotate(0) translate(4 136)">
<title>DipolarBarnesHut_cuda.cuh</title>
<!-- Node1 -->
<g id="node1" class="node">
<title>Node1</title>
<g id="a_node1"><a xlink:title=" ">
<polygon fill="#bfbfbf" stroke="black" points="117.5,-112.5 117.5,-131.5 269.5,-131.5 269.5,-112.5 117.5,-112.5"/>
<text text-anchor="middle" x="193.5" y="-119.5" font-family="Helvetica,sans-Serif" font-size="10.00">DipolarBarnesHut_cuda.cuh</text>
</a>
</g>
</g>
<!-- Node2 -->
<g id="node2" class="node">
<title>Node2</title>
<g id="a_node2"><a xlink:href="DipolarBarnesHut_8hpp.html" target="_top" xlink:title=" ">
<polygon fill="none" stroke="black" points="55.5,-56.5 55.5,-75.5 179.5,-75.5 179.5,-56.5 55.5,-56.5"/>
<text text-anchor="middle" x="117.5" y="-63.5" font-family="Helvetica,sans-Serif" font-size="10.00">DipolarBarnesHut.hpp</text>
</a>
</g>
</g>
<!-- Node1&#45;&gt;Node2 -->
<g id="edge1" class="edge">
<title>Node1&#45;&gt;Node2</title>
<path fill="none" stroke="midnightblue" d="M172.92,-106.38C159.19,-96.62 141.57,-84.11 129.93,-75.83"/>
<polygon fill="midnightblue" stroke="midnightblue" points="171.11,-109.38 181.29,-112.32 175.16,-103.68 171.11,-109.38"/>
</g>
<!-- Node5 -->
<g id="node5" class="node">
<title>Node5</title>
<g id="a_node5"><a xlink:href="DipolarBarnesHut__cuda_8cu.html" target="_top" xlink:title=" ">
<polygon fill="none" stroke="black" points="197.5,-56.5 197.5,-75.5 343.5,-75.5 343.5,-56.5 197.5,-56.5"/>
<text text-anchor="middle" x="270.5" y="-63.5" font-family="Helvetica,sans-Serif" font-size="10.00">DipolarBarnesHut_cuda.cu</text>
</a>
</g>
</g>
<!-- Node1&#45;&gt;Node5 -->
<g id="edge4" class="edge">
<title>Node1&#45;&gt;Node5</title>
<path fill="none" stroke="midnightblue" d="M214.4,-106.34C228.41,-96.52 246.38,-83.91 258.16,-75.65"/>
<polygon fill="midnightblue" stroke="midnightblue" points="212.05,-103.72 205.87,-112.32 216.07,-109.45 212.05,-103.72"/>
</g>
<!-- Node3 -->
<g id="node3" class="node">
<title>Node3</title>
<g id="a_node3"><a xlink:href="DipolarBarnesHut_8cpp.html" target="_top" xlink:title=" ">
<polygon fill="none" stroke="black" points="0,-0.5 0,-19.5 123,-19.5 123,-0.5 0,-0.5"/>
<text text-anchor="middle" x="61.5" y="-7.5" font-family="Helvetica,sans-Serif" font-size="10.00">DipolarBarnesHut.cpp</text>
</a>
</g>
</g>
<!-- Node2&#45;&gt;Node3 -->
<g id="edge2" class="edge">
<title>Node2&#45;&gt;Node3</title>
<path fill="none" stroke="midnightblue" d="M101.17,-49.25C91.24,-39.67 78.91,-27.79 70.66,-19.83"/>
<polygon fill="midnightblue" stroke="midnightblue" points="98.87,-51.9 108.5,-56.32 103.73,-46.86 98.87,-51.9"/>
</g>
<!-- Node4 -->
<g id="node4" class="node">
<title>Node4</title>
<g id="a_node4"><a xlink:href="dipole_8cpp.html" target="_top" xlink:title=" ">
<polygon fill="none" stroke="black" points="141,-0.5 141,-19.5 208,-19.5 208,-0.5 141,-0.5"/>
<text text-anchor="middle" x="174.5" y="-7.5" font-family="Helvetica,sans-Serif" font-size="10.00">dipole.cpp</text>
</a>
</g>
</g>
<!-- Node2&#45;&gt;Node4 -->
<g id="edge3" class="edge">
<title>Node2&#45;&gt;Node4</title>
<path fill="none" stroke="midnightblue" d="M134.12,-49.25C144.23,-39.67 156.78,-27.79 165.18,-19.83"/>
<polygon fill="midnightblue" stroke="midnightblue" points="131.51,-46.91 126.66,-56.32 136.32,-51.99 131.51,-46.91"/>
</g>
</g>
</svg>
