<?xml version="1.0" encoding="UTF-8" standalone="no"?>
<!DOCTYPE svg PUBLIC "-//W3C//DTD SVG 1.1//EN"
 "http://www.w3.org/Graphics/SVG/1.1/DTD/svg11.dtd">
<!-- Generated by graphviz version 2.43.0 (0)
 -->
<!-- Title: script_interface Pages: 1 -->
<!--zoomable 375 -->
<svg id="main" version="1.1" xmlns="http://www.w3.org/2000/svg" xmlns:xlink="http://www.w3.org/1999/xlink" xml:space="preserve" onload="init(evt)">
<style type="text/css"><![CDATA[
.edge:hover path { stroke: red; }
.edge:hover polygon { stroke: red; fill: red; }
]]></style>
<script type="text/javascript"><![CDATA[
var edges = document.getElementsByTagName('g');
if (edges && edges.length) {
  for (var i=0;i<edges.length;i++) {
    if (edges[i].id.substr(0,4)=='edge') {
      edges[i].setAttribute('class','edge');
    }
  }
}
]]></script>
        <defs>
                <circle id="rim" cx="0" cy="0" r="7"/>
                <circle id="rim2" cx="0" cy="0" r="3.5"/>
                <g id="zoomPlus">
                        <use xlink:href="#rim" fill="#404040">
                                <set attributeName="fill" to="#808080" begin="zoomplus.mouseover" end="zoomplus.mouseout"/>
                        </use>
                        <path d="M-4,0h8M0,-4v8" fill="none" stroke="white" stroke-width="1.5" pointer-events="none"/>
                </g>
                <g id="zoomMin">
                        <use xlink:href="#rim" fill="#404040">
                                <set attributeName="fill" to="#808080" begin="zoomminus.mouseover" end="zoomminus.mouseout"/>
                        </use>
                        <path d="M-4,0h8" fill="none" stroke="white" stroke-width="1.5" pointer-events="none"/>
                </g>
                <g id="dirArrow">
                        <path fill="none" stroke="white" stroke-width="1.5" d="M0,-3.0v7 M-2.5,-0.5L0,-3.0L2.5,-0.5"/>
                </g>
               <g id="resetDef">
                       <use xlink:href="#rim2" fill="#404040">
                               <set attributeName="fill" to="#808080" begin="reset.mouseover" end="reset.mouseout"/>
                       </use>
               </g>
        </defs>

<script type="text/javascript">
var viewWidth = 1007;
var viewHeight = 375;
var sectionId = 'dynsection-0';
</script>
<script xlink:href="svgpan.js"/>
<svg id="graph" class="graph">
<g id="viewport">
<title>script_interface</title>
<g id="clust1" class="cluster">
<title>clusterdir_68267d1309a1af8e8297ef4c3efbcdba</title>
<g id="a_clust1"><a xlink:href="dir_68267d1309a1af8e8297ef4c3efbcdba.html" target="_top" xlink:title="src">
<polygon fill="#ddddee" stroke="black" points="151.6,-56 151.6,-359 754.6,-359 754.6,-56 151.6,-56"/>
<text text-anchor="middle" x="453.1" y="-347" font-family="Helvetica,sans-Serif" font-size="10.00">src</text>
</a>
</g>
</g>
<g id="clust2" class="cluster">
<title>clusterdir_37b4caba3cb16b71e38642388211d0d2</title>
<g id="a_clust2"><a xlink:href="dir_37b4caba3cb16b71e38642388211d0d2.html" target="_top">
<polygon fill="#eeeeff" stroke="black" points="159.6,-64 159.6,-332 746.6,-332 746.6,-64 159.6,-64"/>
</a>
</g>
</g>
<!-- dir_37b4caba3cb16b71e38642388211d0d2 -->
<g id="node1" class="node">
<title>dir_37b4caba3cb16b71e38642388211d0d2</title>
<text text-anchor="middle" x="479.6" y="-303.5" font-family="Helvetica,sans-Serif" font-size="10.00">script_interface</text>
</g>
<!-- dir_93e1f60725b5e498a7be0ae0301e09d6 -->
<g id="node2" class="node">
<title>dir_93e1f60725b5e498a7be0ae0301e09d6</title>
<g id="a_node2"><a xlink:href="dir_93e1f60725b5e498a7be0ae0301e09d6.html" target="_top" xlink:title="accumulators">
<polygon fill="white" stroke="black" points="361.1,-252 278.1,-252 278.1,-216 361.1,-216 361.1,-252"/>
<text text-anchor="middle" x="319.6" y="-231.5" font-family="Helvetica,sans-Serif" font-size="10.00">accumulators</text>
</a>
</g>
</g>
<!-- dir_37b4caba3cb16b71e38642388211d0d2&#45;&gt;dir_93e1f60725b5e498a7be0ae0301e09d6 -->
<g id="edge22" class="edge">
<title>dir_37b4caba3cb16b71e38642388211d0d2&#45;&gt;dir_93e1f60725b5e498a7be0ae0301e09d6</title>
<path fill="none" stroke="black" d="M440.46,-287.88C418.58,-278.31 391.14,-266.3 367.93,-256.15"/>
<polygon fill="black" stroke="black" points="369.17,-252.87 358.61,-252.07 366.37,-259.28 369.17,-252.87"/>
<g id="a_edge22&#45;headlabel"><a xlink:href="dir_000007_000008.html" target="_top" xlink:title="1">
<text text-anchor="middle" x="373.6" y="-249.21" font-family="Helvetica,sans-Serif" font-size="10.00">1</text>
</a>
</g>
</g>
<!-- dir_2be3e507617607e75e44aed63f3b1454 -->
<g id="node4" class="node">
<title>dir_2be3e507617607e75e44aed63f3b1454</title>
<g id="a_node4"><a xlink:href="dir_2be3e507617607e75e44aed63f3b1454.html" target="_top" xlink:title="cluster_analysis">
<polygon fill="white" stroke="black" points="474.1,-252 379.1,-252 379.1,-216 474.1,-216 474.1,-252"/>
<text text-anchor="middle" x="426.6" y="-231.5" font-family="Helvetica,sans-Serif" font-size="10.00">cluster_analysis</text>
</a>
</g>
</g>
<!-- dir_37b4caba3cb16b71e38642388211d0d2&#45;&gt;dir_2be3e507617607e75e44aed63f3b1454 -->
<g id="edge18" class="edge">
<title>dir_37b4caba3cb16b71e38642388211d0d2&#45;&gt;dir_2be3e507617607e75e44aed63f3b1454</title>
<path fill="none" stroke="black" d="M466.49,-287.7C460.2,-279.39 452.55,-269.28 445.63,-260.14"/>
<polygon fill="black" stroke="black" points="448.37,-257.96 439.55,-252.1 442.79,-262.19 448.37,-257.96"/>
<g id="a_edge18&#45;headlabel"><a xlink:href="dir_000007_000029.html" target="_top" xlink:title="1">
<text text-anchor="middle" x="452.81" y="-256.62" font-family="Helvetica,sans-Serif" font-size="10.00">1</text>
</a>
</g>
</g>
<!-- dir_c687588a9b016a7d7e47086c84526c33 -->
<g id="node5" class="node">
<title>dir_c687588a9b016a7d7e47086c84526c33</title>
<g id="a_node5"><a xlink:href="dir_c687588a9b016a7d7e47086c84526c33.html" target="_top" xlink:title="collision_detection">
<polygon fill="white" stroke="black" points="738.6,-252 630.6,-252 630.6,-216 738.6,-216 738.6,-252"/>
<text text-anchor="middle" x="684.6" y="-231.5" font-family="Helvetica,sans-Serif" font-size="10.00">collision_detection</text>
</a>
</g>
</g>
<!-- dir_37b4caba3cb16b71e38642388211d0d2&#45;&gt;dir_c687588a9b016a7d7e47086c84526c33 -->
<g id="edge19" class="edge">
<title>dir_37b4caba3cb16b71e38642388211d0d2&#45;&gt;dir_c687588a9b016a7d7e47086c84526c33</title>
<path fill="none" stroke="black" d="M525.6,-289.29C555.02,-279.24 593.47,-266.12 625.19,-255.28"/>
<polygon fill="black" stroke="black" points="626.47,-258.55 634.8,-252 624.21,-251.92 626.47,-258.55"/>
<g id="a_edge19&#45;headlabel"><a xlink:href="dir_000007_000030.html" target="_top" xlink:title="1">
<text text-anchor="middle" x="623.98" y="-259.9" font-family="Helvetica,sans-Serif" font-size="10.00">1</text>
</a>
</g>
</g>
<!-- dir_dbc91a5eeb7d891afc76f7546c6f43fe -->
<g id="node6" class="node">
<title>dir_dbc91a5eeb7d891afc76f7546c6f43fe</title>
<g id="a_node6"><a xlink:href="dir_dbc91a5eeb7d891afc76f7546c6f43fe.html" target="_top" xlink:title="constraints">
<polygon fill="white" stroke="black" points="239.1,-252 168.1,-252 168.1,-216 239.1,-216 239.1,-252"/>
<text text-anchor="middle" x="203.6" y="-231.5" font-family="Helvetica,sans-Serif" font-size="10.00">constraints</text>
</a>
</g>
</g>
<!-- dir_37b4caba3cb16b71e38642388211d0d2&#45;&gt;dir_dbc91a5eeb7d891afc76f7546c6f43fe -->
<g id="edge16" class="edge">
<title>dir_37b4caba3cb16b71e38642388211d0d2&#45;&gt;dir_dbc91a5eeb7d891afc76f7546c6f43fe</title>
<path fill="none" stroke="black" d="M433.38,-295.54C387.46,-285.82 315.2,-269.65 253.6,-252 252.14,-251.58 250.66,-251.15 249.16,-250.7"/>
<polygon fill="black" stroke="black" points="249.83,-247.24 239.24,-247.59 247.74,-253.92 249.83,-247.24"/>
<g id="a_edge16&#45;headlabel"><a xlink:href="dir_000007_000035.html" target="_top" xlink:title="1">
<text text-anchor="middle" x="254.11" y="-243.1" font-family="Helvetica,sans-Serif" font-size="10.00">1</text>
</a>
</g>
</g>
<!-- dir_1b009040f4185fbf21744640333bd23b -->
<g id="node7" class="node">
<title>dir_1b009040f4185fbf21744640333bd23b</title>
<g id="a_node7"><a xlink:href="dir_1b009040f4185fbf21744640333bd23b.html" target="_top" xlink:title="h5md">
<polygon fill="white" stroke="black" points="701.6,-180 647.6,-180 647.6,-144 701.6,-144 701.6,-180"/>
<text text-anchor="middle" x="674.6" y="-159.5" font-family="Helvetica,sans-Serif" font-size="10.00">h5md</text>
</a>
</g>
</g>
<!-- dir_37b4caba3cb16b71e38642388211d0d2&#45;&gt;dir_1b009040f4185fbf21744640333bd23b -->
<g id="edge23" class="edge">
<title>dir_37b4caba3cb16b71e38642388211d0d2&#45;&gt;dir_1b009040f4185fbf21744640333bd23b</title>
<path fill="none" stroke="black" d="M525.75,-288.49C547.02,-279.59 571.87,-267.28 591.6,-252 608.06,-239.25 607.55,-231.38 621.6,-216 630.37,-206.39 640.38,-196.2 649.31,-187.35"/>
<polygon fill="black" stroke="black" points="651.84,-189.78 656.52,-180.28 646.93,-184.79 651.84,-189.78"/>
<g id="a_edge23&#45;headlabel"><a xlink:href="dir_000007_000046.html" target="_top" xlink:title="1">
<text text-anchor="middle" x="651.26" y="-191.82" font-family="Helvetica,sans-Serif" font-size="10.00">1</text>
</a>
</g>
</g>
<!-- dir_61323d37d95d3d42f5f4c44b686cb9d1 -->
<g id="node9" class="node">
<title>dir_61323d37d95d3d42f5f4c44b686cb9d1</title>
<g id="a_node9"><a xlink:href="dir_61323d37d95d3d42f5f4c44b686cb9d1.html" target="_top" xlink:title="lbboundaries">
<polygon fill="white" stroke="black" points="572.6,-252 492.6,-252 492.6,-216 572.6,-216 572.6,-252"/>
<text text-anchor="middle" x="532.6" y="-231.5" font-family="Helvetica,sans-Serif" font-size="10.00">lbboundaries</text>
</a>
</g>
</g>
<!-- dir_37b4caba3cb16b71e38642388211d0d2&#45;&gt;dir_61323d37d95d3d42f5f4c44b686cb9d1 -->
<g id="edge21" class="edge">
<title>dir_37b4caba3cb16b71e38642388211d0d2&#45;&gt;dir_61323d37d95d3d42f5f4c44b686cb9d1</title>
<path fill="none" stroke="black" d="M492.7,-287.7C498.99,-279.39 506.64,-269.28 513.56,-260.14"/>
<polygon fill="black" stroke="black" points="516.4,-262.19 519.65,-252.1 510.82,-257.96 516.4,-262.19"/>
<g id="a_edge21&#45;headlabel"><a xlink:href="dir_000007_000050.html" target="_top" xlink:title="1">
<text text-anchor="middle" x="516.49" y="-264.27" font-family="Helvetica,sans-Serif" font-size="10.00">1</text>
</a>
</g>
</g>
<!-- dir_6e89e1213ae9e245bd6904950207071a -->
<g id="node10" class="node">
<title>dir_6e89e1213ae9e245bd6904950207071a</title>
<g id="a_node10"><a xlink:href="dir_6e89e1213ae9e245bd6904950207071a.html" target="_top" xlink:title="mpiio">
<polygon fill="white" stroke="black" points="401.6,-180 347.6,-180 347.6,-144 401.6,-144 401.6,-180"/>
<text text-anchor="middle" x="374.6" y="-159.5" font-family="Helvetica,sans-Serif" font-size="10.00">mpiio</text>
</a>
</g>
</g>
<!-- dir_37b4caba3cb16b71e38642388211d0d2&#45;&gt;dir_6e89e1213ae9e245bd6904950207071a -->
<g id="edge20" class="edge">
<title>dir_37b4caba3cb16b71e38642388211d0d2&#45;&gt;dir_6e89e1213ae9e245bd6904950207071a</title>
<path fill="none" stroke="black" d="M433.51,-299.93C377.95,-292.75 289.53,-277.58 269.6,-252 259.76,-239.38 261.21,-229.63 269.6,-216 271.64,-212.68 308.72,-194.41 338.24,-180.23"/>
<polygon fill="black" stroke="black" points="340,-183.27 347.51,-175.8 336.98,-176.96 340,-183.27"/>
<g id="a_edge20&#45;headlabel"><a xlink:href="dir_000007_000051.html" target="_top" xlink:title="1">
<text text-anchor="middle" x="337.98" y="-184.89" font-family="Helvetica,sans-Serif" font-size="10.00">1</text>
</a>
</g>
</g>
<!-- dir_ad79a7d834d0f04dda0db797fa74cc0d -->
<g id="node14" class="node">
<title>dir_ad79a7d834d0f04dda0db797fa74cc0d</title>
<g id="a_node14"><a xlink:href="dir_ad79a7d834d0f04dda0db797fa74cc0d.html" target="_top" xlink:title="virtual_sites">
<polygon fill="white" stroke="black" points="629.1,-180 552.1,-180 552.1,-144 629.1,-144 629.1,-180"/>
<text text-anchor="middle" x="590.6" y="-159.5" font-family="Helvetica,sans-Serif" font-size="10.00">virtual_sites</text>
</a>
</g>
</g>
<!-- dir_37b4caba3cb16b71e38642388211d0d2&#45;&gt;dir_ad79a7d834d0f04dda0db797fa74cc0d -->
<g id="edge17" class="edge">
<title>dir_37b4caba3cb16b71e38642388211d0d2&#45;&gt;dir_ad79a7d834d0f04dda0db797fa74cc0d</title>
<path fill="none" stroke="black" d="M525.82,-292.08C546.25,-283.94 568.54,-271.24 581.6,-252 593.83,-233.98 595.36,-208.99 594.24,-190.08"/>
<polygon fill="black" stroke="black" points="597.72,-189.67 593.37,-180.01 590.74,-190.27 597.72,-189.67"/>
<g id="a_edge17&#45;headlabel"><a xlink:href="dir_000007_000009.html" target="_top" xlink:title="1">
<text text-anchor="middle" x="600.86" y="-190.51" font-family="Helvetica,sans-Serif" font-size="10.00">1</text>
</a>
</g>
</g>
<!-- dir_368b2e9c0fa1b5971ebe92fb870595ff -->
<g id="node3" class="node">
<title>dir_368b2e9c0fa1b5971ebe92fb870595ff</title>
<g id="a_node3"><a xlink:href="dir_368b2e9c0fa1b5971ebe92fb870595ff.html" target="_top" xlink:title="auto_parameters">
<polygon fill="white" stroke="black" points="594.6,-108 494.6,-108 494.6,-72 594.6,-72 594.6,-108"/>
<text text-anchor="middle" x="544.6" y="-87.5" font-family="Helvetica,sans-Serif" font-size="10.00">auto_parameters</text>
</a>
</g>
</g>
<!-- dir_93e1f60725b5e498a7be0ae0301e09d6&#45;&gt;dir_368b2e9c0fa1b5971ebe92fb870595ff -->
<g id="edge46" class="edge">
<title>dir_93e1f60725b5e498a7be0ae0301e09d6&#45;&gt;dir_368b2e9c0fa1b5971ebe92fb870595ff</title>
<path fill="none" stroke="black" d="M359.07,-215.91C376.37,-207.02 396.01,-194.89 410.6,-180 423.41,-166.93 417.2,-156.47 430.6,-144 446.04,-129.63 466.08,-118.55 485.03,-110.33"/>
<polygon fill="black" stroke="black" points="486.62,-113.46 494.52,-106.41 483.94,-107 486.62,-113.46"/>
<g id="a_edge46&#45;headlabel"><a xlink:href="dir_000008_000018.html" target="_top" xlink:title="2">
<text text-anchor="middle" x="484.38" y="-114.96" font-family="Helvetica,sans-Serif" font-size="10.00">2</text>
</a>
</g>
</g>
<!-- dir_43c31a71c36a1f8fd0d911e28f24948e -->
<g id="node11" class="node">
<title>dir_43c31a71c36a1f8fd0d911e28f24948e</title>
<g id="a_node11"><a xlink:href="dir_43c31a71c36a1f8fd0d911e28f24948e.html" target="_top" xlink:title="observables">
<polygon fill="white" stroke="black" points="329.6,-180 253.6,-180 253.6,-144 329.6,-144 329.6,-180"/>
<text text-anchor="middle" x="291.6" y="-159.5" font-family="Helvetica,sans-Serif" font-size="10.00">observables</text>
</a>
</g>
</g>
<!-- dir_93e1f60725b5e498a7be0ae0301e09d6&#45;&gt;dir_43c31a71c36a1f8fd0d911e28f24948e -->
<g id="edge43" class="edge">
<title>dir_93e1f60725b5e498a7be0ae0301e09d6&#45;&gt;dir_43c31a71c36a1f8fd0d911e28f24948e</title>
<path fill="none" stroke="black" d="M312.67,-215.7C309.52,-207.81 305.72,-198.3 302.21,-189.55"/>
<polygon fill="black" stroke="black" points="305.4,-188.09 298.44,-180.1 298.9,-190.69 305.4,-188.09"/>
<g id="a_edge43&#45;headlabel"><a xlink:href="dir_000008_000042.html" target="_top" xlink:title="3">
<text text-anchor="middle" x="309.37" y="-187.87" font-family="Helvetica,sans-Serif" font-size="10.00">3</text>
</a>
</g>
</g>
<!-- dir_aebb8dcc11953d78e620bbef0b9e2183 -->
<g id="node16" class="node">
<title>dir_aebb8dcc11953d78e620bbef0b9e2183</title>
<g id="a_node16"><a xlink:href="dir_aebb8dcc11953d78e620bbef0b9e2183.html" target="_top" xlink:title="core">
<polygon fill="none" stroke="red" points="816.6,-108 762.6,-108 762.6,-72 816.6,-72 816.6,-108"/>
<text text-anchor="middle" x="789.6" y="-87.5" font-family="Helvetica,sans-Serif" font-size="10.00">core</text>
</a>
</g>
</g>
<!-- dir_93e1f60725b5e498a7be0ae0301e09d6&#45;&gt;dir_aebb8dcc11953d78e620bbef0b9e2183 -->
<g id="edge44" class="edge">
<title>dir_93e1f60725b5e498a7be0ae0301e09d6&#45;&gt;dir_aebb8dcc11953d78e620bbef0b9e2183</title>
<path fill="none" stroke="black" d="M361.13,-218.31C364.31,-217.44 367.49,-216.66 370.6,-216 452.06,-198.72 674.63,-226.67 743.6,-180 764.79,-165.66 776.82,-138.4 783.21,-117.81"/>
<polygon fill="black" stroke="black" points="786.62,-118.62 785.99,-108.04 779.89,-116.7 786.62,-118.62"/>
<g id="a_edge44&#45;headlabel"><a xlink:href="dir_000008_000005.html" target="_top" xlink:title="5">
<text text-anchor="middle" x="788.37" y="-120.35" font-family="Helvetica,sans-Serif" font-size="10.00">5</text>
</a>
</g>
</g>
<!-- dir_313caf1132e152dd9b58bea13a4052ca -->
<g id="node17" class="node">
<title>dir_313caf1132e152dd9b58bea13a4052ca</title>
<g id="a_node17"><a xlink:href="dir_313caf1132e152dd9b58bea13a4052ca.html" target="_top" xlink:title="utils">
<polygon fill="none" stroke="red" points="246.6,-36 192.6,-36 192.6,0 246.6,0 246.6,-36"/>
<text text-anchor="middle" x="219.6" y="-15.5" font-family="Helvetica,sans-Serif" font-size="10.00">utils</text>
</a>
</g>
</g>
<!-- dir_93e1f60725b5e498a7be0ae0301e09d6&#45;&gt;dir_313caf1132e152dd9b58bea13a4052ca -->
<g id="edge45" class="edge">
<title>dir_93e1f60725b5e498a7be0ae0301e09d6&#45;&gt;dir_313caf1132e152dd9b58bea13a4052ca</title>
<path fill="none" stroke="black" d="M277.99,-222.72C268.36,-220.43 258.13,-218.07 248.6,-216 166.73,-198.24 116.87,-244.64 63.6,-180 28.55,-137.47 29.42,-99.23 63.6,-56 78.12,-37.63 140.93,-27.43 182.29,-22.59"/>
<polygon fill="black" stroke="black" points="182.75,-26.06 192.3,-21.47 181.97,-19.1 182.75,-26.06"/>
<g id="a_edge45&#45;headlabel"><a xlink:href="dir_000008_000001.html" target="_top" xlink:title="5">
<text text-anchor="middle" x="179.49" y="-26.78" font-family="Helvetica,sans-Serif" font-size="10.00">5</text>
</a>
</g>
</g>
<!-- dir_234afa982be0ba8031906af30c8337bd -->
<g id="node12" class="node">
<title>dir_234afa982be0ba8031906af30c8337bd</title>
<g id="a_node12"><a xlink:href="dir_234afa982be0ba8031906af30c8337bd.html" target="_top" xlink:title="pair_criteria">
<polygon fill="white" stroke="black" points="514.1,-180 439.1,-180 439.1,-144 514.1,-144 514.1,-180"/>
<text text-anchor="middle" x="476.6" y="-159.5" font-family="Helvetica,sans-Serif" font-size="10.00">pair_criteria</text>
</a>
</g>
</g>
<!-- dir_2be3e507617607e75e44aed63f3b1454&#45;&gt;dir_234afa982be0ba8031906af30c8337bd -->
<g id="edge24" class="edge">
<title>dir_2be3e507617607e75e44aed63f3b1454&#45;&gt;dir_234afa982be0ba8031906af30c8337bd</title>
<path fill="none" stroke="black" d="M438.96,-215.7C444.83,-207.47 451.96,-197.48 458.44,-188.42"/>
<polygon fill="black" stroke="black" points="461.41,-190.28 464.38,-180.1 455.72,-186.21 461.41,-190.28"/>
<g id="a_edge24&#45;headlabel"><a xlink:href="dir_000029_000052.html" target="_top" xlink:title="1">
<text text-anchor="middle" x="461.64" y="-192.35" font-family="Helvetica,sans-Serif" font-size="10.00">1</text>
</a>
</g>
</g>
<!-- dir_2be3e507617607e75e44aed63f3b1454&#45;&gt;dir_aebb8dcc11953d78e620bbef0b9e2183 -->
<g id="edge25" class="edge">
<title>dir_2be3e507617607e75e44aed63f3b1454&#45;&gt;dir_aebb8dcc11953d78e620bbef0b9e2183</title>
<path fill="none" stroke="black" d="M474.34,-218.12C477.46,-217.35 480.56,-216.63 483.6,-216 548.9,-202.42 735.16,-227.88 781.6,-180 797.07,-164.05 797.73,-138.08 795.31,-118.3"/>
<polygon fill="black" stroke="black" points="798.76,-117.68 793.78,-108.33 791.84,-118.75 798.76,-117.68"/>
<g id="a_edge25&#45;headlabel"><a xlink:href="dir_000029_000005.html" target="_top" xlink:title="2">
<text text-anchor="middle" x="802.11" y="-118.3" font-family="Helvetica,sans-Serif" font-size="10.00">2</text>
</a>
</g>
</g>
<!-- dir_2be3e507617607e75e44aed63f3b1454&#45;&gt;dir_313caf1132e152dd9b58bea13a4052ca -->
<g id="edge26" class="edge">
<title>dir_2be3e507617607e75e44aed63f3b1454&#45;&gt;dir_313caf1132e152dd9b58bea13a4052ca</title>
<path fill="none" stroke="black" d="M379.07,-218C376.22,-217.28 373.38,-216.6 370.6,-216 311.66,-203.2 141.31,-225.39 101.6,-180 65.3,-138.53 68.97,-100.42 101.6,-56 119.96,-30.99 155.21,-22.43 182.41,-19.71"/>
<polygon fill="black" stroke="black" points="182.7,-23.2 192.39,-18.93 182.15,-16.22 182.7,-23.2"/>
<g id="a_edge26&#45;headlabel"><a xlink:href="dir_000029_000001.html" target="_top" xlink:title="1">
<text text-anchor="middle" x="179.33" y="-23.81" font-family="Helvetica,sans-Serif" font-size="10.00">1</text>
</a>
</g>
</g>
<!-- dir_7e83d1792d529f4aa7126ac7e0b3b699 -->
<g id="node15" class="node">
<title>dir_7e83d1792d529f4aa7126ac7e0b3b699</title>
<g id="a_node15"><a xlink:href="dir_7e83d1792d529f4aa7126ac7e0b3b699.html" target="_top" xlink:title="config">
<polygon fill="none" stroke="black" points="701.6,-36 647.6,-36 647.6,0 701.6,0 701.6,-36"/>
<text text-anchor="middle" x="674.6" y="-15.5" font-family="Helvetica,sans-Serif" font-size="10.00">config</text>
</a>
</g>
</g>
<!-- dir_c687588a9b016a7d7e47086c84526c33&#45;&gt;dir_7e83d1792d529f4aa7126ac7e0b3b699 -->
<g id="edge27" class="edge">
<title>dir_c687588a9b016a7d7e47086c84526c33&#45;&gt;dir_7e83d1792d529f4aa7126ac7e0b3b699</title>
<path fill="none" stroke="black" d="M738.68,-230.98C813.47,-226.91 942.55,-214.91 971.6,-180 1006.85,-137.64 1008.08,-97.31 971.6,-56 954.64,-36.8 787.53,-25.22 711.69,-20.92"/>
<polygon fill="black" stroke="black" points="711.8,-17.42 701.62,-20.36 711.41,-24.41 711.8,-17.42"/>
<g id="a_edge27&#45;headlabel"><a xlink:href="dir_000030_000032.html" target="_top" xlink:title="2">
<text text-anchor="middle" x="715.55" y="-12.28" font-family="Helvetica,sans-Serif" font-size="10.00">2</text>
</a>
</g>
</g>
<!-- dir_c687588a9b016a7d7e47086c84526c33&#45;&gt;dir_aebb8dcc11953d78e620bbef0b9e2183 -->
<g id="edge28" class="edge">
<title>dir_c687588a9b016a7d7e47086c84526c33&#45;&gt;dir_aebb8dcc11953d78e620bbef0b9e2183</title>
<path fill="none" stroke="black" d="M738.69,-232.4C778.61,-228.76 830.51,-216.62 857.6,-180 867.11,-167.14 864.62,-158.38 857.6,-144 850.71,-129.9 838.06,-118.47 825.53,-109.87"/>
<polygon fill="black" stroke="black" points="827.25,-106.82 816.94,-104.38 823.48,-112.72 827.25,-106.82"/>
<g id="a_edge28&#45;headlabel"><a xlink:href="dir_000030_000005.html" target="_top" xlink:title="1">
<text text-anchor="middle" x="831.81" y="-103.86" font-family="Helvetica,sans-Serif" font-size="10.00">1</text>
</a>
</g>
</g>
<!-- dir_c687588a9b016a7d7e47086c84526c33&#45;&gt;dir_313caf1132e152dd9b58bea13a4052ca -->
<g id="edge29" class="edge">
<title>dir_c687588a9b016a7d7e47086c84526c33&#45;&gt;dir_313caf1132e152dd9b58bea13a4052ca</title>
<path fill="none" stroke="black" d="M630.45,-223.27C614.73,-220.66 597.51,-218.01 581.6,-216 536.34,-210.28 203.41,-213.64 172.6,-180 137.79,-141.99 173.58,-79.58 198.99,-44.67"/>
<polygon fill="black" stroke="black" points="201.97,-46.53 205.17,-36.43 196.37,-42.33 201.97,-46.53"/>
<g id="a_edge29&#45;headlabel"><a xlink:href="dir_000030_000001.html" target="_top" xlink:title="1">
<text text-anchor="middle" x="202.09" y="-48.61" font-family="Helvetica,sans-Serif" font-size="10.00">1</text>
</a>
</g>
</g>
<!-- dir_d406b84fd2ea1f8a0821b73028a70714 -->
<g id="node13" class="node">
<title>dir_d406b84fd2ea1f8a0821b73028a70714</title>
<g id="a_node13"><a xlink:href="dir_d406b84fd2ea1f8a0821b73028a70714.html" target="_top" xlink:title="shapes">
<polygon fill="white" stroke="black" points="235.6,-180 181.6,-180 181.6,-144 235.6,-144 235.6,-180"/>
<text text-anchor="middle" x="208.6" y="-159.5" font-family="Helvetica,sans-Serif" font-size="10.00">shapes</text>
</a>
</g>
</g>
<!-- dir_dbc91a5eeb7d891afc76f7546c6f43fe&#45;&gt;dir_d406b84fd2ea1f8a0821b73028a70714 -->
<g id="edge8" class="edge">
<title>dir_dbc91a5eeb7d891afc76f7546c6f43fe&#45;&gt;dir_d406b84fd2ea1f8a0821b73028a70714</title>
<path fill="none" stroke="black" d="M204.83,-215.7C205.38,-207.98 206.04,-198.71 206.66,-190.11"/>
<polygon fill="black" stroke="black" points="210.15,-190.33 207.37,-180.1 203.17,-189.83 210.15,-190.33"/>
<g id="a_edge8&#45;headlabel"><a xlink:href="dir_000035_000039.html" target="_top" xlink:title="1">
<text text-anchor="middle" x="212.73" y="-191.62" font-family="Helvetica,sans-Serif" font-size="10.00">1</text>
</a>
</g>
</g>
<!-- dir_dbc91a5eeb7d891afc76f7546c6f43fe&#45;&gt;dir_aebb8dcc11953d78e620bbef0b9e2183 -->
<g id="edge9" class="edge">
<title>dir_dbc91a5eeb7d891afc76f7546c6f43fe&#45;&gt;dir_aebb8dcc11953d78e620bbef0b9e2183</title>
<path fill="none" stroke="black" d="M239.32,-222.61C249.07,-220.1 259.68,-217.67 269.6,-216 366.56,-199.68 622.63,-223.93 710.6,-180 712.51,-179.04 745.1,-141.97 767.82,-115.98"/>
<polygon fill="black" stroke="black" points="770.56,-118.16 774.5,-108.33 765.29,-113.56 770.56,-118.16"/>
<g id="a_edge9&#45;headlabel"><a xlink:href="dir_000035_000005.html" target="_top" xlink:title="21">
<text text-anchor="middle" x="770.34" y="-120.24" font-family="Helvetica,sans-Serif" font-size="10.00">21</text>
</a>
</g>
</g>
<!-- dir_dbc91a5eeb7d891afc76f7546c6f43fe&#45;&gt;dir_313caf1132e152dd9b58bea13a4052ca -->
<g id="edge10" class="edge">
<title>dir_dbc91a5eeb7d891afc76f7546c6f43fe&#45;&gt;dir_313caf1132e152dd9b58bea13a4052ca</title>
<path fill="none" stroke="black" d="M168.08,-227.51C121.21,-219.46 42.65,-202.88 25.6,-180 -7.35,-135.82 -9.53,-98.46 25.6,-56 45.08,-32.45 131.55,-23.75 182.23,-20.65"/>
<polygon fill="black" stroke="black" points="182.68,-24.13 192.46,-20.07 182.28,-17.14 182.68,-24.13"/>
<g id="a_edge10&#45;headlabel"><a xlink:href="dir_000035_000001.html" target="_top" xlink:title="5">
<text text-anchor="middle" x="179.25" y="-24.67" font-family="Helvetica,sans-Serif" font-size="10.00">5</text>
</a>
</g>
</g>
<!-- dir_1b009040f4185fbf21744640333bd23b&#45;&gt;dir_368b2e9c0fa1b5971ebe92fb870595ff -->
<g id="edge50" class="edge">
<title>dir_1b009040f4185fbf21744640333bd23b&#45;&gt;dir_368b2e9c0fa1b5971ebe92fb870595ff</title>
<path fill="none" stroke="black" d="M647.34,-146.33C629.39,-136.66 605.57,-123.83 585.38,-112.96"/>
<polygon fill="black" stroke="black" points="586.86,-109.78 576.39,-108.12 583.54,-115.94 586.86,-109.78"/>
<g id="a_edge50&#45;headlabel"><a xlink:href="dir_000046_000018.html" target="_top" xlink:title="1">
<text text-anchor="middle" x="591.37" y="-106.49" font-family="Helvetica,sans-Serif" font-size="10.00">1</text>
</a>
</g>
</g>
<!-- dir_1b009040f4185fbf21744640333bd23b&#45;&gt;dir_7e83d1792d529f4aa7126ac7e0b3b699 -->
<g id="edge47" class="edge">
<title>dir_1b009040f4185fbf21744640333bd23b&#45;&gt;dir_7e83d1792d529f4aa7126ac7e0b3b699</title>
<path fill="none" stroke="black" d="M674.6,-143.87C674.6,-119.67 674.6,-75.21 674.6,-46.39"/>
<polygon fill="black" stroke="black" points="678.1,-46.19 674.6,-36.19 671.1,-46.19 678.1,-46.19"/>
<g id="a_edge47&#45;headlabel"><a xlink:href="dir_000046_000032.html" target="_top" xlink:title="4">
<text text-anchor="middle" x="680.93" y="-47.28" font-family="Helvetica,sans-Serif" font-size="10.00">4</text>
</a>
</g>
</g>
<!-- dir_1b009040f4185fbf21744640333bd23b&#45;&gt;dir_aebb8dcc11953d78e620bbef0b9e2183 -->
<g id="edge48" class="edge">
<title>dir_1b009040f4185fbf21744640333bd23b&#45;&gt;dir_aebb8dcc11953d78e620bbef0b9e2183</title>
<path fill="none" stroke="black" d="M701.85,-144.41C717.32,-135 736.87,-123.1 753.59,-112.92"/>
<polygon fill="black" stroke="black" points="755.82,-115.66 762.54,-107.47 752.18,-109.68 755.82,-115.66"/>
<g id="a_edge48&#45;headlabel"><a xlink:href="dir_000046_000005.html" target="_top" xlink:title="4">
<text text-anchor="middle" x="754.22" y="-117.45" font-family="Helvetica,sans-Serif" font-size="10.00">4</text>
</a>
</g>
</g>
<!-- dir_1b009040f4185fbf21744640333bd23b&#45;&gt;dir_313caf1132e152dd9b58bea13a4052ca -->
<g id="edge49" class="edge">
<title>dir_1b009040f4185fbf21744640333bd23b&#45;&gt;dir_313caf1132e152dd9b58bea13a4052ca</title>
<path fill="none" stroke="black" d="M647.33,-147.4C644.41,-146.16 641.47,-145 638.6,-144 572.65,-120.96 548.41,-138.57 485.6,-108 452.33,-91.81 454.25,-71.37 420.6,-56 367.15,-31.59 298.75,-23.28 257.1,-20.45"/>
<polygon fill="black" stroke="black" points="257.06,-16.94 246.86,-19.83 256.63,-23.93 257.06,-16.94"/>
<g id="a_edge49&#45;headlabel"><a xlink:href="dir_000046_000001.html" target="_top" xlink:title="1">
<text text-anchor="middle" x="260.81" y="-11.83" font-family="Helvetica,sans-Serif" font-size="10.00">1</text>
</a>
</g>
</g>
<!-- dir_b8a3ee75372079a36e458d63d045f88a -->
<g id="node8" class="node">
<title>dir_b8a3ee75372079a36e458d63d045f88a</title>
<g id="a_node8"><a xlink:href="dir_b8a3ee75372079a36e458d63d045f88a.html" target="_top" xlink:title="interactions">
<polygon fill="white" stroke="black" points="738.6,-324 664.6,-324 664.6,-288 738.6,-288 738.6,-324"/>
<text text-anchor="middle" x="701.6" y="-303.5" font-family="Helvetica,sans-Serif" font-size="10.00">interactions</text>
</a>
</g>
</g>
<!-- dir_b8a3ee75372079a36e458d63d045f88a&#45;&gt;dir_aebb8dcc11953d78e620bbef0b9e2183 -->
<g id="edge15" class="edge">
<title>dir_b8a3ee75372079a36e458d63d045f88a&#45;&gt;dir_aebb8dcc11953d78e620bbef0b9e2183</title>
<path fill="none" stroke="black" d="M738.82,-290.49C780.61,-271.94 846.26,-235.43 874.6,-180 881.88,-165.75 882.36,-157.99 874.6,-144 864.18,-125.22 844.03,-112.23 825.97,-103.81"/>
<polygon fill="black" stroke="black" points="827.34,-100.59 816.78,-99.82 824.56,-107.01 827.34,-100.59"/>
<g id="a_edge15&#45;headlabel"><a xlink:href="dir_000022_000005.html" target="_top" xlink:title="1">
<text text-anchor="middle" x="831.77" y="-96.92" font-family="Helvetica,sans-Serif" font-size="10.00">1</text>
</a>
</g>
</g>
<!-- dir_61323d37d95d3d42f5f4c44b686cb9d1&#45;&gt;dir_368b2e9c0fa1b5971ebe92fb870595ff -->
<g id="edge38" class="edge">
<title>dir_61323d37d95d3d42f5f4c44b686cb9d1&#45;&gt;dir_368b2e9c0fa1b5971ebe92fb870595ff</title>
<path fill="none" stroke="black" d="M534.04,-215.87C536.09,-191.67 539.85,-147.21 542.28,-118.39"/>
<polygon fill="black" stroke="black" points="545.79,-118.45 543.14,-108.19 538.81,-117.86 545.79,-118.45"/>
<g id="a_edge38&#45;headlabel"><a xlink:href="dir_000050_000018.html" target="_top" xlink:title="1">
<text text-anchor="middle" x="548.32" y="-119.77" font-family="Helvetica,sans-Serif" font-size="10.00">1</text>
</a>
</g>
</g>
<!-- dir_61323d37d95d3d42f5f4c44b686cb9d1&#45;&gt;dir_d406b84fd2ea1f8a0821b73028a70714 -->
<g id="edge35" class="edge">
<title>dir_61323d37d95d3d42f5f4c44b686cb9d1&#45;&gt;dir_d406b84fd2ea1f8a0821b73028a70714</title>
<path fill="none" stroke="black" d="M492.4,-218.39C489.44,-217.52 486.48,-216.71 483.6,-216 382.35,-191.04 349.3,-210.08 245.39,-179.73"/>
<polygon fill="black" stroke="black" points="246.37,-176.37 235.78,-176.84 244.36,-183.07 246.37,-176.37"/>
<g id="a_edge35&#45;headlabel"><a xlink:href="dir_000050_000039.html" target="_top" xlink:title="1">
<text text-anchor="middle" x="250.63" y="-172.18" font-family="Helvetica,sans-Serif" font-size="10.00">1</text>
</a>
</g>
</g>
<!-- dir_61323d37d95d3d42f5f4c44b686cb9d1&#45;&gt;dir_7e83d1792d529f4aa7126ac7e0b3b699 -->
<g id="edge34" class="edge">
<title>dir_61323d37d95d3d42f5f4c44b686cb9d1&#45;&gt;dir_7e83d1792d529f4aa7126ac7e0b3b699</title>
<path fill="none" stroke="black" d="M572.88,-225.1C588.12,-222.17 605.65,-218.86 621.6,-216 669.28,-207.46 805.3,-216.97 836.6,-180 854.36,-159.02 852.7,-86.44 825.6,-56 810.69,-39.25 751.52,-28.66 711.83,-23.28"/>
<polygon fill="black" stroke="black" points="712.07,-19.79 701.7,-21.97 711.17,-26.73 712.07,-19.79"/>
<g id="a_edge34&#45;headlabel"><a xlink:href="dir_000050_000032.html" target="_top" xlink:title="2">
<text text-anchor="middle" x="716" y="-14.93" font-family="Helvetica,sans-Serif" font-size="10.00">2</text>
</a>
</g>
</g>
<!-- dir_61323d37d95d3d42f5f4c44b686cb9d1&#45;&gt;dir_aebb8dcc11953d78e620bbef0b9e2183 -->
<g id="edge36" class="edge">
<title>dir_61323d37d95d3d42f5f4c44b686cb9d1&#45;&gt;dir_aebb8dcc11953d78e620bbef0b9e2183</title>
<path fill="none" stroke="black" d="M572.9,-225.22C588.15,-222.3 605.67,-218.97 621.6,-216 665.56,-207.8 790.94,-214.33 819.6,-180 834.73,-161.87 823.14,-135.77 810.22,-116.52"/>
<polygon fill="black" stroke="black" points="812.94,-114.31 804.28,-108.21 807.25,-118.38 812.94,-114.31"/>
<g id="a_edge36&#45;headlabel"><a xlink:href="dir_000050_000005.html" target="_top" xlink:title="4">
<text text-anchor="middle" x="817.34" y="-113.09" font-family="Helvetica,sans-Serif" font-size="10.00">4</text>
</a>
</g>
</g>
<!-- dir_61323d37d95d3d42f5f4c44b686cb9d1&#45;&gt;dir_313caf1132e152dd9b58bea13a4052ca -->
<g id="edge37" class="edge">
<title>dir_61323d37d95d3d42f5f4c44b686cb9d1&#45;&gt;dir_313caf1132e152dd9b58bea13a4052ca</title>
<path fill="none" stroke="black" d="M492.43,-218.24C489.46,-217.41 486.5,-216.65 483.6,-216 408.57,-199.29 191.04,-237.11 139.6,-180 102.71,-139.05 109.91,-102.43 139.6,-56 149.15,-41.05 166.46,-32.05 182.54,-26.68"/>
<polygon fill="black" stroke="black" points="183.72,-29.98 192.31,-23.79 181.73,-23.27 183.72,-29.98"/>
<g id="a_edge37&#45;headlabel"><a xlink:href="dir_000050_000001.html" target="_top" xlink:title="1">
<text text-anchor="middle" x="181.08" y="-31.23" font-family="Helvetica,sans-Serif" font-size="10.00">1</text>
</a>
</g>
</g>
<!-- dir_6e89e1213ae9e245bd6904950207071a&#45;&gt;dir_368b2e9c0fa1b5971ebe92fb870595ff -->
<g id="edge33" class="edge">
<title>dir_6e89e1213ae9e245bd6904950207071a&#45;&gt;dir_368b2e9c0fa1b5971ebe92fb870595ff</title>
<path fill="none" stroke="black" d="M401.94,-149.65C406.5,-147.76 411.18,-145.82 415.6,-144 441.27,-133.4 469.83,-121.66 493.54,-111.93"/>
<polygon fill="black" stroke="black" points="495.12,-115.07 503.04,-108.03 492.46,-108.59 495.12,-115.07"/>
<g id="a_edge33&#45;headlabel"><a xlink:href="dir_000051_000018.html" target="_top" xlink:title="1">
<text text-anchor="middle" x="492.87" y="-116.56" font-family="Helvetica,sans-Serif" font-size="10.00">1</text>
</a>
</g>
</g>
<!-- dir_6e89e1213ae9e245bd6904950207071a&#45;&gt;dir_7e83d1792d529f4aa7126ac7e0b3b699 -->
<g id="edge30" class="edge">
<title>dir_6e89e1213ae9e245bd6904950207071a&#45;&gt;dir_7e83d1792d529f4aa7126ac7e0b3b699</title>
<path fill="none" stroke="black" d="M387.54,-143.72C406.35,-119.93 443.62,-77.61 485.6,-56 534.17,-30.99 597.73,-22.83 637.36,-20.2"/>
<polygon fill="black" stroke="black" points="637.61,-23.7 647.39,-19.62 637.2,-16.71 637.61,-23.7"/>
<g id="a_edge30&#45;headlabel"><a xlink:href="dir_000051_000032.html" target="_top" xlink:title="1">
<text text-anchor="middle" x="634.18" y="-24.24" font-family="Helvetica,sans-Serif" font-size="10.00">1</text>
</a>
</g>
</g>
<!-- dir_6e89e1213ae9e245bd6904950207071a&#45;&gt;dir_aebb8dcc11953d78e620bbef0b9e2183 -->
<g id="edge31" class="edge">
<title>dir_6e89e1213ae9e245bd6904950207071a&#45;&gt;dir_aebb8dcc11953d78e620bbef0b9e2183</title>
<path fill="none" stroke="black" d="M401.68,-151.69C410.78,-148.85 421.04,-145.97 430.6,-144 570.77,-115.09 612.34,-145.01 750.6,-108 751.32,-107.81 752.04,-107.6 752.77,-107.39"/>
<polygon fill="black" stroke="black" points="753.95,-110.68 762.27,-104.12 751.67,-104.06 753.95,-110.68"/>
<g id="a_edge31&#45;headlabel"><a xlink:href="dir_000051_000005.html" target="_top" xlink:title="2">
<text text-anchor="middle" x="751.47" y="-112.04" font-family="Helvetica,sans-Serif" font-size="10.00">2</text>
</a>
</g>
</g>
<!-- dir_6e89e1213ae9e245bd6904950207071a&#45;&gt;dir_313caf1132e152dd9b58bea13a4052ca -->
<g id="edge32" class="edge">
<title>dir_6e89e1213ae9e245bd6904950207071a&#45;&gt;dir_313caf1132e152dd9b58bea13a4052ca</title>
<path fill="none" stroke="black" d="M356.58,-143.66C334.63,-122.65 296.3,-86.28 262.6,-56 257.79,-51.68 252.62,-47.15 247.59,-42.79"/>
<polygon fill="black" stroke="black" points="249.74,-40.02 239.88,-36.14 245.17,-45.32 249.74,-40.02"/>
<g id="a_edge32&#45;headlabel"><a xlink:href="dir_000051_000001.html" target="_top" xlink:title="1">
<text text-anchor="middle" x="254.31" y="-37.71" font-family="Helvetica,sans-Serif" font-size="10.00">1</text>
</a>
</g>
</g>
<!-- dir_43c31a71c36a1f8fd0d911e28f24948e&#45;&gt;dir_368b2e9c0fa1b5971ebe92fb870595ff -->
<g id="edge4" class="edge">
<title>dir_43c31a71c36a1f8fd0d911e28f24948e&#45;&gt;dir_368b2e9c0fa1b5971ebe92fb870595ff</title>
<path fill="none" stroke="black" d="M329.71,-146.87C332.71,-145.86 335.69,-144.9 338.6,-144 387.17,-129.01 443.06,-114.81 484.36,-104.89"/>
<polygon fill="black" stroke="black" points="485.36,-108.26 494.27,-102.53 483.73,-101.45 485.36,-108.26"/>
<g id="a_edge4&#45;headlabel"><a xlink:href="dir_000042_000018.html" target="_top" xlink:title="7">
<text text-anchor="middle" x="482.52" y="-109.35" font-family="Helvetica,sans-Serif" font-size="10.00">7</text>
</a>
</g>
</g>
<!-- dir_43c31a71c36a1f8fd0d911e28f24948e&#45;&gt;dir_7e83d1792d529f4aa7126ac7e0b3b699 -->
<g id="edge1" class="edge">
<title>dir_43c31a71c36a1f8fd0d911e28f24948e&#45;&gt;dir_7e83d1792d529f4aa7126ac7e0b3b699</title>
<path fill="none" stroke="black" d="M306,-143.83C327.26,-119.78 369.54,-76.69 415.6,-56 454.47,-38.54 575.51,-26.79 637.37,-21.77"/>
<polygon fill="black" stroke="black" points="637.8,-25.25 647.49,-20.97 637.24,-18.27 637.8,-25.25"/>
<g id="a_edge1&#45;headlabel"><a xlink:href="dir_000042_000032.html" target="_top" xlink:title="2">
<text text-anchor="middle" x="634.44" y="-25.86" font-family="Helvetica,sans-Serif" font-size="10.00">2</text>
</a>
</g>
</g>
<!-- dir_43c31a71c36a1f8fd0d911e28f24948e&#45;&gt;dir_aebb8dcc11953d78e620bbef0b9e2183 -->
<g id="edge2" class="edge">
<title>dir_43c31a71c36a1f8fd0d911e28f24948e&#45;&gt;dir_aebb8dcc11953d78e620bbef0b9e2183</title>
<path fill="none" stroke="black" d="M329.83,-146.25C332.77,-145.4 335.71,-144.64 338.6,-144 518.09,-104.41 572.46,-153.32 750.6,-108 751.32,-107.82 752.05,-107.62 752.78,-107.41"/>
<polygon fill="black" stroke="black" points="753.93,-110.72 762.29,-104.21 751.7,-104.08 753.93,-110.72"/>
<g id="a_edge2&#45;headlabel"><a xlink:href="dir_000042_000005.html" target="_top" xlink:title="41">
<text text-anchor="middle" x="751.43" y="-112.06" font-family="Helvetica,sans-Serif" font-size="10.00">41</text>
</a>
</g>
</g>
<!-- dir_43c31a71c36a1f8fd0d911e28f24948e&#45;&gt;dir_313caf1132e152dd9b58bea13a4052ca -->
<g id="edge3" class="edge">
<title>dir_43c31a71c36a1f8fd0d911e28f24948e&#45;&gt;dir_313caf1132e152dd9b58bea13a4052ca</title>
<path fill="none" stroke="black" d="M281.97,-143.93C276.22,-133.6 268.84,-120.12 262.6,-108 251.86,-87.14 240.33,-63.19 231.91,-45.39"/>
<polygon fill="black" stroke="black" points="235.01,-43.75 227.58,-36.19 228.68,-46.73 235.01,-43.75"/>
<g id="a_edge3&#45;headlabel"><a xlink:href="dir_000042_000001.html" target="_top" xlink:title="2">
<text text-anchor="middle" x="239.11" y="-43.29" font-family="Helvetica,sans-Serif" font-size="10.00">2</text>
</a>
</g>
</g>
<!-- dir_234afa982be0ba8031906af30c8337bd&#45;&gt;dir_368b2e9c0fa1b5971ebe92fb870595ff -->
<g id="edge7" class="edge">
<title>dir_234afa982be0ba8031906af30c8337bd&#45;&gt;dir_368b2e9c0fa1b5971ebe92fb870595ff</title>
<path fill="none" stroke="black" d="M493.4,-143.7C501.72,-135.14 511.9,-124.66 520.99,-115.3"/>
<polygon fill="black" stroke="black" points="523.52,-117.72 527.98,-108.1 518.5,-112.84 523.52,-117.72"/>
<g id="a_edge7&#45;headlabel"><a xlink:href="dir_000052_000018.html" target="_top" xlink:title="1">
<text text-anchor="middle" x="523.05" y="-119.77" font-family="Helvetica,sans-Serif" font-size="10.00">1</text>
</a>
</g>
</g>
<!-- dir_234afa982be0ba8031906af30c8337bd&#45;&gt;dir_aebb8dcc11953d78e620bbef0b9e2183 -->
<g id="edge5" class="edge">
<title>dir_234afa982be0ba8031906af30c8337bd&#45;&gt;dir_aebb8dcc11953d78e620bbef0b9e2183</title>
<path fill="none" stroke="black" d="M514.39,-150.87C523.89,-148.48 534.09,-146.03 543.6,-144 634.92,-124.5 661.16,-134.85 750.6,-108 751.31,-107.78 752.03,-107.56 752.76,-107.33"/>
<polygon fill="black" stroke="black" points="753.99,-110.6 762.2,-103.91 751.61,-104.02 753.99,-110.6"/>
<g id="a_edge5&#45;headlabel"><a xlink:href="dir_000052_000005.html" target="_top" xlink:title="1">
<text text-anchor="middle" x="751.58" y="-111.99" font-family="Helvetica,sans-Serif" font-size="10.00">1</text>
</a>
</g>
</g>
<!-- dir_234afa982be0ba8031906af30c8337bd&#45;&gt;dir_313caf1132e152dd9b58bea13a4052ca -->
<g id="edge6" class="edge">
<title>dir_234afa982be0ba8031906af30c8337bd&#45;&gt;dir_313caf1132e152dd9b58bea13a4052ca</title>
<path fill="none" stroke="black" d="M450.83,-143.9C417.56,-122.16 357.5,-84.08 303.6,-56 288.41,-48.09 271.17,-40.3 256.28,-33.92"/>
<polygon fill="black" stroke="black" points="257.45,-30.62 246.88,-29.95 254.73,-37.07 257.45,-30.62"/>
<g id="a_edge6&#45;headlabel"><a xlink:href="dir_000052_000001.html" target="_top" xlink:title="1">
<text text-anchor="middle" x="261.87" y="-26.9" font-family="Helvetica,sans-Serif" font-size="10.00">1</text>
</a>
</g>
</g>
<!-- dir_d406b84fd2ea1f8a0821b73028a70714&#45;&gt;dir_368b2e9c0fa1b5971ebe92fb870595ff -->
<g id="edge40" class="edge">
<title>dir_d406b84fd2ea1f8a0821b73028a70714&#45;&gt;dir_368b2e9c0fa1b5971ebe92fb870595ff</title>
<path fill="none" stroke="black" d="M235.81,-147.23C238.73,-146.03 241.7,-144.92 244.6,-144 325.47,-118.27 422.83,-103.97 484.23,-96.88"/>
<polygon fill="black" stroke="black" points="484.97,-100.32 494.52,-95.73 484.19,-93.37 484.97,-100.32"/>
<g id="a_edge40&#45;headlabel"><a xlink:href="dir_000039_000018.html" target="_top" xlink:title="1">
<text text-anchor="middle" x="481.72" y="-101.05" font-family="Helvetica,sans-Serif" font-size="10.00">1</text>
</a>
</g>
</g>
<!-- dir_d406b84fd2ea1f8a0821b73028a70714&#45;&gt;dir_313caf1132e152dd9b58bea13a4052ca -->
<g id="edge39" class="edge">
<title>dir_d406b84fd2ea1f8a0821b73028a70714&#45;&gt;dir_313caf1132e152dd9b58bea13a4052ca</title>
<path fill="none" stroke="black" d="M209.92,-143.87C211.8,-119.67 215.24,-75.21 217.47,-46.39"/>
<polygon fill="black" stroke="black" points="220.98,-46.43 218.26,-36.19 214,-45.89 220.98,-46.43"/>
<g id="a_edge39&#45;headlabel"><a xlink:href="dir_000039_000001.html" target="_top" xlink:title="2">
<text text-anchor="middle" x="223.53" y="-47.73" font-family="Helvetica,sans-Serif" font-size="10.00">2</text>
</a>
</g>
</g>
<!-- dir_ad79a7d834d0f04dda0db797fa74cc0d&#45;&gt;dir_368b2e9c0fa1b5971ebe92fb870595ff -->
<g id="edge14" class="edge">
<title>dir_ad79a7d834d0f04dda0db797fa74cc0d&#45;&gt;dir_368b2e9c0fa1b5971ebe92fb870595ff</title>
<path fill="none" stroke="black" d="M579.22,-143.7C573.88,-135.56 567.39,-125.69 561.49,-116.7"/>
<polygon fill="black" stroke="black" points="564.25,-114.54 555.84,-108.1 558.4,-118.38 564.25,-114.54"/>
<g id="a_edge14&#45;headlabel"><a xlink:href="dir_000009_000018.html" target="_top" xlink:title="2">
<text text-anchor="middle" x="568.6" y="-113.48" font-family="Helvetica,sans-Serif" font-size="10.00">2</text>
</a>
</g>
</g>
<!-- dir_ad79a7d834d0f04dda0db797fa74cc0d&#45;&gt;dir_7e83d1792d529f4aa7126ac7e0b3b699 -->
<g id="edge11" class="edge">
<title>dir_ad79a7d834d0f04dda0db797fa74cc0d&#45;&gt;dir_7e83d1792d529f4aa7126ac7e0b3b699</title>
<path fill="none" stroke="black" d="M600.73,-143.87C615.3,-119.24 642.27,-73.64 659.28,-44.88"/>
<polygon fill="black" stroke="black" points="662.35,-46.58 664.43,-36.19 656.32,-43.01 662.35,-46.58"/>
<g id="a_edge11&#45;headlabel"><a xlink:href="dir_000009_000032.html" target="_top" xlink:title="6">
<text text-anchor="middle" x="662.96" y="-48.62" font-family="Helvetica,sans-Serif" font-size="10.00">6</text>
</a>
</g>
</g>
<!-- dir_ad79a7d834d0f04dda0db797fa74cc0d&#45;&gt;dir_aebb8dcc11953d78e620bbef0b9e2183 -->
<g id="edge12" class="edge">
<title>dir_ad79a7d834d0f04dda0db797fa74cc0d&#45;&gt;dir_aebb8dcc11953d78e620bbef0b9e2183</title>
<path fill="none" stroke="black" d="M629.33,-147.17C632.46,-146.09 635.58,-145.02 638.6,-144 688.13,-127.27 701.68,-126.47 750.6,-108 751.44,-107.68 752.3,-107.35 753.16,-107.02"/>
<polygon fill="black" stroke="black" points="754.51,-110.24 762.46,-103.24 751.88,-103.76 754.51,-110.24"/>
<g id="a_edge12&#45;headlabel"><a xlink:href="dir_000009_000005.html" target="_top" xlink:title="6">
<text text-anchor="middle" x="752.25" y="-111.73" font-family="Helvetica,sans-Serif" font-size="10.00">6</text>
</a>
</g>
</g>
<!-- dir_ad79a7d834d0f04dda0db797fa74cc0d&#45;&gt;dir_313caf1132e152dd9b58bea13a4052ca -->
<g id="edge13" class="edge">
<title>dir_ad79a7d834d0f04dda0db797fa74cc0d&#45;&gt;dir_313caf1132e152dd9b58bea13a4052ca</title>
<path fill="none" stroke="black" d="M551.89,-147.87C523.87,-137.94 485.33,-123.43 452.6,-108 410.11,-87.97 404.12,-73.66 360.6,-56 326.55,-42.18 285.78,-32.14 256.85,-26.03"/>
<polygon fill="black" stroke="black" points="257.27,-22.54 246.77,-23.96 255.86,-29.4 257.27,-22.54"/>
<g id="a_edge13&#45;headlabel"><a xlink:href="dir_000009_000001.html" target="_top" xlink:title="1">
<text text-anchor="middle" x="261.36" y="-17.99" font-family="Helvetica,sans-Serif" font-size="10.00">1</text>
</a>
</g>
</g>
<!-- dir_aebb8dcc11953d78e620bbef0b9e2183&#45;&gt;dir_7e83d1792d529f4aa7126ac7e0b3b699 -->
<g id="edge41" class="edge">
<title>dir_aebb8dcc11953d78e620bbef0b9e2183&#45;&gt;dir_7e83d1792d529f4aa7126ac7e0b3b699</title>
<path fill="none" stroke="black" d="M771.29,-71.89C765,-66.45 757.73,-60.65 750.6,-56 738.35,-48.02 724.13,-40.65 711.32,-34.62"/>
<polygon fill="black" stroke="black" points="712.41,-31.27 701.86,-30.28 709.49,-37.63 712.41,-31.27"/>
<g id="a_edge41&#45;headlabel"><a xlink:href="dir_000005_000032.html" target="_top" xlink:title="149">
<text text-anchor="middle" x="716.86" y="-27.68" font-family="Helvetica,sans-Serif" font-size="10.00">149</text>
</a>
</g>
</g>
<!-- dir_aebb8dcc11953d78e620bbef0b9e2183&#45;&gt;dir_313caf1132e152dd9b58bea13a4052ca -->
<g id="edge42" class="edge">
<title>dir_aebb8dcc11953d78e620bbef0b9e2183&#45;&gt;dir_313caf1132e152dd9b58bea13a4052ca</title>
<path fill="none" stroke="black" d="M774.09,-71.93C767.49,-65.8 759.31,-59.54 750.6,-56 705.19,-37.55 370.35,-24.27 256.99,-20.26"/>
<polygon fill="black" stroke="black" points="256.84,-16.75 246.73,-19.9 256.6,-23.75 256.84,-16.75"/>
<g id="a_edge42&#45;headlabel"><a xlink:href="dir_000005_000001.html" target="_top" xlink:title="463">
<text text-anchor="middle" x="260.54" y="-11.54" font-family="Helvetica,sans-Serif" font-size="10.00">463</text>
</a>
</g>
</g>
</g>
</svg>
        <g id="navigator" transform="translate(0 0)" fill="#404254">
                <rect fill="#f2f5e9" fill-opacity="0.5" stroke="#606060" stroke-width=".5" x="0" y="0" width="60" height="60"/>
                <use id="zoomplus" xlink:href="#zoomPlus" x="17" y="9" onmousedown="handleZoom(evt,'in')"/>
                <use id="zoomminus" xlink:href="#zoomMin" x="42" y="9" onmousedown="handleZoom(evt,'out')"/>
                <use id="reset" xlink:href="#resetDef" x="30" y="36" onmousedown="handleReset()"/>
                <g id="arrowUp" xlink:href="#dirArrow" transform="translate(30 24)" onmousedown="handlePan(0,-1)">
                  <use xlink:href="#rim" fill="#404040">
                        <set attributeName="fill" to="#808080" begin="arrowUp.mouseover" end="arrowUp.mouseout"/>
                  </use>
                  <path fill="none" stroke="white" stroke-width="1.5" d="M0,-3.0v7 M-2.5,-0.5L0,-3.0L2.5,-0.5"/>
                </g>
                <g id="arrowRight" xlink:href="#dirArrow" transform="rotate(90) translate(36 -43)" onmousedown="handlePan(1,0)">
                  <use xlink:href="#rim" fill="#404040">
                        <set attributeName="fill" to="#808080" begin="arrowRight.mouseover" end="arrowRight.mouseout"/>
                  </use>
                  <path fill="none" stroke="white" stroke-width="1.5" d="M0,-3.0v7 M-2.5,-0.5L0,-3.0L2.5,-0.5"/>
                </g>
                <g id="arrowDown" xlink:href="#dirArrow" transform="rotate(180) translate(-30 -48)" onmousedown="handlePan(0,1)">
                  <use xlink:href="#rim" fill="#404040">
                        <set attributeName="fill" to="#808080" begin="arrowDown.mouseover" end="arrowDown.mouseout"/>
                  </use>
                  <path fill="none" stroke="white" stroke-width="1.5" d="M0,-3.0v7 M-2.5,-0.5L0,-3.0L2.5,-0.5"/>
                </g>
                <g id="arrowLeft" xlink:href="#dirArrow" transform="rotate(270) translate(-36 17)" onmousedown="handlePan(-1,0)">
                  <use xlink:href="#rim" fill="#404040">
                        <set attributeName="fill" to="#808080" begin="arrowLeft.mouseover" end="arrowLeft.mouseout"/>
                  </use>
                  <path fill="none" stroke="white" stroke-width="1.5" d="M0,-3.0v7 M-2.5,-0.5L0,-3.0L2.5,-0.5"/>
                </g>
        </g>
        <svg viewBox="0 0 15 15" width="100%" height="30px" preserveAspectRatio="xMaxYMin meet">
         <g id="arrow_out" transform="scale(0.3 0.3)">
          <a xlink:href="dir_37b4caba3cb16b71e38642388211d0d2_dep_org.svg" target="_base">
           <rect id="button" ry="5" rx="5" y="6" x="6" height="38" width="38"
                fill="#f2f5e9" fill-opacity="0.5" stroke="#606060" stroke-width="1.0"/>
           <path id="arrow"
             d="M 11.500037,31.436501 C 11.940474,20.09759 22.043105,11.32322 32.158766,21.979434 L 37.068811,17.246167 C 37.068811,17.246167 37.088388,32 37.088388,32 L 22.160133,31.978069 C 22.160133,31.978069 26.997745,27.140456 26.997745,27.140456 C 18.528582,18.264221 13.291696,25.230495 11.500037,31.436501 z"
             style="fill:#404040;"/>
          </a>
         </g>
        </svg>
</svg>
