<?xml version="1.0" encoding="UTF-8" standalone="no"?>
<!DOCTYPE svg PUBLIC "-//W3C//DTD SVG 1.1//EN"
 "http://www.w3.org/Graphics/SVG/1.1/DTD/svg11.dtd">
<!-- Generated by graphviz version 2.43.0 (0)
 -->
<!-- Title: io Pages: 1 -->
<svg width="275pt" height="231pt"
 viewBox="0.00 0.00 275.23 231.00" xmlns="http://www.w3.org/2000/svg" xmlns:xlink="http://www.w3.org/1999/xlink">
<g id="graph0" class="graph" transform="scale(1 1) rotate(0) translate(4 227)">
<title>io</title>
<g id="clust1" class="cluster">
<title>clusterdir_aebb8dcc11953d78e620bbef0b9e2183</title>
<g id="a_clust1"><a xlink:href="dir_aebb8dcc11953d78e620bbef0b9e2183.html" target="_top" xlink:title="core">
<polygon fill="#ddddee" stroke="black" points="29.23,-128 29.23,-215 259.23,-215 259.23,-128 29.23,-128"/>
<text text-anchor="middle" x="144.23" y="-203" font-family="Helvetica,sans-Serif" font-size="10.00">core</text>
</a>
</g>
</g>
<g id="clust2" class="cluster">
<title>clusterdir_5a03d4eb8dc59e232663ffdae33d1084</title>
<g id="a_clust2"><a xlink:href="dir_5a03d4eb8dc59e232663ffdae33d1084.html" target="_top">
<polygon fill="#eeeeff" stroke="black" points="37.23,-136 37.23,-188 251.23,-188 251.23,-136 37.23,-136"/>
</a>
</g>
</g>
<!-- dir_5a03d4eb8dc59e232663ffdae33d1084 -->
<g id="node1" class="node">
<title>dir_5a03d4eb8dc59e232663ffdae33d1084</title>
<text text-anchor="middle" x="216.23" y="-159.5" font-family="Helvetica,sans-Serif" font-size="10.00">io</text>
</g>
<!-- dir_9b2fd9cd4c1f0925242e13a6eb43f898 -->
<g id="node2" class="node">
<title>dir_9b2fd9cd4c1f0925242e13a6eb43f898</title>
<g id="a_node2"><a xlink:href="dir_9b2fd9cd4c1f0925242e13a6eb43f898.html" target="_top" xlink:title="mpiio">
<polygon fill="white" stroke="black" points="99.23,-180 45.23,-180 45.23,-144 99.23,-144 99.23,-180"/>
<text text-anchor="middle" x="72.23" y="-159.5" font-family="Helvetica,sans-Serif" font-size="10.00">mpiio</text>
</a>
</g>
</g>
<!-- dir_313caf1132e152dd9b58bea13a4052ca -->
<g id="node4" class="node">
<title>dir_313caf1132e152dd9b58bea13a4052ca</title>
<g id="a_node4"><a xlink:href="dir_313caf1132e152dd9b58bea13a4052ca.html" target="_top" xlink:title="utils">
<polygon fill="none" stroke="red" points="99.23,-36 45.23,-36 45.23,0 99.23,0 99.23,-36"/>
<text text-anchor="middle" x="72.23" y="-15.5" font-family="Helvetica,sans-Serif" font-size="10.00">utils</text>
</a>
</g>
</g>
<!-- dir_9b2fd9cd4c1f0925242e13a6eb43f898&#45;&gt;dir_313caf1132e152dd9b58bea13a4052ca -->
<g id="edge1" class="edge">
<title>dir_9b2fd9cd4c1f0925242e13a6eb43f898&#45;&gt;dir_313caf1132e152dd9b58bea13a4052ca</title>
<path fill="none" stroke="black" d="M44.93,-147.32C30.25,-138.34 13.5,-125.09 5.23,-108 -1.74,-93.6 -1.74,-86.4 5.23,-72 11.95,-58.12 24.27,-46.77 36.52,-38.18"/>
<polygon fill="black" stroke="black" points="38.48,-41.09 44.93,-32.68 34.65,-35.23 38.48,-41.09"/>
<g id="a_edge1&#45;headlabel"><a xlink:href="dir_000060_000001.html" target="_top" xlink:title="1">
<text text-anchor="middle" x="37.02" y="-42.93" font-family="Helvetica,sans-Serif" font-size="10.00">1</text>
</a>
</g>
</g>
<!-- dir_72c284cb062a195ef4536e4b2bca98a8 -->
<g id="node5" class="node">
<title>dir_72c284cb062a195ef4536e4b2bca98a8</title>
<g id="a_node5"><a xlink:href="dir_72c284cb062a195ef4536e4b2bca98a8.html" target="_top" xlink:title="bonded_interactions">
<polygon fill="none" stroke="black" points="130.23,-108 14.23,-108 14.23,-72 130.23,-72 130.23,-108"/>
<text text-anchor="middle" x="72.23" y="-87.5" font-family="Helvetica,sans-Serif" font-size="10.00">bonded_interactions</text>
</a>
</g>
</g>
<!-- dir_9b2fd9cd4c1f0925242e13a6eb43f898&#45;&gt;dir_72c284cb062a195ef4536e4b2bca98a8 -->
<g id="edge2" class="edge">
<title>dir_9b2fd9cd4c1f0925242e13a6eb43f898&#45;&gt;dir_72c284cb062a195ef4536e4b2bca98a8</title>
<path fill="none" stroke="black" d="M72.23,-143.7C72.23,-135.98 72.23,-126.71 72.23,-118.11"/>
<polygon fill="black" stroke="black" points="75.73,-118.1 72.23,-108.1 68.73,-118.1 75.73,-118.1"/>
<g id="a_edge2&#45;headlabel"><a xlink:href="dir_000060_000017.html" target="_top" xlink:title="1">
<text text-anchor="middle" x="78.57" y="-119.2" font-family="Helvetica,sans-Serif" font-size="10.00">1</text>
</a>
</g>
</g>
<!-- dir_f602b9cac1a8ddd7f99bb60d99189169 -->
<g id="node3" class="node">
<title>dir_f602b9cac1a8ddd7f99bb60d99189169</title>
<g id="a_node3"><a xlink:href="dir_f602b9cac1a8ddd7f99bb60d99189169.html" target="_top" xlink:title="writer">
<polygon fill="white" stroke="black" points="171.23,-180 117.23,-180 117.23,-144 171.23,-144 171.23,-180"/>
<text text-anchor="middle" x="144.23" y="-159.5" font-family="Helvetica,sans-Serif" font-size="10.00">writer</text>
</a>
</g>
</g>
<!-- dir_f602b9cac1a8ddd7f99bb60d99189169&#45;&gt;dir_313caf1132e152dd9b58bea13a4052ca -->
<g id="edge3" class="edge">
<title>dir_f602b9cac1a8ddd7f99bb60d99189169&#45;&gt;dir_313caf1132e152dd9b58bea13a4052ca</title>
<path fill="none" stroke="black" d="M147.24,-143.85C149.67,-125.08 150.99,-94.66 139.23,-72 132.24,-58.55 120.16,-47.39 108.16,-38.84"/>
<polygon fill="black" stroke="black" points="109.77,-35.71 99.51,-33.08 105.89,-41.53 109.77,-35.71"/>
<g id="a_edge3&#45;headlabel"><a xlink:href="dir_000048_000001.html" target="_top" xlink:title="2">
<text text-anchor="middle" x="114.34" y="-32.84" font-family="Helvetica,sans-Serif" font-size="10.00">2</text>
</a>
</g>
</g>
<!-- dir_72c284cb062a195ef4536e4b2bca98a8&#45;&gt;dir_313caf1132e152dd9b58bea13a4052ca -->
<g id="edge4" class="edge">
<title>dir_72c284cb062a195ef4536e4b2bca98a8&#45;&gt;dir_313caf1132e152dd9b58bea13a4052ca</title>
<path fill="none" stroke="black" d="M72.23,-71.7C72.23,-63.98 72.23,-54.71 72.23,-46.11"/>
<polygon fill="black" stroke="black" points="75.73,-46.1 72.23,-36.1 68.73,-46.1 75.73,-46.1"/>
<g id="a_edge4&#45;headlabel"><a xlink:href="dir_000017_000001.html" target="_top" xlink:title="25">
<text text-anchor="middle" x="78.57" y="-47.2" font-family="Helvetica,sans-Serif" font-size="10.00">25</text>
</a>
</g>
</g>
</g>
</svg>
