<?xml version="1.0" encoding="UTF-8" standalone="no"?>
<!DOCTYPE svg PUBLIC "-//W3C//DTD SVG 1.1//EN"
 "http://www.w3.org/Graphics/SVG/1.1/DTD/svg11.dtd">
<!-- Generated by graphviz version 2.43.0 (0)
 -->
<!-- Title: bonded_interactions Pages: 1 -->
<svg width="445pt" height="223pt"
 viewBox="0.00 0.00 444.97 223.00" xmlns="http://www.w3.org/2000/svg" xmlns:xlink="http://www.w3.org/1999/xlink">
<g id="graph0" class="graph" transform="scale(1 1) rotate(0) translate(4 219)">
<title>bonded_interactions</title>
<g id="clust1" class="cluster">
<title>clusterdir_aebb8dcc11953d78e620bbef0b9e2183</title>
<g id="a_clust1"><a xlink:href="dir_aebb8dcc11953d78e620bbef0b9e2183.html" target="_top" xlink:title="core">
<polygon fill="#ddddee" stroke="black" points="128.06,-136 128.06,-207 260.06,-207 260.06,-136 128.06,-136"/>
<text text-anchor="middle" x="194.06" y="-195" font-family="Helvetica,sans-Serif" font-size="10.00">core</text>
</a>
</g>
</g>
<!-- dir_72c284cb062a195ef4536e4b2bca98a8 -->
<g id="node1" class="node">
<title>dir_72c284cb062a195ef4536e4b2bca98a8</title>
<g id="a_node1"><a xlink:href="dir_72c284cb062a195ef4536e4b2bca98a8.html" target="_top" xlink:title="bonded_interactions">
<polygon fill="#eeeeff" stroke="black" points="252.06,-180 136.06,-180 136.06,-144 252.06,-144 252.06,-180"/>
<text text-anchor="middle" x="194.06" y="-159.5" font-family="Helvetica,sans-Serif" font-size="10.00">bonded_interactions</text>
</a>
</g>
</g>
<!-- dir_4d7958d25db4602a7196d720047f2bd0 -->
<g id="node2" class="node">
<title>dir_4d7958d25db4602a7196d720047f2bd0</title>
<g id="a_node2"><a xlink:href="dir_4d7958d25db4602a7196d720047f2bd0.html" target="_top" xlink:title="object&#45;in&#45;fluid">
<polygon fill="none" stroke="black" points="236.56,-108 151.56,-108 151.56,-72 236.56,-72 236.56,-108"/>
<text text-anchor="middle" x="194.06" y="-87.5" font-family="Helvetica,sans-Serif" font-size="10.00">object&#45;in&#45;fluid</text>
</a>
</g>
</g>
<!-- dir_72c284cb062a195ef4536e4b2bca98a8&#45;&gt;dir_4d7958d25db4602a7196d720047f2bd0 -->
<g id="edge9" class="edge">
<title>dir_72c284cb062a195ef4536e4b2bca98a8&#45;&gt;dir_4d7958d25db4602a7196d720047f2bd0</title>
<path fill="none" stroke="black" d="M188.14,-143.7C187.35,-135.98 187.12,-126.71 187.46,-118.11"/>
<polygon fill="black" stroke="black" points="190.96,-118.32 188.16,-108.1 183.97,-117.84 190.96,-118.32"/>
<g id="a_edge9&#45;headlabel"><a xlink:href="dir_000017_000061.html" target="_top" xlink:title="2">
<text text-anchor="middle" x="193.54" y="-119.61" font-family="Helvetica,sans-Serif" font-size="10.00">2</text>
</a>
</g>
</g>
<!-- dir_7e83d1792d529f4aa7126ac7e0b3b699 -->
<g id="node3" class="node">
<title>dir_7e83d1792d529f4aa7126ac7e0b3b699</title>
<g id="a_node3"><a xlink:href="dir_7e83d1792d529f4aa7126ac7e0b3b699.html" target="_top" xlink:title="config">
<polygon fill="none" stroke="black" points="173.06,-36 119.06,-36 119.06,0 173.06,0 173.06,-36"/>
<text text-anchor="middle" x="146.06" y="-15.5" font-family="Helvetica,sans-Serif" font-size="10.00">config</text>
</a>
</g>
</g>
<!-- dir_72c284cb062a195ef4536e4b2bca98a8&#45;&gt;dir_7e83d1792d529f4aa7126ac7e0b3b699 -->
<g id="edge10" class="edge">
<title>dir_72c284cb062a195ef4536e4b2bca98a8&#45;&gt;dir_7e83d1792d529f4aa7126ac7e0b3b699</title>
<path fill="none" stroke="black" d="M135.64,-152.25C86.8,-143.6 22.68,-128.66 7.06,-108 -2.59,-95.24 -2.02,-85.18 7.06,-72 29.73,-39.09 75.79,-26.6 108.67,-21.87"/>
<polygon fill="black" stroke="black" points="109.35,-25.31 118.84,-20.59 108.48,-18.37 109.35,-25.31"/>
<g id="a_edge10&#45;headlabel"><a xlink:href="dir_000017_000032.html" target="_top" xlink:title="7">
<text text-anchor="middle" x="106.14" y="-26.08" font-family="Helvetica,sans-Serif" font-size="10.00">7</text>
</a>
</g>
</g>
<!-- dir_6b7c06b7a7a76c60d0c114007966a512 -->
<g id="node4" class="node">
<title>dir_6b7c06b7a7a76c60d0c114007966a512</title>
<g id="a_node4"><a xlink:href="dir_6b7c06b7a7a76c60d0c114007966a512.html" target="_top" xlink:title="electrostatics_magnetostatics">
<polygon fill="none" stroke="black" points="419.06,-108 255.06,-108 255.06,-72 419.06,-72 419.06,-108"/>
<text text-anchor="middle" x="337.06" y="-87.5" font-family="Helvetica,sans-Serif" font-size="10.00">electrostatics_magnetostatics</text>
</a>
</g>
</g>
<!-- dir_72c284cb062a195ef4536e4b2bca98a8&#45;&gt;dir_6b7c06b7a7a76c60d0c114007966a512 -->
<g id="edge11" class="edge">
<title>dir_72c284cb062a195ef4536e4b2bca98a8&#45;&gt;dir_6b7c06b7a7a76c60d0c114007966a512</title>
<path fill="none" stroke="black" d="M229.04,-143.88C248.26,-134.47 272.28,-122.71 292.79,-112.67"/>
<polygon fill="black" stroke="black" points="294.5,-115.73 301.94,-108.19 291.42,-109.44 294.5,-115.73"/>
<g id="a_edge11&#45;headlabel"><a xlink:href="dir_000017_000031.html" target="_top" xlink:title="1">
<text text-anchor="middle" x="292.52" y="-117.36" font-family="Helvetica,sans-Serif" font-size="10.00">1</text>
</a>
</g>
</g>
<!-- dir_e2b24987bc33c075693c8e95c89d3efb -->
<g id="node5" class="node">
<title>dir_e2b24987bc33c075693c8e95c89d3efb</title>
<g id="a_node5"><a xlink:href="dir_e2b24987bc33c075693c8e95c89d3efb.html" target="_top" xlink:title="immersed_boundary">
<polygon fill="none" stroke="black" points="133.56,-108 16.56,-108 16.56,-72 133.56,-72 133.56,-108"/>
<text text-anchor="middle" x="75.06" y="-87.5" font-family="Helvetica,sans-Serif" font-size="10.00">immersed_boundary</text>
</a>
</g>
</g>
<!-- dir_72c284cb062a195ef4536e4b2bca98a8&#45;&gt;dir_e2b24987bc33c075693c8e95c89d3efb -->
<g id="edge12" class="edge">
<title>dir_72c284cb062a195ef4536e4b2bca98a8&#45;&gt;dir_e2b24987bc33c075693c8e95c89d3efb</title>
<path fill="none" stroke="black" d="M159.05,-143.88C142.53,-134.72 123.03,-123.34 106.93,-113.48"/>
<polygon fill="black" stroke="black" points="108.72,-110.48 98.38,-108.19 105.04,-116.43 108.72,-110.48"/>
<g id="a_edge12&#45;headlabel"><a xlink:href="dir_000017_000049.html" target="_top" xlink:title="3">
<text text-anchor="middle" x="113.27" y="-107.45" font-family="Helvetica,sans-Serif" font-size="10.00">3</text>
</a>
</g>
</g>
<!-- dir_313caf1132e152dd9b58bea13a4052ca -->
<g id="node6" class="node">
<title>dir_313caf1132e152dd9b58bea13a4052ca</title>
<g id="a_node6"><a xlink:href="dir_313caf1132e152dd9b58bea13a4052ca.html" target="_top" xlink:title="utils">
<polygon fill="none" stroke="red" points="268.06,-36 214.06,-36 214.06,0 268.06,0 268.06,-36"/>
<text text-anchor="middle" x="241.06" y="-15.5" font-family="Helvetica,sans-Serif" font-size="10.00">utils</text>
</a>
</g>
</g>
<!-- dir_72c284cb062a195ef4536e4b2bca98a8&#45;&gt;dir_313caf1132e152dd9b58bea13a4052ca -->
<g id="edge13" class="edge">
<title>dir_72c284cb062a195ef4536e4b2bca98a8&#45;&gt;dir_313caf1132e152dd9b58bea13a4052ca</title>
<path fill="none" stroke="black" d="M252.21,-156C314.22,-149.32 406.45,-135.05 428.06,-108 471.19,-54 344.13,-30.92 278.13,-22.77"/>
<polygon fill="black" stroke="black" points="278.44,-19.28 268.1,-21.58 277.62,-26.23 278.44,-19.28"/>
<g id="a_edge13&#45;headlabel"><a xlink:href="dir_000017_000001.html" target="_top" xlink:title="25">
<text text-anchor="middle" x="282.34" y="-14.38" font-family="Helvetica,sans-Serif" font-size="10.00">25</text>
</a>
</g>
</g>
<!-- dir_4d7958d25db4602a7196d720047f2bd0&#45;&gt;dir_72c284cb062a195ef4536e4b2bca98a8 -->
<g id="edge3" class="edge">
<title>dir_4d7958d25db4602a7196d720047f2bd0&#45;&gt;dir_72c284cb062a195ef4536e4b2bca98a8</title>
<path fill="none" stroke="black" d="M199.95,-108.1C200.76,-115.79 200.99,-125.05 200.66,-133.67"/>
<polygon fill="black" stroke="black" points="197.17,-133.48 199.97,-143.7 204.15,-133.96 197.17,-133.48"/>
<g id="a_edge3&#45;headlabel"><a xlink:href="dir_000061_000017.html" target="_top" xlink:title="1">
<text text-anchor="middle" x="194.58" y="-127.2" font-family="Helvetica,sans-Serif" font-size="10.00">1</text>
</a>
</g>
</g>
<!-- dir_4d7958d25db4602a7196d720047f2bd0&#45;&gt;dir_7e83d1792d529f4aa7126ac7e0b3b699 -->
<g id="edge1" class="edge">
<title>dir_4d7958d25db4602a7196d720047f2bd0&#45;&gt;dir_7e83d1792d529f4aa7126ac7e0b3b699</title>
<path fill="none" stroke="black" d="M182.19,-71.7C176.55,-63.47 169.7,-53.48 163.49,-44.42"/>
<polygon fill="black" stroke="black" points="166.33,-42.37 157.79,-36.1 160.56,-46.33 166.33,-42.37"/>
<g id="a_edge1&#45;headlabel"><a xlink:href="dir_000061_000032.html" target="_top" xlink:title="1">
<text text-anchor="middle" x="170.7" y="-41.23" font-family="Helvetica,sans-Serif" font-size="10.00">1</text>
</a>
</g>
</g>
<!-- dir_4d7958d25db4602a7196d720047f2bd0&#45;&gt;dir_313caf1132e152dd9b58bea13a4052ca -->
<g id="edge2" class="edge">
<title>dir_4d7958d25db4602a7196d720047f2bd0&#45;&gt;dir_313caf1132e152dd9b58bea13a4052ca</title>
<path fill="none" stroke="black" d="M205.68,-71.7C211.2,-63.47 217.9,-53.48 223.99,-44.42"/>
<polygon fill="black" stroke="black" points="226.9,-46.36 229.57,-36.1 221.09,-42.46 226.9,-46.36"/>
<g id="a_edge2&#45;headlabel"><a xlink:href="dir_000061_000001.html" target="_top" xlink:title="8">
<text text-anchor="middle" x="227.26" y="-48.42" font-family="Helvetica,sans-Serif" font-size="10.00">8</text>
</a>
</g>
</g>
<!-- dir_6b7c06b7a7a76c60d0c114007966a512&#45;&gt;dir_7e83d1792d529f4aa7126ac7e0b3b699 -->
<g id="edge4" class="edge">
<title>dir_6b7c06b7a7a76c60d0c114007966a512&#45;&gt;dir_7e83d1792d529f4aa7126ac7e0b3b699</title>
<path fill="none" stroke="black" d="M290.33,-71.88C257.15,-59.71 213.22,-43.62 182.59,-32.39"/>
<polygon fill="black" stroke="black" points="183.74,-29.08 173.15,-28.93 181.33,-35.65 183.74,-29.08"/>
<g id="a_edge4&#45;headlabel"><a xlink:href="dir_000031_000032.html" target="_top" xlink:title="35">
<text text-anchor="middle" x="188.09" y="-25.15" font-family="Helvetica,sans-Serif" font-size="10.00">35</text>
</a>
</g>
</g>
<!-- dir_6b7c06b7a7a76c60d0c114007966a512&#45;&gt;dir_313caf1132e152dd9b58bea13a4052ca -->
<g id="edge5" class="edge">
<title>dir_6b7c06b7a7a76c60d0c114007966a512&#45;&gt;dir_313caf1132e152dd9b58bea13a4052ca</title>
<path fill="none" stroke="black" d="M313.33,-71.7C301.12,-62.8 286.07,-51.82 272.87,-42.2"/>
<polygon fill="black" stroke="black" points="274.66,-39.17 264.52,-36.1 270.53,-44.82 274.66,-39.17"/>
<g id="a_edge5&#45;headlabel"><a xlink:href="dir_000031_000001.html" target="_top" xlink:title="93">
<text text-anchor="middle" x="279.23" y="-36.49" font-family="Helvetica,sans-Serif" font-size="10.00">93</text>
</a>
</g>
</g>
<!-- dir_e2b24987bc33c075693c8e95c89d3efb&#45;&gt;dir_72c284cb062a195ef4536e4b2bca98a8 -->
<g id="edge8" class="edge">
<title>dir_e2b24987bc33c075693c8e95c89d3efb&#45;&gt;dir_72c284cb062a195ef4536e4b2bca98a8</title>
<path fill="none" stroke="black" d="M110.18,-108.19C126.72,-117.35 146.21,-128.74 162.3,-138.59"/>
<polygon fill="black" stroke="black" points="160.5,-141.59 170.84,-143.88 164.18,-135.64 160.5,-141.59"/>
<g id="a_edge8&#45;headlabel"><a xlink:href="dir_000049_000017.html" target="_top" xlink:title="1">
<text text-anchor="middle" x="155.95" y="-139.61" font-family="Helvetica,sans-Serif" font-size="10.00">1</text>
</a>
</g>
</g>
<!-- dir_e2b24987bc33c075693c8e95c89d3efb&#45;&gt;dir_7e83d1792d529f4aa7126ac7e0b3b699 -->
<g id="edge6" class="edge">
<title>dir_e2b24987bc33c075693c8e95c89d3efb&#45;&gt;dir_7e83d1792d529f4aa7126ac7e0b3b699</title>
<path fill="none" stroke="black" d="M92.61,-71.7C101.29,-63.14 111.92,-52.66 121.41,-43.3"/>
<polygon fill="black" stroke="black" points="124.05,-45.62 128.71,-36.1 119.13,-40.63 124.05,-45.62"/>
<g id="a_edge6&#45;headlabel"><a xlink:href="dir_000049_000032.html" target="_top" xlink:title="3">
<text text-anchor="middle" x="123.48" y="-47.66" font-family="Helvetica,sans-Serif" font-size="10.00">3</text>
</a>
</g>
</g>
<!-- dir_e2b24987bc33c075693c8e95c89d3efb&#45;&gt;dir_313caf1132e152dd9b58bea13a4052ca -->
<g id="edge7" class="edge">
<title>dir_e2b24987bc33c075693c8e95c89d3efb&#45;&gt;dir_313caf1132e152dd9b58bea13a4052ca</title>
<path fill="none" stroke="black" d="M115.67,-71.88C142.85,-60.41 178.33,-45.45 204.61,-34.37"/>
<polygon fill="black" stroke="black" points="205.99,-37.59 213.84,-30.48 203.27,-31.14 205.99,-37.59"/>
<g id="a_edge7&#45;headlabel"><a xlink:href="dir_000049_000001.html" target="_top" xlink:title="9">
<text text-anchor="middle" x="203.78" y="-39.1" font-family="Helvetica,sans-Serif" font-size="10.00">9</text>
</a>
</g>
</g>
</g>
</svg>
