<?xml version="1.0" encoding="UTF-8" standalone="no"?>
<!DOCTYPE svg PUBLIC "-//W3C//DTD SVG 1.1//EN"
 "http://www.w3.org/Graphics/SVG/1.1/DTD/svg11.dtd">
<!-- Generated by graphviz version 2.43.0 (0)
 -->
<!-- Title: electrostatics_magnetostatics Pages: 1 -->
<svg width="339pt" height="223pt"
 viewBox="0.00 0.00 338.97 223.00" xmlns="http://www.w3.org/2000/svg" xmlns:xlink="http://www.w3.org/1999/xlink">
<g id="graph0" class="graph" transform="scale(1 1) rotate(0) translate(4 219)">
<title>electrostatics_magnetostatics</title>
<g id="clust1" class="cluster">
<title>clusterdir_aebb8dcc11953d78e620bbef0b9e2183</title>
<g id="a_clust1"><a xlink:href="dir_aebb8dcc11953d78e620bbef0b9e2183.html" target="_top" xlink:title="core">
<polygon fill="#ddddee" stroke="black" points="98.47,-136 98.47,-207 278.47,-207 278.47,-136 98.47,-136"/>
<text text-anchor="middle" x="188.47" y="-195" font-family="Helvetica,sans-Serif" font-size="10.00">core</text>
</a>
</g>
</g>
<!-- dir_6b7c06b7a7a76c60d0c114007966a512 -->
<g id="node1" class="node">
<title>dir_6b7c06b7a7a76c60d0c114007966a512</title>
<g id="a_node1"><a xlink:href="dir_6b7c06b7a7a76c60d0c114007966a512.html" target="_top" xlink:title="electrostatics_magnetostatics">
<polygon fill="#eeeeff" stroke="black" points="270.47,-180 106.47,-180 106.47,-144 270.47,-144 270.47,-180"/>
<text text-anchor="middle" x="188.47" y="-159.5" font-family="Helvetica,sans-Serif" font-size="10.00">electrostatics_magnetostatics</text>
</a>
</g>
</g>
<!-- dir_7e83d1792d529f4aa7126ac7e0b3b699 -->
<g id="node2" class="node">
<title>dir_7e83d1792d529f4aa7126ac7e0b3b699</title>
<g id="a_node2"><a xlink:href="dir_7e83d1792d529f4aa7126ac7e0b3b699.html" target="_top" xlink:title="config">
<polygon fill="none" stroke="black" points="106.47,-36 52.47,-36 52.47,0 106.47,0 106.47,-36"/>
<text text-anchor="middle" x="79.47" y="-15.5" font-family="Helvetica,sans-Serif" font-size="10.00">config</text>
</a>
</g>
</g>
<!-- dir_6b7c06b7a7a76c60d0c114007966a512&#45;&gt;dir_7e83d1792d529f4aa7126ac7e0b3b699 -->
<g id="edge4" class="edge">
<title>dir_6b7c06b7a7a76c60d0c114007966a512&#45;&gt;dir_7e83d1792d529f4aa7126ac7e0b3b699</title>
<path fill="none" stroke="black" d="M106.46,-147.03C64.26,-137.99 19.06,-124.78 6.47,-108 -3.13,-95.2 -0.79,-86.25 6.47,-72 14.42,-56.4 29.35,-44.32 43.65,-35.66"/>
<polygon fill="black" stroke="black" points="45.42,-38.67 52.4,-30.7 41.97,-32.58 45.42,-38.67"/>
<g id="a_edge4&#45;headlabel"><a xlink:href="dir_000031_000032.html" target="_top" xlink:title="35">
<text text-anchor="middle" x="43.69" y="-40.42" font-family="Helvetica,sans-Serif" font-size="10.00">35</text>
</a>
</g>
</g>
<!-- dir_7dbd9d3bbc5ec1ce3207b09771479ec4 -->
<g id="node3" class="node">
<title>dir_7dbd9d3bbc5ec1ce3207b09771479ec4</title>
<g id="a_node3"><a xlink:href="dir_7dbd9d3bbc5ec1ce3207b09771479ec4.html" target="_top" xlink:title="actor">
<polygon fill="none" stroke="black" points="215.47,-108 161.47,-108 161.47,-72 215.47,-72 215.47,-108"/>
<text text-anchor="middle" x="188.47" y="-87.5" font-family="Helvetica,sans-Serif" font-size="10.00">actor</text>
</a>
</g>
</g>
<!-- dir_6b7c06b7a7a76c60d0c114007966a512&#45;&gt;dir_7dbd9d3bbc5ec1ce3207b09771479ec4 -->
<g id="edge5" class="edge">
<title>dir_6b7c06b7a7a76c60d0c114007966a512&#45;&gt;dir_7dbd9d3bbc5ec1ce3207b09771479ec4</title>
<path fill="none" stroke="black" d="M182.56,-143.7C181.76,-135.98 181.53,-126.71 181.88,-118.11"/>
<polygon fill="black" stroke="black" points="185.37,-118.32 182.58,-108.1 178.39,-117.84 185.37,-118.32"/>
<g id="a_edge5&#45;headlabel"><a xlink:href="dir_000031_000010.html" target="_top" xlink:title="2">
<text text-anchor="middle" x="187.95" y="-119.61" font-family="Helvetica,sans-Serif" font-size="10.00">2</text>
</a>
</g>
</g>
<!-- dir_6b1bc8dbed61aad9285ea21a86c5efa5 -->
<g id="node4" class="node">
<title>dir_6b1bc8dbed61aad9285ea21a86c5efa5</title>
<g id="a_node4"><a xlink:href="dir_6b1bc8dbed61aad9285ea21a86c5efa5.html" target="_top" xlink:title="scafacos">
<polygon fill="none" stroke="black" points="330.97,-108 271.97,-108 271.97,-72 330.97,-72 330.97,-108"/>
<text text-anchor="middle" x="301.47" y="-87.5" font-family="Helvetica,sans-Serif" font-size="10.00">scafacos</text>
</a>
</g>
</g>
<!-- dir_6b7c06b7a7a76c60d0c114007966a512&#45;&gt;dir_6b1bc8dbed61aad9285ea21a86c5efa5 -->
<g id="edge6" class="edge">
<title>dir_6b7c06b7a7a76c60d0c114007966a512&#45;&gt;dir_6b1bc8dbed61aad9285ea21a86c5efa5</title>
<path fill="none" stroke="black" d="M216.11,-143.88C230.89,-134.72 249.26,-123.34 265.17,-113.48"/>
<polygon fill="black" stroke="black" points="267.06,-116.43 273.72,-108.19 263.38,-110.48 267.06,-116.43"/>
<g id="a_edge6&#45;headlabel"><a xlink:href="dir_000031_000067.html" target="_top" xlink:title="2">
<text text-anchor="middle" x="265.5" y="-118.24" font-family="Helvetica,sans-Serif" font-size="10.00">2</text>
</a>
</g>
</g>
<!-- dir_71fbd1fadb2683aa04f911343186866e -->
<g id="node5" class="node">
<title>dir_71fbd1fadb2683aa04f911343186866e</title>
<g id="a_node5"><a xlink:href="dir_71fbd1fadb2683aa04f911343186866e.html" target="_top" xlink:title="grid_based_algorithms">
<polygon fill="none" stroke="red" points="143.47,-108 15.47,-108 15.47,-72 143.47,-72 143.47,-108"/>
<text text-anchor="middle" x="79.47" y="-87.5" font-family="Helvetica,sans-Serif" font-size="10.00">grid_based_algorithms</text>
</a>
</g>
</g>
<!-- dir_6b7c06b7a7a76c60d0c114007966a512&#45;&gt;dir_71fbd1fadb2683aa04f911343186866e -->
<g id="edge7" class="edge">
<title>dir_6b7c06b7a7a76c60d0c114007966a512&#45;&gt;dir_71fbd1fadb2683aa04f911343186866e</title>
<path fill="none" stroke="black" d="M161.81,-143.88C147.69,-134.81 130.16,-123.55 114.91,-113.76"/>
<polygon fill="black" stroke="black" points="116.54,-110.65 106.24,-108.19 112.76,-116.54 116.54,-110.65"/>
<g id="a_edge7&#45;headlabel"><a xlink:href="dir_000031_000045.html" target="_top" xlink:title="1">
<text text-anchor="middle" x="121.1" y="-107.7" font-family="Helvetica,sans-Serif" font-size="10.00">1</text>
</a>
</g>
</g>
<!-- dir_313caf1132e152dd9b58bea13a4052ca -->
<g id="node6" class="node">
<title>dir_313caf1132e152dd9b58bea13a4052ca</title>
<g id="a_node6"><a xlink:href="dir_313caf1132e152dd9b58bea13a4052ca.html" target="_top" xlink:title="utils">
<polygon fill="none" stroke="red" points="215.47,-36 161.47,-36 161.47,0 215.47,0 215.47,-36"/>
<text text-anchor="middle" x="188.47" y="-15.5" font-family="Helvetica,sans-Serif" font-size="10.00">utils</text>
</a>
</g>
</g>
<!-- dir_6b7c06b7a7a76c60d0c114007966a512&#45;&gt;dir_313caf1132e152dd9b58bea13a4052ca -->
<g id="edge8" class="edge">
<title>dir_6b7c06b7a7a76c60d0c114007966a512&#45;&gt;dir_313caf1132e152dd9b58bea13a4052ca</title>
<path fill="none" stroke="black" d="M204.08,-143.77C211.84,-134.03 220.42,-121.18 224.47,-108 229.17,-92.71 229.17,-87.29 224.47,-72 221.46,-62.22 215.96,-52.62 210.16,-44.33"/>
<polygon fill="black" stroke="black" points="212.88,-42.13 204.08,-36.23 207.28,-46.33 212.88,-42.13"/>
<g id="a_edge8&#45;headlabel"><a xlink:href="dir_000031_000001.html" target="_top" xlink:title="93">
<text text-anchor="middle" x="217.31" y="-40.8" font-family="Helvetica,sans-Serif" font-size="10.00">93</text>
</a>
</g>
</g>
<!-- dir_7dbd9d3bbc5ec1ce3207b09771479ec4&#45;&gt;dir_6b7c06b7a7a76c60d0c114007966a512 -->
<g id="edge2" class="edge">
<title>dir_7dbd9d3bbc5ec1ce3207b09771479ec4&#45;&gt;dir_6b7c06b7a7a76c60d0c114007966a512</title>
<path fill="none" stroke="black" d="M194.37,-108.1C195.17,-115.79 195.41,-125.05 195.08,-133.67"/>
<polygon fill="black" stroke="black" points="191.58,-133.48 194.39,-143.7 198.56,-133.96 191.58,-133.48"/>
<g id="a_edge2&#45;headlabel"><a xlink:href="dir_000010_000031.html" target="_top" xlink:title="7">
<text text-anchor="middle" x="188.99" y="-127.2" font-family="Helvetica,sans-Serif" font-size="10.00">7</text>
</a>
</g>
</g>
<!-- dir_7dbd9d3bbc5ec1ce3207b09771479ec4&#45;&gt;dir_7e83d1792d529f4aa7126ac7e0b3b699 -->
<g id="edge1" class="edge">
<title>dir_7dbd9d3bbc5ec1ce3207b09771479ec4&#45;&gt;dir_7e83d1792d529f4aa7126ac7e0b3b699</title>
<path fill="none" stroke="black" d="M161.81,-71.88C147.69,-62.81 130.16,-51.55 114.91,-41.76"/>
<polygon fill="black" stroke="black" points="116.54,-38.65 106.24,-36.19 112.76,-44.54 116.54,-38.65"/>
<g id="a_edge1&#45;headlabel"><a xlink:href="dir_000010_000032.html" target="_top" xlink:title="11">
<text text-anchor="middle" x="121.1" y="-35.7" font-family="Helvetica,sans-Serif" font-size="10.00">11</text>
</a>
</g>
</g>
<!-- dir_7dbd9d3bbc5ec1ce3207b09771479ec4&#45;&gt;dir_313caf1132e152dd9b58bea13a4052ca -->
<g id="edge3" class="edge">
<title>dir_7dbd9d3bbc5ec1ce3207b09771479ec4&#45;&gt;dir_313caf1132e152dd9b58bea13a4052ca</title>
<path fill="none" stroke="black" d="M188.47,-71.7C188.47,-63.98 188.47,-54.71 188.47,-46.11"/>
<polygon fill="black" stroke="black" points="191.97,-46.1 188.47,-36.1 184.97,-46.1 191.97,-46.1"/>
<g id="a_edge3&#45;headlabel"><a xlink:href="dir_000010_000001.html" target="_top" xlink:title="3">
<text text-anchor="middle" x="194.81" y="-47.2" font-family="Helvetica,sans-Serif" font-size="10.00">3</text>
</a>
</g>
</g>
<!-- dir_71fbd1fadb2683aa04f911343186866e&#45;&gt;dir_7e83d1792d529f4aa7126ac7e0b3b699 -->
<g id="edge9" class="edge">
<title>dir_71fbd1fadb2683aa04f911343186866e&#45;&gt;dir_7e83d1792d529f4aa7126ac7e0b3b699</title>
<path fill="none" stroke="black" d="M79.47,-71.7C79.47,-63.98 79.47,-54.71 79.47,-46.11"/>
<polygon fill="black" stroke="black" points="82.97,-46.1 79.47,-36.1 75.97,-46.1 82.97,-46.1"/>
<g id="a_edge9&#45;headlabel"><a xlink:href="dir_000045_000032.html" target="_top" xlink:title="15">
<text text-anchor="middle" x="85.81" y="-47.2" font-family="Helvetica,sans-Serif" font-size="10.00">15</text>
</a>
</g>
</g>
<!-- dir_71fbd1fadb2683aa04f911343186866e&#45;&gt;dir_313caf1132e152dd9b58bea13a4052ca -->
<g id="edge10" class="edge">
<title>dir_71fbd1fadb2683aa04f911343186866e&#45;&gt;dir_313caf1132e152dd9b58bea13a4052ca</title>
<path fill="none" stroke="black" d="M106.14,-71.88C120.26,-62.81 137.78,-51.55 153.03,-41.76"/>
<polygon fill="black" stroke="black" points="155.18,-44.54 161.7,-36.19 151.4,-38.65 155.18,-44.54"/>
<g id="a_edge10&#45;headlabel"><a xlink:href="dir_000045_000001.html" target="_top" xlink:title="40">
<text text-anchor="middle" x="153.69" y="-46.37" font-family="Helvetica,sans-Serif" font-size="10.00">40</text>
</a>
</g>
</g>
</g>
</svg>
