<?xml version="1.0" encoding="UTF-8" standalone="no"?>
<!DOCTYPE svg PUBLIC "-//W3C//DTD SVG 1.1//EN"
 "http://www.w3.org/Graphics/SVG/1.1/DTD/svg11.dtd">
<!-- Generated by graphviz version 2.43.0 (0)
 -->
<!-- Title: object&#45;in&#45;fluid Pages: 1 -->
<svg width="244pt" height="151pt"
 viewBox="0.00 0.00 244.00 151.00" xmlns="http://www.w3.org/2000/svg" xmlns:xlink="http://www.w3.org/1999/xlink">
<g id="graph0" class="graph" transform="scale(1 1) rotate(0) translate(4 147)">
<title>object&#45;in&#45;fluid</title>
<g id="clust1" class="cluster">
<title>clusterdir_aebb8dcc11953d78e620bbef0b9e2183</title>
<g id="a_clust1"><a xlink:href="dir_aebb8dcc11953d78e620bbef0b9e2183.html" target="_top" xlink:title="core">
<polygon fill="#ddddee" stroke="black" points="8,-64 8,-135 110,-135 110,-64 8,-64"/>
<text text-anchor="middle" x="59" y="-123" font-family="Helvetica,sans-Serif" font-size="10.00">core</text>
</a>
</g>
</g>
<!-- dir_4d7958d25db4602a7196d720047f2bd0 -->
<g id="node1" class="node">
<title>dir_4d7958d25db4602a7196d720047f2bd0</title>
<g id="a_node1"><a xlink:href="dir_4d7958d25db4602a7196d720047f2bd0.html" target="_top" xlink:title="object&#45;in&#45;fluid">
<polygon fill="#eeeeff" stroke="black" points="101.5,-108 16.5,-108 16.5,-72 101.5,-72 101.5,-108"/>
<text text-anchor="middle" x="59" y="-87.5" font-family="Helvetica,sans-Serif" font-size="10.00">object&#45;in&#45;fluid</text>
</a>
</g>
</g>
<!-- dir_7e83d1792d529f4aa7126ac7e0b3b699 -->
<g id="node2" class="node">
<title>dir_7e83d1792d529f4aa7126ac7e0b3b699</title>
<g id="a_node2"><a xlink:href="dir_7e83d1792d529f4aa7126ac7e0b3b699.html" target="_top" xlink:title="config">
<polygon fill="none" stroke="black" points="109,-36 55,-36 55,0 109,0 109,-36"/>
<text text-anchor="middle" x="82" y="-15.5" font-family="Helvetica,sans-Serif" font-size="10.00">config</text>
</a>
</g>
</g>
<!-- dir_4d7958d25db4602a7196d720047f2bd0&#45;&gt;dir_7e83d1792d529f4aa7126ac7e0b3b699 -->
<g id="edge1" class="edge">
<title>dir_4d7958d25db4602a7196d720047f2bd0&#45;&gt;dir_7e83d1792d529f4aa7126ac7e0b3b699</title>
<path fill="none" stroke="black" d="M64.69,-71.7C67.25,-63.9 70.33,-54.51 73.18,-45.83"/>
<polygon fill="black" stroke="black" points="76.58,-46.7 76.38,-36.1 69.93,-44.51 76.58,-46.7"/>
<g id="a_edge1&#45;headlabel"><a xlink:href="dir_000061_000032.html" target="_top" xlink:title="1">
<text text-anchor="middle" x="78.16" y="-48.5" font-family="Helvetica,sans-Serif" font-size="10.00">1</text>
</a>
</g>
</g>
<!-- dir_313caf1132e152dd9b58bea13a4052ca -->
<g id="node3" class="node">
<title>dir_313caf1132e152dd9b58bea13a4052ca</title>
<g id="a_node3"><a xlink:href="dir_313caf1132e152dd9b58bea13a4052ca.html" target="_top" xlink:title="utils">
<polygon fill="none" stroke="red" points="193,-36 139,-36 139,0 193,0 193,-36"/>
<text text-anchor="middle" x="166" y="-15.5" font-family="Helvetica,sans-Serif" font-size="10.00">utils</text>
</a>
</g>
</g>
<!-- dir_4d7958d25db4602a7196d720047f2bd0&#45;&gt;dir_313caf1132e152dd9b58bea13a4052ca -->
<g id="edge2" class="edge">
<title>dir_4d7958d25db4602a7196d720047f2bd0&#45;&gt;dir_313caf1132e152dd9b58bea13a4052ca</title>
<path fill="none" stroke="black" d="M85.18,-71.88C99.04,-62.81 116.24,-51.55 131.21,-41.76"/>
<polygon fill="black" stroke="black" points="133.27,-44.59 139.72,-36.19 129.44,-38.74 133.27,-44.59"/>
<g id="a_edge2&#45;headlabel"><a xlink:href="dir_000061_000001.html" target="_top" xlink:title="8">
<text text-anchor="middle" x="131.82" y="-46.44" font-family="Helvetica,sans-Serif" font-size="10.00">8</text>
</a>
</g>
</g>
<!-- dir_72c284cb062a195ef4536e4b2bca98a8 -->
<g id="node4" class="node">
<title>dir_72c284cb062a195ef4536e4b2bca98a8</title>
<g id="a_node4"><a xlink:href="dir_72c284cb062a195ef4536e4b2bca98a8.html" target="_top" xlink:title="bonded_interactions">
<polygon fill="none" stroke="black" points="236,-108 120,-108 120,-72 236,-72 236,-108"/>
<text text-anchor="middle" x="178" y="-87.5" font-family="Helvetica,sans-Serif" font-size="10.00">bonded_interactions</text>
</a>
</g>
</g>
<!-- dir_4d7958d25db4602a7196d720047f2bd0&#45;&gt;dir_72c284cb062a195ef4536e4b2bca98a8 -->
<g id="edge3" class="edge">
<title>dir_4d7958d25db4602a7196d720047f2bd0&#45;&gt;dir_72c284cb062a195ef4536e4b2bca98a8</title>
<path fill="none" stroke="black" d="M101.77,-90C104.41,-90 107.06,-90 109.71,-90"/>
<polygon fill="black" stroke="black" points="109.93,-93.5 119.93,-90 109.93,-86.5 109.93,-93.5"/>
<g id="a_edge3&#45;headlabel"><a xlink:href="dir_000061_000017.html" target="_top" xlink:title="1">
<text text-anchor="middle" x="106.34" y="-93.84" font-family="Helvetica,sans-Serif" font-size="10.00">1</text>
</a>
</g>
</g>
<!-- dir_72c284cb062a195ef4536e4b2bca98a8&#45;&gt;dir_4d7958d25db4602a7196d720047f2bd0 -->
<g id="edge4" class="edge">
<title>dir_72c284cb062a195ef4536e4b2bca98a8&#45;&gt;dir_4d7958d25db4602a7196d720047f2bd0</title>
<path fill="none" stroke="black" d="M119.93,-90C117.28,-90 114.63,-90 111.98,-90"/>
<polygon fill="black" stroke="black" points="111.77,-86.5 101.77,-90 111.77,-93.5 111.77,-86.5"/>
<g id="a_edge4&#45;headlabel"><a xlink:href="dir_000017_000061.html" target="_top" xlink:title="2">
<text text-anchor="middle" x="115.36" y="-81.16" font-family="Helvetica,sans-Serif" font-size="10.00">2</text>
</a>
</g>
</g>
<!-- dir_72c284cb062a195ef4536e4b2bca98a8&#45;&gt;dir_7e83d1792d529f4aa7126ac7e0b3b699 -->
<g id="edge5" class="edge">
<title>dir_72c284cb062a195ef4536e4b2bca98a8&#45;&gt;dir_7e83d1792d529f4aa7126ac7e0b3b699</title>
<path fill="none" stroke="black" d="M154.27,-71.7C142.06,-62.8 127.01,-51.82 113.82,-42.2"/>
<polygon fill="black" stroke="black" points="115.6,-39.17 105.46,-36.1 111.48,-44.82 115.6,-39.17"/>
<g id="a_edge5&#45;headlabel"><a xlink:href="dir_000017_000032.html" target="_top" xlink:title="7">
<text text-anchor="middle" x="120.18" y="-36.49" font-family="Helvetica,sans-Serif" font-size="10.00">7</text>
</a>
</g>
</g>
<!-- dir_72c284cb062a195ef4536e4b2bca98a8&#45;&gt;dir_313caf1132e152dd9b58bea13a4052ca -->
<g id="edge6" class="edge">
<title>dir_72c284cb062a195ef4536e4b2bca98a8&#45;&gt;dir_313caf1132e152dd9b58bea13a4052ca</title>
<path fill="none" stroke="black" d="M175.03,-71.7C173.71,-63.98 172.12,-54.71 170.65,-46.11"/>
<polygon fill="black" stroke="black" points="174.07,-45.37 168.93,-36.1 167.17,-46.55 174.07,-45.37"/>
<g id="a_edge6&#45;headlabel"><a xlink:href="dir_000017_000001.html" target="_top" xlink:title="25">
<text text-anchor="middle" x="177.48" y="-45.93" font-family="Helvetica,sans-Serif" font-size="10.00">25</text>
</a>
</g>
</g>
</g>
</svg>
