<?xml version="1.0" encoding="UTF-8" standalone="no"?>
<!DOCTYPE svg PUBLIC "-//W3C//DTD SVG 1.1//EN"
 "http://www.w3.org/Graphics/SVG/1.1/DTD/svg11.dtd">
<!-- Generated by graphviz version 2.43.0 (0)
 -->
<!-- Title: immersed_boundary Pages: 1 -->
<svg width="276pt" height="151pt"
 viewBox="0.00 0.00 276.00 151.00" xmlns="http://www.w3.org/2000/svg" xmlns:xlink="http://www.w3.org/1999/xlink">
<g id="graph0" class="graph" transform="scale(1 1) rotate(0) translate(4 147)">
<title>immersed_boundary</title>
<g id="clust1" class="cluster">
<title>clusterdir_aebb8dcc11953d78e620bbef0b9e2183</title>
<g id="a_clust1"><a xlink:href="dir_aebb8dcc11953d78e620bbef0b9e2183.html" target="_top" xlink:title="core">
<polygon fill="#ddddee" stroke="black" points="8,-64 8,-135 142,-135 142,-64 8,-64"/>
<text text-anchor="middle" x="75" y="-123" font-family="Helvetica,sans-Serif" font-size="10.00">core</text>
</a>
</g>
</g>
<!-- dir_e2b24987bc33c075693c8e95c89d3efb -->
<g id="node1" class="node">
<title>dir_e2b24987bc33c075693c8e95c89d3efb</title>
<g id="a_node1"><a xlink:href="dir_e2b24987bc33c075693c8e95c89d3efb.html" target="_top" xlink:title="immersed_boundary">
<polygon fill="#eeeeff" stroke="black" points="133.5,-108 16.5,-108 16.5,-72 133.5,-72 133.5,-108"/>
<text text-anchor="middle" x="75" y="-87.5" font-family="Helvetica,sans-Serif" font-size="10.00">immersed_boundary</text>
</a>
</g>
</g>
<!-- dir_7e83d1792d529f4aa7126ac7e0b3b699 -->
<g id="node2" class="node">
<title>dir_7e83d1792d529f4aa7126ac7e0b3b699</title>
<g id="a_node2"><a xlink:href="dir_7e83d1792d529f4aa7126ac7e0b3b699.html" target="_top" xlink:title="config">
<polygon fill="none" stroke="black" points="133,-36 79,-36 79,0 133,0 133,-36"/>
<text text-anchor="middle" x="106" y="-15.5" font-family="Helvetica,sans-Serif" font-size="10.00">config</text>
</a>
</g>
</g>
<!-- dir_e2b24987bc33c075693c8e95c89d3efb&#45;&gt;dir_7e83d1792d529f4aa7126ac7e0b3b699 -->
<g id="edge1" class="edge">
<title>dir_e2b24987bc33c075693c8e95c89d3efb&#45;&gt;dir_7e83d1792d529f4aa7126ac7e0b3b699</title>
<path fill="none" stroke="black" d="M82.66,-71.7C86.19,-63.73 90.46,-54.1 94.37,-45.26"/>
<polygon fill="black" stroke="black" points="97.58,-46.67 98.43,-36.1 91.18,-43.83 97.58,-46.67"/>
<g id="a_edge1&#45;headlabel"><a xlink:href="dir_000049_000032.html" target="_top" xlink:title="3">
<text text-anchor="middle" x="98.72" y="-48.6" font-family="Helvetica,sans-Serif" font-size="10.00">3</text>
</a>
</g>
</g>
<!-- dir_313caf1132e152dd9b58bea13a4052ca -->
<g id="node3" class="node">
<title>dir_313caf1132e152dd9b58bea13a4052ca</title>
<g id="a_node3"><a xlink:href="dir_313caf1132e152dd9b58bea13a4052ca.html" target="_top" xlink:title="utils">
<polygon fill="none" stroke="red" points="221,-36 167,-36 167,0 221,0 221,-36"/>
<text text-anchor="middle" x="194" y="-15.5" font-family="Helvetica,sans-Serif" font-size="10.00">utils</text>
</a>
</g>
</g>
<!-- dir_e2b24987bc33c075693c8e95c89d3efb&#45;&gt;dir_313caf1132e152dd9b58bea13a4052ca -->
<g id="edge2" class="edge">
<title>dir_e2b24987bc33c075693c8e95c89d3efb&#45;&gt;dir_313caf1132e152dd9b58bea13a4052ca</title>
<path fill="none" stroke="black" d="M104.11,-71.88C120.4,-62.29 140.84,-50.27 158.12,-40.11"/>
<polygon fill="black" stroke="black" points="159.98,-43.07 166.82,-34.99 156.43,-37.04 159.98,-43.07"/>
<g id="a_edge2&#45;headlabel"><a xlink:href="dir_000049_000001.html" target="_top" xlink:title="9">
<text text-anchor="middle" x="158.32" y="-44.84" font-family="Helvetica,sans-Serif" font-size="10.00">9</text>
</a>
</g>
</g>
<!-- dir_72c284cb062a195ef4536e4b2bca98a8 -->
<g id="node4" class="node">
<title>dir_72c284cb062a195ef4536e4b2bca98a8</title>
<g id="a_node4"><a xlink:href="dir_72c284cb062a195ef4536e4b2bca98a8.html" target="_top" xlink:title="bonded_interactions">
<polygon fill="none" stroke="black" points="268,-108 152,-108 152,-72 268,-72 268,-108"/>
<text text-anchor="middle" x="210" y="-87.5" font-family="Helvetica,sans-Serif" font-size="10.00">bonded_interactions</text>
</a>
</g>
</g>
<!-- dir_e2b24987bc33c075693c8e95c89d3efb&#45;&gt;dir_72c284cb062a195ef4536e4b2bca98a8 -->
<g id="edge3" class="edge">
<title>dir_e2b24987bc33c075693c8e95c89d3efb&#45;&gt;dir_72c284cb062a195ef4536e4b2bca98a8</title>
<path fill="none" stroke="black" d="M133.54,-90C136.19,-90 138.85,-90 141.51,-90"/>
<polygon fill="black" stroke="black" points="141.76,-93.5 151.76,-90 141.76,-86.5 141.76,-93.5"/>
<g id="a_edge3&#45;headlabel"><a xlink:href="dir_000049_000017.html" target="_top" xlink:title="1">
<text text-anchor="middle" x="138.16" y="-93.84" font-family="Helvetica,sans-Serif" font-size="10.00">1</text>
</a>
</g>
</g>
<!-- dir_72c284cb062a195ef4536e4b2bca98a8&#45;&gt;dir_e2b24987bc33c075693c8e95c89d3efb -->
<g id="edge5" class="edge">
<title>dir_72c284cb062a195ef4536e4b2bca98a8&#45;&gt;dir_e2b24987bc33c075693c8e95c89d3efb</title>
<path fill="none" stroke="black" d="M151.76,-90C149.1,-90 146.44,-90 143.78,-90"/>
<polygon fill="black" stroke="black" points="143.54,-86.5 133.54,-90 143.54,-93.5 143.54,-86.5"/>
<g id="a_edge5&#45;headlabel"><a xlink:href="dir_000017_000049.html" target="_top" xlink:title="3">
<text text-anchor="middle" x="147.13" y="-81.16" font-family="Helvetica,sans-Serif" font-size="10.00">3</text>
</a>
</g>
</g>
<!-- dir_72c284cb062a195ef4536e4b2bca98a8&#45;&gt;dir_7e83d1792d529f4aa7126ac7e0b3b699 -->
<g id="edge4" class="edge">
<title>dir_72c284cb062a195ef4536e4b2bca98a8&#45;&gt;dir_7e83d1792d529f4aa7126ac7e0b3b699</title>
<path fill="none" stroke="black" d="M184.56,-71.88C171.21,-62.89 154.68,-51.76 140.22,-42.03"/>
<polygon fill="black" stroke="black" points="141.79,-38.87 131.54,-36.19 137.88,-44.68 141.79,-38.87"/>
<g id="a_edge4&#45;headlabel"><a xlink:href="dir_000017_000032.html" target="_top" xlink:title="7">
<text text-anchor="middle" x="146.36" y="-36.02" font-family="Helvetica,sans-Serif" font-size="10.00">7</text>
</a>
</g>
</g>
<!-- dir_72c284cb062a195ef4536e4b2bca98a8&#45;&gt;dir_313caf1132e152dd9b58bea13a4052ca -->
<g id="edge6" class="edge">
<title>dir_72c284cb062a195ef4536e4b2bca98a8&#45;&gt;dir_313caf1132e152dd9b58bea13a4052ca</title>
<path fill="none" stroke="black" d="M206.04,-71.7C204.28,-63.98 202.16,-54.71 200.2,-46.11"/>
<polygon fill="black" stroke="black" points="203.55,-45.07 197.91,-36.1 196.73,-46.63 203.55,-45.07"/>
<g id="a_edge6&#45;headlabel"><a xlink:href="dir_000017_000001.html" target="_top" xlink:title="25">
<text text-anchor="middle" x="207.12" y="-45.44" font-family="Helvetica,sans-Serif" font-size="10.00">25</text>
</a>
</g>
</g>
</g>
</svg>
