<?xml version="1.0" encoding="UTF-8" standalone="no"?>
<!DOCTYPE svg PUBLIC "-//W3C//DTD SVG 1.1//EN"
 "http://www.w3.org/Graphics/SVG/1.1/DTD/svg11.dtd">
<!-- Generated by graphviz version 2.43.0 (0)
 -->
<!-- Title: actor Pages: 1 -->
<svg width="260pt" height="151pt"
 viewBox="0.00 0.00 260.00 151.00" xmlns="http://www.w3.org/2000/svg" xmlns:xlink="http://www.w3.org/1999/xlink">
<g id="graph0" class="graph" transform="scale(1 1) rotate(0) translate(4 147)">
<title>actor</title>
<g id="clust1" class="cluster">
<title>clusterdir_aebb8dcc11953d78e620bbef0b9e2183</title>
<g id="a_clust1"><a xlink:href="dir_aebb8dcc11953d78e620bbef0b9e2183.html" target="_top" xlink:title="core">
<polygon fill="#ddddee" stroke="black" points="8,-64 8,-135 78,-135 78,-64 8,-64"/>
<text text-anchor="middle" x="43" y="-123" font-family="Helvetica,sans-Serif" font-size="10.00">core</text>
</a>
</g>
</g>
<!-- dir_7dbd9d3bbc5ec1ce3207b09771479ec4 -->
<g id="node1" class="node">
<title>dir_7dbd9d3bbc5ec1ce3207b09771479ec4</title>
<g id="a_node1"><a xlink:href="dir_7dbd9d3bbc5ec1ce3207b09771479ec4.html" target="_top" xlink:title="actor">
<polygon fill="#eeeeff" stroke="black" points="70,-108 16,-108 16,-72 70,-72 70,-108"/>
<text text-anchor="middle" x="43" y="-87.5" font-family="Helvetica,sans-Serif" font-size="10.00">actor</text>
</a>
</g>
</g>
<!-- dir_7e83d1792d529f4aa7126ac7e0b3b699 -->
<g id="node2" class="node">
<title>dir_7e83d1792d529f4aa7126ac7e0b3b699</title>
<g id="a_node2"><a xlink:href="dir_7e83d1792d529f4aa7126ac7e0b3b699.html" target="_top" xlink:title="config">
<polygon fill="none" stroke="black" points="97,-36 43,-36 43,0 97,0 97,-36"/>
<text text-anchor="middle" x="70" y="-15.5" font-family="Helvetica,sans-Serif" font-size="10.00">config</text>
</a>
</g>
</g>
<!-- dir_7dbd9d3bbc5ec1ce3207b09771479ec4&#45;&gt;dir_7e83d1792d529f4aa7126ac7e0b3b699 -->
<g id="edge1" class="edge">
<title>dir_7dbd9d3bbc5ec1ce3207b09771479ec4&#45;&gt;dir_7e83d1792d529f4aa7126ac7e0b3b699</title>
<path fill="none" stroke="black" d="M49.67,-71.7C52.71,-63.81 56.38,-54.3 59.76,-45.55"/>
<polygon fill="black" stroke="black" points="63.07,-46.69 63.4,-36.1 56.54,-44.17 63.07,-46.69"/>
<g id="a_edge1&#45;headlabel"><a xlink:href="dir_000010_000032.html" target="_top" xlink:title="11">
<text text-anchor="middle" x="64.42" y="-48.57" font-family="Helvetica,sans-Serif" font-size="10.00">11</text>
</a>
</g>
</g>
<!-- dir_6b7c06b7a7a76c60d0c114007966a512 -->
<g id="node3" class="node">
<title>dir_6b7c06b7a7a76c60d0c114007966a512</title>
<g id="a_node3"><a xlink:href="dir_6b7c06b7a7a76c60d0c114007966a512.html" target="_top" xlink:title="electrostatics_magnetostatics">
<polygon fill="none" stroke="black" points="252,-108 88,-108 88,-72 252,-72 252,-108"/>
<text text-anchor="middle" x="170" y="-87.5" font-family="Helvetica,sans-Serif" font-size="10.00">electrostatics_magnetostatics</text>
</a>
</g>
</g>
<!-- dir_7dbd9d3bbc5ec1ce3207b09771479ec4&#45;&gt;dir_6b7c06b7a7a76c60d0c114007966a512 -->
<g id="edge2" class="edge">
<title>dir_7dbd9d3bbc5ec1ce3207b09771479ec4&#45;&gt;dir_6b7c06b7a7a76c60d0c114007966a512</title>
<path fill="none" stroke="black" d="M70.29,-90C72.75,-90 75.21,-90 77.68,-90"/>
<polygon fill="black" stroke="black" points="77.81,-93.5 87.81,-90 77.81,-86.5 77.81,-93.5"/>
<g id="a_edge2&#45;headlabel"><a xlink:href="dir_000010_000031.html" target="_top" xlink:title="7">
<text text-anchor="middle" x="74.22" y="-93.84" font-family="Helvetica,sans-Serif" font-size="10.00">7</text>
</a>
</g>
</g>
<!-- dir_313caf1132e152dd9b58bea13a4052ca -->
<g id="node4" class="node">
<title>dir_313caf1132e152dd9b58bea13a4052ca</title>
<g id="a_node4"><a xlink:href="dir_313caf1132e152dd9b58bea13a4052ca.html" target="_top" xlink:title="utils">
<polygon fill="none" stroke="red" points="183,-36 129,-36 129,0 183,0 183,-36"/>
<text text-anchor="middle" x="156" y="-15.5" font-family="Helvetica,sans-Serif" font-size="10.00">utils</text>
</a>
</g>
</g>
<!-- dir_7dbd9d3bbc5ec1ce3207b09771479ec4&#45;&gt;dir_313caf1132e152dd9b58bea13a4052ca -->
<g id="edge3" class="edge">
<title>dir_7dbd9d3bbc5ec1ce3207b09771479ec4&#45;&gt;dir_313caf1132e152dd9b58bea13a4052ca</title>
<path fill="none" stroke="black" d="M67.23,-71.79C71.13,-69.13 75.15,-66.46 79,-64 92.26,-55.54 107.11,-46.71 120.22,-39.14"/>
<polygon fill="black" stroke="black" points="122.04,-42.13 128.96,-34.11 118.55,-36.06 122.04,-42.13"/>
<g id="a_edge3&#45;headlabel"><a xlink:href="dir_000010_000001.html" target="_top" xlink:title="3">
<text text-anchor="middle" x="120.33" y="-43.88" font-family="Helvetica,sans-Serif" font-size="10.00">3</text>
</a>
</g>
</g>
<!-- dir_6b7c06b7a7a76c60d0c114007966a512&#45;&gt;dir_7dbd9d3bbc5ec1ce3207b09771479ec4 -->
<g id="edge5" class="edge">
<title>dir_6b7c06b7a7a76c60d0c114007966a512&#45;&gt;dir_7dbd9d3bbc5ec1ce3207b09771479ec4</title>
<path fill="none" stroke="black" d="M87.81,-90C85.35,-90 82.88,-90 80.42,-90"/>
<polygon fill="black" stroke="black" points="80.29,-86.5 70.29,-90 80.29,-93.5 80.29,-86.5"/>
<g id="a_edge5&#45;headlabel"><a xlink:href="dir_000031_000010.html" target="_top" xlink:title="2">
<text text-anchor="middle" x="83.88" y="-81.16" font-family="Helvetica,sans-Serif" font-size="10.00">2</text>
</a>
</g>
</g>
<!-- dir_6b7c06b7a7a76c60d0c114007966a512&#45;&gt;dir_7e83d1792d529f4aa7126ac7e0b3b699 -->
<g id="edge4" class="edge">
<title>dir_6b7c06b7a7a76c60d0c114007966a512&#45;&gt;dir_7e83d1792d529f4aa7126ac7e0b3b699</title>
<path fill="none" stroke="black" d="M145.54,-71.88C132.7,-62.89 116.8,-51.76 102.91,-42.03"/>
<polygon fill="black" stroke="black" points="104.76,-39.06 94.56,-36.19 100.74,-44.79 104.76,-39.06"/>
<g id="a_edge4&#45;headlabel"><a xlink:href="dir_000031_000032.html" target="_top" xlink:title="35">
<text text-anchor="middle" x="109.33" y="-36.29" font-family="Helvetica,sans-Serif" font-size="10.00">35</text>
</a>
</g>
</g>
<!-- dir_6b7c06b7a7a76c60d0c114007966a512&#45;&gt;dir_313caf1132e152dd9b58bea13a4052ca -->
<g id="edge6" class="edge">
<title>dir_6b7c06b7a7a76c60d0c114007966a512&#45;&gt;dir_313caf1132e152dd9b58bea13a4052ca</title>
<path fill="none" stroke="black" d="M166.54,-71.7C165,-63.98 163.14,-54.71 161.42,-46.11"/>
<polygon fill="black" stroke="black" points="164.81,-45.22 159.42,-36.1 157.95,-46.6 164.81,-45.22"/>
<g id="a_edge6&#45;headlabel"><a xlink:href="dir_000031_000001.html" target="_top" xlink:title="93">
<text text-anchor="middle" x="168.3" y="-45.69" font-family="Helvetica,sans-Serif" font-size="10.00">93</text>
</a>
</g>
</g>
</g>
</svg>
