<?xml version="1.0" encoding="UTF-8" standalone="no"?>
<!DOCTYPE svg PUBLIC "-//W3C//DTD SVG 1.1//EN"
 "http://www.w3.org/Graphics/SVG/1.1/DTD/svg11.dtd">
<!-- Generated by graphviz version 2.43.0 (0)
 -->
<!-- Title: grid_based_algorithms Pages: 1 -->
<svg width="256pt" height="231pt"
 viewBox="0.00 0.00 255.52 231.00" xmlns="http://www.w3.org/2000/svg" xmlns:xlink="http://www.w3.org/1999/xlink">
<g id="graph0" class="graph" transform="scale(1 1) rotate(0) translate(4 227)">
<title>grid_based_algorithms</title>
<g id="clust1" class="cluster">
<title>clusterdir_aebb8dcc11953d78e620bbef0b9e2183</title>
<g id="a_clust1"><a xlink:href="dir_aebb8dcc11953d78e620bbef0b9e2183.html" target="_top" xlink:title="core">
<polygon fill="#ddddee" stroke="black" points="8,-56 8,-215 168,-215 168,-56 8,-56"/>
<text text-anchor="middle" x="88" y="-203" font-family="Helvetica,sans-Serif" font-size="10.00">core</text>
</a>
</g>
</g>
<g id="clust2" class="cluster">
<title>clusterdir_71fbd1fadb2683aa04f911343186866e</title>
<g id="a_clust2"><a xlink:href="dir_71fbd1fadb2683aa04f911343186866e.html" target="_top">
<polygon fill="#eeeeff" stroke="black" points="16,-64 16,-188 160,-188 160,-64 16,-64"/>
</a>
</g>
</g>
<!-- dir_71fbd1fadb2683aa04f911343186866e -->
<g id="node1" class="node">
<title>dir_71fbd1fadb2683aa04f911343186866e</title>
<text text-anchor="middle" x="88" y="-159.5" font-family="Helvetica,sans-Serif" font-size="10.00">grid_based_algorithms</text>
</g>
<!-- dir_2f910b287b2b1687d0562cdede1392db -->
<g id="node2" class="node">
<title>dir_2f910b287b2b1687d0562cdede1392db</title>
<g id="a_node2"><a xlink:href="dir_2f910b287b2b1687d0562cdede1392db.html" target="_top" xlink:title="lbboundaries">
<polygon fill="white" stroke="black" points="152,-108 72,-108 72,-72 152,-72 152,-108"/>
<text text-anchor="middle" x="112" y="-87.5" font-family="Helvetica,sans-Serif" font-size="10.00">lbboundaries</text>
</a>
</g>
</g>
<!-- dir_71fbd1fadb2683aa04f911343186866e&#45;&gt;dir_2f910b287b2b1687d0562cdede1392db -->
<g id="edge4" class="edge">
<title>dir_71fbd1fadb2683aa04f911343186866e&#45;&gt;dir_2f910b287b2b1687d0562cdede1392db</title>
<path fill="none" stroke="black" d="M93.93,-143.7C96.61,-135.9 99.83,-126.51 102.8,-117.83"/>
<polygon fill="black" stroke="black" points="106.2,-118.7 106.14,-108.1 99.58,-116.43 106.2,-118.7"/>
<g id="a_edge4&#45;headlabel"><a xlink:href="dir_000045_000054.html" target="_top" xlink:title="2">
<text text-anchor="middle" x="107.72" y="-120.52" font-family="Helvetica,sans-Serif" font-size="10.00">2</text>
</a>
</g>
</g>
<!-- dir_7e83d1792d529f4aa7126ac7e0b3b699 -->
<g id="node3" class="node">
<title>dir_7e83d1792d529f4aa7126ac7e0b3b699</title>
<g id="a_node3"><a xlink:href="dir_7e83d1792d529f4aa7126ac7e0b3b699.html" target="_top" xlink:title="config">
<polygon fill="none" stroke="black" points="105,-36 51,-36 51,0 105,0 105,-36"/>
<text text-anchor="middle" x="78" y="-15.5" font-family="Helvetica,sans-Serif" font-size="10.00">config</text>
</a>
</g>
</g>
<!-- dir_71fbd1fadb2683aa04f911343186866e&#45;&gt;dir_7e83d1792d529f4aa7126ac7e0b3b699 -->
<g id="edge3" class="edge">
<title>dir_71fbd1fadb2683aa04f911343186866e&#45;&gt;dir_7e83d1792d529f4aa7126ac7e0b3b699</title>
<path fill="none" stroke="black" d="M77.37,-143.56C71.9,-133.54 65.8,-120.51 63,-108 57.95,-85.45 58.58,-78.68 63,-56 63.65,-52.67 64.6,-49.25 65.71,-45.91"/>
<polygon fill="black" stroke="black" points="69.1,-46.86 69.4,-36.27 62.56,-44.36 69.1,-46.86"/>
<g id="a_edge3&#45;headlabel"><a xlink:href="dir_000045_000032.html" target="_top" xlink:title="15">
<text text-anchor="middle" x="70.47" y="-48.73" font-family="Helvetica,sans-Serif" font-size="10.00">15</text>
</a>
</g>
</g>
<!-- dir_cfc0c72890b8d1e009b6260caa55cd65 -->
<g id="node4" class="node">
<title>dir_cfc0c72890b8d1e009b6260caa55cd65</title>
<g id="a_node4"><a xlink:href="dir_cfc0c72890b8d1e009b6260caa55cd65.html" target="_top" xlink:title="profiler">
<polygon fill="none" stroke="red" points="230,-108 176,-108 176,-72 230,-72 230,-108"/>
<text text-anchor="middle" x="203" y="-87.5" font-family="Helvetica,sans-Serif" font-size="10.00">profiler</text>
</a>
</g>
</g>
<!-- dir_71fbd1fadb2683aa04f911343186866e&#45;&gt;dir_cfc0c72890b8d1e009b6260caa55cd65 -->
<g id="edge5" class="edge">
<title>dir_71fbd1fadb2683aa04f911343186866e&#45;&gt;dir_cfc0c72890b8d1e009b6260caa55cd65</title>
<path fill="none" stroke="black" d="M116.13,-143.88C131.51,-134.52 150.71,-122.83 167.14,-112.83"/>
<polygon fill="black" stroke="black" points="169.23,-115.65 175.95,-107.47 165.59,-109.67 169.23,-115.65"/>
<g id="a_edge5&#45;headlabel"><a xlink:href="dir_000045_000063.html" target="_top" xlink:title="2">
<text text-anchor="middle" x="167.63" y="-117.45" font-family="Helvetica,sans-Serif" font-size="10.00">2</text>
</a>
</g>
</g>
<!-- dir_313caf1132e152dd9b58bea13a4052ca -->
<g id="node5" class="node">
<title>dir_313caf1132e152dd9b58bea13a4052ca</title>
<g id="a_node5"><a xlink:href="dir_313caf1132e152dd9b58bea13a4052ca.html" target="_top" xlink:title="utils">
<polygon fill="none" stroke="red" points="231,-36 177,-36 177,0 231,0 231,-36"/>
<text text-anchor="middle" x="204" y="-15.5" font-family="Helvetica,sans-Serif" font-size="10.00">utils</text>
</a>
</g>
</g>
<!-- dir_71fbd1fadb2683aa04f911343186866e&#45;&gt;dir_313caf1132e152dd9b58bea13a4052ca -->
<g id="edge6" class="edge">
<title>dir_71fbd1fadb2683aa04f911343186866e&#45;&gt;dir_313caf1132e152dd9b58bea13a4052ca</title>
<path fill="none" stroke="black" d="M152.31,-155.45C183.9,-149.1 219.32,-135.77 239,-108 252.36,-89.15 247.55,-77.47 239,-56 237.3,-51.73 234.84,-47.66 232.01,-43.9"/>
<polygon fill="black" stroke="black" points="234.53,-41.46 225.35,-36.17 229.23,-46.03 234.53,-41.46"/>
<g id="a_edge6&#45;headlabel"><a xlink:href="dir_000045_000001.html" target="_top" xlink:title="40">
<text text-anchor="middle" x="239.03" y="-39.83" font-family="Helvetica,sans-Serif" font-size="10.00">40</text>
</a>
</g>
</g>
<!-- dir_2f910b287b2b1687d0562cdede1392db&#45;&gt;dir_7e83d1792d529f4aa7126ac7e0b3b699 -->
<g id="edge1" class="edge">
<title>dir_2f910b287b2b1687d0562cdede1392db&#45;&gt;dir_7e83d1792d529f4aa7126ac7e0b3b699</title>
<path fill="none" stroke="black" d="M103.6,-71.7C99.73,-63.73 95.05,-54.1 90.76,-45.26"/>
<polygon fill="black" stroke="black" points="93.83,-43.57 86.31,-36.1 87.53,-46.63 93.83,-43.57"/>
<g id="a_edge1&#45;headlabel"><a xlink:href="dir_000054_000032.html" target="_top" xlink:title="1">
<text text-anchor="middle" x="97.95" y="-43.06" font-family="Helvetica,sans-Serif" font-size="10.00">1</text>
</a>
</g>
</g>
<!-- dir_2f910b287b2b1687d0562cdede1392db&#45;&gt;dir_313caf1132e152dd9b58bea13a4052ca -->
<g id="edge2" class="edge">
<title>dir_2f910b287b2b1687d0562cdede1392db&#45;&gt;dir_313caf1132e152dd9b58bea13a4052ca</title>
<path fill="none" stroke="black" d="M134.74,-71.7C146.44,-62.8 160.86,-51.82 173.51,-42.2"/>
<polygon fill="black" stroke="black" points="175.68,-44.94 181.52,-36.1 171.44,-39.37 175.68,-44.94"/>
<g id="a_edge2&#45;headlabel"><a xlink:href="dir_000054_000001.html" target="_top" xlink:title="1">
<text text-anchor="middle" x="174.54" y="-46.88" font-family="Helvetica,sans-Serif" font-size="10.00">1</text>
</a>
</g>
</g>
</g>
</svg>
