<?xml version="1.0" encoding="UTF-8" standalone="no"?>
<!DOCTYPE svg PUBLIC "-//W3C//DTD SVG 1.1//EN"
 "http://www.w3.org/Graphics/SVG/1.1/DTD/svg11.dtd">
<!-- Generated by graphviz version 2.43.0 (0)
 -->
<!-- Title: nonbonded_interactions Pages: 1 -->
<svg width="400pt" height="295pt"
 viewBox="0.00 0.00 399.96 295.00" xmlns="http://www.w3.org/2000/svg" xmlns:xlink="http://www.w3.org/1999/xlink">
<g id="graph0" class="graph" transform="scale(1 1) rotate(0) translate(4 291)">
<title>nonbonded_interactions</title>
<g id="clust1" class="cluster">
<title>clusterdir_aebb8dcc11953d78e620bbef0b9e2183</title>
<g id="a_clust1"><a xlink:href="dir_aebb8dcc11953d78e620bbef0b9e2183.html" target="_top" xlink:title="core">
<polygon fill="#ddddee" stroke="black" points="140.5,-208 140.5,-279 290.5,-279 290.5,-208 140.5,-208"/>
<text text-anchor="middle" x="215.5" y="-267" font-family="Helvetica,sans-Serif" font-size="10.00">core</text>
</a>
</g>
</g>
<!-- dir_2f3d261d8d1bf06c4bcd111b7ede859e -->
<g id="node1" class="node">
<title>dir_2f3d261d8d1bf06c4bcd111b7ede859e</title>
<g id="a_node1"><a xlink:href="dir_2f3d261d8d1bf06c4bcd111b7ede859e.html" target="_top" xlink:title="nonbonded_interactions">
<polygon fill="#eeeeff" stroke="black" points="282.5,-252 148.5,-252 148.5,-216 282.5,-216 282.5,-252"/>
<text text-anchor="middle" x="215.5" y="-231.5" font-family="Helvetica,sans-Serif" font-size="10.00">nonbonded_interactions</text>
</a>
</g>
</g>
<!-- dir_2d8321b609955b4691ef34466960fd61 -->
<g id="node2" class="node">
<title>dir_2d8321b609955b4691ef34466960fd61</title>
<g id="a_node2"><a xlink:href="dir_2d8321b609955b4691ef34466960fd61.html" target="_top" xlink:title="serialization">
<polygon fill="none" stroke="black" points="77,-180 0,-180 0,-144 77,-144 77,-180"/>
<text text-anchor="middle" x="38.5" y="-159.5" font-family="Helvetica,sans-Serif" font-size="10.00">serialization</text>
</a>
</g>
</g>
<!-- dir_2f3d261d8d1bf06c4bcd111b7ede859e&#45;&gt;dir_2d8321b609955b4691ef34466960fd61 -->
<g id="edge4" class="edge">
<title>dir_2f3d261d8d1bf06c4bcd111b7ede859e&#45;&gt;dir_2d8321b609955b4691ef34466960fd61</title>
<path fill="none" stroke="black" d="M166.3,-215.88C140.88,-206.22 110.08,-194.09 85.05,-183.88"/>
<polygon fill="black" stroke="black" points="86.35,-180.62 75.77,-180.07 83.69,-187.1 86.35,-180.62"/>
<g id="a_edge4&#45;headlabel"><a xlink:href="dir_000020_000036.html" target="_top" xlink:title="1">
<text text-anchor="middle" x="90.75" y="-176.86" font-family="Helvetica,sans-Serif" font-size="10.00">1</text>
</a>
</g>
</g>
<!-- dir_7e83d1792d529f4aa7126ac7e0b3b699 -->
<g id="node3" class="node">
<title>dir_7e83d1792d529f4aa7126ac7e0b3b699</title>
<g id="a_node3"><a xlink:href="dir_7e83d1792d529f4aa7126ac7e0b3b699.html" target="_top" xlink:title="config">
<polygon fill="none" stroke="black" points="242.5,-36 188.5,-36 188.5,0 242.5,0 242.5,-36"/>
<text text-anchor="middle" x="215.5" y="-15.5" font-family="Helvetica,sans-Serif" font-size="10.00">config</text>
</a>
</g>
</g>
<!-- dir_2f3d261d8d1bf06c4bcd111b7ede859e&#45;&gt;dir_7e83d1792d529f4aa7126ac7e0b3b699 -->
<g id="edge5" class="edge">
<title>dir_2f3d261d8d1bf06c4bcd111b7ede859e&#45;&gt;dir_7e83d1792d529f4aa7126ac7e0b3b699</title>
<path fill="none" stroke="black" d="M197.15,-215.64C174.96,-193.24 138.79,-151.9 124.5,-108 119.55,-92.79 116.53,-85.87 124.5,-72 136.17,-51.7 158.93,-38.45 178.77,-30.27"/>
<polygon fill="black" stroke="black" points="180.12,-33.5 188.21,-26.66 177.62,-26.97 180.12,-33.5"/>
<g id="a_edge5&#45;headlabel"><a xlink:href="dir_000020_000032.html" target="_top" xlink:title="18">
<text text-anchor="middle" x="177.78" y="-34.94" font-family="Helvetica,sans-Serif" font-size="10.00">18</text>
</a>
</g>
</g>
<!-- dir_6b7c06b7a7a76c60d0c114007966a512 -->
<g id="node4" class="node">
<title>dir_6b7c06b7a7a76c60d0c114007966a512</title>
<g id="a_node4"><a xlink:href="dir_6b7c06b7a7a76c60d0c114007966a512.html" target="_top" xlink:title="electrostatics_magnetostatics">
<polygon fill="none" stroke="black" points="297.5,-108 133.5,-108 133.5,-72 297.5,-72 297.5,-108"/>
<text text-anchor="middle" x="215.5" y="-87.5" font-family="Helvetica,sans-Serif" font-size="10.00">electrostatics_magnetostatics</text>
</a>
</g>
</g>
<!-- dir_2f3d261d8d1bf06c4bcd111b7ede859e&#45;&gt;dir_6b7c06b7a7a76c60d0c114007966a512 -->
<g id="edge6" class="edge">
<title>dir_2f3d261d8d1bf06c4bcd111b7ede859e&#45;&gt;dir_6b7c06b7a7a76c60d0c114007966a512</title>
<path fill="none" stroke="black" d="M215.5,-215.87C215.5,-191.67 215.5,-147.21 215.5,-118.39"/>
<polygon fill="black" stroke="black" points="219,-118.19 215.5,-108.19 212,-118.19 219,-118.19"/>
<g id="a_edge6&#45;headlabel"><a xlink:href="dir_000020_000031.html" target="_top" xlink:title="4">
<text text-anchor="middle" x="221.84" y="-119.28" font-family="Helvetica,sans-Serif" font-size="10.00">4</text>
</a>
</g>
</g>
<!-- dir_313caf1132e152dd9b58bea13a4052ca -->
<g id="node5" class="node">
<title>dir_313caf1132e152dd9b58bea13a4052ca</title>
<g id="a_node5"><a xlink:href="dir_313caf1132e152dd9b58bea13a4052ca.html" target="_top" xlink:title="utils">
<polygon fill="none" stroke="red" points="390.5,-36 336.5,-36 336.5,0 390.5,0 390.5,-36"/>
<text text-anchor="middle" x="363.5" y="-15.5" font-family="Helvetica,sans-Serif" font-size="10.00">utils</text>
</a>
</g>
</g>
<!-- dir_2f3d261d8d1bf06c4bcd111b7ede859e&#45;&gt;dir_313caf1132e152dd9b58bea13a4052ca -->
<g id="edge7" class="edge">
<title>dir_2f3d261d8d1bf06c4bcd111b7ede859e&#45;&gt;dir_313caf1132e152dd9b58bea13a4052ca</title>
<path fill="none" stroke="black" d="M282.71,-228.65C316.36,-222.66 354.34,-209.3 375.5,-180 404.1,-140.4 388.19,-80.09 375.13,-45.63"/>
<polygon fill="black" stroke="black" points="378.33,-44.22 371.39,-36.22 371.83,-46.81 378.33,-44.22"/>
<g id="a_edge7&#45;headlabel"><a xlink:href="dir_000020_000001.html" target="_top" xlink:title="53">
<text text-anchor="middle" x="382.3" y="-44.01" font-family="Helvetica,sans-Serif" font-size="10.00">53</text>
</a>
</g>
</g>
<!-- dir_72c284cb062a195ef4536e4b2bca98a8 -->
<g id="node6" class="node">
<title>dir_72c284cb062a195ef4536e4b2bca98a8</title>
<g id="a_node6"><a xlink:href="dir_72c284cb062a195ef4536e4b2bca98a8.html" target="_top" xlink:title="bonded_interactions">
<polygon fill="none" stroke="black" points="366.5,-180 250.5,-180 250.5,-144 366.5,-144 366.5,-180"/>
<text text-anchor="middle" x="308.5" y="-159.5" font-family="Helvetica,sans-Serif" font-size="10.00">bonded_interactions</text>
</a>
</g>
</g>
<!-- dir_2f3d261d8d1bf06c4bcd111b7ede859e&#45;&gt;dir_72c284cb062a195ef4536e4b2bca98a8 -->
<g id="edge8" class="edge">
<title>dir_2f3d261d8d1bf06c4bcd111b7ede859e&#45;&gt;dir_72c284cb062a195ef4536e4b2bca98a8</title>
<path fill="none" stroke="black" d="M238.49,-215.7C250.31,-206.8 264.89,-195.82 277.68,-186.2"/>
<polygon fill="black" stroke="black" points="279.89,-188.91 285.78,-180.1 275.68,-183.32 279.89,-188.91"/>
<g id="a_edge8&#45;headlabel"><a xlink:href="dir_000020_000017.html" target="_top" xlink:title="3">
<text text-anchor="middle" x="278.73" y="-190.84" font-family="Helvetica,sans-Serif" font-size="10.00">3</text>
</a>
</g>
</g>
<!-- dir_2d8321b609955b4691ef34466960fd61&#45;&gt;dir_2f3d261d8d1bf06c4bcd111b7ede859e -->
<g id="edge1" class="edge">
<title>dir_2d8321b609955b4691ef34466960fd61&#45;&gt;dir_2f3d261d8d1bf06c4bcd111b7ede859e</title>
<path fill="none" stroke="black" d="M77.05,-176.11C104.02,-186.2 140.1,-200.36 168.71,-212.02"/>
<polygon fill="black" stroke="black" points="167.52,-215.32 178.1,-215.88 170.17,-208.84 167.52,-215.32"/>
<g id="a_edge1&#45;headlabel"><a xlink:href="dir_000036_000020.html" target="_top" xlink:title="1">
<text text-anchor="middle" x="163.11" y="-214.08" font-family="Helvetica,sans-Serif" font-size="10.00">1</text>
</a>
</g>
</g>
<!-- dir_6b7c06b7a7a76c60d0c114007966a512&#45;&gt;dir_7e83d1792d529f4aa7126ac7e0b3b699 -->
<g id="edge2" class="edge">
<title>dir_6b7c06b7a7a76c60d0c114007966a512&#45;&gt;dir_7e83d1792d529f4aa7126ac7e0b3b699</title>
<path fill="none" stroke="black" d="M215.5,-71.7C215.5,-63.98 215.5,-54.71 215.5,-46.11"/>
<polygon fill="black" stroke="black" points="219,-46.1 215.5,-36.1 212,-46.1 219,-46.1"/>
<g id="a_edge2&#45;headlabel"><a xlink:href="dir_000031_000032.html" target="_top" xlink:title="35">
<text text-anchor="middle" x="221.84" y="-47.2" font-family="Helvetica,sans-Serif" font-size="10.00">35</text>
</a>
</g>
</g>
<!-- dir_6b7c06b7a7a76c60d0c114007966a512&#45;&gt;dir_313caf1132e152dd9b58bea13a4052ca -->
<g id="edge3" class="edge">
<title>dir_6b7c06b7a7a76c60d0c114007966a512&#45;&gt;dir_313caf1132e152dd9b58bea13a4052ca</title>
<path fill="none" stroke="black" d="M251.7,-71.88C274.72,-60.99 304.4,-46.95 327.4,-36.07"/>
<polygon fill="black" stroke="black" points="328.94,-39.22 336.49,-31.78 325.95,-32.89 328.94,-39.22"/>
<g id="a_edge3&#45;headlabel"><a xlink:href="dir_000031_000001.html" target="_top" xlink:title="93">
<text text-anchor="middle" x="326.91" y="-40.82" font-family="Helvetica,sans-Serif" font-size="10.00">93</text>
</a>
</g>
</g>
<!-- dir_72c284cb062a195ef4536e4b2bca98a8&#45;&gt;dir_7e83d1792d529f4aa7126ac7e0b3b699 -->
<g id="edge9" class="edge">
<title>dir_72c284cb062a195ef4536e4b2bca98a8&#45;&gt;dir_7e83d1792d529f4aa7126ac7e0b3b699</title>
<path fill="none" stroke="black" d="M312.77,-143.93C316.51,-124.96 319.53,-94.1 306.5,-72 294.61,-51.84 271.84,-38.58 252.06,-30.37"/>
<polygon fill="black" stroke="black" points="253.24,-27.08 242.65,-26.74 250.72,-33.61 253.24,-27.08"/>
<g id="a_edge9&#45;headlabel"><a xlink:href="dir_000017_000032.html" target="_top" xlink:title="7">
<text text-anchor="middle" x="257.61" y="-23.22" font-family="Helvetica,sans-Serif" font-size="10.00">7</text>
</a>
</g>
</g>
<!-- dir_72c284cb062a195ef4536e4b2bca98a8&#45;&gt;dir_6b7c06b7a7a76c60d0c114007966a512 -->
<g id="edge10" class="edge">
<title>dir_72c284cb062a195ef4536e4b2bca98a8&#45;&gt;dir_6b7c06b7a7a76c60d0c114007966a512</title>
<path fill="none" stroke="black" d="M285.51,-143.7C273.69,-134.8 259.11,-123.82 246.32,-114.2"/>
<polygon fill="black" stroke="black" points="248.32,-111.32 238.22,-108.1 244.11,-116.91 248.32,-111.32"/>
<g id="a_edge10&#45;headlabel"><a xlink:href="dir_000017_000031.html" target="_top" xlink:title="1">
<text text-anchor="middle" x="252.9" y="-108.71" font-family="Helvetica,sans-Serif" font-size="10.00">1</text>
</a>
</g>
</g>
<!-- dir_72c284cb062a195ef4536e4b2bca98a8&#45;&gt;dir_313caf1132e152dd9b58bea13a4052ca -->
<g id="edge11" class="edge">
<title>dir_72c284cb062a195ef4536e4b2bca98a8&#45;&gt;dir_313caf1132e152dd9b58bea13a4052ca</title>
<path fill="none" stroke="black" d="M320.05,-143.94C326.48,-133.84 334.23,-120.59 339.5,-108 347.92,-87.88 354.17,-63.97 358.18,-46"/>
<polygon fill="black" stroke="black" points="361.62,-46.69 360.29,-36.18 354.77,-45.22 361.62,-46.69"/>
<g id="a_edge11&#45;headlabel"><a xlink:href="dir_000017_000001.html" target="_top" xlink:title="25">
<text text-anchor="middle" x="363.64" y="-48.3" font-family="Helvetica,sans-Serif" font-size="10.00">25</text>
</a>
</g>
</g>
</g>
</svg>
