<?xml version="1.0" encoding="UTF-8" standalone="no"?>
<!DOCTYPE svg PUBLIC "-//W3C//DTD SVG 1.1//EN"
 "http://www.w3.org/Graphics/SVG/1.1/DTD/svg11.dtd">
<!-- Generated by graphviz version 2.43.0 (0)
 -->
<!-- Title: Ellipsoid.cpp Pages: 1 -->
<!--zoomable 263 -->
<svg id="main" version="1.1" xmlns="http://www.w3.org/2000/svg" xmlns:xlink="http://www.w3.org/1999/xlink" xml:space="preserve" onload="init(evt)">
<style type="text/css"><![CDATA[
.edge:hover path { stroke: red; }
.edge:hover polygon { stroke: red; fill: red; }
]]></style>
<script type="text/javascript"><![CDATA[
var edges = document.getElementsByTagName('g');
if (edges && edges.length) {
  for (var i=0;i<edges.length;i++) {
    if (edges[i].id.substr(0,4)=='edge') {
      edges[i].setAttribute('class','edge');
    }
  }
}
]]></script>
        <defs>
                <circle id="rim" cx="0" cy="0" r="7"/>
                <circle id="rim2" cx="0" cy="0" r="3.5"/>
                <g id="zoomPlus">
                        <use xlink:href="#rim" fill="#404040">
                                <set attributeName="fill" to="#808080" begin="zoomplus.mouseover" end="zoomplus.mouseout"/>
                        </use>
                        <path d="M-4,0h8M0,-4v8" fill="none" stroke="white" stroke-width="1.5" pointer-events="none"/>
                </g>
                <g id="zoomMin">
                        <use xlink:href="#rim" fill="#404040">
                                <set attributeName="fill" to="#808080" begin="zoomminus.mouseover" end="zoomminus.mouseout"/>
                        </use>
                        <path d="M-4,0h8" fill="none" stroke="white" stroke-width="1.5" pointer-events="none"/>
                </g>
                <g id="dirArrow">
                        <path fill="none" stroke="white" stroke-width="1.5" d="M0,-3.0v7 M-2.5,-0.5L0,-3.0L2.5,-0.5"/>
                </g>
               <g id="resetDef">
                       <use xlink:href="#rim2" fill="#404040">
                               <set attributeName="fill" to="#808080" begin="reset.mouseover" end="reset.mouseout"/>
                       </use>
               </g>
        </defs>

<script type="text/javascript">
var viewWidth = 1063;
var viewHeight = 263;
var sectionId = 'dynsection-0';
</script>
<script xlink:href="svgpan.js"/>
<svg id="graph" class="graph">
<g id="viewport">
<title>Ellipsoid.cpp</title>
<!-- Node1 -->
<g id="node1" class="node">
<title>Node1</title>
<g id="a_node1"><a xlink:title=" ">
<polygon fill="#bfbfbf" stroke="black" points="572.17,-235.5 572.17,-254.5 650.17,-254.5 650.17,-235.5 572.17,-235.5"/>
<text text-anchor="middle" x="611.17" y="-242.5" font-family="Helvetica,sans-Serif" font-size="10.00">Ellipsoid.cpp</text>
</a>
</g>
</g>
<!-- Node2 -->
<g id="node2" class="node">
<title>Node2</title>
<g id="a_node2"><a xlink:title=" ">
<polygon fill="none" stroke="#bfbfbf" points="282.17,-179.5 282.17,-198.5 398.17,-198.5 398.17,-179.5 282.17,-179.5"/>
<text text-anchor="middle" x="340.17" y="-186.5" font-family="Helvetica,sans-Serif" font-size="10.00">shapes/Ellipsoid.hpp</text>
</a>
</g>
</g>
<!-- Node1&#45;&gt;Node2 -->
<g id="edge1" class="edge">
<title>Node1&#45;&gt;Node2</title>
<path fill="none" stroke="midnightblue" d="M572.06,-236.21C524.92,-226.81 445.53,-210.99 392.99,-200.52"/>
<polygon fill="midnightblue" stroke="midnightblue" points="393.34,-197.03 382.85,-198.5 391.98,-203.89 393.34,-197.03"/>
</g>
<!-- Node3 -->
<g id="node3" class="node">
<title>Node3</title>
<g id="a_node3"><a xlink:href="Vector_8hpp.html" target="_top" xlink:title=" ">
<polygon fill="none" stroke="black" points="416.67,-179.5 416.67,-198.5 509.67,-198.5 509.67,-179.5 416.67,-179.5"/>
<text text-anchor="middle" x="463.17" y="-186.5" font-family="Helvetica,sans-Serif" font-size="10.00">utils/Vector.hpp</text>
</a>
</g>
</g>
<!-- Node1&#45;&gt;Node3 -->
<g id="edge2" class="edge">
<title>Node1&#45;&gt;Node3</title>
<path fill="none" stroke="midnightblue" d="M587.72,-235.44C563.04,-226.44 523.99,-212.19 496.2,-202.05"/>
<polygon fill="midnightblue" stroke="midnightblue" points="497.11,-198.66 486.51,-198.52 494.71,-205.23 497.11,-198.66"/>
</g>
<!-- Node16 -->
<g id="node16" class="node">
<title>Node16</title>
<g id="a_node16"><a xlink:title=" ">
<polygon fill="none" stroke="#bfbfbf" points="972.17,-123.5 972.17,-142.5 1036.17,-142.5 1036.17,-123.5 972.17,-123.5"/>
<text text-anchor="middle" x="1004.17" y="-130.5" font-family="Helvetica,sans-Serif" font-size="10.00">algorithm</text>
</a>
</g>
</g>
<!-- Node1&#45;&gt;Node16 -->
<g id="edge29" class="edge">
<title>Node1&#45;&gt;Node16</title>
<path fill="none" stroke="midnightblue" d="M641.68,-235.46C711.84,-215.82 884.66,-167.45 963.63,-145.35"/>
<polygon fill="midnightblue" stroke="midnightblue" points="964.99,-148.6 973.68,-142.53 963.11,-141.86 964.99,-148.6"/>
</g>
<!-- Node23 -->
<g id="node23" class="node">
<title>Node23</title>
<g id="a_node23"><a xlink:href="sqr_8hpp.html" target="_top" xlink:title=" ">
<polygon fill="none" stroke="black" points="899.67,-179.5 899.67,-198.5 1004.67,-198.5 1004.67,-179.5 899.67,-179.5"/>
<text text-anchor="middle" x="952.17" y="-186.5" font-family="Helvetica,sans-Serif" font-size="10.00">utils/math/sqr.hpp</text>
</a>
</g>
</g>
<!-- Node1&#45;&gt;Node23 -->
<g id="edge27" class="edge">
<title>Node1&#45;&gt;Node23</title>
<path fill="none" stroke="midnightblue" d="M650.29,-237.81C708.82,-228.54 819.75,-210.97 889.61,-199.91"/>
<polygon fill="midnightblue" stroke="midnightblue" points="890.28,-203.34 899.61,-198.32 889.19,-196.43 890.28,-203.34"/>
</g>
<!-- Node4 -->
<g id="node4" class="node">
<title>Node4</title>
<g id="a_node4"><a xlink:title=" ">
<polygon fill="none" stroke="#bfbfbf" points="504.17,-123.5 504.17,-142.5 654.17,-142.5 654.17,-123.5 504.17,-123.5"/>
<text text-anchor="middle" x="579.17" y="-130.5" font-family="Helvetica,sans-Serif" font-size="10.00">boost/qvm/deduce_vec.hpp</text>
</a>
</g>
</g>
<!-- Node3&#45;&gt;Node4 -->
<g id="edge3" class="edge">
<title>Node3&#45;&gt;Node4</title>
<path fill="none" stroke="midnightblue" d="M481.55,-179.44C500.39,-170.68 529.9,-156.94 551.55,-146.86"/>
<polygon fill="midnightblue" stroke="midnightblue" points="553.29,-149.91 560.88,-142.52 550.33,-143.56 553.29,-149.91"/>
</g>
<!-- Node5 -->
<g id="node5" class="node">
<title>Node5</title>
<g id="a_node5"><a xlink:title=" ">
<polygon fill="none" stroke="#bfbfbf" points="672.17,-123.5 672.17,-142.5 812.17,-142.5 812.17,-123.5 672.17,-123.5"/>
<text text-anchor="middle" x="742.17" y="-130.5" font-family="Helvetica,sans-Serif" font-size="10.00">boost/qvm/vec_traits.hpp</text>
</a>
</g>
</g>
<!-- Node3&#45;&gt;Node5 -->
<g id="edge4" class="edge">
<title>Node3&#45;&gt;Node5</title>
<path fill="none" stroke="midnightblue" d="M507.38,-179.44C556.46,-169.94 635.68,-154.61 688.34,-144.42"/>
<polygon fill="midnightblue" stroke="midnightblue" points="689.02,-147.85 698.17,-142.52 687.69,-140.98 689.02,-147.85"/>
</g>
<!-- Node6 -->
<g id="node6" class="node">
<title>Node6</title>
<g id="a_node6"><a xlink:href="Array_8hpp.html" target="_top" xlink:title=" ">
<polygon fill="none" stroke="black" points="830.17,-123.5 830.17,-142.5 916.17,-142.5 916.17,-123.5 830.17,-123.5"/>
<text text-anchor="middle" x="873.17" y="-130.5" font-family="Helvetica,sans-Serif" font-size="10.00">utils/Array.hpp</text>
</a>
</g>
</g>
<!-- Node3&#45;&gt;Node6 -->
<g id="edge5" class="edge">
<title>Node3&#45;&gt;Node6</title>
<path fill="none" stroke="midnightblue" d="M509.89,-182.83C576.4,-175.31 702.41,-160.5 819.82,-143.14"/>
<polygon fill="midnightblue" stroke="midnightblue" points="820.69,-146.55 830.07,-141.62 819.66,-139.63 820.69,-146.55"/>
</g>
<!-- Node8 -->
<g id="node8" class="node">
<title>Node8</title>
<g id="a_node8"><a xlink:title=" ">
<polygon fill="none" stroke="#bfbfbf" points="956.17,-0.5 956.17,-19.5 1008.17,-19.5 1008.17,-0.5 956.17,-0.5"/>
<text text-anchor="middle" x="982.17" y="-7.5" font-family="Helvetica,sans-Serif" font-size="10.00">cassert</text>
</a>
</g>
</g>
<!-- Node3&#45;&gt;Node8 -->
<g id="edge18" class="edge">
<title>Node3&#45;&gt;Node8</title>
<path fill="none" stroke="midnightblue" d="M509.88,-185.74C611.2,-180.47 848.26,-166.02 925.17,-143 943.46,-137.53 945.91,-131.14 963.17,-123 1000.65,-105.33 1026.22,-121.5 1049.17,-87 1056.81,-75.53 1055.65,-68.16 1049.17,-56 1041.62,-41.83 1027.41,-31.33 1014.01,-24.06"/>
<polygon fill="midnightblue" stroke="midnightblue" points="1015.47,-20.87 1004.96,-19.53 1012.34,-27.13 1015.47,-20.87"/>
</g>
<!-- Node10 -->
<g id="node10" class="node">
<title>Node10</title>
<g id="a_node10"><a xlink:title=" ">
<polygon fill="none" stroke="#bfbfbf" points="467.67,-0.5 467.67,-19.5 520.67,-19.5 520.67,-0.5 467.67,-0.5"/>
<text text-anchor="middle" x="494.17" y="-7.5" font-family="Helvetica,sans-Serif" font-size="10.00">cstddef</text>
</a>
</g>
</g>
<!-- Node3&#45;&gt;Node10 -->
<g id="edge20" class="edge">
<title>Node3&#45;&gt;Node10</title>
<path fill="none" stroke="midnightblue" d="M416.46,-180.24C413.32,-179.8 410.2,-179.38 407.17,-179 317.67,-167.81 -46.68,-196.8 5.17,-123 57.7,-48.25 352.54,-20.8 457.27,-13.32"/>
<polygon fill="midnightblue" stroke="midnightblue" points="457.63,-16.81 467.37,-12.62 457.15,-9.82 457.63,-16.81"/>
</g>
<!-- Node13 -->
<g id="node13" class="node">
<title>Node13</title>
<g id="a_node13"><a xlink:title=" ">
<polygon fill="none" stroke="#bfbfbf" points="200.67,-62 200.67,-81 253.67,-81 253.67,-62 200.67,-62"/>
<text text-anchor="middle" x="227.17" y="-69" font-family="Helvetica,sans-Serif" font-size="10.00">iterator</text>
</a>
</g>
</g>
<!-- Node3&#45;&gt;Node13 -->
<g id="edge23" class="edge">
<title>Node3&#45;&gt;Node13</title>
<path fill="none" stroke="midnightblue" d="M416.46,-180.25C413.32,-179.81 410.2,-179.38 407.17,-179 364.22,-173.56 48.34,-175 19.17,-143 -31.26,-87.67 118.02,-75.74 190.34,-73.19"/>
<polygon fill="midnightblue" stroke="midnightblue" points="190.53,-76.68 200.41,-72.87 190.31,-69.69 190.53,-76.68"/>
</g>
<!-- Node3&#45;&gt;Node16 -->
<g id="edge17" class="edge">
<title>Node3&#45;&gt;Node16</title>
<path fill="none" stroke="midnightblue" d="M509.76,-185.36C597.73,-180.03 794.16,-166.44 958.17,-143 959.44,-142.82 960.73,-142.63 962.03,-142.42"/>
<polygon fill="midnightblue" stroke="midnightblue" points="962.8,-145.84 972.07,-140.72 961.63,-138.94 962.8,-145.84"/>
</g>
<!-- Node17 -->
<g id="node17" class="node">
<title>Node17</title>
<g id="a_node17"><a xlink:title=" ">
<polygon fill="none" stroke="#bfbfbf" points="28.67,-123.5 28.67,-142.5 75.67,-142.5 75.67,-123.5 28.67,-123.5"/>
<text text-anchor="middle" x="52.17" y="-130.5" font-family="Helvetica,sans-Serif" font-size="10.00">cmath</text>
</a>
</g>
</g>
<!-- Node3&#45;&gt;Node17 -->
<g id="edge19" class="edge">
<title>Node3&#45;&gt;Node17</title>
<path fill="none" stroke="midnightblue" d="M416.45,-180.32C413.31,-179.86 410.2,-179.41 407.17,-179 267.26,-159.97 227.71,-170.16 85.78,-143.05"/>
<polygon fill="midnightblue" stroke="midnightblue" points="86.32,-139.59 75.83,-141.12 84.99,-146.46 86.32,-139.59"/>
</g>
<!-- Node18 -->
<g id="node18" class="node">
<title>Node18</title>
<g id="a_node18"><a xlink:title=" ">
<polygon fill="none" stroke="#bfbfbf" points="93.67,-123.5 93.67,-142.5 158.67,-142.5 158.67,-123.5 93.67,-123.5"/>
<text text-anchor="middle" x="126.17" y="-130.5" font-family="Helvetica,sans-Serif" font-size="10.00">functional</text>
</a>
</g>
</g>
<!-- Node3&#45;&gt;Node18 -->
<g id="edge21" class="edge">
<title>Node3&#45;&gt;Node18</title>
<path fill="none" stroke="midnightblue" d="M416.43,-180.45C413.3,-179.96 410.19,-179.47 407.17,-179 303.71,-162.93 274.91,-162.58 168.64,-143.18"/>
<polygon fill="midnightblue" stroke="midnightblue" points="169.27,-139.74 158.81,-141.37 168.01,-146.62 169.27,-139.74"/>
</g>
<!-- Node19 -->
<g id="node19" class="node">
<title>Node19</title>
<g id="a_node19"><a xlink:title=" ">
<polygon fill="none" stroke="#bfbfbf" points="176.67,-123.5 176.67,-142.5 259.67,-142.5 259.67,-123.5 176.67,-123.5"/>
<text text-anchor="middle" x="218.17" y="-130.5" font-family="Helvetica,sans-Serif" font-size="10.00">initializer_list</text>
</a>
</g>
</g>
<!-- Node3&#45;&gt;Node19 -->
<g id="edge22" class="edge">
<title>Node3&#45;&gt;Node19</title>
<path fill="none" stroke="midnightblue" d="M424.35,-179.44C381.61,-170.02 312.84,-154.87 266.61,-144.68"/>
<polygon fill="midnightblue" stroke="midnightblue" points="267.33,-141.25 256.81,-142.52 265.82,-148.09 267.33,-141.25"/>
</g>
<!-- Node20 -->
<g id="node20" class="node">
<title>Node20</title>
<g id="a_node20"><a xlink:title=" ">
<polygon fill="none" stroke="#bfbfbf" points="278.17,-123.5 278.17,-142.5 334.17,-142.5 334.17,-123.5 278.17,-123.5"/>
<text text-anchor="middle" x="306.17" y="-130.5" font-family="Helvetica,sans-Serif" font-size="10.00">numeric</text>
</a>
</g>
</g>
<!-- Node3&#45;&gt;Node20 -->
<g id="edge24" class="edge">
<title>Node3&#45;&gt;Node20</title>
<path fill="none" stroke="midnightblue" d="M438.3,-179.44C411.88,-170.36 369.96,-155.94 340.43,-145.78"/>
<polygon fill="midnightblue" stroke="midnightblue" points="341.53,-142.46 330.93,-142.52 339.25,-149.08 341.53,-142.46"/>
</g>
<!-- Node21 -->
<g id="node21" class="node">
<title>Node21</title>
<g id="a_node21"><a xlink:title=" ">
<polygon fill="none" stroke="#bfbfbf" points="352.67,-123.5 352.67,-142.5 421.67,-142.5 421.67,-123.5 352.67,-123.5"/>
<text text-anchor="middle" x="387.17" y="-130.5" font-family="Helvetica,sans-Serif" font-size="10.00">type_traits</text>
</a>
</g>
</g>
<!-- Node3&#45;&gt;Node21 -->
<g id="edge25" class="edge">
<title>Node3&#45;&gt;Node21</title>
<path fill="none" stroke="midnightblue" d="M450.96,-179.32C439.4,-171.11 421.8,-158.6 408.01,-148.81"/>
<polygon fill="midnightblue" stroke="midnightblue" points="409.78,-145.77 399.61,-142.83 405.73,-151.48 409.78,-145.77"/>
</g>
<!-- Node22 -->
<g id="node22" class="node">
<title>Node22</title>
<g id="a_node22"><a xlink:title=" ">
<polygon fill="none" stroke="#bfbfbf" points="439.67,-123.5 439.67,-142.5 486.67,-142.5 486.67,-123.5 439.67,-123.5"/>
<text text-anchor="middle" x="463.17" y="-130.5" font-family="Helvetica,sans-Serif" font-size="10.00">vector</text>
</a>
</g>
</g>
<!-- Node3&#45;&gt;Node22 -->
<g id="edge26" class="edge">
<title>Node3&#45;&gt;Node22</title>
<path fill="none" stroke="midnightblue" d="M463.17,-179.08C463.17,-172.01 463.17,-161.86 463.17,-152.99"/>
<polygon fill="midnightblue" stroke="midnightblue" points="466.67,-152.75 463.17,-142.75 459.67,-152.75 466.67,-152.75"/>
</g>
<!-- Node7 -->
<g id="node7" class="node">
<title>Node7</title>
<g id="a_node7"><a xlink:href="device__qualifier_8hpp.html" target="_top" xlink:title=" ">
<polygon fill="none" stroke="black" points="924.17,-62 924.17,-81 1040.17,-81 1040.17,-62 924.17,-62"/>
<text text-anchor="middle" x="982.17" y="-69" font-family="Helvetica,sans-Serif" font-size="10.00">device_qualifier.hpp</text>
</a>
</g>
</g>
<!-- Node6&#45;&gt;Node7 -->
<g id="edge6" class="edge">
<title>Node6&#45;&gt;Node7</title>
<path fill="none" stroke="midnightblue" d="M888.79,-123.48C906.76,-113.67 936.49,-97.43 957.58,-85.92"/>
<polygon fill="midnightblue" stroke="midnightblue" points="959.48,-88.87 966.58,-81.01 956.13,-82.73 959.48,-88.87"/>
</g>
<!-- Node6&#45;&gt;Node8 -->
<g id="edge12" class="edge">
<title>Node6&#45;&gt;Node8</title>
<path fill="none" stroke="midnightblue" d="M829.98,-124.32C760.82,-111.98 632.77,-88.92 631.17,-87 622.37,-76.4 622.07,-66.34 631.17,-56 651.77,-32.59 860.47,-18.01 945.96,-12.98"/>
<polygon fill="midnightblue" stroke="midnightblue" points="946.21,-16.47 955.99,-12.4 945.8,-9.48 946.21,-16.47"/>
</g>
<!-- Node9 -->
<g id="node9" class="node">
<title>Node9</title>
<g id="a_node9"><a xlink:href="get_8hpp.html" target="_top" xlink:title=" ">
<polygon fill="none" stroke="black" points="530.67,-62 530.67,-81 583.67,-81 583.67,-62 530.67,-62"/>
<text text-anchor="middle" x="557.17" y="-69" font-family="Helvetica,sans-Serif" font-size="10.00">get.hpp</text>
</a>
</g>
</g>
<!-- Node6&#45;&gt;Node9 -->
<g id="edge8" class="edge">
<title>Node6&#45;&gt;Node9</title>
<path fill="none" stroke="midnightblue" d="M830.05,-124.5C827.05,-123.99 824.06,-123.48 821.17,-123 722.15,-106.44 695.45,-111.84 598.17,-87 595.13,-86.22 591.98,-85.31 588.86,-84.34"/>
<polygon fill="midnightblue" stroke="midnightblue" points="589.67,-80.92 579.08,-81.07 587.45,-87.56 589.67,-80.92"/>
</g>
<!-- Node6&#45;&gt;Node10 -->
<g id="edge13" class="edge">
<title>Node6&#45;&gt;Node10</title>
<path fill="none" stroke="midnightblue" d="M830.07,-124.36C827.06,-123.88 824.07,-123.42 821.17,-123 754.74,-113.27 573.62,-128.93 521.17,-87 503.87,-73.16 497.64,-47.39 495.41,-29.73"/>
<polygon fill="midnightblue" stroke="midnightblue" points="498.89,-29.35 494.45,-19.73 491.92,-30.01 498.89,-29.35"/>
</g>
<!-- Node12 -->
<g id="node12" class="node">
<title>Node12</title>
<g id="a_node12"><a xlink:title=" ">
<polygon fill="none" stroke="#bfbfbf" points="640.67,-56.5 640.67,-86.5 747.67,-86.5 747.67,-56.5 640.67,-56.5"/>
<text text-anchor="start" x="648.67" y="-74.5" font-family="Helvetica,sans-Serif" font-size="10.00">boost/serialization</text>
<text text-anchor="middle" x="694.17" y="-63.5" font-family="Helvetica,sans-Serif" font-size="10.00">/access.hpp</text>
</a>
</g>
</g>
<!-- Node6&#45;&gt;Node12 -->
<g id="edge11" class="edge">
<title>Node6&#45;&gt;Node12</title>
<path fill="none" stroke="midnightblue" d="M847.53,-123.48C821.13,-114.7 779.27,-100.79 745.95,-89.71"/>
<polygon fill="midnightblue" stroke="midnightblue" points="746.95,-86.36 736.36,-86.52 744.74,-93 746.95,-86.36"/>
</g>
<!-- Node6&#45;&gt;Node13 -->
<g id="edge14" class="edge">
<title>Node6&#45;&gt;Node13</title>
<path fill="none" stroke="midnightblue" d="M830.09,-124.25C827.07,-123.8 824.08,-123.37 821.17,-123 611.14,-95.95 357.38,-79.88 263.98,-74.52"/>
<polygon fill="midnightblue" stroke="midnightblue" points="264.08,-71.02 253.9,-73.95 263.69,-78.01 264.08,-71.02"/>
</g>
<!-- Node14 -->
<g id="node14" class="node">
<title>Node14</title>
<g id="a_node14"><a xlink:title=" ">
<polygon fill="none" stroke="#bfbfbf" points="765.67,-62 765.67,-81 822.67,-81 822.67,-62 765.67,-62"/>
<text text-anchor="middle" x="794.17" y="-69" font-family="Helvetica,sans-Serif" font-size="10.00">ostream</text>
</a>
</g>
</g>
<!-- Node6&#45;&gt;Node14 -->
<g id="edge15" class="edge">
<title>Node6&#45;&gt;Node14</title>
<path fill="none" stroke="midnightblue" d="M861.85,-123.48C849.3,-114.02 828.82,-98.6 813.67,-87.19"/>
<polygon fill="midnightblue" stroke="midnightblue" points="815.56,-84.23 805.47,-81.01 811.35,-89.82 815.56,-84.23"/>
</g>
<!-- Node15 -->
<g id="node15" class="node">
<title>Node15</title>
<g id="a_node15"><a xlink:title=" ">
<polygon fill="none" stroke="#bfbfbf" points="840.67,-62 840.67,-81 905.67,-81 905.67,-62 840.67,-62"/>
<text text-anchor="middle" x="873.17" y="-69" font-family="Helvetica,sans-Serif" font-size="10.00">stdexcept</text>
</a>
</g>
</g>
<!-- Node6&#45;&gt;Node15 -->
<g id="edge16" class="edge">
<title>Node6&#45;&gt;Node15</title>
<path fill="none" stroke="midnightblue" d="M873.17,-123.48C873.17,-115.08 873.17,-101.98 873.17,-91.16"/>
<polygon fill="midnightblue" stroke="midnightblue" points="876.67,-91.01 873.17,-81.01 869.67,-91.01 876.67,-91.01"/>
</g>
<!-- Node7&#45;&gt;Node8 -->
<g id="edge7" class="edge">
<title>Node7&#45;&gt;Node8</title>
<path fill="none" stroke="midnightblue" d="M982.17,-61.98C982.17,-53.58 982.17,-40.48 982.17,-29.66"/>
<polygon fill="midnightblue" stroke="midnightblue" points="985.67,-29.51 982.17,-19.51 978.67,-29.51 985.67,-29.51"/>
</g>
<!-- Node9&#45;&gt;Node10 -->
<g id="edge9" class="edge">
<title>Node9&#45;&gt;Node10</title>
<path fill="none" stroke="midnightblue" d="M548.15,-61.98C538.42,-52.78 522.71,-37.96 510.75,-26.66"/>
<polygon fill="midnightblue" stroke="midnightblue" points="512.86,-23.83 503.18,-19.51 508.05,-28.92 512.86,-23.83"/>
</g>
<!-- Node11 -->
<g id="node11" class="node">
<title>Node11</title>
<g id="a_node11"><a xlink:title=" ">
<polygon fill="none" stroke="#bfbfbf" points="538.67,-0.5 538.67,-19.5 579.67,-19.5 579.67,-0.5 538.67,-0.5"/>
<text text-anchor="middle" x="559.17" y="-7.5" font-family="Helvetica,sans-Serif" font-size="10.00">tuple</text>
</a>
</g>
</g>
<!-- Node9&#45;&gt;Node11 -->
<g id="edge10" class="edge">
<title>Node9&#45;&gt;Node11</title>
<path fill="none" stroke="midnightblue" d="M557.46,-61.98C557.74,-53.58 558.18,-40.48 558.55,-29.66"/>
<polygon fill="midnightblue" stroke="midnightblue" points="562.05,-29.62 558.89,-19.51 555.05,-29.39 562.05,-29.62"/>
</g>
<!-- Node23&#45;&gt;Node7 -->
<g id="edge28" class="edge">
<title>Node23&#45;&gt;Node7</title>
<path fill="none" stroke="midnightblue" d="M991.43,-179.48C1011.17,-172.99 1033.36,-161.84 1045.17,-143 1058.95,-121.02 1031.72,-99.32 1008.85,-85.92"/>
<polygon fill="midnightblue" stroke="midnightblue" points="1010.52,-82.84 1000.08,-81.04 1007.12,-88.96 1010.52,-82.84"/>
</g>
</g>
</svg>
        <g id="navigator" transform="translate(0 0)" fill="#404254">
                <rect fill="#f2f5e9" fill-opacity="0.5" stroke="#606060" stroke-width=".5" x="0" y="0" width="60" height="60"/>
                <use id="zoomplus" xlink:href="#zoomPlus" x="17" y="9" onmousedown="handleZoom(evt,'in')"/>
                <use id="zoomminus" xlink:href="#zoomMin" x="42" y="9" onmousedown="handleZoom(evt,'out')"/>
                <use id="reset" xlink:href="#resetDef" x="30" y="36" onmousedown="handleReset()"/>
                <g id="arrowUp" xlink:href="#dirArrow" transform="translate(30 24)" onmousedown="handlePan(0,-1)">
                  <use xlink:href="#rim" fill="#404040">
                        <set attributeName="fill" to="#808080" begin="arrowUp.mouseover" end="arrowUp.mouseout"/>
                  </use>
                  <path fill="none" stroke="white" stroke-width="1.5" d="M0,-3.0v7 M-2.5,-0.5L0,-3.0L2.5,-0.5"/>
                </g>
                <g id="arrowRight" xlink:href="#dirArrow" transform="rotate(90) translate(36 -43)" onmousedown="handlePan(1,0)">
                  <use xlink:href="#rim" fill="#404040">
                        <set attributeName="fill" to="#808080" begin="arrowRight.mouseover" end="arrowRight.mouseout"/>
                  </use>
                  <path fill="none" stroke="white" stroke-width="1.5" d="M0,-3.0v7 M-2.5,-0.5L0,-3.0L2.5,-0.5"/>
                </g>
                <g id="arrowDown" xlink:href="#dirArrow" transform="rotate(180) translate(-30 -48)" onmousedown="handlePan(0,1)">
                  <use xlink:href="#rim" fill="#404040">
                        <set attributeName="fill" to="#808080" begin="arrowDown.mouseover" end="arrowDown.mouseout"/>
                  </use>
                  <path fill="none" stroke="white" stroke-width="1.5" d="M0,-3.0v7 M-2.5,-0.5L0,-3.0L2.5,-0.5"/>
                </g>
                <g id="arrowLeft" xlink:href="#dirArrow" transform="rotate(270) translate(-36 17)" onmousedown="handlePan(-1,0)">
                  <use xlink:href="#rim" fill="#404040">
                        <set attributeName="fill" to="#808080" begin="arrowLeft.mouseover" end="arrowLeft.mouseout"/>
                  </use>
                  <path fill="none" stroke="white" stroke-width="1.5" d="M0,-3.0v7 M-2.5,-0.5L0,-3.0L2.5,-0.5"/>
                </g>
        </g>
        <svg viewBox="0 0 15 15" width="100%" height="30px" preserveAspectRatio="xMaxYMin meet">
         <g id="arrow_out" transform="scale(0.3 0.3)">
          <a xlink:href="Ellipsoid_8cpp__incl_org.svg" target="_base">
           <rect id="button" ry="5" rx="5" y="6" x="6" height="38" width="38"
                fill="#f2f5e9" fill-opacity="0.5" stroke="#606060" stroke-width="1.0"/>
           <path id="arrow"
             d="M 11.500037,31.436501 C 11.940474,20.09759 22.043105,11.32322 32.158766,21.979434 L 37.068811,17.246167 C 37.068811,17.246167 37.088388,32 37.088388,32 L 22.160133,31.978069 C 22.160133,31.978069 26.997745,27.140456 26.997745,27.140456 C 18.528582,18.264221 13.291696,25.230495 11.500037,31.436501 z"
             style="fill:#404040;"/>
          </a>
         </g>
        </svg>
</svg>
