<?xml version="1.0" encoding="UTF-8" standalone="no"?>
<!DOCTYPE svg PUBLIC "-//W3C//DTD SVG 1.1//EN"
 "http://www.w3.org/Graphics/SVG/1.1/DTD/svg11.dtd">
<!-- Generated by graphviz version 2.43.0 (0)
 -->
<!-- Title: energy.hpp Pages: 1 -->
<svg width="1668pt" height="420pt"
 viewBox="0.00 0.00 1668.00 420.00" xmlns="http://www.w3.org/2000/svg" xmlns:xlink="http://www.w3.org/1999/xlink">
<g id="graph0" class="graph" transform="scale(1 1) rotate(0) translate(4 416)">
<title>energy.hpp</title>
<!-- Node1 -->
<g id="node1" class="node">
<title>Node1</title>
<g id="a_node1"><a xlink:title=" ">
<polygon fill="#bfbfbf" stroke="black" points="631.5,-392.5 631.5,-411.5 701.5,-411.5 701.5,-392.5 631.5,-392.5"/>
<text text-anchor="middle" x="666.5" y="-399.5" font-family="Helvetica,sans-Serif" font-size="10.00">energy.hpp</text>
</a>
</g>
</g>
<!-- Node2 -->
<g id="node2" class="node">
<title>Node2</title>
<g id="a_node2"><a xlink:href="DipolarBarnesHut_8cpp.html" target="_top" xlink:title=" ">
<polygon fill="none" stroke="black" points="164,-336.5 164,-355.5 287,-355.5 287,-336.5 164,-336.5"/>
<text text-anchor="middle" x="225.5" y="-343.5" font-family="Helvetica,sans-Serif" font-size="10.00">DipolarBarnesHut.cpp</text>
</a>
</g>
</g>
<!-- Node1&#45;&gt;Node2 -->
<g id="edge1" class="edge">
<title>Node1&#45;&gt;Node2</title>
<path fill="none" stroke="midnightblue" d="M621.24,-395.62C551.34,-387.28 412.92,-370.67 295.5,-356 292.83,-355.67 290.09,-355.32 287.33,-354.97"/>
<polygon fill="midnightblue" stroke="midnightblue" points="621.11,-399.13 631.45,-396.83 621.94,-392.17 621.11,-399.13"/>
</g>
<!-- Node3 -->
<g id="node3" class="node">
<title>Node3</title>
<g id="a_node3"><a xlink:href="DipolarDirectSum_8cpp.html" target="_top" xlink:title=" ">
<polygon fill="none" stroke="black" points="305,-336.5 305,-355.5 428,-355.5 428,-336.5 305,-336.5"/>
<text text-anchor="middle" x="366.5" y="-343.5" font-family="Helvetica,sans-Serif" font-size="10.00">DipolarDirectSum.cpp</text>
</a>
</g>
</g>
<!-- Node1&#45;&gt;Node3 -->
<g id="edge2" class="edge">
<title>Node1&#45;&gt;Node3</title>
<path fill="none" stroke="midnightblue" d="M621.54,-392.91C565.67,-382.85 470.78,-365.77 413.83,-355.52"/>
<polygon fill="midnightblue" stroke="midnightblue" points="621.04,-396.37 631.5,-394.7 622.28,-389.48 621.04,-396.37"/>
</g>
<!-- Node4 -->
<g id="node4" class="node">
<title>Node4</title>
<g id="a_node4"><a xlink:href="Mmm1dgpuForce_8cpp.html" target="_top" xlink:title=" ">
<polygon fill="none" stroke="black" points="446.5,-336.5 446.5,-355.5 568.5,-355.5 568.5,-336.5 446.5,-336.5"/>
<text text-anchor="middle" x="507.5" y="-343.5" font-family="Helvetica,sans-Serif" font-size="10.00">Mmm1dgpuForce.cpp</text>
</a>
</g>
</g>
<!-- Node1&#45;&gt;Node4 -->
<g id="edge3" class="edge">
<title>Node1&#45;&gt;Node4</title>
<path fill="none" stroke="midnightblue" d="M631.67,-389.17C601.73,-379 559.28,-364.59 532.58,-355.52"/>
<polygon fill="midnightblue" stroke="midnightblue" points="630.71,-392.54 641.31,-392.44 632.96,-385.91 630.71,-392.54"/>
</g>
<!-- Node5 -->
<g id="node5" class="node">
<title>Node5</title>
<g id="a_node5"><a xlink:href="core_2constraints_2Constraint_8hpp.html" target="_top" xlink:title=" ">
<polygon fill="none" stroke="black" points="586.5,-336.5 586.5,-355.5 674.5,-355.5 674.5,-336.5 586.5,-336.5"/>
<text text-anchor="middle" x="630.5" y="-343.5" font-family="Helvetica,sans-Serif" font-size="10.00">Constraint.hpp</text>
</a>
</g>
</g>
<!-- Node1&#45;&gt;Node5 -->
<g id="edge4" class="edge">
<title>Node1&#45;&gt;Node5</title>
<path fill="none" stroke="midnightblue" d="M654.88,-383.57C648.68,-374.27 641.33,-363.25 636.33,-355.75"/>
<polygon fill="midnightblue" stroke="midnightblue" points="652.1,-385.7 660.56,-392.08 657.92,-381.82 652.1,-385.7"/>
</g>
<!-- Node24 -->
<g id="node24" class="node">
<title>Node24</title>
<g id="a_node24"><a xlink:href="energy__inline_8hpp.html" target="_top" xlink:title=" ">
<polygon fill="none" stroke="black" points="1279.5,-280.5 1279.5,-299.5 1383.5,-299.5 1383.5,-280.5 1279.5,-280.5"/>
<text text-anchor="middle" x="1331.5" y="-287.5" font-family="Helvetica,sans-Serif" font-size="10.00">energy_inline.hpp</text>
</a>
</g>
</g>
<!-- Node1&#45;&gt;Node24 -->
<g id="edge35" class="edge">
<title>Node1&#45;&gt;Node24</title>
<path fill="none" stroke="midnightblue" d="M676.02,-383.69C685.56,-368.22 701.79,-346.43 722.5,-336 734.89,-329.76 1134.38,-303.63 1279.49,-294.31"/>
<polygon fill="midnightblue" stroke="midnightblue" points="672.98,-381.94 670.96,-392.34 679.03,-385.47 672.98,-381.94"/>
</g>
<!-- Node32 -->
<g id="node32" class="node">
<title>Node32</title>
<g id="a_node32"><a xlink:href="EnergyObservable_8hpp.html" target="_top" xlink:title=" ">
<polygon fill="none" stroke="black" points="731,-336.5 731,-355.5 858,-355.5 858,-336.5 731,-336.5"/>
<text text-anchor="middle" x="794.5" y="-343.5" font-family="Helvetica,sans-Serif" font-size="10.00">EnergyObservable.hpp</text>
</a>
</g>
</g>
<!-- Node1&#45;&gt;Node32 -->
<g id="edge46" class="edge">
<title>Node1&#45;&gt;Node32</title>
<path fill="none" stroke="midnightblue" d="M696.12,-388.5C720.12,-378.38 753.28,-364.39 774.31,-355.52"/>
<polygon fill="midnightblue" stroke="midnightblue" points="694.64,-385.33 686.78,-392.44 697.36,-391.78 694.64,-385.33"/>
</g>
<!-- Node35 -->
<g id="node35" class="node">
<title>Node35</title>
<g id="a_node35"><a xlink:href="ReactionAlgorithm_8cpp.html" target="_top" xlink:title=" ">
<polygon fill="none" stroke="black" points="876.5,-336.5 876.5,-355.5 1004.5,-355.5 1004.5,-336.5 876.5,-336.5"/>
<text text-anchor="middle" x="940.5" y="-343.5" font-family="Helvetica,sans-Serif" font-size="10.00">ReactionAlgorithm.cpp</text>
</a>
</g>
</g>
<!-- Node1&#45;&gt;Node35 -->
<g id="edge49" class="edge">
<title>Node1&#45;&gt;Node35</title>
<path fill="none" stroke="midnightblue" d="M711.6,-392.11C763.05,-381.97 846.59,-365.51 897.26,-355.52"/>
<polygon fill="midnightblue" stroke="midnightblue" points="710.89,-388.68 701.76,-394.05 712.25,-395.55 710.89,-388.68"/>
</g>
<!-- Node36 -->
<g id="node36" class="node">
<title>Node36</title>
<g id="a_node36"><a xlink:href="WidomInsertion_8cpp.html" target="_top" xlink:title=" ">
<polygon fill="none" stroke="black" points="1022.5,-336.5 1022.5,-355.5 1136.5,-355.5 1136.5,-336.5 1022.5,-336.5"/>
<text text-anchor="middle" x="1079.5" y="-343.5" font-family="Helvetica,sans-Serif" font-size="10.00">WidomInsertion.cpp</text>
</a>
</g>
</g>
<!-- Node1&#45;&gt;Node36 -->
<g id="edge50" class="edge">
<title>Node1&#45;&gt;Node36</title>
<path fill="none" stroke="midnightblue" d="M712.09,-395.18C778.44,-386.7 905.47,-370.37 1013.5,-356 1016.37,-355.62 1019.3,-355.23 1022.27,-354.83"/>
<polygon fill="midnightblue" stroke="midnightblue" points="711.45,-391.74 701.98,-396.48 712.34,-398.68 711.45,-391.74"/>
</g>
<!-- Node6 -->
<g id="node6" class="node">
<title>Node6</title>
<g id="a_node6"><a xlink:href="core_2constraints_2ExternalField_8hpp.html" target="_top" xlink:title=" ">
<polygon fill="none" stroke="black" points="96,-280.5 96,-299.5 197,-299.5 197,-280.5 96,-280.5"/>
<text text-anchor="middle" x="146.5" y="-287.5" font-family="Helvetica,sans-Serif" font-size="10.00">ExternalField.hpp</text>
</a>
</g>
</g>
<!-- Node5&#45;&gt;Node6 -->
<g id="edge5" class="edge">
<title>Node5&#45;&gt;Node6</title>
<path fill="none" stroke="midnightblue" d="M576.02,-335.89C415.08,-314.58 372.25,-318.26 214.5,-300 208.94,-299.36 203.13,-298.65 197.35,-297.91"/>
<polygon fill="midnightblue" stroke="midnightblue" points="575.91,-339.4 586.29,-337.26 576.84,-332.46 575.91,-339.4"/>
</g>
<!-- Node7 -->
<g id="node7" class="node">
<title>Node7</title>
<g id="a_node7"><a xlink:href="script__interface_2constraints_2ExternalField_8hpp.html" target="_top" xlink:title=" ">
<polygon fill="none" stroke="black" points="0,-224.5 0,-243.5 101,-243.5 101,-224.5 0,-224.5"/>
<text text-anchor="middle" x="50.5" y="-231.5" font-family="Helvetica,sans-Serif" font-size="10.00">ExternalField.hpp</text>
</a>
</g>
</g>
<!-- Node5&#45;&gt;Node7 -->
<g id="edge31" class="edge">
<title>Node5&#45;&gt;Node7</title>
<path fill="none" stroke="midnightblue" d="M576.29,-336.1C453.17,-324.73 176.14,-357.34 86.5,-300 66.07,-286.93 56.23,-258 52.45,-243.56"/>
<polygon fill="midnightblue" stroke="midnightblue" points="575.98,-339.59 586.3,-337.17 576.73,-332.63 575.98,-339.59"/>
</g>
<!-- Node9 -->
<g id="node9" class="node">
<title>Node9</title>
<g id="a_node9"><a xlink:href="core_2constraints_2ExternalPotential_8hpp.html" target="_top" xlink:title=" ">
<polygon fill="none" stroke="black" points="223.5,-280.5 223.5,-299.5 345.5,-299.5 345.5,-280.5 223.5,-280.5"/>
<text text-anchor="middle" x="284.5" y="-287.5" font-family="Helvetica,sans-Serif" font-size="10.00">ExternalPotential.hpp</text>
</a>
</g>
</g>
<!-- Node5&#45;&gt;Node9 -->
<g id="edge8" class="edge">
<title>Node5&#45;&gt;Node9</title>
<path fill="none" stroke="midnightblue" d="M576.17,-335.8C488.72,-321.71 398.71,-308.06 341.81,-299.53"/>
<polygon fill="midnightblue" stroke="midnightblue" points="575.83,-339.3 586.26,-337.43 576.95,-332.38 575.83,-339.3"/>
</g>
<!-- Node10 -->
<g id="node10" class="node">
<title>Node10</title>
<g id="a_node10"><a xlink:href="script__interface_2constraints_2ExternalPotential_8hpp.html" target="_top" xlink:title=" ">
<polygon fill="none" stroke="black" points="119.5,-224.5 119.5,-243.5 241.5,-243.5 241.5,-224.5 119.5,-224.5"/>
<text text-anchor="middle" x="180.5" y="-231.5" font-family="Helvetica,sans-Serif" font-size="10.00">ExternalPotential.hpp</text>
</a>
</g>
</g>
<!-- Node5&#45;&gt;Node10 -->
<g id="edge32" class="edge">
<title>Node5&#45;&gt;Node10</title>
<path fill="none" stroke="midnightblue" d="M576.26,-335.17C513.09,-323.62 415.21,-305.34 398.5,-300 378.04,-293.47 374.75,-287.16 354.5,-280 310.08,-264.29 257.52,-251.46 221.88,-243.57"/>
<polygon fill="midnightblue" stroke="midnightblue" points="576,-338.68 586.47,-337.04 577.26,-331.8 576,-338.68"/>
</g>
<!-- Node11 -->
<g id="node11" class="node">
<title>Node11</title>
<g id="a_node11"><a xlink:href="core_2constraints_2HomogeneousMagneticField_8hpp.html" target="_top" xlink:title=" ">
<polygon fill="none" stroke="black" points="407.5,-280.5 407.5,-299.5 583.5,-299.5 583.5,-280.5 407.5,-280.5"/>
<text text-anchor="middle" x="495.5" y="-287.5" font-family="Helvetica,sans-Serif" font-size="10.00">HomogeneousMagneticField.hpp</text>
</a>
</g>
</g>
<!-- Node5&#45;&gt;Node11 -->
<g id="edge11" class="edge">
<title>Node5&#45;&gt;Node11</title>
<path fill="none" stroke="midnightblue" d="M599.59,-332.64C574.26,-322.5 539.07,-308.43 516.79,-299.52"/>
<polygon fill="midnightblue" stroke="midnightblue" points="598.52,-335.98 609.11,-336.44 601.12,-329.48 598.52,-335.98"/>
</g>
<!-- Node13 -->
<g id="node13" class="node">
<title>Node13</title>
<g id="a_node13"><a xlink:href="script__interface_2constraints_2HomogeneousMagneticField_8hpp.html" target="_top" xlink:title=" ">
<polygon fill="none" stroke="black" points="453.5,-224.5 453.5,-243.5 629.5,-243.5 629.5,-224.5 453.5,-224.5"/>
<text text-anchor="middle" x="541.5" y="-231.5" font-family="Helvetica,sans-Serif" font-size="10.00">HomogeneousMagneticField.hpp</text>
</a>
</g>
</g>
<!-- Node5&#45;&gt;Node13 -->
<g id="edge33" class="edge">
<title>Node5&#45;&gt;Node13</title>
<path fill="none" stroke="midnightblue" d="M622.06,-327.2C615.14,-313.55 604.54,-294.64 592.5,-280 580.8,-265.77 564.42,-252.18 553.41,-243.72"/>
<polygon fill="midnightblue" stroke="midnightblue" points="619.05,-329.02 626.6,-336.45 625.34,-325.93 619.05,-329.02"/>
</g>
<!-- Node14 -->
<g id="node14" class="node">
<title>Node14</title>
<g id="a_node14"><a xlink:href="core_2constraints_2ShapeBasedConstraint_8hpp.html" target="_top" xlink:title=" ">
<polygon fill="none" stroke="black" points="836.5,-280.5 836.5,-299.5 984.5,-299.5 984.5,-280.5 836.5,-280.5"/>
<text text-anchor="middle" x="910.5" y="-287.5" font-family="Helvetica,sans-Serif" font-size="10.00">ShapeBasedConstraint.hpp</text>
</a>
</g>
</g>
<!-- Node5&#45;&gt;Node14 -->
<g id="edge15" class="edge">
<title>Node5&#45;&gt;Node14</title>
<path fill="none" stroke="midnightblue" d="M684.43,-334.6C737.31,-324.4 816.96,-309.04 866.24,-299.54"/>
<polygon fill="midnightblue" stroke="midnightblue" points="683.71,-331.17 674.56,-336.5 685.04,-338.05 683.71,-331.17"/>
</g>
<!-- Node17 -->
<g id="node17" class="node">
<title>Node17</title>
<g id="a_node17"><a xlink:href="script__interface_2constraints_2ShapeBasedConstraint_8hpp.html" target="_top" xlink:title=" ">
<polygon fill="none" stroke="black" points="647.5,-224.5 647.5,-243.5 795.5,-243.5 795.5,-224.5 647.5,-224.5"/>
<text text-anchor="middle" x="721.5" y="-231.5" font-family="Helvetica,sans-Serif" font-size="10.00">ShapeBasedConstraint.hpp</text>
</a>
</g>
</g>
<!-- Node5&#45;&gt;Node17 -->
<g id="edge34" class="edge">
<title>Node5&#45;&gt;Node17</title>
<path fill="none" stroke="midnightblue" d="M638.86,-327.14C645.74,-313.45 656.32,-294.52 668.5,-280 680.6,-265.57 697.63,-252.02 709.1,-243.63"/>
<polygon fill="midnightblue" stroke="midnightblue" points="635.58,-325.89 634.36,-336.42 641.87,-328.95 635.58,-325.89"/>
</g>
<!-- Node18 -->
<g id="node18" class="node">
<title>Node18</title>
<g id="a_node18"><a xlink:href="constraints_8hpp.html" target="_top" xlink:title=" ">
<polygon fill="none" stroke="black" points="1087.5,-280.5 1087.5,-299.5 1179.5,-299.5 1179.5,-280.5 1087.5,-280.5"/>
<text text-anchor="middle" x="1133.5" y="-287.5" font-family="Helvetica,sans-Serif" font-size="10.00">constraints.hpp</text>
</a>
</g>
</g>
<!-- Node5&#45;&gt;Node18 -->
<g id="edge20" class="edge">
<title>Node5&#45;&gt;Node18</title>
<path fill="none" stroke="midnightblue" d="M684.71,-336.5C685.98,-336.33 687.25,-336.16 688.5,-336 833.69,-317.41 1006.33,-301.8 1087.28,-294.86"/>
<polygon fill="midnightblue" stroke="midnightblue" points="684.22,-333.03 674.8,-337.88 685.19,-339.96 684.22,-333.03"/>
</g>
<!-- Node23 -->
<g id="node23" class="node">
<title>Node23</title>
<g id="a_node23"><a xlink:href="script__interface_2constraints_2Constraint_8hpp.html" target="_top" xlink:title=" ">
<polygon fill="none" stroke="black" points="677.5,-280.5 677.5,-299.5 765.5,-299.5 765.5,-280.5 677.5,-280.5"/>
<text text-anchor="middle" x="721.5" y="-287.5" font-family="Helvetica,sans-Serif" font-size="10.00">Constraint.hpp</text>
</a>
</g>
</g>
<!-- Node5&#45;&gt;Node23 -->
<g id="edge27" class="edge">
<title>Node5&#45;&gt;Node23</title>
<path fill="none" stroke="midnightblue" d="M653.79,-331.18C670.54,-321.24 692.6,-308.15 706.92,-299.65"/>
<polygon fill="midnightblue" stroke="midnightblue" points="651.93,-328.21 645.12,-336.32 655.51,-334.23 651.93,-328.21"/>
</g>
<!-- Node6&#45;&gt;Node7 -->
<g id="edge6" class="edge">
<title>Node6&#45;&gt;Node7</title>
<path fill="none" stroke="midnightblue" d="M121.93,-275.18C104.26,-265.24 80.99,-252.15 65.89,-243.65"/>
<polygon fill="midnightblue" stroke="midnightblue" points="120.64,-278.47 131.08,-280.32 124.08,-272.37 120.64,-278.47"/>
</g>
<!-- Node8 -->
<g id="node8" class="node">
<title>Node8</title>
<g id="a_node8"><a xlink:href="constraints_2initialize_8cpp.html" target="_top" xlink:title=" ">
<polygon fill="none" stroke="black" points="502,-168.5 502,-187.5 581,-187.5 581,-168.5 502,-168.5"/>
<text text-anchor="middle" x="541.5" y="-175.5" font-family="Helvetica,sans-Serif" font-size="10.00">initialize.cpp</text>
</a>
</g>
</g>
<!-- Node7&#45;&gt;Node8 -->
<g id="edge7" class="edge">
<title>Node7&#45;&gt;Node8</title>
<path fill="none" stroke="midnightblue" d="M111.56,-223.92C262.01,-204.98 427.63,-189.3 501.92,-182.53"/>
<polygon fill="midnightblue" stroke="midnightblue" points="110.7,-220.5 101.22,-225.23 111.58,-227.44 110.7,-220.5"/>
</g>
<!-- Node9&#45;&gt;Node10 -->
<g id="edge9" class="edge">
<title>Node9&#45;&gt;Node10</title>
<path fill="none" stroke="midnightblue" d="M258.67,-275.59C239.44,-265.61 213.76,-252.27 197.17,-243.65"/>
<polygon fill="midnightblue" stroke="midnightblue" points="257.3,-278.82 267.79,-280.32 260.53,-272.61 257.3,-278.82"/>
</g>
<!-- Node10&#45;&gt;Node8 -->
<g id="edge10" class="edge">
<title>Node10&#45;&gt;Node8</title>
<path fill="none" stroke="midnightblue" d="M247.95,-222.91C322.69,-211.73 440.71,-194.08 501.85,-184.93"/>
<polygon fill="midnightblue" stroke="midnightblue" points="247.07,-219.5 237.7,-224.44 248.11,-226.43 247.07,-219.5"/>
</g>
<!-- Node12 -->
<g id="node12" class="node">
<title>Node12</title>
<g id="a_node12"><a xlink:href="HomogeneousMagneticField_8cpp.html" target="_top" xlink:title=" ">
<polygon fill="none" stroke="black" points="260,-224.5 260,-243.5 435,-243.5 435,-224.5 260,-224.5"/>
<text text-anchor="middle" x="347.5" y="-231.5" font-family="Helvetica,sans-Serif" font-size="10.00">HomogeneousMagneticField.cpp</text>
</a>
</g>
</g>
<!-- Node11&#45;&gt;Node12 -->
<g id="edge12" class="edge">
<title>Node11&#45;&gt;Node12</title>
<path fill="none" stroke="midnightblue" d="M462.35,-276.91C434.53,-266.75 395.48,-252.51 370.84,-243.52"/>
<polygon fill="midnightblue" stroke="midnightblue" points="461.46,-280.3 472.05,-280.44 463.85,-273.73 461.46,-280.3"/>
</g>
<!-- Node11&#45;&gt;Node13 -->
<g id="edge13" class="edge">
<title>Node11&#45;&gt;Node13</title>
<path fill="none" stroke="midnightblue" d="M509.61,-272.43C517.68,-262.97 527.46,-251.48 534.05,-243.75"/>
<polygon fill="midnightblue" stroke="midnightblue" points="506.92,-270.2 503.1,-280.08 512.25,-274.74 506.92,-270.2"/>
</g>
<!-- Node13&#45;&gt;Node8 -->
<g id="edge14" class="edge">
<title>Node13&#45;&gt;Node8</title>
<path fill="none" stroke="midnightblue" d="M541.5,-213.8C541.5,-204.91 541.5,-194.78 541.5,-187.75"/>
<polygon fill="midnightblue" stroke="midnightblue" points="538,-214.08 541.5,-224.08 545,-214.08 538,-214.08"/>
</g>
<!-- Node15 -->
<g id="node15" class="node">
<title>Node15</title>
<g id="a_node15"><a xlink:href="ShapeBasedConstraint_8cpp.html" target="_top" xlink:title=" ">
<polygon fill="none" stroke="black" points="1020,-224.5 1020,-243.5 1167,-243.5 1167,-224.5 1020,-224.5"/>
<text text-anchor="middle" x="1093.5" y="-231.5" font-family="Helvetica,sans-Serif" font-size="10.00">ShapeBasedConstraint.cpp</text>
</a>
</g>
</g>
<!-- Node14&#45;&gt;Node15 -->
<g id="edge16" class="edge">
<title>Node14&#45;&gt;Node15</title>
<path fill="none" stroke="midnightblue" d="M949.24,-277.57C983.76,-267.38 1033.51,-252.7 1064.64,-243.52"/>
<polygon fill="midnightblue" stroke="midnightblue" points="948.1,-274.26 939.5,-280.44 950.08,-280.97 948.1,-274.26"/>
</g>
<!-- Node16 -->
<g id="node16" class="node">
<title>Node16</title>
<g id="a_node16"><a xlink:href="polymer_8cpp.html" target="_top" xlink:title=" ">
<polygon fill="none" stroke="black" points="925,-224.5 925,-243.5 1002,-243.5 1002,-224.5 925,-224.5"/>
<text text-anchor="middle" x="963.5" y="-231.5" font-family="Helvetica,sans-Serif" font-size="10.00">polymer.cpp</text>
</a>
</g>
</g>
<!-- Node14&#45;&gt;Node16 -->
<g id="edge17" class="edge">
<title>Node14&#45;&gt;Node16</title>
<path fill="none" stroke="midnightblue" d="M926.48,-272.72C935.82,-263.2 947.25,-251.56 954.91,-243.75"/>
<polygon fill="midnightblue" stroke="midnightblue" points="923.76,-270.49 919.25,-280.08 928.75,-275.4 923.76,-270.49"/>
</g>
<!-- Node14&#45;&gt;Node17 -->
<g id="edge18" class="edge">
<title>Node14&#45;&gt;Node17</title>
<path fill="none" stroke="midnightblue" d="M870.49,-277.57C834.83,-267.38 783.46,-252.7 751.31,-243.52"/>
<polygon fill="midnightblue" stroke="midnightblue" points="869.98,-281.06 880.55,-280.44 871.9,-274.33 869.98,-281.06"/>
</g>
<!-- Node17&#45;&gt;Node8 -->
<g id="edge19" class="edge">
<title>Node17&#45;&gt;Node8</title>
<path fill="none" stroke="midnightblue" d="M683.39,-221.57C649.44,-211.38 600.51,-196.7 569.89,-187.52"/>
<polygon fill="midnightblue" stroke="midnightblue" points="682.39,-224.92 692.98,-224.44 684.41,-218.22 682.39,-224.92"/>
</g>
<!-- Node18&#45;&gt;Node16 -->
<g id="edge24" class="edge">
<title>Node18&#45;&gt;Node16</title>
<path fill="none" stroke="midnightblue" d="M1096.68,-277.3C1064.65,-267.13 1018.98,-252.62 990.31,-243.52"/>
<polygon fill="midnightblue" stroke="midnightblue" points="1095.97,-280.75 1106.56,-280.44 1098.09,-274.08 1095.97,-280.75"/>
</g>
<!-- Node19 -->
<g id="node19" class="node">
<title>Node19</title>
<g id="a_node19"><a xlink:href="constraints_8cpp.html" target="_top" xlink:title=" ">
<polygon fill="none" stroke="black" points="1270,-224.5 1270,-243.5 1361,-243.5 1361,-224.5 1270,-224.5"/>
<text text-anchor="middle" x="1315.5" y="-231.5" font-family="Helvetica,sans-Serif" font-size="10.00">constraints.cpp</text>
</a>
</g>
</g>
<!-- Node18&#45;&gt;Node19 -->
<g id="edge21" class="edge">
<title>Node18&#45;&gt;Node19</title>
<path fill="none" stroke="midnightblue" d="M1172.03,-277.57C1206.36,-267.38 1255.83,-252.7 1286.8,-243.52"/>
<polygon fill="midnightblue" stroke="midnightblue" points="1170.93,-274.24 1162.34,-280.44 1172.92,-280.95 1170.93,-274.24"/>
</g>
<!-- Node20 -->
<g id="node20" class="node">
<title>Node20</title>
<g id="a_node20"><a xlink:href="energy_8cpp.html" target="_top" xlink:title=" ">
<polygon fill="none" stroke="black" points="1379,-224.5 1379,-243.5 1448,-243.5 1448,-224.5 1379,-224.5"/>
<text text-anchor="middle" x="1413.5" y="-231.5" font-family="Helvetica,sans-Serif" font-size="10.00">energy.cpp</text>
</a>
</g>
</g>
<!-- Node18&#45;&gt;Node20 -->
<g id="edge22" class="edge">
<title>Node18&#45;&gt;Node20</title>
<path fill="none" stroke="midnightblue" d="M1189.77,-278.62C1237.82,-269.69 1308.77,-256.32 1370.5,-244 1373.19,-243.46 1375.98,-242.9 1378.78,-242.33"/>
<polygon fill="midnightblue" stroke="midnightblue" points="1189.06,-275.19 1179.87,-280.46 1190.34,-282.08 1189.06,-275.19"/>
</g>
<!-- Node21 -->
<g id="node21" class="node">
<title>Node21</title>
<g id="a_node21"><a xlink:href="forces_8cpp.html" target="_top" xlink:title=" ">
<polygon fill="none" stroke="black" points="1185,-224.5 1185,-243.5 1252,-243.5 1252,-224.5 1185,-224.5"/>
<text text-anchor="middle" x="1218.5" y="-231.5" font-family="Helvetica,sans-Serif" font-size="10.00">forces.cpp</text>
</a>
</g>
</g>
<!-- Node18&#45;&gt;Node21 -->
<g id="edge23" class="edge">
<title>Node18&#45;&gt;Node21</title>
<path fill="none" stroke="midnightblue" d="M1155.69,-274.9C1171.28,-265 1191.63,-252.07 1204.88,-243.65"/>
<polygon fill="midnightblue" stroke="midnightblue" points="1153.72,-272.01 1147.16,-280.32 1157.47,-277.92 1153.72,-272.01"/>
</g>
<!-- Node22 -->
<g id="node22" class="node">
<title>Node22</title>
<g id="a_node22"><a xlink:href="script__interface_2constraints_2Constraints_8hpp.html" target="_top" xlink:title=" ">
<polygon fill="none" stroke="black" points="814,-224.5 814,-243.5 907,-243.5 907,-224.5 814,-224.5"/>
<text text-anchor="middle" x="860.5" y="-231.5" font-family="Helvetica,sans-Serif" font-size="10.00">Constraints.hpp</text>
</a>
</g>
</g>
<!-- Node18&#45;&gt;Node22 -->
<g id="edge25" class="edge">
<title>Node18&#45;&gt;Node22</title>
<path fill="none" stroke="midnightblue" d="M1080.28,-278.47C1028.69,-268.27 951.4,-252.98 903.56,-243.52"/>
<polygon fill="midnightblue" stroke="midnightblue" points="1079.75,-281.94 1090.24,-280.44 1081.11,-275.07 1079.75,-281.94"/>
</g>
<!-- Node22&#45;&gt;Node8 -->
<g id="edge26" class="edge">
<title>Node22&#45;&gt;Node8</title>
<path fill="none" stroke="midnightblue" d="M803.85,-223.41C739.85,-212.58 637.35,-195.23 581.29,-185.74"/>
<polygon fill="midnightblue" stroke="midnightblue" points="803.33,-226.87 813.77,-225.09 804.5,-219.97 803.33,-226.87"/>
</g>
<!-- Node23&#45;&gt;Node13 -->
<g id="edge29" class="edge">
<title>Node23&#45;&gt;Node13</title>
<path fill="none" stroke="midnightblue" d="M683.39,-277.57C649.44,-267.38 600.51,-252.7 569.89,-243.52"/>
<polygon fill="midnightblue" stroke="midnightblue" points="682.39,-280.92 692.98,-280.44 684.41,-274.22 682.39,-280.92"/>
</g>
<!-- Node23&#45;&gt;Node17 -->
<g id="edge30" class="edge">
<title>Node23&#45;&gt;Node17</title>
<path fill="none" stroke="midnightblue" d="M721.5,-269.8C721.5,-260.91 721.5,-250.78 721.5,-243.75"/>
<polygon fill="midnightblue" stroke="midnightblue" points="718,-270.08 721.5,-280.08 725,-270.08 718,-270.08"/>
</g>
<!-- Node23&#45;&gt;Node22 -->
<g id="edge28" class="edge">
<title>Node23&#45;&gt;Node22</title>
<path fill="none" stroke="midnightblue" d="M752.98,-276.77C779.09,-266.63 815.54,-252.47 838.58,-243.52"/>
<polygon fill="midnightblue" stroke="midnightblue" points="751.58,-273.56 743.52,-280.44 754.11,-280.08 751.58,-273.56"/>
</g>
<!-- Node24&#45;&gt;Node15 -->
<g id="edge36" class="edge">
<title>Node24&#45;&gt;Node15</title>
<path fill="none" stroke="midnightblue" d="M1283.98,-278.22C1239,-268.01 1172.4,-252.9 1131.04,-243.52"/>
<polygon fill="midnightblue" stroke="midnightblue" points="1283.26,-281.64 1293.79,-280.44 1284.81,-274.82 1283.26,-281.64"/>
</g>
<!-- Node24&#45;&gt;Node20 -->
<g id="edge37" class="edge">
<title>Node24&#45;&gt;Node20</title>
<path fill="none" stroke="midnightblue" d="M1353.33,-274.62C1368.31,-264.76 1387.7,-251.99 1400.36,-243.65"/>
<polygon fill="midnightblue" stroke="midnightblue" points="1351.1,-271.9 1344.67,-280.32 1354.95,-277.75 1351.1,-271.9"/>
</g>
<!-- Node25 -->
<g id="node25" class="node">
<title>Node25</title>
<g id="a_node25"><a xlink:href="core_2pair__criteria_2pair__criteria_8hpp.html" target="_top" xlink:title=" ">
<polygon fill="none" stroke="black" points="1466.5,-224.5 1466.5,-243.5 1562.5,-243.5 1562.5,-224.5 1466.5,-224.5"/>
<text text-anchor="middle" x="1514.5" y="-231.5" font-family="Helvetica,sans-Serif" font-size="10.00">pair_criteria.hpp</text>
</a>
</g>
</g>
<!-- Node24&#45;&gt;Node25 -->
<g id="edge38" class="edge">
<title>Node24&#45;&gt;Node25</title>
<path fill="none" stroke="midnightblue" d="M1370.24,-277.57C1404.76,-267.38 1454.51,-252.7 1485.64,-243.52"/>
<polygon fill="midnightblue" stroke="midnightblue" points="1369.1,-274.26 1360.5,-280.44 1371.08,-280.97 1369.1,-274.26"/>
</g>
<!-- Node26 -->
<g id="node26" class="node">
<title>Node26</title>
<g id="a_node26"><a xlink:href="script__interface_2pair__criteria_2pair__criteria_8hpp.html" target="_top" xlink:title=" ">
<polygon fill="none" stroke="black" points="1466.5,-168.5 1466.5,-187.5 1562.5,-187.5 1562.5,-168.5 1466.5,-168.5"/>
<text text-anchor="middle" x="1514.5" y="-175.5" font-family="Helvetica,sans-Serif" font-size="10.00">pair_criteria.hpp</text>
</a>
</g>
</g>
<!-- Node25&#45;&gt;Node26 -->
<g id="edge39" class="edge">
<title>Node25&#45;&gt;Node26</title>
<path fill="none" stroke="midnightblue" d="M1514.5,-213.8C1514.5,-204.91 1514.5,-194.78 1514.5,-187.75"/>
<polygon fill="midnightblue" stroke="midnightblue" points="1511,-214.08 1514.5,-224.08 1518,-214.08 1511,-214.08"/>
</g>
<!-- Node27 -->
<g id="node27" class="node">
<title>Node27</title>
<g id="a_node27"><a xlink:href="core_2cluster__analysis_2ClusterStructure_8hpp.html" target="_top" xlink:title=" ">
<polygon fill="none" stroke="black" points="1370.5,-112.5 1370.5,-131.5 1486.5,-131.5 1486.5,-112.5 1370.5,-112.5"/>
<text text-anchor="middle" x="1428.5" y="-119.5" font-family="Helvetica,sans-Serif" font-size="10.00">ClusterStructure.hpp</text>
</a>
</g>
</g>
<!-- Node26&#45;&gt;Node27 -->
<g id="edge40" class="edge">
<title>Node26&#45;&gt;Node27</title>
<path fill="none" stroke="midnightblue" d="M1492.05,-162.9C1476.28,-153 1455.69,-140.07 1442.28,-131.65"/>
<polygon fill="midnightblue" stroke="midnightblue" points="1490.35,-165.97 1500.68,-168.32 1494.07,-160.04 1490.35,-165.97"/>
</g>
<!-- Node29 -->
<g id="node29" class="node">
<title>Node29</title>
<g id="a_node29"><a xlink:href="script__interface_2cluster__analysis_2ClusterStructure_8hpp.html" target="_top" xlink:title=" ">
<polygon fill="none" stroke="black" points="1456.5,-56.5 1456.5,-75.5 1572.5,-75.5 1572.5,-56.5 1456.5,-56.5"/>
<text text-anchor="middle" x="1514.5" y="-63.5" font-family="Helvetica,sans-Serif" font-size="10.00">ClusterStructure.hpp</text>
</a>
</g>
</g>
<!-- Node26&#45;&gt;Node29 -->
<g id="edge44" class="edge">
<title>Node26&#45;&gt;Node29</title>
<path fill="none" stroke="midnightblue" d="M1514.5,-158.35C1514.5,-134.25 1514.5,-93.31 1514.5,-75.59"/>
<polygon fill="midnightblue" stroke="midnightblue" points="1511,-158.37 1514.5,-168.37 1518,-158.37 1511,-158.37"/>
</g>
<!-- Node31 -->
<g id="node31" class="node">
<title>Node31</title>
<g id="a_node31"><a xlink:href="pair__criteria_2initialize_8cpp.html" target="_top" xlink:title=" ">
<polygon fill="none" stroke="black" points="1543,-112.5 1543,-131.5 1622,-131.5 1622,-112.5 1543,-112.5"/>
<text text-anchor="middle" x="1582.5" y="-119.5" font-family="Helvetica,sans-Serif" font-size="10.00">initialize.cpp</text>
</a>
</g>
</g>
<!-- Node26&#45;&gt;Node31 -->
<g id="edge45" class="edge">
<title>Node26&#45;&gt;Node31</title>
<path fill="none" stroke="midnightblue" d="M1533.26,-162.1C1545.5,-152.38 1561.06,-140.03 1571.38,-131.83"/>
<polygon fill="midnightblue" stroke="midnightblue" points="1531.08,-159.36 1525.43,-168.32 1535.43,-164.85 1531.08,-159.36"/>
</g>
<!-- Node28 -->
<g id="node28" class="node">
<title>Node28</title>
<g id="a_node28"><a xlink:href="ClusterStructure_8cpp.html" target="_top" xlink:title=" ">
<polygon fill="none" stroke="black" points="1322.5,-56.5 1322.5,-75.5 1438.5,-75.5 1438.5,-56.5 1322.5,-56.5"/>
<text text-anchor="middle" x="1380.5" y="-63.5" font-family="Helvetica,sans-Serif" font-size="10.00">ClusterStructure.cpp</text>
</a>
</g>
</g>
<!-- Node27&#45;&gt;Node28 -->
<g id="edge41" class="edge">
<title>Node27&#45;&gt;Node28</title>
<path fill="none" stroke="midnightblue" d="M1413.77,-104.43C1405.36,-94.97 1395.15,-83.48 1388.28,-75.75"/>
<polygon fill="midnightblue" stroke="midnightblue" points="1411.31,-106.93 1420.57,-112.08 1416.55,-102.28 1411.31,-106.93"/>
</g>
<!-- Node27&#45;&gt;Node29 -->
<g id="edge42" class="edge">
<title>Node27&#45;&gt;Node29</title>
<path fill="none" stroke="midnightblue" d="M1450.95,-106.9C1466.72,-97 1487.31,-84.07 1500.72,-75.65"/>
<polygon fill="midnightblue" stroke="midnightblue" points="1448.93,-104.04 1442.32,-112.32 1452.65,-109.97 1448.93,-104.04"/>
</g>
<!-- Node30 -->
<g id="node30" class="node">
<title>Node30</title>
<g id="a_node30"><a xlink:href="cluster__analysis_2initialize_8cpp.html" target="_top" xlink:title=" ">
<polygon fill="none" stroke="black" points="1475,-0.5 1475,-19.5 1554,-19.5 1554,-0.5 1475,-0.5"/>
<text text-anchor="middle" x="1514.5" y="-7.5" font-family="Helvetica,sans-Serif" font-size="10.00">initialize.cpp</text>
</a>
</g>
</g>
<!-- Node29&#45;&gt;Node30 -->
<g id="edge43" class="edge">
<title>Node29&#45;&gt;Node30</title>
<path fill="none" stroke="midnightblue" d="M1514.5,-45.8C1514.5,-36.91 1514.5,-26.78 1514.5,-19.75"/>
<polygon fill="midnightblue" stroke="midnightblue" points="1511,-46.08 1514.5,-56.08 1518,-46.08 1511,-46.08"/>
</g>
<!-- Node33 -->
<g id="node33" class="node">
<title>Node33</title>
<g id="a_node33"><a xlink:href="ParamlessObservable_8hpp.html" target="_top" xlink:title=" ">
<polygon fill="none" stroke="black" points="1474.5,-280.5 1474.5,-299.5 1618.5,-299.5 1618.5,-280.5 1474.5,-280.5"/>
<text text-anchor="middle" x="1546.5" y="-287.5" font-family="Helvetica,sans-Serif" font-size="10.00">ParamlessObservable.hpp</text>
</a>
</g>
</g>
<!-- Node32&#45;&gt;Node33 -->
<g id="edge47" class="edge">
<title>Node32&#45;&gt;Node33</title>
<path fill="none" stroke="midnightblue" d="M868.14,-336.01C1000.75,-323.96 1328.09,-303.99 1474.24,-295.27"/>
<polygon fill="midnightblue" stroke="midnightblue" points="867.81,-332.52 858.18,-336.93 868.46,-339.49 867.81,-332.52"/>
</g>
<!-- Node34 -->
<g id="node34" class="node">
<title>Node34</title>
<g id="a_node34"><a xlink:href="observables_2initialize_8cpp.html" target="_top" xlink:title=" ">
<polygon fill="none" stroke="black" points="1581,-224.5 1581,-243.5 1660,-243.5 1660,-224.5 1581,-224.5"/>
<text text-anchor="middle" x="1620.5" y="-231.5" font-family="Helvetica,sans-Serif" font-size="10.00">initialize.cpp</text>
</a>
</g>
</g>
<!-- Node33&#45;&gt;Node34 -->
<g id="edge48" class="edge">
<title>Node33&#45;&gt;Node34</title>
<path fill="none" stroke="midnightblue" d="M1566.53,-274.38C1579.91,-264.62 1597.06,-252.11 1608.39,-243.83"/>
<polygon fill="midnightblue" stroke="midnightblue" points="1564.4,-271.6 1558.39,-280.32 1568.53,-277.26 1564.4,-271.6"/>
</g>
</g>
</svg>
