<?xml version="1.0" encoding="UTF-8" standalone="no"?>
<!DOCTYPE svg PUBLIC "-//W3C//DTD SVG 1.1//EN"
 "http://www.w3.org/Graphics/SVG/1.1/DTD/svg11.dtd">
<!-- Generated by graphviz version 2.43.0 (0)
 -->
<!-- Title: errorhandling.hpp Pages: 1 -->
<svg width="492pt" height="207pt"
 viewBox="0.00 0.00 492.00 207.00" xmlns="http://www.w3.org/2000/svg" xmlns:xlink="http://www.w3.org/1999/xlink">
<g id="graph0" class="graph" transform="scale(1 1) rotate(0) translate(4 203)">
<title>errorhandling.hpp</title>
<!-- Node1 -->
<g id="node1" class="node">
<title>Node1</title>
<g id="a_node1"><a xlink:title=" ">
<polygon fill="#bfbfbf" stroke="black" points="260,-179.5 260,-198.5 363,-198.5 363,-179.5 260,-179.5"/>
<text text-anchor="middle" x="311.5" y="-186.5" font-family="Helvetica,sans-Serif" font-size="10.00">errorhandling.hpp</text>
</a>
</g>
</g>
<!-- Node2 -->
<g id="node2" class="node">
<title>Node2</title>
<g id="a_node2"><a xlink:href="config_8hpp.html" target="_top" xlink:title=" ">
<polygon fill="none" stroke="black" points="88.5,-123.5 88.5,-142.5 156.5,-142.5 156.5,-123.5 88.5,-123.5"/>
<text text-anchor="middle" x="122.5" y="-130.5" font-family="Helvetica,sans-Serif" font-size="10.00">config.hpp</text>
</a>
</g>
</g>
<!-- Node1&#45;&gt;Node2 -->
<g id="edge1" class="edge">
<title>Node1&#45;&gt;Node2</title>
<path fill="none" stroke="midnightblue" d="M281.55,-179.44C249.34,-170.24 197.97,-155.56 162.36,-145.39"/>
<polygon fill="midnightblue" stroke="midnightblue" points="162.88,-141.9 152.31,-142.52 160.96,-148.63 162.88,-141.9"/>
</g>
<!-- Node4 -->
<g id="node4" class="node">
<title>Node4</title>
<g id="a_node4"><a xlink:href="RuntimeError_8hpp.html" target="_top" xlink:title=" ">
<polygon fill="none" stroke="black" points="166.5,-67.5 166.5,-86.5 268.5,-86.5 268.5,-67.5 166.5,-67.5"/>
<text text-anchor="middle" x="217.5" y="-74.5" font-family="Helvetica,sans-Serif" font-size="10.00">RuntimeError.hpp</text>
</a>
</g>
</g>
<!-- Node1&#45;&gt;Node4 -->
<g id="edge3" class="edge">
<title>Node1&#45;&gt;Node4</title>
<path fill="none" stroke="midnightblue" d="M286.07,-179.43C268.74,-172.32 246.65,-160.5 233.5,-143 223.57,-129.79 219.74,-111.2 218.29,-97.29"/>
<polygon fill="midnightblue" stroke="midnightblue" points="221.75,-96.64 217.55,-86.92 214.77,-97.14 221.75,-96.64"/>
</g>
<!-- Node7 -->
<g id="node7" class="node">
<title>Node7</title>
<g id="a_node7"><a xlink:title=" ">
<polygon fill="none" stroke="#bfbfbf" points="313.5,-6 313.5,-25 357.5,-25 357.5,-6 313.5,-6"/>
<text text-anchor="middle" x="335.5" y="-13" font-family="Helvetica,sans-Serif" font-size="10.00">string</text>
</a>
</g>
</g>
<!-- Node1&#45;&gt;Node7 -->
<g id="edge12" class="edge">
<title>Node1&#45;&gt;Node7</title>
<path fill="none" stroke="midnightblue" d="M340.62,-179.44C358.14,-172.62 379.02,-161.14 389.5,-143 406.39,-113.75 402.95,-97.99 389.5,-67 383.04,-52.12 369.81,-39.63 358.06,-30.79"/>
<polygon fill="midnightblue" stroke="midnightblue" points="360.07,-27.93 349.88,-25.02 356.03,-33.65 360.07,-27.93"/>
</g>
<!-- Node9 -->
<g id="node9" class="node">
<title>Node9</title>
<g id="a_node9"><a xlink:href="RuntimeErrorStream_8hpp.html" target="_top" xlink:title=" ">
<polygon fill="none" stroke="black" points="243,-123.5 243,-142.5 380,-142.5 380,-123.5 243,-123.5"/>
<text text-anchor="middle" x="311.5" y="-130.5" font-family="Helvetica,sans-Serif" font-size="10.00">RuntimeErrorStream.hpp</text>
</a>
</g>
</g>
<!-- Node1&#45;&gt;Node9 -->
<g id="edge8" class="edge">
<title>Node1&#45;&gt;Node9</title>
<path fill="none" stroke="midnightblue" d="M311.5,-179.08C311.5,-172.01 311.5,-161.86 311.5,-152.99"/>
<polygon fill="midnightblue" stroke="midnightblue" points="315,-152.75 311.5,-142.75 308,-152.75 315,-152.75"/>
</g>
<!-- Node11 -->
<g id="node11" class="node">
<title>Node11</title>
<g id="a_node11"><a xlink:title=" ">
<polygon fill="none" stroke="#bfbfbf" points="437,-123.5 437,-142.5 484,-142.5 484,-123.5 437,-123.5"/>
<text text-anchor="middle" x="460.5" y="-130.5" font-family="Helvetica,sans-Serif" font-size="10.00">vector</text>
</a>
</g>
</g>
<!-- Node1&#45;&gt;Node11 -->
<g id="edge13" class="edge">
<title>Node1&#45;&gt;Node11</title>
<path fill="none" stroke="midnightblue" d="M335.11,-179.44C359.96,-170.44 399.27,-156.19 427.25,-146.05"/>
<polygon fill="midnightblue" stroke="midnightblue" points="428.79,-149.21 437,-142.52 426.41,-142.63 428.79,-149.21"/>
</g>
<!-- Node3 -->
<g id="node3" class="node">
<title>Node3</title>
<g id="a_node3"><a xlink:title=" ">
<polygon fill="none" stroke="#bfbfbf" points="36.5,-67.5 36.5,-86.5 148.5,-86.5 148.5,-67.5 36.5,-67.5"/>
<text text-anchor="middle" x="92.5" y="-74.5" font-family="Helvetica,sans-Serif" font-size="10.00">config&#45;features.hpp</text>
</a>
</g>
</g>
<!-- Node2&#45;&gt;Node3 -->
<g id="edge2" class="edge">
<title>Node2&#45;&gt;Node3</title>
<path fill="none" stroke="midnightblue" d="M117.55,-123.08C113.4,-115.61 107.35,-104.72 102.23,-95.52"/>
<polygon fill="midnightblue" stroke="midnightblue" points="105.28,-93.79 97.36,-86.75 99.16,-97.19 105.28,-93.79"/>
</g>
<!-- Node5 -->
<g id="node5" class="node">
<title>Node5</title>
<g id="a_node5"><a xlink:title=" ">
<polygon fill="none" stroke="#bfbfbf" points="0,-0.5 0,-30.5 107,-30.5 107,-0.5 0,-0.5"/>
<text text-anchor="start" x="8" y="-18.5" font-family="Helvetica,sans-Serif" font-size="10.00">boost/serialization</text>
<text text-anchor="middle" x="53.5" y="-7.5" font-family="Helvetica,sans-Serif" font-size="10.00">/access.hpp</text>
</a>
</g>
</g>
<!-- Node4&#45;&gt;Node5 -->
<g id="edge4" class="edge">
<title>Node4&#45;&gt;Node5</title>
<path fill="none" stroke="midnightblue" d="M194,-67.48C170.03,-58.78 132.13,-45.03 101.73,-34"/>
<polygon fill="midnightblue" stroke="midnightblue" points="102.75,-30.64 92.15,-30.52 100.36,-37.22 102.75,-30.64"/>
</g>
<!-- Node6 -->
<g id="node6" class="node">
<title>Node6</title>
<g id="a_node6"><a xlink:title=" ">
<polygon fill="none" stroke="#bfbfbf" points="125,-0.5 125,-30.5 232,-30.5 232,-0.5 125,-0.5"/>
<text text-anchor="start" x="133" y="-18.5" font-family="Helvetica,sans-Serif" font-size="10.00">boost/serialization</text>
<text text-anchor="middle" x="178.5" y="-7.5" font-family="Helvetica,sans-Serif" font-size="10.00">/string.hpp</text>
</a>
</g>
</g>
<!-- Node4&#45;&gt;Node6 -->
<g id="edge5" class="edge">
<title>Node4&#45;&gt;Node6</title>
<path fill="none" stroke="midnightblue" d="M211.91,-67.48C207.07,-60.09 199.85,-49.08 193.36,-39.17"/>
<polygon fill="midnightblue" stroke="midnightblue" points="196.1,-36.97 187.69,-30.52 190.25,-40.81 196.1,-36.97"/>
</g>
<!-- Node4&#45;&gt;Node7 -->
<g id="edge6" class="edge">
<title>Node4&#45;&gt;Node7</title>
<path fill="none" stroke="midnightblue" d="M234.41,-67.48C254.03,-57.58 286.63,-41.14 309.49,-29.62"/>
<polygon fill="midnightblue" stroke="midnightblue" points="311.27,-32.64 318.62,-25.01 308.12,-26.39 311.27,-32.64"/>
</g>
<!-- Node8 -->
<g id="node8" class="node">
<title>Node8</title>
<g id="a_node8"><a xlink:title=" ">
<polygon fill="none" stroke="#bfbfbf" points="250,-6 250,-25 295,-25 295,-6 250,-6"/>
<text text-anchor="middle" x="272.5" y="-13" font-family="Helvetica,sans-Serif" font-size="10.00">utility</text>
</a>
</g>
</g>
<!-- Node4&#45;&gt;Node8 -->
<g id="edge7" class="edge">
<title>Node4&#45;&gt;Node8</title>
<path fill="none" stroke="midnightblue" d="M225.38,-67.48C233.79,-58.37 247.32,-43.74 257.73,-32.48"/>
<polygon fill="midnightblue" stroke="midnightblue" points="260.42,-34.73 264.63,-25.01 255.28,-29.98 260.42,-34.73"/>
</g>
<!-- Node9&#45;&gt;Node4 -->
<g id="edge9" class="edge">
<title>Node9&#45;&gt;Node4</title>
<path fill="none" stroke="midnightblue" d="M296.4,-123.32C281.6,-114.82 258.81,-101.73 241.52,-91.8"/>
<polygon fill="midnightblue" stroke="midnightblue" points="242.98,-88.6 232.57,-86.65 239.49,-94.67 242.98,-88.6"/>
</g>
<!-- Node9&#45;&gt;Node7 -->
<g id="edge11" class="edge">
<title>Node9&#45;&gt;Node7</title>
<path fill="none" stroke="midnightblue" d="M311.18,-123.47C310.89,-110.93 311.07,-86.86 315.5,-67 318,-55.78 322.65,-43.79 326.84,-34.32"/>
<polygon fill="midnightblue" stroke="midnightblue" points="330.05,-35.72 331.08,-25.17 323.7,-32.77 330.05,-35.72"/>
</g>
<!-- Node10 -->
<g id="node10" class="node">
<title>Node10</title>
<g id="a_node10"><a xlink:title=" ">
<polygon fill="none" stroke="#bfbfbf" points="324.5,-67.5 324.5,-86.5 380.5,-86.5 380.5,-67.5 324.5,-67.5"/>
<text text-anchor="middle" x="352.5" y="-74.5" font-family="Helvetica,sans-Serif" font-size="10.00">sstream</text>
</a>
</g>
</g>
<!-- Node9&#45;&gt;Node10 -->
<g id="edge10" class="edge">
<title>Node9&#45;&gt;Node10</title>
<path fill="none" stroke="midnightblue" d="M318.27,-123.08C324.06,-115.46 332.56,-104.26 339.64,-94.94"/>
<polygon fill="midnightblue" stroke="midnightblue" points="342.6,-96.83 345.86,-86.75 337.02,-92.6 342.6,-96.83"/>
</g>
</g>
</svg>
