<?xml version="1.0" encoding="UTF-8" standalone="no"?>
<!DOCTYPE svg PUBLIC "-//W3C//DTD SVG 1.1//EN"
 "http://www.w3.org/Graphics/SVG/1.1/DTD/svg11.dtd">
<!-- Generated by graphviz version 2.43.0 (0)
 -->
<!-- Title: fft.hpp Pages: 1 -->
<!--zoomable 263 -->
<svg id="main" version="1.1" xmlns="http://www.w3.org/2000/svg" xmlns:xlink="http://www.w3.org/1999/xlink" xml:space="preserve" onload="init(evt)">
<style type="text/css"><![CDATA[
.edge:hover path { stroke: red; }
.edge:hover polygon { stroke: red; fill: red; }
]]></style>
<script type="text/javascript"><![CDATA[
var edges = document.getElementsByTagName('g');
if (edges && edges.length) {
  for (var i=0;i<edges.length;i++) {
    if (edges[i].id.substr(0,4)=='edge') {
      edges[i].setAttribute('class','edge');
    }
  }
}
]]></script>
        <defs>
                <circle id="rim" cx="0" cy="0" r="7"/>
                <circle id="rim2" cx="0" cy="0" r="3.5"/>
                <g id="zoomPlus">
                        <use xlink:href="#rim" fill="#404040">
                                <set attributeName="fill" to="#808080" begin="zoomplus.mouseover" end="zoomplus.mouseout"/>
                        </use>
                        <path d="M-4,0h8M0,-4v8" fill="none" stroke="white" stroke-width="1.5" pointer-events="none"/>
                </g>
                <g id="zoomMin">
                        <use xlink:href="#rim" fill="#404040">
                                <set attributeName="fill" to="#808080" begin="zoomminus.mouseover" end="zoomminus.mouseout"/>
                        </use>
                        <path d="M-4,0h8" fill="none" stroke="white" stroke-width="1.5" pointer-events="none"/>
                </g>
                <g id="dirArrow">
                        <path fill="none" stroke="white" stroke-width="1.5" d="M0,-3.0v7 M-2.5,-0.5L0,-3.0L2.5,-0.5"/>
                </g>
               <g id="resetDef">
                       <use xlink:href="#rim2" fill="#404040">
                               <set attributeName="fill" to="#808080" begin="reset.mouseover" end="reset.mouseout"/>
                       </use>
               </g>
        </defs>

<script type="text/javascript">
var viewWidth = 1310;
var viewHeight = 263;
var sectionId = 'dynsection-0';
</script>
<script xlink:href="svgpan.js"/>
<svg id="graph" class="graph">
<g id="viewport">
<title>fft.hpp</title>
<!-- Node1 -->
<g id="node1" class="node">
<title>Node1</title>
<g id="a_node1"><a xlink:title=" ">
<polygon fill="#bfbfbf" stroke="black" points="787.5,-235.5 787.5,-254.5 836.5,-254.5 836.5,-235.5 787.5,-235.5"/>
<text text-anchor="middle" x="812" y="-242.5" font-family="Helvetica,sans-Serif" font-size="10.00">fft.hpp</text>
</a>
</g>
</g>
<!-- Node2 -->
<g id="node2" class="node">
<title>Node2</title>
<g id="a_node2"><a xlink:href="config_8hpp.html" target="_top" xlink:title=" ">
<polygon fill="none" stroke="black" points="33,-179.5 33,-198.5 101,-198.5 101,-179.5 33,-179.5"/>
<text text-anchor="middle" x="67" y="-186.5" font-family="Helvetica,sans-Serif" font-size="10.00">config.hpp</text>
</a>
</g>
</g>
<!-- Node1&#45;&gt;Node2 -->
<g id="edge1" class="edge">
<title>Node1&#45;&gt;Node2</title>
<path fill="none" stroke="midnightblue" d="M787.32,-243.15C698.08,-239.9 383.77,-227.06 126,-199 121.23,-198.48 116.25,-197.85 111.3,-197.18"/>
<polygon fill="midnightblue" stroke="midnightblue" points="111.65,-193.69 101.25,-195.73 110.65,-200.62 111.65,-193.69"/>
</g>
<!-- Node4 -->
<g id="node4" class="node">
<title>Node4</title>
<g id="a_node4"><a xlink:href="Vector_8hpp.html" target="_top" xlink:title=" ">
<polygon fill="none" stroke="black" points="671.5,-179.5 671.5,-198.5 764.5,-198.5 764.5,-179.5 671.5,-179.5"/>
<text text-anchor="middle" x="718" y="-186.5" font-family="Helvetica,sans-Serif" font-size="10.00">utils/Vector.hpp</text>
</a>
</g>
</g>
<!-- Node1&#45;&gt;Node4 -->
<g id="edge3" class="edge">
<title>Node1&#45;&gt;Node4</title>
<path fill="none" stroke="midnightblue" d="M796.9,-235.32C782.1,-226.82 759.31,-213.73 742.02,-203.8"/>
<polygon fill="midnightblue" stroke="midnightblue" points="743.48,-200.6 733.07,-198.65 739.99,-206.67 743.48,-200.6"/>
</g>
<!-- Node11 -->
<g id="node11" class="node">
<title>Node11</title>
<g id="a_node11"><a xlink:title=" ">
<polygon fill="none" stroke="#bfbfbf" points="170.5,-0.5 170.5,-19.5 223.5,-19.5 223.5,-0.5 170.5,-0.5"/>
<text text-anchor="middle" x="197" y="-7.5" font-family="Helvetica,sans-Serif" font-size="10.00">cstddef</text>
</a>
</g>
</g>
<!-- Node1&#45;&gt;Node11 -->
<g id="edge31" class="edge">
<title>Node1&#45;&gt;Node11</title>
<path fill="none" stroke="midnightblue" d="M787.29,-242.86C686.99,-237.79 311.43,-214.29 221,-143 187.25,-116.39 189.68,-59.57 193.67,-29.91"/>
<polygon fill="midnightblue" stroke="midnightblue" points="197.19,-30.09 195.26,-19.67 190.27,-29.01 197.19,-30.09"/>
</g>
<!-- Node17 -->
<g id="node17" class="node">
<title>Node17</title>
<g id="a_node17"><a xlink:title=" ">
<polygon fill="none" stroke="#bfbfbf" points="1172,-123.5 1172,-142.5 1236,-142.5 1236,-123.5 1172,-123.5"/>
<text text-anchor="middle" x="1204" y="-130.5" font-family="Helvetica,sans-Serif" font-size="10.00">algorithm</text>
</a>
</g>
</g>
<!-- Node1&#45;&gt;Node17 -->
<g id="edge30" class="edge">
<title>Node1&#45;&gt;Node17</title>
<path fill="none" stroke="midnightblue" d="M809.63,-235.46C806.34,-221.57 802.33,-194.1 817,-179 870.11,-124.36 1082.65,-154.33 1158,-143 1159.27,-142.81 1160.55,-142.61 1161.85,-142.4"/>
<polygon fill="midnightblue" stroke="midnightblue" points="1162.64,-145.81 1171.89,-140.66 1161.44,-138.92 1162.64,-145.81"/>
</g>
<!-- Node23 -->
<g id="node23" class="node">
<title>Node23</title>
<g id="a_node23"><a xlink:title=" ">
<polygon fill="none" stroke="#bfbfbf" points="1254.5,-123.5 1254.5,-142.5 1301.5,-142.5 1301.5,-123.5 1254.5,-123.5"/>
<text text-anchor="middle" x="1278" y="-130.5" font-family="Helvetica,sans-Serif" font-size="10.00">vector</text>
</a>
</g>
</g>
<!-- Node1&#45;&gt;Node23 -->
<g id="edge33" class="edge">
<title>Node1&#45;&gt;Node23</title>
<path fill="none" stroke="midnightblue" d="M814.23,-235.47C818.49,-221.06 829.26,-192.19 850,-179 921.91,-133.28 1142.9,-156.95 1244.31,-142.61"/>
<polygon fill="midnightblue" stroke="midnightblue" points="1245.01,-146.04 1254.32,-140.99 1243.89,-139.13 1245.01,-146.04"/>
</g>
<!-- Node24 -->
<g id="node24" class="node">
<title>Node24</title>
<g id="a_node24"><a xlink:title=" ">
<polygon fill="none" stroke="#bfbfbf" points="859,-179.5 859,-198.5 1019,-198.5 1019,-179.5 859,-179.5"/>
<text text-anchor="middle" x="939" y="-186.5" font-family="Helvetica,sans-Serif" font-size="10.00">boost/mpi/communicator.hpp</text>
</a>
</g>
</g>
<!-- Node1&#45;&gt;Node24 -->
<g id="edge28" class="edge">
<title>Node1&#45;&gt;Node24</title>
<path fill="none" stroke="midnightblue" d="M832.12,-235.44C853.02,-226.56 885.93,-212.56 909.72,-202.45"/>
<polygon fill="midnightblue" stroke="midnightblue" points="911.14,-205.65 918.97,-198.52 908.4,-199.21 911.14,-205.65"/>
</g>
<!-- Node25 -->
<g id="node25" class="node">
<title>Node25</title>
<g id="a_node25"><a xlink:title=" ">
<polygon fill="none" stroke="#bfbfbf" points="1037.5,-179.5 1037.5,-198.5 1088.5,-198.5 1088.5,-179.5 1037.5,-179.5"/>
<text text-anchor="middle" x="1063" y="-186.5" font-family="Helvetica,sans-Serif" font-size="10.00">fftw3.h</text>
</a>
</g>
</g>
<!-- Node1&#45;&gt;Node25 -->
<g id="edge29" class="edge">
<title>Node1&#45;&gt;Node25</title>
<path fill="none" stroke="midnightblue" d="M836.7,-239.24C875.18,-231.74 952,-216.44 1027.29,-199.08"/>
<polygon fill="midnightblue" stroke="midnightblue" points="1028.47,-202.39 1037.42,-196.72 1026.89,-195.58 1028.47,-202.39"/>
</g>
<!-- Node26 -->
<g id="node26" class="node">
<title>Node26</title>
<g id="a_node26"><a xlink:title=" ">
<polygon fill="none" stroke="#bfbfbf" points="1106.5,-179.5 1106.5,-198.5 1143.5,-198.5 1143.5,-179.5 1106.5,-179.5"/>
<text text-anchor="middle" x="1125" y="-186.5" font-family="Helvetica,sans-Serif" font-size="10.00">new</text>
</a>
</g>
</g>
<!-- Node1&#45;&gt;Node26 -->
<g id="edge32" class="edge">
<title>Node1&#45;&gt;Node26</title>
<path fill="none" stroke="midnightblue" d="M836.76,-241.5C885.12,-236.33 995.58,-223.06 1096.5,-199.05"/>
<polygon fill="midnightblue" stroke="midnightblue" points="1097.34,-202.45 1106.23,-196.7 1095.69,-195.65 1097.34,-202.45"/>
</g>
<!-- Node3 -->
<g id="node3" class="node">
<title>Node3</title>
<g id="a_node3"><a xlink:title=" ">
<polygon fill="none" stroke="#bfbfbf" points="0,-123.5 0,-142.5 112,-142.5 112,-123.5 0,-123.5"/>
<text text-anchor="middle" x="56" y="-130.5" font-family="Helvetica,sans-Serif" font-size="10.00">config&#45;features.hpp</text>
</a>
</g>
</g>
<!-- Node2&#45;&gt;Node3 -->
<g id="edge2" class="edge">
<title>Node2&#45;&gt;Node3</title>
<path fill="none" stroke="midnightblue" d="M65.18,-179.08C63.73,-171.93 61.63,-161.64 59.81,-152.69"/>
<polygon fill="midnightblue" stroke="midnightblue" points="63.21,-151.85 57.78,-142.75 56.35,-153.25 63.21,-151.85"/>
</g>
<!-- Node5 -->
<g id="node5" class="node">
<title>Node5</title>
<g id="a_node5"><a xlink:title=" ">
<polygon fill="none" stroke="#bfbfbf" points="770,-123.5 770,-142.5 920,-142.5 920,-123.5 770,-123.5"/>
<text text-anchor="middle" x="845" y="-130.5" font-family="Helvetica,sans-Serif" font-size="10.00">boost/qvm/deduce_vec.hpp</text>
</a>
</g>
</g>
<!-- Node4&#45;&gt;Node5 -->
<g id="edge4" class="edge">
<title>Node4&#45;&gt;Node5</title>
<path fill="none" stroke="midnightblue" d="M738.12,-179.44C759.02,-170.56 791.93,-156.56 815.72,-146.45"/>
<polygon fill="midnightblue" stroke="midnightblue" points="817.14,-149.65 824.97,-142.52 814.4,-143.21 817.14,-149.65"/>
</g>
<!-- Node6 -->
<g id="node6" class="node">
<title>Node6</title>
<g id="a_node6"><a xlink:title=" ">
<polygon fill="none" stroke="#bfbfbf" points="938,-123.5 938,-142.5 1078,-142.5 1078,-123.5 938,-123.5"/>
<text text-anchor="middle" x="1008" y="-130.5" font-family="Helvetica,sans-Serif" font-size="10.00">boost/qvm/vec_traits.hpp</text>
</a>
</g>
</g>
<!-- Node4&#45;&gt;Node6 -->
<g id="edge5" class="edge">
<title>Node4&#45;&gt;Node6</title>
<path fill="none" stroke="midnightblue" d="M763.95,-179.44C815.07,-169.92 897.65,-154.55 952.38,-144.36"/>
<polygon fill="midnightblue" stroke="midnightblue" points="953.07,-147.79 962.26,-142.52 951.79,-140.91 953.07,-147.79"/>
</g>
<!-- Node7 -->
<g id="node7" class="node">
<title>Node7</title>
<g id="a_node7"><a xlink:href="Array_8hpp.html" target="_top" xlink:title=" ">
<polygon fill="none" stroke="black" points="255,-123.5 255,-142.5 341,-142.5 341,-123.5 255,-123.5"/>
<text text-anchor="middle" x="298" y="-130.5" font-family="Helvetica,sans-Serif" font-size="10.00">utils/Array.hpp</text>
</a>
</g>
</g>
<!-- Node4&#45;&gt;Node7 -->
<g id="edge6" class="edge">
<title>Node4&#45;&gt;Node7</title>
<path fill="none" stroke="midnightblue" d="M671.43,-183.06C603.4,-175.67 472.65,-160.85 351.31,-143.13"/>
<polygon fill="midnightblue" stroke="midnightblue" points="351.51,-139.62 341.1,-141.63 350.49,-146.55 351.51,-139.62"/>
</g>
<!-- Node9 -->
<g id="node9" class="node">
<title>Node9</title>
<g id="a_node9"><a xlink:title=" ">
<polygon fill="none" stroke="#bfbfbf" points="717,-0.5 717,-19.5 769,-19.5 769,-0.5 717,-0.5"/>
<text text-anchor="middle" x="743" y="-7.5" font-family="Helvetica,sans-Serif" font-size="10.00">cassert</text>
</a>
</g>
</g>
<!-- Node4&#45;&gt;Node9 -->
<g id="edge19" class="edge">
<title>Node4&#45;&gt;Node9</title>
<path fill="none" stroke="midnightblue" d="M764.55,-182.98C866.59,-171.91 1101.19,-146.15 1104,-143 1198.15,-37.24 888.23,-16.12 779.38,-11.98"/>
<polygon fill="midnightblue" stroke="midnightblue" points="779.31,-8.48 769.2,-11.62 779.07,-15.47 779.31,-8.48"/>
</g>
<!-- Node4&#45;&gt;Node11 -->
<g id="edge21" class="edge">
<title>Node4&#45;&gt;Node11</title>
<path fill="none" stroke="midnightblue" d="M671.32,-188.75C566.47,-189.62 316,-186.9 246,-143 207.44,-118.82 199.05,-59.97 197.34,-29.69"/>
<polygon fill="midnightblue" stroke="midnightblue" points="200.84,-29.48 196.97,-19.61 193.84,-29.74 200.84,-29.48"/>
</g>
<!-- Node14 -->
<g id="node14" class="node">
<title>Node14</title>
<g id="a_node14"><a xlink:title=" ">
<polygon fill="none" stroke="#bfbfbf" points="917.5,-62 917.5,-81 970.5,-81 970.5,-62 917.5,-62"/>
<text text-anchor="middle" x="944" y="-69" font-family="Helvetica,sans-Serif" font-size="10.00">iterator</text>
</a>
</g>
</g>
<!-- Node4&#45;&gt;Node14 -->
<g id="edge24" class="edge">
<title>Node4&#45;&gt;Node14</title>
<path fill="none" stroke="midnightblue" d="M764.61,-180.98C769.46,-180.29 774.33,-179.62 779,-179 847.32,-169.97 1041.19,-194.48 1087,-143 1120.64,-105.2 1033.31,-85.43 980.63,-77.22"/>
<polygon fill="midnightblue" stroke="midnightblue" points="981.01,-73.74 970.6,-75.73 979.98,-80.66 981.01,-73.74"/>
</g>
<!-- Node4&#45;&gt;Node17 -->
<g id="edge18" class="edge">
<title>Node4&#45;&gt;Node17</title>
<path fill="none" stroke="midnightblue" d="M764.59,-180.87C769.45,-180.2 774.32,-179.57 779,-179 946.97,-158.64 990.55,-167.27 1158,-143 1159.27,-142.82 1160.55,-142.62 1161.85,-142.42"/>
<polygon fill="midnightblue" stroke="midnightblue" points="1162.63,-145.83 1171.9,-140.7 1161.45,-138.93 1162.63,-145.83"/>
</g>
<!-- Node18 -->
<g id="node18" class="node">
<title>Node18</title>
<g id="a_node18"><a xlink:title=" ">
<polygon fill="none" stroke="#bfbfbf" points="359.5,-123.5 359.5,-142.5 406.5,-142.5 406.5,-123.5 359.5,-123.5"/>
<text text-anchor="middle" x="383" y="-130.5" font-family="Helvetica,sans-Serif" font-size="10.00">cmath</text>
</a>
</g>
</g>
<!-- Node4&#45;&gt;Node18 -->
<g id="edge20" class="edge">
<title>Node4&#45;&gt;Node18</title>
<path fill="none" stroke="midnightblue" d="M671.47,-182.95C613.7,-176.26 512,-163.16 416.5,-143.11"/>
<polygon fill="midnightblue" stroke="midnightblue" points="417.19,-139.68 406.68,-141.02 415.73,-146.53 417.19,-139.68"/>
</g>
<!-- Node19 -->
<g id="node19" class="node">
<title>Node19</title>
<g id="a_node19"><a xlink:title=" ">
<polygon fill="none" stroke="#bfbfbf" points="424.5,-123.5 424.5,-142.5 489.5,-142.5 489.5,-123.5 424.5,-123.5"/>
<text text-anchor="middle" x="457" y="-130.5" font-family="Helvetica,sans-Serif" font-size="10.00">functional</text>
</a>
</g>
</g>
<!-- Node4&#45;&gt;Node19 -->
<g id="edge22" class="edge">
<title>Node4&#45;&gt;Node19</title>
<path fill="none" stroke="midnightblue" d="M675.38,-179.47C633.11,-170.97 566.23,-157.4 499.51,-143.3"/>
<polygon fill="midnightblue" stroke="midnightblue" points="500.17,-139.86 489.66,-141.21 498.72,-146.71 500.17,-139.86"/>
</g>
<!-- Node20 -->
<g id="node20" class="node">
<title>Node20</title>
<g id="a_node20"><a xlink:title=" ">
<polygon fill="none" stroke="#bfbfbf" points="507.5,-123.5 507.5,-142.5 590.5,-142.5 590.5,-123.5 507.5,-123.5"/>
<text text-anchor="middle" x="549" y="-130.5" font-family="Helvetica,sans-Serif" font-size="10.00">initializer_list</text>
</a>
</g>
</g>
<!-- Node4&#45;&gt;Node20 -->
<g id="edge23" class="edge">
<title>Node4&#45;&gt;Node20</title>
<path fill="none" stroke="midnightblue" d="M691.22,-179.44C662.67,-170.32 617.27,-155.81 585.46,-145.65"/>
<polygon fill="midnightblue" stroke="midnightblue" points="586.24,-142.23 575.65,-142.52 584.11,-148.89 586.24,-142.23"/>
</g>
<!-- Node21 -->
<g id="node21" class="node">
<title>Node21</title>
<g id="a_node21"><a xlink:title=" ">
<polygon fill="none" stroke="#bfbfbf" points="609,-123.5 609,-142.5 665,-142.5 665,-123.5 609,-123.5"/>
<text text-anchor="middle" x="637" y="-130.5" font-family="Helvetica,sans-Serif" font-size="10.00">numeric</text>
</a>
</g>
</g>
<!-- Node4&#45;&gt;Node21 -->
<g id="edge25" class="edge">
<title>Node4&#45;&gt;Node21</title>
<path fill="none" stroke="midnightblue" d="M704.99,-179.32C692.47,-170.98 673.32,-158.21 658.53,-148.35"/>
<polygon fill="midnightblue" stroke="midnightblue" points="660.24,-145.29 649.98,-142.65 656.36,-151.11 660.24,-145.29"/>
</g>
<!-- Node22 -->
<g id="node22" class="node">
<title>Node22</title>
<g id="a_node22"><a xlink:title=" ">
<polygon fill="none" stroke="#bfbfbf" points="683.5,-123.5 683.5,-142.5 752.5,-142.5 752.5,-123.5 683.5,-123.5"/>
<text text-anchor="middle" x="718" y="-130.5" font-family="Helvetica,sans-Serif" font-size="10.00">type_traits</text>
</a>
</g>
</g>
<!-- Node4&#45;&gt;Node22 -->
<g id="edge26" class="edge">
<title>Node4&#45;&gt;Node22</title>
<path fill="none" stroke="midnightblue" d="M718,-179.08C718,-172.01 718,-161.86 718,-152.99"/>
<polygon fill="midnightblue" stroke="midnightblue" points="721.5,-152.75 718,-142.75 714.5,-152.75 721.5,-152.75"/>
</g>
<!-- Node4&#45;&gt;Node23 -->
<g id="edge27" class="edge">
<title>Node4&#45;&gt;Node23</title>
<path fill="none" stroke="midnightblue" d="M764.58,-183.7C781.13,-182.19 799.89,-180.5 817,-179 1003.92,-162.64 1055.28,-175.79 1244.34,-142.78"/>
<polygon fill="midnightblue" stroke="midnightblue" points="1245.09,-146.2 1254.32,-141.01 1243.87,-139.3 1245.09,-146.2"/>
</g>
<!-- Node8 -->
<g id="node8" class="node">
<title>Node8</title>
<g id="a_node8"><a xlink:href="device__qualifier_8hpp.html" target="_top" xlink:title=" ">
<polygon fill="none" stroke="black" points="599,-62 599,-81 715,-81 715,-62 599,-62"/>
<text text-anchor="middle" x="657" y="-69" font-family="Helvetica,sans-Serif" font-size="10.00">device_qualifier.hpp</text>
</a>
</g>
</g>
<!-- Node7&#45;&gt;Node8 -->
<g id="edge7" class="edge">
<title>Node7&#45;&gt;Node8</title>
<path fill="none" stroke="midnightblue" d="M341.12,-124.46C344.12,-123.96 347.11,-123.47 350,-123 456.04,-105.84 483.31,-106.21 589,-87 595.39,-85.84 602.1,-84.52 608.71,-83.17"/>
<polygon fill="midnightblue" stroke="midnightblue" points="609.88,-86.5 618.96,-81.04 608.45,-79.65 609.88,-86.5"/>
</g>
<!-- Node7&#45;&gt;Node9 -->
<g id="edge13" class="edge">
<title>Node7&#45;&gt;Node9</title>
<path fill="none" stroke="midnightblue" d="M341.09,-124.28C344.1,-123.82 347.09,-123.39 350,-123 432.75,-111.87 660.73,-141.48 724,-87 740.23,-73.02 743.68,-47.48 743.94,-29.89"/>
<polygon fill="midnightblue" stroke="midnightblue" points="747.43,-29.61 743.74,-19.68 740.43,-29.74 747.43,-29.61"/>
</g>
<!-- Node10 -->
<g id="node10" class="node">
<title>Node10</title>
<g id="a_node10"><a xlink:href="get_8hpp.html" target="_top" xlink:title=" ">
<polygon fill="none" stroke="black" points="527.5,-62 527.5,-81 580.5,-81 580.5,-62 527.5,-62"/>
<text text-anchor="middle" x="554" y="-69" font-family="Helvetica,sans-Serif" font-size="10.00">get.hpp</text>
</a>
</g>
</g>
<!-- Node7&#45;&gt;Node10 -->
<g id="edge9" class="edge">
<title>Node7&#45;&gt;Node10</title>
<path fill="none" stroke="midnightblue" d="M341.26,-124.12C395.56,-114.05 485.52,-96.77 518,-87 520.29,-86.31 522.63,-85.54 524.97,-84.71"/>
<polygon fill="midnightblue" stroke="midnightblue" points="526.31,-87.95 534.42,-81.13 523.83,-81.4 526.31,-87.95"/>
</g>
<!-- Node7&#45;&gt;Node11 -->
<g id="edge14" class="edge">
<title>Node7&#45;&gt;Node11</title>
<path fill="none" stroke="midnightblue" d="M281.83,-123.44C267.99,-115.48 248.27,-102.53 235,-87 220.22,-69.7 209.46,-45.67 203.24,-29.29"/>
<polygon fill="midnightblue" stroke="midnightblue" points="206.49,-27.99 199.81,-19.78 199.91,-30.37 206.49,-27.99"/>
</g>
<!-- Node13 -->
<g id="node13" class="node">
<title>Node13</title>
<g id="a_node13"><a xlink:title=" ">
<polygon fill="none" stroke="#bfbfbf" points="244.5,-56.5 244.5,-86.5 351.5,-86.5 351.5,-56.5 244.5,-56.5"/>
<text text-anchor="start" x="252.5" y="-74.5" font-family="Helvetica,sans-Serif" font-size="10.00">boost/serialization</text>
<text text-anchor="middle" x="298" y="-63.5" font-family="Helvetica,sans-Serif" font-size="10.00">/access.hpp</text>
</a>
</g>
</g>
<!-- Node7&#45;&gt;Node13 -->
<g id="edge12" class="edge">
<title>Node7&#45;&gt;Node13</title>
<path fill="none" stroke="midnightblue" d="M298,-123.48C298,-116.47 298,-106.19 298,-96.7"/>
<polygon fill="midnightblue" stroke="midnightblue" points="301.5,-96.52 298,-86.52 294.5,-96.52 301.5,-96.52"/>
</g>
<!-- Node7&#45;&gt;Node14 -->
<g id="edge15" class="edge">
<title>Node7&#45;&gt;Node14</title>
<path fill="none" stroke="midnightblue" d="M341.09,-124.25C344.1,-123.8 347.09,-123.37 350,-123 405.11,-115.9 785.82,-85.17 907.03,-75.46"/>
<polygon fill="midnightblue" stroke="midnightblue" points="907.59,-78.92 917.27,-74.63 907.03,-71.94 907.59,-78.92"/>
</g>
<!-- Node15 -->
<g id="node15" class="node">
<title>Node15</title>
<g id="a_node15"><a xlink:title=" ">
<polygon fill="none" stroke="#bfbfbf" points="369.5,-62 369.5,-81 426.5,-81 426.5,-62 369.5,-62"/>
<text text-anchor="middle" x="398" y="-69" font-family="Helvetica,sans-Serif" font-size="10.00">ostream</text>
</a>
</g>
</g>
<!-- Node7&#45;&gt;Node15 -->
<g id="edge16" class="edge">
<title>Node7&#45;&gt;Node15</title>
<path fill="none" stroke="midnightblue" d="M312.33,-123.48C328.66,-113.75 355.6,-97.73 374.91,-86.24"/>
<polygon fill="midnightblue" stroke="midnightblue" points="376.89,-89.13 383.7,-81.01 373.32,-83.11 376.89,-89.13"/>
</g>
<!-- Node16 -->
<g id="node16" class="node">
<title>Node16</title>
<g id="a_node16"><a xlink:title=" ">
<polygon fill="none" stroke="#bfbfbf" points="444.5,-62 444.5,-81 509.5,-81 509.5,-62 444.5,-62"/>
<text text-anchor="middle" x="477" y="-69" font-family="Helvetica,sans-Serif" font-size="10.00">stdexcept</text>
</a>
</g>
</g>
<!-- Node7&#45;&gt;Node16 -->
<g id="edge17" class="edge">
<title>Node7&#45;&gt;Node16</title>
<path fill="none" stroke="midnightblue" d="M324.3,-123.49C351.91,-114.53 396.57,-99.95 435,-87 437.43,-86.18 439.94,-85.33 442.46,-84.47"/>
<polygon fill="midnightblue" stroke="midnightblue" points="443.82,-87.7 452.15,-81.15 441.55,-81.08 443.82,-87.7"/>
</g>
<!-- Node8&#45;&gt;Node9 -->
<g id="edge8" class="edge">
<title>Node8&#45;&gt;Node9</title>
<path fill="none" stroke="midnightblue" d="M669.32,-61.98C683.12,-52.43 705.7,-36.81 722.23,-25.37"/>
<polygon fill="midnightblue" stroke="midnightblue" points="724.47,-28.08 730.7,-19.51 720.49,-22.32 724.47,-28.08"/>
</g>
<!-- Node10&#45;&gt;Node11 -->
<g id="edge10" class="edge">
<title>Node10&#45;&gt;Node11</title>
<path fill="none" stroke="midnightblue" d="M535.24,-61.94C529.77,-59.72 523.73,-57.53 518,-56 417.22,-29.07 294.08,-17.55 233.81,-13.24"/>
<polygon fill="midnightblue" stroke="midnightblue" points="233.86,-9.73 223.65,-12.54 233.38,-16.72 233.86,-9.73"/>
</g>
<!-- Node12 -->
<g id="node12" class="node">
<title>Node12</title>
<g id="a_node12"><a xlink:title=" ">
<polygon fill="none" stroke="#bfbfbf" points="533.5,-0.5 533.5,-19.5 574.5,-19.5 574.5,-0.5 533.5,-0.5"/>
<text text-anchor="middle" x="554" y="-7.5" font-family="Helvetica,sans-Serif" font-size="10.00">tuple</text>
</a>
</g>
</g>
<!-- Node10&#45;&gt;Node12 -->
<g id="edge11" class="edge">
<title>Node10&#45;&gt;Node12</title>
<path fill="none" stroke="midnightblue" d="M554,-61.98C554,-53.58 554,-40.48 554,-29.66"/>
<polygon fill="midnightblue" stroke="midnightblue" points="557.5,-29.51 554,-19.51 550.5,-29.51 557.5,-29.51"/>
</g>
</g>
</svg>
        <g id="navigator" transform="translate(0 0)" fill="#404254">
                <rect fill="#f2f5e9" fill-opacity="0.5" stroke="#606060" stroke-width=".5" x="0" y="0" width="60" height="60"/>
                <use id="zoomplus" xlink:href="#zoomPlus" x="17" y="9" onmousedown="handleZoom(evt,'in')"/>
                <use id="zoomminus" xlink:href="#zoomMin" x="42" y="9" onmousedown="handleZoom(evt,'out')"/>
                <use id="reset" xlink:href="#resetDef" x="30" y="36" onmousedown="handleReset()"/>
                <g id="arrowUp" xlink:href="#dirArrow" transform="translate(30 24)" onmousedown="handlePan(0,-1)">
                  <use xlink:href="#rim" fill="#404040">
                        <set attributeName="fill" to="#808080" begin="arrowUp.mouseover" end="arrowUp.mouseout"/>
                  </use>
                  <path fill="none" stroke="white" stroke-width="1.5" d="M0,-3.0v7 M-2.5,-0.5L0,-3.0L2.5,-0.5"/>
                </g>
                <g id="arrowRight" xlink:href="#dirArrow" transform="rotate(90) translate(36 -43)" onmousedown="handlePan(1,0)">
                  <use xlink:href="#rim" fill="#404040">
                        <set attributeName="fill" to="#808080" begin="arrowRight.mouseover" end="arrowRight.mouseout"/>
                  </use>
                  <path fill="none" stroke="white" stroke-width="1.5" d="M0,-3.0v7 M-2.5,-0.5L0,-3.0L2.5,-0.5"/>
                </g>
                <g id="arrowDown" xlink:href="#dirArrow" transform="rotate(180) translate(-30 -48)" onmousedown="handlePan(0,1)">
                  <use xlink:href="#rim" fill="#404040">
                        <set attributeName="fill" to="#808080" begin="arrowDown.mouseover" end="arrowDown.mouseout"/>
                  </use>
                  <path fill="none" stroke="white" stroke-width="1.5" d="M0,-3.0v7 M-2.5,-0.5L0,-3.0L2.5,-0.5"/>
                </g>
                <g id="arrowLeft" xlink:href="#dirArrow" transform="rotate(270) translate(-36 17)" onmousedown="handlePan(-1,0)">
                  <use xlink:href="#rim" fill="#404040">
                        <set attributeName="fill" to="#808080" begin="arrowLeft.mouseover" end="arrowLeft.mouseout"/>
                  </use>
                  <path fill="none" stroke="white" stroke-width="1.5" d="M0,-3.0v7 M-2.5,-0.5L0,-3.0L2.5,-0.5"/>
                </g>
        </g>
        <svg viewBox="0 0 15 15" width="100%" height="30px" preserveAspectRatio="xMaxYMin meet">
         <g id="arrow_out" transform="scale(0.3 0.3)">
          <a xlink:href="fft_8hpp__incl_org.svg" target="_base">
           <rect id="button" ry="5" rx="5" y="6" x="6" height="38" width="38"
                fill="#f2f5e9" fill-opacity="0.5" stroke="#606060" stroke-width="1.0"/>
           <path id="arrow"
             d="M 11.500037,31.436501 C 11.940474,20.09759 22.043105,11.32322 32.158766,21.979434 L 37.068811,17.246167 C 37.068811,17.246167 37.088388,32 37.088388,32 L 22.160133,31.978069 C 22.160133,31.978069 26.997745,27.140456 26.997745,27.140456 C 18.528582,18.264221 13.291696,25.230495 11.500037,31.436501 z"
             style="fill:#404040;"/>
          </a>
         </g>
        </svg>
</svg>
