<?xml version="1.0" encoding="UTF-8" standalone="no"?>
<!DOCTYPE svg PUBLIC "-//W3C//DTD SVG 1.1//EN"
 "http://www.w3.org/Graphics/SVG/1.1/DTD/svg11.dtd">
<!-- Generated by graphviz version 2.43.0 (0)
 -->
<!-- Title: fft.cpp Pages: 1 -->
<!--zoomable 330 -->
<svg id="main" version="1.1" xmlns="http://www.w3.org/2000/svg" xmlns:xlink="http://www.w3.org/1999/xlink" xml:space="preserve" onload="init(evt)">
<style type="text/css"><![CDATA[
.edge:hover path { stroke: red; }
.edge:hover polygon { stroke: red; fill: red; }
]]></style>
<script type="text/javascript"><![CDATA[
var edges = document.getElementsByTagName('g');
if (edges && edges.length) {
  for (var i=0;i<edges.length;i++) {
    if (edges[i].id.substr(0,4)=='edge') {
      edges[i].setAttribute('class','edge');
    }
  }
}
]]></script>
        <defs>
                <circle id="rim" cx="0" cy="0" r="7"/>
                <circle id="rim2" cx="0" cy="0" r="3.5"/>
                <g id="zoomPlus">
                        <use xlink:href="#rim" fill="#404040">
                                <set attributeName="fill" to="#808080" begin="zoomplus.mouseover" end="zoomplus.mouseout"/>
                        </use>
                        <path d="M-4,0h8M0,-4v8" fill="none" stroke="white" stroke-width="1.5" pointer-events="none"/>
                </g>
                <g id="zoomMin">
                        <use xlink:href="#rim" fill="#404040">
                                <set attributeName="fill" to="#808080" begin="zoomminus.mouseover" end="zoomminus.mouseout"/>
                        </use>
                        <path d="M-4,0h8" fill="none" stroke="white" stroke-width="1.5" pointer-events="none"/>
                </g>
                <g id="dirArrow">
                        <path fill="none" stroke="white" stroke-width="1.5" d="M0,-3.0v7 M-2.5,-0.5L0,-3.0L2.5,-0.5"/>
                </g>
               <g id="resetDef">
                       <use xlink:href="#rim2" fill="#404040">
                               <set attributeName="fill" to="#808080" begin="reset.mouseover" end="reset.mouseout"/>
                       </use>
               </g>
        </defs>

<script type="text/javascript">
var viewWidth = 2097;
var viewHeight = 330;
var sectionId = 'dynsection-0';
</script>
<script xlink:href="svgpan.js"/>
<svg id="graph" class="graph">
<g id="viewport">
<title>fft.cpp</title>
<!-- Node1 -->
<g id="node1" class="node">
<title>Node1</title>
<g id="a_node1"><a xlink:title=" ">
<polygon fill="#bfbfbf" stroke="black" points="1414.53,-302.5 1414.53,-321.5 1462.53,-321.5 1462.53,-302.5 1414.53,-302.5"/>
<text text-anchor="middle" x="1438.53" y="-309.5" font-family="Helvetica,sans-Serif" font-size="10.00">fft.cpp</text>
</a>
</g>
</g>
<!-- Node2 -->
<g id="node2" class="node">
<title>Node2</title>
<g id="a_node2"><a xlink:href="config_8hpp.html" target="_top" xlink:title=" ">
<polygon fill="none" stroke="black" points="1371.53,-179.5 1371.53,-198.5 1439.53,-198.5 1439.53,-179.5 1371.53,-179.5"/>
<text text-anchor="middle" x="1405.53" y="-186.5" font-family="Helvetica,sans-Serif" font-size="10.00">config.hpp</text>
</a>
</g>
</g>
<!-- Node1&#45;&gt;Node2 -->
<g id="edge1" class="edge">
<title>Node1&#45;&gt;Node2</title>
<path fill="none" stroke="midnightblue" d="M1429.51,-302.34C1421.46,-293.93 1410.24,-280.36 1405.53,-266 1399.39,-247.23 1400.43,-224.43 1402.35,-208.73"/>
<polygon fill="midnightblue" stroke="midnightblue" points="1405.84,-209.11 1403.82,-198.71 1398.91,-208.1 1405.84,-209.11"/>
</g>
<!-- Node4 -->
<g id="node4" class="node">
<title>Node4</title>
<g id="a_node4"><a xlink:href="fft_8hpp.html" target="_top" xlink:title=" ">
<polygon fill="none" stroke="black" points="1281.03,-241 1281.03,-260 1330.03,-260 1330.03,-241 1281.03,-241"/>
<text text-anchor="middle" x="1305.53" y="-248" font-family="Helvetica,sans-Serif" font-size="10.00">fft.hpp</text>
</a>
</g>
</g>
<!-- Node1&#45;&gt;Node4 -->
<g id="edge3" class="edge">
<title>Node1&#45;&gt;Node4</title>
<path fill="none" stroke="midnightblue" d="M1419.48,-302.48C1397.06,-292.45 1359.63,-275.7 1333.82,-264.15"/>
<polygon fill="midnightblue" stroke="midnightblue" points="1335.11,-260.9 1324.55,-260.01 1332.25,-267.29 1335.11,-260.9"/>
</g>
<!-- Node5 -->
<g id="node5" class="node">
<title>Node5</title>
<g id="a_node5"><a xlink:href="Vector_8hpp.html" target="_top" xlink:title=" ">
<polygon fill="none" stroke="black" points="726.03,-179.5 726.03,-198.5 819.03,-198.5 819.03,-179.5 726.03,-179.5"/>
<text text-anchor="middle" x="772.53" y="-186.5" font-family="Helvetica,sans-Serif" font-size="10.00">utils/Vector.hpp</text>
</a>
</g>
</g>
<!-- Node1&#45;&gt;Node5 -->
<g id="edge43" class="edge">
<title>Node1&#45;&gt;Node5</title>
<path fill="none" stroke="midnightblue" d="M1414.41,-310.74C1345.79,-309.55 1144.01,-302.92 981.53,-266 914.55,-250.78 839.72,-220 800.31,-202.65"/>
<polygon fill="midnightblue" stroke="midnightblue" points="801.63,-199.41 791.07,-198.54 798.79,-205.8 801.63,-199.41"/>
</g>
<!-- Node17 -->
<g id="node17" class="node">
<title>Node17</title>
<g id="a_node17"><a xlink:title=" ">
<polygon fill="none" stroke="#bfbfbf" points="15.03,-62 15.03,-81 80.03,-81 80.03,-62 15.03,-62"/>
<text text-anchor="middle" x="47.53" y="-69" font-family="Helvetica,sans-Serif" font-size="10.00">stdexcept</text>
</a>
</g>
</g>
<!-- Node1&#45;&gt;Node17 -->
<g id="edge59" class="edge">
<title>Node1&#45;&gt;Node17</title>
<path fill="none" stroke="midnightblue" d="M1414.31,-311.06C1252.63,-311.35 332.84,-310.97 217.53,-266 139.12,-235.42 121.66,-212.06 73.53,-143 62.6,-127.31 55.66,-106.46 51.73,-91.52"/>
<polygon fill="midnightblue" stroke="midnightblue" points="55.04,-90.32 49.29,-81.42 48.23,-91.96 55.04,-90.32"/>
</g>
<!-- Node19 -->
<g id="node19" class="node">
<title>Node19</title>
<g id="a_node19"><a xlink:title=" ">
<polygon fill="none" stroke="#bfbfbf" points="1082.03,-123.5 1082.03,-142.5 1129.03,-142.5 1129.03,-123.5 1082.03,-123.5"/>
<text text-anchor="middle" x="1105.53" y="-130.5" font-family="Helvetica,sans-Serif" font-size="10.00">cmath</text>
</a>
</g>
</g>
<!-- Node1&#45;&gt;Node19 -->
<g id="edge56" class="edge">
<title>Node1&#45;&gt;Node19</title>
<path fill="none" stroke="midnightblue" d="M1414.43,-307.94C1335.96,-297.43 1090.23,-260.06 1044.53,-199 1030.19,-179.83 1055.45,-160.1 1077.69,-147.48"/>
<polygon fill="midnightblue" stroke="midnightblue" points="1079.45,-150.51 1086.6,-142.69 1076.14,-144.34 1079.45,-150.51"/>
</g>
<!-- Node24 -->
<g id="node24" class="node">
<title>Node24</title>
<g id="a_node24"><a xlink:title=" ">
<polygon fill="none" stroke="#bfbfbf" points="1268.03,-123.5 1268.03,-142.5 1315.03,-142.5 1315.03,-123.5 1268.03,-123.5"/>
<text text-anchor="middle" x="1291.53" y="-130.5" font-family="Helvetica,sans-Serif" font-size="10.00">vector</text>
</a>
</g>
</g>
<!-- Node1&#45;&gt;Node24 -->
<g id="edge61" class="edge">
<title>Node1&#45;&gt;Node24</title>
<path fill="none" stroke="midnightblue" d="M1441.54,-302.39C1446.97,-287.6 1459.47,-256.86 1476.53,-235 1495.68,-210.48 1538.28,-203.04 1518.53,-179 1506.36,-164.17 1385.95,-146.42 1325.62,-138.36"/>
<polygon fill="midnightblue" stroke="midnightblue" points="1325.81,-134.85 1315.44,-137.02 1324.9,-141.79 1325.81,-134.85"/>
</g>
<!-- Node26 -->
<g id="node26" class="node">
<title>Node26</title>
<g id="a_node26"><a xlink:title=" ">
<polygon fill="none" stroke="#bfbfbf" points="1458.03,-179.5 1458.03,-198.5 1509.03,-198.5 1509.03,-179.5 1458.03,-179.5"/>
<text text-anchor="middle" x="1483.53" y="-186.5" font-family="Helvetica,sans-Serif" font-size="10.00">fftw3.h</text>
</a>
</g>
</g>
<!-- Node1&#45;&gt;Node26 -->
<g id="edge54" class="edge">
<title>Node1&#45;&gt;Node26</title>
<path fill="none" stroke="midnightblue" d="M1437.32,-302.15C1435.7,-287.53 1434.04,-257.69 1443.53,-235 1448.19,-223.86 1456.79,-213.61 1464.82,-205.72"/>
<polygon fill="midnightblue" stroke="midnightblue" points="1467.51,-208.01 1472.5,-198.67 1462.77,-202.85 1467.51,-208.01"/>
</g>
<!-- Node28 -->
<g id="node28" class="node">
<title>Node28</title>
<g id="a_node28"><a xlink:href="Span_8hpp.html" target="_top" xlink:title=" ">
<polygon fill="none" stroke="black" points="136.53,-123.5 136.53,-142.5 222.53,-142.5 222.53,-123.5 136.53,-123.5"/>
<text text-anchor="middle" x="179.53" y="-130.5" font-family="Helvetica,sans-Serif" font-size="10.00">utils/Span.hpp</text>
</a>
</g>
</g>
<!-- Node1&#45;&gt;Node28 -->
<g id="edge36" class="edge">
<title>Node1&#45;&gt;Node28</title>
<path fill="none" stroke="midnightblue" d="M1414.38,-310.75C1250.25,-309 303.8,-297.56 252.53,-266 211.2,-240.56 191.46,-182.78 183.7,-152.81"/>
<polygon fill="midnightblue" stroke="midnightblue" points="187.04,-151.72 181.3,-142.81 180.23,-153.35 187.04,-151.72"/>
</g>
<!-- Node29 -->
<g id="node29" class="node">
<title>Node29</title>
<g id="a_node29"><a xlink:href="index_8hpp.html" target="_top" xlink:title=" ">
<polygon fill="none" stroke="black" points="262.03,-241 262.03,-260 351.03,-260 351.03,-241 262.03,-241"/>
<text text-anchor="middle" x="306.53" y="-248" font-family="Helvetica,sans-Serif" font-size="10.00">utils/index.hpp</text>
</a>
</g>
</g>
<!-- Node1&#45;&gt;Node29 -->
<g id="edge44" class="edge">
<title>Node1&#45;&gt;Node29</title>
<path fill="none" stroke="midnightblue" d="M1414.37,-309.73C1274.22,-302.36 565.02,-265.09 361.32,-254.38"/>
<polygon fill="midnightblue" stroke="midnightblue" points="361.33,-250.88 351.16,-253.85 360.96,-257.87 361.33,-250.88"/>
</g>
<!-- Node30 -->
<g id="node30" class="node">
<title>Node30</title>
<g id="a_node30"><a xlink:href="permute__ifield_8hpp.html" target="_top" xlink:title=" ">
<polygon fill="none" stroke="black" points="1485.53,-235.5 1485.53,-265.5 1595.53,-265.5 1595.53,-235.5 1485.53,-235.5"/>
<text text-anchor="start" x="1493.53" y="-253.5" font-family="Helvetica,sans-Serif" font-size="10.00">utils/math/permute</text>
<text text-anchor="middle" x="1540.53" y="-242.5" font-family="Helvetica,sans-Serif" font-size="10.00">_ifield.hpp</text>
</a>
</g>
</g>
<!-- Node1&#45;&gt;Node30 -->
<g id="edge51" class="edge">
<title>Node1&#45;&gt;Node30</title>
<path fill="none" stroke="midnightblue" d="M1453.15,-302.48C1467.35,-294.19 1489.41,-281.32 1507.81,-270.59"/>
<polygon fill="midnightblue" stroke="midnightblue" points="1509.62,-273.58 1516.49,-265.52 1506.09,-267.54 1509.62,-273.58"/>
</g>
<!-- Node31 -->
<g id="node31" class="node">
<title>Node31</title>
<g id="a_node31"><a xlink:title=" ">
<polygon fill="none" stroke="#bfbfbf" points="1613.53,-241 1613.53,-260 1705.53,-260 1705.53,-241 1613.53,-241"/>
<text text-anchor="middle" x="1659.53" y="-248" font-family="Helvetica,sans-Serif" font-size="10.00">boost/none.hpp</text>
</a>
</g>
</g>
<!-- Node1&#45;&gt;Node31 -->
<g id="edge52" class="edge">
<title>Node1&#45;&gt;Node31</title>
<path fill="none" stroke="midnightblue" d="M1462.61,-304.52C1499.84,-294.49 1571.88,-275.1 1617.74,-262.75"/>
<polygon fill="midnightblue" stroke="midnightblue" points="1618.93,-266.06 1627.67,-260.08 1617.11,-259.3 1618.93,-266.06"/>
</g>
<!-- Node32 -->
<g id="node32" class="node">
<title>Node32</title>
<g id="a_node32"><a xlink:title=" ">
<polygon fill="none" stroke="#bfbfbf" points="1724.03,-241 1724.03,-260 1831.03,-260 1831.03,-241 1724.03,-241"/>
<text text-anchor="middle" x="1777.53" y="-248" font-family="Helvetica,sans-Serif" font-size="10.00">boost/optional.hpp</text>
</a>
</g>
</g>
<!-- Node1&#45;&gt;Node32 -->
<g id="edge53" class="edge">
<title>Node1&#45;&gt;Node32</title>
<path fill="none" stroke="midnightblue" d="M1462.62,-307.61C1510.69,-300.72 1621.88,-284.2 1714.53,-266 1720.32,-264.86 1726.38,-263.58 1732.37,-262.27"/>
<polygon fill="midnightblue" stroke="midnightblue" points="1733.31,-265.64 1742.3,-260.03 1731.78,-258.81 1733.31,-265.64"/>
</g>
<!-- Node33 -->
<g id="node33" class="node">
<title>Node33</title>
<g id="a_node33"><a xlink:title=" ">
<polygon fill="none" stroke="#bfbfbf" points="1849.53,-241 1849.53,-260 1893.53,-260 1893.53,-241 1849.53,-241"/>
<text text-anchor="middle" x="1871.53" y="-248" font-family="Helvetica,sans-Serif" font-size="10.00">mpi.h</text>
</a>
</g>
</g>
<!-- Node1&#45;&gt;Node33 -->
<g id="edge55" class="edge">
<title>Node1&#45;&gt;Node33</title>
<path fill="none" stroke="midnightblue" d="M1462.61,-311.01C1525.83,-310.46 1701.28,-305.21 1840.53,-266 1842.46,-265.46 1844.42,-264.8 1846.37,-264.08"/>
<polygon fill="midnightblue" stroke="midnightblue" points="1848,-267.19 1855.83,-260.06 1845.26,-260.75 1848,-267.19"/>
</g>
<!-- Node34 -->
<g id="node34" class="node">
<title>Node34</title>
<g id="a_node34"><a xlink:title=" ">
<polygon fill="none" stroke="#bfbfbf" points="1911.53,-241 1911.53,-260 1957.53,-260 1957.53,-241 1911.53,-241"/>
<text text-anchor="middle" x="1934.53" y="-248" font-family="Helvetica,sans-Serif" font-size="10.00">cstdio</text>
</a>
</g>
</g>
<!-- Node1&#45;&gt;Node34 -->
<g id="edge57" class="edge">
<title>Node1&#45;&gt;Node34</title>
<path fill="none" stroke="midnightblue" d="M1462.69,-311.42C1532.28,-312.04 1738.72,-309.76 1902.53,-266 1904.69,-265.42 1906.88,-264.72 1909.05,-263.93"/>
<polygon fill="midnightblue" stroke="midnightblue" points="1910.41,-267.16 1918.31,-260.1 1907.73,-260.69 1910.41,-267.16"/>
</g>
<!-- Node35 -->
<g id="node35" class="node">
<title>Node35</title>
<g id="a_node35"><a xlink:title=" ">
<polygon fill="none" stroke="#bfbfbf" points="1975.53,-241 1975.53,-260 2025.53,-260 2025.53,-241 1975.53,-241"/>
<text text-anchor="middle" x="2000.53" y="-248" font-family="Helvetica,sans-Serif" font-size="10.00">cstring</text>
</a>
</g>
</g>
<!-- Node1&#45;&gt;Node35 -->
<g id="edge58" class="edge">
<title>Node1&#45;&gt;Node35</title>
<path fill="none" stroke="midnightblue" d="M1462.62,-309.96C1552.6,-305.93 1868.89,-290.32 1966.53,-266 1968.9,-265.41 1971.31,-264.68 1973.7,-263.86"/>
<polygon fill="midnightblue" stroke="midnightblue" points="1975.21,-267.02 1983.26,-260.12 1972.67,-260.5 1975.21,-267.02"/>
</g>
<!-- Node36 -->
<g id="node36" class="node">
<title>Node36</title>
<g id="a_node36"><a xlink:title=" ">
<polygon fill="none" stroke="#bfbfbf" points="2044.03,-241 2044.03,-260 2089.03,-260 2089.03,-241 2044.03,-241"/>
<text text-anchor="middle" x="2066.53" y="-248" font-family="Helvetica,sans-Serif" font-size="10.00">utility</text>
</a>
</g>
</g>
<!-- Node1&#45;&gt;Node36 -->
<g id="edge60" class="edge">
<title>Node1&#45;&gt;Node36</title>
<path fill="none" stroke="midnightblue" d="M1462.68,-310.3C1559.99,-307.31 1923.45,-294.41 2034.53,-266 2036.74,-265.44 2038.99,-264.73 2041.21,-263.93"/>
<polygon fill="midnightblue" stroke="midnightblue" points="2042.76,-267.08 2050.65,-260.02 2040.08,-260.61 2042.76,-267.08"/>
</g>
<!-- Node3 -->
<g id="node3" class="node">
<title>Node3</title>
<g id="a_node3"><a xlink:title=" ">
<polygon fill="none" stroke="#bfbfbf" points="1371.53,-123.5 1371.53,-142.5 1483.53,-142.5 1483.53,-123.5 1371.53,-123.5"/>
<text text-anchor="middle" x="1427.53" y="-130.5" font-family="Helvetica,sans-Serif" font-size="10.00">config&#45;features.hpp</text>
</a>
</g>
</g>
<!-- Node2&#45;&gt;Node3 -->
<g id="edge2" class="edge">
<title>Node2&#45;&gt;Node3</title>
<path fill="none" stroke="midnightblue" d="M1409.17,-179.08C1412.15,-171.77 1416.46,-161.18 1420.16,-152.1"/>
<polygon fill="midnightblue" stroke="midnightblue" points="1423.44,-153.33 1423.97,-142.75 1416.95,-150.69 1423.44,-153.33"/>
</g>
<!-- Node4&#45;&gt;Node2 -->
<g id="edge4" class="edge">
<title>Node4&#45;&gt;Node2</title>
<path fill="none" stroke="midnightblue" d="M1319.86,-240.98C1336.2,-231.25 1363.14,-215.23 1382.45,-203.74"/>
<polygon fill="midnightblue" stroke="midnightblue" points="1384.43,-206.63 1391.23,-198.51 1380.85,-200.61 1384.43,-206.63"/>
</g>
<!-- Node4&#45;&gt;Node5 -->
<g id="edge5" class="edge">
<title>Node4&#45;&gt;Node5</title>
<path fill="none" stroke="midnightblue" d="M1280.9,-246.75C1200.51,-237.78 944.44,-209.19 829.42,-196.35"/>
<polygon fill="midnightblue" stroke="midnightblue" points="829.73,-192.86 819.4,-195.23 828.95,-199.82 829.73,-192.86"/>
</g>
<!-- Node12 -->
<g id="node12" class="node">
<title>Node12</title>
<g id="a_node12"><a xlink:title=" ">
<polygon fill="none" stroke="#bfbfbf" points="1013.03,-0.5 1013.03,-19.5 1066.03,-19.5 1066.03,-0.5 1013.03,-0.5"/>
<text text-anchor="middle" x="1039.53" y="-7.5" font-family="Helvetica,sans-Serif" font-size="10.00">cstddef</text>
</a>
</g>
</g>
<!-- Node4&#45;&gt;Node12 -->
<g id="edge33" class="edge">
<title>Node4&#45;&gt;Node12</title>
<path fill="none" stroke="midnightblue" d="M1309.94,-240.8C1319.98,-219.68 1342.39,-164.4 1324.53,-123 1307.35,-83.16 1291.98,-76.11 1253.53,-56 1196.23,-26.03 1120.43,-16.02 1076.13,-12.68"/>
<polygon fill="midnightblue" stroke="midnightblue" points="1076.32,-9.18 1066.11,-11.99 1075.84,-16.17 1076.32,-9.18"/>
</g>
<!-- Node18 -->
<g id="node18" class="node">
<title>Node18</title>
<g id="a_node18"><a xlink:title=" ">
<polygon fill="none" stroke="#bfbfbf" points="1147.53,-123.5 1147.53,-142.5 1211.53,-142.5 1211.53,-123.5 1147.53,-123.5"/>
<text text-anchor="middle" x="1179.53" y="-130.5" font-family="Helvetica,sans-Serif" font-size="10.00">algorithm</text>
</a>
</g>
</g>
<!-- Node4&#45;&gt;Node18 -->
<g id="edge32" class="edge">
<title>Node4&#45;&gt;Node18</title>
<path fill="none" stroke="midnightblue" d="M1280.77,-248.4C1222.86,-245.25 1081.29,-234.07 1052.53,-199 1046.9,-192.13 1047.4,-186.26 1052.53,-179 1062.66,-164.67 1104.51,-151.69 1137.44,-143.39"/>
<polygon fill="midnightblue" stroke="midnightblue" points="1138.45,-146.75 1147.33,-140.97 1136.78,-139.95 1138.45,-146.75"/>
</g>
<!-- Node4&#45;&gt;Node24 -->
<g id="edge35" class="edge">
<title>Node4&#45;&gt;Node24</title>
<path fill="none" stroke="midnightblue" d="M1304.48,-240.82C1302.23,-222.26 1296.91,-178.34 1293.83,-152.97"/>
<polygon fill="midnightblue" stroke="midnightblue" points="1297.28,-152.29 1292.6,-142.78 1290.33,-153.13 1297.28,-152.29"/>
</g>
<!-- Node25 -->
<g id="node25" class="node">
<title>Node25</title>
<g id="a_node25"><a xlink:title=" ">
<polygon fill="none" stroke="#bfbfbf" points="1061.53,-179.5 1061.53,-198.5 1221.53,-198.5 1221.53,-179.5 1061.53,-179.5"/>
<text text-anchor="middle" x="1141.53" y="-186.5" font-family="Helvetica,sans-Serif" font-size="10.00">boost/mpi/communicator.hpp</text>
</a>
</g>
</g>
<!-- Node4&#45;&gt;Node25 -->
<g id="edge30" class="edge">
<title>Node4&#45;&gt;Node25</title>
<path fill="none" stroke="midnightblue" d="M1282.04,-240.98C1253.9,-230.77 1206.6,-213.61 1174.74,-202.05"/>
<polygon fill="midnightblue" stroke="midnightblue" points="1175.58,-198.63 1164.99,-198.51 1173.19,-205.21 1175.58,-198.63"/>
</g>
<!-- Node4&#45;&gt;Node26 -->
<g id="edge31" class="edge">
<title>Node4&#45;&gt;Node26</title>
<path fill="none" stroke="midnightblue" d="M1330.28,-241.23C1360.89,-231 1413.2,-213.51 1448.06,-201.86"/>
<polygon fill="midnightblue" stroke="midnightblue" points="1449.47,-205.08 1457.84,-198.59 1447.25,-198.44 1449.47,-205.08"/>
</g>
<!-- Node27 -->
<g id="node27" class="node">
<title>Node27</title>
<g id="a_node27"><a xlink:title=" ">
<polygon fill="none" stroke="#bfbfbf" points="1240.03,-179.5 1240.03,-198.5 1277.03,-198.5 1277.03,-179.5 1240.03,-179.5"/>
<text text-anchor="middle" x="1258.53" y="-186.5" font-family="Helvetica,sans-Serif" font-size="10.00">new</text>
</a>
</g>
</g>
<!-- Node4&#45;&gt;Node27 -->
<g id="edge34" class="edge">
<title>Node4&#45;&gt;Node27</title>
<path fill="none" stroke="midnightblue" d="M1298.8,-240.98C1291.75,-232.05 1280.5,-217.81 1271.68,-206.64"/>
<polygon fill="midnightblue" stroke="midnightblue" points="1274.2,-204.19 1265.26,-198.51 1268.71,-208.53 1274.2,-204.19"/>
</g>
<!-- Node6 -->
<g id="node6" class="node">
<title>Node6</title>
<g id="a_node6"><a xlink:title=" ">
<polygon fill="none" stroke="#bfbfbf" points="771.53,-123.5 771.53,-142.5 921.53,-142.5 921.53,-123.5 771.53,-123.5"/>
<text text-anchor="middle" x="846.53" y="-130.5" font-family="Helvetica,sans-Serif" font-size="10.00">boost/qvm/deduce_vec.hpp</text>
</a>
</g>
</g>
<!-- Node5&#45;&gt;Node6 -->
<g id="edge6" class="edge">
<title>Node5&#45;&gt;Node6</title>
<path fill="none" stroke="midnightblue" d="M784.42,-179.32C795.68,-171.11 812.82,-158.6 826.24,-148.81"/>
<polygon fill="midnightblue" stroke="midnightblue" points="828.41,-151.56 834.43,-142.83 824.29,-145.9 828.41,-151.56"/>
</g>
<!-- Node7 -->
<g id="node7" class="node">
<title>Node7</title>
<g id="a_node7"><a xlink:title=" ">
<polygon fill="none" stroke="#bfbfbf" points="428.53,-123.5 428.53,-142.5 568.53,-142.5 568.53,-123.5 428.53,-123.5"/>
<text text-anchor="middle" x="498.53" y="-130.5" font-family="Helvetica,sans-Serif" font-size="10.00">boost/qvm/vec_traits.hpp</text>
</a>
</g>
</g>
<!-- Node5&#45;&gt;Node7 -->
<g id="edge7" class="edge">
<title>Node5&#45;&gt;Node7</title>
<path fill="none" stroke="midnightblue" d="M729.12,-179.44C681.02,-169.96 603.44,-154.67 551.73,-144.48"/>
<polygon fill="midnightblue" stroke="midnightblue" points="552.23,-141.02 541.75,-142.52 550.88,-147.88 552.23,-141.02"/>
</g>
<!-- Node8 -->
<g id="node8" class="node">
<title>Node8</title>
<g id="a_node8"><a xlink:href="Array_8hpp.html" target="_top" xlink:title=" ">
<polygon fill="none" stroke="black" points="939.53,-123.5 939.53,-142.5 1025.53,-142.5 1025.53,-123.5 939.53,-123.5"/>
<text text-anchor="middle" x="982.53" y="-130.5" font-family="Helvetica,sans-Serif" font-size="10.00">utils/Array.hpp</text>
</a>
</g>
</g>
<!-- Node5&#45;&gt;Node8 -->
<g id="edge8" class="edge">
<title>Node5&#45;&gt;Node8</title>
<path fill="none" stroke="midnightblue" d="M805.81,-179.44C841.98,-170.14 899.91,-155.25 939.51,-145.06"/>
<polygon fill="midnightblue" stroke="midnightblue" points="940.6,-148.4 949.41,-142.52 938.86,-141.62 940.6,-148.4"/>
</g>
<!-- Node10 -->
<g id="node10" class="node">
<title>Node10</title>
<g id="a_node10"><a xlink:title=" ">
<polygon fill="none" stroke="#bfbfbf" points="120.53,-0.5 120.53,-19.5 172.53,-19.5 172.53,-0.5 120.53,-0.5"/>
<text text-anchor="middle" x="146.53" y="-7.5" font-family="Helvetica,sans-Serif" font-size="10.00">cassert</text>
</a>
</g>
</g>
<!-- Node5&#45;&gt;Node10 -->
<g id="edge21" class="edge">
<title>Node5&#45;&gt;Node10</title>
<path fill="none" stroke="midnightblue" d="M726.02,-188.32C584.8,-188.82 168.16,-186.56 127.53,-143 98.42,-111.78 121.09,-57.07 136.06,-28.89"/>
<polygon fill="midnightblue" stroke="midnightblue" points="139.32,-30.24 141.12,-19.8 133.2,-26.84 139.32,-30.24"/>
</g>
<!-- Node5&#45;&gt;Node12 -->
<g id="edge23" class="edge">
<title>Node5&#45;&gt;Node12</title>
<path fill="none" stroke="midnightblue" d="M819.17,-186.79C886.78,-183.96 1006.94,-174.51 1034.53,-143 1062.14,-111.47 1052.88,-57.69 1045.32,-29.5"/>
<polygon fill="midnightblue" stroke="midnightblue" points="1048.64,-28.36 1042.49,-19.73 1041.91,-30.31 1048.64,-28.36"/>
</g>
<!-- Node15 -->
<g id="node15" class="node">
<title>Node15</title>
<g id="a_node15"><a xlink:title=" ">
<polygon fill="none" stroke="#bfbfbf" points="435.03,-62 435.03,-81 488.03,-81 488.03,-62 435.03,-62"/>
<text text-anchor="middle" x="461.53" y="-69" font-family="Helvetica,sans-Serif" font-size="10.00">iterator</text>
</a>
</g>
</g>
<!-- Node5&#45;&gt;Node15 -->
<g id="edge26" class="edge">
<title>Node5&#45;&gt;Node15</title>
<path fill="none" stroke="midnightblue" d="M725.7,-185.42C634.33,-179.92 439.46,-165.63 419.53,-143 404.56,-126 424.39,-102.93 441.56,-87.88"/>
<polygon fill="midnightblue" stroke="midnightblue" points="444.15,-90.27 449.61,-81.2 439.68,-84.89 444.15,-90.27"/>
</g>
<!-- Node5&#45;&gt;Node18 -->
<g id="edge20" class="edge">
<title>Node5&#45;&gt;Node18</title>
<path fill="none" stroke="midnightblue" d="M819.11,-183.59C888.67,-176.7 1023.73,-162.17 1137.53,-143 1137.63,-142.98 1137.74,-142.97 1137.84,-142.95"/>
<polygon fill="midnightblue" stroke="midnightblue" points="1138.29,-146.43 1147.49,-141.17 1137.02,-139.54 1138.29,-146.43"/>
</g>
<!-- Node5&#45;&gt;Node19 -->
<g id="edge22" class="edge">
<title>Node5&#45;&gt;Node19</title>
<path fill="none" stroke="midnightblue" d="M819.23,-182.07C877.56,-174.39 980.32,-159.95 1067.53,-143 1068.99,-142.72 1070.47,-142.42 1071.97,-142.1"/>
<polygon fill="midnightblue" stroke="midnightblue" points="1072.87,-145.49 1081.88,-139.92 1071.36,-138.65 1072.87,-145.49"/>
</g>
<!-- Node20 -->
<g id="node20" class="node">
<title>Node20</title>
<g id="a_node20"><a xlink:title=" ">
<polygon fill="none" stroke="#bfbfbf" points="587.03,-123.5 587.03,-142.5 652.03,-142.5 652.03,-123.5 587.03,-123.5"/>
<text text-anchor="middle" x="619.53" y="-130.5" font-family="Helvetica,sans-Serif" font-size="10.00">functional</text>
</a>
</g>
</g>
<!-- Node5&#45;&gt;Node20 -->
<g id="edge24" class="edge">
<title>Node5&#45;&gt;Node20</title>
<path fill="none" stroke="midnightblue" d="M748.29,-179.44C722.66,-170.4 682.05,-156.06 653.3,-145.92"/>
<polygon fill="midnightblue" stroke="midnightblue" points="654.26,-142.54 643.66,-142.52 651.93,-149.15 654.26,-142.54"/>
</g>
<!-- Node21 -->
<g id="node21" class="node">
<title>Node21</title>
<g id="a_node21"><a xlink:title=" ">
<polygon fill="none" stroke="#bfbfbf" points="670.03,-123.5 670.03,-142.5 753.03,-142.5 753.03,-123.5 670.03,-123.5"/>
<text text-anchor="middle" x="711.53" y="-130.5" font-family="Helvetica,sans-Serif" font-size="10.00">initializer_list</text>
</a>
</g>
</g>
<!-- Node5&#45;&gt;Node21 -->
<g id="edge25" class="edge">
<title>Node5&#45;&gt;Node21</title>
<path fill="none" stroke="midnightblue" d="M762.73,-179.32C753.72,-171.34 740.13,-159.31 729.22,-149.65"/>
<polygon fill="midnightblue" stroke="midnightblue" points="731.32,-146.84 721.51,-142.83 726.68,-152.08 731.32,-146.84"/>
</g>
<!-- Node22 -->
<g id="node22" class="node">
<title>Node22</title>
<g id="a_node22"><a xlink:title=" ">
<polygon fill="none" stroke="#bfbfbf" points="278.53,-123.5 278.53,-142.5 334.53,-142.5 334.53,-123.5 278.53,-123.5"/>
<text text-anchor="middle" x="306.53" y="-130.5" font-family="Helvetica,sans-Serif" font-size="10.00">numeric</text>
</a>
</g>
</g>
<!-- Node5&#45;&gt;Node22 -->
<g id="edge27" class="edge">
<title>Node5&#45;&gt;Node22</title>
<path fill="none" stroke="midnightblue" d="M725.89,-184.67C647.59,-178.71 484.86,-164.78 348.53,-143 347.29,-142.8 346.03,-142.59 344.76,-142.37"/>
<polygon fill="midnightblue" stroke="midnightblue" points="345.4,-138.93 334.92,-140.51 344.1,-145.81 345.4,-138.93"/>
</g>
<!-- Node23 -->
<g id="node23" class="node">
<title>Node23</title>
<g id="a_node23"><a xlink:title=" ">
<polygon fill="none" stroke="#bfbfbf" points="213.03,-62 213.03,-81 282.03,-81 282.03,-62 213.03,-62"/>
<text text-anchor="middle" x="247.53" y="-69" font-family="Helvetica,sans-Serif" font-size="10.00">type_traits</text>
</a>
</g>
</g>
<!-- Node5&#45;&gt;Node23 -->
<g id="edge28" class="edge">
<title>Node5&#45;&gt;Node23</title>
<path fill="none" stroke="midnightblue" d="M726.01,-186.43C656.3,-183.15 521.13,-173.13 410.53,-143 359.31,-129.05 303.25,-101.97 272.04,-85.74"/>
<polygon fill="midnightblue" stroke="midnightblue" points="273.66,-82.63 263.18,-81.07 270.4,-88.83 273.66,-82.63"/>
</g>
<!-- Node5&#45;&gt;Node24 -->
<g id="edge29" class="edge">
<title>Node5&#45;&gt;Node24</title>
<path fill="none" stroke="midnightblue" d="M819.34,-183.7C900.89,-176.12 1074.32,-159.61 1220.53,-143 1232.76,-141.61 1246.14,-139.95 1257.97,-138.44"/>
<polygon fill="midnightblue" stroke="midnightblue" points="1258.42,-141.91 1267.89,-137.15 1257.52,-134.97 1258.42,-141.91"/>
</g>
<!-- Node9 -->
<g id="node9" class="node">
<title>Node9</title>
<g id="a_node9"><a xlink:href="device__qualifier_8hpp.html" target="_top" xlink:title=" ">
<polygon fill="none" stroke="black" points="300.53,-62 300.53,-81 416.53,-81 416.53,-62 300.53,-62"/>
<text text-anchor="middle" x="358.53" y="-69" font-family="Helvetica,sans-Serif" font-size="10.00">device_qualifier.hpp</text>
</a>
</g>
</g>
<!-- Node8&#45;&gt;Node9 -->
<g id="edge9" class="edge">
<title>Node8&#45;&gt;Node9</title>
<path fill="none" stroke="midnightblue" d="M939.45,-124.2C936.44,-123.76 933.44,-123.35 930.53,-123 707.17,-95.78 648.28,-118.88 425.53,-87 418.33,-85.97 410.73,-84.6 403.36,-83.12"/>
<polygon fill="midnightblue" stroke="midnightblue" points="403.99,-79.68 393.48,-81.05 402.55,-86.53 403.99,-79.68"/>
</g>
<!-- Node8&#45;&gt;Node10 -->
<g id="edge15" class="edge">
<title>Node8&#45;&gt;Node10</title>
<path fill="none" stroke="midnightblue" d="M939.41,-124.47C936.41,-123.97 933.43,-123.47 930.53,-123 737.92,-91.47 689.78,-83.34 496.53,-56 382.19,-39.83 246.46,-23.07 182.85,-15.36"/>
<polygon fill="midnightblue" stroke="midnightblue" points="183.26,-11.89 172.91,-14.16 182.42,-18.84 183.26,-11.89"/>
</g>
<!-- Node11 -->
<g id="node11" class="node">
<title>Node11</title>
<g id="a_node11"><a xlink:href="get_8hpp.html" target="_top" xlink:title=" ">
<polygon fill="none" stroke="black" points="934.03,-62 934.03,-81 987.03,-81 987.03,-62 934.03,-62"/>
<text text-anchor="middle" x="960.53" y="-69" font-family="Helvetica,sans-Serif" font-size="10.00">get.hpp</text>
</a>
</g>
</g>
<!-- Node8&#45;&gt;Node11 -->
<g id="edge11" class="edge">
<title>Node8&#45;&gt;Node11</title>
<path fill="none" stroke="midnightblue" d="M979.38,-123.48C976.21,-114.9 971.23,-101.43 967.18,-90.48"/>
<polygon fill="midnightblue" stroke="midnightblue" points="970.43,-89.17 963.68,-81.01 963.87,-91.6 970.43,-89.17"/>
</g>
<!-- Node8&#45;&gt;Node12 -->
<g id="edge16" class="edge">
<title>Node8&#45;&gt;Node12</title>
<path fill="none" stroke="midnightblue" d="M986.63,-123.3C995.92,-103.59 1018.71,-55.21 1031.13,-28.84"/>
<polygon fill="midnightblue" stroke="midnightblue" points="1034.38,-30.16 1035.47,-19.62 1028.04,-27.18 1034.38,-30.16"/>
</g>
<!-- Node14 -->
<g id="node14" class="node">
<title>Node14</title>
<g id="a_node14"><a xlink:title=" ">
<polygon fill="none" stroke="#bfbfbf" points="809.03,-56.5 809.03,-86.5 916.03,-86.5 916.03,-56.5 809.03,-56.5"/>
<text text-anchor="start" x="817.03" y="-74.5" font-family="Helvetica,sans-Serif" font-size="10.00">boost/serialization</text>
<text text-anchor="middle" x="862.53" y="-63.5" font-family="Helvetica,sans-Serif" font-size="10.00">/access.hpp</text>
</a>
</g>
</g>
<!-- Node8&#45;&gt;Node14 -->
<g id="edge14" class="edge">
<title>Node8&#45;&gt;Node14</title>
<path fill="none" stroke="midnightblue" d="M965.34,-123.48C948.33,-115.04 921.74,-101.86 899.86,-91.01"/>
<polygon fill="midnightblue" stroke="midnightblue" points="901.33,-87.83 890.82,-86.52 898.22,-94.1 901.33,-87.83"/>
</g>
<!-- Node8&#45;&gt;Node15 -->
<g id="edge17" class="edge">
<title>Node8&#45;&gt;Node15</title>
<path fill="none" stroke="midnightblue" d="M939.44,-124.32C936.43,-123.85 933.44,-123.41 930.53,-123 919.82,-121.5 606.81,-88.02 498.21,-76.42"/>
<polygon fill="midnightblue" stroke="midnightblue" points="498.38,-72.92 488.06,-75.33 497.63,-79.88 498.38,-72.92"/>
</g>
<!-- Node16 -->
<g id="node16" class="node">
<title>Node16</title>
<g id="a_node16"><a xlink:title=" ">
<polygon fill="none" stroke="#bfbfbf" points="734.03,-62 734.03,-81 791.03,-81 791.03,-62 734.03,-62"/>
<text text-anchor="middle" x="762.53" y="-69" font-family="Helvetica,sans-Serif" font-size="10.00">ostream</text>
</a>
</g>
</g>
<!-- Node8&#45;&gt;Node16 -->
<g id="edge18" class="edge">
<title>Node8&#45;&gt;Node16</title>
<path fill="none" stroke="midnightblue" d="M941.04,-123.44C903.66,-115.34 847.4,-102.19 799.53,-87 797.26,-86.28 794.92,-85.49 792.58,-84.66"/>
<polygon fill="midnightblue" stroke="midnightblue" points="793.7,-81.34 783.1,-81.12 791.25,-87.89 793.7,-81.34"/>
</g>
<!-- Node8&#45;&gt;Node17 -->
<g id="edge19" class="edge">
<title>Node8&#45;&gt;Node17</title>
<path fill="none" stroke="midnightblue" d="M939.46,-124.13C936.45,-123.71 933.45,-123.32 930.53,-123 609,-87.35 526.22,-109.98 203.53,-87 165.14,-84.27 121.53,-80.12 90.2,-76.97"/>
<polygon fill="midnightblue" stroke="midnightblue" points="90.37,-73.47 80.07,-75.94 89.66,-80.43 90.37,-73.47"/>
</g>
<!-- Node9&#45;&gt;Node10 -->
<g id="edge10" class="edge">
<title>Node9&#45;&gt;Node10</title>
<path fill="none" stroke="midnightblue" d="M328.16,-61.98C289.74,-51.19 223.66,-32.65 182.69,-21.15"/>
<polygon fill="midnightblue" stroke="midnightblue" points="183.42,-17.72 172.84,-18.38 181.52,-24.46 183.42,-17.72"/>
</g>
<!-- Node11&#45;&gt;Node12 -->
<g id="edge12" class="edge">
<title>Node11&#45;&gt;Node12</title>
<path fill="none" stroke="midnightblue" d="M971.85,-61.98C984.41,-52.52 1004.89,-37.1 1020.03,-25.69"/>
<polygon fill="midnightblue" stroke="midnightblue" points="1022.35,-28.32 1028.24,-19.51 1018.14,-22.73 1022.35,-28.32"/>
</g>
<!-- Node13 -->
<g id="node13" class="node">
<title>Node13</title>
<g id="a_node13"><a xlink:title=" ">
<polygon fill="none" stroke="#bfbfbf" points="940.03,-0.5 940.03,-19.5 981.03,-19.5 981.03,-0.5 940.03,-0.5"/>
<text text-anchor="middle" x="960.53" y="-7.5" font-family="Helvetica,sans-Serif" font-size="10.00">tuple</text>
</a>
</g>
</g>
<!-- Node11&#45;&gt;Node13 -->
<g id="edge13" class="edge">
<title>Node11&#45;&gt;Node13</title>
<path fill="none" stroke="midnightblue" d="M960.53,-61.98C960.53,-53.58 960.53,-40.48 960.53,-29.66"/>
<polygon fill="midnightblue" stroke="midnightblue" points="964.03,-29.51 960.53,-19.51 957.03,-29.51 964.03,-29.51"/>
</g>
<!-- Node28&#45;&gt;Node9 -->
<g id="edge37" class="edge">
<title>Node28&#45;&gt;Node9</title>
<path fill="none" stroke="midnightblue" d="M205.18,-123.48C236.15,-113.18 288.41,-95.81 323.18,-84.25"/>
<polygon fill="midnightblue" stroke="midnightblue" points="324.55,-87.48 332.94,-81.01 322.34,-80.84 324.55,-87.48"/>
</g>
<!-- Node28&#45;&gt;Node10 -->
<g id="edge38" class="edge">
<title>Node28&#45;&gt;Node10</title>
<path fill="none" stroke="midnightblue" d="M177.16,-123.3C171.83,-103.76 158.82,-56.06 151.59,-29.55"/>
<polygon fill="midnightblue" stroke="midnightblue" points="154.89,-28.35 148.89,-19.62 148.14,-30.19 154.89,-28.35"/>
</g>
<!-- Node28&#45;&gt;Node12 -->
<g id="edge39" class="edge">
<title>Node28&#45;&gt;Node12</title>
<path fill="none" stroke="midnightblue" d="M179.33,-123.16C179.5,-106.85 182.47,-72.19 203.53,-56 272.85,-2.72 902.66,-29.77 989.53,-20 993.82,-19.52 998.3,-18.89 1002.74,-18.19"/>
<polygon fill="midnightblue" stroke="midnightblue" points="1003.63,-21.59 1012.9,-16.47 1002.46,-14.69 1003.63,-21.59"/>
</g>
<!-- Node28&#45;&gt;Node15 -->
<g id="edge40" class="edge">
<title>Node28&#45;&gt;Node15</title>
<path fill="none" stroke="midnightblue" d="M222.78,-125.17C282.81,-115.5 388.21,-97.81 425.53,-87 427.97,-86.29 430.47,-85.48 432.95,-84.61"/>
<polygon fill="midnightblue" stroke="midnightblue" points="434.24,-87.87 442.36,-81.06 431.76,-81.32 434.24,-87.87"/>
</g>
<!-- Node28&#45;&gt;Node17 -->
<g id="edge41" class="edge">
<title>Node28&#45;&gt;Node17</title>
<path fill="none" stroke="midnightblue" d="M160.62,-123.48C138.37,-113.45 101.22,-96.7 75.61,-85.15"/>
<polygon fill="midnightblue" stroke="midnightblue" points="76.97,-81.93 66.41,-81.01 74.09,-88.31 76.97,-81.93"/>
</g>
<!-- Node28&#45;&gt;Node23 -->
<g id="edge42" class="edge">
<title>Node28&#45;&gt;Node23</title>
<path fill="none" stroke="midnightblue" d="M189.28,-123.48C199.88,-114.2 217.05,-99.17 230.01,-87.83"/>
<polygon fill="midnightblue" stroke="midnightblue" points="232.59,-90.23 237.81,-81.01 227.98,-84.96 232.59,-90.23"/>
</g>
<!-- Node29&#45;&gt;Node5 -->
<g id="edge50" class="edge">
<title>Node29&#45;&gt;Node5</title>
<path fill="none" stroke="midnightblue" d="M351.22,-243.79C436.41,-232.92 621.93,-209.23 715.76,-197.25"/>
<polygon fill="midnightblue" stroke="midnightblue" points="716.44,-200.69 725.92,-195.95 715.56,-193.75 716.44,-200.69"/>
</g>
<!-- Node29&#45;&gt;Node10 -->
<g id="edge45" class="edge">
<title>Node29&#45;&gt;Node10</title>
<path fill="none" stroke="midnightblue" d="M261.9,-242.1C190.21,-227.41 52.68,-186.89 5.53,-87 -0.35,-74.54 -2.59,-67.13 5.53,-56 29.33,-23.42 76.98,-13.88 110.26,-11.37"/>
<polygon fill="midnightblue" stroke="midnightblue" points="110.74,-14.85 120.52,-10.78 110.34,-7.86 110.74,-14.85"/>
</g>
<!-- Node29&#45;&gt;Node12 -->
<g id="edge46" class="edge">
<title>Node29&#45;&gt;Node12</title>
<path fill="none" stroke="midnightblue" d="M351.19,-245.97C530.72,-231.55 1191.6,-176.35 1220.53,-143 1269.75,-86.28 1141.75,-40.03 1075.87,-20.72"/>
<polygon fill="midnightblue" stroke="midnightblue" points="1076.83,-17.35 1066.25,-17.96 1074.9,-24.08 1076.83,-17.35"/>
</g>
<!-- Node29&#45;&gt;Node15 -->
<g id="edge47" class="edge">
<title>Node29&#45;&gt;Node15</title>
<path fill="none" stroke="midnightblue" d="M299.24,-240.81C281.62,-218.74 240.33,-159.71 269.53,-123 313.83,-67.32 357.66,-108.36 425.53,-87 427.81,-86.28 430.15,-85.49 432.48,-84.65"/>
<polygon fill="midnightblue" stroke="midnightblue" points="433.84,-87.88 441.93,-81.04 431.34,-81.34 433.84,-87.88"/>
</g>
<!-- Node29&#45;&gt;Node17 -->
<g id="edge49" class="edge">
<title>Node29&#45;&gt;Node17</title>
<path fill="none" stroke="midnightblue" d="M279.48,-241C236.45,-226.44 151.46,-193.35 94.53,-143 77.72,-128.13 64.25,-105.94 56.12,-90.44"/>
<polygon fill="midnightblue" stroke="midnightblue" points="59.17,-88.73 51.56,-81.36 52.92,-91.87 59.17,-88.73"/>
</g>
<!-- Node29&#45;&gt;Node22 -->
<g id="edge48" class="edge">
<title>Node29&#45;&gt;Node22</title>
<path fill="none" stroke="midnightblue" d="M306.53,-240.82C306.53,-222.26 306.53,-178.34 306.53,-152.97"/>
<polygon fill="midnightblue" stroke="midnightblue" points="310.03,-152.78 306.53,-142.78 303.03,-152.78 310.03,-152.78"/>
</g>
</g>
</svg>
        <g id="navigator" transform="translate(0 0)" fill="#404254">
                <rect fill="#f2f5e9" fill-opacity="0.5" stroke="#606060" stroke-width=".5" x="0" y="0" width="60" height="60"/>
                <use id="zoomplus" xlink:href="#zoomPlus" x="17" y="9" onmousedown="handleZoom(evt,'in')"/>
                <use id="zoomminus" xlink:href="#zoomMin" x="42" y="9" onmousedown="handleZoom(evt,'out')"/>
                <use id="reset" xlink:href="#resetDef" x="30" y="36" onmousedown="handleReset()"/>
                <g id="arrowUp" xlink:href="#dirArrow" transform="translate(30 24)" onmousedown="handlePan(0,-1)">
                  <use xlink:href="#rim" fill="#404040">
                        <set attributeName="fill" to="#808080" begin="arrowUp.mouseover" end="arrowUp.mouseout"/>
                  </use>
                  <path fill="none" stroke="white" stroke-width="1.5" d="M0,-3.0v7 M-2.5,-0.5L0,-3.0L2.5,-0.5"/>
                </g>
                <g id="arrowRight" xlink:href="#dirArrow" transform="rotate(90) translate(36 -43)" onmousedown="handlePan(1,0)">
                  <use xlink:href="#rim" fill="#404040">
                        <set attributeName="fill" to="#808080" begin="arrowRight.mouseover" end="arrowRight.mouseout"/>
                  </use>
                  <path fill="none" stroke="white" stroke-width="1.5" d="M0,-3.0v7 M-2.5,-0.5L0,-3.0L2.5,-0.5"/>
                </g>
                <g id="arrowDown" xlink:href="#dirArrow" transform="rotate(180) translate(-30 -48)" onmousedown="handlePan(0,1)">
                  <use xlink:href="#rim" fill="#404040">
                        <set attributeName="fill" to="#808080" begin="arrowDown.mouseover" end="arrowDown.mouseout"/>
                  </use>
                  <path fill="none" stroke="white" stroke-width="1.5" d="M0,-3.0v7 M-2.5,-0.5L0,-3.0L2.5,-0.5"/>
                </g>
                <g id="arrowLeft" xlink:href="#dirArrow" transform="rotate(270) translate(-36 17)" onmousedown="handlePan(-1,0)">
                  <use xlink:href="#rim" fill="#404040">
                        <set attributeName="fill" to="#808080" begin="arrowLeft.mouseover" end="arrowLeft.mouseout"/>
                  </use>
                  <path fill="none" stroke="white" stroke-width="1.5" d="M0,-3.0v7 M-2.5,-0.5L0,-3.0L2.5,-0.5"/>
                </g>
        </g>
        <svg viewBox="0 0 15 15" width="100%" height="30px" preserveAspectRatio="xMaxYMin meet">
         <g id="arrow_out" transform="scale(0.3 0.3)">
          <a xlink:href="fft_8cpp__incl_org.svg" target="_base">
           <rect id="button" ry="5" rx="5" y="6" x="6" height="38" width="38"
                fill="#f2f5e9" fill-opacity="0.5" stroke="#606060" stroke-width="1.0"/>
           <path id="arrow"
             d="M 11.500037,31.436501 C 11.940474,20.09759 22.043105,11.32322 32.158766,21.979434 L 37.068811,17.246167 C 37.068811,17.246167 37.088388,32 37.088388,32 L 22.160133,31.978069 C 22.160133,31.978069 26.997745,27.140456 26.997745,27.140456 C 18.528582,18.264221 13.291696,25.230495 11.500037,31.436501 z"
             style="fill:#404040;"/>
          </a>
         </g>
        </svg>
</svg>
