<?xml version="1.0" encoding="UTF-8" standalone="no"?>
<!DOCTYPE svg PUBLIC "-//W3C//DTD SVG 1.1//EN"
 "http://www.w3.org/Graphics/SVG/1.1/DTD/svg11.dtd">
<!-- Generated by graphviz version 2.43.0 (0)
 -->
<!-- Title: forces.hpp Pages: 1 -->
<svg width="871pt" height="196pt"
 viewBox="0.00 0.00 870.50 196.00" xmlns="http://www.w3.org/2000/svg" xmlns:xlink="http://www.w3.org/1999/xlink">
<g id="graph0" class="graph" transform="scale(1 1) rotate(0) translate(4 192)">
<title>forces.hpp</title>
<!-- Node1 -->
<g id="node1" class="node">
<title>Node1</title>
<g id="a_node1"><a xlink:title=" ">
<polygon fill="#bfbfbf" stroke="black" points="423.5,-168.5 423.5,-187.5 491.5,-187.5 491.5,-168.5 423.5,-168.5"/>
<text text-anchor="middle" x="457.5" y="-175.5" font-family="Helvetica,sans-Serif" font-size="10.00">forces.hpp</text>
</a>
</g>
</g>
<!-- Node2 -->
<g id="node2" class="node">
<title>Node2</title>
<g id="a_node2"><a xlink:href="DipolarBarnesHut_8cpp.html" target="_top" xlink:title=" ">
<polygon fill="none" stroke="black" points="0,-112.5 0,-131.5 123,-131.5 123,-112.5 0,-112.5"/>
<text text-anchor="middle" x="61.5" y="-119.5" font-family="Helvetica,sans-Serif" font-size="10.00">DipolarBarnesHut.cpp</text>
</a>
</g>
</g>
<!-- Node1&#45;&gt;Node2 -->
<g id="edge1" class="edge">
<title>Node1&#45;&gt;Node2</title>
<path fill="none" stroke="midnightblue" d="M413.48,-171C342.79,-161.36 203.77,-142.4 123.22,-131.42"/>
<polygon fill="midnightblue" stroke="midnightblue" points="413.01,-174.47 423.39,-172.35 413.96,-167.53 413.01,-174.47"/>
</g>
<!-- Node3 -->
<g id="node3" class="node">
<title>Node3</title>
<g id="a_node3"><a xlink:href="DipolarDirectSum_8cpp.html" target="_top" xlink:title=" ">
<polygon fill="none" stroke="black" points="141,-112.5 141,-131.5 264,-131.5 264,-112.5 141,-112.5"/>
<text text-anchor="middle" x="202.5" y="-119.5" font-family="Helvetica,sans-Serif" font-size="10.00">DipolarDirectSum.cpp</text>
</a>
</g>
</g>
<!-- Node1&#45;&gt;Node3 -->
<g id="edge2" class="edge">
<title>Node1&#45;&gt;Node3</title>
<path fill="none" stroke="midnightblue" d="M413.58,-167.7C365.55,-157.53 289.24,-141.37 242.72,-131.52"/>
<polygon fill="midnightblue" stroke="midnightblue" points="412.87,-171.13 423.37,-169.77 414.32,-164.28 412.87,-171.13"/>
</g>
<!-- Node4 -->
<g id="node4" class="node">
<title>Node4</title>
<g id="a_node4"><a xlink:href="Mmm1dgpuForce_8cpp.html" target="_top" xlink:title=" ">
<polygon fill="none" stroke="black" points="282.5,-112.5 282.5,-131.5 404.5,-131.5 404.5,-112.5 282.5,-112.5"/>
<text text-anchor="middle" x="343.5" y="-119.5" font-family="Helvetica,sans-Serif" font-size="10.00">Mmm1dgpuForce.cpp</text>
</a>
</g>
</g>
<!-- Node1&#45;&gt;Node4 -->
<g id="edge3" class="edge">
<title>Node1&#45;&gt;Node4</title>
<path fill="none" stroke="midnightblue" d="M430.26,-164.1C408.96,-154.01 379.96,-140.27 361.48,-131.52"/>
<polygon fill="midnightblue" stroke="midnightblue" points="428.9,-167.33 439.44,-168.44 431.9,-161 428.9,-167.33"/>
</g>
<!-- Node5 -->
<g id="node5" class="node">
<title>Node5</title>
<g id="a_node5"><a xlink:href="energy_8cpp.html" target="_top" xlink:title=" ">
<polygon fill="none" stroke="black" points="423,-112.5 423,-131.5 492,-131.5 492,-112.5 423,-112.5"/>
<text text-anchor="middle" x="457.5" y="-119.5" font-family="Helvetica,sans-Serif" font-size="10.00">energy.cpp</text>
</a>
</g>
</g>
<!-- Node1&#45;&gt;Node5 -->
<g id="edge4" class="edge">
<title>Node1&#45;&gt;Node5</title>
<path fill="none" stroke="midnightblue" d="M457.5,-157.8C457.5,-148.91 457.5,-138.78 457.5,-131.75"/>
<polygon fill="midnightblue" stroke="midnightblue" points="454,-158.08 457.5,-168.08 461,-158.08 454,-158.08"/>
</g>
<!-- Node6 -->
<g id="node6" class="node">
<title>Node6</title>
<g id="a_node6"><a xlink:href="forces__inline_8hpp.html" target="_top" xlink:title=" ">
<polygon fill="none" stroke="black" points="510.5,-112.5 510.5,-131.5 610.5,-131.5 610.5,-112.5 510.5,-112.5"/>
<text text-anchor="middle" x="560.5" y="-119.5" font-family="Helvetica,sans-Serif" font-size="10.00">forces_inline.hpp</text>
</a>
</g>
</g>
<!-- Node1&#45;&gt;Node6 -->
<g id="edge5" class="edge">
<title>Node1&#45;&gt;Node6</title>
<path fill="none" stroke="midnightblue" d="M483.08,-163.59C502.12,-153.61 527.56,-140.27 543.99,-131.65"/>
<polygon fill="midnightblue" stroke="midnightblue" points="481.28,-160.58 474.05,-168.32 484.53,-166.78 481.28,-160.58"/>
</g>
<!-- Node11 -->
<g id="node11" class="node">
<title>Node11</title>
<g id="a_node11"><a xlink:href="integrate_8cpp.html" target="_top" xlink:title=" ">
<polygon fill="none" stroke="black" points="629,-112.5 629,-131.5 710,-131.5 710,-112.5 629,-112.5"/>
<text text-anchor="middle" x="669.5" y="-119.5" font-family="Helvetica,sans-Serif" font-size="10.00">integrate.cpp</text>
</a>
</g>
</g>
<!-- Node1&#45;&gt;Node11 -->
<g id="edge10" class="edge">
<title>Node1&#45;&gt;Node11</title>
<path fill="none" stroke="midnightblue" d="M500.85,-165.96C540.89,-155.76 599.53,-140.82 636.07,-131.52"/>
<polygon fill="midnightblue" stroke="midnightblue" points="499.92,-162.58 491.09,-168.44 501.65,-169.37 499.92,-162.58"/>
</g>
<!-- Node12 -->
<g id="node12" class="node">
<title>Node12</title>
<g id="a_node12"><a xlink:href="VirtualSitesRelative_8cpp.html" target="_top" xlink:title=" ">
<polygon fill="none" stroke="black" points="728.5,-112.5 728.5,-131.5 862.5,-131.5 862.5,-112.5 728.5,-112.5"/>
<text text-anchor="middle" x="795.5" y="-119.5" font-family="Helvetica,sans-Serif" font-size="10.00">VirtualSitesRelative.cpp</text>
</a>
</g>
</g>
<!-- Node1&#45;&gt;Node12 -->
<g id="edge11" class="edge">
<title>Node1&#45;&gt;Node12</title>
<path fill="none" stroke="midnightblue" d="M501.99,-169.89C563.86,-160.01 675.74,-142.13 742.06,-131.54"/>
<polygon fill="midnightblue" stroke="midnightblue" points="501.09,-166.49 491.77,-171.53 502.2,-173.4 501.09,-166.49"/>
</g>
<!-- Node7 -->
<g id="node7" class="node">
<title>Node7</title>
<g id="a_node7"><a xlink:href="ShapeBasedConstraint_8cpp.html" target="_top" xlink:title=" ">
<polygon fill="none" stroke="black" points="362,-56.5 362,-75.5 509,-75.5 509,-56.5 362,-56.5"/>
<text text-anchor="middle" x="435.5" y="-63.5" font-family="Helvetica,sans-Serif" font-size="10.00">ShapeBasedConstraint.cpp</text>
</a>
</g>
</g>
<!-- Node6&#45;&gt;Node7 -->
<g id="edge6" class="edge">
<title>Node6&#45;&gt;Node7</title>
<path fill="none" stroke="midnightblue" d="M531.26,-108.37C507.85,-98.26 475.66,-84.35 455.21,-75.52"/>
<polygon fill="midnightblue" stroke="midnightblue" points="530.13,-111.69 540.69,-112.44 532.9,-105.26 530.13,-111.69"/>
</g>
<!-- Node8 -->
<g id="node8" class="node">
<title>Node8</title>
<g id="a_node8"><a xlink:href="forces_8cpp.html" target="_top" xlink:title=" ">
<polygon fill="none" stroke="black" points="527,-56.5 527,-75.5 594,-75.5 594,-56.5 527,-56.5"/>
<text text-anchor="middle" x="560.5" y="-63.5" font-family="Helvetica,sans-Serif" font-size="10.00">forces.cpp</text>
</a>
</g>
</g>
<!-- Node6&#45;&gt;Node8 -->
<g id="edge7" class="edge">
<title>Node6&#45;&gt;Node8</title>
<path fill="none" stroke="midnightblue" d="M560.5,-101.8C560.5,-92.91 560.5,-82.78 560.5,-75.75"/>
<polygon fill="midnightblue" stroke="midnightblue" points="557,-102.08 560.5,-112.08 564,-102.08 557,-102.08"/>
</g>
<!-- Node9 -->
<g id="node9" class="node">
<title>Node9</title>
<g id="a_node9"><a xlink:href="pressure__inline_8hpp.html" target="_top" xlink:title=" ">
<polygon fill="none" stroke="black" points="612.5,-56.5 612.5,-75.5 724.5,-75.5 724.5,-56.5 612.5,-56.5"/>
<text text-anchor="middle" x="668.5" y="-63.5" font-family="Helvetica,sans-Serif" font-size="10.00">pressure_inline.hpp</text>
</a>
</g>
</g>
<!-- Node6&#45;&gt;Node9 -->
<g id="edge8" class="edge">
<title>Node6&#45;&gt;Node9</title>
<path fill="none" stroke="midnightblue" d="M587.05,-107.73C607.05,-97.73 633.89,-84.31 651.19,-75.65"/>
<polygon fill="midnightblue" stroke="midnightblue" points="585.23,-104.72 577.85,-112.32 588.36,-110.98 585.23,-104.72"/>
</g>
<!-- Node10 -->
<g id="node10" class="node">
<title>Node10</title>
<g id="a_node10"><a xlink:href="pressure_8cpp.html" target="_top" xlink:title=" ">
<polygon fill="none" stroke="black" points="629,-0.5 629,-19.5 708,-19.5 708,-0.5 629,-0.5"/>
<text text-anchor="middle" x="668.5" y="-7.5" font-family="Helvetica,sans-Serif" font-size="10.00">pressure.cpp</text>
</a>
</g>
</g>
<!-- Node9&#45;&gt;Node10 -->
<g id="edge9" class="edge">
<title>Node9&#45;&gt;Node10</title>
<path fill="none" stroke="midnightblue" d="M668.5,-45.8C668.5,-36.91 668.5,-26.78 668.5,-19.75"/>
<polygon fill="midnightblue" stroke="midnightblue" points="665,-46.08 668.5,-56.08 672,-46.08 665,-46.08"/>
</g>
</g>
</svg>
