<?xml version="1.0" encoding="UTF-8" standalone="no"?>
<!DOCTYPE svg PUBLIC "-//W3C//DTD SVG 1.1//EN"
 "http://www.w3.org/Graphics/SVG/1.1/DTD/svg11.dtd">
<!-- Generated by graphviz version 2.43.0 (0)
 -->
<!-- Title: get_value.hpp Pages: 1 -->
<!--zoomable 397 -->
<svg id="main" version="1.1" xmlns="http://www.w3.org/2000/svg" xmlns:xlink="http://www.w3.org/1999/xlink" xml:space="preserve" onload="init(evt)">
<style type="text/css"><![CDATA[
.edge:hover path { stroke: red; }
.edge:hover polygon { stroke: red; fill: red; }
]]></style>
<script type="text/javascript"><![CDATA[
var edges = document.getElementsByTagName('g');
if (edges && edges.length) {
  for (var i=0;i<edges.length;i++) {
    if (edges[i].id.substr(0,4)=='edge') {
      edges[i].setAttribute('class','edge');
    }
  }
}
]]></script>
        <defs>
                <circle id="rim" cx="0" cy="0" r="7"/>
                <circle id="rim2" cx="0" cy="0" r="3.5"/>
                <g id="zoomPlus">
                        <use xlink:href="#rim" fill="#404040">
                                <set attributeName="fill" to="#808080" begin="zoomplus.mouseover" end="zoomplus.mouseout"/>
                        </use>
                        <path d="M-4,0h8M0,-4v8" fill="none" stroke="white" stroke-width="1.5" pointer-events="none"/>
                </g>
                <g id="zoomMin">
                        <use xlink:href="#rim" fill="#404040">
                                <set attributeName="fill" to="#808080" begin="zoomminus.mouseover" end="zoomminus.mouseout"/>
                        </use>
                        <path d="M-4,0h8" fill="none" stroke="white" stroke-width="1.5" pointer-events="none"/>
                </g>
                <g id="dirArrow">
                        <path fill="none" stroke="white" stroke-width="1.5" d="M0,-3.0v7 M-2.5,-0.5L0,-3.0L2.5,-0.5"/>
                </g>
               <g id="resetDef">
                       <use xlink:href="#rim2" fill="#404040">
                               <set attributeName="fill" to="#808080" begin="reset.mouseover" end="reset.mouseout"/>
                       </use>
               </g>
        </defs>

<script type="text/javascript">
var viewWidth = 1736;
var viewHeight = 397;
var sectionId = 'dynsection-0';
</script>
<script xlink:href="svgpan.js"/>
<svg id="graph" class="graph">
<g id="viewport">
<title>get_value.hpp</title>
<!-- Node1 -->
<g id="node1" class="node">
<title>Node1</title>
<g id="a_node1"><a xlink:title=" ">
<polygon fill="#bfbfbf" stroke="black" points="622,-369.5 622,-388.5 708,-388.5 708,-369.5 622,-369.5"/>
<text text-anchor="middle" x="665" y="-376.5" font-family="Helvetica,sans-Serif" font-size="10.00">get_value.hpp</text>
</a>
</g>
</g>
<!-- Node2 -->
<g id="node2" class="node">
<title>Node2</title>
<g id="a_node2"><a xlink:href="Exception_8hpp.html" target="_top" xlink:title=" ">
<polygon fill="none" stroke="black" points="169,-313.5 169,-332.5 255,-332.5 255,-313.5 169,-313.5"/>
<text text-anchor="middle" x="212" y="-320.5" font-family="Helvetica,sans-Serif" font-size="10.00">Exception.hpp</text>
</a>
</g>
</g>
<!-- Node1&#45;&gt;Node2 -->
<g id="edge1" class="edge">
<title>Node1&#45;&gt;Node2</title>
<path fill="none" stroke="midnightblue" d="M621.97,-372.87C538.72,-362.95 355.82,-341.14 265.13,-330.33"/>
<polygon fill="midnightblue" stroke="midnightblue" points="265.41,-326.84 255.07,-329.13 264.58,-333.79 265.41,-326.84"/>
</g>
<!-- Node3 -->
<g id="node3" class="node">
<title>Node3</title>
<g id="a_node3"><a xlink:title=" ">
<polygon fill="none" stroke="#bfbfbf" points="485.5,-62 485.5,-81 550.5,-81 550.5,-62 485.5,-62"/>
<text text-anchor="middle" x="518" y="-69" font-family="Helvetica,sans-Serif" font-size="10.00">stdexcept</text>
</a>
</g>
</g>
<!-- Node1&#45;&gt;Node3 -->
<g id="edge66" class="edge">
<title>Node1&#45;&gt;Node3</title>
<path fill="none" stroke="midnightblue" d="M621.92,-378.38C507.45,-378.77 198.19,-375.74 107,-333 67.3,-314.39 38,-306.34 38,-262.5 38,-262.5 38,-262.5 38,-193.5 38,-103.72 357.76,-79.89 475.31,-74.16"/>
<polygon fill="midnightblue" stroke="midnightblue" points="475.56,-77.65 485.39,-73.69 475.23,-70.66 475.56,-77.65"/>
</g>
<!-- Node4 -->
<g id="node4" class="node">
<title>Node4</title>
<g id="a_node4"><a xlink:title=" ">
<polygon fill="none" stroke="#bfbfbf" points="104,-185 104,-204 148,-204 148,-185 104,-185"/>
<text text-anchor="middle" x="126" y="-192" font-family="Helvetica,sans-Serif" font-size="10.00">string</text>
</a>
</g>
</g>
<!-- Node1&#45;&gt;Node4 -->
<g id="edge67" class="edge">
<title>Node1&#45;&gt;Node4</title>
<path fill="none" stroke="midnightblue" d="M621.72,-378.71C511.24,-379.84 221.72,-378.26 139,-333 101.16,-312.3 84.58,-287.59 96,-246 99.32,-233.9 106.38,-221.77 112.81,-212.43"/>
<polygon fill="midnightblue" stroke="midnightblue" points="115.81,-214.27 118.88,-204.13 110.15,-210.14 115.81,-214.27"/>
</g>
<!-- Node5 -->
<g id="node5" class="node">
<title>Node5</title>
<g id="a_node5"><a xlink:title=" ">
<polygon fill="none" stroke="#bfbfbf" points="104.5,-252 104.5,-271 149.5,-271 149.5,-252 104.5,-252"/>
<text text-anchor="middle" x="127" y="-259" font-family="Helvetica,sans-Serif" font-size="10.00">utility</text>
</a>
</g>
</g>
<!-- Node1&#45;&gt;Node5 -->
<g id="edge69" class="edge">
<title>Node1&#45;&gt;Node5</title>
<path fill="none" stroke="midnightblue" d="M621.93,-376.6C506.69,-372.52 197.45,-359.22 160,-333 142.91,-321.03 134.43,-297.86 130.39,-281.35"/>
<polygon fill="midnightblue" stroke="midnightblue" points="133.74,-280.27 128.26,-271.2 126.89,-281.71 133.74,-280.27"/>
</g>
<!-- Node6 -->
<g id="node6" class="node">
<title>Node6</title>
<g id="a_node6"><a xlink:href="ObjectHandle_8hpp.html" target="_top" xlink:title=" ">
<polygon fill="none" stroke="black" points="890,-313.5 890,-332.5 994,-332.5 994,-313.5 890,-313.5"/>
<text text-anchor="middle" x="942" y="-320.5" font-family="Helvetica,sans-Serif" font-size="10.00">ObjectHandle.hpp</text>
</a>
</g>
</g>
<!-- Node1&#45;&gt;Node6 -->
<g id="edge5" class="edge">
<title>Node1&#45;&gt;Node6</title>
<path fill="none" stroke="midnightblue" d="M708.28,-369.56C756.78,-360.11 835.48,-344.77 887.98,-334.53"/>
<polygon fill="midnightblue" stroke="midnightblue" points="888.96,-337.91 898.11,-332.56 887.62,-331.03 888.96,-337.91"/>
</g>
<!-- Node7 -->
<g id="node7" class="node">
<title>Node7</title>
<g id="a_node7"><a xlink:href="Variant_8hpp.html" target="_top" xlink:title=" ">
<polygon fill="none" stroke="black" points="851.5,-252 851.5,-271 924.5,-271 924.5,-252 851.5,-252"/>
<text text-anchor="middle" x="888" y="-259" font-family="Helvetica,sans-Serif" font-size="10.00">Variant.hpp</text>
</a>
</g>
</g>
<!-- Node1&#45;&gt;Node7 -->
<g id="edge59" class="edge">
<title>Node1&#45;&gt;Node7</title>
<path fill="none" stroke="midnightblue" d="M681.76,-369.32C720.44,-349.29 816.13,-299.72 862.29,-275.82"/>
<polygon fill="midnightblue" stroke="midnightblue" points="864.08,-278.83 871.35,-271.12 860.86,-272.62 864.08,-278.83"/>
</g>
<!-- Node10 -->
<g id="node10" class="node">
<title>Node10</title>
<g id="a_node10"><a xlink:title=" ">
<polygon fill="none" stroke="#bfbfbf" points="430.5,-0.5 430.5,-19.5 483.5,-19.5 483.5,-0.5 430.5,-0.5"/>
<text text-anchor="middle" x="457" y="-7.5" font-family="Helvetica,sans-Serif" font-size="10.00">cstddef</text>
</a>
</g>
</g>
<!-- Node1&#45;&gt;Node10 -->
<g id="edge64" class="edge">
<title>Node1&#45;&gt;Node10</title>
<path fill="none" stroke="midnightblue" d="M621.8,-376.61C492.4,-372.19 113.77,-357.3 64,-333 25.97,-314.43 0,-304.82 0,-262.5 0,-262.5 0,-262.5 0,-132 0,-45.22 311.81,-19.25 420.31,-12.83"/>
<polygon fill="midnightblue" stroke="midnightblue" points="420.67,-16.32 430.45,-12.26 420.27,-9.33 420.67,-16.32"/>
</g>
<!-- Node26 -->
<g id="node26" class="node">
<title>Node26</title>
<g id="a_node26"><a xlink:title=" ">
<polygon fill="none" stroke="#bfbfbf" points="1508.5,-62 1508.5,-81 1577.5,-81 1577.5,-62 1508.5,-62"/>
<text text-anchor="middle" x="1543" y="-69" font-family="Helvetica,sans-Serif" font-size="10.00">type_traits</text>
</a>
</g>
</g>
<!-- Node1&#45;&gt;Node26 -->
<g id="edge68" class="edge">
<title>Node1&#45;&gt;Node26</title>
<path fill="none" stroke="midnightblue" d="M708.32,-377.92C907.77,-377 1728,-366.86 1728,-262.5 1728,-262.5 1728,-262.5 1728,-193.5 1728,-126.66 1642.38,-94.76 1587.63,-81.2"/>
<polygon fill="midnightblue" stroke="midnightblue" points="1588.33,-77.77 1577.8,-78.88 1586.72,-84.58 1588.33,-77.77"/>
</g>
<!-- Node27 -->
<g id="node27" class="node">
<title>Node27</title>
<g id="a_node27"><a xlink:title=" ">
<polygon fill="none" stroke="#bfbfbf" points="1578.5,-123.5 1578.5,-142.5 1625.5,-142.5 1625.5,-123.5 1578.5,-123.5"/>
<text text-anchor="middle" x="1602" y="-130.5" font-family="Helvetica,sans-Serif" font-size="10.00">vector</text>
</a>
</g>
</g>
<!-- Node1&#45;&gt;Node27 -->
<g id="edge70" class="edge">
<title>Node1&#45;&gt;Node27</title>
<path fill="none" stroke="midnightblue" d="M708.12,-375.23C789.52,-369.68 971.29,-355.73 1123,-333 1369.86,-296.02 1517.13,-406.55 1671,-210 1679.49,-199.15 1677.56,-191.11 1671,-179 1663.25,-164.7 1648.77,-154.22 1635.06,-146.99"/>
<polygon fill="midnightblue" stroke="midnightblue" points="1636.31,-143.71 1625.79,-142.5 1633.26,-150.01 1636.31,-143.71"/>
</g>
<!-- Node30 -->
<g id="node30" class="node">
<title>Node30</title>
<g id="a_node30"><a xlink:title=" ">
<polygon fill="none" stroke="#bfbfbf" points="1422.5,-179.5 1422.5,-209.5 1547.5,-209.5 1547.5,-179.5 1422.5,-179.5"/>
<text text-anchor="start" x="1430.5" y="-197.5" font-family="Helvetica,sans-Serif" font-size="10.00">boost/range/algorithm</text>
<text text-anchor="middle" x="1485" y="-186.5" font-family="Helvetica,sans-Serif" font-size="10.00">/transform.hpp</text>
</a>
</g>
</g>
<!-- Node1&#45;&gt;Node30 -->
<g id="edge63" class="edge">
<title>Node1&#45;&gt;Node30</title>
<path fill="none" stroke="midnightblue" d="M708.02,-374.3C772.57,-368.28 898.1,-354.82 1003,-333 1162.55,-299.8 1346.62,-241.59 1433.94,-212.73"/>
<polygon fill="midnightblue" stroke="midnightblue" points="1435.21,-215.99 1443.6,-209.52 1433.01,-209.35 1435.21,-215.99"/>
</g>
<!-- Node36 -->
<g id="node36" class="node">
<title>Node36</title>
<g id="a_node36"><a xlink:title=" ">
<polygon fill="none" stroke="#bfbfbf" points="1604,-185 1604,-204 1662,-204 1662,-185 1604,-185"/>
<text text-anchor="middle" x="1633" y="-192" font-family="Helvetica,sans-Serif" font-size="10.00">memory</text>
</a>
</g>
</g>
<!-- Node1&#45;&gt;Node36 -->
<g id="edge65" class="edge">
<title>Node1&#45;&gt;Node36</title>
<path fill="none" stroke="midnightblue" d="M708.1,-374.79C780.82,-369 932.37,-355.27 1059,-333 1262.79,-297.16 1502.22,-232.31 1594.27,-206.51"/>
<polygon fill="midnightblue" stroke="midnightblue" points="1595.31,-209.86 1603.99,-203.78 1593.42,-203.12 1595.31,-209.86"/>
</g>
<!-- Node40 -->
<g id="node40" class="node">
<title>Node40</title>
<g id="a_node40"><a xlink:href="demangle_8hpp.html" target="_top" xlink:title=" ">
<polygon fill="none" stroke="black" points="382,-313.5 382,-332.5 492,-332.5 492,-313.5 382,-313.5"/>
<text text-anchor="middle" x="437" y="-320.5" font-family="Helvetica,sans-Serif" font-size="10.00">utils/demangle.hpp</text>
</a>
</g>
</g>
<!-- Node1&#45;&gt;Node40 -->
<g id="edge60" class="edge">
<title>Node1&#45;&gt;Node40</title>
<path fill="none" stroke="midnightblue" d="M628.87,-369.44C589.35,-360.08 525.9,-345.06 482.89,-334.87"/>
<polygon fill="midnightblue" stroke="midnightblue" points="483.5,-331.42 472.96,-332.52 481.88,-338.23 483.5,-331.42"/>
</g>
<!-- Node2&#45;&gt;Node3 -->
<g id="edge2" class="edge">
<title>Node2&#45;&gt;Node3</title>
<path fill="none" stroke="midnightblue" d="M207.51,-313.06C199.48,-297.79 181.39,-266.33 159,-246 134.84,-224.06 111.48,-238.17 95,-210 88.04,-198.11 86.53,-189.87 95,-179 141.94,-118.78 377.39,-87.35 475.25,-76.72"/>
<polygon fill="midnightblue" stroke="midnightblue" points="475.81,-80.18 485.38,-75.64 475.07,-73.22 475.81,-80.18"/>
</g>
<!-- Node2&#45;&gt;Node4 -->
<g id="edge3" class="edge">
<title>Node2&#45;&gt;Node4</title>
<path fill="none" stroke="midnightblue" d="M211.53,-313.28C210.34,-298.33 206.22,-267.35 192,-246 181.77,-230.63 165.27,-218.01 151.33,-209.23"/>
<polygon fill="midnightblue" stroke="midnightblue" points="153.01,-206.15 142.63,-204.02 149.42,-212.16 153.01,-206.15"/>
</g>
<!-- Node2&#45;&gt;Node5 -->
<g id="edge4" class="edge">
<title>Node2&#45;&gt;Node5</title>
<path fill="none" stroke="midnightblue" d="M199.82,-313.48C186.19,-303.93 163.87,-288.31 147.53,-276.87"/>
<polygon fill="midnightblue" stroke="midnightblue" points="149.36,-273.88 139.16,-271.01 145.34,-279.61 149.36,-273.88"/>
</g>
<!-- Node6&#45;&gt;Node4 -->
<g id="edge58" class="edge">
<title>Node6&#45;&gt;Node4</title>
<path fill="none" stroke="midnightblue" d="M900.14,-313.45C823.99,-298.14 657.55,-265.8 516,-246 359.38,-224.1 315.53,-247.92 162,-210 159.33,-209.34 156.6,-208.52 153.89,-207.62"/>
<polygon fill="midnightblue" stroke="midnightblue" points="154.95,-204.27 144.35,-204.05 152.49,-210.83 154.95,-204.27"/>
</g>
<!-- Node6&#45;&gt;Node7 -->
<g id="edge6" class="edge">
<title>Node6&#45;&gt;Node7</title>
<path fill="none" stroke="midnightblue" d="M934.26,-313.48C926,-304.37 912.72,-289.74 902.51,-278.48"/>
<polygon fill="midnightblue" stroke="midnightblue" points="905.03,-276.06 895.72,-271.01 899.85,-280.77 905.03,-276.06"/>
</g>
<!-- Node6&#45;&gt;Node36 -->
<g id="edge57" class="edge">
<title>Node6&#45;&gt;Node36</title>
<path fill="none" stroke="midnightblue" d="M994.1,-322C1119.66,-321.36 1435.76,-315.83 1533,-277 1568.67,-262.76 1601.43,-231.02 1619.17,-211.62"/>
<polygon fill="midnightblue" stroke="midnightblue" points="1621.78,-213.95 1625.81,-204.15 1616.55,-209.29 1621.78,-213.95"/>
</g>
<!-- Node38 -->
<g id="node38" class="node">
<title>Node38</title>
<g id="a_node38"><a xlink:href="Span_8hpp.html" target="_top" xlink:title=" ">
<polygon fill="none" stroke="black" points="1360,-123.5 1360,-142.5 1446,-142.5 1446,-123.5 1360,-123.5"/>
<text text-anchor="middle" x="1403" y="-130.5" font-family="Helvetica,sans-Serif" font-size="10.00">utils/Span.hpp</text>
</a>
</g>
</g>
<!-- Node6&#45;&gt;Node38 -->
<g id="edge49" class="edge">
<title>Node6&#45;&gt;Node38</title>
<path fill="none" stroke="midnightblue" d="M994.04,-320.71C1129.08,-316.15 1485.21,-296.04 1557,-210 1589.16,-171.45 1512.38,-150.73 1456.07,-141.07"/>
<polygon fill="midnightblue" stroke="midnightblue" points="1456.6,-137.61 1446.17,-139.44 1455.47,-144.52 1456.6,-137.61"/>
</g>
<!-- Node39 -->
<g id="node39" class="node">
<title>Node39</title>
<g id="a_node39"><a xlink:title=" ">
<polygon fill="none" stroke="#bfbfbf" points="943,-246.5 943,-276.5 1049,-276.5 1049,-246.5 943,-246.5"/>
<text text-anchor="start" x="951" y="-264.5" font-family="Helvetica,sans-Serif" font-size="10.00">boost/utility/string</text>
<text text-anchor="middle" x="996" y="-253.5" font-family="Helvetica,sans-Serif" font-size="10.00">_ref.hpp</text>
</a>
</g>
</g>
<!-- Node6&#45;&gt;Node39 -->
<g id="edge56" class="edge">
<title>Node6&#45;&gt;Node39</title>
<path fill="none" stroke="midnightblue" d="M949.74,-313.48C956.71,-305.79 967.26,-294.17 976.52,-283.96"/>
<polygon fill="midnightblue" stroke="midnightblue" points="979.14,-286.28 983.27,-276.52 973.96,-281.58 979.14,-286.28"/>
</g>
<!-- Node7&#45;&gt;Node4 -->
<g id="edge45" class="edge">
<title>Node7&#45;&gt;Node4</title>
<path fill="none" stroke="midnightblue" d="M851.35,-257.7C812.16,-254.73 748.2,-249.92 693,-246 457.05,-229.23 392.56,-262.84 162,-210 159.17,-209.35 156.27,-208.51 153.4,-207.56"/>
<polygon fill="midnightblue" stroke="midnightblue" points="154.55,-204.25 143.95,-204.02 152.09,-210.8 154.55,-204.25"/>
</g>
<!-- Node8 -->
<g id="node8" class="node">
<title>Node8</title>
<g id="a_node8"><a xlink:href="None_8hpp.html" target="_top" xlink:title=" ">
<polygon fill="none" stroke="black" points="365.5,-123.5 365.5,-142.5 428.5,-142.5 428.5,-123.5 365.5,-123.5"/>
<text text-anchor="middle" x="397" y="-130.5" font-family="Helvetica,sans-Serif" font-size="10.00">None.hpp</text>
</a>
</g>
</g>
<!-- Node7&#45;&gt;Node8 -->
<g id="edge7" class="edge">
<title>Node7&#45;&gt;Node8</title>
<path fill="none" stroke="midnightblue" d="M912.62,-251.92C919.48,-249.75 926.98,-247.6 934,-246 1047.43,-220.24 1267.24,-263.22 1187,-179 1158.45,-149.04 484.08,-147.99 443,-143 441.54,-142.82 440.05,-142.62 438.55,-142.41"/>
<polygon fill="midnightblue" stroke="midnightblue" points="439.01,-138.94 428.58,-140.8 437.89,-145.85 439.01,-138.94"/>
</g>
<!-- Node7&#45;&gt;Node10 -->
<g id="edge43" class="edge">
<title>Node7&#45;&gt;Node10</title>
<path fill="none" stroke="midnightblue" d="M851.41,-258.51C709.97,-250.71 206.29,-222.15 195,-210 115.23,-124.21 331.44,-48.15 420.58,-21.3"/>
<polygon fill="midnightblue" stroke="midnightblue" points="421.7,-24.62 430.3,-18.42 419.71,-17.91 421.7,-24.62"/>
</g>
<!-- Node11 -->
<g id="node11" class="node">
<title>Node11</title>
<g id="a_node11"><a xlink:href="Vector_8hpp.html" target="_top" xlink:title=" ">
<polygon fill="none" stroke="black" points="1234.5,-185 1234.5,-204 1327.5,-204 1327.5,-185 1234.5,-185"/>
<text text-anchor="middle" x="1281" y="-192" font-family="Helvetica,sans-Serif" font-size="10.00">utils/Vector.hpp</text>
</a>
</g>
</g>
<!-- Node7&#45;&gt;Node11 -->
<g id="edge10" class="edge">
<title>Node7&#45;&gt;Node11</title>
<path fill="none" stroke="midnightblue" d="M912.13,-252C919.12,-249.78 926.8,-247.57 934,-246 1059.16,-218.63 1093.94,-232.85 1220,-210 1225.83,-208.94 1231.94,-207.68 1237.95,-206.35"/>
<polygon fill="midnightblue" stroke="midnightblue" points="1238.93,-209.71 1247.9,-204.06 1237.37,-202.89 1238.93,-209.71"/>
</g>
<!-- Node7&#45;&gt;Node26 -->
<g id="edge46" class="edge">
<title>Node7&#45;&gt;Node26</title>
<path fill="none" stroke="midnightblue" d="M911.62,-251.98C918.73,-249.71 926.61,-247.48 934,-246 1110.34,-210.76 1172.92,-283.59 1337,-210 1355.36,-201.76 1352.35,-188.67 1370,-179 1427.1,-147.72 1462.3,-185.06 1512,-143 1527.59,-129.81 1535.61,-107.26 1539.55,-91.21"/>
<polygon fill="midnightblue" stroke="midnightblue" points="1542.99,-91.85 1541.66,-81.34 1536.14,-90.39 1542.99,-91.85"/>
</g>
<!-- Node7&#45;&gt;Node27 -->
<g id="edge48" class="edge">
<title>Node7&#45;&gt;Node27</title>
<path fill="none" stroke="midnightblue" d="M911.61,-251.95C918.72,-249.68 926.61,-247.45 934,-246 1124.79,-208.54 1187.22,-276.32 1370,-210 1392.49,-201.84 1392.2,-188.85 1414,-179 1415.79,-178.19 1515.23,-154.57 1568.74,-141.88"/>
<polygon fill="midnightblue" stroke="midnightblue" points="1569.55,-145.28 1578.47,-139.57 1567.93,-138.47 1569.55,-145.28"/>
</g>
<!-- Node28 -->
<g id="node28" class="node">
<title>Node28</title>
<g id="a_node28"><a xlink:title=" ">
<polygon fill="none" stroke="#bfbfbf" points="204,-185 204,-204 306,-204 306,-185 204,-185"/>
<text text-anchor="middle" x="255" y="-192" font-family="Helvetica,sans-Serif" font-size="10.00">boost/variant.hpp</text>
</a>
</g>
</g>
<!-- Node7&#45;&gt;Node28 -->
<g id="edge35" class="edge">
<title>Node7&#45;&gt;Node28</title>
<path fill="none" stroke="midnightblue" d="M851.11,-257.56C732.98,-248.09 368.65,-218.53 316,-210 309.79,-208.99 303.28,-207.7 296.92,-206.31"/>
<polygon fill="midnightblue" stroke="midnightblue" points="297.64,-202.88 287.11,-204.06 296.08,-209.71 297.64,-202.88"/>
</g>
<!-- Node29 -->
<g id="node29" class="node">
<title>Node29</title>
<g id="a_node29"><a xlink:title=" ">
<polygon fill="none" stroke="#bfbfbf" points="324.5,-179.5 324.5,-209.5 431.5,-209.5 431.5,-179.5 324.5,-179.5"/>
<text text-anchor="start" x="332.5" y="-197.5" font-family="Helvetica,sans-Serif" font-size="10.00">boost/serialization</text>
<text text-anchor="middle" x="378" y="-186.5" font-family="Helvetica,sans-Serif" font-size="10.00">/version.hpp</text>
</a>
</g>
</g>
<!-- Node7&#45;&gt;Node29 -->
<g id="edge36" class="edge">
<title>Node7&#45;&gt;Node29</title>
<path fill="none" stroke="midnightblue" d="M851.3,-257.78C776.25,-251.9 599.7,-236.51 441.45,-209.94"/>
<polygon fill="midnightblue" stroke="midnightblue" points="441.98,-206.48 431.53,-208.26 440.81,-213.38 441.98,-206.48"/>
</g>
<!-- Node7&#45;&gt;Node30 -->
<g id="edge37" class="edge">
<title>Node7&#45;&gt;Node30</title>
<path fill="none" stroke="midnightblue" d="M911.61,-251.92C918.72,-249.64 926.6,-247.43 934,-246 1141.45,-205.98 1198.54,-237.59 1408,-210 1409.48,-209.81 1410.96,-209.6 1412.46,-209.39"/>
<polygon fill="midnightblue" stroke="midnightblue" points="1413.12,-212.83 1422.48,-207.87 1412.07,-205.91 1413.12,-212.83"/>
</g>
<!-- Node31 -->
<g id="node31" class="node">
<title>Node31</title>
<g id="a_node31"><a xlink:title=" ">
<polygon fill="none" stroke="#bfbfbf" points="449.5,-179.5 449.5,-209.5 556.5,-209.5 556.5,-179.5 449.5,-179.5"/>
<text text-anchor="start" x="457.5" y="-197.5" font-family="Helvetica,sans-Serif" font-size="10.00">boost/serialization</text>
<text text-anchor="middle" x="503" y="-186.5" font-family="Helvetica,sans-Serif" font-size="10.00">/serialization.hpp</text>
</a>
</g>
</g>
<!-- Node7&#45;&gt;Node31 -->
<g id="edge38" class="edge">
<title>Node7&#45;&gt;Node31</title>
<path fill="none" stroke="midnightblue" d="M851.15,-255.58C792.93,-247.63 675.9,-230.88 566.45,-210"/>
<polygon fill="midnightblue" stroke="midnightblue" points="567.04,-206.55 556.56,-208.1 565.72,-213.42 567.04,-206.55"/>
</g>
<!-- Node32 -->
<g id="node32" class="node">
<title>Node32</title>
<g id="a_node32"><a xlink:title=" ">
<polygon fill="none" stroke="#bfbfbf" points="574.5,-179.5 574.5,-209.5 681.5,-209.5 681.5,-179.5 574.5,-179.5"/>
<text text-anchor="start" x="582.5" y="-197.5" font-family="Helvetica,sans-Serif" font-size="10.00">boost/serialization</text>
<text text-anchor="middle" x="628" y="-186.5" font-family="Helvetica,sans-Serif" font-size="10.00">/string.hpp</text>
</a>
</g>
</g>
<!-- Node7&#45;&gt;Node32 -->
<g id="edge39" class="edge">
<title>Node7&#45;&gt;Node32</title>
<path fill="none" stroke="midnightblue" d="M853.74,-251.94C812.63,-241.66 742.86,-224.22 691.74,-211.44"/>
<polygon fill="midnightblue" stroke="midnightblue" points="692.33,-207.98 681.78,-208.95 690.63,-214.77 692.33,-207.98"/>
</g>
<!-- Node33 -->
<g id="node33" class="node">
<title>Node33</title>
<g id="a_node33"><a xlink:title=" ">
<polygon fill="none" stroke="#bfbfbf" points="699.5,-179.5 699.5,-209.5 816.5,-209.5 816.5,-179.5 699.5,-179.5"/>
<text text-anchor="start" x="707.5" y="-197.5" font-family="Helvetica,sans-Serif" font-size="10.00">boost/serialization</text>
<text text-anchor="middle" x="758" y="-186.5" font-family="Helvetica,sans-Serif" font-size="10.00">/unordered_map.hpp</text>
</a>
</g>
</g>
<!-- Node7&#45;&gt;Node33 -->
<g id="edge40" class="edge">
<title>Node7&#45;&gt;Node33</title>
<path fill="none" stroke="midnightblue" d="M870.74,-251.87C851.63,-242.31 820.25,-226.63 795.45,-214.22"/>
<polygon fill="midnightblue" stroke="midnightblue" points="796.81,-210.99 786.3,-209.65 793.68,-217.25 796.81,-210.99"/>
</g>
<!-- Node34 -->
<g id="node34" class="node">
<title>Node34</title>
<g id="a_node34"><a xlink:title=" ">
<polygon fill="none" stroke="#bfbfbf" points="834.5,-179.5 834.5,-209.5 941.5,-209.5 941.5,-179.5 834.5,-179.5"/>
<text text-anchor="start" x="842.5" y="-197.5" font-family="Helvetica,sans-Serif" font-size="10.00">boost/serialization</text>
<text text-anchor="middle" x="888" y="-186.5" font-family="Helvetica,sans-Serif" font-size="10.00">/variant.hpp</text>
</a>
</g>
</g>
<!-- Node7&#45;&gt;Node34 -->
<g id="edge41" class="edge">
<title>Node7&#45;&gt;Node34</title>
<path fill="none" stroke="midnightblue" d="M888,-251.73C888,-243.54 888,-230.92 888,-219.71"/>
<polygon fill="midnightblue" stroke="midnightblue" points="891.5,-219.59 888,-209.59 884.5,-219.59 891.5,-219.59"/>
</g>
<!-- Node35 -->
<g id="node35" class="node">
<title>Node35</title>
<g id="a_node35"><a xlink:title=" ">
<polygon fill="none" stroke="#bfbfbf" points="959.5,-179.5 959.5,-209.5 1066.5,-209.5 1066.5,-179.5 959.5,-179.5"/>
<text text-anchor="start" x="967.5" y="-197.5" font-family="Helvetica,sans-Serif" font-size="10.00">boost/serialization</text>
<text text-anchor="middle" x="1013" y="-186.5" font-family="Helvetica,sans-Serif" font-size="10.00">/vector.hpp</text>
</a>
</g>
</g>
<!-- Node7&#45;&gt;Node35 -->
<g id="edge42" class="edge">
<title>Node7&#45;&gt;Node35</title>
<path fill="none" stroke="midnightblue" d="M904.6,-251.87C922.89,-242.36 952.87,-226.77 976.68,-214.39"/>
<polygon fill="midnightblue" stroke="midnightblue" points="978.53,-217.37 985.79,-209.65 975.3,-211.16 978.53,-217.37"/>
</g>
<!-- Node7&#45;&gt;Node36 -->
<g id="edge44" class="edge">
<title>Node7&#45;&gt;Node36</title>
<path fill="none" stroke="midnightblue" d="M911.12,-251.98C918.35,-249.65 926.42,-247.39 934,-246 1206.79,-195.93 1281.75,-244.06 1557,-210 1569.06,-208.51 1582.09,-206.26 1593.9,-203.97"/>
<polygon fill="midnightblue" stroke="midnightblue" points="1594.79,-207.37 1603.91,-201.98 1593.42,-200.5 1594.79,-207.37"/>
</g>
<!-- Node37 -->
<g id="node37" class="node">
<title>Node37</title>
<g id="a_node37"><a xlink:title=" ">
<polygon fill="none" stroke="#bfbfbf" points="1084.5,-185 1084.5,-204 1177.5,-204 1177.5,-185 1084.5,-185"/>
<text text-anchor="middle" x="1131" y="-192" font-family="Helvetica,sans-Serif" font-size="10.00">unordered_map</text>
</a>
</g>
</g>
<!-- Node7&#45;&gt;Node37 -->
<g id="edge47" class="edge">
<title>Node7&#45;&gt;Node37</title>
<path fill="none" stroke="midnightblue" d="M914.19,-251.96C920.65,-249.93 927.56,-247.83 934,-246 996.63,-228.21 1012.97,-226.3 1076,-210 1080.14,-208.93 1084.45,-207.81 1088.77,-206.68"/>
<polygon fill="midnightblue" stroke="midnightblue" points="1089.95,-209.99 1098.73,-204.06 1088.17,-203.22 1089.95,-209.99"/>
</g>
<!-- Node9 -->
<g id="node9" class="node">
<title>Node9</title>
<g id="a_node9"><a xlink:title=" ">
<polygon fill="none" stroke="#bfbfbf" points="568.5,-56.5 568.5,-86.5 675.5,-86.5 675.5,-56.5 568.5,-56.5"/>
<text text-anchor="start" x="576.5" y="-74.5" font-family="Helvetica,sans-Serif" font-size="10.00">boost/serialization</text>
<text text-anchor="middle" x="622" y="-63.5" font-family="Helvetica,sans-Serif" font-size="10.00">/access.hpp</text>
</a>
</g>
</g>
<!-- Node8&#45;&gt;Node9 -->
<g id="edge8" class="edge">
<title>Node8&#45;&gt;Node9</title>
<path fill="none" stroke="midnightblue" d="M428.76,-123.6C462.47,-114.69 516.64,-100.36 559.05,-89.15"/>
<polygon fill="midnightblue" stroke="midnightblue" points="559.96,-92.53 568.74,-86.59 558.17,-85.76 559.96,-92.53"/>
</g>
<!-- Node8&#45;&gt;Node10 -->
<g id="edge9" class="edge">
<title>Node8&#45;&gt;Node10</title>
<path fill="none" stroke="midnightblue" d="M401.32,-123.3C411.09,-103.59 435.08,-55.21 448.15,-28.84"/>
<polygon fill="midnightblue" stroke="midnightblue" points="451.42,-30.14 452.72,-19.62 445.15,-27.03 451.42,-30.14"/>
</g>
<!-- Node11&#45;&gt;Node10 -->
<g id="edge28" class="edge">
<title>Node11&#45;&gt;Node10</title>
<path fill="none" stroke="midnightblue" d="M1244.18,-184.98C1232.94,-182.68 1220.51,-180.43 1209,-179 1128.19,-168.93 537.42,-197.59 477,-143 445.42,-114.47 448.85,-58.95 453.32,-29.84"/>
<polygon fill="midnightblue" stroke="midnightblue" points="456.81,-30.22 455.07,-19.77 449.91,-29.02 456.81,-30.22"/>
</g>
<!-- Node12 -->
<g id="node12" class="node">
<title>Node12</title>
<g id="a_node12"><a xlink:title=" ">
<polygon fill="none" stroke="#bfbfbf" points="886,-123.5 886,-142.5 1036,-142.5 1036,-123.5 886,-123.5"/>
<text text-anchor="middle" x="961" y="-130.5" font-family="Helvetica,sans-Serif" font-size="10.00">boost/qvm/deduce_vec.hpp</text>
</a>
</g>
</g>
<!-- Node11&#45;&gt;Node12 -->
<g id="edge11" class="edge">
<title>Node11&#45;&gt;Node12</title>
<path fill="none" stroke="midnightblue" d="M1246.56,-184.92C1237.91,-182.88 1228.64,-180.78 1220,-179 1154.2,-165.48 1078.45,-152.63 1025.94,-144.15"/>
<polygon fill="midnightblue" stroke="midnightblue" points="1026.18,-140.64 1015.75,-142.51 1025.07,-147.56 1026.18,-140.64"/>
</g>
<!-- Node13 -->
<g id="node13" class="node">
<title>Node13</title>
<g id="a_node13"><a xlink:title=" ">
<polygon fill="none" stroke="#bfbfbf" points="1054,-123.5 1054,-142.5 1194,-142.5 1194,-123.5 1054,-123.5"/>
<text text-anchor="middle" x="1124" y="-130.5" font-family="Helvetica,sans-Serif" font-size="10.00">boost/qvm/vec_traits.hpp</text>
</a>
</g>
</g>
<!-- Node11&#45;&gt;Node13 -->
<g id="edge12" class="edge">
<title>Node11&#45;&gt;Node13</title>
<path fill="none" stroke="midnightblue" d="M1258.51,-184.98C1231.69,-174.81 1186.68,-157.76 1156.19,-146.2"/>
<polygon fill="midnightblue" stroke="midnightblue" points="1157.04,-142.78 1146.45,-142.51 1154.56,-149.33 1157.04,-142.78"/>
</g>
<!-- Node14 -->
<g id="node14" class="node">
<title>Node14</title>
<g id="a_node14"><a xlink:href="Array_8hpp.html" target="_top" xlink:title=" ">
<polygon fill="none" stroke="black" points="744,-123.5 744,-142.5 830,-142.5 830,-123.5 744,-123.5"/>
<text text-anchor="middle" x="787" y="-130.5" font-family="Helvetica,sans-Serif" font-size="10.00">utils/Array.hpp</text>
</a>
</g>
</g>
<!-- Node11&#45;&gt;Node14 -->
<g id="edge13" class="edge">
<title>Node11&#45;&gt;Node14</title>
<path fill="none" stroke="midnightblue" d="M1248.88,-184.99C1239.61,-182.77 1229.45,-180.57 1220,-179 1054.39,-151.52 1010.54,-164.1 844,-143 842.74,-142.84 841.47,-142.68 840.19,-142.5"/>
<polygon fill="midnightblue" stroke="midnightblue" points="840.61,-139.03 830.22,-141.11 839.64,-145.96 840.61,-139.03"/>
</g>
<!-- Node16 -->
<g id="node16" class="node">
<title>Node16</title>
<g id="a_node16"><a xlink:title=" ">
<polygon fill="none" stroke="#bfbfbf" points="1243,-0.5 1243,-19.5 1295,-19.5 1295,-0.5 1243,-0.5"/>
<text text-anchor="middle" x="1269" y="-7.5" font-family="Helvetica,sans-Serif" font-size="10.00">cassert</text>
</a>
</g>
</g>
<!-- Node11&#45;&gt;Node16 -->
<g id="edge26" class="edge">
<title>Node11&#45;&gt;Node16</title>
<path fill="none" stroke="midnightblue" d="M1314.32,-184.93C1363.62,-172.09 1450.68,-148.75 1455,-143 1460.34,-135.89 1459.01,-130.93 1455,-123 1425.43,-64.52 1350.24,-33.81 1305.03,-20.13"/>
<polygon fill="midnightblue" stroke="midnightblue" points="1305.9,-16.74 1295.32,-17.31 1303.95,-23.46 1305.9,-16.74"/>
</g>
<!-- Node19 -->
<g id="node19" class="node">
<title>Node19</title>
<g id="a_node19"><a xlink:title=" ">
<polygon fill="none" stroke="#bfbfbf" points="1225.5,-62 1225.5,-81 1278.5,-81 1278.5,-62 1225.5,-62"/>
<text text-anchor="middle" x="1252" y="-69" font-family="Helvetica,sans-Serif" font-size="10.00">iterator</text>
</a>
</g>
</g>
<!-- Node11&#45;&gt;Node19 -->
<g id="edge31" class="edge">
<title>Node11&#45;&gt;Node19</title>
<path fill="none" stroke="midnightblue" d="M1248.55,-184.97C1239.37,-182.78 1229.34,-180.59 1220,-179 1144.45,-166.11 928.29,-199.95 877,-143 871.05,-136.39 871.06,-129.61 877,-123 927.66,-66.67 1142.49,-105.33 1216,-87 1218.67,-86.34 1221.4,-85.51 1224.1,-84.6"/>
<polygon fill="midnightblue" stroke="midnightblue" points="1225.5,-87.82 1233.64,-81.03 1223.05,-81.26 1225.5,-87.82"/>
</g>
<!-- Node21 -->
<g id="node21" class="node">
<title>Node21</title>
<g id="a_node21"><a xlink:title=" ">
<polygon fill="none" stroke="#bfbfbf" points="1212,-123.5 1212,-142.5 1276,-142.5 1276,-123.5 1212,-123.5"/>
<text text-anchor="middle" x="1244" y="-130.5" font-family="Helvetica,sans-Serif" font-size="10.00">algorithm</text>
</a>
</g>
</g>
<!-- Node11&#45;&gt;Node21 -->
<g id="edge25" class="edge">
<title>Node11&#45;&gt;Node21</title>
<path fill="none" stroke="midnightblue" d="M1275.7,-184.98C1270.26,-176.23 1261.64,-162.37 1254.76,-151.31"/>
<polygon fill="midnightblue" stroke="midnightblue" points="1257.54,-149.15 1249.29,-142.51 1251.6,-152.85 1257.54,-149.15"/>
</g>
<!-- Node22 -->
<g id="node22" class="node">
<title>Node22</title>
<g id="a_node22"><a xlink:title=" ">
<polygon fill="none" stroke="#bfbfbf" points="1294.5,-123.5 1294.5,-142.5 1341.5,-142.5 1341.5,-123.5 1294.5,-123.5"/>
<text text-anchor="middle" x="1318" y="-130.5" font-family="Helvetica,sans-Serif" font-size="10.00">cmath</text>
</a>
</g>
</g>
<!-- Node11&#45;&gt;Node22 -->
<g id="edge27" class="edge">
<title>Node11&#45;&gt;Node22</title>
<path fill="none" stroke="midnightblue" d="M1286.3,-184.98C1291.74,-176.23 1300.36,-162.37 1307.24,-151.31"/>
<polygon fill="midnightblue" stroke="midnightblue" points="1310.4,-152.85 1312.71,-142.51 1304.46,-149.15 1310.4,-152.85"/>
</g>
<!-- Node23 -->
<g id="node23" class="node">
<title>Node23</title>
<g id="a_node23"><a xlink:title=" ">
<polygon fill="none" stroke="#bfbfbf" points="485.5,-123.5 485.5,-142.5 550.5,-142.5 550.5,-123.5 485.5,-123.5"/>
<text text-anchor="middle" x="518" y="-130.5" font-family="Helvetica,sans-Serif" font-size="10.00">functional</text>
</a>
</g>
</g>
<!-- Node11&#45;&gt;Node23 -->
<g id="edge29" class="edge">
<title>Node11&#45;&gt;Node23</title>
<path fill="none" stroke="midnightblue" d="M1249.86,-184.96C1240.34,-182.66 1229.8,-180.42 1220,-179 932.53,-137.34 852.96,-180.9 560.96,-142.89"/>
<polygon fill="midnightblue" stroke="midnightblue" points="561.3,-139.41 550.93,-141.57 560.38,-146.35 561.3,-139.41"/>
</g>
<!-- Node24 -->
<g id="node24" class="node">
<title>Node24</title>
<g id="a_node24"><a xlink:title=" ">
<polygon fill="none" stroke="#bfbfbf" points="568.5,-123.5 568.5,-142.5 651.5,-142.5 651.5,-123.5 568.5,-123.5"/>
<text text-anchor="middle" x="610" y="-130.5" font-family="Helvetica,sans-Serif" font-size="10.00">initializer_list</text>
</a>
</g>
</g>
<!-- Node11&#45;&gt;Node24 -->
<g id="edge30" class="edge">
<title>Node11&#45;&gt;Node24</title>
<path fill="none" stroke="midnightblue" d="M1249.54,-184.95C1240.1,-182.68 1229.69,-180.45 1220,-179 977.04,-142.57 909.95,-171.88 661.74,-142.94"/>
<polygon fill="midnightblue" stroke="midnightblue" points="662.04,-139.45 651.69,-141.74 661.21,-146.4 662.04,-139.45"/>
</g>
<!-- Node25 -->
<g id="node25" class="node">
<title>Node25</title>
<g id="a_node25"><a xlink:title=" ">
<polygon fill="none" stroke="#bfbfbf" points="670,-123.5 670,-142.5 726,-142.5 726,-123.5 670,-123.5"/>
<text text-anchor="middle" x="698" y="-130.5" font-family="Helvetica,sans-Serif" font-size="10.00">numeric</text>
</a>
</g>
</g>
<!-- Node11&#45;&gt;Node25 -->
<g id="edge32" class="edge">
<title>Node11&#45;&gt;Node25</title>
<path fill="none" stroke="midnightblue" d="M1249.21,-184.93C1239.86,-182.69 1229.57,-180.48 1220,-179 1009.63,-146.4 950.3,-175.74 736.17,-142.92"/>
<polygon fill="midnightblue" stroke="midnightblue" points="736.61,-139.45 726.19,-141.36 735.53,-146.36 736.61,-139.45"/>
</g>
<!-- Node11&#45;&gt;Node26 -->
<g id="edge33" class="edge">
<title>Node11&#45;&gt;Node26</title>
<path fill="none" stroke="midnightblue" d="M1316.67,-184.95C1375.39,-170.86 1486.17,-144.18 1488,-143 1508.3,-129.88 1524.25,-106.64 1533.63,-90.45"/>
<polygon fill="midnightblue" stroke="midnightblue" points="1536.84,-91.87 1538.61,-81.43 1530.71,-88.49 1536.84,-91.87"/>
</g>
<!-- Node11&#45;&gt;Node27 -->
<g id="edge34" class="edge">
<title>Node11&#45;&gt;Node27</title>
<path fill="none" stroke="midnightblue" d="M1326.99,-184.98C1392.27,-172.87 1510.29,-151 1568.15,-140.27"/>
<polygon fill="midnightblue" stroke="midnightblue" points="1569.04,-143.67 1578.23,-138.41 1567.76,-136.79 1569.04,-143.67"/>
</g>
<!-- Node14&#45;&gt;Node3 -->
<g id="edge24" class="edge">
<title>Node14&#45;&gt;Node3</title>
<path fill="none" stroke="midnightblue" d="M743.87,-124.18C688.09,-113.94 594.03,-96.2 560,-87 556.97,-86.18 553.84,-85.26 550.72,-84.28"/>
<polygon fill="midnightblue" stroke="midnightblue" points="551.52,-80.86 540.93,-81.05 549.33,-87.51 551.52,-80.86"/>
</g>
<!-- Node14&#45;&gt;Node9 -->
<g id="edge19" class="edge">
<title>Node14&#45;&gt;Node9</title>
<path fill="none" stroke="midnightblue" d="M763.36,-123.48C739.24,-114.78 701.11,-101.03 670.52,-90"/>
<polygon fill="midnightblue" stroke="midnightblue" points="671.48,-86.62 660.89,-86.52 669.11,-93.21 671.48,-86.62"/>
</g>
<!-- Node14&#45;&gt;Node10 -->
<g id="edge21" class="edge">
<title>Node14&#45;&gt;Node10</title>
<path fill="none" stroke="midnightblue" d="M774.31,-123.22C761.49,-114.29 741.17,-99.95 724,-87 706.32,-73.67 705.1,-65.3 685,-56 621.81,-26.77 540.21,-16.5 493.74,-12.91"/>
<polygon fill="midnightblue" stroke="midnightblue" points="493.76,-9.4 483.54,-12.19 493.27,-16.39 493.76,-9.4"/>
</g>
<!-- Node15 -->
<g id="node15" class="node">
<title>Node15</title>
<g id="a_node15"><a xlink:href="device__qualifier_8hpp.html" target="_top" xlink:title=" ">
<polygon fill="none" stroke="black" points="1091,-62 1091,-81 1207,-81 1207,-62 1091,-62"/>
<text text-anchor="middle" x="1149" y="-69" font-family="Helvetica,sans-Serif" font-size="10.00">device_qualifier.hpp</text>
</a>
</g>
</g>
<!-- Node14&#45;&gt;Node15 -->
<g id="edge14" class="edge">
<title>Node14&#45;&gt;Node15</title>
<path fill="none" stroke="midnightblue" d="M830.31,-124.88C894.2,-114.38 1014.06,-94.68 1087.18,-82.66"/>
<polygon fill="midnightblue" stroke="midnightblue" points="1087.88,-86.09 1097.18,-81.02 1086.75,-79.19 1087.88,-86.09"/>
</g>
<!-- Node14&#45;&gt;Node16 -->
<g id="edge20" class="edge">
<title>Node14&#45;&gt;Node16</title>
<path fill="none" stroke="midnightblue" d="M819.7,-123.39C874.07,-109.12 986.55,-79.78 1082,-56 1134.42,-42.94 1195.27,-28.41 1232.96,-19.49"/>
<polygon fill="midnightblue" stroke="midnightblue" points="1234.03,-22.84 1242.95,-17.13 1232.41,-16.02 1234.03,-22.84"/>
</g>
<!-- Node17 -->
<g id="node17" class="node">
<title>Node17</title>
<g id="a_node17"><a xlink:href="get_8hpp.html" target="_top" xlink:title=" ">
<polygon fill="none" stroke="black" points="732.5,-62 732.5,-81 785.5,-81 785.5,-62 732.5,-62"/>
<text text-anchor="middle" x="759" y="-69" font-family="Helvetica,sans-Serif" font-size="10.00">get.hpp</text>
</a>
</g>
</g>
<!-- Node14&#45;&gt;Node17 -->
<g id="edge16" class="edge">
<title>Node14&#45;&gt;Node17</title>
<path fill="none" stroke="midnightblue" d="M782.99,-123.48C778.91,-114.82 772.48,-101.15 767.3,-90.15"/>
<polygon fill="midnightblue" stroke="midnightblue" points="770.43,-88.57 763,-81.01 764.1,-91.55 770.43,-88.57"/>
</g>
<!-- Node14&#45;&gt;Node19 -->
<g id="edge22" class="edge">
<title>Node14&#45;&gt;Node19</title>
<path fill="none" stroke="midnightblue" d="M830.22,-124.9C834.87,-124.22 839.53,-123.57 844,-123 1008.78,-102.04 1054.64,-126.43 1216,-87 1218.67,-86.35 1221.4,-85.54 1224.11,-84.63"/>
<polygon fill="midnightblue" stroke="midnightblue" points="1225.51,-87.84 1233.65,-81.07 1223.06,-81.29 1225.51,-87.84"/>
</g>
<!-- Node20 -->
<g id="node20" class="node">
<title>Node20</title>
<g id="a_node20"><a xlink:title=" ">
<polygon fill="none" stroke="#bfbfbf" points="803.5,-62 803.5,-81 860.5,-81 860.5,-62 803.5,-62"/>
<text text-anchor="middle" x="832" y="-69" font-family="Helvetica,sans-Serif" font-size="10.00">ostream</text>
</a>
</g>
</g>
<!-- Node14&#45;&gt;Node20 -->
<g id="edge23" class="edge">
<title>Node14&#45;&gt;Node20</title>
<path fill="none" stroke="midnightblue" d="M793.45,-123.48C800.2,-114.55 810.97,-100.31 819.41,-89.14"/>
<polygon fill="midnightblue" stroke="midnightblue" points="822.32,-91.1 825.56,-81.01 816.74,-86.87 822.32,-91.1"/>
</g>
<!-- Node15&#45;&gt;Node16 -->
<g id="edge15" class="edge">
<title>Node15&#45;&gt;Node16</title>
<path fill="none" stroke="midnightblue" d="M1166.19,-61.98C1186.24,-52.03 1219.6,-35.49 1242.86,-23.96"/>
<polygon fill="midnightblue" stroke="midnightblue" points="1244.43,-27.09 1251.84,-19.51 1241.32,-20.82 1244.43,-27.09"/>
</g>
<!-- Node17&#45;&gt;Node10 -->
<g id="edge17" class="edge">
<title>Node17&#45;&gt;Node10</title>
<path fill="none" stroke="midnightblue" d="M737.08,-61.98C730.97,-59.81 724.28,-57.64 718,-56 639.29,-35.45 544.72,-21.81 493.8,-15.35"/>
<polygon fill="midnightblue" stroke="midnightblue" points="493.97,-11.84 483.62,-14.08 493.11,-18.79 493.97,-11.84"/>
</g>
<!-- Node18 -->
<g id="node18" class="node">
<title>Node18</title>
<g id="a_node18"><a xlink:title=" ">
<polygon fill="none" stroke="#bfbfbf" points="738.5,-0.5 738.5,-19.5 779.5,-19.5 779.5,-0.5 738.5,-0.5"/>
<text text-anchor="middle" x="759" y="-7.5" font-family="Helvetica,sans-Serif" font-size="10.00">tuple</text>
</a>
</g>
</g>
<!-- Node17&#45;&gt;Node18 -->
<g id="edge18" class="edge">
<title>Node17&#45;&gt;Node18</title>
<path fill="none" stroke="midnightblue" d="M759,-61.98C759,-53.58 759,-40.48 759,-29.66"/>
<polygon fill="midnightblue" stroke="midnightblue" points="762.5,-29.51 759,-19.51 755.5,-29.51 762.5,-29.51"/>
</g>
<!-- Node38&#45;&gt;Node3 -->
<g id="edge54" class="edge">
<title>Node38&#45;&gt;Node3</title>
<path fill="none" stroke="midnightblue" d="M1359.93,-124.12C1356.91,-123.7 1353.91,-123.32 1351,-123 1001.15,-84.92 905.66,-153.1 560,-87 556.3,-86.29 552.48,-85.33 548.72,-84.23"/>
<polygon fill="midnightblue" stroke="midnightblue" points="549.64,-80.84 539.04,-81.09 547.48,-87.5 549.64,-80.84"/>
</g>
<!-- Node38&#45;&gt;Node10 -->
<g id="edge52" class="edge">
<title>Node38&#45;&gt;Node10</title>
<path fill="none" stroke="midnightblue" d="M1390.19,-123.41C1360.81,-103.72 1290.87,-56.95 1288,-56 1249.82,-43.39 649.55,-18.68 493.72,-12.45"/>
<polygon fill="midnightblue" stroke="midnightblue" points="493.83,-8.95 483.7,-12.05 493.55,-15.95 493.83,-8.95"/>
</g>
<!-- Node38&#45;&gt;Node15 -->
<g id="edge50" class="edge">
<title>Node38&#45;&gt;Node15</title>
<path fill="none" stroke="midnightblue" d="M1366.61,-123.48C1321.43,-112.89 1244.35,-94.84 1195.09,-83.3"/>
<polygon fill="midnightblue" stroke="midnightblue" points="1195.86,-79.88 1185.32,-81.01 1194.26,-86.7 1195.86,-79.88"/>
</g>
<!-- Node38&#45;&gt;Node16 -->
<g id="edge51" class="edge">
<title>Node38&#45;&gt;Node16</title>
<path fill="none" stroke="midnightblue" d="M1396.59,-123.38C1385.34,-108.57 1360.86,-77.8 1336,-56 1322.65,-44.29 1306.09,-33.15 1292.78,-24.88"/>
<polygon fill="midnightblue" stroke="midnightblue" points="1294.52,-21.84 1284.16,-19.64 1290.89,-27.82 1294.52,-21.84"/>
</g>
<!-- Node38&#45;&gt;Node19 -->
<g id="edge53" class="edge">
<title>Node38&#45;&gt;Node19</title>
<path fill="none" stroke="midnightblue" d="M1381.37,-123.48C1355.58,-113.31 1312.29,-96.26 1282.96,-84.7"/>
<polygon fill="midnightblue" stroke="midnightblue" points="1284.18,-81.42 1273.59,-81.01 1281.62,-87.93 1284.18,-81.42"/>
</g>
<!-- Node38&#45;&gt;Node26 -->
<g id="edge55" class="edge">
<title>Node38&#45;&gt;Node26</title>
<path fill="none" stroke="midnightblue" d="M1423.06,-123.48C1446.76,-113.4 1486.41,-96.55 1513.58,-85"/>
<polygon fill="midnightblue" stroke="midnightblue" points="1515.14,-88.14 1522.98,-81.01 1512.41,-81.7 1515.14,-88.14"/>
</g>
<!-- Node40&#45;&gt;Node4 -->
<g id="edge62" class="edge">
<title>Node40&#45;&gt;Node4</title>
<path fill="none" stroke="midnightblue" d="M415.62,-313.31C361.56,-291.32 219.25,-233.43 156.48,-207.9"/>
<polygon fill="midnightblue" stroke="midnightblue" points="157.7,-204.61 147.11,-204.09 155.06,-211.1 157.7,-204.61"/>
</g>
<!-- Node41 -->
<g id="node41" class="node">
<title>Node41</title>
<g id="a_node41"><a xlink:title=" ">
<polygon fill="none" stroke="#bfbfbf" points="367,-252 367,-271 507,-271 507,-252 367,-252"/>
<text text-anchor="middle" x="437" y="-259" font-family="Helvetica,sans-Serif" font-size="10.00">boost/core/demangle.hpp</text>
</a>
</g>
</g>
<!-- Node40&#45;&gt;Node41 -->
<g id="edge61" class="edge">
<title>Node40&#45;&gt;Node41</title>
<path fill="none" stroke="midnightblue" d="M437,-313.48C437,-305.08 437,-291.98 437,-281.16"/>
<polygon fill="midnightblue" stroke="midnightblue" points="440.5,-281.01 437,-271.01 433.5,-281.01 440.5,-281.01"/>
</g>
</g>
</svg>
        <g id="navigator" transform="translate(0 0)" fill="#404254">
                <rect fill="#f2f5e9" fill-opacity="0.5" stroke="#606060" stroke-width=".5" x="0" y="0" width="60" height="60"/>
                <use id="zoomplus" xlink:href="#zoomPlus" x="17" y="9" onmousedown="handleZoom(evt,'in')"/>
                <use id="zoomminus" xlink:href="#zoomMin" x="42" y="9" onmousedown="handleZoom(evt,'out')"/>
                <use id="reset" xlink:href="#resetDef" x="30" y="36" onmousedown="handleReset()"/>
                <g id="arrowUp" xlink:href="#dirArrow" transform="translate(30 24)" onmousedown="handlePan(0,-1)">
                  <use xlink:href="#rim" fill="#404040">
                        <set attributeName="fill" to="#808080" begin="arrowUp.mouseover" end="arrowUp.mouseout"/>
                  </use>
                  <path fill="none" stroke="white" stroke-width="1.5" d="M0,-3.0v7 M-2.5,-0.5L0,-3.0L2.5,-0.5"/>
                </g>
                <g id="arrowRight" xlink:href="#dirArrow" transform="rotate(90) translate(36 -43)" onmousedown="handlePan(1,0)">
                  <use xlink:href="#rim" fill="#404040">
                        <set attributeName="fill" to="#808080" begin="arrowRight.mouseover" end="arrowRight.mouseout"/>
                  </use>
                  <path fill="none" stroke="white" stroke-width="1.5" d="M0,-3.0v7 M-2.5,-0.5L0,-3.0L2.5,-0.5"/>
                </g>
                <g id="arrowDown" xlink:href="#dirArrow" transform="rotate(180) translate(-30 -48)" onmousedown="handlePan(0,1)">
                  <use xlink:href="#rim" fill="#404040">
                        <set attributeName="fill" to="#808080" begin="arrowDown.mouseover" end="arrowDown.mouseout"/>
                  </use>
                  <path fill="none" stroke="white" stroke-width="1.5" d="M0,-3.0v7 M-2.5,-0.5L0,-3.0L2.5,-0.5"/>
                </g>
                <g id="arrowLeft" xlink:href="#dirArrow" transform="rotate(270) translate(-36 17)" onmousedown="handlePan(-1,0)">
                  <use xlink:href="#rim" fill="#404040">
                        <set attributeName="fill" to="#808080" begin="arrowLeft.mouseover" end="arrowLeft.mouseout"/>
                  </use>
                  <path fill="none" stroke="white" stroke-width="1.5" d="M0,-3.0v7 M-2.5,-0.5L0,-3.0L2.5,-0.5"/>
                </g>
        </g>
        <svg viewBox="0 0 15 15" width="100%" height="30px" preserveAspectRatio="xMaxYMin meet">
         <g id="arrow_out" transform="scale(0.3 0.3)">
          <a xlink:href="get__value_8hpp__incl_org.svg" target="_base">
           <rect id="button" ry="5" rx="5" y="6" x="6" height="38" width="38"
                fill="#f2f5e9" fill-opacity="0.5" stroke="#606060" stroke-width="1.0"/>
           <path id="arrow"
             d="M 11.500037,31.436501 C 11.940474,20.09759 22.043105,11.32322 32.158766,21.979434 L 37.068811,17.246167 C 37.068811,17.246167 37.088388,32 37.088388,32 L 22.160133,31.978069 C 22.160133,31.978069 26.997745,27.140456 26.997745,27.140456 C 18.528582,18.264221 13.291696,25.230495 11.500037,31.436501 z"
             style="fill:#404040;"/>
          </a>
         </g>
        </svg>
</svg>
