<?xml version="1.0" encoding="UTF-8" standalone="no"?>
<!DOCTYPE svg PUBLIC "-//W3C//DTD SVG 1.1//EN"
 "http://www.w3.org/Graphics/SVG/1.1/DTD/svg11.dtd">
<!-- Generated by graphviz version 2.43.0 (0)
 -->
<!-- Title: grid.hpp Pages: 1 -->
<svg width="1403pt" height="330pt"
 viewBox="0.00 0.00 1403.00 330.00" xmlns="http://www.w3.org/2000/svg" xmlns:xlink="http://www.w3.org/1999/xlink">
<g id="graph0" class="graph" transform="scale(1 1) rotate(0) translate(4 326)">
<title>grid.hpp</title>
<!-- Node1 -->
<g id="node1" class="node">
<title>Node1</title>
<g id="a_node1"><a xlink:title=" ">
<polygon fill="#bfbfbf" stroke="black" points="1003.5,-302.5 1003.5,-321.5 1059.5,-321.5 1059.5,-302.5 1003.5,-302.5"/>
<text text-anchor="middle" x="1031.5" y="-309.5" font-family="Helvetica,sans-Serif" font-size="10.00">grid.hpp</text>
</a>
</g>
</g>
<!-- Node2 -->
<g id="node2" class="node">
<title>Node2</title>
<g id="a_node2"><a xlink:href="BoxGeometry_8hpp.html" target="_top" xlink:title=" ">
<polygon fill="none" stroke="black" points="1067.5,-246.5 1067.5,-265.5 1171.5,-265.5 1171.5,-246.5 1067.5,-246.5"/>
<text text-anchor="middle" x="1119.5" y="-253.5" font-family="Helvetica,sans-Serif" font-size="10.00">BoxGeometry.hpp</text>
</a>
</g>
</g>
<!-- Node1&#45;&gt;Node2 -->
<g id="edge1" class="edge">
<title>Node1&#45;&gt;Node2</title>
<path fill="none" stroke="midnightblue" d="M1045.64,-302.32C1059.37,-293.9 1080.44,-280.97 1096.56,-271.07"/>
<polygon fill="midnightblue" stroke="midnightblue" points="1098.7,-273.87 1105.4,-265.65 1095.04,-267.9 1098.7,-273.87"/>
</g>
<!-- Node7 -->
<g id="node7" class="node">
<title>Node7</title>
<g id="a_node7"><a xlink:href="Vector_8hpp.html" target="_top" xlink:title=" ">
<polygon fill="none" stroke="black" points="730,-185 730,-204 823,-204 823,-185 730,-185"/>
<text text-anchor="middle" x="776.5" y="-192" font-family="Helvetica,sans-Serif" font-size="10.00">utils/Vector.hpp</text>
</a>
</g>
</g>
<!-- Node1&#45;&gt;Node7 -->
<g id="edge38" class="edge">
<title>Node1&#45;&gt;Node7</title>
<path fill="none" stroke="midnightblue" d="M1010.89,-302.41C989.65,-293.51 955.63,-279.08 926.5,-266 883.34,-246.62 833.75,-223.05 803.79,-208.67"/>
<polygon fill="midnightblue" stroke="midnightblue" points="804.95,-205.34 794.42,-204.17 801.91,-211.65 804.95,-205.34"/>
</g>
<!-- Node27 -->
<g id="node27" class="node">
<title>Node27</title>
<g id="a_node27"><a xlink:href="LocalBox_8hpp.html" target="_top" xlink:title=" ">
<polygon fill="none" stroke="black" points="935.5,-246.5 935.5,-265.5 1017.5,-265.5 1017.5,-246.5 935.5,-246.5"/>
<text text-anchor="middle" x="976.5" y="-253.5" font-family="Helvetica,sans-Serif" font-size="10.00">LocalBox.hpp</text>
</a>
</g>
</g>
<!-- Node1&#45;&gt;Node27 -->
<g id="edge36" class="edge">
<title>Node1&#45;&gt;Node27</title>
<path fill="none" stroke="midnightblue" d="M1022.42,-302.08C1014.33,-294.14 1002.3,-282.34 992.59,-272.8"/>
<polygon fill="midnightblue" stroke="midnightblue" points="995,-270.26 985.41,-265.75 990.1,-275.25 995,-270.26"/>
</g>
<!-- Node28 -->
<g id="node28" class="node">
<title>Node28</title>
<g id="a_node28"><a xlink:title=" ">
<polygon fill="none" stroke="#bfbfbf" points="1189.5,-246.5 1189.5,-265.5 1349.5,-265.5 1349.5,-246.5 1189.5,-246.5"/>
<text text-anchor="middle" x="1269.5" y="-253.5" font-family="Helvetica,sans-Serif" font-size="10.00">boost/mpi/communicator.hpp</text>
</a>
</g>
</g>
<!-- Node1&#45;&gt;Node28 -->
<g id="edge39" class="edge">
<title>Node1&#45;&gt;Node28</title>
<path fill="none" stroke="midnightblue" d="M1059.74,-304.59C1099.74,-295.52 1173.44,-278.8 1221.96,-267.79"/>
<polygon fill="midnightblue" stroke="midnightblue" points="1222.93,-271.15 1231.91,-265.53 1221.38,-264.33 1222.93,-271.15"/>
</g>
<!-- Node3 -->
<g id="node3" class="node">
<title>Node3</title>
<g id="a_node3"><a xlink:href="periodic__fold_8hpp.html" target="_top" xlink:title=" ">
<polygon fill="none" stroke="black" points="1247.5,-179.5 1247.5,-209.5 1353.5,-209.5 1353.5,-179.5 1247.5,-179.5"/>
<text text-anchor="start" x="1255.5" y="-197.5" font-family="Helvetica,sans-Serif" font-size="10.00">algorithm/periodic</text>
<text text-anchor="middle" x="1300.5" y="-186.5" font-family="Helvetica,sans-Serif" font-size="10.00">_fold.hpp</text>
</a>
</g>
</g>
<!-- Node2&#45;&gt;Node3 -->
<g id="edge2" class="edge">
<title>Node2&#45;&gt;Node3</title>
<path fill="none" stroke="midnightblue" d="M1145.43,-246.48C1172.12,-237.7 1214.45,-223.79 1248.14,-212.71"/>
<polygon fill="midnightblue" stroke="midnightblue" points="1249.44,-215.97 1257.84,-209.52 1247.25,-209.32 1249.44,-215.97"/>
</g>
<!-- Node4 -->
<g id="node4" class="node">
<title>Node4</title>
<g id="a_node4"><a xlink:title=" ">
<polygon fill="none" stroke="#bfbfbf" points="1110,-123.5 1110,-142.5 1157,-142.5 1157,-123.5 1110,-123.5"/>
<text text-anchor="middle" x="1133.5" y="-130.5" font-family="Helvetica,sans-Serif" font-size="10.00">cmath</text>
</a>
</g>
</g>
<!-- Node2&#45;&gt;Node4 -->
<g id="edge33" class="edge">
<title>Node2&#45;&gt;Node4</title>
<path fill="none" stroke="midnightblue" d="M1120.51,-246.3C1122.76,-226.85 1128.24,-179.49 1131.31,-152.9"/>
<polygon fill="midnightblue" stroke="midnightblue" points="1134.83,-152.96 1132.5,-142.62 1127.88,-152.15 1134.83,-152.96"/>
</g>
<!-- Node5 -->
<g id="node5" class="node">
<title>Node5</title>
<g id="a_node5"><a xlink:title=" ">
<polygon fill="none" stroke="#bfbfbf" points="1238.5,-123.5 1238.5,-142.5 1282.5,-142.5 1282.5,-123.5 1238.5,-123.5"/>
<text text-anchor="middle" x="1260.5" y="-130.5" font-family="Helvetica,sans-Serif" font-size="10.00">limits</text>
</a>
</g>
</g>
<!-- Node2&#45;&gt;Node5 -->
<g id="edge34" class="edge">
<title>Node2&#45;&gt;Node5</title>
<path fill="none" stroke="midnightblue" d="M1139.86,-246.44C1157.14,-238.57 1182,-225.74 1200.5,-210 1220.62,-192.88 1238.65,-168.14 1249.57,-151.59"/>
<polygon fill="midnightblue" stroke="midnightblue" points="1252.69,-153.21 1255.14,-142.9 1246.8,-149.43 1252.69,-153.21"/>
</g>
<!-- Node6 -->
<g id="node6" class="node">
<title>Node6</title>
<g id="a_node6"><a xlink:title=" ">
<polygon fill="none" stroke="#bfbfbf" points="1350,-123.5 1350,-142.5 1395,-142.5 1395,-123.5 1350,-123.5"/>
<text text-anchor="middle" x="1372.5" y="-130.5" font-family="Helvetica,sans-Serif" font-size="10.00">utility</text>
</a>
</g>
</g>
<!-- Node2&#45;&gt;Node6 -->
<g id="edge35" class="edge">
<title>Node2&#45;&gt;Node6</title>
<path fill="none" stroke="midnightblue" d="M1171.6,-246.94C1241.01,-235.98 1355.93,-216.92 1362.5,-210 1376.85,-194.88 1377.38,-169.8 1375.63,-152.61"/>
<polygon fill="midnightblue" stroke="midnightblue" points="1379.09,-152.08 1374.28,-142.64 1372.16,-153.03 1379.09,-152.08"/>
</g>
<!-- Node2&#45;&gt;Node7 -->
<g id="edge6" class="edge">
<title>Node2&#45;&gt;Node7</title>
<path fill="none" stroke="midnightblue" d="M1070.36,-246.48C1007.67,-235.6 899.48,-216.83 833.32,-205.36"/>
<polygon fill="midnightblue" stroke="midnightblue" points="833.53,-201.84 823.08,-203.58 832.33,-208.74 833.53,-201.84"/>
</g>
<!-- Node12 -->
<g id="node12" class="node">
<title>Node12</title>
<g id="a_node12"><a xlink:title=" ">
<polygon fill="none" stroke="#bfbfbf" points="962.5,-0.5 962.5,-19.5 1014.5,-19.5 1014.5,-0.5 962.5,-0.5"/>
<text text-anchor="middle" x="988.5" y="-7.5" font-family="Helvetica,sans-Serif" font-size="10.00">cassert</text>
</a>
</g>
</g>
<!-- Node2&#45;&gt;Node12 -->
<g id="edge32" class="edge">
<title>Node2&#45;&gt;Node12</title>
<path fill="none" stroke="midnightblue" d="M1117.86,-246.28C1112.01,-217.02 1090.02,-120.48 1043.5,-56 1034.84,-44 1022.23,-33.37 1011.26,-25.45"/>
<polygon fill="midnightblue" stroke="midnightblue" points="1013.15,-22.5 1002.92,-19.72 1009.18,-28.27 1013.15,-22.5"/>
</g>
<!-- Node26 -->
<g id="node26" class="node">
<title>Node26</title>
<g id="a_node26"><a xlink:title=" ">
<polygon fill="none" stroke="#bfbfbf" points="1147.5,-185 1147.5,-204 1191.5,-204 1191.5,-185 1147.5,-185"/>
<text text-anchor="middle" x="1169.5" y="-192" font-family="Helvetica,sans-Serif" font-size="10.00">bitset</text>
</a>
</g>
</g>
<!-- Node2&#45;&gt;Node26 -->
<g id="edge31" class="edge">
<title>Node2&#45;&gt;Node26</title>
<path fill="none" stroke="midnightblue" d="M1126.66,-246.48C1134.24,-237.46 1146.37,-223.02 1155.79,-211.81"/>
<polygon fill="midnightblue" stroke="midnightblue" points="1158.6,-213.92 1162.35,-204.01 1153.24,-209.41 1158.6,-213.92"/>
</g>
<!-- Node3&#45;&gt;Node4 -->
<g id="edge3" class="edge">
<title>Node3&#45;&gt;Node4</title>
<path fill="none" stroke="midnightblue" d="M1260.92,-179.4C1232.23,-169.18 1193.87,-155.51 1166.75,-145.85"/>
<polygon fill="midnightblue" stroke="midnightblue" points="1167.91,-142.54 1157.31,-142.48 1165.56,-149.14 1167.91,-142.54"/>
</g>
<!-- Node3&#45;&gt;Node5 -->
<g id="edge4" class="edge">
<title>Node3&#45;&gt;Node5</title>
<path fill="none" stroke="midnightblue" d="M1291.02,-179.4C1285.33,-170.93 1278.05,-160.1 1272.02,-151.14"/>
<polygon fill="midnightblue" stroke="midnightblue" points="1274.8,-149 1266.32,-142.66 1268.99,-152.91 1274.8,-149"/>
</g>
<!-- Node3&#45;&gt;Node6 -->
<g id="edge5" class="edge">
<title>Node3&#45;&gt;Node6</title>
<path fill="none" stroke="midnightblue" d="M1317.56,-179.4C1328.56,-170.31 1342.87,-158.49 1354.12,-149.19"/>
<polygon fill="midnightblue" stroke="midnightblue" points="1356.54,-151.73 1362.02,-142.66 1352.09,-146.33 1356.54,-151.73"/>
</g>
<!-- Node7&#45;&gt;Node4 -->
<g id="edge23" class="edge">
<title>Node7&#45;&gt;Node4</title>
<path fill="none" stroke="midnightblue" d="M823.17,-185.72C896.22,-173.55 1035.81,-150.28 1099.86,-139.61"/>
<polygon fill="midnightblue" stroke="midnightblue" points="1100.55,-143.04 1109.83,-137.94 1099.4,-136.14 1100.55,-143.04"/>
</g>
<!-- Node8 -->
<g id="node8" class="node">
<title>Node8</title>
<g id="a_node8"><a xlink:title=" ">
<polygon fill="none" stroke="#bfbfbf" points="64.5,-123.5 64.5,-142.5 214.5,-142.5 214.5,-123.5 64.5,-123.5"/>
<text text-anchor="middle" x="139.5" y="-130.5" font-family="Helvetica,sans-Serif" font-size="10.00">boost/qvm/deduce_vec.hpp</text>
</a>
</g>
</g>
<!-- Node7&#45;&gt;Node8 -->
<g id="edge7" class="edge">
<title>Node7&#45;&gt;Node8</title>
<path fill="none" stroke="midnightblue" d="M729.87,-189.49C636.28,-181.39 418.66,-162.28 224.69,-143.11"/>
<polygon fill="midnightblue" stroke="midnightblue" points="224.9,-139.61 214.6,-142.11 224.21,-146.57 224.9,-139.61"/>
</g>
<!-- Node9 -->
<g id="node9" class="node">
<title>Node9</title>
<g id="a_node9"><a xlink:title=" ">
<polygon fill="none" stroke="#bfbfbf" points="232.5,-123.5 232.5,-142.5 372.5,-142.5 372.5,-123.5 232.5,-123.5"/>
<text text-anchor="middle" x="302.5" y="-130.5" font-family="Helvetica,sans-Serif" font-size="10.00">boost/qvm/vec_traits.hpp</text>
</a>
</g>
</g>
<!-- Node7&#45;&gt;Node9 -->
<g id="edge8" class="edge">
<title>Node7&#45;&gt;Node9</title>
<path fill="none" stroke="midnightblue" d="M729.75,-187.63C648.35,-177.41 479.79,-156.25 380.45,-143.79"/>
<polygon fill="midnightblue" stroke="midnightblue" points="380.83,-140.31 370.47,-142.53 379.96,-147.25 380.83,-140.31"/>
</g>
<!-- Node10 -->
<g id="node10" class="node">
<title>Node10</title>
<g id="a_node10"><a xlink:href="Array_8hpp.html" target="_top" xlink:title=" ">
<polygon fill="none" stroke="black" points="627.5,-123.5 627.5,-142.5 713.5,-142.5 713.5,-123.5 627.5,-123.5"/>
<text text-anchor="middle" x="670.5" y="-130.5" font-family="Helvetica,sans-Serif" font-size="10.00">utils/Array.hpp</text>
</a>
</g>
</g>
<!-- Node7&#45;&gt;Node10 -->
<g id="edge9" class="edge">
<title>Node7&#45;&gt;Node10</title>
<path fill="none" stroke="midnightblue" d="M761.31,-184.98C743.84,-175.17 714.92,-158.93 694.42,-147.42"/>
<polygon fill="midnightblue" stroke="midnightblue" points="696.09,-144.35 685.66,-142.51 692.67,-150.46 696.09,-144.35"/>
</g>
<!-- Node7&#45;&gt;Node12 -->
<g id="edge22" class="edge">
<title>Node7&#45;&gt;Node12</title>
<path fill="none" stroke="midnightblue" d="M823.1,-190.8C887.53,-185.98 998.69,-173.39 1023.5,-143 1047.95,-113.05 1036.05,-92.57 1023.5,-56 1019.78,-45.16 1012.27,-34.92 1005.15,-26.96"/>
<polygon fill="midnightblue" stroke="midnightblue" points="1007.5,-24.35 998.06,-19.55 1002.45,-29.19 1007.5,-24.35"/>
</g>
<!-- Node14 -->
<g id="node14" class="node">
<title>Node14</title>
<g id="a_node14"><a xlink:title=" ">
<polygon fill="none" stroke="#bfbfbf" points="379,-0.5 379,-19.5 432,-19.5 432,-0.5 379,-0.5"/>
<text text-anchor="middle" x="405.5" y="-7.5" font-family="Helvetica,sans-Serif" font-size="10.00">cstddef</text>
</a>
</g>
</g>
<!-- Node7&#45;&gt;Node14 -->
<g id="edge24" class="edge">
<title>Node7&#45;&gt;Node14</title>
<path fill="none" stroke="midnightblue" d="M729.96,-190.22C652.07,-184.07 499.25,-169.05 452.5,-143 423.87,-127.04 415.87,-117.74 404.5,-87 397.65,-68.48 399.15,-45.63 401.58,-29.86"/>
<polygon fill="midnightblue" stroke="midnightblue" points="405.07,-30.24 403.41,-19.78 398.18,-28.99 405.07,-30.24"/>
</g>
<!-- Node17 -->
<g id="node17" class="node">
<title>Node17</title>
<g id="a_node17"><a xlink:title=" ">
<polygon fill="none" stroke="#bfbfbf" points="962,-62 962,-81 1015,-81 1015,-62 962,-62"/>
<text text-anchor="middle" x="988.5" y="-69" font-family="Helvetica,sans-Serif" font-size="10.00">iterator</text>
</a>
</g>
</g>
<!-- Node7&#45;&gt;Node17 -->
<g id="edge27" class="edge">
<title>Node7&#45;&gt;Node17</title>
<path fill="none" stroke="midnightblue" d="M770.23,-184.61C760.82,-170.06 745.63,-141 760.5,-123 814.39,-57.74 865.82,-109.17 947.5,-87 950.46,-86.2 953.52,-85.28 956.57,-84.31"/>
<polygon fill="midnightblue" stroke="midnightblue" points="957.77,-87.6 966.13,-81.09 955.54,-80.96 957.77,-87.6"/>
</g>
<!-- Node20 -->
<g id="node20" class="node">
<title>Node20</title>
<g id="a_node20"><a xlink:title=" ">
<polygon fill="none" stroke="#bfbfbf" points="461.5,-123.5 461.5,-142.5 525.5,-142.5 525.5,-123.5 461.5,-123.5"/>
<text text-anchor="middle" x="493.5" y="-130.5" font-family="Helvetica,sans-Serif" font-size="10.00">algorithm</text>
</a>
</g>
</g>
<!-- Node7&#45;&gt;Node20 -->
<g id="edge21" class="edge">
<title>Node7&#45;&gt;Node20</title>
<path fill="none" stroke="midnightblue" d="M734.94,-184.96C688.78,-175.45 611.77,-159.5 535.93,-143.29"/>
<polygon fill="midnightblue" stroke="midnightblue" points="536.23,-139.78 525.72,-141.11 534.77,-146.62 536.23,-139.78"/>
</g>
<!-- Node21 -->
<g id="node21" class="node">
<title>Node21</title>
<g id="a_node21"><a xlink:title=" ">
<polygon fill="none" stroke="#bfbfbf" points="544,-123.5 544,-142.5 609,-142.5 609,-123.5 544,-123.5"/>
<text text-anchor="middle" x="576.5" y="-130.5" font-family="Helvetica,sans-Serif" font-size="10.00">functional</text>
</a>
</g>
</g>
<!-- Node7&#45;&gt;Node21 -->
<g id="edge25" class="edge">
<title>Node7&#45;&gt;Node21</title>
<path fill="none" stroke="midnightblue" d="M747.84,-184.98C712.94,-174.59 653.85,-157.01 615,-145.45"/>
<polygon fill="midnightblue" stroke="midnightblue" points="615.68,-142.01 605.1,-142.51 613.69,-148.72 615.68,-142.01"/>
</g>
<!-- Node22 -->
<g id="node22" class="node">
<title>Node22</title>
<g id="a_node22"><a xlink:title=" ">
<polygon fill="none" stroke="#bfbfbf" points="770,-123.5 770,-142.5 853,-142.5 853,-123.5 770,-123.5"/>
<text text-anchor="middle" x="811.5" y="-130.5" font-family="Helvetica,sans-Serif" font-size="10.00">initializer_list</text>
</a>
</g>
</g>
<!-- Node7&#45;&gt;Node22 -->
<g id="edge26" class="edge">
<title>Node7&#45;&gt;Node22</title>
<path fill="none" stroke="midnightblue" d="M781.51,-184.98C786.66,-176.23 794.81,-162.37 801.32,-151.31"/>
<polygon fill="midnightblue" stroke="midnightblue" points="804.44,-152.9 806.49,-142.51 798.41,-149.35 804.44,-152.9"/>
</g>
<!-- Node23 -->
<g id="node23" class="node">
<title>Node23</title>
<g id="a_node23"><a xlink:title=" ">
<polygon fill="none" stroke="#bfbfbf" points="871.5,-123.5 871.5,-142.5 927.5,-142.5 927.5,-123.5 871.5,-123.5"/>
<text text-anchor="middle" x="899.5" y="-130.5" font-family="Helvetica,sans-Serif" font-size="10.00">numeric</text>
</a>
</g>
</g>
<!-- Node7&#45;&gt;Node23 -->
<g id="edge28" class="edge">
<title>Node7&#45;&gt;Node23</title>
<path fill="none" stroke="midnightblue" d="M794.12,-184.98C814.67,-175.03 848.86,-158.49 872.71,-146.96"/>
<polygon fill="midnightblue" stroke="midnightblue" points="874.43,-150.01 881.91,-142.51 871.38,-143.71 874.43,-150.01"/>
</g>
<!-- Node24 -->
<g id="node24" class="node">
<title>Node24</title>
<g id="a_node24"><a xlink:title=" ">
<polygon fill="none" stroke="#bfbfbf" points="946,-123.5 946,-142.5 1015,-142.5 1015,-123.5 946,-123.5"/>
<text text-anchor="middle" x="980.5" y="-130.5" font-family="Helvetica,sans-Serif" font-size="10.00">type_traits</text>
</a>
</g>
</g>
<!-- Node7&#45;&gt;Node24 -->
<g id="edge29" class="edge">
<title>Node7&#45;&gt;Node24</title>
<path fill="none" stroke="midnightblue" d="M805.73,-184.98C841.4,-174.57 901.86,-156.94 941.48,-145.38"/>
<polygon fill="midnightblue" stroke="midnightblue" points="942.71,-148.67 951.33,-142.51 940.75,-141.95 942.71,-148.67"/>
</g>
<!-- Node25 -->
<g id="node25" class="node">
<title>Node25</title>
<g id="a_node25"><a xlink:title=" ">
<polygon fill="none" stroke="#bfbfbf" points="0,-123.5 0,-142.5 47,-142.5 47,-123.5 0,-123.5"/>
<text text-anchor="middle" x="23.5" y="-130.5" font-family="Helvetica,sans-Serif" font-size="10.00">vector</text>
</a>
</g>
</g>
<!-- Node7&#45;&gt;Node25 -->
<g id="edge30" class="edge">
<title>Node7&#45;&gt;Node25</title>
<path fill="none" stroke="midnightblue" d="M729.71,-193.52C615.75,-192.85 314.85,-186.87 57.06,-142.94"/>
<polygon fill="midnightblue" stroke="midnightblue" points="57.59,-139.48 47.14,-141.23 56.4,-146.38 57.59,-139.48"/>
</g>
<!-- Node11 -->
<g id="node11" class="node">
<title>Node11</title>
<g id="a_node11"><a xlink:href="device__qualifier_8hpp.html" target="_top" xlink:title=" ">
<polygon fill="none" stroke="black" points="705.5,-62 705.5,-81 821.5,-81 821.5,-62 705.5,-62"/>
<text text-anchor="middle" x="763.5" y="-69" font-family="Helvetica,sans-Serif" font-size="10.00">device_qualifier.hpp</text>
</a>
</g>
</g>
<!-- Node10&#45;&gt;Node11 -->
<g id="edge10" class="edge">
<title>Node10&#45;&gt;Node11</title>
<path fill="none" stroke="midnightblue" d="M683.82,-123.48C698.88,-113.84 723.62,-98.02 741.54,-86.55"/>
<polygon fill="midnightblue" stroke="midnightblue" points="743.66,-89.35 750.2,-81.01 739.89,-83.45 743.66,-89.35"/>
</g>
<!-- Node10&#45;&gt;Node12 -->
<g id="edge16" class="edge">
<title>Node10&#45;&gt;Node12</title>
<path fill="none" stroke="midnightblue" d="M713.52,-127.18C773.7,-119.91 879.48,-105.04 913.5,-87 927.69,-79.48 957.02,-47.33 974.5,-27.33"/>
<polygon fill="midnightblue" stroke="midnightblue" points="977.29,-29.46 981.19,-19.61 972,-24.88 977.29,-29.46"/>
</g>
<!-- Node13 -->
<g id="node13" class="node">
<title>Node13</title>
<g id="a_node13"><a xlink:href="get_8hpp.html" target="_top" xlink:title=" ">
<polygon fill="none" stroke="black" points="634,-62 634,-81 687,-81 687,-62 634,-62"/>
<text text-anchor="middle" x="660.5" y="-69" font-family="Helvetica,sans-Serif" font-size="10.00">get.hpp</text>
</a>
</g>
</g>
<!-- Node10&#45;&gt;Node13 -->
<g id="edge12" class="edge">
<title>Node10&#45;&gt;Node13</title>
<path fill="none" stroke="midnightblue" d="M669.07,-123.48C667.66,-115.08 665.45,-101.98 663.64,-91.16"/>
<polygon fill="midnightblue" stroke="midnightblue" points="667.04,-90.29 661.93,-81.01 660.14,-91.45 667.04,-90.29"/>
</g>
<!-- Node10&#45;&gt;Node14 -->
<g id="edge17" class="edge">
<title>Node10&#45;&gt;Node14</title>
<path fill="none" stroke="midnightblue" d="M627.48,-124.43C557.46,-112.07 426.36,-88.74 424.5,-87 408.88,-72.35 405.29,-46.96 404.83,-29.59"/>
<polygon fill="midnightblue" stroke="midnightblue" points="408.34,-29.55 404.9,-19.53 401.34,-29.5 408.34,-29.55"/>
</g>
<!-- Node16 -->
<g id="node16" class="node">
<title>Node16</title>
<g id="a_node16"><a xlink:title=" ">
<polygon fill="none" stroke="#bfbfbf" points="434,-56.5 434,-86.5 541,-86.5 541,-56.5 434,-56.5"/>
<text text-anchor="start" x="442" y="-74.5" font-family="Helvetica,sans-Serif" font-size="10.00">boost/serialization</text>
<text text-anchor="middle" x="487.5" y="-63.5" font-family="Helvetica,sans-Serif" font-size="10.00">/access.hpp</text>
</a>
</g>
</g>
<!-- Node10&#45;&gt;Node16 -->
<g id="edge15" class="edge">
<title>Node10&#45;&gt;Node16</title>
<path fill="none" stroke="midnightblue" d="M644.28,-123.48C617.3,-114.7 574.5,-100.79 540.44,-89.71"/>
<polygon fill="midnightblue" stroke="midnightblue" points="541.22,-86.29 530.63,-86.52 539.06,-92.94 541.22,-86.29"/>
</g>
<!-- Node10&#45;&gt;Node17 -->
<g id="edge18" class="edge">
<title>Node10&#45;&gt;Node17</title>
<path fill="none" stroke="midnightblue" d="M713.61,-125.1C790.05,-112.85 941.86,-88.44 947.5,-87 950.55,-86.22 953.69,-85.31 956.81,-84.33"/>
<polygon fill="midnightblue" stroke="midnightblue" points="958.22,-87.55 966.59,-81.06 956,-80.91 958.22,-87.55"/>
</g>
<!-- Node18 -->
<g id="node18" class="node">
<title>Node18</title>
<g id="a_node18"><a xlink:title=" ">
<polygon fill="none" stroke="#bfbfbf" points="559,-62 559,-81 616,-81 616,-62 559,-62"/>
<text text-anchor="middle" x="587.5" y="-69" font-family="Helvetica,sans-Serif" font-size="10.00">ostream</text>
</a>
</g>
</g>
<!-- Node10&#45;&gt;Node18 -->
<g id="edge19" class="edge">
<title>Node10&#45;&gt;Node18</title>
<path fill="none" stroke="midnightblue" d="M658.61,-123.48C645.3,-113.93 623.5,-98.31 607.54,-86.87"/>
<polygon fill="midnightblue" stroke="midnightblue" points="609.54,-83.99 599.37,-81.01 605.46,-89.68 609.54,-83.99"/>
</g>
<!-- Node19 -->
<g id="node19" class="node">
<title>Node19</title>
<g id="a_node19"><a xlink:title=" ">
<polygon fill="none" stroke="#bfbfbf" points="840,-62 840,-81 905,-81 905,-62 840,-62"/>
<text text-anchor="middle" x="872.5" y="-69" font-family="Helvetica,sans-Serif" font-size="10.00">stdexcept</text>
</a>
</g>
</g>
<!-- Node10&#45;&gt;Node19 -->
<g id="edge20" class="edge">
<title>Node10&#45;&gt;Node19</title>
<path fill="none" stroke="midnightblue" d="M702.84,-123.5C735.28,-114.83 786.58,-100.75 830.5,-87 833.26,-86.14 836.11,-85.21 838.97,-84.27"/>
<polygon fill="midnightblue" stroke="midnightblue" points="840.24,-87.54 848.59,-81.02 838,-80.9 840.24,-87.54"/>
</g>
<!-- Node11&#45;&gt;Node12 -->
<g id="edge11" class="edge">
<title>Node11&#45;&gt;Node12</title>
<path fill="none" stroke="midnightblue" d="M795.74,-61.98C837.25,-51 909.18,-31.98 952.46,-20.53"/>
<polygon fill="midnightblue" stroke="midnightblue" points="953.51,-23.87 962.28,-17.93 951.72,-17.11 953.51,-23.87"/>
</g>
<!-- Node13&#45;&gt;Node14 -->
<g id="edge13" class="edge">
<title>Node13&#45;&gt;Node14</title>
<path fill="none" stroke="midnightblue" d="M640.92,-61.87C635.66,-59.76 629.92,-57.63 624.5,-56 561.54,-37.02 486,-23.45 442.1,-16.45"/>
<polygon fill="midnightblue" stroke="midnightblue" points="442.6,-12.98 432.18,-14.89 441.51,-19.9 442.6,-12.98"/>
</g>
<!-- Node15 -->
<g id="node15" class="node">
<title>Node15</title>
<g id="a_node15"><a xlink:title=" ">
<polygon fill="none" stroke="#bfbfbf" points="640,-0.5 640,-19.5 681,-19.5 681,-0.5 640,-0.5"/>
<text text-anchor="middle" x="660.5" y="-7.5" font-family="Helvetica,sans-Serif" font-size="10.00">tuple</text>
</a>
</g>
</g>
<!-- Node13&#45;&gt;Node15 -->
<g id="edge14" class="edge">
<title>Node13&#45;&gt;Node15</title>
<path fill="none" stroke="midnightblue" d="M660.5,-61.98C660.5,-53.58 660.5,-40.48 660.5,-29.66"/>
<polygon fill="midnightblue" stroke="midnightblue" points="664,-29.51 660.5,-19.51 657,-29.51 664,-29.51"/>
</g>
<!-- Node27&#45;&gt;Node7 -->
<g id="edge37" class="edge">
<title>Node27&#45;&gt;Node7</title>
<path fill="none" stroke="midnightblue" d="M947.84,-246.48C912.94,-236.09 853.85,-218.51 815,-206.95"/>
<polygon fill="midnightblue" stroke="midnightblue" points="815.68,-203.51 805.1,-204.01 813.69,-210.22 815.68,-203.51"/>
</g>
</g>
</svg>
