<?xml version="1.0" encoding="UTF-8" standalone="no"?>
<!DOCTYPE svg PUBLIC "-//W3C//DTD SVG 1.1//EN"
 "http://www.w3.org/Graphics/SVG/1.1/DTD/svg11.dtd">
<!-- Generated by graphviz version 2.43.0 (0)
 -->
<!-- Title: h5md_specification.hpp Pages: 1 -->
<svg width="250pt" height="84pt"
 viewBox="0.00 0.00 249.50 84.00" xmlns="http://www.w3.org/2000/svg" xmlns:xlink="http://www.w3.org/1999/xlink">
<g id="graph0" class="graph" transform="scale(1 1) rotate(0) translate(4 80)">
<title>h5md_specification.hpp</title>
<!-- Node1 -->
<g id="node1" class="node">
<title>Node1</title>
<g id="a_node1"><a xlink:title=" ">
<polygon fill="#bfbfbf" stroke="black" points="44,-56.5 44,-75.5 177,-75.5 177,-56.5 44,-56.5"/>
<text text-anchor="middle" x="110.5" y="-63.5" font-family="Helvetica,sans-Serif" font-size="10.00">h5md_specification.hpp</text>
</a>
</g>
</g>
<!-- Node2 -->
<g id="node2" class="node">
<title>Node2</title>
<g id="a_node2"><a xlink:href="h5md__core_8cpp.html" target="_top" xlink:title=" ">
<polygon fill="none" stroke="black" points="0,-0.5 0,-19.5 91,-19.5 91,-0.5 0,-0.5"/>
<text text-anchor="middle" x="45.5" y="-7.5" font-family="Helvetica,sans-Serif" font-size="10.00">h5md_core.cpp</text>
</a>
</g>
</g>
<!-- Node1&#45;&gt;Node2 -->
<g id="edge1" class="edge">
<title>Node1&#45;&gt;Node2</title>
<path fill="none" stroke="midnightblue" d="M92.23,-49.82C80.58,-40.15 65.9,-27.95 56.13,-19.83"/>
<polygon fill="midnightblue" stroke="midnightblue" points="90.13,-52.63 100.06,-56.32 94.6,-47.24 90.13,-52.63"/>
</g>
<!-- Node3 -->
<g id="node3" class="node">
<title>Node3</title>
<g id="a_node3"><a xlink:href="h5md__specification_8cpp.html" target="_top" xlink:title=" ">
<polygon fill="none" stroke="black" points="109.5,-0.5 109.5,-19.5 241.5,-19.5 241.5,-0.5 109.5,-0.5"/>
<text text-anchor="middle" x="175.5" y="-7.5" font-family="Helvetica,sans-Serif" font-size="10.00">h5md_specification.cpp</text>
</a>
</g>
</g>
<!-- Node1&#45;&gt;Node3 -->
<g id="edge2" class="edge">
<title>Node1&#45;&gt;Node3</title>
<path fill="none" stroke="midnightblue" d="M128.77,-49.82C140.42,-40.15 155.1,-27.95 164.87,-19.83"/>
<polygon fill="midnightblue" stroke="midnightblue" points="126.4,-47.24 120.94,-56.32 130.87,-52.63 126.4,-47.24"/>
</g>
</g>
</svg>
