<?xml version="1.0" encoding="UTF-8" standalone="no"?>
<!DOCTYPE svg PUBLIC "-//W3C//DTD SVG 1.1//EN"
 "http://www.w3.org/Graphics/SVG/1.1/DTD/svg11.dtd">
<!-- Generated by graphviz version 2.43.0 (0)
 -->
<!-- Title: halo.hpp Pages: 1 -->
<svg width="1580pt" height="330pt"
 viewBox="0.00 0.00 1580.00 330.00" xmlns="http://www.w3.org/2000/svg" xmlns:xlink="http://www.w3.org/1999/xlink">
<g id="graph0" class="graph" transform="scale(1 1) rotate(0) translate(4 326)">
<title>halo.hpp</title>
<!-- Node1 -->
<g id="node1" class="node">
<title>Node1</title>
<g id="a_node1"><a xlink:title=" ">
<polygon fill="#bfbfbf" stroke="black" points="958,-302.5 958,-321.5 1017,-321.5 1017,-302.5 958,-302.5"/>
<text text-anchor="middle" x="987.5" y="-309.5" font-family="Helvetica,sans-Serif" font-size="10.00">halo.hpp</text>
</a>
</g>
</g>
<!-- Node2 -->
<g id="node2" class="node">
<title>Node2</title>
<g id="a_node2"><a xlink:href="lattice_8hpp.html" target="_top" xlink:title=" ">
<polygon fill="none" stroke="black" points="793.5,-235.5 793.5,-265.5 921.5,-265.5 921.5,-235.5 793.5,-235.5"/>
<text text-anchor="start" x="801.5" y="-253.5" font-family="Helvetica,sans-Serif" font-size="10.00">grid_based_algorithms</text>
<text text-anchor="middle" x="857.5" y="-242.5" font-family="Helvetica,sans-Serif" font-size="10.00">/lattice.hpp</text>
</a>
</g>
</g>
<!-- Node1&#45;&gt;Node2 -->
<g id="edge1" class="edge">
<title>Node1&#45;&gt;Node2</title>
<path fill="none" stroke="midnightblue" d="M968.87,-302.48C950.28,-293.96 921.12,-280.62 897.3,-269.72"/>
<polygon fill="midnightblue" stroke="midnightblue" points="898.69,-266.5 888.14,-265.52 895.77,-272.87 898.69,-266.5"/>
</g>
<!-- Node3 -->
<g id="node3" class="node">
<title>Node3</title>
<g id="a_node3"><a xlink:href="Vector_8hpp.html" target="_top" xlink:title=" ">
<polygon fill="none" stroke="black" points="839,-179.5 839,-198.5 932,-198.5 932,-179.5 839,-179.5"/>
<text text-anchor="middle" x="885.5" y="-186.5" font-family="Helvetica,sans-Serif" font-size="10.00">utils/Vector.hpp</text>
</a>
</g>
</g>
<!-- Node1&#45;&gt;Node3 -->
<g id="edge28" class="edge">
<title>Node1&#45;&gt;Node3</title>
<path fill="none" stroke="midnightblue" d="M981.55,-302.26C971.58,-287.79 950.6,-258.18 930.5,-235 921.63,-224.78 910.95,-214.03 902.21,-205.61"/>
<polygon fill="midnightblue" stroke="midnightblue" points="904.51,-202.96 894.85,-198.6 899.69,-208.03 904.51,-202.96"/>
</g>
<!-- Node22 -->
<g id="node22" class="node">
<title>Node22</title>
<g id="a_node22"><a xlink:title=" ">
<polygon fill="none" stroke="#bfbfbf" points="1525,-123.5 1525,-142.5 1572,-142.5 1572,-123.5 1525,-123.5"/>
<text text-anchor="middle" x="1548.5" y="-130.5" font-family="Helvetica,sans-Serif" font-size="10.00">vector</text>
</a>
</g>
</g>
<!-- Node1&#45;&gt;Node22 -->
<g id="edge31" class="edge">
<title>Node1&#45;&gt;Node22</title>
<path fill="none" stroke="midnightblue" d="M986.89,-302.47C986.28,-286.67 987.43,-252.84 1006.5,-235 1171.97,-80.13 1287.96,-190.51 1514.92,-142.89"/>
<polygon fill="midnightblue" stroke="midnightblue" points="1515.75,-146.29 1524.77,-140.74 1514.25,-139.45 1515.75,-146.29"/>
</g>
<!-- Node23 -->
<g id="node23" class="node">
<title>Node23</title>
<g id="a_node23"><a xlink:title=" ">
<polygon fill="none" stroke="#bfbfbf" points="1015.5,-241 1015.5,-260 1059.5,-260 1059.5,-241 1015.5,-241"/>
<text text-anchor="middle" x="1037.5" y="-248" font-family="Helvetica,sans-Serif" font-size="10.00">mpi.h</text>
</a>
</g>
</g>
<!-- Node1&#45;&gt;Node23 -->
<g id="edge29" class="edge">
<title>Node1&#45;&gt;Node23</title>
<path fill="none" stroke="midnightblue" d="M994.66,-302.48C1002.24,-293.46 1014.37,-279.02 1023.79,-267.81"/>
<polygon fill="midnightblue" stroke="midnightblue" points="1026.6,-269.92 1030.35,-260.01 1021.24,-265.41 1026.6,-269.92"/>
</g>
<!-- Node24 -->
<g id="node24" class="node">
<title>Node24</title>
<g id="a_node24"><a xlink:title=" ">
<polygon fill="none" stroke="#bfbfbf" points="1077.5,-241 1077.5,-260 1135.5,-260 1135.5,-241 1077.5,-241"/>
<text text-anchor="middle" x="1106.5" y="-248" font-family="Helvetica,sans-Serif" font-size="10.00">memory</text>
</a>
</g>
</g>
<!-- Node1&#45;&gt;Node24 -->
<g id="edge30" class="edge">
<title>Node1&#45;&gt;Node24</title>
<path fill="none" stroke="midnightblue" d="M1004.55,-302.48C1024.34,-292.58 1057.22,-276.14 1080.27,-264.62"/>
<polygon fill="midnightblue" stroke="midnightblue" points="1082.1,-267.61 1089.48,-260.01 1078.97,-261.35 1082.1,-267.61"/>
</g>
<!-- Node2&#45;&gt;Node3 -->
<g id="edge2" class="edge">
<title>Node2&#45;&gt;Node3</title>
<path fill="none" stroke="midnightblue" d="M864.14,-235.4C868.04,-227.11 873,-216.55 877.17,-207.71"/>
<polygon fill="midnightblue" stroke="midnightblue" points="880.33,-209.2 881.43,-198.66 874,-206.22 880.33,-209.2"/>
</g>
<!-- Node10 -->
<g id="node10" class="node">
<title>Node10</title>
<g id="a_node10"><a xlink:title=" ">
<polygon fill="none" stroke="#bfbfbf" points="0,-0.5 0,-19.5 53,-19.5 53,-0.5 0,-0.5"/>
<text text-anchor="middle" x="26.5" y="-7.5" font-family="Helvetica,sans-Serif" font-size="10.00">cstddef</text>
</a>
</g>
</g>
<!-- Node2&#45;&gt;Node10 -->
<g id="edge27" class="edge">
<title>Node2&#45;&gt;Node10</title>
<path fill="none" stroke="midnightblue" d="M793.12,-245.6C666.99,-236.7 379.45,-210.22 147.5,-143 88.25,-125.83 54.19,-138.68 20.5,-87 9.35,-69.9 13.81,-45.82 19.12,-29.38"/>
<polygon fill="midnightblue" stroke="midnightblue" points="22.47,-30.42 22.58,-19.83 15.89,-28.04 22.47,-30.42"/>
</g>
<!-- Node4 -->
<g id="node4" class="node">
<title>Node4</title>
<g id="a_node4"><a xlink:title=" ">
<polygon fill="none" stroke="#bfbfbf" points="1198.5,-123.5 1198.5,-142.5 1348.5,-142.5 1348.5,-123.5 1198.5,-123.5"/>
<text text-anchor="middle" x="1273.5" y="-130.5" font-family="Helvetica,sans-Serif" font-size="10.00">boost/qvm/deduce_vec.hpp</text>
</a>
</g>
</g>
<!-- Node3&#45;&gt;Node4 -->
<g id="edge3" class="edge">
<title>Node3&#45;&gt;Node4</title>
<path fill="none" stroke="midnightblue" d="M932.3,-181.49C999.33,-172.16 1123.24,-154.91 1201.85,-143.97"/>
<polygon fill="midnightblue" stroke="midnightblue" points="1202.74,-147.38 1212.16,-142.54 1201.77,-140.45 1202.74,-147.38"/>
</g>
<!-- Node5 -->
<g id="node5" class="node">
<title>Node5</title>
<g id="a_node5"><a xlink:title=" ">
<polygon fill="none" stroke="#bfbfbf" points="1366.5,-123.5 1366.5,-142.5 1506.5,-142.5 1506.5,-123.5 1366.5,-123.5"/>
<text text-anchor="middle" x="1436.5" y="-130.5" font-family="Helvetica,sans-Serif" font-size="10.00">boost/qvm/vec_traits.hpp</text>
</a>
</g>
</g>
<!-- Node3&#45;&gt;Node5 -->
<g id="edge4" class="edge">
<title>Node3&#45;&gt;Node5</title>
<path fill="none" stroke="midnightblue" d="M932.08,-183.16C945.45,-181.79 960.05,-180.32 973.5,-179 1140.85,-162.6 1185.32,-160.77 1356.2,-143.12"/>
<polygon fill="midnightblue" stroke="midnightblue" points="1356.71,-146.58 1366.3,-142.07 1355.99,-139.62 1356.71,-146.58"/>
</g>
<!-- Node6 -->
<g id="node6" class="node">
<title>Node6</title>
<g id="a_node6"><a xlink:href="Array_8hpp.html" target="_top" xlink:title=" ">
<polygon fill="none" stroke="black" points="340.5,-123.5 340.5,-142.5 426.5,-142.5 426.5,-123.5 340.5,-123.5"/>
<text text-anchor="middle" x="383.5" y="-130.5" font-family="Helvetica,sans-Serif" font-size="10.00">utils/Array.hpp</text>
</a>
</g>
</g>
<!-- Node3&#45;&gt;Node6 -->
<g id="edge5" class="edge">
<title>Node3&#45;&gt;Node6</title>
<path fill="none" stroke="midnightblue" d="M838.72,-182.97C745.16,-172.9 535.49,-150.35 436.8,-139.73"/>
<polygon fill="midnightblue" stroke="midnightblue" points="437.06,-136.24 426.75,-138.65 436.31,-143.2 437.06,-136.24"/>
</g>
<!-- Node8 -->
<g id="node8" class="node">
<title>Node8</title>
<g id="a_node8"><a xlink:title=" ">
<polygon fill="none" stroke="#bfbfbf" points="498.5,-0.5 498.5,-19.5 550.5,-19.5 550.5,-0.5 498.5,-0.5"/>
<text text-anchor="middle" x="524.5" y="-7.5" font-family="Helvetica,sans-Serif" font-size="10.00">cassert</text>
</a>
</g>
</g>
<!-- Node3&#45;&gt;Node8 -->
<g id="edge18" class="edge">
<title>Node3&#45;&gt;Node8</title>
<path fill="none" stroke="midnightblue" d="M838.88,-188.54C796.91,-186.57 735.94,-177.32 696.5,-143 665.18,-115.75 692.68,-84.5 662.5,-56 634.8,-29.85 591.69,-18.89 561.03,-14.3"/>
<polygon fill="midnightblue" stroke="midnightblue" points="561.13,-10.78 550.75,-12.93 560.2,-17.72 561.13,-10.78"/>
</g>
<!-- Node3&#45;&gt;Node10 -->
<g id="edge20" class="edge">
<title>Node3&#45;&gt;Node10</title>
<path fill="none" stroke="midnightblue" d="M838.98,-185.86C669.68,-177.61 93.38,-145.43 37.5,-87 23.06,-71.9 22.18,-46.82 23.66,-29.63"/>
<polygon fill="midnightblue" stroke="midnightblue" points="27.14,-30 24.86,-19.65 20.19,-29.16 27.14,-30"/>
</g>
<!-- Node13 -->
<g id="node13" class="node">
<title>Node13</title>
<g id="a_node13"><a xlink:title=" ">
<polygon fill="none" stroke="#bfbfbf" points="601,-62 601,-81 654,-81 654,-62 601,-62"/>
<text text-anchor="middle" x="627.5" y="-69" font-family="Helvetica,sans-Serif" font-size="10.00">iterator</text>
</a>
</g>
</g>
<!-- Node3&#45;&gt;Node13 -->
<g id="edge23" class="edge">
<title>Node3&#45;&gt;Node13</title>
<path fill="none" stroke="midnightblue" d="M838.68,-183.31C781.92,-176.81 690.52,-163.51 663.5,-143 646.78,-130.31 637.2,-107.66 632.18,-91.46"/>
<polygon fill="midnightblue" stroke="midnightblue" points="635.46,-90.17 629.41,-81.47 628.72,-92.05 635.46,-90.17"/>
</g>
<!-- Node16 -->
<g id="node16" class="node">
<title>Node16</title>
<g id="a_node16"><a xlink:title=" ">
<polygon fill="none" stroke="#bfbfbf" points="705.5,-123.5 705.5,-142.5 769.5,-142.5 769.5,-123.5 705.5,-123.5"/>
<text text-anchor="middle" x="737.5" y="-130.5" font-family="Helvetica,sans-Serif" font-size="10.00">algorithm</text>
</a>
</g>
</g>
<!-- Node3&#45;&gt;Node16 -->
<g id="edge17" class="edge">
<title>Node3&#45;&gt;Node16</title>
<path fill="none" stroke="midnightblue" d="M862.05,-179.44C837.37,-170.44 798.31,-156.19 770.52,-146.05"/>
<polygon fill="midnightblue" stroke="midnightblue" points="771.44,-142.66 760.84,-142.52 769.04,-149.23 771.44,-142.66"/>
</g>
<!-- Node17 -->
<g id="node17" class="node">
<title>Node17</title>
<g id="a_node17"><a xlink:title=" ">
<polygon fill="none" stroke="#bfbfbf" points="788,-123.5 788,-142.5 835,-142.5 835,-123.5 788,-123.5"/>
<text text-anchor="middle" x="811.5" y="-130.5" font-family="Helvetica,sans-Serif" font-size="10.00">cmath</text>
</a>
</g>
</g>
<!-- Node3&#45;&gt;Node17 -->
<g id="edge19" class="edge">
<title>Node3&#45;&gt;Node17</title>
<path fill="none" stroke="midnightblue" d="M873.61,-179.32C862.35,-171.11 845.21,-158.6 831.79,-148.81"/>
<polygon fill="midnightblue" stroke="midnightblue" points="833.75,-145.9 823.61,-142.83 829.62,-151.56 833.75,-145.9"/>
</g>
<!-- Node18 -->
<g id="node18" class="node">
<title>Node18</title>
<g id="a_node18"><a xlink:title=" ">
<polygon fill="none" stroke="#bfbfbf" points="853,-123.5 853,-142.5 918,-142.5 918,-123.5 853,-123.5"/>
<text text-anchor="middle" x="885.5" y="-130.5" font-family="Helvetica,sans-Serif" font-size="10.00">functional</text>
</a>
</g>
</g>
<!-- Node3&#45;&gt;Node18 -->
<g id="edge21" class="edge">
<title>Node3&#45;&gt;Node18</title>
<path fill="none" stroke="midnightblue" d="M885.5,-179.08C885.5,-172.01 885.5,-161.86 885.5,-152.99"/>
<polygon fill="midnightblue" stroke="midnightblue" points="889,-152.75 885.5,-142.75 882,-152.75 889,-152.75"/>
</g>
<!-- Node19 -->
<g id="node19" class="node">
<title>Node19</title>
<g id="a_node19"><a xlink:title=" ">
<polygon fill="none" stroke="#bfbfbf" points="936,-123.5 936,-142.5 1019,-142.5 1019,-123.5 936,-123.5"/>
<text text-anchor="middle" x="977.5" y="-130.5" font-family="Helvetica,sans-Serif" font-size="10.00">initializer_list</text>
</a>
</g>
</g>
<!-- Node3&#45;&gt;Node19 -->
<g id="edge22" class="edge">
<title>Node3&#45;&gt;Node19</title>
<path fill="none" stroke="midnightblue" d="M900.28,-179.32C914.77,-170.82 937.07,-157.73 953.99,-147.8"/>
<polygon fill="midnightblue" stroke="midnightblue" points="955.9,-150.74 962.76,-142.65 952.36,-144.7 955.9,-150.74"/>
</g>
<!-- Node20 -->
<g id="node20" class="node">
<title>Node20</title>
<g id="a_node20"><a xlink:title=" ">
<polygon fill="none" stroke="#bfbfbf" points="1037.5,-123.5 1037.5,-142.5 1093.5,-142.5 1093.5,-123.5 1037.5,-123.5"/>
<text text-anchor="middle" x="1065.5" y="-130.5" font-family="Helvetica,sans-Serif" font-size="10.00">numeric</text>
</a>
</g>
</g>
<!-- Node3&#45;&gt;Node20 -->
<g id="edge24" class="edge">
<title>Node3&#45;&gt;Node20</title>
<path fill="none" stroke="midnightblue" d="M914.02,-179.44C944.66,-170.25 993.49,-155.6 1027.4,-145.43"/>
<polygon fill="midnightblue" stroke="midnightblue" points="1028.84,-148.65 1037.41,-142.43 1026.82,-141.95 1028.84,-148.65"/>
</g>
<!-- Node21 -->
<g id="node21" class="node">
<title>Node21</title>
<g id="a_node21"><a xlink:title=" ">
<polygon fill="none" stroke="#bfbfbf" points="1112,-123.5 1112,-142.5 1181,-142.5 1181,-123.5 1112,-123.5"/>
<text text-anchor="middle" x="1146.5" y="-130.5" font-family="Helvetica,sans-Serif" font-size="10.00">type_traits</text>
</a>
</g>
</g>
<!-- Node3&#45;&gt;Node21 -->
<g id="edge25" class="edge">
<title>Node3&#45;&gt;Node21</title>
<path fill="none" stroke="midnightblue" d="M926.86,-179.44C974.5,-169.59 1052.49,-153.45 1101.59,-143.29"/>
<polygon fill="midnightblue" stroke="midnightblue" points="1102.52,-146.67 1111.6,-141.22 1101.1,-139.82 1102.52,-146.67"/>
</g>
<!-- Node3&#45;&gt;Node22 -->
<g id="edge26" class="edge">
<title>Node3&#45;&gt;Node22</title>
<path fill="none" stroke="midnightblue" d="M932.05,-182.93C945.43,-181.55 960.03,-180.14 973.5,-179 1210.78,-158.99 1275.65,-182.31 1514.79,-142.74"/>
<polygon fill="midnightblue" stroke="midnightblue" points="1515.55,-146.17 1524.83,-141.06 1514.39,-139.26 1515.55,-146.17"/>
</g>
<!-- Node7 -->
<g id="node7" class="node">
<title>Node7</title>
<g id="a_node7"><a xlink:href="device__qualifier_8hpp.html" target="_top" xlink:title=" ">
<polygon fill="none" stroke="black" points="466.5,-62 466.5,-81 582.5,-81 582.5,-62 466.5,-62"/>
<text text-anchor="middle" x="524.5" y="-69" font-family="Helvetica,sans-Serif" font-size="10.00">device_qualifier.hpp</text>
</a>
</g>
</g>
<!-- Node6&#45;&gt;Node7 -->
<g id="edge6" class="edge">
<title>Node6&#45;&gt;Node7</title>
<path fill="none" stroke="midnightblue" d="M403.7,-123.48C427.57,-113.4 467.5,-96.55 494.87,-85"/>
<polygon fill="midnightblue" stroke="midnightblue" points="496.48,-88.12 504.34,-81.01 493.76,-81.67 496.48,-88.12"/>
</g>
<!-- Node6&#45;&gt;Node8 -->
<g id="edge12" class="edge">
<title>Node6&#45;&gt;Node8</title>
<path fill="none" stroke="midnightblue" d="M390.76,-123.46C403.47,-108.77 430.91,-78.17 457.5,-56 471.31,-44.48 488.12,-33.2 501.45,-24.81"/>
<polygon fill="midnightblue" stroke="midnightblue" points="503.37,-27.74 510.04,-19.5 499.69,-21.78 503.37,-27.74"/>
</g>
<!-- Node9 -->
<g id="node9" class="node">
<title>Node9</title>
<g id="a_node9"><a xlink:href="get_8hpp.html" target="_top" xlink:title=" ">
<polygon fill="none" stroke="black" points="357,-62 357,-81 410,-81 410,-62 357,-62"/>
<text text-anchor="middle" x="383.5" y="-69" font-family="Helvetica,sans-Serif" font-size="10.00">get.hpp</text>
</a>
</g>
</g>
<!-- Node6&#45;&gt;Node9 -->
<g id="edge8" class="edge">
<title>Node6&#45;&gt;Node9</title>
<path fill="none" stroke="midnightblue" d="M383.5,-123.48C383.5,-115.08 383.5,-101.98 383.5,-91.16"/>
<polygon fill="midnightblue" stroke="midnightblue" points="387,-91.01 383.5,-81.01 380,-91.01 387,-91.01"/>
</g>
<!-- Node6&#45;&gt;Node10 -->
<g id="edge13" class="edge">
<title>Node6&#45;&gt;Node10</title>
<path fill="none" stroke="midnightblue" d="M340.33,-130.79C263.68,-127.86 107.8,-118.15 64.5,-87 45.46,-73.3 35.41,-47.3 30.53,-29.57"/>
<polygon fill="midnightblue" stroke="midnightblue" points="33.91,-28.65 28.13,-19.77 27.11,-30.32 33.91,-28.65"/>
</g>
<!-- Node12 -->
<g id="node12" class="node">
<title>Node12</title>
<g id="a_node12"><a xlink:title=" ">
<polygon fill="none" stroke="#bfbfbf" points="74,-56.5 74,-86.5 181,-86.5 181,-56.5 74,-56.5"/>
<text text-anchor="start" x="82" y="-74.5" font-family="Helvetica,sans-Serif" font-size="10.00">boost/serialization</text>
<text text-anchor="middle" x="127.5" y="-63.5" font-family="Helvetica,sans-Serif" font-size="10.00">/access.hpp</text>
</a>
</g>
</g>
<!-- Node6&#45;&gt;Node12 -->
<g id="edge11" class="edge">
<title>Node6&#45;&gt;Node12</title>
<path fill="none" stroke="midnightblue" d="M346.67,-123.48C309.7,-114.92 250.84,-101.28 191.23,-87.4"/>
<polygon fill="midnightblue" stroke="midnightblue" points="191.8,-83.94 181.27,-85.08 190.21,-90.76 191.8,-83.94"/>
</g>
<!-- Node6&#45;&gt;Node13 -->
<g id="edge14" class="edge">
<title>Node6&#45;&gt;Node13</title>
<path fill="none" stroke="midnightblue" d="M426.67,-124.87C469.13,-117.35 535.52,-104.19 591.5,-87 593.78,-86.3 596.12,-85.51 598.46,-84.68"/>
<polygon fill="midnightblue" stroke="midnightblue" points="599.81,-87.92 607.91,-81.09 597.32,-81.37 599.81,-87.92"/>
</g>
<!-- Node14 -->
<g id="node14" class="node">
<title>Node14</title>
<g id="a_node14"><a xlink:title=" ">
<polygon fill="none" stroke="#bfbfbf" points="199,-62 199,-81 256,-81 256,-62 199,-62"/>
<text text-anchor="middle" x="227.5" y="-69" font-family="Helvetica,sans-Serif" font-size="10.00">ostream</text>
</a>
</g>
</g>
<!-- Node6&#45;&gt;Node14 -->
<g id="edge15" class="edge">
<title>Node6&#45;&gt;Node14</title>
<path fill="none" stroke="midnightblue" d="M360.66,-123.45C336.68,-114.46 297.89,-99.86 264.5,-87 262.67,-86.29 260.78,-85.56 258.88,-84.83"/>
<polygon fill="midnightblue" stroke="midnightblue" points="259.98,-81.5 249.4,-81.13 257.44,-88.02 259.98,-81.5"/>
</g>
<!-- Node15 -->
<g id="node15" class="node">
<title>Node15</title>
<g id="a_node15"><a xlink:title=" ">
<polygon fill="none" stroke="#bfbfbf" points="274,-62 274,-81 339,-81 339,-62 274,-62"/>
<text text-anchor="middle" x="306.5" y="-69" font-family="Helvetica,sans-Serif" font-size="10.00">stdexcept</text>
</a>
</g>
</g>
<!-- Node6&#45;&gt;Node15 -->
<g id="edge16" class="edge">
<title>Node6&#45;&gt;Node15</title>
<path fill="none" stroke="midnightblue" d="M372.47,-123.48C360.23,-114.02 340.27,-98.6 325.51,-87.19"/>
<polygon fill="midnightblue" stroke="midnightblue" points="327.56,-84.35 317.51,-81.01 323.28,-89.89 327.56,-84.35"/>
</g>
<!-- Node7&#45;&gt;Node8 -->
<g id="edge7" class="edge">
<title>Node7&#45;&gt;Node8</title>
<path fill="none" stroke="midnightblue" d="M524.5,-61.98C524.5,-53.58 524.5,-40.48 524.5,-29.66"/>
<polygon fill="midnightblue" stroke="midnightblue" points="528,-29.51 524.5,-19.51 521,-29.51 528,-29.51"/>
</g>
<!-- Node9&#45;&gt;Node10 -->
<g id="edge9" class="edge">
<title>Node9&#45;&gt;Node10</title>
<path fill="none" stroke="midnightblue" d="M364.74,-61.94C359.27,-59.72 353.23,-57.53 347.5,-56 246.72,-29.07 123.58,-17.55 63.31,-13.24"/>
<polygon fill="midnightblue" stroke="midnightblue" points="63.36,-9.73 53.15,-12.54 62.88,-16.72 63.36,-9.73"/>
</g>
<!-- Node11 -->
<g id="node11" class="node">
<title>Node11</title>
<g id="a_node11"><a xlink:title=" ">
<polygon fill="none" stroke="#bfbfbf" points="363,-0.5 363,-19.5 404,-19.5 404,-0.5 363,-0.5"/>
<text text-anchor="middle" x="383.5" y="-7.5" font-family="Helvetica,sans-Serif" font-size="10.00">tuple</text>
</a>
</g>
</g>
<!-- Node9&#45;&gt;Node11 -->
<g id="edge10" class="edge">
<title>Node9&#45;&gt;Node11</title>
<path fill="none" stroke="midnightblue" d="M383.5,-61.98C383.5,-53.58 383.5,-40.48 383.5,-29.66"/>
<polygon fill="midnightblue" stroke="midnightblue" points="387,-29.51 383.5,-19.51 380,-29.51 387,-29.51"/>
</g>
</g>
</svg>
