<?xml version="1.0" encoding="UTF-8" standalone="no"?>
<!DOCTYPE svg PUBLIC "-//W3C//DTD SVG 1.1//EN"
 "http://www.w3.org/Graphics/SVG/1.1/DTD/svg11.dtd">
<!-- Generated by graphviz version 2.43.0 (0)
 -->
<!-- Title: harmonic.cpp Pages: 1 -->
<!--zoomable 319 -->
<svg id="main" version="1.1" xmlns="http://www.w3.org/2000/svg" xmlns:xlink="http://www.w3.org/1999/xlink" xml:space="preserve" onload="init(evt)">
<style type="text/css"><![CDATA[
.edge:hover path { stroke: red; }
.edge:hover polygon { stroke: red; fill: red; }
]]></style>
<script type="text/javascript"><![CDATA[
var edges = document.getElementsByTagName('g');
if (edges && edges.length) {
  for (var i=0;i<edges.length;i++) {
    if (edges[i].id.substr(0,4)=='edge') {
      edges[i].setAttribute('class','edge');
    }
  }
}
]]></script>
        <defs>
                <circle id="rim" cx="0" cy="0" r="7"/>
                <circle id="rim2" cx="0" cy="0" r="3.5"/>
                <g id="zoomPlus">
                        <use xlink:href="#rim" fill="#404040">
                                <set attributeName="fill" to="#808080" begin="zoomplus.mouseover" end="zoomplus.mouseout"/>
                        </use>
                        <path d="M-4,0h8M0,-4v8" fill="none" stroke="white" stroke-width="1.5" pointer-events="none"/>
                </g>
                <g id="zoomMin">
                        <use xlink:href="#rim" fill="#404040">
                                <set attributeName="fill" to="#808080" begin="zoomminus.mouseover" end="zoomminus.mouseout"/>
                        </use>
                        <path d="M-4,0h8" fill="none" stroke="white" stroke-width="1.5" pointer-events="none"/>
                </g>
                <g id="dirArrow">
                        <path fill="none" stroke="white" stroke-width="1.5" d="M0,-3.0v7 M-2.5,-0.5L0,-3.0L2.5,-0.5"/>
                </g>
               <g id="resetDef">
                       <use xlink:href="#rim2" fill="#404040">
                               <set attributeName="fill" to="#808080" begin="reset.mouseover" end="reset.mouseout"/>
                       </use>
               </g>
        </defs>

<script type="text/javascript">
var viewWidth = 1390;
var viewHeight = 319;
var sectionId = 'dynsection-0';
</script>
<script xlink:href="svgpan.js"/>
<svg id="graph" class="graph">
<g id="viewport">
<title>harmonic.cpp</title>
<!-- Node1 -->
<g id="node1" class="node">
<title>Node1</title>
<g id="a_node1"><a xlink:title=" ">
<polygon fill="#bfbfbf" stroke="black" points="582.5,-291.5 582.5,-310.5 665.5,-310.5 665.5,-291.5 582.5,-291.5"/>
<text text-anchor="middle" x="624" y="-298.5" font-family="Helvetica,sans-Serif" font-size="10.00">harmonic.cpp</text>
</a>
</g>
</g>
<!-- Node2 -->
<g id="node2" class="node">
<title>Node2</title>
<g id="a_node2"><a xlink:href="harmonic_8hpp.html" target="_top" xlink:title=" ">
<polygon fill="none" stroke="black" points="582.5,-235.5 582.5,-254.5 665.5,-254.5 665.5,-235.5 582.5,-235.5"/>
<text text-anchor="middle" x="624" y="-242.5" font-family="Helvetica,sans-Serif" font-size="10.00">harmonic.hpp</text>
</a>
</g>
</g>
<!-- Node1&#45;&gt;Node2 -->
<g id="edge1" class="edge">
<title>Node1&#45;&gt;Node2</title>
<path fill="none" stroke="midnightblue" d="M624,-291.08C624,-284.01 624,-273.86 624,-264.99"/>
<polygon fill="midnightblue" stroke="midnightblue" points="627.5,-264.75 624,-254.75 620.5,-264.75 627.5,-264.75"/>
</g>
<!-- Node3 -->
<g id="node3" class="node">
<title>Node3</title>
<g id="a_node3"><a xlink:href="config_8hpp.html" target="_top" xlink:title=" ">
<polygon fill="none" stroke="black" points="228,-179.5 228,-198.5 296,-198.5 296,-179.5 228,-179.5"/>
<text text-anchor="middle" x="262" y="-186.5" font-family="Helvetica,sans-Serif" font-size="10.00">config.hpp</text>
</a>
</g>
</g>
<!-- Node2&#45;&gt;Node3 -->
<g id="edge2" class="edge">
<title>Node2&#45;&gt;Node3</title>
<path fill="none" stroke="midnightblue" d="M582.47,-237.81C513.62,-227.53 376.43,-207.07 305.99,-196.56"/>
<polygon fill="midnightblue" stroke="midnightblue" points="306.5,-193.1 296.09,-195.09 305.47,-200.02 306.5,-193.1"/>
</g>
<!-- Node5 -->
<g id="node5" class="node">
<title>Node5</title>
<g id="a_node5"><a xlink:href="Vector_8hpp.html" target="_top" xlink:title=" ">
<polygon fill="none" stroke="black" points="519.5,-179.5 519.5,-198.5 612.5,-198.5 612.5,-179.5 519.5,-179.5"/>
<text text-anchor="middle" x="566" y="-186.5" font-family="Helvetica,sans-Serif" font-size="10.00">utils/Vector.hpp</text>
</a>
</g>
</g>
<!-- Node2&#45;&gt;Node5 -->
<g id="edge4" class="edge">
<title>Node2&#45;&gt;Node5</title>
<path fill="none" stroke="midnightblue" d="M614.68,-235.32C606.11,-227.34 593.19,-215.31 582.81,-205.65"/>
<polygon fill="midnightblue" stroke="midnightblue" points="585.19,-203.09 575.49,-198.83 580.42,-208.21 585.19,-203.09"/>
</g>
<!-- Node25 -->
<g id="node25" class="node">
<title>Node25</title>
<g id="a_node25"><a xlink:href="sqr_8hpp.html" target="_top" xlink:title=" ">
<polygon fill="none" stroke="black" points="630.5,-179.5 630.5,-198.5 735.5,-198.5 735.5,-179.5 630.5,-179.5"/>
<text text-anchor="middle" x="683" y="-186.5" font-family="Helvetica,sans-Serif" font-size="10.00">utils/math/sqr.hpp</text>
</a>
</g>
</g>
<!-- Node2&#45;&gt;Node25 -->
<g id="edge29" class="edge">
<title>Node2&#45;&gt;Node25</title>
<path fill="none" stroke="midnightblue" d="M633.48,-235.32C642.2,-227.34 655.34,-215.31 665.9,-205.65"/>
<polygon fill="midnightblue" stroke="midnightblue" points="668.33,-208.17 673.35,-198.83 663.61,-203 668.33,-208.17"/>
</g>
<!-- Node26 -->
<g id="node26" class="node">
<title>Node26</title>
<g id="a_node26"><a xlink:title=" ">
<polygon fill="none" stroke="#bfbfbf" points="753.5,-179.5 753.5,-198.5 860.5,-198.5 860.5,-179.5 753.5,-179.5"/>
<text text-anchor="middle" x="807" y="-186.5" font-family="Helvetica,sans-Serif" font-size="10.00">boost/optional.hpp</text>
</a>
</g>
</g>
<!-- Node2&#45;&gt;Node26 -->
<g id="edge31" class="edge">
<title>Node2&#45;&gt;Node26</title>
<path fill="none" stroke="midnightblue" d="M653,-235.44C684.18,-226.24 733.93,-211.56 768.41,-201.39"/>
<polygon fill="midnightblue" stroke="midnightblue" points="769.54,-204.7 778.14,-198.52 767.56,-197.99 769.54,-204.7"/>
</g>
<!-- Node4 -->
<g id="node4" class="node">
<title>Node4</title>
<g id="a_node4"><a xlink:title=" ">
<polygon fill="none" stroke="#bfbfbf" points="0,-123.5 0,-142.5 112,-142.5 112,-123.5 0,-123.5"/>
<text text-anchor="middle" x="56" y="-130.5" font-family="Helvetica,sans-Serif" font-size="10.00">config&#45;features.hpp</text>
</a>
</g>
</g>
<!-- Node3&#45;&gt;Node4 -->
<g id="edge3" class="edge">
<title>Node3&#45;&gt;Node4</title>
<path fill="none" stroke="midnightblue" d="M229.36,-179.44C193.95,-170.16 137.29,-155.31 98.45,-145.13"/>
<polygon fill="midnightblue" stroke="midnightblue" points="99.05,-141.67 88.49,-142.52 97.27,-148.44 99.05,-141.67"/>
</g>
<!-- Node6 -->
<g id="node6" class="node">
<title>Node6</title>
<g id="a_node6"><a xlink:title=" ">
<polygon fill="none" stroke="#bfbfbf" points="764,-123.5 764,-142.5 914,-142.5 914,-123.5 764,-123.5"/>
<text text-anchor="middle" x="839" y="-130.5" font-family="Helvetica,sans-Serif" font-size="10.00">boost/qvm/deduce_vec.hpp</text>
</a>
</g>
</g>
<!-- Node5&#45;&gt;Node6 -->
<g id="edge5" class="edge">
<title>Node5&#45;&gt;Node6</title>
<path fill="none" stroke="midnightblue" d="M609.26,-179.44C657.18,-169.96 734.48,-154.67 786,-144.48"/>
<polygon fill="midnightblue" stroke="midnightblue" points="786.81,-147.89 795.94,-142.52 785.46,-141.02 786.81,-147.89"/>
</g>
<!-- Node7 -->
<g id="node7" class="node">
<title>Node7</title>
<g id="a_node7"><a xlink:title=" ">
<polygon fill="none" stroke="#bfbfbf" points="932,-123.5 932,-142.5 1072,-142.5 1072,-123.5 932,-123.5"/>
<text text-anchor="middle" x="1002" y="-130.5" font-family="Helvetica,sans-Serif" font-size="10.00">boost/qvm/vec_traits.hpp</text>
</a>
</g>
</g>
<!-- Node5&#45;&gt;Node7 -->
<g id="edge6" class="edge">
<title>Node5&#45;&gt;Node7</title>
<path fill="none" stroke="midnightblue" d="M612.73,-180.34C615.86,-179.87 618.98,-179.42 622,-179 650.89,-174.97 819.03,-155.28 921.74,-143.33"/>
<polygon fill="midnightblue" stroke="midnightblue" points="922.24,-146.79 931.77,-142.16 921.43,-139.84 922.24,-146.79"/>
</g>
<!-- Node8 -->
<g id="node8" class="node">
<title>Node8</title>
<g id="a_node8"><a xlink:href="Array_8hpp.html" target="_top" xlink:title=" ">
<polygon fill="none" stroke="black" points="1090,-123.5 1090,-142.5 1176,-142.5 1176,-123.5 1090,-123.5"/>
<text text-anchor="middle" x="1133" y="-130.5" font-family="Helvetica,sans-Serif" font-size="10.00">utils/Array.hpp</text>
</a>
</g>
</g>
<!-- Node5&#45;&gt;Node8 -->
<g id="edge7" class="edge">
<title>Node5&#45;&gt;Node8</title>
<path fill="none" stroke="midnightblue" d="M612.71,-180.2C615.85,-179.77 618.97,-179.36 622,-179 821.91,-155.14 876.23,-168.04 1079.79,-143.03"/>
<polygon fill="midnightblue" stroke="midnightblue" points="1080.42,-146.48 1089.92,-141.77 1079.56,-139.54 1080.42,-146.48"/>
</g>
<!-- Node10 -->
<g id="node10" class="node">
<title>Node10</title>
<g id="a_node10"><a xlink:title=" ">
<polygon fill="none" stroke="#bfbfbf" points="1212,-0.5 1212,-19.5 1264,-19.5 1264,-0.5 1212,-0.5"/>
<text text-anchor="middle" x="1238" y="-7.5" font-family="Helvetica,sans-Serif" font-size="10.00">cassert</text>
</a>
</g>
</g>
<!-- Node5&#45;&gt;Node10 -->
<g id="edge20" class="edge">
<title>Node5&#45;&gt;Node10</title>
<path fill="none" stroke="midnightblue" d="M612.71,-180.15C615.85,-179.73 618.97,-179.34 622,-179 684.29,-172.02 1131.38,-175.47 1185,-143 1224.33,-119.18 1234.49,-60.17 1237.1,-29.77"/>
<polygon fill="midnightblue" stroke="midnightblue" points="1240.6,-29.86 1237.78,-19.65 1233.62,-29.4 1240.6,-29.86"/>
</g>
<!-- Node12 -->
<g id="node12" class="node">
<title>Node12</title>
<g id="a_node12"><a xlink:title=" ">
<polygon fill="none" stroke="#bfbfbf" points="771.5,-0.5 771.5,-19.5 824.5,-19.5 824.5,-0.5 771.5,-0.5"/>
<text text-anchor="middle" x="798" y="-7.5" font-family="Helvetica,sans-Serif" font-size="10.00">cstddef</text>
</a>
</g>
</g>
<!-- Node5&#45;&gt;Node12 -->
<g id="edge22" class="edge">
<title>Node5&#45;&gt;Node12</title>
<path fill="none" stroke="midnightblue" d="M519.18,-187.67C409.17,-186 146.5,-176.45 188,-123 258.91,-31.67 640.17,-14.75 761.14,-11.67"/>
<polygon fill="midnightblue" stroke="midnightblue" points="761.46,-15.17 771.37,-11.43 761.29,-8.17 761.46,-15.17"/>
</g>
<!-- Node15 -->
<g id="node15" class="node">
<title>Node15</title>
<g id="a_node15"><a xlink:title=" ">
<polygon fill="none" stroke="#bfbfbf" points="458.5,-62 458.5,-81 511.5,-81 511.5,-62 458.5,-62"/>
<text text-anchor="middle" x="485" y="-69" font-family="Helvetica,sans-Serif" font-size="10.00">iterator</text>
</a>
</g>
</g>
<!-- Node5&#45;&gt;Node15 -->
<g id="edge25" class="edge">
<title>Node5&#45;&gt;Node15</title>
<path fill="none" stroke="midnightblue" d="M519.23,-185.7C424.7,-180.58 218.04,-166.77 197,-143 191.11,-136.35 191.28,-129.81 197,-123 228.68,-85.29 377.79,-75.73 448.12,-73.32"/>
<polygon fill="midnightblue" stroke="midnightblue" points="448.42,-76.81 458.3,-73 448.2,-69.81 448.42,-76.81"/>
</g>
<!-- Node18 -->
<g id="node18" class="node">
<title>Node18</title>
<g id="a_node18"><a xlink:title=" ">
<polygon fill="none" stroke="#bfbfbf" points="206,-123.5 206,-142.5 270,-142.5 270,-123.5 206,-123.5"/>
<text text-anchor="middle" x="238" y="-130.5" font-family="Helvetica,sans-Serif" font-size="10.00">algorithm</text>
</a>
</g>
</g>
<!-- Node5&#45;&gt;Node18 -->
<g id="edge19" class="edge">
<title>Node5&#45;&gt;Node18</title>
<path fill="none" stroke="midnightblue" d="M519.3,-181.46C462.57,-173.32 364.01,-158.6 280,-143 279.9,-142.98 279.8,-142.96 279.7,-142.94"/>
<polygon fill="midnightblue" stroke="midnightblue" points="280.55,-139.54 270.07,-141.06 279.21,-146.41 280.55,-139.54"/>
</g>
<!-- Node19 -->
<g id="node19" class="node">
<title>Node19</title>
<g id="a_node19"><a xlink:title=" ">
<polygon fill="none" stroke="#bfbfbf" points="288.5,-123.5 288.5,-142.5 335.5,-142.5 335.5,-123.5 288.5,-123.5"/>
<text text-anchor="middle" x="312" y="-130.5" font-family="Helvetica,sans-Serif" font-size="10.00">cmath</text>
</a>
</g>
</g>
<!-- Node5&#45;&gt;Node19 -->
<g id="edge21" class="edge">
<title>Node5&#45;&gt;Node19</title>
<path fill="none" stroke="midnightblue" d="M519.67,-179.48C476.92,-171.41 411.49,-158.55 345.48,-142.99"/>
<polygon fill="midnightblue" stroke="midnightblue" points="346.28,-139.58 335.75,-140.68 344.66,-146.39 346.28,-139.58"/>
</g>
<!-- Node20 -->
<g id="node20" class="node">
<title>Node20</title>
<g id="a_node20"><a xlink:title=" ">
<polygon fill="none" stroke="#bfbfbf" points="353.5,-123.5 353.5,-142.5 418.5,-142.5 418.5,-123.5 353.5,-123.5"/>
<text text-anchor="middle" x="386" y="-130.5" font-family="Helvetica,sans-Serif" font-size="10.00">functional</text>
</a>
</g>
</g>
<!-- Node5&#45;&gt;Node20 -->
<g id="edge23" class="edge">
<title>Node5&#45;&gt;Node20</title>
<path fill="none" stroke="midnightblue" d="M537.48,-179.44C506.93,-170.28 458.29,-155.69 424.4,-145.52"/>
<polygon fill="midnightblue" stroke="midnightblue" points="424.97,-142.04 414.39,-142.52 422.96,-148.74 424.97,-142.04"/>
</g>
<!-- Node21 -->
<g id="node21" class="node">
<title>Node21</title>
<g id="a_node21"><a xlink:title=" ">
<polygon fill="none" stroke="#bfbfbf" points="436.5,-123.5 436.5,-142.5 519.5,-142.5 519.5,-123.5 436.5,-123.5"/>
<text text-anchor="middle" x="478" y="-130.5" font-family="Helvetica,sans-Serif" font-size="10.00">initializer_list</text>
</a>
</g>
</g>
<!-- Node5&#45;&gt;Node21 -->
<g id="edge24" class="edge">
<title>Node5&#45;&gt;Node21</title>
<path fill="none" stroke="midnightblue" d="M551.86,-179.32C538.13,-170.9 517.06,-157.97 500.94,-148.07"/>
<polygon fill="midnightblue" stroke="midnightblue" points="502.46,-144.9 492.1,-142.65 498.8,-150.87 502.46,-144.9"/>
</g>
<!-- Node22 -->
<g id="node22" class="node">
<title>Node22</title>
<g id="a_node22"><a xlink:title=" ">
<polygon fill="none" stroke="#bfbfbf" points="538,-123.5 538,-142.5 594,-142.5 594,-123.5 538,-123.5"/>
<text text-anchor="middle" x="566" y="-130.5" font-family="Helvetica,sans-Serif" font-size="10.00">numeric</text>
</a>
</g>
</g>
<!-- Node5&#45;&gt;Node22 -->
<g id="edge26" class="edge">
<title>Node5&#45;&gt;Node22</title>
<path fill="none" stroke="midnightblue" d="M566,-179.08C566,-172.01 566,-161.86 566,-152.99"/>
<polygon fill="midnightblue" stroke="midnightblue" points="569.5,-152.75 566,-142.75 562.5,-152.75 569.5,-152.75"/>
</g>
<!-- Node23 -->
<g id="node23" class="node">
<title>Node23</title>
<g id="a_node23"><a xlink:title=" ">
<polygon fill="none" stroke="#bfbfbf" points="612.5,-123.5 612.5,-142.5 681.5,-142.5 681.5,-123.5 612.5,-123.5"/>
<text text-anchor="middle" x="647" y="-130.5" font-family="Helvetica,sans-Serif" font-size="10.00">type_traits</text>
</a>
</g>
</g>
<!-- Node5&#45;&gt;Node23 -->
<g id="edge27" class="edge">
<title>Node5&#45;&gt;Node23</title>
<path fill="none" stroke="midnightblue" d="M579.01,-179.32C591.53,-170.98 610.68,-158.21 625.47,-148.35"/>
<polygon fill="midnightblue" stroke="midnightblue" points="627.64,-151.11 634.02,-142.65 623.76,-145.29 627.64,-151.11"/>
</g>
<!-- Node24 -->
<g id="node24" class="node">
<title>Node24</title>
<g id="a_node24"><a xlink:title=" ">
<polygon fill="none" stroke="#bfbfbf" points="699.5,-123.5 699.5,-142.5 746.5,-142.5 746.5,-123.5 699.5,-123.5"/>
<text text-anchor="middle" x="723" y="-130.5" font-family="Helvetica,sans-Serif" font-size="10.00">vector</text>
</a>
</g>
</g>
<!-- Node5&#45;&gt;Node24 -->
<g id="edge28" class="edge">
<title>Node5&#45;&gt;Node24</title>
<path fill="none" stroke="midnightblue" d="M590.88,-179.44C617.6,-170.25 660.2,-155.6 689.78,-145.43"/>
<polygon fill="midnightblue" stroke="midnightblue" points="690.95,-148.73 699.27,-142.16 688.67,-142.11 690.95,-148.73"/>
</g>
<!-- Node9 -->
<g id="node9" class="node">
<title>Node9</title>
<g id="a_node9"><a xlink:href="device__qualifier_8hpp.html" target="_top" xlink:title=" ">
<polygon fill="none" stroke="black" points="1266,-62 1266,-81 1382,-81 1382,-62 1266,-62"/>
<text text-anchor="middle" x="1324" y="-69" font-family="Helvetica,sans-Serif" font-size="10.00">device_qualifier.hpp</text>
</a>
</g>
</g>
<!-- Node8&#45;&gt;Node9 -->
<g id="edge8" class="edge">
<title>Node8&#45;&gt;Node9</title>
<path fill="none" stroke="midnightblue" d="M1160.37,-123.48C1193.55,-113.14 1249.65,-95.66 1286.76,-84.1"/>
<polygon fill="midnightblue" stroke="midnightblue" points="1288.18,-87.32 1296.69,-81.01 1286.1,-80.64 1288.18,-87.32"/>
</g>
<!-- Node8&#45;&gt;Node10 -->
<g id="edge14" class="edge">
<title>Node8&#45;&gt;Node10</title>
<path fill="none" stroke="midnightblue" d="M1089.68,-123.52C1033.16,-112.26 940.84,-93.07 936,-87 927.41,-76.23 927,-66.44 936,-56 969.9,-16.68 1128.71,-11.19 1201.45,-10.77"/>
<polygon fill="midnightblue" stroke="midnightblue" points="1201.54,-14.27 1211.53,-10.75 1201.52,-7.27 1201.54,-14.27"/>
</g>
<!-- Node11 -->
<g id="node11" class="node">
<title>Node11</title>
<g id="a_node11"><a xlink:href="get_8hpp.html" target="_top" xlink:title=" ">
<polygon fill="none" stroke="black" points="834.5,-62 834.5,-81 887.5,-81 887.5,-62 834.5,-62"/>
<text text-anchor="middle" x="861" y="-69" font-family="Helvetica,sans-Serif" font-size="10.00">get.hpp</text>
</a>
</g>
</g>
<!-- Node8&#45;&gt;Node11 -->
<g id="edge10" class="edge">
<title>Node8&#45;&gt;Node11</title>
<path fill="none" stroke="midnightblue" d="M1089.59,-124.33C1032.86,-114.18 936.69,-96.46 902,-87 899.04,-86.19 895.98,-85.27 892.93,-84.3"/>
<polygon fill="midnightblue" stroke="midnightblue" points="893.96,-80.96 883.37,-81.08 891.73,-87.59 893.96,-80.96"/>
</g>
<!-- Node8&#45;&gt;Node12 -->
<g id="edge15" class="edge">
<title>Node8&#45;&gt;Node12</title>
<path fill="none" stroke="midnightblue" d="M1089.89,-124.43C1086.88,-123.94 1083.9,-123.45 1081,-123 1024.46,-114.12 870.53,-122.94 826,-87 808.68,-73.02 802.08,-47.29 799.56,-29.67"/>
<polygon fill="midnightblue" stroke="midnightblue" points="803.03,-29.24 798.44,-19.7 796.07,-30.02 803.03,-29.24"/>
</g>
<!-- Node14 -->
<g id="node14" class="node">
<title>Node14</title>
<g id="a_node14"><a xlink:title=" ">
<polygon fill="none" stroke="#bfbfbf" points="944.5,-56.5 944.5,-86.5 1051.5,-86.5 1051.5,-56.5 944.5,-56.5"/>
<text text-anchor="start" x="952.5" y="-74.5" font-family="Helvetica,sans-Serif" font-size="10.00">boost/serialization</text>
<text text-anchor="middle" x="998" y="-63.5" font-family="Helvetica,sans-Serif" font-size="10.00">/access.hpp</text>
</a>
</g>
</g>
<!-- Node8&#45;&gt;Node14 -->
<g id="edge13" class="edge">
<title>Node8&#45;&gt;Node14</title>
<path fill="none" stroke="midnightblue" d="M1113.66,-123.48C1094.26,-114.93 1063.8,-101.5 1039.01,-90.57"/>
<polygon fill="midnightblue" stroke="midnightblue" points="1040.38,-87.35 1029.82,-86.52 1037.56,-93.76 1040.38,-87.35"/>
</g>
<!-- Node8&#45;&gt;Node15 -->
<g id="edge16" class="edge">
<title>Node8&#45;&gt;Node15</title>
<path fill="none" stroke="midnightblue" d="M1089.91,-124.25C1086.9,-123.8 1083.91,-123.37 1081,-123 870.01,-95.85 615.05,-79.82 521.6,-74.49"/>
<polygon fill="midnightblue" stroke="midnightblue" points="521.7,-70.99 511.52,-73.92 521.31,-77.98 521.7,-70.99"/>
</g>
<!-- Node16 -->
<g id="node16" class="node">
<title>Node16</title>
<g id="a_node16"><a xlink:title=" ">
<polygon fill="none" stroke="#bfbfbf" points="1069.5,-62 1069.5,-81 1126.5,-81 1126.5,-62 1069.5,-62"/>
<text text-anchor="middle" x="1098" y="-69" font-family="Helvetica,sans-Serif" font-size="10.00">ostream</text>
</a>
</g>
</g>
<!-- Node8&#45;&gt;Node16 -->
<g id="edge17" class="edge">
<title>Node8&#45;&gt;Node16</title>
<path fill="none" stroke="midnightblue" d="M1127.99,-123.48C1122.84,-114.73 1114.69,-100.87 1108.18,-89.81"/>
<polygon fill="midnightblue" stroke="midnightblue" points="1111.09,-87.85 1103.01,-81.01 1105.06,-91.4 1111.09,-87.85"/>
</g>
<!-- Node17 -->
<g id="node17" class="node">
<title>Node17</title>
<g id="a_node17"><a xlink:title=" ">
<polygon fill="none" stroke="#bfbfbf" points="1144.5,-62 1144.5,-81 1209.5,-81 1209.5,-62 1144.5,-62"/>
<text text-anchor="middle" x="1177" y="-69" font-family="Helvetica,sans-Serif" font-size="10.00">stdexcept</text>
</a>
</g>
</g>
<!-- Node8&#45;&gt;Node17 -->
<g id="edge18" class="edge">
<title>Node8&#45;&gt;Node17</title>
<path fill="none" stroke="midnightblue" d="M1139.3,-123.48C1145.9,-114.55 1156.44,-100.31 1164.69,-89.14"/>
<polygon fill="midnightblue" stroke="midnightblue" points="1167.58,-91.13 1170.71,-81.01 1161.95,-86.97 1167.58,-91.13"/>
</g>
<!-- Node9&#45;&gt;Node10 -->
<g id="edge9" class="edge">
<title>Node9&#45;&gt;Node10</title>
<path fill="none" stroke="midnightblue" d="M1311.68,-61.98C1297.88,-52.43 1275.3,-36.81 1258.77,-25.37"/>
<polygon fill="midnightblue" stroke="midnightblue" points="1260.51,-22.32 1250.3,-19.51 1256.53,-28.08 1260.51,-22.32"/>
</g>
<!-- Node11&#45;&gt;Node12 -->
<g id="edge11" class="edge">
<title>Node11&#45;&gt;Node12</title>
<path fill="none" stroke="midnightblue" d="M851.97,-61.98C842.24,-52.78 826.54,-37.96 814.58,-26.66"/>
<polygon fill="midnightblue" stroke="midnightblue" points="816.68,-23.83 807.01,-19.51 811.88,-28.92 816.68,-23.83"/>
</g>
<!-- Node13 -->
<g id="node13" class="node">
<title>Node13</title>
<g id="a_node13"><a xlink:title=" ">
<polygon fill="none" stroke="#bfbfbf" points="842.5,-0.5 842.5,-19.5 883.5,-19.5 883.5,-0.5 842.5,-0.5"/>
<text text-anchor="middle" x="863" y="-7.5" font-family="Helvetica,sans-Serif" font-size="10.00">tuple</text>
</a>
</g>
</g>
<!-- Node11&#45;&gt;Node13 -->
<g id="edge12" class="edge">
<title>Node11&#45;&gt;Node13</title>
<path fill="none" stroke="midnightblue" d="M861.29,-61.98C861.57,-53.58 862.01,-40.48 862.37,-29.66"/>
<polygon fill="midnightblue" stroke="midnightblue" points="865.88,-29.62 862.71,-19.51 858.88,-29.39 865.88,-29.62"/>
</g>
<!-- Node25&#45;&gt;Node9 -->
<g id="edge30" class="edge">
<title>Node25&#45;&gt;Node9</title>
<path fill="none" stroke="midnightblue" d="M735.73,-180.08C738.86,-179.69 741.97,-179.33 745,-179 857.3,-166.88 1149,-189.35 1252,-143 1277.71,-131.43 1299.58,-106.49 1312.26,-89.6"/>
<polygon fill="midnightblue" stroke="midnightblue" points="1315.32,-91.34 1318.33,-81.17 1309.64,-87.24 1315.32,-91.34"/>
</g>
</g>
</svg>
        <g id="navigator" transform="translate(0 0)" fill="#404254">
                <rect fill="#f2f5e9" fill-opacity="0.5" stroke="#606060" stroke-width=".5" x="0" y="0" width="60" height="60"/>
                <use id="zoomplus" xlink:href="#zoomPlus" x="17" y="9" onmousedown="handleZoom(evt,'in')"/>
                <use id="zoomminus" xlink:href="#zoomMin" x="42" y="9" onmousedown="handleZoom(evt,'out')"/>
                <use id="reset" xlink:href="#resetDef" x="30" y="36" onmousedown="handleReset()"/>
                <g id="arrowUp" xlink:href="#dirArrow" transform="translate(30 24)" onmousedown="handlePan(0,-1)">
                  <use xlink:href="#rim" fill="#404040">
                        <set attributeName="fill" to="#808080" begin="arrowUp.mouseover" end="arrowUp.mouseout"/>
                  </use>
                  <path fill="none" stroke="white" stroke-width="1.5" d="M0,-3.0v7 M-2.5,-0.5L0,-3.0L2.5,-0.5"/>
                </g>
                <g id="arrowRight" xlink:href="#dirArrow" transform="rotate(90) translate(36 -43)" onmousedown="handlePan(1,0)">
                  <use xlink:href="#rim" fill="#404040">
                        <set attributeName="fill" to="#808080" begin="arrowRight.mouseover" end="arrowRight.mouseout"/>
                  </use>
                  <path fill="none" stroke="white" stroke-width="1.5" d="M0,-3.0v7 M-2.5,-0.5L0,-3.0L2.5,-0.5"/>
                </g>
                <g id="arrowDown" xlink:href="#dirArrow" transform="rotate(180) translate(-30 -48)" onmousedown="handlePan(0,1)">
                  <use xlink:href="#rim" fill="#404040">
                        <set attributeName="fill" to="#808080" begin="arrowDown.mouseover" end="arrowDown.mouseout"/>
                  </use>
                  <path fill="none" stroke="white" stroke-width="1.5" d="M0,-3.0v7 M-2.5,-0.5L0,-3.0L2.5,-0.5"/>
                </g>
                <g id="arrowLeft" xlink:href="#dirArrow" transform="rotate(270) translate(-36 17)" onmousedown="handlePan(-1,0)">
                  <use xlink:href="#rim" fill="#404040">
                        <set attributeName="fill" to="#808080" begin="arrowLeft.mouseover" end="arrowLeft.mouseout"/>
                  </use>
                  <path fill="none" stroke="white" stroke-width="1.5" d="M0,-3.0v7 M-2.5,-0.5L0,-3.0L2.5,-0.5"/>
                </g>
        </g>
        <svg viewBox="0 0 15 15" width="100%" height="30px" preserveAspectRatio="xMaxYMin meet">
         <g id="arrow_out" transform="scale(0.3 0.3)">
          <a xlink:href="harmonic_8cpp__incl_org.svg" target="_base">
           <rect id="button" ry="5" rx="5" y="6" x="6" height="38" width="38"
                fill="#f2f5e9" fill-opacity="0.5" stroke="#606060" stroke-width="1.0"/>
           <path id="arrow"
             d="M 11.500037,31.436501 C 11.940474,20.09759 22.043105,11.32322 32.158766,21.979434 L 37.068811,17.246167 C 37.068811,17.246167 37.088388,32 37.088388,32 L 22.160133,31.978069 C 22.160133,31.978069 26.997745,27.140456 26.997745,27.140456 C 18.528582,18.264221 13.291696,25.230495 11.500037,31.436501 z"
             style="fill:#404040;"/>
          </a>
         </g>
        </svg>
</svg>
