<?xml version="1.0" encoding="UTF-8" standalone="no"?>
<!DOCTYPE svg PUBLIC "-//W3C//DTD SVG 1.1//EN"
 "http://www.w3.org/Graphics/SVG/1.1/DTD/svg11.dtd">
<!-- Generated by graphviz version 2.43.0 (0)
 -->
<!-- Title: Histogram.hpp Pages: 1 -->
<svg width="965pt" height="196pt"
 viewBox="0.00 0.00 965.00 196.00" xmlns="http://www.w3.org/2000/svg" xmlns:xlink="http://www.w3.org/1999/xlink">
<g id="graph0" class="graph" transform="scale(1 1) rotate(0) translate(4 192)">
<title>Histogram.hpp</title>
<!-- Node1 -->
<g id="node1" class="node">
<title>Node1</title>
<g id="a_node1"><a xlink:title=" ">
<polygon fill="#bfbfbf" stroke="black" points="540,-168.5 540,-187.5 629,-187.5 629,-168.5 540,-168.5"/>
<text text-anchor="middle" x="584.5" y="-175.5" font-family="Helvetica,sans-Serif" font-size="10.00">Histogram.hpp</text>
</a>
</g>
</g>
<!-- Node2 -->
<g id="node2" class="node">
<title>Node2</title>
<g id="a_node2"><a xlink:href="Span_8hpp.html" target="_top" xlink:title=" ">
<polygon fill="none" stroke="black" points="199.5,-112.5 199.5,-131.5 285.5,-131.5 285.5,-112.5 199.5,-112.5"/>
<text text-anchor="middle" x="242.5" y="-119.5" font-family="Helvetica,sans-Serif" font-size="10.00">utils/Span.hpp</text>
</a>
</g>
</g>
<!-- Node1&#45;&gt;Node2 -->
<g id="edge1" class="edge">
<title>Node1&#45;&gt;Node2</title>
<path fill="none" stroke="midnightblue" d="M539.79,-169.94C476.93,-160.02 362.63,-141.97 295.55,-131.38"/>
<polygon fill="midnightblue" stroke="midnightblue" points="296.03,-127.91 285.6,-129.81 294.94,-134.82 296.03,-127.91"/>
</g>
<!-- Node5 -->
<g id="node5" class="node">
<title>Node5</title>
<g id="a_node5"><a xlink:title=" ">
<polygon fill="none" stroke="#bfbfbf" points="0,-56.5 0,-75.5 53,-75.5 53,-56.5 0,-56.5"/>
<text text-anchor="middle" x="26.5" y="-63.5" font-family="Helvetica,sans-Serif" font-size="10.00">cstddef</text>
</a>
</g>
</g>
<!-- Node1&#45;&gt;Node5 -->
<g id="edge13" class="edge">
<title>Node1&#45;&gt;Node5</title>
<path fill="none" stroke="midnightblue" d="M539.8,-175.72C466.01,-172.75 314.55,-163.09 190.5,-132 140.15,-119.38 84.6,-94.99 52.79,-79.93"/>
<polygon fill="midnightblue" stroke="midnightblue" points="54.24,-76.75 43.71,-75.59 51.22,-83.06 54.24,-76.75"/>
</g>
<!-- Node7 -->
<g id="node7" class="node">
<title>Node7</title>
<g id="a_node7"><a xlink:title=" ">
<polygon fill="none" stroke="#bfbfbf" points="402,-56.5 402,-75.5 467,-75.5 467,-56.5 402,-56.5"/>
<text text-anchor="middle" x="434.5" y="-63.5" font-family="Helvetica,sans-Serif" font-size="10.00">stdexcept</text>
</a>
</g>
</g>
<!-- Node1&#45;&gt;Node7 -->
<g id="edge16" class="edge">
<title>Node1&#45;&gt;Node7</title>
<path fill="none" stroke="midnightblue" d="M539.74,-175.65C474.56,-172.64 358.43,-162.97 332.5,-132 311.18,-106.54 355.12,-87.73 391.83,-77.07"/>
<polygon fill="midnightblue" stroke="midnightblue" points="393.22,-80.32 401.93,-74.28 391.36,-73.57 393.22,-80.32"/>
</g>
<!-- Node9 -->
<g id="node9" class="node">
<title>Node9</title>
<g id="a_node9"><a xlink:title=" ">
<polygon fill="none" stroke="#bfbfbf" points="341.5,-112.5 341.5,-131.5 463.5,-131.5 463.5,-112.5 341.5,-112.5"/>
<text text-anchor="middle" x="402.5" y="-119.5" font-family="Helvetica,sans-Serif" font-size="10.00">boost/multi_array.hpp</text>
</a>
</g>
</g>
<!-- Node1&#45;&gt;Node9 -->
<g id="edge9" class="edge">
<title>Node1&#45;&gt;Node9</title>
<path fill="none" stroke="midnightblue" d="M555.66,-168.44C524.64,-159.24 475.17,-144.56 440.88,-134.39"/>
<polygon fill="midnightblue" stroke="midnightblue" points="441.79,-131.01 431.2,-131.52 439.79,-137.72 441.79,-131.01"/>
</g>
<!-- Node10 -->
<g id="node10" class="node">
<title>Node10</title>
<g id="a_node10"><a xlink:title=" ">
<polygon fill="none" stroke="#bfbfbf" points="481.5,-112.5 481.5,-131.5 545.5,-131.5 545.5,-112.5 481.5,-112.5"/>
<text text-anchor="middle" x="513.5" y="-119.5" font-family="Helvetica,sans-Serif" font-size="10.00">algorithm</text>
</a>
</g>
</g>
<!-- Node1&#45;&gt;Node10 -->
<g id="edge10" class="edge">
<title>Node1&#45;&gt;Node10</title>
<path fill="none" stroke="midnightblue" d="M573.09,-168.32C562.39,-160.18 546.16,-147.84 533.34,-138.09"/>
<polygon fill="midnightblue" stroke="midnightblue" points="535.19,-135.1 525.11,-131.83 530.96,-140.67 535.19,-135.1"/>
</g>
<!-- Node11 -->
<g id="node11" class="node">
<title>Node11</title>
<g id="a_node11"><a xlink:title=" ">
<polygon fill="none" stroke="#bfbfbf" points="563.5,-112.5 563.5,-131.5 605.5,-131.5 605.5,-112.5 563.5,-112.5"/>
<text text-anchor="middle" x="584.5" y="-119.5" font-family="Helvetica,sans-Serif" font-size="10.00">array</text>
</a>
</g>
</g>
<!-- Node1&#45;&gt;Node11 -->
<g id="edge11" class="edge">
<title>Node1&#45;&gt;Node11</title>
<path fill="none" stroke="midnightblue" d="M584.5,-168.08C584.5,-161.01 584.5,-150.86 584.5,-141.99"/>
<polygon fill="midnightblue" stroke="midnightblue" points="588,-141.75 584.5,-131.75 581,-141.75 588,-141.75"/>
</g>
<!-- Node12 -->
<g id="node12" class="node">
<title>Node12</title>
<g id="a_node12"><a xlink:title=" ">
<polygon fill="none" stroke="#bfbfbf" points="624,-112.5 624,-131.5 671,-131.5 671,-112.5 624,-112.5"/>
<text text-anchor="middle" x="647.5" y="-119.5" font-family="Helvetica,sans-Serif" font-size="10.00">cmath</text>
</a>
</g>
</g>
<!-- Node1&#45;&gt;Node12 -->
<g id="edge12" class="edge">
<title>Node1&#45;&gt;Node12</title>
<path fill="none" stroke="midnightblue" d="M594.62,-168.32C604.03,-160.26 618.24,-148.08 629.57,-138.37"/>
<polygon fill="midnightblue" stroke="midnightblue" points="631.88,-141 637.19,-131.83 627.32,-135.68 631.88,-141"/>
</g>
<!-- Node13 -->
<g id="node13" class="node">
<title>Node13</title>
<g id="a_node13"><a xlink:title=" ">
<polygon fill="none" stroke="#bfbfbf" points="689,-112.5 689,-131.5 754,-131.5 754,-112.5 689,-112.5"/>
<text text-anchor="middle" x="721.5" y="-119.5" font-family="Helvetica,sans-Serif" font-size="10.00">functional</text>
</a>
</g>
</g>
<!-- Node1&#45;&gt;Node13 -->
<g id="edge14" class="edge">
<title>Node1&#45;&gt;Node13</title>
<path fill="none" stroke="midnightblue" d="M606.21,-168.44C628.85,-159.52 664.57,-145.44 690.25,-135.32"/>
<polygon fill="midnightblue" stroke="midnightblue" points="691.87,-138.44 699.89,-131.52 689.31,-131.93 691.87,-138.44"/>
</g>
<!-- Node14 -->
<g id="node14" class="node">
<title>Node14</title>
<g id="a_node14"><a xlink:title=" ">
<polygon fill="none" stroke="#bfbfbf" points="772.5,-112.5 772.5,-131.5 828.5,-131.5 828.5,-112.5 772.5,-112.5"/>
<text text-anchor="middle" x="800.5" y="-119.5" font-family="Helvetica,sans-Serif" font-size="10.00">numeric</text>
</a>
</g>
</g>
<!-- Node1&#45;&gt;Node14 -->
<g id="edge15" class="edge">
<title>Node1&#45;&gt;Node14</title>
<path fill="none" stroke="midnightblue" d="M618.73,-168.44C657.88,-158.66 721.8,-142.67 762.47,-132.51"/>
<polygon fill="midnightblue" stroke="midnightblue" points="763.43,-135.87 772.29,-130.05 761.73,-129.08 763.43,-135.87"/>
</g>
<!-- Node15 -->
<g id="node15" class="node">
<title>Node15</title>
<g id="a_node15"><a xlink:title=" ">
<polygon fill="none" stroke="#bfbfbf" points="847,-112.5 847,-131.5 892,-131.5 892,-112.5 847,-112.5"/>
<text text-anchor="middle" x="869.5" y="-119.5" font-family="Helvetica,sans-Serif" font-size="10.00">utility</text>
</a>
</g>
</g>
<!-- Node1&#45;&gt;Node15 -->
<g id="edge17" class="edge">
<title>Node1&#45;&gt;Node15</title>
<path fill="none" stroke="midnightblue" d="M629.1,-170.42C677.77,-162.95 758.16,-149.72 836.77,-131.97"/>
<polygon fill="midnightblue" stroke="midnightblue" points="837.88,-135.31 846.84,-129.67 836.32,-128.48 837.88,-135.31"/>
</g>
<!-- Node16 -->
<g id="node16" class="node">
<title>Node16</title>
<g id="a_node16"><a xlink:title=" ">
<polygon fill="none" stroke="#bfbfbf" points="910,-112.5 910,-131.5 957,-131.5 957,-112.5 910,-112.5"/>
<text text-anchor="middle" x="933.5" y="-119.5" font-family="Helvetica,sans-Serif" font-size="10.00">vector</text>
</a>
</g>
</g>
<!-- Node1&#45;&gt;Node16 -->
<g id="edge18" class="edge">
<title>Node1&#45;&gt;Node16</title>
<path fill="none" stroke="midnightblue" d="M629.19,-172.55C688.94,-166.19 798.26,-153.1 900,-132.1"/>
<polygon fill="midnightblue" stroke="midnightblue" points="900.75,-135.51 909.82,-130.04 899.32,-128.66 900.75,-135.51"/>
</g>
<!-- Node3 -->
<g id="node3" class="node">
<title>Node3</title>
<g id="a_node3"><a xlink:href="device__qualifier_8hpp.html" target="_top" xlink:title=" ">
<polygon fill="none" stroke="black" points="71.5,-56.5 71.5,-75.5 187.5,-75.5 187.5,-56.5 71.5,-56.5"/>
<text text-anchor="middle" x="129.5" y="-63.5" font-family="Helvetica,sans-Serif" font-size="10.00">device_qualifier.hpp</text>
</a>
</g>
</g>
<!-- Node2&#45;&gt;Node3 -->
<g id="edge2" class="edge">
<title>Node2&#45;&gt;Node3</title>
<path fill="none" stroke="midnightblue" d="M224.59,-112.44C206.25,-103.68 177.49,-89.94 156.41,-79.86"/>
<polygon fill="midnightblue" stroke="midnightblue" points="157.85,-76.67 147.32,-75.52 154.83,-82.99 157.85,-76.67"/>
</g>
<!-- Node4 -->
<g id="node4" class="node">
<title>Node4</title>
<g id="a_node4"><a xlink:title=" ">
<polygon fill="none" stroke="#bfbfbf" points="146.5,-0.5 146.5,-19.5 198.5,-19.5 198.5,-0.5 146.5,-0.5"/>
<text text-anchor="middle" x="172.5" y="-7.5" font-family="Helvetica,sans-Serif" font-size="10.00">cassert</text>
</a>
</g>
</g>
<!-- Node2&#45;&gt;Node4 -->
<g id="edge4" class="edge">
<title>Node2&#45;&gt;Node4</title>
<path fill="none" stroke="midnightblue" d="M237.01,-112.37C225.51,-94.3 198.7,-52.18 183.51,-28.31"/>
<polygon fill="midnightblue" stroke="midnightblue" points="186.29,-26.15 177.97,-19.59 180.38,-29.91 186.29,-26.15"/>
</g>
<!-- Node2&#45;&gt;Node5 -->
<g id="edge5" class="edge">
<title>Node2&#45;&gt;Node5</title>
<path fill="none" stroke="midnightblue" d="M208.27,-112.44C168.58,-102.52 103.4,-86.23 62.83,-76.08"/>
<polygon fill="midnightblue" stroke="midnightblue" points="63.63,-72.67 53.08,-73.64 61.93,-79.46 63.63,-72.67"/>
</g>
<!-- Node6 -->
<g id="node6" class="node">
<title>Node6</title>
<g id="a_node6"><a xlink:title=" ">
<polygon fill="none" stroke="#bfbfbf" points="244,-56.5 244,-75.5 297,-75.5 297,-56.5 244,-56.5"/>
<text text-anchor="middle" x="270.5" y="-63.5" font-family="Helvetica,sans-Serif" font-size="10.00">iterator</text>
</a>
</g>
</g>
<!-- Node2&#45;&gt;Node6 -->
<g id="edge6" class="edge">
<title>Node2&#45;&gt;Node6</title>
<path fill="none" stroke="midnightblue" d="M247.12,-112.08C250.96,-104.69 256.52,-93.95 261.26,-84.81"/>
<polygon fill="midnightblue" stroke="midnightblue" points="264.47,-86.24 265.96,-75.75 258.25,-83.02 264.47,-86.24"/>
</g>
<!-- Node2&#45;&gt;Node7 -->
<g id="edge7" class="edge">
<title>Node2&#45;&gt;Node7</title>
<path fill="none" stroke="midnightblue" d="M272.92,-112.44C305.78,-103.2 358.28,-88.44 394.47,-78.26"/>
<polygon fill="midnightblue" stroke="midnightblue" points="395.54,-81.59 404.22,-75.52 393.65,-74.85 395.54,-81.59"/>
</g>
<!-- Node8 -->
<g id="node8" class="node">
<title>Node8</title>
<g id="a_node8"><a xlink:title=" ">
<polygon fill="none" stroke="#bfbfbf" points="315,-56.5 315,-75.5 384,-75.5 384,-56.5 315,-56.5"/>
<text text-anchor="middle" x="349.5" y="-63.5" font-family="Helvetica,sans-Serif" font-size="10.00">type_traits</text>
</a>
</g>
</g>
<!-- Node2&#45;&gt;Node8 -->
<g id="edge8" class="edge">
<title>Node2&#45;&gt;Node8</title>
<path fill="none" stroke="midnightblue" d="M259.69,-112.32C276.85,-103.66 303.45,-90.24 323.25,-80.25"/>
<polygon fill="midnightblue" stroke="midnightblue" points="325,-83.28 332.35,-75.65 321.85,-77.04 325,-83.28"/>
</g>
<!-- Node3&#45;&gt;Node4 -->
<g id="edge3" class="edge">
<title>Node3&#45;&gt;Node4</title>
<path fill="none" stroke="midnightblue" d="M136.6,-56.08C142.74,-48.38 151.77,-37.03 159.24,-27.65"/>
<polygon fill="midnightblue" stroke="midnightblue" points="162.04,-29.75 165.53,-19.75 156.56,-25.39 162.04,-29.75"/>
</g>
</g>
</svg>
