<?xml version="1.0" encoding="UTF-8" standalone="no"?>
<!DOCTYPE svg PUBLIC "-//W3C//DTD SVG 1.1//EN"
 "http://www.w3.org/Graphics/SVG/1.1/DTD/svg11.dtd">
<!-- Generated by graphviz version 2.43.0 (0)
 -->
<!-- Title: IA_parameters.hpp Pages: 1 -->
<svg width="2971pt" height="408pt"
 viewBox="0.00 0.00 2971.00 408.00" xmlns="http://www.w3.org/2000/svg" xmlns:xlink="http://www.w3.org/1999/xlink">
<g id="graph0" class="graph" transform="scale(1 1) rotate(0) translate(4 404)">
<title>IA_parameters.hpp</title>
<!-- Node1 -->
<g id="node1" class="node">
<title>Node1</title>
<g id="a_node1"><a xlink:title=" ">
<polygon fill="#bfbfbf" stroke="black" points="1574.5,-380.5 1574.5,-399.5 1683.5,-399.5 1683.5,-380.5 1574.5,-380.5"/>
<text text-anchor="middle" x="1629" y="-387.5" font-family="Helvetica,sans-Serif" font-size="10.00">IA_parameters.hpp</text>
</a>
</g>
</g>
<!-- Node2 -->
<g id="node2" class="node">
<title>Node2</title>
<g id="a_node2"><a xlink:href="nonbonded__interaction__data_8hpp.html" target="_top" xlink:title=" ">
<polygon fill="none" stroke="black" points="1562,-302.5 1562,-343.5 1696,-343.5 1696,-302.5 1562,-302.5"/>
<text text-anchor="start" x="1570" y="-331.5" font-family="Helvetica,sans-Serif" font-size="10.00">nonbonded_interactions</text>
<text text-anchor="start" x="1570" y="-320.5" font-family="Helvetica,sans-Serif" font-size="10.00">/nonbonded_interaction</text>
<text text-anchor="middle" x="1629" y="-309.5" font-family="Helvetica,sans-Serif" font-size="10.00">_data.hpp</text>
</a>
</g>
</g>
<!-- Node1&#45;&gt;Node2 -->
<g id="edge1" class="edge">
<title>Node1&#45;&gt;Node2</title>
<path fill="none" stroke="midnightblue" d="M1629,-380.23C1629,-373.36 1629,-363.38 1629,-353.73"/>
<polygon fill="midnightblue" stroke="midnightblue" points="1632.5,-353.54 1629,-343.54 1625.5,-353.54 1632.5,-353.54"/>
</g>
<!-- Node3 -->
<g id="node3" class="node">
<title>Node3</title>
<g id="a_node3"><a xlink:href="TabulatedPotential_8hpp.html" target="_top" xlink:title=" ">
<polygon fill="none" stroke="black" points="285,-190.5 285,-209.5 413,-209.5 413,-190.5 285,-190.5"/>
<text text-anchor="middle" x="349" y="-197.5" font-family="Helvetica,sans-Serif" font-size="10.00">TabulatedPotential.hpp</text>
</a>
</g>
</g>
<!-- Node2&#45;&gt;Node3 -->
<g id="edge2" class="edge">
<title>Node2&#45;&gt;Node3</title>
<path fill="none" stroke="midnightblue" d="M1561.99,-321.36C1324.67,-318.77 532.76,-307.1 427,-266 400.94,-255.87 377.23,-233.34 362.96,-217.66"/>
<polygon fill="midnightblue" stroke="midnightblue" points="365.27,-214.99 356.05,-209.78 360.01,-219.61 365.27,-214.99"/>
</g>
<!-- Node5 -->
<g id="node5" class="node">
<title>Node5</title>
<g id="a_node5"><a xlink:title=" ">
<polygon fill="none" stroke="#bfbfbf" points="556,-0.5 556,-19.5 608,-19.5 608,-0.5 556,-0.5"/>
<text text-anchor="middle" x="582" y="-7.5" font-family="Helvetica,sans-Serif" font-size="10.00">cassert</text>
</a>
</g>
</g>
<!-- Node2&#45;&gt;Node5 -->
<g id="edge76" class="edge">
<title>Node2&#45;&gt;Node5</title>
<path fill="none" stroke="midnightblue" d="M1561.85,-320.59C1254.87,-313.69 0,-280.65 0,-201 0,-201 0,-201 0,-137.5 0,-25.23 418.74,-12.41 545.85,-11.1"/>
<polygon fill="midnightblue" stroke="midnightblue" points="545.89,-14.6 555.86,-11.01 545.83,-7.6 545.89,-14.6"/>
</g>
<!-- Node9 -->
<g id="node9" class="node">
<title>Node9</title>
<g id="a_node9"><a xlink:title=" ">
<polygon fill="none" stroke="#bfbfbf" points="472.5,-129 472.5,-148 519.5,-148 519.5,-129 472.5,-129"/>
<text text-anchor="middle" x="496" y="-136" font-family="Helvetica,sans-Serif" font-size="10.00">vector</text>
</a>
</g>
</g>
<!-- Node2&#45;&gt;Node9 -->
<g id="edge84" class="edge">
<title>Node2&#45;&gt;Node9</title>
<path fill="none" stroke="midnightblue" d="M1561.78,-314.98C1418.57,-299.59 1073.04,-260.25 786,-210 670.85,-189.84 640.18,-190.14 529,-154 527.13,-153.39 525.21,-152.71 523.3,-151.99"/>
<polygon fill="midnightblue" stroke="midnightblue" points="524.48,-148.69 513.9,-148.14 521.83,-155.17 524.48,-148.69"/>
</g>
<!-- Node10 -->
<g id="node10" class="node">
<title>Node10</title>
<g id="a_node10"><a xlink:href="config_8hpp.html" target="_top" xlink:title=" ">
<polygon fill="none" stroke="black" points="1964,-246.5 1964,-265.5 2032,-265.5 2032,-246.5 1964,-246.5"/>
<text text-anchor="middle" x="1998" y="-253.5" font-family="Helvetica,sans-Serif" font-size="10.00">config.hpp</text>
</a>
</g>
</g>
<!-- Node2&#45;&gt;Node10 -->
<g id="edge10" class="edge">
<title>Node2&#45;&gt;Node10</title>
<path fill="none" stroke="midnightblue" d="M1696.25,-311.18C1760,-300.75 1858.7,-284.18 1953.69,-266.2"/>
<polygon fill="midnightblue" stroke="midnightblue" points="1954.58,-269.59 1963.75,-264.28 1953.28,-262.71 1954.58,-269.59"/>
</g>
<!-- Node12 -->
<g id="node12" class="node">
<title>Node12</title>
<g id="a_node12"><a xlink:href="index_8hpp.html" target="_top" xlink:title=" ">
<polygon fill="none" stroke="black" points="1307.5,-246.5 1307.5,-265.5 1396.5,-265.5 1396.5,-246.5 1307.5,-246.5"/>
<text text-anchor="middle" x="1352" y="-253.5" font-family="Helvetica,sans-Serif" font-size="10.00">utils/index.hpp</text>
</a>
</g>
</g>
<!-- Node2&#45;&gt;Node12 -->
<g id="edge12" class="edge">
<title>Node2&#45;&gt;Node12</title>
<path fill="none" stroke="midnightblue" d="M1561.95,-306.27C1511.29,-294.38 1443.08,-278.37 1398.35,-267.88"/>
<polygon fill="midnightblue" stroke="midnightblue" points="1398.88,-264.41 1388.34,-265.53 1397.28,-271.22 1398.88,-264.41"/>
</g>
<!-- Node25 -->
<g id="node25" class="node">
<title>Node25</title>
<g id="a_node25"><a xlink:title=" ">
<polygon fill="none" stroke="#bfbfbf" points="1260,-129 1260,-148 1324,-148 1324,-129 1260,-129"/>
<text text-anchor="middle" x="1292" y="-136" font-family="Helvetica,sans-Serif" font-size="10.00">algorithm</text>
</a>
</g>
</g>
<!-- Node2&#45;&gt;Node25 -->
<g id="edge75" class="edge">
<title>Node2&#45;&gt;Node25</title>
<path fill="none" stroke="midnightblue" d="M1592.94,-302.47C1524.09,-265.19 1375.58,-184.76 1316.74,-152.9"/>
<polygon fill="midnightblue" stroke="midnightblue" points="1318.23,-149.73 1307.77,-148.04 1314.9,-155.88 1318.23,-149.73"/>
</g>
<!-- Node30 -->
<g id="node30" class="node">
<title>Node30</title>
<g id="a_node30"><a xlink:href="MpiCallbacks_8hpp.html" target="_top" xlink:title=" ">
<polygon fill="none" stroke="black" points="1837.5,-190.5 1837.5,-209.5 1940.5,-209.5 1940.5,-190.5 1837.5,-190.5"/>
<text text-anchor="middle" x="1889" y="-197.5" font-family="Helvetica,sans-Serif" font-size="10.00">MpiCallbacks.hpp</text>
</a>
</g>
</g>
<!-- Node2&#45;&gt;Node30 -->
<g id="edge43" class="edge">
<title>Node2&#45;&gt;Node30</title>
<path fill="none" stroke="midnightblue" d="M1671.06,-302.42C1724.62,-277.5 1815.67,-235.13 1861.26,-213.91"/>
<polygon fill="midnightblue" stroke="midnightblue" points="1862.94,-216.99 1870.53,-209.6 1859.99,-210.64 1862.94,-216.99"/>
</g>
<!-- Node45 -->
<g id="node45" class="node">
<title>Node45</title>
<g id="a_node45"><a xlink:href="communication_8hpp.html" target="_top" xlink:title=" ">
<polygon fill="none" stroke="black" points="1832.5,-246.5 1832.5,-265.5 1945.5,-265.5 1945.5,-246.5 1832.5,-246.5"/>
<text text-anchor="middle" x="1889" y="-253.5" font-family="Helvetica,sans-Serif" font-size="10.00">communication.hpp</text>
</a>
</g>
</g>
<!-- Node2&#45;&gt;Node45 -->
<g id="edge77" class="edge">
<title>Node2&#45;&gt;Node45</title>
<path fill="none" stroke="midnightblue" d="M1696.29,-305.18C1743.18,-293.46 1804.37,-278.16 1845.09,-267.98"/>
<polygon fill="midnightblue" stroke="midnightblue" points="1846.13,-271.33 1854.98,-265.51 1844.43,-264.54 1846.13,-271.33"/>
</g>
<!-- Node46 -->
<g id="node46" class="node">
<title>Node46</title>
<g id="a_node46"><a xlink:href="event_8hpp.html" target="_top" xlink:title=" ">
<polygon fill="none" stroke="black" points="2050.5,-246.5 2050.5,-265.5 2115.5,-265.5 2115.5,-246.5 2050.5,-246.5"/>
<text text-anchor="middle" x="2083" y="-253.5" font-family="Helvetica,sans-Serif" font-size="10.00">event.hpp</text>
</a>
</g>
</g>
<!-- Node2&#45;&gt;Node46 -->
<g id="edge82" class="edge">
<title>Node2&#45;&gt;Node46</title>
<path fill="none" stroke="midnightblue" d="M1696.32,-314.44C1776.02,-305.14 1912.95,-288.03 2040.54,-265.96"/>
<polygon fill="midnightblue" stroke="midnightblue" points="2041.24,-269.39 2050.49,-264.22 2040.04,-262.49 2041.24,-269.39"/>
</g>
<!-- Node47 -->
<g id="node47" class="node">
<title>Node47</title>
<g id="a_node47"><a xlink:title=" ">
<polygon fill="none" stroke="#bfbfbf" points="2134,-246.5 2134,-265.5 2178,-265.5 2178,-246.5 2134,-246.5"/>
<text text-anchor="middle" x="2156" y="-253.5" font-family="Helvetica,sans-Serif" font-size="10.00">string</text>
</a>
</g>
</g>
<!-- Node2&#45;&gt;Node47 -->
<g id="edge83" class="edge">
<title>Node2&#45;&gt;Node47</title>
<path fill="none" stroke="midnightblue" d="M1696.15,-318.06C1790.05,-311.73 1965.92,-296.97 2123.87,-265.92"/>
<polygon fill="midnightblue" stroke="midnightblue" points="2124.64,-269.33 2133.76,-263.95 2123.27,-262.47 2124.64,-269.33"/>
</g>
<!-- Node4 -->
<g id="node4" class="node">
<title>Node4</title>
<g id="a_node4"><a xlink:href="linear__interpolation_8hpp.html" target="_top" xlink:title=" ">
<polygon fill="none" stroke="black" points="358.5,-62 358.5,-81 515.5,-81 515.5,-62 358.5,-62"/>
<text text-anchor="middle" x="437" y="-69" font-family="Helvetica,sans-Serif" font-size="10.00">utils/linear_interpolation.hpp</text>
</a>
</g>
</g>
<!-- Node3&#45;&gt;Node4 -->
<g id="edge3" class="edge">
<title>Node3&#45;&gt;Node4</title>
<path fill="none" stroke="midnightblue" d="M353.2,-190.2C360.32,-175.66 375.58,-145.93 392,-123 400.76,-110.77 412.02,-98.13 421.09,-88.56"/>
<polygon fill="midnightblue" stroke="midnightblue" points="423.66,-90.94 428.09,-81.31 418.62,-86.07 423.66,-90.94"/>
</g>
<!-- Node3&#45;&gt;Node5 -->
<g id="edge8" class="edge">
<title>Node3&#45;&gt;Node5</title>
<path fill="none" stroke="midnightblue" d="M345.66,-190.36C336.87,-166.01 315.97,-96.02 349,-56 373.55,-26.25 486.85,-15.95 545.93,-12.56"/>
<polygon fill="midnightblue" stroke="midnightblue" points="546.16,-16.05 555.96,-12.02 545.78,-9.06 546.16,-16.05"/>
</g>
<!-- Node6 -->
<g id="node6" class="node">
<title>Node6</title>
<g id="a_node6"><a xlink:title=" ">
<polygon fill="none" stroke="#bfbfbf" points="28,-129 28,-148 176,-148 176,-129 28,-129"/>
<text text-anchor="middle" x="102" y="-136" font-family="Helvetica,sans-Serif" font-size="10.00">boost/algorithm/clamp.hpp</text>
</a>
</g>
</g>
<!-- Node3&#45;&gt;Node6 -->
<g id="edge5" class="edge">
<title>Node3&#45;&gt;Node6</title>
<path fill="none" stroke="midnightblue" d="M313.61,-190.48C269.77,-179.92 195.03,-161.91 147.12,-150.37"/>
<polygon fill="midnightblue" stroke="midnightblue" points="147.87,-146.95 137.32,-148.01 146.23,-153.75 147.87,-146.95"/>
</g>
<!-- Node7 -->
<g id="node7" class="node">
<title>Node7</title>
<g id="a_node7"><a xlink:title=" ">
<polygon fill="none" stroke="#bfbfbf" points="610.5,-56.5 610.5,-86.5 717.5,-86.5 717.5,-56.5 610.5,-56.5"/>
<text text-anchor="start" x="618.5" y="-74.5" font-family="Helvetica,sans-Serif" font-size="10.00">boost/serialization</text>
<text text-anchor="middle" x="664" y="-63.5" font-family="Helvetica,sans-Serif" font-size="10.00">/access.hpp</text>
</a>
</g>
</g>
<!-- Node3&#45;&gt;Node7 -->
<g id="edge6" class="edge">
<title>Node3&#45;&gt;Node7</title>
<path fill="none" stroke="midnightblue" d="M359.28,-190.35C378.45,-174.65 421.46,-141.4 463,-123 506.97,-103.52 559.83,-90.61 600.3,-82.73"/>
<polygon fill="midnightblue" stroke="midnightblue" points="601.13,-86.13 610.31,-80.83 599.83,-79.25 601.13,-86.13"/>
</g>
<!-- Node8 -->
<g id="node8" class="node">
<title>Node8</title>
<g id="a_node8"><a xlink:title=" ">
<polygon fill="none" stroke="#bfbfbf" points="194.5,-123.5 194.5,-153.5 301.5,-153.5 301.5,-123.5 194.5,-123.5"/>
<text text-anchor="start" x="202.5" y="-141.5" font-family="Helvetica,sans-Serif" font-size="10.00">boost/serialization</text>
<text text-anchor="middle" x="248" y="-130.5" font-family="Helvetica,sans-Serif" font-size="10.00">/vector.hpp</text>
</a>
</g>
</g>
<!-- Node3&#45;&gt;Node8 -->
<g id="edge7" class="edge">
<title>Node3&#45;&gt;Node8</title>
<path fill="none" stroke="midnightblue" d="M334.53,-190.48C320.59,-182.27 299.02,-169.56 280.9,-158.88"/>
<polygon fill="midnightblue" stroke="midnightblue" points="282.2,-155.58 271.8,-153.52 278.64,-161.61 282.2,-155.58"/>
</g>
<!-- Node3&#45;&gt;Node9 -->
<g id="edge9" class="edge">
<title>Node3&#45;&gt;Node9</title>
<path fill="none" stroke="midnightblue" d="M370.06,-190.48C395.06,-180.36 436.94,-163.4 465.49,-151.85"/>
<polygon fill="midnightblue" stroke="midnightblue" points="467.02,-155.01 474.98,-148.01 464.39,-148.52 467.02,-155.01"/>
</g>
<!-- Node4&#45;&gt;Node5 -->
<g id="edge4" class="edge">
<title>Node4&#45;&gt;Node5</title>
<path fill="none" stroke="midnightblue" d="M457.77,-61.98C482.43,-51.86 523.75,-34.9 551.9,-23.35"/>
<polygon fill="midnightblue" stroke="midnightblue" points="553.34,-26.54 561.26,-19.51 550.68,-20.07 553.34,-26.54"/>
</g>
<!-- Node11 -->
<g id="node11" class="node">
<title>Node11</title>
<g id="a_node11"><a xlink:title=" ">
<polygon fill="none" stroke="#bfbfbf" points="2851,-190.5 2851,-209.5 2963,-209.5 2963,-190.5 2851,-190.5"/>
<text text-anchor="middle" x="2907" y="-197.5" font-family="Helvetica,sans-Serif" font-size="10.00">config&#45;features.hpp</text>
</a>
</g>
</g>
<!-- Node10&#45;&gt;Node11 -->
<g id="edge11" class="edge">
<title>Node10&#45;&gt;Node11</title>
<path fill="none" stroke="midnightblue" d="M2032.02,-247.49C2035.38,-246.92 2038.75,-246.4 2042,-246 2393,-202.43 2484.63,-240.58 2837,-210 2838.27,-209.89 2839.55,-209.77 2840.84,-209.65"/>
<polygon fill="midnightblue" stroke="midnightblue" points="2841.29,-213.13 2850.88,-208.63 2840.58,-206.16 2841.29,-213.13"/>
</g>
<!-- Node12&#45;&gt;Node5 -->
<g id="edge13" class="edge">
<title>Node12&#45;&gt;Node5</title>
<path fill="none" stroke="midnightblue" d="M1307.47,-253.45C1135.02,-246.98 518.01,-219.37 463,-154 454.13,-143.46 456.17,-134.96 463,-123 478.61,-95.66 500.46,-107.9 524,-87 543.51,-69.68 560.92,-44.99 571.46,-28.5"/>
<polygon fill="midnightblue" stroke="midnightblue" points="574.53,-30.19 576.84,-19.85 568.58,-26.5 574.53,-30.19"/>
</g>
<!-- Node13 -->
<g id="node13" class="node">
<title>Node13</title>
<g id="a_node13"><a xlink:title=" ">
<polygon fill="none" stroke="#bfbfbf" points="1451.5,-0.5 1451.5,-19.5 1504.5,-19.5 1504.5,-0.5 1451.5,-0.5"/>
<text text-anchor="middle" x="1478" y="-7.5" font-family="Helvetica,sans-Serif" font-size="10.00">cstddef</text>
</a>
</g>
</g>
<!-- Node12&#45;&gt;Node13 -->
<g id="edge14" class="edge">
<title>Node12&#45;&gt;Node13</title>
<path fill="none" stroke="midnightblue" d="M1374.92,-246.39C1407.87,-232.62 1467.36,-202.16 1492,-154 1502.87,-132.75 1489.67,-63.36 1482.31,-29.68"/>
<polygon fill="midnightblue" stroke="midnightblue" points="1485.68,-28.74 1480.08,-19.75 1478.85,-30.27 1485.68,-28.74"/>
</g>
<!-- Node14 -->
<g id="node14" class="node">
<title>Node14</title>
<g id="a_node14"><a xlink:title=" ">
<polygon fill="none" stroke="#bfbfbf" points="1054.5,-62 1054.5,-81 1107.5,-81 1107.5,-62 1054.5,-62"/>
<text text-anchor="middle" x="1081" y="-69" font-family="Helvetica,sans-Serif" font-size="10.00">iterator</text>
</a>
</g>
</g>
<!-- Node12&#45;&gt;Node14 -->
<g id="edge15" class="edge">
<title>Node12&#45;&gt;Node14</title>
<path fill="none" stroke="midnightblue" d="M1353.8,-246.17C1358.04,-222.63 1365.95,-157.81 1333,-123 1332.07,-122.02 1187.77,-93.51 1117.98,-79.77"/>
<polygon fill="midnightblue" stroke="midnightblue" points="1118.34,-76.27 1107.85,-77.78 1116.98,-83.14 1118.34,-76.27"/>
</g>
<!-- Node15 -->
<g id="node15" class="node">
<title>Node15</title>
<g id="a_node15"><a xlink:title=" ">
<polygon fill="none" stroke="#bfbfbf" points="538,-129 538,-148 594,-148 594,-129 538,-129"/>
<text text-anchor="middle" x="566" y="-136" font-family="Helvetica,sans-Serif" font-size="10.00">numeric</text>
</a>
</g>
</g>
<!-- Node12&#45;&gt;Node15 -->
<g id="edge16" class="edge">
<title>Node12&#45;&gt;Node15</title>
<path fill="none" stroke="midnightblue" d="M1307.41,-252.03C1191.01,-243.62 868.91,-216.1 608,-154 604.59,-153.19 601.08,-152.21 597.59,-151.15"/>
<polygon fill="midnightblue" stroke="midnightblue" points="598.58,-147.79 587.99,-148.01 596.41,-154.44 598.58,-147.79"/>
</g>
<!-- Node16 -->
<g id="node16" class="node">
<title>Node16</title>
<g id="a_node16"><a xlink:title=" ">
<polygon fill="none" stroke="#bfbfbf" points="1164.5,-62 1164.5,-81 1229.5,-81 1229.5,-62 1164.5,-62"/>
<text text-anchor="middle" x="1197" y="-69" font-family="Helvetica,sans-Serif" font-size="10.00">stdexcept</text>
</a>
</g>
</g>
<!-- Node12&#45;&gt;Node16 -->
<g id="edge17" class="edge">
<title>Node12&#45;&gt;Node16</title>
<path fill="none" stroke="midnightblue" d="M1356.65,-246.21C1368.04,-223.33 1394.42,-161.02 1366,-123 1332.15,-77.72 1298.12,-103.33 1244,-87 1240.89,-86.06 1237.67,-85.08 1234.44,-84.1"/>
<polygon fill="midnightblue" stroke="midnightblue" points="1235.4,-80.73 1224.82,-81.14 1233.35,-87.42 1235.4,-80.73"/>
</g>
<!-- Node17 -->
<g id="node17" class="node">
<title>Node17</title>
<g id="a_node17"><a xlink:href="Vector_8hpp.html" target="_top" xlink:title=" ">
<polygon fill="none" stroke="black" points="1095.5,-190.5 1095.5,-209.5 1164.5,-209.5 1164.5,-190.5 1095.5,-190.5"/>
<text text-anchor="middle" x="1130" y="-197.5" font-family="Helvetica,sans-Serif" font-size="10.00">Vector.hpp</text>
</a>
</g>
</g>
<!-- Node12&#45;&gt;Node17 -->
<g id="edge18" class="edge">
<title>Node12&#45;&gt;Node17</title>
<path fill="none" stroke="midnightblue" d="M1316.82,-246.44C1278.31,-237.07 1216.46,-222.03 1174.58,-211.84"/>
<polygon fill="midnightblue" stroke="midnightblue" points="1175.19,-208.39 1164.65,-209.43 1173.54,-215.19 1175.19,-208.39"/>
</g>
<!-- Node17&#45;&gt;Node5 -->
<g id="edge34" class="edge">
<title>Node17&#45;&gt;Node5</title>
<path fill="none" stroke="midnightblue" d="M1095.39,-197.62C990.23,-193.18 679.28,-178.11 641,-154 598.1,-126.97 586.38,-62.02 583.19,-29.79"/>
<polygon fill="midnightblue" stroke="midnightblue" points="586.66,-29.22 582.36,-19.53 579.68,-29.78 586.66,-29.22"/>
</g>
<!-- Node17&#45;&gt;Node9 -->
<g id="edge42" class="edge">
<title>Node17&#45;&gt;Node9</title>
<path fill="none" stroke="midnightblue" d="M1095.16,-197.94C983.81,-194.3 637.5,-181.06 529,-154 526.64,-153.41 524.24,-152.67 521.87,-151.83"/>
<polygon fill="midnightblue" stroke="midnightblue" points="522.98,-148.51 512.4,-148.01 520.36,-155 522.98,-148.51"/>
</g>
<!-- Node17&#45;&gt;Node13 -->
<g id="edge36" class="edge">
<title>Node17&#45;&gt;Node13</title>
<path fill="none" stroke="midnightblue" d="M1136.04,-190.18C1141.65,-181.43 1149.62,-167.44 1153,-154 1163.63,-111.75 1126.03,-88.54 1155,-56 1194.07,-12.1 1358.82,-28.29 1417,-20 1424.81,-18.89 1433.18,-17.67 1441.14,-16.5"/>
<polygon fill="midnightblue" stroke="midnightblue" points="1441.9,-19.92 1451.28,-15 1440.88,-13 1441.9,-19.92"/>
</g>
<!-- Node17&#45;&gt;Node14 -->
<g id="edge39" class="edge">
<title>Node17&#45;&gt;Node14</title>
<path fill="none" stroke="midnightblue" d="M1133.32,-190.12C1138.25,-175.45 1145.9,-145.54 1136,-123 1129.45,-108.1 1116.1,-95.67 1104.19,-86.87"/>
<polygon fill="midnightblue" stroke="midnightblue" points="1106.11,-83.94 1095.9,-81.12 1102.12,-89.69 1106.11,-83.94"/>
</g>
<!-- Node17&#45;&gt;Node15 -->
<g id="edge40" class="edge">
<title>Node17&#45;&gt;Node15</title>
<path fill="none" stroke="midnightblue" d="M1095.37,-198.94C1011.02,-198.18 788.62,-192.35 608,-154 604.5,-153.26 600.89,-152.31 597.32,-151.25"/>
<polygon fill="midnightblue" stroke="midnightblue" points="598.1,-147.82 587.51,-148.06 595.94,-154.48 598.1,-147.82"/>
</g>
<!-- Node18 -->
<g id="node18" class="node">
<title>Node18</title>
<g id="a_node18"><a xlink:title=" ">
<polygon fill="none" stroke="#bfbfbf" points="754,-129 754,-148 904,-148 904,-129 754,-129"/>
<text text-anchor="middle" x="829" y="-136" font-family="Helvetica,sans-Serif" font-size="10.00">boost/qvm/deduce_vec.hpp</text>
</a>
</g>
</g>
<!-- Node17&#45;&gt;Node18 -->
<g id="edge19" class="edge">
<title>Node17&#45;&gt;Node18</title>
<path fill="none" stroke="midnightblue" d="M1095.47,-192.17C1043.18,-181.84 943.48,-162.13 881.97,-149.97"/>
<polygon fill="midnightblue" stroke="midnightblue" points="882.56,-146.52 872.07,-148.01 881.2,-153.39 882.56,-146.52"/>
</g>
<!-- Node19 -->
<g id="node19" class="node">
<title>Node19</title>
<g id="a_node19"><a xlink:title=" ">
<polygon fill="none" stroke="#bfbfbf" points="922,-129 922,-148 1062,-148 1062,-129 922,-129"/>
<text text-anchor="middle" x="992" y="-136" font-family="Helvetica,sans-Serif" font-size="10.00">boost/qvm/vec_traits.hpp</text>
</a>
</g>
</g>
<!-- Node17&#45;&gt;Node19 -->
<g id="edge20" class="edge">
<title>Node17&#45;&gt;Node19</title>
<path fill="none" stroke="midnightblue" d="M1110.23,-190.48C1086.86,-180.4 1047.79,-163.55 1021,-152"/>
<polygon fill="midnightblue" stroke="midnightblue" points="1022.3,-148.75 1011.74,-148.01 1019.53,-155.18 1022.3,-148.75"/>
</g>
<!-- Node20 -->
<g id="node20" class="node">
<title>Node20</title>
<g id="a_node20"><a xlink:href="Array_8hpp.html" target="_top" xlink:title=" ">
<polygon fill="none" stroke="black" points="650,-129 650,-148 736,-148 736,-129 650,-129"/>
<text text-anchor="middle" x="693" y="-136" font-family="Helvetica,sans-Serif" font-size="10.00">utils/Array.hpp</text>
</a>
</g>
</g>
<!-- Node17&#45;&gt;Node20 -->
<g id="edge21" class="edge">
<title>Node17&#45;&gt;Node20</title>
<path fill="none" stroke="midnightblue" d="M1095.47,-196.77C1027.75,-192.01 872.94,-179.16 745,-154 740.25,-153.07 735.3,-151.92 730.42,-150.68"/>
<polygon fill="midnightblue" stroke="midnightblue" points="731.17,-147.26 720.6,-148.06 729.36,-154.02 731.17,-147.26"/>
</g>
<!-- Node17&#45;&gt;Node25 -->
<g id="edge33" class="edge">
<title>Node17&#45;&gt;Node25</title>
<path fill="none" stroke="midnightblue" d="M1153.21,-190.48C1181,-180.27 1227.72,-163.11 1259.19,-151.55"/>
<polygon fill="midnightblue" stroke="midnightblue" points="1260.65,-154.74 1268.83,-148.01 1258.24,-148.17 1260.65,-154.74"/>
</g>
<!-- Node26 -->
<g id="node26" class="node">
<title>Node26</title>
<g id="a_node26"><a xlink:title=" ">
<polygon fill="none" stroke="#bfbfbf" points="1080.5,-129 1080.5,-148 1127.5,-148 1127.5,-129 1080.5,-129"/>
<text text-anchor="middle" x="1104" y="-136" font-family="Helvetica,sans-Serif" font-size="10.00">cmath</text>
</a>
</g>
</g>
<!-- Node17&#45;&gt;Node26 -->
<g id="edge35" class="edge">
<title>Node17&#45;&gt;Node26</title>
<path fill="none" stroke="midnightblue" d="M1126.27,-190.48C1122.53,-181.9 1116.64,-168.43 1111.86,-157.48"/>
<polygon fill="midnightblue" stroke="midnightblue" points="1114.93,-155.77 1107.72,-148.01 1108.52,-158.57 1114.93,-155.77"/>
</g>
<!-- Node27 -->
<g id="node27" class="node">
<title>Node27</title>
<g id="a_node27"><a xlink:title=" ">
<polygon fill="none" stroke="#bfbfbf" points="1418.5,-129 1418.5,-148 1483.5,-148 1483.5,-129 1418.5,-129"/>
<text text-anchor="middle" x="1451" y="-136" font-family="Helvetica,sans-Serif" font-size="10.00">functional</text>
</a>
</g>
</g>
<!-- Node17&#45;&gt;Node27 -->
<g id="edge37" class="edge">
<title>Node17&#45;&gt;Node27</title>
<path fill="none" stroke="midnightblue" d="M1164.66,-192.58C1223.78,-181.62 1343.96,-159.34 1408.22,-147.43"/>
<polygon fill="midnightblue" stroke="midnightblue" points="1409.21,-150.81 1418.41,-145.54 1407.94,-143.92 1409.21,-150.81"/>
</g>
<!-- Node28 -->
<g id="node28" class="node">
<title>Node28</title>
<g id="a_node28"><a xlink:title=" ">
<polygon fill="none" stroke="#bfbfbf" points="1540.5,-129 1540.5,-148 1623.5,-148 1623.5,-129 1540.5,-129"/>
<text text-anchor="middle" x="1582" y="-136" font-family="Helvetica,sans-Serif" font-size="10.00">initializer_list</text>
</a>
</g>
</g>
<!-- Node17&#45;&gt;Node28 -->
<g id="edge38" class="edge">
<title>Node17&#45;&gt;Node28</title>
<path fill="none" stroke="midnightblue" d="M1164.75,-195.1C1229.31,-187.77 1372.09,-171.11 1492,-154 1504.49,-152.22 1517.92,-150.14 1530.5,-148.12"/>
<polygon fill="midnightblue" stroke="midnightblue" points="1531.06,-151.58 1540.38,-146.53 1529.95,-144.67 1531.06,-151.58"/>
</g>
<!-- Node29 -->
<g id="node29" class="node">
<title>Node29</title>
<g id="a_node29"><a xlink:title=" ">
<polygon fill="none" stroke="#bfbfbf" points="1823.5,-0.5 1823.5,-19.5 1892.5,-19.5 1892.5,-0.5 1823.5,-0.5"/>
<text text-anchor="middle" x="1858" y="-7.5" font-family="Helvetica,sans-Serif" font-size="10.00">type_traits</text>
</a>
</g>
</g>
<!-- Node17&#45;&gt;Node29 -->
<g id="edge41" class="edge">
<title>Node17&#45;&gt;Node29</title>
<path fill="none" stroke="midnightblue" d="M1140.17,-190.33C1159.99,-173.99 1205.81,-138.83 1251,-123 1384.82,-76.12 1430.54,-121.79 1568,-87 1603.76,-77.95 1609.71,-66.74 1645,-56 1647.03,-55.38 1751.49,-33.39 1813.35,-20.38"/>
<polygon fill="midnightblue" stroke="midnightblue" points="1814.19,-23.78 1823.26,-18.3 1812.75,-16.93 1814.19,-23.78"/>
</g>
<!-- Node20&#45;&gt;Node5 -->
<g id="edge28" class="edge">
<title>Node20&#45;&gt;Node5</title>
<path fill="none" stroke="midnightblue" d="M722.96,-128.98C770.69,-115.35 858.88,-89.85 861,-87 869.22,-75.94 869.93,-66.49 861,-56 830.28,-19.92 687.07,-12.67 618.62,-11.28"/>
<polygon fill="midnightblue" stroke="midnightblue" points="618.36,-7.78 608.31,-11.11 618.24,-14.78 618.36,-7.78"/>
</g>
<!-- Node20&#45;&gt;Node7 -->
<g id="edge27" class="edge">
<title>Node20&#45;&gt;Node7</title>
<path fill="none" stroke="midnightblue" d="M689.09,-128.73C685.36,-120.37 679.57,-107.4 674.49,-96.02"/>
<polygon fill="midnightblue" stroke="midnightblue" points="677.56,-94.3 670.29,-86.59 671.16,-97.15 677.56,-94.3"/>
</g>
<!-- Node20&#45;&gt;Node13 -->
<g id="edge29" class="edge">
<title>Node20&#45;&gt;Node13</title>
<path fill="none" stroke="midnightblue" d="M721.19,-129C728.87,-126.86 737.22,-124.69 745,-123 845.68,-101.13 875.09,-115.85 974,-87 1007.05,-77.36 1011.67,-64.65 1045,-56 1205.77,-14.25 1252.12,-40.13 1417,-20 1424.83,-19.04 1433.21,-17.89 1441.17,-16.74"/>
<polygon fill="midnightblue" stroke="midnightblue" points="1441.94,-20.16 1451.32,-15.23 1440.91,-13.24 1441.94,-20.16"/>
</g>
<!-- Node20&#45;&gt;Node14 -->
<g id="edge30" class="edge">
<title>Node20&#45;&gt;Node14</title>
<path fill="none" stroke="midnightblue" d="M720.89,-128.93C728.64,-126.77 737.1,-124.6 745,-123 867.09,-98.2 900.58,-110.15 1023,-87 1029.92,-85.69 1037.25,-84.06 1044.28,-82.36"/>
<polygon fill="midnightblue" stroke="midnightblue" points="1045.43,-85.68 1054.29,-79.87 1043.74,-78.89 1045.43,-85.68"/>
</g>
<!-- Node20&#45;&gt;Node16 -->
<g id="edge32" class="edge">
<title>Node20&#45;&gt;Node16</title>
<path fill="none" stroke="midnightblue" d="M720.05,-128.99C728.02,-126.75 736.8,-124.53 745,-123 907.86,-92.64 951.89,-109.61 1116,-87 1128.49,-85.28 1142,-83.02 1154.34,-80.8"/>
<polygon fill="midnightblue" stroke="midnightblue" points="1155.18,-84.2 1164.38,-78.96 1153.92,-77.32 1155.18,-84.2"/>
</g>
<!-- Node21 -->
<g id="node21" class="node">
<title>Node21</title>
<g id="a_node21"><a xlink:href="device__qualifier_8hpp.html" target="_top" xlink:title=" ">
<polygon fill="none" stroke="black" points="736,-62 736,-81 852,-81 852,-62 736,-62"/>
<text text-anchor="middle" x="794" y="-69" font-family="Helvetica,sans-Serif" font-size="10.00">device_qualifier.hpp</text>
</a>
</g>
</g>
<!-- Node20&#45;&gt;Node21 -->
<g id="edge22" class="edge">
<title>Node20&#45;&gt;Node21</title>
<path fill="none" stroke="midnightblue" d="M706.62,-128.73C723.43,-117.92 752.23,-99.38 772.14,-86.57"/>
<polygon fill="midnightblue" stroke="midnightblue" points="774.08,-89.48 780.59,-81.13 770.29,-83.6 774.08,-89.48"/>
</g>
<!-- Node22 -->
<g id="node22" class="node">
<title>Node22</title>
<g id="a_node22"><a xlink:href="get_8hpp.html" target="_top" xlink:title=" ">
<polygon fill="none" stroke="black" points="1506.5,-62 1506.5,-81 1559.5,-81 1559.5,-62 1506.5,-62"/>
<text text-anchor="middle" x="1533" y="-69" font-family="Helvetica,sans-Serif" font-size="10.00">get.hpp</text>
</a>
</g>
</g>
<!-- Node20&#45;&gt;Node22 -->
<g id="edge24" class="edge">
<title>Node20&#45;&gt;Node22</title>
<path fill="none" stroke="midnightblue" d="M719.2,-128.98C727.38,-126.65 736.49,-124.38 745,-123 1058.62,-72.02 1143.62,-125.65 1459,-87 1471.26,-85.5 1484.54,-83.13 1496.41,-80.75"/>
<polygon fill="midnightblue" stroke="midnightblue" points="1497.35,-84.13 1506.43,-78.66 1495.93,-77.27 1497.35,-84.13"/>
</g>
<!-- Node24 -->
<g id="node24" class="node">
<title>Node24</title>
<g id="a_node24"><a xlink:title=" ">
<polygon fill="none" stroke="#bfbfbf" points="908.5,-62 908.5,-81 965.5,-81 965.5,-62 908.5,-62"/>
<text text-anchor="middle" x="937" y="-69" font-family="Helvetica,sans-Serif" font-size="10.00">ostream</text>
</a>
</g>
</g>
<!-- Node20&#45;&gt;Node24 -->
<g id="edge31" class="edge">
<title>Node20&#45;&gt;Node24</title>
<path fill="none" stroke="midnightblue" d="M722.92,-128.96C730.14,-126.96 737.83,-124.86 745,-123 810.93,-105.85 828.55,-105.9 894,-87 897.01,-86.13 900.11,-85.18 903.22,-84.2"/>
<polygon fill="midnightblue" stroke="midnightblue" points="904.59,-87.44 913.01,-81.01 902.42,-80.78 904.59,-87.44"/>
</g>
<!-- Node21&#45;&gt;Node5 -->
<g id="edge23" class="edge">
<title>Node21&#45;&gt;Node5</title>
<path fill="none" stroke="midnightblue" d="M763.63,-61.98C725.21,-51.19 659.13,-32.65 618.15,-21.15"/>
<polygon fill="midnightblue" stroke="midnightblue" points="618.88,-17.72 608.31,-18.38 616.99,-24.46 618.88,-17.72"/>
</g>
<!-- Node22&#45;&gt;Node13 -->
<g id="edge25" class="edge">
<title>Node22&#45;&gt;Node13</title>
<path fill="none" stroke="midnightblue" d="M1525.12,-61.98C1516.71,-52.87 1503.18,-38.24 1492.77,-26.98"/>
<polygon fill="midnightblue" stroke="midnightblue" points="1495.22,-24.48 1485.87,-19.51 1490.08,-29.23 1495.22,-24.48"/>
</g>
<!-- Node23 -->
<g id="node23" class="node">
<title>Node23</title>
<g id="a_node23"><a xlink:title=" ">
<polygon fill="none" stroke="#bfbfbf" points="1764.5,-0.5 1764.5,-19.5 1805.5,-19.5 1805.5,-0.5 1764.5,-0.5"/>
<text text-anchor="middle" x="1785" y="-7.5" font-family="Helvetica,sans-Serif" font-size="10.00">tuple</text>
</a>
</g>
</g>
<!-- Node22&#45;&gt;Node23 -->
<g id="edge26" class="edge">
<title>Node22&#45;&gt;Node23</title>
<path fill="none" stroke="midnightblue" d="M1555.38,-61.98C1561.38,-59.86 1567.89,-57.71 1574,-56 1648.77,-35.01 1669.11,-36.52 1745,-20 1748.03,-19.34 1751.19,-18.64 1754.35,-17.94"/>
<polygon fill="midnightblue" stroke="midnightblue" points="1755.26,-21.33 1764.25,-15.73 1753.73,-14.49 1755.26,-21.33"/>
</g>
<!-- Node30&#45;&gt;Node5 -->
<g id="edge67" class="edge">
<title>Node30&#45;&gt;Node5</title>
<path fill="none" stroke="midnightblue" d="M1837.3,-196.4C1790.38,-192.27 1720.43,-181.59 1666,-154 1647.76,-144.75 1650.67,-131.34 1632,-123 1487.21,-58.31 1423.9,-146.75 1277,-87 1256.49,-78.66 1258.64,-64.01 1238,-56 1123.58,-11.62 738.61,-10.04 618.27,-10.68"/>
<polygon fill="midnightblue" stroke="midnightblue" points="618.09,-7.18 608.11,-10.74 618.13,-14.18 618.09,-7.18"/>
</g>
<!-- Node30&#45;&gt;Node9 -->
<g id="edge74" class="edge">
<title>Node30&#45;&gt;Node9</title>
<path fill="none" stroke="midnightblue" d="M1837.39,-198.45C1604.61,-195.81 658.15,-183.36 529,-154 526.49,-153.43 523.94,-152.67 521.41,-151.79"/>
<polygon fill="midnightblue" stroke="midnightblue" points="522.61,-148.5 512.03,-148 519.99,-154.99 522.61,-148.5"/>
</g>
<!-- Node30&#45;&gt;Node23 -->
<g id="edge71" class="edge">
<title>Node30&#45;&gt;Node23</title>
<path fill="none" stroke="midnightblue" d="M1884.97,-190.47C1878.23,-176.3 1864.11,-147.1 1851,-123 1832.49,-88.96 1809.12,-50.2 1795.73,-28.36"/>
<polygon fill="midnightblue" stroke="midnightblue" points="1798.56,-26.28 1790.34,-19.6 1792.6,-29.95 1798.56,-26.28"/>
</g>
<!-- Node30&#45;&gt;Node27 -->
<g id="edge68" class="edge">
<title>Node30&#45;&gt;Node27</title>
<path fill="none" stroke="midnightblue" d="M1837.3,-193.39C1767.59,-185.63 1639.67,-170.66 1531,-154 1518.79,-152.13 1505.58,-149.84 1493.48,-147.64"/>
<polygon fill="midnightblue" stroke="midnightblue" points="1494.1,-144.2 1483.63,-145.83 1492.83,-151.08 1494.1,-144.2"/>
</g>
<!-- Node30&#45;&gt;Node28 -->
<g id="edge69" class="edge">
<title>Node30&#45;&gt;Node28</title>
<path fill="none" stroke="midnightblue" d="M1837.34,-190.92C1786.43,-182.67 1706.55,-169 1638,-154 1633.22,-152.95 1628.24,-151.78 1623.3,-150.57"/>
<polygon fill="midnightblue" stroke="midnightblue" points="1623.85,-147.1 1613.29,-148.05 1622.14,-153.89 1623.85,-147.1"/>
</g>
<!-- Node30&#45;&gt;Node29 -->
<g id="edge72" class="edge">
<title>Node30&#45;&gt;Node29</title>
<path fill="none" stroke="midnightblue" d="M1890.37,-190.38C1893.63,-167.75 1900.57,-105.04 1886,-56 1882.99,-45.87 1877.05,-35.78 1871.41,-27.73"/>
<polygon fill="midnightblue" stroke="midnightblue" points="1874.14,-25.53 1865.35,-19.61 1868.53,-29.71 1874.14,-25.53"/>
</g>
<!-- Node31 -->
<g id="node31" class="node">
<title>Node31</title>
<g id="a_node31"><a xlink:href="NumeratedContainer_8hpp.html" target="_top" xlink:title=" ">
<polygon fill="none" stroke="black" points="1286,-62 1286,-81 1450,-81 1450,-62 1286,-62"/>
<text text-anchor="middle" x="1368" y="-69" font-family="Helvetica,sans-Serif" font-size="10.00">utils/NumeratedContainer.hpp</text>
</a>
</g>
</g>
<!-- Node30&#45;&gt;Node31 -->
<g id="edge44" class="edge">
<title>Node30&#45;&gt;Node31</title>
<path fill="none" stroke="midnightblue" d="M1846.85,-190.44C1812.76,-182.84 1763.88,-170.39 1723,-154 1696.23,-143.27 1693.25,-132.43 1666,-123 1625.98,-109.16 1517.96,-92.7 1443.6,-82.42"/>
<polygon fill="midnightblue" stroke="midnightblue" points="1443.72,-78.9 1433.34,-81.01 1442.77,-85.84 1443.72,-78.9"/>
</g>
<!-- Node34 -->
<g id="node34" class="node">
<title>Node34</title>
<g id="a_node34"><a xlink:href="as__const_8hpp.html" target="_top" xlink:title=" ">
<polygon fill="none" stroke="black" points="1938,-62 1938,-81 2042,-81 2042,-62 1938,-62"/>
<text text-anchor="middle" x="1990" y="-69" font-family="Helvetica,sans-Serif" font-size="10.00">utils/as_const.hpp</text>
</a>
</g>
</g>
<!-- Node30&#45;&gt;Node34 -->
<g id="edge49" class="edge">
<title>Node30&#45;&gt;Node34</title>
<path fill="none" stroke="midnightblue" d="M1895.94,-190.31C1912.59,-169.45 1955.02,-116.31 1976.74,-89.11"/>
<polygon fill="midnightblue" stroke="midnightblue" points="1979.5,-91.25 1983.01,-81.26 1974.03,-86.89 1979.5,-91.25"/>
</g>
<!-- Node35 -->
<g id="node35" class="node">
<title>Node35</title>
<g id="a_node35"><a xlink:href="tuple_8hpp.html" target="_top" xlink:title=" ">
<polygon fill="none" stroke="black" points="1756,-129 1756,-148 1842,-148 1842,-129 1756,-129"/>
<text text-anchor="middle" x="1799" y="-136" font-family="Helvetica,sans-Serif" font-size="10.00">utils/tuple.hpp</text>
</a>
</g>
</g>
<!-- Node30&#45;&gt;Node35 -->
<g id="edge51" class="edge">
<title>Node30&#45;&gt;Node35</title>
<path fill="none" stroke="midnightblue" d="M1876.11,-190.48C1861.54,-180.84 1837.6,-165.02 1820.25,-153.55"/>
<polygon fill="midnightblue" stroke="midnightblue" points="1822.14,-150.6 1811.87,-148.01 1818.28,-156.44 1822.14,-150.6"/>
</g>
<!-- Node36 -->
<g id="node36" class="node">
<title>Node36</title>
<g id="a_node36"><a xlink:href="type__traits_8hpp.html" target="_top" xlink:title=" ">
<polygon fill="none" stroke="black" points="1654,-62 1654,-81 1768,-81 1768,-62 1654,-62"/>
<text text-anchor="middle" x="1711" y="-69" font-family="Helvetica,sans-Serif" font-size="10.00">utils/type_traits.hpp</text>
</a>
</g>
</g>
<!-- Node30&#45;&gt;Node36 -->
<g id="edge61" class="edge">
<title>Node30&#45;&gt;Node36</title>
<path fill="none" stroke="midnightblue" d="M1837.17,-193.21C1807.7,-187.52 1771.84,-176.27 1747,-154 1728.41,-137.33 1718.95,-109.28 1714.5,-90.83"/>
<polygon fill="midnightblue" stroke="midnightblue" points="1717.91,-90.04 1712.38,-81 1711.07,-91.51 1717.91,-90.04"/>
</g>
<!-- Node38 -->
<g id="node38" class="node">
<title>Node38</title>
<g id="a_node38"><a xlink:title=" ">
<polygon fill="none" stroke="#bfbfbf" points="2060.5,-62 2060.5,-81 2105.5,-81 2105.5,-62 2060.5,-62"/>
<text text-anchor="middle" x="2083" y="-69" font-family="Helvetica,sans-Serif" font-size="10.00">utility</text>
</a>
</g>
</g>
<!-- Node30&#45;&gt;Node38 -->
<g id="edge73" class="edge">
<title>Node30&#45;&gt;Node38</title>
<path fill="none" stroke="midnightblue" d="M1902.06,-190.27C1923.35,-176.07 1966.88,-147.13 2004,-123 2023.17,-110.54 2045.08,-96.55 2060.96,-86.46"/>
<polygon fill="midnightblue" stroke="midnightblue" points="2062.97,-89.33 2069.54,-81.02 2059.22,-83.42 2062.97,-89.33"/>
</g>
<!-- Node39 -->
<g id="node39" class="node">
<title>Node39</title>
<g id="a_node39"><a xlink:title=" ">
<polygon fill="none" stroke="#bfbfbf" points="2012.5,-123.5 2012.5,-153.5 2133.5,-153.5 2133.5,-123.5 2012.5,-123.5"/>
<text text-anchor="start" x="2020.5" y="-141.5" font-family="Helvetica,sans-Serif" font-size="10.00">boost/mpi/collectives</text>
<text text-anchor="middle" x="2073" y="-130.5" font-family="Helvetica,sans-Serif" font-size="10.00">/all_reduce.hpp</text>
</a>
</g>
</g>
<!-- Node30&#45;&gt;Node39 -->
<g id="edge62" class="edge">
<title>Node30&#45;&gt;Node39</title>
<path fill="none" stroke="midnightblue" d="M1915.36,-190.48C1942.5,-181.7 1985.52,-167.79 2019.77,-156.71"/>
<polygon fill="midnightblue" stroke="midnightblue" points="2021.2,-159.93 2029.63,-153.52 2019.04,-153.27 2021.2,-159.93"/>
</g>
<!-- Node40 -->
<g id="node40" class="node">
<title>Node40</title>
<g id="a_node40"><a xlink:title=" ">
<polygon fill="none" stroke="#bfbfbf" points="2151.5,-123.5 2151.5,-153.5 2272.5,-153.5 2272.5,-123.5 2151.5,-123.5"/>
<text text-anchor="start" x="2159.5" y="-141.5" font-family="Helvetica,sans-Serif" font-size="10.00">boost/mpi/collectives</text>
<text text-anchor="middle" x="2212" y="-130.5" font-family="Helvetica,sans-Serif" font-size="10.00">/broadcast.hpp</text>
</a>
</g>
</g>
<!-- Node30&#45;&gt;Node40 -->
<g id="edge63" class="edge">
<title>Node30&#45;&gt;Node40</title>
<path fill="none" stroke="midnightblue" d="M1940.17,-190.43C1989.32,-182.08 2065.94,-168.78 2141.3,-154.3"/>
<polygon fill="midnightblue" stroke="midnightblue" points="2142.28,-157.67 2151.44,-152.34 2140.96,-150.8 2142.28,-157.67"/>
</g>
<!-- Node41 -->
<g id="node41" class="node">
<title>Node41</title>
<g id="a_node41"><a xlink:title=" ">
<polygon fill="none" stroke="#bfbfbf" points="2559,-129 2559,-148 2719,-148 2719,-129 2559,-129"/>
<text text-anchor="middle" x="2639" y="-136" font-family="Helvetica,sans-Serif" font-size="10.00">boost/mpi/communicator.hpp</text>
</a>
</g>
</g>
<!-- Node30&#45;&gt;Node41 -->
<g id="edge64" class="edge">
<title>Node30&#45;&gt;Node41</title>
<path fill="none" stroke="midnightblue" d="M1940.57,-197.13C2052.07,-192.73 2323.75,-180.07 2550,-154 2560.37,-152.8 2571.38,-151.25 2581.99,-149.6"/>
<polygon fill="midnightblue" stroke="midnightblue" points="2582.68,-153.03 2592,-148 2581.57,-146.12 2582.68,-153.03"/>
</g>
<!-- Node42 -->
<g id="node42" class="node">
<title>Node42</title>
<g id="a_node42"><a xlink:title=" ">
<polygon fill="none" stroke="#bfbfbf" points="2290.5,-129 2290.5,-148 2397.5,-148 2397.5,-129 2290.5,-129"/>
<text text-anchor="middle" x="2344" y="-136" font-family="Helvetica,sans-Serif" font-size="10.00">boost/optional.hpp</text>
</a>
</g>
</g>
<!-- Node30&#45;&gt;Node42 -->
<g id="edge65" class="edge">
<title>Node30&#45;&gt;Node42</title>
<path fill="none" stroke="midnightblue" d="M1940.77,-194.99C2016.2,-188.72 2160.54,-175.08 2282,-154 2288.15,-152.93 2294.6,-151.63 2300.92,-150.25"/>
<polygon fill="midnightblue" stroke="midnightblue" points="2301.7,-153.66 2310.68,-148.04 2300.16,-146.84 2301.7,-153.66"/>
</g>
<!-- Node43 -->
<g id="node43" class="node">
<title>Node43</title>
<g id="a_node43"><a xlink:title=" ">
<polygon fill="none" stroke="#bfbfbf" points="2415.5,-123.5 2415.5,-153.5 2540.5,-153.5 2540.5,-123.5 2415.5,-123.5"/>
<text text-anchor="start" x="2423.5" y="-141.5" font-family="Helvetica,sans-Serif" font-size="10.00">boost/range/algorithm</text>
<text text-anchor="middle" x="2478" y="-130.5" font-family="Helvetica,sans-Serif" font-size="10.00">/remove_if.hpp</text>
</a>
</g>
</g>
<!-- Node30&#45;&gt;Node43 -->
<g id="edge66" class="edge">
<title>Node30&#45;&gt;Node43</title>
<path fill="none" stroke="midnightblue" d="M1940.69,-196.48C2032.41,-191.58 2229.76,-179.1 2405.41,-154.13"/>
<polygon fill="midnightblue" stroke="midnightblue" points="2405.95,-157.59 2415.35,-152.7 2404.95,-150.66 2405.95,-157.59"/>
</g>
<!-- Node44 -->
<g id="node44" class="node">
<title>Node44</title>
<g id="a_node44"><a xlink:title=" ">
<polygon fill="none" stroke="#bfbfbf" points="2737,-129 2737,-148 2795,-148 2795,-129 2737,-129"/>
<text text-anchor="middle" x="2766" y="-136" font-family="Helvetica,sans-Serif" font-size="10.00">memory</text>
</a>
</g>
</g>
<!-- Node30&#45;&gt;Node44 -->
<g id="edge70" class="edge">
<title>Node30&#45;&gt;Node44</title>
<path fill="none" stroke="midnightblue" d="M1940.59,-198.33C2098.94,-195.93 2576.48,-186.15 2728,-154 2731.08,-153.35 2734.24,-152.48 2737.35,-151.5"/>
<polygon fill="midnightblue" stroke="midnightblue" points="2738.77,-154.71 2747.02,-148.07 2736.43,-148.11 2738.77,-154.71"/>
</g>
<!-- Node31&#45;&gt;Node5 -->
<g id="edge45" class="edge">
<title>Node31&#45;&gt;Node5</title>
<path fill="none" stroke="midnightblue" d="M1316.79,-61.94C1302.34,-59.75 1286.58,-57.57 1272,-56 1022.72,-29.09 720.92,-16.14 618.22,-12.28"/>
<polygon fill="midnightblue" stroke="midnightblue" points="618.2,-8.78 608.07,-11.9 617.94,-15.77 618.2,-8.78"/>
</g>
<!-- Node31&#45;&gt;Node13 -->
<g id="edge46" class="edge">
<title>Node31&#45;&gt;Node13</title>
<path fill="none" stroke="midnightblue" d="M1383.76,-61.98C1401.98,-52.12 1432.17,-35.79 1453.47,-24.27"/>
<polygon fill="midnightblue" stroke="midnightblue" points="1455.14,-27.35 1462.27,-19.51 1451.81,-21.19 1455.14,-27.35"/>
</g>
<!-- Node32 -->
<g id="node32" class="node">
<title>Node32</title>
<g id="a_node32"><a xlink:title=" ">
<polygon fill="none" stroke="#bfbfbf" points="1376,-0.5 1376,-19.5 1408,-19.5 1408,-0.5 1376,-0.5"/>
<text text-anchor="middle" x="1392" y="-7.5" font-family="Helvetica,sans-Serif" font-size="10.00">set</text>
</a>
</g>
</g>
<!-- Node31&#45;&gt;Node32 -->
<g id="edge47" class="edge">
<title>Node31&#45;&gt;Node32</title>
<path fill="none" stroke="midnightblue" d="M1371.44,-61.98C1374.9,-53.4 1380.33,-39.93 1384.75,-28.98"/>
<polygon fill="midnightblue" stroke="midnightblue" points="1388.07,-30.09 1388.57,-19.51 1381.58,-27.47 1388.07,-30.09"/>
</g>
<!-- Node33 -->
<g id="node33" class="node">
<title>Node33</title>
<g id="a_node33"><a xlink:title=" ">
<polygon fill="none" stroke="#bfbfbf" points="1264.5,-0.5 1264.5,-19.5 1357.5,-19.5 1357.5,-0.5 1264.5,-0.5"/>
<text text-anchor="middle" x="1311" y="-7.5" font-family="Helvetica,sans-Serif" font-size="10.00">unordered_map</text>
</a>
</g>
</g>
<!-- Node31&#45;&gt;Node33 -->
<g id="edge48" class="edge">
<title>Node31&#45;&gt;Node33</title>
<path fill="none" stroke="midnightblue" d="M1359.83,-61.98C1351.11,-52.87 1337.1,-38.24 1326.31,-26.98"/>
<polygon fill="midnightblue" stroke="midnightblue" points="1328.6,-24.31 1319.15,-19.51 1323.54,-29.15 1328.6,-24.31"/>
</g>
<!-- Node34&#45;&gt;Node29 -->
<g id="edge50" class="edge">
<title>Node34&#45;&gt;Node29</title>
<path fill="none" stroke="midnightblue" d="M1971.09,-61.98C1948.84,-51.95 1911.69,-35.2 1886.07,-23.65"/>
<polygon fill="midnightblue" stroke="midnightblue" points="1887.43,-20.43 1876.88,-19.51 1884.56,-26.81 1887.43,-20.43"/>
</g>
<!-- Node35&#45;&gt;Node13 -->
<g id="edge57" class="edge">
<title>Node35&#45;&gt;Node13</title>
<path fill="none" stroke="midnightblue" d="M1769.71,-128.95C1738.48,-119.58 1687.73,-103.67 1645,-87 1594.44,-67.27 1537.21,-40.14 1504.58,-24.2"/>
<polygon fill="midnightblue" stroke="midnightblue" points="1505.8,-20.9 1495.28,-19.63 1502.71,-27.18 1505.8,-20.9"/>
</g>
<!-- Node35&#45;&gt;Node22 -->
<g id="edge52" class="edge">
<title>Node35&#45;&gt;Node22</title>
<path fill="none" stroke="midnightblue" d="M1763.95,-128.94C1713.53,-116.62 1620.98,-94 1569.67,-81.46"/>
<polygon fill="midnightblue" stroke="midnightblue" points="1570.23,-77.99 1559.68,-79.02 1568.57,-84.79 1570.23,-77.99"/>
</g>
<!-- Node35&#45;&gt;Node23 -->
<g id="edge58" class="edge">
<title>Node35&#45;&gt;Node23</title>
<path fill="none" stroke="midnightblue" d="M1798.04,-128.81C1795.79,-108.49 1790.15,-57.55 1787.08,-29.78"/>
<polygon fill="midnightblue" stroke="midnightblue" points="1790.55,-29.31 1785.97,-19.76 1783.59,-30.08 1790.55,-29.31"/>
</g>
<!-- Node35&#45;&gt;Node29 -->
<g id="edge59" class="edge">
<title>Node35&#45;&gt;Node29</title>
<path fill="none" stroke="midnightblue" d="M1803.06,-128.81C1812.61,-108.31 1836.71,-56.65 1849.59,-29.04"/>
<polygon fill="midnightblue" stroke="midnightblue" points="1852.86,-30.3 1853.92,-19.76 1846.52,-27.34 1852.86,-30.3"/>
</g>
<!-- Node35&#45;&gt;Node36 -->
<g id="edge53" class="edge">
<title>Node35&#45;&gt;Node36</title>
<path fill="none" stroke="midnightblue" d="M1787.13,-128.73C1772.75,-118.11 1748.3,-100.05 1730.99,-87.26"/>
<polygon fill="midnightblue" stroke="midnightblue" points="1732.8,-84.25 1722.68,-81.13 1728.64,-89.88 1732.8,-84.25"/>
</g>
<!-- Node35&#45;&gt;Node38 -->
<g id="edge60" class="edge">
<title>Node35&#45;&gt;Node38</title>
<path fill="none" stroke="midnightblue" d="M1842.11,-131.91C1892.91,-124.64 1979.44,-110.05 2051,-87 2052.87,-86.4 2054.78,-85.72 2056.69,-84.99"/>
<polygon fill="midnightblue" stroke="midnightblue" points="2058.15,-88.17 2066.01,-81.06 2055.44,-81.71 2058.15,-88.17"/>
</g>
<!-- Node36&#45;&gt;Node13 -->
<g id="edge55" class="edge">
<title>Node36&#45;&gt;Node13</title>
<path fill="none" stroke="midnightblue" d="M1677.62,-61.98C1634.42,-50.94 1559.42,-31.79 1514.68,-20.37"/>
<polygon fill="midnightblue" stroke="midnightblue" points="1515.36,-16.93 1504.8,-17.84 1513.63,-23.71 1515.36,-16.93"/>
</g>
<!-- Node36&#45;&gt;Node29 -->
<g id="edge56" class="edge">
<title>Node36&#45;&gt;Node29</title>
<path fill="none" stroke="midnightblue" d="M1732.06,-61.98C1757.06,-51.86 1798.94,-34.9 1827.49,-23.35"/>
<polygon fill="midnightblue" stroke="midnightblue" points="1829.02,-26.51 1836.98,-19.51 1826.39,-20.02 1829.02,-26.51"/>
</g>
<!-- Node37 -->
<g id="node37" class="node">
<title>Node37</title>
<g id="a_node37"><a xlink:title=" ">
<polygon fill="none" stroke="#bfbfbf" points="1686,-0.5 1686,-19.5 1736,-19.5 1736,-0.5 1686,-0.5"/>
<text text-anchor="middle" x="1711" y="-7.5" font-family="Helvetica,sans-Serif" font-size="10.00">climits</text>
</a>
</g>
</g>
<!-- Node36&#45;&gt;Node37 -->
<g id="edge54" class="edge">
<title>Node36&#45;&gt;Node37</title>
<path fill="none" stroke="midnightblue" d="M1711,-61.98C1711,-53.58 1711,-40.48 1711,-29.66"/>
<polygon fill="midnightblue" stroke="midnightblue" points="1714.5,-29.51 1711,-19.51 1707.5,-29.51 1714.5,-29.51"/>
</g>
<!-- Node45&#45;&gt;Node30 -->
<g id="edge78" class="edge">
<title>Node45&#45;&gt;Node30</title>
<path fill="none" stroke="midnightblue" d="M1889,-246.08C1889,-239.01 1889,-228.86 1889,-219.99"/>
<polygon fill="midnightblue" stroke="midnightblue" points="1892.5,-219.75 1889,-209.75 1885.5,-219.75 1892.5,-219.75"/>
</g>
<!-- Node45&#45;&gt;Node38 -->
<g id="edge81" class="edge">
<title>Node45&#45;&gt;Node38</title>
<path fill="none" stroke="midnightblue" d="M1945.85,-246.99C1948.94,-246.64 1952.01,-246.3 1955,-246 2049.4,-236.42 2743.16,-226.81 2804,-154 2812.83,-143.43 2813.4,-133.08 2804,-123 2756.56,-72.12 2250.35,-71.49 2115.73,-72.24"/>
<polygon fill="midnightblue" stroke="midnightblue" points="2115.6,-68.74 2105.62,-72.3 2115.64,-75.74 2115.6,-68.74"/>
</g>
<!-- Node45&#45;&gt;Node41 -->
<g id="edge79" class="edge">
<title>Node45&#45;&gt;Node41</title>
<path fill="none" stroke="midnightblue" d="M1945.62,-246.54C2059.92,-229.42 2326.4,-189.3 2550,-154 2558.76,-152.62 2568.01,-151.14 2577.09,-149.67"/>
<polygon fill="midnightblue" stroke="midnightblue" points="2577.94,-153.08 2587.25,-148.02 2576.81,-146.17 2577.94,-153.08"/>
</g>
<!-- Node45&#45;&gt;Node44 -->
<g id="edge80" class="edge">
<title>Node45&#45;&gt;Node44</title>
<path fill="none" stroke="midnightblue" d="M1945.52,-247.22C1948.72,-246.8 1951.9,-246.39 1955,-246 2298.26,-202.73 2392.15,-237.11 2728,-154 2730.83,-153.3 2733.73,-152.45 2736.61,-151.51"/>
<polygon fill="midnightblue" stroke="midnightblue" points="2737.93,-154.76 2746.18,-148.11 2735.58,-148.17 2737.93,-154.76"/>
</g>
</g>
</svg>
