<?xml version="1.0" encoding="UTF-8" standalone="no"?>
<!DOCTYPE svg PUBLIC "-//W3C//DTD SVG 1.1//EN"
 "http://www.w3.org/Graphics/SVG/1.1/DTD/svg11.dtd">
<!-- Generated by graphviz version 2.43.0 (0)
 -->
<!-- Title: ibm_volcons.hpp Pages: 1 -->
<!--zoomable 554 -->
<svg id="main" version="1.1" xmlns="http://www.w3.org/2000/svg" xmlns:xlink="http://www.w3.org/1999/xlink" xml:space="preserve" onload="init(evt)">
<style type="text/css"><![CDATA[
.edge:hover path { stroke: red; }
.edge:hover polygon { stroke: red; fill: red; }
]]></style>
<script type="text/javascript"><![CDATA[
var edges = document.getElementsByTagName('g');
if (edges && edges.length) {
  for (var i=0;i<edges.length;i++) {
    if (edges[i].id.substr(0,4)=='edge') {
      edges[i].setAttribute('class','edge');
    }
  }
}
]]></script>
        <defs>
                <circle id="rim" cx="0" cy="0" r="7"/>
                <circle id="rim2" cx="0" cy="0" r="3.5"/>
                <g id="zoomPlus">
                        <use xlink:href="#rim" fill="#404040">
                                <set attributeName="fill" to="#808080" begin="zoomplus.mouseover" end="zoomplus.mouseout"/>
                        </use>
                        <path d="M-4,0h8M0,-4v8" fill="none" stroke="white" stroke-width="1.5" pointer-events="none"/>
                </g>
                <g id="zoomMin">
                        <use xlink:href="#rim" fill="#404040">
                                <set attributeName="fill" to="#808080" begin="zoomminus.mouseover" end="zoomminus.mouseout"/>
                        </use>
                        <path d="M-4,0h8" fill="none" stroke="white" stroke-width="1.5" pointer-events="none"/>
                </g>
                <g id="dirArrow">
                        <path fill="none" stroke="white" stroke-width="1.5" d="M0,-3.0v7 M-2.5,-0.5L0,-3.0L2.5,-0.5"/>
                </g>
               <g id="resetDef">
                       <use xlink:href="#rim2" fill="#404040">
                               <set attributeName="fill" to="#808080" begin="reset.mouseover" end="reset.mouseout"/>
                       </use>
               </g>
        </defs>

<script type="text/javascript">
var viewWidth = 2429;
var viewHeight = 554;
var sectionId = 'dynsection-1';
</script>
<script xlink:href="svgpan.js"/>
<svg id="graph" class="graph">
<g id="viewport">
<title>ibm_volcons.hpp</title>
<!-- Node1 -->
<g id="node1" class="node">
<title>Node1</title>
<g id="a_node1"><a xlink:title=" ">
<polygon fill="#bfbfbf" stroke="black" points="1827.5,-526.5 1827.5,-545.5 1926.5,-545.5 1926.5,-526.5 1827.5,-526.5"/>
<text text-anchor="middle" x="1877" y="-533.5" font-family="Helvetica,sans-Serif" font-size="10.00">ibm_volcons.hpp</text>
</a>
</g>
</g>
<!-- Node2 -->
<g id="node2" class="node">
<title>Node2</title>
<g id="a_node2"><a xlink:href="bonded__interaction__data_8hpp.html" target="_top" xlink:title=" ">
<polygon fill="none" stroke="black" points="1267,-459.5 1267,-489.5 1377,-489.5 1377,-459.5 1267,-459.5"/>
<text text-anchor="start" x="1275" y="-477.5" font-family="Helvetica,sans-Serif" font-size="10.00">bonded_interaction</text>
<text text-anchor="middle" x="1322" y="-466.5" font-family="Helvetica,sans-Serif" font-size="10.00">_data.hpp</text>
</a>
</g>
</g>
<!-- Node1&#45;&gt;Node2 -->
<g id="edge1" class="edge">
<title>Node1&#45;&gt;Node2</title>
<path fill="none" stroke="midnightblue" d="M1817.16,-528.58C1708.86,-516.97 1481.88,-492.64 1377.13,-481.41"/>
<polygon fill="midnightblue" stroke="midnightblue" points="1816.94,-532.08 1827.26,-529.67 1817.69,-525.12 1816.94,-532.08"/>
</g>
<!-- Node29 -->
<g id="node29" class="node">
<title>Node29</title>
<g id="a_node29"><a xlink:href="ImmersedBoundaries_8cpp.html" target="_top" xlink:title=" ">
<polygon fill="none" stroke="black" points="2279.5,-398 2279.5,-417 2420.5,-417 2420.5,-398 2279.5,-398"/>
<text text-anchor="middle" x="2350" y="-405" font-family="Helvetica,sans-Serif" font-size="10.00">ImmersedBoundaries.cpp</text>
</a>
</g>
</g>
<!-- Node1&#45;&gt;Node29 -->
<g id="edge49" class="edge">
<title>Node1&#45;&gt;Node29</title>
<path fill="none" stroke="midnightblue" d="M1876.06,-516.11C1876.32,-498.52 1879.77,-472.98 1896,-459 1959.27,-404.52 2187.29,-434.46 2270,-423 2281.88,-421.35 2294.7,-419.2 2306.51,-417.06"/>
<polygon fill="midnightblue" stroke="midnightblue" points="1872.57,-516.39 1876.26,-526.32 1879.57,-516.26 1872.57,-516.39"/>
</g>
<!-- Node38 -->
<g id="node38" class="node">
<title>Node38</title>
<g id="a_node38"><a xlink:href="ibm__volcons_8cpp.html" target="_top" xlink:title=" ">
<polygon fill="none" stroke="black" points="1905,-465 1905,-484 2003,-484 2003,-465 1905,-465"/>
<text text-anchor="middle" x="1954" y="-472" font-family="Helvetica,sans-Serif" font-size="10.00">ibm_volcons.cpp</text>
</a>
</g>
</g>
<!-- Node1&#45;&gt;Node38 -->
<g id="edge48" class="edge">
<title>Node1&#45;&gt;Node38</title>
<path fill="none" stroke="midnightblue" d="M1896.03,-520.29C1910.8,-508.88 1930.76,-493.46 1942.99,-484.01"/>
<polygon fill="midnightblue" stroke="midnightblue" points="1893.81,-517.59 1888.03,-526.48 1898.09,-523.13 1893.81,-517.59"/>
</g>
<!-- Node3 -->
<g id="node3" class="node">
<title>Node3</title>
<g id="a_node3"><a xlink:href="bonded__interaction__data_8cpp.html" target="_top" xlink:title=" ">
<polygon fill="none" stroke="black" points="2151,-392.5 2151,-422.5 2261,-422.5 2261,-392.5 2151,-392.5"/>
<text text-anchor="start" x="2159" y="-410.5" font-family="Helvetica,sans-Serif" font-size="10.00">bonded_interaction</text>
<text text-anchor="middle" x="2206" y="-399.5" font-family="Helvetica,sans-Serif" font-size="10.00">_data.cpp</text>
</a>
</g>
</g>
<!-- Node2&#45;&gt;Node3 -->
<g id="edge2" class="edge">
<title>Node2&#45;&gt;Node3</title>
<path fill="none" stroke="midnightblue" d="M1387.09,-473.05C1526.31,-471.3 1863.07,-462.92 2142,-423 2144.93,-422.58 2147.93,-422.1 2150.95,-421.57"/>
<polygon fill="midnightblue" stroke="midnightblue" points="1386.97,-469.55 1377.01,-473.17 1387.05,-476.55 1386.97,-469.55"/>
</g>
<!-- Node4 -->
<g id="node4" class="node">
<title>Node4</title>
<g id="a_node4"><a xlink:href="bonded__interaction__utils_8hpp.html" target="_top" xlink:title=" ">
<polygon fill="none" stroke="black" points="326,-392.5 326,-422.5 436,-422.5 436,-392.5 326,-392.5"/>
<text text-anchor="start" x="334" y="-410.5" font-family="Helvetica,sans-Serif" font-size="10.00">bonded_interaction</text>
<text text-anchor="middle" x="381" y="-399.5" font-family="Helvetica,sans-Serif" font-size="10.00">_utils.hpp</text>
</a>
</g>
</g>
<!-- Node2&#45;&gt;Node4 -->
<g id="edge3" class="edge">
<title>Node2&#45;&gt;Node4</title>
<path fill="none" stroke="midnightblue" d="M1256.8,-473.04C1111.36,-471.3 749.64,-462.93 450,-423 445.51,-422.4 440.88,-421.67 436.24,-420.87"/>
<polygon fill="midnightblue" stroke="midnightblue" points="1256.85,-476.54 1266.89,-473.16 1256.93,-469.54 1256.85,-476.54"/>
</g>
<!-- Node5 -->
<g id="node5" class="node">
<title>Node5</title>
<g id="a_node5"><a xlink:href="thole_8hpp.html" target="_top" xlink:title=" ">
<polygon fill="none" stroke="black" points="330,-336.5 330,-355.5 392,-355.5 392,-336.5 330,-336.5"/>
<text text-anchor="middle" x="361" y="-343.5" font-family="Helvetica,sans-Serif" font-size="10.00">thole.hpp</text>
</a>
</g>
</g>
<!-- Node2&#45;&gt;Node5 -->
<g id="edge25" class="edge">
<title>Node2&#45;&gt;Node5</title>
<path fill="none" stroke="midnightblue" d="M1256.8,-472.67C1039.14,-469.57 349.42,-457.09 317,-423 297.14,-402.12 330.59,-370.65 349.46,-355.6"/>
<polygon fill="midnightblue" stroke="midnightblue" points="1256.75,-476.17 1266.8,-472.81 1256.85,-469.17 1256.75,-476.17"/>
</g>
<!-- Node6 -->
<g id="node6" class="node">
<title>Node6</title>
<g id="a_node6"><a xlink:href="energy__inline_8hpp.html" target="_top" xlink:title=" ">
<polygon fill="none" stroke="black" points="208,-280.5 208,-299.5 312,-299.5 312,-280.5 208,-280.5"/>
<text text-anchor="middle" x="260" y="-287.5" font-family="Helvetica,sans-Serif" font-size="10.00">energy_inline.hpp</text>
</a>
</g>
</g>
<!-- Node2&#45;&gt;Node6 -->
<g id="edge24" class="edge">
<title>Node2&#45;&gt;Node6</title>
<path fill="none" stroke="midnightblue" d="M1256.93,-472.24C1038.82,-467.77 345.16,-451.36 307,-423 266.2,-392.67 260.69,-323.88 260.04,-299.65"/>
<polygon fill="midnightblue" stroke="midnightblue" points="1256.88,-475.74 1266.95,-472.45 1257.02,-468.74 1256.88,-475.74"/>
</g>
<!-- Node16 -->
<g id="node16" class="node">
<title>Node16</title>
<g id="a_node16"><a xlink:href="forces__inline_8hpp.html" target="_top" xlink:title=" ">
<polygon fill="none" stroke="black" points="410,-280.5 410,-299.5 510,-299.5 510,-280.5 410,-280.5"/>
<text text-anchor="middle" x="460" y="-287.5" font-family="Helvetica,sans-Serif" font-size="10.00">forces_inline.hpp</text>
</a>
</g>
</g>
<!-- Node2&#45;&gt;Node16 -->
<g id="edge34" class="edge">
<title>Node2&#45;&gt;Node16</title>
<path fill="none" stroke="midnightblue" d="M1256.52,-473.93C1070.58,-474.56 548.99,-471.89 491,-423 453.38,-391.29 456.53,-323.38 458.95,-299.51"/>
<polygon fill="midnightblue" stroke="midnightblue" points="1256.72,-477.43 1266.7,-473.89 1256.69,-470.43 1256.72,-477.43"/>
</g>
<!-- Node18 -->
<g id="node18" class="node">
<title>Node18</title>
<g id="a_node18"><a xlink:href="pressure__inline_8hpp.html" target="_top" xlink:title=" ">
<polygon fill="none" stroke="black" points="596,-224.5 596,-243.5 708,-243.5 708,-224.5 596,-224.5"/>
<text text-anchor="middle" x="652" y="-231.5" font-family="Helvetica,sans-Serif" font-size="10.00">pressure_inline.hpp</text>
</a>
</g>
</g>
<!-- Node2&#45;&gt;Node18 -->
<g id="edge46" class="edge">
<title>Node2&#45;&gt;Node18</title>
<path fill="none" stroke="midnightblue" d="M1256.61,-474.34C1087.88,-474.92 645.21,-465.74 562,-356 530.21,-314.07 603.82,-263.39 636.92,-243.55"/>
<polygon fill="midnightblue" stroke="midnightblue" points="1256.86,-477.84 1266.84,-474.29 1256.83,-470.84 1256.86,-477.84"/>
</g>
<!-- Node19 -->
<g id="node19" class="node">
<title>Node19</title>
<g id="a_node19"><a xlink:href="pressure_8cpp.html" target="_top" xlink:title=" ">
<polygon fill="none" stroke="black" points="954.5,-168.5 954.5,-187.5 1033.5,-187.5 1033.5,-168.5 954.5,-168.5"/>
<text text-anchor="middle" x="994" y="-175.5" font-family="Helvetica,sans-Serif" font-size="10.00">pressure.cpp</text>
</a>
</g>
</g>
<!-- Node2&#45;&gt;Node19 -->
<g id="edge45" class="edge">
<title>Node2&#45;&gt;Node19</title>
<path fill="none" stroke="midnightblue" d="M1256.75,-462.43C1203.89,-450.56 1142.52,-428.35 1171,-392 1213.86,-337.29 1353.87,-394.91 1317,-336 1253.82,-235.05 1105.12,-197.34 1033.68,-184.7"/>
<polygon fill="midnightblue" stroke="midnightblue" points="1256.32,-465.92 1266.83,-464.59 1257.79,-459.07 1256.32,-465.92"/>
</g>
<!-- Node21 -->
<g id="node21" class="node">
<title>Node21</title>
<g id="a_node21"><a xlink:href="thermalized__bond__utils_8cpp.html" target="_top" xlink:title=" ">
<polygon fill="none" stroke="black" points="1180.5,-398 1180.5,-417 1331.5,-417 1331.5,-398 1180.5,-398"/>
<text text-anchor="middle" x="1256" y="-405" font-family="Helvetica,sans-Serif" font-size="10.00">thermalized_bond_utils.cpp</text>
</a>
</g>
</g>
<!-- Node2&#45;&gt;Node21 -->
<g id="edge22" class="edge">
<title>Node2&#45;&gt;Node21</title>
<path fill="none" stroke="midnightblue" d="M1300.51,-452.34C1288.39,-440.4 1273.91,-426.14 1264.83,-417.19"/>
<polygon fill="midnightblue" stroke="midnightblue" points="1298.1,-454.87 1307.68,-459.4 1303.01,-449.89 1298.1,-454.87"/>
</g>
<!-- Node22 -->
<g id="node22" class="node">
<title>Node22</title>
<g id="a_node22"><a xlink:href="collision_8cpp.html" target="_top" xlink:title=" ">
<polygon fill="none" stroke="black" points="1349.5,-398 1349.5,-417 1426.5,-417 1426.5,-398 1349.5,-398"/>
<text text-anchor="middle" x="1388" y="-405" font-family="Helvetica,sans-Serif" font-size="10.00">collision.cpp</text>
</a>
</g>
</g>
<!-- Node2&#45;&gt;Node22 -->
<g id="edge23" class="edge">
<title>Node2&#45;&gt;Node22</title>
<path fill="none" stroke="midnightblue" d="M1343.49,-452.34C1355.61,-440.4 1370.09,-426.14 1379.17,-417.19"/>
<polygon fill="midnightblue" stroke="midnightblue" points="1340.99,-449.89 1336.32,-459.4 1345.9,-454.87 1340.99,-449.89"/>
</g>
<!-- Node23 -->
<g id="node23" class="node">
<title>Node23</title>
<g id="a_node23"><a xlink:href="forces_8hpp.html" target="_top" xlink:title=" ">
<polygon fill="none" stroke="black" points="810,-398 810,-417 878,-417 878,-398 810,-398"/>
<text text-anchor="middle" x="844" y="-405" font-family="Helvetica,sans-Serif" font-size="10.00">forces.hpp</text>
</a>
</g>
</g>
<!-- Node2&#45;&gt;Node23 -->
<g id="edge26" class="edge">
<title>Node2&#45;&gt;Node23</title>
<path fill="none" stroke="midnightblue" d="M1256.73,-464.62C1153.69,-450.61 956.96,-423.86 878.02,-413.13"/>
<polygon fill="midnightblue" stroke="midnightblue" points="1256.32,-468.1 1266.7,-465.98 1257.26,-461.16 1256.32,-468.1"/>
</g>
<!-- Node2&#45;&gt;Node29 -->
<g id="edge35" class="edge">
<title>Node2&#45;&gt;Node29</title>
<path fill="none" stroke="midnightblue" d="M1387.48,-472.85C1541.76,-470.7 1939.94,-461.55 2270,-423 2282.62,-421.53 2296.25,-419.3 2308.63,-417.02"/>
<polygon fill="midnightblue" stroke="midnightblue" points="1387.19,-469.35 1377.24,-472.99 1387.28,-476.35 1387.19,-469.35"/>
</g>
<!-- Node30 -->
<g id="node30" class="node">
<title>Node30</title>
<g id="a_node30"><a xlink:href="rattle_8hpp.html" target="_top" xlink:title=" ">
<polygon fill="none" stroke="black" points="1060,-398 1060,-417 1124,-417 1124,-398 1060,-398"/>
<text text-anchor="middle" x="1092" y="-405" font-family="Helvetica,sans-Serif" font-size="10.00">rattle.hpp</text>
</a>
</g>
</g>
<!-- Node2&#45;&gt;Node30 -->
<g id="edge36" class="edge">
<title>Node2&#45;&gt;Node30</title>
<path fill="none" stroke="midnightblue" d="M1257.01,-458.38C1219.35,-448.62 1171.29,-435.46 1129,-423 1122.74,-421.15 1116.02,-419.09 1109.96,-417.1"/>
<polygon fill="midnightblue" stroke="midnightblue" points="1256.28,-461.81 1266.84,-460.91 1258.03,-455.03 1256.28,-461.81"/>
</g>
<!-- Node32 -->
<g id="node32" class="node">
<title>Node32</title>
<g id="a_node32"><a xlink:href="interactions_8cpp.html" target="_top" xlink:title=" ">
<polygon fill="none" stroke="black" points="1444.5,-398 1444.5,-417 1539.5,-417 1539.5,-398 1444.5,-398"/>
<text text-anchor="middle" x="1492" y="-405" font-family="Helvetica,sans-Serif" font-size="10.00">interactions.cpp</text>
</a>
</g>
</g>
<!-- Node2&#45;&gt;Node32 -->
<g id="edge40" class="edge">
<title>Node2&#45;&gt;Node32</title>
<path fill="none" stroke="midnightblue" d="M1368.33,-455.78C1401.3,-443.18 1444.12,-426.81 1469.75,-417.01"/>
<polygon fill="midnightblue" stroke="midnightblue" points="1366.98,-452.56 1358.89,-459.4 1369.48,-459.09 1366.98,-452.56"/>
</g>
<!-- Node33 -->
<g id="node33" class="node">
<title>Node33</title>
<g id="a_node33"><a xlink:href="mpiio_8cpp.html" target="_top" xlink:title=" ">
<polygon fill="none" stroke="black" points="1557.5,-398 1557.5,-417 1622.5,-417 1622.5,-398 1557.5,-398"/>
<text text-anchor="middle" x="1590" y="-405" font-family="Helvetica,sans-Serif" font-size="10.00">mpiio.cpp</text>
</a>
</g>
</g>
<!-- Node2&#45;&gt;Node33 -->
<g id="edge41" class="edge">
<title>Node2&#45;&gt;Node33</title>
<path fill="none" stroke="midnightblue" d="M1387.25,-460.95C1432.65,-451.72 1494.42,-438.18 1548,-423 1554.09,-421.28 1560.58,-419.17 1566.6,-417.1"/>
<polygon fill="midnightblue" stroke="midnightblue" points="1386.35,-457.56 1377.24,-462.97 1387.73,-464.42 1386.35,-457.56"/>
</g>
<!-- Node34 -->
<g id="node34" class="node">
<title>Node34</title>
<g id="a_node34"><a xlink:href="nonbonded__interaction__data_8cpp.html" target="_top" xlink:title=" ">
<polygon fill="none" stroke="black" points="1641,-392.5 1641,-422.5 1769,-422.5 1769,-392.5 1641,-392.5"/>
<text text-anchor="start" x="1649" y="-410.5" font-family="Helvetica,sans-Serif" font-size="10.00">nonbonded_interaction</text>
<text text-anchor="middle" x="1705" y="-399.5" font-family="Helvetica,sans-Serif" font-size="10.00">_data.cpp</text>
</a>
</g>
</g>
<!-- Node2&#45;&gt;Node34 -->
<g id="edge42" class="edge">
<title>Node2&#45;&gt;Node34</title>
<path fill="none" stroke="midnightblue" d="M1387.2,-463.46C1449.8,-453.67 1547,-438.09 1631,-423 1634.22,-422.42 1637.52,-421.82 1640.85,-421.2"/>
<polygon fill="midnightblue" stroke="midnightblue" points="1386.41,-460.04 1377.07,-465.04 1387.49,-466.95 1386.41,-460.04"/>
</g>
<!-- Node35 -->
<g id="node35" class="node">
<title>Node35</title>
<g id="a_node35"><a xlink:href="oif__global__forces_8cpp.html" target="_top" xlink:title=" ">
<polygon fill="none" stroke="black" points="1787,-398 1787,-417 1907,-417 1907,-398 1787,-398"/>
<text text-anchor="middle" x="1847" y="-405" font-family="Helvetica,sans-Serif" font-size="10.00">oif_global_forces.cpp</text>
</a>
</g>
</g>
<!-- Node2&#45;&gt;Node35 -->
<g id="edge43" class="edge">
<title>Node2&#45;&gt;Node35</title>
<path fill="none" stroke="midnightblue" d="M1387.53,-468.25C1476.35,-460.68 1639.74,-445.13 1778,-423 1788.27,-421.36 1799.33,-419.2 1809.52,-417.06"/>
<polygon fill="midnightblue" stroke="midnightblue" points="1387,-464.78 1377.33,-469.11 1387.59,-471.76 1387,-464.78"/>
</g>
<!-- Node36 -->
<g id="node36" class="node">
<title>Node36</title>
<g id="a_node36"><a xlink:href="Observable__stat_8cpp.html" target="_top" xlink:title=" ">
<polygon fill="none" stroke="black" points="1925,-398 1925,-417 2041,-417 2041,-398 1925,-398"/>
<text text-anchor="middle" x="1983" y="-405" font-family="Helvetica,sans-Serif" font-size="10.00">Observable_stat.cpp</text>
</a>
</g>
</g>
<!-- Node2&#45;&gt;Node36 -->
<g id="edge44" class="edge">
<title>Node2&#45;&gt;Node36</title>
<path fill="none" stroke="midnightblue" d="M1387.39,-470.69C1497.14,-465.36 1725.13,-451.65 1916,-423 1926.36,-421.45 1937.51,-419.25 1947.69,-417.03"/>
<polygon fill="midnightblue" stroke="midnightblue" points="1386.96,-467.2 1377.14,-471.18 1387.3,-474.2 1386.96,-467.2"/>
</g>
<!-- Node37 -->
<g id="node37" class="node">
<title>Node37</title>
<g id="a_node37"><a xlink:href="bonded_8hpp.html" target="_top" xlink:title=" ">
<polygon fill="none" stroke="black" points="2059,-398 2059,-417 2133,-417 2133,-398 2059,-398"/>
<text text-anchor="middle" x="2096" y="-405" font-family="Helvetica,sans-Serif" font-size="10.00">bonded.hpp</text>
</a>
</g>
</g>
<!-- Node2&#45;&gt;Node37 -->
<g id="edge47" class="edge">
<title>Node2&#45;&gt;Node37</title>
<path fill="none" stroke="midnightblue" d="M1387.42,-474.1C1515.7,-474.16 1808.82,-468.71 2050,-423 2057.4,-421.6 2065.29,-419.39 2072.4,-417.11"/>
<polygon fill="midnightblue" stroke="midnightblue" points="1387.37,-470.6 1377.36,-474.09 1387.36,-477.6 1387.37,-470.6"/>
</g>
<!-- Node4&#45;&gt;Node5 -->
<g id="edge4" class="edge">
<title>Node4&#45;&gt;Node5</title>
<path fill="none" stroke="midnightblue" d="M373.07,-382.9C369.84,-373.3 366.31,-362.81 363.91,-355.66"/>
<polygon fill="midnightblue" stroke="midnightblue" points="369.76,-384.04 376.26,-392.4 376.39,-381.81 369.76,-384.04"/>
</g>
<!-- Node5&#45;&gt;Node6 -->
<g id="edge5" class="edge">
<title>Node5&#45;&gt;Node6</title>
<path fill="none" stroke="midnightblue" d="M335.92,-331.59C317.24,-321.61 292.3,-308.27 276.19,-299.65"/>
<polygon fill="midnightblue" stroke="midnightblue" points="334.3,-334.7 344.77,-336.32 337.6,-328.52 334.3,-334.7"/>
</g>
<!-- Node5&#45;&gt;Node16 -->
<g id="edge16" class="edge">
<title>Node5&#45;&gt;Node16</title>
<path fill="none" stroke="midnightblue" d="M385.84,-331.45C404.11,-321.48 428.42,-308.23 444.13,-299.65"/>
<polygon fill="midnightblue" stroke="midnightblue" points="384.01,-328.46 376.91,-336.32 387.36,-334.61 384.01,-328.46"/>
</g>
<!-- Node20 -->
<g id="node20" class="node">
<title>Node20</title>
<g id="a_node20"><a xlink:href="thole_8cpp.html" target="_top" xlink:title=" ">
<polygon fill="none" stroke="black" points="330,-280.5 330,-299.5 392,-299.5 392,-280.5 330,-280.5"/>
<text text-anchor="middle" x="361" y="-287.5" font-family="Helvetica,sans-Serif" font-size="10.00">thole.cpp</text>
</a>
</g>
</g>
<!-- Node5&#45;&gt;Node20 -->
<g id="edge21" class="edge">
<title>Node5&#45;&gt;Node20</title>
<path fill="none" stroke="midnightblue" d="M361,-325.8C361,-316.91 361,-306.78 361,-299.75"/>
<polygon fill="midnightblue" stroke="midnightblue" points="357.5,-326.08 361,-336.08 364.5,-326.08 357.5,-326.08"/>
</g>
<!-- Node7 -->
<g id="node7" class="node">
<title>Node7</title>
<g id="a_node7"><a xlink:href="ShapeBasedConstraint_8cpp.html" target="_top" xlink:title=" ">
<polygon fill="none" stroke="black" points="258.5,-224.5 258.5,-243.5 405.5,-243.5 405.5,-224.5 258.5,-224.5"/>
<text text-anchor="middle" x="332" y="-231.5" font-family="Helvetica,sans-Serif" font-size="10.00">ShapeBasedConstraint.cpp</text>
</a>
</g>
</g>
<!-- Node6&#45;&gt;Node7 -->
<g id="edge6" class="edge">
<title>Node6&#45;&gt;Node7</title>
<path fill="none" stroke="midnightblue" d="M279.87,-274.1C292.82,-264.38 309.3,-252.03 320.22,-243.83"/>
<polygon fill="midnightblue" stroke="midnightblue" points="277.47,-271.52 271.57,-280.32 281.67,-277.12 277.47,-271.52"/>
</g>
<!-- Node8 -->
<g id="node8" class="node">
<title>Node8</title>
<g id="a_node8"><a xlink:href="energy_8cpp.html" target="_top" xlink:title=" ">
<polygon fill="none" stroke="black" points="508.5,-224.5 508.5,-243.5 577.5,-243.5 577.5,-224.5 508.5,-224.5"/>
<text text-anchor="middle" x="543" y="-231.5" font-family="Helvetica,sans-Serif" font-size="10.00">energy.cpp</text>
</a>
</g>
</g>
<!-- Node6&#45;&gt;Node8 -->
<g id="edge7" class="edge">
<title>Node6&#45;&gt;Node8</title>
<path fill="none" stroke="midnightblue" d="M316.73,-278.58C365.19,-269.61 436.73,-256.23 499,-244 502.06,-243.4 505.24,-242.77 508.42,-242.13"/>
<polygon fill="midnightblue" stroke="midnightblue" points="315.95,-275.16 306.75,-280.42 317.22,-282.05 315.95,-275.16"/>
</g>
<!-- Node9 -->
<g id="node9" class="node">
<title>Node9</title>
<g id="a_node9"><a xlink:href="core_2pair__criteria_2pair__criteria_8hpp.html" target="_top" xlink:title=" ">
<polygon fill="none" stroke="black" points="144,-224.5 144,-243.5 240,-243.5 240,-224.5 144,-224.5"/>
<text text-anchor="middle" x="192" y="-231.5" font-family="Helvetica,sans-Serif" font-size="10.00">pair_criteria.hpp</text>
</a>
</g>
</g>
<!-- Node6&#45;&gt;Node9 -->
<g id="edge8" class="edge">
<title>Node6&#45;&gt;Node9</title>
<path fill="none" stroke="midnightblue" d="M241.24,-274.1C229,-264.38 213.44,-252.03 203.12,-243.83"/>
<polygon fill="midnightblue" stroke="midnightblue" points="239.07,-276.85 249.07,-280.32 243.42,-271.36 239.07,-276.85"/>
</g>
<!-- Node10 -->
<g id="node10" class="node">
<title>Node10</title>
<g id="a_node10"><a xlink:href="script__interface_2pair__criteria_2pair__criteria_8hpp.html" target="_top" xlink:title=" ">
<polygon fill="none" stroke="black" points="144,-168.5 144,-187.5 240,-187.5 240,-168.5 144,-168.5"/>
<text text-anchor="middle" x="192" y="-175.5" font-family="Helvetica,sans-Serif" font-size="10.00">pair_criteria.hpp</text>
</a>
</g>
</g>
<!-- Node9&#45;&gt;Node10 -->
<g id="edge9" class="edge">
<title>Node9&#45;&gt;Node10</title>
<path fill="none" stroke="midnightblue" d="M192,-213.8C192,-204.91 192,-194.78 192,-187.75"/>
<polygon fill="midnightblue" stroke="midnightblue" points="188.5,-214.08 192,-224.08 195.5,-214.08 188.5,-214.08"/>
</g>
<!-- Node11 -->
<g id="node11" class="node">
<title>Node11</title>
<g id="a_node11"><a xlink:href="core_2cluster__analysis_2ClusterStructure_8hpp.html" target="_top" xlink:title=" ">
<polygon fill="none" stroke="black" points="48,-112.5 48,-131.5 164,-131.5 164,-112.5 48,-112.5"/>
<text text-anchor="middle" x="106" y="-119.5" font-family="Helvetica,sans-Serif" font-size="10.00">ClusterStructure.hpp</text>
</a>
</g>
</g>
<!-- Node10&#45;&gt;Node11 -->
<g id="edge10" class="edge">
<title>Node10&#45;&gt;Node11</title>
<path fill="none" stroke="midnightblue" d="M169.55,-162.9C153.78,-153 133.19,-140.07 119.78,-131.65"/>
<polygon fill="midnightblue" stroke="midnightblue" points="167.85,-165.97 178.18,-168.32 171.57,-160.04 167.85,-165.97"/>
</g>
<!-- Node13 -->
<g id="node13" class="node">
<title>Node13</title>
<g id="a_node13"><a xlink:href="script__interface_2cluster__analysis_2ClusterStructure_8hpp.html" target="_top" xlink:title=" ">
<polygon fill="none" stroke="black" points="134,-56.5 134,-75.5 250,-75.5 250,-56.5 134,-56.5"/>
<text text-anchor="middle" x="192" y="-63.5" font-family="Helvetica,sans-Serif" font-size="10.00">ClusterStructure.hpp</text>
</a>
</g>
</g>
<!-- Node10&#45;&gt;Node13 -->
<g id="edge14" class="edge">
<title>Node10&#45;&gt;Node13</title>
<path fill="none" stroke="midnightblue" d="M192,-158.35C192,-134.25 192,-93.31 192,-75.59"/>
<polygon fill="midnightblue" stroke="midnightblue" points="188.5,-158.37 192,-168.37 195.5,-158.37 188.5,-158.37"/>
</g>
<!-- Node15 -->
<g id="node15" class="node">
<title>Node15</title>
<g id="a_node15"><a xlink:href="pair__criteria_2initialize_8cpp.html" target="_top" xlink:title=" ">
<polygon fill="none" stroke="black" points="220.5,-112.5 220.5,-131.5 299.5,-131.5 299.5,-112.5 220.5,-112.5"/>
<text text-anchor="middle" x="260" y="-119.5" font-family="Helvetica,sans-Serif" font-size="10.00">initialize.cpp</text>
</a>
</g>
</g>
<!-- Node10&#45;&gt;Node15 -->
<g id="edge15" class="edge">
<title>Node10&#45;&gt;Node15</title>
<path fill="none" stroke="midnightblue" d="M210.76,-162.1C223,-152.38 238.56,-140.03 248.88,-131.83"/>
<polygon fill="midnightblue" stroke="midnightblue" points="208.58,-159.36 202.93,-168.32 212.93,-164.85 208.58,-159.36"/>
</g>
<!-- Node12 -->
<g id="node12" class="node">
<title>Node12</title>
<g id="a_node12"><a xlink:href="ClusterStructure_8cpp.html" target="_top" xlink:title=" ">
<polygon fill="none" stroke="black" points="0,-56.5 0,-75.5 116,-75.5 116,-56.5 0,-56.5"/>
<text text-anchor="middle" x="58" y="-63.5" font-family="Helvetica,sans-Serif" font-size="10.00">ClusterStructure.cpp</text>
</a>
</g>
</g>
<!-- Node11&#45;&gt;Node12 -->
<g id="edge11" class="edge">
<title>Node11&#45;&gt;Node12</title>
<path fill="none" stroke="midnightblue" d="M91.27,-104.43C82.86,-94.97 72.65,-83.48 65.78,-75.75"/>
<polygon fill="midnightblue" stroke="midnightblue" points="88.81,-106.93 98.07,-112.08 94.05,-102.28 88.81,-106.93"/>
</g>
<!-- Node11&#45;&gt;Node13 -->
<g id="edge12" class="edge">
<title>Node11&#45;&gt;Node13</title>
<path fill="none" stroke="midnightblue" d="M128.45,-106.9C144.22,-97 164.81,-84.07 178.22,-75.65"/>
<polygon fill="midnightblue" stroke="midnightblue" points="126.43,-104.04 119.82,-112.32 130.15,-109.97 126.43,-104.04"/>
</g>
<!-- Node14 -->
<g id="node14" class="node">
<title>Node14</title>
<g id="a_node14"><a xlink:href="cluster__analysis_2initialize_8cpp.html" target="_top" xlink:title=" ">
<polygon fill="none" stroke="black" points="152.5,-0.5 152.5,-19.5 231.5,-19.5 231.5,-0.5 152.5,-0.5"/>
<text text-anchor="middle" x="192" y="-7.5" font-family="Helvetica,sans-Serif" font-size="10.00">initialize.cpp</text>
</a>
</g>
</g>
<!-- Node13&#45;&gt;Node14 -->
<g id="edge13" class="edge">
<title>Node13&#45;&gt;Node14</title>
<path fill="none" stroke="midnightblue" d="M192,-45.8C192,-36.91 192,-26.78 192,-19.75"/>
<polygon fill="midnightblue" stroke="midnightblue" points="188.5,-46.08 192,-56.08 195.5,-46.08 188.5,-46.08"/>
</g>
<!-- Node16&#45;&gt;Node7 -->
<g id="edge17" class="edge">
<title>Node16&#45;&gt;Node7</title>
<path fill="none" stroke="midnightblue" d="M430.38,-276.5C406.38,-266.38 373.22,-252.39 352.19,-243.52"/>
<polygon fill="midnightblue" stroke="midnightblue" points="429.14,-279.78 439.72,-280.44 431.86,-273.33 429.14,-279.78"/>
</g>
<!-- Node17 -->
<g id="node17" class="node">
<title>Node17</title>
<g id="a_node17"><a xlink:href="forces_8cpp.html" target="_top" xlink:title=" ">
<polygon fill="none" stroke="black" points="423.5,-224.5 423.5,-243.5 490.5,-243.5 490.5,-224.5 423.5,-224.5"/>
<text text-anchor="middle" x="457" y="-231.5" font-family="Helvetica,sans-Serif" font-size="10.00">forces.cpp</text>
</a>
</g>
</g>
<!-- Node16&#45;&gt;Node17 -->
<g id="edge18" class="edge">
<title>Node16&#45;&gt;Node17</title>
<path fill="none" stroke="midnightblue" d="M458.93,-269.8C458.44,-260.91 457.88,-250.78 457.49,-243.75"/>
<polygon fill="midnightblue" stroke="midnightblue" points="455.46,-270.29 459.5,-280.08 462.44,-269.9 455.46,-270.29"/>
</g>
<!-- Node16&#45;&gt;Node18 -->
<g id="edge19" class="edge">
<title>Node16&#45;&gt;Node18</title>
<path fill="none" stroke="midnightblue" d="M500.18,-277.7C536.42,-267.51 588.91,-252.74 621.72,-243.52"/>
<polygon fill="midnightblue" stroke="midnightblue" points="499.1,-274.37 490.42,-280.44 501,-281.11 499.1,-274.37"/>
</g>
<!-- Node18&#45;&gt;Node19 -->
<g id="edge20" class="edge">
<title>Node18&#45;&gt;Node19</title>
<path fill="none" stroke="midnightblue" d="M716.22,-222.86C786.24,-211.8 896.09,-194.46 954.46,-185.24"/>
<polygon fill="midnightblue" stroke="midnightblue" points="715.52,-219.43 706.19,-224.44 716.61,-226.34 715.52,-219.43"/>
</g>
<!-- Node23&#45;&gt;Node8 -->
<g id="edge30" class="edge">
<title>Node23&#45;&gt;Node8</title>
<path fill="none" stroke="midnightblue" d="M799.48,-404.65C728.49,-400.73 594.35,-389.05 562,-356 531.51,-324.85 537.67,-266 541.33,-243.78"/>
<polygon fill="midnightblue" stroke="midnightblue" points="799.72,-408.17 809.89,-405.19 800.09,-401.18 799.72,-408.17"/>
</g>
<!-- Node23&#45;&gt;Node16 -->
<g id="edge31" class="edge">
<title>Node23&#45;&gt;Node16</title>
<path fill="none" stroke="midnightblue" d="M799.83,-407.42C736.56,-407.02 617.97,-399.78 529,-356 501.53,-342.49 477.55,-314.3 466.49,-299.89"/>
<polygon fill="midnightblue" stroke="midnightblue" points="799.86,-410.92 809.87,-407.43 799.87,-403.92 799.86,-410.92"/>
</g>
<!-- Node24 -->
<g id="node24" class="node">
<title>Node24</title>
<g id="a_node24"><a xlink:href="DipolarBarnesHut_8cpp.html" target="_top" xlink:title=" ">
<polygon fill="none" stroke="black" points="571.5,-336.5 571.5,-355.5 694.5,-355.5 694.5,-336.5 571.5,-336.5"/>
<text text-anchor="middle" x="633" y="-343.5" font-family="Helvetica,sans-Serif" font-size="10.00">DipolarBarnesHut.cpp</text>
</a>
</g>
</g>
<!-- Node23&#45;&gt;Node24 -->
<g id="edge27" class="edge">
<title>Node23&#45;&gt;Node24</title>
<path fill="none" stroke="midnightblue" d="M804.1,-395.25C763.11,-383.69 700.2,-365.95 663.18,-355.51"/>
<polygon fill="midnightblue" stroke="midnightblue" points="803.19,-398.63 813.77,-397.98 805.09,-391.89 803.19,-398.63"/>
</g>
<!-- Node25 -->
<g id="node25" class="node">
<title>Node25</title>
<g id="a_node25"><a xlink:href="DipolarDirectSum_8cpp.html" target="_top" xlink:title=" ">
<polygon fill="none" stroke="black" points="712.5,-336.5 712.5,-355.5 835.5,-355.5 835.5,-336.5 712.5,-336.5"/>
<text text-anchor="middle" x="774" y="-343.5" font-family="Helvetica,sans-Serif" font-size="10.00">DipolarDirectSum.cpp</text>
</a>
</g>
</g>
<!-- Node23&#45;&gt;Node25 -->
<g id="edge28" class="edge">
<title>Node23&#45;&gt;Node25</title>
<path fill="none" stroke="midnightblue" d="M826.32,-391.47C812.93,-380.09 795.02,-364.87 784.01,-355.51"/>
<polygon fill="midnightblue" stroke="midnightblue" points="824.08,-394.17 833.97,-397.98 828.62,-388.83 824.08,-394.17"/>
</g>
<!-- Node26 -->
<g id="node26" class="node">
<title>Node26</title>
<g id="a_node26"><a xlink:href="Mmm1dgpuForce_8cpp.html" target="_top" xlink:title=" ">
<polygon fill="none" stroke="black" points="854,-336.5 854,-355.5 976,-355.5 976,-336.5 854,-336.5"/>
<text text-anchor="middle" x="915" y="-343.5" font-family="Helvetica,sans-Serif" font-size="10.00">Mmm1dgpuForce.cpp</text>
</a>
</g>
</g>
<!-- Node23&#45;&gt;Node26 -->
<g id="edge29" class="edge">
<title>Node23&#45;&gt;Node26</title>
<path fill="none" stroke="midnightblue" d="M861.93,-391.47C875.51,-380.09 893.68,-364.87 904.85,-355.51"/>
<polygon fill="midnightblue" stroke="midnightblue" points="859.59,-388.87 854.17,-397.98 864.09,-394.23 859.59,-388.87"/>
</g>
<!-- Node27 -->
<g id="node27" class="node">
<title>Node27</title>
<g id="a_node27"><a xlink:href="integrate_8cpp.html" target="_top" xlink:title=" ">
<polygon fill="none" stroke="black" points="1146.5,-336.5 1146.5,-355.5 1227.5,-355.5 1227.5,-336.5 1146.5,-336.5"/>
<text text-anchor="middle" x="1187" y="-343.5" font-family="Helvetica,sans-Serif" font-size="10.00">integrate.cpp</text>
</a>
</g>
</g>
<!-- Node23&#45;&gt;Node27 -->
<g id="edge32" class="edge">
<title>Node23&#45;&gt;Node27</title>
<path fill="none" stroke="midnightblue" d="M888.48,-398.94C945.91,-389.15 1048.94,-371.51 1137,-356 1140.04,-355.46 1143.18,-354.91 1146.35,-354.34"/>
<polygon fill="midnightblue" stroke="midnightblue" points="887.57,-395.54 878.3,-400.67 888.74,-402.44 887.57,-395.54"/>
</g>
<!-- Node28 -->
<g id="node28" class="node">
<title>Node28</title>
<g id="a_node28"><a xlink:href="VirtualSitesRelative_8cpp.html" target="_top" xlink:title=" ">
<polygon fill="none" stroke="black" points="994,-336.5 994,-355.5 1128,-355.5 1128,-336.5 994,-336.5"/>
<text text-anchor="middle" x="1061" y="-343.5" font-family="Helvetica,sans-Serif" font-size="10.00">VirtualSitesRelative.cpp</text>
</a>
</g>
</g>
<!-- Node23&#45;&gt;Node28 -->
<g id="edge33" class="edge">
<title>Node23&#45;&gt;Node28</title>
<path fill="none" stroke="midnightblue" d="M884.77,-395.32C926.92,-383.76 991.8,-365.97 1029.97,-355.51"/>
<polygon fill="midnightblue" stroke="midnightblue" points="883.81,-391.96 875.09,-397.98 885.66,-398.71 883.81,-391.96"/>
</g>
<!-- Node30&#45;&gt;Node2 -->
<g id="edge37" class="edge">
<title>Node30&#45;&gt;Node2</title>
<path fill="none" stroke="midnightblue" d="M1133.89,-419.06C1138.34,-420.41 1142.77,-421.75 1147,-423 1190.85,-435.92 1240.89,-449.59 1276.3,-459.44"/>
<polygon fill="midnightblue" stroke="midnightblue" points="1134.77,-415.66 1124.18,-416.12 1132.74,-422.37 1134.77,-415.66"/>
</g>
<!-- Node30&#45;&gt;Node27 -->
<g id="edge38" class="edge">
<title>Node30&#45;&gt;Node27</title>
<path fill="none" stroke="midnightblue" d="M1114.21,-392.59C1132.55,-381.1 1157.98,-365.18 1173.41,-355.51"/>
<polygon fill="midnightblue" stroke="midnightblue" points="1112.23,-389.7 1105.61,-397.98 1115.94,-395.63 1112.23,-389.7"/>
</g>
<!-- Node31 -->
<g id="node31" class="node">
<title>Node31</title>
<g id="a_node31"><a xlink:href="rattle_8cpp.html" target="_top" xlink:title=" ">
<polygon fill="none" stroke="black" points="1245.5,-336.5 1245.5,-355.5 1308.5,-355.5 1308.5,-336.5 1245.5,-336.5"/>
<text text-anchor="middle" x="1277" y="-343.5" font-family="Helvetica,sans-Serif" font-size="10.00">rattle.cpp</text>
</a>
</g>
</g>
<!-- Node30&#45;&gt;Node31 -->
<g id="edge39" class="edge">
<title>Node30&#45;&gt;Node31</title>
<path fill="none" stroke="midnightblue" d="M1128.13,-394.88C1164.09,-383.32 1218.42,-365.84 1250.54,-355.51"/>
<polygon fill="midnightblue" stroke="midnightblue" points="1126.95,-391.58 1118.51,-397.98 1129.1,-398.25 1126.95,-391.58"/>
</g>
</g>
</svg>
        <g id="navigator" transform="translate(0 0)" fill="#404254">
                <rect fill="#f2f5e9" fill-opacity="0.5" stroke="#606060" stroke-width=".5" x="0" y="0" width="60" height="60"/>
                <use id="zoomplus" xlink:href="#zoomPlus" x="17" y="9" onmousedown="handleZoom(evt,'in')"/>
                <use id="zoomminus" xlink:href="#zoomMin" x="42" y="9" onmousedown="handleZoom(evt,'out')"/>
                <use id="reset" xlink:href="#resetDef" x="30" y="36" onmousedown="handleReset()"/>
                <g id="arrowUp" xlink:href="#dirArrow" transform="translate(30 24)" onmousedown="handlePan(0,-1)">
                  <use xlink:href="#rim" fill="#404040">
                        <set attributeName="fill" to="#808080" begin="arrowUp.mouseover" end="arrowUp.mouseout"/>
                  </use>
                  <path fill="none" stroke="white" stroke-width="1.5" d="M0,-3.0v7 M-2.5,-0.5L0,-3.0L2.5,-0.5"/>
                </g>
                <g id="arrowRight" xlink:href="#dirArrow" transform="rotate(90) translate(36 -43)" onmousedown="handlePan(1,0)">
                  <use xlink:href="#rim" fill="#404040">
                        <set attributeName="fill" to="#808080" begin="arrowRight.mouseover" end="arrowRight.mouseout"/>
                  </use>
                  <path fill="none" stroke="white" stroke-width="1.5" d="M0,-3.0v7 M-2.5,-0.5L0,-3.0L2.5,-0.5"/>
                </g>
                <g id="arrowDown" xlink:href="#dirArrow" transform="rotate(180) translate(-30 -48)" onmousedown="handlePan(0,1)">
                  <use xlink:href="#rim" fill="#404040">
                        <set attributeName="fill" to="#808080" begin="arrowDown.mouseover" end="arrowDown.mouseout"/>
                  </use>
                  <path fill="none" stroke="white" stroke-width="1.5" d="M0,-3.0v7 M-2.5,-0.5L0,-3.0L2.5,-0.5"/>
                </g>
                <g id="arrowLeft" xlink:href="#dirArrow" transform="rotate(270) translate(-36 17)" onmousedown="handlePan(-1,0)">
                  <use xlink:href="#rim" fill="#404040">
                        <set attributeName="fill" to="#808080" begin="arrowLeft.mouseover" end="arrowLeft.mouseout"/>
                  </use>
                  <path fill="none" stroke="white" stroke-width="1.5" d="M0,-3.0v7 M-2.5,-0.5L0,-3.0L2.5,-0.5"/>
                </g>
        </g>
        <svg viewBox="0 0 15 15" width="100%" height="30px" preserveAspectRatio="xMaxYMin meet">
         <g id="arrow_out" transform="scale(0.3 0.3)">
          <a xlink:href="ibm__volcons_8hpp__dep__incl_org.svg" target="_base">
           <rect id="button" ry="5" rx="5" y="6" x="6" height="38" width="38"
                fill="#f2f5e9" fill-opacity="0.5" stroke="#606060" stroke-width="1.0"/>
           <path id="arrow"
             d="M 11.500037,31.436501 C 11.940474,20.09759 22.043105,11.32322 32.158766,21.979434 L 37.068811,17.246167 C 37.068811,17.246167 37.088388,32 37.088388,32 L 22.160133,31.978069 C 22.160133,31.978069 26.997745,27.140456 26.997745,27.140456 C 18.528582,18.264221 13.291696,25.230495 11.500037,31.436501 z"
             style="fill:#404040;"/>
          </a>
         </g>
        </svg>
</svg>
