<?xml version="1.0" encoding="UTF-8" standalone="no"?>
<!DOCTYPE svg PUBLIC "-//W3C//DTD SVG 1.1//EN"
 "http://www.w3.org/Graphics/SVG/1.1/DTD/svg11.dtd">
<!-- Generated by graphviz version 2.43.0 (0)
 -->
<!-- Title: index.hpp Pages: 1 -->
<!--zoomable 263 -->
<svg id="main" version="1.1" xmlns="http://www.w3.org/2000/svg" xmlns:xlink="http://www.w3.org/1999/xlink" xml:space="preserve" onload="init(evt)">
<style type="text/css"><![CDATA[
.edge:hover path { stroke: red; }
.edge:hover polygon { stroke: red; fill: red; }
]]></style>
<script type="text/javascript"><![CDATA[
var edges = document.getElementsByTagName('g');
if (edges && edges.length) {
  for (var i=0;i<edges.length;i++) {
    if (edges[i].id.substr(0,4)=='edge') {
      edges[i].setAttribute('class','edge');
    }
  }
}
]]></script>
        <defs>
                <circle id="rim" cx="0" cy="0" r="7"/>
                <circle id="rim2" cx="0" cy="0" r="3.5"/>
                <g id="zoomPlus">
                        <use xlink:href="#rim" fill="#404040">
                                <set attributeName="fill" to="#808080" begin="zoomplus.mouseover" end="zoomplus.mouseout"/>
                        </use>
                        <path d="M-4,0h8M0,-4v8" fill="none" stroke="white" stroke-width="1.5" pointer-events="none"/>
                </g>
                <g id="zoomMin">
                        <use xlink:href="#rim" fill="#404040">
                                <set attributeName="fill" to="#808080" begin="zoomminus.mouseover" end="zoomminus.mouseout"/>
                        </use>
                        <path d="M-4,0h8" fill="none" stroke="white" stroke-width="1.5" pointer-events="none"/>
                </g>
                <g id="dirArrow">
                        <path fill="none" stroke="white" stroke-width="1.5" d="M0,-3.0v7 M-2.5,-0.5L0,-3.0L2.5,-0.5"/>
                </g>
               <g id="resetDef">
                       <use xlink:href="#rim2" fill="#404040">
                               <set attributeName="fill" to="#808080" begin="reset.mouseover" end="reset.mouseout"/>
                       </use>
               </g>
        </defs>

<script type="text/javascript">
var viewWidth = 1114;
var viewHeight = 263;
var sectionId = 'dynsection-0';
</script>
<script xlink:href="svgpan.js"/>
<svg id="graph" class="graph">
<g id="viewport">
<title>index.hpp</title>
<!-- Node1 -->
<g id="node1" class="node">
<title>Node1</title>
<g id="a_node1"><a xlink:title=" ">
<polygon fill="#bfbfbf" stroke="black" points="305.32,-235.5 305.32,-254.5 370.32,-254.5 370.32,-235.5 305.32,-235.5"/>
<text text-anchor="middle" x="337.82" y="-242.5" font-family="Helvetica,sans-Serif" font-size="10.00">index.hpp</text>
</a>
</g>
</g>
<!-- Node2 -->
<g id="node2" class="node">
<title>Node2</title>
<g id="a_node2"><a xlink:title=" ">
<polygon fill="none" stroke="#bfbfbf" points="220.82,-0.5 220.82,-19.5 272.82,-19.5 272.82,-0.5 220.82,-0.5"/>
<text text-anchor="middle" x="246.82" y="-7.5" font-family="Helvetica,sans-Serif" font-size="10.00">cassert</text>
</a>
</g>
</g>
<!-- Node1&#45;&gt;Node2 -->
<g id="edge1" class="edge">
<title>Node1&#45;&gt;Node2</title>
<path fill="none" stroke="midnightblue" d="M305.15,-244.46C252.33,-243.95 146.13,-237.67 66.82,-199 33.74,-182.87 20.62,-176.69 5.82,-143 -32.36,-56.13 134.26,-24.57 210.49,-14.81"/>
<polygon fill="midnightblue" stroke="midnightblue" points="211.12,-18.26 220.62,-13.57 210.27,-11.31 211.12,-18.26"/>
</g>
<!-- Node3 -->
<g id="node3" class="node">
<title>Node3</title>
<g id="a_node3"><a xlink:title=" ">
<polygon fill="none" stroke="#bfbfbf" points="930.32,-0.5 930.32,-19.5 983.32,-19.5 983.32,-0.5 930.32,-0.5"/>
<text text-anchor="middle" x="956.82" y="-7.5" font-family="Helvetica,sans-Serif" font-size="10.00">cstddef</text>
</a>
</g>
</g>
<!-- Node1&#45;&gt;Node3 -->
<g id="edge2" class="edge">
<title>Node1&#45;&gt;Node3</title>
<path fill="none" stroke="midnightblue" d="M370.43,-244.22C460.14,-244.24 717.82,-240.39 926.82,-199 1005.68,-183.38 1051.58,-208.05 1098.82,-143 1116.48,-118.68 1098.4,-81.58 1072.82,-56 1051.47,-34.66 1018.86,-23.21 993.65,-17.21"/>
<polygon fill="midnightblue" stroke="midnightblue" points="994.22,-13.75 983.7,-15.03 992.72,-20.59 994.22,-13.75"/>
</g>
<!-- Node4 -->
<g id="node4" class="node">
<title>Node4</title>
<g id="a_node4"><a xlink:title=" ">
<polygon fill="none" stroke="#bfbfbf" points="843.32,-62 843.32,-81 896.32,-81 896.32,-62 843.32,-62"/>
<text text-anchor="middle" x="869.82" y="-69" font-family="Helvetica,sans-Serif" font-size="10.00">iterator</text>
</a>
</g>
</g>
<!-- Node1&#45;&gt;Node4 -->
<g id="edge3" class="edge">
<title>Node1&#45;&gt;Node4</title>
<path fill="none" stroke="midnightblue" d="M370.67,-242.04C508.27,-233.49 1033.24,-197.48 1080.82,-143 1130.7,-85.88 979.95,-74.91 906.98,-72.9"/>
<polygon fill="midnightblue" stroke="midnightblue" points="906.89,-69.39 896.81,-72.66 906.73,-76.39 906.89,-69.39"/>
</g>
<!-- Node5 -->
<g id="node5" class="node">
<title>Node5</title>
<g id="a_node5"><a xlink:title=" ">
<polygon fill="none" stroke="#bfbfbf" points="25.82,-123.5 25.82,-142.5 81.82,-142.5 81.82,-123.5 25.82,-123.5"/>
<text text-anchor="middle" x="53.82" y="-130.5" font-family="Helvetica,sans-Serif" font-size="10.00">numeric</text>
</a>
</g>
</g>
<!-- Node1&#45;&gt;Node5 -->
<g id="edge4" class="edge">
<title>Node1&#45;&gt;Node5</title>
<path fill="none" stroke="midnightblue" d="M315.53,-235.37C265.35,-215.93 143.34,-168.67 85.39,-146.23"/>
<polygon fill="midnightblue" stroke="midnightblue" points="86.59,-142.94 76,-142.59 84.06,-149.47 86.59,-142.94"/>
</g>
<!-- Node6 -->
<g id="node6" class="node">
<title>Node6</title>
<g id="a_node6"><a xlink:title=" ">
<polygon fill="none" stroke="#bfbfbf" points="173.32,-62 173.32,-81 238.32,-81 238.32,-62 173.32,-62"/>
<text text-anchor="middle" x="205.82" y="-69" font-family="Helvetica,sans-Serif" font-size="10.00">stdexcept</text>
</a>
</g>
</g>
<!-- Node1&#45;&gt;Node6 -->
<g id="edge5" class="edge">
<title>Node1&#45;&gt;Node6</title>
<path fill="none" stroke="midnightblue" d="M305.2,-238.84C230.4,-226.26 50.37,-191.45 16.82,-143 -20.27,-89.43 96.37,-76.49 162.88,-73.42"/>
<polygon fill="midnightblue" stroke="midnightblue" points="163.25,-76.9 173.1,-73 162.97,-69.91 163.25,-76.9"/>
</g>
<!-- Node7 -->
<g id="node7" class="node">
<title>Node7</title>
<g id="a_node7"><a xlink:href="Vector_8hpp.html" target="_top" xlink:title=" ">
<polygon fill="none" stroke="black" points="456.32,-179.5 456.32,-198.5 525.32,-198.5 525.32,-179.5 456.32,-179.5"/>
<text text-anchor="middle" x="490.82" y="-186.5" font-family="Helvetica,sans-Serif" font-size="10.00">Vector.hpp</text>
</a>
</g>
</g>
<!-- Node1&#45;&gt;Node7 -->
<g id="edge6" class="edge">
<title>Node1&#45;&gt;Node7</title>
<path fill="none" stroke="midnightblue" d="M362.06,-235.44C387.69,-226.4 428.3,-212.06 457.06,-201.92"/>
<polygon fill="midnightblue" stroke="midnightblue" points="458.42,-205.15 466.69,-198.52 456.09,-198.54 458.42,-205.15"/>
</g>
<!-- Node7&#45;&gt;Node2 -->
<g id="edge22" class="edge">
<title>Node7&#45;&gt;Node2</title>
<path fill="none" stroke="midnightblue" d="M456.1,-186.24C369.85,-181.52 151.24,-167.26 129.82,-143 107.41,-117.62 130.89,-90.63 164.82,-56 178.59,-41.94 197.71,-31.11 214.02,-23.59"/>
<polygon fill="midnightblue" stroke="midnightblue" points="215.48,-26.78 223.23,-19.56 212.67,-20.36 215.48,-26.78"/>
</g>
<!-- Node7&#45;&gt;Node3 -->
<g id="edge24" class="edge">
<title>Node7&#45;&gt;Node3</title>
<path fill="none" stroke="midnightblue" d="M525.5,-188.03C646.26,-187.78 1042.98,-183.83 1080.82,-143 1121.49,-99.11 1033.16,-47.52 985.15,-23.94"/>
<polygon fill="midnightblue" stroke="midnightblue" points="986.67,-20.79 976.14,-19.61 983.64,-27.1 986.67,-20.79"/>
</g>
<!-- Node7&#45;&gt;Node4 -->
<g id="edge27" class="edge">
<title>Node7&#45;&gt;Node4</title>
<path fill="none" stroke="midnightblue" d="M525.49,-185.03C573.91,-180.14 664.02,-168.28 736.82,-143 737.53,-142.75 806.2,-106.29 844.58,-85.91"/>
<polygon fill="midnightblue" stroke="midnightblue" points="846.43,-88.89 853.62,-81.11 843.15,-82.71 846.43,-88.89"/>
</g>
<!-- Node7&#45;&gt;Node5 -->
<g id="edge28" class="edge">
<title>Node7&#45;&gt;Node5</title>
<path fill="none" stroke="midnightblue" d="M456.05,-185.19C387.07,-179.36 228.13,-164.66 95.82,-143 94.58,-142.8 93.32,-142.58 92.04,-142.36"/>
<polygon fill="midnightblue" stroke="midnightblue" points="92.69,-138.92 82.21,-140.48 91.38,-145.79 92.69,-138.92"/>
</g>
<!-- Node8 -->
<g id="node8" class="node">
<title>Node8</title>
<g id="a_node8"><a xlink:title=" ">
<polygon fill="none" stroke="#bfbfbf" points="473.82,-123.5 473.82,-142.5 623.82,-142.5 623.82,-123.5 473.82,-123.5"/>
<text text-anchor="middle" x="548.82" y="-130.5" font-family="Helvetica,sans-Serif" font-size="10.00">boost/qvm/deduce_vec.hpp</text>
</a>
</g>
</g>
<!-- Node7&#45;&gt;Node8 -->
<g id="edge7" class="edge">
<title>Node7&#45;&gt;Node8</title>
<path fill="none" stroke="midnightblue" d="M500.14,-179.32C508.71,-171.34 521.63,-159.31 532.01,-149.65"/>
<polygon fill="midnightblue" stroke="midnightblue" points="534.4,-152.21 539.33,-142.83 529.63,-147.09 534.4,-152.21"/>
</g>
<!-- Node9 -->
<g id="node9" class="node">
<title>Node9</title>
<g id="a_node9"><a xlink:title=" ">
<polygon fill="none" stroke="#bfbfbf" points="783.82,-123.5 783.82,-142.5 923.82,-142.5 923.82,-123.5 783.82,-123.5"/>
<text text-anchor="middle" x="853.82" y="-130.5" font-family="Helvetica,sans-Serif" font-size="10.00">boost/qvm/vec_traits.hpp</text>
</a>
</g>
</g>
<!-- Node7&#45;&gt;Node9 -->
<g id="edge8" class="edge">
<title>Node7&#45;&gt;Node9</title>
<path fill="none" stroke="midnightblue" d="M525.62,-182.82C585.57,-173.9 709.3,-155.5 786.53,-144.01"/>
<polygon fill="midnightblue" stroke="midnightblue" points="787.27,-147.44 796.65,-142.5 786.24,-140.51 787.27,-147.44"/>
</g>
<!-- Node10 -->
<g id="node10" class="node">
<title>Node10</title>
<g id="a_node10"><a xlink:href="Array_8hpp.html" target="_top" xlink:title=" ">
<polygon fill="none" stroke="black" points="641.82,-123.5 641.82,-142.5 727.82,-142.5 727.82,-123.5 641.82,-123.5"/>
<text text-anchor="middle" x="684.82" y="-130.5" font-family="Helvetica,sans-Serif" font-size="10.00">utils/Array.hpp</text>
</a>
</g>
</g>
<!-- Node7&#45;&gt;Node10 -->
<g id="edge9" class="edge">
<title>Node7&#45;&gt;Node10</title>
<path fill="none" stroke="midnightblue" d="M521.56,-179.44C554.76,-170.2 607.81,-155.44 644.38,-145.26"/>
<polygon fill="midnightblue" stroke="midnightblue" points="645.53,-148.57 654.22,-142.52 643.65,-141.83 645.53,-148.57"/>
</g>
<!-- Node16 -->
<g id="node16" class="node">
<title>Node16</title>
<g id="a_node16"><a xlink:title=" ">
<polygon fill="none" stroke="#bfbfbf" points="941.82,-123.5 941.82,-142.5 1005.82,-142.5 1005.82,-123.5 941.82,-123.5"/>
<text text-anchor="middle" x="973.82" y="-130.5" font-family="Helvetica,sans-Serif" font-size="10.00">algorithm</text>
</a>
</g>
</g>
<!-- Node7&#45;&gt;Node16 -->
<g id="edge21" class="edge">
<title>Node7&#45;&gt;Node16</title>
<path fill="none" stroke="midnightblue" d="M525.38,-185.84C598.47,-180.97 774.25,-167.73 931.34,-143.07"/>
<polygon fill="midnightblue" stroke="midnightblue" points="932.33,-146.45 941.66,-141.43 931.23,-139.54 932.33,-146.45"/>
</g>
<!-- Node17 -->
<g id="node17" class="node">
<title>Node17</title>
<g id="a_node17"><a xlink:title=" ">
<polygon fill="none" stroke="#bfbfbf" points="1024.32,-123.5 1024.32,-142.5 1071.32,-142.5 1071.32,-123.5 1024.32,-123.5"/>
<text text-anchor="middle" x="1047.82" y="-130.5" font-family="Helvetica,sans-Serif" font-size="10.00">cmath</text>
</a>
</g>
</g>
<!-- Node7&#45;&gt;Node17 -->
<g id="edge23" class="edge">
<title>Node7&#45;&gt;Node17</title>
<path fill="none" stroke="midnightblue" d="M525.43,-187.18C608.32,-184.77 824.76,-175.76 1014.28,-142.75"/>
<polygon fill="midnightblue" stroke="midnightblue" points="1014.9,-146.2 1024.14,-141.01 1013.68,-139.3 1014.9,-146.2"/>
</g>
<!-- Node18 -->
<g id="node18" class="node">
<title>Node18</title>
<g id="a_node18"><a xlink:title=" ">
<polygon fill="none" stroke="#bfbfbf" points="138.32,-123.5 138.32,-142.5 203.32,-142.5 203.32,-123.5 138.32,-123.5"/>
<text text-anchor="middle" x="170.82" y="-130.5" font-family="Helvetica,sans-Serif" font-size="10.00">functional</text>
</a>
</g>
</g>
<!-- Node7&#45;&gt;Node18 -->
<g id="edge25" class="edge">
<title>Node7&#45;&gt;Node18</title>
<path fill="none" stroke="midnightblue" d="M456.05,-182.95C405.12,-175.43 307.03,-160.46 213.28,-143"/>
<polygon fill="midnightblue" stroke="midnightblue" points="213.82,-139.54 203.34,-141.14 212.53,-146.42 213.82,-139.54"/>
</g>
<!-- Node19 -->
<g id="node19" class="node">
<title>Node19</title>
<g id="a_node19"><a xlink:title=" ">
<polygon fill="none" stroke="#bfbfbf" points="221.32,-123.5 221.32,-142.5 304.32,-142.5 304.32,-123.5 221.32,-123.5"/>
<text text-anchor="middle" x="262.82" y="-130.5" font-family="Helvetica,sans-Serif" font-size="10.00">initializer_list</text>
</a>
</g>
</g>
<!-- Node7&#45;&gt;Node19 -->
<g id="edge26" class="edge">
<title>Node7&#45;&gt;Node19</title>
<path fill="none" stroke="midnightblue" d="M456.19,-179.8C416.78,-170.46 352.25,-155.18 308.68,-144.86"/>
<polygon fill="midnightblue" stroke="midnightblue" points="309.44,-141.45 298.9,-142.55 307.83,-148.26 309.44,-141.45"/>
</g>
<!-- Node20 -->
<g id="node20" class="node">
<title>Node20</title>
<g id="a_node20"><a xlink:title=" ">
<polygon fill="none" stroke="#bfbfbf" points="322.32,-123.5 322.32,-142.5 391.32,-142.5 391.32,-123.5 322.32,-123.5"/>
<text text-anchor="middle" x="356.82" y="-130.5" font-family="Helvetica,sans-Serif" font-size="10.00">type_traits</text>
</a>
</g>
</g>
<!-- Node7&#45;&gt;Node20 -->
<g id="edge29" class="edge">
<title>Node7&#45;&gt;Node20</title>
<path fill="none" stroke="midnightblue" d="M469.59,-179.44C447.43,-170.52 412.5,-156.44 387.38,-146.32"/>
<polygon fill="midnightblue" stroke="midnightblue" points="388.53,-143.01 377.95,-142.52 385.92,-149.5 388.53,-143.01"/>
</g>
<!-- Node21 -->
<g id="node21" class="node">
<title>Node21</title>
<g id="a_node21"><a xlink:title=" ">
<polygon fill="none" stroke="#bfbfbf" points="409.32,-123.5 409.32,-142.5 456.32,-142.5 456.32,-123.5 409.32,-123.5"/>
<text text-anchor="middle" x="432.82" y="-130.5" font-family="Helvetica,sans-Serif" font-size="10.00">vector</text>
</a>
</g>
</g>
<!-- Node7&#45;&gt;Node21 -->
<g id="edge30" class="edge">
<title>Node7&#45;&gt;Node21</title>
<path fill="none" stroke="midnightblue" d="M481.5,-179.32C472.93,-171.34 460.01,-159.31 449.63,-149.65"/>
<polygon fill="midnightblue" stroke="midnightblue" points="452.01,-147.09 442.31,-142.83 447.24,-152.21 452.01,-147.09"/>
</g>
<!-- Node10&#45;&gt;Node2 -->
<g id="edge16" class="edge">
<title>Node10&#45;&gt;Node2</title>
<path fill="none" stroke="midnightblue" d="M677.66,-123.31C662.48,-105.14 627.15,-64.11 610.82,-56 553.71,-27.65 363.21,-16.12 282.95,-12.44"/>
<polygon fill="midnightblue" stroke="midnightblue" points="282.98,-8.94 272.83,-11.99 282.67,-15.93 282.98,-8.94"/>
</g>
<!-- Node10&#45;&gt;Node3 -->
<g id="edge17" class="edge">
<title>Node10&#45;&gt;Node3</title>
<path fill="none" stroke="midnightblue" d="M711.83,-123.49C734.95,-115.64 768.7,-102.83 795.82,-87 814.94,-75.84 815.52,-66.86 834.82,-56 861.97,-40.72 895.29,-28.84 920.25,-21.13"/>
<polygon fill="midnightblue" stroke="midnightblue" points="921.48,-24.42 930.05,-18.19 919.47,-17.71 921.48,-24.42"/>
</g>
<!-- Node10&#45;&gt;Node4 -->
<g id="edge18" class="edge">
<title>Node10&#45;&gt;Node4</title>
<path fill="none" stroke="midnightblue" d="M713.33,-123.43C742.46,-114.6 788.93,-100.28 828.82,-87 831.26,-86.19 833.78,-85.33 836.32,-84.46"/>
<polygon fill="midnightblue" stroke="midnightblue" points="837.73,-87.68 846.02,-81.08 835.43,-81.07 837.73,-87.68"/>
</g>
<!-- Node10&#45;&gt;Node6 -->
<g id="edge20" class="edge">
<title>Node10&#45;&gt;Node6</title>
<path fill="none" stroke="midnightblue" d="M641.72,-124.34C638.71,-123.87 635.72,-123.42 632.82,-123 492.9,-102.94 457.13,-104.16 316.82,-87 294.21,-84.24 269.04,-80.96 248.39,-78.23"/>
<polygon fill="midnightblue" stroke="midnightblue" points="248.72,-74.74 238.34,-76.89 247.79,-81.68 248.72,-74.74"/>
</g>
<!-- Node11 -->
<g id="node11" class="node">
<title>Node11</title>
<g id="a_node11"><a xlink:href="device__qualifier_8hpp.html" target="_top" xlink:title=" ">
<polygon fill="none" stroke="black" points="325.82,-62 325.82,-81 441.82,-81 441.82,-62 325.82,-62"/>
<text text-anchor="middle" x="383.82" y="-69" font-family="Helvetica,sans-Serif" font-size="10.00">device_qualifier.hpp</text>
</a>
</g>
</g>
<!-- Node10&#45;&gt;Node11 -->
<g id="edge10" class="edge">
<title>Node10&#45;&gt;Node11</title>
<path fill="none" stroke="midnightblue" d="M641.69,-123.48C587.71,-112.8 495.28,-94.53 436.98,-83.01"/>
<polygon fill="midnightblue" stroke="midnightblue" points="437.35,-79.51 426.86,-81.01 436,-86.38 437.35,-79.51"/>
</g>
<!-- Node12 -->
<g id="node12" class="node">
<title>Node12</title>
<g id="a_node12"><a xlink:href="get_8hpp.html" target="_top" xlink:title=" ">
<polygon fill="none" stroke="black" points="658.32,-62 658.32,-81 711.32,-81 711.32,-62 658.32,-62"/>
<text text-anchor="middle" x="684.82" y="-69" font-family="Helvetica,sans-Serif" font-size="10.00">get.hpp</text>
</a>
</g>
</g>
<!-- Node10&#45;&gt;Node12 -->
<g id="edge12" class="edge">
<title>Node10&#45;&gt;Node12</title>
<path fill="none" stroke="midnightblue" d="M684.82,-123.48C684.82,-115.08 684.82,-101.98 684.82,-91.16"/>
<polygon fill="midnightblue" stroke="midnightblue" points="688.32,-91.01 684.82,-81.01 681.32,-91.01 688.32,-91.01"/>
</g>
<!-- Node14 -->
<g id="node14" class="node">
<title>Node14</title>
<g id="a_node14"><a xlink:title=" ">
<polygon fill="none" stroke="#bfbfbf" points="494.32,-56.5 494.32,-86.5 601.32,-86.5 601.32,-56.5 494.32,-56.5"/>
<text text-anchor="start" x="502.32" y="-74.5" font-family="Helvetica,sans-Serif" font-size="10.00">boost/serialization</text>
<text text-anchor="middle" x="547.82" y="-63.5" font-family="Helvetica,sans-Serif" font-size="10.00">/access.hpp</text>
</a>
</g>
</g>
<!-- Node10&#45;&gt;Node14 -->
<g id="edge15" class="edge">
<title>Node10&#45;&gt;Node14</title>
<path fill="none" stroke="midnightblue" d="M665.19,-123.48C645.51,-114.93 614.59,-101.5 589.43,-90.57"/>
<polygon fill="midnightblue" stroke="midnightblue" points="590.67,-87.3 580.11,-86.52 587.88,-93.72 590.67,-87.3"/>
</g>
<!-- Node15 -->
<g id="node15" class="node">
<title>Node15</title>
<g id="a_node15"><a xlink:title=" ">
<polygon fill="none" stroke="#bfbfbf" points="729.32,-62 729.32,-81 786.32,-81 786.32,-62 729.32,-62"/>
<text text-anchor="middle" x="757.82" y="-69" font-family="Helvetica,sans-Serif" font-size="10.00">ostream</text>
</a>
</g>
</g>
<!-- Node10&#45;&gt;Node15 -->
<g id="edge19" class="edge">
<title>Node10&#45;&gt;Node15</title>
<path fill="none" stroke="midnightblue" d="M695.28,-123.48C706.77,-114.11 725.45,-98.88 739.4,-87.51"/>
<polygon fill="midnightblue" stroke="midnightblue" points="741.84,-90.04 747.38,-81.01 737.42,-84.61 741.84,-90.04"/>
</g>
<!-- Node11&#45;&gt;Node2 -->
<g id="edge11" class="edge">
<title>Node11&#45;&gt;Node2</title>
<path fill="none" stroke="midnightblue" d="M364.19,-61.98C340.99,-51.9 302.2,-35.05 275.6,-23.5"/>
<polygon fill="midnightblue" stroke="midnightblue" points="276.98,-20.28 266.41,-19.51 274.19,-26.7 276.98,-20.28"/>
</g>
<!-- Node12&#45;&gt;Node3 -->
<g id="edge13" class="edge">
<title>Node12&#45;&gt;Node3</title>
<path fill="none" stroke="midnightblue" d="M704,-61.97C709.37,-59.81 715.26,-57.63 720.82,-56 790.02,-35.68 873.41,-22.28 920.25,-15.72"/>
<polygon fill="midnightblue" stroke="midnightblue" points="920.8,-19.18 930.23,-14.35 919.85,-12.24 920.8,-19.18"/>
</g>
<!-- Node13 -->
<g id="node13" class="node">
<title>Node13</title>
<g id="a_node13"><a xlink:title=" ">
<polygon fill="none" stroke="#bfbfbf" points="664.32,-0.5 664.32,-19.5 705.32,-19.5 705.32,-0.5 664.32,-0.5"/>
<text text-anchor="middle" x="684.82" y="-7.5" font-family="Helvetica,sans-Serif" font-size="10.00">tuple</text>
</a>
</g>
</g>
<!-- Node12&#45;&gt;Node13 -->
<g id="edge14" class="edge">
<title>Node12&#45;&gt;Node13</title>
<path fill="none" stroke="midnightblue" d="M684.82,-61.98C684.82,-53.58 684.82,-40.48 684.82,-29.66"/>
<polygon fill="midnightblue" stroke="midnightblue" points="688.32,-29.51 684.82,-19.51 681.32,-29.51 688.32,-29.51"/>
</g>
</g>
</svg>
        <g id="navigator" transform="translate(0 0)" fill="#404254">
                <rect fill="#f2f5e9" fill-opacity="0.5" stroke="#606060" stroke-width=".5" x="0" y="0" width="60" height="60"/>
                <use id="zoomplus" xlink:href="#zoomPlus" x="17" y="9" onmousedown="handleZoom(evt,'in')"/>
                <use id="zoomminus" xlink:href="#zoomMin" x="42" y="9" onmousedown="handleZoom(evt,'out')"/>
                <use id="reset" xlink:href="#resetDef" x="30" y="36" onmousedown="handleReset()"/>
                <g id="arrowUp" xlink:href="#dirArrow" transform="translate(30 24)" onmousedown="handlePan(0,-1)">
                  <use xlink:href="#rim" fill="#404040">
                        <set attributeName="fill" to="#808080" begin="arrowUp.mouseover" end="arrowUp.mouseout"/>
                  </use>
                  <path fill="none" stroke="white" stroke-width="1.5" d="M0,-3.0v7 M-2.5,-0.5L0,-3.0L2.5,-0.5"/>
                </g>
                <g id="arrowRight" xlink:href="#dirArrow" transform="rotate(90) translate(36 -43)" onmousedown="handlePan(1,0)">
                  <use xlink:href="#rim" fill="#404040">
                        <set attributeName="fill" to="#808080" begin="arrowRight.mouseover" end="arrowRight.mouseout"/>
                  </use>
                  <path fill="none" stroke="white" stroke-width="1.5" d="M0,-3.0v7 M-2.5,-0.5L0,-3.0L2.5,-0.5"/>
                </g>
                <g id="arrowDown" xlink:href="#dirArrow" transform="rotate(180) translate(-30 -48)" onmousedown="handlePan(0,1)">
                  <use xlink:href="#rim" fill="#404040">
                        <set attributeName="fill" to="#808080" begin="arrowDown.mouseover" end="arrowDown.mouseout"/>
                  </use>
                  <path fill="none" stroke="white" stroke-width="1.5" d="M0,-3.0v7 M-2.5,-0.5L0,-3.0L2.5,-0.5"/>
                </g>
                <g id="arrowLeft" xlink:href="#dirArrow" transform="rotate(270) translate(-36 17)" onmousedown="handlePan(-1,0)">
                  <use xlink:href="#rim" fill="#404040">
                        <set attributeName="fill" to="#808080" begin="arrowLeft.mouseover" end="arrowLeft.mouseout"/>
                  </use>
                  <path fill="none" stroke="white" stroke-width="1.5" d="M0,-3.0v7 M-2.5,-0.5L0,-3.0L2.5,-0.5"/>
                </g>
        </g>
        <svg viewBox="0 0 15 15" width="100%" height="30px" preserveAspectRatio="xMaxYMin meet">
         <g id="arrow_out" transform="scale(0.3 0.3)">
          <a xlink:href="index_8hpp__incl_org.svg" target="_base">
           <rect id="button" ry="5" rx="5" y="6" x="6" height="38" width="38"
                fill="#f2f5e9" fill-opacity="0.5" stroke="#606060" stroke-width="1.0"/>
           <path id="arrow"
             d="M 11.500037,31.436501 C 11.940474,20.09759 22.043105,11.32322 32.158766,21.979434 L 37.068811,17.246167 C 37.068811,17.246167 37.088388,32 37.088388,32 L 22.160133,31.978069 C 22.160133,31.978069 26.997745,27.140456 26.997745,27.140456 C 18.528582,18.264221 13.291696,25.230495 11.500037,31.436501 z"
             style="fill:#404040;"/>
          </a>
         </g>
        </svg>
</svg>
