<?xml version="1.0" encoding="UTF-8" standalone="no"?>
<!DOCTYPE svg PUBLIC "-//W3C//DTD SVG 1.1//EN"
 "http://www.w3.org/Graphics/SVG/1.1/DTD/svg11.dtd">
<!-- Generated by graphviz version 2.43.0 (0)
 -->
<!-- Title: Graphical Class Hierarchy Pages: 1 -->
<svg width="704pt" height="279pt"
 viewBox="0.00 0.00 704.00 278.50" xmlns="http://www.w3.org/2000/svg" xmlns:xlink="http://www.w3.org/1999/xlink">
<g id="graph0" class="graph" transform="scale(1 1) rotate(0) translate(4 274.5)">
<title>Graphical Class Hierarchy</title>
<!-- Node329 -->
<g id="node1" class="node">
<title>Node329</title>
<g id="a_node1"><a xlink:title="STL class.">
<polygon fill="none" stroke="#bfbfbf" points="0,-137 0,-156 86,-156 86,-137 0,-137"/>
<text text-anchor="middle" x="43" y="-144" font-family="Helvetica,sans-Serif" font-size="10.00">std::exception</text>
</a>
</g>
</g>
<!-- Node0 -->
<g id="node2" class="node">
<title>Node0</title>
<g id="a_node2"><a xlink:href="structBondInvalidSizeError.html" target="_top" xlink:title="Exception indicating that a bond with an unexpected number of partners was encountered.">
<polygon fill="none" stroke="black" points="139,-251 139,-270 257,-270 257,-251 139,-251"/>
<text text-anchor="middle" x="198" y="-258" font-family="Helvetica,sans-Serif" font-size="10.00">BondInvalidSizeError</text>
</a>
</g>
</g>
<!-- Node329&#45;&gt;Node0 -->
<g id="edge1" class="edge">
<title>Node329&#45;&gt;Node0</title>
<path fill="none" stroke="midnightblue" d="M54.13,-164.89C67.04,-186.55 91.38,-222.06 122,-241.5 128.12,-245.39 135,-248.48 142.04,-250.94"/>
<polygon fill="midnightblue" stroke="midnightblue" points="57.05,-162.94 49.03,-156.01 50.98,-166.43 57.05,-162.94"/>
</g>
<!-- Node331 -->
<g id="node3" class="node">
<title>Node331</title>
<g id="a_node3"><a xlink:href="structBondResolutionError.html" target="_top" xlink:title="Exception indicating that a particle id could not be resolved.">
<polygon fill="none" stroke="black" points="140,-213 140,-232 256,-232 256,-213 140,-213"/>
<text text-anchor="middle" x="198" y="-220" font-family="Helvetica,sans-Serif" font-size="10.00">BondResolutionError</text>
</a>
</g>
</g>
<!-- Node329&#45;&gt;Node331 -->
<g id="edge2" class="edge">
<title>Node329&#45;&gt;Node331</title>
<path fill="none" stroke="midnightblue" d="M62.21,-162.96C77.24,-175.74 99.67,-193 122,-203.5 130.14,-207.33 139.16,-210.46 148.04,-212.99"/>
<polygon fill="midnightblue" stroke="midnightblue" points="64.1,-159.97 54.26,-156.04 59.5,-165.25 64.1,-159.97"/>
</g>
<!-- Node332 -->
<g id="node4" class="node">
<title>Node332</title>
<g id="a_node4"><a xlink:href="structBondUnknownTypeError.html" target="_top" xlink:title="Exception indicating that a bond type was unknown.">
<polygon fill="none" stroke="black" points="131.5,-175 131.5,-194 264.5,-194 264.5,-175 131.5,-175"/>
<text text-anchor="middle" x="198" y="-182" font-family="Helvetica,sans-Serif" font-size="10.00">BondUnknownTypeError</text>
</a>
</g>
</g>
<!-- Node329&#45;&gt;Node332 -->
<g id="edge3" class="edge">
<title>Node329&#45;&gt;Node332</title>
<path fill="none" stroke="midnightblue" d="M92.48,-158.54C113.85,-163.85 138.61,-170 158.67,-174.98"/>
<polygon fill="midnightblue" stroke="midnightblue" points="93.16,-155.1 82.61,-156.09 91.47,-161.9 93.16,-155.1"/>
</g>
<!-- Node333 -->
<g id="node5" class="node">
<title>Node333</title>
<g id="a_node5"><a xlink:href="structScriptInterface_1_1Exception.html" target="_top" xlink:title=" ">
<polygon fill="none" stroke="black" points="127,-137 127,-156 269,-156 269,-137 127,-137"/>
<text text-anchor="middle" x="198" y="-144" font-family="Helvetica,sans-Serif" font-size="10.00">ScriptInterface::Exception</text>
</a>
</g>
</g>
<!-- Node329&#45;&gt;Node333 -->
<g id="edge4" class="edge">
<title>Node329&#45;&gt;Node333</title>
<path fill="none" stroke="midnightblue" d="M96.52,-146.5C106.25,-146.5 116.56,-146.5 126.73,-146.5"/>
<polygon fill="midnightblue" stroke="midnightblue" points="96.21,-143 86.21,-146.5 96.21,-150 96.21,-143"/>
</g>
<!-- Node336 -->
<g id="node8" class="node">
<title>Node336</title>
<g id="a_node8"><a xlink:title="STL class.">
<polygon fill="none" stroke="#bfbfbf" points="146,-99 146,-118 250,-118 250,-99 146,-99"/>
<text text-anchor="middle" x="198" y="-106" font-family="Helvetica,sans-Serif" font-size="10.00">std::runtime_error</text>
</a>
</g>
</g>
<!-- Node329&#45;&gt;Node336 -->
<g id="edge7" class="edge">
<title>Node329&#45;&gt;Node336</title>
<path fill="none" stroke="midnightblue" d="M92.48,-134.46C113.85,-129.15 138.61,-123 158.67,-118.02"/>
<polygon fill="midnightblue" stroke="midnightblue" points="91.47,-131.1 82.61,-136.91 93.16,-137.9 91.47,-131.1"/>
</g>
<!-- Node339 -->
<g id="node11" class="node">
<title>Node339</title>
<g id="a_node11"><a xlink:href="structWriter_1_1H5md_1_1incompatible__h5mdfile.html" target="_top" xlink:title=" ">
<polygon fill="none" stroke="black" points="122,-49.5 122,-79.5 274,-79.5 274,-49.5 122,-49.5"/>
<text text-anchor="start" x="130" y="-67.5" font-family="Helvetica,sans-Serif" font-size="10.00">Writer::H5md::incompatible</text>
<text text-anchor="middle" x="198" y="-56.5" font-family="Helvetica,sans-Serif" font-size="10.00">_h5mdfile</text>
</a>
</g>
</g>
<!-- Node329&#45;&gt;Node339 -->
<g id="edge10" class="edge">
<title>Node329&#45;&gt;Node339</title>
<path fill="none" stroke="midnightblue" d="M62.95,-130.05C78.1,-117.56 100.32,-100.69 122,-89.5 129.2,-85.79 137.06,-82.46 144.9,-79.53"/>
<polygon fill="midnightblue" stroke="midnightblue" points="60.3,-127.71 54.9,-136.82 64.8,-133.06 60.3,-127.71"/>
</g>
<!-- Node340 -->
<g id="node12" class="node">
<title>Node340</title>
<g id="a_node12"><a xlink:href="structWriter_1_1H5md_1_1left__backupfile.html" target="_top" xlink:title=" ">
<polygon fill="none" stroke="black" points="146,-0.5 146,-30.5 250,-30.5 250,-0.5 146,-0.5"/>
<text text-anchor="start" x="154" y="-18.5" font-family="Helvetica,sans-Serif" font-size="10.00">Writer::H5md::left</text>
<text text-anchor="middle" x="198" y="-7.5" font-family="Helvetica,sans-Serif" font-size="10.00">_backupfile</text>
</a>
</g>
</g>
<!-- Node329&#45;&gt;Node340 -->
<g id="edge11" class="edge">
<title>Node329&#45;&gt;Node340</title>
<path fill="none" stroke="midnightblue" d="M52.87,-127.86C65.15,-103.99 89.55,-62.93 122,-39.5 129.09,-34.38 137.33,-30.32 145.69,-27.11"/>
<polygon fill="midnightblue" stroke="midnightblue" points="49.68,-126.42 48.36,-136.93 55.95,-129.53 49.68,-126.42"/>
</g>
<!-- Node334 -->
<g id="node6" class="node">
<title>Node334</title>
<g id="a_node6"><a xlink:href="structScriptInterface_1_1AutoParameters_1_1UnknownParameter.html" target="_top" xlink:title="Exception thrown when accessing an unknown parameter.">
<polygon fill="none" stroke="black" points="310,-180.5 310,-210.5 520,-210.5 520,-180.5 310,-180.5"/>
<text text-anchor="start" x="318" y="-198.5" font-family="Helvetica,sans-Serif" font-size="10.00">ScriptInterface::AutoParameters</text>
<text text-anchor="middle" x="415" y="-187.5" font-family="Helvetica,sans-Serif" font-size="10.00">&lt; Derived, Base &gt;::UnknownParameter</text>
</a>
</g>
</g>
<!-- Node333&#45;&gt;Node334 -->
<g id="edge5" class="edge">
<title>Node333&#45;&gt;Node334</title>
<path fill="none" stroke="midnightblue" d="M250.69,-158.28C279.86,-164.93 316.62,-173.31 347.87,-180.43"/>
<polygon fill="midnightblue" stroke="midnightblue" points="251.24,-154.82 240.71,-156.01 249.68,-161.64 251.24,-154.82"/>
</g>
<!-- Node335 -->
<g id="node7" class="node">
<title>Node335</title>
<g id="a_node7"><a xlink:href="structScriptInterface_1_1AutoParameters_1_1WriteError.html" target="_top" xlink:title="Exception thrown when writing to a read&#45;only parameter.">
<polygon fill="none" stroke="black" points="328.5,-131.5 328.5,-161.5 501.5,-161.5 501.5,-131.5 328.5,-131.5"/>
<text text-anchor="start" x="336.5" y="-149.5" font-family="Helvetica,sans-Serif" font-size="10.00">ScriptInterface::AutoParameters</text>
<text text-anchor="middle" x="415" y="-138.5" font-family="Helvetica,sans-Serif" font-size="10.00">&lt; Derived, Base &gt;::WriteError</text>
</a>
</g>
</g>
<!-- Node333&#45;&gt;Node335 -->
<g id="edge6" class="edge">
<title>Node333&#45;&gt;Node335</title>
<path fill="none" stroke="midnightblue" d="M279.43,-146.5C295.35,-146.5 312.13,-146.5 328.22,-146.5"/>
<polygon fill="midnightblue" stroke="midnightblue" points="279.1,-143 269.1,-146.5 279.1,-150 279.1,-143"/>
</g>
<!-- Node337 -->
<g id="node9" class="node">
<title>Node337</title>
<g id="a_node9"><a xlink:href="classcuda__runtime__error.html" target="_top" xlink:title=" ">
<polygon fill="none" stroke="black" points="359,-93 359,-112 471,-112 471,-93 359,-93"/>
<text text-anchor="middle" x="415" y="-100" font-family="Helvetica,sans-Serif" font-size="10.00">cuda_runtime_error</text>
</a>
</g>
</g>
<!-- Node336&#45;&gt;Node337 -->
<g id="edge8" class="edge">
<title>Node336&#45;&gt;Node337</title>
<path fill="none" stroke="midnightblue" d="M260.46,-106.78C291.4,-105.92 328.61,-104.88 358.65,-104.04"/>
<polygon fill="midnightblue" stroke="midnightblue" points="260.12,-103.29 250.22,-107.07 260.32,-110.29 260.12,-103.29"/>
</g>
<!-- Node338 -->
<g id="node10" class="node">
<title>Node338</title>
<g id="a_node10"><a xlink:href="classcuda__runtime__error__cuda.html" target="_top" xlink:title=" ">
<polygon fill="none" stroke="black" points="556,-93 556,-112 696,-112 696,-93 556,-93"/>
<text text-anchor="middle" x="626" y="-100" font-family="Helvetica,sans-Serif" font-size="10.00">cuda_runtime_error_cuda</text>
</a>
</g>
</g>
<!-- Node337&#45;&gt;Node338 -->
<g id="edge9" class="edge">
<title>Node337&#45;&gt;Node338</title>
<path fill="none" stroke="midnightblue" d="M481.44,-102.5C505.03,-102.5 531.72,-102.5 555.64,-102.5"/>
<polygon fill="midnightblue" stroke="midnightblue" points="481.19,-99 471.19,-102.5 481.19,-106 481.19,-99"/>
</g>
</g>
</svg>
