<?xml version="1.0" encoding="UTF-8" standalone="no"?>
<!DOCTYPE svg PUBLIC "-//W3C//DTD SVG 1.1//EN"
 "http://www.w3.org/Graphics/SVG/1.1/DTD/svg11.dtd">
<!-- Generated by graphviz version 2.43.0 (0)
 -->
<!-- Title: Graphical Class Hierarchy Pages: 1 -->
<svg width="1003pt" height="644pt"
 viewBox="0.00 0.00 1003.00 643.50" xmlns="http://www.w3.org/2000/svg" xmlns:xlink="http://www.w3.org/1999/xlink">
<g id="graph0" class="graph" transform="scale(1 1) rotate(0) translate(4 639.5)">
<title>Graphical Class Hierarchy</title>
<!-- Node0 -->
<g id="node1" class="node">
<title>Node0</title>
<g id="a_node1"><a xlink:href="classObservables_1_1Observable.html" target="_top" xlink:title="Base class for observables.">
<polygon fill="none" stroke="black" points="0,-325.5 0,-344.5 139,-344.5 139,-325.5 0,-325.5"/>
<text text-anchor="middle" x="69.5" y="-332.5" font-family="Helvetica,sans-Serif" font-size="10.00">Observables::Observable</text>
</a>
</g>
</g>
<!-- Node1 -->
<g id="node2" class="node">
<title>Node1</title>
<g id="a_node2"><a xlink:href="classObservables_1_1DPDStress.html" target="_top" xlink:title=" ">
<polygon fill="none" stroke="black" points="193,-470.5 193,-489.5 327,-489.5 327,-470.5 193,-470.5"/>
<text text-anchor="middle" x="260" y="-477.5" font-family="Helvetica,sans-Serif" font-size="10.00">Observables::DPDStress</text>
</a>
</g>
</g>
<!-- Node0&#45;&gt;Node1 -->
<g id="edge1" class="edge">
<title>Node0&#45;&gt;Node1</title>
<path fill="none" stroke="midnightblue" d="M80.47,-353.49C96.51,-381.4 130.8,-433.87 175,-461 181.37,-464.91 188.46,-468.02 195.74,-470.49"/>
<polygon fill="midnightblue" stroke="midnightblue" points="83.5,-351.75 75.57,-344.73 77.39,-355.17 83.5,-351.75"/>
</g>
<!-- Node2 -->
<g id="node3" class="node">
<title>Node2</title>
<g id="a_node3"><a xlink:href="classObservables_1_1Energy.html" target="_top" xlink:title=" ">
<polygon fill="none" stroke="black" points="201.5,-432.5 201.5,-451.5 318.5,-451.5 318.5,-432.5 201.5,-432.5"/>
<text text-anchor="middle" x="260" y="-439.5" font-family="Helvetica,sans-Serif" font-size="10.00">Observables::Energy</text>
</a>
</g>
</g>
<!-- Node0&#45;&gt;Node2 -->
<g id="edge2" class="edge">
<title>Node0&#45;&gt;Node2</title>
<path fill="none" stroke="midnightblue" d="M85.86,-352.18C104.81,-372.28 138.97,-405.1 175,-423 183.17,-427.06 192.21,-430.26 201.25,-432.79"/>
<polygon fill="midnightblue" stroke="midnightblue" points="88.28,-349.64 78.92,-344.66 83.13,-354.39 88.28,-349.64"/>
</g>
<!-- Node3 -->
<g id="node4" class="node">
<title>Node3</title>
<g id="a_node4"><a xlink:href="classObservables_1_1LBFluidPressureTensor.html" target="_top" xlink:title=" ">
<polygon fill="none" stroke="black" points="179.5,-383 179.5,-413 340.5,-413 340.5,-383 179.5,-383"/>
<text text-anchor="start" x="187.5" y="-401" font-family="Helvetica,sans-Serif" font-size="10.00">Observables::LBFluidPressure</text>
<text text-anchor="middle" x="260" y="-390" font-family="Helvetica,sans-Serif" font-size="10.00">Tensor</text>
</a>
</g>
</g>
<!-- Node0&#45;&gt;Node3 -->
<g id="edge3" class="edge">
<title>Node0&#45;&gt;Node3</title>
<path fill="none" stroke="midnightblue" d="M105.13,-348.18C125.39,-355.74 151.53,-365.25 175,-373 185.11,-376.34 195.98,-379.72 206.42,-382.88"/>
<polygon fill="midnightblue" stroke="midnightblue" points="106.28,-344.87 95.69,-344.64 103.83,-351.43 106.28,-344.87"/>
</g>
<!-- Node4 -->
<g id="node5" class="node">
<title>Node4</title>
<g id="a_node5"><a xlink:href="classObservables_1_1PidObservable.html" target="_top" xlink:title="Particle&#45;based observable.">
<polygon fill="none" stroke="black" points="183,-306.5 183,-325.5 337,-325.5 337,-306.5 183,-306.5"/>
<text text-anchor="middle" x="260" y="-313.5" font-family="Helvetica,sans-Serif" font-size="10.00">Observables::PidObservable</text>
</a>
</g>
</g>
<!-- Node0&#45;&gt;Node4 -->
<g id="edge4" class="edge">
<title>Node0&#45;&gt;Node4</title>
<path fill="none" stroke="midnightblue" d="M149.2,-327.07C160.32,-325.95 171.74,-324.8 182.81,-323.68"/>
<polygon fill="midnightblue" stroke="midnightblue" points="148.68,-323.6 139.09,-328.09 149.39,-330.57 148.68,-323.6"/>
</g>
<!-- Node25 -->
<g id="node26" class="node">
<title>Node25</title>
<g id="a_node26"><a xlink:href="classObservables_1_1Pressure.html" target="_top" xlink:title=" ">
<polygon fill="none" stroke="black" points="197.5,-268.5 197.5,-287.5 322.5,-287.5 322.5,-268.5 197.5,-268.5"/>
<text text-anchor="middle" x="260" y="-275.5" font-family="Helvetica,sans-Serif" font-size="10.00">Observables::Pressure</text>
</a>
</g>
</g>
<!-- Node0&#45;&gt;Node25 -->
<g id="edge25" class="edge">
<title>Node0&#45;&gt;Node25</title>
<path fill="none" stroke="midnightblue" d="M103.73,-321.7C124.09,-313.85 150.8,-304.1 175,-297 186.91,-293.5 199.92,-290.28 212.08,-287.51"/>
<polygon fill="midnightblue" stroke="midnightblue" points="102.34,-318.48 94.29,-325.37 104.88,-325.01 102.34,-318.48"/>
</g>
<!-- Node26 -->
<g id="node27" class="node">
<title>Node26</title>
<g id="a_node27"><a xlink:href="classObservables_1_1PressureTensor.html" target="_top" xlink:title=" ">
<polygon fill="none" stroke="black" points="181.5,-230.5 181.5,-249.5 338.5,-249.5 338.5,-230.5 181.5,-230.5"/>
<text text-anchor="middle" x="260" y="-237.5" font-family="Helvetica,sans-Serif" font-size="10.00">Observables::PressureTensor</text>
</a>
</g>
</g>
<!-- Node0&#45;&gt;Node26 -->
<g id="edge26" class="edge">
<title>Node0&#45;&gt;Node26</title>
<path fill="none" stroke="midnightblue" d="M88.13,-318.65C107.83,-301.27 141.39,-274.24 175,-259 183.44,-255.17 192.72,-252.08 201.94,-249.6"/>
<polygon fill="midnightblue" stroke="midnightblue" points="85.67,-316.16 80.57,-325.45 90.35,-321.36 85.67,-316.16"/>
</g>
<!-- Node27 -->
<g id="node28" class="node">
<title>Node27</title>
<g id="a_node28"><a xlink:href="classObservables_1_1ProfileObservable.html" target="_top" xlink:title="Cartesian profile observable.">
<polygon fill="none" stroke="black" points="175,-344.5 175,-363.5 345,-363.5 345,-344.5 175,-344.5"/>
<text text-anchor="middle" x="260" y="-351.5" font-family="Helvetica,sans-Serif" font-size="10.00">Observables::ProfileObservable</text>
</a>
</g>
</g>
<!-- Node0&#45;&gt;Node27 -->
<g id="edge27" class="edge">
<title>Node0&#45;&gt;Node27</title>
<path fill="none" stroke="midnightblue" d="M149.25,-342.94C157.67,-343.79 166.25,-344.65 174.73,-345.51"/>
<polygon fill="midnightblue" stroke="midnightblue" points="149.39,-339.43 139.09,-341.91 148.68,-346.4 149.39,-339.43"/>
</g>
<!-- Node33 -->
<g id="node34" class="node">
<title>Node33</title>
<g id="a_node34"><a xlink:href="classObservables_1_1RDF.html" target="_top" xlink:title="Radial distribution function.">
<polygon fill="none" stroke="black" points="208,-192.5 208,-211.5 312,-211.5 312,-192.5 208,-192.5"/>
<text text-anchor="middle" x="260" y="-199.5" font-family="Helvetica,sans-Serif" font-size="10.00">Observables::RDF</text>
</a>
</g>
</g>
<!-- Node0&#45;&gt;Node33 -->
<g id="edge35" class="edge">
<title>Node0&#45;&gt;Node33</title>
<path fill="none" stroke="midnightblue" d="M81.89,-316.82C98.9,-291.25 133.43,-245.12 175,-221 184.96,-215.22 196.53,-211.2 207.83,-208.4"/>
<polygon fill="midnightblue" stroke="midnightblue" points="78.94,-314.93 76.43,-325.22 84.81,-318.74 78.94,-314.93"/>
</g>
<!-- Node5 -->
<g id="node6" class="node">
<title>Node5</title>
<g id="a_node6"><a xlink:href="classObservables_1_1BondAngles.html" target="_top" xlink:title="Calculate bond angles between particles in a polymer.">
<polygon fill="none" stroke="black" points="403,-126.5 403,-145.5 544,-145.5 544,-126.5 403,-126.5"/>
<text text-anchor="middle" x="473.5" y="-133.5" font-family="Helvetica,sans-Serif" font-size="10.00">Observables::BondAngles</text>
</a>
</g>
</g>
<!-- Node4&#45;&gt;Node5 -->
<g id="edge5" class="edge">
<title>Node4&#45;&gt;Node5</title>
<path fill="none" stroke="midnightblue" d="M340.43,-300.95C342.03,-299.72 343.55,-298.41 345,-297 391.63,-251.56 333.97,-200.02 381,-155 387.21,-149.05 394.77,-144.75 402.86,-141.68"/>
<polygon fill="midnightblue" stroke="midnightblue" points="338.5,-298.02 331.94,-306.34 342.26,-303.93 338.5,-298.02"/>
</g>
<!-- Node6 -->
<g id="node7" class="node">
<title>Node6</title>
<g id="a_node7"><a xlink:href="classObservables_1_1BondDihedrals.html" target="_top" xlink:title="Calculate dihedral angles between particles in a polymer.">
<polygon fill="none" stroke="black" points="396,-88.5 396,-107.5 551,-107.5 551,-88.5 396,-88.5"/>
<text text-anchor="middle" x="473.5" y="-95.5" font-family="Helvetica,sans-Serif" font-size="10.00">Observables::BondDihedrals</text>
</a>
</g>
</g>
<!-- Node4&#45;&gt;Node6 -->
<g id="edge6" class="edge">
<title>Node4&#45;&gt;Node6</title>
<path fill="none" stroke="midnightblue" d="M341.04,-300.63C342.42,-299.5 343.74,-298.29 345,-297 401.96,-238.59 323.52,-174.9 381,-117 385.34,-112.62 390.41,-109.13 395.9,-106.35"/>
<polygon fill="midnightblue" stroke="midnightblue" points="338.89,-297.86 332.55,-306.34 342.8,-303.66 338.89,-297.86"/>
</g>
<!-- Node7 -->
<g id="node8" class="node">
<title>Node7</title>
<g id="a_node8"><a xlink:href="classObservables_1_1CosPersistenceAngles.html" target="_top" xlink:title="Calculate bond angles in a polymer.">
<polygon fill="none" stroke="black" points="394.5,-39 394.5,-69 552.5,-69 552.5,-39 394.5,-39"/>
<text text-anchor="start" x="402.5" y="-57" font-family="Helvetica,sans-Serif" font-size="10.00">Observables::CosPersistence</text>
<text text-anchor="middle" x="473.5" y="-46" font-family="Helvetica,sans-Serif" font-size="10.00">Angles</text>
</a>
</g>
</g>
<!-- Node4&#45;&gt;Node7 -->
<g id="edge7" class="edge">
<title>Node4&#45;&gt;Node7</title>
<path fill="none" stroke="midnightblue" d="M341.1,-300.69C342.46,-299.54 343.77,-298.31 345,-297 412.37,-225.55 315.23,-151.92 381,-79 384.86,-74.72 389.38,-71.14 394.29,-68.16"/>
<polygon fill="midnightblue" stroke="midnightblue" points="338.94,-297.92 332.69,-306.48 342.91,-303.69 338.94,-297.92"/>
</g>
<!-- Node8 -->
<g id="node9" class="node">
<title>Node8</title>
<g id="a_node9"><a xlink:href="classObservables_1_1CylindricalPidProfileObservable.html" target="_top" xlink:title=" ">
<polygon fill="none" stroke="black" points="617.5,-482 617.5,-512 752.5,-512 752.5,-482 617.5,-482"/>
<text text-anchor="start" x="625.5" y="-500" font-family="Helvetica,sans-Serif" font-size="10.00">Observables::Cylindrical</text>
<text text-anchor="middle" x="685" y="-489" font-family="Helvetica,sans-Serif" font-size="10.00">PidProfileObservable</text>
</a>
</g>
</g>
<!-- Node4&#45;&gt;Node8 -->
<g id="edge8" class="edge">
<title>Node4&#45;&gt;Node8</title>
<path fill="none" stroke="midnightblue" d="M340.26,-330.99C341.92,-332.23 343.5,-333.57 345,-335 388.93,-377.05 334.55,-427.75 381,-467 415.52,-496.17 539.12,-499.76 617.39,-498.92"/>
<polygon fill="midnightblue" stroke="midnightblue" points="341.81,-327.83 331.47,-325.53 338.12,-333.78 341.81,-327.83"/>
</g>
<!-- Node14 -->
<g id="node15" class="node">
<title>Node14</title>
<g id="a_node15"><a xlink:href="classObservables_1_1ParticleAngularVelocities.html" target="_top" xlink:title=" ">
<polygon fill="none" stroke="black" points="394.5,-301 394.5,-331 552.5,-331 552.5,-301 394.5,-301"/>
<text text-anchor="start" x="402.5" y="-319" font-family="Helvetica,sans-Serif" font-size="10.00">Observables::ParticleAngular</text>
<text text-anchor="middle" x="473.5" y="-308" font-family="Helvetica,sans-Serif" font-size="10.00">Velocities</text>
</a>
</g>
</g>
<!-- Node4&#45;&gt;Node14 -->
<g id="edge14" class="edge">
<title>Node4&#45;&gt;Node14</title>
<path fill="none" stroke="midnightblue" d="M347.19,-316C362.77,-316 378.94,-316 394.27,-316"/>
<polygon fill="midnightblue" stroke="midnightblue" points="347.06,-312.5 337.06,-316 347.06,-319.5 347.06,-312.5"/>
</g>
<!-- Node15 -->
<g id="node16" class="node">
<title>Node15</title>
<g id="a_node16"><a xlink:href="classObservables_1_1ParticleBodyAngularVelocities.html" target="_top" xlink:title=" ">
<polygon fill="none" stroke="black" points="401,-252 401,-282 546,-282 546,-252 401,-252"/>
<text text-anchor="start" x="409" y="-270" font-family="Helvetica,sans-Serif" font-size="10.00">Observables::ParticleBody</text>
<text text-anchor="middle" x="473.5" y="-259" font-family="Helvetica,sans-Serif" font-size="10.00">AngularVelocities</text>
</a>
</g>
</g>
<!-- Node4&#45;&gt;Node15 -->
<g id="edge15" class="edge">
<title>Node4&#45;&gt;Node15</title>
<path fill="none" stroke="midnightblue" d="M313.57,-304.18C323.99,-301.82 334.84,-299.34 345,-297 365.83,-292.19 388.55,-286.87 408.97,-282.06"/>
<polygon fill="midnightblue" stroke="midnightblue" points="312.73,-300.78 303.75,-306.41 314.28,-307.61 312.73,-300.78"/>
</g>
<!-- Node16 -->
<g id="node17" class="node">
<title>Node16</title>
<g id="a_node17"><a xlink:href="classObservables_1_1ParticleBodyVelocities.html" target="_top" xlink:title=" ">
<polygon fill="none" stroke="black" points="401,-203 401,-233 546,-233 546,-203 401,-203"/>
<text text-anchor="start" x="409" y="-221" font-family="Helvetica,sans-Serif" font-size="10.00">Observables::ParticleBody</text>
<text text-anchor="middle" x="473.5" y="-210" font-family="Helvetica,sans-Serif" font-size="10.00">Velocities</text>
</a>
</g>
</g>
<!-- Node4&#45;&gt;Node16 -->
<g id="edge16" class="edge">
<title>Node4&#45;&gt;Node16</title>
<path fill="none" stroke="midnightblue" d="M336.27,-302.2C339.31,-300.65 342.24,-298.92 345,-297 369,-280.34 357.29,-259.07 381,-242 387,-237.68 393.71,-234.14 400.71,-231.24"/>
<polygon fill="midnightblue" stroke="midnightblue" points="334.58,-299.12 326.86,-306.37 337.42,-305.52 334.58,-299.12"/>
</g>
<!-- Node17 -->
<g id="node18" class="node">
<title>Node17</title>
<g id="a_node18"><a xlink:href="classObservables_1_1ParticleDistances.html" target="_top" xlink:title="Calculate distances between particles in a polymer.">
<polygon fill="none" stroke="black" points="389.5,-164.5 389.5,-183.5 557.5,-183.5 557.5,-164.5 389.5,-164.5"/>
<text text-anchor="middle" x="473.5" y="-171.5" font-family="Helvetica,sans-Serif" font-size="10.00">Observables::ParticleDistances</text>
</a>
</g>
</g>
<!-- Node4&#45;&gt;Node17 -->
<g id="edge17" class="edge">
<title>Node4&#45;&gt;Node17</title>
<path fill="none" stroke="midnightblue" d="M339.56,-301.28C341.46,-299.96 343.28,-298.54 345,-297 381.45,-264.38 344.26,-225.29 381,-193 385.26,-189.25 390.07,-186.17 395.2,-183.65"/>
<polygon fill="midnightblue" stroke="midnightblue" points="337.68,-298.33 330.79,-306.37 341.19,-304.38 337.68,-298.33"/>
</g>
<!-- Node18 -->
<g id="node19" class="node">
<title>Node18</title>
<g id="a_node19"><a xlink:href="classObservables_1_1ParticleForces.html" target="_top" xlink:title="Extract particle forces.">
<polygon fill="none" stroke="black" points="397.5,-0.5 397.5,-19.5 549.5,-19.5 549.5,-0.5 397.5,-0.5"/>
<text text-anchor="middle" x="473.5" y="-7.5" font-family="Helvetica,sans-Serif" font-size="10.00">Observables::ParticleForces</text>
</a>
</g>
</g>
<!-- Node4&#45;&gt;Node18 -->
<g id="edge18" class="edge">
<title>Node4&#45;&gt;Node18</title>
<path fill="none" stroke="midnightblue" d="M341.62,-300.33C342.8,-299.28 343.93,-298.17 345,-297 426.12,-208.33 299.1,-116.95 381,-29 385.64,-24.01 391.23,-20.15 397.32,-17.18"/>
<polygon fill="midnightblue" stroke="midnightblue" points="339.28,-297.7 333.21,-306.38 343.37,-303.38 339.28,-297.7"/>
</g>
<!-- Node19 -->
<g id="node20" class="node">
<title>Node19</title>
<g id="a_node20"><a xlink:href="classObservables_1_1ParticleObservable.html" target="_top" xlink:title="This class implements an interface to the particle_observables library that implements necessary algo...">
<polygon fill="none" stroke="black" points="385.5,-389 385.5,-419 561.5,-419 561.5,-389 385.5,-389"/>
<text text-anchor="start" x="393.5" y="-407" font-family="Helvetica,sans-Serif" font-size="10.00">Observables::ParticleObservable</text>
<text text-anchor="middle" x="473.5" y="-396" font-family="Helvetica,sans-Serif" font-size="10.00">&lt; ObsType &gt;</text>
</a>
</g>
</g>
<!-- Node4&#45;&gt;Node19 -->
<g id="edge19" class="edge">
<title>Node4&#45;&gt;Node19</title>
<path fill="none" stroke="midnightblue" d="M334.24,-329.35C337.98,-331.02 341.59,-332.89 345,-335 366.49,-348.29 359.81,-365.24 381,-379 386.94,-382.86 393.46,-386.12 400.21,-388.89"/>
<polygon fill="midnightblue" stroke="midnightblue" points="335.31,-326.01 324.72,-325.62 332.75,-332.53 335.31,-326.01"/>
</g>
<!-- Node20 -->
<g id="node21" class="node">
<title>Node20</title>
<g id="a_node21"><a xlink:href="classObservables_1_1PidProfileObservable.html" target="_top" xlink:title=" ">
<polygon fill="none" stroke="black" points="381,-438.5 381,-457.5 566,-457.5 566,-438.5 381,-438.5"/>
<text text-anchor="middle" x="473.5" y="-445.5" font-family="Helvetica,sans-Serif" font-size="10.00">Observables::PidProfileObservable</text>
</a>
</g>
</g>
<!-- Node4&#45;&gt;Node20 -->
<g id="edge20" class="edge">
<title>Node4&#45;&gt;Node20</title>
<path fill="none" stroke="midnightblue" d="M339.35,-330.7C341.32,-332.02 343.21,-333.45 345,-335 378.82,-364.29 346.92,-400.01 381,-429 385.45,-432.78 390.46,-435.88 395.78,-438.41"/>
<polygon fill="midnightblue" stroke="midnightblue" points="340.68,-327.43 330.24,-325.58 337.25,-333.53 340.68,-327.43"/>
</g>
<!-- Node24 -->
<g id="node25" class="node">
<title>Node24</title>
<g id="a_node25"><a xlink:href="classObservables_1_1TotalForce.html" target="_top" xlink:title=" ">
<polygon fill="none" stroke="black" points="407,-350.5 407,-369.5 540,-369.5 540,-350.5 407,-350.5"/>
<text text-anchor="middle" x="473.5" y="-357.5" font-family="Helvetica,sans-Serif" font-size="10.00">Observables::TotalForce</text>
</a>
</g>
</g>
<!-- Node4&#45;&gt;Node24 -->
<g id="edge24" class="edge">
<title>Node4&#45;&gt;Node24</title>
<path fill="none" stroke="midnightblue" d="M316.76,-327.6C351.04,-334.73 394.43,-343.76 426.7,-350.47"/>
<polygon fill="midnightblue" stroke="midnightblue" points="317.4,-324.16 306.89,-325.55 315.97,-331.01 317.4,-324.16"/>
</g>
<!-- Node9 -->
<g id="node10" class="node">
<title>Node9</title>
<g id="a_node10"><a xlink:href="classObservables_1_1CylindricalDensityProfile.html" target="_top" xlink:title=" ">
<polygon fill="none" stroke="black" points="832,-458 832,-488 967,-488 967,-458 832,-458"/>
<text text-anchor="start" x="840" y="-476" font-family="Helvetica,sans-Serif" font-size="10.00">Observables::Cylindrical</text>
<text text-anchor="middle" x="899.5" y="-465" font-family="Helvetica,sans-Serif" font-size="10.00">DensityProfile</text>
</a>
</g>
</g>
<!-- Node8&#45;&gt;Node9 -->
<g id="edge9" class="edge">
<title>Node8&#45;&gt;Node9</title>
<path fill="none" stroke="midnightblue" d="M762.86,-488.32C785.4,-485.77 809.86,-483.01 831.72,-480.54"/>
<polygon fill="midnightblue" stroke="midnightblue" points="762.2,-484.87 752.65,-489.47 762.98,-491.83 762.2,-484.87"/>
</g>
<!-- Node10 -->
<g id="node11" class="node">
<title>Node10</title>
<g id="a_node11"><a xlink:href="classObservables_1_1CylindricalFluxDensityProfile.html" target="_top" xlink:title=" ">
<polygon fill="none" stroke="black" points="832,-409 832,-439 967,-439 967,-409 832,-409"/>
<text text-anchor="start" x="840" y="-427" font-family="Helvetica,sans-Serif" font-size="10.00">Observables::Cylindrical</text>
<text text-anchor="middle" x="899.5" y="-416" font-family="Helvetica,sans-Serif" font-size="10.00">FluxDensityProfile</text>
</a>
</g>
</g>
<!-- Node8&#45;&gt;Node10 -->
<g id="edge10" class="edge">
<title>Node8&#45;&gt;Node10</title>
<path fill="none" stroke="midnightblue" d="M755.18,-478.42C759.57,-476.73 763.88,-474.92 768,-473 785.43,-464.87 786.47,-456.9 804,-449 812.82,-445.03 822.4,-441.58 831.96,-438.63"/>
<polygon fill="midnightblue" stroke="midnightblue" points="753.68,-475.23 745.47,-481.93 756.06,-481.82 753.68,-475.23"/>
</g>
<!-- Node11 -->
<g id="node12" class="node">
<title>Node11</title>
<g id="a_node12"><a xlink:href="classObservables_1_1CylindricalLBFluxDensityProfileAtParticlePositions.html" target="_top" xlink:title=" ">
<polygon fill="none" stroke="black" points="816.5,-348.5 816.5,-389.5 982.5,-389.5 982.5,-348.5 816.5,-348.5"/>
<text text-anchor="start" x="824.5" y="-377.5" font-family="Helvetica,sans-Serif" font-size="10.00">Observables::Cylindrical</text>
<text text-anchor="start" x="824.5" y="-366.5" font-family="Helvetica,sans-Serif" font-size="10.00">LBFluxDensityProfileAtParticle</text>
<text text-anchor="middle" x="899.5" y="-355.5" font-family="Helvetica,sans-Serif" font-size="10.00">Positions</text>
</a>
</g>
</g>
<!-- Node8&#45;&gt;Node11 -->
<g id="edge11" class="edge">
<title>Node8&#45;&gt;Node11</title>
<path fill="none" stroke="midnightblue" d="M761.56,-477.78C763.81,-476.3 765.96,-474.71 768,-473 795.7,-449.73 776.68,-423.71 804,-400 808.56,-396.04 813.65,-392.58 819.02,-389.56"/>
<polygon fill="midnightblue" stroke="midnightblue" points="759.47,-474.94 752.51,-482.93 762.93,-481.02 759.47,-474.94"/>
</g>
<!-- Node12 -->
<g id="node13" class="node">
<title>Node12</title>
<g id="a_node13"><a xlink:href="classObservables_1_1CylindricalLBVelocityProfileAtParticlePositions.html" target="_top" xlink:title=" ">
<polygon fill="none" stroke="black" points="804,-556 804,-586 995,-586 995,-556 804,-556"/>
<text text-anchor="start" x="812" y="-574" font-family="Helvetica,sans-Serif" font-size="10.00">Observables::Cylindrical</text>
<text text-anchor="middle" x="899.5" y="-563" font-family="Helvetica,sans-Serif" font-size="10.00">LBVelocityProfileAtParticlePositions</text>
</a>
</g>
</g>
<!-- Node8&#45;&gt;Node12 -->
<g id="edge12" class="edge">
<title>Node8&#45;&gt;Node12</title>
<path fill="none" stroke="midnightblue" d="M753.46,-515.69C758.45,-517.64 763.35,-519.74 768,-522 785.53,-530.5 786.28,-538.92 804,-547 811.47,-550.41 819.5,-553.38 827.61,-555.97"/>
<polygon fill="midnightblue" stroke="midnightblue" points="754.37,-512.3 743.78,-512.12 751.95,-518.87 754.37,-512.3"/>
</g>
<!-- Node13 -->
<g id="node14" class="node">
<title>Node13</title>
<g id="a_node14"><a xlink:href="classObservables_1_1CylindricalVelocityProfile.html" target="_top" xlink:title=" ">
<polygon fill="none" stroke="black" points="832,-507 832,-537 967,-537 967,-507 832,-507"/>
<text text-anchor="start" x="840" y="-525" font-family="Helvetica,sans-Serif" font-size="10.00">Observables::Cylindrical</text>
<text text-anchor="middle" x="899.5" y="-514" font-family="Helvetica,sans-Serif" font-size="10.00">VelocityProfile</text>
</a>
</g>
</g>
<!-- Node8&#45;&gt;Node13 -->
<g id="edge13" class="edge">
<title>Node8&#45;&gt;Node13</title>
<path fill="none" stroke="midnightblue" d="M762.86,-506.04C785.4,-508.69 809.86,-511.57 831.72,-514.14"/>
<polygon fill="midnightblue" stroke="midnightblue" points="762.99,-502.53 752.65,-504.84 762.18,-509.49 762.99,-502.53"/>
</g>
<!-- Node21 -->
<g id="node22" class="node">
<title>Node21</title>
<g id="a_node22"><a xlink:href="classObservables_1_1DensityProfile.html" target="_top" xlink:title=" ">
<polygon fill="none" stroke="black" points="609,-345.5 609,-364.5 761,-364.5 761,-345.5 609,-345.5"/>
<text text-anchor="middle" x="685" y="-352.5" font-family="Helvetica,sans-Serif" font-size="10.00">Observables::DensityProfile</text>
</a>
</g>
</g>
<!-- Node20&#45;&gt;Node21 -->
<g id="edge21" class="edge">
<title>Node20&#45;&gt;Node21</title>
<path fill="none" stroke="midnightblue" d="M556.83,-434.33C560.01,-432.73 563.09,-430.97 566,-429 589.91,-412.86 578.37,-391.55 602,-375 608.24,-370.63 615.33,-367.21 622.66,-364.53"/>
<polygon fill="midnightblue" stroke="midnightblue" points="555.35,-431.15 547.58,-438.36 558.14,-437.57 555.35,-431.15"/>
</g>
<!-- Node22 -->
<g id="node23" class="node">
<title>Node22</title>
<g id="a_node23"><a xlink:href="classObservables_1_1FluxDensityProfile.html" target="_top" xlink:title=" ">
<polygon fill="none" stroke="black" points="614,-433 614,-463 756,-463 756,-433 614,-433"/>
<text text-anchor="start" x="622" y="-451" font-family="Helvetica,sans-Serif" font-size="10.00">Observables::FluxDensity</text>
<text text-anchor="middle" x="685" y="-440" font-family="Helvetica,sans-Serif" font-size="10.00">Profile</text>
</a>
</g>
</g>
<!-- Node20&#45;&gt;Node22 -->
<g id="edge22" class="edge">
<title>Node20&#45;&gt;Node22</title>
<path fill="none" stroke="midnightblue" d="M576.23,-448C588.91,-448 601.65,-448 613.71,-448"/>
<polygon fill="midnightblue" stroke="midnightblue" points="576.09,-444.5 566.08,-448 576.08,-451.5 576.09,-444.5"/>
</g>
<!-- Node23 -->
<g id="node24" class="node">
<title>Node23</title>
<g id="a_node24"><a xlink:href="classObservables_1_1ForceDensityProfile.html" target="_top" xlink:title=" ">
<polygon fill="none" stroke="black" points="611.5,-384 611.5,-414 758.5,-414 758.5,-384 611.5,-384"/>
<text text-anchor="start" x="619.5" y="-402" font-family="Helvetica,sans-Serif" font-size="10.00">Observables::ForceDensity</text>
<text text-anchor="middle" x="685" y="-391" font-family="Helvetica,sans-Serif" font-size="10.00">Profile</text>
</a>
</g>
</g>
<!-- Node20&#45;&gt;Node23 -->
<g id="edge23" class="edge">
<title>Node20&#45;&gt;Node23</title>
<path fill="none" stroke="midnightblue" d="M532.6,-436.34C543.71,-434 555.23,-431.49 566,-429 585.98,-424.39 607.76,-418.96 627.11,-414.01"/>
<polygon fill="midnightblue" stroke="midnightblue" points="531.62,-432.97 522.55,-438.44 533.05,-439.82 531.62,-432.97"/>
</g>
<!-- Node27&#45;&gt;Node20 -->
<g id="edge34" class="edge">
<title>Node27&#45;&gt;Node20</title>
<path fill="none" stroke="midnightblue" d="M336.29,-367.77C339.32,-369.33 342.24,-371.07 345,-373 369.24,-389.97 356.62,-412.24 381,-429 386.62,-432.86 392.85,-435.96 399.35,-438.46"/>
<polygon fill="midnightblue" stroke="midnightblue" points="337.45,-364.46 326.89,-363.58 334.6,-370.85 337.45,-364.46"/>
</g>
<!-- Node28 -->
<g id="node29" class="node">
<title>Node28</title>
<g id="a_node29"><a xlink:href="classObservables_1_1CylindricalProfileObservable.html" target="_top" xlink:title="Cylindrical profile observable.">
<polygon fill="none" stroke="black" points="406,-515 406,-545 541,-545 541,-515 406,-515"/>
<text text-anchor="start" x="414" y="-533" font-family="Helvetica,sans-Serif" font-size="10.00">Observables::Cylindrical</text>
<text text-anchor="middle" x="473.5" y="-522" font-family="Helvetica,sans-Serif" font-size="10.00">ProfileObservable</text>
</a>
</g>
</g>
<!-- Node27&#45;&gt;Node28 -->
<g id="edge28" class="edge">
<title>Node27&#45;&gt;Node28</title>
<path fill="none" stroke="midnightblue" d="M340.25,-369.01C341.9,-370.24 343.49,-371.57 345,-373 387.59,-413.35 340.37,-457.68 381,-500 387.95,-507.24 396.66,-512.73 405.94,-516.89"/>
<polygon fill="midnightblue" stroke="midnightblue" points="341.78,-365.84 331.43,-363.57 338.1,-371.8 341.78,-365.84"/>
</g>
<!-- Node31 -->
<g id="node32" class="node">
<title>Node31</title>
<g id="a_node32"><a xlink:href="classObservables_1_1LBProfileObservable.html" target="_top" xlink:title=" ">
<polygon fill="none" stroke="black" points="382.5,-572.5 382.5,-591.5 564.5,-591.5 564.5,-572.5 382.5,-572.5"/>
<text text-anchor="middle" x="473.5" y="-579.5" font-family="Helvetica,sans-Serif" font-size="10.00">Observables::LBProfileObservable</text>
</a>
</g>
</g>
<!-- Node27&#45;&gt;Node31 -->
<g id="edge32" class="edge">
<title>Node27&#45;&gt;Node31</title>
<path fill="none" stroke="midnightblue" d="M341.04,-369.37C342.42,-370.5 343.75,-371.71 345,-373 402.51,-432.09 325.43,-494.08 381,-555 388.14,-562.83 397.43,-568.43 407.35,-572.43"/>
<polygon fill="midnightblue" stroke="midnightblue" points="342.81,-366.33 332.56,-363.65 338.89,-372.14 342.81,-366.33"/>
</g>
<!-- Node28&#45;&gt;Node8 -->
<g id="edge31" class="edge">
<title>Node28&#45;&gt;Node8</title>
<path fill="none" stroke="midnightblue" d="M551.21,-517.92C572.86,-514.51 596.23,-510.83 617.24,-507.52"/>
<polygon fill="midnightblue" stroke="midnightblue" points="550.41,-514.5 541.07,-519.51 551.5,-521.41 550.41,-514.5"/>
</g>
<!-- Node29 -->
<g id="node30" class="node">
<title>Node29</title>
<g id="a_node30"><a xlink:href="classObservables_1_1CylindricalLBProfileObservable.html" target="_top" xlink:title=" ">
<polygon fill="none" stroke="black" points="617.5,-531 617.5,-561 752.5,-561 752.5,-531 617.5,-531"/>
<text text-anchor="start" x="625.5" y="-549" font-family="Helvetica,sans-Serif" font-size="10.00">Observables::Cylindrical</text>
<text text-anchor="middle" x="685" y="-538" font-family="Helvetica,sans-Serif" font-size="10.00">LBProfileObservable</text>
</a>
</g>
</g>
<!-- Node28&#45;&gt;Node29 -->
<g id="edge29" class="edge">
<title>Node28&#45;&gt;Node29</title>
<path fill="none" stroke="midnightblue" d="M551.21,-535.86C572.86,-537.51 596.23,-539.3 617.24,-540.9"/>
<polygon fill="midnightblue" stroke="midnightblue" points="551.31,-532.36 541.07,-535.08 550.78,-539.34 551.31,-532.36"/>
</g>
<!-- Node30 -->
<g id="node31" class="node">
<title>Node30</title>
<g id="a_node31"><a xlink:href="classObservables_1_1CylindricalLBVelocityProfile.html" target="_top" xlink:title=" ">
<polygon fill="none" stroke="black" points="832,-605 832,-635 967,-635 967,-605 832,-605"/>
<text text-anchor="start" x="840" y="-623" font-family="Helvetica,sans-Serif" font-size="10.00">Observables::Cylindrical</text>
<text text-anchor="middle" x="899.5" y="-612" font-family="Helvetica,sans-Serif" font-size="10.00">LBVelocityProfile</text>
</a>
</g>
</g>
<!-- Node29&#45;&gt;Node30 -->
<g id="edge30" class="edge">
<title>Node29&#45;&gt;Node30</title>
<path fill="none" stroke="midnightblue" d="M753.46,-564.69C758.45,-566.64 763.35,-568.74 768,-571 785.53,-579.5 786.28,-587.92 804,-596 812.78,-600 822.33,-603.41 831.88,-606.3"/>
<polygon fill="midnightblue" stroke="midnightblue" points="754.37,-561.3 743.78,-561.12 751.95,-567.87 754.37,-561.3"/>
</g>
<!-- Node32 -->
<g id="node33" class="node">
<title>Node32</title>
<g id="a_node33"><a xlink:href="classObservables_1_1LBVelocityProfile.html" target="_top" xlink:title=" ">
<polygon fill="none" stroke="black" points="602,-580.5 602,-599.5 768,-599.5 768,-580.5 602,-580.5"/>
<text text-anchor="middle" x="685" y="-587.5" font-family="Helvetica,sans-Serif" font-size="10.00">Observables::LBVelocityProfile</text>
</a>
</g>
</g>
<!-- Node31&#45;&gt;Node32 -->
<g id="edge33" class="edge">
<title>Node31&#45;&gt;Node32</title>
<path fill="none" stroke="midnightblue" d="M574.8,-585.83C583.9,-586.18 593.04,-586.53 601.95,-586.87"/>
<polygon fill="midnightblue" stroke="midnightblue" points="574.69,-582.32 564.56,-585.44 574.42,-589.32 574.69,-582.32"/>
</g>
</g>
</svg>
