<?xml version="1.0" encoding="UTF-8" standalone="no"?>
<!DOCTYPE svg PUBLIC "-//W3C//DTD SVG 1.1//EN"
 "http://www.w3.org/Graphics/SVG/1.1/DTD/svg11.dtd">
<!-- Generated by graphviz version 2.43.0 (0)
 -->
<!-- Title: Graphical Class Hierarchy Pages: 1 -->
<svg width="286pt" height="104pt"
 viewBox="0.00 0.00 286.00 104.00" xmlns="http://www.w3.org/2000/svg" xmlns:xlink="http://www.w3.org/1999/xlink">
<g id="graph0" class="graph" transform="scale(1 1) rotate(0) translate(4 100)">
<title>Graphical Class Hierarchy</title>
<!-- Node43 -->
<g id="node1" class="node">
<title>Node43</title>
<g id="a_node1"><a xlink:title=" ">
<polygon fill="none" stroke="#bfbfbf" points="0,-38.5 0,-57.5 80,-57.5 80,-38.5 0,-38.5"/>
<text text-anchor="middle" x="40" y="-45.5" font-family="Helvetica,sans-Serif" font-size="10.00">static_visitor</text>
</a>
</g>
</g>
<!-- Node0 -->
<g id="node2" class="node">
<title>Node0</title>
<g id="a_node2"><a xlink:href="classBondNumPartners.html" target="_top" xlink:title="Visitor to get the number of bound partners from the bond parameter variant.">
<polygon fill="none" stroke="black" points="144.5,-76.5 144.5,-95.5 249.5,-95.5 249.5,-76.5 144.5,-76.5"/>
<text text-anchor="middle" x="197" y="-83.5" font-family="Helvetica,sans-Serif" font-size="10.00">BondNumPartners</text>
</a>
</g>
</g>
<!-- Node43&#45;&gt;Node0 -->
<g id="edge1" class="edge">
<title>Node43&#45;&gt;Node0</title>
<path fill="none" stroke="midnightblue" d="M88.17,-60.06C97.39,-62.39 106.99,-64.79 116,-67 128.75,-70.13 142.67,-73.46 155.27,-76.45"/>
<polygon fill="midnightblue" stroke="midnightblue" points="88.91,-56.64 78.36,-57.58 87.19,-63.43 88.91,-56.64"/>
</g>
<!-- Node45 -->
<g id="node3" class="node">
<title>Node45</title>
<g id="a_node3"><a xlink:href="structScriptInterface_1_1PackVisitor.html" target="_top" xlink:title="Visitor that converts a Variant to a PackedVariant.">
<polygon fill="none" stroke="black" points="122.5,-38.5 122.5,-57.5 271.5,-57.5 271.5,-38.5 122.5,-38.5"/>
<text text-anchor="middle" x="197" y="-45.5" font-family="Helvetica,sans-Serif" font-size="10.00">ScriptInterface::PackVisitor</text>
</a>
</g>
</g>
<!-- Node43&#45;&gt;Node45 -->
<g id="edge2" class="edge">
<title>Node43&#45;&gt;Node45</title>
<path fill="none" stroke="midnightblue" d="M90.12,-48C100.42,-48 111.5,-48 122.47,-48"/>
<polygon fill="midnightblue" stroke="midnightblue" points="90.11,-44.5 80.11,-48 90.11,-51.5 90.11,-44.5"/>
</g>
<!-- Node46 -->
<g id="node4" class="node">
<title>Node46</title>
<g id="a_node4"><a xlink:href="structScriptInterface_1_1UnpackVisitor.html" target="_top" xlink:title="Visitor that converts a PackedVariant to a Variant.">
<polygon fill="none" stroke="black" points="116,-0.5 116,-19.5 278,-19.5 278,-0.5 116,-0.5"/>
<text text-anchor="middle" x="197" y="-7.5" font-family="Helvetica,sans-Serif" font-size="10.00">ScriptInterface::UnpackVisitor</text>
</a>
</g>
</g>
<!-- Node43&#45;&gt;Node46 -->
<g id="edge3" class="edge">
<title>Node43&#45;&gt;Node46</title>
<path fill="none" stroke="midnightblue" d="M88.17,-35.94C97.39,-33.61 106.99,-31.21 116,-29 128.75,-25.87 142.67,-22.54 155.27,-19.55"/>
<polygon fill="midnightblue" stroke="midnightblue" points="87.19,-32.57 78.36,-38.42 88.91,-39.36 87.19,-32.57"/>
</g>
</g>
</svg>
