<?xml version="1.0" encoding="UTF-8" standalone="no"?>
<!DOCTYPE svg PUBLIC "-//W3C//DTD SVG 1.1//EN"
 "http://www.w3.org/Graphics/SVG/1.1/DTD/svg11.dtd">
<!-- Generated by graphviz version 2.43.0 (0)
 -->
<!-- Title: Graphical Class Hierarchy Pages: 1 -->
<svg width="299pt" height="66pt"
 viewBox="0.00 0.00 299.00 66.00" xmlns="http://www.w3.org/2000/svg" xmlns:xlink="http://www.w3.org/1999/xlink">
<g id="graph0" class="graph" transform="scale(1 1) rotate(0) translate(4 62)">
<title>Graphical Class Hierarchy</title>
<!-- Node0 -->
<g id="node1" class="node">
<title>Node0</title>
<g id="a_node1"><a xlink:href="classParticleDecomposition.html" target="_top" xlink:title="A distributed particle decomposition.">
<polygon fill="none" stroke="black" points="0,-19.5 0,-38.5 127,-38.5 127,-19.5 0,-19.5"/>
<text text-anchor="middle" x="63.5" y="-26.5" font-family="Helvetica,sans-Serif" font-size="10.00">ParticleDecomposition</text>
</a>
</g>
</g>
<!-- Node1 -->
<g id="node2" class="node">
<title>Node1</title>
<g id="a_node2"><a xlink:href="classAtomDecomposition.html" target="_top" xlink:title="Atom decomposition cell system.">
<polygon fill="none" stroke="black" points="169,-38.5 169,-57.5 285,-57.5 285,-38.5 169,-38.5"/>
<text text-anchor="middle" x="227" y="-45.5" font-family="Helvetica,sans-Serif" font-size="10.00">AtomDecomposition</text>
</a>
</g>
</g>
<!-- Node0&#45;&gt;Node1 -->
<g id="edge1" class="edge">
<title>Node0&#45;&gt;Node1</title>
<path fill="none" stroke="midnightblue" d="M137.41,-37.58C147.94,-38.82 158.64,-40.08 168.8,-41.27"/>
<polygon fill="midnightblue" stroke="midnightblue" points="137.74,-34.09 127.4,-36.4 136.93,-41.04 137.74,-34.09"/>
</g>
<!-- Node2 -->
<g id="node3" class="node">
<title>Node2</title>
<g id="a_node3"><a xlink:href="structDomainDecomposition.html" target="_top" xlink:title="Structure containing the information about the cell grid used for domain decomposition.">
<polygon fill="none" stroke="black" points="163,-0.5 163,-19.5 291,-19.5 291,-0.5 163,-0.5"/>
<text text-anchor="middle" x="227" y="-7.5" font-family="Helvetica,sans-Serif" font-size="10.00">DomainDecomposition</text>
</a>
</g>
</g>
<!-- Node0&#45;&gt;Node2 -->
<g id="edge2" class="edge">
<title>Node0&#45;&gt;Node2</title>
<path fill="none" stroke="midnightblue" d="M137.57,-20.4C145.97,-19.42 154.48,-18.41 162.74,-17.44"/>
<polygon fill="midnightblue" stroke="midnightblue" points="136.93,-16.96 127.4,-21.6 137.74,-23.91 136.93,-16.96"/>
</g>
</g>
</svg>
