<?xml version="1.0" encoding="UTF-8" standalone="no"?>
<!DOCTYPE svg PUBLIC "-//W3C//DTD SVG 1.1//EN"
 "http://www.w3.org/Graphics/SVG/1.1/DTD/svg11.dtd">
<!-- Generated by graphviz version 2.43.0 (0)
 -->
<!-- Title: Graphical Class Hierarchy Pages: 1 -->
<svg width="189pt" height="104pt"
 viewBox="0.00 0.00 189.00 104.00" xmlns="http://www.w3.org/2000/svg" xmlns:xlink="http://www.w3.org/1999/xlink">
<g id="graph0" class="graph" transform="scale(1 1) rotate(0) translate(4 100)">
<title>Graphical Class Hierarchy</title>
<!-- Node0 -->
<g id="node1" class="node">
<title>Node0</title>
<g id="a_node1"><a xlink:href="classActor.html" target="_top" xlink:title="Generic abstract potential class.">
<polygon fill="none" stroke="black" points="0,-38.5 0,-57.5 42,-57.5 42,-38.5 0,-38.5"/>
<text text-anchor="middle" x="21" y="-45.5" font-family="Helvetica,sans-Serif" font-size="10.00">Actor</text>
</a>
</g>
</g>
<!-- Node1 -->
<g id="node2" class="node">
<title>Node1</title>
<g id="a_node2"><a xlink:href="classDipolarBarnesHut.html" target="_top" xlink:title=" ">
<polygon fill="none" stroke="black" points="78,-76.5 78,-95.5 181,-95.5 181,-76.5 78,-76.5"/>
<text text-anchor="middle" x="129.5" y="-83.5" font-family="Helvetica,sans-Serif" font-size="10.00">DipolarBarnesHut</text>
</a>
</g>
</g>
<!-- Node0&#45;&gt;Node1 -->
<g id="edge1" class="edge">
<title>Node0&#45;&gt;Node1</title>
<path fill="none" stroke="midnightblue" d="M51.77,-58.62C67.44,-64.21 86.51,-71.02 101.72,-76.44"/>
<polygon fill="midnightblue" stroke="midnightblue" points="52.63,-55.21 42.03,-55.15 50.27,-61.8 52.63,-55.21"/>
</g>
<!-- Node2 -->
<g id="node3" class="node">
<title>Node2</title>
<g id="a_node3"><a xlink:href="classDipolarDirectSum.html" target="_top" xlink:title=" ">
<polygon fill="none" stroke="black" points="78,-38.5 78,-57.5 181,-57.5 181,-38.5 78,-38.5"/>
<text text-anchor="middle" x="129.5" y="-45.5" font-family="Helvetica,sans-Serif" font-size="10.00">DipolarDirectSum</text>
</a>
</g>
</g>
<!-- Node0&#45;&gt;Node2 -->
<g id="edge2" class="edge">
<title>Node0&#45;&gt;Node2</title>
<path fill="none" stroke="midnightblue" d="M52.22,-48C60.13,-48 68.89,-48 77.56,-48"/>
<polygon fill="midnightblue" stroke="midnightblue" points="52.03,-44.5 42.03,-48 52.03,-51.5 52.03,-44.5"/>
</g>
<!-- Node3 -->
<g id="node4" class="node">
<title>Node3</title>
<g id="a_node4"><a xlink:href="classMmm1dgpuForce.html" target="_top" xlink:title=" ">
<polygon fill="none" stroke="black" points="79,-0.5 79,-19.5 180,-19.5 180,-0.5 79,-0.5"/>
<text text-anchor="middle" x="129.5" y="-7.5" font-family="Helvetica,sans-Serif" font-size="10.00">Mmm1dgpuForce</text>
</a>
</g>
</g>
<!-- Node0&#45;&gt;Node3 -->
<g id="edge3" class="edge">
<title>Node0&#45;&gt;Node3</title>
<path fill="none" stroke="midnightblue" d="M51.77,-37.38C67.44,-31.79 86.51,-24.98 101.72,-19.56"/>
<polygon fill="midnightblue" stroke="midnightblue" points="50.27,-34.2 42.03,-40.85 52.63,-40.79 50.27,-34.2"/>
</g>
</g>
</svg>
