<?xml version="1.0" encoding="UTF-8" standalone="no"?>
<!DOCTYPE svg PUBLIC "-//W3C//DTD SVG 1.1//EN"
 "http://www.w3.org/Graphics/SVG/1.1/DTD/svg11.dtd">
<!-- Generated by graphviz version 2.43.0 (0)
 -->
<!-- Title: Graphical Class Hierarchy Pages: 1 -->
<svg width="548pt" height="88pt"
 viewBox="0.00 0.00 548.00 88.00" xmlns="http://www.w3.org/2000/svg" xmlns:xlink="http://www.w3.org/1999/xlink">
<g id="graph0" class="graph" transform="scale(1 1) rotate(0) translate(4 84)">
<title>Graphical Class Hierarchy</title>
<!-- Node75 -->
<g id="node1" class="node">
<title>Node75</title>
<g id="a_node1"><a xlink:href="structScafacos_1_1Scafacos.html" target="_top" xlink:title="Abstraction of a method from the scafacos library.">
<polygon fill="none" stroke="black" points="31,-49 31,-68 141,-68 141,-49 31,-49"/>
<text text-anchor="middle" x="86" y="-56" font-family="Helvetica,sans-Serif" font-size="10.00">Scafacos::Scafacos</text>
</a>
</g>
</g>
<!-- Node1 -->
<g id="node2" class="node">
<title>Node1</title>
<g id="a_node2"><a xlink:href="structScafacos_1_1ScafacosContext.html" target="_top" xlink:title="Encapsulation for the particle data needed by ScaFaCoS.">
<polygon fill="none" stroke="black" points="208,-30 208,-49 356,-49 356,-30 208,-30"/>
<text text-anchor="middle" x="282" y="-37" font-family="Helvetica,sans-Serif" font-size="10.00">Scafacos::ScafacosContext</text>
</a>
</g>
</g>
<!-- Node75&#45;&gt;Node1 -->
<g id="edge1" class="edge">
<title>Node75&#45;&gt;Node1</title>
<path fill="none" stroke="midnightblue" d="M151.18,-52.21C169.27,-50.44 189.09,-48.5 207.67,-46.68"/>
<polygon fill="midnightblue" stroke="midnightblue" points="150.65,-48.75 141.04,-53.21 151.33,-55.72 150.65,-48.75"/>
</g>
<!-- Node2 -->
<g id="node3" class="node">
<title>Node2</title>
<g id="a_node3"><a xlink:href="structScafacos_1_1ScafacosContextCoulomb.html" target="_top" xlink:title=" ">
<polygon fill="none" stroke="black" points="392,-49.5 392,-79.5 540,-79.5 540,-49.5 392,-49.5"/>
<text text-anchor="start" x="400" y="-67.5" font-family="Helvetica,sans-Serif" font-size="10.00">Scafacos::ScafacosContext</text>
<text text-anchor="middle" x="466" y="-56.5" font-family="Helvetica,sans-Serif" font-size="10.00">Coulomb</text>
</a>
</g>
</g>
<!-- Node1&#45;&gt;Node2 -->
<g id="edge2" class="edge">
<title>Node1&#45;&gt;Node2</title>
<path fill="none" stroke="midnightblue" d="M362.45,-50.41C372.25,-51.76 382.23,-53.13 391.93,-54.46"/>
<polygon fill="midnightblue" stroke="midnightblue" points="362.71,-46.92 352.33,-49.02 361.76,-53.85 362.71,-46.92"/>
</g>
<!-- Node3 -->
<g id="node4" class="node">
<title>Node3</title>
<g id="a_node4"><a xlink:href="structScafacos_1_1ScafacosContextDipoles.html" target="_top" xlink:title=" ">
<polygon fill="none" stroke="black" points="392,-0.5 392,-30.5 540,-30.5 540,-0.5 392,-0.5"/>
<text text-anchor="start" x="400" y="-18.5" font-family="Helvetica,sans-Serif" font-size="10.00">Scafacos::ScafacosContext</text>
<text text-anchor="middle" x="466" y="-7.5" font-family="Helvetica,sans-Serif" font-size="10.00">Dipoles</text>
</a>
</g>
</g>
<!-- Node1&#45;&gt;Node3 -->
<g id="edge3" class="edge">
<title>Node1&#45;&gt;Node3</title>
<path fill="none" stroke="midnightblue" d="M365.13,-28.67C373.99,-27.5 382.96,-26.32 391.7,-25.17"/>
<polygon fill="midnightblue" stroke="midnightblue" points="364.65,-25.2 355.19,-29.98 365.56,-32.14 364.65,-25.2"/>
</g>
<!-- Node0 -->
<g id="node5" class="node">
<title>Node0</title>
<g id="a_node5"><a xlink:href="structScafacos_1_1ScafacosContextBase.html" target="_top" xlink:title="Public interface to the ScaFaCoS context.">
<polygon fill="none" stroke="black" points="0,-11 0,-30 172,-30 172,-11 0,-11"/>
<text text-anchor="middle" x="86" y="-18" font-family="Helvetica,sans-Serif" font-size="10.00">Scafacos::ScafacosContextBase</text>
</a>
</g>
</g>
<!-- Node0&#45;&gt;Node1 -->
<g id="edge4" class="edge">
<title>Node0&#45;&gt;Node1</title>
<path fill="none" stroke="midnightblue" d="M182.18,-29.82C190.8,-30.67 199.44,-31.51 207.82,-32.33"/>
<polygon fill="midnightblue" stroke="midnightblue" points="182.38,-26.33 172.09,-28.83 181.7,-33.29 182.38,-26.33"/>
</g>
</g>
</svg>
