<?xml version="1.0" encoding="UTF-8" standalone="no"?>
<!DOCTYPE svg PUBLIC "-//W3C//DTD SVG 1.1//EN"
 "http://www.w3.org/Graphics/SVG/1.1/DTD/svg11.dtd">
<!-- Generated by graphviz version 2.43.0 (0)
 -->
<!-- Title: integrate.hpp Pages: 1 -->
<!--zoomable 207 -->
<svg id="main" version="1.1" xmlns="http://www.w3.org/2000/svg" xmlns:xlink="http://www.w3.org/1999/xlink" xml:space="preserve" onload="init(evt)">
<style type="text/css"><![CDATA[
.edge:hover path { stroke: red; }
.edge:hover polygon { stroke: red; fill: red; }
]]></style>
<script type="text/javascript"><![CDATA[
var edges = document.getElementsByTagName('g');
if (edges && edges.length) {
  for (var i=0;i<edges.length;i++) {
    if (edges[i].id.substr(0,4)=='edge') {
      edges[i].setAttribute('class','edge');
    }
  }
}
]]></script>
        <defs>
                <circle id="rim" cx="0" cy="0" r="7"/>
                <circle id="rim2" cx="0" cy="0" r="3.5"/>
                <g id="zoomPlus">
                        <use xlink:href="#rim" fill="#404040">
                                <set attributeName="fill" to="#808080" begin="zoomplus.mouseover" end="zoomplus.mouseout"/>
                        </use>
                        <path d="M-4,0h8M0,-4v8" fill="none" stroke="white" stroke-width="1.5" pointer-events="none"/>
                </g>
                <g id="zoomMin">
                        <use xlink:href="#rim" fill="#404040">
                                <set attributeName="fill" to="#808080" begin="zoomminus.mouseover" end="zoomminus.mouseout"/>
                        </use>
                        <path d="M-4,0h8" fill="none" stroke="white" stroke-width="1.5" pointer-events="none"/>
                </g>
                <g id="dirArrow">
                        <path fill="none" stroke="white" stroke-width="1.5" d="M0,-3.0v7 M-2.5,-0.5L0,-3.0L2.5,-0.5"/>
                </g>
               <g id="resetDef">
                       <use xlink:href="#rim2" fill="#404040">
                               <set attributeName="fill" to="#808080" begin="reset.mouseover" end="reset.mouseout"/>
                       </use>
               </g>
        </defs>

<script type="text/javascript">
var viewWidth = 3358;
var viewHeight = 207;
var sectionId = 'dynsection-0';
</script>
<script xlink:href="svgpan.js"/>
<svg id="graph" class="graph">
<g id="viewport">
<title>integrate.hpp</title>
<!-- Node1 -->
<g id="node1" class="node">
<title>Node1</title>
<g id="a_node1"><a xlink:title=" ">
<polygon fill="#bfbfbf" stroke="black" points="1551,-179.5 1551,-198.5 1633,-198.5 1633,-179.5 1551,-179.5"/>
<text text-anchor="middle" x="1592" y="-186.5" font-family="Helvetica,sans-Serif" font-size="10.00">integrate.hpp</text>
</a>
</g>
</g>
<!-- Node2 -->
<g id="node2" class="node">
<title>Node2</title>
<g id="a_node2"><a xlink:href="core_2accumulators_2Correlator_8hpp.html" target="_top" xlink:title=" ">
<polygon fill="none" stroke="black" points="71,-118 71,-137 157,-137 157,-118 71,-118"/>
<text text-anchor="middle" x="114" y="-125" font-family="Helvetica,sans-Serif" font-size="10.00">Correlator.hpp</text>
</a>
</g>
</g>
<!-- Node1&#45;&gt;Node2 -->
<g id="edge1" class="edge">
<title>Node1&#45;&gt;Node2</title>
<path fill="none" stroke="midnightblue" d="M1540.88,-188.03C1319.1,-187.91 439.11,-184.76 166,-143 157.38,-141.68 148.17,-139.41 139.92,-137.05"/>
<polygon fill="midnightblue" stroke="midnightblue" points="1540.94,-191.53 1550.94,-188.03 1540.94,-184.53 1540.94,-191.53"/>
</g>
<!-- Node3 -->
<g id="node3" class="node">
<title>Node3</title>
<g id="a_node3"><a xlink:href="Correlator_8cpp.html" target="_top" xlink:title=" ">
<polygon fill="none" stroke="black" points="0,-56.5 0,-75.5 86,-75.5 86,-56.5 0,-56.5"/>
<text text-anchor="middle" x="43" y="-63.5" font-family="Helvetica,sans-Serif" font-size="10.00">Correlator.cpp</text>
</a>
</g>
</g>
<!-- Node1&#45;&gt;Node3 -->
<g id="edge5" class="edge">
<title>Node1&#45;&gt;Node3</title>
<path fill="none" stroke="midnightblue" d="M1540.58,-188.22C1280.6,-189.09 120.8,-190.32 62,-143 41.66,-126.63 41.14,-92.06 42.15,-75.81"/>
<polygon fill="midnightblue" stroke="midnightblue" points="1540.88,-191.71 1550.87,-188.18 1540.86,-184.71 1540.88,-191.71"/>
</g>
<!-- Node6 -->
<g id="node6" class="node">
<title>Node6</title>
<g id="a_node6"><a xlink:href="thermalized__bond__utils_8cpp.html" target="_top" xlink:title=" ">
<polygon fill="none" stroke="black" points="175.5,-118 175.5,-137 326.5,-137 326.5,-118 175.5,-118"/>
<text text-anchor="middle" x="251" y="-125" font-family="Helvetica,sans-Serif" font-size="10.00">thermalized_bond_utils.cpp</text>
</a>
</g>
</g>
<!-- Node1&#45;&gt;Node6 -->
<g id="edge6" class="edge">
<title>Node1&#45;&gt;Node6</title>
<path fill="none" stroke="midnightblue" d="M1540.8,-187.09C1335.94,-183.31 574.78,-167.87 335,-143 321.6,-141.61 307.12,-139.38 294.01,-137.07"/>
<polygon fill="midnightblue" stroke="midnightblue" points="1540.92,-190.59 1550.98,-187.28 1541.04,-183.6 1540.92,-190.59"/>
</g>
<!-- Node7 -->
<g id="node7" class="node">
<title>Node7</title>
<g id="a_node7"><a xlink:href="cells_8cpp.html" target="_top" xlink:title=" ">
<polygon fill="none" stroke="black" points="344.5,-118 344.5,-137 403.5,-137 403.5,-118 344.5,-118"/>
<text text-anchor="middle" x="374" y="-125" font-family="Helvetica,sans-Serif" font-size="10.00">cells.cpp</text>
</a>
</g>
</g>
<!-- Node1&#45;&gt;Node7 -->
<g id="edge7" class="edge">
<title>Node1&#45;&gt;Node7</title>
<path fill="none" stroke="midnightblue" d="M1540.85,-188.26C1343.62,-188.91 632.65,-188.03 412,-143 405.63,-141.7 398.94,-139.46 392.97,-137.13"/>
<polygon fill="midnightblue" stroke="midnightblue" points="1540.95,-191.76 1550.93,-188.22 1540.92,-184.76 1540.95,-191.76"/>
</g>
<!-- Node8 -->
<g id="node8" class="node">
<title>Node8</title>
<g id="a_node8"><a xlink:href="dpd_8cpp.html" target="_top" xlink:title=" ">
<polygon fill="none" stroke="black" points="421.5,-118 421.5,-137 476.5,-137 476.5,-118 421.5,-118"/>
<text text-anchor="middle" x="449" y="-125" font-family="Helvetica,sans-Serif" font-size="10.00">dpd.cpp</text>
</a>
</g>
</g>
<!-- Node1&#45;&gt;Node8 -->
<g id="edge8" class="edge">
<title>Node1&#45;&gt;Node8</title>
<path fill="none" stroke="midnightblue" d="M1540.59,-188.23C1350.85,-188.72 690.32,-187.14 485,-143 478.94,-141.7 472.59,-139.46 466.93,-137.12"/>
<polygon fill="midnightblue" stroke="midnightblue" points="1540.85,-191.73 1550.84,-188.2 1540.83,-184.73 1540.85,-191.73"/>
</g>
<!-- Node9 -->
<g id="node9" class="node">
<title>Node9</title>
<g id="a_node9"><a xlink:href="coulomb_8cpp.html" target="_top" xlink:title=" ">
<polygon fill="none" stroke="black" points="494.5,-118 494.5,-137 573.5,-137 573.5,-118 494.5,-118"/>
<text text-anchor="middle" x="534" y="-125" font-family="Helvetica,sans-Serif" font-size="10.00">coulomb.cpp</text>
</a>
</g>
</g>
<!-- Node1&#45;&gt;Node9 -->
<g id="edge9" class="edge">
<title>Node1&#45;&gt;Node9</title>
<path fill="none" stroke="midnightblue" d="M1540.81,-187.4C1362.5,-185.05 769.35,-174.96 582,-143 574.11,-141.65 565.69,-139.4 558.14,-137.07"/>
<polygon fill="midnightblue" stroke="midnightblue" points="1540.92,-190.9 1550.97,-187.53 1541.01,-183.9 1540.92,-190.9"/>
</g>
<!-- Node10 -->
<g id="node10" class="node">
<title>Node10</title>
<g id="a_node10"><a xlink:href="dipole_8cpp.html" target="_top" xlink:title=" ">
<polygon fill="none" stroke="black" points="591.5,-118 591.5,-137 658.5,-137 658.5,-118 591.5,-118"/>
<text text-anchor="middle" x="625" y="-125" font-family="Helvetica,sans-Serif" font-size="10.00">dipole.cpp</text>
</a>
</g>
</g>
<!-- Node1&#45;&gt;Node10 -->
<g id="edge10" class="edge">
<title>Node1&#45;&gt;Node10</title>
<path fill="none" stroke="midnightblue" d="M1540.68,-187.36C1372.23,-184.98 837.35,-175.03 668,-143 660.88,-141.65 653.32,-139.4 646.56,-137.07"/>
<polygon fill="midnightblue" stroke="midnightblue" points="1540.72,-190.86 1550.77,-187.5 1540.82,-183.87 1540.72,-190.86"/>
</g>
<!-- Node11 -->
<g id="node11" class="node">
<title>Node11</title>
<g id="a_node11"><a xlink:href="p3m-dipolar_8cpp.html" target="_top" xlink:title=" ">
<polygon fill="none" stroke="black" points="677,-118 677,-137 773,-137 773,-118 677,-118"/>
<text text-anchor="middle" x="725" y="-125" font-family="Helvetica,sans-Serif" font-size="10.00">p3m&#45;dipolar.cpp</text>
</a>
</g>
</g>
<!-- Node1&#45;&gt;Node11 -->
<g id="edge11" class="edge">
<title>Node1&#45;&gt;Node11</title>
<path fill="none" stroke="midnightblue" d="M1540.5,-188.58C1411.78,-189.28 1066.01,-186.59 782,-143 772.82,-141.59 762.96,-139.35 754.07,-137.05"/>
<polygon fill="midnightblue" stroke="midnightblue" points="1540.85,-192.08 1550.83,-188.51 1540.81,-185.08 1540.85,-192.08"/>
</g>
<!-- Node12 -->
<g id="node12" class="node">
<title>Node12</title>
<g id="a_node12"><a xlink:href="p3m_8cpp.html" target="_top" xlink:title=" ">
<polygon fill="none" stroke="black" points="791.5,-118 791.5,-137 850.5,-137 850.5,-118 791.5,-118"/>
<text text-anchor="middle" x="821" y="-125" font-family="Helvetica,sans-Serif" font-size="10.00">p3m.cpp</text>
</a>
</g>
</g>
<!-- Node1&#45;&gt;Node12 -->
<g id="edge12" class="edge">
<title>Node1&#45;&gt;Node12</title>
<path fill="none" stroke="midnightblue" d="M1540.67,-186.87C1396.4,-183.36 989.39,-171.19 859,-143 852.65,-141.63 845.96,-139.37 839.99,-137.04"/>
<polygon fill="midnightblue" stroke="midnightblue" points="1540.91,-190.37 1550.99,-187.11 1541.08,-183.38 1540.91,-190.37"/>
</g>
<!-- Node13 -->
<g id="node13" class="node">
<title>Node13</title>
<g id="a_node13"><a xlink:href="ScafacosContext_8cpp.html" target="_top" xlink:title=" ">
<polygon fill="none" stroke="black" points="868.5,-118 868.5,-137 987.5,-137 987.5,-118 868.5,-118"/>
<text text-anchor="middle" x="928" y="-125" font-family="Helvetica,sans-Serif" font-size="10.00">ScafacosContext.cpp</text>
</a>
</g>
</g>
<!-- Node1&#45;&gt;Node13 -->
<g id="edge13" class="edge">
<title>Node1&#45;&gt;Node13</title>
<path fill="none" stroke="midnightblue" d="M1540.81,-186.46C1437.38,-182.83 1196.34,-171.79 996,-143 985.37,-141.47 973.91,-139.25 963.48,-137.01"/>
<polygon fill="midnightblue" stroke="midnightblue" points="1540.85,-189.96 1550.97,-186.81 1541.09,-182.97 1540.85,-189.96"/>
</g>
<!-- Node14 -->
<g id="node14" class="node">
<title>Node14</title>
<g id="a_node14"><a xlink:href="energy_8cpp.html" target="_top" xlink:title=" ">
<polygon fill="none" stroke="black" points="1005.5,-118 1005.5,-137 1074.5,-137 1074.5,-118 1005.5,-118"/>
<text text-anchor="middle" x="1040" y="-125" font-family="Helvetica,sans-Serif" font-size="10.00">energy.cpp</text>
</a>
</g>
</g>
<!-- Node1&#45;&gt;Node14 -->
<g id="edge14" class="edge">
<title>Node1&#45;&gt;Node14</title>
<path fill="none" stroke="midnightblue" d="M1540.74,-187.47C1448.29,-185.62 1247.91,-177.58 1083,-143 1076.06,-141.54 1068.69,-139.32 1062.04,-137.05"/>
<polygon fill="midnightblue" stroke="midnightblue" points="1540.88,-190.97 1550.94,-187.65 1541.01,-183.97 1540.88,-190.97"/>
</g>
<!-- Node15 -->
<g id="node15" class="node">
<title>Node15</title>
<g id="a_node15"><a xlink:href="EspressoSystemStandAlone_8cpp.html" target="_top" xlink:title=" ">
<polygon fill="none" stroke="black" points="1092.5,-118 1092.5,-137 1265.5,-137 1265.5,-118 1092.5,-118"/>
<text text-anchor="middle" x="1179" y="-125" font-family="Helvetica,sans-Serif" font-size="10.00">EspressoSystemStandAlone.cpp</text>
</a>
</g>
</g>
<!-- Node1&#45;&gt;Node15 -->
<g id="edge15" class="edge">
<title>Node1&#45;&gt;Node15</title>
<path fill="none" stroke="midnightblue" d="M1540.76,-180.92C1477.89,-172.2 1368.06,-156.83 1274,-143 1261.12,-141.11 1247.28,-139.02 1234.24,-137.04"/>
<polygon fill="midnightblue" stroke="midnightblue" points="1540.43,-184.41 1550.81,-182.32 1541.39,-177.48 1540.43,-184.41"/>
</g>
<!-- Node16 -->
<g id="node16" class="node">
<title>Node16</title>
<g id="a_node16"><a xlink:href="event_8cpp.html" target="_top" xlink:title=" ">
<polygon fill="none" stroke="black" points="1283.5,-118 1283.5,-137 1348.5,-137 1348.5,-118 1283.5,-118"/>
<text text-anchor="middle" x="1316" y="-125" font-family="Helvetica,sans-Serif" font-size="10.00">event.cpp</text>
</a>
</g>
</g>
<!-- Node1&#45;&gt;Node16 -->
<g id="edge16" class="edge">
<title>Node1&#45;&gt;Node16</title>
<path fill="none" stroke="midnightblue" d="M1540.69,-180.46C1492.74,-172.88 1419.38,-159.9 1357,-143 1350.88,-141.34 1344.36,-139.21 1338.36,-137.1"/>
<polygon fill="midnightblue" stroke="midnightblue" points="1540.4,-183.96 1550.82,-182.04 1541.48,-177.04 1540.4,-183.96"/>
</g>
<!-- Node17 -->
<g id="node17" class="node">
<title>Node17</title>
<g id="a_node17"><a xlink:href="forces_8cpp.html" target="_top" xlink:title=" ">
<polygon fill="none" stroke="black" points="1366.5,-118 1366.5,-137 1433.5,-137 1433.5,-118 1366.5,-118"/>
<text text-anchor="middle" x="1400" y="-125" font-family="Helvetica,sans-Serif" font-size="10.00">forces.cpp</text>
</a>
</g>
</g>
<!-- Node1&#45;&gt;Node17 -->
<g id="edge17" class="edge">
<title>Node1&#45;&gt;Node17</title>
<path fill="none" stroke="midnightblue" d="M1552.51,-176.63C1522.18,-167.79 1479.31,-155.03 1442,-143 1436.27,-141.15 1430.14,-139.09 1424.37,-137.1"/>
<polygon fill="midnightblue" stroke="midnightblue" points="1551.71,-180.05 1562.29,-179.48 1553.66,-173.32 1551.71,-180.05"/>
</g>
<!-- Node18 -->
<g id="node18" class="node">
<title>Node18</title>
<g id="a_node18"><a xlink:href="electrokinetics__cuda_8cu.html" target="_top" xlink:title=" ">
<polygon fill="none" stroke="black" points="1451.5,-118 1451.5,-137 1582.5,-137 1582.5,-118 1451.5,-118"/>
<text text-anchor="middle" x="1517" y="-125" font-family="Helvetica,sans-Serif" font-size="10.00">electrokinetics_cuda.cu</text>
</a>
</g>
</g>
<!-- Node1&#45;&gt;Node18 -->
<g id="edge18" class="edge">
<title>Node1&#45;&gt;Node18</title>
<path fill="none" stroke="midnightblue" d="M1573.06,-172.97C1558.71,-161.59 1539.52,-146.37 1527.73,-137.01"/>
<polygon fill="midnightblue" stroke="midnightblue" points="1571.24,-176 1581.25,-179.48 1575.6,-170.52 1571.24,-176"/>
</g>
<!-- Node19 -->
<g id="node19" class="node">
<title>Node19</title>
<g id="a_node19"><a xlink:href="lb__particle__coupling_8cpp.html" target="_top" xlink:title=" ">
<polygon fill="none" stroke="black" points="1601,-118 1601,-137 1735,-137 1735,-118 1601,-118"/>
<text text-anchor="middle" x="1668" y="-125" font-family="Helvetica,sans-Serif" font-size="10.00">lb_particle_coupling.cpp</text>
</a>
</g>
</g>
<!-- Node1&#45;&gt;Node19 -->
<g id="edge19" class="edge">
<title>Node1&#45;&gt;Node19</title>
<path fill="none" stroke="midnightblue" d="M1610.78,-173.29C1625.36,-161.88 1645.06,-146.46 1657.13,-137.01"/>
<polygon fill="midnightblue" stroke="midnightblue" points="1608.61,-170.55 1602.89,-179.48 1612.92,-176.07 1608.61,-170.55"/>
</g>
<!-- Node20 -->
<g id="node20" class="node">
<title>Node20</title>
<g id="a_node20"><a xlink:href="lbgpu_8cpp.html" target="_top" xlink:title=" ">
<polygon fill="none" stroke="black" points="1753,-118 1753,-137 1817,-137 1817,-118 1753,-118"/>
<text text-anchor="middle" x="1785" y="-125" font-family="Helvetica,sans-Serif" font-size="10.00">lbgpu.cpp</text>
</a>
</g>
</g>
<!-- Node1&#45;&gt;Node20 -->
<g id="edge20" class="edge">
<title>Node1&#45;&gt;Node20</title>
<path fill="none" stroke="midnightblue" d="M1632.34,-176.68C1663.07,-167.9 1706.37,-155.21 1744,-143 1749.6,-141.18 1755.6,-139.13 1761.22,-137.14"/>
<polygon fill="midnightblue" stroke="midnightblue" points="1631.09,-173.39 1622.42,-179.5 1633,-180.13 1631.09,-173.39"/>
</g>
<!-- Node21 -->
<g id="node21" class="node">
<title>Node21</title>
<g id="a_node21"><a xlink:href="integrate_8cpp.html" target="_top" xlink:title=" ">
<polygon fill="none" stroke="black" points="1957.5,-56.5 1957.5,-75.5 2038.5,-75.5 2038.5,-56.5 1957.5,-56.5"/>
<text text-anchor="middle" x="1998" y="-63.5" font-family="Helvetica,sans-Serif" font-size="10.00">integrate.cpp</text>
</a>
</g>
</g>
<!-- Node1&#45;&gt;Node21 -->
<g id="edge21" class="edge">
<title>Node1&#45;&gt;Node21</title>
<path fill="none" stroke="midnightblue" d="M1643.23,-185.38C1692.18,-181.23 1767.04,-170.55 1826,-143 1845.75,-133.77 1844.92,-122.53 1864,-112 1894.94,-94.93 1933.47,-82.83 1961.26,-75.5"/>
<polygon fill="midnightblue" stroke="midnightblue" points="1642.89,-181.89 1633.19,-186.17 1643.43,-188.87 1642.89,-181.89"/>
</g>
<!-- Node22 -->
<g id="node22" class="node">
<title>Node22</title>
<g id="a_node22"><a xlink:href="integrators_2brownian__inline_8hpp.html" target="_top" xlink:title=" ">
<polygon fill="none" stroke="black" points="1873.5,-118 1873.5,-137 1988.5,-137 1988.5,-118 1873.5,-118"/>
<text text-anchor="middle" x="1931" y="-125" font-family="Helvetica,sans-Serif" font-size="10.00">brownian_inline.hpp</text>
</a>
</g>
</g>
<!-- Node1&#45;&gt;Node22 -->
<g id="edge22" class="edge">
<title>Node1&#45;&gt;Node22</title>
<path fill="none" stroke="midnightblue" d="M1643.22,-179.86C1697.03,-171.2 1784.09,-156.85 1859,-143 1869.03,-141.15 1879.82,-139.03 1889.92,-137.01"/>
<polygon fill="midnightblue" stroke="midnightblue" points="1642.56,-176.42 1633.24,-181.47 1643.67,-183.34 1642.56,-176.42"/>
</g>
<!-- Node23 -->
<g id="node23" class="node">
<title>Node23</title>
<g id="a_node23"><a xlink:href="stokesian__dynamics__inline_8hpp.html" target="_top" xlink:title=" ">
<polygon fill="none" stroke="black" points="2007,-112.5 2007,-142.5 2123,-142.5 2123,-112.5 2007,-112.5"/>
<text text-anchor="start" x="2015" y="-130.5" font-family="Helvetica,sans-Serif" font-size="10.00">stokesian_dynamics</text>
<text text-anchor="middle" x="2065" y="-119.5" font-family="Helvetica,sans-Serif" font-size="10.00">_inline.hpp</text>
</a>
</g>
</g>
<!-- Node1&#45;&gt;Node23 -->
<g id="edge24" class="edge">
<title>Node1&#45;&gt;Node23</title>
<path fill="none" stroke="midnightblue" d="M1643.69,-183.91C1720.89,-177.44 1870.77,-163.42 1997,-143 2000.22,-142.48 2003.51,-141.91 2006.83,-141.3"/>
<polygon fill="midnightblue" stroke="midnightblue" points="1642.96,-180.46 1633.29,-184.78 1643.54,-187.44 1642.96,-180.46"/>
</g>
<!-- Node24 -->
<g id="node24" class="node">
<title>Node24</title>
<g id="a_node24"><a xlink:href="velocity__verlet__inline_8hpp.html" target="_top" xlink:title=" ">
<polygon fill="none" stroke="black" points="2141.5,-118 2141.5,-137 2284.5,-137 2284.5,-118 2141.5,-118"/>
<text text-anchor="middle" x="2213" y="-125" font-family="Helvetica,sans-Serif" font-size="10.00">velocity_verlet_inline.hpp</text>
</a>
</g>
</g>
<!-- Node1&#45;&gt;Node24 -->
<g id="edge26" class="edge">
<title>Node1&#45;&gt;Node24</title>
<path fill="none" stroke="midnightblue" d="M1643.15,-185.34C1739.23,-180 1953.12,-166.41 2132,-143 2144.32,-141.39 2157.63,-139.2 2169.82,-137.01"/>
<polygon fill="midnightblue" stroke="midnightblue" points="1642.92,-181.85 1633.12,-185.9 1643.3,-188.84 1642.92,-181.85"/>
</g>
<!-- Node25 -->
<g id="node25" class="node">
<title>Node25</title>
<g id="a_node25"><a xlink:href="velocity__verlet__npt_8cpp.html" target="_top" xlink:title=" ">
<polygon fill="none" stroke="black" points="2302.5,-118 2302.5,-137 2433.5,-137 2433.5,-118 2302.5,-118"/>
<text text-anchor="middle" x="2368" y="-125" font-family="Helvetica,sans-Serif" font-size="10.00">velocity_verlet_npt.cpp</text>
</a>
</g>
</g>
<!-- Node1&#45;&gt;Node25 -->
<g id="edge28" class="edge">
<title>Node1&#45;&gt;Node25</title>
<path fill="none" stroke="midnightblue" d="M1643.37,-186.98C1759.66,-184.18 2051.81,-174.36 2294,-143 2305.56,-141.5 2318.02,-139.3 2329.36,-137.05"/>
<polygon fill="midnightblue" stroke="midnightblue" points="1643.24,-183.48 1633.32,-187.22 1643.4,-190.48 1643.24,-183.48"/>
</g>
<!-- Node26 -->
<g id="node26" class="node">
<title>Node26</title>
<g id="a_node26"><a xlink:href="npt_8cpp.html" target="_top" xlink:title=" ">
<polygon fill="none" stroke="black" points="2451.5,-118 2451.5,-137 2504.5,-137 2504.5,-118 2451.5,-118"/>
<text text-anchor="middle" x="2478" y="-125" font-family="Helvetica,sans-Serif" font-size="10.00">npt.cpp</text>
</a>
</g>
</g>
<!-- Node1&#45;&gt;Node26 -->
<g id="edge29" class="edge">
<title>Node1&#45;&gt;Node26</title>
<path fill="none" stroke="midnightblue" d="M1643.07,-187.56C1802.48,-185.84 2289.36,-177.81 2443,-143 2448.9,-141.66 2455.08,-139.41 2460.58,-137.08"/>
<polygon fill="midnightblue" stroke="midnightblue" points="1643.01,-184.06 1633.05,-187.67 1643.09,-191.06 1643.01,-184.06"/>
</g>
<!-- Node27 -->
<g id="node27" class="node">
<title>Node27</title>
<g id="a_node27"><a xlink:href="thermostat_8cpp.html" target="_top" xlink:title=" ">
<polygon fill="none" stroke="black" points="2522.5,-118 2522.5,-137 2613.5,-137 2613.5,-118 2522.5,-118"/>
<text text-anchor="middle" x="2568" y="-125" font-family="Helvetica,sans-Serif" font-size="10.00">thermostat.cpp</text>
</a>
</g>
</g>
<!-- Node1&#45;&gt;Node27 -->
<g id="edge30" class="edge">
<title>Node1&#45;&gt;Node27</title>
<path fill="none" stroke="midnightblue" d="M1643.14,-186.94C1810.99,-183.24 2344.09,-169.64 2514,-143 2522.82,-141.62 2532.28,-139.35 2540.77,-137.02"/>
<polygon fill="midnightblue" stroke="midnightblue" points="1643,-183.44 1633.08,-187.16 1643.16,-190.44 1643,-183.44"/>
</g>
<!-- Node28 -->
<g id="node28" class="node">
<title>Node28</title>
<g id="a_node28"><a xlink:href="tuning_8cpp.html" target="_top" xlink:title=" ">
<polygon fill="none" stroke="black" points="2632,-118 2632,-137 2700,-137 2700,-118 2632,-118"/>
<text text-anchor="middle" x="2666" y="-125" font-family="Helvetica,sans-Serif" font-size="10.00">tuning.cpp</text>
</a>
</g>
</g>
<!-- Node1&#45;&gt;Node28 -->
<g id="edge31" class="edge">
<title>Node1&#45;&gt;Node28</title>
<path fill="none" stroke="midnightblue" d="M1643.1,-187.67C1823.77,-186.2 2431.87,-178.65 2623,-143 2630.13,-141.67 2637.68,-139.42 2644.44,-137.09"/>
<polygon fill="midnightblue" stroke="midnightblue" points="1643.04,-184.17 1633.06,-187.75 1643.09,-191.17 1643.04,-184.17"/>
</g>
<!-- Node29 -->
<g id="node29" class="node">
<title>Node29</title>
<g id="a_node29"><a xlink:href="lb__inertialess__tracers_8cpp.html" target="_top" xlink:title="Main of the Bayreuth Immersed&#45;Boundary implementation.">
<polygon fill="none" stroke="black" points="2718.5,-118 2718.5,-137 2859.5,-137 2859.5,-118 2718.5,-118"/>
<text text-anchor="middle" x="2789" y="-125" font-family="Helvetica,sans-Serif" font-size="10.00">lb_inertialess_tracers.cpp</text>
</a>
</g>
</g>
<!-- Node1&#45;&gt;Node29 -->
<g id="edge32" class="edge">
<title>Node1&#45;&gt;Node29</title>
<path fill="none" stroke="midnightblue" d="M1643.67,-188.47C1802.94,-189.36 2300.25,-188.05 2709,-143 2721.77,-141.59 2735.57,-139.35 2748.05,-137.05"/>
<polygon fill="midnightblue" stroke="midnightblue" points="1643.25,-184.96 1633.23,-188.4 1643.21,-191.96 1643.25,-184.96"/>
</g>
<!-- Node30 -->
<g id="node30" class="node">
<title>Node30</title>
<g id="a_node30"><a xlink:href="lb__inertialess__tracers__cuda__interface_8cpp.html" target="_top" xlink:title=" ">
<polygon fill="none" stroke="black" points="2877.5,-112.5 2877.5,-142.5 2998.5,-142.5 2998.5,-112.5 2877.5,-112.5"/>
<text text-anchor="start" x="2885.5" y="-130.5" font-family="Helvetica,sans-Serif" font-size="10.00">lb_inertialess_tracers</text>
<text text-anchor="middle" x="2938" y="-119.5" font-family="Helvetica,sans-Serif" font-size="10.00">_cuda_interface.cpp</text>
</a>
</g>
</g>
<!-- Node1&#45;&gt;Node30 -->
<g id="edge33" class="edge">
<title>Node1&#45;&gt;Node30</title>
<path fill="none" stroke="midnightblue" d="M1643.35,-187.37C1850.55,-184.64 2625.63,-172.64 2869,-143 2871.67,-142.67 2874.4,-142.3 2877.14,-141.88"/>
<polygon fill="midnightblue" stroke="midnightblue" points="1643.01,-183.87 1633.06,-187.5 1643.1,-190.87 1643.01,-183.87"/>
</g>
<!-- Node31 -->
<g id="node31" class="node">
<title>Node31</title>
<g id="a_node31"><a xlink:href="VirtualSitesRelative_8cpp.html" target="_top" xlink:title=" ">
<polygon fill="none" stroke="black" points="3017,-118 3017,-137 3151,-137 3151,-118 3017,-118"/>
<text text-anchor="middle" x="3084" y="-125" font-family="Helvetica,sans-Serif" font-size="10.00">VirtualSitesRelative.cpp</text>
</a>
</g>
</g>
<!-- Node1&#45;&gt;Node31 -->
<g id="edge34" class="edge">
<title>Node1&#45;&gt;Node31</title>
<path fill="none" stroke="midnightblue" d="M1643.05,-187.45C1863.56,-184.91 2735.47,-173.14 3008,-143 3020.28,-141.64 3033.55,-139.39 3045.51,-137.06"/>
<polygon fill="midnightblue" stroke="midnightblue" points="1643.01,-183.95 1633.05,-187.56 1643.09,-190.95 1643.01,-183.95"/>
</g>
<!-- Node32 -->
<g id="node32" class="node">
<title>Node32</title>
<g id="a_node32"><a xlink:href="virtual__sites_8cpp.html" target="_top" xlink:title=" ">
<polygon fill="none" stroke="black" points="3169.5,-118 3169.5,-137 3266.5,-137 3266.5,-118 3169.5,-118"/>
<text text-anchor="middle" x="3218" y="-125" font-family="Helvetica,sans-Serif" font-size="10.00">virtual_sites.cpp</text>
</a>
</g>
</g>
<!-- Node1&#45;&gt;Node32 -->
<g id="edge35" class="edge">
<title>Node1&#45;&gt;Node32</title>
<path fill="none" stroke="midnightblue" d="M1643.47,-188.02C1879.18,-187.87 2857.1,-184.71 3160,-143 3169.56,-141.68 3179.83,-139.41 3189.03,-137.05"/>
<polygon fill="midnightblue" stroke="midnightblue" points="1643.13,-184.52 1633.13,-188.02 1643.13,-191.52 1643.13,-184.52"/>
</g>
<!-- Node33 -->
<g id="node33" class="node">
<title>Node33</title>
<g id="a_node33"><a xlink:href="h5md_8cpp.html" target="_top" xlink:title=" ">
<polygon fill="none" stroke="black" points="3284.5,-118 3284.5,-137 3349.5,-137 3349.5,-118 3284.5,-118"/>
<text text-anchor="middle" x="3317" y="-125" font-family="Helvetica,sans-Serif" font-size="10.00">h5md.cpp</text>
</a>
</g>
</g>
<!-- Node1&#45;&gt;Node33 -->
<g id="edge36" class="edge">
<title>Node1&#45;&gt;Node33</title>
<path fill="none" stroke="midnightblue" d="M1643.16,-187.58C1907.47,-185.31 3112.3,-173.35 3276,-143 3282.98,-141.71 3290.36,-139.41 3296.91,-137.02"/>
<polygon fill="midnightblue" stroke="midnightblue" points="1643.04,-184.09 1633.07,-187.67 1643.1,-191.09 1643.04,-184.09"/>
</g>
<!-- Node2&#45;&gt;Node3 -->
<g id="edge2" class="edge">
<title>Node2&#45;&gt;Node3</title>
<path fill="none" stroke="midnightblue" d="M96.07,-111.47C82.49,-100.09 64.32,-84.87 53.15,-75.51"/>
<polygon fill="midnightblue" stroke="midnightblue" points="93.91,-114.23 103.83,-117.98 98.41,-108.87 93.91,-114.23"/>
</g>
<!-- Node4 -->
<g id="node4" class="node">
<title>Node4</title>
<g id="a_node4"><a xlink:href="script__interface_2accumulators_2Correlator_8hpp.html" target="_top" xlink:title=" ">
<polygon fill="none" stroke="black" points="104,-56.5 104,-75.5 190,-75.5 190,-56.5 104,-56.5"/>
<text text-anchor="middle" x="147" y="-63.5" font-family="Helvetica,sans-Serif" font-size="10.00">Correlator.hpp</text>
</a>
</g>
</g>
<!-- Node2&#45;&gt;Node4 -->
<g id="edge3" class="edge">
<title>Node2&#45;&gt;Node4</title>
<path fill="none" stroke="midnightblue" d="M123.61,-109.17C129.75,-98.11 137.43,-84.25 142.28,-75.51"/>
<polygon fill="midnightblue" stroke="midnightblue" points="120.52,-107.53 118.73,-117.98 126.64,-110.93 120.52,-107.53"/>
</g>
<!-- Node5 -->
<g id="node5" class="node">
<title>Node5</title>
<g id="a_node5"><a xlink:href="accumulators_2initialize_8cpp.html" target="_top" xlink:title=" ">
<polygon fill="none" stroke="black" points="107.5,-0.5 107.5,-19.5 186.5,-19.5 186.5,-0.5 107.5,-0.5"/>
<text text-anchor="middle" x="147" y="-7.5" font-family="Helvetica,sans-Serif" font-size="10.00">initialize.cpp</text>
</a>
</g>
</g>
<!-- Node4&#45;&gt;Node5 -->
<g id="edge4" class="edge">
<title>Node4&#45;&gt;Node5</title>
<path fill="none" stroke="midnightblue" d="M147,-45.8C147,-36.91 147,-26.78 147,-19.75"/>
<polygon fill="midnightblue" stroke="midnightblue" points="143.5,-46.08 147,-56.08 150.5,-46.08 143.5,-46.08"/>
</g>
<!-- Node22&#45;&gt;Node21 -->
<g id="edge23" class="edge">
<title>Node22&#45;&gt;Node21</title>
<path fill="none" stroke="midnightblue" d="M1948.29,-111.15C1961.06,-99.81 1977.98,-84.78 1988.42,-75.51"/>
<polygon fill="midnightblue" stroke="midnightblue" points="1945.75,-108.72 1940.6,-117.98 1950.4,-113.95 1945.75,-108.72"/>
</g>
<!-- Node23&#45;&gt;Node21 -->
<g id="edge25" class="edge">
<title>Node23&#45;&gt;Node21</title>
<path fill="none" stroke="midnightblue" d="M2041.46,-105.6C2029.88,-95.32 2016.56,-83.48 2007.75,-75.66"/>
<polygon fill="midnightblue" stroke="midnightblue" points="2039.32,-108.38 2049.12,-112.4 2043.97,-103.14 2039.32,-108.38"/>
</g>
<!-- Node24&#45;&gt;Node21 -->
<g id="edge27" class="edge">
<title>Node24&#45;&gt;Node21</title>
<path fill="none" stroke="midnightblue" d="M2172.35,-115.25C2130.58,-103.69 2066.48,-85.95 2028.75,-75.51"/>
<polygon fill="midnightblue" stroke="midnightblue" points="2171.62,-118.68 2182.2,-117.98 2173.49,-111.93 2171.62,-118.68"/>
</g>
</g>
</svg>
        <g id="navigator" transform="translate(0 0)" fill="#404254">
                <rect fill="#f2f5e9" fill-opacity="0.5" stroke="#606060" stroke-width=".5" x="0" y="0" width="60" height="60"/>
                <use id="zoomplus" xlink:href="#zoomPlus" x="17" y="9" onmousedown="handleZoom(evt,'in')"/>
                <use id="zoomminus" xlink:href="#zoomMin" x="42" y="9" onmousedown="handleZoom(evt,'out')"/>
                <use id="reset" xlink:href="#resetDef" x="30" y="36" onmousedown="handleReset()"/>
                <g id="arrowUp" xlink:href="#dirArrow" transform="translate(30 24)" onmousedown="handlePan(0,-1)">
                  <use xlink:href="#rim" fill="#404040">
                        <set attributeName="fill" to="#808080" begin="arrowUp.mouseover" end="arrowUp.mouseout"/>
                  </use>
                  <path fill="none" stroke="white" stroke-width="1.5" d="M0,-3.0v7 M-2.5,-0.5L0,-3.0L2.5,-0.5"/>
                </g>
                <g id="arrowRight" xlink:href="#dirArrow" transform="rotate(90) translate(36 -43)" onmousedown="handlePan(1,0)">
                  <use xlink:href="#rim" fill="#404040">
                        <set attributeName="fill" to="#808080" begin="arrowRight.mouseover" end="arrowRight.mouseout"/>
                  </use>
                  <path fill="none" stroke="white" stroke-width="1.5" d="M0,-3.0v7 M-2.5,-0.5L0,-3.0L2.5,-0.5"/>
                </g>
                <g id="arrowDown" xlink:href="#dirArrow" transform="rotate(180) translate(-30 -48)" onmousedown="handlePan(0,1)">
                  <use xlink:href="#rim" fill="#404040">
                        <set attributeName="fill" to="#808080" begin="arrowDown.mouseover" end="arrowDown.mouseout"/>
                  </use>
                  <path fill="none" stroke="white" stroke-width="1.5" d="M0,-3.0v7 M-2.5,-0.5L0,-3.0L2.5,-0.5"/>
                </g>
                <g id="arrowLeft" xlink:href="#dirArrow" transform="rotate(270) translate(-36 17)" onmousedown="handlePan(-1,0)">
                  <use xlink:href="#rim" fill="#404040">
                        <set attributeName="fill" to="#808080" begin="arrowLeft.mouseover" end="arrowLeft.mouseout"/>
                  </use>
                  <path fill="none" stroke="white" stroke-width="1.5" d="M0,-3.0v7 M-2.5,-0.5L0,-3.0L2.5,-0.5"/>
                </g>
        </g>
        <svg viewBox="0 0 15 15" width="100%" height="30px" preserveAspectRatio="xMaxYMin meet">
         <g id="arrow_out" transform="scale(0.3 0.3)">
          <a xlink:href="integrate_8hpp__dep__incl_org.svg" target="_base">
           <rect id="button" ry="5" rx="5" y="6" x="6" height="38" width="38"
                fill="#f2f5e9" fill-opacity="0.5" stroke="#606060" stroke-width="1.0"/>
           <path id="arrow"
             d="M 11.500037,31.436501 C 11.940474,20.09759 22.043105,11.32322 32.158766,21.979434 L 37.068811,17.246167 C 37.068811,17.246167 37.088388,32 37.088388,32 L 22.160133,31.978069 C 22.160133,31.978069 26.997745,27.140456 26.997745,27.140456 C 18.528582,18.264221 13.291696,25.230495 11.500037,31.436501 z"
             style="fill:#404040;"/>
          </a>
         </g>
        </svg>
</svg>
