<?xml version="1.0" encoding="UTF-8" standalone="no"?>
<!DOCTYPE svg PUBLIC "-//W3C//DTD SVG 1.1//EN"
 "http://www.w3.org/Graphics/SVG/1.1/DTD/svg11.dtd">
<!-- Generated by graphviz version 2.43.0 (0)
 -->
<!-- Title: integral_parameter.hpp Pages: 1 -->
<svg width="182pt" height="84pt"
 viewBox="0.00 0.00 181.50 84.00" xmlns="http://www.w3.org/2000/svg" xmlns:xlink="http://www.w3.org/1999/xlink">
<g id="graph0" class="graph" transform="scale(1 1) rotate(0) translate(4 80)">
<title>integral_parameter.hpp</title>
<!-- Node1 -->
<g id="node1" class="node">
<title>Node1</title>
<g id="a_node1"><a xlink:title=" ">
<polygon fill="#bfbfbf" stroke="black" points="30.5,-56.5 30.5,-75.5 161.5,-75.5 161.5,-56.5 30.5,-56.5"/>
<text text-anchor="middle" x="96" y="-63.5" font-family="Helvetica,sans-Serif" font-size="10.00">integral_parameter.hpp</text>
</a>
</g>
</g>
<!-- Node2 -->
<g id="node2" class="node">
<title>Node2</title>
<g id="a_node2"><a xlink:href="p3m-dipolar_8cpp.html" target="_top" xlink:title=" ">
<polygon fill="none" stroke="black" points="0,-0.5 0,-19.5 96,-19.5 96,-0.5 0,-0.5"/>
<text text-anchor="middle" x="48" y="-7.5" font-family="Helvetica,sans-Serif" font-size="10.00">p3m&#45;dipolar.cpp</text>
</a>
</g>
</g>
<!-- Node1&#45;&gt;Node2 -->
<g id="edge1" class="edge">
<title>Node1&#45;&gt;Node2</title>
<path fill="none" stroke="midnightblue" d="M81.27,-48.43C72.86,-38.97 62.65,-27.48 55.78,-19.75"/>
<polygon fill="midnightblue" stroke="midnightblue" points="78.81,-50.93 88.07,-56.08 84.05,-46.28 78.81,-50.93"/>
</g>
<!-- Node3 -->
<g id="node3" class="node">
<title>Node3</title>
<g id="a_node3"><a xlink:href="p3m_8cpp.html" target="_top" xlink:title=" ">
<polygon fill="none" stroke="black" points="114.5,-0.5 114.5,-19.5 173.5,-19.5 173.5,-0.5 114.5,-0.5"/>
<text text-anchor="middle" x="144" y="-7.5" font-family="Helvetica,sans-Serif" font-size="10.00">p3m.cpp</text>
</a>
</g>
</g>
<!-- Node1&#45;&gt;Node3 -->
<g id="edge2" class="edge">
<title>Node1&#45;&gt;Node3</title>
<path fill="none" stroke="midnightblue" d="M110.73,-48.43C119.14,-38.97 129.35,-27.48 136.22,-19.75"/>
<polygon fill="midnightblue" stroke="midnightblue" points="107.95,-46.28 103.93,-56.08 113.19,-50.93 107.95,-46.28"/>
</g>
</g>
</svg>
