<?xml version="1.0" encoding="UTF-8" standalone="no"?>
<!DOCTYPE svg PUBLIC "-//W3C//DTD SVG 1.1//EN"
 "http://www.w3.org/Graphics/SVG/1.1/DTD/svg11.dtd">
<!-- Generated by graphviz version 2.43.0 (0)
 -->
<!-- Title: jacobian_type.hpp Pages: 1 -->
<!--zoomable 319 -->
<svg id="main" version="1.1" xmlns="http://www.w3.org/2000/svg" xmlns:xlink="http://www.w3.org/1999/xlink" xml:space="preserve" onload="init(evt)">
<style type="text/css"><![CDATA[
.edge:hover path { stroke: red; }
.edge:hover polygon { stroke: red; fill: red; }
]]></style>
<script type="text/javascript"><![CDATA[
var edges = document.getElementsByTagName('g');
if (edges && edges.length) {
  for (var i=0;i<edges.length;i++) {
    if (edges[i].id.substr(0,4)=='edge') {
      edges[i].setAttribute('class','edge');
    }
  }
}
]]></script>
        <defs>
                <circle id="rim" cx="0" cy="0" r="7"/>
                <circle id="rim2" cx="0" cy="0" r="3.5"/>
                <g id="zoomPlus">
                        <use xlink:href="#rim" fill="#404040">
                                <set attributeName="fill" to="#808080" begin="zoomplus.mouseover" end="zoomplus.mouseout"/>
                        </use>
                        <path d="M-4,0h8M0,-4v8" fill="none" stroke="white" stroke-width="1.5" pointer-events="none"/>
                </g>
                <g id="zoomMin">
                        <use xlink:href="#rim" fill="#404040">
                                <set attributeName="fill" to="#808080" begin="zoomminus.mouseover" end="zoomminus.mouseout"/>
                        </use>
                        <path d="M-4,0h8" fill="none" stroke="white" stroke-width="1.5" pointer-events="none"/>
                </g>
                <g id="dirArrow">
                        <path fill="none" stroke="white" stroke-width="1.5" d="M0,-3.0v7 M-2.5,-0.5L0,-3.0L2.5,-0.5"/>
                </g>
               <g id="resetDef">
                       <use xlink:href="#rim2" fill="#404040">
                               <set attributeName="fill" to="#808080" begin="reset.mouseover" end="reset.mouseout"/>
                       </use>
               </g>
        </defs>

<script type="text/javascript">
var viewWidth = 3020;
var viewHeight = 319;
var sectionId = 'dynsection-0';
</script>
<script xlink:href="svgpan.js"/>
<svg id="graph" class="graph">
<g id="viewport">
<title>jacobian_type.hpp</title>
<!-- Node1 -->
<g id="node1" class="node">
<title>Node1</title>
<g id="a_node1"><a xlink:title=" ">
<polygon fill="#bfbfbf" stroke="black" points="1260.97,-291.5 1260.97,-310.5 1366.97,-310.5 1366.97,-291.5 1260.97,-291.5"/>
<text text-anchor="middle" x="1313.97" y="-298.5" font-family="Helvetica,sans-Serif" font-size="10.00">jacobian_type.hpp</text>
</a>
</g>
</g>
<!-- Node2 -->
<g id="node2" class="node">
<title>Node2</title>
<g id="a_node2"><a xlink:href="Vector_8hpp.html" target="_top" xlink:title=" ">
<polygon fill="none" stroke="black" points="472.47,-179.5 472.47,-198.5 565.47,-198.5 565.47,-179.5 472.47,-179.5"/>
<text text-anchor="middle" x="518.97" y="-186.5" font-family="Helvetica,sans-Serif" font-size="10.00">utils/Vector.hpp</text>
</a>
</g>
</g>
<!-- Node1&#45;&gt;Node2 -->
<g id="edge1" class="edge">
<title>Node1&#45;&gt;Node2</title>
<path fill="none" stroke="midnightblue" d="M1260.53,-292.83C1139.4,-276.53 834.66,-235.31 579.97,-199 578.52,-198.79 577.04,-198.58 575.55,-198.37"/>
<polygon fill="midnightblue" stroke="midnightblue" points="575.99,-194.89 565.59,-196.93 574.99,-201.82 575.99,-194.89"/>
</g>
<!-- Node9 -->
<g id="node9" class="node">
<title>Node9</title>
<g id="a_node9"><a xlink:title=" ">
<polygon fill="none" stroke="#bfbfbf" points="876.47,-0.5 876.47,-19.5 929.47,-19.5 929.47,-0.5 876.47,-0.5"/>
<text text-anchor="middle" x="902.97" y="-7.5" font-family="Helvetica,sans-Serif" font-size="10.00">cstddef</text>
</a>
</g>
</g>
<!-- Node1&#45;&gt;Node9 -->
<g id="edge50" class="edge">
<title>Node1&#45;&gt;Node9</title>
<path fill="none" stroke="midnightblue" d="M1367.12,-299.4C1654.74,-295.83 3011.97,-274.51 3011.97,-190 3011.97,-190 3011.97,-190 3011.97,-132 3011.97,-23.83 1220.15,-12.27 939.7,-11.12"/>
<polygon fill="midnightblue" stroke="midnightblue" points="939.65,-7.62 929.64,-11.08 939.63,-14.62 939.65,-7.62"/>
</g>
<!-- Node22 -->
<g id="node22" class="node">
<title>Node22</title>
<g id="a_node22"><a xlink:href="matrix_8hpp.html" target="_top" xlink:title="This file contains a matrix implementation and the trait types needed for the boost qvm interoperabil...">
<polygon fill="none" stroke="black" points="1266.97,-235.5 1266.97,-254.5 1360.97,-254.5 1360.97,-235.5 1266.97,-235.5"/>
<text text-anchor="middle" x="1313.97" y="-242.5" font-family="Helvetica,sans-Serif" font-size="10.00">utils/matrix.hpp</text>
</a>
</g>
</g>
<!-- Node1&#45;&gt;Node22 -->
<g id="edge26" class="edge">
<title>Node1&#45;&gt;Node22</title>
<path fill="none" stroke="midnightblue" d="M1313.97,-291.08C1313.97,-284.01 1313.97,-273.86 1313.97,-264.99"/>
<polygon fill="midnightblue" stroke="midnightblue" points="1317.47,-264.75 1313.97,-254.75 1310.47,-264.75 1317.47,-264.75"/>
</g>
<!-- Node3 -->
<g id="node3" class="node">
<title>Node3</title>
<g id="a_node3"><a xlink:title=" ">
<polygon fill="none" stroke="#bfbfbf" points="872.97,-123.5 872.97,-142.5 1022.97,-142.5 1022.97,-123.5 872.97,-123.5"/>
<text text-anchor="middle" x="947.97" y="-130.5" font-family="Helvetica,sans-Serif" font-size="10.00">boost/qvm/deduce_vec.hpp</text>
</a>
</g>
</g>
<!-- Node2&#45;&gt;Node3 -->
<g id="edge2" class="edge">
<title>Node2&#45;&gt;Node3</title>
<path fill="none" stroke="midnightblue" d="M565.7,-182.12C638.89,-172.91 781.35,-154.97 870.18,-143.79"/>
<polygon fill="midnightblue" stroke="midnightblue" points="870.72,-147.25 880.21,-142.53 869.85,-140.31 870.72,-147.25"/>
</g>
<!-- Node4 -->
<g id="node4" class="node">
<title>Node4</title>
<g id="a_node4"><a xlink:title=" ">
<polygon fill="none" stroke="#bfbfbf" points="24.97,-123.5 24.97,-142.5 164.97,-142.5 164.97,-123.5 24.97,-123.5"/>
<text text-anchor="middle" x="94.97" y="-130.5" font-family="Helvetica,sans-Serif" font-size="10.00">boost/qvm/vec_traits.hpp</text>
</a>
</g>
</g>
<!-- Node2&#45;&gt;Node4 -->
<g id="edge3" class="edge">
<title>Node2&#45;&gt;Node4</title>
<path fill="none" stroke="midnightblue" d="M472.39,-182.07C399.96,-172.84 259.6,-154.97 171.96,-143.8"/>
<polygon fill="midnightblue" stroke="midnightblue" points="172.16,-140.3 161.8,-142.51 171.28,-147.25 172.16,-140.3"/>
</g>
<!-- Node5 -->
<g id="node5" class="node">
<title>Node5</title>
<g id="a_node5"><a xlink:href="Array_8hpp.html" target="_top" xlink:title=" ">
<polygon fill="none" stroke="black" points="610.97,-123.5 610.97,-142.5 696.97,-142.5 696.97,-123.5 610.97,-123.5"/>
<text text-anchor="middle" x="653.97" y="-130.5" font-family="Helvetica,sans-Serif" font-size="10.00">utils/Array.hpp</text>
</a>
</g>
</g>
<!-- Node2&#45;&gt;Node5 -->
<g id="edge4" class="edge">
<title>Node2&#45;&gt;Node5</title>
<path fill="none" stroke="midnightblue" d="M540.37,-179.44C562.68,-170.52 597.88,-156.44 623.18,-146.32"/>
<polygon fill="midnightblue" stroke="midnightblue" points="624.7,-149.48 632.68,-142.52 622.1,-142.98 624.7,-149.48"/>
</g>
<!-- Node7 -->
<g id="node7" class="node">
<title>Node7</title>
<g id="a_node7"><a xlink:title=" ">
<polygon fill="none" stroke="#bfbfbf" points="292.97,-0.5 292.97,-19.5 344.97,-19.5 344.97,-0.5 292.97,-0.5"/>
<text text-anchor="middle" x="318.97" y="-7.5" font-family="Helvetica,sans-Serif" font-size="10.00">cassert</text>
</a>
</g>
</g>
<!-- Node2&#45;&gt;Node7 -->
<g id="edge17" class="edge">
<title>Node2&#45;&gt;Node7</title>
<path fill="none" stroke="midnightblue" d="M472.39,-187.33C353.58,-185.15 46.45,-176.32 15.97,-143 -64.65,-54.85 186.27,-22.77 282.79,-13.87"/>
<polygon fill="midnightblue" stroke="midnightblue" points="283.32,-17.33 292.97,-12.96 282.7,-10.36 283.32,-17.33"/>
</g>
<!-- Node2&#45;&gt;Node9 -->
<g id="edge19" class="edge">
<title>Node2&#45;&gt;Node9</title>
<path fill="none" stroke="midnightblue" d="M565.56,-180.91C604.17,-174.08 659.97,-161.94 705.97,-143 721.83,-136.47 723.19,-129.71 738.97,-123 796.52,-98.55 828.73,-129.08 874.97,-87 891.27,-72.17 898.11,-47.03 900.96,-29.75"/>
<polygon fill="midnightblue" stroke="midnightblue" points="904.44,-30.09 902.32,-19.71 897.51,-29.15 904.44,-30.09"/>
</g>
<!-- Node12 -->
<g id="node12" class="node">
<title>Node12</title>
<g id="a_node12"><a xlink:title=" ">
<polygon fill="none" stroke="#bfbfbf" points="931.47,-62 931.47,-81 984.47,-81 984.47,-62 931.47,-62"/>
<text text-anchor="middle" x="957.97" y="-69" font-family="Helvetica,sans-Serif" font-size="10.00">iterator</text>
</a>
</g>
</g>
<!-- Node2&#45;&gt;Node12 -->
<g id="edge22" class="edge">
<title>Node2&#45;&gt;Node12</title>
<path fill="none" stroke="midnightblue" d="M565.72,-181.68C610.83,-174.83 680.66,-162.23 738.97,-143 758.99,-136.4 762.16,-130.19 781.97,-123 840.35,-101.83 857.66,-105.37 916.97,-87 919.59,-86.19 922.28,-85.32 924.99,-84.42"/>
<polygon fill="midnightblue" stroke="midnightblue" points="926.34,-87.66 934.66,-81.1 924.07,-81.04 926.34,-87.66"/>
</g>
<!-- Node15 -->
<g id="node15" class="node">
<title>Node15</title>
<g id="a_node15"><a xlink:title=" ">
<polygon fill="none" stroke="#bfbfbf" points="790.97,-123.5 790.97,-142.5 854.97,-142.5 854.97,-123.5 790.97,-123.5"/>
<text text-anchor="middle" x="822.97" y="-130.5" font-family="Helvetica,sans-Serif" font-size="10.00">algorithm</text>
</a>
</g>
</g>
<!-- Node2&#45;&gt;Node15 -->
<g id="edge16" class="edge">
<title>Node2&#45;&gt;Node15</title>
<path fill="none" stroke="midnightblue" d="M565.63,-180.16C617.35,-171.4 703.2,-156.65 776.97,-143 778.23,-142.77 779.51,-142.53 780.8,-142.29"/>
<polygon fill="midnightblue" stroke="midnightblue" points="781.65,-145.69 790.82,-140.38 780.34,-138.81 781.65,-145.69"/>
</g>
<!-- Node16 -->
<g id="node16" class="node">
<title>Node16</title>
<g id="a_node16"><a xlink:title=" ">
<polygon fill="none" stroke="#bfbfbf" points="183.47,-123.5 183.47,-142.5 230.47,-142.5 230.47,-123.5 183.47,-123.5"/>
<text text-anchor="middle" x="206.97" y="-130.5" font-family="Helvetica,sans-Serif" font-size="10.00">cmath</text>
</a>
</g>
</g>
<!-- Node2&#45;&gt;Node16 -->
<g id="edge18" class="edge">
<title>Node2&#45;&gt;Node16</title>
<path fill="none" stroke="midnightblue" d="M472.09,-182.14C418.3,-175.05 327.3,-161.92 240.66,-143.18"/>
<polygon fill="midnightblue" stroke="midnightblue" points="241.18,-139.71 230.66,-140.99 239.68,-146.55 241.18,-139.71"/>
</g>
<!-- Node17 -->
<g id="node17" class="node">
<title>Node17</title>
<g id="a_node17"><a xlink:title=" ">
<polygon fill="none" stroke="#bfbfbf" points="248.47,-123.5 248.47,-142.5 313.47,-142.5 313.47,-123.5 248.47,-123.5"/>
<text text-anchor="middle" x="280.97" y="-130.5" font-family="Helvetica,sans-Serif" font-size="10.00">functional</text>
</a>
</g>
</g>
<!-- Node2&#45;&gt;Node17 -->
<g id="edge20" class="edge">
<title>Node2&#45;&gt;Node17</title>
<path fill="none" stroke="midnightblue" d="M481.26,-179.44C438.34,-169.7 368.38,-153.83 323.54,-143.66"/>
<polygon fill="midnightblue" stroke="midnightblue" points="324.06,-140.19 313.54,-141.39 322.52,-147.01 324.06,-140.19"/>
</g>
<!-- Node18 -->
<g id="node18" class="node">
<title>Node18</title>
<g id="a_node18"><a xlink:title=" ">
<polygon fill="none" stroke="#bfbfbf" points="331.47,-123.5 331.47,-142.5 414.47,-142.5 414.47,-123.5 331.47,-123.5"/>
<text text-anchor="middle" x="372.97" y="-130.5" font-family="Helvetica,sans-Serif" font-size="10.00">initializer_list</text>
</a>
</g>
</g>
<!-- Node2&#45;&gt;Node18 -->
<g id="edge21" class="edge">
<title>Node2&#45;&gt;Node18</title>
<path fill="none" stroke="midnightblue" d="M495.84,-179.44C471.49,-170.44 432.97,-156.19 405.55,-146.05"/>
<polygon fill="midnightblue" stroke="midnightblue" points="406.59,-142.7 396,-142.52 404.16,-149.27 406.59,-142.7"/>
</g>
<!-- Node19 -->
<g id="node19" class="node">
<title>Node19</title>
<g id="a_node19"><a xlink:title=" ">
<polygon fill="none" stroke="#bfbfbf" points="432.97,-123.5 432.97,-142.5 488.97,-142.5 488.97,-123.5 432.97,-123.5"/>
<text text-anchor="middle" x="460.97" y="-130.5" font-family="Helvetica,sans-Serif" font-size="10.00">numeric</text>
</a>
</g>
</g>
<!-- Node2&#45;&gt;Node19 -->
<g id="edge23" class="edge">
<title>Node2&#45;&gt;Node19</title>
<path fill="none" stroke="midnightblue" d="M509.66,-179.32C501.08,-171.34 488.16,-159.31 477.79,-149.65"/>
<polygon fill="midnightblue" stroke="midnightblue" points="480.17,-147.09 470.46,-142.83 475.4,-152.21 480.17,-147.09"/>
</g>
<!-- Node20 -->
<g id="node20" class="node">
<title>Node20</title>
<g id="a_node20"><a xlink:title=" ">
<polygon fill="none" stroke="#bfbfbf" points="1040.47,-123.5 1040.47,-142.5 1109.47,-142.5 1109.47,-123.5 1040.47,-123.5"/>
<text text-anchor="middle" x="1074.97" y="-130.5" font-family="Helvetica,sans-Serif" font-size="10.00">type_traits</text>
</a>
</g>
</g>
<!-- Node2&#45;&gt;Node20 -->
<g id="edge24" class="edge">
<title>Node2&#45;&gt;Node20</title>
<path fill="none" stroke="midnightblue" d="M565.52,-185.77C654.18,-181.13 853.49,-168.76 1030.3,-143.1"/>
<polygon fill="midnightblue" stroke="midnightblue" points="1030.92,-146.54 1040.3,-141.63 1029.9,-139.62 1030.92,-146.54"/>
</g>
<!-- Node21 -->
<g id="node21" class="node">
<title>Node21</title>
<g id="a_node21"><a xlink:title=" ">
<polygon fill="none" stroke="#bfbfbf" points="507.47,-123.5 507.47,-142.5 554.47,-142.5 554.47,-123.5 507.47,-123.5"/>
<text text-anchor="middle" x="530.97" y="-130.5" font-family="Helvetica,sans-Serif" font-size="10.00">vector</text>
</a>
</g>
</g>
<!-- Node2&#45;&gt;Node21 -->
<g id="edge25" class="edge">
<title>Node2&#45;&gt;Node21</title>
<path fill="none" stroke="midnightblue" d="M520.96,-179.08C522.55,-171.93 524.83,-161.64 526.82,-152.69"/>
<polygon fill="midnightblue" stroke="midnightblue" points="530.28,-153.27 529.03,-142.75 523.44,-151.75 530.28,-153.27"/>
</g>
<!-- Node6 -->
<g id="node6" class="node">
<title>Node6</title>
<g id="a_node6"><a xlink:href="device__qualifier_8hpp.html" target="_top" xlink:title=" ">
<polygon fill="none" stroke="black" points="365.97,-62 365.97,-81 481.97,-81 481.97,-62 365.97,-62"/>
<text text-anchor="middle" x="423.97" y="-69" font-family="Helvetica,sans-Serif" font-size="10.00">device_qualifier.hpp</text>
</a>
</g>
</g>
<!-- Node5&#45;&gt;Node6 -->
<g id="edge5" class="edge">
<title>Node5&#45;&gt;Node6</title>
<path fill="none" stroke="midnightblue" d="M621.02,-123.48C580.37,-112.96 511.19,-95.06 466.55,-83.51"/>
<polygon fill="midnightblue" stroke="midnightblue" points="467.42,-80.13 456.87,-81.01 465.67,-86.9 467.42,-80.13"/>
</g>
<!-- Node5&#45;&gt;Node7 -->
<g id="edge11" class="edge">
<title>Node5&#45;&gt;Node7</title>
<path fill="none" stroke="midnightblue" d="M610.72,-125.13C606.08,-124.41 601.43,-123.69 596.97,-123 490.37,-106.59 444.25,-150.37 356.97,-87 337.99,-73.22 327.93,-47.24 323.03,-29.53"/>
<polygon fill="midnightblue" stroke="midnightblue" points="326.41,-28.62 320.61,-19.75 319.62,-30.3 326.41,-28.62"/>
</g>
<!-- Node8 -->
<g id="node8" class="node">
<title>Node8</title>
<g id="a_node8"><a xlink:href="get_8hpp.html" target="_top" xlink:title=" ">
<polygon fill="none" stroke="black" points="783.47,-62 783.47,-81 836.47,-81 836.47,-62 783.47,-62"/>
<text text-anchor="middle" x="809.97" y="-69" font-family="Helvetica,sans-Serif" font-size="10.00">get.hpp</text>
</a>
</g>
</g>
<!-- Node5&#45;&gt;Node8 -->
<g id="edge7" class="edge">
<title>Node5&#45;&gt;Node8</title>
<path fill="none" stroke="midnightblue" d="M677.72,-123.46C702.19,-114.59 741.39,-100.2 774.97,-87 776.62,-86.36 778.3,-85.69 779.99,-85.01"/>
<polygon fill="midnightblue" stroke="midnightblue" points="781.73,-88.08 789.67,-81.06 779.09,-81.6 781.73,-88.08"/>
</g>
<!-- Node5&#45;&gt;Node9 -->
<g id="edge12" class="edge">
<title>Node5&#45;&gt;Node9</title>
<path fill="none" stroke="midnightblue" d="M697.07,-123.52C749.77,-112.9 833.54,-95.12 845.97,-87 868.13,-72.52 884.91,-46.32 894.35,-28.79"/>
<polygon fill="midnightblue" stroke="midnightblue" points="897.6,-30.12 899.04,-19.63 891.37,-26.93 897.6,-30.12"/>
</g>
<!-- Node11 -->
<g id="node11" class="node">
<title>Node11</title>
<g id="a_node11"><a xlink:title=" ">
<polygon fill="none" stroke="#bfbfbf" points="500.47,-56.5 500.47,-86.5 607.47,-86.5 607.47,-56.5 500.47,-56.5"/>
<text text-anchor="start" x="508.47" y="-74.5" font-family="Helvetica,sans-Serif" font-size="10.00">boost/serialization</text>
<text text-anchor="middle" x="553.97" y="-63.5" font-family="Helvetica,sans-Serif" font-size="10.00">/access.hpp</text>
</a>
</g>
</g>
<!-- Node5&#45;&gt;Node11 -->
<g id="edge10" class="edge">
<title>Node5&#45;&gt;Node11</title>
<path fill="none" stroke="midnightblue" d="M639.65,-123.48C625.85,-115.27 604.49,-102.56 586.55,-91.88"/>
<polygon fill="midnightblue" stroke="midnightblue" points="587.93,-88.63 577.54,-86.52 584.35,-94.64 587.93,-88.63"/>
</g>
<!-- Node5&#45;&gt;Node12 -->
<g id="edge13" class="edge">
<title>Node5&#45;&gt;Node12</title>
<path fill="none" stroke="midnightblue" d="M697.21,-123.54C757.24,-111.79 864.8,-90.74 921.19,-79.7"/>
<polygon fill="midnightblue" stroke="midnightblue" points="921.96,-83.12 931.1,-77.76 920.61,-76.25 921.96,-83.12"/>
</g>
<!-- Node13 -->
<g id="node13" class="node">
<title>Node13</title>
<g id="a_node13"><a xlink:title=" ">
<polygon fill="none" stroke="#bfbfbf" points="625.47,-62 625.47,-81 682.47,-81 682.47,-62 625.47,-62"/>
<text text-anchor="middle" x="653.97" y="-69" font-family="Helvetica,sans-Serif" font-size="10.00">ostream</text>
</a>
</g>
</g>
<!-- Node5&#45;&gt;Node13 -->
<g id="edge14" class="edge">
<title>Node5&#45;&gt;Node13</title>
<path fill="none" stroke="midnightblue" d="M653.97,-123.48C653.97,-115.08 653.97,-101.98 653.97,-91.16"/>
<polygon fill="midnightblue" stroke="midnightblue" points="657.47,-91.01 653.97,-81.01 650.47,-91.01 657.47,-91.01"/>
</g>
<!-- Node14 -->
<g id="node14" class="node">
<title>Node14</title>
<g id="a_node14"><a xlink:title=" ">
<polygon fill="none" stroke="#bfbfbf" points="700.47,-62 700.47,-81 765.47,-81 765.47,-62 700.47,-62"/>
<text text-anchor="middle" x="732.97" y="-69" font-family="Helvetica,sans-Serif" font-size="10.00">stdexcept</text>
</a>
</g>
</g>
<!-- Node5&#45;&gt;Node14 -->
<g id="edge15" class="edge">
<title>Node5&#45;&gt;Node14</title>
<path fill="none" stroke="midnightblue" d="M665.29,-123.48C677.85,-114.02 698.33,-98.6 713.47,-87.19"/>
<polygon fill="midnightblue" stroke="midnightblue" points="715.79,-89.82 721.68,-81.01 711.58,-84.23 715.79,-89.82"/>
</g>
<!-- Node6&#45;&gt;Node7 -->
<g id="edge6" class="edge">
<title>Node6&#45;&gt;Node7</title>
<path fill="none" stroke="midnightblue" d="M408.93,-61.98C391.7,-52.21 363.23,-36.08 342.94,-24.58"/>
<polygon fill="midnightblue" stroke="midnightblue" points="344.42,-21.39 333.99,-19.51 340.96,-27.48 344.42,-21.39"/>
</g>
<!-- Node8&#45;&gt;Node9 -->
<g id="edge8" class="edge">
<title>Node8&#45;&gt;Node9</title>
<path fill="none" stroke="midnightblue" d="M823.3,-61.98C838.35,-52.34 863.09,-36.52 881.01,-25.05"/>
<polygon fill="midnightblue" stroke="midnightblue" points="883.14,-27.85 889.67,-19.51 879.36,-21.95 883.14,-27.85"/>
</g>
<!-- Node10 -->
<g id="node10" class="node">
<title>Node10</title>
<g id="a_node10"><a xlink:title=" ">
<polygon fill="none" stroke="#bfbfbf" points="789.47,-0.5 789.47,-19.5 830.47,-19.5 830.47,-0.5 789.47,-0.5"/>
<text text-anchor="middle" x="809.97" y="-7.5" font-family="Helvetica,sans-Serif" font-size="10.00">tuple</text>
</a>
</g>
</g>
<!-- Node8&#45;&gt;Node10 -->
<g id="edge9" class="edge">
<title>Node8&#45;&gt;Node10</title>
<path fill="none" stroke="midnightblue" d="M809.97,-61.98C809.97,-53.58 809.97,-40.48 809.97,-29.66"/>
<polygon fill="midnightblue" stroke="midnightblue" points="813.47,-29.51 809.97,-19.51 806.47,-29.51 813.47,-29.51"/>
</g>
<!-- Node22&#45;&gt;Node2 -->
<g id="edge28" class="edge">
<title>Node22&#45;&gt;Node2</title>
<path fill="none" stroke="midnightblue" d="M1266.63,-242.5C1149.78,-238.48 838.38,-225.93 579.97,-199 578.51,-198.85 577.03,-198.69 575.53,-198.51"/>
<polygon fill="midnightblue" stroke="midnightblue" points="575.9,-195.03 565.55,-197.29 575.05,-201.98 575.9,-195.03"/>
</g>
<!-- Node22&#45;&gt;Node3 -->
<g id="edge43" class="edge">
<title>Node22&#45;&gt;Node3</title>
<path fill="none" stroke="midnightblue" d="M1266.63,-243.6C1141.74,-242.06 810.72,-234.62 777.97,-199 771.96,-192.46 772.55,-186.04 777.97,-179 790.23,-163.08 834.84,-151.63 875.28,-144.27"/>
<polygon fill="midnightblue" stroke="midnightblue" points="875.94,-147.7 885.18,-142.53 874.73,-140.81 875.94,-147.7"/>
</g>
<!-- Node22&#45;&gt;Node5 -->
<g id="edge27" class="edge">
<title>Node22&#45;&gt;Node5</title>
<path fill="none" stroke="midnightblue" d="M1266.7,-242.98C1150.51,-240.01 853.66,-229.58 759.97,-199 726.37,-188.03 692.38,-164.49 672.25,-148.96"/>
<polygon fill="midnightblue" stroke="midnightblue" points="674.29,-146.11 664.27,-142.66 669.95,-151.6 674.29,-146.11"/>
</g>
<!-- Node22&#45;&gt;Node7 -->
<g id="edge34" class="edge">
<title>Node22&#45;&gt;Node7</title>
<path fill="none" stroke="midnightblue" d="M1266.93,-242.85C1144.28,-239.46 817.06,-227.92 712.97,-199 659.73,-184.21 651.22,-168.05 601.97,-143 584.61,-134.17 581.5,-129.01 562.97,-123 463.3,-90.68 403.71,-161.45 329.97,-87 315.27,-72.16 314.45,-47.02 316.02,-29.74"/>
<polygon fill="midnightblue" stroke="midnightblue" points="319.5,-30.07 317.28,-19.71 312.56,-29.2 319.5,-30.07"/>
</g>
<!-- Node22&#45;&gt;Node9 -->
<g id="edge35" class="edge">
<title>Node22&#45;&gt;Node9</title>
<path fill="none" stroke="midnightblue" d="M1361.3,-243.6C1627.4,-241.26 2926.44,-228.33 2954.97,-199 2961.17,-192.63 2961,-185.54 2954.97,-179 2812.75,-24.66 1204.27,-12.11 939.7,-11.09"/>
<polygon fill="midnightblue" stroke="midnightblue" points="939.49,-7.59 929.48,-11.05 939.47,-14.59 939.49,-7.59"/>
</g>
<!-- Node22&#45;&gt;Node15 -->
<g id="edge32" class="edge">
<title>Node22&#45;&gt;Node15</title>
<path fill="none" stroke="midnightblue" d="M1266.75,-243.67C1140.49,-242.31 802.38,-235.27 768.97,-199 753.32,-182 777.37,-161.32 798.19,-147.91"/>
<polygon fill="midnightblue" stroke="midnightblue" points="800.09,-150.85 806.79,-142.65 796.44,-144.88 800.09,-150.85"/>
</g>
<!-- Node22&#45;&gt;Node20 -->
<g id="edge36" class="edge">
<title>Node22&#45;&gt;Node20</title>
<path fill="none" stroke="midnightblue" d="M1266.53,-243.53C1143.06,-241.8 819.08,-233.96 786.97,-199 780.96,-192.45 781.16,-185.73 786.97,-179 821.12,-139.47 962.38,-151.24 1030.07,-142.96"/>
<polygon fill="midnightblue" stroke="midnightblue" points="1030.9,-146.38 1040.28,-141.45 1029.87,-139.45 1030.9,-146.38"/>
</g>
<!-- Node23 -->
<g id="node23" class="node">
<title>Node23</title>
<g id="a_node23"><a xlink:href="flatten_8hpp.html" target="_top" xlink:title=" ">
<polygon fill="none" stroke="black" points="795.97,-179.5 795.97,-198.5 889.97,-198.5 889.97,-179.5 795.97,-179.5"/>
<text text-anchor="middle" x="842.97" y="-186.5" font-family="Helvetica,sans-Serif" font-size="10.00">utils/flatten.hpp</text>
</a>
</g>
</g>
<!-- Node22&#45;&gt;Node23 -->
<g id="edge29" class="edge">
<title>Node22&#45;&gt;Node23</title>
<path fill="none" stroke="midnightblue" d="M1266.89,-239.69C1191.64,-232.62 1039.38,-217.62 900.01,-199.08"/>
<polygon fill="midnightblue" stroke="midnightblue" points="900.38,-195.6 890,-197.74 899.45,-202.53 900.38,-195.6"/>
</g>
<!-- Node24 -->
<g id="node24" class="node">
<title>Node24</title>
<g id="a_node24"><a xlink:title=" ">
<polygon fill="none" stroke="#bfbfbf" points="907.97,-179.5 907.97,-198.5 949.97,-198.5 949.97,-179.5 907.97,-179.5"/>
<text text-anchor="middle" x="928.97" y="-186.5" font-family="Helvetica,sans-Serif" font-size="10.00">array</text>
</a>
</g>
</g>
<!-- Node22&#45;&gt;Node24 -->
<g id="edge33" class="edge">
<title>Node22&#45;&gt;Node24</title>
<path fill="none" stroke="midnightblue" d="M1266.92,-240.37C1198.73,-234.58 1068.71,-221.55 959.97,-199 959.87,-198.98 959.78,-198.96 959.68,-198.94"/>
<polygon fill="midnightblue" stroke="midnightblue" points="960.75,-195.6 950.21,-196.64 959.1,-202.4 960.75,-195.6"/>
</g>
<!-- Node25 -->
<g id="node25" class="node">
<title>Node25</title>
<g id="a_node25"><a xlink:title=" ">
<polygon fill="none" stroke="#bfbfbf" points="968.47,-179.5 968.47,-198.5 1013.47,-198.5 1013.47,-179.5 968.47,-179.5"/>
<text text-anchor="middle" x="990.97" y="-186.5" font-family="Helvetica,sans-Serif" font-size="10.00">utility</text>
</a>
</g>
</g>
<!-- Node22&#45;&gt;Node25 -->
<g id="edge37" class="edge">
<title>Node22&#45;&gt;Node25</title>
<path fill="none" stroke="midnightblue" d="M1266.78,-238.48C1210.98,-231.57 1115.19,-218.46 1023.61,-198.9"/>
<polygon fill="midnightblue" stroke="midnightblue" points="1024.13,-195.43 1013.61,-196.73 1022.65,-202.27 1024.13,-195.43"/>
</g>
<!-- Node26 -->
<g id="node26" class="node">
<title>Node26</title>
<g id="a_node26"><a xlink:title=" ">
<polygon fill="none" stroke="#bfbfbf" points="1031.47,-179.5 1031.47,-198.5 1200.47,-198.5 1200.47,-179.5 1031.47,-179.5"/>
<text text-anchor="middle" x="1115.97" y="-186.5" font-family="Helvetica,sans-Serif" font-size="10.00">boost/qvm/mat_operations.hpp</text>
</a>
</g>
</g>
<!-- Node22&#45;&gt;Node26 -->
<g id="edge38" class="edge">
<title>Node22&#45;&gt;Node26</title>
<path fill="none" stroke="midnightblue" d="M1282.6,-235.44C1248.71,-226.2 1194.57,-211.44 1157.25,-201.26"/>
<polygon fill="midnightblue" stroke="midnightblue" points="1157.77,-197.77 1147.2,-198.52 1155.93,-204.52 1157.77,-197.77"/>
</g>
<!-- Node27 -->
<g id="node27" class="node">
<title>Node27</title>
<g id="a_node27"><a xlink:title=" ">
<polygon fill="none" stroke="#bfbfbf" points="1218.47,-179.5 1218.47,-198.5 1409.47,-198.5 1409.47,-179.5 1218.47,-179.5"/>
<text text-anchor="middle" x="1313.97" y="-186.5" font-family="Helvetica,sans-Serif" font-size="10.00">boost/qvm/vec_mat_operations.hpp</text>
</a>
</g>
</g>
<!-- Node22&#45;&gt;Node27 -->
<g id="edge39" class="edge">
<title>Node22&#45;&gt;Node27</title>
<path fill="none" stroke="midnightblue" d="M1313.97,-235.08C1313.97,-228.01 1313.97,-217.86 1313.97,-208.99"/>
<polygon fill="midnightblue" stroke="midnightblue" points="1317.47,-208.75 1313.97,-198.75 1310.47,-208.75 1317.47,-208.75"/>
</g>
<!-- Node28 -->
<g id="node28" class="node">
<title>Node28</title>
<g id="a_node28"><a xlink:title=" ">
<polygon fill="none" stroke="#bfbfbf" points="1427.47,-179.5 1427.47,-198.5 1594.47,-198.5 1594.47,-179.5 1427.47,-179.5"/>
<text text-anchor="middle" x="1510.97" y="-186.5" font-family="Helvetica,sans-Serif" font-size="10.00">boost/qvm/vec_operations.hpp</text>
</a>
</g>
</g>
<!-- Node22&#45;&gt;Node28 -->
<g id="edge40" class="edge">
<title>Node22&#45;&gt;Node28</title>
<path fill="none" stroke="midnightblue" d="M1345.19,-235.44C1378.91,-226.2 1432.77,-211.44 1469.91,-201.26"/>
<polygon fill="midnightblue" stroke="midnightblue" points="1471.19,-204.54 1479.9,-198.52 1469.34,-197.78 1471.19,-204.54"/>
</g>
<!-- Node29 -->
<g id="node29" class="node">
<title>Node29</title>
<g id="a_node29"><a xlink:title=" ">
<polygon fill="none" stroke="#bfbfbf" points="1612.97,-179.5 1612.97,-198.5 1764.97,-198.5 1764.97,-179.5 1612.97,-179.5"/>
<text text-anchor="middle" x="1688.97" y="-186.5" font-family="Helvetica,sans-Serif" font-size="10.00">boost/qvm/deduce_mat.hpp</text>
</a>
</g>
</g>
<!-- Node22&#45;&gt;Node29 -->
<g id="edge41" class="edge">
<title>Node22&#45;&gt;Node29</title>
<path fill="none" stroke="midnightblue" d="M1361.09,-237.22C1426.19,-227.84 1544.12,-210.86 1619.38,-200.02"/>
<polygon fill="midnightblue" stroke="midnightblue" points="1620.31,-203.42 1629.71,-198.53 1619.31,-196.5 1620.31,-203.42"/>
</g>
<!-- Node30 -->
<g id="node30" class="node">
<title>Node30</title>
<g id="a_node30"><a xlink:title=" ">
<polygon fill="none" stroke="#bfbfbf" points="1782.97,-179.5 1782.97,-198.5 1944.97,-198.5 1944.97,-179.5 1782.97,-179.5"/>
<text text-anchor="middle" x="1863.97" y="-186.5" font-family="Helvetica,sans-Serif" font-size="10.00">boost/qvm/deduce_scalar.hpp</text>
</a>
</g>
</g>
<!-- Node22&#45;&gt;Node30 -->
<g id="edge42" class="edge">
<title>Node22&#45;&gt;Node30</title>
<path fill="none" stroke="midnightblue" d="M1360.99,-239.43C1442.46,-231.52 1615.41,-214.67 1772.23,-199.17"/>
<polygon fill="midnightblue" stroke="midnightblue" points="1772.93,-202.62 1782.54,-198.15 1772.24,-195.65 1772.93,-202.62"/>
</g>
<!-- Node31 -->
<g id="node31" class="node">
<title>Node31</title>
<g id="a_node31"><a xlink:title=" ">
<polygon fill="none" stroke="#bfbfbf" points="1962.97,-179.5 1962.97,-198.5 2126.97,-198.5 2126.97,-179.5 1962.97,-179.5"/>
<text text-anchor="middle" x="2044.97" y="-186.5" font-family="Helvetica,sans-Serif" font-size="10.00">boost/qvm/map_mat_mat.hpp</text>
</a>
</g>
</g>
<!-- Node22&#45;&gt;Node31 -->
<g id="edge44" class="edge">
<title>Node22&#45;&gt;Node31</title>
<path fill="none" stroke="midnightblue" d="M1360.98,-241.15C1465.35,-234.73 1724.53,-218.25 1952.5,-199.1"/>
<polygon fill="midnightblue" stroke="midnightblue" points="1952.97,-202.58 1962.64,-198.25 1952.39,-195.6 1952.97,-202.58"/>
</g>
<!-- Node32 -->
<g id="node32" class="node">
<title>Node32</title>
<g id="a_node32"><a xlink:title=" ">
<polygon fill="none" stroke="#bfbfbf" points="2145.47,-179.5 2145.47,-198.5 2306.47,-198.5 2306.47,-179.5 2145.47,-179.5"/>
<text text-anchor="middle" x="2225.97" y="-186.5" font-family="Helvetica,sans-Serif" font-size="10.00">boost/qvm/map_mat_vec.hpp</text>
</a>
</g>
</g>
<!-- Node22&#45;&gt;Node32 -->
<g id="edge45" class="edge">
<title>Node22&#45;&gt;Node32</title>
<path fill="none" stroke="midnightblue" d="M1361.28,-242.16C1485.91,-237.14 1833.79,-222.1 2134.8,-199.06"/>
<polygon fill="midnightblue" stroke="midnightblue" points="2135.33,-202.52 2145.04,-198.27 2134.8,-195.55 2135.33,-202.52"/>
</g>
<!-- Node33 -->
<g id="node33" class="node">
<title>Node33</title>
<g id="a_node33"><a xlink:title=" ">
<polygon fill="none" stroke="#bfbfbf" points="2324.47,-179.5 2324.47,-198.5 2485.47,-198.5 2485.47,-179.5 2324.47,-179.5"/>
<text text-anchor="middle" x="2404.97" y="-186.5" font-family="Helvetica,sans-Serif" font-size="10.00">boost/qvm/map_vec_mat.hpp</text>
</a>
</g>
</g>
<!-- Node22&#45;&gt;Node33 -->
<g id="edge46" class="edge">
<title>Node22&#45;&gt;Node33</title>
<path fill="none" stroke="midnightblue" d="M1360.98,-242.82C1503.05,-239.07 1940.66,-226.04 2314.26,-199.09"/>
<polygon fill="midnightblue" stroke="midnightblue" points="2314.74,-202.56 2324.46,-198.35 2314.23,-195.58 2314.74,-202.56"/>
</g>
<!-- Node34 -->
<g id="node34" class="node">
<title>Node34</title>
<g id="a_node34"><a xlink:title=" ">
<polygon fill="none" stroke="#bfbfbf" points="2503.97,-179.5 2503.97,-198.5 2615.97,-198.5 2615.97,-179.5 2503.97,-179.5"/>
<text text-anchor="middle" x="2559.97" y="-186.5" font-family="Helvetica,sans-Serif" font-size="10.00">boost/qvm/mat.hpp</text>
</a>
</g>
</g>
<!-- Node22&#45;&gt;Node34 -->
<g id="edge47" class="edge">
<title>Node22&#45;&gt;Node34</title>
<path fill="none" stroke="midnightblue" d="M1361.06,-243.89C1519.38,-243.15 2047.2,-237.8 2493.45,-199.04"/>
<polygon fill="midnightblue" stroke="midnightblue" points="2493.99,-202.51 2503.64,-198.15 2493.38,-195.53 2493.99,-202.51"/>
</g>
<!-- Node35 -->
<g id="node35" class="node">
<title>Node35</title>
<g id="a_node35"><a xlink:title=" ">
<polygon fill="none" stroke="#bfbfbf" points="2633.97,-179.5 2633.97,-198.5 2783.97,-198.5 2783.97,-179.5 2633.97,-179.5"/>
<text text-anchor="middle" x="2708.97" y="-186.5" font-family="Helvetica,sans-Serif" font-size="10.00">boost/qvm/mat_access.hpp</text>
</a>
</g>
</g>
<!-- Node22&#45;&gt;Node35 -->
<g id="edge48" class="edge">
<title>Node22&#45;&gt;Node35</title>
<path fill="none" stroke="midnightblue" d="M1361.07,-243.62C1530.25,-241.97 2123.26,-233.97 2623.57,-199.04"/>
<polygon fill="midnightblue" stroke="midnightblue" points="2624.16,-202.51 2633.89,-198.32 2623.67,-195.53 2624.16,-202.51"/>
</g>
<!-- Node36 -->
<g id="node36" class="node">
<title>Node36</title>
<g id="a_node36"><a xlink:title=" ">
<polygon fill="none" stroke="#bfbfbf" points="2802.47,-179.5 2802.47,-198.5 2945.47,-198.5 2945.47,-179.5 2802.47,-179.5"/>
<text text-anchor="middle" x="2873.97" y="-186.5" font-family="Helvetica,sans-Serif" font-size="10.00">boost/qvm/mat_traits.hpp</text>
</a>
</g>
</g>
<!-- Node22&#45;&gt;Node36 -->
<g id="edge49" class="edge">
<title>Node22&#45;&gt;Node36</title>
<path fill="none" stroke="midnightblue" d="M1360.98,-243.94C1543.41,-243.42 2222.16,-238.82 2792.38,-198.97"/>
<polygon fill="midnightblue" stroke="midnightblue" points="2792.72,-202.46 2802.45,-198.26 2792.23,-195.47 2792.72,-202.46"/>
</g>
<!-- Node23&#45;&gt;Node12 -->
<g id="edge30" class="edge">
<title>Node23&#45;&gt;Node12</title>
<path fill="none" stroke="midnightblue" d="M890.01,-180.43C968.69,-167.75 1118.51,-143.55 1118.97,-143 1155.91,-99.56 1053.13,-81.97 994.93,-75.64"/>
<polygon fill="midnightblue" stroke="midnightblue" points="994.93,-72.12 984.63,-74.59 994.22,-79.09 994.93,-72.12"/>
</g>
<!-- Node23&#45;&gt;Node20 -->
<g id="edge31" class="edge">
<title>Node23&#45;&gt;Node20</title>
<path fill="none" stroke="midnightblue" d="M879.74,-179.44C920.63,-169.92 986.69,-154.55 1030.48,-144.36"/>
<polygon fill="midnightblue" stroke="midnightblue" points="1031.33,-147.75 1040.28,-142.08 1029.75,-140.93 1031.33,-147.75"/>
</g>
</g>
</svg>
        <g id="navigator" transform="translate(0 0)" fill="#404254">
                <rect fill="#f2f5e9" fill-opacity="0.5" stroke="#606060" stroke-width=".5" x="0" y="0" width="60" height="60"/>
                <use id="zoomplus" xlink:href="#zoomPlus" x="17" y="9" onmousedown="handleZoom(evt,'in')"/>
                <use id="zoomminus" xlink:href="#zoomMin" x="42" y="9" onmousedown="handleZoom(evt,'out')"/>
                <use id="reset" xlink:href="#resetDef" x="30" y="36" onmousedown="handleReset()"/>
                <g id="arrowUp" xlink:href="#dirArrow" transform="translate(30 24)" onmousedown="handlePan(0,-1)">
                  <use xlink:href="#rim" fill="#404040">
                        <set attributeName="fill" to="#808080" begin="arrowUp.mouseover" end="arrowUp.mouseout"/>
                  </use>
                  <path fill="none" stroke="white" stroke-width="1.5" d="M0,-3.0v7 M-2.5,-0.5L0,-3.0L2.5,-0.5"/>
                </g>
                <g id="arrowRight" xlink:href="#dirArrow" transform="rotate(90) translate(36 -43)" onmousedown="handlePan(1,0)">
                  <use xlink:href="#rim" fill="#404040">
                        <set attributeName="fill" to="#808080" begin="arrowRight.mouseover" end="arrowRight.mouseout"/>
                  </use>
                  <path fill="none" stroke="white" stroke-width="1.5" d="M0,-3.0v7 M-2.5,-0.5L0,-3.0L2.5,-0.5"/>
                </g>
                <g id="arrowDown" xlink:href="#dirArrow" transform="rotate(180) translate(-30 -48)" onmousedown="handlePan(0,1)">
                  <use xlink:href="#rim" fill="#404040">
                        <set attributeName="fill" to="#808080" begin="arrowDown.mouseover" end="arrowDown.mouseout"/>
                  </use>
                  <path fill="none" stroke="white" stroke-width="1.5" d="M0,-3.0v7 M-2.5,-0.5L0,-3.0L2.5,-0.5"/>
                </g>
                <g id="arrowLeft" xlink:href="#dirArrow" transform="rotate(270) translate(-36 17)" onmousedown="handlePan(-1,0)">
                  <use xlink:href="#rim" fill="#404040">
                        <set attributeName="fill" to="#808080" begin="arrowLeft.mouseover" end="arrowLeft.mouseout"/>
                  </use>
                  <path fill="none" stroke="white" stroke-width="1.5" d="M0,-3.0v7 M-2.5,-0.5L0,-3.0L2.5,-0.5"/>
                </g>
        </g>
        <svg viewBox="0 0 15 15" width="100%" height="30px" preserveAspectRatio="xMaxYMin meet">
         <g id="arrow_out" transform="scale(0.3 0.3)">
          <a xlink:href="jacobian__type_8hpp__incl_org.svg" target="_base">
           <rect id="button" ry="5" rx="5" y="6" x="6" height="38" width="38"
                fill="#f2f5e9" fill-opacity="0.5" stroke="#606060" stroke-width="1.0"/>
           <path id="arrow"
             d="M 11.500037,31.436501 C 11.940474,20.09759 22.043105,11.32322 32.158766,21.979434 L 37.068811,17.246167 C 37.068811,17.246167 37.088388,32 37.088388,32 L 22.160133,31.978069 C 22.160133,31.978069 26.997745,27.140456 26.997745,27.140456 C 18.528582,18.264221 13.291696,25.230495 11.500037,31.436501 z"
             style="fill:#404040;"/>
          </a>
         </g>
        </svg>
</svg>
