<?xml version="1.0" encoding="UTF-8" standalone="no"?>
<!DOCTYPE svg PUBLIC "-//W3C//DTD SVG 1.1//EN"
 "http://www.w3.org/Graphics/SVG/1.1/DTD/svg11.dtd">
<!-- Generated by graphviz version 2.43.0 (0)
 -->
<!-- Title: lattice.hpp Pages: 1 -->
<svg width="1410pt" height="263pt"
 viewBox="0.00 0.00 1409.50 263.00" xmlns="http://www.w3.org/2000/svg" xmlns:xlink="http://www.w3.org/1999/xlink">
<g id="graph0" class="graph" transform="scale(1 1) rotate(0) translate(4 259)">
<title>lattice.hpp</title>
<!-- Node1 -->
<g id="node1" class="node">
<title>Node1</title>
<g id="a_node1"><a xlink:title=" ">
<polygon fill="#bfbfbf" stroke="black" points="313.5,-235.5 313.5,-254.5 381.5,-254.5 381.5,-235.5 313.5,-235.5"/>
<text text-anchor="middle" x="347.5" y="-242.5" font-family="Helvetica,sans-Serif" font-size="10.00">lattice.hpp</text>
</a>
</g>
</g>
<!-- Node2 -->
<g id="node2" class="node">
<title>Node2</title>
<g id="a_node2"><a xlink:href="Vector_8hpp.html" target="_top" xlink:title=" ">
<polygon fill="none" stroke="black" points="716,-179.5 716,-198.5 809,-198.5 809,-179.5 716,-179.5"/>
<text text-anchor="middle" x="762.5" y="-186.5" font-family="Helvetica,sans-Serif" font-size="10.00">utils/Vector.hpp</text>
</a>
</g>
</g>
<!-- Node1&#45;&gt;Node2 -->
<g id="edge1" class="edge">
<title>Node1&#45;&gt;Node2</title>
<path fill="none" stroke="midnightblue" d="M381.81,-239.54C453.17,-230.25 618.18,-208.78 705.67,-197.4"/>
<polygon fill="midnightblue" stroke="midnightblue" points="706.22,-200.85 715.68,-196.09 705.32,-193.91 706.22,-200.85"/>
</g>
<!-- Node9 -->
<g id="node9" class="node">
<title>Node9</title>
<g id="a_node9"><a xlink:title=" ">
<polygon fill="none" stroke="#bfbfbf" points="0,-0.5 0,-19.5 53,-19.5 53,-0.5 0,-0.5"/>
<text text-anchor="middle" x="26.5" y="-7.5" font-family="Helvetica,sans-Serif" font-size="10.00">cstddef</text>
</a>
</g>
</g>
<!-- Node1&#45;&gt;Node9 -->
<g id="edge26" class="edge">
<title>Node1&#45;&gt;Node9</title>
<path fill="none" stroke="midnightblue" d="M313.13,-236.02C259.85,-222.61 155.46,-192.1 78.5,-143 48.56,-123.9 35.24,-119.75 21.5,-87 13.77,-68.57 16.91,-45.42 20.78,-29.54"/>
<polygon fill="midnightblue" stroke="midnightblue" points="24.16,-30.42 23.45,-19.85 17.42,-28.56 24.16,-30.42"/>
</g>
<!-- Node3 -->
<g id="node3" class="node">
<title>Node3</title>
<g id="a_node3"><a xlink:title=" ">
<polygon fill="none" stroke="#bfbfbf" points="1251.5,-123.5 1251.5,-142.5 1401.5,-142.5 1401.5,-123.5 1251.5,-123.5"/>
<text text-anchor="middle" x="1326.5" y="-130.5" font-family="Helvetica,sans-Serif" font-size="10.00">boost/qvm/deduce_vec.hpp</text>
</a>
</g>
</g>
<!-- Node2&#45;&gt;Node3 -->
<g id="edge2" class="edge">
<title>Node2&#45;&gt;Node3</title>
<path fill="none" stroke="midnightblue" d="M809.29,-183.85C893.54,-176.34 1076.62,-159.77 1241.1,-143.23"/>
<polygon fill="midnightblue" stroke="midnightblue" points="1241.81,-146.68 1251.4,-142.19 1241.1,-139.71 1241.81,-146.68"/>
</g>
<!-- Node4 -->
<g id="node4" class="node">
<title>Node4</title>
<g id="a_node4"><a xlink:title=" ">
<polygon fill="none" stroke="#bfbfbf" points="209.5,-123.5 209.5,-142.5 349.5,-142.5 349.5,-123.5 209.5,-123.5"/>
<text text-anchor="middle" x="279.5" y="-130.5" font-family="Helvetica,sans-Serif" font-size="10.00">boost/qvm/vec_traits.hpp</text>
</a>
</g>
</g>
<!-- Node2&#45;&gt;Node4 -->
<g id="edge3" class="edge">
<title>Node2&#45;&gt;Node4</title>
<path fill="none" stroke="midnightblue" d="M715.84,-182.84C642.45,-174.72 495.3,-158.4 359.86,-143.15"/>
<polygon fill="midnightblue" stroke="midnightblue" points="360.04,-139.65 349.71,-142.01 359.26,-146.61 360.04,-139.65"/>
</g>
<!-- Node5 -->
<g id="node5" class="node">
<title>Node5</title>
<g id="a_node5"><a xlink:href="Array_8hpp.html" target="_top" xlink:title=" ">
<polygon fill="none" stroke="black" points="367.5,-123.5 367.5,-142.5 453.5,-142.5 453.5,-123.5 367.5,-123.5"/>
<text text-anchor="middle" x="410.5" y="-130.5" font-family="Helvetica,sans-Serif" font-size="10.00">utils/Array.hpp</text>
</a>
</g>
</g>
<!-- Node2&#45;&gt;Node5 -->
<g id="edge4" class="edge">
<title>Node2&#45;&gt;Node5</title>
<path fill="none" stroke="midnightblue" d="M715.76,-180.83C650.47,-170.81 532.31,-152.69 463.72,-142.17"/>
<polygon fill="midnightblue" stroke="midnightblue" points="463.98,-138.66 453.57,-140.61 462.92,-145.58 463.98,-138.66"/>
</g>
<!-- Node7 -->
<g id="node7" class="node">
<title>Node7</title>
<g id="a_node7"><a xlink:title=" ">
<polygon fill="none" stroke="#bfbfbf" points="498.5,-0.5 498.5,-19.5 550.5,-19.5 550.5,-0.5 498.5,-0.5"/>
<text text-anchor="middle" x="524.5" y="-7.5" font-family="Helvetica,sans-Serif" font-size="10.00">cassert</text>
</a>
</g>
</g>
<!-- Node2&#45;&gt;Node7 -->
<g id="edge17" class="edge">
<title>Node2&#45;&gt;Node7</title>
<path fill="none" stroke="midnightblue" d="M737.04,-179.45C719.71,-172.34 697.61,-160.53 684.5,-143 660.68,-111.15 690.53,-85.18 663.5,-56 637.01,-27.41 592.26,-16.93 560.7,-13.12"/>
<polygon fill="midnightblue" stroke="midnightblue" points="560.85,-9.62 550.55,-12.07 560.13,-16.58 560.85,-9.62"/>
</g>
<!-- Node2&#45;&gt;Node9 -->
<g id="edge19" class="edge">
<title>Node2&#45;&gt;Node9</title>
<path fill="none" stroke="midnightblue" d="M715.68,-188.19C618.56,-187.74 388.55,-182.18 200.5,-143 125.51,-127.38 86.37,-145.99 37.5,-87 24.37,-71.15 23.08,-46.78 24.12,-29.93"/>
<polygon fill="midnightblue" stroke="midnightblue" points="27.63,-29.95 25.09,-19.66 20.66,-29.28 27.63,-29.95"/>
</g>
<!-- Node12 -->
<g id="node12" class="node">
<title>Node12</title>
<g id="a_node12"><a xlink:title=" ">
<polygon fill="none" stroke="#bfbfbf" points="601,-62 601,-81 654,-81 654,-62 601,-62"/>
<text text-anchor="middle" x="627.5" y="-69" font-family="Helvetica,sans-Serif" font-size="10.00">iterator</text>
</a>
</g>
</g>
<!-- Node2&#45;&gt;Node12 -->
<g id="edge22" class="edge">
<title>Node2&#45;&gt;Node12</title>
<path fill="none" stroke="midnightblue" d="M718.8,-179.48C696.02,-172.98 669.28,-161.82 651.5,-143 638.07,-128.78 632.13,-106.75 629.52,-91.1"/>
<polygon fill="midnightblue" stroke="midnightblue" points="632.97,-90.47 628.15,-81.04 626.03,-91.42 632.97,-90.47"/>
</g>
<!-- Node15 -->
<g id="node15" class="node">
<title>Node15</title>
<g id="a_node15"><a xlink:title=" ">
<polygon fill="none" stroke="#bfbfbf" points="693.5,-123.5 693.5,-142.5 757.5,-142.5 757.5,-123.5 693.5,-123.5"/>
<text text-anchor="middle" x="725.5" y="-130.5" font-family="Helvetica,sans-Serif" font-size="10.00">algorithm</text>
</a>
</g>
</g>
<!-- Node2&#45;&gt;Node15 -->
<g id="edge16" class="edge">
<title>Node2&#45;&gt;Node15</title>
<path fill="none" stroke="midnightblue" d="M756.39,-179.08C751.22,-171.53 743.65,-160.49 737.31,-151.23"/>
<polygon fill="midnightblue" stroke="midnightblue" points="740.04,-149.02 731.5,-142.75 734.26,-152.98 740.04,-149.02"/>
</g>
<!-- Node16 -->
<g id="node16" class="node">
<title>Node16</title>
<g id="a_node16"><a xlink:title=" ">
<polygon fill="none" stroke="#bfbfbf" points="776,-123.5 776,-142.5 823,-142.5 823,-123.5 776,-123.5"/>
<text text-anchor="middle" x="799.5" y="-130.5" font-family="Helvetica,sans-Serif" font-size="10.00">cmath</text>
</a>
</g>
</g>
<!-- Node2&#45;&gt;Node16 -->
<g id="edge18" class="edge">
<title>Node2&#45;&gt;Node16</title>
<path fill="none" stroke="midnightblue" d="M768.61,-179.08C773.78,-171.53 781.35,-160.49 787.69,-151.23"/>
<polygon fill="midnightblue" stroke="midnightblue" points="790.74,-152.98 793.5,-142.75 784.96,-149.02 790.74,-152.98"/>
</g>
<!-- Node17 -->
<g id="node17" class="node">
<title>Node17</title>
<g id="a_node17"><a xlink:title=" ">
<polygon fill="none" stroke="#bfbfbf" points="841,-123.5 841,-142.5 906,-142.5 906,-123.5 841,-123.5"/>
<text text-anchor="middle" x="873.5" y="-130.5" font-family="Helvetica,sans-Serif" font-size="10.00">functional</text>
</a>
</g>
</g>
<!-- Node2&#45;&gt;Node17 -->
<g id="edge20" class="edge">
<title>Node2&#45;&gt;Node17</title>
<path fill="none" stroke="midnightblue" d="M780.33,-179.32C798.22,-170.62 825.98,-157.12 846.55,-147.11"/>
<polygon fill="midnightblue" stroke="midnightblue" points="848.25,-150.18 855.71,-142.65 845.19,-143.88 848.25,-150.18"/>
</g>
<!-- Node18 -->
<g id="node18" class="node">
<title>Node18</title>
<g id="a_node18"><a xlink:title=" ">
<polygon fill="none" stroke="#bfbfbf" points="924,-123.5 924,-142.5 1007,-142.5 1007,-123.5 924,-123.5"/>
<text text-anchor="middle" x="965.5" y="-130.5" font-family="Helvetica,sans-Serif" font-size="10.00">initializer_list</text>
</a>
</g>
</g>
<!-- Node2&#45;&gt;Node18 -->
<g id="edge21" class="edge">
<title>Node2&#45;&gt;Node18</title>
<path fill="none" stroke="midnightblue" d="M794.67,-179.44C829.56,-170.16 885.39,-155.31 923.67,-145.13"/>
<polygon fill="midnightblue" stroke="midnightblue" points="924.72,-148.47 933.48,-142.52 922.92,-141.7 924.72,-148.47"/>
</g>
<!-- Node19 -->
<g id="node19" class="node">
<title>Node19</title>
<g id="a_node19"><a xlink:title=" ">
<polygon fill="none" stroke="#bfbfbf" points="1025.5,-123.5 1025.5,-142.5 1081.5,-142.5 1081.5,-123.5 1025.5,-123.5"/>
<text text-anchor="middle" x="1053.5" y="-130.5" font-family="Helvetica,sans-Serif" font-size="10.00">numeric</text>
</a>
</g>
</g>
<!-- Node2&#45;&gt;Node19 -->
<g id="edge23" class="edge">
<title>Node2&#45;&gt;Node19</title>
<path fill="none" stroke="midnightblue" d="M809.02,-180.67C857.99,-172.74 937.54,-159.3 1015.3,-143.15"/>
<polygon fill="midnightblue" stroke="midnightblue" points="1016.19,-146.54 1025.26,-141.06 1014.75,-139.69 1016.19,-146.54"/>
</g>
<!-- Node20 -->
<g id="node20" class="node">
<title>Node20</title>
<g id="a_node20"><a xlink:title=" ">
<polygon fill="none" stroke="#bfbfbf" points="1100,-123.5 1100,-142.5 1169,-142.5 1169,-123.5 1100,-123.5"/>
<text text-anchor="middle" x="1134.5" y="-130.5" font-family="Helvetica,sans-Serif" font-size="10.00">type_traits</text>
</a>
</g>
</g>
<!-- Node2&#45;&gt;Node20 -->
<g id="edge24" class="edge">
<title>Node2&#45;&gt;Node20</title>
<path fill="none" stroke="midnightblue" d="M809.09,-182.58C870.88,-175.18 983.55,-160.94 1090,-142.98"/>
<polygon fill="midnightblue" stroke="midnightblue" points="1090.68,-146.42 1099.95,-141.29 1089.51,-139.52 1090.68,-146.42"/>
</g>
<!-- Node21 -->
<g id="node21" class="node">
<title>Node21</title>
<g id="a_node21"><a xlink:title=" ">
<polygon fill="none" stroke="#bfbfbf" points="1187,-123.5 1187,-142.5 1234,-142.5 1234,-123.5 1187,-123.5"/>
<text text-anchor="middle" x="1210.5" y="-130.5" font-family="Helvetica,sans-Serif" font-size="10.00">vector</text>
</a>
</g>
</g>
<!-- Node2&#45;&gt;Node21 -->
<g id="edge25" class="edge">
<title>Node2&#45;&gt;Node21</title>
<path fill="none" stroke="midnightblue" d="M809.04,-185.5C884.54,-180.89 1038.41,-169.21 1176.9,-143.04"/>
<polygon fill="midnightblue" stroke="midnightblue" points="1177.68,-146.45 1186.84,-141.13 1176.36,-139.58 1177.68,-146.45"/>
</g>
<!-- Node6 -->
<g id="node6" class="node">
<title>Node6</title>
<g id="a_node6"><a xlink:href="device__qualifier_8hpp.html" target="_top" xlink:title=" ">
<polygon fill="none" stroke="black" points="466.5,-62 466.5,-81 582.5,-81 582.5,-62 466.5,-62"/>
<text text-anchor="middle" x="524.5" y="-69" font-family="Helvetica,sans-Serif" font-size="10.00">device_qualifier.hpp</text>
</a>
</g>
</g>
<!-- Node5&#45;&gt;Node6 -->
<g id="edge5" class="edge">
<title>Node5&#45;&gt;Node6</title>
<path fill="none" stroke="midnightblue" d="M426.83,-123.48C445.71,-113.62 477.01,-97.29 499.08,-85.77"/>
<polygon fill="midnightblue" stroke="midnightblue" points="500.95,-88.74 508.2,-81.01 497.71,-82.53 500.95,-88.74"/>
</g>
<!-- Node5&#45;&gt;Node7 -->
<g id="edge11" class="edge">
<title>Node5&#45;&gt;Node7</title>
<path fill="none" stroke="midnightblue" d="M414.4,-123.21C421.4,-108.15 437.27,-77.01 457.5,-56 469.5,-43.54 485.52,-32.62 498.88,-24.67"/>
<polygon fill="midnightblue" stroke="midnightblue" points="500.7,-27.66 507.63,-19.65 497.21,-21.59 500.7,-27.66"/>
</g>
<!-- Node8 -->
<g id="node8" class="node">
<title>Node8</title>
<g id="a_node8"><a xlink:href="get_8hpp.html" target="_top" xlink:title=" ">
<polygon fill="none" stroke="black" points="357,-62 357,-81 410,-81 410,-62 357,-62"/>
<text text-anchor="middle" x="383.5" y="-69" font-family="Helvetica,sans-Serif" font-size="10.00">get.hpp</text>
</a>
</g>
</g>
<!-- Node5&#45;&gt;Node8 -->
<g id="edge7" class="edge">
<title>Node5&#45;&gt;Node8</title>
<path fill="none" stroke="midnightblue" d="M406.63,-123.48C402.7,-114.82 396.5,-101.15 391.51,-90.15"/>
<polygon fill="midnightblue" stroke="midnightblue" points="394.68,-88.67 387.36,-81.01 388.31,-91.56 394.68,-88.67"/>
</g>
<!-- Node5&#45;&gt;Node9 -->
<g id="edge12" class="edge">
<title>Node5&#45;&gt;Node9</title>
<path fill="none" stroke="midnightblue" d="M367.4,-124.37C364.39,-123.89 361.4,-123.43 358.5,-123 293.38,-113.38 118.28,-124.95 64.5,-87 45.34,-73.48 35.32,-47.43 30.48,-29.64"/>
<polygon fill="midnightblue" stroke="midnightblue" points="33.85,-28.71 28.1,-19.81 27.05,-30.36 33.85,-28.71"/>
</g>
<!-- Node11 -->
<g id="node11" class="node">
<title>Node11</title>
<g id="a_node11"><a xlink:title=" ">
<polygon fill="none" stroke="#bfbfbf" points="74,-56.5 74,-86.5 181,-86.5 181,-56.5 74,-56.5"/>
<text text-anchor="start" x="82" y="-74.5" font-family="Helvetica,sans-Serif" font-size="10.00">boost/serialization</text>
<text text-anchor="middle" x="127.5" y="-63.5" font-family="Helvetica,sans-Serif" font-size="10.00">/access.hpp</text>
</a>
</g>
</g>
<!-- Node5&#45;&gt;Node11 -->
<g id="edge10" class="edge">
<title>Node5&#45;&gt;Node11</title>
<path fill="none" stroke="midnightblue" d="M367.23,-123.57C324.71,-115.21 257.73,-101.8 191.08,-87.31"/>
<polygon fill="midnightblue" stroke="midnightblue" points="191.76,-83.88 181.25,-85.17 190.27,-90.72 191.76,-83.88"/>
</g>
<!-- Node5&#45;&gt;Node12 -->
<g id="edge13" class="edge">
<title>Node5&#45;&gt;Node12</title>
<path fill="none" stroke="midnightblue" d="M451.94,-123.42C488.92,-115.36 544.37,-102.27 591.5,-87 593.64,-86.31 595.82,-85.55 598.02,-84.76"/>
<polygon fill="midnightblue" stroke="midnightblue" points="599.41,-87.97 607.5,-81.13 596.91,-81.43 599.41,-87.97"/>
</g>
<!-- Node13 -->
<g id="node13" class="node">
<title>Node13</title>
<g id="a_node13"><a xlink:title=" ">
<polygon fill="none" stroke="#bfbfbf" points="199,-62 199,-81 256,-81 256,-62 199,-62"/>
<text text-anchor="middle" x="227.5" y="-69" font-family="Helvetica,sans-Serif" font-size="10.00">ostream</text>
</a>
</g>
</g>
<!-- Node5&#45;&gt;Node13 -->
<g id="edge14" class="edge">
<title>Node5&#45;&gt;Node13</title>
<path fill="none" stroke="midnightblue" d="M380.37,-123.43C350.7,-114.82 304.19,-100.87 264.5,-87 262.38,-86.26 260.21,-85.47 258.02,-84.67"/>
<polygon fill="midnightblue" stroke="midnightblue" points="259.12,-81.34 248.53,-81.05 256.63,-87.88 259.12,-81.34"/>
</g>
<!-- Node14 -->
<g id="node14" class="node">
<title>Node14</title>
<g id="a_node14"><a xlink:title=" ">
<polygon fill="none" stroke="#bfbfbf" points="274,-62 274,-81 339,-81 339,-62 274,-62"/>
<text text-anchor="middle" x="306.5" y="-69" font-family="Helvetica,sans-Serif" font-size="10.00">stdexcept</text>
</a>
</g>
</g>
<!-- Node5&#45;&gt;Node14 -->
<g id="edge15" class="edge">
<title>Node5&#45;&gt;Node14</title>
<path fill="none" stroke="midnightblue" d="M395.6,-123.48C378.53,-113.71 350.34,-97.58 330.24,-86.08"/>
<polygon fill="midnightblue" stroke="midnightblue" points="331.79,-82.94 321.37,-81.01 328.31,-89.01 331.79,-82.94"/>
</g>
<!-- Node6&#45;&gt;Node7 -->
<g id="edge6" class="edge">
<title>Node6&#45;&gt;Node7</title>
<path fill="none" stroke="midnightblue" d="M524.5,-61.98C524.5,-53.58 524.5,-40.48 524.5,-29.66"/>
<polygon fill="midnightblue" stroke="midnightblue" points="528,-29.51 524.5,-19.51 521,-29.51 528,-29.51"/>
</g>
<!-- Node8&#45;&gt;Node9 -->
<g id="edge8" class="edge">
<title>Node8&#45;&gt;Node9</title>
<path fill="none" stroke="midnightblue" d="M365.28,-61.93C359.97,-59.71 354.08,-57.52 348.5,-56 247.54,-28.51 123.96,-17.24 63.45,-13.11"/>
<polygon fill="midnightblue" stroke="midnightblue" points="63.46,-9.6 53.25,-12.44 63,-16.59 63.46,-9.6"/>
</g>
<!-- Node10 -->
<g id="node10" class="node">
<title>Node10</title>
<g id="a_node10"><a xlink:title=" ">
<polygon fill="none" stroke="#bfbfbf" points="363,-0.5 363,-19.5 404,-19.5 404,-0.5 363,-0.5"/>
<text text-anchor="middle" x="383.5" y="-7.5" font-family="Helvetica,sans-Serif" font-size="10.00">tuple</text>
</a>
</g>
</g>
<!-- Node8&#45;&gt;Node10 -->
<g id="edge9" class="edge">
<title>Node8&#45;&gt;Node10</title>
<path fill="none" stroke="midnightblue" d="M383.5,-61.98C383.5,-53.58 383.5,-40.48 383.5,-29.66"/>
<polygon fill="midnightblue" stroke="midnightblue" points="387,-29.51 383.5,-19.51 380,-29.51 387,-29.51"/>
</g>
</g>
</svg>
