<?xml version="1.0" encoding="UTF-8" standalone="no"?>
<!DOCTYPE svg PUBLIC "-//W3C//DTD SVG 1.1//EN"
 "http://www.w3.org/Graphics/SVG/1.1/DTD/svg11.dtd">
<!-- Generated by graphviz version 2.43.0 (0)
 -->
<!-- Title: lattice.cpp Pages: 1 -->
<!--zoomable 330 -->
<svg id="main" version="1.1" xmlns="http://www.w3.org/2000/svg" xmlns:xlink="http://www.w3.org/1999/xlink" xml:space="preserve" onload="init(evt)">
<style type="text/css"><![CDATA[
.edge:hover path { stroke: red; }
.edge:hover polygon { stroke: red; fill: red; }
]]></style>
<script type="text/javascript"><![CDATA[
var edges = document.getElementsByTagName('g');
if (edges && edges.length) {
  for (var i=0;i<edges.length;i++) {
    if (edges[i].id.substr(0,4)=='edge') {
      edges[i].setAttribute('class','edge');
    }
  }
}
]]></script>
        <defs>
                <circle id="rim" cx="0" cy="0" r="7"/>
                <circle id="rim2" cx="0" cy="0" r="3.5"/>
                <g id="zoomPlus">
                        <use xlink:href="#rim" fill="#404040">
                                <set attributeName="fill" to="#808080" begin="zoomplus.mouseover" end="zoomplus.mouseout"/>
                        </use>
                        <path d="M-4,0h8M0,-4v8" fill="none" stroke="white" stroke-width="1.5" pointer-events="none"/>
                </g>
                <g id="zoomMin">
                        <use xlink:href="#rim" fill="#404040">
                                <set attributeName="fill" to="#808080" begin="zoomminus.mouseover" end="zoomminus.mouseout"/>
                        </use>
                        <path d="M-4,0h8" fill="none" stroke="white" stroke-width="1.5" pointer-events="none"/>
                </g>
                <g id="dirArrow">
                        <path fill="none" stroke="white" stroke-width="1.5" d="M0,-3.0v7 M-2.5,-0.5L0,-3.0L2.5,-0.5"/>
                </g>
               <g id="resetDef">
                       <use xlink:href="#rim2" fill="#404040">
                               <set attributeName="fill" to="#808080" begin="reset.mouseover" end="reset.mouseout"/>
                       </use>
               </g>
        </defs>

<script type="text/javascript">
var viewWidth = 1589;
var viewHeight = 330;
var sectionId = 'dynsection-0';
</script>
<script xlink:href="svgpan.js"/>
<svg id="graph" class="graph">
<g id="viewport">
<title>lattice.cpp</title>
<!-- Node1 -->
<g id="node1" class="node">
<title>Node1</title>
<g id="a_node1"><a xlink:title=" ">
<polygon fill="#bfbfbf" stroke="black" points="1102,-302.5 1102,-321.5 1170,-321.5 1170,-302.5 1102,-302.5"/>
<text text-anchor="middle" x="1136" y="-309.5" font-family="Helvetica,sans-Serif" font-size="10.00">lattice.cpp</text>
</a>
</g>
</g>
<!-- Node2 -->
<g id="node2" class="node">
<title>Node2</title>
<g id="a_node2"><a xlink:href="lattice_8hpp.html" target="_top" xlink:title=" ">
<polygon fill="none" stroke="black" points="745,-235.5 745,-265.5 873,-265.5 873,-235.5 745,-235.5"/>
<text text-anchor="start" x="753" y="-253.5" font-family="Helvetica,sans-Serif" font-size="10.00">grid_based_algorithms</text>
<text text-anchor="middle" x="809" y="-242.5" font-family="Helvetica,sans-Serif" font-size="10.00">/lattice.hpp</text>
</a>
</g>
</g>
<!-- Node1&#45;&gt;Node2 -->
<g id="edge1" class="edge">
<title>Node1&#45;&gt;Node2</title>
<path fill="none" stroke="midnightblue" d="M1101.93,-304.8C1050.48,-295.44 951.69,-277.46 883.15,-264.99"/>
<polygon fill="midnightblue" stroke="midnightblue" points="883.73,-261.54 873.26,-263.19 882.48,-268.43 883.73,-261.54"/>
</g>
<!-- Node3 -->
<g id="node3" class="node">
<title>Node3</title>
<g id="a_node3"><a xlink:href="Vector_8hpp.html" target="_top" xlink:title=" ">
<polygon fill="none" stroke="black" points="762.5,-179.5 762.5,-198.5 855.5,-198.5 855.5,-179.5 762.5,-179.5"/>
<text text-anchor="middle" x="809" y="-186.5" font-family="Helvetica,sans-Serif" font-size="10.00">utils/Vector.hpp</text>
</a>
</g>
</g>
<!-- Node1&#45;&gt;Node3 -->
<g id="edge29" class="edge">
<title>Node1&#45;&gt;Node3</title>
<path fill="none" stroke="midnightblue" d="M1108.48,-302.42C1080.9,-293.7 1037.27,-279.57 1000,-266 942.43,-245.04 876.19,-218.02 838.79,-202.49"/>
<polygon fill="midnightblue" stroke="midnightblue" points="840.06,-199.22 829.48,-198.61 837.37,-205.69 840.06,-199.22"/>
</g>
<!-- Node10 -->
<g id="node10" class="node">
<title>Node10</title>
<g id="a_node10"><a xlink:title=" ">
<polygon fill="none" stroke="#bfbfbf" points="603.5,-0.5 603.5,-19.5 656.5,-19.5 656.5,-0.5 603.5,-0.5"/>
<text text-anchor="middle" x="630" y="-7.5" font-family="Helvetica,sans-Serif" font-size="10.00">cstddef</text>
</a>
</g>
</g>
<!-- Node1&#45;&gt;Node10 -->
<g id="edge38" class="edge">
<title>Node1&#45;&gt;Node10</title>
<path fill="none" stroke="midnightblue" d="M1101.69,-311.04C911.99,-310.8 0,-303.73 0,-190 0,-190 0,-190 0,-132 0,-79.31 42.25,-76.01 91,-56 182.23,-18.55 486.58,-12.26 592.94,-11.21"/>
<polygon fill="midnightblue" stroke="midnightblue" points="593.21,-14.71 603.18,-11.12 593.15,-7.71 593.21,-14.71"/>
</g>
<!-- Node15 -->
<g id="node15" class="node">
<title>Node15</title>
<g id="a_node15"><a xlink:title=" ">
<polygon fill="none" stroke="#bfbfbf" points="1283.5,-62 1283.5,-81 1348.5,-81 1348.5,-62 1283.5,-62"/>
<text text-anchor="middle" x="1316" y="-69" font-family="Helvetica,sans-Serif" font-size="10.00">stdexcept</text>
</a>
</g>
</g>
<!-- Node1&#45;&gt;Node15 -->
<g id="edge41" class="edge">
<title>Node1&#45;&gt;Node15</title>
<path fill="none" stroke="midnightblue" d="M1162.43,-302.35C1182.97,-294.82 1211.5,-282.5 1233,-266 1263.79,-242.37 1267.97,-231.62 1289,-199 1303.97,-175.78 1309.85,-169.94 1316,-143 1319.92,-125.86 1319.44,-105.77 1318.26,-91.43"/>
<polygon fill="midnightblue" stroke="midnightblue" points="1321.73,-90.92 1317.24,-81.32 1314.77,-91.62 1321.73,-90.92"/>
</g>
<!-- Node17 -->
<g id="node17" class="node">
<title>Node17</title>
<g id="a_node17"><a xlink:title=" ">
<polygon fill="none" stroke="#bfbfbf" points="946.5,-123.5 946.5,-142.5 993.5,-142.5 993.5,-123.5 946.5,-123.5"/>
<text text-anchor="middle" x="970" y="-130.5" font-family="Helvetica,sans-Serif" font-size="10.00">cmath</text>
</a>
</g>
</g>
<!-- Node1&#45;&gt;Node17 -->
<g id="edge37" class="edge">
<title>Node1&#45;&gt;Node17</title>
<path fill="none" stroke="midnightblue" d="M1127.72,-302.4C1119.04,-293.37 1105.01,-278.73 1093,-266 1053.79,-224.45 1008.02,-175.1 984.94,-150.16"/>
<polygon fill="midnightblue" stroke="midnightblue" points="987.38,-147.65 978.02,-142.68 982.24,-152.4 987.38,-147.65"/>
</g>
<!-- Node18 -->
<g id="node18" class="node">
<title>Node18</title>
<g id="a_node18"><a xlink:title=" ">
<polygon fill="none" stroke="#bfbfbf" points="1011.5,-123.5 1011.5,-142.5 1076.5,-142.5 1076.5,-123.5 1011.5,-123.5"/>
<text text-anchor="middle" x="1044" y="-130.5" font-family="Helvetica,sans-Serif" font-size="10.00">functional</text>
</a>
</g>
</g>
<!-- Node1&#45;&gt;Node18 -->
<g id="edge39" class="edge">
<title>Node1&#45;&gt;Node18</title>
<path fill="none" stroke="midnightblue" d="M1131.56,-302.46C1117.39,-275.19 1072.99,-189.78 1053.43,-152.13"/>
<polygon fill="midnightblue" stroke="midnightblue" points="1056.33,-150.13 1048.61,-142.87 1050.12,-153.36 1056.33,-150.13"/>
</g>
<!-- Node23 -->
<g id="node23" class="node">
<title>Node23</title>
<g id="a_node23"><a xlink:title=" ">
<polygon fill="none" stroke="#bfbfbf" points="1319,-241 1319,-260 1457,-260 1457,-241 1319,-241"/>
<text text-anchor="middle" x="1388" y="-248" font-family="Helvetica,sans-Serif" font-size="10.00">boost/range/numeric.hpp</text>
</a>
</g>
</g>
<!-- Node1&#45;&gt;Node23 -->
<g id="edge28" class="edge">
<title>Node1&#45;&gt;Node23</title>
<path fill="none" stroke="midnightblue" d="M1170.25,-302.91C1214.69,-292.42 1292.4,-274.07 1341.96,-262.37"/>
<polygon fill="midnightblue" stroke="midnightblue" points="1342.86,-265.75 1351.79,-260.05 1341.25,-258.94 1342.86,-265.75"/>
</g>
<!-- Node24 -->
<g id="node24" class="node">
<title>Node24</title>
<g id="a_node24"><a xlink:href="index_8hpp.html" target="_top" xlink:title=" ">
<polygon fill="none" stroke="black" points="1134.5,-241 1134.5,-260 1223.5,-260 1223.5,-241 1134.5,-241"/>
<text text-anchor="middle" x="1179" y="-248" font-family="Helvetica,sans-Serif" font-size="10.00">utils/index.hpp</text>
</a>
</g>
</g>
<!-- Node1&#45;&gt;Node24 -->
<g id="edge30" class="edge">
<title>Node1&#45;&gt;Node24</title>
<path fill="none" stroke="midnightblue" d="M1142.16,-302.48C1148.61,-293.55 1158.9,-279.31 1166.97,-268.14"/>
<polygon fill="midnightblue" stroke="midnightblue" points="1169.83,-270.16 1172.85,-260.01 1164.16,-266.06 1169.83,-270.16"/>
</g>
<!-- Node25 -->
<g id="node25" class="node">
<title>Node25</title>
<g id="a_node25"><a xlink:title=" ">
<polygon fill="none" stroke="#bfbfbf" points="1475,-241 1475,-260 1519,-260 1519,-241 1475,-241"/>
<text text-anchor="middle" x="1497" y="-248" font-family="Helvetica,sans-Serif" font-size="10.00">limits</text>
</a>
</g>
</g>
<!-- Node1&#45;&gt;Node25 -->
<g id="edge40" class="edge">
<title>Node1&#45;&gt;Node25</title>
<path fill="none" stroke="midnightblue" d="M1170.44,-309.71C1231.26,-306.69 1361.17,-296.89 1466,-266 1467.88,-265.45 1469.79,-264.79 1471.69,-264.08"/>
<polygon fill="midnightblue" stroke="midnightblue" points="1473.13,-267.27 1480.95,-260.13 1470.38,-260.83 1473.13,-267.27"/>
</g>
<!-- Node26 -->
<g id="node26" class="node">
<title>Node26</title>
<g id="a_node26"><a xlink:title=" ">
<polygon fill="none" stroke="#bfbfbf" points="1537,-241 1537,-260 1581,-260 1581,-241 1537,-241"/>
<text text-anchor="middle" x="1559" y="-248" font-family="Helvetica,sans-Serif" font-size="10.00">string</text>
</a>
</g>
</g>
<!-- Node1&#45;&gt;Node26 -->
<g id="edge42" class="edge">
<title>Node1&#45;&gt;Node26</title>
<path fill="none" stroke="midnightblue" d="M1170.01,-310.76C1238.89,-309.47 1399.31,-302.44 1528,-266 1529.93,-265.45 1531.89,-264.8 1533.84,-264.08"/>
<polygon fill="midnightblue" stroke="midnightblue" points="1535.46,-267.19 1543.29,-260.05 1532.72,-260.75 1535.46,-267.19"/>
</g>
<!-- Node2&#45;&gt;Node3 -->
<g id="edge2" class="edge">
<title>Node2&#45;&gt;Node3</title>
<path fill="none" stroke="midnightblue" d="M809,-235.4C809,-227.47 809,-217.46 809,-208.86"/>
<polygon fill="midnightblue" stroke="midnightblue" points="812.5,-208.66 809,-198.66 805.5,-208.66 812.5,-208.66"/>
</g>
<!-- Node2&#45;&gt;Node10 -->
<g id="edge27" class="edge">
<title>Node2&#45;&gt;Node10</title>
<path fill="none" stroke="midnightblue" d="M744.97,-245.18C571.42,-232.81 102.01,-194.83 57,-143 -16.31,-58.58 455.34,-21.99 593.04,-13.18"/>
<polygon fill="midnightblue" stroke="midnightblue" points="593.35,-16.67 603.11,-12.55 592.91,-9.68 593.35,-16.67"/>
</g>
<!-- Node4 -->
<g id="node4" class="node">
<title>Node4</title>
<g id="a_node4"><a xlink:title=" ">
<polygon fill="none" stroke="#bfbfbf" points="218,-123.5 218,-142.5 368,-142.5 368,-123.5 218,-123.5"/>
<text text-anchor="middle" x="293" y="-130.5" font-family="Helvetica,sans-Serif" font-size="10.00">boost/qvm/deduce_vec.hpp</text>
</a>
</g>
</g>
<!-- Node3&#45;&gt;Node4 -->
<g id="edge3" class="edge">
<title>Node3&#45;&gt;Node4</title>
<path fill="none" stroke="midnightblue" d="M762.33,-183.18C684.88,-175.18 524.64,-158.58 378.18,-143.12"/>
<polygon fill="midnightblue" stroke="midnightblue" points="378.42,-139.63 368.1,-142.06 377.68,-146.59 378.42,-139.63"/>
</g>
<!-- Node5 -->
<g id="node5" class="node">
<title>Node5</title>
<g id="a_node5"><a xlink:title=" ">
<polygon fill="none" stroke="#bfbfbf" points="386,-123.5 386,-142.5 526,-142.5 526,-123.5 386,-123.5"/>
<text text-anchor="middle" x="456" y="-130.5" font-family="Helvetica,sans-Serif" font-size="10.00">boost/qvm/vec_traits.hpp</text>
</a>
</g>
</g>
<!-- Node3&#45;&gt;Node5 -->
<g id="edge4" class="edge">
<title>Node3&#45;&gt;Node5</title>
<path fill="none" stroke="midnightblue" d="M762.49,-180.88C700.84,-171.45 591.71,-154.76 521.67,-144.05"/>
<polygon fill="midnightblue" stroke="midnightblue" points="522.05,-140.56 511.63,-142.51 520.99,-147.48 522.05,-140.56"/>
</g>
<!-- Node6 -->
<g id="node6" class="node">
<title>Node6</title>
<g id="a_node6"><a xlink:href="Array_8hpp.html" target="_top" xlink:title=" ">
<polygon fill="none" stroke="black" points="766,-123.5 766,-142.5 852,-142.5 852,-123.5 766,-123.5"/>
<text text-anchor="middle" x="809" y="-130.5" font-family="Helvetica,sans-Serif" font-size="10.00">utils/Array.hpp</text>
</a>
</g>
</g>
<!-- Node3&#45;&gt;Node6 -->
<g id="edge5" class="edge">
<title>Node3&#45;&gt;Node6</title>
<path fill="none" stroke="midnightblue" d="M809,-179.08C809,-172.01 809,-161.86 809,-152.99"/>
<polygon fill="midnightblue" stroke="midnightblue" points="812.5,-152.75 809,-142.75 805.5,-152.75 812.5,-152.75"/>
</g>
<!-- Node8 -->
<g id="node8" class="node">
<title>Node8</title>
<g id="a_node8"><a xlink:title=" ">
<polygon fill="none" stroke="#bfbfbf" points="1027,-0.5 1027,-19.5 1079,-19.5 1079,-0.5 1027,-0.5"/>
<text text-anchor="middle" x="1053" y="-7.5" font-family="Helvetica,sans-Serif" font-size="10.00">cassert</text>
</a>
</g>
</g>
<!-- Node3&#45;&gt;Node8 -->
<g id="edge18" class="edge">
<title>Node3&#45;&gt;Node8</title>
<path fill="none" stroke="midnightblue" d="M827.68,-179.34C846.57,-170.5 876.53,-156.22 902,-143 918.24,-134.57 920.94,-129.63 938,-123 1002.31,-98.01 1046.24,-141.15 1089,-87 1103.62,-68.49 1085.45,-43.07 1070.05,-26.84"/>
<polygon fill="midnightblue" stroke="midnightblue" points="1072.42,-24.26 1062.87,-19.68 1067.48,-29.22 1072.42,-24.26"/>
</g>
<!-- Node3&#45;&gt;Node10 -->
<g id="edge20" class="edge">
<title>Node3&#45;&gt;Node10</title>
<path fill="none" stroke="midnightblue" d="M799.75,-179.28C784.18,-165.13 751.17,-137.29 718,-123 641.47,-90.03 586.96,-151.33 534,-87 525.24,-76.36 526.61,-67.63 534,-56 547.04,-35.48 572.18,-24.16 593.46,-18"/>
<polygon fill="midnightblue" stroke="midnightblue" points="594.43,-21.37 603.22,-15.45 592.66,-14.59 594.43,-21.37"/>
</g>
<!-- Node13 -->
<g id="node13" class="node">
<title>Node13</title>
<g id="a_node13"><a xlink:title=" ">
<polygon fill="none" stroke="#bfbfbf" points="1026.5,-62 1026.5,-81 1079.5,-81 1079.5,-62 1026.5,-62"/>
<text text-anchor="middle" x="1053" y="-69" font-family="Helvetica,sans-Serif" font-size="10.00">iterator</text>
</a>
</g>
</g>
<!-- Node3&#45;&gt;Node13 -->
<g id="edge23" class="edge">
<title>Node3&#45;&gt;Node13</title>
<path fill="none" stroke="midnightblue" d="M819.51,-179.36C836.41,-165.8 871.09,-139.4 904,-123 948.91,-100.62 963.51,-103.19 1011,-87 1013.43,-86.17 1015.93,-85.32 1018.46,-84.45"/>
<polygon fill="midnightblue" stroke="midnightblue" points="1019.82,-87.68 1028.14,-81.12 1017.54,-81.06 1019.82,-87.68"/>
</g>
<!-- Node16 -->
<g id="node16" class="node">
<title>Node16</title>
<g id="a_node16"><a xlink:title=" ">
<polygon fill="none" stroke="#bfbfbf" points="544,-123.5 544,-142.5 608,-142.5 608,-123.5 544,-123.5"/>
<text text-anchor="middle" x="576" y="-130.5" font-family="Helvetica,sans-Serif" font-size="10.00">algorithm</text>
</a>
</g>
</g>
<!-- Node3&#45;&gt;Node16 -->
<g id="edge17" class="edge">
<title>Node3&#45;&gt;Node16</title>
<path fill="none" stroke="midnightblue" d="M772.08,-179.44C730.18,-169.73 661.96,-153.92 618.04,-143.74"/>
<polygon fill="midnightblue" stroke="midnightblue" points="618.78,-140.32 608.24,-141.47 617.2,-147.14 618.78,-140.32"/>
</g>
<!-- Node3&#45;&gt;Node17 -->
<g id="edge19" class="edge">
<title>Node3&#45;&gt;Node17</title>
<path fill="none" stroke="midnightblue" d="M834.51,-179.44C862.15,-170.17 906.37,-155.34 936.72,-145.16"/>
<polygon fill="midnightblue" stroke="midnightblue" points="938.07,-148.4 946.44,-141.9 935.85,-141.76 938.07,-148.4"/>
</g>
<!-- Node3&#45;&gt;Node18 -->
<g id="edge21" class="edge">
<title>Node3&#45;&gt;Node18</title>
<path fill="none" stroke="midnightblue" d="M846.24,-179.44C888.5,-169.73 957.3,-153.92 1001.6,-143.74"/>
<polygon fill="midnightblue" stroke="midnightblue" points="1002.52,-147.12 1011.48,-141.47 1000.95,-140.3 1002.52,-147.12"/>
</g>
<!-- Node19 -->
<g id="node19" class="node">
<title>Node19</title>
<g id="a_node19"><a xlink:title=" ">
<polygon fill="none" stroke="#bfbfbf" points="626.5,-123.5 626.5,-142.5 709.5,-142.5 709.5,-123.5 626.5,-123.5"/>
<text text-anchor="middle" x="668" y="-130.5" font-family="Helvetica,sans-Serif" font-size="10.00">initializer_list</text>
</a>
</g>
</g>
<!-- Node3&#45;&gt;Node19 -->
<g id="edge22" class="edge">
<title>Node3&#45;&gt;Node19</title>
<path fill="none" stroke="midnightblue" d="M786.66,-179.44C763.25,-170.48 726.26,-156.31 699.81,-146.18"/>
<polygon fill="midnightblue" stroke="midnightblue" points="700.83,-142.82 690.24,-142.52 698.32,-149.36 700.83,-142.82"/>
</g>
<!-- Node20 -->
<g id="node20" class="node">
<title>Node20</title>
<g id="a_node20"><a xlink:title=" ">
<polygon fill="none" stroke="#bfbfbf" points="1095,-123.5 1095,-142.5 1151,-142.5 1151,-123.5 1095,-123.5"/>
<text text-anchor="middle" x="1123" y="-130.5" font-family="Helvetica,sans-Serif" font-size="10.00">numeric</text>
</a>
</g>
</g>
<!-- Node3&#45;&gt;Node20 -->
<g id="edge24" class="edge">
<title>Node3&#45;&gt;Node20</title>
<path fill="none" stroke="midnightblue" d="M855.76,-181.53C908.94,-173.93 998.58,-160.35 1084.82,-143.11"/>
<polygon fill="midnightblue" stroke="midnightblue" points="1085.66,-146.52 1094.77,-141.11 1084.27,-139.65 1085.66,-146.52"/>
</g>
<!-- Node21 -->
<g id="node21" class="node">
<title>Node21</title>
<g id="a_node21"><a xlink:title=" ">
<polygon fill="none" stroke="#bfbfbf" points="66.5,-123.5 66.5,-142.5 135.5,-142.5 135.5,-123.5 66.5,-123.5"/>
<text text-anchor="middle" x="101" y="-130.5" font-family="Helvetica,sans-Serif" font-size="10.00">type_traits</text>
</a>
</g>
</g>
<!-- Node3&#45;&gt;Node21 -->
<g id="edge25" class="edge">
<title>Node3&#45;&gt;Node21</title>
<path fill="none" stroke="midnightblue" d="M762.42,-187.07C655.19,-184.45 382.56,-175.06 145.84,-143.08"/>
<polygon fill="midnightblue" stroke="midnightblue" points="146.04,-139.57 135.66,-141.69 145.1,-146.51 146.04,-139.57"/>
</g>
<!-- Node22 -->
<g id="node22" class="node">
<title>Node22</title>
<g id="a_node22"><a xlink:title=" ">
<polygon fill="none" stroke="#bfbfbf" points="153.5,-123.5 153.5,-142.5 200.5,-142.5 200.5,-123.5 153.5,-123.5"/>
<text text-anchor="middle" x="177" y="-130.5" font-family="Helvetica,sans-Serif" font-size="10.00">vector</text>
</a>
</g>
</g>
<!-- Node3&#45;&gt;Node22 -->
<g id="edge26" class="edge">
<title>Node3&#45;&gt;Node22</title>
<path fill="none" stroke="midnightblue" d="M762.31,-187.65C662.43,-186.23 420.66,-179.18 210.62,-142.96"/>
<polygon fill="midnightblue" stroke="midnightblue" points="211.1,-139.49 200.64,-141.22 209.89,-146.39 211.1,-139.49"/>
</g>
<!-- Node7 -->
<g id="node7" class="node">
<title>Node7</title>
<g id="a_node7"><a xlink:href="device__qualifier_8hpp.html" target="_top" xlink:title=" ">
<polygon fill="none" stroke="black" points="854,-62 854,-81 970,-81 970,-62 854,-62"/>
<text text-anchor="middle" x="912" y="-69" font-family="Helvetica,sans-Serif" font-size="10.00">device_qualifier.hpp</text>
</a>
</g>
</g>
<!-- Node6&#45;&gt;Node7 -->
<g id="edge6" class="edge">
<title>Node6&#45;&gt;Node7</title>
<path fill="none" stroke="midnightblue" d="M823.76,-123.48C840.66,-113.71 868.58,-97.58 888.49,-86.08"/>
<polygon fill="midnightblue" stroke="midnightblue" points="890.36,-89.04 897.27,-81.01 886.86,-82.98 890.36,-89.04"/>
</g>
<!-- Node6&#45;&gt;Node8 -->
<g id="edge12" class="edge">
<title>Node6&#45;&gt;Node8</title>
<path fill="none" stroke="midnightblue" d="M851.5,-123.47C894.47,-114.36 957.52,-99.55 979,-87 1005,-71.81 1027.97,-45.02 1041.18,-27.65"/>
<polygon fill="midnightblue" stroke="midnightblue" points="1044.05,-29.66 1047.16,-19.53 1038.41,-25.5 1044.05,-29.66"/>
</g>
<!-- Node9 -->
<g id="node9" class="node">
<title>Node9</title>
<g id="a_node9"><a xlink:href="get_8hpp.html" target="_top" xlink:title=" ">
<polygon fill="none" stroke="black" points="782.5,-62 782.5,-81 835.5,-81 835.5,-62 782.5,-62"/>
<text text-anchor="middle" x="809" y="-69" font-family="Helvetica,sans-Serif" font-size="10.00">get.hpp</text>
</a>
</g>
</g>
<!-- Node6&#45;&gt;Node9 -->
<g id="edge8" class="edge">
<title>Node6&#45;&gt;Node9</title>
<path fill="none" stroke="midnightblue" d="M809,-123.48C809,-115.08 809,-101.98 809,-91.16"/>
<polygon fill="midnightblue" stroke="midnightblue" points="812.5,-91.01 809,-81.01 805.5,-91.01 812.5,-91.01"/>
</g>
<!-- Node6&#45;&gt;Node10 -->
<g id="edge13" class="edge">
<title>Node6&#45;&gt;Node10</title>
<path fill="none" stroke="midnightblue" d="M802.41,-123.42C790.3,-108.12 763.07,-75.89 734,-56 713.12,-41.71 686.96,-30.42 666.11,-22.72"/>
<polygon fill="midnightblue" stroke="midnightblue" points="667.23,-19.41 656.64,-19.34 664.88,-26 667.23,-19.41"/>
</g>
<!-- Node12 -->
<g id="node12" class="node">
<title>Node12</title>
<g id="a_node12"><a xlink:title=" ">
<polygon fill="none" stroke="#bfbfbf" points="543.5,-56.5 543.5,-86.5 650.5,-86.5 650.5,-56.5 543.5,-56.5"/>
<text text-anchor="start" x="551.5" y="-74.5" font-family="Helvetica,sans-Serif" font-size="10.00">boost/serialization</text>
<text text-anchor="middle" x="597" y="-63.5" font-family="Helvetica,sans-Serif" font-size="10.00">/access.hpp</text>
</a>
</g>
</g>
<!-- Node6&#45;&gt;Node12 -->
<g id="edge11" class="edge">
<title>Node6&#45;&gt;Node12</title>
<path fill="none" stroke="midnightblue" d="M778.63,-123.48C746.96,-114.59 696.51,-100.43 656.81,-89.29"/>
<polygon fill="midnightblue" stroke="midnightblue" points="657.54,-85.86 646.96,-86.52 655.65,-92.6 657.54,-85.86"/>
</g>
<!-- Node6&#45;&gt;Node13 -->
<g id="edge14" class="edge">
<title>Node6&#45;&gt;Node13</title>
<path fill="none" stroke="midnightblue" d="M852.15,-124.02C893.51,-116 957.52,-102.61 1012,-87 1014.79,-86.2 1017.67,-85.31 1020.54,-84.39"/>
<polygon fill="midnightblue" stroke="midnightblue" points="1021.82,-87.65 1030.17,-81.13 1019.58,-81.02 1021.82,-87.65"/>
</g>
<!-- Node14 -->
<g id="node14" class="node">
<title>Node14</title>
<g id="a_node14"><a xlink:title=" ">
<polygon fill="none" stroke="#bfbfbf" points="668.5,-62 668.5,-81 725.5,-81 725.5,-62 668.5,-62"/>
<text text-anchor="middle" x="697" y="-69" font-family="Helvetica,sans-Serif" font-size="10.00">ostream</text>
</a>
</g>
</g>
<!-- Node6&#45;&gt;Node14 -->
<g id="edge15" class="edge">
<title>Node6&#45;&gt;Node14</title>
<path fill="none" stroke="midnightblue" d="M792.95,-123.48C774.41,-113.62 743.66,-97.29 721.98,-85.77"/>
<polygon fill="midnightblue" stroke="midnightblue" points="723.49,-82.61 713.02,-81.01 720.21,-88.79 723.49,-82.61"/>
</g>
<!-- Node6&#45;&gt;Node15 -->
<g id="edge16" class="edge">
<title>Node6&#45;&gt;Node15</title>
<path fill="none" stroke="midnightblue" d="M852.23,-126.93C948.13,-115.67 1177.76,-88.72 1273.23,-77.52"/>
<polygon fill="midnightblue" stroke="midnightblue" points="1273.87,-80.97 1283.39,-76.33 1273.05,-74.02 1273.87,-80.97"/>
</g>
<!-- Node7&#45;&gt;Node8 -->
<g id="edge7" class="edge">
<title>Node7&#45;&gt;Node8</title>
<path fill="none" stroke="midnightblue" d="M932.2,-61.98C956.07,-51.9 996,-35.05 1023.37,-23.5"/>
<polygon fill="midnightblue" stroke="midnightblue" points="1024.98,-26.62 1032.84,-19.51 1022.26,-20.17 1024.98,-26.62"/>
</g>
<!-- Node9&#45;&gt;Node10 -->
<g id="edge9" class="edge">
<title>Node9&#45;&gt;Node10</title>
<path fill="none" stroke="midnightblue" d="M785.19,-61.97C779.56,-59.98 773.58,-57.89 768,-56 733.57,-44.3 694.12,-31.5 666.24,-22.55"/>
<polygon fill="midnightblue" stroke="midnightblue" points="667.11,-19.15 656.52,-19.43 664.98,-25.82 667.11,-19.15"/>
</g>
<!-- Node11 -->
<g id="node11" class="node">
<title>Node11</title>
<g id="a_node11"><a xlink:title=" ">
<polygon fill="none" stroke="#bfbfbf" points="788.5,-0.5 788.5,-19.5 829.5,-19.5 829.5,-0.5 788.5,-0.5"/>
<text text-anchor="middle" x="809" y="-7.5" font-family="Helvetica,sans-Serif" font-size="10.00">tuple</text>
</a>
</g>
</g>
<!-- Node9&#45;&gt;Node11 -->
<g id="edge10" class="edge">
<title>Node9&#45;&gt;Node11</title>
<path fill="none" stroke="midnightblue" d="M809,-61.98C809,-53.58 809,-40.48 809,-29.66"/>
<polygon fill="midnightblue" stroke="midnightblue" points="812.5,-29.51 809,-19.51 805.5,-29.51 812.5,-29.51"/>
</g>
<!-- Node24&#45;&gt;Node3 -->
<g id="edge36" class="edge">
<title>Node24&#45;&gt;Node3</title>
<path fill="none" stroke="midnightblue" d="M1134.37,-242.32C1067,-231.49 939.38,-210.97 865.58,-199.1"/>
<polygon fill="midnightblue" stroke="midnightblue" points="865.96,-195.62 855.53,-197.48 864.85,-202.53 865.96,-195.62"/>
</g>
<!-- Node24&#45;&gt;Node8 -->
<g id="edge31" class="edge">
<title>Node24&#45;&gt;Node8</title>
<path fill="none" stroke="midnightblue" d="M1193.11,-240.68C1205.72,-231.88 1223.35,-217.08 1231,-199 1255.75,-140.46 1270.05,-106.15 1231,-56 1213.75,-33.85 1135.94,-20.87 1089.1,-14.94"/>
<polygon fill="midnightblue" stroke="midnightblue" points="1089.39,-11.45 1079.04,-13.71 1088.54,-18.39 1089.39,-11.45"/>
</g>
<!-- Node24&#45;&gt;Node10 -->
<g id="edge32" class="edge">
<title>Node24&#45;&gt;Node10</title>
<path fill="none" stroke="midnightblue" d="M1182.68,-240.76C1186.63,-230.84 1192.67,-214.09 1195,-199 1200.27,-164.89 1198.62,-151.4 1179,-123 1150.65,-81.97 1135.51,-73.98 1089,-56 1049.96,-40.91 768.47,-20.45 666.64,-13.46"/>
<polygon fill="midnightblue" stroke="midnightblue" points="666.74,-9.96 656.52,-12.77 666.26,-16.94 666.74,-9.96"/>
</g>
<!-- Node24&#45;&gt;Node13 -->
<g id="edge33" class="edge">
<title>Node24&#45;&gt;Node13</title>
<path fill="none" stroke="midnightblue" d="M1180.27,-240.79C1183.01,-218.67 1187.17,-159.53 1160,-123 1143.05,-100.21 1113.2,-87.31 1089.33,-80.26"/>
<polygon fill="midnightblue" stroke="midnightblue" points="1090.09,-76.84 1079.52,-77.59 1088.25,-83.59 1090.09,-76.84"/>
</g>
<!-- Node24&#45;&gt;Node15 -->
<g id="edge35" class="edge">
<title>Node24&#45;&gt;Node15</title>
<path fill="none" stroke="midnightblue" d="M1204.34,-240.88C1224.38,-232.88 1251.76,-219.15 1269,-199 1296.32,-167.06 1308.43,-117.78 1313.23,-91.13"/>
<polygon fill="midnightblue" stroke="midnightblue" points="1316.69,-91.65 1314.86,-81.22 1309.78,-90.51 1316.69,-91.65"/>
</g>
<!-- Node24&#45;&gt;Node20 -->
<g id="edge34" class="edge">
<title>Node24&#45;&gt;Node20</title>
<path fill="none" stroke="midnightblue" d="M1174.79,-240.82C1165.67,-222.01 1143.92,-177.15 1131.71,-151.96"/>
<polygon fill="midnightblue" stroke="midnightblue" points="1134.77,-150.25 1127.26,-142.78 1128.47,-153.31 1134.77,-150.25"/>
</g>
</g>
</svg>
        <g id="navigator" transform="translate(0 0)" fill="#404254">
                <rect fill="#f2f5e9" fill-opacity="0.5" stroke="#606060" stroke-width=".5" x="0" y="0" width="60" height="60"/>
                <use id="zoomplus" xlink:href="#zoomPlus" x="17" y="9" onmousedown="handleZoom(evt,'in')"/>
                <use id="zoomminus" xlink:href="#zoomMin" x="42" y="9" onmousedown="handleZoom(evt,'out')"/>
                <use id="reset" xlink:href="#resetDef" x="30" y="36" onmousedown="handleReset()"/>
                <g id="arrowUp" xlink:href="#dirArrow" transform="translate(30 24)" onmousedown="handlePan(0,-1)">
                  <use xlink:href="#rim" fill="#404040">
                        <set attributeName="fill" to="#808080" begin="arrowUp.mouseover" end="arrowUp.mouseout"/>
                  </use>
                  <path fill="none" stroke="white" stroke-width="1.5" d="M0,-3.0v7 M-2.5,-0.5L0,-3.0L2.5,-0.5"/>
                </g>
                <g id="arrowRight" xlink:href="#dirArrow" transform="rotate(90) translate(36 -43)" onmousedown="handlePan(1,0)">
                  <use xlink:href="#rim" fill="#404040">
                        <set attributeName="fill" to="#808080" begin="arrowRight.mouseover" end="arrowRight.mouseout"/>
                  </use>
                  <path fill="none" stroke="white" stroke-width="1.5" d="M0,-3.0v7 M-2.5,-0.5L0,-3.0L2.5,-0.5"/>
                </g>
                <g id="arrowDown" xlink:href="#dirArrow" transform="rotate(180) translate(-30 -48)" onmousedown="handlePan(0,1)">
                  <use xlink:href="#rim" fill="#404040">
                        <set attributeName="fill" to="#808080" begin="arrowDown.mouseover" end="arrowDown.mouseout"/>
                  </use>
                  <path fill="none" stroke="white" stroke-width="1.5" d="M0,-3.0v7 M-2.5,-0.5L0,-3.0L2.5,-0.5"/>
                </g>
                <g id="arrowLeft" xlink:href="#dirArrow" transform="rotate(270) translate(-36 17)" onmousedown="handlePan(-1,0)">
                  <use xlink:href="#rim" fill="#404040">
                        <set attributeName="fill" to="#808080" begin="arrowLeft.mouseover" end="arrowLeft.mouseout"/>
                  </use>
                  <path fill="none" stroke="white" stroke-width="1.5" d="M0,-3.0v7 M-2.5,-0.5L0,-3.0L2.5,-0.5"/>
                </g>
        </g>
        <svg viewBox="0 0 15 15" width="100%" height="30px" preserveAspectRatio="xMaxYMin meet">
         <g id="arrow_out" transform="scale(0.3 0.3)">
          <a xlink:href="lattice_8cpp__incl_org.svg" target="_base">
           <rect id="button" ry="5" rx="5" y="6" x="6" height="38" width="38"
                fill="#f2f5e9" fill-opacity="0.5" stroke="#606060" stroke-width="1.0"/>
           <path id="arrow"
             d="M 11.500037,31.436501 C 11.940474,20.09759 22.043105,11.32322 32.158766,21.979434 L 37.068811,17.246167 C 37.068811,17.246167 37.088388,32 37.088388,32 L 22.160133,31.978069 C 22.160133,31.978069 26.997745,27.140456 26.997745,27.140456 C 18.528582,18.264221 13.291696,25.230495 11.500037,31.436501 z"
             style="fill:#404040;"/>
          </a>
         </g>
        </svg>
</svg>
