<?xml version="1.0" encoding="UTF-8" standalone="no"?>
<!DOCTYPE svg PUBLIC "-//W3C//DTD SVG 1.1//EN"
 "http://www.w3.org/Graphics/SVG/1.1/DTD/svg11.dtd">
<!-- Generated by graphviz version 2.43.0 (0)
 -->
<!-- Title: lb_boundaries.hpp Pages: 1 -->
<svg width="1278pt" height="319pt"
 viewBox="0.00 0.00 1277.50 319.00" xmlns="http://www.w3.org/2000/svg" xmlns:xlink="http://www.w3.org/1999/xlink">
<g id="graph0" class="graph" transform="scale(1 1) rotate(0) translate(4 315)">
<title>lb_boundaries.hpp</title>
<!-- Node1 -->
<g id="node1" class="node">
<title>Node1</title>
<g id="a_node1"><a xlink:title=" ">
<polygon fill="#bfbfbf" stroke="black" points="782,-291.5 782,-310.5 888,-310.5 888,-291.5 782,-291.5"/>
<text text-anchor="middle" x="835" y="-298.5" font-family="Helvetica,sans-Serif" font-size="10.00">lb_boundaries.hpp</text>
</a>
</g>
</g>
<!-- Node2 -->
<g id="node2" class="node">
<title>Node2</title>
<g id="a_node2"><a xlink:href="core_2grid__based__algorithms_2lbboundaries_2LBBoundary_8hpp.html" target="_top" xlink:title=" ">
<polygon fill="none" stroke="black" points="562.5,-235.5 562.5,-254.5 723.5,-254.5 723.5,-235.5 562.5,-235.5"/>
<text text-anchor="middle" x="643" y="-242.5" font-family="Helvetica,sans-Serif" font-size="10.00">lbboundaries/LBBoundary.hpp</text>
</a>
</g>
</g>
<!-- Node1&#45;&gt;Node2 -->
<g id="edge1" class="edge">
<title>Node1&#45;&gt;Node2</title>
<path fill="none" stroke="midnightblue" d="M804.58,-291.44C771.72,-282.2 719.22,-267.44 683.03,-257.26"/>
<polygon fill="midnightblue" stroke="midnightblue" points="683.85,-253.85 673.28,-254.52 681.96,-260.59 683.85,-253.85"/>
</g>
<!-- Node3 -->
<g id="node3" class="node">
<title>Node3</title>
<g id="a_node3"><a xlink:href="config_8hpp.html" target="_top" xlink:title=" ">
<polygon fill="none" stroke="black" points="309,-179.5 309,-198.5 377,-198.5 377,-179.5 309,-179.5"/>
<text text-anchor="middle" x="343" y="-186.5" font-family="Helvetica,sans-Serif" font-size="10.00">config.hpp</text>
</a>
</g>
</g>
<!-- Node1&#45;&gt;Node3 -->
<g id="edge32" class="edge">
<title>Node1&#45;&gt;Node3</title>
<path fill="none" stroke="midnightblue" d="M781.81,-293.8C724.79,-286.62 631.82,-273.39 553,-255 489.48,-240.18 417.17,-216.18 376.13,-201.86"/>
<polygon fill="midnightblue" stroke="midnightblue" points="377.23,-198.54 366.63,-198.52 374.91,-205.14 377.23,-198.54"/>
</g>
<!-- Node26 -->
<g id="node26" class="node">
<title>Node26</title>
<g id="a_node26"><a xlink:title=" ">
<polygon fill="none" stroke="#bfbfbf" points="1222.5,-123.5 1222.5,-142.5 1269.5,-142.5 1269.5,-123.5 1222.5,-123.5"/>
<text text-anchor="middle" x="1246" y="-130.5" font-family="Helvetica,sans-Serif" font-size="10.00">vector</text>
</a>
</g>
</g>
<!-- Node1&#45;&gt;Node26 -->
<g id="edge42" class="edge">
<title>Node1&#45;&gt;Node26</title>
<path fill="none" stroke="midnightblue" d="M843.13,-291.11C856.31,-277.22 883.71,-250.36 912,-235 1013.91,-179.67 1150.17,-150.61 1212.42,-139.48"/>
<polygon fill="midnightblue" stroke="midnightblue" points="1213.21,-142.89 1222.46,-137.72 1212.01,-135.99 1213.21,-142.89"/>
</g>
<!-- Node27 -->
<g id="node27" class="node">
<title>Node27</title>
<g id="a_node27"><a xlink:title=" ">
<polygon fill="none" stroke="#bfbfbf" points="769,-179.5 769,-198.5 827,-198.5 827,-179.5 769,-179.5"/>
<text text-anchor="middle" x="798" y="-186.5" font-family="Helvetica,sans-Serif" font-size="10.00">memory</text>
</a>
</g>
</g>
<!-- Node1&#45;&gt;Node27 -->
<g id="edge41" class="edge">
<title>Node1&#45;&gt;Node27</title>
<path fill="none" stroke="midnightblue" d="M832.1,-291.37C826.1,-273.54 812.23,-232.3 804.15,-208.27"/>
<polygon fill="midnightblue" stroke="midnightblue" points="807.4,-206.95 800.89,-198.59 800.76,-209.19 807.4,-206.95"/>
</g>
<!-- Node28 -->
<g id="node28" class="node">
<title>Node28</title>
<g id="a_node28"><a xlink:href="Span_8hpp.html" target="_top" xlink:title=" ">
<polygon fill="none" stroke="black" points="1042,-123.5 1042,-142.5 1128,-142.5 1128,-123.5 1042,-123.5"/>
<text text-anchor="middle" x="1085" y="-130.5" font-family="Helvetica,sans-Serif" font-size="10.00">utils/Span.hpp</text>
</a>
</g>
</g>
<!-- Node1&#45;&gt;Node28 -->
<g id="edge33" class="edge">
<title>Node1&#45;&gt;Node28</title>
<path fill="none" stroke="midnightblue" d="M835.41,-291.42C836.97,-269.19 844.34,-209.31 879,-179 884.83,-173.9 972.95,-155.88 1032.03,-144.25"/>
<polygon fill="midnightblue" stroke="midnightblue" points="1032.84,-147.66 1041.97,-142.3 1031.49,-140.79 1032.84,-147.66"/>
</g>
<!-- Node29 -->
<g id="node29" class="node">
<title>Node29</title>
<g id="a_node29"><a xlink:title=" ">
<polygon fill="none" stroke="#bfbfbf" points="921,-235.5 921,-254.5 963,-254.5 963,-235.5 921,-235.5"/>
<text text-anchor="middle" x="942" y="-242.5" font-family="Helvetica,sans-Serif" font-size="10.00">array</text>
</a>
</g>
</g>
<!-- Node1&#45;&gt;Node29 -->
<g id="edge40" class="edge">
<title>Node1&#45;&gt;Node29</title>
<path fill="none" stroke="midnightblue" d="M852.19,-291.32C869.35,-282.66 895.95,-269.24 915.75,-259.25"/>
<polygon fill="midnightblue" stroke="midnightblue" points="917.5,-262.28 924.85,-254.65 914.35,-256.04 917.5,-262.28"/>
</g>
<!-- Node2&#45;&gt;Node3 -->
<g id="edge2" class="edge">
<title>Node2&#45;&gt;Node3</title>
<path fill="none" stroke="midnightblue" d="M591.22,-235.45C541.49,-227.12 463.97,-213.84 387.53,-199.25"/>
<polygon fill="midnightblue" stroke="midnightblue" points="387.73,-195.72 377.25,-197.27 386.41,-202.6 387.73,-195.72"/>
</g>
<!-- Node5 -->
<g id="node5" class="node">
<title>Node5</title>
<g id="a_node5"><a xlink:title=" ">
<polygon fill="none" stroke="#bfbfbf" points="519,-179.5 519,-198.5 639,-198.5 639,-179.5 519,-179.5"/>
<text text-anchor="middle" x="579" y="-186.5" font-family="Helvetica,sans-Serif" font-size="10.00">shapes/NoWhere.hpp</text>
</a>
</g>
</g>
<!-- Node2&#45;&gt;Node5 -->
<g id="edge4" class="edge">
<title>Node2&#45;&gt;Node5</title>
<path fill="none" stroke="midnightblue" d="M632.72,-235.32C623.16,-227.26 608.72,-215.08 597.22,-205.37"/>
<polygon fill="midnightblue" stroke="midnightblue" points="599.37,-202.61 589.47,-198.83 594.86,-207.96 599.37,-202.61"/>
</g>
<!-- Node6 -->
<g id="node6" class="node">
<title>Node6</title>
<g id="a_node6"><a xlink:title=" ">
<polygon fill="none" stroke="#bfbfbf" points="395.5,-179.5 395.5,-198.5 500.5,-198.5 500.5,-179.5 395.5,-179.5"/>
<text text-anchor="middle" x="448" y="-186.5" font-family="Helvetica,sans-Serif" font-size="10.00">shapes/Shape.hpp</text>
</a>
</g>
</g>
<!-- Node2&#45;&gt;Node6 -->
<g id="edge5" class="edge">
<title>Node2&#45;&gt;Node6</title>
<path fill="none" stroke="midnightblue" d="M612.1,-235.44C578.73,-226.2 525.41,-211.44 488.65,-201.26"/>
<polygon fill="midnightblue" stroke="midnightblue" points="489.33,-197.81 478.75,-198.52 487.46,-204.56 489.33,-197.81"/>
</g>
<!-- Node7 -->
<g id="node7" class="node">
<title>Node7</title>
<g id="a_node7"><a xlink:href="Vector_8hpp.html" target="_top" xlink:title=" ">
<polygon fill="none" stroke="black" points="657.5,-179.5 657.5,-198.5 750.5,-198.5 750.5,-179.5 657.5,-179.5"/>
<text text-anchor="middle" x="704" y="-186.5" font-family="Helvetica,sans-Serif" font-size="10.00">utils/Vector.hpp</text>
</a>
</g>
</g>
<!-- Node2&#45;&gt;Node7 -->
<g id="edge6" class="edge">
<title>Node2&#45;&gt;Node7</title>
<path fill="none" stroke="midnightblue" d="M652.8,-235.32C661.82,-227.34 675.41,-215.31 686.32,-205.65"/>
<polygon fill="midnightblue" stroke="midnightblue" points="688.85,-208.08 694.02,-198.83 684.21,-202.84 688.85,-208.08"/>
</g>
<!-- Node2&#45;&gt;Node27 -->
<g id="edge31" class="edge">
<title>Node2&#45;&gt;Node27</title>
<path fill="none" stroke="midnightblue" d="M667.56,-235.44C693.52,-226.4 734.67,-212.06 763.8,-201.92"/>
<polygon fill="midnightblue" stroke="midnightblue" points="765.26,-205.11 773.55,-198.52 762.96,-198.5 765.26,-205.11"/>
</g>
<!-- Node4 -->
<g id="node4" class="node">
<title>Node4</title>
<g id="a_node4"><a xlink:title=" ">
<polygon fill="none" stroke="#bfbfbf" points="0,-123.5 0,-142.5 112,-142.5 112,-123.5 0,-123.5"/>
<text text-anchor="middle" x="56" y="-130.5" font-family="Helvetica,sans-Serif" font-size="10.00">config&#45;features.hpp</text>
</a>
</g>
</g>
<!-- Node3&#45;&gt;Node4 -->
<g id="edge3" class="edge">
<title>Node3&#45;&gt;Node4</title>
<path fill="none" stroke="midnightblue" d="M308.95,-181.59C260.2,-172.42 169.98,-155.44 111.5,-144.44"/>
<polygon fill="midnightblue" stroke="midnightblue" points="111.8,-140.94 101.33,-142.53 110.51,-147.82 111.8,-140.94"/>
</g>
<!-- Node8 -->
<g id="node8" class="node">
<title>Node8</title>
<g id="a_node8"><a xlink:title=" ">
<polygon fill="none" stroke="#bfbfbf" points="168,-123.5 168,-142.5 318,-142.5 318,-123.5 168,-123.5"/>
<text text-anchor="middle" x="243" y="-130.5" font-family="Helvetica,sans-Serif" font-size="10.00">boost/qvm/deduce_vec.hpp</text>
</a>
</g>
</g>
<!-- Node7&#45;&gt;Node8 -->
<g id="edge7" class="edge">
<title>Node7&#45;&gt;Node8</title>
<path fill="none" stroke="midnightblue" d="M657.27,-180.32C654.14,-179.85 651.02,-179.41 648,-179 617.2,-174.82 437.78,-155.16 328.34,-143.26"/>
<polygon fill="midnightblue" stroke="midnightblue" points="328.62,-139.77 318.3,-142.17 327.86,-146.73 328.62,-139.77"/>
</g>
<!-- Node9 -->
<g id="node9" class="node">
<title>Node9</title>
<g id="a_node9"><a xlink:title=" ">
<polygon fill="none" stroke="#bfbfbf" points="884,-123.5 884,-142.5 1024,-142.5 1024,-123.5 884,-123.5"/>
<text text-anchor="middle" x="954" y="-130.5" font-family="Helvetica,sans-Serif" font-size="10.00">boost/qvm/vec_traits.hpp</text>
</a>
</g>
</g>
<!-- Node7&#45;&gt;Node9 -->
<g id="edge8" class="edge">
<title>Node7&#45;&gt;Node9</title>
<path fill="none" stroke="midnightblue" d="M743.61,-179.44C787.23,-170.02 857.4,-154.87 904.58,-144.68"/>
<polygon fill="midnightblue" stroke="midnightblue" points="905.54,-148.05 914.57,-142.52 904.06,-141.21 905.54,-148.05"/>
</g>
<!-- Node10 -->
<g id="node10" class="node">
<title>Node10</title>
<g id="a_node10"><a xlink:href="Array_8hpp.html" target="_top" xlink:title=" ">
<polygon fill="none" stroke="black" points="336,-123.5 336,-142.5 422,-142.5 422,-123.5 336,-123.5"/>
<text text-anchor="middle" x="379" y="-130.5" font-family="Helvetica,sans-Serif" font-size="10.00">utils/Array.hpp</text>
</a>
</g>
</g>
<!-- Node7&#45;&gt;Node10 -->
<g id="edge9" class="edge">
<title>Node7&#45;&gt;Node10</title>
<path fill="none" stroke="midnightblue" d="M657.44,-180.26C597.83,-170.36 494.8,-153.24 432.18,-142.84"/>
<polygon fill="midnightblue" stroke="midnightblue" points="432.54,-139.35 422.11,-141.16 431.4,-146.25 432.54,-139.35"/>
</g>
<!-- Node12 -->
<g id="node12" class="node">
<title>Node12</title>
<g id="a_node12"><a xlink:title=" ">
<polygon fill="none" stroke="#bfbfbf" points="836,-0.5 836,-19.5 888,-19.5 888,-0.5 836,-0.5"/>
<text text-anchor="middle" x="862" y="-7.5" font-family="Helvetica,sans-Serif" font-size="10.00">cassert</text>
</a>
</g>
</g>
<!-- Node7&#45;&gt;Node12 -->
<g id="edge22" class="edge">
<title>Node7&#45;&gt;Node12</title>
<path fill="none" stroke="midnightblue" d="M750.72,-180.25C753.86,-179.8 756.97,-179.38 760,-179 803.51,-173.52 1123.44,-175.39 1153,-143 1165.31,-129.51 1191.77,-101.72 1152,-56 1119.48,-18.61 968.95,-12.06 898.52,-11.07"/>
<polygon fill="midnightblue" stroke="midnightblue" points="898.37,-7.57 888.34,-10.96 898.3,-14.57 898.37,-7.57"/>
</g>
<!-- Node14 -->
<g id="node14" class="node">
<title>Node14</title>
<g id="a_node14"><a xlink:title=" ">
<polygon fill="none" stroke="#bfbfbf" points="267.5,-0.5 267.5,-19.5 320.5,-19.5 320.5,-0.5 267.5,-0.5"/>
<text text-anchor="middle" x="294" y="-7.5" font-family="Helvetica,sans-Serif" font-size="10.00">cstddef</text>
</a>
</g>
</g>
<!-- Node7&#45;&gt;Node14 -->
<g id="edge24" class="edge">
<title>Node7&#45;&gt;Node14</title>
<path fill="none" stroke="midnightblue" d="M657.29,-180.19C654.15,-179.76 651.03,-179.35 648,-179 593.89,-172.67 196.08,-182.91 159,-143 116.55,-97.32 211.74,-46.63 263.45,-23.61"/>
<polygon fill="midnightblue" stroke="midnightblue" points="265.09,-26.72 272.86,-19.51 262.29,-20.3 265.09,-26.72"/>
</g>
<!-- Node17 -->
<g id="node17" class="node">
<title>Node17</title>
<g id="a_node17"><a xlink:title=" ">
<polygon fill="none" stroke="#bfbfbf" points="783.5,-62 783.5,-81 836.5,-81 836.5,-62 783.5,-62"/>
<text text-anchor="middle" x="810" y="-69" font-family="Helvetica,sans-Serif" font-size="10.00">iterator</text>
</a>
</g>
</g>
<!-- Node7&#45;&gt;Node17 -->
<g id="edge27" class="edge">
<title>Node7&#45;&gt;Node17</title>
<path fill="none" stroke="midnightblue" d="M657.48,-179.86C589.84,-167.91 472.01,-146.65 469,-143 463.34,-136.15 463.09,-129.64 469,-123 514.34,-71.99 707.88,-103.9 774,-87 776.51,-86.36 779.08,-85.58 781.64,-84.72"/>
<polygon fill="midnightblue" stroke="midnightblue" points="783.11,-87.91 791.26,-81.14 780.67,-81.35 783.11,-87.91"/>
</g>
<!-- Node20 -->
<g id="node20" class="node">
<title>Node20</title>
<g id="a_node20"><a xlink:title=" ">
<polygon fill="none" stroke="#bfbfbf" points="478,-123.5 478,-142.5 542,-142.5 542,-123.5 478,-123.5"/>
<text text-anchor="middle" x="510" y="-130.5" font-family="Helvetica,sans-Serif" font-size="10.00">algorithm</text>
</a>
</g>
</g>
<!-- Node7&#45;&gt;Node20 -->
<g id="edge21" class="edge">
<title>Node7&#45;&gt;Node20</title>
<path fill="none" stroke="midnightblue" d="M673.26,-179.44C640.06,-170.2 587.01,-155.44 550.44,-145.26"/>
<polygon fill="midnightblue" stroke="midnightblue" points="551.17,-141.83 540.6,-142.52 549.29,-148.57 551.17,-141.83"/>
</g>
<!-- Node21 -->
<g id="node21" class="node">
<title>Node21</title>
<g id="a_node21"><a xlink:title=" ">
<polygon fill="none" stroke="#bfbfbf" points="560.5,-123.5 560.5,-142.5 607.5,-142.5 607.5,-123.5 560.5,-123.5"/>
<text text-anchor="middle" x="584" y="-130.5" font-family="Helvetica,sans-Serif" font-size="10.00">cmath</text>
</a>
</g>
</g>
<!-- Node7&#45;&gt;Node21 -->
<g id="edge23" class="edge">
<title>Node7&#45;&gt;Node21</title>
<path fill="none" stroke="midnightblue" d="M684.99,-179.44C665.41,-170.64 634.69,-156.81 612.27,-146.72"/>
<polygon fill="midnightblue" stroke="midnightblue" points="613.48,-143.43 602.93,-142.52 610.61,-149.81 613.48,-143.43"/>
</g>
<!-- Node22 -->
<g id="node22" class="node">
<title>Node22</title>
<g id="a_node22"><a xlink:title=" ">
<polygon fill="none" stroke="#bfbfbf" points="625.5,-123.5 625.5,-142.5 690.5,-142.5 690.5,-123.5 625.5,-123.5"/>
<text text-anchor="middle" x="658" y="-130.5" font-family="Helvetica,sans-Serif" font-size="10.00">functional</text>
</a>
</g>
</g>
<!-- Node7&#45;&gt;Node22 -->
<g id="edge25" class="edge">
<title>Node7&#45;&gt;Node22</title>
<path fill="none" stroke="midnightblue" d="M696.4,-179.08C689.77,-171.3 679.98,-159.8 671.94,-150.37"/>
<polygon fill="midnightblue" stroke="midnightblue" points="674.6,-148.09 665.45,-142.75 669.27,-152.63 674.6,-148.09"/>
</g>
<!-- Node23 -->
<g id="node23" class="node">
<title>Node23</title>
<g id="a_node23"><a xlink:title=" ">
<polygon fill="none" stroke="#bfbfbf" points="708.5,-123.5 708.5,-142.5 791.5,-142.5 791.5,-123.5 708.5,-123.5"/>
<text text-anchor="middle" x="750" y="-130.5" font-family="Helvetica,sans-Serif" font-size="10.00">initializer_list</text>
</a>
</g>
</g>
<!-- Node7&#45;&gt;Node23 -->
<g id="edge26" class="edge">
<title>Node7&#45;&gt;Node23</title>
<path fill="none" stroke="midnightblue" d="M711.6,-179.08C718.23,-171.3 728.02,-159.8 736.06,-150.37"/>
<polygon fill="midnightblue" stroke="midnightblue" points="738.73,-152.63 742.55,-142.75 733.4,-148.09 738.73,-152.63"/>
</g>
<!-- Node24 -->
<g id="node24" class="node">
<title>Node24</title>
<g id="a_node24"><a xlink:title=" ">
<polygon fill="none" stroke="#bfbfbf" points="810,-123.5 810,-142.5 866,-142.5 866,-123.5 810,-123.5"/>
<text text-anchor="middle" x="838" y="-130.5" font-family="Helvetica,sans-Serif" font-size="10.00">numeric</text>
</a>
</g>
</g>
<!-- Node7&#45;&gt;Node24 -->
<g id="edge28" class="edge">
<title>Node7&#45;&gt;Node24</title>
<path fill="none" stroke="midnightblue" d="M725.23,-179.44C747.38,-170.52 782.32,-156.44 807.44,-146.32"/>
<polygon fill="midnightblue" stroke="midnightblue" points="808.9,-149.5 816.87,-142.52 806.28,-143.01 808.9,-149.5"/>
</g>
<!-- Node25 -->
<g id="node25" class="node">
<title>Node25</title>
<g id="a_node25"><a xlink:title=" ">
<polygon fill="none" stroke="#bfbfbf" points="1073.5,-62 1073.5,-81 1142.5,-81 1142.5,-62 1073.5,-62"/>
<text text-anchor="middle" x="1108" y="-69" font-family="Helvetica,sans-Serif" font-size="10.00">type_traits</text>
</a>
</g>
</g>
<!-- Node7&#45;&gt;Node25 -->
<g id="edge29" class="edge">
<title>Node7&#45;&gt;Node25</title>
<path fill="none" stroke="midnightblue" d="M750.72,-180.26C753.86,-179.81 756.97,-179.39 760,-179 801.74,-173.66 1108.69,-174.14 1137,-143 1150.97,-127.63 1136.91,-104.61 1123.94,-89.1"/>
<polygon fill="midnightblue" stroke="midnightblue" points="1126.3,-86.48 1117.03,-81.35 1121.08,-91.14 1126.3,-86.48"/>
</g>
<!-- Node7&#45;&gt;Node26 -->
<g id="edge30" class="edge">
<title>Node7&#45;&gt;Node26</title>
<path fill="none" stroke="midnightblue" d="M750.71,-180.21C753.85,-179.77 756.97,-179.36 760,-179 958.32,-155.13 1010.68,-174.11 1208,-143 1209.46,-142.77 1210.96,-142.51 1212.46,-142.23"/>
<polygon fill="midnightblue" stroke="midnightblue" points="1213.31,-145.63 1222.39,-140.18 1211.89,-138.78 1213.31,-145.63"/>
</g>
<!-- Node11 -->
<g id="node11" class="node">
<title>Node11</title>
<g id="a_node11"><a xlink:href="device__qualifier_8hpp.html" target="_top" xlink:title=" ">
<polygon fill="none" stroke="black" points="649,-62 649,-81 765,-81 765,-62 649,-62"/>
<text text-anchor="middle" x="707" y="-69" font-family="Helvetica,sans-Serif" font-size="10.00">device_qualifier.hpp</text>
</a>
</g>
</g>
<!-- Node10&#45;&gt;Node11 -->
<g id="edge10" class="edge">
<title>Node10&#45;&gt;Node11</title>
<path fill="none" stroke="midnightblue" d="M422.22,-124.16C480.67,-113.56 585.06,-94.62 649.92,-82.86"/>
<polygon fill="midnightblue" stroke="midnightblue" points="650.76,-86.26 659.97,-81.03 649.51,-79.37 650.76,-86.26"/>
</g>
<!-- Node10&#45;&gt;Node12 -->
<g id="edge16" class="edge">
<title>Node10&#45;&gt;Node12</title>
<path fill="none" stroke="midnightblue" d="M405.48,-123.49C452.41,-108.6 553.39,-77.35 640,-56 705.04,-39.97 781.82,-25.35 825.92,-17.36"/>
<polygon fill="midnightblue" stroke="midnightblue" points="826.65,-20.78 835.87,-15.57 825.41,-13.89 826.65,-20.78"/>
</g>
<!-- Node13 -->
<g id="node13" class="node">
<title>Node13</title>
<g id="a_node13"><a xlink:href="get_8hpp.html" target="_top" xlink:title=" ">
<polygon fill="none" stroke="black" points="427.5,-62 427.5,-81 480.5,-81 480.5,-62 427.5,-62"/>
<text text-anchor="middle" x="454" y="-69" font-family="Helvetica,sans-Serif" font-size="10.00">get.hpp</text>
</a>
</g>
</g>
<!-- Node10&#45;&gt;Node13 -->
<g id="edge12" class="edge">
<title>Node10&#45;&gt;Node13</title>
<path fill="none" stroke="midnightblue" d="M389.75,-123.48C401.55,-114.11 420.74,-98.88 435.08,-87.51"/>
<polygon fill="midnightblue" stroke="midnightblue" points="437.62,-89.97 443.27,-81.01 433.26,-84.48 437.62,-89.97"/>
</g>
<!-- Node10&#45;&gt;Node14 -->
<g id="edge17" class="edge">
<title>Node10&#45;&gt;Node14</title>
<path fill="none" stroke="midnightblue" d="M338.82,-123.41C293.6,-113.35 225.43,-96.8 218,-87 209.67,-76.02 211.18,-67.97 218,-56 226.68,-40.78 242.75,-30.18 257.89,-23.11"/>
<polygon fill="midnightblue" stroke="midnightblue" points="259.31,-26.31 267.12,-19.15 256.55,-19.87 259.31,-26.31"/>
</g>
<!-- Node16 -->
<g id="node16" class="node">
<title>Node16</title>
<g id="a_node16"><a xlink:title=" ">
<polygon fill="none" stroke="#bfbfbf" points="227.5,-56.5 227.5,-86.5 334.5,-86.5 334.5,-56.5 227.5,-56.5"/>
<text text-anchor="start" x="235.5" y="-74.5" font-family="Helvetica,sans-Serif" font-size="10.00">boost/serialization</text>
<text text-anchor="middle" x="281" y="-63.5" font-family="Helvetica,sans-Serif" font-size="10.00">/access.hpp</text>
</a>
</g>
</g>
<!-- Node10&#45;&gt;Node16 -->
<g id="edge15" class="edge">
<title>Node10&#45;&gt;Node16</title>
<path fill="none" stroke="midnightblue" d="M364.96,-123.48C351.44,-115.27 330.51,-102.56 312.93,-91.88"/>
<polygon fill="midnightblue" stroke="midnightblue" points="314.46,-88.72 304.1,-86.52 310.83,-94.7 314.46,-88.72"/>
</g>
<!-- Node10&#45;&gt;Node17 -->
<g id="edge18" class="edge">
<title>Node10&#45;&gt;Node17</title>
<path fill="none" stroke="midnightblue" d="M422.23,-124.94C426.87,-124.25 431.53,-123.59 436,-123 585.77,-103.21 627.42,-123.57 774,-87 776.67,-86.33 779.4,-85.51 782.1,-84.6"/>
<polygon fill="midnightblue" stroke="midnightblue" points="783.5,-87.82 791.64,-81.03 781.05,-81.26 783.5,-87.82"/>
</g>
<!-- Node18 -->
<g id="node18" class="node">
<title>Node18</title>
<g id="a_node18"><a xlink:title=" ">
<polygon fill="none" stroke="#bfbfbf" points="352.5,-62 352.5,-81 409.5,-81 409.5,-62 352.5,-62"/>
<text text-anchor="middle" x="381" y="-69" font-family="Helvetica,sans-Serif" font-size="10.00">ostream</text>
</a>
</g>
</g>
<!-- Node10&#45;&gt;Node18 -->
<g id="edge19" class="edge">
<title>Node10&#45;&gt;Node18</title>
<path fill="none" stroke="midnightblue" d="M379.29,-123.48C379.57,-115.08 380.01,-101.98 380.37,-91.16"/>
<polygon fill="midnightblue" stroke="midnightblue" points="383.88,-91.12 380.71,-81.01 376.88,-90.89 383.88,-91.12"/>
</g>
<!-- Node19 -->
<g id="node19" class="node">
<title>Node19</title>
<g id="a_node19"><a xlink:title=" ">
<polygon fill="none" stroke="#bfbfbf" points="880.5,-62 880.5,-81 945.5,-81 945.5,-62 880.5,-62"/>
<text text-anchor="middle" x="913" y="-69" font-family="Helvetica,sans-Serif" font-size="10.00">stdexcept</text>
</a>
</g>
</g>
<!-- Node10&#45;&gt;Node19 -->
<g id="edge20" class="edge">
<title>Node10&#45;&gt;Node19</title>
<path fill="none" stroke="midnightblue" d="M422.03,-127.66C436.91,-126.17 453.68,-124.5 469,-123 636.08,-106.65 679.08,-112.55 845,-87 853.23,-85.73 861.96,-84.1 870.32,-82.38"/>
<polygon fill="midnightblue" stroke="midnightblue" points="871.23,-85.77 880.28,-80.27 869.77,-78.92 871.23,-85.77"/>
</g>
<!-- Node11&#45;&gt;Node12 -->
<g id="edge11" class="edge">
<title>Node11&#45;&gt;Node12</title>
<path fill="none" stroke="midnightblue" d="M729.21,-61.98C755.68,-51.81 800.11,-34.76 830.22,-23.2"/>
<polygon fill="midnightblue" stroke="midnightblue" points="831.75,-26.36 839.83,-19.51 829.24,-19.83 831.75,-26.36"/>
</g>
<!-- Node13&#45;&gt;Node14 -->
<g id="edge13" class="edge">
<title>Node13&#45;&gt;Node14</title>
<path fill="none" stroke="midnightblue" d="M433.11,-61.94C428.17,-59.96 422.91,-57.88 418,-56 387.73,-44.42 353.04,-31.89 328.06,-23"/>
<polygon fill="midnightblue" stroke="midnightblue" points="328.92,-19.59 318.33,-19.55 326.58,-26.19 328.92,-19.59"/>
</g>
<!-- Node15 -->
<g id="node15" class="node">
<title>Node15</title>
<g id="a_node15"><a xlink:title=" ">
<polygon fill="none" stroke="#bfbfbf" points="433.5,-0.5 433.5,-19.5 474.5,-19.5 474.5,-0.5 433.5,-0.5"/>
<text text-anchor="middle" x="454" y="-7.5" font-family="Helvetica,sans-Serif" font-size="10.00">tuple</text>
</a>
</g>
</g>
<!-- Node13&#45;&gt;Node15 -->
<g id="edge14" class="edge">
<title>Node13&#45;&gt;Node15</title>
<path fill="none" stroke="midnightblue" d="M454,-61.98C454,-53.58 454,-40.48 454,-29.66"/>
<polygon fill="midnightblue" stroke="midnightblue" points="457.5,-29.51 454,-19.51 450.5,-29.51 457.5,-29.51"/>
</g>
<!-- Node28&#45;&gt;Node11 -->
<g id="edge34" class="edge">
<title>Node28&#45;&gt;Node11</title>
<path fill="none" stroke="midnightblue" d="M1041.89,-124.42C1038.88,-123.93 1035.9,-123.45 1033,-123 918.17,-105.09 888.43,-107.31 774,-87 767.62,-85.87 760.92,-84.56 754.32,-83.2"/>
<polygon fill="midnightblue" stroke="midnightblue" points="754.62,-79.69 744.11,-81.05 753.18,-86.54 754.62,-79.69"/>
</g>
<!-- Node28&#45;&gt;Node12 -->
<g id="edge35" class="edge">
<title>Node28&#45;&gt;Node12</title>
<path fill="none" stroke="midnightblue" d="M1078.47,-123.36C1066.18,-107.68 1038.04,-74.46 1007,-56 972.81,-35.66 928.53,-23.66 897.94,-17.24"/>
<polygon fill="midnightblue" stroke="midnightblue" points="898.62,-13.81 888.13,-15.27 897.25,-20.67 898.62,-13.81"/>
</g>
<!-- Node28&#45;&gt;Node14 -->
<g id="edge36" class="edge">
<title>Node28&#45;&gt;Node14</title>
<path fill="none" stroke="midnightblue" d="M1070.01,-123.44C1054.28,-114.43 1028.85,-99.81 1007,-87 983.79,-73.39 980.68,-64.02 955,-56 842.1,-20.75 541.99,-28.08 424,-20 392.66,-17.85 357.07,-15.39 331.06,-13.58"/>
<polygon fill="midnightblue" stroke="midnightblue" points="331.11,-10.07 320.89,-12.87 330.62,-17.06 331.11,-10.07"/>
</g>
<!-- Node28&#45;&gt;Node17 -->
<g id="edge37" class="edge">
<title>Node28&#45;&gt;Node17</title>
<path fill="none" stroke="midnightblue" d="M1042.7,-123.44C999.48,-114.62 930.46,-100.32 871,-87 863.08,-85.23 854.61,-83.26 846.56,-81.36"/>
<polygon fill="midnightblue" stroke="midnightblue" points="847.23,-77.92 836.69,-79 845.61,-84.73 847.23,-77.92"/>
</g>
<!-- Node28&#45;&gt;Node19 -->
<g id="edge38" class="edge">
<title>Node28&#45;&gt;Node19</title>
<path fill="none" stroke="midnightblue" d="M1060.36,-123.48C1030.72,-113.22 980.82,-95.96 947.4,-84.4"/>
<polygon fill="midnightblue" stroke="midnightblue" points="948.19,-80.97 937.6,-81.01 945.9,-87.59 948.19,-80.97"/>
</g>
<!-- Node28&#45;&gt;Node25 -->
<g id="edge39" class="edge">
<title>Node28&#45;&gt;Node25</title>
<path fill="none" stroke="midnightblue" d="M1088.3,-123.48C1091.61,-114.9 1096.82,-101.43 1101.05,-90.48"/>
<polygon fill="midnightblue" stroke="midnightblue" points="1104.37,-91.6 1104.71,-81.01 1097.84,-89.07 1104.37,-91.6"/>
</g>
</g>
</svg>
