<?xml version="1.0" encoding="UTF-8" standalone="no"?>
<!DOCTYPE svg PUBLIC "-//W3C//DTD SVG 1.1//EN"
 "http://www.w3.org/Graphics/SVG/1.1/DTD/svg11.dtd">
<!-- Generated by graphviz version 2.43.0 (0)
 -->
<!-- Title: lb_collective_interface.hpp Pages: 1 -->
<svg width="1571pt" height="274pt"
 viewBox="0.00 0.00 1570.50 274.00" xmlns="http://www.w3.org/2000/svg" xmlns:xlink="http://www.w3.org/1999/xlink">
<g id="graph0" class="graph" transform="scale(1 1) rotate(0) translate(4 270)">
<title>lb_collective_interface.hpp</title>
<!-- Node1 -->
<g id="node1" class="node">
<title>Node1</title>
<g id="a_node1"><a xlink:title=" ">
<polygon fill="#bfbfbf" stroke="black" points="862,-246.5 862,-265.5 1010,-265.5 1010,-246.5 862,-246.5"/>
<text text-anchor="middle" x="936" y="-253.5" font-family="Helvetica,sans-Serif" font-size="10.00">lb_collective_interface.hpp</text>
</a>
</g>
</g>
<!-- Node2 -->
<g id="node2" class="node">
<title>Node2</title>
<g id="a_node2"><a xlink:href="lb__constants_8hpp.html" target="_top" xlink:title=" ">
<polygon fill="none" stroke="black" points="736,-179.5 736,-209.5 864,-209.5 864,-179.5 736,-179.5"/>
<text text-anchor="start" x="744" y="-197.5" font-family="Helvetica,sans-Serif" font-size="10.00">grid_based_algorithms</text>
<text text-anchor="middle" x="800" y="-186.5" font-family="Helvetica,sans-Serif" font-size="10.00">/lb_constants.hpp</text>
</a>
</g>
</g>
<!-- Node1&#45;&gt;Node2 -->
<g id="edge1" class="edge">
<title>Node1&#45;&gt;Node2</title>
<path fill="none" stroke="midnightblue" d="M916.51,-246.48C896.98,-237.93 866.29,-224.5 841.31,-213.57"/>
<polygon fill="midnightblue" stroke="midnightblue" points="842.62,-210.32 832.05,-209.52 839.81,-216.74 842.62,-210.32"/>
</g>
<!-- Node3 -->
<g id="node3" class="node">
<title>Node3</title>
<g id="a_node3"><a xlink:title=" ">
<polygon fill="none" stroke="#bfbfbf" points="882.5,-185 882.5,-204 989.5,-204 989.5,-185 882.5,-185"/>
<text text-anchor="middle" x="936" y="-192" font-family="Helvetica,sans-Serif" font-size="10.00">boost/optional.hpp</text>
</a>
</g>
</g>
<!-- Node1&#45;&gt;Node3 -->
<g id="edge2" class="edge">
<title>Node1&#45;&gt;Node3</title>
<path fill="none" stroke="midnightblue" d="M936,-246.48C936,-238.08 936,-224.98 936,-214.16"/>
<polygon fill="midnightblue" stroke="midnightblue" points="939.5,-214.01 936,-204.01 932.5,-214.01 939.5,-214.01"/>
</g>
<!-- Node4 -->
<g id="node4" class="node">
<title>Node4</title>
<g id="a_node4"><a xlink:href="Vector_8hpp.html" target="_top" xlink:title=" ">
<polygon fill="none" stroke="black" points="1007.5,-185 1007.5,-204 1100.5,-204 1100.5,-185 1007.5,-185"/>
<text text-anchor="middle" x="1054" y="-192" font-family="Helvetica,sans-Serif" font-size="10.00">utils/Vector.hpp</text>
</a>
</g>
</g>
<!-- Node1&#45;&gt;Node4 -->
<g id="edge3" class="edge">
<title>Node1&#45;&gt;Node4</title>
<path fill="none" stroke="midnightblue" d="M952.91,-246.48C972.53,-236.58 1005.13,-220.14 1027.99,-208.62"/>
<polygon fill="midnightblue" stroke="midnightblue" points="1029.77,-211.64 1037.12,-204.01 1026.62,-205.39 1029.77,-211.64"/>
</g>
<!-- Node5 -->
<g id="node5" class="node">
<title>Node5</title>
<g id="a_node5"><a xlink:title=" ">
<polygon fill="none" stroke="#bfbfbf" points="0,-123.5 0,-142.5 150,-142.5 150,-123.5 0,-123.5"/>
<text text-anchor="middle" x="75" y="-130.5" font-family="Helvetica,sans-Serif" font-size="10.00">boost/qvm/deduce_vec.hpp</text>
</a>
</g>
</g>
<!-- Node4&#45;&gt;Node5 -->
<g id="edge4" class="edge">
<title>Node4&#45;&gt;Node5</title>
<path fill="none" stroke="midnightblue" d="M1026.26,-184.95C1017.61,-182.62 1007.98,-180.36 999,-179 632.78,-123.54 533.37,-170.09 160.08,-143.02"/>
<polygon fill="midnightblue" stroke="midnightblue" points="160.31,-139.53 150.08,-142.29 159.8,-146.51 160.31,-139.53"/>
</g>
<!-- Node6 -->
<g id="node6" class="node">
<title>Node6</title>
<g id="a_node6"><a xlink:title=" ">
<polygon fill="none" stroke="#bfbfbf" points="168,-123.5 168,-142.5 308,-142.5 308,-123.5 168,-123.5"/>
<text text-anchor="middle" x="238" y="-130.5" font-family="Helvetica,sans-Serif" font-size="10.00">boost/qvm/vec_traits.hpp</text>
</a>
</g>
</g>
<!-- Node4&#45;&gt;Node6 -->
<g id="edge5" class="edge">
<title>Node4&#45;&gt;Node6</title>
<path fill="none" stroke="midnightblue" d="M1025.97,-184.93C1017.39,-182.63 1007.88,-180.39 999,-179 701.32,-132.35 622.35,-167.06 322,-143 320.73,-142.9 319.44,-142.79 318.15,-142.68"/>
<polygon fill="midnightblue" stroke="midnightblue" points="318.37,-139.19 308.1,-141.79 317.75,-146.16 318.37,-139.19"/>
</g>
<!-- Node7 -->
<g id="node7" class="node">
<title>Node7</title>
<g id="a_node7"><a xlink:href="Array_8hpp.html" target="_top" xlink:title=" ">
<polygon fill="none" stroke="black" points="663,-123.5 663,-142.5 749,-142.5 749,-123.5 663,-123.5"/>
<text text-anchor="middle" x="706" y="-130.5" font-family="Helvetica,sans-Serif" font-size="10.00">utils/Array.hpp</text>
</a>
</g>
</g>
<!-- Node4&#45;&gt;Node7 -->
<g id="edge6" class="edge">
<title>Node4&#45;&gt;Node7</title>
<path fill="none" stroke="midnightblue" d="M1023.88,-184.95C1015.83,-182.83 1007.12,-180.69 999,-179 916.06,-161.75 818.63,-148.08 759.64,-140.51"/>
<polygon fill="midnightblue" stroke="midnightblue" points="759.81,-137.01 749.45,-139.22 758.93,-143.95 759.81,-137.01"/>
</g>
<!-- Node9 -->
<g id="node9" class="node">
<title>Node9</title>
<g id="a_node9"><a xlink:title=" ">
<polygon fill="none" stroke="#bfbfbf" points="827,-0.5 827,-19.5 879,-19.5 879,-0.5 827,-0.5"/>
<text text-anchor="middle" x="853" y="-7.5" font-family="Helvetica,sans-Serif" font-size="10.00">cassert</text>
</a>
</g>
</g>
<!-- Node4&#45;&gt;Node9 -->
<g id="edge19" class="edge">
<title>Node4&#45;&gt;Node9</title>
<path fill="none" stroke="midnightblue" d="M1044.76,-184.71C1035.38,-175.27 1021.11,-159.4 1013,-143 995.36,-107.35 1019.03,-85.18 992,-56 965.51,-27.41 920.76,-16.93 889.2,-13.12"/>
<polygon fill="midnightblue" stroke="midnightblue" points="889.35,-9.62 879.05,-12.07 888.63,-16.58 889.35,-9.62"/>
</g>
<!-- Node11 -->
<g id="node11" class="node">
<title>Node11</title>
<g id="a_node11"><a xlink:title=" ">
<polygon fill="none" stroke="#bfbfbf" points="342.5,-0.5 342.5,-19.5 395.5,-19.5 395.5,-0.5 342.5,-0.5"/>
<text text-anchor="middle" x="369" y="-7.5" font-family="Helvetica,sans-Serif" font-size="10.00">cstddef</text>
</a>
</g>
</g>
<!-- Node4&#45;&gt;Node11 -->
<g id="edge21" class="edge">
<title>Node4&#45;&gt;Node11</title>
<path fill="none" stroke="midnightblue" d="M1025.07,-184.98C1016.72,-182.77 1007.55,-180.56 999,-179 860.26,-153.63 461.96,-194.8 371,-87 357.73,-71.28 359.88,-46.53 363.59,-29.57"/>
<polygon fill="midnightblue" stroke="midnightblue" points="367.02,-30.28 366.11,-19.73 360.24,-28.55 367.02,-30.28"/>
</g>
<!-- Node14 -->
<g id="node14" class="node">
<title>Node14</title>
<g id="a_node14"><a xlink:title=" ">
<polygon fill="none" stroke="#bfbfbf" points="929.5,-62 929.5,-81 982.5,-81 982.5,-62 929.5,-62"/>
<text text-anchor="middle" x="956" y="-69" font-family="Helvetica,sans-Serif" font-size="10.00">iterator</text>
</a>
</g>
</g>
<!-- Node4&#45;&gt;Node14 -->
<g id="edge24" class="edge">
<title>Node4&#45;&gt;Node14</title>
<path fill="none" stroke="midnightblue" d="M1035.02,-184.92C1018.33,-176.47 994.5,-162.07 980,-143 968.4,-127.74 962.19,-106.52 959.01,-91.35"/>
<polygon fill="midnightblue" stroke="midnightblue" points="962.39,-90.34 957.14,-81.14 955.5,-91.6 962.39,-90.34"/>
</g>
<!-- Node17 -->
<g id="node17" class="node">
<title>Node17</title>
<g id="a_node17"><a xlink:title=" ">
<polygon fill="none" stroke="#bfbfbf" points="1022,-123.5 1022,-142.5 1086,-142.5 1086,-123.5 1022,-123.5"/>
<text text-anchor="middle" x="1054" y="-130.5" font-family="Helvetica,sans-Serif" font-size="10.00">algorithm</text>
</a>
</g>
</g>
<!-- Node4&#45;&gt;Node17 -->
<g id="edge18" class="edge">
<title>Node4&#45;&gt;Node17</title>
<path fill="none" stroke="midnightblue" d="M1054,-184.98C1054,-176.58 1054,-163.48 1054,-152.66"/>
<polygon fill="midnightblue" stroke="midnightblue" points="1057.5,-152.51 1054,-142.51 1050.5,-152.51 1057.5,-152.51"/>
</g>
<!-- Node18 -->
<g id="node18" class="node">
<title>Node18</title>
<g id="a_node18"><a xlink:title=" ">
<polygon fill="none" stroke="#bfbfbf" points="1104.5,-123.5 1104.5,-142.5 1151.5,-142.5 1151.5,-123.5 1104.5,-123.5"/>
<text text-anchor="middle" x="1128" y="-130.5" font-family="Helvetica,sans-Serif" font-size="10.00">cmath</text>
</a>
</g>
</g>
<!-- Node4&#45;&gt;Node18 -->
<g id="edge20" class="edge">
<title>Node4&#45;&gt;Node18</title>
<path fill="none" stroke="midnightblue" d="M1064.6,-184.98C1076.25,-175.61 1095.19,-160.38 1109.33,-149.01"/>
<polygon fill="midnightblue" stroke="midnightblue" points="1111.82,-151.5 1117.42,-142.51 1107.43,-146.05 1111.82,-151.5"/>
</g>
<!-- Node19 -->
<g id="node19" class="node">
<title>Node19</title>
<g id="a_node19"><a xlink:title=" ">
<polygon fill="none" stroke="#bfbfbf" points="1169.5,-123.5 1169.5,-142.5 1234.5,-142.5 1234.5,-123.5 1169.5,-123.5"/>
<text text-anchor="middle" x="1202" y="-130.5" font-family="Helvetica,sans-Serif" font-size="10.00">functional</text>
</a>
</g>
</g>
<!-- Node4&#45;&gt;Node19 -->
<g id="edge22" class="edge">
<title>Node4&#45;&gt;Node19</title>
<path fill="none" stroke="midnightblue" d="M1075.2,-184.98C1100.37,-174.86 1142.54,-157.9 1171.28,-146.35"/>
<polygon fill="midnightblue" stroke="midnightblue" points="1172.86,-149.49 1180.83,-142.51 1170.25,-142.99 1172.86,-149.49"/>
</g>
<!-- Node20 -->
<g id="node20" class="node">
<title>Node20</title>
<g id="a_node20"><a xlink:title=" ">
<polygon fill="none" stroke="#bfbfbf" points="1252.5,-123.5 1252.5,-142.5 1335.5,-142.5 1335.5,-123.5 1252.5,-123.5"/>
<text text-anchor="middle" x="1294" y="-130.5" font-family="Helvetica,sans-Serif" font-size="10.00">initializer_list</text>
</a>
</g>
</g>
<!-- Node4&#45;&gt;Node20 -->
<g id="edge23" class="edge">
<title>Node4&#45;&gt;Node20</title>
<path fill="none" stroke="midnightblue" d="M1088.39,-184.98C1130.89,-174.44 1203.3,-156.49 1249.87,-144.94"/>
<polygon fill="midnightblue" stroke="midnightblue" points="1250.81,-148.31 1259.68,-142.51 1249.13,-141.52 1250.81,-148.31"/>
</g>
<!-- Node21 -->
<g id="node21" class="node">
<title>Node21</title>
<g id="a_node21"><a xlink:title=" ">
<polygon fill="none" stroke="#bfbfbf" points="1354,-123.5 1354,-142.5 1410,-142.5 1410,-123.5 1354,-123.5"/>
<text text-anchor="middle" x="1382" y="-130.5" font-family="Helvetica,sans-Serif" font-size="10.00">numeric</text>
</a>
</g>
</g>
<!-- Node4&#45;&gt;Node21 -->
<g id="edge25" class="edge">
<title>Node4&#45;&gt;Node21</title>
<path fill="none" stroke="midnightblue" d="M1100.55,-186.4C1156.13,-177.71 1252.11,-162.02 1343.76,-143.15"/>
<polygon fill="midnightblue" stroke="midnightblue" points="1344.68,-146.53 1353.76,-141.07 1343.26,-139.68 1344.68,-146.53"/>
</g>
<!-- Node22 -->
<g id="node22" class="node">
<title>Node22</title>
<g id="a_node22"><a xlink:title=" ">
<polygon fill="none" stroke="#bfbfbf" points="1428.5,-123.5 1428.5,-142.5 1497.5,-142.5 1497.5,-123.5 1428.5,-123.5"/>
<text text-anchor="middle" x="1463" y="-130.5" font-family="Helvetica,sans-Serif" font-size="10.00">type_traits</text>
</a>
</g>
</g>
<!-- Node4&#45;&gt;Node22 -->
<g id="edge26" class="edge">
<title>Node4&#45;&gt;Node22</title>
<path fill="none" stroke="midnightblue" d="M1100.53,-188.03C1168.14,-179.88 1297.7,-163.45 1418.3,-143.02"/>
<polygon fill="midnightblue" stroke="midnightblue" points="1419.18,-146.42 1428.45,-141.29 1418.01,-139.52 1419.18,-146.42"/>
</g>
<!-- Node23 -->
<g id="node23" class="node">
<title>Node23</title>
<g id="a_node23"><a xlink:title=" ">
<polygon fill="none" stroke="#bfbfbf" points="1515.5,-123.5 1515.5,-142.5 1562.5,-142.5 1562.5,-123.5 1515.5,-123.5"/>
<text text-anchor="middle" x="1539" y="-130.5" font-family="Helvetica,sans-Serif" font-size="10.00">vector</text>
</a>
</g>
</g>
<!-- Node4&#45;&gt;Node23 -->
<g id="edge27" class="edge">
<title>Node4&#45;&gt;Node23</title>
<path fill="none" stroke="midnightblue" d="M1100.68,-190.82C1181.48,-185.62 1352.64,-172.22 1505.31,-143.06"/>
<polygon fill="midnightblue" stroke="midnightblue" points="1506.19,-146.46 1515.34,-141.12 1504.85,-139.59 1506.19,-146.46"/>
</g>
<!-- Node8 -->
<g id="node8" class="node">
<title>Node8</title>
<g id="a_node8"><a xlink:href="device__qualifier_8hpp.html" target="_top" xlink:title=" ">
<polygon fill="none" stroke="black" points="795,-62 795,-81 911,-81 911,-62 795,-62"/>
<text text-anchor="middle" x="853" y="-69" font-family="Helvetica,sans-Serif" font-size="10.00">device_qualifier.hpp</text>
</a>
</g>
</g>
<!-- Node7&#45;&gt;Node8 -->
<g id="edge7" class="edge">
<title>Node7&#45;&gt;Node8</title>
<path fill="none" stroke="midnightblue" d="M727.06,-123.48C752.06,-113.36 793.94,-96.4 822.49,-84.85"/>
<polygon fill="midnightblue" stroke="midnightblue" points="824.02,-88.01 831.98,-81.01 821.39,-81.52 824.02,-88.01"/>
</g>
<!-- Node7&#45;&gt;Node9 -->
<g id="edge13" class="edge">
<title>Node7&#45;&gt;Node9</title>
<path fill="none" stroke="midnightblue" d="M714.44,-123.06C728.56,-108.31 758.2,-78.28 786,-56 800.04,-44.75 816.84,-33.47 830.11,-25.01"/>
<polygon fill="midnightblue" stroke="midnightblue" points="832.05,-27.93 838.66,-19.65 828.33,-22 832.05,-27.93"/>
</g>
<!-- Node10 -->
<g id="node10" class="node">
<title>Node10</title>
<g id="a_node10"><a xlink:href="get_8hpp.html" target="_top" xlink:title=" ">
<polygon fill="none" stroke="black" points="402.5,-62 402.5,-81 455.5,-81 455.5,-62 402.5,-62"/>
<text text-anchor="middle" x="429" y="-69" font-family="Helvetica,sans-Serif" font-size="10.00">get.hpp</text>
</a>
</g>
</g>
<!-- Node7&#45;&gt;Node10 -->
<g id="edge9" class="edge">
<title>Node7&#45;&gt;Node10</title>
<path fill="none" stroke="midnightblue" d="M662.73,-126.56C614.03,-119.83 532.83,-106.78 465,-87 462.57,-86.29 460.07,-85.48 457.58,-84.6"/>
<polygon fill="midnightblue" stroke="midnightblue" points="458.77,-81.31 448.18,-81.04 456.3,-87.86 458.77,-81.31"/>
</g>
<!-- Node7&#45;&gt;Node11 -->
<g id="edge14" class="edge">
<title>Node7&#45;&gt;Node11</title>
<path fill="none" stroke="midnightblue" d="M662.84,-131.32C586.72,-129.24 432.86,-120.84 393,-87 376.39,-72.9 371.13,-47.38 369.55,-29.83"/>
<polygon fill="midnightblue" stroke="midnightblue" points="373.03,-29.43 368.95,-19.65 366.04,-29.84 373.03,-29.43"/>
</g>
<!-- Node13 -->
<g id="node13" class="node">
<title>Node13</title>
<g id="a_node13"><a xlink:title=" ">
<polygon fill="none" stroke="#bfbfbf" points="473.5,-56.5 473.5,-86.5 580.5,-86.5 580.5,-56.5 473.5,-56.5"/>
<text text-anchor="start" x="481.5" y="-74.5" font-family="Helvetica,sans-Serif" font-size="10.00">boost/serialization</text>
<text text-anchor="middle" x="527" y="-63.5" font-family="Helvetica,sans-Serif" font-size="10.00">/access.hpp</text>
</a>
</g>
</g>
<!-- Node7&#45;&gt;Node13 -->
<g id="edge12" class="edge">
<title>Node7&#45;&gt;Node13</title>
<path fill="none" stroke="midnightblue" d="M680.35,-123.48C653.96,-114.7 612.1,-100.79 578.78,-89.71"/>
<polygon fill="midnightblue" stroke="midnightblue" points="579.78,-86.36 569.19,-86.52 577.57,-93 579.78,-86.36"/>
</g>
<!-- Node7&#45;&gt;Node14 -->
<g id="edge15" class="edge">
<title>Node7&#45;&gt;Node14</title>
<path fill="none" stroke="midnightblue" d="M749.19,-125.21C792.82,-117.83 861.88,-104.67 920,-87 922.28,-86.31 924.63,-85.53 926.97,-84.7"/>
<polygon fill="midnightblue" stroke="midnightblue" points="928.31,-87.93 936.42,-81.11 925.83,-81.39 928.31,-87.93"/>
</g>
<!-- Node15 -->
<g id="node15" class="node">
<title>Node15</title>
<g id="a_node15"><a xlink:title=" ">
<polygon fill="none" stroke="#bfbfbf" points="598.5,-62 598.5,-81 655.5,-81 655.5,-62 598.5,-62"/>
<text text-anchor="middle" x="627" y="-69" font-family="Helvetica,sans-Serif" font-size="10.00">ostream</text>
</a>
</g>
</g>
<!-- Node7&#45;&gt;Node15 -->
<g id="edge16" class="edge">
<title>Node7&#45;&gt;Node15</title>
<path fill="none" stroke="midnightblue" d="M694.68,-123.48C682.13,-114.02 661.65,-98.6 646.5,-87.19"/>
<polygon fill="midnightblue" stroke="midnightblue" points="648.39,-84.23 638.3,-81.01 644.18,-89.82 648.39,-84.23"/>
</g>
<!-- Node16 -->
<g id="node16" class="node">
<title>Node16</title>
<g id="a_node16"><a xlink:title=" ">
<polygon fill="none" stroke="#bfbfbf" points="673.5,-62 673.5,-81 738.5,-81 738.5,-62 673.5,-62"/>
<text text-anchor="middle" x="706" y="-69" font-family="Helvetica,sans-Serif" font-size="10.00">stdexcept</text>
</a>
</g>
</g>
<!-- Node7&#45;&gt;Node16 -->
<g id="edge17" class="edge">
<title>Node7&#45;&gt;Node16</title>
<path fill="none" stroke="midnightblue" d="M706,-123.48C706,-115.08 706,-101.98 706,-91.16"/>
<polygon fill="midnightblue" stroke="midnightblue" points="709.5,-91.01 706,-81.01 702.5,-91.01 709.5,-91.01"/>
</g>
<!-- Node8&#45;&gt;Node9 -->
<g id="edge8" class="edge">
<title>Node8&#45;&gt;Node9</title>
<path fill="none" stroke="midnightblue" d="M853,-61.98C853,-53.58 853,-40.48 853,-29.66"/>
<polygon fill="midnightblue" stroke="midnightblue" points="856.5,-29.51 853,-19.51 849.5,-29.51 856.5,-29.51"/>
</g>
<!-- Node10&#45;&gt;Node11 -->
<g id="edge10" class="edge">
<title>Node10&#45;&gt;Node11</title>
<path fill="none" stroke="midnightblue" d="M420.4,-61.98C411.14,-52.78 396.18,-37.96 384.79,-26.66"/>
<polygon fill="midnightblue" stroke="midnightblue" points="387.15,-24.07 377.58,-19.51 382.22,-29.04 387.15,-24.07"/>
</g>
<!-- Node12 -->
<g id="node12" class="node">
<title>Node12</title>
<g id="a_node12"><a xlink:title=" ">
<polygon fill="none" stroke="#bfbfbf" points="413.5,-0.5 413.5,-19.5 454.5,-19.5 454.5,-0.5 413.5,-0.5"/>
<text text-anchor="middle" x="434" y="-7.5" font-family="Helvetica,sans-Serif" font-size="10.00">tuple</text>
</a>
</g>
</g>
<!-- Node10&#45;&gt;Node12 -->
<g id="edge11" class="edge">
<title>Node10&#45;&gt;Node12</title>
<path fill="none" stroke="midnightblue" d="M429.72,-61.98C430.42,-53.58 431.52,-40.48 432.43,-29.66"/>
<polygon fill="midnightblue" stroke="midnightblue" points="435.94,-29.77 433.28,-19.51 428.96,-29.18 435.94,-29.77"/>
</g>
</g>
</svg>
