<?xml version="1.0" encoding="UTF-8" standalone="no"?>
<!DOCTYPE svg PUBLIC "-//W3C//DTD SVG 1.1//EN"
 "http://www.w3.org/Graphics/SVG/1.1/DTD/svg11.dtd">
<!-- Generated by graphviz version 2.43.0 (0)
 -->
<!-- Title: lb_particle_coupling.hpp Pages: 1 -->
<svg width="476pt" height="84pt"
 viewBox="0.00 0.00 476.00 84.00" xmlns="http://www.w3.org/2000/svg" xmlns:xlink="http://www.w3.org/1999/xlink">
<g id="graph0" class="graph" transform="scale(1 1) rotate(0) translate(4 80)">
<title>lb_particle_coupling.hpp</title>
<!-- Node1 -->
<g id="node1" class="node">
<title>Node1</title>
<g id="a_node1"><a xlink:title=" ">
<polygon fill="#bfbfbf" stroke="black" points="158,-56.5 158,-75.5 293,-75.5 293,-56.5 158,-56.5"/>
<text text-anchor="middle" x="225.5" y="-63.5" font-family="Helvetica,sans-Serif" font-size="10.00">lb_particle_coupling.hpp</text>
</a>
</g>
</g>
<!-- Node2 -->
<g id="node2" class="node">
<title>Node2</title>
<g id="a_node2"><a xlink:href="forces_8cpp.html" target="_top" xlink:title=" ">
<polygon fill="none" stroke="black" points="0,-0.5 0,-19.5 67,-19.5 67,-0.5 0,-0.5"/>
<text text-anchor="middle" x="33.5" y="-7.5" font-family="Helvetica,sans-Serif" font-size="10.00">forces.cpp</text>
</a>
</g>
</g>
<!-- Node1&#45;&gt;Node2 -->
<g id="edge1" class="edge">
<title>Node1&#45;&gt;Node2</title>
<path fill="none" stroke="midnightblue" d="M185.32,-53.7C149.08,-43.51 96.59,-28.74 63.78,-19.52"/>
<polygon fill="midnightblue" stroke="midnightblue" points="184.5,-57.11 195.08,-56.44 186.4,-50.37 184.5,-57.11"/>
</g>
<!-- Node3 -->
<g id="node3" class="node">
<title>Node3</title>
<g id="a_node3"><a xlink:href="electrokinetics__cuda_8cu.html" target="_top" xlink:title=" ">
<polygon fill="none" stroke="black" points="85,-0.5 85,-19.5 216,-19.5 216,-0.5 85,-0.5"/>
<text text-anchor="middle" x="150.5" y="-7.5" font-family="Helvetica,sans-Serif" font-size="10.00">electrokinetics_cuda.cu</text>
</a>
</g>
</g>
<!-- Node1&#45;&gt;Node3 -->
<g id="edge2" class="edge">
<title>Node1&#45;&gt;Node3</title>
<path fill="none" stroke="midnightblue" d="M205.19,-50.38C191.64,-40.62 174.26,-28.11 162.77,-19.83"/>
<polygon fill="midnightblue" stroke="midnightblue" points="203.29,-53.32 213.45,-56.32 207.38,-47.64 203.29,-53.32"/>
</g>
<!-- Node4 -->
<g id="node4" class="node">
<title>Node4</title>
<g id="a_node4"><a xlink:href="lb__particle__coupling_8cpp.html" target="_top" xlink:title=" ">
<polygon fill="none" stroke="black" points="234.5,-0.5 234.5,-19.5 368.5,-19.5 368.5,-0.5 234.5,-0.5"/>
<text text-anchor="middle" x="301.5" y="-7.5" font-family="Helvetica,sans-Serif" font-size="10.00">lb_particle_coupling.cpp</text>
</a>
</g>
</g>
<!-- Node1&#45;&gt;Node4 -->
<g id="edge3" class="edge">
<title>Node1&#45;&gt;Node4</title>
<path fill="none" stroke="midnightblue" d="M246.08,-50.38C259.81,-40.62 277.43,-28.11 289.07,-19.83"/>
<polygon fill="midnightblue" stroke="midnightblue" points="243.84,-47.68 237.71,-56.32 247.89,-53.38 243.84,-47.68"/>
</g>
<!-- Node5 -->
<g id="node5" class="node">
<title>Node5</title>
<g id="a_node5"><a xlink:href="integrate_8cpp.html" target="_top" xlink:title=" ">
<polygon fill="none" stroke="black" points="387,-0.5 387,-19.5 468,-19.5 468,-0.5 387,-0.5"/>
<text text-anchor="middle" x="427.5" y="-7.5" font-family="Helvetica,sans-Serif" font-size="10.00">integrate.cpp</text>
</a>
</g>
</g>
<!-- Node1&#45;&gt;Node5 -->
<g id="edge4" class="edge">
<title>Node1&#45;&gt;Node5</title>
<path fill="none" stroke="midnightblue" d="M267.29,-53.83C305.43,-43.63 360.98,-28.78 395.64,-19.52"/>
<polygon fill="midnightblue" stroke="midnightblue" points="266.26,-50.48 257.51,-56.44 268.07,-57.24 266.26,-50.48"/>
</g>
</g>
</svg>
