<?xml version="1.0" encoding="UTF-8" standalone="no"?>
<!DOCTYPE svg PUBLIC "-//W3C//DTD SVG 1.1//EN"
 "http://www.w3.org/Graphics/SVG/1.1/DTD/svg11.dtd">
<!-- Generated by graphviz version 2.43.0 (0)
 -->
<!-- Title: lb_interface.hpp Pages: 1 -->
<svg width="1739pt" height="330pt"
 viewBox="0.00 0.00 1738.50 330.00" xmlns="http://www.w3.org/2000/svg" xmlns:xlink="http://www.w3.org/1999/xlink">
<g id="graph0" class="graph" transform="scale(1 1) rotate(0) translate(4 326)">
<title>lb_interface.hpp</title>
<!-- Node1 -->
<g id="node1" class="node">
<title>Node1</title>
<g id="a_node1"><a xlink:title=" ">
<polygon fill="#bfbfbf" stroke="black" points="1015.5,-302.5 1015.5,-321.5 1110.5,-321.5 1110.5,-302.5 1015.5,-302.5"/>
<text text-anchor="middle" x="1063" y="-309.5" font-family="Helvetica,sans-Serif" font-size="10.00">lb_interface.hpp</text>
</a>
</g>
</g>
<!-- Node2 -->
<g id="node2" class="node">
<title>Node2</title>
<g id="a_node2"><a xlink:href="config_8hpp.html" target="_top" xlink:title=" ">
<polygon fill="none" stroke="black" points="431,-241 431,-260 499,-260 499,-241 431,-241"/>
<text text-anchor="middle" x="465" y="-248" font-family="Helvetica,sans-Serif" font-size="10.00">config.hpp</text>
</a>
</g>
</g>
<!-- Node1&#45;&gt;Node2 -->
<g id="edge1" class="edge">
<title>Node1&#45;&gt;Node2</title>
<path fill="none" stroke="midnightblue" d="M1015.33,-306.26C902.21,-295 618.87,-266.81 509.26,-255.9"/>
<polygon fill="midnightblue" stroke="midnightblue" points="509.51,-252.41 499.21,-254.9 508.82,-259.38 509.51,-252.41"/>
</g>
<!-- Node4 -->
<g id="node4" class="node">
<title>Node4</title>
<g id="a_node4"><a xlink:href="lattice_8hpp.html" target="_top" xlink:title=" ">
<polygon fill="none" stroke="black" points="888,-235.5 888,-265.5 1016,-265.5 1016,-235.5 888,-235.5"/>
<text text-anchor="start" x="896" y="-253.5" font-family="Helvetica,sans-Serif" font-size="10.00">grid_based_algorithms</text>
<text text-anchor="middle" x="952" y="-242.5" font-family="Helvetica,sans-Serif" font-size="10.00">/lattice.hpp</text>
</a>
</g>
</g>
<!-- Node1&#45;&gt;Node4 -->
<g id="edge3" class="edge">
<title>Node1&#45;&gt;Node4</title>
<path fill="none" stroke="midnightblue" d="M1047.1,-302.48C1031.5,-294.12 1007.2,-281.09 987.07,-270.3"/>
<polygon fill="midnightblue" stroke="midnightblue" points="988.63,-267.16 978.16,-265.52 985.32,-273.33 988.63,-267.16"/>
</g>
<!-- Node5 -->
<g id="node5" class="node">
<title>Node5</title>
<g id="a_node5"><a xlink:href="Vector_8hpp.html" target="_top" xlink:title=" ">
<polygon fill="none" stroke="black" points="960.5,-179.5 960.5,-198.5 1053.5,-198.5 1053.5,-179.5 960.5,-179.5"/>
<text text-anchor="middle" x="1007" y="-186.5" font-family="Helvetica,sans-Serif" font-size="10.00">utils/Vector.hpp</text>
</a>
</g>
</g>
<!-- Node1&#45;&gt;Node5 -->
<g id="edge30" class="edge">
<title>Node1&#45;&gt;Node5</title>
<path fill="none" stroke="midnightblue" d="M1058.97,-302.3C1049.85,-282.59 1027.46,-234.21 1015.26,-207.84"/>
<polygon fill="midnightblue" stroke="midnightblue" points="1018.37,-206.23 1010.99,-198.62 1012.01,-209.17 1018.37,-206.23"/>
</g>
<!-- Node24 -->
<g id="node24" class="node">
<title>Node24</title>
<g id="a_node24"><a xlink:title=" ">
<polygon fill="none" stroke="#bfbfbf" points="1683.5,-123.5 1683.5,-142.5 1730.5,-142.5 1730.5,-123.5 1683.5,-123.5"/>
<text text-anchor="middle" x="1707" y="-130.5" font-family="Helvetica,sans-Serif" font-size="10.00">vector</text>
</a>
</g>
</g>
<!-- Node1&#45;&gt;Node24 -->
<g id="edge33" class="edge">
<title>Node1&#45;&gt;Node24</title>
<path fill="none" stroke="midnightblue" d="M1064.66,-302.27C1068.21,-286.13 1078.17,-251.76 1101,-235 1306.29,-84.32 1419,-194.58 1673.4,-142.87"/>
<polygon fill="midnightblue" stroke="midnightblue" points="1674.21,-146.28 1683.28,-140.79 1672.78,-139.42 1674.21,-146.28"/>
</g>
<!-- Node25 -->
<g id="node25" class="node">
<title>Node25</title>
<g id="a_node25"><a xlink:title=" ">
<polygon fill="none" stroke="#bfbfbf" points="1110,-241 1110,-260 1160,-260 1160,-241 1110,-241"/>
<text text-anchor="middle" x="1135" y="-248" font-family="Helvetica,sans-Serif" font-size="10.00">cstdint</text>
</a>
</g>
</g>
<!-- Node1&#45;&gt;Node25 -->
<g id="edge31" class="edge">
<title>Node1&#45;&gt;Node25</title>
<path fill="none" stroke="midnightblue" d="M1073.32,-302.48C1084.65,-293.11 1103.07,-277.88 1116.84,-266.51"/>
<polygon fill="midnightblue" stroke="midnightblue" points="1119.22,-269.08 1124.7,-260.01 1114.77,-263.68 1119.22,-269.08"/>
</g>
<!-- Node26 -->
<g id="node26" class="node">
<title>Node26</title>
<g id="a_node26"><a xlink:title=" ">
<polygon fill="none" stroke="#bfbfbf" points="1178,-241 1178,-260 1222,-260 1222,-241 1178,-241"/>
<text text-anchor="middle" x="1200" y="-248" font-family="Helvetica,sans-Serif" font-size="10.00">string</text>
</a>
</g>
</g>
<!-- Node1&#45;&gt;Node26 -->
<g id="edge32" class="edge">
<title>Node1&#45;&gt;Node26</title>
<path fill="none" stroke="midnightblue" d="M1083.81,-302.42C1105.26,-293.53 1139.6,-279.11 1169,-266 1170.19,-265.47 1171.4,-264.92 1172.63,-264.37"/>
<polygon fill="midnightblue" stroke="midnightblue" points="1174.4,-267.41 1182.02,-260.04 1171.47,-261.05 1174.4,-267.41"/>
</g>
<!-- Node3 -->
<g id="node3" class="node">
<title>Node3</title>
<g id="a_node3"><a xlink:title=" ">
<polygon fill="none" stroke="#bfbfbf" points="0,-179.5 0,-198.5 112,-198.5 112,-179.5 0,-179.5"/>
<text text-anchor="middle" x="56" y="-186.5" font-family="Helvetica,sans-Serif" font-size="10.00">config&#45;features.hpp</text>
</a>
</g>
</g>
<!-- Node2&#45;&gt;Node3 -->
<g id="edge2" class="edge">
<title>Node2&#45;&gt;Node3</title>
<path fill="none" stroke="midnightblue" d="M430.83,-244.53C363.06,-234.67 210.54,-212.48 122.37,-199.66"/>
<polygon fill="midnightblue" stroke="midnightblue" points="122.61,-196.15 112.21,-198.18 121.6,-203.08 122.61,-196.15"/>
</g>
<!-- Node4&#45;&gt;Node5 -->
<g id="edge4" class="edge">
<title>Node4&#45;&gt;Node5</title>
<path fill="none" stroke="midnightblue" d="M965.03,-235.4C973.19,-226.58 983.72,-215.18 992.19,-206.02"/>
<polygon fill="midnightblue" stroke="midnightblue" points="994.78,-208.38 999,-198.66 989.64,-203.63 994.78,-208.38"/>
</g>
<!-- Node12 -->
<g id="node12" class="node">
<title>Node12</title>
<g id="a_node12"><a xlink:title=" ">
<polygon fill="none" stroke="#bfbfbf" points="170.5,-0.5 170.5,-19.5 223.5,-19.5 223.5,-0.5 170.5,-0.5"/>
<text text-anchor="middle" x="197" y="-7.5" font-family="Helvetica,sans-Serif" font-size="10.00">cstddef</text>
</a>
</g>
</g>
<!-- Node4&#45;&gt;Node12 -->
<g id="edge29" class="edge">
<title>Node4&#45;&gt;Node12</title>
<path fill="none" stroke="midnightblue" d="M887.95,-243.64C772.97,-232.04 524.71,-201.98 323,-143 261.83,-125.11 226.18,-140.14 191,-87 179.73,-69.98 184.22,-45.89 189.57,-29.42"/>
<polygon fill="midnightblue" stroke="midnightblue" points="192.92,-30.44 193.05,-19.85 186.34,-28.05 192.92,-30.44"/>
</g>
<!-- Node6 -->
<g id="node6" class="node">
<title>Node6</title>
<g id="a_node6"><a xlink:title=" ">
<polygon fill="none" stroke="#bfbfbf" points="1357,-123.5 1357,-142.5 1507,-142.5 1507,-123.5 1357,-123.5"/>
<text text-anchor="middle" x="1432" y="-130.5" font-family="Helvetica,sans-Serif" font-size="10.00">boost/qvm/deduce_vec.hpp</text>
</a>
</g>
</g>
<!-- Node5&#45;&gt;Node6 -->
<g id="edge5" class="edge">
<title>Node5&#45;&gt;Node6</title>
<path fill="none" stroke="midnightblue" d="M1053.61,-181.01C1058.47,-180.31 1063.33,-179.63 1068,-179 1164.27,-165.95 1275.08,-152.47 1348.91,-143.71"/>
<polygon fill="midnightblue" stroke="midnightblue" points="1349.56,-147.16 1359.07,-142.51 1348.73,-140.21 1349.56,-147.16"/>
</g>
<!-- Node7 -->
<g id="node7" class="node">
<title>Node7</title>
<g id="a_node7"><a xlink:title=" ">
<polygon fill="none" stroke="#bfbfbf" points="1525,-123.5 1525,-142.5 1665,-142.5 1665,-123.5 1525,-123.5"/>
<text text-anchor="middle" x="1595" y="-130.5" font-family="Helvetica,sans-Serif" font-size="10.00">boost/qvm/vec_traits.hpp</text>
</a>
</g>
</g>
<!-- Node5&#45;&gt;Node7 -->
<g id="edge6" class="edge">
<title>Node5&#45;&gt;Node7</title>
<path fill="none" stroke="midnightblue" d="M1053.59,-180.8C1058.45,-180.15 1063.32,-179.53 1068,-179 1263.18,-156.78 1315.46,-162.12 1514.59,-143.1"/>
<polygon fill="midnightblue" stroke="midnightblue" points="1515.18,-146.56 1524.8,-142.12 1514.51,-139.6 1515.18,-146.56"/>
</g>
<!-- Node8 -->
<g id="node8" class="node">
<title>Node8</title>
<g id="a_node8"><a xlink:href="Array_8hpp.html" target="_top" xlink:title=" ">
<polygon fill="none" stroke="black" points="511,-123.5 511,-142.5 597,-142.5 597,-123.5 511,-123.5"/>
<text text-anchor="middle" x="554" y="-130.5" font-family="Helvetica,sans-Serif" font-size="10.00">utils/Array.hpp</text>
</a>
</g>
</g>
<!-- Node5&#45;&gt;Node8 -->
<g id="edge7" class="edge">
<title>Node5&#45;&gt;Node8</title>
<path fill="none" stroke="midnightblue" d="M960.23,-182.42C875.42,-172.32 696.8,-151.02 607.38,-140.36"/>
<polygon fill="midnightblue" stroke="midnightblue" points="607.53,-136.86 597.19,-139.15 606.7,-143.81 607.53,-136.86"/>
</g>
<!-- Node10 -->
<g id="node10" class="node">
<title>Node10</title>
<g id="a_node10"><a xlink:title=" ">
<polygon fill="none" stroke="#bfbfbf" points="669,-0.5 669,-19.5 721,-19.5 721,-0.5 669,-0.5"/>
<text text-anchor="middle" x="695" y="-7.5" font-family="Helvetica,sans-Serif" font-size="10.00">cassert</text>
</a>
</g>
</g>
<!-- Node5&#45;&gt;Node10 -->
<g id="edge20" class="edge">
<title>Node5&#45;&gt;Node10</title>
<path fill="none" stroke="midnightblue" d="M960.23,-186.03C926.5,-182.1 882.26,-171.38 855,-143 827.37,-114.24 860.23,-85.14 833,-56 806.64,-27.8 762.42,-17.23 731.14,-13.3"/>
<polygon fill="midnightblue" stroke="midnightblue" points="731.4,-9.81 721.08,-12.2 730.64,-16.76 731.4,-9.81"/>
</g>
<!-- Node5&#45;&gt;Node12 -->
<g id="edge22" class="edge">
<title>Node5&#45;&gt;Node12</title>
<path fill="none" stroke="midnightblue" d="M960.39,-185.48C797.45,-176.23 260.4,-141.78 208,-87 193.56,-71.9 192.68,-46.82 194.16,-29.63"/>
<polygon fill="midnightblue" stroke="midnightblue" points="197.64,-30 195.36,-19.65 190.69,-29.16 197.64,-30"/>
</g>
<!-- Node15 -->
<g id="node15" class="node">
<title>Node15</title>
<g id="a_node15"><a xlink:title=" ">
<polygon fill="none" stroke="#bfbfbf" points="771.5,-62 771.5,-81 824.5,-81 824.5,-62 771.5,-62"/>
<text text-anchor="middle" x="798" y="-69" font-family="Helvetica,sans-Serif" font-size="10.00">iterator</text>
</a>
</g>
</g>
<!-- Node5&#45;&gt;Node15 -->
<g id="edge25" class="edge">
<title>Node5&#45;&gt;Node15</title>
<path fill="none" stroke="midnightblue" d="M960.25,-181.83C912.3,-174.61 842,-161.29 822,-143 807.56,-129.8 801.81,-107.58 799.52,-91.61"/>
<polygon fill="midnightblue" stroke="midnightblue" points="802.95,-90.87 798.38,-81.31 796,-91.63 802.95,-90.87"/>
</g>
<!-- Node18 -->
<g id="node18" class="node">
<title>Node18</title>
<g id="a_node18"><a xlink:title=" ">
<polygon fill="none" stroke="#bfbfbf" points="864,-123.5 864,-142.5 928,-142.5 928,-123.5 864,-123.5"/>
<text text-anchor="middle" x="896" y="-130.5" font-family="Helvetica,sans-Serif" font-size="10.00">algorithm</text>
</a>
</g>
</g>
<!-- Node5&#45;&gt;Node18 -->
<g id="edge19" class="edge">
<title>Node5&#45;&gt;Node18</title>
<path fill="none" stroke="midnightblue" d="M989.17,-179.32C971.28,-170.62 943.52,-157.12 922.95,-147.11"/>
<polygon fill="midnightblue" stroke="midnightblue" points="924.31,-143.88 913.79,-142.65 921.25,-150.18 924.31,-143.88"/>
</g>
<!-- Node19 -->
<g id="node19" class="node">
<title>Node19</title>
<g id="a_node19"><a xlink:title=" ">
<polygon fill="none" stroke="#bfbfbf" points="946.5,-123.5 946.5,-142.5 993.5,-142.5 993.5,-123.5 946.5,-123.5"/>
<text text-anchor="middle" x="970" y="-130.5" font-family="Helvetica,sans-Serif" font-size="10.00">cmath</text>
</a>
</g>
</g>
<!-- Node5&#45;&gt;Node19 -->
<g id="edge21" class="edge">
<title>Node5&#45;&gt;Node19</title>
<path fill="none" stroke="midnightblue" d="M1000.89,-179.08C995.72,-171.53 988.15,-160.49 981.81,-151.23"/>
<polygon fill="midnightblue" stroke="midnightblue" points="984.54,-149.02 976,-142.75 978.76,-152.98 984.54,-149.02"/>
</g>
<!-- Node20 -->
<g id="node20" class="node">
<title>Node20</title>
<g id="a_node20"><a xlink:title=" ">
<polygon fill="none" stroke="#bfbfbf" points="1011.5,-123.5 1011.5,-142.5 1076.5,-142.5 1076.5,-123.5 1011.5,-123.5"/>
<text text-anchor="middle" x="1044" y="-130.5" font-family="Helvetica,sans-Serif" font-size="10.00">functional</text>
</a>
</g>
</g>
<!-- Node5&#45;&gt;Node20 -->
<g id="edge23" class="edge">
<title>Node5&#45;&gt;Node20</title>
<path fill="none" stroke="midnightblue" d="M1013.11,-179.08C1018.28,-171.53 1025.85,-160.49 1032.19,-151.23"/>
<polygon fill="midnightblue" stroke="midnightblue" points="1035.24,-152.98 1038,-142.75 1029.46,-149.02 1035.24,-152.98"/>
</g>
<!-- Node21 -->
<g id="node21" class="node">
<title>Node21</title>
<g id="a_node21"><a xlink:title=" ">
<polygon fill="none" stroke="#bfbfbf" points="1094.5,-123.5 1094.5,-142.5 1177.5,-142.5 1177.5,-123.5 1094.5,-123.5"/>
<text text-anchor="middle" x="1136" y="-130.5" font-family="Helvetica,sans-Serif" font-size="10.00">initializer_list</text>
</a>
</g>
</g>
<!-- Node5&#45;&gt;Node21 -->
<g id="edge24" class="edge">
<title>Node5&#45;&gt;Node21</title>
<path fill="none" stroke="midnightblue" d="M1027.44,-179.44C1048.67,-170.56 1082.1,-156.56 1106.25,-146.45"/>
<polygon fill="midnightblue" stroke="midnightblue" points="1107.78,-149.61 1115.66,-142.52 1105.08,-143.15 1107.78,-149.61"/>
</g>
<!-- Node22 -->
<g id="node22" class="node">
<title>Node22</title>
<g id="a_node22"><a xlink:title=" ">
<polygon fill="none" stroke="#bfbfbf" points="1196,-123.5 1196,-142.5 1252,-142.5 1252,-123.5 1196,-123.5"/>
<text text-anchor="middle" x="1224" y="-130.5" font-family="Helvetica,sans-Serif" font-size="10.00">numeric</text>
</a>
</g>
</g>
<!-- Node5&#45;&gt;Node22 -->
<g id="edge26" class="edge">
<title>Node5&#45;&gt;Node22</title>
<path fill="none" stroke="midnightblue" d="M1041.38,-179.44C1080.83,-169.63 1145.3,-153.59 1186.14,-143.42"/>
<polygon fill="midnightblue" stroke="midnightblue" points="1187.13,-146.78 1195.99,-140.97 1185.44,-139.99 1187.13,-146.78"/>
</g>
<!-- Node23 -->
<g id="node23" class="node">
<title>Node23</title>
<g id="a_node23"><a xlink:title=" ">
<polygon fill="none" stroke="#bfbfbf" points="1270.5,-123.5 1270.5,-142.5 1339.5,-142.5 1339.5,-123.5 1270.5,-123.5"/>
<text text-anchor="middle" x="1305" y="-130.5" font-family="Helvetica,sans-Serif" font-size="10.00">type_traits</text>
</a>
</g>
</g>
<!-- Node5&#45;&gt;Node23 -->
<g id="edge27" class="edge">
<title>Node5&#45;&gt;Node23</title>
<path fill="none" stroke="midnightblue" d="M1053.88,-180.08C1102.81,-171.72 1182.02,-157.95 1260.38,-143.08"/>
<polygon fill="midnightblue" stroke="midnightblue" points="1261.26,-146.47 1270.43,-141.16 1259.95,-139.6 1261.26,-146.47"/>
</g>
<!-- Node5&#45;&gt;Node24 -->
<g id="edge28" class="edge">
<title>Node5&#45;&gt;Node24</title>
<path fill="none" stroke="midnightblue" d="M1053.57,-180.7C1058.44,-180.07 1063.31,-179.48 1068,-179 1333.1,-151.62 1405.99,-185.87 1673.34,-142.72"/>
<polygon fill="midnightblue" stroke="midnightblue" points="1674.03,-146.15 1683.34,-141.08 1672.9,-139.24 1674.03,-146.15"/>
</g>
<!-- Node9 -->
<g id="node9" class="node">
<title>Node9</title>
<g id="a_node9"><a xlink:href="device__qualifier_8hpp.html" target="_top" xlink:title=" ">
<polygon fill="none" stroke="black" points="637,-62 637,-81 753,-81 753,-62 637,-62"/>
<text text-anchor="middle" x="695" y="-69" font-family="Helvetica,sans-Serif" font-size="10.00">device_qualifier.hpp</text>
</a>
</g>
</g>
<!-- Node8&#45;&gt;Node9 -->
<g id="edge8" class="edge">
<title>Node8&#45;&gt;Node9</title>
<path fill="none" stroke="midnightblue" d="M574.2,-123.48C598.07,-113.4 638,-96.55 665.37,-85"/>
<polygon fill="midnightblue" stroke="midnightblue" points="666.98,-88.12 674.84,-81.01 664.26,-81.67 666.98,-88.12"/>
</g>
<!-- Node8&#45;&gt;Node10 -->
<g id="edge14" class="edge">
<title>Node8&#45;&gt;Node10</title>
<path fill="none" stroke="midnightblue" d="M561.26,-123.46C573.97,-108.77 601.41,-78.17 628,-56 641.81,-44.48 658.62,-33.2 671.95,-24.81"/>
<polygon fill="midnightblue" stroke="midnightblue" points="673.87,-27.74 680.54,-19.5 670.19,-21.78 673.87,-27.74"/>
</g>
<!-- Node11 -->
<g id="node11" class="node">
<title>Node11</title>
<g id="a_node11"><a xlink:href="get_8hpp.html" target="_top" xlink:title=" ">
<polygon fill="none" stroke="black" points="527.5,-62 527.5,-81 580.5,-81 580.5,-62 527.5,-62"/>
<text text-anchor="middle" x="554" y="-69" font-family="Helvetica,sans-Serif" font-size="10.00">get.hpp</text>
</a>
</g>
</g>
<!-- Node8&#45;&gt;Node11 -->
<g id="edge10" class="edge">
<title>Node8&#45;&gt;Node11</title>
<path fill="none" stroke="midnightblue" d="M554,-123.48C554,-115.08 554,-101.98 554,-91.16"/>
<polygon fill="midnightblue" stroke="midnightblue" points="557.5,-91.01 554,-81.01 550.5,-91.01 557.5,-91.01"/>
</g>
<!-- Node8&#45;&gt;Node12 -->
<g id="edge15" class="edge">
<title>Node8&#45;&gt;Node12</title>
<path fill="none" stroke="midnightblue" d="M510.83,-130.79C434.18,-127.86 278.3,-118.15 235,-87 215.96,-73.3 205.91,-47.3 201.03,-29.57"/>
<polygon fill="midnightblue" stroke="midnightblue" points="204.41,-28.65 198.63,-19.77 197.61,-30.32 204.41,-28.65"/>
</g>
<!-- Node14 -->
<g id="node14" class="node">
<title>Node14</title>
<g id="a_node14"><a xlink:title=" ">
<polygon fill="none" stroke="#bfbfbf" points="244.5,-56.5 244.5,-86.5 351.5,-86.5 351.5,-56.5 244.5,-56.5"/>
<text text-anchor="start" x="252.5" y="-74.5" font-family="Helvetica,sans-Serif" font-size="10.00">boost/serialization</text>
<text text-anchor="middle" x="298" y="-63.5" font-family="Helvetica,sans-Serif" font-size="10.00">/access.hpp</text>
</a>
</g>
</g>
<!-- Node8&#45;&gt;Node14 -->
<g id="edge13" class="edge">
<title>Node8&#45;&gt;Node14</title>
<path fill="none" stroke="midnightblue" d="M517.17,-123.48C480.2,-114.92 421.34,-101.28 361.73,-87.4"/>
<polygon fill="midnightblue" stroke="midnightblue" points="362.3,-83.94 351.77,-85.08 360.71,-90.76 362.3,-83.94"/>
</g>
<!-- Node8&#45;&gt;Node15 -->
<g id="edge16" class="edge">
<title>Node8&#45;&gt;Node15</title>
<path fill="none" stroke="midnightblue" d="M597.17,-124.87C639.63,-117.35 706.02,-104.19 762,-87 764.28,-86.3 766.62,-85.51 768.96,-84.68"/>
<polygon fill="midnightblue" stroke="midnightblue" points="770.31,-87.92 778.41,-81.09 767.82,-81.37 770.31,-87.92"/>
</g>
<!-- Node16 -->
<g id="node16" class="node">
<title>Node16</title>
<g id="a_node16"><a xlink:title=" ">
<polygon fill="none" stroke="#bfbfbf" points="369.5,-62 369.5,-81 426.5,-81 426.5,-62 369.5,-62"/>
<text text-anchor="middle" x="398" y="-69" font-family="Helvetica,sans-Serif" font-size="10.00">ostream</text>
</a>
</g>
</g>
<!-- Node8&#45;&gt;Node16 -->
<g id="edge17" class="edge">
<title>Node8&#45;&gt;Node16</title>
<path fill="none" stroke="midnightblue" d="M531.16,-123.45C507.18,-114.46 468.39,-99.86 435,-87 433.17,-86.29 431.28,-85.56 429.38,-84.83"/>
<polygon fill="midnightblue" stroke="midnightblue" points="430.48,-81.5 419.9,-81.13 427.94,-88.02 430.48,-81.5"/>
</g>
<!-- Node17 -->
<g id="node17" class="node">
<title>Node17</title>
<g id="a_node17"><a xlink:title=" ">
<polygon fill="none" stroke="#bfbfbf" points="444.5,-62 444.5,-81 509.5,-81 509.5,-62 444.5,-62"/>
<text text-anchor="middle" x="477" y="-69" font-family="Helvetica,sans-Serif" font-size="10.00">stdexcept</text>
</a>
</g>
</g>
<!-- Node8&#45;&gt;Node17 -->
<g id="edge18" class="edge">
<title>Node8&#45;&gt;Node17</title>
<path fill="none" stroke="midnightblue" d="M542.97,-123.48C530.73,-114.02 510.77,-98.6 496.01,-87.19"/>
<polygon fill="midnightblue" stroke="midnightblue" points="498.06,-84.35 488.01,-81.01 493.78,-89.89 498.06,-84.35"/>
</g>
<!-- Node9&#45;&gt;Node10 -->
<g id="edge9" class="edge">
<title>Node9&#45;&gt;Node10</title>
<path fill="none" stroke="midnightblue" d="M695,-61.98C695,-53.58 695,-40.48 695,-29.66"/>
<polygon fill="midnightblue" stroke="midnightblue" points="698.5,-29.51 695,-19.51 691.5,-29.51 698.5,-29.51"/>
</g>
<!-- Node11&#45;&gt;Node12 -->
<g id="edge11" class="edge">
<title>Node11&#45;&gt;Node12</title>
<path fill="none" stroke="midnightblue" d="M535.24,-61.94C529.77,-59.72 523.73,-57.53 518,-56 417.22,-29.07 294.08,-17.55 233.81,-13.24"/>
<polygon fill="midnightblue" stroke="midnightblue" points="233.86,-9.73 223.65,-12.54 233.38,-16.72 233.86,-9.73"/>
</g>
<!-- Node13 -->
<g id="node13" class="node">
<title>Node13</title>
<g id="a_node13"><a xlink:title=" ">
<polygon fill="none" stroke="#bfbfbf" points="533.5,-0.5 533.5,-19.5 574.5,-19.5 574.5,-0.5 533.5,-0.5"/>
<text text-anchor="middle" x="554" y="-7.5" font-family="Helvetica,sans-Serif" font-size="10.00">tuple</text>
</a>
</g>
</g>
<!-- Node11&#45;&gt;Node13 -->
<g id="edge12" class="edge">
<title>Node11&#45;&gt;Node13</title>
<path fill="none" stroke="midnightblue" d="M554,-61.98C554,-53.58 554,-40.48 554,-29.66"/>
<polygon fill="midnightblue" stroke="midnightblue" points="557.5,-29.51 554,-19.51 550.5,-29.51 557.5,-29.51"/>
</g>
</g>
</svg>
