<?xml version="1.0" encoding="UTF-8" standalone="no"?>
<!DOCTYPE svg PUBLIC "-//W3C//DTD SVG 1.1//EN"
 "http://www.w3.org/Graphics/SVG/1.1/DTD/svg11.dtd">
<!-- Generated by graphviz version 2.43.0 (0)
 -->
<!-- Title: LBFluidPressureTensor.hpp Pages: 1 -->
<svg width="1318pt" height="397pt"
 viewBox="0.00 0.00 1317.71 397.00" xmlns="http://www.w3.org/2000/svg" xmlns:xlink="http://www.w3.org/1999/xlink">
<g id="graph0" class="graph" transform="scale(1 1) rotate(0) translate(4 393)">
<title>LBFluidPressureTensor.hpp</title>
<!-- Node1 -->
<g id="node1" class="node">
<title>Node1</title>
<g id="a_node1"><a xlink:title=" ">
<polygon fill="#bfbfbf" stroke="black" points="29.5,-369.5 29.5,-388.5 176.5,-388.5 176.5,-369.5 29.5,-369.5"/>
<text text-anchor="middle" x="103" y="-376.5" font-family="Helvetica,sans-Serif" font-size="10.00">LBFluidPressureTensor.hpp</text>
</a>
</g>
</g>
<!-- Node2 -->
<g id="node2" class="node">
<title>Node2</title>
<g id="a_node2"><a xlink:href="core_2observables_2Observable_8hpp.html" target="_top" xlink:title=" ">
<polygon fill="none" stroke="black" points="113.5,-179.5 113.5,-198.5 206.5,-198.5 206.5,-179.5 113.5,-179.5"/>
<text text-anchor="middle" x="160" y="-186.5" font-family="Helvetica,sans-Serif" font-size="10.00">Observable.hpp</text>
</a>
</g>
</g>
<!-- Node1&#45;&gt;Node2 -->
<g id="edge1" class="edge">
<title>Node1&#45;&gt;Node2</title>
<path fill="none" stroke="midnightblue" d="M105.6,-369.43C114.28,-340.81 142.41,-248.03 154.45,-208.31"/>
<polygon fill="midnightblue" stroke="midnightblue" points="157.84,-209.2 157.39,-198.62 151.14,-207.17 157.84,-209.2"/>
</g>
<!-- Node3 -->
<g id="node3" class="node">
<title>Node3</title>
<g id="a_node3"><a xlink:title=" ">
<polygon fill="none" stroke="#bfbfbf" points="483.5,-0.5 483.5,-19.5 536.5,-19.5 536.5,-0.5 483.5,-0.5"/>
<text text-anchor="middle" x="510" y="-7.5" font-family="Helvetica,sans-Serif" font-size="10.00">cstddef</text>
</a>
</g>
</g>
<!-- Node1&#45;&gt;Node3 -->
<g id="edge40" class="edge">
<title>Node1&#45;&gt;Node3</title>
<path fill="none" stroke="midnightblue" d="M88.24,-369.28C59.76,-351.22 0,-306.73 0,-251.5 0,-251.5 0,-251.5 0,-132 0,-34.71 355.8,-15.53 473.03,-11.85"/>
<polygon fill="midnightblue" stroke="midnightblue" points="473.41,-15.34 483.3,-11.55 473.2,-8.34 473.41,-15.34"/>
</g>
<!-- Node6 -->
<g id="node6" class="node">
<title>Node6</title>
<g id="a_node6"><a xlink:title=" ">
<polygon fill="none" stroke="#bfbfbf" points="28.5,-123.5 28.5,-142.5 75.5,-142.5 75.5,-123.5 28.5,-123.5"/>
<text text-anchor="middle" x="52" y="-130.5" font-family="Helvetica,sans-Serif" font-size="10.00">vector</text>
</a>
</g>
</g>
<!-- Node1&#45;&gt;Node6 -->
<g id="edge41" class="edge">
<title>Node1&#45;&gt;Node6</title>
<path fill="none" stroke="midnightblue" d="M101.18,-369.32C93.83,-334.11 66.12,-201.56 55.86,-152.45"/>
<polygon fill="midnightblue" stroke="midnightblue" points="59.27,-151.65 53.79,-142.58 52.41,-153.08 59.27,-151.65"/>
</g>
<!-- Node7 -->
<g id="node7" class="node">
<title>Node7</title>
<g id="a_node7"><a xlink:href="lb__interface_8hpp.html" target="_top" xlink:title=" ">
<polygon fill="none" stroke="black" points="646,-302.5 646,-332.5 774,-332.5 774,-302.5 646,-302.5"/>
<text text-anchor="start" x="654" y="-320.5" font-family="Helvetica,sans-Serif" font-size="10.00">grid_based_algorithms</text>
<text text-anchor="middle" x="710" y="-309.5" font-family="Helvetica,sans-Serif" font-size="10.00">/lb_interface.hpp</text>
</a>
</g>
</g>
<!-- Node1&#45;&gt;Node7 -->
<g id="edge6" class="edge">
<title>Node1&#45;&gt;Node7</title>
<path fill="none" stroke="midnightblue" d="M176.52,-370.79C292.95,-359.38 518.51,-337.27 635.53,-325.8"/>
<polygon fill="midnightblue" stroke="midnightblue" points="636.21,-329.25 645.82,-324.79 635.53,-322.28 636.21,-329.25"/>
</g>
<!-- Node2&#45;&gt;Node3 -->
<g id="edge2" class="edge">
<title>Node2&#45;&gt;Node3</title>
<path fill="none" stroke="midnightblue" d="M148.81,-179.45C133.47,-166.68 109.3,-142.1 123,-123 164.53,-65.11 385.03,-28.43 473.37,-15.86"/>
<polygon fill="midnightblue" stroke="midnightblue" points="474.04,-19.3 483.46,-14.45 473.07,-12.37 474.04,-19.3"/>
</g>
<!-- Node4 -->
<g id="node4" class="node">
<title>Node4</title>
<g id="a_node4"><a xlink:title=" ">
<polygon fill="none" stroke="#bfbfbf" points="206.5,-123.5 206.5,-142.5 271.5,-142.5 271.5,-123.5 206.5,-123.5"/>
<text text-anchor="middle" x="239" y="-130.5" font-family="Helvetica,sans-Serif" font-size="10.00">functional</text>
</a>
</g>
</g>
<!-- Node2&#45;&gt;Node4 -->
<g id="edge3" class="edge">
<title>Node2&#45;&gt;Node4</title>
<path fill="none" stroke="midnightblue" d="M172.69,-179.32C184.9,-170.98 203.58,-158.21 218,-148.35"/>
<polygon fill="midnightblue" stroke="midnightblue" points="220.06,-151.19 226.34,-142.65 216.11,-145.41 220.06,-151.19"/>
</g>
<!-- Node5 -->
<g id="node5" class="node">
<title>Node5</title>
<g id="a_node5"><a xlink:title=" ">
<polygon fill="none" stroke="#bfbfbf" points="132,-123.5 132,-142.5 188,-142.5 188,-123.5 132,-123.5"/>
<text text-anchor="middle" x="160" y="-130.5" font-family="Helvetica,sans-Serif" font-size="10.00">numeric</text>
</a>
</g>
</g>
<!-- Node2&#45;&gt;Node5 -->
<g id="edge4" class="edge">
<title>Node2&#45;&gt;Node5</title>
<path fill="none" stroke="midnightblue" d="M160,-179.08C160,-172.01 160,-161.86 160,-152.99"/>
<polygon fill="midnightblue" stroke="midnightblue" points="163.5,-152.75 160,-142.75 156.5,-152.75 163.5,-152.75"/>
</g>
<!-- Node2&#45;&gt;Node6 -->
<g id="edge5" class="edge">
<title>Node2&#45;&gt;Node6</title>
<path fill="none" stroke="midnightblue" d="M142.65,-179.32C125.33,-170.66 98.48,-157.24 78.5,-147.25"/>
<polygon fill="midnightblue" stroke="midnightblue" points="79.82,-144 69.31,-142.65 76.69,-150.26 79.82,-144"/>
</g>
<!-- Node7&#45;&gt;Node6 -->
<g id="edge39" class="edge">
<title>Node7&#45;&gt;Node6</title>
<path fill="none" stroke="midnightblue" d="M645.79,-309.71C509.23,-294.37 195.02,-254.03 104,-199 85.13,-187.59 70.28,-166.69 61.36,-151.67"/>
<polygon fill="midnightblue" stroke="midnightblue" points="64.33,-149.8 56.38,-142.8 58.23,-153.23 64.33,-149.8"/>
</g>
<!-- Node8 -->
<g id="node8" class="node">
<title>Node8</title>
<g id="a_node8"><a xlink:href="config_8hpp.html" target="_top" xlink:title=" ">
<polygon fill="none" stroke="black" points="792,-241 792,-260 860,-260 860,-241 792,-241"/>
<text text-anchor="middle" x="826" y="-248" font-family="Helvetica,sans-Serif" font-size="10.00">config.hpp</text>
</a>
</g>
</g>
<!-- Node7&#45;&gt;Node8 -->
<g id="edge7" class="edge">
<title>Node7&#45;&gt;Node8</title>
<path fill="none" stroke="midnightblue" d="M735.17,-302.4C754.98,-291.29 782.42,-275.92 801.94,-264.98"/>
<polygon fill="midnightblue" stroke="midnightblue" points="803.81,-267.95 810.82,-260.01 800.38,-261.84 803.81,-267.95"/>
</g>
<!-- Node10 -->
<g id="node10" class="node">
<title>Node10</title>
<g id="a_node10"><a xlink:href="lattice_8hpp.html" target="_top" xlink:title=" ">
<polygon fill="none" stroke="black" points="646,-235.5 646,-265.5 774,-265.5 774,-235.5 646,-235.5"/>
<text text-anchor="start" x="654" y="-253.5" font-family="Helvetica,sans-Serif" font-size="10.00">grid_based_algorithms</text>
<text text-anchor="middle" x="710" y="-242.5" font-family="Helvetica,sans-Serif" font-size="10.00">/lattice.hpp</text>
</a>
</g>
</g>
<!-- Node7&#45;&gt;Node10 -->
<g id="edge9" class="edge">
<title>Node7&#45;&gt;Node10</title>
<path fill="none" stroke="midnightblue" d="M710,-302.4C710,-294.64 710,-284.81 710,-275.86"/>
<polygon fill="midnightblue" stroke="midnightblue" points="713.5,-275.58 710,-265.58 706.5,-275.58 713.5,-275.58"/>
</g>
<!-- Node11 -->
<g id="node11" class="node">
<title>Node11</title>
<g id="a_node11"><a xlink:href="Vector_8hpp.html" target="_top" xlink:title=" ">
<polygon fill="none" stroke="black" points="617.5,-179.5 617.5,-198.5 710.5,-198.5 710.5,-179.5 617.5,-179.5"/>
<text text-anchor="middle" x="664" y="-186.5" font-family="Helvetica,sans-Serif" font-size="10.00">utils/Vector.hpp</text>
</a>
</g>
</g>
<!-- Node7&#45;&gt;Node11 -->
<g id="edge36" class="edge">
<title>Node7&#45;&gt;Node11</title>
<path fill="none" stroke="midnightblue" d="M676.59,-302.34C661.61,-294.09 645.44,-282.11 637,-266 626.89,-246.72 639.02,-222.82 650.11,-207.03"/>
<polygon fill="midnightblue" stroke="midnightblue" points="653.11,-208.86 656.34,-198.77 647.52,-204.64 653.11,-208.86"/>
</g>
<!-- Node27 -->
<g id="node27" class="node">
<title>Node27</title>
<g id="a_node27"><a xlink:title=" ">
<polygon fill="none" stroke="#bfbfbf" points="878,-241 878,-260 928,-260 928,-241 878,-241"/>
<text text-anchor="middle" x="903" y="-248" font-family="Helvetica,sans-Serif" font-size="10.00">cstdint</text>
</a>
</g>
</g>
<!-- Node7&#45;&gt;Node27 -->
<g id="edge37" class="edge">
<title>Node7&#45;&gt;Node27</title>
<path fill="none" stroke="midnightblue" d="M758.42,-302.44C790.13,-292.9 832.34,-279.6 869,-266 870.65,-265.39 872.35,-264.74 874.05,-264.07"/>
<polygon fill="midnightblue" stroke="midnightblue" points="875.79,-267.14 883.71,-260.1 873.13,-260.66 875.79,-267.14"/>
</g>
<!-- Node28 -->
<g id="node28" class="node">
<title>Node28</title>
<g id="a_node28"><a xlink:title=" ">
<polygon fill="none" stroke="#bfbfbf" points="946,-241 946,-260 990,-260 990,-241 946,-241"/>
<text text-anchor="middle" x="968" y="-248" font-family="Helvetica,sans-Serif" font-size="10.00">string</text>
</a>
</g>
</g>
<!-- Node7&#45;&gt;Node28 -->
<g id="edge38" class="edge">
<title>Node7&#45;&gt;Node28</title>
<path fill="none" stroke="midnightblue" d="M774.14,-306.1C820.17,-297.71 883.3,-284.28 937,-266 938.66,-265.43 940.35,-264.81 942.05,-264.14"/>
<polygon fill="midnightblue" stroke="midnightblue" points="943.77,-267.21 951.54,-260.01 940.98,-260.78 943.77,-267.21"/>
</g>
<!-- Node9 -->
<g id="node9" class="node">
<title>Node9</title>
<g id="a_node9"><a xlink:title=" ">
<polygon fill="none" stroke="#bfbfbf" points="1179,-179.5 1179,-198.5 1291,-198.5 1291,-179.5 1179,-179.5"/>
<text text-anchor="middle" x="1235" y="-186.5" font-family="Helvetica,sans-Serif" font-size="10.00">config&#45;features.hpp</text>
</a>
</g>
</g>
<!-- Node8&#45;&gt;Node9 -->
<g id="edge8" class="edge">
<title>Node8&#45;&gt;Node9</title>
<path fill="none" stroke="midnightblue" d="M848.51,-240.94C855.05,-238.73 862.24,-236.53 869,-235 998.24,-205.67 1033.5,-215.45 1165,-199 1166.27,-198.84 1167.54,-198.68 1168.83,-198.52"/>
<polygon fill="midnightblue" stroke="midnightblue" points="1169.36,-201.98 1178.84,-197.25 1168.48,-195.04 1169.36,-201.98"/>
</g>
<!-- Node10&#45;&gt;Node3 -->
<g id="edge35" class="edge">
<title>Node10&#45;&gt;Node3</title>
<path fill="none" stroke="midnightblue" d="M771.85,-235.42C884.11,-209.61 1111.02,-156.15 1123,-143 1149.18,-114.26 1158.48,-84.46 1132,-56 1111.96,-34.46 677.43,-17.05 546.81,-12.29"/>
<polygon fill="midnightblue" stroke="midnightblue" points="546.65,-8.78 536.53,-11.92 546.4,-15.78 546.65,-8.78"/>
</g>
<!-- Node10&#45;&gt;Node11 -->
<g id="edge10" class="edge">
<title>Node10&#45;&gt;Node11</title>
<path fill="none" stroke="midnightblue" d="M699.1,-235.4C692.41,-226.75 683.82,-215.64 676.82,-206.58"/>
<polygon fill="midnightblue" stroke="midnightblue" points="679.58,-204.43 670.69,-198.66 674.04,-208.71 679.58,-204.43"/>
</g>
<!-- Node11&#45;&gt;Node3 -->
<g id="edge28" class="edge">
<title>Node11&#45;&gt;Node3</title>
<path fill="none" stroke="midnightblue" d="M617.19,-185.28C527.46,-179.58 338.38,-165.07 319,-143 267.27,-84.08 404.42,-38.49 473.29,-19.99"/>
<polygon fill="midnightblue" stroke="midnightblue" points="474.53,-23.28 483.32,-17.36 472.76,-16.51 474.53,-23.28"/>
</g>
<!-- Node11&#45;&gt;Node4 -->
<g id="edge29" class="edge">
<title>Node11&#45;&gt;Node4</title>
<path fill="none" stroke="midnightblue" d="M617.3,-183.51C545.77,-176.4 404.86,-161.43 286,-143 284.54,-142.77 283.05,-142.53 281.55,-142.29"/>
<polygon fill="midnightblue" stroke="midnightblue" points="282.02,-138.81 271.56,-140.54 280.81,-145.71 282.02,-138.81"/>
</g>
<!-- Node11&#45;&gt;Node5 -->
<g id="edge32" class="edge">
<title>Node11&#45;&gt;Node5</title>
<path fill="none" stroke="midnightblue" d="M617.31,-185.71C534.66,-181.17 357.07,-169.28 198.15,-142.97"/>
<polygon fill="midnightblue" stroke="midnightblue" points="198.64,-139.5 188.2,-141.3 197.48,-146.4 198.64,-139.5"/>
</g>
<!-- Node11&#45;&gt;Node6 -->
<g id="edge34" class="edge">
<title>Node11&#45;&gt;Node6</title>
<path fill="none" stroke="midnightblue" d="M617.26,-184.79C523.44,-178.21 305.55,-162.15 123,-143 110.77,-141.72 97.38,-140.08 85.55,-138.55"/>
<polygon fill="midnightblue" stroke="midnightblue" points="86.01,-135.08 75.64,-137.26 85.1,-142.02 86.01,-135.08"/>
</g>
<!-- Node12 -->
<g id="node12" class="node">
<title>Node12</title>
<g id="a_node12"><a xlink:title=" ">
<polygon fill="none" stroke="#bfbfbf" points="328,-123.5 328,-142.5 478,-142.5 478,-123.5 328,-123.5"/>
<text text-anchor="middle" x="403" y="-130.5" font-family="Helvetica,sans-Serif" font-size="10.00">boost/qvm/deduce_vec.hpp</text>
</a>
</g>
</g>
<!-- Node11&#45;&gt;Node12 -->
<g id="edge11" class="edge">
<title>Node11&#45;&gt;Node12</title>
<path fill="none" stroke="midnightblue" d="M622.64,-179.44C576.92,-169.98 503.24,-154.74 453.98,-144.55"/>
<polygon fill="midnightblue" stroke="midnightblue" points="454.66,-141.12 444.16,-142.52 453.25,-147.97 454.66,-141.12"/>
</g>
<!-- Node13 -->
<g id="node13" class="node">
<title>Node13</title>
<g id="a_node13"><a xlink:title=" ">
<polygon fill="none" stroke="#bfbfbf" points="496,-123.5 496,-142.5 636,-142.5 636,-123.5 496,-123.5"/>
<text text-anchor="middle" x="566" y="-130.5" font-family="Helvetica,sans-Serif" font-size="10.00">boost/qvm/vec_traits.hpp</text>
</a>
</g>
</g>
<!-- Node11&#45;&gt;Node13 -->
<g id="edge12" class="edge">
<title>Node11&#45;&gt;Node13</title>
<path fill="none" stroke="midnightblue" d="M648.25,-179.32C632.68,-170.74 608.62,-157.49 590.54,-147.52"/>
<polygon fill="midnightblue" stroke="midnightblue" points="592.15,-144.42 581.71,-142.65 588.78,-150.55 592.15,-144.42"/>
</g>
<!-- Node14 -->
<g id="node14" class="node">
<title>Node14</title>
<g id="a_node14"><a xlink:href="Array_8hpp.html" target="_top" xlink:title=" ">
<polygon fill="none" stroke="black" points="1028,-123.5 1028,-142.5 1114,-142.5 1114,-123.5 1028,-123.5"/>
<text text-anchor="middle" x="1071" y="-130.5" font-family="Helvetica,sans-Serif" font-size="10.00">utils/Array.hpp</text>
</a>
</g>
</g>
<!-- Node11&#45;&gt;Node14 -->
<g id="edge13" class="edge">
<title>Node11&#45;&gt;Node14</title>
<path fill="none" stroke="midnightblue" d="M710.61,-182.77C776.63,-175.22 901.39,-160.4 1017.74,-143.13"/>
<polygon fill="midnightblue" stroke="midnightblue" points="1018.52,-146.55 1027.89,-141.62 1017.49,-139.63 1018.52,-146.55"/>
</g>
<!-- Node16 -->
<g id="node16" class="node">
<title>Node16</title>
<g id="a_node16"><a xlink:title=" ">
<polygon fill="none" stroke="#bfbfbf" points="1211,-0.5 1211,-19.5 1263,-19.5 1263,-0.5 1211,-0.5"/>
<text text-anchor="middle" x="1237" y="-7.5" font-family="Helvetica,sans-Serif" font-size="10.00">cassert</text>
</a>
</g>
</g>
<!-- Node11&#45;&gt;Node16 -->
<g id="edge26" class="edge">
<title>Node11&#45;&gt;Node16</title>
<path fill="none" stroke="midnightblue" d="M710.81,-188.59C846.31,-189.16 1233.74,-182.29 1304,-87 1312.18,-75.91 1310.48,-68.16 1304,-56 1296.45,-41.83 1282.24,-31.33 1268.84,-24.06"/>
<polygon fill="midnightblue" stroke="midnightblue" points="1270.3,-20.87 1259.79,-19.53 1267.17,-27.13 1270.3,-20.87"/>
</g>
<!-- Node20 -->
<g id="node20" class="node">
<title>Node20</title>
<g id="a_node20"><a xlink:title=" ">
<polygon fill="none" stroke="#bfbfbf" points="637.5,-62 637.5,-81 690.5,-81 690.5,-62 637.5,-62"/>
<text text-anchor="middle" x="664" y="-69" font-family="Helvetica,sans-Serif" font-size="10.00">iterator</text>
</a>
</g>
</g>
<!-- Node11&#45;&gt;Node20 -->
<g id="edge31" class="edge">
<title>Node11&#45;&gt;Node20</title>
<path fill="none" stroke="midnightblue" d="M664,-179.32C664,-160.76 664,-116.84 664,-91.47"/>
<polygon fill="midnightblue" stroke="midnightblue" points="667.5,-91.28 664,-81.28 660.5,-91.28 667.5,-91.28"/>
</g>
<!-- Node23 -->
<g id="node23" class="node">
<title>Node23</title>
<g id="a_node23"><a xlink:title=" ">
<polygon fill="none" stroke="#bfbfbf" points="692,-123.5 692,-142.5 756,-142.5 756,-123.5 692,-123.5"/>
<text text-anchor="middle" x="724" y="-130.5" font-family="Helvetica,sans-Serif" font-size="10.00">algorithm</text>
</a>
</g>
</g>
<!-- Node11&#45;&gt;Node23 -->
<g id="edge25" class="edge">
<title>Node11&#45;&gt;Node23</title>
<path fill="none" stroke="midnightblue" d="M673.64,-179.32C682.51,-171.34 695.87,-159.31 706.61,-149.65"/>
<polygon fill="midnightblue" stroke="midnightblue" points="709.09,-152.13 714.18,-142.83 704.41,-146.92 709.09,-152.13"/>
</g>
<!-- Node24 -->
<g id="node24" class="node">
<title>Node24</title>
<g id="a_node24"><a xlink:title=" ">
<polygon fill="none" stroke="#bfbfbf" points="774.5,-123.5 774.5,-142.5 821.5,-142.5 821.5,-123.5 774.5,-123.5"/>
<text text-anchor="middle" x="798" y="-130.5" font-family="Helvetica,sans-Serif" font-size="10.00">cmath</text>
</a>
</g>
</g>
<!-- Node11&#45;&gt;Node24 -->
<g id="edge27" class="edge">
<title>Node11&#45;&gt;Node24</title>
<path fill="none" stroke="midnightblue" d="M685.23,-179.44C707.38,-170.52 742.32,-156.44 767.44,-146.32"/>
<polygon fill="midnightblue" stroke="midnightblue" points="768.9,-149.5 776.87,-142.52 766.28,-143.01 768.9,-149.5"/>
</g>
<!-- Node25 -->
<g id="node25" class="node">
<title>Node25</title>
<g id="a_node25"><a xlink:title=" ">
<polygon fill="none" stroke="#bfbfbf" points="839.5,-123.5 839.5,-142.5 922.5,-142.5 922.5,-123.5 839.5,-123.5"/>
<text text-anchor="middle" x="881" y="-130.5" font-family="Helvetica,sans-Serif" font-size="10.00">initializer_list</text>
</a>
</g>
</g>
<!-- Node11&#45;&gt;Node25 -->
<g id="edge30" class="edge">
<title>Node11&#45;&gt;Node25</title>
<path fill="none" stroke="midnightblue" d="M698.38,-179.44C735.92,-170.1 796.13,-155.12 837.07,-144.93"/>
<polygon fill="midnightblue" stroke="midnightblue" points="837.92,-148.33 846.78,-142.52 836.23,-141.53 837.92,-148.33"/>
</g>
<!-- Node26 -->
<g id="node26" class="node">
<title>Node26</title>
<g id="a_node26"><a xlink:title=" ">
<polygon fill="none" stroke="#bfbfbf" points="940.5,-123.5 940.5,-142.5 1009.5,-142.5 1009.5,-123.5 940.5,-123.5"/>
<text text-anchor="middle" x="975" y="-130.5" font-family="Helvetica,sans-Serif" font-size="10.00">type_traits</text>
</a>
</g>
</g>
<!-- Node11&#45;&gt;Node26 -->
<g id="edge33" class="edge">
<title>Node11&#45;&gt;Node26</title>
<path fill="none" stroke="midnightblue" d="M710.58,-180.76C762.03,-172.63 847.56,-158.74 930.23,-143.28"/>
<polygon fill="midnightblue" stroke="midnightblue" points="931.11,-146.68 940.29,-141.39 929.82,-139.8 931.11,-146.68"/>
</g>
<!-- Node14&#45;&gt;Node3 -->
<g id="edge21" class="edge">
<title>Node14&#45;&gt;Node3</title>
<path fill="none" stroke="midnightblue" d="M1027.89,-124.39C1024.89,-123.91 1021.9,-123.44 1019,-123 894.93,-104.3 854.58,-135.83 739,-87 718.6,-78.38 719.92,-65.67 700,-56 650.03,-31.74 586.19,-20.1 546.71,-14.86"/>
<polygon fill="midnightblue" stroke="midnightblue" points="547.09,-11.38 536.73,-13.61 546.22,-18.33 547.09,-11.38"/>
</g>
<!-- Node15 -->
<g id="node15" class="node">
<title>Node15</title>
<g id="a_node15"><a xlink:href="device__qualifier_8hpp.html" target="_top" xlink:title=" ">
<polygon fill="none" stroke="black" points="1179,-62 1179,-81 1295,-81 1295,-62 1179,-62"/>
<text text-anchor="middle" x="1237" y="-69" font-family="Helvetica,sans-Serif" font-size="10.00">device_qualifier.hpp</text>
</a>
</g>
</g>
<!-- Node14&#45;&gt;Node15 -->
<g id="edge14" class="edge">
<title>Node14&#45;&gt;Node15</title>
<path fill="none" stroke="midnightblue" d="M1094.78,-123.48C1123.38,-113.22 1171.55,-95.96 1203.8,-84.4"/>
<polygon fill="midnightblue" stroke="midnightblue" points="1205.03,-87.68 1213.26,-81.01 1202.67,-81.09 1205.03,-87.68"/>
</g>
<!-- Node14&#45;&gt;Node16 -->
<g id="edge20" class="edge">
<title>Node14&#45;&gt;Node16</title>
<path fill="none" stroke="midnightblue" d="M1049.52,-123.36C1034.61,-116.09 1015.89,-104.12 1007,-87 1000.65,-74.77 998.24,-66.64 1007,-56 1031.1,-26.72 1142.04,-16.22 1200.59,-12.68"/>
<polygon fill="midnightblue" stroke="midnightblue" points="1201.09,-16.16 1210.87,-12.09 1200.69,-9.17 1201.09,-16.16"/>
</g>
<!-- Node17 -->
<g id="node17" class="node">
<title>Node17</title>
<g id="a_node17"><a xlink:href="get_8hpp.html" target="_top" xlink:title=" ">
<polygon fill="none" stroke="black" points="905.5,-62 905.5,-81 958.5,-81 958.5,-62 905.5,-62"/>
<text text-anchor="middle" x="932" y="-69" font-family="Helvetica,sans-Serif" font-size="10.00">get.hpp</text>
</a>
</g>
</g>
<!-- Node14&#45;&gt;Node17 -->
<g id="edge16" class="edge">
<title>Node14&#45;&gt;Node17</title>
<path fill="none" stroke="midnightblue" d="M1051.08,-123.48C1027.55,-113.4 988.19,-96.55 961.21,-85"/>
<polygon fill="midnightblue" stroke="midnightblue" points="962.45,-81.73 951.88,-81.01 959.69,-88.16 962.45,-81.73"/>
</g>
<!-- Node19 -->
<g id="node19" class="node">
<title>Node19</title>
<g id="a_node19"><a xlink:title=" ">
<polygon fill="none" stroke="#bfbfbf" points="1015.5,-56.5 1015.5,-86.5 1122.5,-86.5 1122.5,-56.5 1015.5,-56.5"/>
<text text-anchor="start" x="1023.5" y="-74.5" font-family="Helvetica,sans-Serif" font-size="10.00">boost/serialization</text>
<text text-anchor="middle" x="1069" y="-63.5" font-family="Helvetica,sans-Serif" font-size="10.00">/access.hpp</text>
</a>
</g>
</g>
<!-- Node14&#45;&gt;Node19 -->
<g id="edge19" class="edge">
<title>Node14&#45;&gt;Node19</title>
<path fill="none" stroke="midnightblue" d="M1070.71,-123.48C1070.48,-116.47 1070.13,-106.19 1069.81,-96.7"/>
<polygon fill="midnightblue" stroke="midnightblue" points="1073.31,-96.4 1069.47,-86.52 1066.31,-96.63 1073.31,-96.4"/>
</g>
<!-- Node14&#45;&gt;Node20 -->
<g id="edge22" class="edge">
<title>Node14&#45;&gt;Node20</title>
<path fill="none" stroke="midnightblue" d="M1027.9,-124.34C1024.89,-123.87 1021.9,-123.42 1019,-123 879.96,-103.01 841.86,-118.62 705,-87 701.76,-86.25 698.43,-85.33 695.12,-84.32"/>
<polygon fill="midnightblue" stroke="midnightblue" points="696.03,-80.94 685.43,-81.11 693.82,-87.58 696.03,-80.94"/>
</g>
<!-- Node21 -->
<g id="node21" class="node">
<title>Node21</title>
<g id="a_node21"><a xlink:title=" ">
<polygon fill="none" stroke="#bfbfbf" points="747.5,-62 747.5,-81 804.5,-81 804.5,-62 747.5,-62"/>
<text text-anchor="middle" x="776" y="-69" font-family="Helvetica,sans-Serif" font-size="10.00">ostream</text>
</a>
</g>
</g>
<!-- Node14&#45;&gt;Node21 -->
<g id="edge23" class="edge">
<title>Node14&#45;&gt;Node21</title>
<path fill="none" stroke="midnightblue" d="M1027.93,-124.51C955.43,-111.9 816.58,-87.71 814,-87 811.35,-86.27 808.62,-85.42 805.91,-84.52"/>
<polygon fill="midnightblue" stroke="midnightblue" points="806.87,-81.14 796.27,-81.06 804.5,-87.73 806.87,-81.14"/>
</g>
<!-- Node22 -->
<g id="node22" class="node">
<title>Node22</title>
<g id="a_node22"><a xlink:title=" ">
<polygon fill="none" stroke="#bfbfbf" points="822.5,-62 822.5,-81 887.5,-81 887.5,-62 822.5,-62"/>
<text text-anchor="middle" x="855" y="-69" font-family="Helvetica,sans-Serif" font-size="10.00">stdexcept</text>
</a>
</g>
</g>
<!-- Node14&#45;&gt;Node22 -->
<g id="edge24" class="edge">
<title>Node14&#45;&gt;Node22</title>
<path fill="none" stroke="midnightblue" d="M1034.44,-123.44C999.07,-114.95 944.05,-101.18 897,-87 894.23,-86.17 891.37,-85.26 888.51,-84.33"/>
<polygon fill="midnightblue" stroke="midnightblue" points="889.47,-80.97 878.88,-81.11 887.25,-87.6 889.47,-80.97"/>
</g>
<!-- Node15&#45;&gt;Node16 -->
<g id="edge15" class="edge">
<title>Node15&#45;&gt;Node16</title>
<path fill="none" stroke="midnightblue" d="M1237,-61.98C1237,-53.58 1237,-40.48 1237,-29.66"/>
<polygon fill="midnightblue" stroke="midnightblue" points="1240.5,-29.51 1237,-19.51 1233.5,-29.51 1240.5,-29.51"/>
</g>
<!-- Node17&#45;&gt;Node3 -->
<g id="edge17" class="edge">
<title>Node17&#45;&gt;Node3</title>
<path fill="none" stroke="midnightblue" d="M914.16,-61.99C908.76,-59.72 902.73,-57.49 897,-56 771.22,-23.31 616.25,-14.34 546.75,-11.9"/>
<polygon fill="midnightblue" stroke="midnightblue" points="546.85,-8.4 536.74,-11.57 546.62,-15.4 546.85,-8.4"/>
</g>
<!-- Node18 -->
<g id="node18" class="node">
<title>Node18</title>
<g id="a_node18"><a xlink:title=" ">
<polygon fill="none" stroke="#bfbfbf" points="911.5,-0.5 911.5,-19.5 952.5,-19.5 952.5,-0.5 911.5,-0.5"/>
<text text-anchor="middle" x="932" y="-7.5" font-family="Helvetica,sans-Serif" font-size="10.00">tuple</text>
</a>
</g>
</g>
<!-- Node17&#45;&gt;Node18 -->
<g id="edge18" class="edge">
<title>Node17&#45;&gt;Node18</title>
<path fill="none" stroke="midnightblue" d="M932,-61.98C932,-53.58 932,-40.48 932,-29.66"/>
<polygon fill="midnightblue" stroke="midnightblue" points="935.5,-29.51 932,-19.51 928.5,-29.51 935.5,-29.51"/>
</g>
</g>
</svg>
