<?xml version="1.0" encoding="UTF-8" standalone="no"?>
<!DOCTYPE svg PUBLIC "-//W3C//DTD SVG 1.1//EN"
 "http://www.w3.org/Graphics/SVG/1.1/DTD/svg11.dtd">
<!-- Generated by graphviz version 2.43.0 (0)
 -->
<!-- Title: lbgpu.hpp Pages: 1 -->
<!--zoomable 319 -->
<svg id="main" version="1.1" xmlns="http://www.w3.org/2000/svg" xmlns:xlink="http://www.w3.org/1999/xlink" xml:space="preserve" onload="init(evt)">
<style type="text/css"><![CDATA[
.edge:hover path { stroke: red; }
.edge:hover polygon { stroke: red; fill: red; }
]]></style>
<script type="text/javascript"><![CDATA[
var edges = document.getElementsByTagName('g');
if (edges && edges.length) {
  for (var i=0;i<edges.length;i++) {
    if (edges[i].id.substr(0,4)=='edge') {
      edges[i].setAttribute('class','edge');
    }
  }
}
]]></script>
        <defs>
                <circle id="rim" cx="0" cy="0" r="7"/>
                <circle id="rim2" cx="0" cy="0" r="3.5"/>
                <g id="zoomPlus">
                        <use xlink:href="#rim" fill="#404040">
                                <set attributeName="fill" to="#808080" begin="zoomplus.mouseover" end="zoomplus.mouseout"/>
                        </use>
                        <path d="M-4,0h8M0,-4v8" fill="none" stroke="white" stroke-width="1.5" pointer-events="none"/>
                </g>
                <g id="zoomMin">
                        <use xlink:href="#rim" fill="#404040">
                                <set attributeName="fill" to="#808080" begin="zoomminus.mouseover" end="zoomminus.mouseout"/>
                        </use>
                        <path d="M-4,0h8" fill="none" stroke="white" stroke-width="1.5" pointer-events="none"/>
                </g>
                <g id="dirArrow">
                        <path fill="none" stroke="white" stroke-width="1.5" d="M0,-3.0v7 M-2.5,-0.5L0,-3.0L2.5,-0.5"/>
                </g>
               <g id="resetDef">
                       <use xlink:href="#rim2" fill="#404040">
                               <set attributeName="fill" to="#808080" begin="reset.mouseover" end="reset.mouseout"/>
                       </use>
               </g>
        </defs>

<script type="text/javascript">
var viewWidth = 1587;
var viewHeight = 319;
var sectionId = 'dynsection-0';
</script>
<script xlink:href="svgpan.js"/>
<svg id="graph" class="graph">
<g id="viewport">
<title>lbgpu.hpp</title>
<!-- Node1 -->
<g id="node1" class="node">
<title>Node1</title>
<g id="a_node1"><a xlink:title=" ">
<polygon fill="#bfbfbf" stroke="black" points="247.5,-291.5 247.5,-310.5 312.5,-310.5 312.5,-291.5 247.5,-291.5"/>
<text text-anchor="middle" x="280" y="-298.5" font-family="Helvetica,sans-Serif" font-size="10.00">lbgpu.hpp</text>
</a>
</g>
</g>
<!-- Node2 -->
<g id="node2" class="node">
<title>Node2</title>
<g id="a_node2"><a xlink:href="config_8hpp.html" target="_top" xlink:title=" ">
<polygon fill="none" stroke="black" points="33,-235.5 33,-254.5 101,-254.5 101,-235.5 33,-235.5"/>
<text text-anchor="middle" x="67" y="-242.5" font-family="Helvetica,sans-Serif" font-size="10.00">config.hpp</text>
</a>
</g>
</g>
<!-- Node1&#45;&gt;Node2 -->
<g id="edge1" class="edge">
<title>Node1&#45;&gt;Node2</title>
<path fill="none" stroke="midnightblue" d="M247.19,-291.68C210.5,-282.38 150.94,-267.28 110.42,-257.01"/>
<polygon fill="midnightblue" stroke="midnightblue" points="111.11,-253.57 100.55,-254.51 109.39,-260.36 111.11,-253.57"/>
</g>
<!-- Node4 -->
<g id="node4" class="node">
<title>Node4</title>
<g id="a_node4"><a xlink:href="OptionalCounter_8hpp.html" target="_top" xlink:title=" ">
<polygon fill="none" stroke="black" points="221.5,-235.5 221.5,-254.5 338.5,-254.5 338.5,-235.5 221.5,-235.5"/>
<text text-anchor="middle" x="280" y="-242.5" font-family="Helvetica,sans-Serif" font-size="10.00">OptionalCounter.hpp</text>
</a>
</g>
</g>
<!-- Node1&#45;&gt;Node4 -->
<g id="edge3" class="edge">
<title>Node1&#45;&gt;Node4</title>
<path fill="none" stroke="midnightblue" d="M280,-291.08C280,-284.01 280,-273.86 280,-264.99"/>
<polygon fill="midnightblue" stroke="midnightblue" points="283.5,-264.75 280,-254.75 276.5,-264.75 283.5,-264.75"/>
</g>
<!-- Node7 -->
<g id="node7" class="node">
<title>Node7</title>
<g id="a_node7"><a xlink:title=" ">
<polygon fill="none" stroke="#bfbfbf" points="168,-179.5 168,-198.5 218,-198.5 218,-179.5 168,-179.5"/>
<text text-anchor="middle" x="193" y="-186.5" font-family="Helvetica,sans-Serif" font-size="10.00">cstdint</text>
</a>
</g>
</g>
<!-- Node1&#45;&gt;Node7 -->
<g id="edge41" class="edge">
<title>Node1&#45;&gt;Node7</title>
<path fill="none" stroke="midnightblue" d="M259.92,-291.43C244.66,-283.93 224.26,-271.64 212,-255 202.08,-241.54 197.32,-222.98 195.04,-209.14"/>
<polygon fill="midnightblue" stroke="midnightblue" points="198.46,-208.28 193.66,-198.84 191.52,-209.21 198.46,-208.28"/>
</g>
<!-- Node9 -->
<g id="node9" class="node">
<title>Node9</title>
<g id="a_node9"><a xlink:href="Vector_8hpp.html" target="_top" xlink:title=" ">
<polygon fill="none" stroke="black" points="833.5,-179.5 833.5,-198.5 926.5,-198.5 926.5,-179.5 833.5,-179.5"/>
<text text-anchor="middle" x="880" y="-186.5" font-family="Helvetica,sans-Serif" font-size="10.00">utils/Vector.hpp</text>
</a>
</g>
</g>
<!-- Node1&#45;&gt;Node9 -->
<g id="edge8" class="edge">
<title>Node1&#45;&gt;Node9</title>
<path fill="none" stroke="midnightblue" d="M312.68,-294.01C410.21,-276.13 699.98,-223 823.36,-200.38"/>
<polygon fill="midnightblue" stroke="midnightblue" points="824.16,-203.8 833.36,-198.55 822.89,-196.91 824.16,-203.8"/>
</g>
<!-- Node16 -->
<g id="node16" class="node">
<title>Node16</title>
<g id="a_node16"><a xlink:title=" ">
<polygon fill="none" stroke="#bfbfbf" points="459.5,-0.5 459.5,-19.5 512.5,-19.5 512.5,-0.5 459.5,-0.5"/>
<text text-anchor="middle" x="486" y="-7.5" font-family="Helvetica,sans-Serif" font-size="10.00">cstddef</text>
</a>
</g>
</g>
<!-- Node1&#45;&gt;Node16 -->
<g id="edge40" class="edge">
<title>Node1&#45;&gt;Node16</title>
<path fill="none" stroke="midnightblue" d="M250.65,-291.5C209.6,-277.59 140,-245.79 140,-190 140,-190 140,-190 140,-132 140,-66.96 360.59,-28.64 449.5,-15.84"/>
<polygon fill="midnightblue" stroke="midnightblue" points="450.01,-19.3 459.42,-14.44 449.03,-12.37 450.01,-19.3"/>
</g>
<!-- Node27 -->
<g id="node27" class="node">
<title>Node27</title>
<g id="a_node27"><a xlink:title=" ">
<polygon fill="none" stroke="#bfbfbf" points="410.5,-123.5 410.5,-142.5 457.5,-142.5 457.5,-123.5 410.5,-123.5"/>
<text text-anchor="middle" x="434" y="-130.5" font-family="Helvetica,sans-Serif" font-size="10.00">vector</text>
</a>
</g>
</g>
<!-- Node1&#45;&gt;Node27 -->
<g id="edge42" class="edge">
<title>Node1&#45;&gt;Node27</title>
<path fill="none" stroke="midnightblue" d="M296.98,-291.28C324.62,-276.23 379.23,-242.73 409,-199 418.77,-184.65 425.45,-165.94 429.42,-152.28"/>
<polygon fill="midnightblue" stroke="midnightblue" points="432.81,-153.16 432.04,-142.59 426.06,-151.33 432.81,-153.16"/>
</g>
<!-- Node28 -->
<g id="node28" class="node">
<title>Node28</title>
<g id="a_node28"><a xlink:href="index_8hpp.html" target="_top" xlink:title=" ">
<polygon fill="none" stroke="black" points="1422.5,-235.5 1422.5,-254.5 1511.5,-254.5 1511.5,-235.5 1422.5,-235.5"/>
<text text-anchor="middle" x="1467" y="-242.5" font-family="Helvetica,sans-Serif" font-size="10.00">utils/index.hpp</text>
</a>
</g>
</g>
<!-- Node1&#45;&gt;Node28 -->
<g id="edge33" class="edge">
<title>Node1&#45;&gt;Node28</title>
<path fill="none" stroke="midnightblue" d="M312.67,-298.51C476.18,-291.08 1205.83,-257.88 1412.36,-248.49"/>
<polygon fill="midnightblue" stroke="midnightblue" points="1412.54,-251.98 1422.37,-248.03 1412.22,-244.99 1412.54,-251.98"/>
</g>
<!-- Node3 -->
<g id="node3" class="node">
<title>Node3</title>
<g id="a_node3"><a xlink:title=" ">
<polygon fill="none" stroke="#bfbfbf" points="0,-179.5 0,-198.5 112,-198.5 112,-179.5 0,-179.5"/>
<text text-anchor="middle" x="56" y="-186.5" font-family="Helvetica,sans-Serif" font-size="10.00">config&#45;features.hpp</text>
</a>
</g>
</g>
<!-- Node2&#45;&gt;Node3 -->
<g id="edge2" class="edge">
<title>Node2&#45;&gt;Node3</title>
<path fill="none" stroke="midnightblue" d="M65.18,-235.08C63.73,-227.93 61.63,-217.64 59.81,-208.69"/>
<polygon fill="midnightblue" stroke="midnightblue" points="63.21,-207.85 57.78,-198.75 56.35,-209.25 63.21,-207.85"/>
</g>
<!-- Node5 -->
<g id="node5" class="node">
<title>Node5</title>
<g id="a_node5"><a xlink:href="Counter_8hpp.html" target="_top" xlink:title=" ">
<polygon fill="none" stroke="black" points="300,-179.5 300,-198.5 400,-198.5 400,-179.5 300,-179.5"/>
<text text-anchor="middle" x="350" y="-186.5" font-family="Helvetica,sans-Serif" font-size="10.00">utils/Counter.hpp</text>
</a>
</g>
</g>
<!-- Node4&#45;&gt;Node5 -->
<g id="edge4" class="edge">
<title>Node4&#45;&gt;Node5</title>
<path fill="none" stroke="midnightblue" d="M291.25,-235.32C301.8,-227.18 317.8,-214.84 330.44,-205.09"/>
<polygon fill="midnightblue" stroke="midnightblue" points="332.77,-207.71 338.55,-198.83 328.49,-202.17 332.77,-207.71"/>
</g>
<!-- Node4&#45;&gt;Node7 -->
<g id="edge6" class="edge">
<title>Node4&#45;&gt;Node7</title>
<path fill="none" stroke="midnightblue" d="M266.02,-235.32C252.45,-226.9 231.62,-213.97 215.68,-204.07"/>
<polygon fill="midnightblue" stroke="midnightblue" points="217.29,-200.95 206.94,-198.65 213.59,-206.9 217.29,-200.95"/>
</g>
<!-- Node8 -->
<g id="node8" class="node">
<title>Node8</title>
<g id="a_node8"><a xlink:title=" ">
<polygon fill="none" stroke="#bfbfbf" points="236.5,-179.5 236.5,-198.5 281.5,-198.5 281.5,-179.5 236.5,-179.5"/>
<text text-anchor="middle" x="259" y="-186.5" font-family="Helvetica,sans-Serif" font-size="10.00">utility</text>
</a>
</g>
</g>
<!-- Node4&#45;&gt;Node8 -->
<g id="edge7" class="edge">
<title>Node4&#45;&gt;Node8</title>
<path fill="none" stroke="midnightblue" d="M276.53,-235.08C273.69,-227.77 269.57,-217.18 266.04,-208.1"/>
<polygon fill="midnightblue" stroke="midnightblue" points="269.29,-206.8 262.4,-198.75 262.77,-209.34 269.29,-206.8"/>
</g>
<!-- Node6 -->
<g id="node6" class="node">
<title>Node6</title>
<g id="a_node6"><a xlink:title=" ">
<polygon fill="none" stroke="#bfbfbf" points="563.5,-56.5 563.5,-86.5 670.5,-86.5 670.5,-56.5 563.5,-56.5"/>
<text text-anchor="start" x="571.5" y="-74.5" font-family="Helvetica,sans-Serif" font-size="10.00">boost/serialization</text>
<text text-anchor="middle" x="617" y="-63.5" font-family="Helvetica,sans-Serif" font-size="10.00">/access.hpp</text>
</a>
</g>
</g>
<!-- Node5&#45;&gt;Node6 -->
<g id="edge5" class="edge">
<title>Node5&#45;&gt;Node6</title>
<path fill="none" stroke="midnightblue" d="M354.44,-179.3C362.12,-165.16 379.27,-137.36 402,-123 447.66,-94.16 508.16,-81.77 553.35,-76.45"/>
<polygon fill="midnightblue" stroke="midnightblue" points="553.76,-79.93 563.32,-75.37 553,-72.97 553.76,-79.93"/>
</g>
<!-- Node10 -->
<g id="node10" class="node">
<title>Node10</title>
<g id="a_node10"><a xlink:title=" ">
<polygon fill="none" stroke="#bfbfbf" points="1037,-123.5 1037,-142.5 1187,-142.5 1187,-123.5 1037,-123.5"/>
<text text-anchor="middle" x="1112" y="-130.5" font-family="Helvetica,sans-Serif" font-size="10.00">boost/qvm/deduce_vec.hpp</text>
</a>
</g>
</g>
<!-- Node9&#45;&gt;Node10 -->
<g id="edge9" class="edge">
<title>Node9&#45;&gt;Node10</title>
<path fill="none" stroke="midnightblue" d="M916.76,-179.44C957.06,-170.06 1021.81,-154.99 1065.58,-144.8"/>
<polygon fill="midnightblue" stroke="midnightblue" points="1066.46,-148.19 1075.41,-142.52 1064.88,-141.37 1066.46,-148.19"/>
</g>
<!-- Node11 -->
<g id="node11" class="node">
<title>Node11</title>
<g id="a_node11"><a xlink:title=" ">
<polygon fill="none" stroke="#bfbfbf" points="1205,-123.5 1205,-142.5 1345,-142.5 1345,-123.5 1205,-123.5"/>
<text text-anchor="middle" x="1275" y="-130.5" font-family="Helvetica,sans-Serif" font-size="10.00">boost/qvm/vec_traits.hpp</text>
</a>
</g>
</g>
<!-- Node9&#45;&gt;Node11 -->
<g id="edge10" class="edge">
<title>Node9&#45;&gt;Node11</title>
<path fill="none" stroke="midnightblue" d="M926.86,-181.59C995.06,-172.27 1122.26,-154.88 1202.58,-143.9"/>
<polygon fill="midnightblue" stroke="midnightblue" points="1203.18,-147.35 1212.62,-142.53 1202.23,-140.42 1203.18,-147.35"/>
</g>
<!-- Node12 -->
<g id="node12" class="node">
<title>Node12</title>
<g id="a_node12"><a xlink:href="Array_8hpp.html" target="_top" xlink:title=" ">
<polygon fill="none" stroke="black" points="933,-123.5 933,-142.5 1019,-142.5 1019,-123.5 933,-123.5"/>
<text text-anchor="middle" x="976" y="-130.5" font-family="Helvetica,sans-Serif" font-size="10.00">utils/Array.hpp</text>
</a>
</g>
</g>
<!-- Node9&#45;&gt;Node12 -->
<g id="edge11" class="edge">
<title>Node9&#45;&gt;Node12</title>
<path fill="none" stroke="midnightblue" d="M895.42,-179.32C910.54,-170.82 933.82,-157.73 951.47,-147.8"/>
<polygon fill="midnightblue" stroke="midnightblue" points="953.61,-150.61 960.61,-142.65 950.18,-144.51 953.61,-150.61"/>
</g>
<!-- Node14 -->
<g id="node14" class="node">
<title>Node14</title>
<g id="a_node14"><a xlink:title=" ">
<polygon fill="none" stroke="#bfbfbf" points="1313,-0.5 1313,-19.5 1365,-19.5 1365,-0.5 1313,-0.5"/>
<text text-anchor="middle" x="1339" y="-7.5" font-family="Helvetica,sans-Serif" font-size="10.00">cassert</text>
</a>
</g>
</g>
<!-- Node9&#45;&gt;Node14 -->
<g id="edge24" class="edge">
<title>Node9&#45;&gt;Node14</title>
<path fill="none" stroke="midnightblue" d="M926.66,-186.56C1042.66,-182.59 1337.26,-169.93 1372,-143 1403.36,-118.69 1408.66,-92.01 1392,-56 1386.08,-43.21 1374.53,-32.72 1363.72,-25.1"/>
<polygon fill="midnightblue" stroke="midnightblue" points="1365.62,-22.16 1355.33,-19.61 1361.79,-28.02 1365.62,-22.16"/>
</g>
<!-- Node9&#45;&gt;Node16 -->
<g id="edge26" class="edge">
<title>Node9&#45;&gt;Node16</title>
<path fill="none" stroke="midnightblue" d="M833.47,-185.55C738.25,-180.09 528.13,-165.59 505,-143 474.59,-113.29 478.03,-58.29 482.4,-29.56"/>
<polygon fill="midnightblue" stroke="midnightblue" points="485.87,-30.08 484.12,-19.63 478.97,-28.89 485.87,-30.08"/>
</g>
<!-- Node18 -->
<g id="node18" class="node">
<title>Node18</title>
<g id="a_node18"><a xlink:title=" ">
<polygon fill="none" stroke="#bfbfbf" points="1329.5,-62 1329.5,-81 1382.5,-81 1382.5,-62 1329.5,-62"/>
<text text-anchor="middle" x="1356" y="-69" font-family="Helvetica,sans-Serif" font-size="10.00">iterator</text>
</a>
</g>
</g>
<!-- Node9&#45;&gt;Node18 -->
<g id="edge29" class="edge">
<title>Node9&#45;&gt;Node18</title>
<path fill="none" stroke="midnightblue" d="M926.74,-187C1040.61,-184.11 1325.16,-173.82 1354,-143 1366.78,-129.34 1365.02,-106.88 1361.52,-90.99"/>
<polygon fill="midnightblue" stroke="midnightblue" points="1364.89,-90.02 1358.98,-81.22 1358.11,-91.78 1364.89,-90.02"/>
</g>
<!-- Node21 -->
<g id="node21" class="node">
<title>Node21</title>
<g id="a_node21"><a xlink:title=" ">
<polygon fill="none" stroke="#bfbfbf" points="514,-123.5 514,-142.5 578,-142.5 578,-123.5 514,-123.5"/>
<text text-anchor="middle" x="546" y="-130.5" font-family="Helvetica,sans-Serif" font-size="10.00">algorithm</text>
</a>
</g>
</g>
<!-- Node9&#45;&gt;Node21 -->
<g id="edge23" class="edge">
<title>Node9&#45;&gt;Node21</title>
<path fill="none" stroke="midnightblue" d="M833.33,-181.66C775.57,-173.62 674.26,-158.88 588,-143 587.9,-142.98 587.8,-142.96 587.7,-142.94"/>
<polygon fill="midnightblue" stroke="midnightblue" points="588.55,-139.54 578.07,-141.07 587.21,-146.42 588.55,-139.54"/>
</g>
<!-- Node22 -->
<g id="node22" class="node">
<title>Node22</title>
<g id="a_node22"><a xlink:title=" ">
<polygon fill="none" stroke="#bfbfbf" points="596.5,-123.5 596.5,-142.5 643.5,-142.5 643.5,-123.5 596.5,-123.5"/>
<text text-anchor="middle" x="620" y="-130.5" font-family="Helvetica,sans-Serif" font-size="10.00">cmath</text>
</a>
</g>
</g>
<!-- Node9&#45;&gt;Node22 -->
<g id="edge25" class="edge">
<title>Node9&#45;&gt;Node22</title>
<path fill="none" stroke="midnightblue" d="M833.27,-179.73C789.39,-171.75 721.7,-158.86 653.76,-143.04"/>
<polygon fill="midnightblue" stroke="midnightblue" points="654.28,-139.57 643.74,-140.69 652.68,-146.38 654.28,-139.57"/>
</g>
<!-- Node23 -->
<g id="node23" class="node">
<title>Node23</title>
<g id="a_node23"><a xlink:title=" ">
<polygon fill="none" stroke="#bfbfbf" points="661.5,-123.5 661.5,-142.5 726.5,-142.5 726.5,-123.5 661.5,-123.5"/>
<text text-anchor="middle" x="694" y="-130.5" font-family="Helvetica,sans-Serif" font-size="10.00">functional</text>
</a>
</g>
</g>
<!-- Node9&#45;&gt;Node23 -->
<g id="edge27" class="edge">
<title>Node9&#45;&gt;Node23</title>
<path fill="none" stroke="midnightblue" d="M850.53,-179.44C818.83,-170.24 768.27,-155.56 733.23,-145.39"/>
<polygon fill="midnightblue" stroke="midnightblue" points="733.91,-141.94 723.33,-142.52 731.96,-148.67 733.91,-141.94"/>
</g>
<!-- Node24 -->
<g id="node24" class="node">
<title>Node24</title>
<g id="a_node24"><a xlink:title=" ">
<polygon fill="none" stroke="#bfbfbf" points="744.5,-123.5 744.5,-142.5 827.5,-142.5 827.5,-123.5 744.5,-123.5"/>
<text text-anchor="middle" x="786" y="-130.5" font-family="Helvetica,sans-Serif" font-size="10.00">initializer_list</text>
</a>
</g>
</g>
<!-- Node9&#45;&gt;Node24 -->
<g id="edge28" class="edge">
<title>Node9&#45;&gt;Node24</title>
<path fill="none" stroke="midnightblue" d="M864.9,-179.32C850.1,-170.82 827.31,-157.73 810.02,-147.8"/>
<polygon fill="midnightblue" stroke="midnightblue" points="811.48,-144.6 801.07,-142.65 807.99,-150.67 811.48,-144.6"/>
</g>
<!-- Node25 -->
<g id="node25" class="node">
<title>Node25</title>
<g id="a_node25"><a xlink:title=" ">
<polygon fill="none" stroke="#bfbfbf" points="1439,-123.5 1439,-142.5 1495,-142.5 1495,-123.5 1439,-123.5"/>
<text text-anchor="middle" x="1467" y="-130.5" font-family="Helvetica,sans-Serif" font-size="10.00">numeric</text>
</a>
</g>
</g>
<!-- Node9&#45;&gt;Node25 -->
<g id="edge30" class="edge">
<title>Node9&#45;&gt;Node25</title>
<path fill="none" stroke="midnightblue" d="M926.53,-186.18C1020.94,-182.04 1241.62,-170.1 1425,-143 1426.24,-142.82 1427.51,-142.62 1428.78,-142.41"/>
<polygon fill="midnightblue" stroke="midnightblue" points="1429.42,-145.85 1438.62,-140.6 1428.16,-138.96 1429.42,-145.85"/>
</g>
<!-- Node26 -->
<g id="node26" class="node">
<title>Node26</title>
<g id="a_node26"><a xlink:title=" ">
<polygon fill="none" stroke="#bfbfbf" points="845.5,-123.5 845.5,-142.5 914.5,-142.5 914.5,-123.5 845.5,-123.5"/>
<text text-anchor="middle" x="880" y="-130.5" font-family="Helvetica,sans-Serif" font-size="10.00">type_traits</text>
</a>
</g>
</g>
<!-- Node9&#45;&gt;Node26 -->
<g id="edge31" class="edge">
<title>Node9&#45;&gt;Node26</title>
<path fill="none" stroke="midnightblue" d="M880,-179.08C880,-172.01 880,-161.86 880,-152.99"/>
<polygon fill="midnightblue" stroke="midnightblue" points="883.5,-152.75 880,-142.75 876.5,-152.75 883.5,-152.75"/>
</g>
<!-- Node9&#45;&gt;Node27 -->
<g id="edge32" class="edge">
<title>Node9&#45;&gt;Node27</title>
<path fill="none" stroke="midnightblue" d="M833.24,-184.72C757.13,-178.96 601.91,-165.46 472,-143 470.54,-142.75 469.05,-142.47 467.55,-142.18"/>
<polygon fill="midnightblue" stroke="midnightblue" points="468.13,-138.73 457.62,-140.07 466.68,-145.57 468.13,-138.73"/>
</g>
<!-- Node12&#45;&gt;Node6 -->
<g id="edge17" class="edge">
<title>Node12&#45;&gt;Node6</title>
<path fill="none" stroke="midnightblue" d="M932.87,-124.51C929.87,-123.99 926.89,-123.49 924,-123 839.87,-108.8 742.68,-92.9 680.58,-82.8"/>
<polygon fill="midnightblue" stroke="midnightblue" points="680.97,-79.32 670.54,-81.17 679.85,-86.23 680.97,-79.32"/>
</g>
<!-- Node13 -->
<g id="node13" class="node">
<title>Node13</title>
<g id="a_node13"><a xlink:href="device__qualifier_8hpp.html" target="_top" xlink:title=" ">
<polygon fill="none" stroke="black" points="1089,-62 1089,-81 1205,-81 1205,-62 1089,-62"/>
<text text-anchor="middle" x="1147" y="-69" font-family="Helvetica,sans-Serif" font-size="10.00">device_qualifier.hpp</text>
</a>
</g>
</g>
<!-- Node12&#45;&gt;Node13 -->
<g id="edge12" class="edge">
<title>Node12&#45;&gt;Node13</title>
<path fill="none" stroke="midnightblue" d="M1000.5,-123.48C1029.96,-113.22 1079.58,-95.96 1112.8,-84.4"/>
<polygon fill="midnightblue" stroke="midnightblue" points="1114.25,-87.6 1122.55,-81.01 1111.95,-80.99 1114.25,-87.6"/>
</g>
<!-- Node12&#45;&gt;Node14 -->
<g id="edge18" class="edge">
<title>Node12&#45;&gt;Node14</title>
<path fill="none" stroke="midnightblue" d="M1019.21,-124.24C1085.32,-112.32 1204.95,-90.48 1214,-87 1254.37,-71.5 1296.33,-43 1319.91,-25.65"/>
<polygon fill="midnightblue" stroke="midnightblue" points="1322.09,-28.39 1328,-19.6 1317.9,-22.78 1322.09,-28.39"/>
</g>
<!-- Node15 -->
<g id="node15" class="node">
<title>Node15</title>
<g id="a_node15"><a xlink:href="get_8hpp.html" target="_top" xlink:title=" ">
<polygon fill="none" stroke="black" points="949.5,-62 949.5,-81 1002.5,-81 1002.5,-62 949.5,-62"/>
<text text-anchor="middle" x="976" y="-69" font-family="Helvetica,sans-Serif" font-size="10.00">get.hpp</text>
</a>
</g>
</g>
<!-- Node12&#45;&gt;Node15 -->
<g id="edge14" class="edge">
<title>Node12&#45;&gt;Node15</title>
<path fill="none" stroke="midnightblue" d="M976,-123.48C976,-115.08 976,-101.98 976,-91.16"/>
<polygon fill="midnightblue" stroke="midnightblue" points="979.5,-91.01 976,-81.01 972.5,-91.01 979.5,-91.01"/>
</g>
<!-- Node12&#45;&gt;Node16 -->
<g id="edge19" class="edge">
<title>Node12&#45;&gt;Node16</title>
<path fill="none" stroke="midnightblue" d="M943.65,-123.43C889.29,-109.09 776.12,-79.48 680,-56 625.27,-42.63 561.62,-28.05 522.57,-19.22"/>
<polygon fill="midnightblue" stroke="midnightblue" points="523.25,-15.78 512.72,-16.99 521.7,-22.61 523.25,-15.78"/>
</g>
<!-- Node12&#45;&gt;Node18 -->
<g id="edge20" class="edge">
<title>Node12&#45;&gt;Node18</title>
<path fill="none" stroke="midnightblue" d="M1019.11,-124.44C1022.12,-123.94 1025.1,-123.46 1028,-123 1140.19,-105.31 1168.99,-105.79 1281,-87 1293.57,-84.89 1307.27,-82.32 1319.48,-79.94"/>
<polygon fill="midnightblue" stroke="midnightblue" points="1320.2,-83.36 1329.33,-77.99 1318.84,-76.5 1320.2,-83.36"/>
</g>
<!-- Node19 -->
<g id="node19" class="node">
<title>Node19</title>
<g id="a_node19"><a xlink:title=" ">
<polygon fill="none" stroke="#bfbfbf" points="874.5,-62 874.5,-81 931.5,-81 931.5,-62 874.5,-62"/>
<text text-anchor="middle" x="903" y="-69" font-family="Helvetica,sans-Serif" font-size="10.00">ostream</text>
</a>
</g>
</g>
<!-- Node12&#45;&gt;Node19 -->
<g id="edge21" class="edge">
<title>Node12&#45;&gt;Node19</title>
<path fill="none" stroke="midnightblue" d="M965.54,-123.48C954.05,-114.11 935.37,-98.88 921.41,-87.51"/>
<polygon fill="midnightblue" stroke="midnightblue" points="923.4,-84.61 913.44,-81.01 918.98,-90.04 923.4,-84.61"/>
</g>
<!-- Node20 -->
<g id="node20" class="node">
<title>Node20</title>
<g id="a_node20"><a xlink:title=" ">
<polygon fill="none" stroke="#bfbfbf" points="1472.5,-62 1472.5,-81 1537.5,-81 1537.5,-62 1472.5,-62"/>
<text text-anchor="middle" x="1505" y="-69" font-family="Helvetica,sans-Serif" font-size="10.00">stdexcept</text>
</a>
</g>
</g>
<!-- Node12&#45;&gt;Node20 -->
<g id="edge22" class="edge">
<title>Node12&#45;&gt;Node20</title>
<path fill="none" stroke="midnightblue" d="M1019.09,-124.29C1022.1,-123.83 1025.09,-123.39 1028,-123 1189.09,-101.12 1230.47,-105.35 1392,-87 1415.31,-84.35 1441.27,-81.05 1462.43,-78.26"/>
<polygon fill="midnightblue" stroke="midnightblue" points="1462.94,-81.72 1472.39,-76.94 1462.02,-74.78 1462.94,-81.72"/>
</g>
<!-- Node13&#45;&gt;Node14 -->
<g id="edge13" class="edge">
<title>Node13&#45;&gt;Node14</title>
<path fill="none" stroke="midnightblue" d="M1174.51,-61.98C1208.25,-51.52 1265.55,-33.76 1302.83,-22.21"/>
<polygon fill="midnightblue" stroke="midnightblue" points="1304.26,-25.43 1312.77,-19.13 1302.19,-18.74 1304.26,-25.43"/>
</g>
<!-- Node15&#45;&gt;Node16 -->
<g id="edge15" class="edge">
<title>Node15&#45;&gt;Node16</title>
<path fill="none" stroke="midnightblue" d="M958.18,-61.93C952.77,-59.66 946.74,-57.44 941,-56 789.15,-17.93 601.22,-11.81 522.93,-11.01"/>
<polygon fill="midnightblue" stroke="midnightblue" points="522.65,-7.5 512.62,-10.93 522.59,-14.5 522.65,-7.5"/>
</g>
<!-- Node17 -->
<g id="node17" class="node">
<title>Node17</title>
<g id="a_node17"><a xlink:title=" ">
<polygon fill="none" stroke="#bfbfbf" points="955.5,-0.5 955.5,-19.5 996.5,-19.5 996.5,-0.5 955.5,-0.5"/>
<text text-anchor="middle" x="976" y="-7.5" font-family="Helvetica,sans-Serif" font-size="10.00">tuple</text>
</a>
</g>
</g>
<!-- Node15&#45;&gt;Node17 -->
<g id="edge16" class="edge">
<title>Node15&#45;&gt;Node17</title>
<path fill="none" stroke="midnightblue" d="M976,-61.98C976,-53.58 976,-40.48 976,-29.66"/>
<polygon fill="midnightblue" stroke="midnightblue" points="979.5,-29.51 976,-19.51 972.5,-29.51 979.5,-29.51"/>
</g>
<!-- Node28&#45;&gt;Node9 -->
<g id="edge39" class="edge">
<title>Node28&#45;&gt;Node9</title>
<path fill="none" stroke="midnightblue" d="M1422.4,-239.9C1317.09,-230.21 1053.12,-205.93 936.69,-195.22"/>
<polygon fill="midnightblue" stroke="midnightblue" points="936.84,-191.71 926.56,-194.28 936.2,-198.68 936.84,-191.71"/>
</g>
<!-- Node28&#45;&gt;Node14 -->
<g id="edge34" class="edge">
<title>Node28&#45;&gt;Node14</title>
<path fill="none" stroke="midnightblue" d="M1502.85,-235.4C1521.88,-228.81 1543.63,-217.59 1555,-199 1588.22,-144.7 1589.14,-103.71 1547,-56 1524.7,-30.75 1428.64,-18.64 1375.21,-13.76"/>
<polygon fill="midnightblue" stroke="midnightblue" points="1375.39,-10.27 1365.13,-12.88 1374.78,-17.24 1375.39,-10.27"/>
</g>
<!-- Node28&#45;&gt;Node16 -->
<g id="edge35" class="edge">
<title>Node28&#45;&gt;Node16</title>
<path fill="none" stroke="midnightblue" d="M1422.2,-243.29C1228.57,-239.74 470.28,-220.92 402,-143 368.17,-104.39 430.06,-50.85 464.79,-25.46"/>
<polygon fill="midnightblue" stroke="midnightblue" points="466.85,-28.3 472.96,-19.64 462.78,-22.6 466.85,-28.3"/>
</g>
<!-- Node28&#45;&gt;Node18 -->
<g id="edge36" class="edge">
<title>Node28&#45;&gt;Node18</title>
<path fill="none" stroke="midnightblue" d="M1474.44,-235.25C1491.48,-214.1 1529.95,-159.27 1504,-123 1478.95,-87.98 1428.14,-76.97 1393.09,-73.66"/>
<polygon fill="midnightblue" stroke="midnightblue" points="1393.01,-70.14 1382.77,-72.86 1392.47,-77.12 1393.01,-70.14"/>
</g>
<!-- Node28&#45;&gt;Node20 -->
<g id="edge38" class="edge">
<title>Node28&#45;&gt;Node20</title>
<path fill="none" stroke="midnightblue" d="M1491.47,-235.44C1507.57,-228.38 1527.38,-216.63 1537,-199 1553.19,-169.35 1546.41,-155.44 1537,-123 1533.41,-110.61 1525.76,-98.35 1518.84,-89.01"/>
<polygon fill="midnightblue" stroke="midnightblue" points="1521.52,-86.75 1512.59,-81.04 1516.01,-91.07 1521.52,-86.75"/>
</g>
<!-- Node28&#45;&gt;Node25 -->
<g id="edge37" class="edge">
<title>Node28&#45;&gt;Node25</title>
<path fill="none" stroke="midnightblue" d="M1467,-235.37C1467,-217.62 1467,-176.67 1467,-152.6"/>
<polygon fill="midnightblue" stroke="midnightblue" points="1470.5,-152.59 1467,-142.59 1463.5,-152.59 1470.5,-152.59"/>
</g>
</g>
</svg>
        <g id="navigator" transform="translate(0 0)" fill="#404254">
                <rect fill="#f2f5e9" fill-opacity="0.5" stroke="#606060" stroke-width=".5" x="0" y="0" width="60" height="60"/>
                <use id="zoomplus" xlink:href="#zoomPlus" x="17" y="9" onmousedown="handleZoom(evt,'in')"/>
                <use id="zoomminus" xlink:href="#zoomMin" x="42" y="9" onmousedown="handleZoom(evt,'out')"/>
                <use id="reset" xlink:href="#resetDef" x="30" y="36" onmousedown="handleReset()"/>
                <g id="arrowUp" xlink:href="#dirArrow" transform="translate(30 24)" onmousedown="handlePan(0,-1)">
                  <use xlink:href="#rim" fill="#404040">
                        <set attributeName="fill" to="#808080" begin="arrowUp.mouseover" end="arrowUp.mouseout"/>
                  </use>
                  <path fill="none" stroke="white" stroke-width="1.5" d="M0,-3.0v7 M-2.5,-0.5L0,-3.0L2.5,-0.5"/>
                </g>
                <g id="arrowRight" xlink:href="#dirArrow" transform="rotate(90) translate(36 -43)" onmousedown="handlePan(1,0)">
                  <use xlink:href="#rim" fill="#404040">
                        <set attributeName="fill" to="#808080" begin="arrowRight.mouseover" end="arrowRight.mouseout"/>
                  </use>
                  <path fill="none" stroke="white" stroke-width="1.5" d="M0,-3.0v7 M-2.5,-0.5L0,-3.0L2.5,-0.5"/>
                </g>
                <g id="arrowDown" xlink:href="#dirArrow" transform="rotate(180) translate(-30 -48)" onmousedown="handlePan(0,1)">
                  <use xlink:href="#rim" fill="#404040">
                        <set attributeName="fill" to="#808080" begin="arrowDown.mouseover" end="arrowDown.mouseout"/>
                  </use>
                  <path fill="none" stroke="white" stroke-width="1.5" d="M0,-3.0v7 M-2.5,-0.5L0,-3.0L2.5,-0.5"/>
                </g>
                <g id="arrowLeft" xlink:href="#dirArrow" transform="rotate(270) translate(-36 17)" onmousedown="handlePan(-1,0)">
                  <use xlink:href="#rim" fill="#404040">
                        <set attributeName="fill" to="#808080" begin="arrowLeft.mouseover" end="arrowLeft.mouseout"/>
                  </use>
                  <path fill="none" stroke="white" stroke-width="1.5" d="M0,-3.0v7 M-2.5,-0.5L0,-3.0L2.5,-0.5"/>
                </g>
        </g>
        <svg viewBox="0 0 15 15" width="100%" height="30px" preserveAspectRatio="xMaxYMin meet">
         <g id="arrow_out" transform="scale(0.3 0.3)">
          <a xlink:href="lbgpu_8hpp__incl_org.svg" target="_base">
           <rect id="button" ry="5" rx="5" y="6" x="6" height="38" width="38"
                fill="#f2f5e9" fill-opacity="0.5" stroke="#606060" stroke-width="1.0"/>
           <path id="arrow"
             d="M 11.500037,31.436501 C 11.940474,20.09759 22.043105,11.32322 32.158766,21.979434 L 37.068811,17.246167 C 37.068811,17.246167 37.088388,32 37.088388,32 L 22.160133,31.978069 C 22.160133,31.978069 26.997745,27.140456 26.997745,27.140456 C 18.528582,18.264221 13.291696,25.230495 11.500037,31.436501 z"
             style="fill:#404040;"/>
          </a>
         </g>
        </svg>
</svg>
