<?xml version="1.0" encoding="UTF-8" standalone="no"?>
<!DOCTYPE svg PUBLIC "-//W3C//DTD SVG 1.1//EN"
 "http://www.w3.org/Graphics/SVG/1.1/DTD/svg11.dtd">
<!-- Generated by graphviz version 2.43.0 (0)
 -->
<!-- Title: LBVelocityProfile.hpp Pages: 1 -->
<svg width="2070pt" height="453pt"
 viewBox="0.00 0.00 2070.00 453.00" xmlns="http://www.w3.org/2000/svg" xmlns:xlink="http://www.w3.org/1999/xlink">
<g id="graph0" class="graph" transform="scale(1 1) rotate(0) translate(4 449)">
<title>LBVelocityProfile.hpp</title>
<!-- Node1 -->
<g id="node1" class="node">
<title>Node1</title>
<g id="a_node1"><a xlink:title=" ">
<polygon fill="#bfbfbf" stroke="black" points="1942,-425.5 1942,-444.5 2062,-444.5 2062,-425.5 1942,-425.5"/>
<text text-anchor="middle" x="2002" y="-432.5" font-family="Helvetica,sans-Serif" font-size="10.00">LBVelocityProfile.hpp</text>
</a>
</g>
</g>
<!-- Node2 -->
<g id="node2" class="node">
<title>Node2</title>
<g id="a_node2"><a xlink:href="core_2observables_2LBProfileObservable_8hpp.html" target="_top" xlink:title=" ">
<polygon fill="none" stroke="black" points="1130.5,-369.5 1130.5,-388.5 1267.5,-388.5 1267.5,-369.5 1130.5,-369.5"/>
<text text-anchor="middle" x="1199" y="-376.5" font-family="Helvetica,sans-Serif" font-size="10.00">LBProfileObservable.hpp</text>
</a>
</g>
</g>
<!-- Node1&#45;&gt;Node2 -->
<g id="edge1" class="edge">
<title>Node1&#45;&gt;Node2</title>
<path fill="none" stroke="midnightblue" d="M1941.97,-429.96C1799.01,-420.35 1438.4,-396.1 1278.01,-385.31"/>
<polygon fill="midnightblue" stroke="midnightblue" points="1277.96,-381.8 1267.74,-384.62 1277.49,-388.79 1277.96,-381.8"/>
</g>
<!-- Node5 -->
<g id="node5" class="node">
<title>Node5</title>
<g id="a_node5"><a xlink:title=" ">
<polygon fill="none" stroke="#bfbfbf" points="1346.5,-0.5 1346.5,-19.5 1399.5,-19.5 1399.5,-0.5 1346.5,-0.5"/>
<text text-anchor="middle" x="1373" y="-7.5" font-family="Helvetica,sans-Serif" font-size="10.00">cstddef</text>
</a>
</g>
</g>
<!-- Node1&#45;&gt;Node5 -->
<g id="edge66" class="edge">
<title>Node1&#45;&gt;Node5</title>
<path fill="none" stroke="midnightblue" d="M2007.28,-425.23C2017.73,-407.04 2040,-363.6 2040,-324 2040,-324 2040,-324 2040,-137.5 2040,-68.55 1973.48,-77.59 1908,-56 1815.14,-25.38 1515.18,-14.73 1409.92,-11.88"/>
<polygon fill="midnightblue" stroke="midnightblue" points="1409.87,-8.37 1399.78,-11.61 1409.68,-15.37 1409.87,-8.37"/>
</g>
<!-- Node8 -->
<g id="node8" class="node">
<title>Node8</title>
<g id="a_node8"><a xlink:title=" ">
<polygon fill="none" stroke="#bfbfbf" points="1850.5,-129 1850.5,-148 1897.5,-148 1897.5,-129 1850.5,-129"/>
<text text-anchor="middle" x="1874" y="-136" font-family="Helvetica,sans-Serif" font-size="10.00">vector</text>
</a>
</g>
</g>
<!-- Node1&#45;&gt;Node8 -->
<g id="edge67" class="edge">
<title>Node1&#45;&gt;Node8</title>
<path fill="none" stroke="midnightblue" d="M2002,-425.44C2002,-406.94 2002,-361.81 2002,-324 2002,-324 2002,-324 2002,-266 2002,-210.7 1940.81,-171.4 1903.05,-152.41"/>
<polygon fill="midnightblue" stroke="midnightblue" points="1904.52,-149.23 1894,-148.02 1901.47,-155.53 1904.52,-149.23"/>
</g>
<!-- Node3 -->
<g id="node3" class="node">
<title>Node3</title>
<g id="a_node3"><a xlink:href="core_2observables_2ProfileObservable_8hpp.html" target="_top" xlink:title=" ">
<polygon fill="none" stroke="black" points="1328.5,-257.5 1328.5,-276.5 1453.5,-276.5 1453.5,-257.5 1328.5,-257.5"/>
<text text-anchor="middle" x="1391" y="-264.5" font-family="Helvetica,sans-Serif" font-size="10.00">ProfileObservable.hpp</text>
</a>
</g>
</g>
<!-- Node2&#45;&gt;Node3 -->
<g id="edge2" class="edge">
<title>Node2&#45;&gt;Node3</title>
<path fill="none" stroke="midnightblue" d="M1214.07,-369.37C1247.29,-350.33 1327.09,-304.62 1367.17,-281.65"/>
<polygon fill="midnightblue" stroke="midnightblue" points="1369.07,-284.6 1376,-276.59 1365.59,-278.53 1369.07,-284.6"/>
</g>
<!-- Node2&#45;&gt;Node5 -->
<g id="edge63" class="edge">
<title>Node2&#45;&gt;Node5</title>
<path fill="none" stroke="midnightblue" d="M1267.56,-375.3C1455.33,-366.99 1964,-338.02 1964,-268 1964,-268 1964,-268 1964,-137.5 1964,-23.58 1538.78,-11.9 1409.71,-10.98"/>
<polygon fill="midnightblue" stroke="midnightblue" points="1409.56,-7.48 1399.54,-10.93 1409.52,-14.48 1409.56,-7.48"/>
</g>
<!-- Node2&#45;&gt;Node8 -->
<g id="edge65" class="edge">
<title>Node2&#45;&gt;Node8</title>
<path fill="none" stroke="midnightblue" d="M1267.85,-370.66C1382.01,-356.16 1614.95,-316.53 1787,-221 1817.3,-204.17 1845.19,-174.48 1860.86,-155.96"/>
<polygon fill="midnightblue" stroke="midnightblue" points="1863.68,-158.04 1867.34,-148.1 1858.28,-153.59 1863.68,-158.04"/>
</g>
<!-- Node14 -->
<g id="node14" class="node">
<title>Node14</title>
<g id="a_node14"><a xlink:title=" ">
<polygon fill="none" stroke="#bfbfbf" points="1246,-196 1246,-215 1288,-215 1288,-196 1246,-196"/>
<text text-anchor="middle" x="1267" y="-203" font-family="Helvetica,sans-Serif" font-size="10.00">array</text>
</a>
</g>
</g>
<!-- Node2&#45;&gt;Node14 -->
<g id="edge60" class="edge">
<title>Node2&#45;&gt;Node14</title>
<path fill="none" stroke="midnightblue" d="M1202.47,-369.26C1213.11,-342.42 1245.46,-260.82 1259.91,-224.39"/>
<polygon fill="midnightblue" stroke="midnightblue" points="1263.19,-225.61 1263.62,-215.02 1256.68,-223.03 1263.19,-225.61"/>
</g>
<!-- Node15 -->
<g id="node15" class="node">
<title>Node15</title>
<g id="a_node15"><a xlink:title=" ">
<polygon fill="none" stroke="#bfbfbf" points="1245.5,-62 1245.5,-81 1310.5,-81 1310.5,-62 1245.5,-62"/>
<text text-anchor="middle" x="1278" y="-69" font-family="Helvetica,sans-Serif" font-size="10.00">stdexcept</text>
</a>
</g>
</g>
<!-- Node2&#45;&gt;Node15 -->
<g id="edge64" class="edge">
<title>Node2&#45;&gt;Node15</title>
<path fill="none" stroke="midnightblue" d="M1199.66,-369.46C1201.99,-342.33 1211.09,-256.02 1237,-190 1243.85,-172.55 1251.89,-171.35 1259,-154 1267.41,-133.46 1272.55,-108.42 1275.33,-91.56"/>
<polygon fill="midnightblue" stroke="midnightblue" points="1278.84,-91.76 1276.88,-81.35 1271.92,-90.7 1278.84,-91.76"/>
</g>
<!-- Node17 -->
<g id="node17" class="node">
<title>Node17</title>
<g id="a_node17"><a xlink:href="grid_8hpp.html" target="_top" xlink:title=" ">
<polygon fill="none" stroke="black" points="700,-313.5 700,-332.5 756,-332.5 756,-313.5 700,-313.5"/>
<text text-anchor="middle" x="728" y="-320.5" font-family="Helvetica,sans-Serif" font-size="10.00">grid.hpp</text>
</a>
</g>
</g>
<!-- Node2&#45;&gt;Node17 -->
<g id="edge19" class="edge">
<title>Node2&#45;&gt;Node17</title>
<path fill="none" stroke="midnightblue" d="M1130.26,-370.12C1029.59,-358.58 845.4,-337.46 766.04,-328.36"/>
<polygon fill="midnightblue" stroke="midnightblue" points="766.34,-324.87 756,-327.21 765.54,-331.83 766.34,-324.87"/>
</g>
<!-- Node20 -->
<g id="node20" class="node">
<title>Node20</title>
<g id="a_node20"><a xlink:title=" ">
<polygon fill="none" stroke="#bfbfbf" points="128.5,-129 128.5,-148 175.5,-148 175.5,-129 128.5,-129"/>
<text text-anchor="middle" x="152" y="-136" font-family="Helvetica,sans-Serif" font-size="10.00">cmath</text>
</a>
</g>
</g>
<!-- Node2&#45;&gt;Node20 -->
<g id="edge62" class="edge">
<title>Node2&#45;&gt;Node20</title>
<path fill="none" stroke="midnightblue" d="M1130.31,-372.76C1032.6,-365.11 847.91,-349.95 691,-333 423.03,-304.05 250.3,-441.28 95,-221 78.49,-197.58 107.34,-170.27 129.68,-153.96"/>
<polygon fill="midnightblue" stroke="midnightblue" points="131.91,-156.67 138.11,-148.08 127.91,-150.93 131.91,-156.67"/>
</g>
<!-- Node22 -->
<g id="node22" class="node">
<title>Node22</title>
<g id="a_node22"><a xlink:href="Vector_8hpp.html" target="_top" xlink:title=" ">
<polygon fill="none" stroke="black" points="751.5,-196 751.5,-215 844.5,-215 844.5,-196 751.5,-196"/>
<text text-anchor="middle" x="798" y="-203" font-family="Helvetica,sans-Serif" font-size="10.00">utils/Vector.hpp</text>
</a>
</g>
</g>
<!-- Node2&#45;&gt;Node22 -->
<g id="edge59" class="edge">
<title>Node2&#45;&gt;Node22</title>
<path fill="none" stroke="midnightblue" d="M1179.18,-369.46C1133.16,-349.65 1015.49,-299.03 917,-257 886.52,-243.99 851.61,-229.19 827.52,-218.99"/>
<polygon fill="midnightblue" stroke="midnightblue" points="828.8,-215.73 818.22,-215.05 826.07,-222.18 828.8,-215.73"/>
</g>
<!-- Node27 -->
<g id="node27" class="node">
<title>Node27</title>
<g id="a_node27"><a xlink:title=" ">
<polygon fill="none" stroke="#bfbfbf" points="280,-0.5 280,-19.5 332,-19.5 332,-0.5 280,-0.5"/>
<text text-anchor="middle" x="306" y="-7.5" font-family="Helvetica,sans-Serif" font-size="10.00">cassert</text>
</a>
</g>
</g>
<!-- Node2&#45;&gt;Node27 -->
<g id="edge61" class="edge">
<title>Node2&#45;&gt;Node27</title>
<path fill="none" stroke="midnightblue" d="M1130.28,-377.53C933.16,-375.78 368.36,-367.78 187,-333 100.59,-316.43 0,-355.99 0,-268 0,-268 0,-268 0,-137.5 0,-21.97 188.6,-9.87 269.67,-10.01"/>
<polygon fill="midnightblue" stroke="midnightblue" points="269.88,-13.51 279.91,-10.09 269.94,-6.51 269.88,-13.51"/>
</g>
<!-- Node4 -->
<g id="node4" class="node">
<title>Node4</title>
<g id="a_node4"><a xlink:href="core_2observables_2Observable_8hpp.html" target="_top" xlink:title=" ">
<polygon fill="none" stroke="black" points="1344.5,-196 1344.5,-215 1437.5,-215 1437.5,-196 1344.5,-196"/>
<text text-anchor="middle" x="1391" y="-203" font-family="Helvetica,sans-Serif" font-size="10.00">Observable.hpp</text>
</a>
</g>
</g>
<!-- Node3&#45;&gt;Node4 -->
<g id="edge3" class="edge">
<title>Node3&#45;&gt;Node4</title>
<path fill="none" stroke="midnightblue" d="M1391,-257.48C1391,-249.08 1391,-235.98 1391,-225.16"/>
<polygon fill="midnightblue" stroke="midnightblue" points="1394.5,-225.01 1391,-215.01 1387.5,-225.01 1394.5,-225.01"/>
</g>
<!-- Node3&#45;&gt;Node5 -->
<g id="edge15" class="edge">
<title>Node3&#45;&gt;Node5</title>
<path fill="none" stroke="midnightblue" d="M1453.64,-266.42C1533.08,-265.27 1673.38,-257.55 1787,-221 1852.55,-199.92 1950.41,-176.45 1907,-123 1843.8,-45.17 1520.03,-19.48 1409.8,-12.91"/>
<polygon fill="midnightblue" stroke="midnightblue" points="1410,-9.42 1399.82,-12.33 1409.6,-16.41 1410,-9.42"/>
</g>
<!-- Node3&#45;&gt;Node8 -->
<g id="edge18" class="edge">
<title>Node3&#45;&gt;Node8</title>
<path fill="none" stroke="midnightblue" d="M1453.58,-265.98C1525.45,-264.16 1645.92,-255.54 1743,-221 1786.83,-205.41 1831.48,-173.46 1855.67,-154.53"/>
<polygon fill="midnightblue" stroke="midnightblue" points="1857.97,-157.16 1863.61,-148.19 1853.61,-151.69 1857.97,-157.16"/>
</g>
<!-- Node9 -->
<g id="node9" class="node">
<title>Node9</title>
<g id="a_node9"><a xlink:href="make__lin__space_8hpp.html" target="_top" xlink:title=" ">
<polygon fill="none" stroke="black" points="1620.5,-190.5 1620.5,-220.5 1733.5,-220.5 1733.5,-190.5 1620.5,-190.5"/>
<text text-anchor="start" x="1628.5" y="-208.5" font-family="Helvetica,sans-Serif" font-size="10.00">utils/math/make_lin</text>
<text text-anchor="middle" x="1677" y="-197.5" font-family="Helvetica,sans-Serif" font-size="10.00">_space.hpp</text>
</a>
</g>
</g>
<!-- Node3&#45;&gt;Node9 -->
<g id="edge8" class="edge">
<title>Node3&#45;&gt;Node9</title>
<path fill="none" stroke="midnightblue" d="M1433.62,-257.47C1475.89,-248.97 1542.77,-235.41 1610.49,-221.09"/>
<polygon fill="midnightblue" stroke="midnightblue" points="1611.43,-224.47 1620.49,-218.97 1609.98,-217.62 1611.43,-224.47"/>
</g>
<!-- Node13 -->
<g id="node13" class="node">
<title>Node13</title>
<g id="a_node13"><a xlink:title=" ">
<polygon fill="none" stroke="#bfbfbf" points="1456,-196 1456,-215 1602,-215 1602,-196 1456,-196"/>
<text text-anchor="middle" x="1529" y="-203" font-family="Helvetica,sans-Serif" font-size="10.00">boost/range/algorithm.hpp</text>
</a>
</g>
</g>
<!-- Node3&#45;&gt;Node13 -->
<g id="edge13" class="edge">
<title>Node3&#45;&gt;Node13</title>
<path fill="none" stroke="midnightblue" d="M1410.77,-257.48C1434.14,-247.4 1473.21,-230.55 1500,-219"/>
<polygon fill="midnightblue" stroke="midnightblue" points="1501.47,-222.18 1509.26,-215.01 1498.7,-215.75 1501.47,-222.18"/>
</g>
<!-- Node3&#45;&gt;Node14 -->
<g id="edge14" class="edge">
<title>Node3&#45;&gt;Node14</title>
<path fill="none" stroke="midnightblue" d="M1373.23,-257.48C1352.52,-247.53 1318.05,-230.99 1294.01,-219.46"/>
<polygon fill="midnightblue" stroke="midnightblue" points="1295.26,-216.18 1284.73,-215.01 1292.23,-222.49 1295.26,-216.18"/>
</g>
<!-- Node3&#45;&gt;Node15 -->
<g id="edge16" class="edge">
<title>Node3&#45;&gt;Node15</title>
<path fill="none" stroke="midnightblue" d="M1376.31,-257.34C1363.82,-249.31 1346.17,-236.32 1335,-221 1319.29,-199.46 1294.85,-125.92 1283.79,-91.09"/>
<polygon fill="midnightblue" stroke="midnightblue" points="1287.03,-89.74 1280.69,-81.25 1280.35,-91.84 1287.03,-89.74"/>
</g>
<!-- Node16 -->
<g id="node16" class="node">
<title>Node16</title>
<g id="a_node16"><a xlink:title=" ">
<polygon fill="none" stroke="#bfbfbf" points="232.5,-129 232.5,-148 277.5,-148 277.5,-129 232.5,-129"/>
<text text-anchor="middle" x="255" y="-136" font-family="Helvetica,sans-Serif" font-size="10.00">utility</text>
</a>
</g>
</g>
<!-- Node3&#45;&gt;Node16 -->
<g id="edge17" class="edge">
<title>Node3&#45;&gt;Node16</title>
<path fill="none" stroke="midnightblue" d="M1328.2,-263.29C1212.17,-257.91 956.45,-244.36 742,-221 540.98,-199.1 487.37,-206.11 292,-154 289.34,-153.29 286.61,-152.45 283.9,-151.54"/>
<polygon fill="midnightblue" stroke="midnightblue" points="284.9,-148.18 274.31,-148.02 282.49,-154.75 284.9,-148.18"/>
</g>
<!-- Node4&#45;&gt;Node5 -->
<g id="edge4" class="edge">
<title>Node4&#45;&gt;Node5</title>
<path fill="none" stroke="midnightblue" d="M1388.11,-195.68C1384.98,-185.69 1380.15,-168.87 1378,-154 1371.63,-109.9 1371.73,-57.39 1372.36,-29.91"/>
<polygon fill="midnightblue" stroke="midnightblue" points="1375.87,-29.86 1372.65,-19.76 1368.87,-29.66 1375.87,-29.86"/>
</g>
<!-- Node6 -->
<g id="node6" class="node">
<title>Node6</title>
<g id="a_node6"><a xlink:title=" ">
<polygon fill="none" stroke="#bfbfbf" points="1110.5,-129 1110.5,-148 1175.5,-148 1175.5,-129 1110.5,-129"/>
<text text-anchor="middle" x="1143" y="-136" font-family="Helvetica,sans-Serif" font-size="10.00">functional</text>
</a>
</g>
</g>
<!-- Node4&#45;&gt;Node6 -->
<g id="edge5" class="edge">
<title>Node4&#45;&gt;Node6</title>
<path fill="none" stroke="midnightblue" d="M1351.6,-195.98C1309.93,-186.7 1242.4,-170.9 1185,-154 1182.06,-153.13 1179.02,-152.19 1175.99,-151.21"/>
<polygon fill="midnightblue" stroke="midnightblue" points="1177.02,-147.86 1166.42,-148.01 1174.8,-154.5 1177.02,-147.86"/>
</g>
<!-- Node7 -->
<g id="node7" class="node">
<title>Node7</title>
<g id="a_node7"><a xlink:title=" ">
<polygon fill="none" stroke="#bfbfbf" points="1194,-129 1194,-148 1250,-148 1250,-129 1194,-129"/>
<text text-anchor="middle" x="1222" y="-136" font-family="Helvetica,sans-Serif" font-size="10.00">numeric</text>
</a>
</g>
</g>
<!-- Node4&#45;&gt;Node7 -->
<g id="edge6" class="edge">
<title>Node4&#45;&gt;Node7</title>
<path fill="none" stroke="midnightblue" d="M1368.56,-195.87C1339.18,-184.57 1287.51,-164.7 1254.03,-151.82"/>
<polygon fill="midnightblue" stroke="midnightblue" points="1254.86,-148.39 1244.27,-148.06 1252.34,-154.92 1254.86,-148.39"/>
</g>
<!-- Node4&#45;&gt;Node8 -->
<g id="edge7" class="edge">
<title>Node4&#45;&gt;Node8</title>
<path fill="none" stroke="midnightblue" d="M1420.16,-195.99C1428.74,-193.75 1438.19,-191.53 1447,-190 1620.24,-159.86 1670.74,-197.94 1841,-154 1843.3,-153.41 1845.64,-152.67 1847.97,-151.85"/>
<polygon fill="midnightblue" stroke="midnightblue" points="1849.28,-155.09 1857.25,-148.11 1846.66,-148.6 1849.28,-155.09"/>
</g>
<!-- Node9&#45;&gt;Node5 -->
<g id="edge12" class="edge">
<title>Node9&#45;&gt;Node5</title>
<path fill="none" stroke="midnightblue" d="M1620.15,-191.87C1617.06,-191.22 1613.99,-190.6 1611,-190 1522.43,-172.31 1477.42,-215.2 1411,-154 1392.84,-137.27 1380.52,-65.01 1375.52,-30.07"/>
<polygon fill="midnightblue" stroke="midnightblue" points="1378.93,-29.21 1374.1,-19.78 1372,-30.16 1378.93,-29.21"/>
</g>
<!-- Node10 -->
<g id="node10" class="node">
<title>Node10</title>
<g id="a_node10"><a xlink:title=" ">
<polygon fill="none" stroke="#bfbfbf" points="1704,-123.5 1704,-153.5 1832,-153.5 1832,-123.5 1704,-123.5"/>
<text text-anchor="start" x="1712" y="-141.5" font-family="Helvetica,sans-Serif" font-size="10.00">boost/iterator/counting</text>
<text text-anchor="middle" x="1768" y="-130.5" font-family="Helvetica,sans-Serif" font-size="10.00">_iterator.hpp</text>
</a>
</g>
</g>
<!-- Node9&#45;&gt;Node10 -->
<g id="edge9" class="edge">
<title>Node9&#45;&gt;Node10</title>
<path fill="none" stroke="midnightblue" d="M1696.75,-190.4C1709.39,-181.37 1725.98,-169.51 1739.97,-159.52"/>
<polygon fill="midnightblue" stroke="midnightblue" points="1742.19,-162.24 1748.29,-153.58 1738.12,-156.54 1742.19,-162.24"/>
</g>
<!-- Node11 -->
<g id="node11" class="node">
<title>Node11</title>
<g id="a_node11"><a xlink:title=" ">
<polygon fill="none" stroke="#bfbfbf" points="1420,-123.5 1420,-153.5 1554,-153.5 1554,-123.5 1420,-123.5"/>
<text text-anchor="start" x="1428" y="-141.5" font-family="Helvetica,sans-Serif" font-size="10.00">boost/iterator/transform</text>
<text text-anchor="middle" x="1487" y="-130.5" font-family="Helvetica,sans-Serif" font-size="10.00">_iterator.hpp</text>
</a>
</g>
</g>
<!-- Node9&#45;&gt;Node11 -->
<g id="edge10" class="edge">
<title>Node9&#45;&gt;Node11</title>
<path fill="none" stroke="midnightblue" d="M1635.77,-190.4C1607.02,-180.56 1568.46,-167.37 1537.8,-156.88"/>
<polygon fill="midnightblue" stroke="midnightblue" points="1538.74,-153.5 1528.15,-153.58 1536.48,-160.13 1538.74,-153.5"/>
</g>
<!-- Node12 -->
<g id="node12" class="node">
<title>Node12</title>
<g id="a_node12"><a xlink:title=" ">
<polygon fill="none" stroke="#bfbfbf" points="1572.5,-123.5 1572.5,-153.5 1685.5,-153.5 1685.5,-123.5 1572.5,-123.5"/>
<text text-anchor="start" x="1580.5" y="-141.5" font-family="Helvetica,sans-Serif" font-size="10.00">boost/range/iterator</text>
<text text-anchor="middle" x="1629" y="-130.5" font-family="Helvetica,sans-Serif" font-size="10.00">_range.hpp</text>
</a>
</g>
</g>
<!-- Node9&#45;&gt;Node12 -->
<g id="edge11" class="edge">
<title>Node9&#45;&gt;Node12</title>
<path fill="none" stroke="midnightblue" d="M1666.58,-190.4C1660.42,-182.05 1652.47,-171.29 1645.48,-161.81"/>
<polygon fill="midnightblue" stroke="midnightblue" points="1648.15,-159.54 1639.39,-153.58 1642.52,-163.7 1648.15,-159.54"/>
</g>
<!-- Node18 -->
<g id="node18" class="node">
<title>Node18</title>
<g id="a_node18"><a xlink:href="BoxGeometry_8hpp.html" target="_top" xlink:title=" ">
<polygon fill="none" stroke="black" points="261,-257.5 261,-276.5 365,-276.5 365,-257.5 261,-257.5"/>
<text text-anchor="middle" x="313" y="-264.5" font-family="Helvetica,sans-Serif" font-size="10.00">BoxGeometry.hpp</text>
</a>
</g>
</g>
<!-- Node17&#45;&gt;Node18 -->
<g id="edge20" class="edge">
<title>Node17&#45;&gt;Node18</title>
<path fill="none" stroke="midnightblue" d="M699.8,-318.33C633.51,-309.7 466.48,-287.97 375.1,-276.08"/>
<polygon fill="midnightblue" stroke="midnightblue" points="375.52,-272.61 365.15,-274.79 374.61,-279.55 375.52,-272.61"/>
</g>
<!-- Node17&#45;&gt;Node22 -->
<g id="edge57" class="edge">
<title>Node17&#45;&gt;Node22</title>
<path fill="none" stroke="midnightblue" d="M699.84,-314.36C666.97,-304.01 619.46,-283.71 639,-257 662.19,-225.3 705.43,-213.01 740.97,-208.47"/>
<polygon fill="midnightblue" stroke="midnightblue" points="741.69,-211.91 751.24,-207.34 740.92,-204.95 741.69,-211.91"/>
</g>
<!-- Node37 -->
<g id="node37" class="node">
<title>Node37</title>
<g id="a_node37"><a xlink:href="LocalBox_8hpp.html" target="_top" xlink:title=" ">
<polygon fill="none" stroke="black" points="826,-257.5 826,-276.5 908,-276.5 908,-257.5 826,-257.5"/>
<text text-anchor="middle" x="867" y="-264.5" font-family="Helvetica,sans-Serif" font-size="10.00">LocalBox.hpp</text>
</a>
</g>
</g>
<!-- Node17&#45;&gt;Node37 -->
<g id="edge55" class="edge">
<title>Node17&#45;&gt;Node37</title>
<path fill="none" stroke="midnightblue" d="M750.02,-313.44C773.1,-304.48 809.56,-290.31 835.64,-280.18"/>
<polygon fill="midnightblue" stroke="midnightblue" points="837.02,-283.4 845.08,-276.52 834.49,-276.88 837.02,-283.4"/>
</g>
<!-- Node38 -->
<g id="node38" class="node">
<title>Node38</title>
<g id="a_node38"><a xlink:title=" ">
<polygon fill="none" stroke="#bfbfbf" points="648,-257.5 648,-276.5 808,-276.5 808,-257.5 648,-257.5"/>
<text text-anchor="middle" x="728" y="-264.5" font-family="Helvetica,sans-Serif" font-size="10.00">boost/mpi/communicator.hpp</text>
</a>
</g>
</g>
<!-- Node17&#45;&gt;Node38 -->
<g id="edge58" class="edge">
<title>Node17&#45;&gt;Node38</title>
<path fill="none" stroke="midnightblue" d="M728,-313.08C728,-306.01 728,-295.86 728,-286.99"/>
<polygon fill="midnightblue" stroke="midnightblue" points="731.5,-286.75 728,-276.75 724.5,-286.75 731.5,-286.75"/>
</g>
<!-- Node18&#45;&gt;Node16 -->
<g id="edge54" class="edge">
<title>Node18&#45;&gt;Node16</title>
<path fill="none" stroke="midnightblue" d="M323.36,-257.35C339.24,-243.02 366.31,-213.58 352,-190 344.58,-177.77 312.26,-162.43 286.95,-151.89"/>
<polygon fill="midnightblue" stroke="midnightblue" points="288.23,-148.63 277.65,-148.1 285.59,-155.11 288.23,-148.63"/>
</g>
<!-- Node19 -->
<g id="node19" class="node">
<title>Node19</title>
<g id="a_node19"><a xlink:href="periodic__fold_8hpp.html" target="_top" xlink:title=" ">
<polygon fill="none" stroke="black" points="104,-190.5 104,-220.5 210,-220.5 210,-190.5 104,-190.5"/>
<text text-anchor="start" x="112" y="-208.5" font-family="Helvetica,sans-Serif" font-size="10.00">algorithm/periodic</text>
<text text-anchor="middle" x="157" y="-197.5" font-family="Helvetica,sans-Serif" font-size="10.00">_fold.hpp</text>
</a>
</g>
</g>
<!-- Node18&#45;&gt;Node19 -->
<g id="edge21" class="edge">
<title>Node18&#45;&gt;Node19</title>
<path fill="none" stroke="midnightblue" d="M290.65,-257.48C267.94,-248.81 232.1,-235.15 203.25,-224.14"/>
<polygon fill="midnightblue" stroke="midnightblue" points="204.36,-220.82 193.77,-220.52 201.86,-227.36 204.36,-220.82"/>
</g>
<!-- Node18&#45;&gt;Node20 -->
<g id="edge52" class="edge">
<title>Node18&#45;&gt;Node20</title>
<path fill="none" stroke="midnightblue" d="M302.25,-257.4C290.96,-248.36 272.7,-233.71 257,-221 240.06,-207.28 236.15,-203.45 219,-190 203.39,-177.76 185.43,-164.25 172.04,-154.29"/>
<polygon fill="midnightblue" stroke="midnightblue" points="174.08,-151.45 163.97,-148.3 169.91,-157.07 174.08,-151.45"/>
</g>
<!-- Node21 -->
<g id="node21" class="node">
<title>Node21</title>
<g id="a_node21"><a xlink:title=" ">
<polygon fill="none" stroke="#bfbfbf" points="58,-129 58,-148 102,-148 102,-129 58,-129"/>
<text text-anchor="middle" x="80" y="-136" font-family="Helvetica,sans-Serif" font-size="10.00">limits</text>
</a>
</g>
</g>
<!-- Node18&#45;&gt;Node21 -->
<g id="edge53" class="edge">
<title>Node18&#45;&gt;Node21</title>
<path fill="none" stroke="midnightblue" d="M260.97,-261.88C203.98,-256.26 117.64,-244.13 95,-221 78.83,-204.48 77.05,-176.6 77.96,-158.12"/>
<polygon fill="midnightblue" stroke="midnightblue" points="81.46,-158.26 78.78,-148.02 74.49,-157.7 81.46,-158.26"/>
</g>
<!-- Node18&#45;&gt;Node22 -->
<g id="edge25" class="edge">
<title>Node18&#45;&gt;Node22</title>
<path fill="none" stroke="midnightblue" d="M365.36,-259.58C457.18,-248.31 646.44,-225.09 741.26,-213.46"/>
<polygon fill="midnightblue" stroke="midnightblue" points="741.74,-216.93 751.24,-212.24 740.89,-209.98 741.74,-216.93"/>
</g>
<!-- Node18&#45;&gt;Node27 -->
<g id="edge51" class="edge">
<title>Node18&#45;&gt;Node27</title>
<path fill="none" stroke="midnightblue" d="M317.05,-257.09C323.29,-241.85 333.17,-210.45 319,-190 293.04,-152.55 248.96,-191.45 223,-154 192.08,-109.38 252.13,-52.65 285.62,-26.05"/>
<polygon fill="midnightblue" stroke="midnightblue" points="288.11,-28.55 293.88,-19.67 283.83,-23.02 288.11,-28.55"/>
</g>
<!-- Node36 -->
<g id="node36" class="node">
<title>Node36</title>
<g id="a_node36"><a xlink:title=" ">
<polygon fill="none" stroke="#bfbfbf" points="266,-196 266,-215 310,-215 310,-196 266,-196"/>
<text text-anchor="middle" x="288" y="-203" font-family="Helvetica,sans-Serif" font-size="10.00">bitset</text>
</a>
</g>
</g>
<!-- Node18&#45;&gt;Node36 -->
<g id="edge50" class="edge">
<title>Node18&#45;&gt;Node36</title>
<path fill="none" stroke="midnightblue" d="M309.42,-257.48C305.82,-248.9 300.15,-235.43 295.56,-224.48"/>
<polygon fill="midnightblue" stroke="midnightblue" points="298.68,-222.87 291.58,-215.01 292.22,-225.58 298.68,-222.87"/>
</g>
<!-- Node19&#45;&gt;Node16 -->
<g id="edge24" class="edge">
<title>Node19&#45;&gt;Node16</title>
<path fill="none" stroke="midnightblue" d="M178.26,-190.4C194.7,-179.5 217.34,-164.48 233.77,-153.58"/>
<polygon fill="midnightblue" stroke="midnightblue" points="235.78,-156.45 242.17,-148.01 231.91,-150.62 235.78,-156.45"/>
</g>
<!-- Node19&#45;&gt;Node20 -->
<g id="edge22" class="edge">
<title>Node19&#45;&gt;Node20</title>
<path fill="none" stroke="midnightblue" d="M155.92,-190.4C155.19,-180.96 154.23,-168.45 153.44,-158.19"/>
<polygon fill="midnightblue" stroke="midnightblue" points="156.93,-157.9 152.67,-148.19 149.95,-158.43 156.93,-157.9"/>
</g>
<!-- Node19&#45;&gt;Node21 -->
<g id="edge23" class="edge">
<title>Node19&#45;&gt;Node21</title>
<path fill="none" stroke="midnightblue" d="M140.29,-190.4C127.81,-179.86 110.77,-165.48 97.99,-154.69"/>
<polygon fill="midnightblue" stroke="midnightblue" points="100.2,-151.97 90.3,-148.19 95.68,-157.32 100.2,-151.97"/>
</g>
<!-- Node22&#45;&gt;Node5 -->
<g id="edge43" class="edge">
<title>Node22&#45;&gt;Node5</title>
<path fill="none" stroke="midnightblue" d="M844.65,-202.52C899.3,-198.68 991.48,-187.35 1063,-154 1082.75,-144.79 1082.68,-134.81 1101,-123 1157.3,-86.71 1174.02,-81.41 1236,-56 1269.42,-42.3 1308.69,-29.75 1336.59,-21.4"/>
<polygon fill="midnightblue" stroke="midnightblue" points="1337.73,-24.72 1346.33,-18.52 1335.75,-18 1337.73,-24.72"/>
</g>
<!-- Node22&#45;&gt;Node6 -->
<g id="edge44" class="edge">
<title>Node22&#45;&gt;Node6</title>
<path fill="none" stroke="midnightblue" d="M844.58,-198.54C903.55,-190.55 1008.07,-174.92 1096,-154 1099.82,-153.09 1103.78,-152.04 1107.71,-150.93"/>
<polygon fill="midnightblue" stroke="midnightblue" points="1108.71,-154.28 1117.31,-148.09 1106.73,-147.57 1108.71,-154.28"/>
</g>
<!-- Node22&#45;&gt;Node7 -->
<g id="edge47" class="edge">
<title>Node22&#45;&gt;Node7</title>
<path fill="none" stroke="midnightblue" d="M844.71,-201.93C917.96,-197.11 1063.92,-184.32 1184,-154 1186.82,-153.29 1189.72,-152.43 1192.6,-151.49"/>
<polygon fill="midnightblue" stroke="midnightblue" points="1193.93,-154.73 1202.17,-148.07 1191.57,-148.14 1193.93,-154.73"/>
</g>
<!-- Node22&#45;&gt;Node8 -->
<g id="edge49" class="edge">
<title>Node22&#45;&gt;Node8</title>
<path fill="none" stroke="midnightblue" d="M844.72,-202.71C1041.11,-195.14 1791.95,-165.55 1841,-154 1843.36,-153.44 1845.77,-152.72 1848.15,-151.9"/>
<polygon fill="midnightblue" stroke="midnightblue" points="1849.64,-155.07 1857.62,-148.1 1847.04,-148.57 1849.64,-155.07"/>
</g>
<!-- Node22&#45;&gt;Node20 -->
<g id="edge42" class="edge">
<title>Node22&#45;&gt;Node20</title>
<path fill="none" stroke="midnightblue" d="M751.21,-202.2C652.95,-196.97 418.11,-182.4 223,-154 210.67,-152.21 197.26,-149.63 185.45,-147.15"/>
<polygon fill="midnightblue" stroke="midnightblue" points="186.06,-143.7 175.55,-145.01 184.58,-150.54 186.06,-143.7"/>
</g>
<!-- Node23 -->
<g id="node23" class="node">
<title>Node23</title>
<g id="a_node23"><a xlink:title=" ">
<polygon fill="none" stroke="#bfbfbf" points="560,-129 560,-148 710,-148 710,-129 560,-129"/>
<text text-anchor="middle" x="635" y="-136" font-family="Helvetica,sans-Serif" font-size="10.00">boost/qvm/deduce_vec.hpp</text>
</a>
</g>
</g>
<!-- Node22&#45;&gt;Node23 -->
<g id="edge26" class="edge">
<title>Node22&#45;&gt;Node23</title>
<path fill="none" stroke="midnightblue" d="M776.35,-195.87C748.02,-184.57 698.18,-164.7 665.89,-151.82"/>
<polygon fill="midnightblue" stroke="midnightblue" points="667.06,-148.52 656.48,-148.06 664.47,-155.02 667.06,-148.52"/>
</g>
<!-- Node24 -->
<g id="node24" class="node">
<title>Node24</title>
<g id="a_node24"><a xlink:title=" ">
<polygon fill="none" stroke="#bfbfbf" points="728,-129 728,-148 868,-148 868,-129 728,-129"/>
<text text-anchor="middle" x="798" y="-136" font-family="Helvetica,sans-Serif" font-size="10.00">boost/qvm/vec_traits.hpp</text>
</a>
</g>
</g>
<!-- Node22&#45;&gt;Node24 -->
<g id="edge27" class="edge">
<title>Node22&#45;&gt;Node24</title>
<path fill="none" stroke="midnightblue" d="M798,-195.73C798,-186.18 798,-170.62 798,-158.28"/>
<polygon fill="midnightblue" stroke="midnightblue" points="801.5,-158.13 798,-148.13 794.5,-158.13 801.5,-158.13"/>
</g>
<!-- Node25 -->
<g id="node25" class="node">
<title>Node25</title>
<g id="a_node25"><a xlink:href="Array_8hpp.html" target="_top" xlink:title=" ">
<polygon fill="none" stroke="black" points="968,-129 968,-148 1054,-148 1054,-129 968,-129"/>
<text text-anchor="middle" x="1011" y="-136" font-family="Helvetica,sans-Serif" font-size="10.00">utils/Array.hpp</text>
</a>
</g>
</g>
<!-- Node22&#45;&gt;Node25 -->
<g id="edge28" class="edge">
<title>Node22&#45;&gt;Node25</title>
<path fill="none" stroke="midnightblue" d="M826.28,-195.87C864.11,-184.33 931.25,-163.84 973.33,-151"/>
<polygon fill="midnightblue" stroke="midnightblue" points="974.39,-154.33 982.94,-148.06 972.35,-147.63 974.39,-154.33"/>
</g>
<!-- Node22&#45;&gt;Node27 -->
<g id="edge41" class="edge">
<title>Node22&#45;&gt;Node27</title>
<path fill="none" stroke="midnightblue" d="M751.36,-200.58C640.12,-191.06 367.34,-166.56 352,-154 314.43,-123.23 307.18,-61.56 306.02,-30.23"/>
<polygon fill="midnightblue" stroke="midnightblue" points="309.51,-29.76 305.82,-19.83 302.51,-29.9 309.51,-29.76"/>
</g>
<!-- Node31 -->
<g id="node31" class="node">
<title>Node31</title>
<g id="a_node31"><a xlink:title=" ">
<polygon fill="none" stroke="#bfbfbf" points="360.5,-62 360.5,-81 413.5,-81 413.5,-62 360.5,-62"/>
<text text-anchor="middle" x="387" y="-69" font-family="Helvetica,sans-Serif" font-size="10.00">iterator</text>
</a>
</g>
</g>
<!-- Node22&#45;&gt;Node31 -->
<g id="edge46" class="edge">
<title>Node22&#45;&gt;Node31</title>
<path fill="none" stroke="midnightblue" d="M751.44,-200.76C641.84,-191.72 375.83,-168.41 363,-154 346.96,-135.99 361.2,-107.74 373.58,-89.68"/>
<polygon fill="midnightblue" stroke="midnightblue" points="376.65,-91.41 379.72,-81.27 371,-87.28 376.65,-91.41"/>
</g>
<!-- Node33 -->
<g id="node33" class="node">
<title>Node33</title>
<g id="a_node33"><a xlink:title=" ">
<polygon fill="none" stroke="#bfbfbf" points="886,-129 886,-148 950,-148 950,-129 886,-129"/>
<text text-anchor="middle" x="918" y="-136" font-family="Helvetica,sans-Serif" font-size="10.00">algorithm</text>
</a>
</g>
</g>
<!-- Node22&#45;&gt;Node33 -->
<g id="edge40" class="edge">
<title>Node22&#45;&gt;Node33</title>
<path fill="none" stroke="midnightblue" d="M814.18,-195.73C834.43,-184.77 869.3,-165.88 892.99,-153.05"/>
<polygon fill="midnightblue" stroke="midnightblue" points="894.95,-155.97 902.07,-148.13 891.61,-149.81 894.95,-155.97"/>
</g>
<!-- Node34 -->
<g id="node34" class="node">
<title>Node34</title>
<g id="a_node34"><a xlink:title=" ">
<polygon fill="none" stroke="#bfbfbf" points="372.5,-129 372.5,-148 455.5,-148 455.5,-129 372.5,-129"/>
<text text-anchor="middle" x="414" y="-136" font-family="Helvetica,sans-Serif" font-size="10.00">initializer_list</text>
</a>
</g>
</g>
<!-- Node22&#45;&gt;Node34 -->
<g id="edge45" class="edge">
<title>Node22&#45;&gt;Node34</title>
<path fill="none" stroke="midnightblue" d="M751.45,-199.43C686.58,-191.93 565.53,-176.29 464,-154 459.78,-153.07 455.39,-151.99 451.04,-150.83"/>
<polygon fill="midnightblue" stroke="midnightblue" points="451.65,-147.37 441.08,-148.06 449.78,-154.11 451.65,-147.37"/>
</g>
<!-- Node35 -->
<g id="node35" class="node">
<title>Node35</title>
<g id="a_node35"><a xlink:title=" ">
<polygon fill="none" stroke="#bfbfbf" points="473.5,-129 473.5,-148 542.5,-148 542.5,-129 473.5,-129"/>
<text text-anchor="middle" x="508" y="-136" font-family="Helvetica,sans-Serif" font-size="10.00">type_traits</text>
</a>
</g>
</g>
<!-- Node22&#45;&gt;Node35 -->
<g id="edge48" class="edge">
<title>Node22&#45;&gt;Node35</title>
<path fill="none" stroke="midnightblue" d="M751.16,-196.7C701.18,-187.97 619.88,-172.58 551,-154 547.81,-153.14 544.5,-152.17 541.21,-151.15"/>
<polygon fill="midnightblue" stroke="midnightblue" points="542.09,-147.76 531.5,-148.01 539.93,-154.42 542.09,-147.76"/>
</g>
<!-- Node25&#45;&gt;Node5 -->
<g id="edge36" class="edge">
<title>Node25&#45;&gt;Node5</title>
<path fill="none" stroke="midnightblue" d="M1016.71,-128.85C1028.5,-111.74 1057.38,-73.74 1092,-56 1134.05,-34.45 1270.12,-19.98 1336.25,-14.04"/>
<polygon fill="midnightblue" stroke="midnightblue" points="1336.58,-17.53 1346.24,-13.16 1335.97,-10.55 1336.58,-17.53"/>
</g>
<!-- Node25&#45;&gt;Node15 -->
<g id="edge39" class="edge">
<title>Node25&#45;&gt;Node15</title>
<path fill="none" stroke="midnightblue" d="M1046.18,-128.94C1094.9,-117.07 1182.83,-95.67 1235.26,-82.9"/>
<polygon fill="midnightblue" stroke="midnightblue" points="1236.37,-86.24 1245.26,-80.47 1234.71,-79.44 1236.37,-86.24"/>
</g>
<!-- Node26 -->
<g id="node26" class="node">
<title>Node26</title>
<g id="a_node26"><a xlink:href="device__qualifier_8hpp.html" target="_top" xlink:title=" ">
<polygon fill="none" stroke="black" points="536,-62 536,-81 652,-81 652,-62 536,-62"/>
<text text-anchor="middle" x="594" y="-69" font-family="Helvetica,sans-Serif" font-size="10.00">device_qualifier.hpp</text>
</a>
</g>
</g>
<!-- Node25&#45;&gt;Node26 -->
<g id="edge29" class="edge">
<title>Node25&#45;&gt;Node26</title>
<path fill="none" stroke="midnightblue" d="M983.1,-128.98C975.35,-126.81 966.89,-124.64 959,-123 903.81,-111.54 751.67,-91.93 662.19,-80.82"/>
<polygon fill="midnightblue" stroke="midnightblue" points="662.49,-77.33 652.13,-79.57 661.63,-84.28 662.49,-77.33"/>
</g>
<!-- Node25&#45;&gt;Node27 -->
<g id="edge35" class="edge">
<title>Node25&#45;&gt;Node27</title>
<path fill="none" stroke="midnightblue" d="M981.95,-128.98C974.5,-126.91 966.48,-124.78 959,-123 878.78,-103.91 857.32,-105.65 777,-87 725.02,-74.93 713.37,-66.27 661,-56 545.5,-33.35 406.53,-19.58 342.08,-13.95"/>
<polygon fill="midnightblue" stroke="midnightblue" points="342.29,-10.46 332.03,-13.09 341.69,-17.43 342.29,-10.46"/>
</g>
<!-- Node28 -->
<g id="node28" class="node">
<title>Node28</title>
<g id="a_node28"><a xlink:href="get_8hpp.html" target="_top" xlink:title=" ">
<polygon fill="none" stroke="black" points="786.5,-62 786.5,-81 839.5,-81 839.5,-62 786.5,-62"/>
<text text-anchor="middle" x="813" y="-69" font-family="Helvetica,sans-Serif" font-size="10.00">get.hpp</text>
</a>
</g>
</g>
<!-- Node25&#45;&gt;Node28 -->
<g id="edge31" class="edge">
<title>Node25&#45;&gt;Node28</title>
<path fill="none" stroke="midnightblue" d="M980.38,-128.93C947.41,-119.49 893.56,-103.45 848,-87 846.14,-86.33 844.24,-85.62 842.33,-84.88"/>
<polygon fill="midnightblue" stroke="midnightblue" points="843.45,-81.56 832.86,-81.1 840.85,-88.06 843.45,-81.56"/>
</g>
<!-- Node30 -->
<g id="node30" class="node">
<title>Node30</title>
<g id="a_node30"><a xlink:title=" ">
<polygon fill="none" stroke="#bfbfbf" points="857.5,-56.5 857.5,-86.5 964.5,-86.5 964.5,-56.5 857.5,-56.5"/>
<text text-anchor="start" x="865.5" y="-74.5" font-family="Helvetica,sans-Serif" font-size="10.00">boost/serialization</text>
<text text-anchor="middle" x="911" y="-63.5" font-family="Helvetica,sans-Serif" font-size="10.00">/access.hpp</text>
</a>
</g>
</g>
<!-- Node25&#45;&gt;Node30 -->
<g id="edge34" class="edge">
<title>Node25&#45;&gt;Node30</title>
<path fill="none" stroke="midnightblue" d="M997.51,-128.73C983.15,-119.4 959.96,-104.32 941.2,-92.13"/>
<polygon fill="midnightblue" stroke="midnightblue" points="942.97,-89.1 932.68,-86.59 939.15,-94.97 942.97,-89.1"/>
</g>
<!-- Node25&#45;&gt;Node31 -->
<g id="edge37" class="edge">
<title>Node25&#45;&gt;Node31</title>
<path fill="none" stroke="midnightblue" d="M984.23,-129C976.19,-126.72 967.3,-124.49 959,-123 769.36,-88.97 718.83,-104.93 527,-87 491.94,-83.72 452,-79.54 423.77,-76.51"/>
<polygon fill="midnightblue" stroke="midnightblue" points="423.88,-73 413.56,-75.41 423.13,-79.96 423.88,-73"/>
</g>
<!-- Node32 -->
<g id="node32" class="node">
<title>Node32</title>
<g id="a_node32"><a xlink:title=" ">
<polygon fill="none" stroke="#bfbfbf" points="982.5,-62 982.5,-81 1039.5,-81 1039.5,-62 982.5,-62"/>
<text text-anchor="middle" x="1011" y="-69" font-family="Helvetica,sans-Serif" font-size="10.00">ostream</text>
</a>
</g>
</g>
<!-- Node25&#45;&gt;Node32 -->
<g id="edge38" class="edge">
<title>Node25&#45;&gt;Node32</title>
<path fill="none" stroke="midnightblue" d="M1011,-128.73C1011,-119.18 1011,-103.62 1011,-91.28"/>
<polygon fill="midnightblue" stroke="midnightblue" points="1014.5,-91.13 1011,-81.13 1007.5,-91.13 1014.5,-91.13"/>
</g>
<!-- Node26&#45;&gt;Node27 -->
<g id="edge30" class="edge">
<title>Node26&#45;&gt;Node27</title>
<path fill="none" stroke="midnightblue" d="M552.74,-61.98C496.31,-50.32 395.95,-29.58 342.26,-18.49"/>
<polygon fill="midnightblue" stroke="midnightblue" points="342.68,-15 332.18,-16.41 341.26,-21.86 342.68,-15"/>
</g>
<!-- Node28&#45;&gt;Node5 -->
<g id="edge32" class="edge">
<title>Node28&#45;&gt;Node5</title>
<path fill="none" stroke="midnightblue" d="M830.81,-61.88C836.22,-59.61 842.25,-57.4 848,-56 1027.17,-12.32 1249.71,-9.53 1336.22,-10.31"/>
<polygon fill="midnightblue" stroke="midnightblue" points="1336.28,-13.82 1346.32,-10.43 1336.36,-6.82 1336.28,-13.82"/>
</g>
<!-- Node29 -->
<g id="node29" class="node">
<title>Node29</title>
<g id="a_node29"><a xlink:title=" ">
<polygon fill="none" stroke="#bfbfbf" points="792.5,-0.5 792.5,-19.5 833.5,-19.5 833.5,-0.5 792.5,-0.5"/>
<text text-anchor="middle" x="813" y="-7.5" font-family="Helvetica,sans-Serif" font-size="10.00">tuple</text>
</a>
</g>
</g>
<!-- Node28&#45;&gt;Node29 -->
<g id="edge33" class="edge">
<title>Node28&#45;&gt;Node29</title>
<path fill="none" stroke="midnightblue" d="M813,-61.98C813,-53.58 813,-40.48 813,-29.66"/>
<polygon fill="midnightblue" stroke="midnightblue" points="816.5,-29.51 813,-19.51 809.5,-29.51 816.5,-29.51"/>
</g>
<!-- Node37&#45;&gt;Node22 -->
<g id="edge56" class="edge">
<title>Node37&#45;&gt;Node22</title>
<path fill="none" stroke="midnightblue" d="M857.11,-257.48C846.35,-248.2 828.93,-233.17 815.78,-221.83"/>
<polygon fill="midnightblue" stroke="midnightblue" points="817.73,-218.89 807.87,-215.01 813.16,-224.19 817.73,-218.89"/>
</g>
</g>
</svg>
