<?xml version="1.0" encoding="UTF-8" standalone="no"?>
<!DOCTYPE svg PUBLIC "-//W3C//DTD SVG 1.1//EN"
 "http://www.w3.org/Graphics/SVG/1.1/DTD/svg11.dtd">
<!-- Generated by graphviz version 2.43.0 (0)
 -->
<!-- Title: ll_and_dist.hpp Pages: 1 -->
<!--zoomable 263 -->
<svg id="main" version="1.1" xmlns="http://www.w3.org/2000/svg" xmlns:xlink="http://www.w3.org/1999/xlink" xml:space="preserve" onload="init(evt)">
<style type="text/css"><![CDATA[
.edge:hover path { stroke: red; }
.edge:hover polygon { stroke: red; fill: red; }
]]></style>
<script type="text/javascript"><![CDATA[
var edges = document.getElementsByTagName('g');
if (edges && edges.length) {
  for (var i=0;i<edges.length;i++) {
    if (edges[i].id.substr(0,4)=='edge') {
      edges[i].setAttribute('class','edge');
    }
  }
}
]]></script>
        <defs>
                <circle id="rim" cx="0" cy="0" r="7"/>
                <circle id="rim2" cx="0" cy="0" r="3.5"/>
                <g id="zoomPlus">
                        <use xlink:href="#rim" fill="#404040">
                                <set attributeName="fill" to="#808080" begin="zoomplus.mouseover" end="zoomplus.mouseout"/>
                        </use>
                        <path d="M-4,0h8M0,-4v8" fill="none" stroke="white" stroke-width="1.5" pointer-events="none"/>
                </g>
                <g id="zoomMin">
                        <use xlink:href="#rim" fill="#404040">
                                <set attributeName="fill" to="#808080" begin="zoomminus.mouseover" end="zoomminus.mouseout"/>
                        </use>
                        <path d="M-4,0h8" fill="none" stroke="white" stroke-width="1.5" pointer-events="none"/>
                </g>
                <g id="dirArrow">
                        <path fill="none" stroke="white" stroke-width="1.5" d="M0,-3.0v7 M-2.5,-0.5L0,-3.0L2.5,-0.5"/>
                </g>
               <g id="resetDef">
                       <use xlink:href="#rim2" fill="#404040">
                               <set attributeName="fill" to="#808080" begin="reset.mouseover" end="reset.mouseout"/>
                       </use>
               </g>
        </defs>

<script type="text/javascript">
var viewWidth = 1278;
var viewHeight = 263;
var sectionId = 'dynsection-0';
</script>
<script xlink:href="svgpan.js"/>
<svg id="graph" class="graph">
<g id="viewport">
<title>ll_and_dist.hpp</title>
<!-- Node1 -->
<g id="node1" class="node">
<title>Node1</title>
<g id="a_node1"><a xlink:title=" ">
<polygon fill="#bfbfbf" stroke="black" points="956.5,-235.5 956.5,-254.5 1046.5,-254.5 1046.5,-235.5 956.5,-235.5"/>
<text text-anchor="middle" x="1001.5" y="-242.5" font-family="Helvetica,sans-Serif" font-size="10.00">ll_and_dist.hpp</text>
</a>
</g>
</g>
<!-- Node2 -->
<g id="node2" class="node">
<title>Node2</title>
<g id="a_node2"><a xlink:href="Vector_8hpp.html" target="_top" xlink:title=" ">
<polygon fill="none" stroke="black" points="649,-179.5 649,-198.5 742,-198.5 742,-179.5 649,-179.5"/>
<text text-anchor="middle" x="695.5" y="-186.5" font-family="Helvetica,sans-Serif" font-size="10.00">utils/Vector.hpp</text>
</a>
</g>
</g>
<!-- Node1&#45;&gt;Node2 -->
<g id="edge1" class="edge">
<title>Node1&#45;&gt;Node2</title>
<path fill="none" stroke="midnightblue" d="M956.35,-236.03C902.05,-226.45 810.88,-210.36 751.98,-199.97"/>
<polygon fill="midnightblue" stroke="midnightblue" points="752.55,-196.51 742.09,-198.22 751.33,-203.41 752.55,-196.51"/>
</g>
<!-- Node9 -->
<g id="node9" class="node">
<title>Node9</title>
<g id="a_node9"><a xlink:title=" ">
<polygon fill="none" stroke="#bfbfbf" points="0,-0.5 0,-19.5 53,-19.5 53,-0.5 0,-0.5"/>
<text text-anchor="middle" x="26.5" y="-7.5" font-family="Helvetica,sans-Serif" font-size="10.00">cstddef</text>
</a>
</g>
</g>
<!-- Node1&#45;&gt;Node9 -->
<g id="edge28" class="edge">
<title>Node1&#45;&gt;Node9</title>
<path fill="none" stroke="midnightblue" d="M956.32,-242.84C793.68,-238.07 239.28,-216.64 80.5,-143 47.7,-127.79 35.77,-120.22 21.5,-87 13.61,-68.64 16.78,-45.47 20.7,-29.57"/>
<polygon fill="midnightblue" stroke="midnightblue" points="24.09,-30.44 23.41,-19.87 17.35,-28.56 24.09,-30.44"/>
</g>
<!-- Node16 -->
<g id="node16" class="node">
<title>Node16</title>
<g id="a_node16"><a xlink:title=" ">
<polygon fill="none" stroke="#bfbfbf" points="1136,-123.5 1136,-142.5 1183,-142.5 1183,-123.5 1136,-123.5"/>
<text text-anchor="middle" x="1159.5" y="-130.5" font-family="Helvetica,sans-Serif" font-size="10.00">cmath</text>
</a>
</g>
</g>
<!-- Node1&#45;&gt;Node16 -->
<g id="edge27" class="edge">
<title>Node1&#45;&gt;Node16</title>
<path fill="none" stroke="midnightblue" d="M999.35,-235.31C996.54,-221.68 993.39,-195.18 1006.5,-179 1010.36,-174.23 1082.18,-154.51 1126.03,-142.81"/>
<polygon fill="midnightblue" stroke="midnightblue" points="1126.96,-146.19 1135.72,-140.24 1125.16,-139.42 1126.96,-146.19"/>
</g>
<!-- Node20 -->
<g id="node20" class="node">
<title>Node20</title>
<g id="a_node20"><a xlink:title=" ">
<polygon fill="none" stroke="#bfbfbf" points="1201,-123.5 1201,-142.5 1270,-142.5 1270,-123.5 1201,-123.5"/>
<text text-anchor="middle" x="1235.5" y="-130.5" font-family="Helvetica,sans-Serif" font-size="10.00">type_traits</text>
</a>
</g>
</g>
<!-- Node1&#45;&gt;Node20 -->
<g id="edge29" class="edge">
<title>Node1&#45;&gt;Node20</title>
<path fill="none" stroke="midnightblue" d="M1004.08,-235.31C1008.73,-221.19 1019.91,-193.4 1039.5,-179 1042.59,-176.73 1134.01,-156.32 1190.89,-143.78"/>
<polygon fill="midnightblue" stroke="midnightblue" points="1191.72,-147.19 1200.73,-141.62 1190.21,-140.35 1191.72,-147.19"/>
</g>
<!-- Node22 -->
<g id="node22" class="node">
<title>Node22</title>
<g id="a_node22"><a xlink:title=" ">
<polygon fill="none" stroke="#bfbfbf" points="1048.5,-179.5 1048.5,-198.5 1090.5,-198.5 1090.5,-179.5 1048.5,-179.5"/>
<text text-anchor="middle" x="1069.5" y="-186.5" font-family="Helvetica,sans-Serif" font-size="10.00">array</text>
</a>
</g>
</g>
<!-- Node1&#45;&gt;Node22 -->
<g id="edge26" class="edge">
<title>Node1&#45;&gt;Node22</title>
<path fill="none" stroke="midnightblue" d="M1012.43,-235.32C1022.67,-227.18 1038.22,-214.84 1050.5,-205.09"/>
<polygon fill="midnightblue" stroke="midnightblue" points="1052.72,-207.79 1058.38,-198.83 1048.37,-202.31 1052.72,-207.79"/>
</g>
<!-- Node23 -->
<g id="node23" class="node">
<title>Node23</title>
<g id="a_node23"><a xlink:title=" ">
<polygon fill="none" stroke="#bfbfbf" points="1109,-179.5 1109,-198.5 1154,-198.5 1154,-179.5 1109,-179.5"/>
<text text-anchor="middle" x="1131.5" y="-186.5" font-family="Helvetica,sans-Serif" font-size="10.00">utility</text>
</a>
</g>
</g>
<!-- Node1&#45;&gt;Node23 -->
<g id="edge30" class="edge">
<title>Node1&#45;&gt;Node23</title>
<path fill="none" stroke="midnightblue" d="M1022.1,-235.44C1043.49,-226.56 1077.18,-212.56 1101.52,-202.45"/>
<polygon fill="midnightblue" stroke="midnightblue" points="1103.11,-205.58 1111,-198.52 1100.42,-199.12 1103.11,-205.58"/>
</g>
<!-- Node3 -->
<g id="node3" class="node">
<title>Node3</title>
<g id="a_node3"><a xlink:title=" ">
<polygon fill="none" stroke="#bfbfbf" points="771.5,-123.5 771.5,-142.5 921.5,-142.5 921.5,-123.5 771.5,-123.5"/>
<text text-anchor="middle" x="846.5" y="-130.5" font-family="Helvetica,sans-Serif" font-size="10.00">boost/qvm/deduce_vec.hpp</text>
</a>
</g>
</g>
<!-- Node2&#45;&gt;Node3 -->
<g id="edge2" class="edge">
<title>Node2&#45;&gt;Node3</title>
<path fill="none" stroke="midnightblue" d="M719.43,-179.44C744.72,-170.4 784.8,-156.06 813.18,-145.92"/>
<polygon fill="midnightblue" stroke="midnightblue" points="814.45,-149.18 822.69,-142.52 812.09,-142.59 814.45,-149.18"/>
</g>
<!-- Node4 -->
<g id="node4" class="node">
<title>Node4</title>
<g id="a_node4"><a xlink:title=" ">
<polygon fill="none" stroke="#bfbfbf" points="939.5,-123.5 939.5,-142.5 1079.5,-142.5 1079.5,-123.5 939.5,-123.5"/>
<text text-anchor="middle" x="1009.5" y="-130.5" font-family="Helvetica,sans-Serif" font-size="10.00">boost/qvm/vec_traits.hpp</text>
</a>
</g>
</g>
<!-- Node2&#45;&gt;Node4 -->
<g id="edge3" class="edge">
<title>Node2&#45;&gt;Node4</title>
<path fill="none" stroke="midnightblue" d="M742.17,-179.97C797.4,-170.48 889.47,-154.64 949.84,-144.26"/>
<polygon fill="midnightblue" stroke="midnightblue" points="950.72,-147.66 959.98,-142.52 949.53,-140.76 950.72,-147.66"/>
</g>
<!-- Node5 -->
<g id="node5" class="node">
<title>Node5</title>
<g id="a_node5"><a xlink:href="Array_8hpp.html" target="_top" xlink:title=" ">
<polygon fill="none" stroke="black" points="223.5,-123.5 223.5,-142.5 309.5,-142.5 309.5,-123.5 223.5,-123.5"/>
<text text-anchor="middle" x="266.5" y="-130.5" font-family="Helvetica,sans-Serif" font-size="10.00">utils/Array.hpp</text>
</a>
</g>
</g>
<!-- Node2&#45;&gt;Node5 -->
<g id="edge4" class="edge">
<title>Node2&#45;&gt;Node5</title>
<path fill="none" stroke="midnightblue" d="M648.74,-182.89C578.17,-175.06 440.28,-159.28 323.5,-143 322.24,-142.82 320.97,-142.65 319.69,-142.46"/>
<polygon fill="midnightblue" stroke="midnightblue" points="320.14,-138.99 309.74,-141 319.12,-145.92 320.14,-138.99"/>
</g>
<!-- Node7 -->
<g id="node7" class="node">
<title>Node7</title>
<g id="a_node7"><a xlink:title=" ">
<polygon fill="none" stroke="#bfbfbf" points="498.5,-0.5 498.5,-19.5 550.5,-19.5 550.5,-0.5 498.5,-0.5"/>
<text text-anchor="middle" x="524.5" y="-7.5" font-family="Helvetica,sans-Serif" font-size="10.00">cassert</text>
</a>
</g>
</g>
<!-- Node2&#45;&gt;Node7 -->
<g id="edge17" class="edge">
<title>Node2&#45;&gt;Node7</title>
<path fill="none" stroke="midnightblue" d="M742.26,-187.8C855.77,-186.47 1133.37,-177.65 1088.5,-123 1021,-40.78 674.99,-17.83 560.98,-12.45"/>
<polygon fill="midnightblue" stroke="midnightblue" points="560.84,-8.94 550.69,-11.99 560.52,-15.94 560.84,-8.94"/>
</g>
<!-- Node2&#45;&gt;Node9 -->
<g id="edge19" class="edge">
<title>Node2&#45;&gt;Node9</title>
<path fill="none" stroke="midnightblue" d="M648.92,-186.93C562.48,-184.22 371.71,-174.84 214.5,-143 133.63,-126.62 90.91,-149.89 37.5,-87 24.18,-71.31 22.92,-46.91 24.03,-30"/>
<polygon fill="midnightblue" stroke="midnightblue" points="27.54,-30 25.05,-19.7 20.58,-29.31 27.54,-30"/>
</g>
<!-- Node12 -->
<g id="node12" class="node">
<title>Node12</title>
<g id="a_node12"><a xlink:title=" ">
<polygon fill="none" stroke="#bfbfbf" points="601,-62 601,-81 654,-81 654,-62 601,-62"/>
<text text-anchor="middle" x="627.5" y="-69" font-family="Helvetica,sans-Serif" font-size="10.00">iterator</text>
</a>
</g>
</g>
<!-- Node2&#45;&gt;Node12 -->
<g id="edge22" class="edge">
<title>Node2&#45;&gt;Node12</title>
<path fill="none" stroke="midnightblue" d="M648.82,-185.17C560.37,-179.33 375.47,-164.66 356.5,-143 350.64,-136.31 350.71,-129.74 356.5,-123 390.91,-82.91 540.55,-100.96 591.5,-87 594,-86.31 596.57,-85.51 599.12,-84.63"/>
<polygon fill="midnightblue" stroke="midnightblue" points="600.6,-87.81 608.73,-81.01 598.13,-81.26 600.6,-87.81"/>
</g>
<!-- Node15 -->
<g id="node15" class="node">
<title>Node15</title>
<g id="a_node15"><a xlink:title=" ">
<polygon fill="none" stroke="#bfbfbf" points="365.5,-123.5 365.5,-142.5 429.5,-142.5 429.5,-123.5 365.5,-123.5"/>
<text text-anchor="middle" x="397.5" y="-130.5" font-family="Helvetica,sans-Serif" font-size="10.00">algorithm</text>
</a>
</g>
</g>
<!-- Node2&#45;&gt;Node15 -->
<g id="edge16" class="edge">
<title>Node2&#45;&gt;Node15</title>
<path fill="none" stroke="midnightblue" d="M648.96,-180.47C599.51,-172.32 518.79,-158.64 439.82,-143.2"/>
<polygon fill="midnightblue" stroke="midnightblue" points="440.19,-139.7 429.7,-141.2 438.84,-146.57 440.19,-139.7"/>
</g>
<!-- Node2&#45;&gt;Node16 -->
<g id="edge18" class="edge">
<title>Node2&#45;&gt;Node16</title>
<path fill="none" stroke="midnightblue" d="M742.1,-185.03C820.73,-179.58 984.59,-166.35 1121.5,-143 1122.96,-142.75 1124.45,-142.48 1125.95,-142.19"/>
<polygon fill="midnightblue" stroke="midnightblue" points="1126.82,-145.58 1135.88,-140.09 1125.37,-138.73 1126.82,-145.58"/>
</g>
<!-- Node17 -->
<g id="node17" class="node">
<title>Node17</title>
<g id="a_node17"><a xlink:title=" ">
<polygon fill="none" stroke="#bfbfbf" points="448,-123.5 448,-142.5 513,-142.5 513,-123.5 448,-123.5"/>
<text text-anchor="middle" x="480.5" y="-130.5" font-family="Helvetica,sans-Serif" font-size="10.00">functional</text>
</a>
</g>
</g>
<!-- Node2&#45;&gt;Node17 -->
<g id="edge20" class="edge">
<title>Node2&#45;&gt;Node17</title>
<path fill="none" stroke="midnightblue" d="M661.43,-179.44C623.88,-170.01 563.44,-154.83 522.86,-144.64"/>
<polygon fill="midnightblue" stroke="midnightblue" points="523.55,-141.2 513,-142.16 521.85,-147.99 523.55,-141.2"/>
</g>
<!-- Node18 -->
<g id="node18" class="node">
<title>Node18</title>
<g id="a_node18"><a xlink:title=" ">
<polygon fill="none" stroke="#bfbfbf" points="531,-123.5 531,-142.5 614,-142.5 614,-123.5 531,-123.5"/>
<text text-anchor="middle" x="572.5" y="-130.5" font-family="Helvetica,sans-Serif" font-size="10.00">initializer_list</text>
</a>
</g>
</g>
<!-- Node2&#45;&gt;Node18 -->
<g id="edge21" class="edge">
<title>Node2&#45;&gt;Node18</title>
<path fill="none" stroke="midnightblue" d="M676.01,-179.44C655.86,-170.6 624.18,-156.69 601.17,-146.59"/>
<polygon fill="midnightblue" stroke="midnightblue" points="602.46,-143.33 591.9,-142.52 599.65,-149.74 602.46,-143.33"/>
</g>
<!-- Node19 -->
<g id="node19" class="node">
<title>Node19</title>
<g id="a_node19"><a xlink:title=" ">
<polygon fill="none" stroke="#bfbfbf" points="632.5,-123.5 632.5,-142.5 688.5,-142.5 688.5,-123.5 632.5,-123.5"/>
<text text-anchor="middle" x="660.5" y="-130.5" font-family="Helvetica,sans-Serif" font-size="10.00">numeric</text>
</a>
</g>
</g>
<!-- Node2&#45;&gt;Node19 -->
<g id="edge23" class="edge">
<title>Node2&#45;&gt;Node19</title>
<path fill="none" stroke="midnightblue" d="M689.72,-179.08C684.83,-171.53 677.67,-160.49 671.67,-151.23"/>
<polygon fill="midnightblue" stroke="midnightblue" points="674.55,-149.24 666.17,-142.75 668.67,-153.05 674.55,-149.24"/>
</g>
<!-- Node2&#45;&gt;Node20 -->
<g id="edge24" class="edge">
<title>Node2&#45;&gt;Node20</title>
<path fill="none" stroke="midnightblue" d="M742.31,-185.58C829,-180.7 1020.51,-168.07 1190.93,-143.09"/>
<polygon fill="midnightblue" stroke="midnightblue" points="1191.45,-146.55 1200.83,-141.62 1190.42,-139.62 1191.45,-146.55"/>
</g>
<!-- Node21 -->
<g id="node21" class="node">
<title>Node21</title>
<g id="a_node21"><a xlink:title=" ">
<polygon fill="none" stroke="#bfbfbf" points="707,-123.5 707,-142.5 754,-142.5 754,-123.5 707,-123.5"/>
<text text-anchor="middle" x="730.5" y="-130.5" font-family="Helvetica,sans-Serif" font-size="10.00">vector</text>
</a>
</g>
</g>
<!-- Node2&#45;&gt;Node21 -->
<g id="edge25" class="edge">
<title>Node2&#45;&gt;Node21</title>
<path fill="none" stroke="midnightblue" d="M701.28,-179.08C706.17,-171.53 713.33,-160.49 719.33,-151.23"/>
<polygon fill="midnightblue" stroke="midnightblue" points="722.33,-153.05 724.83,-142.75 716.45,-149.24 722.33,-153.05"/>
</g>
<!-- Node6 -->
<g id="node6" class="node">
<title>Node6</title>
<g id="a_node6"><a xlink:href="device__qualifier_8hpp.html" target="_top" xlink:title=" ">
<polygon fill="none" stroke="black" points="466.5,-62 466.5,-81 582.5,-81 582.5,-62 466.5,-62"/>
<text text-anchor="middle" x="524.5" y="-69" font-family="Helvetica,sans-Serif" font-size="10.00">device_qualifier.hpp</text>
</a>
</g>
</g>
<!-- Node5&#45;&gt;Node6 -->
<g id="edge5" class="edge">
<title>Node5&#45;&gt;Node6</title>
<path fill="none" stroke="midnightblue" d="M303.47,-123.48C349.35,-112.89 427.65,-94.84 477.68,-83.3"/>
<polygon fill="midnightblue" stroke="midnightblue" points="478.65,-86.67 487.6,-81.01 477.07,-79.85 478.65,-86.67"/>
</g>
<!-- Node5&#45;&gt;Node7 -->
<g id="edge11" class="edge">
<title>Node5&#45;&gt;Node7</title>
<path fill="none" stroke="midnightblue" d="M309.79,-123.83C341.16,-116.83 383.95,-104.97 418.5,-87 438.14,-76.78 439.63,-69.07 457.5,-56 472.2,-45.25 489.25,-33.81 502.47,-25.16"/>
<polygon fill="midnightblue" stroke="midnightblue" points="504.46,-28.04 510.93,-19.65 500.64,-22.17 504.46,-28.04"/>
</g>
<!-- Node8 -->
<g id="node8" class="node">
<title>Node8</title>
<g id="a_node8"><a xlink:href="get_8hpp.html" target="_top" xlink:title=" ">
<polygon fill="none" stroke="black" points="357,-62 357,-81 410,-81 410,-62 357,-62"/>
<text text-anchor="middle" x="383.5" y="-69" font-family="Helvetica,sans-Serif" font-size="10.00">get.hpp</text>
</a>
</g>
</g>
<!-- Node5&#45;&gt;Node8 -->
<g id="edge7" class="edge">
<title>Node5&#45;&gt;Node8</title>
<path fill="none" stroke="midnightblue" d="M283.26,-123.48C302.72,-113.58 335.05,-97.14 357.71,-85.62"/>
<polygon fill="midnightblue" stroke="midnightblue" points="359.44,-88.66 366.77,-81.01 356.27,-82.42 359.44,-88.66"/>
</g>
<!-- Node5&#45;&gt;Node9 -->
<g id="edge12" class="edge">
<title>Node5&#45;&gt;Node9</title>
<path fill="none" stroke="midnightblue" d="M223.35,-132.75C179.08,-131.33 110.37,-122.83 64.5,-87 46.19,-72.7 36.03,-47.23 30.92,-29.74"/>
<polygon fill="midnightblue" stroke="midnightblue" points="34.18,-28.39 28.25,-19.61 27.41,-30.17 34.18,-28.39"/>
</g>
<!-- Node11 -->
<g id="node11" class="node">
<title>Node11</title>
<g id="a_node11"><a xlink:title=" ">
<polygon fill="none" stroke="#bfbfbf" points="74,-56.5 74,-86.5 181,-86.5 181,-56.5 74,-56.5"/>
<text text-anchor="start" x="82" y="-74.5" font-family="Helvetica,sans-Serif" font-size="10.00">boost/serialization</text>
<text text-anchor="middle" x="127.5" y="-63.5" font-family="Helvetica,sans-Serif" font-size="10.00">/access.hpp</text>
</a>
</g>
</g>
<!-- Node5&#45;&gt;Node11 -->
<g id="edge10" class="edge">
<title>Node5&#45;&gt;Node11</title>
<path fill="none" stroke="midnightblue" d="M246.58,-123.48C226.62,-114.93 195.25,-101.5 169.72,-90.57"/>
<polygon fill="midnightblue" stroke="midnightblue" points="170.83,-87.24 160.26,-86.52 168.08,-93.68 170.83,-87.24"/>
</g>
<!-- Node5&#45;&gt;Node12 -->
<g id="edge13" class="edge">
<title>Node5&#45;&gt;Node12</title>
<path fill="none" stroke="midnightblue" d="M309.74,-125.06C314.39,-124.35 319.04,-123.65 323.5,-123 442.42,-105.63 475.3,-117.69 591.5,-87 594.01,-86.34 596.58,-85.55 599.13,-84.68"/>
<polygon fill="midnightblue" stroke="midnightblue" points="600.61,-87.86 608.74,-81.08 598.15,-81.31 600.61,-87.86"/>
</g>
<!-- Node13 -->
<g id="node13" class="node">
<title>Node13</title>
<g id="a_node13"><a xlink:title=" ">
<polygon fill="none" stroke="#bfbfbf" points="199,-62 199,-81 256,-81 256,-62 199,-62"/>
<text text-anchor="middle" x="227.5" y="-69" font-family="Helvetica,sans-Serif" font-size="10.00">ostream</text>
</a>
</g>
</g>
<!-- Node5&#45;&gt;Node13 -->
<g id="edge14" class="edge">
<title>Node5&#45;&gt;Node13</title>
<path fill="none" stroke="midnightblue" d="M260.91,-123.48C255.12,-114.64 245.91,-100.59 238.63,-89.48"/>
<polygon fill="midnightblue" stroke="midnightblue" points="241.49,-87.45 233.08,-81.01 235.63,-91.29 241.49,-87.45"/>
</g>
<!-- Node14 -->
<g id="node14" class="node">
<title>Node14</title>
<g id="a_node14"><a xlink:title=" ">
<polygon fill="none" stroke="#bfbfbf" points="274,-62 274,-81 339,-81 339,-62 274,-62"/>
<text text-anchor="middle" x="306.5" y="-69" font-family="Helvetica,sans-Serif" font-size="10.00">stdexcept</text>
</a>
</g>
</g>
<!-- Node5&#45;&gt;Node14 -->
<g id="edge15" class="edge">
<title>Node5&#45;&gt;Node14</title>
<path fill="none" stroke="midnightblue" d="M272.23,-123.48C278.17,-114.64 287.62,-100.59 295.09,-89.48"/>
<polygon fill="midnightblue" stroke="midnightblue" points="298.11,-91.26 300.78,-81.01 292.3,-87.36 298.11,-91.26"/>
</g>
<!-- Node6&#45;&gt;Node7 -->
<g id="edge6" class="edge">
<title>Node6&#45;&gt;Node7</title>
<path fill="none" stroke="midnightblue" d="M524.5,-61.98C524.5,-53.58 524.5,-40.48 524.5,-29.66"/>
<polygon fill="midnightblue" stroke="midnightblue" points="528,-29.51 524.5,-19.51 521,-29.51 528,-29.51"/>
</g>
<!-- Node8&#45;&gt;Node9 -->
<g id="edge8" class="edge">
<title>Node8&#45;&gt;Node9</title>
<path fill="none" stroke="midnightblue" d="M364.74,-61.94C359.27,-59.72 353.23,-57.53 347.5,-56 246.72,-29.07 123.58,-17.55 63.31,-13.24"/>
<polygon fill="midnightblue" stroke="midnightblue" points="63.36,-9.73 53.15,-12.54 62.88,-16.72 63.36,-9.73"/>
</g>
<!-- Node10 -->
<g id="node10" class="node">
<title>Node10</title>
<g id="a_node10"><a xlink:title=" ">
<polygon fill="none" stroke="#bfbfbf" points="363,-0.5 363,-19.5 404,-19.5 404,-0.5 363,-0.5"/>
<text text-anchor="middle" x="383.5" y="-7.5" font-family="Helvetica,sans-Serif" font-size="10.00">tuple</text>
</a>
</g>
</g>
<!-- Node8&#45;&gt;Node10 -->
<g id="edge9" class="edge">
<title>Node8&#45;&gt;Node10</title>
<path fill="none" stroke="midnightblue" d="M383.5,-61.98C383.5,-53.58 383.5,-40.48 383.5,-29.66"/>
<polygon fill="midnightblue" stroke="midnightblue" points="387,-29.51 383.5,-19.51 380,-29.51 387,-29.51"/>
</g>
</g>
</svg>
        <g id="navigator" transform="translate(0 0)" fill="#404254">
                <rect fill="#f2f5e9" fill-opacity="0.5" stroke="#606060" stroke-width=".5" x="0" y="0" width="60" height="60"/>
                <use id="zoomplus" xlink:href="#zoomPlus" x="17" y="9" onmousedown="handleZoom(evt,'in')"/>
                <use id="zoomminus" xlink:href="#zoomMin" x="42" y="9" onmousedown="handleZoom(evt,'out')"/>
                <use id="reset" xlink:href="#resetDef" x="30" y="36" onmousedown="handleReset()"/>
                <g id="arrowUp" xlink:href="#dirArrow" transform="translate(30 24)" onmousedown="handlePan(0,-1)">
                  <use xlink:href="#rim" fill="#404040">
                        <set attributeName="fill" to="#808080" begin="arrowUp.mouseover" end="arrowUp.mouseout"/>
                  </use>
                  <path fill="none" stroke="white" stroke-width="1.5" d="M0,-3.0v7 M-2.5,-0.5L0,-3.0L2.5,-0.5"/>
                </g>
                <g id="arrowRight" xlink:href="#dirArrow" transform="rotate(90) translate(36 -43)" onmousedown="handlePan(1,0)">
                  <use xlink:href="#rim" fill="#404040">
                        <set attributeName="fill" to="#808080" begin="arrowRight.mouseover" end="arrowRight.mouseout"/>
                  </use>
                  <path fill="none" stroke="white" stroke-width="1.5" d="M0,-3.0v7 M-2.5,-0.5L0,-3.0L2.5,-0.5"/>
                </g>
                <g id="arrowDown" xlink:href="#dirArrow" transform="rotate(180) translate(-30 -48)" onmousedown="handlePan(0,1)">
                  <use xlink:href="#rim" fill="#404040">
                        <set attributeName="fill" to="#808080" begin="arrowDown.mouseover" end="arrowDown.mouseout"/>
                  </use>
                  <path fill="none" stroke="white" stroke-width="1.5" d="M0,-3.0v7 M-2.5,-0.5L0,-3.0L2.5,-0.5"/>
                </g>
                <g id="arrowLeft" xlink:href="#dirArrow" transform="rotate(270) translate(-36 17)" onmousedown="handlePan(-1,0)">
                  <use xlink:href="#rim" fill="#404040">
                        <set attributeName="fill" to="#808080" begin="arrowLeft.mouseover" end="arrowLeft.mouseout"/>
                  </use>
                  <path fill="none" stroke="white" stroke-width="1.5" d="M0,-3.0v7 M-2.5,-0.5L0,-3.0L2.5,-0.5"/>
                </g>
        </g>
        <svg viewBox="0 0 15 15" width="100%" height="30px" preserveAspectRatio="xMaxYMin meet">
         <g id="arrow_out" transform="scale(0.3 0.3)">
          <a xlink:href="ll__and__dist_8hpp__incl_org.svg" target="_base">
           <rect id="button" ry="5" rx="5" y="6" x="6" height="38" width="38"
                fill="#f2f5e9" fill-opacity="0.5" stroke="#606060" stroke-width="1.0"/>
           <path id="arrow"
             d="M 11.500037,31.436501 C 11.940474,20.09759 22.043105,11.32322 32.158766,21.979434 L 37.068811,17.246167 C 37.068811,17.246167 37.088388,32 37.088388,32 L 22.160133,31.978069 C 22.160133,31.978069 26.997745,27.140456 26.997745,27.140456 C 18.528582,18.264221 13.291696,25.230495 11.500037,31.436501 z"
             style="fill:#404040;"/>
          </a>
         </g>
        </svg>
</svg>
