<?xml version="1.0" encoding="UTF-8" standalone="no"?>
<!DOCTYPE svg PUBLIC "-//W3C//DTD SVG 1.1//EN"
 "http://www.w3.org/Graphics/SVG/1.1/DTD/svg11.dtd">
<!-- Generated by graphviz version 2.43.0 (0)
 -->
<!-- Title: LocalContext.hpp Pages: 1 -->
<!--zoomable 453 -->
<svg id="main" version="1.1" xmlns="http://www.w3.org/2000/svg" xmlns:xlink="http://www.w3.org/1999/xlink" xml:space="preserve" onload="init(evt)">
<style type="text/css"><![CDATA[
.edge:hover path { stroke: red; }
.edge:hover polygon { stroke: red; fill: red; }
]]></style>
<script type="text/javascript"><![CDATA[
var edges = document.getElementsByTagName('g');
if (edges && edges.length) {
  for (var i=0;i<edges.length;i++) {
    if (edges[i].id.substr(0,4)=='edge') {
      edges[i].setAttribute('class','edge');
    }
  }
}
]]></script>
        <defs>
                <circle id="rim" cx="0" cy="0" r="7"/>
                <circle id="rim2" cx="0" cy="0" r="3.5"/>
                <g id="zoomPlus">
                        <use xlink:href="#rim" fill="#404040">
                                <set attributeName="fill" to="#808080" begin="zoomplus.mouseover" end="zoomplus.mouseout"/>
                        </use>
                        <path d="M-4,0h8M0,-4v8" fill="none" stroke="white" stroke-width="1.5" pointer-events="none"/>
                </g>
                <g id="zoomMin">
                        <use xlink:href="#rim" fill="#404040">
                                <set attributeName="fill" to="#808080" begin="zoomminus.mouseover" end="zoomminus.mouseout"/>
                        </use>
                        <path d="M-4,0h8" fill="none" stroke="white" stroke-width="1.5" pointer-events="none"/>
                </g>
                <g id="dirArrow">
                        <path fill="none" stroke="white" stroke-width="1.5" d="M0,-3.0v7 M-2.5,-0.5L0,-3.0L2.5,-0.5"/>
                </g>
               <g id="resetDef">
                       <use xlink:href="#rim2" fill="#404040">
                               <set attributeName="fill" to="#808080" begin="reset.mouseover" end="reset.mouseout"/>
                       </use>
               </g>
        </defs>

<script type="text/javascript">
var viewWidth = 1883;
var viewHeight = 453;
var sectionId = 'dynsection-0';
</script>
<script xlink:href="svgpan.js"/>
<svg id="graph" class="graph">
<g id="viewport">
<title>LocalContext.hpp</title>
<!-- Node1 -->
<g id="node1" class="node">
<title>Node1</title>
<g id="a_node1"><a xlink:title=" ">
<polygon fill="#bfbfbf" stroke="black" points="1431.61,-425.5 1431.61,-444.5 1532.61,-444.5 1532.61,-425.5 1431.61,-425.5"/>
<text text-anchor="middle" x="1482.11" y="-432.5" font-family="Helvetica,sans-Serif" font-size="10.00">LocalContext.hpp</text>
</a>
</g>
</g>
<!-- Node2 -->
<g id="node2" class="node">
<title>Node2</title>
<g id="a_node2"><a xlink:href="Context_8hpp.html" target="_top" xlink:title=" ">
<polygon fill="none" stroke="black" points="1232.11,-369.5 1232.11,-388.5 1308.11,-388.5 1308.11,-369.5 1232.11,-369.5"/>
<text text-anchor="middle" x="1270.11" y="-376.5" font-family="Helvetica,sans-Serif" font-size="10.00">Context.hpp</text>
</a>
</g>
</g>
<!-- Node1&#45;&gt;Node2 -->
<g id="edge1" class="edge">
<title>Node1&#45;&gt;Node2</title>
<path fill="none" stroke="midnightblue" d="M1448.52,-425.44C1411.93,-416.12 1353.28,-401.18 1313.29,-391"/>
<polygon fill="midnightblue" stroke="midnightblue" points="1314.1,-387.59 1303.55,-388.52 1312.38,-394.38 1314.1,-387.59"/>
</g>
<!-- Node3 -->
<g id="node3" class="node">
<title>Node3</title>
<g id="a_node3"><a xlink:href="ObjectHandle_8hpp.html" target="_top" xlink:title=" ">
<polygon fill="none" stroke="black" points="1259.11,-313.5 1259.11,-332.5 1363.11,-332.5 1363.11,-313.5 1259.11,-313.5"/>
<text text-anchor="middle" x="1311.11" y="-320.5" font-family="Helvetica,sans-Serif" font-size="10.00">ObjectHandle.hpp</text>
</a>
</g>
</g>
<!-- Node1&#45;&gt;Node3 -->
<g id="edge60" class="edge">
<title>Node1&#45;&gt;Node3</title>
<path fill="none" stroke="midnightblue" d="M1468.7,-425.37C1439.35,-406.49 1369.23,-361.38 1333.25,-338.24"/>
<polygon fill="midnightblue" stroke="midnightblue" points="1334.77,-335.06 1324.47,-332.59 1330.99,-340.95 1334.77,-335.06"/>
</g>
<!-- Node13 -->
<g id="node13" class="node">
<title>Node13</title>
<g id="a_node13"><a xlink:title=" ">
<polygon fill="none" stroke="#bfbfbf" points="1431.11,-0.5 1431.11,-19.5 1483.11,-19.5 1483.11,-0.5 1431.11,-0.5"/>
<text text-anchor="middle" x="1457.11" y="-7.5" font-family="Helvetica,sans-Serif" font-size="10.00">cassert</text>
</a>
</g>
</g>
<!-- Node1&#45;&gt;Node13 -->
<g id="edge69" class="edge">
<title>Node1&#45;&gt;Node13</title>
<path fill="none" stroke="midnightblue" d="M1532.66,-427.25C1622.61,-413.82 1801.11,-380.09 1801.11,-324 1801.11,-324 1801.11,-324 1801.11,-132 1801.11,-67.29 1581.73,-28.76 1493.36,-15.87"/>
<polygon fill="midnightblue" stroke="midnightblue" points="1493.65,-12.38 1483.25,-14.43 1492.66,-19.31 1493.65,-12.38"/>
</g>
<!-- Node34 -->
<g id="node34" class="node">
<title>Node34</title>
<g id="a_node34"><a xlink:title=" ">
<polygon fill="none" stroke="#bfbfbf" points="1260.11,-185 1260.11,-204 1318.11,-204 1318.11,-185 1260.11,-185"/>
<text text-anchor="middle" x="1289.11" y="-192" font-family="Helvetica,sans-Serif" font-size="10.00">memory</text>
</a>
</g>
</g>
<!-- Node1&#45;&gt;Node34 -->
<g id="edge70" class="edge">
<title>Node1&#45;&gt;Node34</title>
<path fill="none" stroke="midnightblue" d="M1431.34,-429.46C1366.22,-422.91 1257.56,-409.32 1223.11,-389 1195.61,-372.78 1193.92,-360.74 1178.11,-333 1158.42,-298.44 1134.57,-278.77 1157.11,-246 1168.03,-230.13 1215.21,-214.73 1250.06,-205.2"/>
<polygon fill="midnightblue" stroke="midnightblue" points="1251.22,-208.51 1259.97,-202.55 1249.41,-201.75 1251.22,-208.51"/>
</g>
<!-- Node35 -->
<g id="node35" class="node">
<title>Node35</title>
<g id="a_node35"><a xlink:title=" ">
<polygon fill="none" stroke="#bfbfbf" points="1486.11,-185 1486.11,-204 1530.11,-204 1530.11,-185 1486.11,-185"/>
<text text-anchor="middle" x="1508.11" y="-192" font-family="Helvetica,sans-Serif" font-size="10.00">string</text>
</a>
</g>
</g>
<!-- Node1&#45;&gt;Node35 -->
<g id="edge71" class="edge">
<title>Node1&#45;&gt;Node35</title>
<path fill="none" stroke="midnightblue" d="M1482.87,-425.37C1485.24,-398.67 1492.84,-315.05 1501.11,-246 1502.39,-235.39 1504.01,-223.55 1505.38,-214.01"/>
<polygon fill="midnightblue" stroke="midnightblue" points="1508.85,-214.47 1506.83,-204.07 1501.92,-213.46 1508.85,-214.47"/>
</g>
<!-- Node39 -->
<g id="node39" class="node">
<title>Node39</title>
<g id="a_node39"><a xlink:href="Factory_8hpp.html" target="_top" xlink:title=" ">
<polygon fill="none" stroke="black" points="1510.11,-252 1510.11,-271 1606.11,-271 1606.11,-252 1510.11,-252"/>
<text text-anchor="middle" x="1558.11" y="-259" font-family="Helvetica,sans-Serif" font-size="10.00">utils/Factory.hpp</text>
</a>
</g>
</g>
<!-- Node1&#45;&gt;Node39 -->
<g id="edge61" class="edge">
<title>Node1&#45;&gt;Node39</title>
<path fill="none" stroke="midnightblue" d="M1485.99,-425.26C1497.88,-398.42 1534.04,-316.82 1550.19,-280.39"/>
<polygon fill="midnightblue" stroke="midnightblue" points="1553.49,-281.58 1554.34,-271.02 1547.09,-278.74 1553.49,-281.58"/>
</g>
<!-- Node42 -->
<g id="node42" class="node">
<title>Node42</title>
<g id="a_node42"><a xlink:title=" ">
<polygon fill="none" stroke="#bfbfbf" points="1829.61,-369.5 1829.61,-388.5 1874.61,-388.5 1874.61,-369.5 1829.61,-369.5"/>
<text text-anchor="middle" x="1852.11" y="-376.5" font-family="Helvetica,sans-Serif" font-size="10.00">utility</text>
</a>
</g>
</g>
<!-- Node1&#45;&gt;Node42 -->
<g id="edge72" class="edge">
<title>Node1&#45;&gt;Node42</title>
<path fill="none" stroke="midnightblue" d="M1532.87,-428.81C1598.39,-421.72 1715.8,-407.74 1815.11,-389 1816.58,-388.72 1818.07,-388.43 1819.57,-388.12"/>
<polygon fill="midnightblue" stroke="midnightblue" points="1820.5,-391.49 1829.5,-385.9 1818.97,-384.66 1820.5,-391.49"/>
</g>
<!-- Node2&#45;&gt;Node3 -->
<g id="edge2" class="edge">
<title>Node2&#45;&gt;Node3</title>
<path fill="none" stroke="midnightblue" d="M1276.88,-369.08C1282.68,-361.46 1291.17,-350.26 1298.25,-340.94"/>
<polygon fill="midnightblue" stroke="midnightblue" points="1301.21,-342.83 1304.47,-332.75 1295.63,-338.6 1301.21,-342.83"/>
</g>
<!-- Node4 -->
<g id="node4" class="node">
<title>Node4</title>
<g id="a_node4"><a xlink:href="Variant_8hpp.html" target="_top" xlink:title=" ">
<polygon fill="none" stroke="black" points="885.61,-252 885.61,-271 958.61,-271 958.61,-252 885.61,-252"/>
<text text-anchor="middle" x="922.11" y="-259" font-family="Helvetica,sans-Serif" font-size="10.00">Variant.hpp</text>
</a>
</g>
</g>
<!-- Node2&#45;&gt;Node4 -->
<g id="edge56" class="edge">
<title>Node2&#45;&gt;Node4</title>
<path fill="none" stroke="midnightblue" d="M1244.24,-369.41C1182.84,-349.03 1028.2,-297.71 957.9,-274.38"/>
<polygon fill="midnightblue" stroke="midnightblue" points="958.75,-270.97 948.16,-271.14 956.54,-277.62 958.75,-270.97"/>
</g>
<!-- Node2&#45;&gt;Node34 -->
<g id="edge58" class="edge">
<title>Node2&#45;&gt;Node34</title>
<path fill="none" stroke="midnightblue" d="M1254.08,-369.36C1217.94,-348.73 1135.68,-294.69 1168.11,-246 1173.27,-238.26 1221.12,-219.83 1255.08,-207.51"/>
<polygon fill="midnightblue" stroke="midnightblue" points="1256.45,-210.74 1264.67,-204.06 1254.08,-204.15 1256.45,-210.74"/>
</g>
<!-- Node2&#45;&gt;Node35 -->
<g id="edge59" class="edge">
<title>Node2&#45;&gt;Node35</title>
<path fill="none" stroke="midnightblue" d="M1296.66,-369.41C1318.12,-361.75 1348.52,-349.25 1372.11,-333 1424.01,-297.25 1472.91,-240.01 1495.32,-212.01"/>
<polygon fill="midnightblue" stroke="midnightblue" points="1498.18,-214.03 1501.63,-204.01 1492.69,-209.69 1498.18,-214.03"/>
</g>
<!-- Node38 -->
<g id="node38" class="node">
<title>Node38</title>
<g id="a_node38"><a xlink:title=" ">
<polygon fill="none" stroke="#bfbfbf" points="1177.11,-246.5 1177.11,-276.5 1283.11,-276.5 1283.11,-246.5 1177.11,-246.5"/>
<text text-anchor="start" x="1185.11" y="-264.5" font-family="Helvetica,sans-Serif" font-size="10.00">boost/utility/string</text>
<text text-anchor="middle" x="1230.11" y="-253.5" font-family="Helvetica,sans-Serif" font-size="10.00">_ref.hpp</text>
</a>
</g>
</g>
<!-- Node2&#45;&gt;Node38 -->
<g id="edge57" class="edge">
<title>Node2&#45;&gt;Node38</title>
<path fill="none" stroke="midnightblue" d="M1265.75,-369.19C1261.42,-360.22 1254.77,-345.86 1250.11,-333 1244.59,-317.75 1239.61,-300.2 1236,-286.43"/>
<polygon fill="midnightblue" stroke="midnightblue" points="1239.39,-285.55 1233.52,-276.73 1232.61,-287.29 1239.39,-285.55"/>
</g>
<!-- Node3&#45;&gt;Node4 -->
<g id="edge3" class="edge">
<title>Node3&#45;&gt;Node4</title>
<path fill="none" stroke="midnightblue" d="M1259.06,-314.04C1182.89,-302.39 1042.21,-280.87 969.06,-269.68"/>
<polygon fill="midnightblue" stroke="midnightblue" points="969.18,-266.16 958.77,-268.11 968.12,-273.08 969.18,-266.16"/>
</g>
<!-- Node3&#45;&gt;Node34 -->
<g id="edge54" class="edge">
<title>Node3&#45;&gt;Node34</title>
<path fill="none" stroke="midnightblue" d="M1309.6,-313.31C1306.07,-292.99 1297.21,-242.05 1292.38,-214.28"/>
<polygon fill="midnightblue" stroke="midnightblue" points="1295.8,-213.51 1290.64,-204.26 1288.9,-214.71 1295.8,-213.51"/>
</g>
<!-- Node3&#45;&gt;Node35 -->
<g id="edge55" class="edge">
<title>Node3&#45;&gt;Node35</title>
<path fill="none" stroke="midnightblue" d="M1323.93,-313.47C1345.24,-299.31 1389.38,-270.12 1427.11,-246 1446.61,-233.54 1468.93,-219.65 1485.19,-209.6"/>
<polygon fill="midnightblue" stroke="midnightblue" points="1487.33,-212.39 1494.01,-204.16 1483.66,-206.43 1487.33,-212.39"/>
</g>
<!-- Node37 -->
<g id="node37" class="node">
<title>Node37</title>
<g id="a_node37"><a xlink:href="Span_8hpp.html" target="_top" xlink:title=" ">
<polygon fill="none" stroke="black" points="1260.11,-123.5 1260.11,-142.5 1346.11,-142.5 1346.11,-123.5 1260.11,-123.5"/>
<text text-anchor="middle" x="1303.11" y="-130.5" font-family="Helvetica,sans-Serif" font-size="10.00">utils/Span.hpp</text>
</a>
</g>
</g>
<!-- Node3&#45;&gt;Node37 -->
<g id="edge46" class="edge">
<title>Node3&#45;&gt;Node37</title>
<path fill="none" stroke="midnightblue" d="M1314.13,-313.48C1321.63,-291.1 1339.6,-228.92 1327.11,-179 1324.68,-169.25 1319.68,-159.29 1314.87,-151.23"/>
<polygon fill="midnightblue" stroke="midnightblue" points="1317.8,-149.32 1309.48,-142.77 1311.9,-153.08 1317.8,-149.32"/>
</g>
<!-- Node3&#45;&gt;Node38 -->
<g id="edge53" class="edge">
<title>Node3&#45;&gt;Node38</title>
<path fill="none" stroke="midnightblue" d="M1299.51,-313.48C1288.54,-305.42 1271.67,-293.02 1257.31,-282.47"/>
<polygon fill="midnightblue" stroke="midnightblue" points="1259.34,-279.62 1249.2,-276.52 1255.19,-285.26 1259.34,-279.62"/>
</g>
<!-- Node5 -->
<g id="node5" class="node">
<title>Node5</title>
<g id="a_node5"><a xlink:href="None_8hpp.html" target="_top" xlink:title=" ">
<polygon fill="none" stroke="black" points="12.61,-123.5 12.61,-142.5 75.61,-142.5 75.61,-123.5 12.61,-123.5"/>
<text text-anchor="middle" x="44.11" y="-130.5" font-family="Helvetica,sans-Serif" font-size="10.00">None.hpp</text>
</a>
</g>
</g>
<!-- Node4&#45;&gt;Node5 -->
<g id="edge4" class="edge">
<title>Node4&#45;&gt;Node5</title>
<path fill="none" stroke="midnightblue" d="M885.6,-259.79C722.77,-256.47 69.6,-241.22 40.11,-210 25.76,-194.81 30.67,-169.37 36.52,-152.16"/>
<polygon fill="midnightblue" stroke="midnightblue" points="39.85,-153.25 40.12,-142.66 33.3,-150.77 39.85,-153.25"/>
</g>
<!-- Node7 -->
<g id="node7" class="node">
<title>Node7</title>
<g id="a_node7"><a xlink:title=" ">
<polygon fill="none" stroke="#bfbfbf" points="632.61,-0.5 632.61,-19.5 685.61,-19.5 685.61,-0.5 632.61,-0.5"/>
<text text-anchor="middle" x="659.11" y="-7.5" font-family="Helvetica,sans-Serif" font-size="10.00">cstddef</text>
</a>
</g>
</g>
<!-- Node4&#45;&gt;Node7 -->
<g id="edge40" class="edge">
<title>Node4&#45;&gt;Node7</title>
<path fill="none" stroke="midnightblue" d="M885.6,-260.78C726.28,-261.71 96.74,-262.01 27.11,-210 1.77,-191.07 8.53,-174.16 3.11,-143 1.59,-134.24 -2.35,-130.01 3.11,-123 79.93,-24.52 494.88,-12.5 622.04,-11.14"/>
<polygon fill="midnightblue" stroke="midnightblue" points="622.45,-14.64 632.41,-11.05 622.38,-7.64 622.45,-14.64"/>
</g>
<!-- Node8 -->
<g id="node8" class="node">
<title>Node8</title>
<g id="a_node8"><a xlink:href="Vector_8hpp.html" target="_top" xlink:title=" ">
<polygon fill="none" stroke="black" points="437.61,-185 437.61,-204 530.61,-204 530.61,-185 437.61,-185"/>
<text text-anchor="middle" x="484.11" y="-192" font-family="Helvetica,sans-Serif" font-size="10.00">utils/Vector.hpp</text>
</a>
</g>
</g>
<!-- Node4&#45;&gt;Node8 -->
<g id="edge7" class="edge">
<title>Node4&#45;&gt;Node8</title>
<path fill="none" stroke="midnightblue" d="M885.43,-257.22C816.93,-250.76 665.13,-234.82 539.11,-210 534.04,-209 528.73,-207.8 523.51,-206.53"/>
<polygon fill="midnightblue" stroke="midnightblue" points="524.19,-203.09 513.64,-204.02 522.47,-209.88 524.19,-203.09"/>
</g>
<!-- Node24 -->
<g id="node24" class="node">
<title>Node24</title>
<g id="a_node24"><a xlink:title=" ">
<polygon fill="none" stroke="#bfbfbf" points="1182.61,-62 1182.61,-81 1251.61,-81 1251.61,-62 1182.61,-62"/>
<text text-anchor="middle" x="1217.11" y="-69" font-family="Helvetica,sans-Serif" font-size="10.00">type_traits</text>
</a>
</g>
</g>
<!-- Node4&#45;&gt;Node24 -->
<g id="edge43" class="edge">
<title>Node4&#45;&gt;Node24</title>
<path fill="none" stroke="midnightblue" d="M958.73,-255.94C1028.97,-246.88 1177.19,-226.09 1194.11,-210 1226.63,-179.1 1224.12,-120.88 1220.26,-91.09"/>
<polygon fill="midnightblue" stroke="midnightblue" points="1223.72,-90.55 1218.78,-81.18 1216.79,-91.59 1223.72,-90.55"/>
</g>
<!-- Node25 -->
<g id="node25" class="node">
<title>Node25</title>
<g id="a_node25"><a xlink:title=" ">
<polygon fill="none" stroke="#bfbfbf" points="1154.61,-123.5 1154.61,-142.5 1201.61,-142.5 1201.61,-123.5 1154.61,-123.5"/>
<text text-anchor="middle" x="1178.11" y="-130.5" font-family="Helvetica,sans-Serif" font-size="10.00">vector</text>
</a>
</g>
</g>
<!-- Node4&#45;&gt;Node25 -->
<g id="edge45" class="edge">
<title>Node4&#45;&gt;Node25</title>
<path fill="none" stroke="midnightblue" d="M958.86,-255.65C1025.36,-246.51 1160.11,-226.2 1174.11,-210 1187.58,-194.42 1186.13,-169.64 1182.94,-152.64"/>
<polygon fill="midnightblue" stroke="midnightblue" points="1186.33,-151.76 1180.73,-142.76 1179.5,-153.29 1186.33,-151.76"/>
</g>
<!-- Node26 -->
<g id="node26" class="node">
<title>Node26</title>
<g id="a_node26"><a xlink:title=" ">
<polygon fill="none" stroke="#bfbfbf" points="49.11,-185 49.11,-204 151.11,-204 151.11,-185 49.11,-185"/>
<text text-anchor="middle" x="100.11" y="-192" font-family="Helvetica,sans-Serif" font-size="10.00">boost/variant.hpp</text>
</a>
</g>
</g>
<!-- Node4&#45;&gt;Node26 -->
<g id="edge32" class="edge">
<title>Node4&#45;&gt;Node26</title>
<path fill="none" stroke="midnightblue" d="M885.39,-260.28C774.99,-259.16 436.65,-252.26 160.11,-210 153.86,-209.04 147.29,-207.76 140.9,-206.34"/>
<polygon fill="midnightblue" stroke="midnightblue" points="141.59,-202.91 131.05,-204.05 140,-209.73 141.59,-202.91"/>
</g>
<!-- Node27 -->
<g id="node27" class="node">
<title>Node27</title>
<g id="a_node27"><a xlink:title=" ">
<polygon fill="none" stroke="#bfbfbf" points="169.61,-179.5 169.61,-209.5 276.61,-209.5 276.61,-179.5 169.61,-179.5"/>
<text text-anchor="start" x="177.61" y="-197.5" font-family="Helvetica,sans-Serif" font-size="10.00">boost/serialization</text>
<text text-anchor="middle" x="223.11" y="-186.5" font-family="Helvetica,sans-Serif" font-size="10.00">/version.hpp</text>
</a>
</g>
</g>
<!-- Node4&#45;&gt;Node27 -->
<g id="edge33" class="edge">
<title>Node4&#45;&gt;Node27</title>
<path fill="none" stroke="midnightblue" d="M885.27,-259.52C788.52,-256.53 519.24,-245.55 286.78,-210.12"/>
<polygon fill="midnightblue" stroke="midnightblue" points="287.2,-206.64 276.79,-208.57 286.13,-213.56 287.2,-206.64"/>
</g>
<!-- Node28 -->
<g id="node28" class="node">
<title>Node28</title>
<g id="a_node28"><a xlink:title=" ">
<polygon fill="none" stroke="#bfbfbf" points="294.61,-179.5 294.61,-209.5 419.61,-209.5 419.61,-179.5 294.61,-179.5"/>
<text text-anchor="start" x="302.61" y="-197.5" font-family="Helvetica,sans-Serif" font-size="10.00">boost/range/algorithm</text>
<text text-anchor="middle" x="357.11" y="-186.5" font-family="Helvetica,sans-Serif" font-size="10.00">/transform.hpp</text>
</a>
</g>
</g>
<!-- Node4&#45;&gt;Node28 -->
<g id="edge34" class="edge">
<title>Node4&#45;&gt;Node28</title>
<path fill="none" stroke="midnightblue" d="M885.39,-258C804.69,-252.25 605.7,-236.58 429.73,-210.16"/>
<polygon fill="midnightblue" stroke="midnightblue" points="430.18,-206.69 419.77,-208.65 429.14,-213.61 430.18,-206.69"/>
</g>
<!-- Node29 -->
<g id="node29" class="node">
<title>Node29</title>
<g id="a_node29"><a xlink:title=" ">
<polygon fill="none" stroke="#bfbfbf" points="548.61,-179.5 548.61,-209.5 655.61,-209.5 655.61,-179.5 548.61,-179.5"/>
<text text-anchor="start" x="556.61" y="-197.5" font-family="Helvetica,sans-Serif" font-size="10.00">boost/serialization</text>
<text text-anchor="middle" x="602.11" y="-186.5" font-family="Helvetica,sans-Serif" font-size="10.00">/serialization.hpp</text>
</a>
</g>
</g>
<!-- Node4&#45;&gt;Node29 -->
<g id="edge35" class="edge">
<title>Node4&#45;&gt;Node29</title>
<path fill="none" stroke="midnightblue" d="M885.28,-253.73C837.06,-244.76 749.64,-228.19 665.79,-210.32"/>
<polygon fill="midnightblue" stroke="midnightblue" points="666.37,-206.87 655.86,-208.19 664.9,-213.71 666.37,-206.87"/>
</g>
<!-- Node30 -->
<g id="node30" class="node">
<title>Node30</title>
<g id="a_node30"><a xlink:title=" ">
<polygon fill="none" stroke="#bfbfbf" points="673.61,-179.5 673.61,-209.5 780.61,-209.5 780.61,-179.5 673.61,-179.5"/>
<text text-anchor="start" x="681.61" y="-197.5" font-family="Helvetica,sans-Serif" font-size="10.00">boost/serialization</text>
<text text-anchor="middle" x="727.11" y="-186.5" font-family="Helvetica,sans-Serif" font-size="10.00">/string.hpp</text>
</a>
</g>
</g>
<!-- Node4&#45;&gt;Node30 -->
<g id="edge36" class="edge">
<title>Node4&#45;&gt;Node30</title>
<path fill="none" stroke="midnightblue" d="M896.22,-251.87C866.45,-241.95 816.84,-225.41 779.03,-212.81"/>
<polygon fill="midnightblue" stroke="midnightblue" points="779.79,-209.37 769.2,-209.53 777.58,-216.01 779.79,-209.37"/>
</g>
<!-- Node31 -->
<g id="node31" class="node">
<title>Node31</title>
<g id="a_node31"><a xlink:title=" ">
<polygon fill="none" stroke="#bfbfbf" points="798.61,-179.5 798.61,-209.5 915.61,-209.5 915.61,-179.5 798.61,-179.5"/>
<text text-anchor="start" x="806.61" y="-197.5" font-family="Helvetica,sans-Serif" font-size="10.00">boost/serialization</text>
<text text-anchor="middle" x="857.11" y="-186.5" font-family="Helvetica,sans-Serif" font-size="10.00">/unordered_map.hpp</text>
</a>
</g>
</g>
<!-- Node4&#45;&gt;Node31 -->
<g id="edge37" class="edge">
<title>Node4&#45;&gt;Node31</title>
<path fill="none" stroke="midnightblue" d="M913.35,-251.73C904.48,-242.86 890.43,-228.81 878.59,-216.97"/>
<polygon fill="midnightblue" stroke="midnightblue" points="880.75,-214.19 871.2,-209.59 875.8,-219.13 880.75,-214.19"/>
</g>
<!-- Node32 -->
<g id="node32" class="node">
<title>Node32</title>
<g id="a_node32"><a xlink:title=" ">
<polygon fill="none" stroke="#bfbfbf" points="933.61,-179.5 933.61,-209.5 1040.61,-209.5 1040.61,-179.5 933.61,-179.5"/>
<text text-anchor="start" x="941.61" y="-197.5" font-family="Helvetica,sans-Serif" font-size="10.00">boost/serialization</text>
<text text-anchor="middle" x="987.11" y="-186.5" font-family="Helvetica,sans-Serif" font-size="10.00">/variant.hpp</text>
</a>
</g>
</g>
<!-- Node4&#45;&gt;Node32 -->
<g id="edge38" class="edge">
<title>Node4&#45;&gt;Node32</title>
<path fill="none" stroke="midnightblue" d="M930.88,-251.73C939.75,-242.86 953.8,-228.81 965.64,-216.97"/>
<polygon fill="midnightblue" stroke="midnightblue" points="968.43,-219.13 973.02,-209.59 963.48,-214.19 968.43,-219.13"/>
</g>
<!-- Node33 -->
<g id="node33" class="node">
<title>Node33</title>
<g id="a_node33"><a xlink:title=" ">
<polygon fill="none" stroke="#bfbfbf" points="1058.61,-179.5 1058.61,-209.5 1165.61,-209.5 1165.61,-179.5 1058.61,-179.5"/>
<text text-anchor="start" x="1066.61" y="-197.5" font-family="Helvetica,sans-Serif" font-size="10.00">boost/serialization</text>
<text text-anchor="middle" x="1112.11" y="-186.5" font-family="Helvetica,sans-Serif" font-size="10.00">/vector.hpp</text>
</a>
</g>
</g>
<!-- Node4&#45;&gt;Node33 -->
<g id="edge39" class="edge">
<title>Node4&#45;&gt;Node33</title>
<path fill="none" stroke="midnightblue" d="M947.34,-251.87C976.35,-241.95 1024.69,-225.41 1061.53,-212.81"/>
<polygon fill="midnightblue" stroke="midnightblue" points="1062.78,-216.08 1071.11,-209.53 1060.51,-209.45 1062.78,-216.08"/>
</g>
<!-- Node4&#45;&gt;Node34 -->
<g id="edge41" class="edge">
<title>Node4&#45;&gt;Node34</title>
<path fill="none" stroke="midnightblue" d="M958.96,-256.83C1019.5,-250.34 1143.54,-235.09 1246.11,-210 1249.51,-209.17 1253.02,-208.19 1256.5,-207.14"/>
<polygon fill="midnightblue" stroke="midnightblue" points="1257.66,-210.44 1266.12,-204.06 1255.53,-203.78 1257.66,-210.44"/>
</g>
<!-- Node4&#45;&gt;Node35 -->
<g id="edge42" class="edge">
<title>Node4&#45;&gt;Node35</title>
<path fill="none" stroke="midnightblue" d="M958.8,-257.9C1074.54,-249.6 1427.26,-223.48 1477.11,-210 1479.05,-209.48 1481.01,-208.84 1482.97,-208.13"/>
<polygon fill="midnightblue" stroke="midnightblue" points="1484.58,-211.24 1492.43,-204.12 1481.85,-204.8 1484.58,-211.24"/>
</g>
<!-- Node36 -->
<g id="node36" class="node">
<title>Node36</title>
<g id="a_node36"><a xlink:title=" ">
<polygon fill="none" stroke="#bfbfbf" points="1374.61,-185 1374.61,-204 1467.61,-204 1467.61,-185 1374.61,-185"/>
<text text-anchor="middle" x="1421.11" y="-192" font-family="Helvetica,sans-Serif" font-size="10.00">unordered_map</text>
</a>
</g>
</g>
<!-- Node4&#45;&gt;Node36 -->
<g id="edge44" class="edge">
<title>Node4&#45;&gt;Node36</title>
<path fill="none" stroke="midnightblue" d="M958.74,-256.29C1029.84,-248.05 1191.49,-228.91 1327.11,-210 1339.12,-208.33 1351.98,-206.42 1364.21,-204.55"/>
<polygon fill="midnightblue" stroke="midnightblue" points="1364.95,-207.98 1374.3,-203 1363.88,-201.06 1364.95,-207.98"/>
</g>
<!-- Node6 -->
<g id="node6" class="node">
<title>Node6</title>
<g id="a_node6"><a xlink:title=" ">
<polygon fill="none" stroke="#bfbfbf" points="605.61,-56.5 605.61,-86.5 712.61,-86.5 712.61,-56.5 605.61,-56.5"/>
<text text-anchor="start" x="613.61" y="-74.5" font-family="Helvetica,sans-Serif" font-size="10.00">boost/serialization</text>
<text text-anchor="middle" x="659.11" y="-63.5" font-family="Helvetica,sans-Serif" font-size="10.00">/access.hpp</text>
</a>
</g>
</g>
<!-- Node5&#45;&gt;Node6 -->
<g id="edge5" class="edge">
<title>Node5&#45;&gt;Node6</title>
<path fill="none" stroke="midnightblue" d="M75.92,-124.44C78.68,-123.91 81.44,-123.42 84.11,-123 268.34,-94.32 488.5,-80.65 595.05,-75.33"/>
<polygon fill="midnightblue" stroke="midnightblue" points="595.5,-78.81 605.32,-74.82 595.16,-71.82 595.5,-78.81"/>
</g>
<!-- Node5&#45;&gt;Node7 -->
<g id="edge6" class="edge">
<title>Node5&#45;&gt;Node7</title>
<path fill="none" stroke="midnightblue" d="M75.97,-124.74C78.72,-124.14 81.47,-123.56 84.11,-123 287.06,-80.41 531.48,-34.62 622.57,-17.74"/>
<polygon fill="midnightblue" stroke="midnightblue" points="623.21,-21.18 632.41,-15.92 621.94,-14.3 623.21,-21.18"/>
</g>
<!-- Node8&#45;&gt;Node7 -->
<g id="edge25" class="edge">
<title>Node8&#45;&gt;Node7</title>
<path fill="none" stroke="midnightblue" d="M501.79,-184.87C518,-176.2 541.75,-161.49 557.11,-143 584.2,-110.41 569.27,-88.79 596.11,-56 606.46,-43.36 621.18,-32.58 633.79,-24.75"/>
<polygon fill="midnightblue" stroke="midnightblue" points="635.69,-27.69 642.5,-19.57 632.12,-21.67 635.69,-27.69"/>
</g>
<!-- Node9 -->
<g id="node9" class="node">
<title>Node9</title>
<g id="a_node9"><a xlink:title=" ">
<polygon fill="none" stroke="#bfbfbf" points="93.11,-123.5 93.11,-142.5 243.11,-142.5 243.11,-123.5 93.11,-123.5"/>
<text text-anchor="middle" x="168.11" y="-130.5" font-family="Helvetica,sans-Serif" font-size="10.00">boost/qvm/deduce_vec.hpp</text>
</a>
</g>
</g>
<!-- Node8&#45;&gt;Node9 -->
<g id="edge8" class="edge">
<title>Node8&#45;&gt;Node9</title>
<path fill="none" stroke="midnightblue" d="M453.12,-184.99C445.01,-182.9 436.26,-180.76 428.11,-179 363.01,-164.96 288,-152.36 235.33,-144.08"/>
<polygon fill="midnightblue" stroke="midnightblue" points="235.86,-140.62 225.43,-142.54 234.78,-147.54 235.86,-140.62"/>
</g>
<!-- Node10 -->
<g id="node10" class="node">
<title>Node10</title>
<g id="a_node10"><a xlink:title=" ">
<polygon fill="none" stroke="#bfbfbf" points="261.11,-123.5 261.11,-142.5 401.11,-142.5 401.11,-123.5 261.11,-123.5"/>
<text text-anchor="middle" x="331.11" y="-130.5" font-family="Helvetica,sans-Serif" font-size="10.00">boost/qvm/vec_traits.hpp</text>
</a>
</g>
</g>
<!-- Node8&#45;&gt;Node10 -->
<g id="edge9" class="edge">
<title>Node8&#45;&gt;Node10</title>
<path fill="none" stroke="midnightblue" d="M462.19,-184.98C436.06,-174.81 392.2,-157.76 362.48,-146.2"/>
<polygon fill="midnightblue" stroke="midnightblue" points="363.58,-142.87 352.99,-142.51 361.05,-149.4 363.58,-142.87"/>
</g>
<!-- Node11 -->
<g id="node11" class="node">
<title>Node11</title>
<g id="a_node11"><a xlink:href="Array_8hpp.html" target="_top" xlink:title=" ">
<polygon fill="none" stroke="black" points="707.11,-123.5 707.11,-142.5 793.11,-142.5 793.11,-123.5 707.11,-123.5"/>
<text text-anchor="middle" x="750.11" y="-130.5" font-family="Helvetica,sans-Serif" font-size="10.00">utils/Array.hpp</text>
</a>
</g>
</g>
<!-- Node8&#45;&gt;Node11 -->
<g id="edge10" class="edge">
<title>Node8&#45;&gt;Node11</title>
<path fill="none" stroke="midnightblue" d="M515.46,-184.96C523.18,-182.93 531.43,-180.83 539.11,-179 592.75,-166.22 654.46,-153.26 697.24,-144.55"/>
<polygon fill="midnightblue" stroke="midnightblue" points="698.04,-147.96 707.14,-142.54 696.65,-141.1 698.04,-147.96"/>
</g>
<!-- Node8&#45;&gt;Node13 -->
<g id="edge23" class="edge">
<title>Node8&#45;&gt;Node13</title>
<path fill="none" stroke="midnightblue" d="M511.85,-184.95C520.5,-182.62 530.13,-180.37 539.11,-179 718.56,-151.71 1186.14,-209.29 1355.11,-143 1390.93,-128.95 1397.69,-117.51 1421.11,-87 1434.7,-69.31 1444.89,-45.67 1450.9,-29.48"/>
<polygon fill="midnightblue" stroke="midnightblue" points="1454.35,-30.22 1454.38,-19.63 1447.75,-27.89 1454.35,-30.22"/>
</g>
<!-- Node16 -->
<g id="node16" class="node">
<title>Node16</title>
<g id="a_node16"><a xlink:title=" ">
<polygon fill="none" stroke="#bfbfbf" points="1109.61,-62 1109.61,-81 1162.61,-81 1162.61,-62 1109.61,-62"/>
<text text-anchor="middle" x="1136.11" y="-69" font-family="Helvetica,sans-Serif" font-size="10.00">iterator</text>
</a>
</g>
</g>
<!-- Node8&#45;&gt;Node16 -->
<g id="edge28" class="edge">
<title>Node8&#45;&gt;Node16</title>
<path fill="none" stroke="midnightblue" d="M513.93,-184.93C522.05,-182.79 530.88,-180.64 539.11,-179 654.81,-155.92 689.77,-179.02 802.11,-143 820.29,-137.17 821.94,-128.84 840.11,-123 951.17,-87.3 987.38,-117.02 1100.11,-87 1102.62,-86.33 1105.19,-85.54 1107.74,-84.67"/>
<polygon fill="midnightblue" stroke="midnightblue" points="1109.22,-87.85 1117.35,-81.07 1106.76,-81.3 1109.22,-87.85"/>
</g>
<!-- Node19 -->
<g id="node19" class="node">
<title>Node19</title>
<g id="a_node19"><a xlink:title=" ">
<polygon fill="none" stroke="#bfbfbf" points="419.11,-123.5 419.11,-142.5 483.11,-142.5 483.11,-123.5 419.11,-123.5"/>
<text text-anchor="middle" x="451.11" y="-130.5" font-family="Helvetica,sans-Serif" font-size="10.00">algorithm</text>
</a>
</g>
</g>
<!-- Node8&#45;&gt;Node19 -->
<g id="edge22" class="edge">
<title>Node8&#45;&gt;Node19</title>
<path fill="none" stroke="midnightblue" d="M479.39,-184.98C474.53,-176.23 466.85,-162.37 460.71,-151.31"/>
<polygon fill="midnightblue" stroke="midnightblue" points="463.74,-149.56 455.83,-142.51 457.62,-152.95 463.74,-149.56"/>
</g>
<!-- Node20 -->
<g id="node20" class="node">
<title>Node20</title>
<g id="a_node20"><a xlink:title=" ">
<polygon fill="none" stroke="#bfbfbf" points="501.61,-123.5 501.61,-142.5 548.61,-142.5 548.61,-123.5 501.61,-123.5"/>
<text text-anchor="middle" x="525.11" y="-130.5" font-family="Helvetica,sans-Serif" font-size="10.00">cmath</text>
</a>
</g>
</g>
<!-- Node8&#45;&gt;Node20 -->
<g id="edge24" class="edge">
<title>Node8&#45;&gt;Node20</title>
<path fill="none" stroke="midnightblue" d="M489.99,-184.98C496.08,-176.14 505.76,-162.09 513.42,-150.98"/>
<polygon fill="midnightblue" stroke="midnightblue" points="516.46,-152.73 519.25,-142.51 510.69,-148.76 516.46,-152.73"/>
</g>
<!-- Node21 -->
<g id="node21" class="node">
<title>Node21</title>
<g id="a_node21"><a xlink:title=" ">
<polygon fill="none" stroke="#bfbfbf" points="849.61,-123.5 849.61,-142.5 914.61,-142.5 914.61,-123.5 849.61,-123.5"/>
<text text-anchor="middle" x="882.11" y="-130.5" font-family="Helvetica,sans-Serif" font-size="10.00">functional</text>
</a>
</g>
</g>
<!-- Node8&#45;&gt;Node21 -->
<g id="edge26" class="edge">
<title>Node8&#45;&gt;Node21</title>
<path fill="none" stroke="midnightblue" d="M513.63,-184.92C521.83,-182.76 530.77,-180.6 539.11,-179 669.27,-154.05 704.18,-163.47 835.11,-143 836.58,-142.77 838.06,-142.53 839.56,-142.28"/>
<polygon fill="midnightblue" stroke="midnightblue" points="840.3,-145.71 849.55,-140.53 839.09,-138.81 840.3,-145.71"/>
</g>
<!-- Node22 -->
<g id="node22" class="node">
<title>Node22</title>
<g id="a_node22"><a xlink:title=" ">
<polygon fill="none" stroke="#bfbfbf" points="932.61,-123.5 932.61,-142.5 1015.61,-142.5 1015.61,-123.5 932.61,-123.5"/>
<text text-anchor="middle" x="974.11" y="-130.5" font-family="Helvetica,sans-Serif" font-size="10.00">initializer_list</text>
</a>
</g>
</g>
<!-- Node8&#45;&gt;Node22 -->
<g id="edge27" class="edge">
<title>Node8&#45;&gt;Node22</title>
<path fill="none" stroke="midnightblue" d="M512.75,-185C521.18,-182.76 530.46,-180.54 539.11,-179 704.68,-149.62 751.47,-165.29 922.32,-142.99"/>
<polygon fill="midnightblue" stroke="midnightblue" points="922.96,-146.43 932.41,-141.64 922.03,-139.49 922.96,-146.43"/>
</g>
<!-- Node23 -->
<g id="node23" class="node">
<title>Node23</title>
<g id="a_node23"><a xlink:title=" ">
<polygon fill="none" stroke="#bfbfbf" points="1034.11,-123.5 1034.11,-142.5 1090.11,-142.5 1090.11,-123.5 1034.11,-123.5"/>
<text text-anchor="middle" x="1062.11" y="-130.5" font-family="Helvetica,sans-Serif" font-size="10.00">numeric</text>
</a>
</g>
</g>
<!-- Node8&#45;&gt;Node23 -->
<g id="edge29" class="edge">
<title>Node8&#45;&gt;Node23</title>
<path fill="none" stroke="midnightblue" d="M512.44,-184.97C520.95,-182.7 530.35,-180.47 539.11,-179 752.29,-143.3 810.5,-176.01 1024.11,-143 1024.21,-142.98 1024.32,-142.97 1024.42,-142.95"/>
<polygon fill="midnightblue" stroke="midnightblue" points="1024.79,-146.44 1033.99,-141.19 1023.52,-139.56 1024.79,-146.44"/>
</g>
<!-- Node8&#45;&gt;Node24 -->
<g id="edge30" class="edge">
<title>Node8&#45;&gt;Node24</title>
<path fill="none" stroke="midnightblue" d="M512.15,-184.99C520.73,-182.69 530.24,-180.44 539.11,-179 785.29,-139.02 860.95,-217.03 1099.11,-143 1137.54,-131.06 1176.54,-104.26 1198.69,-87.36"/>
<polygon fill="midnightblue" stroke="midnightblue" points="1200.84,-90.12 1206.57,-81.21 1196.53,-84.6 1200.84,-90.12"/>
</g>
<!-- Node8&#45;&gt;Node25 -->
<g id="edge31" class="edge">
<title>Node8&#45;&gt;Node25</title>
<path fill="none" stroke="midnightblue" d="M512.15,-184.97C520.73,-182.67 530.24,-180.42 539.11,-179 801.14,-136.97 872.1,-178.28 1135.11,-143 1138.19,-142.59 1141.37,-142.08 1144.55,-141.51"/>
<polygon fill="midnightblue" stroke="midnightblue" points="1145.41,-144.91 1154.56,-139.58 1144.08,-138.04 1145.41,-144.91"/>
</g>
<!-- Node11&#45;&gt;Node6 -->
<g id="edge16" class="edge">
<title>Node11&#45;&gt;Node6</title>
<path fill="none" stroke="midnightblue" d="M737.08,-123.48C724.64,-115.34 705.44,-102.79 689.21,-92.18"/>
<polygon fill="midnightblue" stroke="midnightblue" points="690.85,-89.07 680.56,-86.52 687.02,-94.92 690.85,-89.07"/>
</g>
<!-- Node11&#45;&gt;Node7 -->
<g id="edge18" class="edge">
<title>Node11&#45;&gt;Node7</title>
<path fill="none" stroke="midnightblue" d="M748.48,-123.22C745.33,-108.18 737.26,-77.08 721.11,-56 711.35,-43.26 697.01,-32.53 684.58,-24.74"/>
<polygon fill="midnightblue" stroke="midnightblue" points="686.34,-21.72 675.96,-19.61 682.76,-27.73 686.34,-21.72"/>
</g>
<!-- Node12 -->
<g id="node12" class="node">
<title>Node12</title>
<g id="a_node12"><a xlink:href="device__qualifier_8hpp.html" target="_top" xlink:title=" ">
<polygon fill="none" stroke="black" points="975.11,-62 975.11,-81 1091.11,-81 1091.11,-62 975.11,-62"/>
<text text-anchor="middle" x="1033.11" y="-69" font-family="Helvetica,sans-Serif" font-size="10.00">device_qualifier.hpp</text>
</a>
</g>
</g>
<!-- Node11&#45;&gt;Node12 -->
<g id="edge11" class="edge">
<title>Node11&#45;&gt;Node12</title>
<path fill="none" stroke="midnightblue" d="M790.66,-123.48C841.31,-112.83 927.96,-94.61 982.79,-83.08"/>
<polygon fill="midnightblue" stroke="midnightblue" points="983.58,-86.49 992.64,-81.01 982.14,-79.64 983.58,-86.49"/>
</g>
<!-- Node11&#45;&gt;Node13 -->
<g id="edge17" class="edge">
<title>Node11&#45;&gt;Node13</title>
<path fill="none" stroke="midnightblue" d="M787.36,-123.44C819.4,-115.57 866.57,-102.74 906.11,-87 934,-75.9 937.3,-64.41 966.11,-56 1051.64,-31.02 1322.73,-16.91 1421.05,-12.51"/>
<polygon fill="midnightblue" stroke="midnightblue" points="1421.26,-16 1431.09,-12.07 1420.95,-9.01 1421.26,-16"/>
</g>
<!-- Node14 -->
<g id="node14" class="node">
<title>Node14</title>
<g id="a_node14"><a xlink:href="get_8hpp.html" target="_top" xlink:title=" ">
<polygon fill="none" stroke="black" points="844.61,-62 844.61,-81 897.61,-81 897.61,-62 844.61,-62"/>
<text text-anchor="middle" x="871.11" y="-69" font-family="Helvetica,sans-Serif" font-size="10.00">get.hpp</text>
</a>
</g>
</g>
<!-- Node11&#45;&gt;Node14 -->
<g id="edge13" class="edge">
<title>Node11&#45;&gt;Node14</title>
<path fill="none" stroke="midnightblue" d="M767.45,-123.48C787.67,-113.53 821.3,-96.99 844.76,-85.46"/>
<polygon fill="midnightblue" stroke="midnightblue" points="846.38,-88.56 853.81,-81.01 843.29,-82.28 846.38,-88.56"/>
</g>
<!-- Node11&#45;&gt;Node16 -->
<g id="edge19" class="edge">
<title>Node11&#45;&gt;Node16</title>
<path fill="none" stroke="midnightblue" d="M793.35,-125.01C797.99,-124.31 802.65,-123.63 807.11,-123 937.04,-104.77 973.08,-119.79 1100.11,-87 1102.63,-86.35 1105.2,-85.57 1107.75,-84.71"/>
<polygon fill="midnightblue" stroke="midnightblue" points="1109.22,-87.9 1117.37,-81.12 1106.78,-81.34 1109.22,-87.9"/>
</g>
<!-- Node17 -->
<g id="node17" class="node">
<title>Node17</title>
<g id="a_node17"><a xlink:title=" ">
<polygon fill="none" stroke="#bfbfbf" points="769.61,-62 769.61,-81 826.61,-81 826.61,-62 769.61,-62"/>
<text text-anchor="middle" x="798.11" y="-69" font-family="Helvetica,sans-Serif" font-size="10.00">ostream</text>
</a>
</g>
</g>
<!-- Node11&#45;&gt;Node17 -->
<g id="edge20" class="edge">
<title>Node11&#45;&gt;Node17</title>
<path fill="none" stroke="midnightblue" d="M756.99,-123.48C764.26,-114.46 775.91,-100.02 784.95,-88.81"/>
<polygon fill="midnightblue" stroke="midnightblue" points="787.69,-90.99 791.25,-81.01 782.25,-86.59 787.69,-90.99"/>
</g>
<!-- Node18 -->
<g id="node18" class="node">
<title>Node18</title>
<g id="a_node18"><a xlink:title=" ">
<polygon fill="none" stroke="#bfbfbf" points="1346.61,-62 1346.61,-81 1411.61,-81 1411.61,-62 1346.61,-62"/>
<text text-anchor="middle" x="1379.11" y="-69" font-family="Helvetica,sans-Serif" font-size="10.00">stdexcept</text>
</a>
</g>
</g>
<!-- Node11&#45;&gt;Node18 -->
<g id="edge21" class="edge">
<title>Node11&#45;&gt;Node18</title>
<path fill="none" stroke="midnightblue" d="M793.13,-127.57C808.01,-126.08 824.79,-124.42 840.11,-123 1026.66,-105.68 1073.76,-106.33 1260.11,-87 1285.52,-84.36 1313.91,-80.92 1336.59,-78.06"/>
<polygon fill="midnightblue" stroke="midnightblue" points="1337.09,-81.52 1346.57,-76.78 1336.21,-74.58 1337.09,-81.52"/>
</g>
<!-- Node12&#45;&gt;Node13 -->
<g id="edge12" class="edge">
<title>Node12&#45;&gt;Node13</title>
<path fill="none" stroke="midnightblue" d="M1069.86,-61.94C1079.66,-59.82 1090.26,-57.68 1100.11,-56 1216.77,-36.06 1356.29,-20.99 1420.93,-14.5"/>
<polygon fill="midnightblue" stroke="midnightblue" points="1421.41,-17.97 1431.02,-13.5 1420.72,-11 1421.41,-17.97"/>
</g>
<!-- Node14&#45;&gt;Node7 -->
<g id="edge14" class="edge">
<title>Node14&#45;&gt;Node7</title>
<path fill="none" stroke="midnightblue" d="M851.11,-61.89C845.94,-59.83 840.36,-57.72 835.11,-56 787.65,-40.45 731.56,-26.92 695.67,-18.86"/>
<polygon fill="midnightblue" stroke="midnightblue" points="696.19,-15.39 685.67,-16.63 694.67,-22.22 696.19,-15.39"/>
</g>
<!-- Node15 -->
<g id="node15" class="node">
<title>Node15</title>
<g id="a_node15"><a xlink:title=" ">
<polygon fill="none" stroke="#bfbfbf" points="850.61,-0.5 850.61,-19.5 891.61,-19.5 891.61,-0.5 850.61,-0.5"/>
<text text-anchor="middle" x="871.11" y="-7.5" font-family="Helvetica,sans-Serif" font-size="10.00">tuple</text>
</a>
</g>
</g>
<!-- Node14&#45;&gt;Node15 -->
<g id="edge15" class="edge">
<title>Node14&#45;&gt;Node15</title>
<path fill="none" stroke="midnightblue" d="M871.11,-61.98C871.11,-53.58 871.11,-40.48 871.11,-29.66"/>
<polygon fill="midnightblue" stroke="midnightblue" points="874.61,-29.51 871.11,-19.51 867.61,-29.51 874.61,-29.51"/>
</g>
<!-- Node37&#45;&gt;Node7 -->
<g id="edge49" class="edge">
<title>Node37&#45;&gt;Node7</title>
<path fill="none" stroke="midnightblue" d="M1301,-123.05C1296.59,-106.55 1284.69,-71.59 1260.11,-56 1236.21,-40.84 823.11,-19.15 696.02,-12.81"/>
<polygon fill="midnightblue" stroke="midnightblue" points="695.81,-9.29 685.65,-12.29 695.47,-16.28 695.81,-9.29"/>
</g>
<!-- Node37&#45;&gt;Node12 -->
<g id="edge47" class="edge">
<title>Node37&#45;&gt;Node12</title>
<path fill="none" stroke="midnightblue" d="M1264.43,-123.48C1216.31,-112.87 1134.13,-94.76 1081.78,-83.22"/>
<polygon fill="midnightblue" stroke="midnightblue" points="1082.25,-79.74 1071.73,-81.01 1080.74,-86.58 1082.25,-79.74"/>
</g>
<!-- Node37&#45;&gt;Node13 -->
<g id="edge48" class="edge">
<title>Node37&#45;&gt;Node13</title>
<path fill="none" stroke="midnightblue" d="M1304.87,-123.2C1308.43,-107.57 1317.93,-74.82 1338.11,-56 1361.08,-34.59 1395.22,-23.08 1421.06,-17.08"/>
<polygon fill="midnightblue" stroke="midnightblue" points="1421.82,-20.5 1430.86,-14.97 1420.35,-13.66 1421.82,-20.5"/>
</g>
<!-- Node37&#45;&gt;Node16 -->
<g id="edge50" class="edge">
<title>Node37&#45;&gt;Node16</title>
<path fill="none" stroke="midnightblue" d="M1277.11,-123.34C1250.78,-114.5 1208.97,-100.22 1173.11,-87 1171.22,-86.3 1169.28,-85.57 1167.32,-84.83"/>
<polygon fill="midnightblue" stroke="midnightblue" points="1168.17,-81.41 1157.58,-81.08 1165.65,-87.94 1168.17,-81.41"/>
</g>
<!-- Node37&#45;&gt;Node18 -->
<g id="edge51" class="edge">
<title>Node37&#45;&gt;Node18</title>
<path fill="none" stroke="midnightblue" d="M1314,-123.48C1326.08,-114.02 1345.78,-98.6 1360.35,-87.19"/>
<polygon fill="midnightblue" stroke="midnightblue" points="1362.53,-89.93 1368.25,-81.01 1358.21,-84.42 1362.53,-89.93"/>
</g>
<!-- Node37&#45;&gt;Node24 -->
<g id="edge52" class="edge">
<title>Node37&#45;&gt;Node24</title>
<path fill="none" stroke="midnightblue" d="M1290.79,-123.48C1277,-113.93 1254.42,-98.31 1237.88,-86.87"/>
<polygon fill="midnightblue" stroke="midnightblue" points="1239.63,-83.82 1229.41,-81.01 1235.65,-89.58 1239.63,-83.82"/>
</g>
<!-- Node39&#45;&gt;Node13 -->
<g id="edge62" class="edge">
<title>Node39&#45;&gt;Node13</title>
<path fill="none" stroke="midnightblue" d="M1606.18,-257.75C1671.19,-251.93 1775.64,-233.98 1744.11,-179 1689.44,-83.64 1557.33,-37.19 1493.22,-19.65"/>
<polygon fill="midnightblue" stroke="midnightblue" points="1493.73,-16.17 1483.17,-16.99 1491.94,-22.94 1493.73,-16.17"/>
</g>
<!-- Node39&#45;&gt;Node18 -->
<g id="edge65" class="edge">
<title>Node39&#45;&gt;Node18</title>
<path fill="none" stroke="midnightblue" d="M1558.12,-251.82C1557.72,-235.95 1554.93,-201.8 1539.11,-179 1507,-132.68 1447.61,-101.12 1410.92,-85.01"/>
<polygon fill="midnightblue" stroke="midnightblue" points="1412.23,-81.77 1401.66,-81.06 1409.49,-88.2 1412.23,-81.77"/>
</g>
<!-- Node39&#45;&gt;Node34 -->
<g id="edge64" class="edge">
<title>Node39&#45;&gt;Node34</title>
<path fill="none" stroke="midnightblue" d="M1522.67,-251.94C1472.38,-239.78 1380.63,-217.61 1328.35,-204.98"/>
<polygon fill="midnightblue" stroke="midnightblue" points="1328.98,-201.53 1318.44,-202.59 1327.34,-208.34 1328.98,-201.53"/>
</g>
<!-- Node39&#45;&gt;Node35 -->
<g id="edge66" class="edge">
<title>Node39&#45;&gt;Node35</title>
<path fill="none" stroke="midnightblue" d="M1551.37,-251.73C1543.57,-241.6 1530.57,-224.69 1520.85,-212.06"/>
<polygon fill="midnightblue" stroke="midnightblue" points="1523.62,-209.92 1514.75,-204.13 1518.07,-214.19 1523.62,-209.92"/>
</g>
<!-- Node39&#45;&gt;Node36 -->
<g id="edge68" class="edge">
<title>Node39&#45;&gt;Node36</title>
<path fill="none" stroke="midnightblue" d="M1539.92,-251.87C1516.58,-240.8 1475.88,-221.49 1448.72,-208.6"/>
<polygon fill="midnightblue" stroke="midnightblue" points="1449.92,-205.29 1439.38,-204.17 1446.92,-211.62 1449.92,-205.29"/>
</g>
<!-- Node40 -->
<g id="node40" class="node">
<title>Node40</title>
<g id="a_node40"><a xlink:title=" ">
<polygon fill="none" stroke="#bfbfbf" points="1586.61,-185 1586.61,-204 1651.61,-204 1651.61,-185 1586.61,-185"/>
<text text-anchor="middle" x="1619.11" y="-192" font-family="Helvetica,sans-Serif" font-size="10.00">exception</text>
</a>
</g>
</g>
<!-- Node39&#45;&gt;Node40 -->
<g id="edge63" class="edge">
<title>Node39&#45;&gt;Node40</title>
<path fill="none" stroke="midnightblue" d="M1566.34,-251.73C1575.94,-241.5 1592.03,-224.36 1603.92,-211.69"/>
<polygon fill="midnightblue" stroke="midnightblue" points="1606.73,-213.81 1611.02,-204.13 1601.62,-209.02 1606.73,-213.81"/>
</g>
<!-- Node41 -->
<g id="node41" class="node">
<title>Node41</title>
<g id="a_node41"><a xlink:title=" ">
<polygon fill="none" stroke="#bfbfbf" points="1669.61,-185 1669.61,-204 1734.61,-204 1734.61,-185 1669.61,-185"/>
<text text-anchor="middle" x="1702.11" y="-192" font-family="Helvetica,sans-Serif" font-size="10.00">typeindex</text>
</a>
</g>
</g>
<!-- Node39&#45;&gt;Node41 -->
<g id="edge67" class="edge">
<title>Node39&#45;&gt;Node41</title>
<path fill="none" stroke="midnightblue" d="M1577.24,-251.87C1601.87,-240.75 1644.92,-221.32 1673.47,-208.43"/>
<polygon fill="midnightblue" stroke="midnightblue" points="1675.24,-211.47 1682.91,-204.17 1672.36,-205.09 1675.24,-211.47"/>
</g>
</g>
</svg>
        <g id="navigator" transform="translate(0 0)" fill="#404254">
                <rect fill="#f2f5e9" fill-opacity="0.5" stroke="#606060" stroke-width=".5" x="0" y="0" width="60" height="60"/>
                <use id="zoomplus" xlink:href="#zoomPlus" x="17" y="9" onmousedown="handleZoom(evt,'in')"/>
                <use id="zoomminus" xlink:href="#zoomMin" x="42" y="9" onmousedown="handleZoom(evt,'out')"/>
                <use id="reset" xlink:href="#resetDef" x="30" y="36" onmousedown="handleReset()"/>
                <g id="arrowUp" xlink:href="#dirArrow" transform="translate(30 24)" onmousedown="handlePan(0,-1)">
                  <use xlink:href="#rim" fill="#404040">
                        <set attributeName="fill" to="#808080" begin="arrowUp.mouseover" end="arrowUp.mouseout"/>
                  </use>
                  <path fill="none" stroke="white" stroke-width="1.5" d="M0,-3.0v7 M-2.5,-0.5L0,-3.0L2.5,-0.5"/>
                </g>
                <g id="arrowRight" xlink:href="#dirArrow" transform="rotate(90) translate(36 -43)" onmousedown="handlePan(1,0)">
                  <use xlink:href="#rim" fill="#404040">
                        <set attributeName="fill" to="#808080" begin="arrowRight.mouseover" end="arrowRight.mouseout"/>
                  </use>
                  <path fill="none" stroke="white" stroke-width="1.5" d="M0,-3.0v7 M-2.5,-0.5L0,-3.0L2.5,-0.5"/>
                </g>
                <g id="arrowDown" xlink:href="#dirArrow" transform="rotate(180) translate(-30 -48)" onmousedown="handlePan(0,1)">
                  <use xlink:href="#rim" fill="#404040">
                        <set attributeName="fill" to="#808080" begin="arrowDown.mouseover" end="arrowDown.mouseout"/>
                  </use>
                  <path fill="none" stroke="white" stroke-width="1.5" d="M0,-3.0v7 M-2.5,-0.5L0,-3.0L2.5,-0.5"/>
                </g>
                <g id="arrowLeft" xlink:href="#dirArrow" transform="rotate(270) translate(-36 17)" onmousedown="handlePan(-1,0)">
                  <use xlink:href="#rim" fill="#404040">
                        <set attributeName="fill" to="#808080" begin="arrowLeft.mouseover" end="arrowLeft.mouseout"/>
                  </use>
                  <path fill="none" stroke="white" stroke-width="1.5" d="M0,-3.0v7 M-2.5,-0.5L0,-3.0L2.5,-0.5"/>
                </g>
        </g>
        <svg viewBox="0 0 15 15" width="100%" height="30px" preserveAspectRatio="xMaxYMin meet">
         <g id="arrow_out" transform="scale(0.3 0.3)">
          <a xlink:href="LocalContext_8hpp__incl_org.svg" target="_base">
           <rect id="button" ry="5" rx="5" y="6" x="6" height="38" width="38"
                fill="#f2f5e9" fill-opacity="0.5" stroke="#606060" stroke-width="1.0"/>
           <path id="arrow"
             d="M 11.500037,31.436501 C 11.940474,20.09759 22.043105,11.32322 32.158766,21.979434 L 37.068811,17.246167 C 37.068811,17.246167 37.088388,32 37.088388,32 L 22.160133,31.978069 C 22.160133,31.978069 26.997745,27.140456 26.997745,27.140456 C 18.528582,18.264221 13.291696,25.230495 11.500037,31.436501 z"
             style="fill:#404040;"/>
          </a>
         </g>
        </svg>
</svg>
