<?xml version="1.0" encoding="UTF-8" standalone="no"?>
<!DOCTYPE svg PUBLIC "-//W3C//DTD SVG 1.1//EN"
 "http://www.w3.org/Graphics/SVG/1.1/DTD/svg11.dtd">
<!-- Generated by graphviz version 2.43.0 (0)
 -->
<!-- Title: mask.hpp Pages: 1 -->
<!--zoomable 207 -->
<svg id="main" version="1.1" xmlns="http://www.w3.org/2000/svg" xmlns:xlink="http://www.w3.org/1999/xlink" xml:space="preserve" onload="init(evt)">
<style type="text/css"><![CDATA[
.edge:hover path { stroke: red; }
.edge:hover polygon { stroke: red; fill: red; }
]]></style>
<script type="text/javascript"><![CDATA[
var edges = document.getElementsByTagName('g');
if (edges && edges.length) {
  for (var i=0;i<edges.length;i++) {
    if (edges[i].id.substr(0,4)=='edge') {
      edges[i].setAttribute('class','edge');
    }
  }
}
]]></script>
        <defs>
                <circle id="rim" cx="0" cy="0" r="7"/>
                <circle id="rim2" cx="0" cy="0" r="3.5"/>
                <g id="zoomPlus">
                        <use xlink:href="#rim" fill="#404040">
                                <set attributeName="fill" to="#808080" begin="zoomplus.mouseover" end="zoomplus.mouseout"/>
                        </use>
                        <path d="M-4,0h8M0,-4v8" fill="none" stroke="white" stroke-width="1.5" pointer-events="none"/>
                </g>
                <g id="zoomMin">
                        <use xlink:href="#rim" fill="#404040">
                                <set attributeName="fill" to="#808080" begin="zoomminus.mouseover" end="zoomminus.mouseout"/>
                        </use>
                        <path d="M-4,0h8" fill="none" stroke="white" stroke-width="1.5" pointer-events="none"/>
                </g>
                <g id="dirArrow">
                        <path fill="none" stroke="white" stroke-width="1.5" d="M0,-3.0v7 M-2.5,-0.5L0,-3.0L2.5,-0.5"/>
                </g>
               <g id="resetDef">
                       <use xlink:href="#rim2" fill="#404040">
                               <set attributeName="fill" to="#808080" begin="reset.mouseover" end="reset.mouseout"/>
                       </use>
               </g>
        </defs>

<script type="text/javascript">
var viewWidth = 898;
var viewHeight = 207;
var sectionId = 'dynsection-0';
</script>
<script xlink:href="svgpan.js"/>
<svg id="graph" class="graph">
<g id="viewport">
<title>mask.hpp</title>
<!-- Node1 -->
<g id="node1" class="node">
<title>Node1</title>
<g id="a_node1"><a xlink:title=" ">
<polygon fill="#bfbfbf" stroke="black" points="656,-179.5 656,-198.5 721,-198.5 721,-179.5 656,-179.5"/>
<text text-anchor="middle" x="688.5" y="-186.5" font-family="Helvetica,sans-Serif" font-size="10.00">mask.hpp</text>
</a>
</g>
</g>
<!-- Node2 -->
<g id="node2" class="node">
<title>Node2</title>
<g id="a_node2"><a xlink:href="Array_8hpp.html" target="_top" xlink:title=" ">
<polygon fill="none" stroke="black" points="352.5,-123.5 352.5,-142.5 438.5,-142.5 438.5,-123.5 352.5,-123.5"/>
<text text-anchor="middle" x="395.5" y="-130.5" font-family="Helvetica,sans-Serif" font-size="10.00">utils/Array.hpp</text>
</a>
</g>
</g>
<!-- Node1&#45;&gt;Node2 -->
<g id="edge1" class="edge">
<title>Node1&#45;&gt;Node2</title>
<path fill="none" stroke="midnightblue" d="M655.74,-181.96C605.56,-172.71 509.14,-154.94 448.79,-143.82"/>
<polygon fill="midnightblue" stroke="midnightblue" points="449.17,-140.33 438.7,-141.96 447.9,-147.22 449.17,-140.33"/>
</g>
<!-- Node5 -->
<g id="node5" class="node">
<title>Node5</title>
<g id="a_node5"><a xlink:href="get_8hpp.html" target="_top" xlink:title=" ">
<polygon fill="none" stroke="black" points="0,-62 0,-81 53,-81 53,-62 0,-62"/>
<text text-anchor="middle" x="26.5" y="-69" font-family="Helvetica,sans-Serif" font-size="10.00">get.hpp</text>
</a>
</g>
</g>
<!-- Node1&#45;&gt;Node5 -->
<g id="edge13" class="edge">
<title>Node1&#45;&gt;Node5</title>
<path fill="none" stroke="midnightblue" d="M655.92,-185.74C562.03,-178.58 283.51,-152.91 62.5,-87 60.21,-86.32 57.87,-85.55 55.53,-84.72"/>
<polygon fill="midnightblue" stroke="midnightblue" points="56.66,-81.41 46.07,-81.15 54.19,-87.96 56.66,-81.41"/>
</g>
<!-- Node6 -->
<g id="node6" class="node">
<title>Node6</title>
<g id="a_node6"><a xlink:title=" ">
<polygon fill="none" stroke="#bfbfbf" points="601,-0.5 601,-19.5 654,-19.5 654,-0.5 601,-0.5"/>
<text text-anchor="middle" x="627.5" y="-7.5" font-family="Helvetica,sans-Serif" font-size="10.00">cstddef</text>
</a>
</g>
</g>
<!-- Node1&#45;&gt;Node6 -->
<g id="edge18" class="edge">
<title>Node1&#45;&gt;Node6</title>
<path fill="none" stroke="midnightblue" d="M683.4,-179.27C678.35,-170.37 670.66,-156.06 665.5,-143 649.92,-103.59 637.66,-55.29 631.62,-29.43"/>
<polygon fill="midnightblue" stroke="midnightblue" points="634.99,-28.49 629.35,-19.53 628.17,-30.05 634.99,-28.49"/>
</g>
<!-- Node12 -->
<g id="node12" class="node">
<title>Node12</title>
<g id="a_node12"><a xlink:href="type__traits_8hpp.html" target="_top" xlink:title=" ">
<polygon fill="none" stroke="black" points="674.5,-123.5 674.5,-142.5 788.5,-142.5 788.5,-123.5 674.5,-123.5"/>
<text text-anchor="middle" x="731.5" y="-130.5" font-family="Helvetica,sans-Serif" font-size="10.00">utils/type_traits.hpp</text>
</a>
</g>
</g>
<!-- Node1&#45;&gt;Node12 -->
<g id="edge14" class="edge">
<title>Node1&#45;&gt;Node12</title>
<path fill="none" stroke="midnightblue" d="M695.6,-179.08C701.74,-171.38 710.77,-160.03 718.24,-150.65"/>
<polygon fill="midnightblue" stroke="midnightblue" points="721.04,-152.75 724.53,-142.75 715.56,-148.39 721.04,-152.75"/>
</g>
<!-- Node14 -->
<g id="node14" class="node">
<title>Node14</title>
<g id="a_node14"><a xlink:title=" ">
<polygon fill="none" stroke="#bfbfbf" points="782,-62 782,-81 851,-81 851,-62 782,-62"/>
<text text-anchor="middle" x="816.5" y="-69" font-family="Helvetica,sans-Serif" font-size="10.00">type_traits</text>
</a>
</g>
</g>
<!-- Node1&#45;&gt;Node14 -->
<g id="edge19" class="edge">
<title>Node1&#45;&gt;Node14</title>
<path fill="none" stroke="midnightblue" d="M721.15,-182.53C745.53,-176.77 777.9,-165.29 797.5,-143 810.03,-128.75 814.4,-107.07 815.87,-91.51"/>
<polygon fill="midnightblue" stroke="midnightblue" points="819.37,-91.66 816.51,-81.46 812.38,-91.22 819.37,-91.66"/>
</g>
<!-- Node15 -->
<g id="node15" class="node">
<title>Node15</title>
<g id="a_node15"><a xlink:title=" ">
<polygon fill="none" stroke="#bfbfbf" points="845,-123.5 845,-142.5 890,-142.5 890,-123.5 845,-123.5"/>
<text text-anchor="middle" x="867.5" y="-130.5" font-family="Helvetica,sans-Serif" font-size="10.00">utility</text>
</a>
</g>
</g>
<!-- Node1&#45;&gt;Node15 -->
<g id="edge20" class="edge">
<title>Node1&#45;&gt;Node15</title>
<path fill="none" stroke="midnightblue" d="M716.86,-179.44C749.02,-169.74 801.36,-153.95 835.11,-143.77"/>
<polygon fill="midnightblue" stroke="midnightblue" points="836.37,-147.05 844.94,-140.81 834.35,-140.34 836.37,-147.05"/>
</g>
<!-- Node3 -->
<g id="node3" class="node">
<title>Node3</title>
<g id="a_node3"><a xlink:href="device__qualifier_8hpp.html" target="_top" xlink:title=" ">
<polygon fill="none" stroke="black" points="71.5,-62 71.5,-81 187.5,-81 187.5,-62 71.5,-62"/>
<text text-anchor="middle" x="129.5" y="-69" font-family="Helvetica,sans-Serif" font-size="10.00">device_qualifier.hpp</text>
</a>
</g>
</g>
<!-- Node2&#45;&gt;Node3 -->
<g id="edge2" class="edge">
<title>Node2&#45;&gt;Node3</title>
<path fill="none" stroke="midnightblue" d="M357.39,-123.48C309.98,-112.87 229.02,-94.76 177.44,-83.22"/>
<polygon fill="midnightblue" stroke="midnightblue" points="178.06,-79.78 167.54,-81.01 176.54,-86.61 178.06,-79.78"/>
</g>
<!-- Node4 -->
<g id="node4" class="node">
<title>Node4</title>
<g id="a_node4"><a xlink:title=" ">
<polygon fill="none" stroke="#bfbfbf" points="146.5,-0.5 146.5,-19.5 198.5,-19.5 198.5,-0.5 146.5,-0.5"/>
<text text-anchor="middle" x="172.5" y="-7.5" font-family="Helvetica,sans-Serif" font-size="10.00">cassert</text>
</a>
</g>
</g>
<!-- Node2&#45;&gt;Node4 -->
<g id="edge8" class="edge">
<title>Node2&#45;&gt;Node4</title>
<path fill="none" stroke="midnightblue" d="M352.21,-127.18C317.98,-121.73 270.2,-110.36 234.5,-87 211.63,-72.03 193.07,-45.96 182.4,-28.59"/>
<polygon fill="midnightblue" stroke="midnightblue" points="185.15,-26.36 177.06,-19.52 179.12,-29.91 185.15,-26.36"/>
</g>
<!-- Node2&#45;&gt;Node5 -->
<g id="edge4" class="edge">
<title>Node2&#45;&gt;Node5</title>
<path fill="none" stroke="midnightblue" d="M352.26,-129.59C288.09,-125.26 164.3,-113.93 62.5,-87 59.99,-86.34 57.42,-85.54 54.87,-84.68"/>
<polygon fill="midnightblue" stroke="midnightblue" points="55.85,-81.31 45.26,-81.08 53.39,-87.86 55.85,-81.31"/>
</g>
<!-- Node2&#45;&gt;Node6 -->
<g id="edge9" class="edge">
<title>Node2&#45;&gt;Node6</title>
<path fill="none" stroke="midnightblue" d="M438.55,-132.21C481.13,-130.26 546.05,-121.25 589.5,-87 607.75,-72.62 617.93,-47.16 623.06,-29.71"/>
<polygon fill="midnightblue" stroke="midnightblue" points="626.56,-30.15 625.73,-19.59 619.79,-28.36 626.56,-30.15"/>
</g>
<!-- Node8 -->
<g id="node8" class="node">
<title>Node8</title>
<g id="a_node8"><a xlink:title=" ">
<polygon fill="none" stroke="#bfbfbf" points="244,-56.5 244,-86.5 351,-86.5 351,-56.5 244,-56.5"/>
<text text-anchor="start" x="252" y="-74.5" font-family="Helvetica,sans-Serif" font-size="10.00">boost/serialization</text>
<text text-anchor="middle" x="297.5" y="-63.5" font-family="Helvetica,sans-Serif" font-size="10.00">/access.hpp</text>
</a>
</g>
</g>
<!-- Node2&#45;&gt;Node8 -->
<g id="edge7" class="edge">
<title>Node2&#45;&gt;Node8</title>
<path fill="none" stroke="midnightblue" d="M381.46,-123.48C367.94,-115.27 347.01,-102.56 329.43,-91.88"/>
<polygon fill="midnightblue" stroke="midnightblue" points="330.96,-88.72 320.6,-86.52 327.33,-94.7 330.96,-88.72"/>
</g>
<!-- Node9 -->
<g id="node9" class="node">
<title>Node9</title>
<g id="a_node9"><a xlink:title=" ">
<polygon fill="none" stroke="#bfbfbf" points="369,-62 369,-81 422,-81 422,-62 369,-62"/>
<text text-anchor="middle" x="395.5" y="-69" font-family="Helvetica,sans-Serif" font-size="10.00">iterator</text>
</a>
</g>
</g>
<!-- Node2&#45;&gt;Node9 -->
<g id="edge10" class="edge">
<title>Node2&#45;&gt;Node9</title>
<path fill="none" stroke="midnightblue" d="M395.5,-123.48C395.5,-115.08 395.5,-101.98 395.5,-91.16"/>
<polygon fill="midnightblue" stroke="midnightblue" points="399,-91.01 395.5,-81.01 392,-91.01 399,-91.01"/>
</g>
<!-- Node10 -->
<g id="node10" class="node">
<title>Node10</title>
<g id="a_node10"><a xlink:title=" ">
<polygon fill="none" stroke="#bfbfbf" points="440,-62 440,-81 497,-81 497,-62 440,-62"/>
<text text-anchor="middle" x="468.5" y="-69" font-family="Helvetica,sans-Serif" font-size="10.00">ostream</text>
</a>
</g>
</g>
<!-- Node2&#45;&gt;Node10 -->
<g id="edge11" class="edge">
<title>Node2&#45;&gt;Node10</title>
<path fill="none" stroke="midnightblue" d="M405.96,-123.48C417.45,-114.11 436.13,-98.88 450.09,-87.51"/>
<polygon fill="midnightblue" stroke="midnightblue" points="452.52,-90.04 458.06,-81.01 448.1,-84.61 452.52,-90.04"/>
</g>
<!-- Node11 -->
<g id="node11" class="node">
<title>Node11</title>
<g id="a_node11"><a xlink:title=" ">
<polygon fill="none" stroke="#bfbfbf" points="515,-62 515,-81 580,-81 580,-62 515,-62"/>
<text text-anchor="middle" x="547.5" y="-69" font-family="Helvetica,sans-Serif" font-size="10.00">stdexcept</text>
</a>
</g>
</g>
<!-- Node2&#45;&gt;Node11 -->
<g id="edge12" class="edge">
<title>Node2&#45;&gt;Node11</title>
<path fill="none" stroke="midnightblue" d="M417.28,-123.48C443.24,-113.31 486.81,-96.26 516.33,-84.7"/>
<polygon fill="midnightblue" stroke="midnightblue" points="517.73,-87.91 525.76,-81.01 515.17,-81.4 517.73,-87.91"/>
</g>
<!-- Node3&#45;&gt;Node4 -->
<g id="edge3" class="edge">
<title>Node3&#45;&gt;Node4</title>
<path fill="none" stroke="midnightblue" d="M135.66,-61.98C142.11,-53.05 152.4,-38.81 160.47,-27.64"/>
<polygon fill="midnightblue" stroke="midnightblue" points="163.33,-29.66 166.35,-19.51 157.66,-25.56 163.33,-29.66"/>
</g>
<!-- Node5&#45;&gt;Node6 -->
<g id="edge5" class="edge">
<title>Node5&#45;&gt;Node6</title>
<path fill="none" stroke="midnightblue" d="M44.83,-61.87C50.4,-59.59 56.6,-57.39 62.5,-56 163.54,-32.22 481.77,-17.07 590.59,-12.48"/>
<polygon fill="midnightblue" stroke="midnightblue" points="590.9,-15.97 600.75,-12.06 590.61,-8.98 590.9,-15.97"/>
</g>
<!-- Node7 -->
<g id="node7" class="node">
<title>Node7</title>
<g id="a_node7"><a xlink:title=" ">
<polygon fill="none" stroke="#bfbfbf" points="6,-0.5 6,-19.5 47,-19.5 47,-0.5 6,-0.5"/>
<text text-anchor="middle" x="26.5" y="-7.5" font-family="Helvetica,sans-Serif" font-size="10.00">tuple</text>
</a>
</g>
</g>
<!-- Node5&#45;&gt;Node7 -->
<g id="edge6" class="edge">
<title>Node5&#45;&gt;Node7</title>
<path fill="none" stroke="midnightblue" d="M26.5,-61.98C26.5,-53.58 26.5,-40.48 26.5,-29.66"/>
<polygon fill="midnightblue" stroke="midnightblue" points="30,-29.51 26.5,-19.51 23,-29.51 30,-29.51"/>
</g>
<!-- Node12&#45;&gt;Node6 -->
<g id="edge16" class="edge">
<title>Node12&#45;&gt;Node6</title>
<path fill="none" stroke="midnightblue" d="M724.02,-123.3C706.78,-103.24 664.02,-53.49 641.65,-27.46"/>
<polygon fill="midnightblue" stroke="midnightblue" points="644.08,-24.93 634.91,-19.62 638.78,-29.49 644.08,-24.93"/>
</g>
<!-- Node13 -->
<g id="node13" class="node">
<title>Node13</title>
<g id="a_node13"><a xlink:title=" ">
<polygon fill="none" stroke="#bfbfbf" points="712.5,-62 712.5,-81 762.5,-81 762.5,-62 712.5,-62"/>
<text text-anchor="middle" x="737.5" y="-69" font-family="Helvetica,sans-Serif" font-size="10.00">climits</text>
</a>
</g>
</g>
<!-- Node12&#45;&gt;Node13 -->
<g id="edge15" class="edge">
<title>Node12&#45;&gt;Node13</title>
<path fill="none" stroke="midnightblue" d="M732.36,-123.48C733.21,-115.08 734.53,-101.98 735.62,-91.16"/>
<polygon fill="midnightblue" stroke="midnightblue" points="739.12,-91.31 736.64,-81.01 732.16,-90.61 739.12,-91.31"/>
</g>
<!-- Node12&#45;&gt;Node14 -->
<g id="edge17" class="edge">
<title>Node12&#45;&gt;Node14</title>
<path fill="none" stroke="midnightblue" d="M743.68,-123.48C757.31,-113.93 779.63,-98.31 795.97,-86.87"/>
<polygon fill="midnightblue" stroke="midnightblue" points="798.16,-89.61 804.34,-81.01 794.14,-83.88 798.16,-89.61"/>
</g>
</g>
</svg>
        <g id="navigator" transform="translate(0 0)" fill="#404254">
                <rect fill="#f2f5e9" fill-opacity="0.5" stroke="#606060" stroke-width=".5" x="0" y="0" width="60" height="60"/>
                <use id="zoomplus" xlink:href="#zoomPlus" x="17" y="9" onmousedown="handleZoom(evt,'in')"/>
                <use id="zoomminus" xlink:href="#zoomMin" x="42" y="9" onmousedown="handleZoom(evt,'out')"/>
                <use id="reset" xlink:href="#resetDef" x="30" y="36" onmousedown="handleReset()"/>
                <g id="arrowUp" xlink:href="#dirArrow" transform="translate(30 24)" onmousedown="handlePan(0,-1)">
                  <use xlink:href="#rim" fill="#404040">
                        <set attributeName="fill" to="#808080" begin="arrowUp.mouseover" end="arrowUp.mouseout"/>
                  </use>
                  <path fill="none" stroke="white" stroke-width="1.5" d="M0,-3.0v7 M-2.5,-0.5L0,-3.0L2.5,-0.5"/>
                </g>
                <g id="arrowRight" xlink:href="#dirArrow" transform="rotate(90) translate(36 -43)" onmousedown="handlePan(1,0)">
                  <use xlink:href="#rim" fill="#404040">
                        <set attributeName="fill" to="#808080" begin="arrowRight.mouseover" end="arrowRight.mouseout"/>
                  </use>
                  <path fill="none" stroke="white" stroke-width="1.5" d="M0,-3.0v7 M-2.5,-0.5L0,-3.0L2.5,-0.5"/>
                </g>
                <g id="arrowDown" xlink:href="#dirArrow" transform="rotate(180) translate(-30 -48)" onmousedown="handlePan(0,1)">
                  <use xlink:href="#rim" fill="#404040">
                        <set attributeName="fill" to="#808080" begin="arrowDown.mouseover" end="arrowDown.mouseout"/>
                  </use>
                  <path fill="none" stroke="white" stroke-width="1.5" d="M0,-3.0v7 M-2.5,-0.5L0,-3.0L2.5,-0.5"/>
                </g>
                <g id="arrowLeft" xlink:href="#dirArrow" transform="rotate(270) translate(-36 17)" onmousedown="handlePan(-1,0)">
                  <use xlink:href="#rim" fill="#404040">
                        <set attributeName="fill" to="#808080" begin="arrowLeft.mouseover" end="arrowLeft.mouseout"/>
                  </use>
                  <path fill="none" stroke="white" stroke-width="1.5" d="M0,-3.0v7 M-2.5,-0.5L0,-3.0L2.5,-0.5"/>
                </g>
        </g>
        <svg viewBox="0 0 15 15" width="100%" height="30px" preserveAspectRatio="xMaxYMin meet">
         <g id="arrow_out" transform="scale(0.3 0.3)">
          <a xlink:href="mask_8hpp__incl_org.svg" target="_base">
           <rect id="button" ry="5" rx="5" y="6" x="6" height="38" width="38"
                fill="#f2f5e9" fill-opacity="0.5" stroke="#606060" stroke-width="1.0"/>
           <path id="arrow"
             d="M 11.500037,31.436501 C 11.940474,20.09759 22.043105,11.32322 32.158766,21.979434 L 37.068811,17.246167 C 37.068811,17.246167 37.088388,32 37.088388,32 L 22.160133,31.978069 C 22.160133,31.978069 26.997745,27.140456 26.997745,27.140456 C 18.528582,18.264221 13.291696,25.230495 11.500037,31.436501 z"
             style="fill:#404040;"/>
          </a>
         </g>
        </svg>
</svg>
