<?xml version="1.0" encoding="UTF-8" standalone="no"?>
<!DOCTYPE svg PUBLIC "-//W3C//DTD SVG 1.1//EN"
 "http://www.w3.org/Graphics/SVG/1.1/DTD/svg11.dtd">
<!-- Generated by graphviz version 2.43.0 (0)
 -->
<!-- Title: mask.hpp Pages: 1 -->
<!--zoomable 319 -->
<svg id="main" version="1.1" xmlns="http://www.w3.org/2000/svg" xmlns:xlink="http://www.w3.org/1999/xlink" xml:space="preserve" onload="init(evt)">
<style type="text/css"><![CDATA[
.edge:hover path { stroke: red; }
.edge:hover polygon { stroke: red; fill: red; }
]]></style>
<script type="text/javascript"><![CDATA[
var edges = document.getElementsByTagName('g');
if (edges && edges.length) {
  for (var i=0;i<edges.length;i++) {
    if (edges[i].id.substr(0,4)=='edge') {
      edges[i].setAttribute('class','edge');
    }
  }
}
]]></script>
        <defs>
                <circle id="rim" cx="0" cy="0" r="7"/>
                <circle id="rim2" cx="0" cy="0" r="3.5"/>
                <g id="zoomPlus">
                        <use xlink:href="#rim" fill="#404040">
                                <set attributeName="fill" to="#808080" begin="zoomplus.mouseover" end="zoomplus.mouseout"/>
                        </use>
                        <path d="M-4,0h8M0,-4v8" fill="none" stroke="white" stroke-width="1.5" pointer-events="none"/>
                </g>
                <g id="zoomMin">
                        <use xlink:href="#rim" fill="#404040">
                                <set attributeName="fill" to="#808080" begin="zoomminus.mouseover" end="zoomminus.mouseout"/>
                        </use>
                        <path d="M-4,0h8" fill="none" stroke="white" stroke-width="1.5" pointer-events="none"/>
                </g>
                <g id="dirArrow">
                        <path fill="none" stroke="white" stroke-width="1.5" d="M0,-3.0v7 M-2.5,-0.5L0,-3.0L2.5,-0.5"/>
                </g>
               <g id="resetDef">
                       <use xlink:href="#rim2" fill="#404040">
                               <set attributeName="fill" to="#808080" begin="reset.mouseover" end="reset.mouseout"/>
                       </use>
               </g>
        </defs>

<script type="text/javascript">
var viewWidth = 1652;
var viewHeight = 319;
var sectionId = 'dynsection-1';
</script>
<script xlink:href="svgpan.js"/>
<svg id="graph" class="graph">
<g id="viewport">
<title>mask.hpp</title>
<!-- Node1 -->
<g id="node1" class="node">
<title>Node1</title>
<g id="a_node1"><a xlink:title=" ">
<polygon fill="#bfbfbf" stroke="black" points="713,-291.5 713,-310.5 778,-310.5 778,-291.5 713,-291.5"/>
<text text-anchor="middle" x="745.5" y="-298.5" font-family="Helvetica,sans-Serif" font-size="10.00">mask.hpp</text>
</a>
</g>
</g>
<!-- Node2 -->
<g id="node2" class="node">
<title>Node2</title>
<g id="a_node2"><a xlink:href="rotation_8hpp.html" target="_top" xlink:title=" ">
<polygon fill="none" stroke="black" points="674.5,-235.5 674.5,-254.5 750.5,-254.5 750.5,-235.5 674.5,-235.5"/>
<text text-anchor="middle" x="712.5" y="-242.5" font-family="Helvetica,sans-Serif" font-size="10.00">rotation.hpp</text>
</a>
</g>
</g>
<!-- Node1&#45;&gt;Node2 -->
<g id="edge1" class="edge">
<title>Node1&#45;&gt;Node2</title>
<path fill="none" stroke="midnightblue" d="M734.67,-282.27C729.03,-273.05 722.38,-262.17 717.85,-254.75"/>
<polygon fill="midnightblue" stroke="midnightblue" points="731.85,-284.38 740.05,-291.08 737.82,-280.73 731.85,-284.38"/>
</g>
<!-- Node20 -->
<g id="node20" class="node">
<title>Node20</title>
<g id="a_node20"><a xlink:href="rotation_8cpp.html" target="_top" xlink:title=" ">
<polygon fill="none" stroke="black" points="1569,-179.5 1569,-198.5 1644,-198.5 1644,-179.5 1569,-179.5"/>
<text text-anchor="middle" x="1606.5" y="-186.5" font-family="Helvetica,sans-Serif" font-size="10.00">rotation.cpp</text>
</a>
</g>
</g>
<!-- Node1&#45;&gt;Node20 -->
<g id="edge28" class="edge">
<title>Node1&#45;&gt;Node20</title>
<path fill="none" stroke="midnightblue" d="M788.16,-295.71C909.31,-283.3 1265.63,-245.32 1559.5,-199 1562.54,-198.52 1565.68,-197.99 1568.83,-197.44"/>
<polygon fill="midnightblue" stroke="midnightblue" points="787.77,-292.23 778.18,-296.73 788.48,-299.19 787.77,-292.23"/>
</g>
<!-- Node3 -->
<g id="node3" class="node">
<title>Node3</title>
<g id="a_node3"><a xlink:href="forces__inline_8hpp.html" target="_top" xlink:title=" ">
<polygon fill="none" stroke="black" points="662.5,-118 662.5,-137 762.5,-137 762.5,-118 662.5,-118"/>
<text text-anchor="middle" x="712.5" y="-125" font-family="Helvetica,sans-Serif" font-size="10.00">forces_inline.hpp</text>
</a>
</g>
</g>
<!-- Node2&#45;&gt;Node3 -->
<g id="edge2" class="edge">
<title>Node2&#45;&gt;Node3</title>
<path fill="none" stroke="midnightblue" d="M701.08,-226.44C696.52,-218.42 691.81,-208.58 689.5,-199 684.02,-176.22 697.95,-150.2 706.47,-137.06"/>
<polygon fill="midnightblue" stroke="midnightblue" points="698.21,-228.46 706.4,-235.19 704.19,-224.83 698.21,-228.46"/>
</g>
<!-- Node8 -->
<g id="node8" class="node">
<title>Node8</title>
<g id="a_node8"><a xlink:href="langevin__inline_8hpp.html" target="_top" xlink:title=" ">
<polygon fill="none" stroke="black" points="698.5,-179.5 698.5,-198.5 810.5,-198.5 810.5,-179.5 698.5,-179.5"/>
<text text-anchor="middle" x="754.5" y="-186.5" font-family="Helvetica,sans-Serif" font-size="10.00">langevin_inline.hpp</text>
</a>
</g>
</g>
<!-- Node2&#45;&gt;Node8 -->
<g id="edge7" class="edge">
<title>Node2&#45;&gt;Node8</title>
<path fill="none" stroke="midnightblue" d="M725.61,-227.14C732.93,-217.74 741.74,-206.4 747.69,-198.75"/>
<polygon fill="midnightblue" stroke="midnightblue" points="722.81,-225.04 719.44,-235.08 728.34,-229.34 722.81,-225.04"/>
</g>
<!-- Node9 -->
<g id="node9" class="node">
<title>Node9</title>
<g id="a_node9"><a xlink:href="integrators_2brownian__inline_8hpp.html" target="_top" xlink:title=" ">
<polygon fill="none" stroke="black" points="161,-118 161,-137 276,-137 276,-118 161,-118"/>
<text text-anchor="middle" x="218.5" y="-125" font-family="Helvetica,sans-Serif" font-size="10.00">brownian_inline.hpp</text>
</a>
</g>
</g>
<!-- Node2&#45;&gt;Node9 -->
<g id="edge9" class="edge">
<title>Node2&#45;&gt;Node9</title>
<path fill="none" stroke="midnightblue" d="M664.12,-243.78C534.34,-242.7 185.94,-236.31 151.5,-199 130.66,-176.42 173.31,-150.31 199.72,-137.11"/>
<polygon fill="midnightblue" stroke="midnightblue" points="664.15,-247.28 674.17,-243.86 664.2,-240.28 664.15,-247.28"/>
</g>
<!-- Node10 -->
<g id="node10" class="node">
<title>Node10</title>
<g id="a_node10"><a xlink:href="integrate_8cpp.html" target="_top" xlink:title=" ">
<polygon fill="none" stroke="black" points="221,-56.5 221,-75.5 302,-75.5 302,-56.5 221,-56.5"/>
<text text-anchor="middle" x="261.5" y="-63.5" font-family="Helvetica,sans-Serif" font-size="10.00">integrate.cpp</text>
</a>
</g>
</g>
<!-- Node2&#45;&gt;Node10 -->
<g id="edge15" class="edge">
<title>Node2&#45;&gt;Node10</title>
<path fill="none" stroke="midnightblue" d="M664.26,-242.8C578.54,-239.88 403.84,-230.18 352.5,-199 327.16,-183.61 280.99,-102.45 266.2,-75.62"/>
<polygon fill="midnightblue" stroke="midnightblue" points="664.15,-246.3 674.26,-243.12 664.38,-239.3 664.15,-246.3"/>
</g>
<!-- Node11 -->
<g id="node11" class="node">
<title>Node11</title>
<g id="a_node11"><a xlink:href="stokesian__dynamics__inline_8hpp.html" target="_top" xlink:title=" ">
<polygon fill="none" stroke="black" points="332.5,-112.5 332.5,-142.5 448.5,-142.5 448.5,-112.5 332.5,-112.5"/>
<text text-anchor="start" x="340.5" y="-130.5" font-family="Helvetica,sans-Serif" font-size="10.00">stokesian_dynamics</text>
<text text-anchor="middle" x="390.5" y="-119.5" font-family="Helvetica,sans-Serif" font-size="10.00">_inline.hpp</text>
</a>
</g>
</g>
<!-- Node2&#45;&gt;Node11 -->
<g id="edge11" class="edge">
<title>Node2&#45;&gt;Node11</title>
<path fill="none" stroke="midnightblue" d="M664.2,-241.3C572.65,-235.68 381.19,-221.37 361.5,-199 347.07,-182.61 363.29,-158.06 376.64,-142.68"/>
<polygon fill="midnightblue" stroke="midnightblue" points="664.14,-244.8 674.33,-241.91 664.56,-237.81 664.14,-244.8"/>
</g>
<!-- Node12 -->
<g id="node12" class="node">
<title>Node12</title>
<g id="a_node12"><a xlink:href="velocity__verlet__inline_8hpp.html" target="_top" xlink:title=" ">
<polygon fill="none" stroke="black" points="0,-118 0,-137 143,-137 143,-118 0,-118"/>
<text text-anchor="middle" x="71.5" y="-125" font-family="Helvetica,sans-Serif" font-size="10.00">velocity_verlet_inline.hpp</text>
</a>
</g>
</g>
<!-- Node2&#45;&gt;Node12 -->
<g id="edge13" class="edge">
<title>Node2&#45;&gt;Node12</title>
<path fill="none" stroke="midnightblue" d="M664.27,-244.41C544.2,-244.76 234.87,-241.4 142.5,-199 112.35,-185.16 87.67,-152.73 77.08,-137.15"/>
<polygon fill="midnightblue" stroke="midnightblue" points="664.29,-247.91 674.28,-244.37 664.27,-240.91 664.29,-247.91"/>
</g>
<!-- Node13 -->
<g id="node13" class="node">
<title>Node13</title>
<g id="a_node13"><a xlink:href="steepest__descent_8cpp.html" target="_top" xlink:title=" ">
<polygon fill="none" stroke="black" points="370.5,-179.5 370.5,-198.5 492.5,-198.5 492.5,-179.5 370.5,-179.5"/>
<text text-anchor="middle" x="431.5" y="-186.5" font-family="Helvetica,sans-Serif" font-size="10.00">steepest_descent.cpp</text>
</a>
</g>
</g>
<!-- Node2&#45;&gt;Node13 -->
<g id="edge16" class="edge">
<title>Node2&#45;&gt;Node13</title>
<path fill="none" stroke="midnightblue" d="M664.18,-234.71C611.35,-224.56 527.41,-208.43 476.1,-198.57"/>
<polygon fill="midnightblue" stroke="midnightblue" points="663.83,-238.21 674.31,-236.66 665.15,-231.34 663.83,-238.21"/>
</g>
<!-- Node14 -->
<g id="node14" class="node">
<title>Node14</title>
<g id="a_node14"><a xlink:href="velocity__verlet__npt_8cpp.html" target="_top" xlink:title=" ">
<polygon fill="none" stroke="black" points="511,-179.5 511,-198.5 642,-198.5 642,-179.5 511,-179.5"/>
<text text-anchor="middle" x="576.5" y="-186.5" font-family="Helvetica,sans-Serif" font-size="10.00">velocity_verlet_npt.cpp</text>
</a>
</g>
</g>
<!-- Node2&#45;&gt;Node14 -->
<g id="edge17" class="edge">
<title>Node2&#45;&gt;Node14</title>
<path fill="none" stroke="midnightblue" d="M681.37,-231.64C655.84,-221.5 620.39,-207.43 597.95,-198.52"/>
<polygon fill="midnightblue" stroke="midnightblue" points="680.36,-235.01 690.95,-235.44 682.95,-228.5 680.36,-235.01"/>
</g>
<!-- Node15 -->
<g id="node15" class="node">
<title>Node15</title>
<g id="a_node15"><a xlink:href="ParticleAngularVelocities_8hpp.html" target="_top" xlink:title=" ">
<polygon fill="none" stroke="black" points="1390.5,-179.5 1390.5,-198.5 1550.5,-198.5 1550.5,-179.5 1390.5,-179.5"/>
<text text-anchor="middle" x="1470.5" y="-186.5" font-family="Helvetica,sans-Serif" font-size="10.00">ParticleAngularVelocities.hpp</text>
</a>
</g>
</g>
<!-- Node2&#45;&gt;Node15 -->
<g id="edge18" class="edge">
<title>Node2&#45;&gt;Node15</title>
<path fill="none" stroke="midnightblue" d="M760.75,-241.31C870.87,-235.06 1149.17,-218.56 1381.5,-199 1384.44,-198.75 1387.43,-198.49 1390.46,-198.22"/>
<polygon fill="midnightblue" stroke="midnightblue" points="760.41,-237.83 750.63,-241.89 760.81,-244.81 760.41,-237.83"/>
</g>
<!-- Node17 -->
<g id="node17" class="node">
<title>Node17</title>
<g id="a_node17"><a xlink:href="ParticleBodyVelocities_8hpp.html" target="_top" xlink:title=" ">
<polygon fill="none" stroke="black" points="1073,-179.5 1073,-198.5 1220,-198.5 1220,-179.5 1073,-179.5"/>
<text text-anchor="middle" x="1146.5" y="-186.5" font-family="Helvetica,sans-Serif" font-size="10.00">ParticleBodyVelocities.hpp</text>
</a>
</g>
</g>
<!-- Node2&#45;&gt;Node17 -->
<g id="edge20" class="edge">
<title>Node2&#45;&gt;Node17</title>
<path fill="none" stroke="midnightblue" d="M760.56,-238.02C837.72,-228.42 989.5,-209.54 1077.98,-198.53"/>
<polygon fill="midnightblue" stroke="midnightblue" points="760.13,-234.55 750.63,-239.26 760.99,-241.49 760.13,-234.55"/>
</g>
<!-- Node18 -->
<g id="node18" class="node">
<title>Node18</title>
<g id="a_node18"><a xlink:href="particle__data_8cpp.html" target="_top" xlink:title=" ">
<polygon fill="none" stroke="black" points="829,-179.5 829,-198.5 930,-198.5 930,-179.5 829,-179.5"/>
<text text-anchor="middle" x="879.5" y="-186.5" font-family="Helvetica,sans-Serif" font-size="10.00">particle_data.cpp</text>
</a>
</g>
</g>
<!-- Node2&#45;&gt;Node18 -->
<g id="edge22" class="edge">
<title>Node2&#45;&gt;Node18</title>
<path fill="none" stroke="midnightblue" d="M748.67,-232.3C780.14,-222.13 824.99,-207.62 853.16,-198.52"/>
<polygon fill="midnightblue" stroke="midnightblue" points="747.4,-229.04 738.96,-235.44 749.55,-235.7 747.4,-229.04"/>
</g>
<!-- Node19 -->
<g id="node19" class="node">
<title>Node19</title>
<g id="a_node19"><a xlink:href="rotate__system_8cpp.html" target="_top" xlink:title=" ">
<polygon fill="none" stroke="black" points="948,-179.5 948,-198.5 1055,-198.5 1055,-179.5 948,-179.5"/>
<text text-anchor="middle" x="1001.5" y="-186.5" font-family="Helvetica,sans-Serif" font-size="10.00">rotate_system.cpp</text>
</a>
</g>
</g>
<!-- Node2&#45;&gt;Node19 -->
<g id="edge23" class="edge">
<title>Node2&#45;&gt;Node19</title>
<path fill="none" stroke="midnightblue" d="M760.64,-235.01C814.89,-224.87 902.44,-208.51 955.71,-198.56"/>
<polygon fill="midnightblue" stroke="midnightblue" points="759.77,-231.61 750.58,-236.88 761.05,-238.49 759.77,-231.61"/>
</g>
<!-- Node2&#45;&gt;Node20 -->
<g id="edge24" class="edge">
<title>Node2&#45;&gt;Node20</title>
<path fill="none" stroke="midnightblue" d="M760.65,-243.73C890.24,-242.52 1257.06,-235.82 1559.5,-199 1562.55,-198.63 1565.7,-198.18 1568.86,-197.67"/>
<polygon fill="midnightblue" stroke="midnightblue" points="760.62,-240.23 750.65,-243.82 760.68,-247.23 760.62,-240.23"/>
</g>
<!-- Node21 -->
<g id="node21" class="node">
<title>Node21</title>
<g id="a_node21"><a xlink:href="thermostats_2brownian__inline_8hpp.html" target="_top" xlink:title=" ">
<polygon fill="none" stroke="black" points="161,-179.5 161,-198.5 276,-198.5 276,-179.5 161,-179.5"/>
<text text-anchor="middle" x="218.5" y="-186.5" font-family="Helvetica,sans-Serif" font-size="10.00">brownian_inline.hpp</text>
</a>
</g>
</g>
<!-- Node2&#45;&gt;Node21 -->
<g id="edge25" class="edge">
<title>Node2&#45;&gt;Node21</title>
<path fill="none" stroke="midnightblue" d="M664.3,-239.15C585.89,-231.19 425.86,-214.68 290.5,-199 285.87,-198.46 281.07,-197.89 276.26,-197.31"/>
<polygon fill="midnightblue" stroke="midnightblue" points="664.06,-242.64 674.36,-240.17 664.76,-235.68 664.06,-242.64"/>
</g>
<!-- Node22 -->
<g id="node22" class="node">
<title>Node22</title>
<g id="a_node22"><a xlink:href="VirtualSitesRelative_8cpp.html" target="_top" xlink:title=" ">
<polygon fill="none" stroke="black" points="1238.5,-179.5 1238.5,-198.5 1372.5,-198.5 1372.5,-179.5 1238.5,-179.5"/>
<text text-anchor="middle" x="1305.5" y="-186.5" font-family="Helvetica,sans-Serif" font-size="10.00">VirtualSitesRelative.cpp</text>
</a>
</g>
</g>
<!-- Node2&#45;&gt;Node22 -->
<g id="edge27" class="edge">
<title>Node2&#45;&gt;Node22</title>
<path fill="none" stroke="midnightblue" d="M760.78,-240.27C852.16,-233.09 1056.65,-216.53 1228.5,-199 1231.71,-198.67 1235,-198.33 1238.32,-197.97"/>
<polygon fill="midnightblue" stroke="midnightblue" points="760.42,-236.78 750.73,-241.05 760.97,-243.76 760.42,-236.78"/>
</g>
<!-- Node4 -->
<g id="node4" class="node">
<title>Node4</title>
<g id="a_node4"><a xlink:href="ShapeBasedConstraint_8cpp.html" target="_top" xlink:title=" ">
<polygon fill="none" stroke="black" points="787,-56.5 787,-75.5 934,-75.5 934,-56.5 787,-56.5"/>
<text text-anchor="middle" x="860.5" y="-63.5" font-family="Helvetica,sans-Serif" font-size="10.00">ShapeBasedConstraint.cpp</text>
</a>
</g>
</g>
<!-- Node3&#45;&gt;Node4 -->
<g id="edge3" class="edge">
<title>Node3&#45;&gt;Node4</title>
<path fill="none" stroke="midnightblue" d="M743.27,-114.13C772.02,-102.57 814.18,-85.62 839.33,-75.51"/>
<polygon fill="midnightblue" stroke="midnightblue" points="741.68,-111 733.7,-117.98 744.29,-117.49 741.68,-111"/>
</g>
<!-- Node5 -->
<g id="node5" class="node">
<title>Node5</title>
<g id="a_node5"><a xlink:href="forces_8cpp.html" target="_top" xlink:title=" ">
<polygon fill="none" stroke="black" points="571,-56.5 571,-75.5 638,-75.5 638,-56.5 571,-56.5"/>
<text text-anchor="middle" x="604.5" y="-63.5" font-family="Helvetica,sans-Serif" font-size="10.00">forces.cpp</text>
</a>
</g>
</g>
<!-- Node3&#45;&gt;Node5 -->
<g id="edge4" class="edge">
<title>Node3&#45;&gt;Node5</title>
<path fill="none" stroke="midnightblue" d="M688.1,-113.06C667.2,-101.54 637.74,-85.31 619.95,-75.51"/>
<polygon fill="midnightblue" stroke="midnightblue" points="686.58,-116.22 697.03,-117.98 689.96,-110.08 686.58,-116.22"/>
</g>
<!-- Node6 -->
<g id="node6" class="node">
<title>Node6</title>
<g id="a_node6"><a xlink:href="pressure__inline_8hpp.html" target="_top" xlink:title=" ">
<polygon fill="none" stroke="black" points="656.5,-56.5 656.5,-75.5 768.5,-75.5 768.5,-56.5 656.5,-56.5"/>
<text text-anchor="middle" x="712.5" y="-63.5" font-family="Helvetica,sans-Serif" font-size="10.00">pressure_inline.hpp</text>
</a>
</g>
</g>
<!-- Node3&#45;&gt;Node6 -->
<g id="edge5" class="edge">
<title>Node3&#45;&gt;Node6</title>
<path fill="none" stroke="midnightblue" d="M712.5,-107.82C712.5,-97 712.5,-83.9 712.5,-75.51"/>
<polygon fill="midnightblue" stroke="midnightblue" points="709,-107.98 712.5,-117.98 716,-107.98 709,-107.98"/>
</g>
<!-- Node7 -->
<g id="node7" class="node">
<title>Node7</title>
<g id="a_node7"><a xlink:href="pressure_8cpp.html" target="_top" xlink:title=" ">
<polygon fill="none" stroke="black" points="673,-0.5 673,-19.5 752,-19.5 752,-0.5 673,-0.5"/>
<text text-anchor="middle" x="712.5" y="-7.5" font-family="Helvetica,sans-Serif" font-size="10.00">pressure.cpp</text>
</a>
</g>
</g>
<!-- Node6&#45;&gt;Node7 -->
<g id="edge6" class="edge">
<title>Node6&#45;&gt;Node7</title>
<path fill="none" stroke="midnightblue" d="M712.5,-45.8C712.5,-36.91 712.5,-26.78 712.5,-19.75"/>
<polygon fill="midnightblue" stroke="midnightblue" points="709,-46.08 712.5,-56.08 716,-46.08 709,-46.08"/>
</g>
<!-- Node8&#45;&gt;Node3 -->
<g id="edge8" class="edge">
<title>Node8&#45;&gt;Node3</title>
<path fill="none" stroke="midnightblue" d="M742.5,-171.01C734.66,-159.89 724.74,-145.84 718.51,-137.01"/>
<polygon fill="midnightblue" stroke="midnightblue" points="739.86,-173.32 748.48,-179.48 745.57,-169.29 739.86,-173.32"/>
</g>
<!-- Node9&#45;&gt;Node10 -->
<g id="edge10" class="edge">
<title>Node9&#45;&gt;Node10</title>
<path fill="none" stroke="midnightblue" d="M230.54,-109.84C238.61,-98.67 248.91,-84.43 255.35,-75.51"/>
<polygon fill="midnightblue" stroke="midnightblue" points="227.68,-107.82 224.66,-117.98 233.36,-111.92 227.68,-107.82"/>
</g>
<!-- Node11&#45;&gt;Node10 -->
<g id="edge12" class="edge">
<title>Node11&#45;&gt;Node10</title>
<path fill="none" stroke="midnightblue" d="M350.57,-108.08C327.14,-97.28 298.62,-84.12 280.27,-75.66"/>
<polygon fill="midnightblue" stroke="midnightblue" points="349.38,-111.39 359.93,-112.4 352.31,-105.03 349.38,-111.39"/>
</g>
<!-- Node12&#45;&gt;Node10 -->
<g id="edge14" class="edge">
<title>Node12&#45;&gt;Node10</title>
<path fill="none" stroke="midnightblue" d="M108.6,-114.88C145.54,-103.32 201.34,-85.84 234.33,-75.51"/>
<polygon fill="midnightblue" stroke="midnightblue" points="107.22,-111.65 98.72,-117.98 109.31,-118.33 107.22,-111.65"/>
</g>
<!-- Node16 -->
<g id="node16" class="node">
<title>Node16</title>
<g id="a_node16"><a xlink:href="observables_2initialize_8cpp.html" target="_top" xlink:title=" ">
<polygon fill="none" stroke="black" points="1269,-118 1269,-137 1348,-137 1348,-118 1269,-118"/>
<text text-anchor="middle" x="1308.5" y="-125" font-family="Helvetica,sans-Serif" font-size="10.00">initialize.cpp</text>
</a>
</g>
</g>
<!-- Node15&#45;&gt;Node16 -->
<g id="edge19" class="edge">
<title>Node15&#45;&gt;Node16</title>
<path fill="none" stroke="midnightblue" d="M1437.65,-175.93C1406.16,-164.37 1359.44,-147.21 1331.67,-137.01"/>
<polygon fill="midnightblue" stroke="midnightblue" points="1436.7,-179.31 1447.29,-179.48 1439.11,-172.74 1436.7,-179.31"/>
</g>
<!-- Node17&#45;&gt;Node16 -->
<g id="edge21" class="edge">
<title>Node17&#45;&gt;Node16</title>
<path fill="none" stroke="midnightblue" d="M1179.35,-175.93C1210.84,-164.37 1257.56,-147.21 1285.33,-137.01"/>
<polygon fill="midnightblue" stroke="midnightblue" points="1177.89,-172.74 1169.71,-179.48 1180.3,-179.31 1177.89,-172.74"/>
</g>
<!-- Node21&#45;&gt;Node9 -->
<g id="edge26" class="edge">
<title>Node21&#45;&gt;Node9</title>
<path fill="none" stroke="midnightblue" d="M218.5,-169.32C218.5,-158.5 218.5,-145.4 218.5,-137.01"/>
<polygon fill="midnightblue" stroke="midnightblue" points="215,-169.48 218.5,-179.48 222,-169.48 215,-169.48"/>
</g>
</g>
</svg>
        <g id="navigator" transform="translate(0 0)" fill="#404254">
                <rect fill="#f2f5e9" fill-opacity="0.5" stroke="#606060" stroke-width=".5" x="0" y="0" width="60" height="60"/>
                <use id="zoomplus" xlink:href="#zoomPlus" x="17" y="9" onmousedown="handleZoom(evt,'in')"/>
                <use id="zoomminus" xlink:href="#zoomMin" x="42" y="9" onmousedown="handleZoom(evt,'out')"/>
                <use id="reset" xlink:href="#resetDef" x="30" y="36" onmousedown="handleReset()"/>
                <g id="arrowUp" xlink:href="#dirArrow" transform="translate(30 24)" onmousedown="handlePan(0,-1)">
                  <use xlink:href="#rim" fill="#404040">
                        <set attributeName="fill" to="#808080" begin="arrowUp.mouseover" end="arrowUp.mouseout"/>
                  </use>
                  <path fill="none" stroke="white" stroke-width="1.5" d="M0,-3.0v7 M-2.5,-0.5L0,-3.0L2.5,-0.5"/>
                </g>
                <g id="arrowRight" xlink:href="#dirArrow" transform="rotate(90) translate(36 -43)" onmousedown="handlePan(1,0)">
                  <use xlink:href="#rim" fill="#404040">
                        <set attributeName="fill" to="#808080" begin="arrowRight.mouseover" end="arrowRight.mouseout"/>
                  </use>
                  <path fill="none" stroke="white" stroke-width="1.5" d="M0,-3.0v7 M-2.5,-0.5L0,-3.0L2.5,-0.5"/>
                </g>
                <g id="arrowDown" xlink:href="#dirArrow" transform="rotate(180) translate(-30 -48)" onmousedown="handlePan(0,1)">
                  <use xlink:href="#rim" fill="#404040">
                        <set attributeName="fill" to="#808080" begin="arrowDown.mouseover" end="arrowDown.mouseout"/>
                  </use>
                  <path fill="none" stroke="white" stroke-width="1.5" d="M0,-3.0v7 M-2.5,-0.5L0,-3.0L2.5,-0.5"/>
                </g>
                <g id="arrowLeft" xlink:href="#dirArrow" transform="rotate(270) translate(-36 17)" onmousedown="handlePan(-1,0)">
                  <use xlink:href="#rim" fill="#404040">
                        <set attributeName="fill" to="#808080" begin="arrowLeft.mouseover" end="arrowLeft.mouseout"/>
                  </use>
                  <path fill="none" stroke="white" stroke-width="1.5" d="M0,-3.0v7 M-2.5,-0.5L0,-3.0L2.5,-0.5"/>
                </g>
        </g>
        <svg viewBox="0 0 15 15" width="100%" height="30px" preserveAspectRatio="xMaxYMin meet">
         <g id="arrow_out" transform="scale(0.3 0.3)">
          <a xlink:href="mask_8hpp__dep__incl_org.svg" target="_base">
           <rect id="button" ry="5" rx="5" y="6" x="6" height="38" width="38"
                fill="#f2f5e9" fill-opacity="0.5" stroke="#606060" stroke-width="1.0"/>
           <path id="arrow"
             d="M 11.500037,31.436501 C 11.940474,20.09759 22.043105,11.32322 32.158766,21.979434 L 37.068811,17.246167 C 37.068811,17.246167 37.088388,32 37.088388,32 L 22.160133,31.978069 C 22.160133,31.978069 26.997745,27.140456 26.997745,27.140456 C 18.528582,18.264221 13.291696,25.230495 11.500037,31.436501 z"
             style="fill:#404040;"/>
          </a>
         </g>
        </svg>
</svg>
