<?xml version="1.0" encoding="UTF-8" standalone="no"?>
<!DOCTYPE svg PUBLIC "-//W3C//DTD SVG 1.1//EN"
 "http://www.w3.org/Graphics/SVG/1.1/DTD/svg11.dtd">
<!-- Generated by graphviz version 2.43.0 (0)
 -->
<!-- Title: matrix.hpp Pages: 1 -->
<svg width="3377pt" height="263pt"
 viewBox="0.00 0.00 3377.24 263.00" xmlns="http://www.w3.org/2000/svg" xmlns:xlink="http://www.w3.org/1999/xlink">
<g id="graph0" class="graph" transform="scale(1 1) rotate(0) translate(4 259)">
<title>matrix.hpp</title>
<!-- Node1 -->
<g id="node1" class="node">
<title>Node1</title>
<g id="a_node1"><a xlink:title="This file contains a matrix implementation and the trait types needed for the boost qvm interoperabil...">
<polygon fill="#bfbfbf" stroke="black" points="1504.74,-235.5 1504.74,-254.5 1574.74,-254.5 1574.74,-235.5 1504.74,-235.5"/>
<text text-anchor="middle" x="1539.74" y="-242.5" font-family="Helvetica,sans-Serif" font-size="10.00">matrix.hpp</text>
</a>
</g>
</g>
<!-- Node2 -->
<g id="node2" class="node">
<title>Node2</title>
<g id="a_node2"><a xlink:href="Array_8hpp.html" target="_top" xlink:title=" ">
<polygon fill="none" stroke="black" points="319.74,-123.5 319.74,-142.5 405.74,-142.5 405.74,-123.5 319.74,-123.5"/>
<text text-anchor="middle" x="362.74" y="-130.5" font-family="Helvetica,sans-Serif" font-size="10.00">utils/Array.hpp</text>
</a>
</g>
</g>
<!-- Node1&#45;&gt;Node2 -->
<g id="edge1" class="edge">
<title>Node1&#45;&gt;Node2</title>
<path fill="none" stroke="midnightblue" d="M1504.4,-243.74C1389.47,-242.53 1015.99,-235.83 709.74,-199 601.43,-185.98 476,-159.64 409.61,-144.8"/>
<polygon fill="midnightblue" stroke="midnightblue" points="409.99,-141.3 399.47,-142.52 408.46,-148.13 409.99,-141.3"/>
</g>
<!-- Node4 -->
<g id="node4" class="node">
<title>Node4</title>
<g id="a_node4"><a xlink:title=" ">
<polygon fill="none" stroke="#bfbfbf" points="12.74,-0.5 12.74,-19.5 64.74,-19.5 64.74,-0.5 12.74,-0.5"/>
<text text-anchor="middle" x="38.74" y="-7.5" font-family="Helvetica,sans-Serif" font-size="10.00">cassert</text>
</a>
</g>
</g>
<!-- Node1&#45;&gt;Node4 -->
<g id="edge32" class="edge">
<title>Node1&#45;&gt;Node4</title>
<path fill="none" stroke="midnightblue" d="M1504.35,-244.31C1367.9,-245.15 863.08,-244.78 450.74,-199 247.61,-176.45 118.9,-256.52 4.74,-87 -8.05,-68.01 8,-43.43 22.1,-27.44"/>
<polygon fill="midnightblue" stroke="midnightblue" points="24.85,-29.63 29.13,-19.94 19.74,-24.84 24.85,-29.63"/>
</g>
<!-- Node6 -->
<g id="node6" class="node">
<title>Node6</title>
<g id="a_node6"><a xlink:title=" ">
<polygon fill="none" stroke="#bfbfbf" points="550.24,-0.5 550.24,-19.5 603.24,-19.5 603.24,-0.5 550.24,-0.5"/>
<text text-anchor="middle" x="576.74" y="-7.5" font-family="Helvetica,sans-Serif" font-size="10.00">cstddef</text>
</a>
</g>
</g>
<!-- Node1&#45;&gt;Node6 -->
<g id="edge33" class="edge">
<title>Node1&#45;&gt;Node6</title>
<path fill="none" stroke="midnightblue" d="M1504.74,-243.94C1459.47,-242.33 1379.69,-234.19 1322.74,-199 1286.13,-176.38 1297.26,-148.7 1262.74,-123 1197.93,-74.75 1172.37,-74.59 1093.74,-56 917.37,-14.31 698.98,-10.35 613.48,-10.57"/>
<polygon fill="midnightblue" stroke="midnightblue" points="613.24,-7.07 603.26,-10.62 613.27,-14.07 613.24,-7.07"/>
</g>
<!-- Node12 -->
<g id="node12" class="node">
<title>Node12</title>
<g id="a_node12"><a xlink:href="Vector_8hpp.html" target="_top" xlink:title=" ">
<polygon fill="none" stroke="black" points="719.24,-179.5 719.24,-198.5 812.24,-198.5 812.24,-179.5 719.24,-179.5"/>
<text text-anchor="middle" x="765.74" y="-186.5" font-family="Helvetica,sans-Serif" font-size="10.00">utils/Vector.hpp</text>
</a>
</g>
</g>
<!-- Node1&#45;&gt;Node12 -->
<g id="edge13" class="edge">
<title>Node1&#45;&gt;Node12</title>
<path fill="none" stroke="midnightblue" d="M1504.72,-241.56C1382.48,-233.03 973.87,-204.52 822.65,-193.97"/>
<polygon fill="midnightblue" stroke="midnightblue" points="822.86,-190.48 812.64,-193.27 822.37,-197.46 822.86,-190.48"/>
</g>
<!-- Node13 -->
<g id="node13" class="node">
<title>Node13</title>
<g id="a_node13"><a xlink:title=" ">
<polygon fill="none" stroke="#bfbfbf" points="151.74,-123.5 151.74,-142.5 301.74,-142.5 301.74,-123.5 151.74,-123.5"/>
<text text-anchor="middle" x="226.74" y="-130.5" font-family="Helvetica,sans-Serif" font-size="10.00">boost/qvm/deduce_vec.hpp</text>
</a>
</g>
</g>
<!-- Node1&#45;&gt;Node13 -->
<g id="edge41" class="edge">
<title>Node1&#45;&gt;Node13</title>
<path fill="none" stroke="midnightblue" d="M1504.37,-244.05C1378.44,-243.85 940.29,-240.06 581.74,-199 470.57,-186.27 341.75,-159.67 274,-144.75"/>
<polygon fill="midnightblue" stroke="midnightblue" points="274.58,-141.29 264.06,-142.54 273.07,-148.12 274.58,-141.29"/>
</g>
<!-- Node15 -->
<g id="node15" class="node">
<title>Node15</title>
<g id="a_node15"><a xlink:title=" ">
<polygon fill="none" stroke="#bfbfbf" points="1085.74,-123.5 1085.74,-142.5 1149.74,-142.5 1149.74,-123.5 1085.74,-123.5"/>
<text text-anchor="middle" x="1117.74" y="-130.5" font-family="Helvetica,sans-Serif" font-size="10.00">algorithm</text>
</a>
</g>
</g>
<!-- Node1&#45;&gt;Node15 -->
<g id="edge30" class="edge">
<title>Node1&#45;&gt;Node15</title>
<path fill="none" stroke="midnightblue" d="M1504.72,-243.44C1422.53,-241.55 1219.91,-233.43 1162.74,-199 1144.78,-188.18 1132.23,-167.13 1125.03,-151.91"/>
<polygon fill="midnightblue" stroke="midnightblue" points="1128.12,-150.25 1120.9,-142.5 1121.71,-153.07 1128.12,-150.25"/>
</g>
<!-- Node20 -->
<g id="node20" class="node">
<title>Node20</title>
<g id="a_node20"><a xlink:title=" ">
<polygon fill="none" stroke="#bfbfbf" points="1168.24,-123.5 1168.24,-142.5 1237.24,-142.5 1237.24,-123.5 1168.24,-123.5"/>
<text text-anchor="middle" x="1202.74" y="-130.5" font-family="Helvetica,sans-Serif" font-size="10.00">type_traits</text>
</a>
</g>
</g>
<!-- Node1&#45;&gt;Node20 -->
<g id="edge34" class="edge">
<title>Node1&#45;&gt;Node20</title>
<path fill="none" stroke="midnightblue" d="M1504.44,-242.29C1416.76,-237.67 1194.54,-223.64 1172.74,-199 1160.21,-184.84 1173.17,-164.55 1185.74,-150.42"/>
<polygon fill="midnightblue" stroke="midnightblue" points="1188.54,-152.56 1192.91,-142.91 1183.48,-147.73 1188.54,-152.56"/>
</g>
<!-- Node22 -->
<g id="node22" class="node">
<title>Node22</title>
<g id="a_node22"><a xlink:href="flatten_8hpp.html" target="_top" xlink:title=" ">
<polygon fill="none" stroke="black" points="1181.74,-179.5 1181.74,-198.5 1275.74,-198.5 1275.74,-179.5 1181.74,-179.5"/>
<text text-anchor="middle" x="1228.74" y="-186.5" font-family="Helvetica,sans-Serif" font-size="10.00">utils/flatten.hpp</text>
</a>
</g>
</g>
<!-- Node1&#45;&gt;Node22 -->
<g id="edge27" class="edge">
<title>Node1&#45;&gt;Node22</title>
<path fill="none" stroke="midnightblue" d="M1504.67,-237.91C1451.44,-228.67 1349.7,-211 1285.74,-199.9"/>
<polygon fill="midnightblue" stroke="midnightblue" points="1286.27,-196.44 1275.82,-198.17 1285.07,-203.33 1286.27,-196.44"/>
</g>
<!-- Node23 -->
<g id="node23" class="node">
<title>Node23</title>
<g id="a_node23"><a xlink:title=" ">
<polygon fill="none" stroke="#bfbfbf" points="1331.74,-179.5 1331.74,-198.5 1373.74,-198.5 1373.74,-179.5 1331.74,-179.5"/>
<text text-anchor="middle" x="1352.74" y="-186.5" font-family="Helvetica,sans-Serif" font-size="10.00">array</text>
</a>
</g>
</g>
<!-- Node1&#45;&gt;Node23 -->
<g id="edge31" class="edge">
<title>Node1&#45;&gt;Node23</title>
<path fill="none" stroke="midnightblue" d="M1510.12,-235.47C1478.73,-226.43 1427.74,-211.73 1383.74,-199 1383.64,-198.97 1383.54,-198.94 1383.43,-198.91"/>
<polygon fill="midnightblue" stroke="midnightblue" points="1384.33,-195.53 1373.75,-196.1 1382.38,-202.25 1384.33,-195.53"/>
</g>
<!-- Node24 -->
<g id="node24" class="node">
<title>Node24</title>
<g id="a_node24"><a xlink:title=" ">
<polygon fill="none" stroke="#bfbfbf" points="1392.24,-179.5 1392.24,-198.5 1437.24,-198.5 1437.24,-179.5 1392.24,-179.5"/>
<text text-anchor="middle" x="1414.74" y="-186.5" font-family="Helvetica,sans-Serif" font-size="10.00">utility</text>
</a>
</g>
</g>
<!-- Node1&#45;&gt;Node24 -->
<g id="edge35" class="edge">
<title>Node1&#45;&gt;Node24</title>
<path fill="none" stroke="midnightblue" d="M1519.93,-235.44C1499.45,-226.6 1467.26,-212.69 1443.87,-202.59"/>
<polygon fill="midnightblue" stroke="midnightblue" points="1445.02,-199.27 1434.45,-198.52 1442.24,-205.7 1445.02,-199.27"/>
</g>
<!-- Node25 -->
<g id="node25" class="node">
<title>Node25</title>
<g id="a_node25"><a xlink:title=" ">
<polygon fill="none" stroke="#bfbfbf" points="1455.24,-179.5 1455.24,-198.5 1624.24,-198.5 1624.24,-179.5 1455.24,-179.5"/>
<text text-anchor="middle" x="1539.74" y="-186.5" font-family="Helvetica,sans-Serif" font-size="10.00">boost/qvm/mat_operations.hpp</text>
</a>
</g>
</g>
<!-- Node1&#45;&gt;Node25 -->
<g id="edge36" class="edge">
<title>Node1&#45;&gt;Node25</title>
<path fill="none" stroke="midnightblue" d="M1539.74,-235.08C1539.74,-228.01 1539.74,-217.86 1539.74,-208.99"/>
<polygon fill="midnightblue" stroke="midnightblue" points="1543.24,-208.75 1539.74,-198.75 1536.24,-208.75 1543.24,-208.75"/>
</g>
<!-- Node26 -->
<g id="node26" class="node">
<title>Node26</title>
<g id="a_node26"><a xlink:title=" ">
<polygon fill="none" stroke="#bfbfbf" points="1642.24,-179.5 1642.24,-198.5 1833.24,-198.5 1833.24,-179.5 1642.24,-179.5"/>
<text text-anchor="middle" x="1737.74" y="-186.5" font-family="Helvetica,sans-Serif" font-size="10.00">boost/qvm/vec_mat_operations.hpp</text>
</a>
</g>
</g>
<!-- Node1&#45;&gt;Node26 -->
<g id="edge37" class="edge">
<title>Node1&#45;&gt;Node26</title>
<path fill="none" stroke="midnightblue" d="M1571.11,-235.44C1605,-226.2 1659.14,-211.44 1696.46,-201.26"/>
<polygon fill="midnightblue" stroke="midnightblue" points="1697.78,-204.52 1706.51,-198.52 1695.94,-197.77 1697.78,-204.52"/>
</g>
<!-- Node27 -->
<g id="node27" class="node">
<title>Node27</title>
<g id="a_node27"><a xlink:title=" ">
<polygon fill="none" stroke="#bfbfbf" points="1851.24,-179.5 1851.24,-198.5 2018.24,-198.5 2018.24,-179.5 1851.24,-179.5"/>
<text text-anchor="middle" x="1934.74" y="-186.5" font-family="Helvetica,sans-Serif" font-size="10.00">boost/qvm/vec_operations.hpp</text>
</a>
</g>
</g>
<!-- Node1&#45;&gt;Node27 -->
<g id="edge38" class="edge">
<title>Node1&#45;&gt;Node27</title>
<path fill="none" stroke="midnightblue" d="M1574.79,-239.21C1639.11,-230.41 1777.18,-211.54 1862.39,-199.89"/>
<polygon fill="midnightblue" stroke="midnightblue" points="1863.08,-203.33 1872.51,-198.51 1862.13,-196.39 1863.08,-203.33"/>
</g>
<!-- Node28 -->
<g id="node28" class="node">
<title>Node28</title>
<g id="a_node28"><a xlink:title=" ">
<polygon fill="none" stroke="#bfbfbf" points="2036.74,-179.5 2036.74,-198.5 2188.74,-198.5 2188.74,-179.5 2036.74,-179.5"/>
<text text-anchor="middle" x="2112.74" y="-186.5" font-family="Helvetica,sans-Serif" font-size="10.00">boost/qvm/deduce_mat.hpp</text>
</a>
</g>
</g>
<!-- Node1&#45;&gt;Node28 -->
<g id="edge39" class="edge">
<title>Node1&#45;&gt;Node28</title>
<path fill="none" stroke="midnightblue" d="M1574.97,-240.92C1653.77,-233.98 1850.51,-216.48 2026.09,-199.15"/>
<polygon fill="midnightblue" stroke="midnightblue" points="2026.68,-202.61 2036.29,-198.14 2025.99,-195.65 2026.68,-202.61"/>
</g>
<!-- Node29 -->
<g id="node29" class="node">
<title>Node29</title>
<g id="a_node29"><a xlink:title=" ">
<polygon fill="none" stroke="#bfbfbf" points="2206.74,-179.5 2206.74,-198.5 2368.74,-198.5 2368.74,-179.5 2206.74,-179.5"/>
<text text-anchor="middle" x="2287.74" y="-186.5" font-family="Helvetica,sans-Serif" font-size="10.00">boost/qvm/deduce_scalar.hpp</text>
</a>
</g>
</g>
<!-- Node1&#45;&gt;Node29 -->
<g id="edge40" class="edge">
<title>Node1&#45;&gt;Node29</title>
<path fill="none" stroke="midnightblue" d="M1575.08,-241.97C1672.32,-236.32 1952.33,-219.47 2196.19,-199.11"/>
<polygon fill="midnightblue" stroke="midnightblue" points="2196.64,-202.58 2206.31,-198.26 2196.06,-195.61 2196.64,-202.58"/>
</g>
<!-- Node30 -->
<g id="node30" class="node">
<title>Node30</title>
<g id="a_node30"><a xlink:title=" ">
<polygon fill="none" stroke="#bfbfbf" points="2386.74,-179.5 2386.74,-198.5 2550.74,-198.5 2550.74,-179.5 2386.74,-179.5"/>
<text text-anchor="middle" x="2468.74" y="-186.5" font-family="Helvetica,sans-Serif" font-size="10.00">boost/qvm/map_mat_mat.hpp</text>
</a>
</g>
</g>
<!-- Node1&#45;&gt;Node30 -->
<g id="edge42" class="edge">
<title>Node1&#45;&gt;Node30</title>
<path fill="none" stroke="midnightblue" d="M1574.9,-242.68C1688.9,-238.27 2058.79,-223.04 2376.09,-199.09"/>
<polygon fill="midnightblue" stroke="midnightblue" points="2376.71,-202.56 2386.41,-198.31 2376.18,-195.58 2376.71,-202.56"/>
</g>
<!-- Node31 -->
<g id="node31" class="node">
<title>Node31</title>
<g id="a_node31"><a xlink:title=" ">
<polygon fill="none" stroke="#bfbfbf" points="2569.24,-179.5 2569.24,-198.5 2730.24,-198.5 2730.24,-179.5 2569.24,-179.5"/>
<text text-anchor="middle" x="2649.74" y="-186.5" font-family="Helvetica,sans-Serif" font-size="10.00">boost/qvm/map_mat_vec.hpp</text>
</a>
</g>
</g>
<!-- Node1&#45;&gt;Node31 -->
<g id="edge43" class="edge">
<title>Node1&#45;&gt;Node31</title>
<path fill="none" stroke="midnightblue" d="M1575.01,-243.15C1704.54,-239.9 2166.33,-226.97 2558.67,-199.03"/>
<polygon fill="midnightblue" stroke="midnightblue" points="2559.08,-202.51 2568.8,-198.31 2558.58,-195.53 2559.08,-202.51"/>
</g>
<!-- Node32 -->
<g id="node32" class="node">
<title>Node32</title>
<g id="a_node32"><a xlink:title=" ">
<polygon fill="none" stroke="#bfbfbf" points="2748.24,-179.5 2748.24,-198.5 2909.24,-198.5 2909.24,-179.5 2748.24,-179.5"/>
<text text-anchor="middle" x="2828.74" y="-186.5" font-family="Helvetica,sans-Serif" font-size="10.00">boost/qvm/map_vec_mat.hpp</text>
</a>
</g>
</g>
<!-- Node1&#45;&gt;Node32 -->
<g id="edge44" class="edge">
<title>Node1&#45;&gt;Node32</title>
<path fill="none" stroke="midnightblue" d="M1575.12,-243.49C1718.69,-241.26 2271.91,-230.98 2737.93,-199.08"/>
<polygon fill="midnightblue" stroke="midnightblue" points="2738.49,-202.55 2748.23,-198.37 2738.01,-195.57 2738.49,-202.55"/>
</g>
<!-- Node33 -->
<g id="node33" class="node">
<title>Node33</title>
<g id="a_node33"><a xlink:title=" ">
<polygon fill="none" stroke="#bfbfbf" points="2927.74,-179.5 2927.74,-198.5 3039.74,-198.5 3039.74,-179.5 2927.74,-179.5"/>
<text text-anchor="middle" x="2983.74" y="-186.5" font-family="Helvetica,sans-Serif" font-size="10.00">boost/qvm/mat.hpp</text>
</a>
</g>
</g>
<!-- Node1&#45;&gt;Node33 -->
<g id="edge45" class="edge">
<title>Node1&#45;&gt;Node33</title>
<path fill="none" stroke="midnightblue" d="M1574.98,-244.21C1731.21,-244.85 2377.04,-244.51 2917.07,-199.04"/>
<polygon fill="midnightblue" stroke="midnightblue" points="2917.74,-202.5 2927.41,-198.17 2917.15,-195.53 2917.74,-202.5"/>
</g>
<!-- Node34 -->
<g id="node34" class="node">
<title>Node34</title>
<g id="a_node34"><a xlink:title=" ">
<polygon fill="none" stroke="#bfbfbf" points="3057.74,-179.5 3057.74,-198.5 3207.74,-198.5 3207.74,-179.5 3057.74,-179.5"/>
<text text-anchor="middle" x="3132.74" y="-186.5" font-family="Helvetica,sans-Serif" font-size="10.00">boost/qvm/mat_access.hpp</text>
</a>
</g>
</g>
<!-- Node1&#45;&gt;Node34 -->
<g id="edge46" class="edge">
<title>Node1&#45;&gt;Node34</title>
<path fill="none" stroke="midnightblue" d="M1574.88,-243.95C1739.65,-243.51 2452.33,-239.28 3047.58,-199.02"/>
<polygon fill="midnightblue" stroke="midnightblue" points="3047.92,-202.5 3057.66,-198.33 3047.44,-195.52 3047.92,-202.5"/>
</g>
<!-- Node35 -->
<g id="node35" class="node">
<title>Node35</title>
<g id="a_node35"><a xlink:title=" ">
<polygon fill="none" stroke="#bfbfbf" points="3226.24,-179.5 3226.24,-198.5 3369.24,-198.5 3369.24,-179.5 3226.24,-179.5"/>
<text text-anchor="middle" x="3297.74" y="-186.5" font-family="Helvetica,sans-Serif" font-size="10.00">boost/qvm/mat_traits.hpp</text>
</a>
</g>
</g>
<!-- Node1&#45;&gt;Node35 -->
<g id="edge47" class="edge">
<title>Node1&#45;&gt;Node35</title>
<path fill="none" stroke="midnightblue" d="M1574.9,-244.15C1750.49,-244.67 2549.99,-244.34 3215.93,-198.98"/>
<polygon fill="midnightblue" stroke="midnightblue" points="3216.48,-202.45 3226.21,-198.28 3216,-195.47 3216.48,-202.45"/>
</g>
<!-- Node3 -->
<g id="node3" class="node">
<title>Node3</title>
<g id="a_node3"><a xlink:href="device__qualifier_8hpp.html" target="_top" xlink:title=" ">
<polygon fill="none" stroke="black" points="23.74,-62 23.74,-81 139.74,-81 139.74,-62 23.74,-62"/>
<text text-anchor="middle" x="81.74" y="-69" font-family="Helvetica,sans-Serif" font-size="10.00">device_qualifier.hpp</text>
</a>
</g>
</g>
<!-- Node2&#45;&gt;Node3 -->
<g id="edge2" class="edge">
<title>Node2&#45;&gt;Node3</title>
<path fill="none" stroke="midnightblue" d="M321.7,-123.44C278.61,-114.44 208.89,-99.83 148.74,-87 143,-85.78 136.98,-84.48 131.01,-83.2"/>
<polygon fill="midnightblue" stroke="midnightblue" points="131.57,-79.74 121.05,-81.05 130.09,-86.58 131.57,-79.74"/>
</g>
<!-- Node2&#45;&gt;Node4 -->
<g id="edge8" class="edge">
<title>Node2&#45;&gt;Node4</title>
<path fill="none" stroke="midnightblue" d="M319.63,-124.37C316.63,-123.89 313.64,-123.43 310.74,-123 245.18,-113.35 58.67,-136.6 14.74,-87 0.03,-70.4 13.15,-44.78 25.02,-27.96"/>
<polygon fill="midnightblue" stroke="midnightblue" points="28.08,-29.72 31.3,-19.63 22.49,-25.51 28.08,-29.72"/>
</g>
<!-- Node5 -->
<g id="node5" class="node">
<title>Node5</title>
<g id="a_node5"><a xlink:href="get_8hpp.html" target="_top" xlink:title=" ">
<polygon fill="none" stroke="black" points="484.24,-62 484.24,-81 537.24,-81 537.24,-62 484.24,-62"/>
<text text-anchor="middle" x="510.74" y="-69" font-family="Helvetica,sans-Serif" font-size="10.00">get.hpp</text>
</a>
</g>
</g>
<!-- Node2&#45;&gt;Node5 -->
<g id="edge4" class="edge">
<title>Node2&#45;&gt;Node5</title>
<path fill="none" stroke="midnightblue" d="M383.94,-123.48C409.11,-113.36 451.28,-96.4 480.02,-84.85"/>
<polygon fill="midnightblue" stroke="midnightblue" points="481.6,-87.99 489.57,-81.01 478.99,-81.49 481.6,-87.99"/>
</g>
<!-- Node2&#45;&gt;Node6 -->
<g id="edge9" class="edge">
<title>Node2&#45;&gt;Node6</title>
<path fill="none" stroke="midnightblue" d="M405.79,-126.01C453.06,-118.65 525,-104.91 545.74,-87 562.72,-72.33 570.54,-46.94 574.05,-29.58"/>
<polygon fill="midnightblue" stroke="midnightblue" points="577.53,-29.97 575.78,-19.52 570.63,-28.78 577.53,-29.97"/>
</g>
<!-- Node8 -->
<g id="node8" class="node">
<title>Node8</title>
<g id="a_node8"><a xlink:title=" ">
<polygon fill="none" stroke="#bfbfbf" points="316.24,-56.5 316.24,-86.5 423.24,-86.5 423.24,-56.5 316.24,-56.5"/>
<text text-anchor="start" x="324.24" y="-74.5" font-family="Helvetica,sans-Serif" font-size="10.00">boost/serialization</text>
<text text-anchor="middle" x="369.74" y="-63.5" font-family="Helvetica,sans-Serif" font-size="10.00">/access.hpp</text>
</a>
</g>
</g>
<!-- Node2&#45;&gt;Node8 -->
<g id="edge7" class="edge">
<title>Node2&#45;&gt;Node8</title>
<path fill="none" stroke="midnightblue" d="M363.74,-123.48C364.56,-116.47 365.77,-106.19 366.89,-96.7"/>
<polygon fill="midnightblue" stroke="midnightblue" points="370.4,-96.86 368.09,-86.52 363.44,-96.05 370.4,-96.86"/>
</g>
<!-- Node9 -->
<g id="node9" class="node">
<title>Node9</title>
<g id="a_node9"><a xlink:title=" ">
<polygon fill="none" stroke="#bfbfbf" points="1031.24,-62 1031.24,-81 1084.24,-81 1084.24,-62 1031.24,-62"/>
<text text-anchor="middle" x="1057.74" y="-69" font-family="Helvetica,sans-Serif" font-size="10.00">iterator</text>
</a>
</g>
</g>
<!-- Node2&#45;&gt;Node9 -->
<g id="edge10" class="edge">
<title>Node2&#45;&gt;Node9</title>
<path fill="none" stroke="midnightblue" d="M405.76,-127.55C420.63,-126.05 437.41,-124.41 452.74,-123 668.01,-103.25 926.67,-82.73 1021.02,-75.35"/>
<polygon fill="midnightblue" stroke="midnightblue" points="1021.49,-78.83 1031.19,-74.56 1020.94,-71.85 1021.49,-78.83"/>
</g>
<!-- Node10 -->
<g id="node10" class="node">
<title>Node10</title>
<g id="a_node10"><a xlink:title=" ">
<polygon fill="none" stroke="#bfbfbf" points="158.24,-62 158.24,-81 215.24,-81 215.24,-62 158.24,-62"/>
<text text-anchor="middle" x="186.74" y="-69" font-family="Helvetica,sans-Serif" font-size="10.00">ostream</text>
</a>
</g>
</g>
<!-- Node2&#45;&gt;Node10 -->
<g id="edge11" class="edge">
<title>Node2&#45;&gt;Node10</title>
<path fill="none" stroke="midnightblue" d="M334.62,-123.44C306.42,-114.73 261.83,-100.62 223.74,-87 221.63,-86.25 219.45,-85.45 217.27,-84.63"/>
<polygon fill="midnightblue" stroke="midnightblue" points="218.38,-81.31 207.79,-81 215.88,-87.85 218.38,-81.31"/>
</g>
<!-- Node11 -->
<g id="node11" class="node">
<title>Node11</title>
<g id="a_node11"><a xlink:title=" ">
<polygon fill="none" stroke="#bfbfbf" points="233.24,-62 233.24,-81 298.24,-81 298.24,-62 233.24,-62"/>
<text text-anchor="middle" x="265.74" y="-69" font-family="Helvetica,sans-Serif" font-size="10.00">stdexcept</text>
</a>
</g>
</g>
<!-- Node2&#45;&gt;Node11 -->
<g id="edge12" class="edge">
<title>Node2&#45;&gt;Node11</title>
<path fill="none" stroke="midnightblue" d="M348.84,-123.48C333.07,-113.8 307.1,-97.87 288.39,-86.39"/>
<polygon fill="midnightblue" stroke="midnightblue" points="289.96,-83.25 279.61,-81.01 286.3,-89.22 289.96,-83.25"/>
</g>
<!-- Node3&#45;&gt;Node4 -->
<g id="edge3" class="edge">
<title>Node3&#45;&gt;Node4</title>
<path fill="none" stroke="midnightblue" d="M75.58,-61.98C69.13,-53.05 58.83,-38.81 50.77,-27.64"/>
<polygon fill="midnightblue" stroke="midnightblue" points="53.58,-25.56 44.89,-19.51 47.91,-29.66 53.58,-25.56"/>
</g>
<!-- Node5&#45;&gt;Node6 -->
<g id="edge5" class="edge">
<title>Node5&#45;&gt;Node6</title>
<path fill="none" stroke="midnightblue" d="M520.19,-61.98C530.49,-52.7 547.15,-37.67 559.73,-26.33"/>
<polygon fill="midnightblue" stroke="midnightblue" points="562.22,-28.8 567.3,-19.51 557.53,-23.61 562.22,-28.8"/>
</g>
<!-- Node7 -->
<g id="node7" class="node">
<title>Node7</title>
<g id="a_node7"><a xlink:title=" ">
<polygon fill="none" stroke="#bfbfbf" points="490.24,-0.5 490.24,-19.5 531.24,-19.5 531.24,-0.5 490.24,-0.5"/>
<text text-anchor="middle" x="510.74" y="-7.5" font-family="Helvetica,sans-Serif" font-size="10.00">tuple</text>
</a>
</g>
</g>
<!-- Node5&#45;&gt;Node7 -->
<g id="edge6" class="edge">
<title>Node5&#45;&gt;Node7</title>
<path fill="none" stroke="midnightblue" d="M510.74,-61.98C510.74,-53.58 510.74,-40.48 510.74,-29.66"/>
<polygon fill="midnightblue" stroke="midnightblue" points="514.24,-29.51 510.74,-19.51 507.24,-29.51 514.24,-29.51"/>
</g>
<!-- Node12&#45;&gt;Node2 -->
<g id="edge16" class="edge">
<title>Node12&#45;&gt;Node2</title>
<path fill="none" stroke="midnightblue" d="M719.23,-182.36C652.76,-174.21 526.76,-158.41 419.74,-143 418.48,-142.82 417.21,-142.63 415.93,-142.45"/>
<polygon fill="midnightblue" stroke="midnightblue" points="416.39,-138.98 405.98,-140.95 415.35,-145.9 416.39,-138.98"/>
</g>
<!-- Node12&#45;&gt;Node4 -->
<g id="edge18" class="edge">
<title>Node12&#45;&gt;Node4</title>
<path fill="none" stroke="midnightblue" d="M719.2,-184.18C636.82,-177.01 472.13,-160.64 452.74,-143 423.32,-116.23 461.54,-82.35 431.74,-56 405.26,-32.59 167.26,-17.73 75.03,-12.81"/>
<polygon fill="midnightblue" stroke="midnightblue" points="74.95,-9.3 64.78,-12.27 74.58,-16.29 74.95,-9.3"/>
</g>
<!-- Node12&#45;&gt;Node6 -->
<g id="edge20" class="edge">
<title>Node12&#45;&gt;Node6</title>
<path fill="none" stroke="midnightblue" d="M719.13,-182.43C690.5,-176.8 654.82,-165.53 630.74,-143 597.84,-112.22 584.43,-58.52 579.42,-30.03"/>
<polygon fill="midnightblue" stroke="midnightblue" points="582.82,-29.14 577.8,-19.81 575.91,-30.23 582.82,-29.14"/>
</g>
<!-- Node12&#45;&gt;Node9 -->
<g id="edge23" class="edge">
<title>Node12&#45;&gt;Node9</title>
<path fill="none" stroke="midnightblue" d="M812.29,-186.27C881.33,-182.76 1006.24,-172.41 1038.74,-143 1052.96,-130.13 1057.01,-107.85 1057.94,-91.78"/>
<polygon fill="midnightblue" stroke="midnightblue" points="1061.45,-91.47 1058.17,-81.4 1054.45,-91.32 1061.45,-91.47"/>
</g>
<!-- Node12&#45;&gt;Node13 -->
<g id="edge14" class="edge">
<title>Node12&#45;&gt;Node13</title>
<path fill="none" stroke="midnightblue" d="M719.22,-183.53C638.62,-175.75 467.53,-159.11 312.06,-143.13"/>
<polygon fill="midnightblue" stroke="midnightblue" points="312.15,-139.62 301.84,-142.08 311.43,-146.58 312.15,-139.62"/>
</g>
<!-- Node14 -->
<g id="node14" class="node">
<title>Node14</title>
<g id="a_node14"><a xlink:title=" ">
<polygon fill="none" stroke="#bfbfbf" points="639.74,-123.5 639.74,-142.5 779.74,-142.5 779.74,-123.5 639.74,-123.5"/>
<text text-anchor="middle" x="709.74" y="-130.5" font-family="Helvetica,sans-Serif" font-size="10.00">boost/qvm/vec_traits.hpp</text>
</a>
</g>
</g>
<!-- Node12&#45;&gt;Node14 -->
<g id="edge15" class="edge">
<title>Node12&#45;&gt;Node14</title>
<path fill="none" stroke="midnightblue" d="M756.74,-179.32C748.54,-171.42 736.23,-159.55 726.27,-149.94"/>
<polygon fill="midnightblue" stroke="midnightblue" points="728.53,-147.26 718.9,-142.83 723.67,-152.29 728.53,-147.26"/>
</g>
<!-- Node12&#45;&gt;Node15 -->
<g id="edge17" class="edge">
<title>Node12&#45;&gt;Node15</title>
<path fill="none" stroke="midnightblue" d="M812.24,-181.86C872.31,-173.76 980.04,-158.7 1071.74,-143 1073,-142.78 1074.28,-142.56 1075.58,-142.33"/>
<polygon fill="midnightblue" stroke="midnightblue" points="1076.4,-145.74 1085.6,-140.49 1075.13,-138.85 1076.4,-145.74"/>
</g>
<!-- Node16 -->
<g id="node16" class="node">
<title>Node16</title>
<g id="a_node16"><a xlink:title=" ">
<polygon fill="none" stroke="#bfbfbf" points="798.24,-123.5 798.24,-142.5 845.24,-142.5 845.24,-123.5 798.24,-123.5"/>
<text text-anchor="middle" x="821.74" y="-130.5" font-family="Helvetica,sans-Serif" font-size="10.00">cmath</text>
</a>
</g>
</g>
<!-- Node12&#45;&gt;Node16 -->
<g id="edge19" class="edge">
<title>Node12&#45;&gt;Node16</title>
<path fill="none" stroke="midnightblue" d="M774.74,-179.32C782.93,-171.42 795.24,-159.55 805.21,-149.94"/>
<polygon fill="midnightblue" stroke="midnightblue" points="807.81,-152.29 812.58,-142.83 802.95,-147.26 807.81,-152.29"/>
</g>
<!-- Node17 -->
<g id="node17" class="node">
<title>Node17</title>
<g id="a_node17"><a xlink:title=" ">
<polygon fill="none" stroke="#bfbfbf" points="863.24,-123.5 863.24,-142.5 928.24,-142.5 928.24,-123.5 863.24,-123.5"/>
<text text-anchor="middle" x="895.74" y="-130.5" font-family="Helvetica,sans-Serif" font-size="10.00">functional</text>
</a>
</g>
</g>
<!-- Node12&#45;&gt;Node17 -->
<g id="edge21" class="edge">
<title>Node12&#45;&gt;Node17</title>
<path fill="none" stroke="midnightblue" d="M786.34,-179.44C807.73,-170.56 841.42,-156.56 865.76,-146.45"/>
<polygon fill="midnightblue" stroke="midnightblue" points="867.34,-149.58 875.24,-142.52 864.66,-143.12 867.34,-149.58"/>
</g>
<!-- Node18 -->
<g id="node18" class="node">
<title>Node18</title>
<g id="a_node18"><a xlink:title=" ">
<polygon fill="none" stroke="#bfbfbf" points="946.24,-123.5 946.24,-142.5 1029.24,-142.5 1029.24,-123.5 946.24,-123.5"/>
<text text-anchor="middle" x="987.74" y="-130.5" font-family="Helvetica,sans-Serif" font-size="10.00">initializer_list</text>
</a>
</g>
</g>
<!-- Node12&#45;&gt;Node18 -->
<g id="edge22" class="edge">
<title>Node12&#45;&gt;Node18</title>
<path fill="none" stroke="midnightblue" d="M800.91,-179.44C839.32,-170.1 900.91,-155.12 942.79,-144.93"/>
<polygon fill="midnightblue" stroke="midnightblue" points="943.84,-148.28 952.73,-142.52 942.18,-141.48 943.84,-148.28"/>
</g>
<!-- Node19 -->
<g id="node19" class="node">
<title>Node19</title>
<g id="a_node19"><a xlink:title=" ">
<polygon fill="none" stroke="#bfbfbf" points="461.74,-123.5 461.74,-142.5 517.74,-142.5 517.74,-123.5 461.74,-123.5"/>
<text text-anchor="middle" x="489.74" y="-130.5" font-family="Helvetica,sans-Serif" font-size="10.00">numeric</text>
</a>
</g>
</g>
<!-- Node12&#45;&gt;Node19 -->
<g id="edge24" class="edge">
<title>Node12&#45;&gt;Node19</title>
<path fill="none" stroke="midnightblue" d="M718.88,-179.93C672.76,-171.81 600.08,-158.58 528.13,-143.21"/>
<polygon fill="midnightblue" stroke="midnightblue" points="528.5,-139.71 517.98,-141.03 527.02,-146.56 528.5,-139.71"/>
</g>
<!-- Node12&#45;&gt;Node20 -->
<g id="edge25" class="edge">
<title>Node12&#45;&gt;Node20</title>
<path fill="none" stroke="midnightblue" d="M812.5,-183.98C884.45,-177.51 1026.82,-163.55 1157.98,-142.98"/>
<polygon fill="midnightblue" stroke="midnightblue" points="1158.87,-146.38 1168.2,-141.36 1157.78,-139.47 1158.87,-146.38"/>
</g>
<!-- Node21 -->
<g id="node21" class="node">
<title>Node21</title>
<g id="a_node21"><a xlink:title=" ">
<polygon fill="none" stroke="#bfbfbf" points="536.24,-123.5 536.24,-142.5 583.24,-142.5 583.24,-123.5 536.24,-123.5"/>
<text text-anchor="middle" x="559.74" y="-130.5" font-family="Helvetica,sans-Serif" font-size="10.00">vector</text>
</a>
</g>
</g>
<!-- Node12&#45;&gt;Node21 -->
<g id="edge26" class="edge">
<title>Node12&#45;&gt;Node21</title>
<path fill="none" stroke="midnightblue" d="M733.1,-179.44C694.77,-169.4 631.55,-152.83 592.97,-142.71"/>
<polygon fill="midnightblue" stroke="midnightblue" points="593.82,-139.32 583.26,-140.16 592.04,-146.09 593.82,-139.32"/>
</g>
<!-- Node22&#45;&gt;Node9 -->
<g id="edge28" class="edge">
<title>Node22&#45;&gt;Node9</title>
<path fill="none" stroke="midnightblue" d="M1235.63,-179.08C1245.14,-165.62 1259.72,-139.9 1246.74,-123 1228.3,-98.98 1143.85,-83.92 1094.29,-76.99"/>
<polygon fill="midnightblue" stroke="midnightblue" points="1094.66,-73.51 1084.28,-75.64 1093.72,-80.45 1094.66,-73.51"/>
</g>
<!-- Node22&#45;&gt;Node20 -->
<g id="edge29" class="edge">
<title>Node22&#45;&gt;Node20</title>
<path fill="none" stroke="midnightblue" d="M1224.44,-179.08C1220.89,-171.69 1215.72,-160.95 1211.31,-151.81"/>
<polygon fill="midnightblue" stroke="midnightblue" points="1214.44,-150.24 1206.95,-142.75 1208.14,-153.28 1214.44,-150.24"/>
</g>
</g>
</svg>
