<?xml version="1.0" encoding="UTF-8" standalone="no"?>
<!DOCTYPE svg PUBLIC "-//W3C//DTD SVG 1.1//EN"
 "http://www.w3.org/Graphics/SVG/1.1/DTD/svg11.dtd">
<!-- Generated by graphviz version 2.43.0 (0)
 -->
<!-- Title: mmm&#45;modpsi.hpp Pages: 1 -->
<svg width="446pt" height="140pt"
 viewBox="0.00 0.00 446.00 140.00" xmlns="http://www.w3.org/2000/svg" xmlns:xlink="http://www.w3.org/1999/xlink">
<g id="graph0" class="graph" transform="scale(1 1) rotate(0) translate(4 136)">
<title>mmm&#45;modpsi.hpp</title>
<!-- Node1 -->
<g id="node1" class="node">
<title>Node1</title>
<g id="a_node1"><a xlink:title=" ">
<polygon fill="#bfbfbf" stroke="black" points="207.5,-112.5 207.5,-131.5 314.5,-131.5 314.5,-112.5 207.5,-112.5"/>
<text text-anchor="middle" x="261" y="-119.5" font-family="Helvetica,sans-Serif" font-size="10.00">mmm&#45;modpsi.hpp</text>
</a>
</g>
</g>
<!-- Node2 -->
<g id="node2" class="node">
<title>Node2</title>
<g id="a_node2"><a xlink:href="Mmm1dgpuForce__cuda_8cu.html" target="_top" xlink:title=" ">
<polygon fill="none" stroke="black" points="0,-56.5 0,-75.5 144,-75.5 144,-56.5 0,-56.5"/>
<text text-anchor="middle" x="72" y="-63.5" font-family="Helvetica,sans-Serif" font-size="10.00">Mmm1dgpuForce_cuda.cu</text>
</a>
</g>
</g>
<!-- Node1&#45;&gt;Node2 -->
<g id="edge1" class="edge">
<title>Node1&#45;&gt;Node2</title>
<path fill="none" stroke="midnightblue" d="M220.99,-109.57C185.33,-99.38 133.96,-84.7 101.81,-75.52"/>
<polygon fill="midnightblue" stroke="midnightblue" points="220.48,-113.06 231.05,-112.44 222.4,-106.33 220.48,-113.06"/>
</g>
<!-- Node3 -->
<g id="node3" class="node">
<title>Node3</title>
<g id="a_node3"><a xlink:href="mmm-common_8hpp.html" target="_top" xlink:title=" ">
<polygon fill="none" stroke="black" points="162.5,-56.5 162.5,-75.5 275.5,-75.5 275.5,-56.5 162.5,-56.5"/>
<text text-anchor="middle" x="219" y="-63.5" font-family="Helvetica,sans-Serif" font-size="10.00">mmm&#45;common.hpp</text>
</a>
</g>
</g>
<!-- Node1&#45;&gt;Node3 -->
<g id="edge2" class="edge">
<title>Node1&#45;&gt;Node3</title>
<path fill="none" stroke="midnightblue" d="M247.89,-104.14C240.57,-94.74 231.76,-83.4 225.81,-75.75"/>
<polygon fill="midnightblue" stroke="midnightblue" points="245.16,-106.34 254.06,-112.08 250.69,-102.04 245.16,-106.34"/>
</g>
<!-- Node5 -->
<g id="node5" class="node">
<title>Node5</title>
<g id="a_node5"><a xlink:href="mmm1d_8cpp.html" target="_top" xlink:title=" ">
<polygon fill="none" stroke="black" points="264,-0.5 264,-19.5 342,-19.5 342,-0.5 264,-0.5"/>
<text text-anchor="middle" x="303" y="-7.5" font-family="Helvetica,sans-Serif" font-size="10.00">mmm1d.cpp</text>
</a>
</g>
</g>
<!-- Node1&#45;&gt;Node5 -->
<g id="edge6" class="edge">
<title>Node1&#45;&gt;Node5</title>
<path fill="none" stroke="midnightblue" d="M271.53,-103.42C276.11,-95.28 281.26,-85.35 285,-76 292.82,-56.43 298.54,-32.24 301.25,-19.61"/>
<polygon fill="midnightblue" stroke="midnightblue" points="268.37,-101.91 266.38,-112.31 274.42,-105.42 268.37,-101.91"/>
</g>
<!-- Node6 -->
<g id="node6" class="node">
<title>Node6</title>
<g id="a_node6"><a xlink:href="mmm-modpsi_8cpp.html" target="_top" xlink:title=" ">
<polygon fill="none" stroke="black" points="332,-56.5 332,-75.5 438,-75.5 438,-56.5 332,-56.5"/>
<text text-anchor="middle" x="385" y="-63.5" font-family="Helvetica,sans-Serif" font-size="10.00">mmm&#45;modpsi.cpp</text>
</a>
</g>
</g>
<!-- Node1&#45;&gt;Node6 -->
<g id="edge5" class="edge">
<title>Node1&#45;&gt;Node6</title>
<path fill="none" stroke="midnightblue" d="M290.01,-108.37C313.23,-98.26 345.16,-84.35 365.44,-75.52"/>
<polygon fill="midnightblue" stroke="midnightblue" points="288.42,-105.24 280.65,-112.44 291.21,-111.66 288.42,-105.24"/>
</g>
<!-- Node4 -->
<g id="node4" class="node">
<title>Node4</title>
<g id="a_node4"><a xlink:href="elc_8cpp.html" target="_top" xlink:title=" ">
<polygon fill="none" stroke="black" points="193.5,-0.5 193.5,-19.5 244.5,-19.5 244.5,-0.5 193.5,-0.5"/>
<text text-anchor="middle" x="219" y="-7.5" font-family="Helvetica,sans-Serif" font-size="10.00">elc.cpp</text>
</a>
</g>
</g>
<!-- Node3&#45;&gt;Node4 -->
<g id="edge3" class="edge">
<title>Node3&#45;&gt;Node4</title>
<path fill="none" stroke="midnightblue" d="M219,-45.8C219,-36.91 219,-26.78 219,-19.75"/>
<polygon fill="midnightblue" stroke="midnightblue" points="215.5,-46.08 219,-56.08 222.5,-46.08 215.5,-46.08"/>
</g>
<!-- Node3&#45;&gt;Node5 -->
<g id="edge4" class="edge">
<title>Node3&#45;&gt;Node5</title>
<path fill="none" stroke="midnightblue" d="M240.93,-50.9C256.34,-41 276.45,-28.07 289.54,-19.65"/>
<polygon fill="midnightblue" stroke="midnightblue" points="239.02,-47.97 232.5,-56.32 242.8,-53.86 239.02,-47.97"/>
</g>
</g>
</svg>
