<?xml version="1.0" encoding="UTF-8" standalone="no"?>
<!DOCTYPE svg PUBLIC "-//W3C//DTD SVG 1.1//EN"
 "http://www.w3.org/Graphics/SVG/1.1/DTD/svg11.dtd">
<!-- Generated by graphviz version 2.43.0 (0)
 -->
<!-- Title: MpiCallbacks.hpp Pages: 1 -->
<!--zoomable 207 -->
<svg id="main" version="1.1" xmlns="http://www.w3.org/2000/svg" xmlns:xlink="http://www.w3.org/1999/xlink" xml:space="preserve" onload="init(evt)">
<style type="text/css"><![CDATA[
.edge:hover path { stroke: red; }
.edge:hover polygon { stroke: red; fill: red; }
]]></style>
<script type="text/javascript"><![CDATA[
var edges = document.getElementsByTagName('g');
if (edges && edges.length) {
  for (var i=0;i<edges.length;i++) {
    if (edges[i].id.substr(0,4)=='edge') {
      edges[i].setAttribute('class','edge');
    }
  }
}
]]></script>
        <defs>
                <circle id="rim" cx="0" cy="0" r="7"/>
                <circle id="rim2" cx="0" cy="0" r="3.5"/>
                <g id="zoomPlus">
                        <use xlink:href="#rim" fill="#404040">
                                <set attributeName="fill" to="#808080" begin="zoomplus.mouseover" end="zoomplus.mouseout"/>
                        </use>
                        <path d="M-4,0h8M0,-4v8" fill="none" stroke="white" stroke-width="1.5" pointer-events="none"/>
                </g>
                <g id="zoomMin">
                        <use xlink:href="#rim" fill="#404040">
                                <set attributeName="fill" to="#808080" begin="zoomminus.mouseover" end="zoomminus.mouseout"/>
                        </use>
                        <path d="M-4,0h8" fill="none" stroke="white" stroke-width="1.5" pointer-events="none"/>
                </g>
                <g id="dirArrow">
                        <path fill="none" stroke="white" stroke-width="1.5" d="M0,-3.0v7 M-2.5,-0.5L0,-3.0L2.5,-0.5"/>
                </g>
               <g id="resetDef">
                       <use xlink:href="#rim2" fill="#404040">
                               <set attributeName="fill" to="#808080" begin="reset.mouseover" end="reset.mouseout"/>
                       </use>
               </g>
        </defs>

<script type="text/javascript">
var viewWidth = 1822;
var viewHeight = 207;
var sectionId = 'dynsection-0';
</script>
<script xlink:href="svgpan.js"/>
<svg id="graph" class="graph">
<g id="viewport">
<title>MpiCallbacks.hpp</title>
<!-- Node1 -->
<g id="node1" class="node">
<title>Node1</title>
<g id="a_node1"><a xlink:title=" ">
<polygon fill="#bfbfbf" stroke="black" points="789.5,-179.5 789.5,-198.5 892.5,-198.5 892.5,-179.5 789.5,-179.5"/>
<text text-anchor="middle" x="841" y="-186.5" font-family="Helvetica,sans-Serif" font-size="10.00">MpiCallbacks.hpp</text>
</a>
</g>
</g>
<!-- Node2 -->
<g id="node2" class="node">
<title>Node2</title>
<g id="a_node2"><a xlink:href="NumeratedContainer_8hpp.html" target="_top" xlink:title=" ">
<polygon fill="none" stroke="black" points="85,-118 85,-137 249,-137 249,-118 85,-118"/>
<text text-anchor="middle" x="167" y="-125" font-family="Helvetica,sans-Serif" font-size="10.00">utils/NumeratedContainer.hpp</text>
</a>
</g>
</g>
<!-- Node1&#45;&gt;Node2 -->
<g id="edge1" class="edge">
<title>Node1&#45;&gt;Node2</title>
<path fill="none" stroke="midnightblue" d="M789.38,-184.38C691.9,-177.4 474.04,-161.18 291,-143 276.54,-141.56 261.15,-139.89 246.31,-138.19"/>
<polygon fill="midnightblue" stroke="midnightblue" points="246.48,-134.69 236.15,-137.02 245.68,-141.64 246.48,-134.69"/>
</g>
<!-- Node3 -->
<g id="node3" class="node">
<title>Node3</title>
<g id="a_node3"><a xlink:title=" ">
<polygon fill="none" stroke="#bfbfbf" points="0,-56.5 0,-75.5 52,-75.5 52,-56.5 0,-56.5"/>
<text text-anchor="middle" x="26" y="-63.5" font-family="Helvetica,sans-Serif" font-size="10.00">cassert</text>
</a>
</g>
</g>
<!-- Node1&#45;&gt;Node3 -->
<g id="edge26" class="edge">
<title>Node1&#45;&gt;Node3</title>
<path fill="none" stroke="midnightblue" d="M789.26,-187.62C627.35,-186.07 137.42,-178.48 76,-143 53.82,-130.19 39.68,-103.11 32.29,-84.98"/>
<polygon fill="midnightblue" stroke="midnightblue" points="35.52,-83.63 28.71,-75.52 28.97,-86.11 35.52,-83.63"/>
</g>
<!-- Node7 -->
<g id="node7" class="node">
<title>Node7</title>
<g id="a_node7"><a xlink:href="as__const_8hpp.html" target="_top" xlink:title=" ">
<polygon fill="none" stroke="black" points="232,-56.5 232,-75.5 336,-75.5 336,-56.5 232,-56.5"/>
<text text-anchor="middle" x="284" y="-63.5" font-family="Helvetica,sans-Serif" font-size="10.00">utils/as_const.hpp</text>
</a>
</g>
</g>
<!-- Node1&#45;&gt;Node7 -->
<g id="edge6" class="edge">
<title>Node1&#45;&gt;Node7</title>
<path fill="none" stroke="midnightblue" d="M789.26,-188.07C679.17,-187.46 425.61,-181.75 350,-143 324.67,-130.02 304.86,-102.8 293.8,-84.71"/>
<polygon fill="midnightblue" stroke="midnightblue" points="296.63,-82.62 288.57,-75.75 290.58,-86.15 296.63,-82.62"/>
</g>
<!-- Node8 -->
<g id="node8" class="node">
<title>Node8</title>
<g id="a_node8"><a xlink:title=" ">
<polygon fill="none" stroke="#bfbfbf" points="348.5,-0.5 348.5,-19.5 417.5,-19.5 417.5,-0.5 348.5,-0.5"/>
<text text-anchor="middle" x="383" y="-7.5" font-family="Helvetica,sans-Serif" font-size="10.00">type_traits</text>
</a>
</g>
</g>
<!-- Node1&#45;&gt;Node8 -->
<g id="edge31" class="edge">
<title>Node1&#45;&gt;Node8</title>
<path fill="none" stroke="midnightblue" d="M789.34,-185.07C730.75,-180.58 632.98,-169.52 553,-143 492.43,-122.91 473.3,-118.84 426,-76 411.15,-62.55 399.09,-42.92 391.57,-28.75"/>
<polygon fill="midnightblue" stroke="midnightblue" points="394.56,-26.9 386.91,-19.57 388.31,-30.07 394.56,-26.9"/>
</g>
<!-- Node9 -->
<g id="node9" class="node">
<title>Node9</title>
<g id="a_node9"><a xlink:href="tuple_8hpp.html" target="_top" xlink:title=" ">
<polygon fill="none" stroke="black" points="600,-118 600,-137 686,-137 686,-118 600,-118"/>
<text text-anchor="middle" x="643" y="-125" font-family="Helvetica,sans-Serif" font-size="10.00">utils/tuple.hpp</text>
</a>
</g>
</g>
<!-- Node1&#45;&gt;Node9 -->
<g id="edge8" class="edge">
<title>Node1&#45;&gt;Node9</title>
<path fill="none" stroke="midnightblue" d="M812.63,-179.48C778.08,-169.09 719.58,-151.51 681.12,-139.95"/>
<polygon fill="midnightblue" stroke="midnightblue" points="681.9,-136.54 671.32,-137.01 679.89,-143.24 681.9,-136.54"/>
</g>
<!-- Node11 -->
<g id="node11" class="node">
<title>Node11</title>
<g id="a_node11"><a xlink:title=" ">
<polygon fill="none" stroke="#bfbfbf" points="723.5,-0.5 723.5,-19.5 764.5,-19.5 764.5,-0.5 723.5,-0.5"/>
<text text-anchor="middle" x="744" y="-7.5" font-family="Helvetica,sans-Serif" font-size="10.00">tuple</text>
</a>
</g>
</g>
<!-- Node1&#45;&gt;Node11 -->
<g id="edge30" class="edge">
<title>Node1&#45;&gt;Node11</title>
<path fill="none" stroke="midnightblue" d="M817.21,-179.5C801.28,-172.41 781.54,-160.61 772,-143 765.44,-130.89 765.45,-124.12 772,-112 785.89,-86.3 813.11,-101.7 827,-76 831.23,-68.18 831.55,-63.64 827,-56 815.63,-36.9 793.01,-25.41 774.25,-18.82"/>
<polygon fill="midnightblue" stroke="midnightblue" points="775.19,-15.45 764.6,-15.73 773.06,-22.11 775.19,-15.45"/>
</g>
<!-- Node12 -->
<g id="node12" class="node">
<title>Node12</title>
<g id="a_node12"><a xlink:href="type__traits_8hpp.html" target="_top" xlink:title=" ">
<polygon fill="none" stroke="black" points="468,-56.5 468,-75.5 582,-75.5 582,-56.5 468,-56.5"/>
<text text-anchor="middle" x="525" y="-63.5" font-family="Helvetica,sans-Serif" font-size="10.00">utils/type_traits.hpp</text>
</a>
</g>
</g>
<!-- Node1&#45;&gt;Node12 -->
<g id="edge20" class="edge">
<title>Node1&#45;&gt;Node12</title>
<path fill="none" stroke="midnightblue" d="M789.26,-188.52C736.21,-186.89 652.92,-178.2 591,-143 566.39,-129.01 546.5,-102.29 535.21,-84.56"/>
<polygon fill="midnightblue" stroke="midnightblue" points="538.04,-82.48 529.84,-75.77 532.06,-86.13 538.04,-82.48"/>
</g>
<!-- Node14 -->
<g id="node14" class="node">
<title>Node14</title>
<g id="a_node14"><a xlink:title=" ">
<polygon fill="none" stroke="#bfbfbf" points="772.5,-56.5 772.5,-75.5 817.5,-75.5 817.5,-56.5 772.5,-56.5"/>
<text text-anchor="middle" x="795" y="-63.5" font-family="Helvetica,sans-Serif" font-size="10.00">utility</text>
</a>
</g>
</g>
<!-- Node1&#45;&gt;Node14 -->
<g id="edge32" class="edge">
<title>Node1&#45;&gt;Node14</title>
<path fill="none" stroke="midnightblue" d="M793.67,-179.42C772.9,-173.05 750.45,-162.02 738,-143 730.46,-131.47 731.99,-124.4 738,-112 744.4,-98.8 756.75,-88.3 768.33,-80.78"/>
<polygon fill="midnightblue" stroke="midnightblue" points="770.16,-83.77 776.92,-75.61 766.55,-77.77 770.16,-83.77"/>
</g>
<!-- Node15 -->
<g id="node15" class="node">
<title>Node15</title>
<g id="a_node15"><a xlink:title=" ">
<polygon fill="none" stroke="#bfbfbf" points="780.5,-112.5 780.5,-142.5 901.5,-142.5 901.5,-112.5 780.5,-112.5"/>
<text text-anchor="start" x="788.5" y="-130.5" font-family="Helvetica,sans-Serif" font-size="10.00">boost/mpi/collectives</text>
<text text-anchor="middle" x="841" y="-119.5" font-family="Helvetica,sans-Serif" font-size="10.00">/all_reduce.hpp</text>
</a>
</g>
</g>
<!-- Node1&#45;&gt;Node15 -->
<g id="edge21" class="edge">
<title>Node1&#45;&gt;Node15</title>
<path fill="none" stroke="midnightblue" d="M841,-179.48C841,-172.47 841,-162.19 841,-152.7"/>
<polygon fill="midnightblue" stroke="midnightblue" points="844.5,-152.52 841,-142.52 837.5,-152.52 844.5,-152.52"/>
</g>
<!-- Node16 -->
<g id="node16" class="node">
<title>Node16</title>
<g id="a_node16"><a xlink:title=" ">
<polygon fill="none" stroke="#bfbfbf" points="919.5,-112.5 919.5,-142.5 1040.5,-142.5 1040.5,-112.5 919.5,-112.5"/>
<text text-anchor="start" x="927.5" y="-130.5" font-family="Helvetica,sans-Serif" font-size="10.00">boost/mpi/collectives</text>
<text text-anchor="middle" x="980" y="-119.5" font-family="Helvetica,sans-Serif" font-size="10.00">/broadcast.hpp</text>
</a>
</g>
</g>
<!-- Node1&#45;&gt;Node16 -->
<g id="edge22" class="edge">
<title>Node1&#45;&gt;Node16</title>
<path fill="none" stroke="midnightblue" d="M860.92,-179.48C880.88,-170.93 912.25,-157.5 937.78,-146.57"/>
<polygon fill="midnightblue" stroke="midnightblue" points="939.42,-149.68 947.24,-142.52 936.67,-143.24 939.42,-149.68"/>
</g>
<!-- Node17 -->
<g id="node17" class="node">
<title>Node17</title>
<g id="a_node17"><a xlink:title=" ">
<polygon fill="none" stroke="#bfbfbf" points="1059,-118 1059,-137 1219,-137 1219,-118 1059,-118"/>
<text text-anchor="middle" x="1139" y="-125" font-family="Helvetica,sans-Serif" font-size="10.00">boost/mpi/communicator.hpp</text>
</a>
</g>
</g>
<!-- Node1&#45;&gt;Node17 -->
<g id="edge23" class="edge">
<title>Node1&#45;&gt;Node17</title>
<path fill="none" stroke="midnightblue" d="M883.7,-179.48C937.14,-168.8 1028.65,-150.53 1086.37,-139.01"/>
<polygon fill="midnightblue" stroke="midnightblue" points="1087.26,-142.4 1096.38,-137.01 1085.89,-135.53 1087.26,-142.4"/>
</g>
<!-- Node18 -->
<g id="node18" class="node">
<title>Node18</title>
<g id="a_node18"><a xlink:title=" ">
<polygon fill="none" stroke="#bfbfbf" points="1237.5,-118 1237.5,-137 1344.5,-137 1344.5,-118 1237.5,-118"/>
<text text-anchor="middle" x="1291" y="-125" font-family="Helvetica,sans-Serif" font-size="10.00">boost/optional.hpp</text>
</a>
</g>
</g>
<!-- Node1&#45;&gt;Node18 -->
<g id="edge24" class="edge">
<title>Node1&#45;&gt;Node18</title>
<path fill="none" stroke="midnightblue" d="M892.59,-183.83C967.02,-177.39 1108.69,-163.6 1228,-143 1234.24,-141.92 1240.79,-140.61 1247.21,-139.23"/>
<polygon fill="midnightblue" stroke="midnightblue" points="1248.14,-142.61 1257.14,-137.02 1246.61,-135.78 1248.14,-142.61"/>
</g>
<!-- Node19 -->
<g id="node19" class="node">
<title>Node19</title>
<g id="a_node19"><a xlink:title=" ">
<polygon fill="none" stroke="#bfbfbf" points="1362.5,-112.5 1362.5,-142.5 1487.5,-142.5 1487.5,-112.5 1362.5,-112.5"/>
<text text-anchor="start" x="1370.5" y="-130.5" font-family="Helvetica,sans-Serif" font-size="10.00">boost/range/algorithm</text>
<text text-anchor="middle" x="1425" y="-119.5" font-family="Helvetica,sans-Serif" font-size="10.00">/remove_if.hpp</text>
</a>
</g>
</g>
<!-- Node1&#45;&gt;Node19 -->
<g id="edge25" class="edge">
<title>Node1&#45;&gt;Node19</title>
<path fill="none" stroke="midnightblue" d="M892.56,-185.43C983.51,-180.46 1178.51,-167.91 1352.25,-143.15"/>
<polygon fill="midnightblue" stroke="midnightblue" points="1352.95,-146.59 1362.35,-141.7 1351.95,-139.66 1352.95,-146.59"/>
</g>
<!-- Node20 -->
<g id="node20" class="node">
<title>Node20</title>
<g id="a_node20"><a xlink:title=" ">
<polygon fill="none" stroke="#bfbfbf" points="1505.5,-118 1505.5,-137 1570.5,-137 1570.5,-118 1505.5,-118"/>
<text text-anchor="middle" x="1538" y="-125" font-family="Helvetica,sans-Serif" font-size="10.00">functional</text>
</a>
</g>
</g>
<!-- Node1&#45;&gt;Node20 -->
<g id="edge27" class="edge">
<title>Node1&#45;&gt;Node20</title>
<path fill="none" stroke="midnightblue" d="M892.63,-186.27C1026.39,-181.49 1381.72,-166.87 1497,-143 1500.43,-142.29 1503.97,-141.36 1507.45,-140.31"/>
<polygon fill="midnightblue" stroke="midnightblue" points="1508.64,-143.61 1517.03,-137.15 1506.44,-136.96 1508.64,-143.61"/>
</g>
<!-- Node21 -->
<g id="node21" class="node">
<title>Node21</title>
<g id="a_node21"><a xlink:title=" ">
<polygon fill="none" stroke="#bfbfbf" points="1588.5,-118 1588.5,-137 1671.5,-137 1671.5,-118 1588.5,-118"/>
<text text-anchor="middle" x="1630" y="-125" font-family="Helvetica,sans-Serif" font-size="10.00">initializer_list</text>
</a>
</g>
</g>
<!-- Node1&#45;&gt;Node21 -->
<g id="edge28" class="edge">
<title>Node1&#45;&gt;Node21</title>
<path fill="none" stroke="midnightblue" d="M892.52,-188.76C1013.5,-189.7 1324.8,-187.21 1580,-143 1584.81,-142.17 1589.82,-141.04 1594.73,-139.78"/>
<polygon fill="midnightblue" stroke="midnightblue" points="1595.86,-143.1 1604.56,-137.06 1593.99,-136.35 1595.86,-143.1"/>
</g>
<!-- Node22 -->
<g id="node22" class="node">
<title>Node22</title>
<g id="a_node22"><a xlink:title=" ">
<polygon fill="none" stroke="#bfbfbf" points="1690,-118 1690,-137 1748,-137 1748,-118 1690,-118"/>
<text text-anchor="middle" x="1719" y="-125" font-family="Helvetica,sans-Serif" font-size="10.00">memory</text>
</a>
</g>
</g>
<!-- Node1&#45;&gt;Node22 -->
<g id="edge29" class="edge">
<title>Node1&#45;&gt;Node22</title>
<path fill="none" stroke="midnightblue" d="M892.65,-187.33C1051.19,-184.94 1529.3,-175.18 1681,-143 1684.08,-142.35 1687.24,-141.48 1690.35,-140.5"/>
<polygon fill="midnightblue" stroke="midnightblue" points="1691.77,-143.71 1700.02,-137.07 1689.43,-137.11 1691.77,-143.71"/>
</g>
<!-- Node23 -->
<g id="node23" class="node">
<title>Node23</title>
<g id="a_node23"><a xlink:title=" ">
<polygon fill="none" stroke="#bfbfbf" points="1766.5,-118 1766.5,-137 1813.5,-137 1813.5,-118 1766.5,-118"/>
<text text-anchor="middle" x="1790" y="-125" font-family="Helvetica,sans-Serif" font-size="10.00">vector</text>
</a>
</g>
</g>
<!-- Node1&#45;&gt;Node23 -->
<g id="edge33" class="edge">
<title>Node1&#45;&gt;Node23</title>
<path fill="none" stroke="midnightblue" d="M892.6,-187.92C1060.64,-187.29 1590.89,-182.16 1757,-143 1759.36,-142.44 1761.77,-141.72 1764.15,-140.9"/>
<polygon fill="midnightblue" stroke="midnightblue" points="1765.64,-144.07 1773.62,-137.1 1763.04,-137.57 1765.64,-144.07"/>
</g>
<!-- Node2&#45;&gt;Node3 -->
<g id="edge2" class="edge">
<title>Node2&#45;&gt;Node3</title>
<path fill="none" stroke="midnightblue" d="M146.8,-117.98C122.93,-107.9 83,-91.05 55.63,-79.5"/>
<polygon fill="midnightblue" stroke="midnightblue" points="56.74,-76.17 46.16,-75.51 54.02,-82.62 56.74,-76.17"/>
</g>
<!-- Node4 -->
<g id="node4" class="node">
<title>Node4</title>
<g id="a_node4"><a xlink:title=" ">
<polygon fill="none" stroke="#bfbfbf" points="576.5,-0.5 576.5,-19.5 629.5,-19.5 629.5,-0.5 576.5,-0.5"/>
<text text-anchor="middle" x="603" y="-7.5" font-family="Helvetica,sans-Serif" font-size="10.00">cstddef</text>
</a>
</g>
</g>
<!-- Node2&#45;&gt;Node4 -->
<g id="edge3" class="edge">
<title>Node2&#45;&gt;Node4</title>
<path fill="none" stroke="midnightblue" d="M199.41,-117.91C278.89,-96.86 483.02,-42.78 566.54,-20.66"/>
<polygon fill="midnightblue" stroke="midnightblue" points="567.58,-24 576.35,-18.06 565.78,-17.24 567.58,-24"/>
</g>
<!-- Node5 -->
<g id="node5" class="node">
<title>Node5</title>
<g id="a_node5"><a xlink:title=" ">
<polygon fill="none" stroke="#bfbfbf" points="70,-56.5 70,-75.5 102,-75.5 102,-56.5 70,-56.5"/>
<text text-anchor="middle" x="86" y="-63.5" font-family="Helvetica,sans-Serif" font-size="10.00">set</text>
</a>
</g>
</g>
<!-- Node2&#45;&gt;Node5 -->
<g id="edge4" class="edge">
<title>Node2&#45;&gt;Node5</title>
<path fill="none" stroke="midnightblue" d="M155.39,-117.98C142.52,-108.52 121.53,-93.1 105.99,-81.69"/>
<polygon fill="midnightblue" stroke="midnightblue" points="107.72,-78.61 97.58,-75.51 103.57,-84.25 107.72,-78.61"/>
</g>
<!-- Node6 -->
<g id="node6" class="node">
<title>Node6</title>
<g id="a_node6"><a xlink:title=" ">
<polygon fill="none" stroke="#bfbfbf" points="120.5,-56.5 120.5,-75.5 213.5,-75.5 213.5,-56.5 120.5,-56.5"/>
<text text-anchor="middle" x="167" y="-63.5" font-family="Helvetica,sans-Serif" font-size="10.00">unordered_map</text>
</a>
</g>
</g>
<!-- Node2&#45;&gt;Node6 -->
<g id="edge5" class="edge">
<title>Node2&#45;&gt;Node6</title>
<path fill="none" stroke="midnightblue" d="M167,-117.98C167,-109.58 167,-96.48 167,-85.66"/>
<polygon fill="midnightblue" stroke="midnightblue" points="170.5,-85.51 167,-75.51 163.5,-85.51 170.5,-85.51"/>
</g>
<!-- Node7&#45;&gt;Node8 -->
<g id="edge7" class="edge">
<title>Node7&#45;&gt;Node8</title>
<path fill="none" stroke="midnightblue" d="M299.91,-56.32C315.64,-47.74 339.94,-34.49 358.21,-24.52"/>
<polygon fill="midnightblue" stroke="midnightblue" points="360.03,-27.52 367.13,-19.65 356.68,-21.37 360.03,-27.52"/>
</g>
<!-- Node9&#45;&gt;Node4 -->
<g id="edge16" class="edge">
<title>Node9&#45;&gt;Node4</title>
<path fill="none" stroke="midnightblue" d="M639.99,-117.82C633.51,-99.09 618.08,-54.55 609.34,-29.29"/>
<polygon fill="midnightblue" stroke="midnightblue" points="612.62,-28.09 606.04,-19.78 606.01,-30.38 612.62,-28.09"/>
</g>
<!-- Node9&#45;&gt;Node8 -->
<g id="edge18" class="edge">
<title>Node9&#45;&gt;Node8</title>
<path fill="none" stroke="midnightblue" d="M599.73,-120.15C561.12,-113.24 503.92,-99.83 459,-76 434.93,-63.23 411.81,-41.69 397.52,-26.93"/>
<polygon fill="midnightblue" stroke="midnightblue" points="399.95,-24.4 390.54,-19.53 394.85,-29.2 399.95,-24.4"/>
</g>
<!-- Node10 -->
<g id="node10" class="node">
<title>Node10</title>
<g id="a_node10"><a xlink:href="get_8hpp.html" target="_top" xlink:title=" ">
<polygon fill="none" stroke="black" points="638.5,-56.5 638.5,-75.5 715.5,-75.5 715.5,-56.5 638.5,-56.5"/>
<text text-anchor="middle" x="677" y="-63.5" font-family="Helvetica,sans-Serif" font-size="10.00">utils/get.hpp</text>
</a>
</g>
</g>
<!-- Node9&#45;&gt;Node10 -->
<g id="edge9" class="edge">
<title>Node9&#45;&gt;Node10</title>
<path fill="none" stroke="midnightblue" d="M647.87,-117.98C652.87,-109.23 660.79,-95.37 667.11,-84.31"/>
<polygon fill="midnightblue" stroke="midnightblue" points="670.22,-85.93 672.14,-75.51 664.14,-82.46 670.22,-85.93"/>
</g>
<!-- Node9&#45;&gt;Node11 -->
<g id="edge17" class="edge">
<title>Node9&#45;&gt;Node11</title>
<path fill="none" stroke="midnightblue" d="M665,-117.99C683.3,-109.84 708.74,-95.83 724,-76 734.34,-62.56 739.37,-43.75 741.8,-29.81"/>
<polygon fill="midnightblue" stroke="midnightblue" points="745.27,-30.28 743.24,-19.88 738.34,-29.28 745.27,-30.28"/>
</g>
<!-- Node9&#45;&gt;Node12 -->
<g id="edge12" class="edge">
<title>Node9&#45;&gt;Node12</title>
<path fill="none" stroke="midnightblue" d="M626.09,-117.98C606.47,-108.08 573.87,-91.64 551.01,-80.12"/>
<polygon fill="midnightblue" stroke="midnightblue" points="552.38,-76.89 541.88,-75.51 549.23,-83.14 552.38,-76.89"/>
</g>
<!-- Node9&#45;&gt;Node14 -->
<g id="edge19" class="edge">
<title>Node9&#45;&gt;Node14</title>
<path fill="none" stroke="midnightblue" d="M664.78,-117.98C690.74,-107.81 734.31,-90.76 763.83,-79.2"/>
<polygon fill="midnightblue" stroke="midnightblue" points="765.23,-82.41 773.26,-75.51 762.67,-75.9 765.23,-82.41"/>
</g>
<!-- Node10&#45;&gt;Node4 -->
<g id="edge10" class="edge">
<title>Node10&#45;&gt;Node4</title>
<path fill="none" stroke="midnightblue" d="M665.11,-56.32C653.85,-48.11 636.71,-35.6 623.29,-25.81"/>
<polygon fill="midnightblue" stroke="midnightblue" points="625.25,-22.9 615.11,-19.83 621.12,-28.56 625.25,-22.9"/>
</g>
<!-- Node10&#45;&gt;Node11 -->
<g id="edge11" class="edge">
<title>Node10&#45;&gt;Node11</title>
<path fill="none" stroke="midnightblue" d="M687.76,-56.32C697.77,-48.26 712.89,-36.08 724.93,-26.37"/>
<polygon fill="midnightblue" stroke="midnightblue" points="727.45,-28.83 733.04,-19.83 723.06,-23.38 727.45,-28.83"/>
</g>
<!-- Node12&#45;&gt;Node4 -->
<g id="edge14" class="edge">
<title>Node12&#45;&gt;Node4</title>
<path fill="none" stroke="midnightblue" d="M537.53,-56.32C549.59,-47.98 568.03,-35.21 582.27,-25.35"/>
<polygon fill="midnightblue" stroke="midnightblue" points="584.27,-28.22 590.5,-19.65 580.28,-22.47 584.27,-28.22"/>
</g>
<!-- Node12&#45;&gt;Node8 -->
<g id="edge15" class="edge">
<title>Node12&#45;&gt;Node8</title>
<path fill="none" stroke="midnightblue" d="M502.5,-56.44C478.92,-47.48 441.68,-33.31 415.04,-23.18"/>
<polygon fill="midnightblue" stroke="midnightblue" points="415.99,-19.8 405.4,-19.52 413.5,-26.34 415.99,-19.8"/>
</g>
<!-- Node13 -->
<g id="node13" class="node">
<title>Node13</title>
<g id="a_node13"><a xlink:title=" ">
<polygon fill="none" stroke="#bfbfbf" points="500,-0.5 500,-19.5 550,-19.5 550,-0.5 500,-0.5"/>
<text text-anchor="middle" x="525" y="-7.5" font-family="Helvetica,sans-Serif" font-size="10.00">climits</text>
</a>
</g>
</g>
<!-- Node12&#45;&gt;Node13 -->
<g id="edge13" class="edge">
<title>Node12&#45;&gt;Node13</title>
<path fill="none" stroke="midnightblue" d="M525,-56.08C525,-49.01 525,-38.86 525,-29.99"/>
<polygon fill="midnightblue" stroke="midnightblue" points="528.5,-29.75 525,-19.75 521.5,-29.75 528.5,-29.75"/>
</g>
</g>
</svg>
        <g id="navigator" transform="translate(0 0)" fill="#404254">
                <rect fill="#f2f5e9" fill-opacity="0.5" stroke="#606060" stroke-width=".5" x="0" y="0" width="60" height="60"/>
                <use id="zoomplus" xlink:href="#zoomPlus" x="17" y="9" onmousedown="handleZoom(evt,'in')"/>
                <use id="zoomminus" xlink:href="#zoomMin" x="42" y="9" onmousedown="handleZoom(evt,'out')"/>
                <use id="reset" xlink:href="#resetDef" x="30" y="36" onmousedown="handleReset()"/>
                <g id="arrowUp" xlink:href="#dirArrow" transform="translate(30 24)" onmousedown="handlePan(0,-1)">
                  <use xlink:href="#rim" fill="#404040">
                        <set attributeName="fill" to="#808080" begin="arrowUp.mouseover" end="arrowUp.mouseout"/>
                  </use>
                  <path fill="none" stroke="white" stroke-width="1.5" d="M0,-3.0v7 M-2.5,-0.5L0,-3.0L2.5,-0.5"/>
                </g>
                <g id="arrowRight" xlink:href="#dirArrow" transform="rotate(90) translate(36 -43)" onmousedown="handlePan(1,0)">
                  <use xlink:href="#rim" fill="#404040">
                        <set attributeName="fill" to="#808080" begin="arrowRight.mouseover" end="arrowRight.mouseout"/>
                  </use>
                  <path fill="none" stroke="white" stroke-width="1.5" d="M0,-3.0v7 M-2.5,-0.5L0,-3.0L2.5,-0.5"/>
                </g>
                <g id="arrowDown" xlink:href="#dirArrow" transform="rotate(180) translate(-30 -48)" onmousedown="handlePan(0,1)">
                  <use xlink:href="#rim" fill="#404040">
                        <set attributeName="fill" to="#808080" begin="arrowDown.mouseover" end="arrowDown.mouseout"/>
                  </use>
                  <path fill="none" stroke="white" stroke-width="1.5" d="M0,-3.0v7 M-2.5,-0.5L0,-3.0L2.5,-0.5"/>
                </g>
                <g id="arrowLeft" xlink:href="#dirArrow" transform="rotate(270) translate(-36 17)" onmousedown="handlePan(-1,0)">
                  <use xlink:href="#rim" fill="#404040">
                        <set attributeName="fill" to="#808080" begin="arrowLeft.mouseover" end="arrowLeft.mouseout"/>
                  </use>
                  <path fill="none" stroke="white" stroke-width="1.5" d="M0,-3.0v7 M-2.5,-0.5L0,-3.0L2.5,-0.5"/>
                </g>
        </g>
        <svg viewBox="0 0 15 15" width="100%" height="30px" preserveAspectRatio="xMaxYMin meet">
         <g id="arrow_out" transform="scale(0.3 0.3)">
          <a xlink:href="MpiCallbacks_8hpp__incl_org.svg" target="_base">
           <rect id="button" ry="5" rx="5" y="6" x="6" height="38" width="38"
                fill="#f2f5e9" fill-opacity="0.5" stroke="#606060" stroke-width="1.0"/>
           <path id="arrow"
             d="M 11.500037,31.436501 C 11.940474,20.09759 22.043105,11.32322 32.158766,21.979434 L 37.068811,17.246167 C 37.068811,17.246167 37.088388,32 37.088388,32 L 22.160133,31.978069 C 22.160133,31.978069 26.997745,27.140456 26.997745,27.140456 C 18.528582,18.264221 13.291696,25.230495 11.500037,31.436501 z"
             style="fill:#404040;"/>
          </a>
         </g>
        </svg>
</svg>
