<?xml version="1.0" encoding="UTF-8" standalone="no"?>
<!DOCTYPE svg PUBLIC "-//W3C//DTD SVG 1.1//EN"
 "http://www.w3.org/Graphics/SVG/1.1/DTD/svg11.dtd">
<!-- Generated by graphviz version 2.43.0 (0)
 -->
<!-- Title: npt.hpp Pages: 1 -->
<svg width="883pt" height="84pt"
 viewBox="0.00 0.00 883.00 84.00" xmlns="http://www.w3.org/2000/svg" xmlns:xlink="http://www.w3.org/1999/xlink">
<g id="graph0" class="graph" transform="scale(1 1) rotate(0) translate(4 80)">
<title>npt.hpp</title>
<!-- Node1 -->
<g id="node1" class="node">
<title>Node1</title>
<g id="a_node1"><a xlink:title=" ">
<polygon fill="#bfbfbf" stroke="black" points="387,-56.5 387,-75.5 440,-75.5 440,-56.5 387,-56.5"/>
<text text-anchor="middle" x="413.5" y="-63.5" font-family="Helvetica,sans-Serif" font-size="10.00">npt.hpp</text>
</a>
</g>
</g>
<!-- Node2 -->
<g id="node2" class="node">
<title>Node2</title>
<g id="a_node2"><a xlink:href="coulomb_8cpp.html" target="_top" xlink:title=" ">
<polygon fill="none" stroke="black" points="0,-0.5 0,-19.5 79,-19.5 79,-0.5 0,-0.5"/>
<text text-anchor="middle" x="39.5" y="-7.5" font-family="Helvetica,sans-Serif" font-size="10.00">coulomb.cpp</text>
</a>
</g>
</g>
<!-- Node1&#45;&gt;Node2 -->
<g id="edge1" class="edge">
<title>Node1&#45;&gt;Node2</title>
<path fill="none" stroke="midnightblue" d="M376.62,-60.5C316.11,-52.98 192.04,-37 87.5,-20 84.74,-19.55 81.89,-19.07 79.03,-18.57"/>
<polygon fill="midnightblue" stroke="midnightblue" points="376.46,-64 386.81,-61.76 377.32,-57.06 376.46,-64"/>
</g>
<!-- Node3 -->
<g id="node3" class="node">
<title>Node3</title>
<g id="a_node3"><a xlink:href="dipole_8cpp.html" target="_top" xlink:title=" ">
<polygon fill="none" stroke="black" points="97,-0.5 97,-19.5 164,-19.5 164,-0.5 97,-0.5"/>
<text text-anchor="middle" x="130.5" y="-7.5" font-family="Helvetica,sans-Serif" font-size="10.00">dipole.cpp</text>
</a>
</g>
</g>
<!-- Node1&#45;&gt;Node3 -->
<g id="edge2" class="edge">
<title>Node1&#45;&gt;Node3</title>
<path fill="none" stroke="midnightblue" d="M376.8,-58.37C329.67,-49.79 245.41,-34.26 173.5,-20 170.51,-19.41 167.4,-18.78 164.29,-18.14"/>
<polygon fill="midnightblue" stroke="midnightblue" points="376.36,-61.84 386.83,-60.19 377.62,-54.96 376.36,-61.84"/>
</g>
<!-- Node4 -->
<g id="node4" class="node">
<title>Node4</title>
<g id="a_node4"><a xlink:href="p3m-dipolar_8cpp.html" target="_top" xlink:title=" ">
<polygon fill="none" stroke="black" points="182.5,-0.5 182.5,-19.5 278.5,-19.5 278.5,-0.5 182.5,-0.5"/>
<text text-anchor="middle" x="230.5" y="-7.5" font-family="Helvetica,sans-Serif" font-size="10.00">p3m&#45;dipolar.cpp</text>
</a>
</g>
</g>
<!-- Node1&#45;&gt;Node4 -->
<g id="edge3" class="edge">
<title>Node1&#45;&gt;Node4</title>
<path fill="none" stroke="midnightblue" d="M377.19,-54.29C342.68,-44.1 291.45,-28.99 259.56,-19.58"/>
<polygon fill="midnightblue" stroke="midnightblue" points="376.31,-57.67 386.89,-57.15 378.29,-50.96 376.31,-57.67"/>
</g>
<!-- Node5 -->
<g id="node5" class="node">
<title>Node5</title>
<g id="a_node5"><a xlink:href="event_8cpp.html" target="_top" xlink:title=" ">
<polygon fill="none" stroke="black" points="297,-0.5 297,-19.5 362,-19.5 362,-0.5 297,-0.5"/>
<text text-anchor="middle" x="329.5" y="-7.5" font-family="Helvetica,sans-Serif" font-size="10.00">event.cpp</text>
</a>
</g>
</g>
<!-- Node1&#45;&gt;Node5 -->
<g id="edge4" class="edge">
<title>Node1&#45;&gt;Node5</title>
<path fill="none" stroke="midnightblue" d="M391.57,-50.9C376.16,-41 356.05,-28.07 342.96,-19.65"/>
<polygon fill="midnightblue" stroke="midnightblue" points="389.7,-53.86 400,-56.32 393.48,-47.97 389.7,-53.86"/>
</g>
<!-- Node6 -->
<g id="node6" class="node">
<title>Node6</title>
<g id="a_node6"><a xlink:href="forces_8cpp.html" target="_top" xlink:title=" ">
<polygon fill="none" stroke="black" points="380,-0.5 380,-19.5 447,-19.5 447,-0.5 380,-0.5"/>
<text text-anchor="middle" x="413.5" y="-7.5" font-family="Helvetica,sans-Serif" font-size="10.00">forces.cpp</text>
</a>
</g>
</g>
<!-- Node1&#45;&gt;Node6 -->
<g id="edge5" class="edge">
<title>Node1&#45;&gt;Node6</title>
<path fill="none" stroke="midnightblue" d="M413.5,-45.8C413.5,-36.91 413.5,-26.78 413.5,-19.75"/>
<polygon fill="midnightblue" stroke="midnightblue" points="410,-46.08 413.5,-56.08 417,-46.08 410,-46.08"/>
</g>
<!-- Node7 -->
<g id="node7" class="node">
<title>Node7</title>
<g id="a_node7"><a xlink:href="integrate_8cpp.html" target="_top" xlink:title=" ">
<polygon fill="none" stroke="black" points="465,-0.5 465,-19.5 546,-19.5 546,-0.5 465,-0.5"/>
<text text-anchor="middle" x="505.5" y="-7.5" font-family="Helvetica,sans-Serif" font-size="10.00">integrate.cpp</text>
</a>
</g>
</g>
<!-- Node1&#45;&gt;Node7 -->
<g id="edge6" class="edge">
<title>Node1&#45;&gt;Node7</title>
<path fill="none" stroke="midnightblue" d="M437.05,-51.18C453.98,-41.24 476.28,-28.15 490.76,-19.65"/>
<polygon fill="midnightblue" stroke="midnightblue" points="435.13,-48.24 428.28,-56.32 438.68,-54.28 435.13,-48.24"/>
</g>
<!-- Node8 -->
<g id="node8" class="node">
<title>Node8</title>
<g id="a_node8"><a xlink:href="velocity__verlet__npt_8cpp.html" target="_top" xlink:title=" ">
<polygon fill="none" stroke="black" points="564,-0.5 564,-19.5 695,-19.5 695,-0.5 564,-0.5"/>
<text text-anchor="middle" x="629.5" y="-7.5" font-family="Helvetica,sans-Serif" font-size="10.00">velocity_verlet_npt.cpp</text>
</a>
</g>
</g>
<!-- Node1&#45;&gt;Node8 -->
<g id="edge7" class="edge">
<title>Node1&#45;&gt;Node8</title>
<path fill="none" stroke="midnightblue" d="M450.2,-55.82C490.87,-45.66 555.91,-29.4 595.47,-19.51"/>
<polygon fill="midnightblue" stroke="midnightblue" points="449.27,-52.45 440.42,-58.27 450.97,-59.24 449.27,-52.45"/>
</g>
<!-- Node9 -->
<g id="node9" class="node">
<title>Node9</title>
<g id="a_node9"><a xlink:href="npt_8cpp.html" target="_top" xlink:title=" ">
<polygon fill="none" stroke="black" points="713,-0.5 713,-19.5 766,-19.5 766,-0.5 713,-0.5"/>
<text text-anchor="middle" x="739.5" y="-7.5" font-family="Helvetica,sans-Serif" font-size="10.00">npt.cpp</text>
</a>
</g>
</g>
<!-- Node1&#45;&gt;Node9 -->
<g id="edge8" class="edge">
<title>Node1&#45;&gt;Node9</title>
<path fill="none" stroke="midnightblue" d="M450.17,-60.51C505.55,-53.45 613.7,-38.65 704.5,-20 707.2,-19.44 710.01,-18.81 712.81,-18.15"/>
<polygon fill="midnightblue" stroke="midnightblue" points="449.62,-57.05 440.14,-61.77 450.5,-63.99 449.62,-57.05"/>
</g>
<!-- Node10 -->
<g id="node10" class="node">
<title>Node10</title>
<g id="a_node10"><a xlink:href="thermostat_8cpp.html" target="_top" xlink:title=" ">
<polygon fill="none" stroke="black" points="784,-0.5 784,-19.5 875,-19.5 875,-0.5 784,-0.5"/>
<text text-anchor="middle" x="829.5" y="-7.5" font-family="Helvetica,sans-Serif" font-size="10.00">thermostat.cpp</text>
</a>
</g>
</g>
<!-- Node1&#45;&gt;Node10 -->
<g id="edge9" class="edge">
<title>Node1&#45;&gt;Node10</title>
<path fill="none" stroke="midnightblue" d="M450.59,-60.9C516.22,-53.54 657.06,-37.22 775.5,-20 778.23,-19.6 781.03,-19.18 783.86,-18.74"/>
<polygon fill="midnightblue" stroke="midnightblue" points="449.89,-57.46 440.35,-62.05 450.67,-64.42 449.89,-57.46"/>
</g>
</g>
</svg>
