<?xml version="1.0" encoding="UTF-8" standalone="no"?>
<!DOCTYPE svg PUBLIC "-//W3C//DTD SVG 1.1//EN"
 "http://www.w3.org/Graphics/SVG/1.1/DTD/svg11.dtd">
<!-- Generated by graphviz version 2.43.0 (0)
 -->
<!-- Title: npt.hpp Pages: 1 -->
<!--zoomable 330 -->
<svg id="main" version="1.1" xmlns="http://www.w3.org/2000/svg" xmlns:xlink="http://www.w3.org/1999/xlink" xml:space="preserve" onload="init(evt)">
<style type="text/css"><![CDATA[
.edge:hover path { stroke: red; }
.edge:hover polygon { stroke: red; fill: red; }
]]></style>
<script type="text/javascript"><![CDATA[
var edges = document.getElementsByTagName('g');
if (edges && edges.length) {
  for (var i=0;i<edges.length;i++) {
    if (edges[i].id.substr(0,4)=='edge') {
      edges[i].setAttribute('class','edge');
    }
  }
}
]]></script>
        <defs>
                <circle id="rim" cx="0" cy="0" r="7"/>
                <circle id="rim2" cx="0" cy="0" r="3.5"/>
                <g id="zoomPlus">
                        <use xlink:href="#rim" fill="#404040">
                                <set attributeName="fill" to="#808080" begin="zoomplus.mouseover" end="zoomplus.mouseout"/>
                        </use>
                        <path d="M-4,0h8M0,-4v8" fill="none" stroke="white" stroke-width="1.5" pointer-events="none"/>
                </g>
                <g id="zoomMin">
                        <use xlink:href="#rim" fill="#404040">
                                <set attributeName="fill" to="#808080" begin="zoomminus.mouseover" end="zoomminus.mouseout"/>
                        </use>
                        <path d="M-4,0h8" fill="none" stroke="white" stroke-width="1.5" pointer-events="none"/>
                </g>
                <g id="dirArrow">
                        <path fill="none" stroke="white" stroke-width="1.5" d="M0,-3.0v7 M-2.5,-0.5L0,-3.0L2.5,-0.5"/>
                </g>
               <g id="resetDef">
                       <use xlink:href="#rim2" fill="#404040">
                               <set attributeName="fill" to="#808080" begin="reset.mouseover" end="reset.mouseout"/>
                       </use>
               </g>
        </defs>

<script type="text/javascript">
var viewWidth = 1400;
var viewHeight = 330;
var sectionId = 'dynsection-0';
</script>
<script xlink:href="svgpan.js"/>
<svg id="graph" class="graph">
<g id="viewport">
<title>npt.hpp</title>
<!-- Node1 -->
<g id="node1" class="node">
<title>Node1</title>
<g id="a_node1"><a xlink:title=" ">
<polygon fill="#bfbfbf" stroke="black" points="715,-302.5 715,-321.5 768,-321.5 768,-302.5 715,-302.5"/>
<text text-anchor="middle" x="741.5" y="-309.5" font-family="Helvetica,sans-Serif" font-size="10.00">npt.hpp</text>
</a>
</g>
</g>
<!-- Node2 -->
<g id="node2" class="node">
<title>Node2</title>
<g id="a_node2"><a xlink:href="config_8hpp.html" target="_top" xlink:title=" ">
<polygon fill="none" stroke="black" points="616.5,-246.5 616.5,-265.5 684.5,-265.5 684.5,-246.5 616.5,-246.5"/>
<text text-anchor="middle" x="650.5" y="-253.5" font-family="Helvetica,sans-Serif" font-size="10.00">config.hpp</text>
</a>
</g>
</g>
<!-- Node1&#45;&gt;Node2 -->
<g id="edge1" class="edge">
<title>Node1&#45;&gt;Node2</title>
<path fill="none" stroke="midnightblue" d="M726.88,-302.32C712.55,-293.82 690.49,-280.73 673.75,-270.8"/>
<polygon fill="midnightblue" stroke="midnightblue" points="675.47,-267.75 665.08,-265.65 671.9,-273.77 675.47,-267.75"/>
</g>
<!-- Node4 -->
<g id="node4" class="node">
<title>Node4</title>
<g id="a_node4"><a xlink:href="BoxGeometry_8hpp.html" target="_top" xlink:title=" ">
<polygon fill="none" stroke="black" points="1086.5,-246.5 1086.5,-265.5 1190.5,-265.5 1190.5,-246.5 1086.5,-246.5"/>
<text text-anchor="middle" x="1138.5" y="-253.5" font-family="Helvetica,sans-Serif" font-size="10.00">BoxGeometry.hpp</text>
</a>
</g>
</g>
<!-- Node1&#45;&gt;Node4 -->
<g id="edge3" class="edge">
<title>Node1&#45;&gt;Node4</title>
<path fill="none" stroke="midnightblue" d="M768.16,-307.37C830.71,-298.87 988.2,-277.44 1076.33,-265.46"/>
<polygon fill="midnightblue" stroke="midnightblue" points="1077.03,-268.89 1086.46,-264.08 1076.08,-261.96 1077.03,-268.89"/>
</g>
<!-- Node9 -->
<g id="node9" class="node">
<title>Node9</title>
<g id="a_node9"><a xlink:href="Vector_8hpp.html" target="_top" xlink:title=" ">
<polygon fill="none" stroke="black" points="695,-185 695,-204 788,-204 788,-185 695,-185"/>
<text text-anchor="middle" x="741.5" y="-192" font-family="Helvetica,sans-Serif" font-size="10.00">utils/Vector.hpp</text>
</a>
</g>
</g>
<!-- Node1&#45;&gt;Node9 -->
<g id="edge38" class="edge">
<title>Node1&#45;&gt;Node9</title>
<path fill="none" stroke="midnightblue" d="M741.5,-302.32C741.5,-283.76 741.5,-239.84 741.5,-214.47"/>
<polygon fill="midnightblue" stroke="midnightblue" points="745,-214.28 741.5,-204.28 738,-214.28 745,-214.28"/>
</g>
<!-- Node3 -->
<g id="node3" class="node">
<title>Node3</title>
<g id="a_node3"><a xlink:title=" ">
<polygon fill="none" stroke="#bfbfbf" points="564.5,-185 564.5,-204 676.5,-204 676.5,-185 564.5,-185"/>
<text text-anchor="middle" x="620.5" y="-192" font-family="Helvetica,sans-Serif" font-size="10.00">config&#45;features.hpp</text>
</a>
</g>
</g>
<!-- Node2&#45;&gt;Node3 -->
<g id="edge2" class="edge">
<title>Node2&#45;&gt;Node3</title>
<path fill="none" stroke="midnightblue" d="M646.2,-246.48C641.84,-237.82 634.94,-224.15 629.4,-213.15"/>
<polygon fill="midnightblue" stroke="midnightblue" points="632.42,-211.36 624.79,-204.01 626.17,-214.51 632.42,-211.36"/>
</g>
<!-- Node5 -->
<g id="node5" class="node">
<title>Node5</title>
<g id="a_node5"><a xlink:href="periodic__fold_8hpp.html" target="_top" xlink:title=" ">
<polygon fill="none" stroke="black" points="1185.5,-179.5 1185.5,-209.5 1291.5,-209.5 1291.5,-179.5 1185.5,-179.5"/>
<text text-anchor="start" x="1193.5" y="-197.5" font-family="Helvetica,sans-Serif" font-size="10.00">algorithm/periodic</text>
<text text-anchor="middle" x="1238.5" y="-186.5" font-family="Helvetica,sans-Serif" font-size="10.00">_fold.hpp</text>
</a>
</g>
</g>
<!-- Node4&#45;&gt;Node5 -->
<g id="edge4" class="edge">
<title>Node4&#45;&gt;Node5</title>
<path fill="none" stroke="midnightblue" d="M1152.83,-246.48C1166.62,-238.27 1187.98,-225.56 1205.92,-214.88"/>
<polygon fill="midnightblue" stroke="midnightblue" points="1208.13,-217.64 1214.93,-209.52 1204.55,-211.63 1208.13,-217.64"/>
</g>
<!-- Node6 -->
<g id="node6" class="node">
<title>Node6</title>
<g id="a_node6"><a xlink:title=" ">
<polygon fill="none" stroke="#bfbfbf" points="1110,-123.5 1110,-142.5 1157,-142.5 1157,-123.5 1110,-123.5"/>
<text text-anchor="middle" x="1133.5" y="-130.5" font-family="Helvetica,sans-Serif" font-size="10.00">cmath</text>
</a>
</g>
</g>
<!-- Node4&#45;&gt;Node6 -->
<g id="edge35" class="edge">
<title>Node4&#45;&gt;Node6</title>
<path fill="none" stroke="midnightblue" d="M1138.14,-246.3C1137.34,-226.85 1135.38,-179.49 1134.28,-152.9"/>
<polygon fill="midnightblue" stroke="midnightblue" points="1137.77,-152.47 1133.86,-142.62 1130.77,-152.76 1137.77,-152.47"/>
</g>
<!-- Node7 -->
<g id="node7" class="node">
<title>Node7</title>
<g id="a_node7"><a xlink:title=" ">
<polygon fill="none" stroke="#bfbfbf" points="1196.5,-123.5 1196.5,-142.5 1240.5,-142.5 1240.5,-123.5 1196.5,-123.5"/>
<text text-anchor="middle" x="1218.5" y="-130.5" font-family="Helvetica,sans-Serif" font-size="10.00">limits</text>
</a>
</g>
</g>
<!-- Node4&#45;&gt;Node7 -->
<g id="edge36" class="edge">
<title>Node4&#45;&gt;Node7</title>
<path fill="none" stroke="midnightblue" d="M1141.96,-246.11C1147.88,-231.44 1160.84,-201.53 1176.5,-179 1183.8,-168.49 1193.46,-157.97 1201.68,-149.74"/>
<polygon fill="midnightblue" stroke="midnightblue" points="1204.25,-152.12 1208.98,-142.64 1199.37,-147.1 1204.25,-152.12"/>
</g>
<!-- Node8 -->
<g id="node8" class="node">
<title>Node8</title>
<g id="a_node8"><a xlink:title=" ">
<polygon fill="none" stroke="#bfbfbf" points="1288,-123.5 1288,-142.5 1333,-142.5 1333,-123.5 1288,-123.5"/>
<text text-anchor="middle" x="1310.5" y="-130.5" font-family="Helvetica,sans-Serif" font-size="10.00">utility</text>
</a>
</g>
</g>
<!-- Node4&#45;&gt;Node8 -->
<g id="edge37" class="edge">
<title>Node4&#45;&gt;Node8</title>
<path fill="none" stroke="midnightblue" d="M1190.86,-254.72C1227.1,-251.56 1273.51,-241.07 1300.5,-210 1313.97,-194.49 1314.83,-170.05 1313.39,-153.09"/>
<polygon fill="midnightblue" stroke="midnightblue" points="1316.82,-152.26 1312.16,-142.74 1309.87,-153.09 1316.82,-152.26"/>
</g>
<!-- Node4&#45;&gt;Node9 -->
<g id="edge8" class="edge">
<title>Node4&#45;&gt;Node9</title>
<path fill="none" stroke="midnightblue" d="M1086.19,-247.16C1011.53,-235.97 874.96,-215.5 798.04,-203.97"/>
<polygon fill="midnightblue" stroke="midnightblue" points="798.46,-200.5 788.05,-202.48 797.43,-207.42 798.46,-200.5"/>
</g>
<!-- Node14 -->
<g id="node14" class="node">
<title>Node14</title>
<g id="a_node14"><a xlink:title=" ">
<polygon fill="none" stroke="#bfbfbf" points="962.5,-0.5 962.5,-19.5 1014.5,-19.5 1014.5,-0.5 962.5,-0.5"/>
<text text-anchor="middle" x="988.5" y="-7.5" font-family="Helvetica,sans-Serif" font-size="10.00">cassert</text>
</a>
</g>
</g>
<!-- Node4&#45;&gt;Node14 -->
<g id="edge34" class="edge">
<title>Node4&#45;&gt;Node14</title>
<path fill="none" stroke="midnightblue" d="M1135.88,-246.31C1126.78,-217.11 1094.3,-120.76 1043.5,-56 1034.25,-44.2 1021.39,-33.47 1010.43,-25.44"/>
<polygon fill="midnightblue" stroke="midnightblue" points="1012.34,-22.51 1002.15,-19.62 1008.32,-28.24 1012.34,-22.51"/>
</g>
<!-- Node28 -->
<g id="node28" class="node">
<title>Node28</title>
<g id="a_node28"><a xlink:title=" ">
<polygon fill="none" stroke="#bfbfbf" points="1347.5,-185 1347.5,-204 1391.5,-204 1391.5,-185 1347.5,-185"/>
<text text-anchor="middle" x="1369.5" y="-192" font-family="Helvetica,sans-Serif" font-size="10.00">bitset</text>
</a>
</g>
</g>
<!-- Node4&#45;&gt;Node28 -->
<g id="edge33" class="edge">
<title>Node4&#45;&gt;Node28</title>
<path fill="none" stroke="midnightblue" d="M1184.75,-246.45C1224.6,-238.57 1283.46,-225.75 1333.5,-210 1335.78,-209.28 1338.11,-208.49 1340.45,-207.65"/>
<polygon fill="midnightblue" stroke="midnightblue" points="1341.8,-210.88 1349.9,-204.04 1339.31,-204.34 1341.8,-210.88"/>
</g>
<!-- Node5&#45;&gt;Node6 -->
<g id="edge5" class="edge">
<title>Node5&#45;&gt;Node6</title>
<path fill="none" stroke="midnightblue" d="M1213.62,-179.4C1196.79,-169.86 1174.66,-157.32 1157.93,-147.84"/>
<polygon fill="midnightblue" stroke="midnightblue" points="1159.2,-144.54 1148.78,-142.66 1155.75,-150.63 1159.2,-144.54"/>
</g>
<!-- Node5&#45;&gt;Node7 -->
<g id="edge6" class="edge">
<title>Node5&#45;&gt;Node7</title>
<path fill="none" stroke="midnightblue" d="M1233.76,-179.4C1231.03,-171.29 1227.58,-161.01 1224.64,-152.28"/>
<polygon fill="midnightblue" stroke="midnightblue" points="1227.91,-151.02 1221.41,-142.66 1221.28,-153.25 1227.91,-151.02"/>
</g>
<!-- Node5&#45;&gt;Node8 -->
<g id="edge7" class="edge">
<title>Node5&#45;&gt;Node8</title>
<path fill="none" stroke="midnightblue" d="M1255.56,-179.4C1266.56,-170.31 1280.87,-158.49 1292.12,-149.19"/>
<polygon fill="midnightblue" stroke="midnightblue" points="1294.54,-151.73 1300.02,-142.66 1290.09,-146.33 1294.54,-151.73"/>
</g>
<!-- Node9&#45;&gt;Node6 -->
<g id="edge25" class="edge">
<title>Node9&#45;&gt;Node6</title>
<path fill="none" stroke="midnightblue" d="M788.01,-186.44C867.87,-174.32 1029.26,-149.82 1099.52,-139.16"/>
<polygon fill="midnightblue" stroke="midnightblue" points="1100.24,-142.59 1109.6,-137.63 1099.19,-135.67 1100.24,-142.59"/>
</g>
<!-- Node10 -->
<g id="node10" class="node">
<title>Node10</title>
<g id="a_node10"><a xlink:title=" ">
<polygon fill="none" stroke="#bfbfbf" points="64.5,-123.5 64.5,-142.5 214.5,-142.5 214.5,-123.5 64.5,-123.5"/>
<text text-anchor="middle" x="139.5" y="-130.5" font-family="Helvetica,sans-Serif" font-size="10.00">boost/qvm/deduce_vec.hpp</text>
</a>
</g>
</g>
<!-- Node9&#45;&gt;Node10 -->
<g id="edge9" class="edge">
<title>Node9&#45;&gt;Node10</title>
<path fill="none" stroke="midnightblue" d="M712.64,-185C703.98,-182.72 694.41,-180.49 685.5,-179 485.63,-145.6 430.35,-161.44 224.82,-143.08"/>
<polygon fill="midnightblue" stroke="midnightblue" points="224.87,-139.58 214.6,-142.15 224.24,-146.55 224.87,-139.58"/>
</g>
<!-- Node11 -->
<g id="node11" class="node">
<title>Node11</title>
<g id="a_node11"><a xlink:title=" ">
<polygon fill="none" stroke="#bfbfbf" points="232.5,-123.5 232.5,-142.5 372.5,-142.5 372.5,-123.5 232.5,-123.5"/>
<text text-anchor="middle" x="302.5" y="-130.5" font-family="Helvetica,sans-Serif" font-size="10.00">boost/qvm/vec_traits.hpp</text>
</a>
</g>
</g>
<!-- Node9&#45;&gt;Node11 -->
<g id="edge10" class="edge">
<title>Node9&#45;&gt;Node11</title>
<path fill="none" stroke="midnightblue" d="M711.73,-184.99C703.31,-182.8 694.09,-180.61 685.5,-179 656.52,-173.57 486.12,-154.31 382.61,-142.82"/>
<polygon fill="midnightblue" stroke="midnightblue" points="382.83,-139.32 372.5,-141.7 382.05,-146.28 382.83,-139.32"/>
</g>
<!-- Node12 -->
<g id="node12" class="node">
<title>Node12</title>
<g id="a_node12"><a xlink:href="Array_8hpp.html" target="_top" xlink:title=" ">
<polygon fill="none" stroke="black" points="627.5,-123.5 627.5,-142.5 713.5,-142.5 713.5,-123.5 627.5,-123.5"/>
<text text-anchor="middle" x="670.5" y="-130.5" font-family="Helvetica,sans-Serif" font-size="10.00">utils/Array.hpp</text>
</a>
</g>
</g>
<!-- Node9&#45;&gt;Node12 -->
<g id="edge11" class="edge">
<title>Node9&#45;&gt;Node12</title>
<path fill="none" stroke="midnightblue" d="M731.33,-184.98C720.15,-175.61 701.98,-160.38 688.41,-149.01"/>
<polygon fill="midnightblue" stroke="midnightblue" points="690.57,-146.25 680.65,-142.51 686.07,-151.61 690.57,-146.25"/>
</g>
<!-- Node9&#45;&gt;Node14 -->
<g id="edge24" class="edge">
<title>Node9&#45;&gt;Node14</title>
<path fill="none" stroke="midnightblue" d="M788.02,-192.13C860.22,-188.91 994.01,-178.24 1023.5,-143 1048.31,-113.35 1036.05,-92.57 1023.5,-56 1019.78,-45.16 1012.27,-34.92 1005.15,-26.96"/>
<polygon fill="midnightblue" stroke="midnightblue" points="1007.5,-24.35 998.06,-19.55 1002.45,-29.19 1007.5,-24.35"/>
</g>
<!-- Node16 -->
<g id="node16" class="node">
<title>Node16</title>
<g id="a_node16"><a xlink:title=" ">
<polygon fill="none" stroke="#bfbfbf" points="379,-0.5 379,-19.5 432,-19.5 432,-0.5 379,-0.5"/>
<text text-anchor="middle" x="405.5" y="-7.5" font-family="Helvetica,sans-Serif" font-size="10.00">cstddef</text>
</a>
</g>
</g>
<!-- Node9&#45;&gt;Node16 -->
<g id="edge26" class="edge">
<title>Node9&#45;&gt;Node16</title>
<path fill="none" stroke="midnightblue" d="M710.82,-184.97C702.63,-182.85 693.76,-180.7 685.5,-179 582.87,-157.84 544.07,-193.95 452.5,-143 423.85,-127.06 415.87,-117.74 404.5,-87 397.65,-68.48 399.15,-45.63 401.58,-29.86"/>
<polygon fill="midnightblue" stroke="midnightblue" points="405.07,-30.24 403.41,-19.78 398.18,-28.99 405.07,-30.24"/>
</g>
<!-- Node19 -->
<g id="node19" class="node">
<title>Node19</title>
<g id="a_node19"><a xlink:title=" ">
<polygon fill="none" stroke="#bfbfbf" points="962,-62 962,-81 1015,-81 1015,-62 962,-62"/>
<text text-anchor="middle" x="988.5" y="-69" font-family="Helvetica,sans-Serif" font-size="10.00">iterator</text>
</a>
</g>
</g>
<!-- Node9&#45;&gt;Node19 -->
<g id="edge29" class="edge">
<title>Node9&#45;&gt;Node19</title>
<path fill="none" stroke="midnightblue" d="M741.11,-184.65C740.98,-169.64 743.04,-139.22 760.5,-123 822.49,-65.38 865.82,-109.17 947.5,-87 950.46,-86.2 953.52,-85.28 956.57,-84.31"/>
<polygon fill="midnightblue" stroke="midnightblue" points="957.77,-87.6 966.13,-81.09 955.54,-80.96 957.77,-87.6"/>
</g>
<!-- Node22 -->
<g id="node22" class="node">
<title>Node22</title>
<g id="a_node22"><a xlink:title=" ">
<polygon fill="none" stroke="#bfbfbf" points="461.5,-123.5 461.5,-142.5 525.5,-142.5 525.5,-123.5 461.5,-123.5"/>
<text text-anchor="middle" x="493.5" y="-130.5" font-family="Helvetica,sans-Serif" font-size="10.00">algorithm</text>
</a>
</g>
</g>
<!-- Node9&#45;&gt;Node22 -->
<g id="edge23" class="edge">
<title>Node9&#45;&gt;Node22</title>
<path fill="none" stroke="midnightblue" d="M708.96,-184.94C701.28,-182.95 693.11,-180.88 685.5,-179 634.08,-166.32 574.71,-152.53 535.76,-143.61"/>
<polygon fill="midnightblue" stroke="midnightblue" points="536.36,-140.15 525.83,-141.34 534.8,-146.98 536.36,-140.15"/>
</g>
<!-- Node23 -->
<g id="node23" class="node">
<title>Node23</title>
<g id="a_node23"><a xlink:title=" ">
<polygon fill="none" stroke="#bfbfbf" points="544,-123.5 544,-142.5 609,-142.5 609,-123.5 544,-123.5"/>
<text text-anchor="middle" x="576.5" y="-130.5" font-family="Helvetica,sans-Serif" font-size="10.00">functional</text>
</a>
</g>
</g>
<!-- Node9&#45;&gt;Node23 -->
<g id="edge27" class="edge">
<title>Node9&#45;&gt;Node23</title>
<path fill="none" stroke="midnightblue" d="M717.86,-184.98C689.56,-174.77 641.97,-157.61 609.91,-146.05"/>
<polygon fill="midnightblue" stroke="midnightblue" points="610.69,-142.61 600.1,-142.51 608.32,-149.19 610.69,-142.61"/>
</g>
<!-- Node24 -->
<g id="node24" class="node">
<title>Node24</title>
<g id="a_node24"><a xlink:title=" ">
<polygon fill="none" stroke="#bfbfbf" points="770,-123.5 770,-142.5 853,-142.5 853,-123.5 770,-123.5"/>
<text text-anchor="middle" x="811.5" y="-130.5" font-family="Helvetica,sans-Serif" font-size="10.00">initializer_list</text>
</a>
</g>
</g>
<!-- Node9&#45;&gt;Node24 -->
<g id="edge28" class="edge">
<title>Node9&#45;&gt;Node24</title>
<path fill="none" stroke="midnightblue" d="M751.53,-184.98C762.55,-175.61 780.46,-160.38 793.84,-149.01"/>
<polygon fill="midnightblue" stroke="midnightblue" points="796.14,-151.65 801.49,-142.51 791.6,-146.32 796.14,-151.65"/>
</g>
<!-- Node25 -->
<g id="node25" class="node">
<title>Node25</title>
<g id="a_node25"><a xlink:title=" ">
<polygon fill="none" stroke="#bfbfbf" points="871.5,-123.5 871.5,-142.5 927.5,-142.5 927.5,-123.5 871.5,-123.5"/>
<text text-anchor="middle" x="899.5" y="-130.5" font-family="Helvetica,sans-Serif" font-size="10.00">numeric</text>
</a>
</g>
</g>
<!-- Node9&#45;&gt;Node25 -->
<g id="edge30" class="edge">
<title>Node9&#45;&gt;Node25</title>
<path fill="none" stroke="midnightblue" d="M764.14,-184.98C791.24,-174.77 836.81,-157.61 867.5,-146.05"/>
<polygon fill="midnightblue" stroke="midnightblue" points="868.78,-149.31 876.9,-142.51 866.31,-142.76 868.78,-149.31"/>
</g>
<!-- Node26 -->
<g id="node26" class="node">
<title>Node26</title>
<g id="a_node26"><a xlink:title=" ">
<polygon fill="none" stroke="#bfbfbf" points="946,-123.5 946,-142.5 1015,-142.5 1015,-123.5 946,-123.5"/>
<text text-anchor="middle" x="980.5" y="-130.5" font-family="Helvetica,sans-Serif" font-size="10.00">type_traits</text>
</a>
</g>
</g>
<!-- Node9&#45;&gt;Node26 -->
<g id="edge31" class="edge">
<title>Node9&#45;&gt;Node26</title>
<path fill="none" stroke="midnightblue" d="M775.74,-184.98C818.07,-174.44 890.18,-156.49 936.55,-144.94"/>
<polygon fill="midnightblue" stroke="midnightblue" points="937.46,-148.32 946.32,-142.51 935.77,-141.53 937.46,-148.32"/>
</g>
<!-- Node27 -->
<g id="node27" class="node">
<title>Node27</title>
<g id="a_node27"><a xlink:title=" ">
<polygon fill="none" stroke="#bfbfbf" points="0,-123.5 0,-142.5 47,-142.5 47,-123.5 0,-123.5"/>
<text text-anchor="middle" x="23.5" y="-130.5" font-family="Helvetica,sans-Serif" font-size="10.00">vector</text>
</a>
</g>
</g>
<!-- Node9&#45;&gt;Node27 -->
<g id="edge32" class="edge">
<title>Node9&#45;&gt;Node27</title>
<path fill="none" stroke="midnightblue" d="M712.95,-184.95C704.22,-182.65 694.53,-180.41 685.5,-179 411.66,-136.15 333.93,-188 57.07,-142.91"/>
<polygon fill="midnightblue" stroke="midnightblue" points="57.57,-139.45 47.14,-141.26 56.43,-146.35 57.57,-139.45"/>
</g>
<!-- Node13 -->
<g id="node13" class="node">
<title>Node13</title>
<g id="a_node13"><a xlink:href="device__qualifier_8hpp.html" target="_top" xlink:title=" ">
<polygon fill="none" stroke="black" points="705.5,-62 705.5,-81 821.5,-81 821.5,-62 705.5,-62"/>
<text text-anchor="middle" x="763.5" y="-69" font-family="Helvetica,sans-Serif" font-size="10.00">device_qualifier.hpp</text>
</a>
</g>
</g>
<!-- Node12&#45;&gt;Node13 -->
<g id="edge12" class="edge">
<title>Node12&#45;&gt;Node13</title>
<path fill="none" stroke="midnightblue" d="M683.82,-123.48C698.88,-113.84 723.62,-98.02 741.54,-86.55"/>
<polygon fill="midnightblue" stroke="midnightblue" points="743.66,-89.35 750.2,-81.01 739.89,-83.45 743.66,-89.35"/>
</g>
<!-- Node12&#45;&gt;Node14 -->
<g id="edge18" class="edge">
<title>Node12&#45;&gt;Node14</title>
<path fill="none" stroke="midnightblue" d="M713.75,-125.44C778.8,-115.34 896.11,-96.22 913.5,-87 927.69,-79.48 957.02,-47.33 974.5,-27.33"/>
<polygon fill="midnightblue" stroke="midnightblue" points="977.29,-29.46 981.19,-19.61 972,-24.88 977.29,-29.46"/>
</g>
<!-- Node15 -->
<g id="node15" class="node">
<title>Node15</title>
<g id="a_node15"><a xlink:href="get_8hpp.html" target="_top" xlink:title=" ">
<polygon fill="none" stroke="black" points="634,-62 634,-81 687,-81 687,-62 634,-62"/>
<text text-anchor="middle" x="660.5" y="-69" font-family="Helvetica,sans-Serif" font-size="10.00">get.hpp</text>
</a>
</g>
</g>
<!-- Node12&#45;&gt;Node15 -->
<g id="edge14" class="edge">
<title>Node12&#45;&gt;Node15</title>
<path fill="none" stroke="midnightblue" d="M669.07,-123.48C667.66,-115.08 665.45,-101.98 663.64,-91.16"/>
<polygon fill="midnightblue" stroke="midnightblue" points="667.04,-90.29 661.93,-81.01 660.14,-91.45 667.04,-90.29"/>
</g>
<!-- Node12&#45;&gt;Node16 -->
<g id="edge19" class="edge">
<title>Node12&#45;&gt;Node16</title>
<path fill="none" stroke="midnightblue" d="M627.48,-124.43C557.46,-112.07 426.36,-88.74 424.5,-87 408.88,-72.35 405.29,-46.96 404.83,-29.59"/>
<polygon fill="midnightblue" stroke="midnightblue" points="408.34,-29.55 404.9,-19.53 401.34,-29.5 408.34,-29.55"/>
</g>
<!-- Node18 -->
<g id="node18" class="node">
<title>Node18</title>
<g id="a_node18"><a xlink:title=" ">
<polygon fill="none" stroke="#bfbfbf" points="434,-56.5 434,-86.5 541,-86.5 541,-56.5 434,-56.5"/>
<text text-anchor="start" x="442" y="-74.5" font-family="Helvetica,sans-Serif" font-size="10.00">boost/serialization</text>
<text text-anchor="middle" x="487.5" y="-63.5" font-family="Helvetica,sans-Serif" font-size="10.00">/access.hpp</text>
</a>
</g>
</g>
<!-- Node12&#45;&gt;Node18 -->
<g id="edge17" class="edge">
<title>Node12&#45;&gt;Node18</title>
<path fill="none" stroke="midnightblue" d="M644.28,-123.48C617.3,-114.7 574.5,-100.79 540.44,-89.71"/>
<polygon fill="midnightblue" stroke="midnightblue" points="541.22,-86.29 530.63,-86.52 539.06,-92.94 541.22,-86.29"/>
</g>
<!-- Node12&#45;&gt;Node19 -->
<g id="edge20" class="edge">
<title>Node12&#45;&gt;Node19</title>
<path fill="none" stroke="midnightblue" d="M713.61,-125.1C790.05,-112.85 941.86,-88.44 947.5,-87 950.55,-86.22 953.69,-85.31 956.81,-84.33"/>
<polygon fill="midnightblue" stroke="midnightblue" points="958.22,-87.55 966.59,-81.06 956,-80.91 958.22,-87.55"/>
</g>
<!-- Node20 -->
<g id="node20" class="node">
<title>Node20</title>
<g id="a_node20"><a xlink:title=" ">
<polygon fill="none" stroke="#bfbfbf" points="559,-62 559,-81 616,-81 616,-62 559,-62"/>
<text text-anchor="middle" x="587.5" y="-69" font-family="Helvetica,sans-Serif" font-size="10.00">ostream</text>
</a>
</g>
</g>
<!-- Node12&#45;&gt;Node20 -->
<g id="edge21" class="edge">
<title>Node12&#45;&gt;Node20</title>
<path fill="none" stroke="midnightblue" d="M658.61,-123.48C645.3,-113.93 623.5,-98.31 607.54,-86.87"/>
<polygon fill="midnightblue" stroke="midnightblue" points="609.54,-83.99 599.37,-81.01 605.46,-89.68 609.54,-83.99"/>
</g>
<!-- Node21 -->
<g id="node21" class="node">
<title>Node21</title>
<g id="a_node21"><a xlink:title=" ">
<polygon fill="none" stroke="#bfbfbf" points="840,-62 840,-81 905,-81 905,-62 840,-62"/>
<text text-anchor="middle" x="872.5" y="-69" font-family="Helvetica,sans-Serif" font-size="10.00">stdexcept</text>
</a>
</g>
</g>
<!-- Node12&#45;&gt;Node21 -->
<g id="edge22" class="edge">
<title>Node12&#45;&gt;Node21</title>
<path fill="none" stroke="midnightblue" d="M702.84,-123.5C735.28,-114.83 786.58,-100.75 830.5,-87 833.26,-86.14 836.11,-85.21 838.97,-84.27"/>
<polygon fill="midnightblue" stroke="midnightblue" points="840.24,-87.54 848.59,-81.02 838,-80.9 840.24,-87.54"/>
</g>
<!-- Node13&#45;&gt;Node14 -->
<g id="edge13" class="edge">
<title>Node13&#45;&gt;Node14</title>
<path fill="none" stroke="midnightblue" d="M795.74,-61.98C837.25,-51 909.18,-31.98 952.46,-20.53"/>
<polygon fill="midnightblue" stroke="midnightblue" points="953.51,-23.87 962.28,-17.93 951.72,-17.11 953.51,-23.87"/>
</g>
<!-- Node15&#45;&gt;Node16 -->
<g id="edge15" class="edge">
<title>Node15&#45;&gt;Node16</title>
<path fill="none" stroke="midnightblue" d="M640.92,-61.87C635.66,-59.76 629.92,-57.63 624.5,-56 561.54,-37.02 486,-23.45 442.1,-16.45"/>
<polygon fill="midnightblue" stroke="midnightblue" points="442.6,-12.98 432.18,-14.89 441.51,-19.9 442.6,-12.98"/>
</g>
<!-- Node17 -->
<g id="node17" class="node">
<title>Node17</title>
<g id="a_node17"><a xlink:title=" ">
<polygon fill="none" stroke="#bfbfbf" points="640,-0.5 640,-19.5 681,-19.5 681,-0.5 640,-0.5"/>
<text text-anchor="middle" x="660.5" y="-7.5" font-family="Helvetica,sans-Serif" font-size="10.00">tuple</text>
</a>
</g>
</g>
<!-- Node15&#45;&gt;Node17 -->
<g id="edge16" class="edge">
<title>Node15&#45;&gt;Node17</title>
<path fill="none" stroke="midnightblue" d="M660.5,-61.98C660.5,-53.58 660.5,-40.48 660.5,-29.66"/>
<polygon fill="midnightblue" stroke="midnightblue" points="664,-29.51 660.5,-19.51 657,-29.51 664,-29.51"/>
</g>
</g>
</svg>
        <g id="navigator" transform="translate(0 0)" fill="#404254">
                <rect fill="#f2f5e9" fill-opacity="0.5" stroke="#606060" stroke-width=".5" x="0" y="0" width="60" height="60"/>
                <use id="zoomplus" xlink:href="#zoomPlus" x="17" y="9" onmousedown="handleZoom(evt,'in')"/>
                <use id="zoomminus" xlink:href="#zoomMin" x="42" y="9" onmousedown="handleZoom(evt,'out')"/>
                <use id="reset" xlink:href="#resetDef" x="30" y="36" onmousedown="handleReset()"/>
                <g id="arrowUp" xlink:href="#dirArrow" transform="translate(30 24)" onmousedown="handlePan(0,-1)">
                  <use xlink:href="#rim" fill="#404040">
                        <set attributeName="fill" to="#808080" begin="arrowUp.mouseover" end="arrowUp.mouseout"/>
                  </use>
                  <path fill="none" stroke="white" stroke-width="1.5" d="M0,-3.0v7 M-2.5,-0.5L0,-3.0L2.5,-0.5"/>
                </g>
                <g id="arrowRight" xlink:href="#dirArrow" transform="rotate(90) translate(36 -43)" onmousedown="handlePan(1,0)">
                  <use xlink:href="#rim" fill="#404040">
                        <set attributeName="fill" to="#808080" begin="arrowRight.mouseover" end="arrowRight.mouseout"/>
                  </use>
                  <path fill="none" stroke="white" stroke-width="1.5" d="M0,-3.0v7 M-2.5,-0.5L0,-3.0L2.5,-0.5"/>
                </g>
                <g id="arrowDown" xlink:href="#dirArrow" transform="rotate(180) translate(-30 -48)" onmousedown="handlePan(0,1)">
                  <use xlink:href="#rim" fill="#404040">
                        <set attributeName="fill" to="#808080" begin="arrowDown.mouseover" end="arrowDown.mouseout"/>
                  </use>
                  <path fill="none" stroke="white" stroke-width="1.5" d="M0,-3.0v7 M-2.5,-0.5L0,-3.0L2.5,-0.5"/>
                </g>
                <g id="arrowLeft" xlink:href="#dirArrow" transform="rotate(270) translate(-36 17)" onmousedown="handlePan(-1,0)">
                  <use xlink:href="#rim" fill="#404040">
                        <set attributeName="fill" to="#808080" begin="arrowLeft.mouseover" end="arrowLeft.mouseout"/>
                  </use>
                  <path fill="none" stroke="white" stroke-width="1.5" d="M0,-3.0v7 M-2.5,-0.5L0,-3.0L2.5,-0.5"/>
                </g>
        </g>
        <svg viewBox="0 0 15 15" width="100%" height="30px" preserveAspectRatio="xMaxYMin meet">
         <g id="arrow_out" transform="scale(0.3 0.3)">
          <a xlink:href="npt_8hpp__incl_org.svg" target="_base">
           <rect id="button" ry="5" rx="5" y="6" x="6" height="38" width="38"
                fill="#f2f5e9" fill-opacity="0.5" stroke="#606060" stroke-width="1.0"/>
           <path id="arrow"
             d="M 11.500037,31.436501 C 11.940474,20.09759 22.043105,11.32322 32.158766,21.979434 L 37.068811,17.246167 C 37.068811,17.246167 37.088388,32 37.088388,32 L 22.160133,31.978069 C 22.160133,31.978069 26.997745,27.140456 26.997745,27.140456 C 18.528582,18.264221 13.291696,25.230495 11.500037,31.436501 z"
             style="fill:#404040;"/>
          </a>
         </g>
        </svg>
</svg>
