<?xml version="1.0" encoding="UTF-8" standalone="no"?>
<!DOCTYPE svg PUBLIC "-//W3C//DTD SVG 1.1//EN"
 "http://www.w3.org/Graphics/SVG/1.1/DTD/svg11.dtd">
<!-- Generated by graphviz version 2.43.0 (0)
 -->
<!-- Title: object_container_mpi_guard.cpp Pages: 1 -->
<!--zoomable 352 -->
<svg id="main" version="1.1" xmlns="http://www.w3.org/2000/svg" xmlns:xlink="http://www.w3.org/1999/xlink" xml:space="preserve" onload="init(evt)">
<style type="text/css"><![CDATA[
.edge:hover path { stroke: red; }
.edge:hover polygon { stroke: red; fill: red; }
]]></style>
<script type="text/javascript"><![CDATA[
var edges = document.getElementsByTagName('g');
if (edges && edges.length) {
  for (var i=0;i<edges.length;i++) {
    if (edges[i].id.substr(0,4)=='edge') {
      edges[i].setAttribute('class','edge');
    }
  }
}
]]></script>
        <defs>
                <circle id="rim" cx="0" cy="0" r="7"/>
                <circle id="rim2" cx="0" cy="0" r="3.5"/>
                <g id="zoomPlus">
                        <use xlink:href="#rim" fill="#404040">
                                <set attributeName="fill" to="#808080" begin="zoomplus.mouseover" end="zoomplus.mouseout"/>
                        </use>
                        <path d="M-4,0h8M0,-4v8" fill="none" stroke="white" stroke-width="1.5" pointer-events="none"/>
                </g>
                <g id="zoomMin">
                        <use xlink:href="#rim" fill="#404040">
                                <set attributeName="fill" to="#808080" begin="zoomminus.mouseover" end="zoomminus.mouseout"/>
                        </use>
                        <path d="M-4,0h8" fill="none" stroke="white" stroke-width="1.5" pointer-events="none"/>
                </g>
                <g id="dirArrow">
                        <path fill="none" stroke="white" stroke-width="1.5" d="M0,-3.0v7 M-2.5,-0.5L0,-3.0L2.5,-0.5"/>
                </g>
               <g id="resetDef">
                       <use xlink:href="#rim2" fill="#404040">
                               <set attributeName="fill" to="#808080" begin="reset.mouseover" end="reset.mouseout"/>
                       </use>
               </g>
        </defs>

<script type="text/javascript">
var viewWidth = 1833;
var viewHeight = 352;
var sectionId = 'dynsection-0';
</script>
<script xlink:href="svgpan.js"/>
<svg id="graph" class="graph">
<g id="viewport">
<title>object_container_mpi_guard.cpp</title>
<!-- Node1 -->
<g id="node1" class="node">
<title>Node1</title>
<g id="a_node1"><a xlink:title=" ">
<polygon fill="#bfbfbf" stroke="black" points="204,-313.5 204,-343.5 326,-343.5 326,-313.5 204,-313.5"/>
<text text-anchor="start" x="212" y="-331.5" font-family="Helvetica,sans-Serif" font-size="10.00">object_container_mpi</text>
<text text-anchor="middle" x="265" y="-320.5" font-family="Helvetica,sans-Serif" font-size="10.00">_guard.cpp</text>
</a>
</g>
</g>
<!-- Node2 -->
<g id="node2" class="node">
<title>Node2</title>
<g id="a_node2"><a xlink:href="object__container__mpi__guard_8hpp.html" target="_top" xlink:title=" ">
<polygon fill="none" stroke="black" points="43,-246.5 43,-276.5 189,-276.5 189,-246.5 43,-246.5"/>
<text text-anchor="start" x="51" y="-264.5" font-family="Helvetica,sans-Serif" font-size="10.00">script_interface/object</text>
<text text-anchor="middle" x="116" y="-253.5" font-family="Helvetica,sans-Serif" font-size="10.00">_container_mpi_guard.hpp</text>
</a>
</g>
</g>
<!-- Node1&#45;&gt;Node2 -->
<g id="edge1" class="edge">
<title>Node1&#45;&gt;Node2</title>
<path fill="none" stroke="midnightblue" d="M232.67,-313.4C210.7,-303.81 181.44,-291.05 157.72,-280.7"/>
<polygon fill="midnightblue" stroke="midnightblue" points="158.83,-277.37 148.27,-276.58 156.03,-283.78 158.83,-277.37"/>
</g>
<!-- Node3 -->
<g id="node3" class="node">
<title>Node3</title>
<g id="a_node3"><a xlink:title=" ">
<polygon fill="none" stroke="#bfbfbf" points="0,-179.5 0,-209.5 106,-209.5 106,-179.5 0,-179.5"/>
<text text-anchor="start" x="8" y="-197.5" font-family="Helvetica,sans-Serif" font-size="10.00">boost/utility/string</text>
<text text-anchor="middle" x="53" y="-186.5" font-family="Helvetica,sans-Serif" font-size="10.00">_ref.hpp</text>
</a>
</g>
</g>
<!-- Node1&#45;&gt;Node3 -->
<g id="edge42" class="edge">
<title>Node1&#45;&gt;Node3</title>
<path fill="none" stroke="midnightblue" d="M204,-322.67C142.89,-316.41 54.98,-303.06 34,-277 20.78,-260.58 28.65,-236.58 37.95,-218.88"/>
<polygon fill="midnightblue" stroke="midnightblue" points="41.23,-220.2 43.14,-209.78 35.15,-216.73 41.23,-220.2"/>
</g>
<!-- Node4 -->
<g id="node4" class="node">
<title>Node4</title>
<g id="a_node4"><a xlink:title=" ">
<polygon fill="none" stroke="#bfbfbf" points="684.5,-0.5 684.5,-19.5 737.5,-19.5 737.5,-0.5 684.5,-0.5"/>
<text text-anchor="middle" x="711" y="-7.5" font-family="Helvetica,sans-Serif" font-size="10.00">cstddef</text>
</a>
</g>
</g>
<!-- Node1&#45;&gt;Node4 -->
<g id="edge43" class="edge">
<title>Node1&#45;&gt;Node4</title>
<path fill="none" stroke="midnightblue" d="M256.22,-313.39C234.28,-276.18 182.17,-173.96 230,-112 284.51,-41.38 570.88,-18.74 673.97,-12.82"/>
<polygon fill="midnightblue" stroke="midnightblue" points="674.42,-16.3 684.21,-12.25 674.03,-9.31 674.42,-16.3"/>
</g>
<!-- Node5 -->
<g id="node5" class="node">
<title>Node5</title>
<g id="a_node5"><a xlink:href="communication_8hpp.html" target="_top" xlink:title=" ">
<polygon fill="none" stroke="black" points="250.5,-252 250.5,-271 387.5,-271 387.5,-252 250.5,-252"/>
<text text-anchor="middle" x="319" y="-259" font-family="Helvetica,sans-Serif" font-size="10.00">core/communication.hpp</text>
</a>
</g>
</g>
<!-- Node1&#45;&gt;Node5 -->
<g id="edge4" class="edge">
<title>Node1&#45;&gt;Node5</title>
<path fill="none" stroke="midnightblue" d="M276.72,-313.4C285.14,-303.26 296.51,-289.57 305.34,-278.94"/>
<polygon fill="midnightblue" stroke="midnightblue" points="308.08,-281.12 311.78,-271.19 302.69,-276.65 308.08,-281.12"/>
</g>
<!-- Node28 -->
<g id="node28" class="node">
<title>Node28</title>
<g id="a_node28"><a xlink:title=" ">
<polygon fill="none" stroke="#bfbfbf" points="406,-252 406,-271 462,-271 462,-252 406,-252"/>
<text text-anchor="middle" x="434" y="-259" font-family="Helvetica,sans-Serif" font-size="10.00">sstream</text>
</a>
</g>
</g>
<!-- Node1&#45;&gt;Node28 -->
<g id="edge44" class="edge">
<title>Node1&#45;&gt;Node28</title>
<path fill="none" stroke="midnightblue" d="M301.67,-313.4C331.72,-301.84 373.79,-285.66 402.38,-274.66"/>
<polygon fill="midnightblue" stroke="midnightblue" points="403.8,-277.86 411.88,-271.01 401.29,-271.33 403.8,-277.86"/>
</g>
<!-- Node29 -->
<g id="node29" class="node">
<title>Node29</title>
<g id="a_node29"><a xlink:title=" ">
<polygon fill="none" stroke="#bfbfbf" points="480.5,-252 480.5,-271 545.5,-271 545.5,-252 480.5,-252"/>
<text text-anchor="middle" x="513" y="-259" font-family="Helvetica,sans-Serif" font-size="10.00">stdexcept</text>
</a>
</g>
</g>
<!-- Node1&#45;&gt;Node29 -->
<g id="edge45" class="edge">
<title>Node1&#45;&gt;Node29</title>
<path fill="none" stroke="midnightblue" d="M326.24,-314.04C367.42,-304.61 422.78,-291.2 471,-277 473.94,-276.13 476.98,-275.19 480.01,-274.21"/>
<polygon fill="midnightblue" stroke="midnightblue" points="481.2,-277.5 489.58,-271.01 478.98,-270.86 481.2,-277.5"/>
</g>
<!-- Node2&#45;&gt;Node3 -->
<g id="edge2" class="edge">
<title>Node2&#45;&gt;Node3</title>
<path fill="none" stroke="midnightblue" d="M102.33,-246.4C93.99,-237.79 83.17,-226.63 73.78,-216.94"/>
<polygon fill="midnightblue" stroke="midnightblue" points="76.12,-214.32 66.64,-209.58 71.09,-219.19 76.12,-214.32"/>
</g>
<!-- Node2&#45;&gt;Node4 -->
<g id="edge3" class="edge">
<title>Node2&#45;&gt;Node4</title>
<path fill="none" stroke="midnightblue" d="M116.78,-246.36C119.71,-208.3 133.47,-103.35 197,-56 235.09,-27.61 563.06,-15.37 674.29,-12.01"/>
<polygon fill="midnightblue" stroke="midnightblue" points="674.46,-15.51 684.36,-11.71 674.26,-8.51 674.46,-15.51"/>
</g>
<!-- Node6 -->
<g id="node6" class="node">
<title>Node6</title>
<g id="a_node6"><a xlink:href="MpiCallbacks_8hpp.html" target="_top" xlink:title=" ">
<polygon fill="none" stroke="black" points="936.5,-185 936.5,-204 1039.5,-204 1039.5,-185 936.5,-185"/>
<text text-anchor="middle" x="988" y="-192" font-family="Helvetica,sans-Serif" font-size="10.00">MpiCallbacks.hpp</text>
</a>
</g>
</g>
<!-- Node5&#45;&gt;Node6 -->
<g id="edge5" class="edge">
<title>Node5&#45;&gt;Node6</title>
<path fill="none" stroke="midnightblue" d="M360.57,-251.99C372.31,-249.8 385.13,-247.61 397,-246 589.28,-219.98 818.68,-204.9 926.39,-198.76"/>
<polygon fill="midnightblue" stroke="midnightblue" points="926.64,-202.25 936.43,-198.19 926.25,-195.26 926.64,-202.25"/>
</g>
<!-- Node18 -->
<g id="node18" class="node">
<title>Node18</title>
<g id="a_node18"><a xlink:title=" ">
<polygon fill="none" stroke="#bfbfbf" points="723.5,-56.5 723.5,-75.5 768.5,-75.5 768.5,-56.5 723.5,-56.5"/>
<text text-anchor="middle" x="746" y="-63.5" font-family="Helvetica,sans-Serif" font-size="10.00">utility</text>
</a>
</g>
</g>
<!-- Node5&#45;&gt;Node18 -->
<g id="edge41" class="edge">
<title>Node5&#45;&gt;Node18</title>
<path fill="none" stroke="midnightblue" d="M363.25,-251.96C431.85,-237.35 566.36,-203.15 666,-143 692.54,-126.98 717.48,-100.85 732.25,-83.79"/>
<polygon fill="midnightblue" stroke="midnightblue" points="735.23,-85.7 739,-75.8 729.88,-81.18 735.23,-85.7"/>
</g>
<!-- Node21 -->
<g id="node21" class="node">
<title>Node21</title>
<g id="a_node21"><a xlink:title=" ">
<polygon fill="none" stroke="#bfbfbf" points="239,-118 239,-137 399,-137 399,-118 239,-118"/>
<text text-anchor="middle" x="319" y="-125" font-family="Helvetica,sans-Serif" font-size="10.00">boost/mpi/communicator.hpp</text>
</a>
</g>
</g>
<!-- Node5&#45;&gt;Node21 -->
<g id="edge39" class="edge">
<title>Node5&#45;&gt;Node21</title>
<path fill="none" stroke="midnightblue" d="M319,-251.84C319,-230.67 319,-175.95 319,-147.03"/>
<polygon fill="midnightblue" stroke="midnightblue" points="322.5,-147.02 319,-137.02 315.5,-147.02 322.5,-147.02"/>
</g>
<!-- Node26 -->
<g id="node26" class="node">
<title>Node26</title>
<g id="a_node26"><a xlink:title=" ">
<polygon fill="none" stroke="#bfbfbf" points="417,-118 417,-137 475,-137 475,-118 417,-118"/>
<text text-anchor="middle" x="446" y="-125" font-family="Helvetica,sans-Serif" font-size="10.00">memory</text>
</a>
</g>
</g>
<!-- Node5&#45;&gt;Node26 -->
<g id="edge40" class="edge">
<title>Node5&#45;&gt;Node26</title>
<path fill="none" stroke="midnightblue" d="M327.33,-251.84C348.33,-230.02 403.64,-172.53 430.68,-144.42"/>
<polygon fill="midnightblue" stroke="midnightblue" points="433.39,-146.65 437.8,-137.02 428.35,-141.8 433.39,-146.65"/>
</g>
<!-- Node7 -->
<g id="node7" class="node">
<title>Node7</title>
<g id="a_node7"><a xlink:href="NumeratedContainer_8hpp.html" target="_top" xlink:title=" ">
<polygon fill="none" stroke="black" points="493,-118 493,-137 657,-137 657,-118 493,-118"/>
<text text-anchor="middle" x="575" y="-125" font-family="Helvetica,sans-Serif" font-size="10.00">utils/NumeratedContainer.hpp</text>
</a>
</g>
</g>
<!-- Node6&#45;&gt;Node7 -->
<g id="edge6" class="edge">
<title>Node6&#45;&gt;Node7</title>
<path fill="none" stroke="midnightblue" d="M936.11,-185.33C860.72,-173.47 721,-151.48 639.22,-138.61"/>
<polygon fill="midnightblue" stroke="midnightblue" points="639.72,-135.14 629.3,-137.05 638.63,-142.06 639.72,-135.14"/>
</g>
<!-- Node8 -->
<g id="node8" class="node">
<title>Node8</title>
<g id="a_node8"><a xlink:title=" ">
<polygon fill="none" stroke="#bfbfbf" points="653,-56.5 653,-75.5 705,-75.5 705,-56.5 653,-56.5"/>
<text text-anchor="middle" x="679" y="-63.5" font-family="Helvetica,sans-Serif" font-size="10.00">cassert</text>
</a>
</g>
</g>
<!-- Node6&#45;&gt;Node8 -->
<g id="edge31" class="edge">
<title>Node6&#45;&gt;Node8</title>
<path fill="none" stroke="midnightblue" d="M936.16,-192.55C883.99,-189.46 802.89,-178.66 743,-143 718.99,-128.7 699.74,-102.07 688.84,-84.43"/>
<polygon fill="midnightblue" stroke="midnightblue" points="691.77,-82.52 683.66,-75.7 685.75,-86.09 691.77,-82.52"/>
</g>
<!-- Node11 -->
<g id="node11" class="node">
<title>Node11</title>
<g id="a_node11"><a xlink:href="as__const_8hpp.html" target="_top" xlink:title=" ">
<polygon fill="none" stroke="black" points="1352,-56.5 1352,-75.5 1456,-75.5 1456,-56.5 1352,-56.5"/>
<text text-anchor="middle" x="1404" y="-63.5" font-family="Helvetica,sans-Serif" font-size="10.00">utils/as_const.hpp</text>
</a>
</g>
</g>
<!-- Node6&#45;&gt;Node11 -->
<g id="edge11" class="edge">
<title>Node6&#45;&gt;Node11</title>
<path fill="none" stroke="midnightblue" d="M1039.59,-190.46C1124.08,-184.77 1287.61,-170.5 1338,-143 1362.85,-129.44 1382.68,-102.61 1393.89,-84.73"/>
<polygon fill="midnightblue" stroke="midnightblue" points="1397.07,-86.24 1399.21,-75.86 1391.07,-82.64 1397.07,-86.24"/>
</g>
<!-- Node12 -->
<g id="node12" class="node">
<title>Node12</title>
<g id="a_node12"><a xlink:title=" ">
<polygon fill="none" stroke="#bfbfbf" points="1233.5,-0.5 1233.5,-19.5 1302.5,-19.5 1302.5,-0.5 1233.5,-0.5"/>
<text text-anchor="middle" x="1268" y="-7.5" font-family="Helvetica,sans-Serif" font-size="10.00">type_traits</text>
</a>
</g>
</g>
<!-- Node6&#45;&gt;Node12 -->
<g id="edge36" class="edge">
<title>Node6&#45;&gt;Node12</title>
<path fill="none" stroke="midnightblue" d="M1039.58,-193.06C1120.48,-191.15 1271.49,-182.27 1305,-143 1333.73,-109.33 1301.19,-54.92 1281.24,-27.67"/>
<polygon fill="midnightblue" stroke="midnightblue" points="1283.9,-25.38 1275.06,-19.54 1278.33,-29.62 1283.9,-25.38"/>
</g>
<!-- Node13 -->
<g id="node13" class="node">
<title>Node13</title>
<g id="a_node13"><a xlink:href="tuple_8hpp.html" target="_top" xlink:title=" ">
<polygon fill="none" stroke="black" points="855,-118 855,-137 941,-137 941,-118 855,-118"/>
<text text-anchor="middle" x="898" y="-125" font-family="Helvetica,sans-Serif" font-size="10.00">utils/tuple.hpp</text>
</a>
</g>
</g>
<!-- Node6&#45;&gt;Node13 -->
<g id="edge13" class="edge">
<title>Node6&#45;&gt;Node13</title>
<path fill="none" stroke="midnightblue" d="M975.86,-184.73C961.15,-174.11 936.14,-156.05 918.44,-143.26"/>
<polygon fill="midnightblue" stroke="midnightblue" points="920.1,-140.14 909.95,-137.13 916,-145.82 920.1,-140.14"/>
</g>
<!-- Node15 -->
<g id="node15" class="node">
<title>Node15</title>
<g id="a_node15"><a xlink:title=" ">
<polygon fill="none" stroke="#bfbfbf" points="910.5,-0.5 910.5,-19.5 951.5,-19.5 951.5,-0.5 910.5,-0.5"/>
<text text-anchor="middle" x="931" y="-7.5" font-family="Helvetica,sans-Serif" font-size="10.00">tuple</text>
</a>
</g>
</g>
<!-- Node6&#45;&gt;Node15 -->
<g id="edge35" class="edge">
<title>Node6&#45;&gt;Node15</title>
<path fill="none" stroke="midnightblue" d="M985.25,-184.7C976.47,-156.57 948.95,-68.46 936.83,-29.66"/>
<polygon fill="midnightblue" stroke="midnightblue" points="940.04,-28.22 933.72,-19.71 933.36,-30.3 940.04,-28.22"/>
</g>
<!-- Node16 -->
<g id="node16" class="node">
<title>Node16</title>
<g id="a_node16"><a xlink:href="type__traits_8hpp.html" target="_top" xlink:title=" ">
<polygon fill="none" stroke="black" points="997,-56.5 997,-75.5 1111,-75.5 1111,-56.5 997,-56.5"/>
<text text-anchor="middle" x="1054" y="-63.5" font-family="Helvetica,sans-Serif" font-size="10.00">utils/type_traits.hpp</text>
</a>
</g>
</g>
<!-- Node6&#45;&gt;Node16 -->
<g id="edge25" class="edge">
<title>Node6&#45;&gt;Node16</title>
<path fill="none" stroke="midnightblue" d="M991.84,-184.8C998.55,-169.75 1013.03,-137.97 1027,-112 1031.96,-102.77 1037.91,-92.75 1042.97,-84.52"/>
<polygon fill="midnightblue" stroke="midnightblue" points="1046.06,-86.16 1048.37,-75.82 1040.12,-82.47 1046.06,-86.16"/>
</g>
<!-- Node6&#45;&gt;Node18 -->
<g id="edge37" class="edge">
<title>Node6&#45;&gt;Node18</title>
<path fill="none" stroke="midnightblue" d="M953.89,-184.93C924.22,-176.66 880.65,-162.52 846,-143 827.01,-132.3 825.27,-125.3 808,-112 794.43,-101.55 778.83,-90.23 766.67,-81.56"/>
<polygon fill="midnightblue" stroke="midnightblue" points="768.68,-78.7 758.5,-75.76 764.63,-84.4 768.68,-78.7"/>
</g>
<!-- Node19 -->
<g id="node19" class="node">
<title>Node19</title>
<g id="a_node19"><a xlink:title=" ">
<polygon fill="none" stroke="#bfbfbf" points="1035.5,-112.5 1035.5,-142.5 1156.5,-142.5 1156.5,-112.5 1035.5,-112.5"/>
<text text-anchor="start" x="1043.5" y="-130.5" font-family="Helvetica,sans-Serif" font-size="10.00">boost/mpi/collectives</text>
<text text-anchor="middle" x="1096" y="-119.5" font-family="Helvetica,sans-Serif" font-size="10.00">/all_reduce.hpp</text>
</a>
</g>
</g>
<!-- Node6&#45;&gt;Node19 -->
<g id="edge26" class="edge">
<title>Node6&#45;&gt;Node19</title>
<path fill="none" stroke="midnightblue" d="M1002.57,-184.73C1018.21,-175.32 1043.58,-160.05 1063.93,-147.8"/>
<polygon fill="midnightblue" stroke="midnightblue" points="1065.83,-150.74 1072.59,-142.59 1062.22,-144.75 1065.83,-150.74"/>
</g>
<!-- Node20 -->
<g id="node20" class="node">
<title>Node20</title>
<g id="a_node20"><a xlink:title=" ">
<polygon fill="none" stroke="#bfbfbf" points="1174.5,-112.5 1174.5,-142.5 1295.5,-142.5 1295.5,-112.5 1174.5,-112.5"/>
<text text-anchor="start" x="1182.5" y="-130.5" font-family="Helvetica,sans-Serif" font-size="10.00">boost/mpi/collectives</text>
<text text-anchor="middle" x="1235" y="-119.5" font-family="Helvetica,sans-Serif" font-size="10.00">/broadcast.hpp</text>
</a>
</g>
</g>
<!-- Node6&#45;&gt;Node20 -->
<g id="edge27" class="edge">
<title>Node6&#45;&gt;Node20</title>
<path fill="none" stroke="midnightblue" d="M1020.54,-184.94C1058.9,-174.84 1123.53,-157.83 1171.84,-145.12"/>
<polygon fill="midnightblue" stroke="midnightblue" points="1172.8,-148.49 1181.58,-142.56 1171.01,-141.72 1172.8,-148.49"/>
</g>
<!-- Node6&#45;&gt;Node21 -->
<g id="edge28" class="edge">
<title>Node6&#45;&gt;Node21</title>
<path fill="none" stroke="midnightblue" d="M936.27,-190.3C834.73,-183.72 602.33,-167.26 408,-143 398.1,-141.76 387.61,-140.24 377.44,-138.66"/>
<polygon fill="midnightblue" stroke="midnightblue" points="377.83,-135.18 367.41,-137.06 376.73,-142.09 377.83,-135.18"/>
</g>
<!-- Node22 -->
<g id="node22" class="node">
<title>Node22</title>
<g id="a_node22"><a xlink:title=" ">
<polygon fill="none" stroke="#bfbfbf" points="1390.5,-118 1390.5,-137 1497.5,-137 1497.5,-118 1390.5,-118"/>
<text text-anchor="middle" x="1444" y="-125" font-family="Helvetica,sans-Serif" font-size="10.00">boost/optional.hpp</text>
</a>
</g>
</g>
<!-- Node6&#45;&gt;Node22 -->
<g id="edge29" class="edge">
<title>Node6&#45;&gt;Node22</title>
<path fill="none" stroke="midnightblue" d="M1039.66,-188.12C1114.21,-180.05 1256.15,-163.54 1376,-143 1382.71,-141.85 1389.77,-140.5 1396.7,-139.1"/>
<polygon fill="midnightblue" stroke="midnightblue" points="1397.61,-142.48 1406.69,-137.02 1396.19,-135.63 1397.61,-142.48"/>
</g>
<!-- Node23 -->
<g id="node23" class="node">
<title>Node23</title>
<g id="a_node23"><a xlink:title=" ">
<polygon fill="none" stroke="#bfbfbf" points="1515.5,-112.5 1515.5,-142.5 1640.5,-142.5 1640.5,-112.5 1515.5,-112.5"/>
<text text-anchor="start" x="1523.5" y="-130.5" font-family="Helvetica,sans-Serif" font-size="10.00">boost/range/algorithm</text>
<text text-anchor="middle" x="1578" y="-119.5" font-family="Helvetica,sans-Serif" font-size="10.00">/remove_if.hpp</text>
</a>
</g>
</g>
<!-- Node6&#45;&gt;Node23 -->
<g id="edge30" class="edge">
<title>Node6&#45;&gt;Node23</title>
<path fill="none" stroke="midnightblue" d="M1039.79,-190.26C1131.67,-184.12 1329.39,-169.14 1505.39,-143.15"/>
<polygon fill="midnightblue" stroke="midnightblue" points="1505.97,-146.6 1515.34,-141.67 1504.94,-139.68 1505.97,-146.6"/>
</g>
<!-- Node24 -->
<g id="node24" class="node">
<title>Node24</title>
<g id="a_node24"><a xlink:title=" ">
<polygon fill="none" stroke="#bfbfbf" points="1658.5,-118 1658.5,-137 1723.5,-137 1723.5,-118 1658.5,-118"/>
<text text-anchor="middle" x="1691" y="-125" font-family="Helvetica,sans-Serif" font-size="10.00">functional</text>
</a>
</g>
</g>
<!-- Node6&#45;&gt;Node24 -->
<g id="edge32" class="edge">
<title>Node6&#45;&gt;Node24</title>
<path fill="none" stroke="midnightblue" d="M1039.73,-194.16C1152.11,-194.58 1426.42,-190.2 1650,-143 1653.43,-142.28 1656.96,-141.34 1660.45,-140.29"/>
<polygon fill="midnightblue" stroke="midnightblue" points="1661.63,-143.58 1670.03,-137.11 1659.43,-136.94 1661.63,-143.58"/>
</g>
<!-- Node25 -->
<g id="node25" class="node">
<title>Node25</title>
<g id="a_node25"><a xlink:title=" ">
<polygon fill="none" stroke="#bfbfbf" points="1741.5,-118 1741.5,-137 1824.5,-137 1824.5,-118 1741.5,-118"/>
<text text-anchor="middle" x="1783" y="-125" font-family="Helvetica,sans-Serif" font-size="10.00">initializer_list</text>
</a>
</g>
</g>
<!-- Node6&#45;&gt;Node25 -->
<g id="edge33" class="edge">
<title>Node6&#45;&gt;Node25</title>
<path fill="none" stroke="midnightblue" d="M1039.94,-193.79C1161.92,-193.65 1475.77,-188.47 1733,-143 1737.81,-142.15 1742.82,-141.01 1747.72,-139.75"/>
<polygon fill="midnightblue" stroke="midnightblue" points="1748.85,-143.07 1757.56,-137.02 1746.98,-136.32 1748.85,-143.07"/>
</g>
<!-- Node6&#45;&gt;Node26 -->
<g id="edge34" class="edge">
<title>Node6&#45;&gt;Node26</title>
<path fill="none" stroke="midnightblue" d="M936.47,-192.81C844.42,-190.59 646.17,-181.35 484,-143 481,-142.29 477.93,-141.4 474.88,-140.42"/>
<polygon fill="midnightblue" stroke="midnightblue" points="476.01,-137.1 465.41,-137.04 473.65,-143.7 476.01,-137.1"/>
</g>
<!-- Node27 -->
<g id="node27" class="node">
<title>Node27</title>
<g id="a_node27"><a xlink:title=" ">
<polygon fill="none" stroke="#bfbfbf" points="751.5,-118 751.5,-137 798.5,-137 798.5,-118 751.5,-118"/>
<text text-anchor="middle" x="775" y="-125" font-family="Helvetica,sans-Serif" font-size="10.00">vector</text>
</a>
</g>
</g>
<!-- Node6&#45;&gt;Node27 -->
<g id="edge38" class="edge">
<title>Node6&#45;&gt;Node27</title>
<path fill="none" stroke="midnightblue" d="M955.5,-184.99C920.17,-175.55 862.18,-159.45 813,-143 810.74,-142.24 808.42,-141.44 806.08,-140.6"/>
<polygon fill="midnightblue" stroke="midnightblue" points="807.18,-137.28 796.59,-137.1 804.76,-143.84 807.18,-137.28"/>
</g>
<!-- Node7&#45;&gt;Node4 -->
<g id="edge8" class="edge">
<title>Node7&#45;&gt;Node4</title>
<path fill="none" stroke="midnightblue" d="M582.55,-117.69C594.73,-103.76 619.77,-76.15 644,-56 657.83,-44.5 674.64,-33.22 687.96,-24.82"/>
<polygon fill="midnightblue" stroke="midnightblue" points="689.88,-27.75 696.54,-19.51 686.2,-21.8 689.88,-27.75"/>
</g>
<!-- Node7&#45;&gt;Node8 -->
<g id="edge7" class="edge">
<title>Node7&#45;&gt;Node8</title>
<path fill="none" stroke="midnightblue" d="M589.9,-117.98C606.97,-108.21 635.16,-92.08 655.26,-80.58"/>
<polygon fill="midnightblue" stroke="midnightblue" points="657.19,-83.51 664.13,-75.51 653.71,-77.44 657.19,-83.51"/>
</g>
<!-- Node9 -->
<g id="node9" class="node">
<title>Node9</title>
<g id="a_node9"><a xlink:title=" ">
<polygon fill="none" stroke="#bfbfbf" points="453,-56.5 453,-75.5 485,-75.5 485,-56.5 453,-56.5"/>
<text text-anchor="middle" x="469" y="-63.5" font-family="Helvetica,sans-Serif" font-size="10.00">set</text>
</a>
</g>
</g>
<!-- Node7&#45;&gt;Node9 -->
<g id="edge9" class="edge">
<title>Node7&#45;&gt;Node9</title>
<path fill="none" stroke="midnightblue" d="M559.81,-117.98C542.34,-108.17 513.42,-91.93 492.92,-80.42"/>
<polygon fill="midnightblue" stroke="midnightblue" points="494.59,-77.35 484.16,-75.51 491.17,-83.46 494.59,-77.35"/>
</g>
<!-- Node10 -->
<g id="node10" class="node">
<title>Node10</title>
<g id="a_node10"><a xlink:title=" ">
<polygon fill="none" stroke="#bfbfbf" points="503.5,-56.5 503.5,-75.5 596.5,-75.5 596.5,-56.5 503.5,-56.5"/>
<text text-anchor="middle" x="550" y="-63.5" font-family="Helvetica,sans-Serif" font-size="10.00">unordered_map</text>
</a>
</g>
</g>
<!-- Node7&#45;&gt;Node10 -->
<g id="edge10" class="edge">
<title>Node7&#45;&gt;Node10</title>
<path fill="none" stroke="midnightblue" d="M571.42,-117.98C567.82,-109.4 562.15,-95.93 557.56,-84.98"/>
<polygon fill="midnightblue" stroke="midnightblue" points="560.68,-83.37 553.58,-75.51 554.22,-86.08 560.68,-83.37"/>
</g>
<!-- Node11&#45;&gt;Node12 -->
<g id="edge12" class="edge">
<title>Node11&#45;&gt;Node12</title>
<path fill="none" stroke="midnightblue" d="M1382.45,-56.44C1359.97,-47.52 1324.51,-33.44 1299.02,-23.32"/>
<polygon fill="midnightblue" stroke="midnightblue" points="1300.03,-19.95 1289.45,-19.52 1297.45,-26.46 1300.03,-19.95"/>
</g>
<!-- Node13&#45;&gt;Node4 -->
<g id="edge21" class="edge">
<title>Node13&#45;&gt;Node4</title>
<path fill="none" stroke="midnightblue" d="M883.94,-117.82C851.78,-97.95 772.6,-49.05 733.54,-24.92"/>
<polygon fill="midnightblue" stroke="midnightblue" points="735.31,-21.9 724.96,-19.62 731.63,-27.86 735.31,-21.9"/>
</g>
<!-- Node13&#45;&gt;Node12 -->
<g id="edge23" class="edge">
<title>Node13&#45;&gt;Node12</title>
<path fill="none" stroke="midnightblue" d="M941.22,-119.19C986.44,-110.96 1059.19,-96.07 1120,-76 1164.06,-61.46 1212.93,-38.59 1242.03,-24.22"/>
<polygon fill="midnightblue" stroke="midnightblue" points="1243.71,-27.29 1251.1,-19.69 1240.59,-21.02 1243.71,-27.29"/>
</g>
<!-- Node14 -->
<g id="node14" class="node">
<title>Node14</title>
<g id="a_node14"><a xlink:href="get_8hpp.html" target="_top" xlink:title=" ">
<polygon fill="none" stroke="black" points="825.5,-56.5 825.5,-75.5 902.5,-75.5 902.5,-56.5 825.5,-56.5"/>
<text text-anchor="middle" x="864" y="-63.5" font-family="Helvetica,sans-Serif" font-size="10.00">utils/get.hpp</text>
</a>
</g>
</g>
<!-- Node13&#45;&gt;Node14 -->
<g id="edge14" class="edge">
<title>Node13&#45;&gt;Node14</title>
<path fill="none" stroke="midnightblue" d="M893.13,-117.98C888.13,-109.23 880.21,-95.37 873.89,-84.31"/>
<polygon fill="midnightblue" stroke="midnightblue" points="876.86,-82.46 868.86,-75.51 870.78,-85.93 876.86,-82.46"/>
</g>
<!-- Node13&#45;&gt;Node15 -->
<g id="edge22" class="edge">
<title>Node13&#45;&gt;Node15</title>
<path fill="none" stroke="midnightblue" d="M900.48,-117.82C905.81,-99.17 918.44,-54.94 925.68,-29.63"/>
<polygon fill="midnightblue" stroke="midnightblue" points="929.11,-30.36 928.49,-19.78 922.38,-28.44 929.11,-30.36"/>
</g>
<!-- Node13&#45;&gt;Node16 -->
<g id="edge17" class="edge">
<title>Node13&#45;&gt;Node16</title>
<path fill="none" stroke="midnightblue" d="M920.35,-117.98C946.99,-107.81 991.71,-90.76 1022.01,-79.2"/>
<polygon fill="midnightblue" stroke="midnightblue" points="1023.59,-82.34 1031.69,-75.51 1021.1,-75.8 1023.59,-82.34"/>
</g>
<!-- Node13&#45;&gt;Node18 -->
<g id="edge24" class="edge">
<title>Node13&#45;&gt;Node18</title>
<path fill="none" stroke="midnightblue" d="M876.22,-117.98C850.26,-107.81 806.69,-90.76 777.17,-79.2"/>
<polygon fill="midnightblue" stroke="midnightblue" points="778.33,-75.9 767.74,-75.51 775.77,-82.41 778.33,-75.9"/>
</g>
<!-- Node14&#45;&gt;Node4 -->
<g id="edge15" class="edge">
<title>Node14&#45;&gt;Node4</title>
<path fill="none" stroke="midnightblue" d="M839.76,-56.44C814.13,-47.4 773.51,-33.06 744.76,-22.92"/>
<polygon fill="midnightblue" stroke="midnightblue" points="745.72,-19.54 735.13,-19.52 743.39,-26.15 745.72,-19.54"/>
</g>
<!-- Node14&#45;&gt;Node15 -->
<g id="edge16" class="edge">
<title>Node14&#45;&gt;Node15</title>
<path fill="none" stroke="midnightblue" d="M874.76,-56.32C884.77,-48.26 899.89,-36.08 911.93,-26.37"/>
<polygon fill="midnightblue" stroke="midnightblue" points="914.45,-28.83 920.04,-19.83 910.06,-23.38 914.45,-28.83"/>
</g>
<!-- Node16&#45;&gt;Node4 -->
<g id="edge19" class="edge">
<title>Node16&#45;&gt;Node4</title>
<path fill="none" stroke="midnightblue" d="M999.65,-56.44C929.26,-45.36 808.44,-26.34 747.87,-16.81"/>
<polygon fill="midnightblue" stroke="midnightblue" points="748.06,-13.29 737.64,-15.19 746.98,-20.21 748.06,-13.29"/>
</g>
<!-- Node16&#45;&gt;Node12 -->
<g id="edge20" class="edge">
<title>Node16&#45;&gt;Node12</title>
<path fill="none" stroke="midnightblue" d="M1087.91,-56.44C1124.85,-47.12 1184.05,-32.18 1224.42,-22"/>
<polygon fill="midnightblue" stroke="midnightblue" points="1225.41,-25.36 1234.25,-19.52 1223.7,-18.57 1225.41,-25.36"/>
</g>
<!-- Node17 -->
<g id="node17" class="node">
<title>Node17</title>
<g id="a_node17"><a xlink:title=" ">
<polygon fill="none" stroke="#bfbfbf" points="1029,-0.5 1029,-19.5 1079,-19.5 1079,-0.5 1029,-0.5"/>
<text text-anchor="middle" x="1054" y="-7.5" font-family="Helvetica,sans-Serif" font-size="10.00">climits</text>
</a>
</g>
</g>
<!-- Node16&#45;&gt;Node17 -->
<g id="edge18" class="edge">
<title>Node16&#45;&gt;Node17</title>
<path fill="none" stroke="midnightblue" d="M1054,-56.08C1054,-49.01 1054,-38.86 1054,-29.99"/>
<polygon fill="midnightblue" stroke="midnightblue" points="1057.5,-29.75 1054,-19.75 1050.5,-29.75 1057.5,-29.75"/>
</g>
</g>
</svg>
        <g id="navigator" transform="translate(0 0)" fill="#404254">
                <rect fill="#f2f5e9" fill-opacity="0.5" stroke="#606060" stroke-width=".5" x="0" y="0" width="60" height="60"/>
                <use id="zoomplus" xlink:href="#zoomPlus" x="17" y="9" onmousedown="handleZoom(evt,'in')"/>
                <use id="zoomminus" xlink:href="#zoomMin" x="42" y="9" onmousedown="handleZoom(evt,'out')"/>
                <use id="reset" xlink:href="#resetDef" x="30" y="36" onmousedown="handleReset()"/>
                <g id="arrowUp" xlink:href="#dirArrow" transform="translate(30 24)" onmousedown="handlePan(0,-1)">
                  <use xlink:href="#rim" fill="#404040">
                        <set attributeName="fill" to="#808080" begin="arrowUp.mouseover" end="arrowUp.mouseout"/>
                  </use>
                  <path fill="none" stroke="white" stroke-width="1.5" d="M0,-3.0v7 M-2.5,-0.5L0,-3.0L2.5,-0.5"/>
                </g>
                <g id="arrowRight" xlink:href="#dirArrow" transform="rotate(90) translate(36 -43)" onmousedown="handlePan(1,0)">
                  <use xlink:href="#rim" fill="#404040">
                        <set attributeName="fill" to="#808080" begin="arrowRight.mouseover" end="arrowRight.mouseout"/>
                  </use>
                  <path fill="none" stroke="white" stroke-width="1.5" d="M0,-3.0v7 M-2.5,-0.5L0,-3.0L2.5,-0.5"/>
                </g>
                <g id="arrowDown" xlink:href="#dirArrow" transform="rotate(180) translate(-30 -48)" onmousedown="handlePan(0,1)">
                  <use xlink:href="#rim" fill="#404040">
                        <set attributeName="fill" to="#808080" begin="arrowDown.mouseover" end="arrowDown.mouseout"/>
                  </use>
                  <path fill="none" stroke="white" stroke-width="1.5" d="M0,-3.0v7 M-2.5,-0.5L0,-3.0L2.5,-0.5"/>
                </g>
                <g id="arrowLeft" xlink:href="#dirArrow" transform="rotate(270) translate(-36 17)" onmousedown="handlePan(-1,0)">
                  <use xlink:href="#rim" fill="#404040">
                        <set attributeName="fill" to="#808080" begin="arrowLeft.mouseover" end="arrowLeft.mouseout"/>
                  </use>
                  <path fill="none" stroke="white" stroke-width="1.5" d="M0,-3.0v7 M-2.5,-0.5L0,-3.0L2.5,-0.5"/>
                </g>
        </g>
        <svg viewBox="0 0 15 15" width="100%" height="30px" preserveAspectRatio="xMaxYMin meet">
         <g id="arrow_out" transform="scale(0.3 0.3)">
          <a xlink:href="object__container__mpi__guard_8cpp__incl_org.svg" target="_base">
           <rect id="button" ry="5" rx="5" y="6" x="6" height="38" width="38"
                fill="#f2f5e9" fill-opacity="0.5" stroke="#606060" stroke-width="1.0"/>
           <path id="arrow"
             d="M 11.500037,31.436501 C 11.940474,20.09759 22.043105,11.32322 32.158766,21.979434 L 37.068811,17.246167 C 37.068811,17.246167 37.088388,32 37.088388,32 L 22.160133,31.978069 C 22.160133,31.978069 26.997745,27.140456 26.997745,27.140456 C 18.528582,18.264221 13.291696,25.230495 11.500037,31.436501 z"
             style="fill:#404040;"/>
          </a>
         </g>
        </svg>
</svg>
