<?xml version="1.0" encoding="UTF-8" standalone="no"?>
<!DOCTYPE svg PUBLIC "-//W3C//DTD SVG 1.1//EN"
 "http://www.w3.org/Graphics/SVG/1.1/DTD/svg11.dtd">
<!-- Generated by graphviz version 2.43.0 (0)
 -->
<!-- Title: object_container_mpi_guard.hpp Pages: 1 -->
<svg width="495pt" height="218pt"
 viewBox="0.00 0.00 494.50 218.00" xmlns="http://www.w3.org/2000/svg" xmlns:xlink="http://www.w3.org/1999/xlink">
<g id="graph0" class="graph" transform="scale(1 1) rotate(0) translate(4 214)">
<title>object_container_mpi_guard.hpp</title>
<!-- Node1 -->
<g id="node1" class="node">
<title>Node1</title>
<g id="a_node1"><a xlink:title=" ">
<polygon fill="#bfbfbf" stroke="black" points="163,-179.5 163,-209.5 285,-209.5 285,-179.5 163,-179.5"/>
<text text-anchor="start" x="171" y="-197.5" font-family="Helvetica,sans-Serif" font-size="10.00">object_container_mpi</text>
<text text-anchor="middle" x="224" y="-186.5" font-family="Helvetica,sans-Serif" font-size="10.00">_guard.hpp</text>
</a>
</g>
</g>
<!-- Node2 -->
<g id="node2" class="node">
<title>Node2</title>
<g id="a_node2"><a xlink:href="object__container__mpi__guard_8cpp.html" target="_top" xlink:title=" ">
<polygon fill="none" stroke="black" points="102,-112.5 102,-142.5 224,-142.5 224,-112.5 102,-112.5"/>
<text text-anchor="start" x="110" y="-130.5" font-family="Helvetica,sans-Serif" font-size="10.00">object_container_mpi</text>
<text text-anchor="middle" x="163" y="-119.5" font-family="Helvetica,sans-Serif" font-size="10.00">_guard.cpp</text>
</a>
</g>
</g>
<!-- Node1&#45;&gt;Node2 -->
<g id="edge1" class="edge">
<title>Node1&#45;&gt;Node2</title>
<path fill="none" stroke="midnightblue" d="M203.85,-172.02C194.76,-162.34 184.28,-151.17 176.21,-142.58"/>
<polygon fill="midnightblue" stroke="midnightblue" points="201.37,-174.5 210.76,-179.4 206.47,-169.71 201.37,-174.5"/>
</g>
<!-- Node3 -->
<g id="node3" class="node">
<title>Node3</title>
<g id="a_node3"><a xlink:href="ObjectList_8hpp.html" target="_top" xlink:title=" ">
<polygon fill="none" stroke="black" points="242,-118 242,-137 328,-137 328,-118 242,-118"/>
<text text-anchor="middle" x="285" y="-125" font-family="Helvetica,sans-Serif" font-size="10.00">ObjectList.hpp</text>
</a>
</g>
</g>
<!-- Node1&#45;&gt;Node3 -->
<g id="edge2" class="edge">
<title>Node1&#45;&gt;Node3</title>
<path fill="none" stroke="midnightblue" d="M244.18,-172C255.31,-160.13 268.53,-146.05 276.84,-137.19"/>
<polygon fill="midnightblue" stroke="midnightblue" points="241.53,-169.71 237.24,-179.4 246.63,-174.5 241.53,-169.71"/>
</g>
<!-- Node4 -->
<g id="node4" class="node">
<title>Node4</title>
<g id="a_node4"><a xlink:href="AutoUpdateAccumulators_8hpp.html" target="_top" xlink:title=" ">
<polygon fill="none" stroke="black" points="0,-56.5 0,-75.5 162,-75.5 162,-56.5 0,-56.5"/>
<text text-anchor="middle" x="81" y="-63.5" font-family="Helvetica,sans-Serif" font-size="10.00">AutoUpdateAccumulators.hpp</text>
</a>
</g>
</g>
<!-- Node3&#45;&gt;Node4 -->
<g id="edge3" class="edge">
<title>Node3&#45;&gt;Node4</title>
<path fill="none" stroke="midnightblue" d="M245.92,-115.1C206.28,-103.54 145.82,-85.91 110.17,-75.51"/>
<polygon fill="midnightblue" stroke="midnightblue" points="245.19,-118.54 255.77,-117.98 247.15,-111.82 245.19,-118.54"/>
</g>
<!-- Node6 -->
<g id="node6" class="node">
<title>Node6</title>
<g id="a_node6"><a xlink:href="script__interface_2constraints_2Constraints_8hpp.html" target="_top" xlink:title=" ">
<polygon fill="none" stroke="black" points="180.5,-56.5 180.5,-75.5 273.5,-75.5 273.5,-56.5 180.5,-56.5"/>
<text text-anchor="middle" x="227" y="-63.5" font-family="Helvetica,sans-Serif" font-size="10.00">Constraints.hpp</text>
</a>
</g>
</g>
<!-- Node3&#45;&gt;Node6 -->
<g id="edge5" class="edge">
<title>Node3&#45;&gt;Node6</title>
<path fill="none" stroke="midnightblue" d="M269.4,-110.5C258.42,-99.24 244.16,-84.6 235.29,-75.51"/>
<polygon fill="midnightblue" stroke="midnightblue" points="267.2,-113.26 276.69,-117.98 272.22,-108.37 267.2,-113.26"/>
</g>
<!-- Node8 -->
<g id="node8" class="node">
<title>Node8</title>
<g id="a_node8"><a xlink:href="LBBoundaries_8hpp.html" target="_top" xlink:title=" ">
<polygon fill="none" stroke="black" points="292,-56.5 292,-75.5 396,-75.5 396,-56.5 292,-56.5"/>
<text text-anchor="middle" x="344" y="-63.5" font-family="Helvetica,sans-Serif" font-size="10.00">LBBoundaries.hpp</text>
</a>
</g>
</g>
<!-- Node3&#45;&gt;Node8 -->
<g id="edge7" class="edge">
<title>Node3&#45;&gt;Node8</title>
<path fill="none" stroke="midnightblue" d="M300.54,-110.82C311.75,-99.52 326.46,-84.69 335.56,-75.51"/>
<polygon fill="midnightblue" stroke="midnightblue" points="298.01,-108.41 293.45,-117.98 302.98,-113.34 298.01,-108.41"/>
</g>
<!-- Node10 -->
<g id="node10" class="node">
<title>Node10</title>
<g id="a_node10"><a xlink:href="script__interface_2shapes_2Union_8hpp.html" target="_top" xlink:title=" ">
<polygon fill="none" stroke="black" points="414,-56.5 414,-75.5 480,-75.5 480,-56.5 414,-56.5"/>
<text text-anchor="middle" x="447" y="-63.5" font-family="Helvetica,sans-Serif" font-size="10.00">Union.hpp</text>
</a>
</g>
</g>
<!-- Node3&#45;&gt;Node10 -->
<g id="edge9" class="edge">
<title>Node3&#45;&gt;Node10</title>
<path fill="none" stroke="midnightblue" d="M317.85,-114.43C349.34,-102.87 396.06,-85.71 423.83,-75.51"/>
<polygon fill="midnightblue" stroke="midnightblue" points="316.39,-111.24 308.21,-117.98 318.8,-117.81 316.39,-111.24"/>
</g>
<!-- Node5 -->
<g id="node5" class="node">
<title>Node5</title>
<g id="a_node5"><a xlink:href="accumulators_2initialize_8cpp.html" target="_top" xlink:title=" ">
<polygon fill="none" stroke="black" points="41.5,-0.5 41.5,-19.5 120.5,-19.5 120.5,-0.5 41.5,-0.5"/>
<text text-anchor="middle" x="81" y="-7.5" font-family="Helvetica,sans-Serif" font-size="10.00">initialize.cpp</text>
</a>
</g>
</g>
<!-- Node4&#45;&gt;Node5 -->
<g id="edge4" class="edge">
<title>Node4&#45;&gt;Node5</title>
<path fill="none" stroke="midnightblue" d="M81,-45.8C81,-36.91 81,-26.78 81,-19.75"/>
<polygon fill="midnightblue" stroke="midnightblue" points="77.5,-46.08 81,-56.08 84.5,-46.08 77.5,-46.08"/>
</g>
<!-- Node7 -->
<g id="node7" class="node">
<title>Node7</title>
<g id="a_node7"><a xlink:href="constraints_2initialize_8cpp.html" target="_top" xlink:title=" ">
<polygon fill="none" stroke="black" points="187.5,-0.5 187.5,-19.5 266.5,-19.5 266.5,-0.5 187.5,-0.5"/>
<text text-anchor="middle" x="227" y="-7.5" font-family="Helvetica,sans-Serif" font-size="10.00">initialize.cpp</text>
</a>
</g>
</g>
<!-- Node6&#45;&gt;Node7 -->
<g id="edge6" class="edge">
<title>Node6&#45;&gt;Node7</title>
<path fill="none" stroke="midnightblue" d="M227,-45.8C227,-36.91 227,-26.78 227,-19.75"/>
<polygon fill="midnightblue" stroke="midnightblue" points="223.5,-46.08 227,-56.08 230.5,-46.08 223.5,-46.08"/>
</g>
<!-- Node9 -->
<g id="node9" class="node">
<title>Node9</title>
<g id="a_node9"><a xlink:href="lbboundaries_2initialize_8cpp.html" target="_top" xlink:title=" ">
<polygon fill="none" stroke="black" points="304.5,-0.5 304.5,-19.5 383.5,-19.5 383.5,-0.5 304.5,-0.5"/>
<text text-anchor="middle" x="344" y="-7.5" font-family="Helvetica,sans-Serif" font-size="10.00">initialize.cpp</text>
</a>
</g>
</g>
<!-- Node8&#45;&gt;Node9 -->
<g id="edge8" class="edge">
<title>Node8&#45;&gt;Node9</title>
<path fill="none" stroke="midnightblue" d="M344,-45.8C344,-36.91 344,-26.78 344,-19.75"/>
<polygon fill="midnightblue" stroke="midnightblue" points="340.5,-46.08 344,-56.08 347.5,-46.08 340.5,-46.08"/>
</g>
<!-- Node11 -->
<g id="node11" class="node">
<title>Node11</title>
<g id="a_node11"><a xlink:href="shapes_2initialize_8cpp.html" target="_top" xlink:title=" ">
<polygon fill="none" stroke="black" points="407.5,-0.5 407.5,-19.5 486.5,-19.5 486.5,-0.5 407.5,-0.5"/>
<text text-anchor="middle" x="447" y="-7.5" font-family="Helvetica,sans-Serif" font-size="10.00">initialize.cpp</text>
</a>
</g>
</g>
<!-- Node10&#45;&gt;Node11 -->
<g id="edge10" class="edge">
<title>Node10&#45;&gt;Node11</title>
<path fill="none" stroke="midnightblue" d="M447,-45.8C447,-36.91 447,-26.78 447,-19.75"/>
<polygon fill="midnightblue" stroke="midnightblue" points="443.5,-46.08 447,-56.08 450.5,-46.08 443.5,-46.08"/>
</g>
</g>
</svg>
