<?xml version="1.0" encoding="UTF-8" standalone="no"?>
<!DOCTYPE svg PUBLIC "-//W3C//DTD SVG 1.1//EN"
 "http://www.w3.org/Graphics/SVG/1.1/DTD/svg11.dtd">
<!-- Generated by graphviz version 2.43.0 (0)
 -->
<!-- Title: ObjectHandle.hpp Pages: 1 -->
<!--zoomable 341 -->
<svg id="main" version="1.1" xmlns="http://www.w3.org/2000/svg" xmlns:xlink="http://www.w3.org/1999/xlink" xml:space="preserve" onload="init(evt)">
<style type="text/css"><![CDATA[
.edge:hover path { stroke: red; }
.edge:hover polygon { stroke: red; fill: red; }
]]></style>
<script type="text/javascript"><![CDATA[
var edges = document.getElementsByTagName('g');
if (edges && edges.length) {
  for (var i=0;i<edges.length;i++) {
    if (edges[i].id.substr(0,4)=='edge') {
      edges[i].setAttribute('class','edge');
    }
  }
}
]]></script>
        <defs>
                <circle id="rim" cx="0" cy="0" r="7"/>
                <circle id="rim2" cx="0" cy="0" r="3.5"/>
                <g id="zoomPlus">
                        <use xlink:href="#rim" fill="#404040">
                                <set attributeName="fill" to="#808080" begin="zoomplus.mouseover" end="zoomplus.mouseout"/>
                        </use>
                        <path d="M-4,0h8M0,-4v8" fill="none" stroke="white" stroke-width="1.5" pointer-events="none"/>
                </g>
                <g id="zoomMin">
                        <use xlink:href="#rim" fill="#404040">
                                <set attributeName="fill" to="#808080" begin="zoomminus.mouseover" end="zoomminus.mouseout"/>
                        </use>
                        <path d="M-4,0h8" fill="none" stroke="white" stroke-width="1.5" pointer-events="none"/>
                </g>
                <g id="dirArrow">
                        <path fill="none" stroke="white" stroke-width="1.5" d="M0,-3.0v7 M-2.5,-0.5L0,-3.0L2.5,-0.5"/>
                </g>
               <g id="resetDef">
                       <use xlink:href="#rim2" fill="#404040">
                               <set attributeName="fill" to="#808080" begin="reset.mouseover" end="reset.mouseout"/>
                       </use>
               </g>
        </defs>

<script type="text/javascript">
var viewWidth = 2682;
var viewHeight = 341;
var sectionId = 'dynsection-0';
</script>
<script xlink:href="svgpan.js"/>
<svg id="graph" class="graph">
<g id="viewport">
<title>ObjectHandle.hpp</title>
<!-- Node1 -->
<g id="node1" class="node">
<title>Node1</title>
<g id="a_node1"><a xlink:title=" ">
<polygon fill="#bfbfbf" stroke="black" points="2437.75,-313.5 2437.75,-332.5 2541.75,-332.5 2541.75,-313.5 2437.75,-313.5"/>
<text text-anchor="middle" x="2489.75" y="-320.5" font-family="Helvetica,sans-Serif" font-size="10.00">ObjectHandle.hpp</text>
</a>
</g>
</g>
<!-- Node2 -->
<g id="node2" class="node">
<title>Node2</title>
<g id="a_node2"><a xlink:href="Variant_8hpp.html" target="_top" xlink:title=" ">
<polygon fill="none" stroke="black" points="1662.25,-252 1662.25,-271 1735.25,-271 1735.25,-252 1662.25,-252"/>
<text text-anchor="middle" x="1698.75" y="-259" font-family="Helvetica,sans-Serif" font-size="10.00">Variant.hpp</text>
</a>
</g>
</g>
<!-- Node1&#45;&gt;Node2 -->
<g id="edge1" class="edge">
<title>Node1&#45;&gt;Node2</title>
<path fill="none" stroke="midnightblue" d="M2437.54,-318.07C2292.21,-307.14 1884.55,-276.48 1745.73,-266.03"/>
<polygon fill="midnightblue" stroke="midnightblue" points="1745.67,-262.52 1735.43,-265.26 1745.14,-269.5 1745.67,-262.52"/>
</g>
<!-- Node32 -->
<g id="node32" class="node">
<title>Node32</title>
<g id="a_node32"><a xlink:title=" ">
<polygon fill="none" stroke="#bfbfbf" points="2391.75,-185 2391.75,-204 2449.75,-204 2449.75,-185 2391.75,-185"/>
<text text-anchor="middle" x="2420.75" y="-192" font-family="Helvetica,sans-Serif" font-size="10.00">memory</text>
</a>
</g>
</g>
<!-- Node1&#45;&gt;Node32 -->
<g id="edge52" class="edge">
<title>Node1&#45;&gt;Node32</title>
<path fill="none" stroke="midnightblue" d="M2485,-313.31C2473.78,-292.72 2445.39,-240.69 2430.39,-213.18"/>
<polygon fill="midnightblue" stroke="midnightblue" points="2433.38,-211.36 2425.52,-204.26 2427.24,-214.71 2433.38,-211.36"/>
</g>
<!-- Node33 -->
<g id="node33" class="node">
<title>Node33</title>
<g id="a_node33"><a xlink:title=" ">
<polygon fill="none" stroke="#bfbfbf" points="2467.75,-185 2467.75,-204 2511.75,-204 2511.75,-185 2467.75,-185"/>
<text text-anchor="middle" x="2489.75" y="-192" font-family="Helvetica,sans-Serif" font-size="10.00">string</text>
</a>
</g>
</g>
<!-- Node1&#45;&gt;Node33 -->
<g id="edge53" class="edge">
<title>Node1&#45;&gt;Node33</title>
<path fill="none" stroke="midnightblue" d="M2489.75,-313.31C2489.75,-292.99 2489.75,-242.05 2489.75,-214.28"/>
<polygon fill="midnightblue" stroke="midnightblue" points="2493.25,-214.26 2489.75,-204.26 2486.25,-214.26 2493.25,-214.26"/>
</g>
<!-- Node35 -->
<g id="node35" class="node">
<title>Node35</title>
<g id="a_node35"><a xlink:href="Span_8hpp.html" target="_top" xlink:title=" ">
<polygon fill="none" stroke="black" points="1270.75,-123.5 1270.75,-142.5 1356.75,-142.5 1356.75,-123.5 1270.75,-123.5"/>
<text text-anchor="middle" x="1313.75" y="-130.5" font-family="Helvetica,sans-Serif" font-size="10.00">utils/Span.hpp</text>
</a>
</g>
</g>
<!-- Node1&#45;&gt;Node35 -->
<g id="edge44" class="edge">
<title>Node1&#45;&gt;Node35</title>
<path fill="none" stroke="midnightblue" d="M2496.22,-313.18C2513.61,-288.35 2557.58,-217.23 2520.75,-179 2480.2,-136.91 1594.82,-134 1366.88,-133.95"/>
<polygon fill="midnightblue" stroke="midnightblue" points="1366.84,-130.45 1356.84,-133.95 1366.84,-137.45 1366.84,-130.45"/>
</g>
<!-- Node36 -->
<g id="node36" class="node">
<title>Node36</title>
<g id="a_node36"><a xlink:title=" ">
<polygon fill="none" stroke="#bfbfbf" points="2567.75,-246.5 2567.75,-276.5 2673.75,-276.5 2673.75,-246.5 2567.75,-246.5"/>
<text text-anchor="start" x="2575.75" y="-264.5" font-family="Helvetica,sans-Serif" font-size="10.00">boost/utility/string</text>
<text text-anchor="middle" x="2620.75" y="-253.5" font-family="Helvetica,sans-Serif" font-size="10.00">_ref.hpp</text>
</a>
</g>
</g>
<!-- Node1&#45;&gt;Node36 -->
<g id="edge51" class="edge">
<title>Node1&#45;&gt;Node36</title>
<path fill="none" stroke="midnightblue" d="M2508.51,-313.48C2527.25,-304.96 2556.63,-291.62 2580.64,-280.72"/>
<polygon fill="midnightblue" stroke="midnightblue" points="2582.21,-283.85 2589.87,-276.52 2579.32,-277.47 2582.21,-283.85"/>
</g>
<!-- Node3 -->
<g id="node3" class="node">
<title>Node3</title>
<g id="a_node3"><a xlink:href="None_8hpp.html" target="_top" xlink:title=" ">
<polygon fill="none" stroke="black" points="37.25,-123.5 37.25,-142.5 100.25,-142.5 100.25,-123.5 37.25,-123.5"/>
<text text-anchor="middle" x="68.75" y="-130.5" font-family="Helvetica,sans-Serif" font-size="10.00">None.hpp</text>
</a>
</g>
</g>
<!-- Node2&#45;&gt;Node3 -->
<g id="edge2" class="edge">
<title>Node2&#45;&gt;Node3</title>
<path fill="none" stroke="midnightblue" d="M1662.01,-260.13C1432.97,-257.71 208.05,-243.27 136.75,-210 110.36,-197.69 89.82,-169.83 78.49,-151.48"/>
<polygon fill="midnightblue" stroke="midnightblue" points="81.39,-149.5 73.3,-142.66 75.35,-153.05 81.39,-149.5"/>
</g>
<!-- Node5 -->
<g id="node5" class="node">
<title>Node5</title>
<g id="a_node5"><a xlink:title=" ">
<polygon fill="none" stroke="#bfbfbf" points="183.25,-0.5 183.25,-19.5 236.25,-19.5 236.25,-0.5 183.25,-0.5"/>
<text text-anchor="middle" x="209.75" y="-7.5" font-family="Helvetica,sans-Serif" font-size="10.00">cstddef</text>
</a>
</g>
</g>
<!-- Node2&#45;&gt;Node5 -->
<g id="edge38" class="edge">
<title>Node2&#45;&gt;Node5</title>
<path fill="none" stroke="midnightblue" d="M1662.19,-260.47C1442,-259.95 298.13,-252 192.75,-143 162.99,-112.23 185.2,-56.87 199.75,-28.62"/>
<polygon fill="midnightblue" stroke="midnightblue" points="202.98,-30 204.65,-19.54 196.82,-26.68 202.98,-30"/>
</g>
<!-- Node6 -->
<g id="node6" class="node">
<title>Node6</title>
<g id="a_node6"><a xlink:href="Vector_8hpp.html" target="_top" xlink:title=" ">
<polygon fill="none" stroke="black" points="745.25,-185 745.25,-204 838.25,-204 838.25,-185 745.25,-185"/>
<text text-anchor="middle" x="791.75" y="-192" font-family="Helvetica,sans-Serif" font-size="10.00">utils/Vector.hpp</text>
</a>
</g>
</g>
<!-- Node2&#45;&gt;Node6 -->
<g id="edge5" class="edge">
<title>Node2&#45;&gt;Node6</title>
<path fill="none" stroke="midnightblue" d="M1662.07,-257.87C1521.76,-247.82 1018.45,-211.75 848.36,-199.56"/>
<polygon fill="midnightblue" stroke="midnightblue" points="848.59,-196.06 838.36,-198.84 848.09,-203.05 848.59,-196.06"/>
</g>
<!-- Node22 -->
<g id="node22" class="node">
<title>Node22</title>
<g id="a_node22"><a xlink:title=" ">
<polygon fill="none" stroke="#bfbfbf" points="1178.25,-62 1178.25,-81 1247.25,-81 1247.25,-62 1178.25,-62"/>
<text text-anchor="middle" x="1212.75" y="-69" font-family="Helvetica,sans-Serif" font-size="10.00">type_traits</text>
</a>
</g>
</g>
<!-- Node2&#45;&gt;Node22 -->
<g id="edge41" class="edge">
<title>Node2&#45;&gt;Node22</title>
<path fill="none" stroke="midnightblue" d="M1662.23,-258.77C1560.42,-253.63 1278.83,-237.07 1247.75,-210 1243.2,-206.04 1225.14,-127.74 1216.89,-91.11"/>
<polygon fill="midnightblue" stroke="midnightblue" points="1220.28,-90.19 1214.67,-81.2 1213.45,-91.73 1220.28,-90.19"/>
</g>
<!-- Node23 -->
<g id="node23" class="node">
<title>Node23</title>
<g id="a_node23"><a xlink:title=" ">
<polygon fill="none" stroke="#bfbfbf" points="1167.25,-123.5 1167.25,-142.5 1214.25,-142.5 1214.25,-123.5 1167.25,-123.5"/>
<text text-anchor="middle" x="1190.75" y="-130.5" font-family="Helvetica,sans-Serif" font-size="10.00">vector</text>
</a>
</g>
</g>
<!-- Node2&#45;&gt;Node23 -->
<g id="edge43" class="edge">
<title>Node2&#45;&gt;Node23</title>
<path fill="none" stroke="midnightblue" d="M1661.96,-258.96C1554.96,-254.17 1249.23,-238.14 1214.75,-210 1197.78,-196.16 1192.62,-170.39 1191.15,-152.72"/>
<polygon fill="midnightblue" stroke="midnightblue" points="1194.65,-152.53 1190.64,-142.73 1187.65,-152.89 1194.65,-152.53"/>
</g>
<!-- Node24 -->
<g id="node24" class="node">
<title>Node24</title>
<g id="a_node24"><a xlink:title=" ">
<polygon fill="none" stroke="#bfbfbf" points="1256.75,-185 1256.75,-204 1358.75,-204 1358.75,-185 1256.75,-185"/>
<text text-anchor="middle" x="1307.75" y="-192" font-family="Helvetica,sans-Serif" font-size="10.00">boost/variant.hpp</text>
</a>
</g>
</g>
<!-- Node2&#45;&gt;Node24 -->
<g id="edge30" class="edge">
<title>Node2&#45;&gt;Node24</title>
<path fill="none" stroke="midnightblue" d="M1661.83,-255.92C1600.5,-248.07 1473.83,-230.87 1367.75,-210 1362.29,-208.93 1356.58,-207.69 1350.95,-206.41"/>
<polygon fill="midnightblue" stroke="midnightblue" points="1351.49,-202.94 1340.96,-204.06 1349.89,-209.76 1351.49,-202.94"/>
</g>
<!-- Node25 -->
<g id="node25" class="node">
<title>Node25</title>
<g id="a_node25"><a xlink:title=" ">
<polygon fill="none" stroke="#bfbfbf" points="1377.25,-179.5 1377.25,-209.5 1484.25,-209.5 1484.25,-179.5 1377.25,-179.5"/>
<text text-anchor="start" x="1385.25" y="-197.5" font-family="Helvetica,sans-Serif" font-size="10.00">boost/serialization</text>
<text text-anchor="middle" x="1430.75" y="-186.5" font-family="Helvetica,sans-Serif" font-size="10.00">/version.hpp</text>
</a>
</g>
</g>
<!-- Node2&#45;&gt;Node25 -->
<g id="edge31" class="edge">
<title>Node2&#45;&gt;Node25</title>
<path fill="none" stroke="midnightblue" d="M1663.43,-251.94C1620.57,-241.54 1547.48,-223.81 1494.63,-211"/>
<polygon fill="midnightblue" stroke="midnightblue" points="1495.23,-207.54 1484.68,-208.58 1493.58,-214.34 1495.23,-207.54"/>
</g>
<!-- Node26 -->
<g id="node26" class="node">
<title>Node26</title>
<g id="a_node26"><a xlink:title=" ">
<polygon fill="none" stroke="#bfbfbf" points="1502.25,-179.5 1502.25,-209.5 1627.25,-209.5 1627.25,-179.5 1502.25,-179.5"/>
<text text-anchor="start" x="1510.25" y="-197.5" font-family="Helvetica,sans-Serif" font-size="10.00">boost/range/algorithm</text>
<text text-anchor="middle" x="1564.75" y="-186.5" font-family="Helvetica,sans-Serif" font-size="10.00">/transform.hpp</text>
</a>
</g>
</g>
<!-- Node2&#45;&gt;Node26 -->
<g id="edge32" class="edge">
<title>Node2&#45;&gt;Node26</title>
<path fill="none" stroke="midnightblue" d="M1680.95,-251.87C1661.11,-242.24 1628.42,-226.39 1602.76,-213.94"/>
<polygon fill="midnightblue" stroke="midnightblue" points="1604.19,-210.74 1593.66,-209.53 1601.13,-217.04 1604.19,-210.74"/>
</g>
<!-- Node27 -->
<g id="node27" class="node">
<title>Node27</title>
<g id="a_node27"><a xlink:title=" ">
<polygon fill="none" stroke="#bfbfbf" points="1645.25,-179.5 1645.25,-209.5 1752.25,-209.5 1752.25,-179.5 1645.25,-179.5"/>
<text text-anchor="start" x="1653.25" y="-197.5" font-family="Helvetica,sans-Serif" font-size="10.00">boost/serialization</text>
<text text-anchor="middle" x="1698.75" y="-186.5" font-family="Helvetica,sans-Serif" font-size="10.00">/serialization.hpp</text>
</a>
</g>
</g>
<!-- Node2&#45;&gt;Node27 -->
<g id="edge33" class="edge">
<title>Node2&#45;&gt;Node27</title>
<path fill="none" stroke="midnightblue" d="M1698.75,-251.73C1698.75,-243.54 1698.75,-230.92 1698.75,-219.71"/>
<polygon fill="midnightblue" stroke="midnightblue" points="1702.25,-219.59 1698.75,-209.59 1695.25,-219.59 1702.25,-219.59"/>
</g>
<!-- Node28 -->
<g id="node28" class="node">
<title>Node28</title>
<g id="a_node28"><a xlink:title=" ">
<polygon fill="none" stroke="#bfbfbf" points="1770.25,-179.5 1770.25,-209.5 1877.25,-209.5 1877.25,-179.5 1770.25,-179.5"/>
<text text-anchor="start" x="1778.25" y="-197.5" font-family="Helvetica,sans-Serif" font-size="10.00">boost/serialization</text>
<text text-anchor="middle" x="1823.75" y="-186.5" font-family="Helvetica,sans-Serif" font-size="10.00">/string.hpp</text>
</a>
</g>
</g>
<!-- Node2&#45;&gt;Node28 -->
<g id="edge34" class="edge">
<title>Node2&#45;&gt;Node28</title>
<path fill="none" stroke="midnightblue" d="M1715.34,-251.87C1733.64,-242.36 1763.62,-226.77 1787.42,-214.39"/>
<polygon fill="midnightblue" stroke="midnightblue" points="1789.27,-217.37 1796.53,-209.65 1786.04,-211.16 1789.27,-217.37"/>
</g>
<!-- Node29 -->
<g id="node29" class="node">
<title>Node29</title>
<g id="a_node29"><a xlink:title=" ">
<polygon fill="none" stroke="#bfbfbf" points="1895.25,-179.5 1895.25,-209.5 2012.25,-209.5 2012.25,-179.5 1895.25,-179.5"/>
<text text-anchor="start" x="1903.25" y="-197.5" font-family="Helvetica,sans-Serif" font-size="10.00">boost/serialization</text>
<text text-anchor="middle" x="1953.75" y="-186.5" font-family="Helvetica,sans-Serif" font-size="10.00">/unordered_map.hpp</text>
</a>
</g>
</g>
<!-- Node2&#45;&gt;Node29 -->
<g id="edge35" class="edge">
<title>Node2&#45;&gt;Node29</title>
<path fill="none" stroke="midnightblue" d="M1732.34,-251.94C1772.03,-241.82 1838.95,-224.76 1888.85,-212.04"/>
<polygon fill="midnightblue" stroke="midnightblue" points="1889.76,-215.42 1898.59,-209.56 1888.04,-208.64 1889.76,-215.42"/>
</g>
<!-- Node30 -->
<g id="node30" class="node">
<title>Node30</title>
<g id="a_node30"><a xlink:title=" ">
<polygon fill="none" stroke="#bfbfbf" points="2030.25,-179.5 2030.25,-209.5 2137.25,-209.5 2137.25,-179.5 2030.25,-179.5"/>
<text text-anchor="start" x="2038.25" y="-197.5" font-family="Helvetica,sans-Serif" font-size="10.00">boost/serialization</text>
<text text-anchor="middle" x="2083.75" y="-186.5" font-family="Helvetica,sans-Serif" font-size="10.00">/variant.hpp</text>
</a>
</g>
</g>
<!-- Node2&#45;&gt;Node30 -->
<g id="edge36" class="edge">
<title>Node2&#45;&gt;Node30</title>
<path fill="none" stroke="midnightblue" d="M1735.59,-255.58C1793.82,-247.63 1910.85,-230.88 2020.3,-210"/>
<polygon fill="midnightblue" stroke="midnightblue" points="2021.03,-213.42 2030.18,-208.1 2019.7,-206.55 2021.03,-213.42"/>
</g>
<!-- Node31 -->
<g id="node31" class="node">
<title>Node31</title>
<g id="a_node31"><a xlink:title=" ">
<polygon fill="none" stroke="#bfbfbf" points="2155.25,-179.5 2155.25,-209.5 2262.25,-209.5 2262.25,-179.5 2155.25,-179.5"/>
<text text-anchor="start" x="2163.25" y="-197.5" font-family="Helvetica,sans-Serif" font-size="10.00">boost/serialization</text>
<text text-anchor="middle" x="2208.75" y="-186.5" font-family="Helvetica,sans-Serif" font-size="10.00">/vector.hpp</text>
</a>
</g>
</g>
<!-- Node2&#45;&gt;Node31 -->
<g id="edge37" class="edge">
<title>Node2&#45;&gt;Node31</title>
<path fill="none" stroke="midnightblue" d="M1735.45,-257.78C1810.5,-251.9 1987.04,-236.51 2145.3,-209.94"/>
<polygon fill="midnightblue" stroke="midnightblue" points="2145.94,-213.38 2155.21,-208.26 2144.77,-206.48 2145.94,-213.38"/>
</g>
<!-- Node2&#45;&gt;Node32 -->
<g id="edge39" class="edge">
<title>Node2&#45;&gt;Node32</title>
<path fill="none" stroke="midnightblue" d="M1735.65,-259.14C1859.08,-254.39 2256.72,-237.29 2381.75,-210 2384.82,-209.33 2387.98,-208.47 2391.11,-207.5"/>
<polygon fill="midnightblue" stroke="midnightblue" points="2392.52,-210.71 2400.83,-204.13 2390.23,-204.09 2392.52,-210.71"/>
</g>
<!-- Node2&#45;&gt;Node33 -->
<g id="edge40" class="edge">
<title>Node2&#45;&gt;Node33</title>
<path fill="none" stroke="midnightblue" d="M1735.69,-259.85C1868.26,-257.23 2319.48,-245.85 2458.75,-210 2460.73,-209.49 2462.74,-208.85 2464.74,-208.13"/>
<polygon fill="midnightblue" stroke="midnightblue" points="2466.55,-211.17 2474.4,-204.05 2463.82,-204.72 2466.55,-211.17"/>
</g>
<!-- Node34 -->
<g id="node34" class="node">
<title>Node34</title>
<g id="a_node34"><a xlink:title=" ">
<polygon fill="none" stroke="#bfbfbf" points="2280.25,-185 2280.25,-204 2373.25,-204 2373.25,-185 2280.25,-185"/>
<text text-anchor="middle" x="2326.75" y="-192" font-family="Helvetica,sans-Serif" font-size="10.00">unordered_map</text>
</a>
</g>
</g>
<!-- Node2&#45;&gt;Node34 -->
<g id="edge42" class="edge">
<title>Node2&#45;&gt;Node34</title>
<path fill="none" stroke="midnightblue" d="M1735.49,-259.36C1826.7,-256.08 2070.58,-244.51 2270.75,-210 2276.25,-209.05 2282.01,-207.83 2287.65,-206.5"/>
<polygon fill="midnightblue" stroke="midnightblue" points="2288.73,-209.84 2297.59,-204.02 2287.04,-203.04 2288.73,-209.84"/>
</g>
<!-- Node4 -->
<g id="node4" class="node">
<title>Node4</title>
<g id="a_node4"><a xlink:title=" ">
<polygon fill="none" stroke="#bfbfbf" points="15.25,-56.5 15.25,-86.5 122.25,-86.5 122.25,-56.5 15.25,-56.5"/>
<text text-anchor="start" x="23.25" y="-74.5" font-family="Helvetica,sans-Serif" font-size="10.00">boost/serialization</text>
<text text-anchor="middle" x="68.75" y="-63.5" font-family="Helvetica,sans-Serif" font-size="10.00">/access.hpp</text>
</a>
</g>
</g>
<!-- Node3&#45;&gt;Node4 -->
<g id="edge3" class="edge">
<title>Node3&#45;&gt;Node4</title>
<path fill="none" stroke="midnightblue" d="M68.75,-123.48C68.75,-116.47 68.75,-106.19 68.75,-96.7"/>
<polygon fill="midnightblue" stroke="midnightblue" points="72.25,-96.52 68.75,-86.52 65.25,-96.52 72.25,-96.52"/>
</g>
<!-- Node3&#45;&gt;Node5 -->
<g id="edge4" class="edge">
<title>Node3&#45;&gt;Node5</title>
<path fill="none" stroke="midnightblue" d="M47.9,-123.43C33.17,-116.13 14.54,-104.09 5.75,-87 -0.56,-74.75 -2.88,-66.74 5.75,-56 26.35,-30.36 120.19,-18.46 173.13,-13.7"/>
<polygon fill="midnightblue" stroke="midnightblue" points="173.47,-17.19 183.13,-12.85 172.87,-10.21 173.47,-17.19"/>
</g>
<!-- Node6&#45;&gt;Node5 -->
<g id="edge23" class="edge">
<title>Node6&#45;&gt;Node5</title>
<path fill="none" stroke="midnightblue" d="M744.98,-193C612.83,-191.11 243.82,-182.33 207.75,-143 179.31,-112 192.68,-57.59 202.52,-29.28"/>
<polygon fill="midnightblue" stroke="midnightblue" points="205.84,-30.41 206.03,-19.81 199.27,-27.98 205.84,-30.41"/>
</g>
<!-- Node7 -->
<g id="node7" class="node">
<title>Node7</title>
<g id="a_node7"><a xlink:title=" ">
<polygon fill="none" stroke="#bfbfbf" points="216.75,-123.5 216.75,-142.5 366.75,-142.5 366.75,-123.5 216.75,-123.5"/>
<text text-anchor="middle" x="291.75" y="-130.5" font-family="Helvetica,sans-Serif" font-size="10.00">boost/qvm/deduce_vec.hpp</text>
</a>
</g>
</g>
<!-- Node6&#45;&gt;Node7 -->
<g id="edge6" class="edge">
<title>Node6&#45;&gt;Node7</title>
<path fill="none" stroke="midnightblue" d="M745.16,-187.96C660.26,-177.85 479.37,-156.33 373.53,-143.73"/>
<polygon fill="midnightblue" stroke="midnightblue" points="373.87,-140.25 363.53,-142.54 373.04,-147.2 373.87,-140.25"/>
</g>
<!-- Node8 -->
<g id="node8" class="node">
<title>Node8</title>
<g id="a_node8"><a xlink:title=" ">
<polygon fill="none" stroke="#bfbfbf" points="384.75,-123.5 384.75,-142.5 524.75,-142.5 524.75,-123.5 384.75,-123.5"/>
<text text-anchor="middle" x="454.75" y="-130.5" font-family="Helvetica,sans-Serif" font-size="10.00">boost/qvm/vec_traits.hpp</text>
</a>
</g>
</g>
<!-- Node6&#45;&gt;Node8 -->
<g id="edge7" class="edge">
<title>Node6&#45;&gt;Node8</title>
<path fill="none" stroke="midnightblue" d="M745.24,-185.29C684.74,-174.61 579.01,-155.94 513.16,-144.31"/>
<polygon fill="midnightblue" stroke="midnightblue" points="513.41,-140.8 502.95,-142.51 512.19,-147.7 513.41,-140.8"/>
</g>
<!-- Node9 -->
<g id="node9" class="node">
<title>Node9</title>
<g id="a_node9"><a xlink:href="Array_8hpp.html" target="_top" xlink:title=" ">
<polygon fill="none" stroke="black" points="542.75,-123.5 542.75,-142.5 628.75,-142.5 628.75,-123.5 542.75,-123.5"/>
<text text-anchor="middle" x="585.75" y="-130.5" font-family="Helvetica,sans-Serif" font-size="10.00">utils/Array.hpp</text>
</a>
</g>
</g>
<!-- Node6&#45;&gt;Node9 -->
<g id="edge8" class="edge">
<title>Node6&#45;&gt;Node9</title>
<path fill="none" stroke="midnightblue" d="M762.23,-184.98C726.13,-174.55 664.9,-156.86 624.89,-145.31"/>
<polygon fill="midnightblue" stroke="midnightblue" points="625.78,-141.92 615.21,-142.51 623.84,-148.65 625.78,-141.92"/>
</g>
<!-- Node11 -->
<g id="node11" class="node">
<title>Node11</title>
<g id="a_node11"><a xlink:title=" ">
<polygon fill="none" stroke="#bfbfbf" points="663.75,-0.5 663.75,-19.5 715.75,-19.5 715.75,-0.5 663.75,-0.5"/>
<text text-anchor="middle" x="689.75" y="-7.5" font-family="Helvetica,sans-Serif" font-size="10.00">cassert</text>
</a>
</g>
</g>
<!-- Node6&#45;&gt;Node11 -->
<g id="edge21" class="edge">
<title>Node6&#45;&gt;Node11</title>
<path fill="none" stroke="midnightblue" d="M768.11,-184.89C739.34,-173 696.6,-149.95 713.75,-123 734.03,-91.13 770.46,-118.87 790.75,-87 798.14,-75.38 798.25,-67.56 790.75,-56 776.51,-34.08 748.85,-22.75 726.07,-16.94"/>
<polygon fill="midnightblue" stroke="midnightblue" points="726.54,-13.46 716.01,-14.64 724.98,-20.28 726.54,-13.46"/>
</g>
<!-- Node14 -->
<g id="node14" class="node">
<title>Node14</title>
<g id="a_node14"><a xlink:title=" ">
<polygon fill="none" stroke="#bfbfbf" points="646.25,-62 646.25,-81 699.25,-81 699.25,-62 646.25,-62"/>
<text text-anchor="middle" x="672.75" y="-69" font-family="Helvetica,sans-Serif" font-size="10.00">iterator</text>
</a>
</g>
</g>
<!-- Node6&#45;&gt;Node14 -->
<g id="edge26" class="edge">
<title>Node6&#45;&gt;Node14</title>
<path fill="none" stroke="midnightblue" d="M749.03,-184.94C725.08,-177.84 696.86,-165.18 680.75,-143 670.01,-128.23 669.03,-106.93 670.1,-91.61"/>
<polygon fill="midnightblue" stroke="midnightblue" points="673.62,-91.59 671.19,-81.27 666.66,-90.85 673.62,-91.59"/>
</g>
<!-- Node17 -->
<g id="node17" class="node">
<title>Node17</title>
<g id="a_node17"><a xlink:title=" ">
<polygon fill="none" stroke="#bfbfbf" points="722.75,-123.5 722.75,-142.5 786.75,-142.5 786.75,-123.5 722.75,-123.5"/>
<text text-anchor="middle" x="754.75" y="-130.5" font-family="Helvetica,sans-Serif" font-size="10.00">algorithm</text>
</a>
</g>
</g>
<!-- Node6&#45;&gt;Node17 -->
<g id="edge20" class="edge">
<title>Node6&#45;&gt;Node17</title>
<path fill="none" stroke="midnightblue" d="M786.44,-184.98C781,-176.23 772.39,-162.37 765.51,-151.31"/>
<polygon fill="midnightblue" stroke="midnightblue" points="768.29,-149.15 760.04,-142.51 762.35,-152.85 768.29,-149.15"/>
</g>
<!-- Node18 -->
<g id="node18" class="node">
<title>Node18</title>
<g id="a_node18"><a xlink:title=" ">
<polygon fill="none" stroke="#bfbfbf" points="805.25,-123.5 805.25,-142.5 852.25,-142.5 852.25,-123.5 805.25,-123.5"/>
<text text-anchor="middle" x="828.75" y="-130.5" font-family="Helvetica,sans-Serif" font-size="10.00">cmath</text>
</a>
</g>
</g>
<!-- Node6&#45;&gt;Node18 -->
<g id="edge22" class="edge">
<title>Node6&#45;&gt;Node18</title>
<path fill="none" stroke="midnightblue" d="M797.05,-184.98C802.49,-176.23 811.1,-162.37 817.98,-151.31"/>
<polygon fill="midnightblue" stroke="midnightblue" points="821.15,-152.85 823.45,-142.51 815.2,-149.15 821.15,-152.85"/>
</g>
<!-- Node19 -->
<g id="node19" class="node">
<title>Node19</title>
<g id="a_node19"><a xlink:title=" ">
<polygon fill="none" stroke="#bfbfbf" points="870.25,-123.5 870.25,-142.5 935.25,-142.5 935.25,-123.5 870.25,-123.5"/>
<text text-anchor="middle" x="902.75" y="-130.5" font-family="Helvetica,sans-Serif" font-size="10.00">functional</text>
</a>
</g>
</g>
<!-- Node6&#45;&gt;Node19 -->
<g id="edge24" class="edge">
<title>Node6&#45;&gt;Node19</title>
<path fill="none" stroke="midnightblue" d="M807.65,-184.98C826.03,-175.12 856.5,-158.79 877.99,-147.27"/>
<polygon fill="midnightblue" stroke="midnightblue" points="879.71,-150.32 886.87,-142.51 876.4,-144.15 879.71,-150.32"/>
</g>
<!-- Node20 -->
<g id="node20" class="node">
<title>Node20</title>
<g id="a_node20"><a xlink:title=" ">
<polygon fill="none" stroke="#bfbfbf" points="953.25,-123.5 953.25,-142.5 1036.25,-142.5 1036.25,-123.5 953.25,-123.5"/>
<text text-anchor="middle" x="994.75" y="-130.5" font-family="Helvetica,sans-Serif" font-size="10.00">initializer_list</text>
</a>
</g>
</g>
<!-- Node6&#45;&gt;Node20 -->
<g id="edge25" class="edge">
<title>Node6&#45;&gt;Node20</title>
<path fill="none" stroke="midnightblue" d="M820.83,-184.98C856.33,-174.57 916.49,-156.94 955.92,-145.38"/>
<polygon fill="midnightblue" stroke="midnightblue" points="957.1,-148.68 965.71,-142.51 955.13,-141.96 957.1,-148.68"/>
</g>
<!-- Node21 -->
<g id="node21" class="node">
<title>Node21</title>
<g id="a_node21"><a xlink:title=" ">
<polygon fill="none" stroke="#bfbfbf" points="1054.75,-123.5 1054.75,-142.5 1110.75,-142.5 1110.75,-123.5 1054.75,-123.5"/>
<text text-anchor="middle" x="1082.75" y="-130.5" font-family="Helvetica,sans-Serif" font-size="10.00">numeric</text>
</a>
</g>
</g>
<!-- Node6&#45;&gt;Node21 -->
<g id="edge27" class="edge">
<title>Node6&#45;&gt;Node21</title>
<path fill="none" stroke="midnightblue" d="M837.09,-184.95C887.8,-175.28 972.32,-158.8 1044.75,-143 1044.84,-142.98 1044.94,-142.96 1045.04,-142.93"/>
<polygon fill="midnightblue" stroke="midnightblue" points="1045.56,-146.41 1054.55,-140.8 1044.02,-139.58 1045.56,-146.41"/>
</g>
<!-- Node6&#45;&gt;Node22 -->
<g id="edge28" class="edge">
<title>Node6&#45;&gt;Node22</title>
<path fill="none" stroke="midnightblue" d="M838.52,-193.43C903.97,-191.77 1025.45,-182.95 1119.75,-143 1150.21,-130.1 1179.64,-104.97 1196.97,-88.47"/>
<polygon fill="midnightblue" stroke="midnightblue" points="1199.75,-90.64 1204.46,-81.15 1194.86,-85.64 1199.75,-90.64"/>
</g>
<!-- Node6&#45;&gt;Node23 -->
<g id="edge29" class="edge">
<title>Node6&#45;&gt;Node23</title>
<path fill="none" stroke="midnightblue" d="M838.42,-188.39C907.43,-180.5 1040.64,-164.07 1152.75,-143 1154.2,-142.73 1155.69,-142.43 1157.19,-142.13"/>
<polygon fill="midnightblue" stroke="midnightblue" points="1158.08,-145.51 1167.1,-139.96 1156.59,-138.68 1158.08,-145.51"/>
</g>
<!-- Node9&#45;&gt;Node4 -->
<g id="edge14" class="edge">
<title>Node9&#45;&gt;Node4</title>
<path fill="none" stroke="midnightblue" d="M542.65,-124.32C539.64,-123.86 536.65,-123.41 533.75,-123 390.89,-102.9 222.37,-86.38 132.61,-78.15"/>
<polygon fill="midnightblue" stroke="midnightblue" points="132.86,-74.66 122.58,-77.23 132.22,-81.63 132.86,-74.66"/>
</g>
<!-- Node9&#45;&gt;Node5 -->
<g id="edge16" class="edge">
<title>Node9&#45;&gt;Node5</title>
<path fill="none" stroke="midnightblue" d="M542.63,-124.46C539.62,-123.96 536.64,-123.47 533.75,-123 428.14,-105.88 392.68,-132.27 295.75,-87 265.96,-73.09 238.84,-45.54 223.33,-27.71"/>
<polygon fill="midnightblue" stroke="midnightblue" points="225.81,-25.22 216.68,-19.84 220.46,-29.74 225.81,-25.22"/>
</g>
<!-- Node10 -->
<g id="node10" class="node">
<title>Node10</title>
<g id="a_node10"><a xlink:href="device__qualifier_8hpp.html" target="_top" xlink:title=" ">
<polygon fill="none" stroke="black" points="511.75,-62 511.75,-81 627.75,-81 627.75,-62 511.75,-62"/>
<text text-anchor="middle" x="569.75" y="-69" font-family="Helvetica,sans-Serif" font-size="10.00">device_qualifier.hpp</text>
</a>
</g>
</g>
<!-- Node9&#45;&gt;Node10 -->
<g id="edge9" class="edge">
<title>Node9&#45;&gt;Node10</title>
<path fill="none" stroke="midnightblue" d="M583.45,-123.48C581.17,-114.99 577.6,-101.7 574.67,-90.82"/>
<polygon fill="midnightblue" stroke="midnightblue" points="578.01,-89.76 572.03,-81.01 571.25,-91.57 578.01,-89.76"/>
</g>
<!-- Node9&#45;&gt;Node11 -->
<g id="edge15" class="edge">
<title>Node9&#45;&gt;Node11</title>
<path fill="none" stroke="midnightblue" d="M546.46,-123.47C501.8,-113.38 434.1,-96.72 426.75,-87 418.43,-76.01 417.86,-66.53 426.75,-56 455.32,-22.12 588.11,-13.75 653.36,-11.68"/>
<polygon fill="midnightblue" stroke="midnightblue" points="653.71,-15.17 663.6,-11.39 653.51,-8.17 653.71,-15.17"/>
</g>
<!-- Node12 -->
<g id="node12" class="node">
<title>Node12</title>
<g id="a_node12"><a xlink:href="get_8hpp.html" target="_top" xlink:title=" ">
<polygon fill="none" stroke="black" points="305.25,-62 305.25,-81 358.25,-81 358.25,-62 305.25,-62"/>
<text text-anchor="middle" x="331.75" y="-69" font-family="Helvetica,sans-Serif" font-size="10.00">get.hpp</text>
</a>
</g>
</g>
<!-- Node9&#45;&gt;Node12 -->
<g id="edge11" class="edge">
<title>Node9&#45;&gt;Node12</title>
<path fill="none" stroke="midnightblue" d="M549.35,-123.48C501.17,-112.19 416.69,-92.4 368.39,-81.08"/>
<polygon fill="midnightblue" stroke="midnightblue" points="368.9,-77.61 358.37,-78.74 367.31,-84.42 368.9,-77.61"/>
</g>
<!-- Node9&#45;&gt;Node14 -->
<g id="edge17" class="edge">
<title>Node9&#45;&gt;Node14</title>
<path fill="none" stroke="midnightblue" d="M598.21,-123.48C612.17,-113.93 635.01,-98.31 651.74,-86.87"/>
<polygon fill="midnightblue" stroke="midnightblue" points="654.03,-89.54 660.3,-81.01 650.07,-83.77 654.03,-89.54"/>
</g>
<!-- Node15 -->
<g id="node15" class="node">
<title>Node15</title>
<g id="a_node15"><a xlink:title=" ">
<polygon fill="none" stroke="#bfbfbf" points="436.25,-62 436.25,-81 493.25,-81 493.25,-62 436.25,-62"/>
<text text-anchor="middle" x="464.75" y="-69" font-family="Helvetica,sans-Serif" font-size="10.00">ostream</text>
</a>
</g>
</g>
<!-- Node9&#45;&gt;Node15 -->
<g id="edge18" class="edge">
<title>Node9&#45;&gt;Node15</title>
<path fill="none" stroke="midnightblue" d="M568.41,-123.48C548.19,-113.53 514.56,-96.99 491.1,-85.46"/>
<polygon fill="midnightblue" stroke="midnightblue" points="492.57,-82.28 482.05,-81.01 489.48,-88.56 492.57,-82.28"/>
</g>
<!-- Node16 -->
<g id="node16" class="node">
<title>Node16</title>
<g id="a_node16"><a xlink:title=" ">
<polygon fill="none" stroke="#bfbfbf" points="717.25,-62 717.25,-81 782.25,-81 782.25,-62 717.25,-62"/>
<text text-anchor="middle" x="749.75" y="-69" font-family="Helvetica,sans-Serif" font-size="10.00">stdexcept</text>
</a>
</g>
</g>
<!-- Node9&#45;&gt;Node16 -->
<g id="edge19" class="edge">
<title>Node9&#45;&gt;Node16</title>
<path fill="none" stroke="midnightblue" d="M609.24,-123.48C637.37,-113.27 684.67,-96.11 716.53,-84.55"/>
<polygon fill="midnightblue" stroke="midnightblue" points="718.09,-87.71 726.29,-81.01 715.7,-81.13 718.09,-87.71"/>
</g>
<!-- Node10&#45;&gt;Node11 -->
<g id="edge10" class="edge">
<title>Node10&#45;&gt;Node11</title>
<path fill="none" stroke="midnightblue" d="M586.94,-61.98C606.99,-52.03 640.34,-35.49 663.61,-23.96"/>
<polygon fill="midnightblue" stroke="midnightblue" points="665.18,-27.09 672.58,-19.51 662.07,-20.82 665.18,-27.09"/>
</g>
<!-- Node12&#45;&gt;Node5 -->
<g id="edge12" class="edge">
<title>Node12&#45;&gt;Node5</title>
<path fill="none" stroke="midnightblue" d="M314.27,-61.98C293.88,-52.03 259.97,-35.49 236.32,-23.96"/>
<polygon fill="midnightblue" stroke="midnightblue" points="237.72,-20.75 227.19,-19.51 234.65,-27.04 237.72,-20.75"/>
</g>
<!-- Node13 -->
<g id="node13" class="node">
<title>Node13</title>
<g id="a_node13"><a xlink:title=" ">
<polygon fill="none" stroke="#bfbfbf" points="311.25,-0.5 311.25,-19.5 352.25,-19.5 352.25,-0.5 311.25,-0.5"/>
<text text-anchor="middle" x="331.75" y="-7.5" font-family="Helvetica,sans-Serif" font-size="10.00">tuple</text>
</a>
</g>
</g>
<!-- Node12&#45;&gt;Node13 -->
<g id="edge13" class="edge">
<title>Node12&#45;&gt;Node13</title>
<path fill="none" stroke="midnightblue" d="M331.75,-61.98C331.75,-53.58 331.75,-40.48 331.75,-29.66"/>
<polygon fill="midnightblue" stroke="midnightblue" points="335.25,-29.51 331.75,-19.51 328.25,-29.51 335.25,-29.51"/>
</g>
<!-- Node35&#45;&gt;Node5 -->
<g id="edge47" class="edge">
<title>Node35&#45;&gt;Node5</title>
<path fill="none" stroke="midnightblue" d="M1310.22,-123.39C1302.9,-106.82 1284.33,-70.82 1255.75,-56 1161.58,-7.17 407.58,-27.17 301.75,-20 283.45,-18.76 263.15,-16.83 246.29,-15.08"/>
<polygon fill="midnightblue" stroke="midnightblue" points="246.6,-11.59 236.28,-14.02 245.86,-18.56 246.6,-11.59"/>
</g>
<!-- Node35&#45;&gt;Node10 -->
<g id="edge45" class="edge">
<title>Node35&#45;&gt;Node10</title>
<path fill="none" stroke="midnightblue" d="M1270.72,-127.41C1255.57,-125.89 1238.41,-124.26 1222.75,-123 962.64,-102.16 895.23,-122.7 636.75,-87 629.45,-85.99 621.77,-84.62 614.31,-83.13"/>
<polygon fill="midnightblue" stroke="midnightblue" points="614.85,-79.67 604.34,-81.04 613.41,-86.52 614.85,-79.67"/>
</g>
<!-- Node35&#45;&gt;Node11 -->
<g id="edge46" class="edge">
<title>Node35&#45;&gt;Node11</title>
<path fill="none" stroke="midnightblue" d="M1313.9,-123.22C1313.66,-107 1310.57,-72.5 1289.75,-56 1245.54,-20.98 848.94,-13.02 725.95,-11.39"/>
<polygon fill="midnightblue" stroke="midnightblue" points="725.95,-7.89 715.91,-11.26 725.86,-14.89 725.95,-7.89"/>
</g>
<!-- Node35&#45;&gt;Node14 -->
<g id="edge48" class="edge">
<title>Node35&#45;&gt;Node14</title>
<path fill="none" stroke="midnightblue" d="M1270.72,-127.49C1255.56,-125.97 1238.41,-124.32 1222.75,-123 994.11,-103.71 931.08,-139.59 707.75,-87 705.08,-86.37 702.35,-85.56 699.65,-84.65"/>
<polygon fill="midnightblue" stroke="midnightblue" points="700.77,-81.33 690.18,-81.02 698.27,-87.87 700.77,-81.33"/>
</g>
<!-- Node35&#45;&gt;Node16 -->
<g id="edge49" class="edge">
<title>Node35&#45;&gt;Node16</title>
<path fill="none" stroke="midnightblue" d="M1270.43,-127.43C1165.19,-116.33 897.05,-88.04 792.45,-77.01"/>
<polygon fill="midnightblue" stroke="midnightblue" points="792.58,-73.5 782.26,-75.93 791.84,-80.46 792.58,-73.5"/>
</g>
<!-- Node35&#45;&gt;Node22 -->
<g id="edge50" class="edge">
<title>Node35&#45;&gt;Node22</title>
<path fill="none" stroke="midnightblue" d="M1299.27,-123.48C1282.77,-113.75 1255.57,-97.73 1236.06,-86.24"/>
<polygon fill="midnightblue" stroke="midnightblue" points="1237.58,-83.07 1227.19,-81.01 1234.03,-89.1 1237.58,-83.07"/>
</g>
</g>
</svg>
        <g id="navigator" transform="translate(0 0)" fill="#404254">
                <rect fill="#f2f5e9" fill-opacity="0.5" stroke="#606060" stroke-width=".5" x="0" y="0" width="60" height="60"/>
                <use id="zoomplus" xlink:href="#zoomPlus" x="17" y="9" onmousedown="handleZoom(evt,'in')"/>
                <use id="zoomminus" xlink:href="#zoomMin" x="42" y="9" onmousedown="handleZoom(evt,'out')"/>
                <use id="reset" xlink:href="#resetDef" x="30" y="36" onmousedown="handleReset()"/>
                <g id="arrowUp" xlink:href="#dirArrow" transform="translate(30 24)" onmousedown="handlePan(0,-1)">
                  <use xlink:href="#rim" fill="#404040">
                        <set attributeName="fill" to="#808080" begin="arrowUp.mouseover" end="arrowUp.mouseout"/>
                  </use>
                  <path fill="none" stroke="white" stroke-width="1.5" d="M0,-3.0v7 M-2.5,-0.5L0,-3.0L2.5,-0.5"/>
                </g>
                <g id="arrowRight" xlink:href="#dirArrow" transform="rotate(90) translate(36 -43)" onmousedown="handlePan(1,0)">
                  <use xlink:href="#rim" fill="#404040">
                        <set attributeName="fill" to="#808080" begin="arrowRight.mouseover" end="arrowRight.mouseout"/>
                  </use>
                  <path fill="none" stroke="white" stroke-width="1.5" d="M0,-3.0v7 M-2.5,-0.5L0,-3.0L2.5,-0.5"/>
                </g>
                <g id="arrowDown" xlink:href="#dirArrow" transform="rotate(180) translate(-30 -48)" onmousedown="handlePan(0,1)">
                  <use xlink:href="#rim" fill="#404040">
                        <set attributeName="fill" to="#808080" begin="arrowDown.mouseover" end="arrowDown.mouseout"/>
                  </use>
                  <path fill="none" stroke="white" stroke-width="1.5" d="M0,-3.0v7 M-2.5,-0.5L0,-3.0L2.5,-0.5"/>
                </g>
                <g id="arrowLeft" xlink:href="#dirArrow" transform="rotate(270) translate(-36 17)" onmousedown="handlePan(-1,0)">
                  <use xlink:href="#rim" fill="#404040">
                        <set attributeName="fill" to="#808080" begin="arrowLeft.mouseover" end="arrowLeft.mouseout"/>
                  </use>
                  <path fill="none" stroke="white" stroke-width="1.5" d="M0,-3.0v7 M-2.5,-0.5L0,-3.0L2.5,-0.5"/>
                </g>
        </g>
        <svg viewBox="0 0 15 15" width="100%" height="30px" preserveAspectRatio="xMaxYMin meet">
         <g id="arrow_out" transform="scale(0.3 0.3)">
          <a xlink:href="ObjectHandle_8hpp__incl_org.svg" target="_base">
           <rect id="button" ry="5" rx="5" y="6" x="6" height="38" width="38"
                fill="#f2f5e9" fill-opacity="0.5" stroke="#606060" stroke-width="1.0"/>
           <path id="arrow"
             d="M 11.500037,31.436501 C 11.940474,20.09759 22.043105,11.32322 32.158766,21.979434 L 37.068811,17.246167 C 37.068811,17.246167 37.088388,32 37.088388,32 L 22.160133,31.978069 C 22.160133,31.978069 26.997745,27.140456 26.997745,27.140456 C 18.528582,18.264221 13.291696,25.230495 11.500037,31.436501 z"
             style="fill:#404040;"/>
          </a>
         </g>
        </svg>
</svg>
