<?xml version="1.0" encoding="UTF-8" standalone="no"?>
<!DOCTYPE svg PUBLIC "-//W3C//DTD SVG 1.1//EN"
 "http://www.w3.org/Graphics/SVG/1.1/DTD/svg11.dtd">
<!-- Generated by graphviz version 2.43.0 (0)
 -->
<!-- Title: Observable_stat.hpp Pages: 1 -->
<!--zoomable 420 -->
<svg id="main" version="1.1" xmlns="http://www.w3.org/2000/svg" xmlns:xlink="http://www.w3.org/1999/xlink" xml:space="preserve" onload="init(evt)">
<style type="text/css"><![CDATA[
.edge:hover path { stroke: red; }
.edge:hover polygon { stroke: red; fill: red; }
]]></style>
<script type="text/javascript"><![CDATA[
var edges = document.getElementsByTagName('g');
if (edges && edges.length) {
  for (var i=0;i<edges.length;i++) {
    if (edges[i].id.substr(0,4)=='edge') {
      edges[i].setAttribute('class','edge');
    }
  }
}
]]></script>
        <defs>
                <circle id="rim" cx="0" cy="0" r="7"/>
                <circle id="rim2" cx="0" cy="0" r="3.5"/>
                <g id="zoomPlus">
                        <use xlink:href="#rim" fill="#404040">
                                <set attributeName="fill" to="#808080" begin="zoomplus.mouseover" end="zoomplus.mouseout"/>
                        </use>
                        <path d="M-4,0h8M0,-4v8" fill="none" stroke="white" stroke-width="1.5" pointer-events="none"/>
                </g>
                <g id="zoomMin">
                        <use xlink:href="#rim" fill="#404040">
                                <set attributeName="fill" to="#808080" begin="zoomminus.mouseover" end="zoomminus.mouseout"/>
                        </use>
                        <path d="M-4,0h8" fill="none" stroke="white" stroke-width="1.5" pointer-events="none"/>
                </g>
                <g id="dirArrow">
                        <path fill="none" stroke="white" stroke-width="1.5" d="M0,-3.0v7 M-2.5,-0.5L0,-3.0L2.5,-0.5"/>
                </g>
               <g id="resetDef">
                       <use xlink:href="#rim2" fill="#404040">
                               <set attributeName="fill" to="#808080" begin="reset.mouseover" end="reset.mouseout"/>
                       </use>
               </g>
        </defs>

<script type="text/javascript">
var viewWidth = 2657;
var viewHeight = 420;
var sectionId = 'dynsection-1';
</script>
<script xlink:href="svgpan.js"/>
<svg id="graph" class="graph">
<g id="viewport">
<title>Observable_stat.hpp</title>
<!-- Node1 -->
<g id="node1" class="node">
<title>Node1</title>
<g id="a_node1"><a xlink:title=" ">
<polygon fill="#bfbfbf" stroke="black" points="1080,-392.5 1080,-411.5 1197,-411.5 1197,-392.5 1080,-392.5"/>
<text text-anchor="middle" x="1138.5" y="-399.5" font-family="Helvetica,sans-Serif" font-size="10.00">Observable_stat.hpp</text>
</a>
</g>
</g>
<!-- Node2 -->
<g id="node2" class="node">
<title>Node2</title>
<g id="a_node2"><a xlink:href="core_2constraints_2Constraint_8hpp.html" target="_top" xlink:title=" ">
<polygon fill="none" stroke="black" points="471.5,-280.5 471.5,-299.5 559.5,-299.5 559.5,-280.5 471.5,-280.5"/>
<text text-anchor="middle" x="515.5" y="-287.5" font-family="Helvetica,sans-Serif" font-size="10.00">Constraint.hpp</text>
</a>
</g>
</g>
<!-- Node1&#45;&gt;Node2 -->
<g id="edge1" class="edge">
<title>Node1&#45;&gt;Node2</title>
<path fill="none" stroke="midnightblue" d="M1069.73,-395.14C995.88,-388.24 875.27,-375.24 772.5,-356 688.58,-340.29 591.34,-313.22 544.14,-299.5"/>
<polygon fill="midnightblue" stroke="midnightblue" points="1069.56,-398.64 1079.83,-396.07 1070.2,-391.67 1069.56,-398.64"/>
</g>
<!-- Node8 -->
<g id="node8" class="node">
<title>Node8</title>
<g id="a_node8"><a xlink:href="core_2constraints_2HomogeneousMagneticField_8hpp.html" target="_top" xlink:title=" ">
<polygon fill="none" stroke="black" points="579.5,-224.5 579.5,-243.5 755.5,-243.5 755.5,-224.5 579.5,-224.5"/>
<text text-anchor="middle" x="667.5" y="-231.5" font-family="Helvetica,sans-Serif" font-size="10.00">HomogeneousMagneticField.hpp</text>
</a>
</g>
</g>
<!-- Node1&#45;&gt;Node8 -->
<g id="edge35" class="edge">
<title>Node1&#45;&gt;Node8</title>
<path fill="none" stroke="midnightblue" d="M1069.75,-392.55C1023.36,-385.64 961.23,-374.02 908.5,-356 817.46,-324.89 717.28,-265.76 681.31,-243.64"/>
<polygon fill="midnightblue" stroke="midnightblue" points="1069.3,-396.02 1079.7,-393.99 1070.31,-389.09 1069.3,-396.02"/>
</g>
<!-- Node9 -->
<g id="node9" class="node">
<title>Node9</title>
<g id="a_node9"><a xlink:href="HomogeneousMagneticField_8cpp.html" target="_top" xlink:title=" ">
<polygon fill="none" stroke="black" points="731,-168.5 731,-187.5 906,-187.5 906,-168.5 731,-168.5"/>
<text text-anchor="middle" x="818.5" y="-175.5" font-family="Helvetica,sans-Serif" font-size="10.00">HomogeneousMagneticField.cpp</text>
</a>
</g>
</g>
<!-- Node1&#45;&gt;Node9 -->
<g id="edge36" class="edge">
<title>Node1&#45;&gt;Node9</title>
<path fill="none" stroke="midnightblue" d="M1097.95,-389.27C1077.03,-381.92 1051.9,-370.97 1032.5,-356 973.8,-310.71 989.64,-268.72 930.5,-224 907.18,-206.37 876.02,-194.59 852.49,-187.52"/>
<polygon fill="midnightblue" stroke="midnightblue" points="1096.94,-392.62 1107.53,-392.49 1099.17,-385.99 1096.94,-392.62"/>
</g>
<!-- Node11 -->
<g id="node11" class="node">
<title>Node11</title>
<g id="a_node11"><a xlink:href="core_2constraints_2ShapeBasedConstraint_8hpp.html" target="_top" xlink:title=" ">
<polygon fill="none" stroke="black" points="773.5,-224.5 773.5,-243.5 921.5,-243.5 921.5,-224.5 773.5,-224.5"/>
<text text-anchor="middle" x="847.5" y="-231.5" font-family="Helvetica,sans-Serif" font-size="10.00">ShapeBasedConstraint.hpp</text>
</a>
</g>
</g>
<!-- Node1&#45;&gt;Node11 -->
<g id="edge37" class="edge">
<title>Node1&#45;&gt;Node11</title>
<path fill="none" stroke="midnightblue" d="M1069.91,-397.95C1028.17,-393.28 975.39,-382.14 935.5,-356 890.74,-326.67 861.04,-266.19 851.14,-243.69"/>
<polygon fill="midnightblue" stroke="midnightblue" points="1069.69,-401.44 1080,-398.97 1070.4,-394.48 1069.69,-401.44"/>
</g>
<!-- Node12 -->
<g id="node12" class="node">
<title>Node12</title>
<g id="a_node12"><a xlink:href="ShapeBasedConstraint_8cpp.html" target="_top" xlink:title=" ">
<polygon fill="none" stroke="black" points="924,-168.5 924,-187.5 1071,-187.5 1071,-168.5 924,-168.5"/>
<text text-anchor="middle" x="997.5" y="-175.5" font-family="Helvetica,sans-Serif" font-size="10.00">ShapeBasedConstraint.cpp</text>
</a>
</g>
</g>
<!-- Node1&#45;&gt;Node12 -->
<g id="edge38" class="edge">
<title>Node1&#45;&gt;Node12</title>
<path fill="none" stroke="midnightblue" d="M1110.45,-387.98C1079.6,-372.01 1031.37,-341.81 1008.5,-300 987.95,-262.43 993.08,-208.36 996.08,-187.58"/>
<polygon fill="midnightblue" stroke="midnightblue" points="1108.91,-391.12 1119.42,-392.48 1112.05,-384.86 1108.91,-391.12"/>
</g>
<!-- Node17 -->
<g id="node17" class="node">
<title>Node17</title>
<g id="a_node17"><a xlink:href="energy_8cpp.html" target="_top" xlink:title=" ">
<polygon fill="none" stroke="black" points="1378,-168.5 1378,-187.5 1447,-187.5 1447,-168.5 1378,-168.5"/>
<text text-anchor="middle" x="1412.5" y="-175.5" font-family="Helvetica,sans-Serif" font-size="10.00">energy.cpp</text>
</a>
</g>
</g>
<!-- Node1&#45;&gt;Node17 -->
<g id="edge39" class="edge">
<title>Node1&#45;&gt;Node17</title>
<path fill="none" stroke="midnightblue" d="M1136.18,-382.29C1134.03,-356.45 1134.09,-309.67 1157.5,-280 1186.11,-243.74 1317.8,-204.43 1379.91,-187.52"/>
<polygon fill="midnightblue" stroke="midnightblue" points="1132.7,-382.68 1137.21,-392.27 1139.66,-381.96 1132.7,-382.68"/>
</g>
<!-- Node21 -->
<g id="node21" class="node">
<title>Node21</title>
<g id="a_node21"><a xlink:href="core_2constraints_2Constraints_8hpp.html" target="_top" xlink:title=" ">
<polygon fill="none" stroke="black" points="1017,-280.5 1017,-299.5 1110,-299.5 1110,-280.5 1017,-280.5"/>
<text text-anchor="middle" x="1063.5" y="-287.5" font-family="Helvetica,sans-Serif" font-size="10.00">Constraints.hpp</text>
</a>
</g>
</g>
<!-- Node1&#45;&gt;Node21 -->
<g id="edge32" class="edge">
<title>Node1&#45;&gt;Node21</title>
<path fill="none" stroke="midnightblue" d="M1126.88,-383.96C1110.63,-360.12 1081.71,-317.71 1069.36,-299.59"/>
<polygon fill="midnightblue" stroke="midnightblue" points="1124.09,-386.08 1132.61,-392.37 1129.87,-382.13 1124.09,-386.08"/>
</g>
<!-- Node22 -->
<g id="node22" class="node">
<title>Node22</title>
<g id="a_node22"><a xlink:href="energy_8hpp.html" target="_top" xlink:title=" ">
<polygon fill="none" stroke="black" points="1456.5,-336.5 1456.5,-355.5 1526.5,-355.5 1526.5,-336.5 1456.5,-336.5"/>
<text text-anchor="middle" x="1491.5" y="-343.5" font-family="Helvetica,sans-Serif" font-size="10.00">energy.hpp</text>
</a>
</g>
</g>
<!-- Node1&#45;&gt;Node22 -->
<g id="edge40" class="edge">
<title>Node1&#45;&gt;Node22</title>
<path fill="none" stroke="midnightblue" d="M1204.65,-390.88C1279.19,-379.48 1397.58,-361.37 1456.21,-352.4"/>
<polygon fill="midnightblue" stroke="midnightblue" points="1203.79,-387.47 1194.43,-392.44 1204.85,-394.39 1203.79,-387.47"/>
</g>
<!-- Node26 -->
<g id="node26" class="node">
<title>Node26</title>
<g id="a_node26"><a xlink:href="energy__inline_8hpp.html" target="_top" xlink:title=" ">
<polygon fill="none" stroke="black" points="1166.5,-280.5 1166.5,-299.5 1270.5,-299.5 1270.5,-280.5 1166.5,-280.5"/>
<text text-anchor="middle" x="1218.5" y="-287.5" font-family="Helvetica,sans-Serif" font-size="10.00">energy_inline.hpp</text>
</a>
</g>
</g>
<!-- Node1&#45;&gt;Node26 -->
<g id="edge61" class="edge">
<title>Node1&#45;&gt;Node26</title>
<path fill="none" stroke="midnightblue" d="M1150.67,-384.27C1167.96,-360.49 1199.02,-317.79 1212.25,-299.59"/>
<polygon fill="midnightblue" stroke="midnightblue" points="1147.83,-382.22 1144.78,-392.37 1153.49,-386.34 1147.83,-382.22"/>
</g>
<!-- Node39 -->
<g id="node39" class="node">
<title>Node39</title>
<g id="a_node39"><a xlink:href="Observable__stat_8cpp.html" target="_top" xlink:title=" ">
<polygon fill="none" stroke="black" points="2532.5,-336.5 2532.5,-355.5 2648.5,-355.5 2648.5,-336.5 2532.5,-336.5"/>
<text text-anchor="middle" x="2590.5" y="-343.5" font-family="Helvetica,sans-Serif" font-size="10.00">Observable_stat.cpp</text>
</a>
</g>
</g>
<!-- Node1&#45;&gt;Node39 -->
<g id="edge62" class="edge">
<title>Node1&#45;&gt;Node39</title>
<path fill="none" stroke="midnightblue" d="M1207.27,-400.99C1408.97,-400.47 2016.42,-395.48 2518.5,-356 2523.02,-355.64 2527.69,-355.21 2532.39,-354.73"/>
<polygon fill="midnightblue" stroke="midnightblue" points="1207.11,-397.49 1197.12,-401.01 1207.13,-404.49 1207.11,-397.49"/>
</g>
<!-- Node40 -->
<g id="node40" class="node">
<title>Node40</title>
<g id="a_node40"><a xlink:href="pressure_8hpp.html" target="_top" xlink:title=" ">
<polygon fill="none" stroke="black" points="2304.5,-336.5 2304.5,-355.5 2384.5,-355.5 2384.5,-336.5 2304.5,-336.5"/>
<text text-anchor="middle" x="2344.5" y="-343.5" font-family="Helvetica,sans-Serif" font-size="10.00">pressure.hpp</text>
</a>
</g>
</g>
<!-- Node1&#45;&gt;Node40 -->
<g id="edge63" class="edge">
<title>Node1&#45;&gt;Node40</title>
<path fill="none" stroke="midnightblue" d="M1207.33,-397.92C1430.35,-387.93 2128.78,-356.66 2304.21,-348.8"/>
<polygon fill="midnightblue" stroke="midnightblue" points="1206.91,-394.43 1197.08,-398.38 1207.22,-401.43 1206.91,-394.43"/>
</g>
<!-- Node43 -->
<g id="node43" class="node">
<title>Node43</title>
<g id="a_node43"><a xlink:href="pressure_8cpp.html" target="_top" xlink:title=" ">
<polygon fill="none" stroke="black" points="2427,-224.5 2427,-243.5 2506,-243.5 2506,-224.5 2427,-224.5"/>
<text text-anchor="middle" x="2466.5" y="-231.5" font-family="Helvetica,sans-Serif" font-size="10.00">pressure.cpp</text>
</a>
</g>
</g>
<!-- Node1&#45;&gt;Node43 -->
<g id="edge71" class="edge">
<title>Node1&#45;&gt;Node43</title>
<path fill="none" stroke="midnightblue" d="M1207.27,-400.23C1462.18,-397.16 2341.17,-384.53 2393.5,-356 2438.3,-331.57 2458.49,-266.96 2464.49,-243.59"/>
<polygon fill="midnightblue" stroke="midnightblue" points="1206.99,-396.73 1197.03,-400.35 1207.07,-403.73 1206.99,-396.73"/>
</g>
<!-- Node44 -->
<g id="node44" class="node">
<title>Node44</title>
<g id="a_node44"><a xlink:href="pressure__inline_8hpp.html" target="_top" xlink:title=" ">
<polygon fill="none" stroke="black" points="2494.5,-280.5 2494.5,-299.5 2606.5,-299.5 2606.5,-280.5 2494.5,-280.5"/>
<text text-anchor="middle" x="2550.5" y="-287.5" font-family="Helvetica,sans-Serif" font-size="10.00">pressure_inline.hpp</text>
</a>
</g>
</g>
<!-- Node1&#45;&gt;Node44 -->
<g id="edge72" class="edge">
<title>Node1&#45;&gt;Node44</title>
<path fill="none" stroke="midnightblue" d="M1207.36,-400.03C1473.27,-396.1 2421.25,-380.42 2480.5,-356 2509.33,-344.12 2533.57,-314.63 2544.41,-299.81"/>
<polygon fill="midnightblue" stroke="midnightblue" points="1207.02,-396.53 1197.08,-400.18 1207.13,-403.53 1207.02,-396.53"/>
</g>
<!-- Node3 -->
<g id="node3" class="node">
<title>Node3</title>
<g id="a_node3"><a xlink:href="core_2constraints_2ExternalField_8hpp.html" target="_top" xlink:title=" ">
<polygon fill="none" stroke="black" points="95,-224.5 95,-243.5 196,-243.5 196,-224.5 95,-224.5"/>
<text text-anchor="middle" x="145.5" y="-231.5" font-family="Helvetica,sans-Serif" font-size="10.00">ExternalField.hpp</text>
</a>
</g>
</g>
<!-- Node2&#45;&gt;Node3 -->
<g id="edge2" class="edge">
<title>Node2&#45;&gt;Node3</title>
<path fill="none" stroke="midnightblue" d="M461.1,-281.06C389.73,-270.64 265.41,-252.5 196.02,-242.37"/>
<polygon fill="midnightblue" stroke="midnightblue" points="460.84,-284.56 471.24,-282.54 461.85,-277.63 460.84,-284.56"/>
</g>
<!-- Node4 -->
<g id="node4" class="node">
<title>Node4</title>
<g id="a_node4"><a xlink:href="script__interface_2constraints_2ExternalField_8hpp.html" target="_top" xlink:title=" ">
<polygon fill="none" stroke="black" points="0,-168.5 0,-187.5 101,-187.5 101,-168.5 0,-168.5"/>
<text text-anchor="middle" x="50.5" y="-175.5" font-family="Helvetica,sans-Serif" font-size="10.00">ExternalField.hpp</text>
</a>
</g>
</g>
<!-- Node2&#45;&gt;Node4 -->
<g id="edge28" class="edge">
<title>Node2&#45;&gt;Node4</title>
<path fill="none" stroke="midnightblue" d="M461.31,-289.49C359.77,-289.43 145.7,-284.36 85.5,-244 65.7,-230.73 56.19,-202.43 52.48,-187.94"/>
<polygon fill="midnightblue" stroke="midnightblue" points="461.37,-292.99 471.36,-289.48 461.36,-285.99 461.37,-292.99"/>
</g>
<!-- Node6 -->
<g id="node6" class="node">
<title>Node6</title>
<g id="a_node6"><a xlink:href="core_2constraints_2ExternalPotential_8hpp.html" target="_top" xlink:title=" ">
<polygon fill="none" stroke="black" points="256.5,-224.5 256.5,-243.5 378.5,-243.5 378.5,-224.5 256.5,-224.5"/>
<text text-anchor="middle" x="317.5" y="-231.5" font-family="Helvetica,sans-Serif" font-size="10.00">ExternalPotential.hpp</text>
</a>
</g>
</g>
<!-- Node2&#45;&gt;Node6 -->
<g id="edge5" class="edge">
<title>Node2&#45;&gt;Node6</title>
<path fill="none" stroke="midnightblue" d="M474.06,-277.7C436.69,-267.51 382.56,-252.74 348.73,-243.52"/>
<polygon fill="midnightblue" stroke="midnightblue" points="473.56,-281.19 484.13,-280.44 475.4,-274.44 473.56,-281.19"/>
</g>
<!-- Node7 -->
<g id="node7" class="node">
<title>Node7</title>
<g id="a_node7"><a xlink:href="script__interface_2constraints_2ExternalPotential_8hpp.html" target="_top" xlink:title=" ">
<polygon fill="none" stroke="black" points="119.5,-168.5 119.5,-187.5 241.5,-187.5 241.5,-168.5 119.5,-168.5"/>
<text text-anchor="middle" x="180.5" y="-175.5" font-family="Helvetica,sans-Serif" font-size="10.00">ExternalPotential.hpp</text>
</a>
</g>
</g>
<!-- Node2&#45;&gt;Node7 -->
<g id="edge29" class="edge">
<title>Node2&#45;&gt;Node7</title>
<path fill="none" stroke="midnightblue" d="M461.14,-289.21C404.82,-287.35 315.67,-278.48 247.5,-244 220.6,-230.39 197.42,-202.25 186.76,-187.87"/>
<polygon fill="midnightblue" stroke="midnightblue" points="461.17,-292.71 471.26,-289.48 461.36,-285.71 461.17,-292.71"/>
</g>
<!-- Node2&#45;&gt;Node8 -->
<g id="edge8" class="edge">
<title>Node2&#45;&gt;Node8</title>
<path fill="none" stroke="midnightblue" d="M549.17,-277.04C577.77,-266.88 618.11,-252.55 643.53,-243.52"/>
<polygon fill="midnightblue" stroke="midnightblue" points="547.84,-273.8 539.58,-280.44 550.18,-280.39 547.84,-273.8"/>
</g>
<!-- Node10 -->
<g id="node10" class="node">
<title>Node10</title>
<g id="a_node10"><a xlink:href="script__interface_2constraints_2HomogeneousMagneticField_8hpp.html" target="_top" xlink:title=" ">
<polygon fill="none" stroke="black" points="259.5,-168.5 259.5,-187.5 435.5,-187.5 435.5,-168.5 259.5,-168.5"/>
<text text-anchor="middle" x="347.5" y="-175.5" font-family="Helvetica,sans-Serif" font-size="10.00">HomogeneousMagneticField.hpp</text>
</a>
</g>
</g>
<!-- Node2&#45;&gt;Node10 -->
<g id="edge30" class="edge">
<title>Node2&#45;&gt;Node10</title>
<path fill="none" stroke="midnightblue" d="M486.06,-276.12C468.28,-267.85 445.46,-256.38 426.5,-244 399.43,-226.33 370.92,-200.93 356.7,-187.72"/>
<polygon fill="midnightblue" stroke="midnightblue" points="484.81,-279.4 495.37,-280.36 487.72,-273.03 484.81,-279.4"/>
</g>
<!-- Node2&#45;&gt;Node11 -->
<g id="edge12" class="edge">
<title>Node2&#45;&gt;Node11</title>
<path fill="none" stroke="midnightblue" d="M569.61,-280.2C631.87,-270.07 733.44,-253.55 795.01,-243.54"/>
<polygon fill="midnightblue" stroke="midnightblue" points="568.9,-276.77 559.59,-281.83 570.02,-283.68 568.9,-276.77"/>
</g>
<!-- Node14 -->
<g id="node14" class="node">
<title>Node14</title>
<g id="a_node14"><a xlink:href="script__interface_2constraints_2ShapeBasedConstraint_8hpp.html" target="_top" xlink:title=" ">
<polygon fill="none" stroke="black" points="453.5,-168.5 453.5,-187.5 601.5,-187.5 601.5,-168.5 453.5,-168.5"/>
<text text-anchor="middle" x="527.5" y="-175.5" font-family="Helvetica,sans-Serif" font-size="10.00">ShapeBasedConstraint.hpp</text>
</a>
</g>
</g>
<!-- Node2&#45;&gt;Node14 -->
<g id="edge31" class="edge">
<title>Node2&#45;&gt;Node14</title>
<path fill="none" stroke="midnightblue" d="M523.95,-271.15C527.33,-263.05 530.81,-253.24 532.5,-244 536.12,-224.18 532.29,-200.5 529.62,-187.91"/>
<polygon fill="midnightblue" stroke="midnightblue" points="520.74,-269.75 519.87,-280.31 527.13,-272.6 520.74,-269.75"/>
</g>
<!-- Node15 -->
<g id="node15" class="node">
<title>Node15</title>
<g id="a_node15"><a xlink:href="constraints_8hpp.html" target="_top" xlink:title=" ">
<polygon fill="none" stroke="black" points="1091.5,-224.5 1091.5,-243.5 1183.5,-243.5 1183.5,-224.5 1091.5,-224.5"/>
<text text-anchor="middle" x="1137.5" y="-231.5" font-family="Helvetica,sans-Serif" font-size="10.00">constraints.hpp</text>
</a>
</g>
</g>
<!-- Node2&#45;&gt;Node15 -->
<g id="edge17" class="edge">
<title>Node2&#45;&gt;Node15</title>
<path fill="none" stroke="midnightblue" d="M569.85,-284.28C690.48,-273.81 978.85,-248.77 1091.39,-239"/>
<polygon fill="midnightblue" stroke="midnightblue" points="569.39,-280.81 559.73,-285.16 570,-287.78 569.39,-280.81"/>
</g>
<!-- Node20 -->
<g id="node20" class="node">
<title>Node20</title>
<g id="a_node20"><a xlink:href="script__interface_2constraints_2Constraint_8hpp.html" target="_top" xlink:title=" ">
<polygon fill="none" stroke="black" points="435.5,-224.5 435.5,-243.5 523.5,-243.5 523.5,-224.5 435.5,-224.5"/>
<text text-anchor="middle" x="479.5" y="-231.5" font-family="Helvetica,sans-Serif" font-size="10.00">Constraint.hpp</text>
</a>
</g>
</g>
<!-- Node2&#45;&gt;Node20 -->
<g id="edge24" class="edge">
<title>Node2&#45;&gt;Node20</title>
<path fill="none" stroke="midnightblue" d="M503.88,-271.57C497.68,-262.27 490.33,-251.25 485.33,-243.75"/>
<polygon fill="midnightblue" stroke="midnightblue" points="501.1,-273.7 509.56,-280.08 506.92,-269.82 501.1,-273.7"/>
</g>
<!-- Node3&#45;&gt;Node4 -->
<g id="edge3" class="edge">
<title>Node3&#45;&gt;Node4</title>
<path fill="none" stroke="midnightblue" d="M121.18,-219.18C103.7,-209.24 80.67,-196.15 65.73,-187.65"/>
<polygon fill="midnightblue" stroke="midnightblue" points="119.81,-222.43 130.24,-224.32 123.27,-216.34 119.81,-222.43"/>
</g>
<!-- Node5 -->
<g id="node5" class="node">
<title>Node5</title>
<g id="a_node5"><a xlink:href="constraints_2initialize_8cpp.html" target="_top" xlink:title=" ">
<polygon fill="none" stroke="black" points="308,-112.5 308,-131.5 387,-131.5 387,-112.5 308,-112.5"/>
<text text-anchor="middle" x="347.5" y="-119.5" font-family="Helvetica,sans-Serif" font-size="10.00">initialize.cpp</text>
</a>
</g>
</g>
<!-- Node4&#45;&gt;Node5 -->
<g id="edge4" class="edge">
<title>Node4&#45;&gt;Node5</title>
<path fill="none" stroke="midnightblue" d="M107.43,-166.65C166.18,-155.97 256.31,-139.58 307.79,-130.22"/>
<polygon fill="midnightblue" stroke="midnightblue" points="106.77,-163.21 97.56,-168.44 108.03,-170.1 106.77,-163.21"/>
</g>
<!-- Node6&#45;&gt;Node7 -->
<g id="edge6" class="edge">
<title>Node6&#45;&gt;Node7</title>
<path fill="none" stroke="midnightblue" d="M286.48,-220.77C260.74,-210.63 224.81,-196.47 202.11,-187.52"/>
<polygon fill="midnightblue" stroke="midnightblue" points="285.21,-224.03 295.79,-224.44 287.77,-217.52 285.21,-224.03"/>
</g>
<!-- Node7&#45;&gt;Node5 -->
<g id="edge7" class="edge">
<title>Node7&#45;&gt;Node5</title>
<path fill="none" stroke="midnightblue" d="M216.67,-165.3C248.14,-155.13 292.99,-140.62 321.16,-131.52"/>
<polygon fill="midnightblue" stroke="midnightblue" points="215.4,-162.04 206.96,-168.44 217.55,-168.7 215.4,-162.04"/>
</g>
<!-- Node8&#45;&gt;Node9 -->
<g id="edge9" class="edge">
<title>Node8&#45;&gt;Node9</title>
<path fill="none" stroke="midnightblue" d="M700.95,-221.04C729.36,-210.88 769.44,-196.55 794.69,-187.52"/>
<polygon fill="midnightblue" stroke="midnightblue" points="699.66,-217.78 691.43,-224.44 702.02,-224.37 699.66,-217.78"/>
</g>
<!-- Node8&#45;&gt;Node10 -->
<g id="edge10" class="edge">
<title>Node8&#45;&gt;Node10</title>
<path fill="none" stroke="midnightblue" d="M606.63,-222.73C546.16,-212.52 454.51,-197.06 397.97,-187.52"/>
<polygon fill="midnightblue" stroke="midnightblue" points="606.35,-226.23 616.8,-224.44 607.52,-219.33 606.35,-226.23"/>
</g>
<!-- Node10&#45;&gt;Node5 -->
<g id="edge11" class="edge">
<title>Node10&#45;&gt;Node5</title>
<path fill="none" stroke="midnightblue" d="M347.5,-157.8C347.5,-148.91 347.5,-138.78 347.5,-131.75"/>
<polygon fill="midnightblue" stroke="midnightblue" points="344,-158.08 347.5,-168.08 351,-158.08 344,-158.08"/>
</g>
<!-- Node11&#45;&gt;Node12 -->
<g id="edge13" class="edge">
<title>Node11&#45;&gt;Node12</title>
<path fill="none" stroke="midnightblue" d="M880.72,-221.04C908.95,-210.88 948.76,-196.55 973.84,-187.52"/>
<polygon fill="midnightblue" stroke="midnightblue" points="879.49,-217.76 871.27,-224.44 881.86,-224.35 879.49,-217.76"/>
</g>
<!-- Node13 -->
<g id="node13" class="node">
<title>Node13</title>
<g id="a_node13"><a xlink:href="polymer_8cpp.html" target="_top" xlink:title=" ">
<polygon fill="none" stroke="black" points="1089,-168.5 1089,-187.5 1166,-187.5 1166,-168.5 1089,-168.5"/>
<text text-anchor="middle" x="1127.5" y="-175.5" font-family="Helvetica,sans-Serif" font-size="10.00">polymer.cpp</text>
</a>
</g>
</g>
<!-- Node11&#45;&gt;Node13 -->
<g id="edge14" class="edge">
<title>Node11&#45;&gt;Node13</title>
<path fill="none" stroke="midnightblue" d="M901.77,-222.53C956.68,-211.94 1040.19,-195.84 1088.75,-186.47"/>
<polygon fill="midnightblue" stroke="midnightblue" points="901.02,-219.11 891.87,-224.44 902.35,-225.99 901.02,-219.11"/>
</g>
<!-- Node11&#45;&gt;Node14 -->
<g id="edge15" class="edge">
<title>Node11&#45;&gt;Node14</title>
<path fill="none" stroke="midnightblue" d="M786.63,-222.73C726.16,-212.52 634.51,-197.06 577.97,-187.52"/>
<polygon fill="midnightblue" stroke="midnightblue" points="786.35,-226.23 796.8,-224.44 787.52,-219.33 786.35,-226.23"/>
</g>
<!-- Node14&#45;&gt;Node5 -->
<g id="edge16" class="edge">
<title>Node14&#45;&gt;Node5</title>
<path fill="none" stroke="midnightblue" d="M489.39,-165.57C455.44,-155.38 406.51,-140.7 375.89,-131.52"/>
<polygon fill="midnightblue" stroke="midnightblue" points="488.39,-168.92 498.98,-168.44 490.41,-162.22 488.39,-168.92"/>
</g>
<!-- Node15&#45;&gt;Node13 -->
<g id="edge21" class="edge">
<title>Node15&#45;&gt;Node13</title>
<path fill="none" stroke="midnightblue" d="M1134,-214.1C1132.34,-205.14 1130.44,-194.86 1129.12,-187.75"/>
<polygon fill="midnightblue" stroke="midnightblue" points="1130.59,-214.89 1135.85,-224.08 1137.47,-213.61 1130.59,-214.89"/>
</g>
<!-- Node16 -->
<g id="node16" class="node">
<title>Node16</title>
<g id="a_node16"><a xlink:href="constraints_8cpp.html" target="_top" xlink:title=" ">
<polygon fill="none" stroke="black" points="1184,-168.5 1184,-187.5 1275,-187.5 1275,-168.5 1184,-168.5"/>
<text text-anchor="middle" x="1229.5" y="-175.5" font-family="Helvetica,sans-Serif" font-size="10.00">constraints.cpp</text>
</a>
</g>
</g>
<!-- Node15&#45;&gt;Node16 -->
<g id="edge18" class="edge">
<title>Node15&#45;&gt;Node16</title>
<path fill="none" stroke="midnightblue" d="M1161.05,-219.18C1177.98,-209.24 1200.28,-196.15 1214.76,-187.65"/>
<polygon fill="midnightblue" stroke="midnightblue" points="1159.13,-216.24 1152.28,-224.32 1162.68,-222.28 1159.13,-216.24"/>
</g>
<!-- Node15&#45;&gt;Node17 -->
<g id="edge19" class="edge">
<title>Node15&#45;&gt;Node17</title>
<path fill="none" stroke="midnightblue" d="M1192.43,-222.58C1239.46,-213.6 1308.99,-200.2 1369.5,-188 1372.19,-187.46 1374.98,-186.89 1377.78,-186.31"/>
<polygon fill="midnightblue" stroke="midnightblue" points="1191.62,-219.17 1182.45,-224.48 1192.93,-226.05 1191.62,-219.17"/>
</g>
<!-- Node18 -->
<g id="node18" class="node">
<title>Node18</title>
<g id="a_node18"><a xlink:href="forces_8cpp.html" target="_top" xlink:title=" ">
<polygon fill="none" stroke="black" points="1293,-168.5 1293,-187.5 1360,-187.5 1360,-168.5 1293,-168.5"/>
<text text-anchor="middle" x="1326.5" y="-175.5" font-family="Helvetica,sans-Serif" font-size="10.00">forces.cpp</text>
</a>
</g>
</g>
<!-- Node15&#45;&gt;Node18 -->
<g id="edge20" class="edge">
<title>Node15&#45;&gt;Node18</title>
<path fill="none" stroke="midnightblue" d="M1177.51,-221.57C1213.17,-211.38 1264.54,-196.7 1296.69,-187.52"/>
<polygon fill="midnightblue" stroke="midnightblue" points="1176.1,-218.33 1167.45,-224.44 1178.02,-225.06 1176.1,-218.33"/>
</g>
<!-- Node19 -->
<g id="node19" class="node">
<title>Node19</title>
<g id="a_node19"><a xlink:href="script__interface_2constraints_2Constraints_8hpp.html" target="_top" xlink:title=" ">
<polygon fill="none" stroke="black" points="620,-168.5 620,-187.5 713,-187.5 713,-168.5 620,-168.5"/>
<text text-anchor="middle" x="666.5" y="-175.5" font-family="Helvetica,sans-Serif" font-size="10.00">Constraints.hpp</text>
</a>
</g>
</g>
<!-- Node15&#45;&gt;Node19 -->
<g id="edge22" class="edge">
<title>Node15&#45;&gt;Node19</title>
<path fill="none" stroke="midnightblue" d="M1081.01,-227.8C1001.06,-220.23 850.35,-205.19 722.5,-188 719.47,-187.59 716.36,-187.15 713.22,-186.69"/>
<polygon fill="midnightblue" stroke="midnightblue" points="1081.06,-231.32 1091.35,-228.78 1081.72,-224.35 1081.06,-231.32"/>
</g>
<!-- Node19&#45;&gt;Node5 -->
<g id="edge23" class="edge">
<title>Node19&#45;&gt;Node5</title>
<path fill="none" stroke="midnightblue" d="M609.85,-167.41C545.85,-156.58 443.35,-139.23 387.29,-129.74"/>
<polygon fill="midnightblue" stroke="midnightblue" points="609.33,-170.87 619.77,-169.09 610.5,-163.97 609.33,-170.87"/>
</g>
<!-- Node20&#45;&gt;Node10 -->
<g id="edge26" class="edge">
<title>Node20&#45;&gt;Node10</title>
<path fill="none" stroke="midnightblue" d="M449.28,-220.64C424.51,-210.5 390.1,-196.43 368.32,-187.52"/>
<polygon fill="midnightblue" stroke="midnightblue" points="448,-223.9 458.58,-224.44 450.65,-217.42 448,-223.9"/>
</g>
<!-- Node20&#45;&gt;Node14 -->
<g id="edge27" class="edge">
<title>Node20&#45;&gt;Node14</title>
<path fill="none" stroke="midnightblue" d="M494.23,-216.43C502.64,-206.97 512.85,-195.48 519.72,-187.75"/>
<polygon fill="midnightblue" stroke="midnightblue" points="491.45,-214.28 487.43,-224.08 496.69,-218.93 491.45,-214.28"/>
</g>
<!-- Node20&#45;&gt;Node19 -->
<g id="edge25" class="edge">
<title>Node20&#45;&gt;Node19</title>
<path fill="none" stroke="midnightblue" d="M519.09,-221.57C554.37,-211.38 605.19,-196.7 637.01,-187.52"/>
<polygon fill="midnightblue" stroke="midnightblue" points="517.77,-218.31 509.13,-224.44 519.71,-225.03 517.77,-218.31"/>
</g>
<!-- Node21&#45;&gt;Node13 -->
<g id="edge34" class="edge">
<title>Node21&#45;&gt;Node13</title>
<path fill="none" stroke="midnightblue" d="M1066.37,-270.41C1069.06,-256.84 1073.98,-238.38 1082.5,-224 1091.17,-209.36 1105.7,-196.05 1115.89,-187.77"/>
<polygon fill="midnightblue" stroke="midnightblue" points="1062.89,-270.01 1064.61,-280.46 1069.79,-271.22 1062.89,-270.01"/>
</g>
<!-- Node21&#45;&gt;Node15 -->
<g id="edge33" class="edge">
<title>Node21&#45;&gt;Node15</title>
<path fill="none" stroke="midnightblue" d="M1083.53,-274.38C1096.91,-264.62 1114.06,-252.11 1125.39,-243.83"/>
<polygon fill="midnightblue" stroke="midnightblue" points="1081.4,-271.6 1075.39,-280.32 1085.53,-277.26 1081.4,-271.6"/>
</g>
<!-- Node22&#45;&gt;Node2 -->
<g id="edge44" class="edge">
<title>Node22&#45;&gt;Node2</title>
<path fill="none" stroke="midnightblue" d="M1446.27,-342.5C1282.53,-333.44 721.82,-302.42 559.72,-293.45"/>
<polygon fill="midnightblue" stroke="midnightblue" points="1446.3,-346 1456.48,-343.06 1446.68,-339.02 1446.3,-346"/>
</g>
<!-- Node23 -->
<g id="node23" class="node">
<title>Node23</title>
<g id="a_node23"><a xlink:href="DipolarBarnesHut_8cpp.html" target="_top" xlink:title=" ">
<polygon fill="none" stroke="black" points="1289,-280.5 1289,-299.5 1412,-299.5 1412,-280.5 1289,-280.5"/>
<text text-anchor="middle" x="1350.5" y="-287.5" font-family="Helvetica,sans-Serif" font-size="10.00">DipolarBarnesHut.cpp</text>
</a>
</g>
</g>
<!-- Node22&#45;&gt;Node23 -->
<g id="edge41" class="edge">
<title>Node22&#45;&gt;Node23</title>
<path fill="none" stroke="midnightblue" d="M1459.57,-332.77C1433.09,-322.63 1396.11,-308.47 1372.74,-299.52"/>
<polygon fill="midnightblue" stroke="midnightblue" points="1458.57,-336.14 1469.16,-336.44 1461.07,-329.6 1458.57,-336.14"/>
</g>
<!-- Node24 -->
<g id="node24" class="node">
<title>Node24</title>
<g id="a_node24"><a xlink:href="DipolarDirectSum_8cpp.html" target="_top" xlink:title=" ">
<polygon fill="none" stroke="black" points="1430,-280.5 1430,-299.5 1553,-299.5 1553,-280.5 1430,-280.5"/>
<text text-anchor="middle" x="1491.5" y="-287.5" font-family="Helvetica,sans-Serif" font-size="10.00">DipolarDirectSum.cpp</text>
</a>
</g>
</g>
<!-- Node22&#45;&gt;Node24 -->
<g id="edge42" class="edge">
<title>Node22&#45;&gt;Node24</title>
<path fill="none" stroke="midnightblue" d="M1491.5,-325.8C1491.5,-316.91 1491.5,-306.78 1491.5,-299.75"/>
<polygon fill="midnightblue" stroke="midnightblue" points="1488,-326.08 1491.5,-336.08 1495,-326.08 1488,-326.08"/>
</g>
<!-- Node25 -->
<g id="node25" class="node">
<title>Node25</title>
<g id="a_node25"><a xlink:href="Mmm1dgpuForce_8cpp.html" target="_top" xlink:title=" ">
<polygon fill="none" stroke="black" points="1571.5,-280.5 1571.5,-299.5 1693.5,-299.5 1693.5,-280.5 1571.5,-280.5"/>
<text text-anchor="middle" x="1632.5" y="-287.5" font-family="Helvetica,sans-Serif" font-size="10.00">Mmm1dgpuForce.cpp</text>
</a>
</g>
</g>
<!-- Node22&#45;&gt;Node25 -->
<g id="edge43" class="edge">
<title>Node22&#45;&gt;Node25</title>
<path fill="none" stroke="midnightblue" d="M1523.43,-332.77C1549.91,-322.63 1586.89,-308.47 1610.26,-299.52"/>
<polygon fill="midnightblue" stroke="midnightblue" points="1521.93,-329.6 1513.84,-336.44 1524.43,-336.14 1521.93,-329.6"/>
</g>
<!-- Node22&#45;&gt;Node26 -->
<g id="edge45" class="edge">
<title>Node22&#45;&gt;Node26</title>
<path fill="none" stroke="midnightblue" d="M1446.24,-336.05C1394.95,-325.9 1311.96,-309.49 1261.59,-299.52"/>
<polygon fill="midnightblue" stroke="midnightblue" points="1445.88,-339.54 1456.37,-338.05 1447.24,-332.68 1445.88,-339.54"/>
</g>
<!-- Node34 -->
<g id="node34" class="node">
<title>Node34</title>
<g id="a_node34"><a xlink:href="EnergyObservable_8hpp.html" target="_top" xlink:title=" ">
<polygon fill="none" stroke="black" points="1712,-280.5 1712,-299.5 1839,-299.5 1839,-280.5 1712,-280.5"/>
<text text-anchor="middle" x="1775.5" y="-287.5" font-family="Helvetica,sans-Serif" font-size="10.00">EnergyObservable.hpp</text>
</a>
</g>
</g>
<!-- Node22&#45;&gt;Node34 -->
<g id="edge56" class="edge">
<title>Node22&#45;&gt;Node34</title>
<path fill="none" stroke="midnightblue" d="M1536.43,-336.46C1589.59,-326.35 1677.55,-309.63 1730.66,-299.53"/>
<polygon fill="midnightblue" stroke="midnightblue" points="1535.78,-333.02 1526.61,-338.32 1537.09,-339.89 1535.78,-333.02"/>
</g>
<!-- Node37 -->
<g id="node37" class="node">
<title>Node37</title>
<g id="a_node37"><a xlink:href="ReactionAlgorithm_8cpp.html" target="_top" xlink:title=" ">
<polygon fill="none" stroke="black" points="1857.5,-280.5 1857.5,-299.5 1985.5,-299.5 1985.5,-280.5 1857.5,-280.5"/>
<text text-anchor="middle" x="1921.5" y="-287.5" font-family="Helvetica,sans-Serif" font-size="10.00">ReactionAlgorithm.cpp</text>
</a>
</g>
</g>
<!-- Node22&#45;&gt;Node37 -->
<g id="edge59" class="edge">
<title>Node22&#45;&gt;Node37</title>
<path fill="none" stroke="midnightblue" d="M1536.99,-339.29C1613.78,-329.64 1769.35,-310.11 1857.25,-299.07"/>
<polygon fill="midnightblue" stroke="midnightblue" points="1536.17,-335.86 1526.69,-340.58 1537.05,-342.81 1536.17,-335.86"/>
</g>
<!-- Node38 -->
<g id="node38" class="node">
<title>Node38</title>
<g id="a_node38"><a xlink:href="WidomInsertion_8cpp.html" target="_top" xlink:title=" ">
<polygon fill="none" stroke="black" points="2003.5,-280.5 2003.5,-299.5 2117.5,-299.5 2117.5,-280.5 2003.5,-280.5"/>
<text text-anchor="middle" x="2060.5" y="-287.5" font-family="Helvetica,sans-Serif" font-size="10.00">WidomInsertion.cpp</text>
</a>
</g>
</g>
<!-- Node22&#45;&gt;Node38 -->
<g id="edge60" class="edge">
<title>Node22&#45;&gt;Node38</title>
<path fill="none" stroke="midnightblue" d="M1536.81,-341.65C1625.04,-334.98 1826.02,-319.01 1994.5,-300 1997.37,-299.68 2000.31,-299.33 2003.28,-298.97"/>
<polygon fill="midnightblue" stroke="midnightblue" points="1536.33,-338.18 1526.62,-342.42 1536.86,-345.16 1536.33,-338.18"/>
</g>
<!-- Node26&#45;&gt;Node12 -->
<g id="edge46" class="edge">
<title>Node26&#45;&gt;Node12</title>
<path fill="none" stroke="midnightblue" d="M1171.97,-277.76C1144.95,-270.23 1110.77,-258.94 1082.5,-244 1052.28,-228.03 1021.59,-201.44 1006.72,-187.74"/>
<polygon fill="midnightblue" stroke="midnightblue" points="1171.38,-281.22 1181.95,-280.46 1173.21,-274.47 1171.38,-281.22"/>
</g>
<!-- Node26&#45;&gt;Node17 -->
<g id="edge47" class="edge">
<title>Node26&#45;&gt;Node17</title>
<path fill="none" stroke="midnightblue" d="M1242.66,-275.3C1283.22,-252.3 1363.84,-206.59 1397.35,-187.59"/>
<polygon fill="midnightblue" stroke="midnightblue" points="1240.7,-272.39 1233.72,-280.37 1244.15,-278.48 1240.7,-272.39"/>
</g>
<!-- Node27 -->
<g id="node27" class="node">
<title>Node27</title>
<g id="a_node27"><a xlink:href="core_2pair__criteria_2pair__criteria_8hpp.html" target="_top" xlink:title=" ">
<polygon fill="none" stroke="black" points="1453.5,-224.5 1453.5,-243.5 1549.5,-243.5 1549.5,-224.5 1453.5,-224.5"/>
<text text-anchor="middle" x="1501.5" y="-231.5" font-family="Helvetica,sans-Serif" font-size="10.00">pair_criteria.hpp</text>
</a>
</g>
</g>
<!-- Node26&#45;&gt;Node27 -->
<g id="edge48" class="edge">
<title>Node26&#45;&gt;Node27</title>
<path fill="none" stroke="midnightblue" d="M1273.33,-278.54C1326.82,-268.33 1407.17,-253 1456.87,-243.52"/>
<polygon fill="midnightblue" stroke="midnightblue" points="1272.51,-275.13 1263.34,-280.44 1273.82,-282.01 1272.51,-275.13"/>
</g>
<!-- Node28 -->
<g id="node28" class="node">
<title>Node28</title>
<g id="a_node28"><a xlink:href="script__interface_2pair__criteria_2pair__criteria_8hpp.html" target="_top" xlink:title=" ">
<polygon fill="none" stroke="black" points="1465.5,-168.5 1465.5,-187.5 1561.5,-187.5 1561.5,-168.5 1465.5,-168.5"/>
<text text-anchor="middle" x="1513.5" y="-175.5" font-family="Helvetica,sans-Serif" font-size="10.00">pair_criteria.hpp</text>
</a>
</g>
</g>
<!-- Node27&#45;&gt;Node28 -->
<g id="edge49" class="edge">
<title>Node27&#45;&gt;Node28</title>
<path fill="none" stroke="midnightblue" d="M1505.7,-214.1C1507.69,-205.14 1509.98,-194.86 1511.56,-187.75"/>
<polygon fill="midnightblue" stroke="midnightblue" points="1502.23,-213.56 1503.48,-224.08 1509.07,-215.08 1502.23,-213.56"/>
</g>
<!-- Node29 -->
<g id="node29" class="node">
<title>Node29</title>
<g id="a_node29"><a xlink:href="core_2cluster__analysis_2ClusterStructure_8hpp.html" target="_top" xlink:title=" ">
<polygon fill="none" stroke="black" points="1369.5,-112.5 1369.5,-131.5 1485.5,-131.5 1485.5,-112.5 1369.5,-112.5"/>
<text text-anchor="middle" x="1427.5" y="-119.5" font-family="Helvetica,sans-Serif" font-size="10.00">ClusterStructure.hpp</text>
</a>
</g>
</g>
<!-- Node28&#45;&gt;Node29 -->
<g id="edge50" class="edge">
<title>Node28&#45;&gt;Node29</title>
<path fill="none" stroke="midnightblue" d="M1491.05,-162.9C1475.28,-153 1454.69,-140.07 1441.28,-131.65"/>
<polygon fill="midnightblue" stroke="midnightblue" points="1489.35,-165.97 1499.68,-168.32 1493.07,-160.04 1489.35,-165.97"/>
</g>
<!-- Node31 -->
<g id="node31" class="node">
<title>Node31</title>
<g id="a_node31"><a xlink:href="script__interface_2cluster__analysis_2ClusterStructure_8hpp.html" target="_top" xlink:title=" ">
<polygon fill="none" stroke="black" points="1455.5,-56.5 1455.5,-75.5 1571.5,-75.5 1571.5,-56.5 1455.5,-56.5"/>
<text text-anchor="middle" x="1513.5" y="-63.5" font-family="Helvetica,sans-Serif" font-size="10.00">ClusterStructure.hpp</text>
</a>
</g>
</g>
<!-- Node28&#45;&gt;Node31 -->
<g id="edge54" class="edge">
<title>Node28&#45;&gt;Node31</title>
<path fill="none" stroke="midnightblue" d="M1513.5,-158.35C1513.5,-134.25 1513.5,-93.31 1513.5,-75.59"/>
<polygon fill="midnightblue" stroke="midnightblue" points="1510,-158.37 1513.5,-168.37 1517,-158.37 1510,-158.37"/>
</g>
<!-- Node33 -->
<g id="node33" class="node">
<title>Node33</title>
<g id="a_node33"><a xlink:href="pair__criteria_2initialize_8cpp.html" target="_top" xlink:title=" ">
<polygon fill="none" stroke="black" points="1542,-112.5 1542,-131.5 1621,-131.5 1621,-112.5 1542,-112.5"/>
<text text-anchor="middle" x="1581.5" y="-119.5" font-family="Helvetica,sans-Serif" font-size="10.00">initialize.cpp</text>
</a>
</g>
</g>
<!-- Node28&#45;&gt;Node33 -->
<g id="edge55" class="edge">
<title>Node28&#45;&gt;Node33</title>
<path fill="none" stroke="midnightblue" d="M1532.26,-162.1C1544.5,-152.38 1560.06,-140.03 1570.38,-131.83"/>
<polygon fill="midnightblue" stroke="midnightblue" points="1530.08,-159.36 1524.43,-168.32 1534.43,-164.85 1530.08,-159.36"/>
</g>
<!-- Node30 -->
<g id="node30" class="node">
<title>Node30</title>
<g id="a_node30"><a xlink:href="ClusterStructure_8cpp.html" target="_top" xlink:title=" ">
<polygon fill="none" stroke="black" points="1321.5,-56.5 1321.5,-75.5 1437.5,-75.5 1437.5,-56.5 1321.5,-56.5"/>
<text text-anchor="middle" x="1379.5" y="-63.5" font-family="Helvetica,sans-Serif" font-size="10.00">ClusterStructure.cpp</text>
</a>
</g>
</g>
<!-- Node29&#45;&gt;Node30 -->
<g id="edge51" class="edge">
<title>Node29&#45;&gt;Node30</title>
<path fill="none" stroke="midnightblue" d="M1412.77,-104.43C1404.36,-94.97 1394.15,-83.48 1387.28,-75.75"/>
<polygon fill="midnightblue" stroke="midnightblue" points="1410.31,-106.93 1419.57,-112.08 1415.55,-102.28 1410.31,-106.93"/>
</g>
<!-- Node29&#45;&gt;Node31 -->
<g id="edge52" class="edge">
<title>Node29&#45;&gt;Node31</title>
<path fill="none" stroke="midnightblue" d="M1449.95,-106.9C1465.72,-97 1486.31,-84.07 1499.72,-75.65"/>
<polygon fill="midnightblue" stroke="midnightblue" points="1447.93,-104.04 1441.32,-112.32 1451.65,-109.97 1447.93,-104.04"/>
</g>
<!-- Node32 -->
<g id="node32" class="node">
<title>Node32</title>
<g id="a_node32"><a xlink:href="cluster__analysis_2initialize_8cpp.html" target="_top" xlink:title=" ">
<polygon fill="none" stroke="black" points="1474,-0.5 1474,-19.5 1553,-19.5 1553,-0.5 1474,-0.5"/>
<text text-anchor="middle" x="1513.5" y="-7.5" font-family="Helvetica,sans-Serif" font-size="10.00">initialize.cpp</text>
</a>
</g>
</g>
<!-- Node31&#45;&gt;Node32 -->
<g id="edge53" class="edge">
<title>Node31&#45;&gt;Node32</title>
<path fill="none" stroke="midnightblue" d="M1513.5,-45.8C1513.5,-36.91 1513.5,-26.78 1513.5,-19.75"/>
<polygon fill="midnightblue" stroke="midnightblue" points="1510,-46.08 1513.5,-56.08 1517,-46.08 1510,-46.08"/>
</g>
<!-- Node35 -->
<g id="node35" class="node">
<title>Node35</title>
<g id="a_node35"><a xlink:href="ParamlessObservable_8hpp.html" target="_top" xlink:title=" ">
<polygon fill="none" stroke="black" points="2131.5,-224.5 2131.5,-243.5 2275.5,-243.5 2275.5,-224.5 2131.5,-224.5"/>
<text text-anchor="middle" x="2203.5" y="-231.5" font-family="Helvetica,sans-Serif" font-size="10.00">ParamlessObservable.hpp</text>
</a>
</g>
</g>
<!-- Node34&#45;&gt;Node35 -->
<g id="edge57" class="edge">
<title>Node34&#45;&gt;Node35</title>
<path fill="none" stroke="midnightblue" d="M1849.19,-279.7C1929.8,-269.53 2057.92,-253.37 2136,-243.52"/>
<polygon fill="midnightblue" stroke="midnightblue" points="1848.6,-276.25 1839.11,-280.97 1849.47,-283.19 1848.6,-276.25"/>
</g>
<!-- Node36 -->
<g id="node36" class="node">
<title>Node36</title>
<g id="a_node36"><a xlink:href="observables_2initialize_8cpp.html" target="_top" xlink:title=" ">
<polygon fill="none" stroke="black" points="2164,-168.5 2164,-187.5 2243,-187.5 2243,-168.5 2164,-168.5"/>
<text text-anchor="middle" x="2203.5" y="-175.5" font-family="Helvetica,sans-Serif" font-size="10.00">initialize.cpp</text>
</a>
</g>
</g>
<!-- Node35&#45;&gt;Node36 -->
<g id="edge58" class="edge">
<title>Node35&#45;&gt;Node36</title>
<path fill="none" stroke="midnightblue" d="M2203.5,-213.8C2203.5,-204.91 2203.5,-194.78 2203.5,-187.75"/>
<polygon fill="midnightblue" stroke="midnightblue" points="2200,-214.08 2203.5,-224.08 2207,-214.08 2200,-214.08"/>
</g>
<!-- Node41 -->
<g id="node41" class="node">
<title>Node41</title>
<g id="a_node41"><a xlink:href="PressureObservable_8hpp.html" target="_top" xlink:title=" ">
<polygon fill="none" stroke="black" points="2136,-280.5 2136,-299.5 2271,-299.5 2271,-280.5 2136,-280.5"/>
<text text-anchor="middle" x="2203.5" y="-287.5" font-family="Helvetica,sans-Serif" font-size="10.00">PressureObservable.hpp</text>
</a>
</g>
</g>
<!-- Node40&#45;&gt;Node41 -->
<g id="edge64" class="edge">
<title>Node40&#45;&gt;Node41</title>
<path fill="none" stroke="midnightblue" d="M2312.57,-332.77C2286.09,-322.63 2249.11,-308.47 2225.74,-299.52"/>
<polygon fill="midnightblue" stroke="midnightblue" points="2311.57,-336.14 2322.16,-336.44 2314.07,-329.6 2311.57,-336.14"/>
</g>
<!-- Node42 -->
<g id="node42" class="node">
<title>Node42</title>
<g id="a_node42"><a xlink:href="PressureTensor_8hpp.html" target="_top" xlink:title=" ">
<polygon fill="none" stroke="black" points="2289,-280.5 2289,-299.5 2400,-299.5 2400,-280.5 2289,-280.5"/>
<text text-anchor="middle" x="2344.5" y="-287.5" font-family="Helvetica,sans-Serif" font-size="10.00">PressureTensor.hpp</text>
</a>
</g>
</g>
<!-- Node40&#45;&gt;Node42 -->
<g id="edge66" class="edge">
<title>Node40&#45;&gt;Node42</title>
<path fill="none" stroke="midnightblue" d="M2344.5,-325.8C2344.5,-316.91 2344.5,-306.78 2344.5,-299.75"/>
<polygon fill="midnightblue" stroke="midnightblue" points="2341,-326.08 2344.5,-336.08 2348,-326.08 2341,-326.08"/>
</g>
<!-- Node40&#45;&gt;Node43 -->
<g id="edge68" class="edge">
<title>Node40&#45;&gt;Node43</title>
<path fill="none" stroke="midnightblue" d="M2367.67,-330.94C2380.56,-322.65 2396.56,-311.54 2409.5,-300 2429.89,-281.82 2450.1,-256.64 2460.08,-243.6"/>
<polygon fill="midnightblue" stroke="midnightblue" points="2365.53,-328.16 2358.93,-336.45 2369.26,-334.08 2365.53,-328.16"/>
</g>
<!-- Node40&#45;&gt;Node44 -->
<g id="edge69" class="edge">
<title>Node40&#45;&gt;Node44</title>
<path fill="none" stroke="midnightblue" d="M2387.12,-333.83C2426.01,-323.63 2482.66,-308.78 2518.01,-299.52"/>
<polygon fill="midnightblue" stroke="midnightblue" points="2385.93,-330.52 2377.14,-336.44 2387.7,-337.29 2385.93,-330.52"/>
</g>
<!-- Node41&#45;&gt;Node35 -->
<g id="edge65" class="edge">
<title>Node41&#45;&gt;Node35</title>
<path fill="none" stroke="midnightblue" d="M2203.5,-269.8C2203.5,-260.91 2203.5,-250.78 2203.5,-243.75"/>
<polygon fill="midnightblue" stroke="midnightblue" points="2200,-270.08 2203.5,-280.08 2207,-270.08 2200,-270.08"/>
</g>
<!-- Node42&#45;&gt;Node35 -->
<g id="edge67" class="edge">
<title>Node42&#45;&gt;Node35</title>
<path fill="none" stroke="midnightblue" d="M2312.57,-276.77C2286.09,-266.63 2249.11,-252.47 2225.74,-243.52"/>
<polygon fill="midnightblue" stroke="midnightblue" points="2311.57,-280.14 2322.16,-280.44 2314.07,-273.6 2311.57,-280.14"/>
</g>
<!-- Node44&#45;&gt;Node43 -->
<g id="edge70" class="edge">
<title>Node44&#45;&gt;Node43</title>
<path fill="none" stroke="midnightblue" d="M2528.57,-274.9C2513.16,-265 2493.05,-252.07 2479.96,-243.65"/>
<polygon fill="midnightblue" stroke="midnightblue" points="2526.7,-277.86 2537,-280.32 2530.48,-271.97 2526.7,-277.86"/>
</g>
</g>
</svg>
        <g id="navigator" transform="translate(0 0)" fill="#404254">
                <rect fill="#f2f5e9" fill-opacity="0.5" stroke="#606060" stroke-width=".5" x="0" y="0" width="60" height="60"/>
                <use id="zoomplus" xlink:href="#zoomPlus" x="17" y="9" onmousedown="handleZoom(evt,'in')"/>
                <use id="zoomminus" xlink:href="#zoomMin" x="42" y="9" onmousedown="handleZoom(evt,'out')"/>
                <use id="reset" xlink:href="#resetDef" x="30" y="36" onmousedown="handleReset()"/>
                <g id="arrowUp" xlink:href="#dirArrow" transform="translate(30 24)" onmousedown="handlePan(0,-1)">
                  <use xlink:href="#rim" fill="#404040">
                        <set attributeName="fill" to="#808080" begin="arrowUp.mouseover" end="arrowUp.mouseout"/>
                  </use>
                  <path fill="none" stroke="white" stroke-width="1.5" d="M0,-3.0v7 M-2.5,-0.5L0,-3.0L2.5,-0.5"/>
                </g>
                <g id="arrowRight" xlink:href="#dirArrow" transform="rotate(90) translate(36 -43)" onmousedown="handlePan(1,0)">
                  <use xlink:href="#rim" fill="#404040">
                        <set attributeName="fill" to="#808080" begin="arrowRight.mouseover" end="arrowRight.mouseout"/>
                  </use>
                  <path fill="none" stroke="white" stroke-width="1.5" d="M0,-3.0v7 M-2.5,-0.5L0,-3.0L2.5,-0.5"/>
                </g>
                <g id="arrowDown" xlink:href="#dirArrow" transform="rotate(180) translate(-30 -48)" onmousedown="handlePan(0,1)">
                  <use xlink:href="#rim" fill="#404040">
                        <set attributeName="fill" to="#808080" begin="arrowDown.mouseover" end="arrowDown.mouseout"/>
                  </use>
                  <path fill="none" stroke="white" stroke-width="1.5" d="M0,-3.0v7 M-2.5,-0.5L0,-3.0L2.5,-0.5"/>
                </g>
                <g id="arrowLeft" xlink:href="#dirArrow" transform="rotate(270) translate(-36 17)" onmousedown="handlePan(-1,0)">
                  <use xlink:href="#rim" fill="#404040">
                        <set attributeName="fill" to="#808080" begin="arrowLeft.mouseover" end="arrowLeft.mouseout"/>
                  </use>
                  <path fill="none" stroke="white" stroke-width="1.5" d="M0,-3.0v7 M-2.5,-0.5L0,-3.0L2.5,-0.5"/>
                </g>
        </g>
        <svg viewBox="0 0 15 15" width="100%" height="30px" preserveAspectRatio="xMaxYMin meet">
         <g id="arrow_out" transform="scale(0.3 0.3)">
          <a xlink:href="Observable__stat_8hpp__dep__incl_org.svg" target="_base">
           <rect id="button" ry="5" rx="5" y="6" x="6" height="38" width="38"
                fill="#f2f5e9" fill-opacity="0.5" stroke="#606060" stroke-width="1.0"/>
           <path id="arrow"
             d="M 11.500037,31.436501 C 11.940474,20.09759 22.043105,11.32322 32.158766,21.979434 L 37.068811,17.246167 C 37.068811,17.246167 37.088388,32 37.088388,32 L 22.160133,31.978069 C 22.160133,31.978069 26.997745,27.140456 26.997745,27.140456 C 18.528582,18.264221 13.291696,25.230495 11.500037,31.436501 z"
             style="fill:#404040;"/>
          </a>
         </g>
        </svg>
</svg>
