<?xml version="1.0" encoding="UTF-8" standalone="no"?>
<!DOCTYPE svg PUBLIC "-//W3C//DTD SVG 1.1//EN"
 "http://www.w3.org/Graphics/SVG/1.1/DTD/svg11.dtd">
<!-- Generated by graphviz version 2.43.0 (0)
 -->
<!-- Title: OptionalCounter.hpp Pages: 1 -->
<svg width="1038pt" height="151pt"
 viewBox="0.00 0.00 1037.50 151.00" xmlns="http://www.w3.org/2000/svg" xmlns:xlink="http://www.w3.org/1999/xlink">
<g id="graph0" class="graph" transform="scale(1 1) rotate(0) translate(4 147)">
<title>OptionalCounter.hpp</title>
<!-- Node1 -->
<g id="node1" class="node">
<title>Node1</title>
<g id="a_node1"><a xlink:title=" ">
<polygon fill="#bfbfbf" stroke="black" points="453,-123.5 453,-142.5 570,-142.5 570,-123.5 453,-123.5"/>
<text text-anchor="middle" x="511.5" y="-130.5" font-family="Helvetica,sans-Serif" font-size="10.00">OptionalCounter.hpp</text>
</a>
</g>
</g>
<!-- Node2 -->
<g id="node2" class="node">
<title>Node2</title>
<g id="a_node2"><a xlink:href="lb__particle__coupling_8hpp.html" target="_top" xlink:title=" ">
<polygon fill="none" stroke="black" points="184,-67.5 184,-86.5 319,-86.5 319,-67.5 184,-67.5"/>
<text text-anchor="middle" x="251.5" y="-74.5" font-family="Helvetica,sans-Serif" font-size="10.00">lb_particle_coupling.hpp</text>
</a>
</g>
</g>
<!-- Node1&#45;&gt;Node2 -->
<g id="edge1" class="edge">
<title>Node1&#45;&gt;Node2</title>
<path fill="none" stroke="midnightblue" d="M460.51,-121.41C411.37,-111.2 337.97,-95.96 292.51,-86.52"/>
<polygon fill="midnightblue" stroke="midnightblue" points="459.8,-124.84 470.3,-123.44 461.22,-117.98 459.8,-124.84"/>
</g>
<!-- Node5 -->
<g id="node5" class="node">
<title>Node5</title>
<g id="a_node5"><a xlink:href="lb__particle__coupling_8cpp.html" target="_top" xlink:title=" ">
<polygon fill="none" stroke="black" points="184.5,-6 184.5,-25 318.5,-25 318.5,-6 184.5,-6"/>
<text text-anchor="middle" x="251.5" y="-13" font-family="Helvetica,sans-Serif" font-size="10.00">lb_particle_coupling.cpp</text>
</a>
</g>
</g>
<!-- Node1&#45;&gt;Node5 -->
<g id="edge14" class="edge">
<title>Node1&#45;&gt;Node5</title>
<path fill="none" stroke="midnightblue" d="M482.71,-119.21C429.32,-95.49 316.26,-45.27 270.91,-25.12"/>
<polygon fill="midnightblue" stroke="midnightblue" points="481.4,-122.46 491.96,-123.32 484.24,-116.06 481.4,-122.46"/>
</g>
<!-- Node7 -->
<g id="node7" class="node">
<title>Node7</title>
<g id="a_node7"><a xlink:href="lbgpu_8hpp.html" target="_top" xlink:title=" ">
<polygon fill="none" stroke="black" points="579,-67.5 579,-86.5 644,-86.5 644,-67.5 579,-67.5"/>
<text text-anchor="middle" x="611.5" y="-74.5" font-family="Helvetica,sans-Serif" font-size="10.00">lbgpu.hpp</text>
</a>
</g>
</g>
<!-- Node1&#45;&gt;Node7 -->
<g id="edge6" class="edge">
<title>Node1&#45;&gt;Node7</title>
<path fill="none" stroke="midnightblue" d="M536.59,-118.45C555.05,-108.48 579.6,-95.23 595.47,-86.65"/>
<polygon fill="midnightblue" stroke="midnightblue" points="534.7,-115.49 527.57,-123.32 538.03,-121.65 534.7,-115.49"/>
</g>
<!-- Node11 -->
<g id="node11" class="node">
<title>Node11</title>
<g id="a_node11"><a xlink:href="lbgpu__cuda_8cu.html" target="_top" xlink:title=" ">
<polygon fill="none" stroke="black" points="943.5,-6 943.5,-25 1029.5,-25 1029.5,-6 943.5,-6"/>
<text text-anchor="middle" x="986.5" y="-13" font-family="Helvetica,sans-Serif" font-size="10.00">lbgpu_cuda.cu</text>
</a>
</g>
</g>
<!-- Node1&#45;&gt;Node11 -->
<g id="edge15" class="edge">
<title>Node1&#45;&gt;Node11</title>
<path fill="none" stroke="midnightblue" d="M559.32,-121.2C637.85,-103.32 798.96,-66.06 934.5,-31 941.67,-29.15 949.36,-27.05 956.58,-25.05"/>
<polygon fill="midnightblue" stroke="midnightblue" points="558.22,-117.86 549.25,-123.49 559.78,-124.68 558.22,-117.86"/>
</g>
<!-- Node3 -->
<g id="node3" class="node">
<title>Node3</title>
<g id="a_node3"><a xlink:href="forces_8cpp.html" target="_top" xlink:title=" ">
<polygon fill="none" stroke="black" points="99,-6 99,-25 166,-25 166,-6 99,-6"/>
<text text-anchor="middle" x="132.5" y="-13" font-family="Helvetica,sans-Serif" font-size="10.00">forces.cpp</text>
</a>
</g>
</g>
<!-- Node2&#45;&gt;Node3 -->
<g id="edge2" class="edge">
<title>Node2&#45;&gt;Node3</title>
<path fill="none" stroke="midnightblue" d="M225.23,-62.87C202.17,-51.33 169.3,-34.9 149.52,-25.01"/>
<polygon fill="midnightblue" stroke="midnightblue" points="223.94,-66.13 234.45,-67.48 227.07,-59.87 223.94,-66.13"/>
</g>
<!-- Node4 -->
<g id="node4" class="node">
<title>Node4</title>
<g id="a_node4"><a xlink:href="electrokinetics__cuda_8cu.html" target="_top" xlink:title=" ">
<polygon fill="none" stroke="black" points="337,-6 337,-25 468,-25 468,-6 337,-6"/>
<text text-anchor="middle" x="402.5" y="-13" font-family="Helvetica,sans-Serif" font-size="10.00">electrokinetics_cuda.cu</text>
</a>
</g>
</g>
<!-- Node2&#45;&gt;Node4 -->
<g id="edge3" class="edge">
<title>Node2&#45;&gt;Node4</title>
<path fill="none" stroke="midnightblue" d="M282.51,-63.78C311.85,-52.22 355.13,-35.16 380.91,-25.01"/>
<polygon fill="midnightblue" stroke="midnightblue" points="281.16,-60.55 273.13,-67.48 283.72,-67.07 281.16,-60.55"/>
</g>
<!-- Node2&#45;&gt;Node5 -->
<g id="edge4" class="edge">
<title>Node2&#45;&gt;Node5</title>
<path fill="none" stroke="midnightblue" d="M251.5,-57.32C251.5,-46.5 251.5,-33.4 251.5,-25.01"/>
<polygon fill="midnightblue" stroke="midnightblue" points="248,-57.48 251.5,-67.48 255,-57.48 248,-57.48"/>
</g>
<!-- Node6 -->
<g id="node6" class="node">
<title>Node6</title>
<g id="a_node6"><a xlink:href="integrate_8cpp.html" target="_top" xlink:title=" ">
<polygon fill="none" stroke="black" points="0,-6 0,-25 81,-25 81,-6 0,-6"/>
<text text-anchor="middle" x="40.5" y="-13" font-family="Helvetica,sans-Serif" font-size="10.00">integrate.cpp</text>
</a>
</g>
</g>
<!-- Node2&#45;&gt;Node6 -->
<g id="edge5" class="edge">
<title>Node2&#45;&gt;Node6</title>
<path fill="none" stroke="midnightblue" d="M210.41,-64.79C177.63,-55.8 130.57,-42.78 89.5,-31 82.85,-29.09 75.7,-27 68.98,-25.01"/>
<polygon fill="midnightblue" stroke="midnightblue" points="209.53,-68.18 220.1,-67.44 211.38,-61.43 209.53,-68.18"/>
</g>
<!-- Node7&#45;&gt;Node4 -->
<g id="edge7" class="edge">
<title>Node7&#45;&gt;Node4</title>
<path fill="none" stroke="midnightblue" d="M571.72,-64.68C531.11,-53.11 468.99,-35.43 432.39,-25.01"/>
<polygon fill="midnightblue" stroke="midnightblue" points="570.98,-68.1 581.56,-67.48 572.9,-61.37 570.98,-68.1"/>
</g>
<!-- Node7&#45;&gt;Node5 -->
<g id="edge10" class="edge">
<title>Node7&#45;&gt;Node5</title>
<path fill="none" stroke="midnightblue" d="M568.44,-69.61C512.74,-61.24 412.74,-45.88 327.5,-31 316.91,-29.15 305.52,-27.04 294.86,-25.02"/>
<polygon fill="midnightblue" stroke="midnightblue" points="568.24,-73.12 578.65,-71.14 569.28,-66.19 568.24,-73.12"/>
</g>
<!-- Node8 -->
<g id="node8" class="node">
<title>Node8</title>
<g id="a_node8"><a xlink:href="lb__boundaries_8cpp.html" target="_top" xlink:title=" ">
<polygon fill="none" stroke="black" points="625,-6 625,-25 730,-25 730,-6 625,-6"/>
<text text-anchor="middle" x="677.5" y="-13" font-family="Helvetica,sans-Serif" font-size="10.00">lb_boundaries.cpp</text>
</a>
</g>
</g>
<!-- Node7&#45;&gt;Node8 -->
<g id="edge8" class="edge">
<title>Node7&#45;&gt;Node8</title>
<path fill="none" stroke="midnightblue" d="M628.53,-60.65C641.11,-49.31 657.78,-34.28 668.06,-25.01"/>
<polygon fill="midnightblue" stroke="midnightblue" points="626.04,-58.18 620.96,-67.48 630.73,-63.38 626.04,-58.18"/>
</g>
<!-- Node9 -->
<g id="node9" class="node">
<title>Node9</title>
<g id="a_node9"><a xlink:href="lb__interface_8cpp.html" target="_top" xlink:title=" ">
<polygon fill="none" stroke="black" points="748,-6 748,-25 843,-25 843,-6 748,-6"/>
<text text-anchor="middle" x="795.5" y="-13" font-family="Helvetica,sans-Serif" font-size="10.00">lb_interface.cpp</text>
</a>
</g>
</g>
<!-- Node7&#45;&gt;Node9 -->
<g id="edge9" class="edge">
<title>Node7&#45;&gt;Node9</title>
<path fill="none" stroke="midnightblue" d="M647.43,-64.38C683.2,-52.82 737.24,-35.34 769.19,-25.01"/>
<polygon fill="midnightblue" stroke="midnightblue" points="646.3,-61.07 637.86,-67.48 648.45,-67.73 646.3,-61.07"/>
</g>
<!-- Node10 -->
<g id="node10" class="node">
<title>Node10</title>
<g id="a_node10"><a xlink:href="lbgpu_8cpp.html" target="_top" xlink:title=" ">
<polygon fill="none" stroke="black" points="861.5,-6 861.5,-25 925.5,-25 925.5,-6 861.5,-6"/>
<text text-anchor="middle" x="893.5" y="-13" font-family="Helvetica,sans-Serif" font-size="10.00">lbgpu.cpp</text>
</a>
</g>
</g>
<!-- Node7&#45;&gt;Node10 -->
<g id="edge11" class="edge">
<title>Node7&#45;&gt;Node10</title>
<path fill="none" stroke="midnightblue" d="M654.35,-70.06C702.89,-62.85 784.14,-49.35 852.5,-31 858.63,-29.36 865.15,-27.23 871.14,-25.11"/>
<polygon fill="midnightblue" stroke="midnightblue" points="653.6,-66.63 644.21,-71.54 654.62,-73.56 653.6,-66.63"/>
</g>
<!-- Node7&#45;&gt;Node11 -->
<g id="edge12" class="edge">
<title>Node7&#45;&gt;Node11</title>
<path fill="none" stroke="midnightblue" d="M654.51,-71.85C716.72,-65.44 835.2,-51.66 934.5,-31 942.39,-29.36 950.85,-27.18 958.6,-25.02"/>
<polygon fill="midnightblue" stroke="midnightblue" points="653.89,-68.4 644.3,-72.89 654.6,-75.36 653.89,-68.4"/>
</g>
<!-- Node12 -->
<g id="node12" class="node">
<title>Node12</title>
<g id="a_node12"><a xlink:href="lb__inertialess__tracers__cuda_8cu.html" target="_top" xlink:title=" ">
<polygon fill="none" stroke="black" points="486,-0.5 486,-30.5 607,-30.5 607,-0.5 486,-0.5"/>
<text text-anchor="start" x="494" y="-18.5" font-family="Helvetica,sans-Serif" font-size="10.00">lb_inertialess_tracers</text>
<text text-anchor="middle" x="546.5" y="-7.5" font-family="Helvetica,sans-Serif" font-size="10.00">_cuda.cu</text>
</a>
</g>
</g>
<!-- Node7&#45;&gt;Node12 -->
<g id="edge13" class="edge">
<title>Node7&#45;&gt;Node12</title>
<path fill="none" stroke="midnightblue" d="M594.73,-60.65C584.57,-51.35 571.7,-39.57 561.82,-30.52"/>
<polygon fill="midnightblue" stroke="midnightblue" points="592.45,-63.3 602.19,-67.48 597.17,-58.14 592.45,-63.3"/>
</g>
</g>
</svg>
