<?xml version="1.0" encoding="UTF-8" standalone="no"?>
<!DOCTYPE svg PUBLIC "-//W3C//DTD SVG 1.1//EN"
 "http://www.w3.org/Graphics/SVG/1.1/DTD/svg11.dtd">
<!-- Generated by graphviz version 2.43.0 (0)
 -->
<!-- Title: orthonormal_vec.hpp Pages: 1 -->
<svg width="1285pt" height="274pt"
 viewBox="0.00 0.00 1284.62 274.00" xmlns="http://www.w3.org/2000/svg" xmlns:xlink="http://www.w3.org/1999/xlink">
<g id="graph0" class="graph" transform="scale(1 1) rotate(0) translate(4 270)">
<title>orthonormal_vec.hpp</title>
<!-- Node1 -->
<g id="node1" class="node">
<title>Node1</title>
<g id="a_node1"><a xlink:title=" ">
<polygon fill="#bfbfbf" stroke="black" points="414.62,-246.5 414.62,-265.5 534.62,-265.5 534.62,-246.5 414.62,-246.5"/>
<text text-anchor="middle" x="474.62" y="-253.5" font-family="Helvetica,sans-Serif" font-size="10.00">orthonormal_vec.hpp</text>
</a>
</g>
</g>
<!-- Node2 -->
<g id="node2" class="node">
<title>Node2</title>
<g id="a_node2"><a xlink:href="Vector_8hpp.html" target="_top" xlink:title=" ">
<polygon fill="none" stroke="black" points="428.12,-190.5 428.12,-209.5 521.12,-209.5 521.12,-190.5 428.12,-190.5"/>
<text text-anchor="middle" x="474.62" y="-197.5" font-family="Helvetica,sans-Serif" font-size="10.00">utils/Vector.hpp</text>
</a>
</g>
</g>
<!-- Node1&#45;&gt;Node2 -->
<g id="edge1" class="edge">
<title>Node1&#45;&gt;Node2</title>
<path fill="none" stroke="midnightblue" d="M474.62,-246.08C474.62,-239.01 474.62,-228.86 474.62,-219.99"/>
<polygon fill="midnightblue" stroke="midnightblue" points="478.12,-219.75 474.62,-209.75 471.12,-219.75 478.12,-219.75"/>
</g>
<!-- Node9 -->
<g id="node9" class="node">
<title>Node9</title>
<g id="a_node9"><a xlink:title=" ">
<polygon fill="none" stroke="#bfbfbf" points="29.12,-0.5 29.12,-19.5 82.12,-19.5 82.12,-0.5 29.12,-0.5"/>
<text text-anchor="middle" x="55.62" y="-7.5" font-family="Helvetica,sans-Serif" font-size="10.00">cstddef</text>
</a>
</g>
</g>
<!-- Node1&#45;&gt;Node9 -->
<g id="edge29" class="edge">
<title>Node1&#45;&gt;Node9</title>
<path fill="none" stroke="midnightblue" d="M414.6,-251.12C300.28,-242.33 58.14,-216.62 7.62,-154 0.53,-145.22 -5.16,-87.62 8.62,-56 13.86,-43.99 24,-33.62 33.53,-25.87"/>
<polygon fill="midnightblue" stroke="midnightblue" points="35.74,-28.59 41.6,-19.77 31.51,-23.01 35.74,-28.59"/>
</g>
<!-- Node22 -->
<g id="node22" class="node">
<title>Node22</title>
<g id="a_node22"><a xlink:href="constants_8hpp.html" target="_top" xlink:title=" ">
<polygon fill="none" stroke="black" points="1072.12,-190.5 1072.12,-209.5 1181.12,-209.5 1181.12,-190.5 1072.12,-190.5"/>
<text text-anchor="middle" x="1126.62" y="-197.5" font-family="Helvetica,sans-Serif" font-size="10.00">utils/constants.hpp</text>
</a>
</g>
</g>
<!-- Node1&#45;&gt;Node22 -->
<g id="edge26" class="edge">
<title>Node1&#45;&gt;Node22</title>
<path fill="none" stroke="midnightblue" d="M534.79,-250.02C657.29,-239.87 934.73,-216.89 1061.38,-206.4"/>
<polygon fill="midnightblue" stroke="midnightblue" points="1062.02,-209.86 1071.7,-205.55 1061.44,-202.89 1062.02,-209.86"/>
</g>
<!-- Node3 -->
<g id="node3" class="node">
<title>Node3</title>
<g id="a_node3"><a xlink:title=" ">
<polygon fill="none" stroke="#bfbfbf" points="728.62,-129 728.62,-148 878.62,-148 878.62,-129 728.62,-129"/>
<text text-anchor="middle" x="803.62" y="-136" font-family="Helvetica,sans-Serif" font-size="10.00">boost/qvm/deduce_vec.hpp</text>
</a>
</g>
</g>
<!-- Node2&#45;&gt;Node3 -->
<g id="edge2" class="edge">
<title>Node2&#45;&gt;Node3</title>
<path fill="none" stroke="midnightblue" d="M521.41,-190.54C580.68,-179.82 682.78,-161.35 746.56,-149.82"/>
<polygon fill="midnightblue" stroke="midnightblue" points="747.24,-153.25 756.46,-148.03 746,-146.36 747.24,-153.25"/>
</g>
<!-- Node4 -->
<g id="node4" class="node">
<title>Node4</title>
<g id="a_node4"><a xlink:title=" ">
<polygon fill="none" stroke="#bfbfbf" points="896.62,-129 896.62,-148 1036.62,-148 1036.62,-129 896.62,-129"/>
<text text-anchor="middle" x="966.62" y="-136" font-family="Helvetica,sans-Serif" font-size="10.00">boost/qvm/vec_traits.hpp</text>
</a>
</g>
</g>
<!-- Node2&#45;&gt;Node4 -->
<g id="edge3" class="edge">
<title>Node2&#45;&gt;Node4</title>
<path fill="none" stroke="midnightblue" d="M521.21,-195.04C597.85,-188.28 755.23,-173.34 887.62,-154 895.95,-152.78 904.74,-151.33 913.32,-149.83"/>
<polygon fill="midnightblue" stroke="midnightblue" points="914.03,-153.26 923.25,-148.05 912.79,-146.37 914.03,-153.26"/>
</g>
<!-- Node5 -->
<g id="node5" class="node">
<title>Node5</title>
<g id="a_node5"><a xlink:href="Array_8hpp.html" target="_top" xlink:title=" ">
<polygon fill="none" stroke="black" points="258.62,-129 258.62,-148 344.62,-148 344.62,-129 258.62,-129"/>
<text text-anchor="middle" x="301.62" y="-136" font-family="Helvetica,sans-Serif" font-size="10.00">utils/Array.hpp</text>
</a>
</g>
</g>
<!-- Node2&#45;&gt;Node5 -->
<g id="edge4" class="edge">
<title>Node2&#45;&gt;Node5</title>
<path fill="none" stroke="midnightblue" d="M449.83,-190.48C420.03,-180.22 369.83,-162.96 336.22,-151.4"/>
<polygon fill="midnightblue" stroke="midnightblue" points="336.95,-147.95 326.36,-148.01 334.68,-154.57 336.95,-147.95"/>
</g>
<!-- Node7 -->
<g id="node7" class="node">
<title>Node7</title>
<g id="a_node7"><a xlink:title=" ">
<polygon fill="none" stroke="#bfbfbf" points="1038.62,-0.5 1038.62,-19.5 1090.62,-19.5 1090.62,-0.5 1038.62,-0.5"/>
<text text-anchor="middle" x="1064.62" y="-7.5" font-family="Helvetica,sans-Serif" font-size="10.00">cassert</text>
</a>
</g>
</g>
<!-- Node2&#45;&gt;Node7 -->
<g id="edge17" class="edge">
<title>Node2&#45;&gt;Node7</title>
<path fill="none" stroke="midnightblue" d="M521.48,-198.62C651.19,-197.12 1007.91,-189.74 1045.62,-154 1079.61,-121.78 1074.08,-60.31 1068.63,-29.53"/>
<polygon fill="midnightblue" stroke="midnightblue" points="1072.06,-28.83 1066.7,-19.69 1065.19,-30.17 1072.06,-28.83"/>
</g>
<!-- Node2&#45;&gt;Node9 -->
<g id="edge19" class="edge">
<title>Node2&#45;&gt;Node9</title>
<path fill="none" stroke="midnightblue" d="M427.97,-197.87C317.24,-194.71 45.76,-183.95 18.62,-154 12.09,-146.79 7.04,-91.03 19.62,-56 23.58,-44.98 31.44,-34.64 38.8,-26.65"/>
<polygon fill="midnightblue" stroke="midnightblue" points="41.32,-29.09 45.85,-19.51 36.33,-24.17 41.32,-29.09"/>
</g>
<!-- Node12 -->
<g id="node12" class="node">
<title>Node12</title>
<g id="a_node12"><a xlink:title=" ">
<polygon fill="none" stroke="#bfbfbf" points="460.12,-62 460.12,-81 513.12,-81 513.12,-62 460.12,-62"/>
<text text-anchor="middle" x="486.62" y="-69" font-family="Helvetica,sans-Serif" font-size="10.00">iterator</text>
</a>
</g>
</g>
<!-- Node2&#45;&gt;Node12 -->
<g id="edge22" class="edge">
<title>Node2&#45;&gt;Node12</title>
<path fill="none" stroke="midnightblue" d="M475.44,-190.31C477.37,-169.99 482.2,-119.05 484.84,-91.28"/>
<polygon fill="midnightblue" stroke="midnightblue" points="488.33,-91.54 485.79,-81.26 481.36,-90.88 488.33,-91.54"/>
</g>
<!-- Node15 -->
<g id="node15" class="node">
<title>Node15</title>
<g id="a_node15"><a xlink:title=" ">
<polygon fill="none" stroke="#bfbfbf" points="27.62,-129 27.62,-148 91.62,-148 91.62,-129 27.62,-129"/>
<text text-anchor="middle" x="59.62" y="-136" font-family="Helvetica,sans-Serif" font-size="10.00">algorithm</text>
</a>
</g>
</g>
<!-- Node2&#45;&gt;Node15 -->
<g id="edge16" class="edge">
<title>Node2&#45;&gt;Node15</title>
<path fill="none" stroke="midnightblue" d="M427.84,-196.55C356.64,-192.11 217.15,-180.59 101.62,-154 98.21,-153.21 94.69,-152.25 91.2,-151.2"/>
<polygon fill="midnightblue" stroke="midnightblue" points="92.19,-147.84 81.6,-148.07 90.02,-154.5 92.19,-147.84"/>
</g>
<!-- Node16 -->
<g id="node16" class="node">
<title>Node16</title>
<g id="a_node16"><a xlink:title=" ">
<polygon fill="none" stroke="#bfbfbf" points="110.12,-129 110.12,-148 157.12,-148 157.12,-129 110.12,-129"/>
<text text-anchor="middle" x="133.62" y="-136" font-family="Helvetica,sans-Serif" font-size="10.00">cmath</text>
</a>
</g>
</g>
<!-- Node2&#45;&gt;Node16 -->
<g id="edge18" class="edge">
<title>Node2&#45;&gt;Node16</title>
<path fill="none" stroke="midnightblue" d="M427.88,-196.09C366.81,-191.41 257,-179.94 166.62,-154 164.47,-153.38 162.28,-152.66 160.09,-151.86"/>
<polygon fill="midnightblue" stroke="midnightblue" points="161.35,-148.59 150.76,-148.07 158.71,-155.08 161.35,-148.59"/>
</g>
<!-- Node17 -->
<g id="node17" class="node">
<title>Node17</title>
<g id="a_node17"><a xlink:title=" ">
<polygon fill="none" stroke="#bfbfbf" points="175.12,-129 175.12,-148 240.12,-148 240.12,-129 175.12,-129"/>
<text text-anchor="middle" x="207.62" y="-136" font-family="Helvetica,sans-Serif" font-size="10.00">functional</text>
</a>
</g>
</g>
<!-- Node2&#45;&gt;Node17 -->
<g id="edge20" class="edge">
<title>Node2&#45;&gt;Node17</title>
<path fill="none" stroke="midnightblue" d="M428.09,-191.58C382.29,-183.84 310.56,-170.53 249.62,-154 246.59,-153.18 243.46,-152.25 240.35,-151.27"/>
<polygon fill="midnightblue" stroke="midnightblue" points="241.14,-147.85 230.55,-148.04 238.95,-154.5 241.14,-147.85"/>
</g>
<!-- Node18 -->
<g id="node18" class="node">
<title>Node18</title>
<g id="a_node18"><a xlink:title=" ">
<polygon fill="none" stroke="#bfbfbf" points="363.12,-129 363.12,-148 446.12,-148 446.12,-129 363.12,-129"/>
<text text-anchor="middle" x="404.62" y="-136" font-family="Helvetica,sans-Serif" font-size="10.00">initializer_list</text>
</a>
</g>
</g>
<!-- Node2&#45;&gt;Node18 -->
<g id="edge21" class="edge">
<title>Node2&#45;&gt;Node18</title>
<path fill="none" stroke="midnightblue" d="M464.59,-190.48C453.57,-181.11 435.66,-165.88 422.28,-154.51"/>
<polygon fill="midnightblue" stroke="midnightblue" points="424.52,-151.82 414.63,-148.01 419.98,-157.15 424.52,-151.82"/>
</g>
<!-- Node19 -->
<g id="node19" class="node">
<title>Node19</title>
<g id="a_node19"><a xlink:title=" ">
<polygon fill="none" stroke="#bfbfbf" points="502.62,-129 502.62,-148 558.62,-148 558.62,-129 502.62,-129"/>
<text text-anchor="middle" x="530.62" y="-136" font-family="Helvetica,sans-Serif" font-size="10.00">numeric</text>
</a>
</g>
</g>
<!-- Node2&#45;&gt;Node19 -->
<g id="edge23" class="edge">
<title>Node2&#45;&gt;Node19</title>
<path fill="none" stroke="midnightblue" d="M482.64,-190.48C491.21,-181.37 504.98,-166.74 515.58,-155.48"/>
<polygon fill="midnightblue" stroke="midnightblue" points="518.31,-157.69 522.61,-148.01 513.21,-152.89 518.31,-157.69"/>
</g>
<!-- Node20 -->
<g id="node20" class="node">
<title>Node20</title>
<g id="a_node20"><a xlink:title=" ">
<polygon fill="none" stroke="#bfbfbf" points="577.12,-129 577.12,-148 646.12,-148 646.12,-129 577.12,-129"/>
<text text-anchor="middle" x="611.62" y="-136" font-family="Helvetica,sans-Serif" font-size="10.00">type_traits</text>
</a>
</g>
</g>
<!-- Node2&#45;&gt;Node20 -->
<g id="edge24" class="edge">
<title>Node2&#45;&gt;Node20</title>
<path fill="none" stroke="midnightblue" d="M494.25,-190.48C517.44,-180.4 556.24,-163.55 582.83,-152"/>
<polygon fill="midnightblue" stroke="midnightblue" points="584.25,-155.2 592.03,-148.01 581.46,-148.78 584.25,-155.2"/>
</g>
<!-- Node21 -->
<g id="node21" class="node">
<title>Node21</title>
<g id="a_node21"><a xlink:title=" ">
<polygon fill="none" stroke="#bfbfbf" points="664.12,-129 664.12,-148 711.12,-148 711.12,-129 664.12,-129"/>
<text text-anchor="middle" x="687.62" y="-136" font-family="Helvetica,sans-Serif" font-size="10.00">vector</text>
</a>
</g>
</g>
<!-- Node2&#45;&gt;Node21 -->
<g id="edge25" class="edge">
<title>Node2&#45;&gt;Node21</title>
<path fill="none" stroke="midnightblue" d="M518.42,-190.45C555.49,-182.66 609.74,-169.95 655.62,-154 657.28,-153.42 658.98,-152.79 660.68,-152.12"/>
<polygon fill="midnightblue" stroke="midnightblue" points="662.41,-155.19 670.25,-148.06 659.67,-148.75 662.41,-155.19"/>
</g>
<!-- Node6 -->
<g id="node6" class="node">
<title>Node6</title>
<g id="a_node6"><a xlink:href="device__qualifier_8hpp.html" target="_top" xlink:title=" ">
<polygon fill="none" stroke="black" points="1092.62,-62 1092.62,-81 1208.62,-81 1208.62,-62 1092.62,-62"/>
<text text-anchor="middle" x="1150.62" y="-69" font-family="Helvetica,sans-Serif" font-size="10.00">device_qualifier.hpp</text>
</a>
</g>
</g>
<!-- Node5&#45;&gt;Node6 -->
<g id="edge5" class="edge">
<title>Node5&#45;&gt;Node6</title>
<path fill="none" stroke="midnightblue" d="M328.62,-128.97C336.88,-126.67 346.06,-124.43 354.62,-123 621.12,-78.57 943.79,-72.53 1082.19,-72.17"/>
<polygon fill="midnightblue" stroke="midnightblue" points="1082.24,-75.67 1092.23,-72.15 1082.22,-68.67 1082.24,-75.67"/>
</g>
<!-- Node5&#45;&gt;Node7 -->
<g id="edge11" class="edge">
<title>Node5&#45;&gt;Node7</title>
<path fill="none" stroke="midnightblue" d="M324.55,-128.98C347.59,-119.99 383.73,-104.69 412.62,-87 431.5,-75.44 431,-64.06 451.62,-56 557.76,-14.53 913.48,-10.94 1028.45,-10.88"/>
<polygon fill="midnightblue" stroke="midnightblue" points="1028.5,-14.38 1038.5,-10.89 1028.5,-7.38 1028.5,-14.38"/>
</g>
<!-- Node8 -->
<g id="node8" class="node">
<title>Node8</title>
<g id="a_node8"><a xlink:href="get_8hpp.html" target="_top" xlink:title=" ">
<polygon fill="none" stroke="black" points="150.12,-62 150.12,-81 203.12,-81 203.12,-62 150.12,-62"/>
<text text-anchor="middle" x="176.62" y="-69" font-family="Helvetica,sans-Serif" font-size="10.00">get.hpp</text>
</a>
</g>
</g>
<!-- Node5&#45;&gt;Node8 -->
<g id="edge7" class="edge">
<title>Node5&#45;&gt;Node8</title>
<path fill="none" stroke="midnightblue" d="M285.02,-128.87C263.91,-117.89 227.24,-98.82 202.46,-85.94"/>
<polygon fill="midnightblue" stroke="midnightblue" points="203.77,-82.68 193.29,-81.17 200.54,-88.89 203.77,-82.68"/>
</g>
<!-- Node5&#45;&gt;Node9 -->
<g id="edge12" class="edge">
<title>Node5&#45;&gt;Node9</title>
<path fill="none" stroke="midnightblue" d="M272.13,-128.92C229.16,-116.3 153.16,-93.52 141.62,-87 126.54,-78.47 92.26,-46.45 71.82,-26.8"/>
<polygon fill="midnightblue" stroke="midnightblue" points="74.12,-24.15 64.5,-19.71 69.25,-29.18 74.12,-24.15"/>
</g>
<!-- Node11 -->
<g id="node11" class="node">
<title>Node11</title>
<g id="a_node11"><a xlink:title=" ">
<polygon fill="none" stroke="#bfbfbf" points="221.12,-56.5 221.12,-86.5 328.12,-86.5 328.12,-56.5 221.12,-56.5"/>
<text text-anchor="start" x="229.12" y="-74.5" font-family="Helvetica,sans-Serif" font-size="10.00">boost/serialization</text>
<text text-anchor="middle" x="274.62" y="-63.5" font-family="Helvetica,sans-Serif" font-size="10.00">/access.hpp</text>
</a>
</g>
</g>
<!-- Node5&#45;&gt;Node11 -->
<g id="edge10" class="edge">
<title>Node5&#45;&gt;Node11</title>
<path fill="none" stroke="midnightblue" d="M297.98,-128.73C294.5,-120.37 289.12,-107.4 284.39,-96.02"/>
<polygon fill="midnightblue" stroke="midnightblue" points="287.54,-94.48 280.47,-86.59 281.08,-97.17 287.54,-94.48"/>
</g>
<!-- Node5&#45;&gt;Node12 -->
<g id="edge13" class="edge">
<title>Node5&#45;&gt;Node12</title>
<path fill="none" stroke="midnightblue" d="M326.09,-128.94C354.74,-118.91 403.64,-101.78 445.62,-87 447.99,-86.17 450.43,-85.3 452.89,-84.44"/>
<polygon fill="midnightblue" stroke="midnightblue" points="454.08,-87.73 462.34,-81.1 451.75,-81.13 454.08,-87.73"/>
</g>
<!-- Node13 -->
<g id="node13" class="node">
<title>Node13</title>
<g id="a_node13"><a xlink:title=" ">
<polygon fill="none" stroke="#bfbfbf" points="346.12,-62 346.12,-81 403.12,-81 403.12,-62 346.12,-62"/>
<text text-anchor="middle" x="374.62" y="-69" font-family="Helvetica,sans-Serif" font-size="10.00">ostream</text>
</a>
</g>
</g>
<!-- Node5&#45;&gt;Node13 -->
<g id="edge14" class="edge">
<title>Node5&#45;&gt;Node13</title>
<path fill="none" stroke="midnightblue" d="M311.46,-128.73C323.18,-118.31 342.94,-100.71 357.24,-87.97"/>
<polygon fill="midnightblue" stroke="midnightblue" points="359.79,-90.39 364.93,-81.13 355.13,-85.16 359.79,-90.39"/>
</g>
<!-- Node14 -->
<g id="node14" class="node">
<title>Node14</title>
<g id="a_node14"><a xlink:title=" ">
<polygon fill="none" stroke="#bfbfbf" points="28.12,-62 28.12,-81 93.12,-81 93.12,-62 28.12,-62"/>
<text text-anchor="middle" x="60.62" y="-69" font-family="Helvetica,sans-Serif" font-size="10.00">stdexcept</text>
</a>
</g>
</g>
<!-- Node5&#45;&gt;Node14 -->
<g id="edge15" class="edge">
<title>Node5&#45;&gt;Node14</title>
<path fill="none" stroke="midnightblue" d="M271.41,-128.94C264.27,-126.96 256.68,-124.88 249.62,-123 186.7,-106.25 170.3,-104.6 107.62,-87 104.23,-86.05 100.71,-85.03 97.19,-83.98"/>
<polygon fill="midnightblue" stroke="midnightblue" points="97.98,-80.56 87.39,-81.02 95.95,-87.26 97.98,-80.56"/>
</g>
<!-- Node6&#45;&gt;Node7 -->
<g id="edge6" class="edge">
<title>Node6&#45;&gt;Node7</title>
<path fill="none" stroke="midnightblue" d="M1138.3,-61.98C1124.5,-52.43 1101.92,-36.81 1085.39,-25.37"/>
<polygon fill="midnightblue" stroke="midnightblue" points="1087.13,-22.32 1076.92,-19.51 1083.15,-28.08 1087.13,-22.32"/>
</g>
<!-- Node8&#45;&gt;Node9 -->
<g id="edge8" class="edge">
<title>Node8&#45;&gt;Node9</title>
<path fill="none" stroke="midnightblue" d="M159.28,-61.98C139.07,-52.03 105.43,-35.49 81.98,-23.96"/>
<polygon fill="midnightblue" stroke="midnightblue" points="83.44,-20.78 72.92,-19.51 80.35,-27.06 83.44,-20.78"/>
</g>
<!-- Node10 -->
<g id="node10" class="node">
<title>Node10</title>
<g id="a_node10"><a xlink:title=" ">
<polygon fill="none" stroke="#bfbfbf" points="156.12,-0.5 156.12,-19.5 197.12,-19.5 197.12,-0.5 156.12,-0.5"/>
<text text-anchor="middle" x="176.62" y="-7.5" font-family="Helvetica,sans-Serif" font-size="10.00">tuple</text>
</a>
</g>
</g>
<!-- Node8&#45;&gt;Node10 -->
<g id="edge9" class="edge">
<title>Node8&#45;&gt;Node10</title>
<path fill="none" stroke="midnightblue" d="M176.62,-61.98C176.62,-53.58 176.62,-40.48 176.62,-29.66"/>
<polygon fill="midnightblue" stroke="midnightblue" points="180.12,-29.51 176.62,-19.51 173.12,-29.51 180.12,-29.51"/>
</g>
<!-- Node22&#45;&gt;Node6 -->
<g id="edge27" class="edge">
<title>Node22&#45;&gt;Node6</title>
<path fill="none" stroke="midnightblue" d="M1128.27,-190.31C1132.12,-169.99 1141.79,-119.05 1147.06,-91.28"/>
<polygon fill="midnightblue" stroke="midnightblue" points="1150.53,-91.73 1148.96,-81.26 1143.66,-90.43 1150.53,-91.73"/>
</g>
<!-- Node23 -->
<g id="node23" class="node">
<title>Node23</title>
<g id="a_node23"><a xlink:title=" ">
<polygon fill="none" stroke="#bfbfbf" points="1154.62,-123.5 1154.62,-153.5 1276.62,-153.5 1276.62,-123.5 1154.62,-123.5"/>
<text text-anchor="start" x="1162.62" y="-141.5" font-family="Helvetica,sans-Serif" font-size="10.00">boost/math/constants</text>
<text text-anchor="middle" x="1215.62" y="-130.5" font-family="Helvetica,sans-Serif" font-size="10.00">/constants.hpp</text>
</a>
</g>
</g>
<!-- Node22&#45;&gt;Node23 -->
<g id="edge28" class="edge">
<title>Node22&#45;&gt;Node23</title>
<path fill="none" stroke="midnightblue" d="M1139.37,-190.48C1151.54,-182.34 1170.31,-169.79 1186.18,-159.18"/>
<polygon fill="midnightblue" stroke="midnightblue" points="1188.28,-161.99 1194.64,-153.52 1184.39,-156.17 1188.28,-161.99"/>
</g>
</g>
</svg>
