<?xml version="1.0" encoding="UTF-8" standalone="no"?>
<!DOCTYPE svg PUBLIC "-//W3C//DTD SVG 1.1//EN"
 "http://www.w3.org/Graphics/SVG/1.1/DTD/svg11.dtd">
<!-- Generated by graphviz version 2.43.0 (0)
 -->
<!-- Title: p3m&#45;data_struct.hpp Pages: 1 -->
<svg width="1364pt" height="375pt"
 viewBox="0.00 0.00 1363.50 375.00" xmlns="http://www.w3.org/2000/svg" xmlns:xlink="http://www.w3.org/1999/xlink">
<g id="graph0" class="graph" transform="scale(1 1) rotate(0) translate(4 371)">
<title>p3m&#45;data_struct.hpp</title>
<!-- Node1 -->
<g id="node1" class="node">
<title>Node1</title>
<g id="a_node1"><a xlink:title=" ">
<polygon fill="#bfbfbf" stroke="black" points="110,-347.5 110,-366.5 228,-366.5 228,-347.5 110,-347.5"/>
<text text-anchor="middle" x="169" y="-354.5" font-family="Helvetica,sans-Serif" font-size="10.00">p3m&#45;data_struct.hpp</text>
</a>
</g>
</g>
<!-- Node2 -->
<g id="node2" class="node">
<title>Node2</title>
<g id="a_node2"><a xlink:href="config_8hpp.html" target="_top" xlink:title=" ">
<polygon fill="none" stroke="black" points="22,-235.5 22,-254.5 90,-254.5 90,-235.5 22,-235.5"/>
<text text-anchor="middle" x="56" y="-242.5" font-family="Helvetica,sans-Serif" font-size="10.00">config.hpp</text>
</a>
</g>
</g>
<!-- Node1&#45;&gt;Node2 -->
<g id="edge1" class="edge">
<title>Node1&#45;&gt;Node2</title>
<path fill="none" stroke="midnightblue" d="M160.13,-347.37C141.15,-328.89 96.36,-285.29 72.17,-261.74"/>
<polygon fill="midnightblue" stroke="midnightblue" points="74.43,-259.06 64.83,-254.59 69.55,-264.07 74.43,-259.06"/>
</g>
<!-- Node4 -->
<g id="node4" class="node">
<title>Node4</title>
<g id="a_node4"><a xlink:href="p3m-common_8hpp.html" target="_top" xlink:title=" ">
<polygon fill="none" stroke="black" points="157,-291.5 157,-310.5 263,-310.5 263,-291.5 157,-291.5"/>
<text text-anchor="middle" x="210" y="-298.5" font-family="Helvetica,sans-Serif" font-size="10.00">p3m&#45;common.hpp</text>
</a>
</g>
</g>
<!-- Node1&#45;&gt;Node4 -->
<g id="edge3" class="edge">
<title>Node1&#45;&gt;Node4</title>
<path fill="none" stroke="midnightblue" d="M175.77,-347.08C181.56,-339.46 190.06,-328.26 197.14,-318.94"/>
<polygon fill="midnightblue" stroke="midnightblue" points="200.1,-320.83 203.36,-310.75 194.52,-316.6 200.1,-320.83"/>
</g>
<!-- Node5 -->
<g id="node5" class="node">
<title>Node5</title>
<g id="a_node5"><a xlink:title=" ">
<polygon fill="none" stroke="#bfbfbf" points="108,-235.5 108,-254.5 150,-254.5 150,-235.5 108,-235.5"/>
<text text-anchor="middle" x="129" y="-242.5" font-family="Helvetica,sans-Serif" font-size="10.00">array</text>
</a>
</g>
</g>
<!-- Node1&#45;&gt;Node5 -->
<g id="edge35" class="edge">
<title>Node1&#45;&gt;Node5</title>
<path fill="none" stroke="midnightblue" d="M164.41,-347.21C159.85,-338.26 152.87,-323.91 148,-311 142.17,-295.53 137.01,-277.44 133.55,-264.28"/>
<polygon fill="midnightblue" stroke="midnightblue" points="136.93,-263.37 131.06,-254.55 130.14,-265.1 136.93,-263.37"/>
</g>
<!-- Node7 -->
<g id="node7" class="node">
<title>Node7</title>
<g id="a_node7"><a xlink:title=" ">
<polygon fill="none" stroke="#bfbfbf" points="1308.5,-123.5 1308.5,-142.5 1355.5,-142.5 1355.5,-123.5 1308.5,-123.5"/>
<text text-anchor="middle" x="1332" y="-130.5" font-family="Helvetica,sans-Serif" font-size="10.00">vector</text>
</a>
</g>
</g>
<!-- Node1&#45;&gt;Node7 -->
<g id="edge36" class="edge">
<title>Node1&#45;&gt;Node7</title>
<path fill="none" stroke="midnightblue" d="M228.02,-347.82C374.54,-327.1 766.41,-269.18 1089,-199 1164.58,-182.56 1251.88,-157.76 1298.52,-144.03"/>
<polygon fill="midnightblue" stroke="midnightblue" points="1299.78,-147.31 1308.38,-141.11 1297.8,-140.59 1299.78,-147.31"/>
</g>
<!-- Node3 -->
<g id="node3" class="node">
<title>Node3</title>
<g id="a_node3"><a xlink:title=" ">
<polygon fill="none" stroke="#bfbfbf" points="0,-179.5 0,-198.5 112,-198.5 112,-179.5 0,-179.5"/>
<text text-anchor="middle" x="56" y="-186.5" font-family="Helvetica,sans-Serif" font-size="10.00">config&#45;features.hpp</text>
</a>
</g>
</g>
<!-- Node2&#45;&gt;Node3 -->
<g id="edge2" class="edge">
<title>Node2&#45;&gt;Node3</title>
<path fill="none" stroke="midnightblue" d="M56,-235.08C56,-228.01 56,-217.86 56,-208.99"/>
<polygon fill="midnightblue" stroke="midnightblue" points="59.5,-208.75 56,-198.75 52.5,-208.75 59.5,-208.75"/>
</g>
<!-- Node4&#45;&gt;Node2 -->
<g id="edge4" class="edge">
<title>Node4&#45;&gt;Node2</title>
<path fill="none" stroke="midnightblue" d="M185.6,-291.44C159.8,-282.4 118.92,-268.06 89.98,-257.92"/>
<polygon fill="midnightblue" stroke="midnightblue" points="90.88,-254.52 80.29,-254.52 88.57,-261.13 90.88,-254.52"/>
</g>
<!-- Node4&#45;&gt;Node5 -->
<g id="edge5" class="edge">
<title>Node4&#45;&gt;Node5</title>
<path fill="none" stroke="midnightblue" d="M196.99,-291.32C184.47,-282.98 165.32,-270.21 150.53,-260.35"/>
<polygon fill="midnightblue" stroke="midnightblue" points="152.24,-257.29 141.98,-254.65 148.36,-263.11 152.24,-257.29"/>
</g>
<!-- Node6 -->
<g id="node6" class="node">
<title>Node6</title>
<g id="a_node6"><a xlink:title=" ">
<polygon fill="none" stroke="#bfbfbf" points="113.5,-0.5 113.5,-19.5 166.5,-19.5 166.5,-0.5 113.5,-0.5"/>
<text text-anchor="middle" x="140" y="-7.5" font-family="Helvetica,sans-Serif" font-size="10.00">cstddef</text>
</a>
</g>
</g>
<!-- Node4&#45;&gt;Node6 -->
<g id="edge6" class="edge">
<title>Node4&#45;&gt;Node6</title>
<path fill="none" stroke="midnightblue" d="M205.75,-291.36C192.05,-262.98 149.13,-169.7 135,-87 131.7,-67.68 133.9,-45.26 136.33,-29.8"/>
<polygon fill="midnightblue" stroke="midnightblue" points="139.86,-29.96 138.15,-19.5 132.96,-28.74 139.86,-29.96"/>
</g>
<!-- Node4&#45;&gt;Node7 -->
<g id="edge7" class="edge">
<title>Node4&#45;&gt;Node7</title>
<path fill="none" stroke="midnightblue" d="M263.06,-295.08C341.16,-287.62 491.61,-272.47 619,-255 919.62,-213.77 998.87,-209.6 1298.47,-143.17"/>
<polygon fill="midnightblue" stroke="midnightblue" points="1299.31,-146.57 1308.31,-140.98 1297.79,-139.73 1299.31,-146.57"/>
</g>
<!-- Node8 -->
<g id="node8" class="node">
<title>Node8</title>
<g id="a_node8"><a xlink:href="LocalBox_8hpp.html" target="_top" xlink:title=" ">
<polygon fill="none" stroke="black" points="475,-235.5 475,-254.5 557,-254.5 557,-235.5 475,-235.5"/>
<text text-anchor="middle" x="516" y="-242.5" font-family="Helvetica,sans-Serif" font-size="10.00">LocalBox.hpp</text>
</a>
</g>
</g>
<!-- Node4&#45;&gt;Node8 -->
<g id="edge8" class="edge">
<title>Node4&#45;&gt;Node8</title>
<path fill="none" stroke="midnightblue" d="M258.49,-291.44C314.76,-281.51 407.18,-265.2 464.65,-255.06"/>
<polygon fill="midnightblue" stroke="midnightblue" points="465.37,-258.49 474.61,-253.3 464.15,-251.6 465.37,-258.49"/>
</g>
<!-- Node9 -->
<g id="node9" class="node">
<title>Node9</title>
<g id="a_node9"><a xlink:href="Vector_8hpp.html" target="_top" xlink:title=" ">
<polygon fill="none" stroke="black" points="740.5,-179.5 740.5,-198.5 833.5,-198.5 833.5,-179.5 740.5,-179.5"/>
<text text-anchor="middle" x="787" y="-186.5" font-family="Helvetica,sans-Serif" font-size="10.00">utils/Vector.hpp</text>
</a>
</g>
</g>
<!-- Node4&#45;&gt;Node9 -->
<g id="edge34" class="edge">
<title>Node4&#45;&gt;Node9</title>
<path fill="none" stroke="midnightblue" d="M263.22,-295.95C333.2,-290.02 459.74,-277.19 566,-255 633.41,-240.92 710.13,-216.37 753.13,-201.81"/>
<polygon fill="midnightblue" stroke="midnightblue" points="754.46,-205.05 762.8,-198.51 752.2,-198.43 754.46,-205.05"/>
</g>
<!-- Node8&#45;&gt;Node9 -->
<g id="edge9" class="edge">
<title>Node8&#45;&gt;Node9</title>
<path fill="none" stroke="midnightblue" d="M557.16,-235.8C604.49,-226.37 682.33,-210.86 734.11,-200.54"/>
<polygon fill="midnightblue" stroke="midnightblue" points="734.99,-203.93 744.11,-198.55 733.62,-197.07 734.99,-203.93"/>
</g>
<!-- Node9&#45;&gt;Node6 -->
<g id="edge27" class="edge">
<title>Node9&#45;&gt;Node6</title>
<path fill="none" stroke="midnightblue" d="M740.36,-187.81C652.87,-186.55 458.68,-179.46 300,-143 231.05,-127.16 195.35,-142.12 151,-87 138.1,-70.96 136.76,-46.63 137.72,-29.84"/>
<polygon fill="midnightblue" stroke="midnightblue" points="141.23,-29.89 138.65,-19.61 134.26,-29.26 141.23,-29.89"/>
</g>
<!-- Node9&#45;&gt;Node7 -->
<g id="edge33" class="edge">
<title>Node9&#45;&gt;Node7</title>
<path fill="none" stroke="midnightblue" d="M833.72,-186.82C922.67,-183.93 1122.45,-174.43 1298.4,-142.99"/>
<polygon fill="midnightblue" stroke="midnightblue" points="1299.14,-146.41 1308.35,-141.18 1297.89,-139.53 1299.14,-146.41"/>
</g>
<!-- Node10 -->
<g id="node10" class="node">
<title>Node10</title>
<g id="a_node10"><a xlink:title=" ">
<polygon fill="none" stroke="#bfbfbf" points="413,-123.5 413,-142.5 563,-142.5 563,-123.5 413,-123.5"/>
<text text-anchor="middle" x="488" y="-130.5" font-family="Helvetica,sans-Serif" font-size="10.00">boost/qvm/deduce_vec.hpp</text>
</a>
</g>
</g>
<!-- Node9&#45;&gt;Node10 -->
<g id="edge10" class="edge">
<title>Node9&#45;&gt;Node10</title>
<path fill="none" stroke="midnightblue" d="M740.28,-179.56C687.6,-170.05 601.92,-154.57 545.26,-144.34"/>
<polygon fill="midnightblue" stroke="midnightblue" points="545.84,-140.89 535.38,-142.56 544.6,-147.78 545.84,-140.89"/>
</g>
<!-- Node11 -->
<g id="node11" class="node">
<title>Node11</title>
<g id="a_node11"><a xlink:title=" ">
<polygon fill="none" stroke="#bfbfbf" points="581,-123.5 581,-142.5 721,-142.5 721,-123.5 581,-123.5"/>
<text text-anchor="middle" x="651" y="-130.5" font-family="Helvetica,sans-Serif" font-size="10.00">boost/qvm/vec_traits.hpp</text>
</a>
</g>
</g>
<!-- Node9&#45;&gt;Node11 -->
<g id="edge11" class="edge">
<title>Node9&#45;&gt;Node11</title>
<path fill="none" stroke="midnightblue" d="M765.45,-179.44C742.97,-170.52 707.51,-156.44 682.02,-146.32"/>
<polygon fill="midnightblue" stroke="midnightblue" points="683.03,-142.95 672.45,-142.52 680.45,-149.46 683.03,-142.95"/>
</g>
<!-- Node12 -->
<g id="node12" class="node">
<title>Node12</title>
<g id="a_node12"><a xlink:href="Array_8hpp.html" target="_top" xlink:title=" ">
<polygon fill="none" stroke="black" points="309,-123.5 309,-142.5 395,-142.5 395,-123.5 309,-123.5"/>
<text text-anchor="middle" x="352" y="-130.5" font-family="Helvetica,sans-Serif" font-size="10.00">utils/Array.hpp</text>
</a>
</g>
</g>
<!-- Node9&#45;&gt;Node12 -->
<g id="edge12" class="edge">
<title>Node9&#45;&gt;Node12</title>
<path fill="none" stroke="midnightblue" d="M740.32,-183.34C669.91,-176.14 532.14,-161.33 405.01,-143.08"/>
<polygon fill="midnightblue" stroke="midnightblue" points="405.5,-139.61 395.1,-141.65 404.5,-146.54 405.5,-139.61"/>
</g>
<!-- Node14 -->
<g id="node14" class="node">
<title>Node14</title>
<g id="a_node14"><a xlink:title=" ">
<polygon fill="none" stroke="#bfbfbf" points="612,-0.5 612,-19.5 664,-19.5 664,-0.5 612,-0.5"/>
<text text-anchor="middle" x="638" y="-7.5" font-family="Helvetica,sans-Serif" font-size="10.00">cassert</text>
</a>
</g>
</g>
<!-- Node9&#45;&gt;Node14 -->
<g id="edge25" class="edge">
<title>Node9&#45;&gt;Node14</title>
<path fill="none" stroke="midnightblue" d="M789.27,-179.45C794.8,-156.62 806.42,-93.39 777,-56 752.59,-24.97 706.47,-15.04 674.07,-12.02"/>
<polygon fill="midnightblue" stroke="midnightblue" points="674.32,-8.53 664.08,-11.26 673.79,-15.51 674.32,-8.53"/>
</g>
<!-- Node18 -->
<g id="node18" class="node">
<title>Node18</title>
<g id="a_node18"><a xlink:title=" ">
<polygon fill="none" stroke="#bfbfbf" points="714.5,-62 714.5,-81 767.5,-81 767.5,-62 714.5,-62"/>
<text text-anchor="middle" x="741" y="-69" font-family="Helvetica,sans-Serif" font-size="10.00">iterator</text>
</a>
</g>
</g>
<!-- Node9&#45;&gt;Node18 -->
<g id="edge30" class="edge">
<title>Node9&#45;&gt;Node18</title>
<path fill="none" stroke="midnightblue" d="M783.54,-179.32C776.08,-160.59 758.34,-116.05 748.29,-90.79"/>
<polygon fill="midnightblue" stroke="midnightblue" points="751.45,-89.28 744.5,-81.28 744.95,-91.87 751.45,-89.28"/>
</g>
<!-- Node21 -->
<g id="node21" class="node">
<title>Node21</title>
<g id="a_node21"><a xlink:title=" ">
<polygon fill="none" stroke="#bfbfbf" points="815,-123.5 815,-142.5 879,-142.5 879,-123.5 815,-123.5"/>
<text text-anchor="middle" x="847" y="-130.5" font-family="Helvetica,sans-Serif" font-size="10.00">algorithm</text>
</a>
</g>
</g>
<!-- Node9&#45;&gt;Node21 -->
<g id="edge24" class="edge">
<title>Node9&#45;&gt;Node21</title>
<path fill="none" stroke="midnightblue" d="M796.64,-179.32C805.51,-171.34 818.87,-159.31 829.61,-149.65"/>
<polygon fill="midnightblue" stroke="midnightblue" points="832.09,-152.13 837.18,-142.83 827.41,-146.92 832.09,-152.13"/>
</g>
<!-- Node22 -->
<g id="node22" class="node">
<title>Node22</title>
<g id="a_node22"><a xlink:title=" ">
<polygon fill="none" stroke="#bfbfbf" points="897.5,-123.5 897.5,-142.5 944.5,-142.5 944.5,-123.5 897.5,-123.5"/>
<text text-anchor="middle" x="921" y="-130.5" font-family="Helvetica,sans-Serif" font-size="10.00">cmath</text>
</a>
</g>
</g>
<!-- Node9&#45;&gt;Node22 -->
<g id="edge26" class="edge">
<title>Node9&#45;&gt;Node22</title>
<path fill="none" stroke="midnightblue" d="M808.23,-179.44C830.38,-170.52 865.32,-156.44 890.44,-146.32"/>
<polygon fill="midnightblue" stroke="midnightblue" points="891.9,-149.5 899.87,-142.52 889.28,-143.01 891.9,-149.5"/>
</g>
<!-- Node23 -->
<g id="node23" class="node">
<title>Node23</title>
<g id="a_node23"><a xlink:title=" ">
<polygon fill="none" stroke="#bfbfbf" points="962.5,-123.5 962.5,-142.5 1027.5,-142.5 1027.5,-123.5 962.5,-123.5"/>
<text text-anchor="middle" x="995" y="-130.5" font-family="Helvetica,sans-Serif" font-size="10.00">functional</text>
</a>
</g>
</g>
<!-- Node9&#45;&gt;Node23 -->
<g id="edge28" class="edge">
<title>Node9&#45;&gt;Node23</title>
<path fill="none" stroke="midnightblue" d="M819.96,-179.44C855.79,-170.14 913.16,-155.25 952.39,-145.06"/>
<polygon fill="midnightblue" stroke="midnightblue" points="953.4,-148.42 962.2,-142.52 951.64,-141.64 953.4,-148.42"/>
</g>
<!-- Node24 -->
<g id="node24" class="node">
<title>Node24</title>
<g id="a_node24"><a xlink:title=" ">
<polygon fill="none" stroke="#bfbfbf" points="1045.5,-123.5 1045.5,-142.5 1128.5,-142.5 1128.5,-123.5 1045.5,-123.5"/>
<text text-anchor="middle" x="1087" y="-130.5" font-family="Helvetica,sans-Serif" font-size="10.00">initializer_list</text>
</a>
</g>
</g>
<!-- Node9&#45;&gt;Node24 -->
<g id="edge29" class="edge">
<title>Node9&#45;&gt;Node24</title>
<path fill="none" stroke="midnightblue" d="M833.55,-179.62C888.2,-169.78 978.57,-153.52 1035.34,-143.3"/>
<polygon fill="midnightblue" stroke="midnightblue" points="1035.97,-146.74 1045.19,-141.53 1034.73,-139.85 1035.97,-146.74"/>
</g>
<!-- Node25 -->
<g id="node25" class="node">
<title>Node25</title>
<g id="a_node25"><a xlink:title=" ">
<polygon fill="none" stroke="#bfbfbf" points="1147,-123.5 1147,-142.5 1203,-142.5 1203,-123.5 1147,-123.5"/>
<text text-anchor="middle" x="1175" y="-130.5" font-family="Helvetica,sans-Serif" font-size="10.00">numeric</text>
</a>
</g>
</g>
<!-- Node9&#45;&gt;Node25 -->
<g id="edge31" class="edge">
<title>Node9&#45;&gt;Node25</title>
<path fill="none" stroke="midnightblue" d="M833.53,-183.7C899.08,-177.27 1022.47,-163.84 1136.81,-143.04"/>
<polygon fill="midnightblue" stroke="midnightblue" points="1137.59,-146.46 1146.79,-141.2 1136.32,-139.57 1137.59,-146.46"/>
</g>
<!-- Node26 -->
<g id="node26" class="node">
<title>Node26</title>
<g id="a_node26"><a xlink:title=" ">
<polygon fill="none" stroke="#bfbfbf" points="1221.5,-123.5 1221.5,-142.5 1290.5,-142.5 1290.5,-123.5 1221.5,-123.5"/>
<text text-anchor="middle" x="1256" y="-130.5" font-family="Helvetica,sans-Serif" font-size="10.00">type_traits</text>
</a>
</g>
</g>
<!-- Node9&#45;&gt;Node26 -->
<g id="edge32" class="edge">
<title>Node9&#45;&gt;Node26</title>
<path fill="none" stroke="midnightblue" d="M833.73,-184.53C910.35,-178.52 1067.65,-164.84 1211.16,-142.98"/>
<polygon fill="midnightblue" stroke="midnightblue" points="1212.12,-146.37 1221.47,-141.39 1211.05,-139.45 1212.12,-146.37"/>
</g>
<!-- Node12&#45;&gt;Node6 -->
<g id="edge20" class="edge">
<title>Node12&#45;&gt;Node6</title>
<path fill="none" stroke="midnightblue" d="M308.94,-130.65C270.74,-127.36 215.36,-117.22 178,-87 159.94,-72.39 149.72,-46.99 144.52,-29.61"/>
<polygon fill="midnightblue" stroke="midnightblue" points="147.79,-28.28 141.81,-19.54 141.03,-30.1 147.79,-28.28"/>
</g>
<!-- Node13 -->
<g id="node13" class="node">
<title>Node13</title>
<g id="a_node13"><a xlink:href="device__qualifier_8hpp.html" target="_top" xlink:title=" ">
<polygon fill="none" stroke="black" points="580,-62 580,-81 696,-81 696,-62 580,-62"/>
<text text-anchor="middle" x="638" y="-69" font-family="Helvetica,sans-Serif" font-size="10.00">device_qualifier.hpp</text>
</a>
</g>
</g>
<!-- Node12&#45;&gt;Node13 -->
<g id="edge13" class="edge">
<title>Node12&#45;&gt;Node13</title>
<path fill="none" stroke="midnightblue" d="M392.98,-123.48C444.16,-112.83 531.73,-94.61 587.14,-83.08"/>
<polygon fill="midnightblue" stroke="midnightblue" points="588.02,-86.47 597.1,-81.01 586.6,-79.62 588.02,-86.47"/>
</g>
<!-- Node12&#45;&gt;Node14 -->
<g id="edge19" class="edge">
<title>Node12&#45;&gt;Node14</title>
<path fill="none" stroke="midnightblue" d="M395.03,-123.44C440.28,-114.05 508.17,-98.76 532,-87 551.86,-77.2 553.13,-69.07 571,-56 585.7,-45.25 602.75,-33.81 615.97,-25.16"/>
<polygon fill="midnightblue" stroke="midnightblue" points="617.96,-28.04 624.43,-19.65 614.14,-22.17 617.96,-28.04"/>
</g>
<!-- Node15 -->
<g id="node15" class="node">
<title>Node15</title>
<g id="a_node15"><a xlink:href="get_8hpp.html" target="_top" xlink:title=" ">
<polygon fill="none" stroke="black" points="470.5,-62 470.5,-81 523.5,-81 523.5,-62 470.5,-62"/>
<text text-anchor="middle" x="497" y="-69" font-family="Helvetica,sans-Serif" font-size="10.00">get.hpp</text>
</a>
</g>
</g>
<!-- Node12&#45;&gt;Node15 -->
<g id="edge15" class="edge">
<title>Node12&#45;&gt;Node15</title>
<path fill="none" stroke="midnightblue" d="M372.77,-123.48C397.43,-113.36 438.75,-96.4 466.9,-84.85"/>
<polygon fill="midnightblue" stroke="midnightblue" points="468.34,-88.04 476.26,-81.01 465.68,-81.57 468.34,-88.04"/>
</g>
<!-- Node17 -->
<g id="node17" class="node">
<title>Node17</title>
<g id="a_node17"><a xlink:title=" ">
<polygon fill="none" stroke="#bfbfbf" points="187.5,-56.5 187.5,-86.5 294.5,-86.5 294.5,-56.5 187.5,-56.5"/>
<text text-anchor="start" x="195.5" y="-74.5" font-family="Helvetica,sans-Serif" font-size="10.00">boost/serialization</text>
<text text-anchor="middle" x="241" y="-63.5" font-family="Helvetica,sans-Serif" font-size="10.00">/access.hpp</text>
</a>
</g>
</g>
<!-- Node12&#45;&gt;Node17 -->
<g id="edge18" class="edge">
<title>Node12&#45;&gt;Node17</title>
<path fill="none" stroke="midnightblue" d="M336.1,-123.48C320.5,-115.12 296.2,-102.09 276.07,-91.3"/>
<polygon fill="midnightblue" stroke="midnightblue" points="277.63,-88.16 267.16,-86.52 274.32,-94.33 277.63,-88.16"/>
</g>
<!-- Node12&#45;&gt;Node18 -->
<g id="edge21" class="edge">
<title>Node12&#45;&gt;Node18</title>
<path fill="none" stroke="midnightblue" d="M395.1,-124.36C398.11,-123.88 401.1,-123.42 404,-123 537.31,-103.5 574.49,-120.46 705,-87 707.51,-86.36 710.08,-85.58 712.64,-84.72"/>
<polygon fill="midnightblue" stroke="midnightblue" points="714.11,-87.91 722.26,-81.14 711.67,-81.35 714.11,-87.91"/>
</g>
<!-- Node19 -->
<g id="node19" class="node">
<title>Node19</title>
<g id="a_node19"><a xlink:title=" ">
<polygon fill="none" stroke="#bfbfbf" points="312.5,-62 312.5,-81 369.5,-81 369.5,-62 312.5,-62"/>
<text text-anchor="middle" x="341" y="-69" font-family="Helvetica,sans-Serif" font-size="10.00">ostream</text>
</a>
</g>
</g>
<!-- Node12&#45;&gt;Node19 -->
<g id="edge22" class="edge">
<title>Node12&#45;&gt;Node19</title>
<path fill="none" stroke="midnightblue" d="M350.42,-123.48C348.87,-115.08 346.45,-101.98 344.45,-91.16"/>
<polygon fill="midnightblue" stroke="midnightblue" points="347.83,-90.21 342.57,-81.01 340.95,-91.48 347.83,-90.21"/>
</g>
<!-- Node20 -->
<g id="node20" class="node">
<title>Node20</title>
<g id="a_node20"><a xlink:title=" ">
<polygon fill="none" stroke="#bfbfbf" points="387.5,-62 387.5,-81 452.5,-81 452.5,-62 387.5,-62"/>
<text text-anchor="middle" x="420" y="-69" font-family="Helvetica,sans-Serif" font-size="10.00">stdexcept</text>
</a>
</g>
</g>
<!-- Node12&#45;&gt;Node20 -->
<g id="edge23" class="edge">
<title>Node12&#45;&gt;Node20</title>
<path fill="none" stroke="midnightblue" d="M361.74,-123.48C372.35,-114.2 389.52,-99.17 402.48,-87.83"/>
<polygon fill="midnightblue" stroke="midnightblue" points="405.05,-90.23 410.28,-81.01 400.44,-84.96 405.05,-90.23"/>
</g>
<!-- Node13&#45;&gt;Node14 -->
<g id="edge14" class="edge">
<title>Node13&#45;&gt;Node14</title>
<path fill="none" stroke="midnightblue" d="M638,-61.98C638,-53.58 638,-40.48 638,-29.66"/>
<polygon fill="midnightblue" stroke="midnightblue" points="641.5,-29.51 638,-19.51 634.5,-29.51 641.5,-29.51"/>
</g>
<!-- Node15&#45;&gt;Node6 -->
<g id="edge16" class="edge">
<title>Node15&#45;&gt;Node6</title>
<path fill="none" stroke="midnightblue" d="M478.24,-61.94C472.77,-59.72 466.73,-57.53 461,-56 360.22,-29.07 237.08,-17.55 176.81,-13.24"/>
<polygon fill="midnightblue" stroke="midnightblue" points="176.86,-9.73 166.65,-12.54 176.38,-16.72 176.86,-9.73"/>
</g>
<!-- Node16 -->
<g id="node16" class="node">
<title>Node16</title>
<g id="a_node16"><a xlink:title=" ">
<polygon fill="none" stroke="#bfbfbf" points="476.5,-0.5 476.5,-19.5 517.5,-19.5 517.5,-0.5 476.5,-0.5"/>
<text text-anchor="middle" x="497" y="-7.5" font-family="Helvetica,sans-Serif" font-size="10.00">tuple</text>
</a>
</g>
</g>
<!-- Node15&#45;&gt;Node16 -->
<g id="edge17" class="edge">
<title>Node15&#45;&gt;Node16</title>
<path fill="none" stroke="midnightblue" d="M497,-61.98C497,-53.58 497,-40.48 497,-29.66"/>
<polygon fill="midnightblue" stroke="midnightblue" points="500.5,-29.51 497,-19.51 493.5,-29.51 500.5,-29.51"/>
</g>
</g>
</svg>
