<?xml version="1.0" encoding="UTF-8" standalone="no"?>
<!DOCTYPE svg PUBLIC "-//W3C//DTD SVG 1.1//EN"
 "http://www.w3.org/Graphics/SVG/1.1/DTD/svg11.dtd">
<!-- Generated by graphviz version 2.43.0 (0)
 -->
<!-- Title: p3m&#45;common.hpp Pages: 1 -->
<svg width="1300pt" height="319pt"
 viewBox="0.00 0.00 1300.00 319.00" xmlns="http://www.w3.org/2000/svg" xmlns:xlink="http://www.w3.org/1999/xlink">
<g id="graph0" class="graph" transform="scale(1 1) rotate(0) translate(4 315)">
<title>p3m&#45;common.hpp</title>
<!-- Node1 -->
<g id="node1" class="node">
<title>Node1</title>
<g id="a_node1"><a xlink:title=" ">
<polygon fill="#bfbfbf" stroke="black" points="151,-291.5 151,-310.5 257,-310.5 257,-291.5 151,-291.5"/>
<text text-anchor="middle" x="204" y="-298.5" font-family="Helvetica,sans-Serif" font-size="10.00">p3m&#45;common.hpp</text>
</a>
</g>
</g>
<!-- Node2 -->
<g id="node2" class="node">
<title>Node2</title>
<g id="a_node2"><a xlink:href="config_8hpp.html" target="_top" xlink:title=" ">
<polygon fill="none" stroke="black" points="22,-235.5 22,-254.5 90,-254.5 90,-235.5 22,-235.5"/>
<text text-anchor="middle" x="56" y="-242.5" font-family="Helvetica,sans-Serif" font-size="10.00">config.hpp</text>
</a>
</g>
</g>
<!-- Node1&#45;&gt;Node2 -->
<g id="edge1" class="edge">
<title>Node1&#45;&gt;Node2</title>
<path fill="none" stroke="midnightblue" d="M180.55,-291.44C155.87,-282.44 116.81,-268.19 89.02,-258.05"/>
<polygon fill="midnightblue" stroke="midnightblue" points="89.94,-254.66 79.34,-254.52 87.54,-261.23 89.94,-254.66"/>
</g>
<!-- Node4 -->
<g id="node4" class="node">
<title>Node4</title>
<g id="a_node4"><a xlink:title=" ">
<polygon fill="none" stroke="#bfbfbf" points="108,-235.5 108,-254.5 150,-254.5 150,-235.5 108,-235.5"/>
<text text-anchor="middle" x="129" y="-242.5" font-family="Helvetica,sans-Serif" font-size="10.00">array</text>
</a>
</g>
</g>
<!-- Node1&#45;&gt;Node4 -->
<g id="edge3" class="edge">
<title>Node1&#45;&gt;Node4</title>
<path fill="none" stroke="midnightblue" d="M191.95,-291.32C180.54,-283.11 163.17,-270.6 149.57,-260.81"/>
<polygon fill="midnightblue" stroke="midnightblue" points="151.43,-257.84 141.27,-254.83 147.34,-263.52 151.43,-257.84"/>
</g>
<!-- Node5 -->
<g id="node5" class="node">
<title>Node5</title>
<g id="a_node5"><a xlink:title=" ">
<polygon fill="none" stroke="#bfbfbf" points="274.5,-0.5 274.5,-19.5 327.5,-19.5 327.5,-0.5 274.5,-0.5"/>
<text text-anchor="middle" x="301" y="-7.5" font-family="Helvetica,sans-Serif" font-size="10.00">cstddef</text>
</a>
</g>
</g>
<!-- Node1&#45;&gt;Node5 -->
<g id="edge4" class="edge">
<title>Node1&#45;&gt;Node5</title>
<path fill="none" stroke="midnightblue" d="M200.49,-291.32C193.4,-272.96 178,-228.66 178,-190 178,-190 178,-190 178,-132 178,-79.62 235.39,-42.34 271.77,-23.97"/>
<polygon fill="midnightblue" stroke="midnightblue" points="273.5,-27.02 280.96,-19.5 270.44,-20.73 273.5,-27.02"/>
</g>
<!-- Node6 -->
<g id="node6" class="node">
<title>Node6</title>
<g id="a_node6"><a xlink:title=" ">
<polygon fill="none" stroke="#bfbfbf" points="206.5,-123.5 206.5,-142.5 253.5,-142.5 253.5,-123.5 206.5,-123.5"/>
<text text-anchor="middle" x="230" y="-130.5" font-family="Helvetica,sans-Serif" font-size="10.00">vector</text>
</a>
</g>
</g>
<!-- Node1&#45;&gt;Node6 -->
<g id="edge5" class="edge">
<title>Node1&#45;&gt;Node6</title>
<path fill="none" stroke="midnightblue" d="M205.4,-291.08C209.49,-264.95 221.51,-188.21 227.09,-152.58"/>
<polygon fill="midnightblue" stroke="midnightblue" points="230.57,-152.99 228.66,-142.57 223.65,-151.91 230.57,-152.99"/>
</g>
<!-- Node7 -->
<g id="node7" class="node">
<title>Node7</title>
<g id="a_node7"><a xlink:href="LocalBox_8hpp.html" target="_top" xlink:title=" ">
<polygon fill="none" stroke="black" points="323,-235.5 323,-254.5 405,-254.5 405,-235.5 323,-235.5"/>
<text text-anchor="middle" x="364" y="-242.5" font-family="Helvetica,sans-Serif" font-size="10.00">LocalBox.hpp</text>
</a>
</g>
</g>
<!-- Node1&#45;&gt;Node7 -->
<g id="edge6" class="edge">
<title>Node1&#45;&gt;Node7</title>
<path fill="none" stroke="midnightblue" d="M229.35,-291.44C256.27,-282.36 299,-267.94 329.09,-257.78"/>
<polygon fill="midnightblue" stroke="midnightblue" points="330.41,-261.03 338.77,-254.52 328.17,-254.4 330.41,-261.03"/>
</g>
<!-- Node8 -->
<g id="node8" class="node">
<title>Node8</title>
<g id="a_node8"><a xlink:href="Vector_8hpp.html" target="_top" xlink:title=" ">
<polygon fill="none" stroke="black" points="595.5,-179.5 595.5,-198.5 688.5,-198.5 688.5,-179.5 595.5,-179.5"/>
<text text-anchor="middle" x="642" y="-186.5" font-family="Helvetica,sans-Serif" font-size="10.00">utils/Vector.hpp</text>
</a>
</g>
</g>
<!-- Node1&#45;&gt;Node8 -->
<g id="edge32" class="edge">
<title>Node1&#45;&gt;Node8</title>
<path fill="none" stroke="midnightblue" d="M248.04,-291.45C290.66,-282.97 357.02,-269.21 414,-255 481.76,-238.1 559.85,-215.05 604.82,-201.43"/>
<polygon fill="midnightblue" stroke="midnightblue" points="605.88,-204.76 614.43,-198.5 603.85,-198.06 605.88,-204.76"/>
</g>
<!-- Node3 -->
<g id="node3" class="node">
<title>Node3</title>
<g id="a_node3"><a xlink:title=" ">
<polygon fill="none" stroke="#bfbfbf" points="0,-179.5 0,-198.5 112,-198.5 112,-179.5 0,-179.5"/>
<text text-anchor="middle" x="56" y="-186.5" font-family="Helvetica,sans-Serif" font-size="10.00">config&#45;features.hpp</text>
</a>
</g>
</g>
<!-- Node2&#45;&gt;Node3 -->
<g id="edge2" class="edge">
<title>Node2&#45;&gt;Node3</title>
<path fill="none" stroke="midnightblue" d="M56,-235.08C56,-228.01 56,-217.86 56,-208.99"/>
<polygon fill="midnightblue" stroke="midnightblue" points="59.5,-208.75 56,-198.75 52.5,-208.75 59.5,-208.75"/>
</g>
<!-- Node7&#45;&gt;Node8 -->
<g id="edge7" class="edge">
<title>Node7&#45;&gt;Node8</title>
<path fill="none" stroke="midnightblue" d="M405.02,-236.03C453.55,-226.61 534.49,-210.88 588.06,-200.48"/>
<polygon fill="midnightblue" stroke="midnightblue" points="588.91,-203.88 598.06,-198.54 587.57,-197.01 588.91,-203.88"/>
</g>
<!-- Node8&#45;&gt;Node5 -->
<g id="edge25" class="edge">
<title>Node8&#45;&gt;Node5</title>
<path fill="none" stroke="midnightblue" d="M595.39,-185.21C506.56,-179.43 320.12,-164.81 301,-143 273.39,-111.51 285.2,-57.72 294.22,-29.51"/>
<polygon fill="midnightblue" stroke="midnightblue" points="297.63,-30.33 297.56,-19.74 291.01,-28.06 297.63,-30.33"/>
</g>
<!-- Node8&#45;&gt;Node6 -->
<g id="edge31" class="edge">
<title>Node8&#45;&gt;Node6</title>
<path fill="none" stroke="midnightblue" d="M595.4,-184.1C524.4,-177.76 385.02,-163.83 268,-143 266.54,-142.74 265.05,-142.46 263.55,-142.16"/>
<polygon fill="midnightblue" stroke="midnightblue" points="264.14,-138.71 253.63,-140.03 262.67,-145.55 264.14,-138.71"/>
</g>
<!-- Node9 -->
<g id="node9" class="node">
<title>Node9</title>
<g id="a_node9"><a xlink:title=" ">
<polygon fill="none" stroke="#bfbfbf" points="1142,-123.5 1142,-142.5 1292,-142.5 1292,-123.5 1142,-123.5"/>
<text text-anchor="middle" x="1217" y="-130.5" font-family="Helvetica,sans-Serif" font-size="10.00">boost/qvm/deduce_vec.hpp</text>
</a>
</g>
</g>
<!-- Node8&#45;&gt;Node9 -->
<g id="edge8" class="edge">
<title>Node8&#45;&gt;Node9</title>
<path fill="none" stroke="midnightblue" d="M688.59,-183.82C775.16,-176.02 966.7,-158.62 1128,-143 1129.12,-142.89 1130.25,-142.78 1131.38,-142.67"/>
<polygon fill="midnightblue" stroke="midnightblue" points="1132.13,-146.11 1141.74,-141.66 1131.45,-139.15 1132.13,-146.11"/>
</g>
<!-- Node10 -->
<g id="node10" class="node">
<title>Node10</title>
<g id="a_node10"><a xlink:title=" ">
<polygon fill="none" stroke="#bfbfbf" points="310,-123.5 310,-142.5 450,-142.5 450,-123.5 310,-123.5"/>
<text text-anchor="middle" x="380" y="-130.5" font-family="Helvetica,sans-Serif" font-size="10.00">boost/qvm/vec_traits.hpp</text>
</a>
</g>
</g>
<!-- Node8&#45;&gt;Node10 -->
<g id="edge9" class="edge">
<title>Node8&#45;&gt;Node10</title>
<path fill="none" stroke="midnightblue" d="M600.49,-179.44C554.59,-169.98 480.62,-154.74 431.17,-144.55"/>
<polygon fill="midnightblue" stroke="midnightblue" points="431.82,-141.11 421.32,-142.52 430.41,-147.96 431.82,-141.11"/>
</g>
<!-- Node11 -->
<g id="node11" class="node">
<title>Node11</title>
<g id="a_node11"><a xlink:href="Array_8hpp.html" target="_top" xlink:title=" ">
<polygon fill="none" stroke="black" points="468,-123.5 468,-142.5 554,-142.5 554,-123.5 468,-123.5"/>
<text text-anchor="middle" x="511" y="-130.5" font-family="Helvetica,sans-Serif" font-size="10.00">utils/Array.hpp</text>
</a>
</g>
</g>
<!-- Node8&#45;&gt;Node11 -->
<g id="edge10" class="edge">
<title>Node8&#45;&gt;Node11</title>
<path fill="none" stroke="midnightblue" d="M621.24,-179.44C599.68,-170.56 565.74,-156.56 541.21,-146.45"/>
<polygon fill="midnightblue" stroke="midnightblue" points="542.24,-143.09 531.66,-142.52 539.57,-149.56 542.24,-143.09"/>
</g>
<!-- Node13 -->
<g id="node13" class="node">
<title>Node13</title>
<g id="a_node13"><a xlink:title=" ">
<polygon fill="none" stroke="#bfbfbf" points="821,-0.5 821,-19.5 873,-19.5 873,-0.5 821,-0.5"/>
<text text-anchor="middle" x="847" y="-7.5" font-family="Helvetica,sans-Serif" font-size="10.00">cassert</text>
</a>
</g>
</g>
<!-- Node8&#45;&gt;Node13 -->
<g id="edge23" class="edge">
<title>Node8&#45;&gt;Node13</title>
<path fill="none" stroke="midnightblue" d="M688.75,-186.84C799.01,-183.61 1068.08,-172.73 1095,-143 1161.4,-69.67 966.91,-29.68 883.25,-16.23"/>
<polygon fill="midnightblue" stroke="midnightblue" points="883.57,-12.74 873.15,-14.65 882.49,-19.65 883.57,-12.74"/>
</g>
<!-- Node17 -->
<g id="node17" class="node">
<title>Node17</title>
<g id="a_node17"><a xlink:title=" ">
<polygon fill="none" stroke="#bfbfbf" points="875.5,-62 875.5,-81 928.5,-81 928.5,-62 875.5,-62"/>
<text text-anchor="middle" x="902" y="-69" font-family="Helvetica,sans-Serif" font-size="10.00">iterator</text>
</a>
</g>
</g>
<!-- Node8&#45;&gt;Node17 -->
<g id="edge28" class="edge">
<title>Node8&#45;&gt;Node17</title>
<path fill="none" stroke="midnightblue" d="M629.7,-179.44C612.5,-166.44 585.05,-141.31 601,-123 639.31,-79.02 804.33,-100.79 861,-87 864.23,-86.21 867.56,-85.27 870.86,-84.25"/>
<polygon fill="midnightblue" stroke="midnightblue" points="872.17,-87.5 880.54,-81.01 869.95,-80.86 872.17,-87.5"/>
</g>
<!-- Node20 -->
<g id="node20" class="node">
<title>Node20</title>
<g id="a_node20"><a xlink:title=" ">
<polygon fill="none" stroke="#bfbfbf" points="610,-123.5 610,-142.5 674,-142.5 674,-123.5 610,-123.5"/>
<text text-anchor="middle" x="642" y="-130.5" font-family="Helvetica,sans-Serif" font-size="10.00">algorithm</text>
</a>
</g>
</g>
<!-- Node8&#45;&gt;Node20 -->
<g id="edge22" class="edge">
<title>Node8&#45;&gt;Node20</title>
<path fill="none" stroke="midnightblue" d="M642,-179.08C642,-172.01 642,-161.86 642,-152.99"/>
<polygon fill="midnightblue" stroke="midnightblue" points="645.5,-152.75 642,-142.75 638.5,-152.75 645.5,-152.75"/>
</g>
<!-- Node21 -->
<g id="node21" class="node">
<title>Node21</title>
<g id="a_node21"><a xlink:title=" ">
<polygon fill="none" stroke="#bfbfbf" points="692.5,-123.5 692.5,-142.5 739.5,-142.5 739.5,-123.5 692.5,-123.5"/>
<text text-anchor="middle" x="716" y="-130.5" font-family="Helvetica,sans-Serif" font-size="10.00">cmath</text>
</a>
</g>
</g>
<!-- Node8&#45;&gt;Node21 -->
<g id="edge24" class="edge">
<title>Node8&#45;&gt;Node21</title>
<path fill="none" stroke="midnightblue" d="M653.89,-179.32C665.15,-171.11 682.29,-158.6 695.71,-148.81"/>
<polygon fill="midnightblue" stroke="midnightblue" points="697.88,-151.56 703.89,-142.83 693.75,-145.9 697.88,-151.56"/>
</g>
<!-- Node22 -->
<g id="node22" class="node">
<title>Node22</title>
<g id="a_node22"><a xlink:title=" ">
<polygon fill="none" stroke="#bfbfbf" points="757.5,-123.5 757.5,-142.5 822.5,-142.5 822.5,-123.5 757.5,-123.5"/>
<text text-anchor="middle" x="790" y="-130.5" font-family="Helvetica,sans-Serif" font-size="10.00">functional</text>
</a>
</g>
</g>
<!-- Node8&#45;&gt;Node22 -->
<g id="edge26" class="edge">
<title>Node8&#45;&gt;Node22</title>
<path fill="none" stroke="midnightblue" d="M665.45,-179.44C690.13,-170.44 729.19,-156.19 756.98,-146.05"/>
<polygon fill="midnightblue" stroke="midnightblue" points="758.46,-149.23 766.66,-142.52 756.06,-142.66 758.46,-149.23"/>
</g>
<!-- Node23 -->
<g id="node23" class="node">
<title>Node23</title>
<g id="a_node23"><a xlink:title=" ">
<polygon fill="none" stroke="#bfbfbf" points="840.5,-123.5 840.5,-142.5 923.5,-142.5 923.5,-123.5 840.5,-123.5"/>
<text text-anchor="middle" x="882" y="-130.5" font-family="Helvetica,sans-Serif" font-size="10.00">initializer_list</text>
</a>
</g>
</g>
<!-- Node8&#45;&gt;Node23 -->
<g id="edge27" class="edge">
<title>Node8&#45;&gt;Node23</title>
<path fill="none" stroke="midnightblue" d="M680.03,-179.44C721.81,-170.04 788.98,-154.93 834.27,-144.74"/>
<polygon fill="midnightblue" stroke="midnightblue" points="835.16,-148.13 844.15,-142.52 833.62,-141.3 835.16,-148.13"/>
</g>
<!-- Node24 -->
<g id="node24" class="node">
<title>Node24</title>
<g id="a_node24"><a xlink:title=" ">
<polygon fill="none" stroke="#bfbfbf" points="942,-123.5 942,-142.5 998,-142.5 998,-123.5 942,-123.5"/>
<text text-anchor="middle" x="970" y="-130.5" font-family="Helvetica,sans-Serif" font-size="10.00">numeric</text>
</a>
</g>
</g>
<!-- Node8&#45;&gt;Node24 -->
<g id="edge29" class="edge">
<title>Node8&#45;&gt;Node24</title>
<path fill="none" stroke="midnightblue" d="M688.58,-182.04C744.2,-174.65 840.21,-161.03 931.78,-143.1"/>
<polygon fill="midnightblue" stroke="midnightblue" points="932.64,-146.5 941.77,-141.13 931.28,-139.64 932.64,-146.5"/>
</g>
<!-- Node25 -->
<g id="node25" class="node">
<title>Node25</title>
<g id="a_node25"><a xlink:title=" ">
<polygon fill="none" stroke="#bfbfbf" points="1016.5,-123.5 1016.5,-142.5 1085.5,-142.5 1085.5,-123.5 1016.5,-123.5"/>
<text text-anchor="middle" x="1051" y="-130.5" font-family="Helvetica,sans-Serif" font-size="10.00">type_traits</text>
</a>
</g>
</g>
<!-- Node8&#45;&gt;Node25 -->
<g id="edge30" class="edge">
<title>Node8&#45;&gt;Node25</title>
<path fill="none" stroke="midnightblue" d="M688.55,-183.45C756.19,-176.58 885.78,-162.44 1006.32,-142.99"/>
<polygon fill="midnightblue" stroke="midnightblue" points="1007.15,-146.4 1016.46,-141.33 1006.03,-139.49 1007.15,-146.4"/>
</g>
<!-- Node11&#45;&gt;Node5 -->
<g id="edge18" class="edge">
<title>Node11&#45;&gt;Node5</title>
<path fill="none" stroke="midnightblue" d="M471.99,-123.5C424.8,-112.94 350.35,-95.32 340,-87 321.79,-72.37 311.23,-46.97 305.79,-29.6"/>
<polygon fill="midnightblue" stroke="midnightblue" points="309.03,-28.19 302.93,-19.53 302.3,-30.11 309.03,-28.19"/>
</g>
<!-- Node12 -->
<g id="node12" class="node">
<title>Node12</title>
<g id="a_node12"><a xlink:href="device__qualifier_8hpp.html" target="_top" xlink:title=" ">
<polygon fill="none" stroke="black" points="703,-62 703,-81 819,-81 819,-62 703,-62"/>
<text text-anchor="middle" x="761" y="-69" font-family="Helvetica,sans-Serif" font-size="10.00">device_qualifier.hpp</text>
</a>
</g>
</g>
<!-- Node11&#45;&gt;Node12 -->
<g id="edge11" class="edge">
<title>Node11&#45;&gt;Node12</title>
<path fill="none" stroke="midnightblue" d="M546.82,-123.48C591.19,-112.92 666.84,-94.91 715.33,-83.37"/>
<polygon fill="midnightblue" stroke="midnightblue" points="716.33,-86.73 725.25,-81.01 714.71,-79.92 716.33,-86.73"/>
</g>
<!-- Node11&#45;&gt;Node13 -->
<g id="edge17" class="edge">
<title>Node11&#45;&gt;Node13</title>
<path fill="none" stroke="midnightblue" d="M554.06,-127.17C638.36,-117.54 817.91,-96.09 828,-87 843.91,-72.66 847.44,-47.2 847.79,-29.73"/>
<polygon fill="midnightblue" stroke="midnightblue" points="851.29,-29.55 847.67,-19.6 844.29,-29.64 851.29,-29.55"/>
</g>
<!-- Node14 -->
<g id="node14" class="node">
<title>Node14</title>
<g id="a_node14"><a xlink:href="get_8hpp.html" target="_top" xlink:title=" ">
<polygon fill="none" stroke="black" points="631.5,-62 631.5,-81 684.5,-81 684.5,-62 631.5,-62"/>
<text text-anchor="middle" x="658" y="-69" font-family="Helvetica,sans-Serif" font-size="10.00">get.hpp</text>
</a>
</g>
</g>
<!-- Node11&#45;&gt;Node14 -->
<g id="edge13" class="edge">
<title>Node11&#45;&gt;Node14</title>
<path fill="none" stroke="midnightblue" d="M532.5,-123.44C555.07,-114.44 591.57,-99.82 623,-87 624.59,-86.35 626.22,-85.68 627.87,-85.01"/>
<polygon fill="midnightblue" stroke="midnightblue" points="629.38,-88.17 637.29,-81.12 626.71,-81.7 629.38,-88.17"/>
</g>
<!-- Node16 -->
<g id="node16" class="node">
<title>Node16</title>
<g id="a_node16"><a xlink:title=" ">
<polygon fill="none" stroke="#bfbfbf" points="348.5,-56.5 348.5,-86.5 455.5,-86.5 455.5,-56.5 348.5,-56.5"/>
<text text-anchor="start" x="356.5" y="-74.5" font-family="Helvetica,sans-Serif" font-size="10.00">boost/serialization</text>
<text text-anchor="middle" x="402" y="-63.5" font-family="Helvetica,sans-Serif" font-size="10.00">/access.hpp</text>
</a>
</g>
</g>
<!-- Node11&#45;&gt;Node16 -->
<g id="edge16" class="edge">
<title>Node11&#45;&gt;Node16</title>
<path fill="none" stroke="midnightblue" d="M495.38,-123.48C480.14,-115.15 456.42,-102.21 436.71,-91.45"/>
<polygon fill="midnightblue" stroke="midnightblue" points="438.14,-88.24 427.69,-86.52 434.79,-94.39 438.14,-88.24"/>
</g>
<!-- Node11&#45;&gt;Node17 -->
<g id="edge19" class="edge">
<title>Node11&#45;&gt;Node17</title>
<path fill="none" stroke="midnightblue" d="M554.24,-125.01C558.88,-124.31 563.54,-123.63 568,-123 697.93,-104.77 733.29,-117.05 861,-87 864.23,-86.24 867.57,-85.31 870.87,-84.3"/>
<polygon fill="midnightblue" stroke="midnightblue" points="872.18,-87.55 880.56,-81.07 869.97,-80.91 872.18,-87.55"/>
</g>
<!-- Node18 -->
<g id="node18" class="node">
<title>Node18</title>
<g id="a_node18"><a xlink:title=" ">
<polygon fill="none" stroke="#bfbfbf" points="473.5,-62 473.5,-81 530.5,-81 530.5,-62 473.5,-62"/>
<text text-anchor="middle" x="502" y="-69" font-family="Helvetica,sans-Serif" font-size="10.00">ostream</text>
</a>
</g>
</g>
<!-- Node11&#45;&gt;Node18 -->
<g id="edge20" class="edge">
<title>Node11&#45;&gt;Node18</title>
<path fill="none" stroke="midnightblue" d="M509.71,-123.48C508.44,-115.08 506.46,-101.98 504.82,-91.16"/>
<polygon fill="midnightblue" stroke="midnightblue" points="508.24,-90.37 503.29,-81.01 501.32,-91.42 508.24,-90.37"/>
</g>
<!-- Node19 -->
<g id="node19" class="node">
<title>Node19</title>
<g id="a_node19"><a xlink:title=" ">
<polygon fill="none" stroke="#bfbfbf" points="548.5,-62 548.5,-81 613.5,-81 613.5,-62 548.5,-62"/>
<text text-anchor="middle" x="581" y="-69" font-family="Helvetica,sans-Serif" font-size="10.00">stdexcept</text>
</a>
</g>
</g>
<!-- Node11&#45;&gt;Node19 -->
<g id="edge21" class="edge">
<title>Node11&#45;&gt;Node19</title>
<path fill="none" stroke="midnightblue" d="M521.03,-123.48C532.05,-114.11 549.96,-98.88 563.34,-87.51"/>
<polygon fill="midnightblue" stroke="midnightblue" points="565.64,-90.15 570.99,-81.01 561.1,-84.82 565.64,-90.15"/>
</g>
<!-- Node12&#45;&gt;Node13 -->
<g id="edge12" class="edge">
<title>Node12&#45;&gt;Node13</title>
<path fill="none" stroke="midnightblue" d="M773.32,-61.98C787.12,-52.43 809.7,-36.81 826.23,-25.37"/>
<polygon fill="midnightblue" stroke="midnightblue" points="828.47,-28.08 834.7,-19.51 824.49,-22.32 828.47,-28.08"/>
</g>
<!-- Node14&#45;&gt;Node5 -->
<g id="edge14" class="edge">
<title>Node14&#45;&gt;Node5</title>
<path fill="none" stroke="midnightblue" d="M639.78,-61.93C634.47,-59.71 628.58,-57.52 623,-56 522.04,-28.51 398.46,-17.24 337.95,-13.11"/>
<polygon fill="midnightblue" stroke="midnightblue" points="337.96,-9.6 327.75,-12.44 337.5,-16.59 337.96,-9.6"/>
</g>
<!-- Node15 -->
<g id="node15" class="node">
<title>Node15</title>
<g id="a_node15"><a xlink:title=" ">
<polygon fill="none" stroke="#bfbfbf" points="637.5,-0.5 637.5,-19.5 678.5,-19.5 678.5,-0.5 637.5,-0.5"/>
<text text-anchor="middle" x="658" y="-7.5" font-family="Helvetica,sans-Serif" font-size="10.00">tuple</text>
</a>
</g>
</g>
<!-- Node14&#45;&gt;Node15 -->
<g id="edge15" class="edge">
<title>Node14&#45;&gt;Node15</title>
<path fill="none" stroke="midnightblue" d="M658,-61.98C658,-53.58 658,-40.48 658,-29.66"/>
<polygon fill="midnightblue" stroke="midnightblue" points="661.5,-29.51 658,-19.51 654.5,-29.51 661.5,-29.51"/>
</g>
</g>
</svg>
