<?xml version="1.0" encoding="UTF-8" standalone="no"?>
<!DOCTYPE svg PUBLIC "-//W3C//DTD SVG 1.1//EN"
 "http://www.w3.org/Graphics/SVG/1.1/DTD/svg11.dtd">
<!-- Generated by graphviz version 2.43.0 (0)
 -->
<!-- Title: p3m&#45;common.cpp Pages: 1 -->
<svg width="1585pt" height="397pt"
 viewBox="0.00 0.00 1584.88 397.00" xmlns="http://www.w3.org/2000/svg" xmlns:xlink="http://www.w3.org/1999/xlink">
<g id="graph0" class="graph" transform="scale(1 1) rotate(0) translate(4 393)">
<title>p3m&#45;common.cpp</title>
<!-- Node1 -->
<g id="node1" class="node">
<title>Node1</title>
<g id="a_node1"><a xlink:title=" ">
<polygon fill="#bfbfbf" stroke="black" points="694,-369.5 694,-388.5 799,-388.5 799,-369.5 694,-369.5"/>
<text text-anchor="middle" x="746.5" y="-376.5" font-family="Helvetica,sans-Serif" font-size="10.00">p3m&#45;common.cpp</text>
</a>
</g>
</g>
<!-- Node2 -->
<g id="node2" class="node">
<title>Node2</title>
<g id="a_node2"><a xlink:href="p3m-common_8hpp.html" target="_top" xlink:title=" ">
<polygon fill="none" stroke="black" points="956.5,-313.5 956.5,-332.5 1062.5,-332.5 1062.5,-313.5 956.5,-313.5"/>
<text text-anchor="middle" x="1009.5" y="-320.5" font-family="Helvetica,sans-Serif" font-size="10.00">p3m&#45;common.hpp</text>
</a>
</g>
</g>
<!-- Node1&#45;&gt;Node2 -->
<g id="edge1" class="edge">
<title>Node1&#45;&gt;Node2</title>
<path fill="none" stroke="midnightblue" d="M788.17,-369.44C834.25,-359.98 908.5,-344.74 958.13,-334.55"/>
<polygon fill="midnightblue" stroke="midnightblue" points="958.93,-337.96 968.02,-332.52 957.52,-331.1 958.93,-337.96"/>
</g>
<!-- Node9 -->
<g id="node9" class="node">
<title>Node9</title>
<g id="a_node9"><a xlink:href="Vector_8hpp.html" target="_top" xlink:title=" ">
<polygon fill="none" stroke="black" points="700,-190.5 700,-209.5 793,-209.5 793,-190.5 700,-190.5"/>
<text text-anchor="middle" x="746.5" y="-197.5" font-family="Helvetica,sans-Serif" font-size="10.00">utils/Vector.hpp</text>
</a>
</g>
</g>
<!-- Node1&#45;&gt;Node9 -->
<g id="edge47" class="edge">
<title>Node1&#45;&gt;Node9</title>
<path fill="none" stroke="midnightblue" d="M746.5,-369.46C746.5,-342.43 746.5,-258.24 746.5,-220.11"/>
<polygon fill="midnightblue" stroke="midnightblue" points="750,-219.87 746.5,-209.87 743,-219.87 750,-219.87"/>
</g>
<!-- Node22 -->
<g id="node22" class="node">
<title>Node22</title>
<g id="a_node22"><a xlink:title=" ">
<polygon fill="none" stroke="#bfbfbf" points="162,-129 162,-148 209,-148 209,-129 162,-129"/>
<text text-anchor="middle" x="185.5" y="-136" font-family="Helvetica,sans-Serif" font-size="10.00">cmath</text>
</a>
</g>
</g>
<!-- Node1&#45;&gt;Node22 -->
<g id="edge53" class="edge">
<title>Node1&#45;&gt;Node22</title>
<path fill="none" stroke="midnightblue" d="M726.2,-369.37C641.41,-333.32 315.31,-194.69 215.02,-152.05"/>
<polygon fill="midnightblue" stroke="midnightblue" points="216.34,-148.81 205.77,-148.12 213.6,-155.25 216.34,-148.81"/>
</g>
<!-- Node27 -->
<g id="node27" class="node">
<title>Node27</title>
<g id="a_node27"><a xlink:href="errorhandling_8hpp.html" target="_top" xlink:title=" ">
<polygon fill="none" stroke="black" points="1267,-313.5 1267,-332.5 1370,-332.5 1370,-313.5 1267,-313.5"/>
<text text-anchor="middle" x="1318.5" y="-320.5" font-family="Helvetica,sans-Serif" font-size="10.00">errorhandling.hpp</text>
</a>
</g>
</g>
<!-- Node1&#45;&gt;Node27 -->
<g id="edge34" class="edge">
<title>Node1&#45;&gt;Node27</title>
<path fill="none" stroke="midnightblue" d="M799.03,-373.04C904.82,-363.05 1143.07,-340.56 1256.37,-329.87"/>
<polygon fill="midnightblue" stroke="midnightblue" points="1256.98,-333.32 1266.61,-328.9 1256.32,-326.35 1256.98,-333.32"/>
</g>
<!-- Node34 -->
<g id="node34" class="node">
<title>Node34</title>
<g id="a_node34"><a xlink:href="constants_8hpp.html" target="_top" xlink:title=" ">
<polygon fill="none" stroke="black" points="258,-313.5 258,-332.5 367,-332.5 367,-313.5 258,-313.5"/>
<text text-anchor="middle" x="312.5" y="-320.5" font-family="Helvetica,sans-Serif" font-size="10.00">utils/constants.hpp</text>
</a>
</g>
</g>
<!-- Node1&#45;&gt;Node34 -->
<g id="edge48" class="edge">
<title>Node1&#45;&gt;Node34</title>
<path fill="none" stroke="midnightblue" d="M693.72,-371.43C614.16,-361.53 463.68,-342.81 377.49,-332.09"/>
<polygon fill="midnightblue" stroke="midnightblue" points="377.66,-328.58 367.3,-330.82 376.79,-335.53 377.66,-328.58"/>
</g>
<!-- Node36 -->
<g id="node36" class="node">
<title>Node36</title>
<g id="a_node36"><a xlink:href="sqr_8hpp.html" target="_top" xlink:title=" ">
<polygon fill="none" stroke="black" points="0,-190.5 0,-209.5 105,-209.5 105,-190.5 0,-190.5"/>
<text text-anchor="middle" x="52.5" y="-197.5" font-family="Helvetica,sans-Serif" font-size="10.00">utils/math/sqr.hpp</text>
</a>
</g>
</g>
<!-- Node1&#45;&gt;Node36 -->
<g id="edge51" class="edge">
<title>Node1&#45;&gt;Node36</title>
<path fill="none" stroke="midnightblue" d="M693.96,-378.7C602.12,-378.73 407.06,-373.46 248.5,-333 187.94,-317.55 170.04,-313.77 119.5,-277 96.7,-260.41 76.18,-234.8 64.03,-217.96"/>
<polygon fill="midnightblue" stroke="midnightblue" points="66.79,-215.8 58.17,-209.63 61.06,-219.82 66.79,-215.8"/>
</g>
<!-- Node37 -->
<g id="node37" class="node">
<title>Node37</title>
<g id="a_node37"><a xlink:title=" ">
<polygon fill="none" stroke="#bfbfbf" points="1388.5,-313.5 1388.5,-332.5 1434.5,-332.5 1434.5,-313.5 1388.5,-313.5"/>
<text text-anchor="middle" x="1411.5" y="-320.5" font-family="Helvetica,sans-Serif" font-size="10.00">cstdio</text>
</a>
</g>
</g>
<!-- Node1&#45;&gt;Node37 -->
<g id="edge54" class="edge">
<title>Node1&#45;&gt;Node37</title>
<path fill="none" stroke="midnightblue" d="M799.04,-377.86C906.42,-376.79 1158.71,-370.33 1378.11,-332.89"/>
<polygon fill="midnightblue" stroke="midnightblue" points="1378.95,-336.3 1388.21,-331.14 1377.76,-329.4 1378.95,-336.3"/>
</g>
<!-- Node3 -->
<g id="node3" class="node">
<title>Node3</title>
<g id="a_node3"><a xlink:href="config_8hpp.html" target="_top" xlink:title=" ">
<polygon fill="none" stroke="black" points="1200.5,-252 1200.5,-271 1268.5,-271 1268.5,-252 1200.5,-252"/>
<text text-anchor="middle" x="1234.5" y="-259" font-family="Helvetica,sans-Serif" font-size="10.00">config.hpp</text>
</a>
</g>
</g>
<!-- Node2&#45;&gt;Node3 -->
<g id="edge2" class="edge">
<title>Node2&#45;&gt;Node3</title>
<path fill="none" stroke="midnightblue" d="M1041.74,-313.48C1081.42,-302.98 1148.9,-285.14 1192.57,-273.59"/>
<polygon fill="midnightblue" stroke="midnightblue" points="1193.55,-276.95 1202.32,-271.01 1191.76,-270.18 1193.55,-276.95"/>
</g>
<!-- Node5 -->
<g id="node5" class="node">
<title>Node5</title>
<g id="a_node5"><a xlink:title=" ">
<polygon fill="none" stroke="#bfbfbf" points="839.5,-252 839.5,-271 881.5,-271 881.5,-252 839.5,-252"/>
<text text-anchor="middle" x="860.5" y="-259" font-family="Helvetica,sans-Serif" font-size="10.00">array</text>
</a>
</g>
</g>
<!-- Node2&#45;&gt;Node5 -->
<g id="edge4" class="edge">
<title>Node2&#45;&gt;Node5</title>
<path fill="none" stroke="midnightblue" d="M985.09,-313.49C960.86,-304.87 922.77,-290.87 890.5,-277 889.3,-276.49 888.09,-275.95 886.86,-275.4"/>
<polygon fill="midnightblue" stroke="midnightblue" points="888.06,-272.1 877.51,-271.05 885.1,-278.44 888.06,-272.1"/>
</g>
<!-- Node6 -->
<g id="node6" class="node">
<title>Node6</title>
<g id="a_node6"><a xlink:title=" ">
<polygon fill="none" stroke="#bfbfbf" points="689,-0.5 689,-19.5 742,-19.5 742,-0.5 689,-0.5"/>
<text text-anchor="middle" x="715.5" y="-7.5" font-family="Helvetica,sans-Serif" font-size="10.00">cstddef</text>
</a>
</g>
</g>
<!-- Node2&#45;&gt;Node6 -->
<g id="edge5" class="edge">
<title>Node2&#45;&gt;Node6</title>
<path fill="none" stroke="midnightblue" d="M1019.84,-313.16C1052.97,-284.59 1155.27,-194.2 1171.5,-154 1176.66,-141.22 1177.93,-135.19 1171.5,-123 1146.88,-76.34 1122.84,-74.7 1073.5,-56 1015.2,-33.9 831.1,-18.96 752.1,-13.41"/>
<polygon fill="midnightblue" stroke="midnightblue" points="752.33,-9.92 742.11,-12.72 751.85,-16.9 752.33,-9.92"/>
</g>
<!-- Node7 -->
<g id="node7" class="node">
<title>Node7</title>
<g id="a_node7"><a xlink:title=" ">
<polygon fill="none" stroke="#bfbfbf" points="1240,-129 1240,-148 1287,-148 1287,-129 1240,-129"/>
<text text-anchor="middle" x="1263.5" y="-136" font-family="Helvetica,sans-Serif" font-size="10.00">vector</text>
</a>
</g>
</g>
<!-- Node2&#45;&gt;Node7 -->
<g id="edge6" class="edge">
<title>Node2&#45;&gt;Node7</title>
<path fill="none" stroke="midnightblue" d="M1053.13,-313.42C1077.13,-306.85 1106.08,-295.63 1126.5,-277 1158.37,-247.93 1139.52,-221.01 1169.5,-190 1179.35,-179.81 1210.97,-163.78 1234.84,-152.51"/>
<polygon fill="midnightblue" stroke="midnightblue" points="1236.61,-155.55 1244.19,-148.16 1233.65,-149.21 1236.61,-155.55"/>
</g>
<!-- Node8 -->
<g id="node8" class="node">
<title>Node8</title>
<g id="a_node8"><a xlink:href="LocalBox_8hpp.html" target="_top" xlink:title=" ">
<polygon fill="none" stroke="black" points="899.5,-252 899.5,-271 981.5,-271 981.5,-252 899.5,-252"/>
<text text-anchor="middle" x="940.5" y="-259" font-family="Helvetica,sans-Serif" font-size="10.00">LocalBox.hpp</text>
</a>
</g>
</g>
<!-- Node2&#45;&gt;Node8 -->
<g id="edge7" class="edge">
<title>Node2&#45;&gt;Node8</title>
<path fill="none" stroke="midnightblue" d="M999.61,-313.48C988.85,-304.2 971.43,-289.17 958.28,-277.83"/>
<polygon fill="midnightblue" stroke="midnightblue" points="960.23,-274.89 950.37,-271.01 955.66,-280.19 960.23,-274.89"/>
</g>
<!-- Node2&#45;&gt;Node9 -->
<g id="edge33" class="edge">
<title>Node2&#45;&gt;Node9</title>
<path fill="none" stroke="midnightblue" d="M1010.1,-313.48C1010.7,-297.69 1009.53,-263.88 990.5,-246 964.07,-221.17 866.85,-209.54 803.4,-204.48"/>
<polygon fill="midnightblue" stroke="midnightblue" points="803.37,-200.97 793.13,-203.7 802.84,-207.95 803.37,-200.97"/>
</g>
<!-- Node4 -->
<g id="node4" class="node">
<title>Node4</title>
<g id="a_node4"><a xlink:title=" ">
<polygon fill="none" stroke="#bfbfbf" points="1178.5,-190.5 1178.5,-209.5 1290.5,-209.5 1290.5,-190.5 1178.5,-190.5"/>
<text text-anchor="middle" x="1234.5" y="-197.5" font-family="Helvetica,sans-Serif" font-size="10.00">config&#45;features.hpp</text>
</a>
</g>
</g>
<!-- Node3&#45;&gt;Node4 -->
<g id="edge3" class="edge">
<title>Node3&#45;&gt;Node4</title>
<path fill="none" stroke="midnightblue" d="M1234.5,-251.98C1234.5,-243.58 1234.5,-230.48 1234.5,-219.66"/>
<polygon fill="midnightblue" stroke="midnightblue" points="1238,-219.51 1234.5,-209.51 1231,-219.51 1238,-219.51"/>
</g>
<!-- Node8&#45;&gt;Node9 -->
<g id="edge8" class="edge">
<title>Node8&#45;&gt;Node9</title>
<path fill="none" stroke="midnightblue" d="M912.7,-251.98C878.85,-241.59 821.53,-224.01 783.85,-212.45"/>
<polygon fill="midnightblue" stroke="midnightblue" points="784.83,-209.1 774.24,-209.51 782.78,-215.79 784.83,-209.1"/>
</g>
<!-- Node9&#45;&gt;Node6 -->
<g id="edge26" class="edge">
<title>Node9&#45;&gt;Node6</title>
<path fill="none" stroke="midnightblue" d="M759.28,-190.37C769.89,-182.36 784.23,-169.38 790.5,-154 797.02,-138.02 796.98,-72.24 787.5,-56 779.03,-41.49 763.82,-30.97 749.55,-23.78"/>
<polygon fill="midnightblue" stroke="midnightblue" points="750.94,-20.56 740.4,-19.52 747.99,-26.91 750.94,-20.56"/>
</g>
<!-- Node9&#45;&gt;Node7 -->
<g id="edge32" class="edge">
<title>Node9&#45;&gt;Node7</title>
<path fill="none" stroke="midnightblue" d="M793.01,-195.59C873.61,-189.38 1044.34,-174.92 1187.5,-154 1201.45,-151.96 1216.73,-149.16 1229.91,-146.56"/>
<polygon fill="midnightblue" stroke="midnightblue" points="1230.85,-149.94 1239.97,-144.54 1229.47,-143.08 1230.85,-149.94"/>
</g>
<!-- Node10 -->
<g id="node10" class="node">
<title>Node10</title>
<g id="a_node10"><a xlink:title=" ">
<polygon fill="none" stroke="#bfbfbf" points="837.5,-129 837.5,-148 987.5,-148 987.5,-129 837.5,-129"/>
<text text-anchor="middle" x="912.5" y="-136" font-family="Helvetica,sans-Serif" font-size="10.00">boost/qvm/deduce_vec.hpp</text>
</a>
</g>
</g>
<!-- Node9&#45;&gt;Node10 -->
<g id="edge9" class="edge">
<title>Node9&#45;&gt;Node10</title>
<path fill="none" stroke="midnightblue" d="M770.28,-190.48C798.88,-180.22 847.05,-162.96 879.3,-151.4"/>
<polygon fill="midnightblue" stroke="midnightblue" points="880.53,-154.68 888.76,-148.01 878.17,-148.09 880.53,-154.68"/>
</g>
<!-- Node11 -->
<g id="node11" class="node">
<title>Node11</title>
<g id="a_node11"><a xlink:title=" ">
<polygon fill="none" stroke="#bfbfbf" points="1005.5,-129 1005.5,-148 1145.5,-148 1145.5,-129 1005.5,-129"/>
<text text-anchor="middle" x="1075.5" y="-136" font-family="Helvetica,sans-Serif" font-size="10.00">boost/qvm/vec_traits.hpp</text>
</a>
</g>
</g>
<!-- Node9&#45;&gt;Node11 -->
<g id="edge10" class="edge">
<title>Node9&#45;&gt;Node11</title>
<path fill="none" stroke="midnightblue" d="M793.05,-190.67C843.26,-181.67 925.56,-166.9 996.5,-154 1003.85,-152.66 1011.57,-151.25 1019.2,-149.86"/>
<polygon fill="midnightblue" stroke="midnightblue" points="1019.93,-153.28 1029.14,-148.04 1018.67,-146.4 1019.93,-153.28"/>
</g>
<!-- Node12 -->
<g id="node12" class="node">
<title>Node12</title>
<g id="a_node12"><a xlink:href="Array_8hpp.html" target="_top" xlink:title=" ">
<polygon fill="none" stroke="black" points="431.5,-129 431.5,-148 517.5,-148 517.5,-129 431.5,-129"/>
<text text-anchor="middle" x="474.5" y="-136" font-family="Helvetica,sans-Serif" font-size="10.00">utils/Array.hpp</text>
</a>
</g>
</g>
<!-- Node9&#45;&gt;Node12 -->
<g id="edge11" class="edge">
<title>Node9&#45;&gt;Node12</title>
<path fill="none" stroke="midnightblue" d="M699.94,-190.46C655.26,-182.03 586,-168.36 526.5,-154 522.35,-153 518.03,-151.89 513.73,-150.75"/>
<polygon fill="midnightblue" stroke="midnightblue" points="514.4,-147.31 503.83,-148.07 512.56,-154.06 514.4,-147.31"/>
</g>
<!-- Node14 -->
<g id="node14" class="node">
<title>Node14</title>
<g id="a_node14"><a xlink:title=" ">
<polygon fill="none" stroke="#bfbfbf" points="211.5,-0.5 211.5,-19.5 263.5,-19.5 263.5,-0.5 211.5,-0.5"/>
<text text-anchor="middle" x="237.5" y="-7.5" font-family="Helvetica,sans-Serif" font-size="10.00">cassert</text>
</a>
</g>
</g>
<!-- Node9&#45;&gt;Node14 -->
<g id="edge24" class="edge">
<title>Node9&#45;&gt;Node14</title>
<path fill="none" stroke="midnightblue" d="M699.98,-196.29C580.73,-189.14 272.39,-169.25 256.5,-154 222.71,-121.56 228.15,-60.19 233.54,-29.48"/>
<polygon fill="midnightblue" stroke="midnightblue" points="236.97,-30.15 235.45,-19.66 230.1,-28.81 236.97,-30.15"/>
</g>
<!-- Node18 -->
<g id="node18" class="node">
<title>Node18</title>
<g id="a_node18"><a xlink:title=" ">
<polygon fill="none" stroke="#bfbfbf" points="725,-62 725,-81 778,-81 778,-62 725,-62"/>
<text text-anchor="middle" x="751.5" y="-69" font-family="Helvetica,sans-Serif" font-size="10.00">iterator</text>
</a>
</g>
</g>
<!-- Node9&#45;&gt;Node18 -->
<g id="edge29" class="edge">
<title>Node9&#45;&gt;Node18</title>
<path fill="none" stroke="midnightblue" d="M793.12,-197.29C895.08,-193.08 1130.73,-180.54 1154.5,-154 1163.69,-143.74 1163.62,-133.33 1154.5,-123 1142.41,-109.3 885.81,-84.69 788.49,-75.81"/>
<polygon fill="midnightblue" stroke="midnightblue" points="788.51,-72.3 778.23,-74.88 787.88,-79.27 788.51,-72.3"/>
</g>
<!-- Node21 -->
<g id="node21" class="node">
<title>Node21</title>
<g id="a_node21"><a xlink:title=" ">
<polygon fill="none" stroke="#bfbfbf" points="265.5,-129 265.5,-148 329.5,-148 329.5,-129 265.5,-129"/>
<text text-anchor="middle" x="297.5" y="-136" font-family="Helvetica,sans-Serif" font-size="10.00">algorithm</text>
</a>
</g>
</g>
<!-- Node9&#45;&gt;Node21 -->
<g id="edge23" class="edge">
<title>Node9&#45;&gt;Node21</title>
<path fill="none" stroke="midnightblue" d="M699.72,-197.33C623.28,-193.84 467.19,-183.44 338.5,-154 335.26,-153.26 331.93,-152.34 328.62,-151.34"/>
<polygon fill="midnightblue" stroke="midnightblue" points="329.52,-147.95 318.93,-148.12 327.32,-154.59 329.52,-147.95"/>
</g>
<!-- Node9&#45;&gt;Node22 -->
<g id="edge25" class="edge">
<title>Node9&#45;&gt;Node22</title>
<path fill="none" stroke="midnightblue" d="M699.72,-196.65C589.02,-190.81 313.55,-174.63 223.5,-154 220.5,-153.31 217.42,-152.44 214.37,-151.46"/>
<polygon fill="midnightblue" stroke="midnightblue" points="215.49,-148.15 204.9,-148.09 213.15,-154.74 215.49,-148.15"/>
</g>
<!-- Node23 -->
<g id="node23" class="node">
<title>Node23</title>
<g id="a_node23"><a xlink:title=" ">
<polygon fill="none" stroke="#bfbfbf" points="348,-129 348,-148 413,-148 413,-129 348,-129"/>
<text text-anchor="middle" x="380.5" y="-136" font-family="Helvetica,sans-Serif" font-size="10.00">functional</text>
</a>
</g>
</g>
<!-- Node9&#45;&gt;Node23 -->
<g id="edge27" class="edge">
<title>Node9&#45;&gt;Node23</title>
<path fill="none" stroke="midnightblue" d="M699.83,-195.39C636.39,-189.83 519.7,-177.29 422.5,-154 419.27,-153.23 415.95,-152.3 412.64,-151.3"/>
<polygon fill="midnightblue" stroke="midnightblue" points="413.52,-147.91 402.93,-148.14 411.36,-154.57 413.52,-147.91"/>
</g>
<!-- Node24 -->
<g id="node24" class="node">
<title>Node24</title>
<g id="a_node24"><a xlink:title=" ">
<polygon fill="none" stroke="#bfbfbf" points="536,-129 536,-148 619,-148 619,-129 536,-129"/>
<text text-anchor="middle" x="577.5" y="-136" font-family="Helvetica,sans-Serif" font-size="10.00">initializer_list</text>
</a>
</g>
</g>
<!-- Node9&#45;&gt;Node24 -->
<g id="edge28" class="edge">
<title>Node9&#45;&gt;Node24</title>
<path fill="none" stroke="midnightblue" d="M722.29,-190.48C693.17,-180.22 644.13,-162.96 611.3,-151.4"/>
<polygon fill="midnightblue" stroke="midnightblue" points="612.26,-148.03 601.67,-148.01 609.94,-154.63 612.26,-148.03"/>
</g>
<!-- Node25 -->
<g id="node25" class="node">
<title>Node25</title>
<g id="a_node25"><a xlink:title=" ">
<polygon fill="none" stroke="#bfbfbf" points="637.5,-129 637.5,-148 693.5,-148 693.5,-129 637.5,-129"/>
<text text-anchor="middle" x="665.5" y="-136" font-family="Helvetica,sans-Serif" font-size="10.00">numeric</text>
</a>
</g>
</g>
<!-- Node9&#45;&gt;Node25 -->
<g id="edge30" class="edge">
<title>Node9&#45;&gt;Node25</title>
<path fill="none" stroke="midnightblue" d="M734.89,-190.48C722.02,-181.02 701.03,-165.6 685.49,-154.19"/>
<polygon fill="midnightblue" stroke="midnightblue" points="687.22,-151.11 677.08,-148.01 683.07,-156.75 687.22,-151.11"/>
</g>
<!-- Node26 -->
<g id="node26" class="node">
<title>Node26</title>
<g id="a_node26"><a xlink:title=" ">
<polygon fill="none" stroke="#bfbfbf" points="712,-129 712,-148 781,-148 781,-129 712,-129"/>
<text text-anchor="middle" x="746.5" y="-136" font-family="Helvetica,sans-Serif" font-size="10.00">type_traits</text>
</a>
</g>
</g>
<!-- Node9&#45;&gt;Node26 -->
<g id="edge31" class="edge">
<title>Node9&#45;&gt;Node26</title>
<path fill="none" stroke="midnightblue" d="M746.5,-190.48C746.5,-182.08 746.5,-168.98 746.5,-158.16"/>
<polygon fill="midnightblue" stroke="midnightblue" points="750,-158.01 746.5,-148.01 743,-158.01 750,-158.01"/>
</g>
<!-- Node12&#45;&gt;Node6 -->
<g id="edge19" class="edge">
<title>Node12&#45;&gt;Node6</title>
<path fill="none" stroke="midnightblue" d="M503.44,-128.91C545.62,-116.29 620.22,-93.51 631.5,-87 659.46,-70.87 686.1,-44.18 701.62,-27.1"/>
<polygon fill="midnightblue" stroke="midnightblue" points="704.27,-29.38 708.3,-19.58 699.04,-24.73 704.27,-29.38"/>
</g>
<!-- Node13 -->
<g id="node13" class="node">
<title>Node13</title>
<g id="a_node13"><a xlink:href="device__qualifier_8hpp.html" target="_top" xlink:title=" ">
<polygon fill="none" stroke="black" points="84.5,-62 84.5,-81 200.5,-81 200.5,-62 84.5,-62"/>
<text text-anchor="middle" x="142.5" y="-69" font-family="Helvetica,sans-Serif" font-size="10.00">device_qualifier.hpp</text>
</a>
</g>
</g>
<!-- Node12&#45;&gt;Node13 -->
<g id="edge12" class="edge">
<title>Node12&#45;&gt;Node13</title>
<path fill="none" stroke="midnightblue" d="M445.18,-128.98C437.51,-126.89 429.22,-124.75 421.5,-123 348.7,-106.49 264.25,-91.82 207.5,-82.6"/>
<polygon fill="midnightblue" stroke="midnightblue" points="208.01,-79.14 197.58,-81 206.9,-86.05 208.01,-79.14"/>
</g>
<!-- Node12&#45;&gt;Node14 -->
<g id="edge18" class="edge">
<title>Node12&#45;&gt;Node14</title>
<path fill="none" stroke="midnightblue" d="M458.21,-128.81C417.52,-107.09 311.23,-50.35 262.53,-24.36"/>
<polygon fill="midnightblue" stroke="midnightblue" points="264.06,-21.21 253.59,-19.59 260.76,-27.38 264.06,-21.21"/>
</g>
<!-- Node15 -->
<g id="node15" class="node">
<title>Node15</title>
<g id="a_node15"><a xlink:href="get_8hpp.html" target="_top" xlink:title=" ">
<polygon fill="none" stroke="black" points="412,-62 412,-81 465,-81 465,-62 412,-62"/>
<text text-anchor="middle" x="438.5" y="-69" font-family="Helvetica,sans-Serif" font-size="10.00">get.hpp</text>
</a>
</g>
</g>
<!-- Node12&#45;&gt;Node15 -->
<g id="edge14" class="edge">
<title>Node12&#45;&gt;Node15</title>
<path fill="none" stroke="midnightblue" d="M469.64,-128.73C464.19,-118.89 455.2,-102.66 448.28,-90.16"/>
<polygon fill="midnightblue" stroke="midnightblue" points="451.19,-88.18 443.28,-81.13 445.06,-91.57 451.19,-88.18"/>
</g>
<!-- Node17 -->
<g id="node17" class="node">
<title>Node17</title>
<g id="a_node17"><a xlink:title=" ">
<polygon fill="none" stroke="#bfbfbf" points="957,-56.5 957,-86.5 1064,-86.5 1064,-56.5 957,-56.5"/>
<text text-anchor="start" x="965" y="-74.5" font-family="Helvetica,sans-Serif" font-size="10.00">boost/serialization</text>
<text text-anchor="middle" x="1010.5" y="-63.5" font-family="Helvetica,sans-Serif" font-size="10.00">/access.hpp</text>
</a>
</g>
</g>
<!-- Node12&#45;&gt;Node17 -->
<g id="edge17" class="edge">
<title>Node12&#45;&gt;Node17</title>
<path fill="none" stroke="midnightblue" d="M501.82,-128.95C509.72,-126.74 518.4,-124.54 526.5,-123 675.49,-94.66 853.53,-81.23 946.61,-75.74"/>
<polygon fill="midnightblue" stroke="midnightblue" points="946.93,-79.23 956.72,-75.16 946.53,-72.24 946.93,-79.23"/>
</g>
<!-- Node12&#45;&gt;Node18 -->
<g id="edge20" class="edge">
<title>Node12&#45;&gt;Node18</title>
<path fill="none" stroke="midnightblue" d="M504.13,-128.96C511.42,-126.93 519.23,-124.83 526.5,-123 592.6,-106.38 670.28,-89.53 714.92,-80.11"/>
<polygon fill="midnightblue" stroke="midnightblue" points="715.66,-83.53 724.73,-78.05 714.22,-76.68 715.66,-83.53"/>
</g>
<!-- Node19 -->
<g id="node19" class="node">
<title>Node19</title>
<g id="a_node19"><a xlink:title=" ">
<polygon fill="none" stroke="#bfbfbf" points="483,-62 483,-81 540,-81 540,-62 483,-62"/>
<text text-anchor="middle" x="511.5" y="-69" font-family="Helvetica,sans-Serif" font-size="10.00">ostream</text>
</a>
</g>
</g>
<!-- Node12&#45;&gt;Node19 -->
<g id="edge21" class="edge">
<title>Node12&#45;&gt;Node19</title>
<path fill="none" stroke="midnightblue" d="M479.49,-128.73C485.09,-118.89 494.33,-102.66 501.45,-90.16"/>
<polygon fill="midnightblue" stroke="midnightblue" points="504.68,-91.55 506.59,-81.13 498.6,-88.09 504.68,-91.55"/>
</g>
<!-- Node20 -->
<g id="node20" class="node">
<title>Node20</title>
<g id="a_node20"><a xlink:title=" ">
<polygon fill="none" stroke="#bfbfbf" points="558,-62 558,-81 623,-81 623,-62 558,-62"/>
<text text-anchor="middle" x="590.5" y="-69" font-family="Helvetica,sans-Serif" font-size="10.00">stdexcept</text>
</a>
</g>
</g>
<!-- Node12&#45;&gt;Node20 -->
<g id="edge22" class="edge">
<title>Node12&#45;&gt;Node20</title>
<path fill="none" stroke="midnightblue" d="M490.14,-128.73C509.71,-117.77 543.42,-98.88 566.32,-86.05"/>
<polygon fill="midnightblue" stroke="midnightblue" points="568.09,-89.07 575.1,-81.13 564.67,-82.96 568.09,-89.07"/>
</g>
<!-- Node13&#45;&gt;Node14 -->
<g id="edge13" class="edge">
<title>Node13&#45;&gt;Node14</title>
<path fill="none" stroke="midnightblue" d="M156.11,-61.98C171.56,-52.3 196.99,-36.37 215.32,-24.89"/>
<polygon fill="midnightblue" stroke="midnightblue" points="217.3,-27.78 223.91,-19.51 213.58,-21.85 217.3,-27.78"/>
</g>
<!-- Node15&#45;&gt;Node6 -->
<g id="edge15" class="edge">
<title>Node15&#45;&gt;Node6</title>
<path fill="none" stroke="midnightblue" d="M457.13,-61.94C462.35,-59.77 468.08,-57.61 473.5,-56 544.73,-34.88 630.82,-21.69 678.74,-15.4"/>
<polygon fill="midnightblue" stroke="midnightblue" points="679.46,-18.84 688.93,-14.09 678.57,-11.9 679.46,-18.84"/>
</g>
<!-- Node16 -->
<g id="node16" class="node">
<title>Node16</title>
<g id="a_node16"><a xlink:title=" ">
<polygon fill="none" stroke="#bfbfbf" points="418,-0.5 418,-19.5 459,-19.5 459,-0.5 418,-0.5"/>
<text text-anchor="middle" x="438.5" y="-7.5" font-family="Helvetica,sans-Serif" font-size="10.00">tuple</text>
</a>
</g>
</g>
<!-- Node15&#45;&gt;Node16 -->
<g id="edge16" class="edge">
<title>Node15&#45;&gt;Node16</title>
<path fill="none" stroke="midnightblue" d="M438.5,-61.98C438.5,-53.58 438.5,-40.48 438.5,-29.66"/>
<polygon fill="midnightblue" stroke="midnightblue" points="442,-29.51 438.5,-19.51 435,-29.51 442,-29.51"/>
</g>
<!-- Node27&#45;&gt;Node3 -->
<g id="edge35" class="edge">
<title>Node27&#45;&gt;Node3</title>
<path fill="none" stroke="midnightblue" d="M1306.46,-313.48C1292.99,-303.93 1270.93,-288.31 1254.78,-276.87"/>
<polygon fill="midnightblue" stroke="midnightblue" points="1256.7,-273.93 1246.51,-271.01 1252.65,-279.65 1256.7,-273.93"/>
</g>
<!-- Node27&#45;&gt;Node7 -->
<g id="edge46" class="edge">
<title>Node27&#45;&gt;Node7</title>
<path fill="none" stroke="midnightblue" d="M1318.64,-313.3C1318.7,-291.63 1317.07,-233.84 1299.5,-190 1294.47,-177.45 1285.71,-165.06 1278.1,-155.7"/>
<polygon fill="midnightblue" stroke="midnightblue" points="1280.71,-153.37 1271.56,-148.03 1275.38,-157.91 1280.71,-153.37"/>
</g>
<!-- Node28 -->
<g id="node28" class="node">
<title>Node28</title>
<g id="a_node28"><a xlink:href="RuntimeError_8hpp.html" target="_top" xlink:title=" ">
<polygon fill="none" stroke="black" points="1346.5,-190.5 1346.5,-209.5 1448.5,-209.5 1448.5,-190.5 1346.5,-190.5"/>
<text text-anchor="middle" x="1397.5" y="-197.5" font-family="Helvetica,sans-Serif" font-size="10.00">RuntimeError.hpp</text>
</a>
</g>
</g>
<!-- Node27&#45;&gt;Node28 -->
<g id="edge36" class="edge">
<title>Node27&#45;&gt;Node28</title>
<path fill="none" stroke="midnightblue" d="M1324.18,-313.3C1337.16,-293.41 1369.2,-244.35 1386.3,-218.15"/>
<polygon fill="midnightblue" stroke="midnightblue" points="1389.33,-219.91 1391.87,-209.62 1383.47,-216.08 1389.33,-219.91"/>
</g>
<!-- Node30 -->
<g id="node30" class="node">
<title>Node30</title>
<g id="a_node30"><a xlink:title=" ">
<polygon fill="none" stroke="#bfbfbf" points="1532.5,-129 1532.5,-148 1576.5,-148 1576.5,-129 1532.5,-129"/>
<text text-anchor="middle" x="1554.5" y="-136" font-family="Helvetica,sans-Serif" font-size="10.00">string</text>
</a>
</g>
</g>
<!-- Node27&#45;&gt;Node30 -->
<g id="edge45" class="edge">
<title>Node27&#45;&gt;Node30</title>
<path fill="none" stroke="midnightblue" d="M1370.22,-314.1C1439.48,-303.26 1554.41,-284.32 1560.5,-277 1588.67,-243.11 1573.13,-186.68 1562.25,-157.78"/>
<polygon fill="midnightblue" stroke="midnightblue" points="1565.36,-156.15 1558.4,-148.16 1558.86,-158.74 1565.36,-156.15"/>
</g>
<!-- Node32 -->
<g id="node32" class="node">
<title>Node32</title>
<g id="a_node32"><a xlink:href="RuntimeErrorStream_8hpp.html" target="_top" xlink:title=" ">
<polygon fill="none" stroke="black" points="1414,-252 1414,-271 1551,-271 1551,-252 1414,-252"/>
<text text-anchor="middle" x="1482.5" y="-259" font-family="Helvetica,sans-Serif" font-size="10.00">RuntimeErrorStream.hpp</text>
</a>
</g>
</g>
<!-- Node27&#45;&gt;Node32 -->
<g id="edge41" class="edge">
<title>Node27&#45;&gt;Node32</title>
<path fill="none" stroke="midnightblue" d="M1342,-313.48C1370.13,-303.27 1417.43,-286.11 1449.29,-274.55"/>
<polygon fill="midnightblue" stroke="midnightblue" points="1450.84,-277.71 1459.05,-271.01 1448.45,-271.13 1450.84,-277.71"/>
</g>
<!-- Node28&#45;&gt;Node17 -->
<g id="edge37" class="edge">
<title>Node28&#45;&gt;Node17</title>
<path fill="none" stroke="midnightblue" d="M1385.03,-190.19C1372.43,-181.23 1352.44,-166.87 1335.5,-154 1317.87,-140.6 1316.69,-132.09 1296.5,-123 1224.68,-90.65 1134.02,-78.98 1074.25,-74.79"/>
<polygon fill="midnightblue" stroke="midnightblue" points="1074.41,-71.3 1064.2,-74.14 1073.95,-78.28 1074.41,-71.3"/>
</g>
<!-- Node29 -->
<g id="node29" class="node">
<title>Node29</title>
<g id="a_node29"><a xlink:title=" ">
<polygon fill="none" stroke="#bfbfbf" points="1344,-123.5 1344,-153.5 1451,-153.5 1451,-123.5 1344,-123.5"/>
<text text-anchor="start" x="1352" y="-141.5" font-family="Helvetica,sans-Serif" font-size="10.00">boost/serialization</text>
<text text-anchor="middle" x="1397.5" y="-130.5" font-family="Helvetica,sans-Serif" font-size="10.00">/string.hpp</text>
</a>
</g>
</g>
<!-- Node28&#45;&gt;Node29 -->
<g id="edge38" class="edge">
<title>Node28&#45;&gt;Node29</title>
<path fill="none" stroke="midnightblue" d="M1397.5,-190.48C1397.5,-183.47 1397.5,-173.19 1397.5,-163.7"/>
<polygon fill="midnightblue" stroke="midnightblue" points="1401,-163.52 1397.5,-153.52 1394,-163.52 1401,-163.52"/>
</g>
<!-- Node28&#45;&gt;Node30 -->
<g id="edge39" class="edge">
<title>Node28&#45;&gt;Node30</title>
<path fill="none" stroke="midnightblue" d="M1423.84,-190.4C1449.52,-181.83 1489.56,-167.96 1523.5,-154 1524.87,-153.43 1526.27,-152.84 1527.68,-152.23"/>
<polygon fill="midnightblue" stroke="midnightblue" points="1529.24,-155.37 1536.92,-148.07 1526.37,-148.99 1529.24,-155.37"/>
</g>
<!-- Node31 -->
<g id="node31" class="node">
<title>Node31</title>
<g id="a_node31"><a xlink:title=" ">
<polygon fill="none" stroke="#bfbfbf" points="1469,-129 1469,-148 1514,-148 1514,-129 1469,-129"/>
<text text-anchor="middle" x="1491.5" y="-136" font-family="Helvetica,sans-Serif" font-size="10.00">utility</text>
</a>
</g>
</g>
<!-- Node28&#45;&gt;Node31 -->
<g id="edge40" class="edge">
<title>Node28&#45;&gt;Node31</title>
<path fill="none" stroke="midnightblue" d="M1410.97,-190.48C1426.18,-180.84 1451.19,-165.02 1469.3,-153.55"/>
<polygon fill="midnightblue" stroke="midnightblue" points="1471.48,-156.31 1478.06,-148.01 1467.74,-150.4 1471.48,-156.31"/>
</g>
<!-- Node32&#45;&gt;Node28 -->
<g id="edge42" class="edge">
<title>Node32&#45;&gt;Node28</title>
<path fill="none" stroke="midnightblue" d="M1470.32,-251.98C1456.69,-242.43 1434.37,-226.81 1418.03,-215.37"/>
<polygon fill="midnightblue" stroke="midnightblue" points="1419.86,-212.38 1409.66,-209.51 1415.84,-218.11 1419.86,-212.38"/>
</g>
<!-- Node32&#45;&gt;Node30 -->
<g id="edge44" class="edge">
<title>Node32&#45;&gt;Node30</title>
<path fill="none" stroke="midnightblue" d="M1493.33,-251.93C1504.37,-242.67 1521.28,-226.95 1531.5,-210 1541.25,-193.84 1547.38,-173.06 1550.83,-158.26"/>
<polygon fill="midnightblue" stroke="midnightblue" points="1554.3,-158.79 1552.97,-148.28 1547.45,-157.33 1554.3,-158.79"/>
</g>
<!-- Node33 -->
<g id="node33" class="node">
<title>Node33</title>
<g id="a_node33"><a xlink:title=" ">
<polygon fill="none" stroke="#bfbfbf" points="1466.5,-190.5 1466.5,-209.5 1522.5,-209.5 1522.5,-190.5 1466.5,-190.5"/>
<text text-anchor="middle" x="1494.5" y="-197.5" font-family="Helvetica,sans-Serif" font-size="10.00">sstream</text>
</a>
</g>
</g>
<!-- Node32&#45;&gt;Node33 -->
<g id="edge43" class="edge">
<title>Node32&#45;&gt;Node33</title>
<path fill="none" stroke="midnightblue" d="M1484.22,-251.98C1485.93,-243.49 1488.61,-230.2 1490.8,-219.32"/>
<polygon fill="midnightblue" stroke="midnightblue" points="1494.24,-220 1492.78,-209.51 1487.38,-218.62 1494.24,-220"/>
</g>
<!-- Node34&#45;&gt;Node13 -->
<g id="edge49" class="edge">
<title>Node34&#45;&gt;Node13</title>
<path fill="none" stroke="midnightblue" d="M295.44,-313.37C280.45,-305.27 258.59,-292.15 242.5,-277 193.18,-230.57 177.43,-216.98 152.5,-154 144.49,-133.75 142.48,-108.65 142.16,-91.7"/>
<polygon fill="midnightblue" stroke="midnightblue" points="145.66,-91.42 142.15,-81.42 138.66,-91.42 145.66,-91.42"/>
</g>
<!-- Node35 -->
<g id="node35" class="node">
<title>Node35</title>
<g id="a_node35"><a xlink:title=" ">
<polygon fill="none" stroke="#bfbfbf" points="251.5,-246.5 251.5,-276.5 373.5,-276.5 373.5,-246.5 251.5,-246.5"/>
<text text-anchor="start" x="259.5" y="-264.5" font-family="Helvetica,sans-Serif" font-size="10.00">boost/math/constants</text>
<text text-anchor="middle" x="312.5" y="-253.5" font-family="Helvetica,sans-Serif" font-size="10.00">/constants.hpp</text>
</a>
</g>
</g>
<!-- Node34&#45;&gt;Node35 -->
<g id="edge50" class="edge">
<title>Node34&#45;&gt;Node35</title>
<path fill="none" stroke="midnightblue" d="M312.5,-313.48C312.5,-306.47 312.5,-296.19 312.5,-286.7"/>
<polygon fill="midnightblue" stroke="midnightblue" points="316,-286.52 312.5,-276.52 309,-286.52 316,-286.52"/>
</g>
<!-- Node36&#45;&gt;Node13 -->
<g id="edge52" class="edge">
<title>Node36&#45;&gt;Node13</title>
<path fill="none" stroke="midnightblue" d="M58.69,-190.31C73.46,-169.54 111,-116.77 130.43,-89.46"/>
<polygon fill="midnightblue" stroke="midnightblue" points="133.33,-91.43 136.27,-81.26 127.62,-87.37 133.33,-91.43"/>
</g>
</g>
</svg>
