<?xml version="1.0" encoding="UTF-8" standalone="no"?>
<!DOCTYPE svg PUBLIC "-//W3C//DTD SVG 1.1//EN"
 "http://www.w3.org/Graphics/SVG/1.1/DTD/svg11.dtd">
<!-- Generated by graphviz version 2.43.0 (0)
 -->
<!-- Title: p3m_send_mesh.cpp Pages: 1 -->
<!--zoomable 431 -->
<svg id="main" version="1.1" xmlns="http://www.w3.org/2000/svg" xmlns:xlink="http://www.w3.org/1999/xlink" xml:space="preserve" onload="init(evt)">
<style type="text/css"><![CDATA[
.edge:hover path { stroke: red; }
.edge:hover polygon { stroke: red; fill: red; }
]]></style>
<script type="text/javascript"><![CDATA[
var edges = document.getElementsByTagName('g');
if (edges && edges.length) {
  for (var i=0;i<edges.length;i++) {
    if (edges[i].id.substr(0,4)=='edge') {
      edges[i].setAttribute('class','edge');
    }
  }
}
]]></script>
        <defs>
                <circle id="rim" cx="0" cy="0" r="7"/>
                <circle id="rim2" cx="0" cy="0" r="3.5"/>
                <g id="zoomPlus">
                        <use xlink:href="#rim" fill="#404040">
                                <set attributeName="fill" to="#808080" begin="zoomplus.mouseover" end="zoomplus.mouseout"/>
                        </use>
                        <path d="M-4,0h8M0,-4v8" fill="none" stroke="white" stroke-width="1.5" pointer-events="none"/>
                </g>
                <g id="zoomMin">
                        <use xlink:href="#rim" fill="#404040">
                                <set attributeName="fill" to="#808080" begin="zoomminus.mouseover" end="zoomminus.mouseout"/>
                        </use>
                        <path d="M-4,0h8" fill="none" stroke="white" stroke-width="1.5" pointer-events="none"/>
                </g>
                <g id="dirArrow">
                        <path fill="none" stroke="white" stroke-width="1.5" d="M0,-3.0v7 M-2.5,-0.5L0,-3.0L2.5,-0.5"/>
                </g>
               <g id="resetDef">
                       <use xlink:href="#rim2" fill="#404040">
                               <set attributeName="fill" to="#808080" begin="reset.mouseover" end="reset.mouseout"/>
                       </use>
               </g>
        </defs>

<script type="text/javascript">
var viewWidth = 1963;
var viewHeight = 431;
var sectionId = 'dynsection-0';
</script>
<script xlink:href="svgpan.js"/>
<svg id="graph" class="graph">
<g id="viewport">
<title>p3m_send_mesh.cpp</title>
<!-- Node1 -->
<g id="node1" class="node">
<title>Node1</title>
<g id="a_node1"><a xlink:title=" ">
<polygon fill="#bfbfbf" stroke="black" points="1069.14,-403.5 1069.14,-422.5 1188.14,-422.5 1188.14,-403.5 1069.14,-403.5"/>
<text text-anchor="middle" x="1128.64" y="-410.5" font-family="Helvetica,sans-Serif" font-size="10.00">p3m_send_mesh.cpp</text>
</a>
</g>
</g>
<!-- Node2 -->
<g id="node2" class="node">
<title>Node2</title>
<g id="a_node2"><a xlink:href="p3m__send__mesh_8hpp.html" target="_top" xlink:title=" ">
<polygon fill="none" stroke="black" points="971.64,-347.5 971.64,-366.5 1091.64,-366.5 1091.64,-347.5 971.64,-347.5"/>
<text text-anchor="middle" x="1031.64" y="-354.5" font-family="Helvetica,sans-Serif" font-size="10.00">p3m_send_mesh.hpp</text>
</a>
</g>
</g>
<!-- Node1&#45;&gt;Node2 -->
<g id="edge1" class="edge">
<title>Node1&#45;&gt;Node2</title>
<path fill="none" stroke="midnightblue" d="M1113.05,-403.32C1097.64,-394.74 1073.83,-381.49 1055.93,-371.52"/>
<polygon fill="midnightblue" stroke="midnightblue" points="1057.62,-368.46 1047.18,-366.65 1054.22,-374.58 1057.62,-368.46"/>
</g>
<!-- Node5 -->
<g id="node5" class="node">
<title>Node5</title>
<g id="a_node5"><a xlink:href="p3m-common_8hpp.html" target="_top" xlink:title=" ">
<polygon fill="none" stroke="black" points="759.64,-291.5 759.64,-310.5 865.64,-310.5 865.64,-291.5 759.64,-291.5"/>
<text text-anchor="middle" x="812.64" y="-298.5" font-family="Helvetica,sans-Serif" font-size="10.00">p3m&#45;common.hpp</text>
</a>
</g>
</g>
<!-- Node1&#45;&gt;Node5 -->
<g id="edge55" class="edge">
<title>Node1&#45;&gt;Node5</title>
<path fill="none" stroke="midnightblue" d="M1068.93,-410.91C1016.44,-407.75 939.33,-397.66 879.64,-367 857.22,-355.49 837.32,-333.98 825.15,-318.87"/>
<polygon fill="midnightblue" stroke="midnightblue" points="827.81,-316.59 818.91,-310.83 822.28,-320.88 827.81,-316.59"/>
</g>
<!-- Node7 -->
<g id="node7" class="node">
<title>Node7</title>
<g id="a_node7"><a xlink:title=" ">
<polygon fill="none" stroke="#bfbfbf" points="989.14,-0.5 989.14,-19.5 1042.14,-19.5 1042.14,-0.5 989.14,-0.5"/>
<text text-anchor="middle" x="1015.64" y="-7.5" font-family="Helvetica,sans-Serif" font-size="10.00">cstddef</text>
</a>
</g>
</g>
<!-- Node1&#45;&gt;Node7 -->
<g id="edge66" class="edge">
<title>Node1&#45;&gt;Node7</title>
<path fill="none" stroke="midnightblue" d="M1188.59,-411.22C1320.78,-407.89 1625.64,-390.59 1625.64,-302 1625.64,-302 1625.64,-302 1625.64,-132 1625.64,-14.52 1184.78,-9.34 1052.64,-10.42"/>
<polygon fill="midnightblue" stroke="midnightblue" points="1052.21,-6.93 1042.24,-10.53 1052.28,-13.93 1052.21,-6.93"/>
</g>
<!-- Node10 -->
<g id="node10" class="node">
<title>Node10</title>
<g id="a_node10"><a xlink:href="Vector_8hpp.html" target="_top" xlink:title=" ">
<polygon fill="none" stroke="black" points="810.14,-179.5 810.14,-198.5 903.14,-198.5 903.14,-179.5 810.14,-179.5"/>
<text text-anchor="middle" x="856.64" y="-186.5" font-family="Helvetica,sans-Serif" font-size="10.00">utils/Vector.hpp</text>
</a>
</g>
</g>
<!-- Node1&#45;&gt;Node10 -->
<g id="edge57" class="edge">
<title>Node1&#45;&gt;Node10</title>
<path fill="none" stroke="midnightblue" d="M1068.89,-406.87C1034.94,-401.41 993.23,-390.16 962.64,-367 906.99,-324.88 874.65,-244.34 862.37,-208.27"/>
<polygon fill="midnightblue" stroke="midnightblue" points="865.64,-207 859.2,-198.59 858.99,-209.18 865.64,-207"/>
</g>
<!-- Node28 -->
<g id="node28" class="node">
<title>Node28</title>
<g id="a_node28"><a xlink:href="Span_8hpp.html" target="_top" xlink:title=" ">
<polygon fill="none" stroke="black" points="249.64,-123.5 249.64,-142.5 335.64,-142.5 335.64,-123.5 249.64,-123.5"/>
<text text-anchor="middle" x="292.64" y="-130.5" font-family="Helvetica,sans-Serif" font-size="10.00">utils/Span.hpp</text>
</a>
</g>
</g>
<!-- Node1&#45;&gt;Node28 -->
<g id="edge56" class="edge">
<title>Node1&#45;&gt;Node28</title>
<path fill="none" stroke="midnightblue" d="M1069.09,-410.35C879.24,-404.32 300.64,-379.58 300.64,-302 300.64,-302 300.64,-302 300.64,-244 300.64,-211.86 297.2,-174.58 294.83,-152.72"/>
<polygon fill="midnightblue" stroke="midnightblue" points="298.28,-152.09 293.68,-142.54 291.33,-152.87 298.28,-152.09"/>
</g>
<!-- Node30 -->
<g id="node30" class="node">
<title>Node30</title>
<g id="a_node30"><a xlink:href="fft_8hpp.html" target="_top" xlink:title=" ">
<polygon fill="none" stroke="black" points="1201.14,-291.5 1201.14,-310.5 1250.14,-310.5 1250.14,-291.5 1201.14,-291.5"/>
<text text-anchor="middle" x="1225.64" y="-298.5" font-family="Helvetica,sans-Serif" font-size="10.00">fft.hpp</text>
</a>
</g>
</g>
<!-- Node1&#45;&gt;Node30 -->
<g id="edge46" class="edge">
<title>Node1&#45;&gt;Node30</title>
<path fill="none" stroke="midnightblue" d="M1136.25,-403.37C1152.4,-385.05 1190.32,-342.05 1211.21,-318.36"/>
<polygon fill="midnightblue" stroke="midnightblue" points="1214.07,-320.41 1218.06,-310.59 1208.82,-315.78 1214.07,-320.41"/>
</g>
<!-- Node33 -->
<g id="node33" class="node">
<title>Node33</title>
<g id="a_node33"><a xlink:href="cart__comm_8hpp.html" target="_top" xlink:title=" ">
<polygon fill="none" stroke="black" points="1653.64,-291.5 1653.64,-310.5 1791.64,-310.5 1791.64,-291.5 1653.64,-291.5"/>
<text text-anchor="middle" x="1722.64" y="-298.5" font-family="Helvetica,sans-Serif" font-size="10.00">utils/mpi/cart_comm.hpp</text>
</a>
</g>
</g>
<!-- Node1&#45;&gt;Node33 -->
<g id="edge58" class="edge">
<title>Node1&#45;&gt;Node33</title>
<path fill="none" stroke="midnightblue" d="M1188.54,-410.97C1305.31,-408.28 1558.98,-398.85 1639.64,-367 1666.89,-356.24 1692.52,-333.52 1707.89,-318"/>
<polygon fill="midnightblue" stroke="midnightblue" points="1710.55,-320.28 1714.96,-310.65 1705.51,-315.44 1710.55,-320.28"/>
</g>
<!-- Node35 -->
<g id="node35" class="node">
<title>Node35</title>
<g id="a_node35"><a xlink:title=" ">
<polygon fill="none" stroke="#bfbfbf" points="1910.64,-235.5 1910.64,-254.5 1954.64,-254.5 1954.64,-235.5 1910.64,-235.5"/>
<text text-anchor="middle" x="1932.64" y="-242.5" font-family="Helvetica,sans-Serif" font-size="10.00">mpi.h</text>
</a>
</g>
</g>
<!-- Node1&#45;&gt;Node35 -->
<g id="edge65" class="edge">
<title>Node1&#45;&gt;Node35</title>
<path fill="none" stroke="midnightblue" d="M1188.28,-409.48C1309.47,-403.96 1580.64,-389.48 1670.64,-367 1764.83,-343.47 1866.55,-286.23 1910.43,-259.8"/>
<polygon fill="midnightblue" stroke="midnightblue" points="1912.4,-262.69 1919.12,-254.5 1908.76,-256.71 1912.4,-262.69"/>
</g>
<!-- Node3 -->
<g id="node3" class="node">
<title>Node3</title>
<g id="a_node3"><a xlink:href="config_8hpp.html" target="_top" xlink:title=" ">
<polygon fill="none" stroke="black" points="997.64,-235.5 997.64,-254.5 1065.64,-254.5 1065.64,-235.5 997.64,-235.5"/>
<text text-anchor="middle" x="1031.64" y="-242.5" font-family="Helvetica,sans-Serif" font-size="10.00">config.hpp</text>
</a>
</g>
</g>
<!-- Node2&#45;&gt;Node3 -->
<g id="edge2" class="edge">
<title>Node2&#45;&gt;Node3</title>
<path fill="none" stroke="midnightblue" d="M1031.64,-347.37C1031.64,-329.62 1031.64,-288.67 1031.64,-264.6"/>
<polygon fill="midnightblue" stroke="midnightblue" points="1035.14,-264.59 1031.64,-254.59 1028.14,-264.59 1035.14,-264.59"/>
</g>
<!-- Node2&#45;&gt;Node5 -->
<g id="edge4" class="edge">
<title>Node2&#45;&gt;Node5</title>
<path fill="none" stroke="midnightblue" d="M996.94,-347.44C959.05,-338.1 898.29,-323.12 856.98,-312.93"/>
<polygon fill="midnightblue" stroke="midnightblue" points="857.72,-309.51 847.18,-310.52 856.05,-316.31 857.72,-309.51"/>
</g>
<!-- Node8 -->
<g id="node8" class="node">
<title>Node8</title>
<g id="a_node8"><a xlink:title=" ">
<polygon fill="none" stroke="#bfbfbf" points="1233.14,-123.5 1233.14,-142.5 1280.14,-142.5 1280.14,-123.5 1233.14,-123.5"/>
<text text-anchor="middle" x="1256.64" y="-130.5" font-family="Helvetica,sans-Serif" font-size="10.00">vector</text>
</a>
</g>
</g>
<!-- Node2&#45;&gt;Node8 -->
<g id="edge45" class="edge">
<title>Node2&#45;&gt;Node8</title>
<path fill="none" stroke="midnightblue" d="M1040.01,-347.42C1059.46,-327.52 1109.27,-276.73 1151.64,-235 1182.66,-204.45 1219.44,-169.31 1240.21,-149.58"/>
<polygon fill="midnightblue" stroke="midnightblue" points="1242.74,-152 1247.58,-142.58 1237.92,-146.92 1242.74,-152"/>
</g>
<!-- Node2&#45;&gt;Node10 -->
<g id="edge43" class="edge">
<title>Node2&#45;&gt;Node10</title>
<path fill="none" stroke="midnightblue" d="M1023.06,-347.34C1003.12,-327.26 951.96,-276.13 907.64,-235 896.82,-224.96 884.41,-214 874.54,-205.4"/>
<polygon fill="midnightblue" stroke="midnightblue" points="876.78,-202.72 866.93,-198.82 872.2,-208.01 876.78,-202.72"/>
</g>
<!-- Node2&#45;&gt;Node28 -->
<g id="edge36" class="edge">
<title>Node2&#45;&gt;Node28</title>
<path fill="none" stroke="midnightblue" d="M971.5,-351.57C833.38,-340.57 497.8,-308.96 399.64,-255 354.33,-230.1 318.79,-178.31 302.44,-151.27"/>
<polygon fill="midnightblue" stroke="midnightblue" points="305.39,-149.38 297.31,-142.53 299.35,-152.92 305.39,-149.38"/>
</g>
<!-- Node29 -->
<g id="node29" class="node">
<title>Node29</title>
<g id="a_node29"><a xlink:title=" ">
<polygon fill="none" stroke="#bfbfbf" points="1399.64,-235.5 1399.64,-254.5 1559.64,-254.5 1559.64,-235.5 1399.64,-235.5"/>
<text text-anchor="middle" x="1479.64" y="-242.5" font-family="Helvetica,sans-Serif" font-size="10.00">boost/mpi/communicator.hpp</text>
</a>
</g>
</g>
<!-- Node2&#45;&gt;Node29 -->
<g id="edge44" class="edge">
<title>Node2&#45;&gt;Node29</title>
<path fill="none" stroke="midnightblue" d="M1081.75,-347.49C1128.14,-339.28 1198.91,-325.93 1259.64,-311 1325.16,-294.89 1400.31,-271.64 1443.65,-257.75"/>
<polygon fill="midnightblue" stroke="midnightblue" points="1444.99,-260.99 1453.44,-254.6 1442.85,-254.33 1444.99,-260.99"/>
</g>
<!-- Node4 -->
<g id="node4" class="node">
<title>Node4</title>
<g id="a_node4"><a xlink:title=" ">
<polygon fill="none" stroke="#bfbfbf" points="975.64,-179.5 975.64,-198.5 1087.64,-198.5 1087.64,-179.5 975.64,-179.5"/>
<text text-anchor="middle" x="1031.64" y="-186.5" font-family="Helvetica,sans-Serif" font-size="10.00">config&#45;features.hpp</text>
</a>
</g>
</g>
<!-- Node3&#45;&gt;Node4 -->
<g id="edge3" class="edge">
<title>Node3&#45;&gt;Node4</title>
<path fill="none" stroke="midnightblue" d="M1031.64,-235.08C1031.64,-228.01 1031.64,-217.86 1031.64,-208.99"/>
<polygon fill="midnightblue" stroke="midnightblue" points="1035.14,-208.75 1031.64,-198.75 1028.14,-208.75 1035.14,-208.75"/>
</g>
<!-- Node5&#45;&gt;Node3 -->
<g id="edge5" class="edge">
<title>Node5&#45;&gt;Node3</title>
<path fill="none" stroke="midnightblue" d="M847.34,-291.44C885.34,-282.07 946.35,-267.03 987.67,-256.84"/>
<polygon fill="midnightblue" stroke="midnightblue" points="988.59,-260.22 997.46,-254.43 986.91,-253.42 988.59,-260.22"/>
</g>
<!-- Node6 -->
<g id="node6" class="node">
<title>Node6</title>
<g id="a_node6"><a xlink:title=" ">
<polygon fill="none" stroke="#bfbfbf" points="408.64,-235.5 408.64,-254.5 450.64,-254.5 450.64,-235.5 408.64,-235.5"/>
<text text-anchor="middle" x="429.64" y="-242.5" font-family="Helvetica,sans-Serif" font-size="10.00">array</text>
</a>
</g>
</g>
<!-- Node5&#45;&gt;Node6 -->
<g id="edge6" class="edge">
<title>Node5&#45;&gt;Node6</title>
<path fill="none" stroke="midnightblue" d="M759.55,-295.19C691.03,-288.51 568.28,-274.95 464.64,-255 463.36,-254.75 462.05,-254.49 460.74,-254.21"/>
<polygon fill="midnightblue" stroke="midnightblue" points="461.18,-250.72 450.64,-251.85 459.58,-257.53 461.18,-250.72"/>
</g>
<!-- Node5&#45;&gt;Node7 -->
<g id="edge7" class="edge">
<title>Node5&#45;&gt;Node7</title>
<path fill="none" stroke="midnightblue" d="M760.4,-291.45C651.03,-271.49 414.67,-216.27 497.64,-123 543.29,-71.68 737.78,-102.74 804.64,-87 871.9,-71.17 947.3,-40.76 987.24,-23.6"/>
<polygon fill="midnightblue" stroke="midnightblue" points="988.82,-26.73 996.6,-19.54 986.03,-20.31 988.82,-26.73"/>
</g>
<!-- Node5&#45;&gt;Node8 -->
<g id="edge8" class="edge">
<title>Node5&#45;&gt;Node8</title>
<path fill="none" stroke="midnightblue" d="M820.3,-291.47C841.22,-268.8 902.03,-206.93 966.64,-179 1064.84,-136.55 1099.04,-160.12 1204.64,-143 1210.61,-142.03 1216.95,-140.97 1223.09,-139.92"/>
<polygon fill="midnightblue" stroke="midnightblue" points="1223.84,-143.34 1233.1,-138.18 1222.65,-136.44 1223.84,-143.34"/>
</g>
<!-- Node9 -->
<g id="node9" class="node">
<title>Node9</title>
<g id="a_node9"><a xlink:href="LocalBox_8hpp.html" target="_top" xlink:title=" ">
<polygon fill="none" stroke="black" points="745.64,-235.5 745.64,-254.5 827.64,-254.5 827.64,-235.5 745.64,-235.5"/>
<text text-anchor="middle" x="786.64" y="-242.5" font-family="Helvetica,sans-Serif" font-size="10.00">LocalBox.hpp</text>
</a>
</g>
</g>
<!-- Node5&#45;&gt;Node9 -->
<g id="edge9" class="edge">
<title>Node5&#45;&gt;Node9</title>
<path fill="none" stroke="midnightblue" d="M808.35,-291.08C804.79,-283.69 799.62,-272.95 795.21,-263.81"/>
<polygon fill="midnightblue" stroke="midnightblue" points="798.34,-262.24 790.85,-254.75 792.04,-265.28 798.34,-262.24"/>
</g>
<!-- Node5&#45;&gt;Node10 -->
<g id="edge35" class="edge">
<title>Node5&#45;&gt;Node10</title>
<path fill="none" stroke="midnightblue" d="M817.94,-291.28C823.18,-282.39 831.2,-268.08 836.64,-255 843.02,-239.67 848.42,-221.57 852,-208.37"/>
<polygon fill="midnightblue" stroke="midnightblue" points="855.41,-209.16 854.56,-198.6 848.64,-207.39 855.41,-209.16"/>
</g>
<!-- Node9&#45;&gt;Node10 -->
<g id="edge10" class="edge">
<title>Node9&#45;&gt;Node10</title>
<path fill="none" stroke="midnightblue" d="M797.89,-235.32C808.44,-227.18 824.44,-214.84 837.08,-205.09"/>
<polygon fill="midnightblue" stroke="midnightblue" points="839.41,-207.71 845.19,-198.83 835.13,-202.17 839.41,-207.71"/>
</g>
<!-- Node10&#45;&gt;Node7 -->
<g id="edge28" class="edge">
<title>Node10&#45;&gt;Node7</title>
<path fill="none" stroke="midnightblue" d="M903.26,-181.06C908.11,-180.35 912.97,-179.66 917.64,-179 977.14,-170.61 1146.08,-188.23 1185.64,-143 1232.69,-89.2 1114.54,-42.11 1051.78,-21.73"/>
<polygon fill="midnightblue" stroke="midnightblue" points="1052.8,-18.39 1042.21,-18.69 1050.68,-25.06 1052.8,-18.39"/>
</g>
<!-- Node10&#45;&gt;Node8 -->
<g id="edge34" class="edge">
<title>Node10&#45;&gt;Node8</title>
<path fill="none" stroke="midnightblue" d="M903.25,-180.99C908.1,-180.3 912.97,-179.62 917.64,-179 1051.18,-161.17 1085.98,-166.56 1218.64,-143 1220.1,-142.74 1221.59,-142.46 1223.09,-142.16"/>
<polygon fill="midnightblue" stroke="midnightblue" points="1223.97,-145.55 1233.01,-140.03 1222.5,-138.71 1223.97,-145.55"/>
</g>
<!-- Node11 -->
<g id="node11" class="node">
<title>Node11</title>
<g id="a_node11"><a xlink:title=" ">
<polygon fill="none" stroke="#bfbfbf" points="618.64,-123.5 618.64,-142.5 768.64,-142.5 768.64,-123.5 618.64,-123.5"/>
<text text-anchor="middle" x="693.64" y="-130.5" font-family="Helvetica,sans-Serif" font-size="10.00">boost/qvm/deduce_vec.hpp</text>
</a>
</g>
</g>
<!-- Node10&#45;&gt;Node11 -->
<g id="edge11" class="edge">
<title>Node10&#45;&gt;Node11</title>
<path fill="none" stroke="midnightblue" d="M830.81,-179.44C803.39,-170.36 759.86,-155.94 729.21,-145.78"/>
<polygon fill="midnightblue" stroke="midnightblue" points="729.94,-142.34 719.35,-142.52 727.74,-148.98 729.94,-142.34"/>
</g>
<!-- Node12 -->
<g id="node12" class="node">
<title>Node12</title>
<g id="a_node12"><a xlink:title=" ">
<polygon fill="none" stroke="#bfbfbf" points="786.64,-123.5 786.64,-142.5 926.64,-142.5 926.64,-123.5 786.64,-123.5"/>
<text text-anchor="middle" x="856.64" y="-130.5" font-family="Helvetica,sans-Serif" font-size="10.00">boost/qvm/vec_traits.hpp</text>
</a>
</g>
</g>
<!-- Node10&#45;&gt;Node12 -->
<g id="edge12" class="edge">
<title>Node10&#45;&gt;Node12</title>
<path fill="none" stroke="midnightblue" d="M856.64,-179.08C856.64,-172.01 856.64,-161.86 856.64,-152.99"/>
<polygon fill="midnightblue" stroke="midnightblue" points="860.14,-152.75 856.64,-142.75 853.14,-152.75 860.14,-152.75"/>
</g>
<!-- Node13 -->
<g id="node13" class="node">
<title>Node13</title>
<g id="a_node13"><a xlink:href="Array_8hpp.html" target="_top" xlink:title=" ">
<polygon fill="none" stroke="black" points="364.64,-123.5 364.64,-142.5 450.64,-142.5 450.64,-123.5 364.64,-123.5"/>
<text text-anchor="middle" x="407.64" y="-130.5" font-family="Helvetica,sans-Serif" font-size="10.00">utils/Array.hpp</text>
</a>
</g>
</g>
<!-- Node10&#45;&gt;Node13 -->
<g id="edge13" class="edge">
<title>Node10&#45;&gt;Node13</title>
<path fill="none" stroke="midnightblue" d="M809.86,-182.37C725.71,-172.25 549.33,-151.04 460.77,-140.39"/>
<polygon fill="midnightblue" stroke="midnightblue" points="461.02,-136.89 450.67,-139.18 460.18,-143.84 461.02,-136.89"/>
</g>
<!-- Node15 -->
<g id="node15" class="node">
<title>Node15</title>
<g id="a_node15"><a xlink:title=" ">
<polygon fill="none" stroke="#bfbfbf" points="130.64,-0.5 130.64,-19.5 182.64,-19.5 182.64,-0.5 130.64,-0.5"/>
<text text-anchor="middle" x="156.64" y="-7.5" font-family="Helvetica,sans-Serif" font-size="10.00">cassert</text>
</a>
</g>
</g>
<!-- Node10&#45;&gt;Node15 -->
<g id="edge26" class="edge">
<title>Node10&#45;&gt;Node15</title>
<path fill="none" stroke="midnightblue" d="M809.84,-186.59C675.61,-182.27 291,-168 167.64,-143 93.39,-127.95 50.54,-148.75 6.64,-87 -24.44,-43.28 66.37,-23.17 120.11,-15.3"/>
<polygon fill="midnightblue" stroke="midnightblue" points="120.89,-18.72 130.32,-13.88 119.93,-11.79 120.89,-18.72"/>
</g>
<!-- Node19 -->
<g id="node19" class="node">
<title>Node19</title>
<g id="a_node19"><a xlink:title=" ">
<polygon fill="none" stroke="#bfbfbf" points="707.14,-62 707.14,-81 760.14,-81 760.14,-62 707.14,-62"/>
<text text-anchor="middle" x="733.64" y="-69" font-family="Helvetica,sans-Serif" font-size="10.00">iterator</text>
</a>
</g>
</g>
<!-- Node10&#45;&gt;Node19 -->
<g id="edge31" class="edge">
<title>Node10&#45;&gt;Node19</title>
<path fill="none" stroke="midnightblue" d="M810.1,-186.38C745.74,-183.05 634.66,-173 609.64,-143 603.94,-136.17 604.68,-130.38 609.64,-123 609.99,-122.48 666.52,-99.59 703.12,-84.81"/>
<polygon fill="midnightblue" stroke="midnightblue" points="704.44,-88.05 712.4,-81.06 701.82,-81.56 704.44,-88.05"/>
</g>
<!-- Node22 -->
<g id="node22" class="node">
<title>Node22</title>
<g id="a_node22"><a xlink:title=" ">
<polygon fill="none" stroke="#bfbfbf" points="1298.64,-123.5 1298.64,-142.5 1362.64,-142.5 1362.64,-123.5 1298.64,-123.5"/>
<text text-anchor="middle" x="1330.64" y="-130.5" font-family="Helvetica,sans-Serif" font-size="10.00">algorithm</text>
</a>
</g>
</g>
<!-- Node10&#45;&gt;Node22 -->
<g id="edge25" class="edge">
<title>Node10&#45;&gt;Node22</title>
<path fill="none" stroke="midnightblue" d="M903.32,-183.82C995.69,-175.44 1199.8,-156.37 1288.5,-142.98"/>
<polygon fill="midnightblue" stroke="midnightblue" points="1289.14,-146.42 1298.48,-141.42 1288.05,-139.51 1289.14,-146.42"/>
</g>
<!-- Node23 -->
<g id="node23" class="node">
<title>Node23</title>
<g id="a_node23"><a xlink:title=" ">
<polygon fill="none" stroke="#bfbfbf" points="945.14,-123.5 945.14,-142.5 992.14,-142.5 992.14,-123.5 945.14,-123.5"/>
<text text-anchor="middle" x="968.64" y="-130.5" font-family="Helvetica,sans-Serif" font-size="10.00">cmath</text>
</a>
</g>
</g>
<!-- Node10&#45;&gt;Node23 -->
<g id="edge27" class="edge">
<title>Node10&#45;&gt;Node23</title>
<path fill="none" stroke="midnightblue" d="M874.63,-179.32C892.68,-170.62 920.69,-157.12 941.44,-147.11"/>
<polygon fill="midnightblue" stroke="midnightblue" points="943.2,-150.15 950.69,-142.65 940.16,-143.84 943.2,-150.15"/>
</g>
<!-- Node24 -->
<g id="node24" class="node">
<title>Node24</title>
<g id="a_node24"><a xlink:title=" ">
<polygon fill="none" stroke="#bfbfbf" points="1010.14,-123.5 1010.14,-142.5 1075.14,-142.5 1075.14,-123.5 1010.14,-123.5"/>
<text text-anchor="middle" x="1042.64" y="-130.5" font-family="Helvetica,sans-Serif" font-size="10.00">functional</text>
</a>
</g>
</g>
<!-- Node10&#45;&gt;Node24 -->
<g id="edge29" class="edge">
<title>Node10&#45;&gt;Node24</title>
<path fill="none" stroke="midnightblue" d="M886.11,-179.44C917.81,-170.24 968.37,-155.56 1003.41,-145.39"/>
<polygon fill="midnightblue" stroke="midnightblue" points="1004.68,-148.67 1013.3,-142.52 1002.73,-141.94 1004.68,-148.67"/>
</g>
<!-- Node25 -->
<g id="node25" class="node">
<title>Node25</title>
<g id="a_node25"><a xlink:title=" ">
<polygon fill="none" stroke="#bfbfbf" points="1093.14,-123.5 1093.14,-142.5 1176.14,-142.5 1176.14,-123.5 1093.14,-123.5"/>
<text text-anchor="middle" x="1134.64" y="-130.5" font-family="Helvetica,sans-Serif" font-size="10.00">initializer_list</text>
</a>
</g>
</g>
<!-- Node10&#45;&gt;Node25 -->
<g id="edge30" class="edge">
<title>Node10&#45;&gt;Node25</title>
<path fill="none" stroke="midnightblue" d="M900.69,-179.44C950.21,-169.82 1030.52,-154.22 1082.97,-144.04"/>
<polygon fill="midnightblue" stroke="midnightblue" points="1083.92,-147.42 1093.07,-142.08 1082.58,-140.55 1083.92,-147.42"/>
</g>
<!-- Node26 -->
<g id="node26" class="node">
<title>Node26</title>
<g id="a_node26"><a xlink:title=" ">
<polygon fill="none" stroke="#bfbfbf" points="506.64,-123.5 506.64,-142.5 562.64,-142.5 562.64,-123.5 506.64,-123.5"/>
<text text-anchor="middle" x="534.64" y="-130.5" font-family="Helvetica,sans-Serif" font-size="10.00">numeric</text>
</a>
</g>
</g>
<!-- Node10&#45;&gt;Node26 -->
<g id="edge32" class="edge">
<title>Node10&#45;&gt;Node26</title>
<path fill="none" stroke="midnightblue" d="M809.94,-181.25C754.25,-173.03 658.42,-158.32 576.64,-143 575.4,-142.77 574.15,-142.53 572.88,-142.28"/>
<polygon fill="midnightblue" stroke="midnightblue" points="573.56,-138.85 563.07,-140.3 572.17,-145.71 573.56,-138.85"/>
</g>
<!-- Node27 -->
<g id="node27" class="node">
<title>Node27</title>
<g id="a_node27"><a xlink:title=" ">
<polygon fill="none" stroke="#bfbfbf" points="16.14,-62 16.14,-81 85.14,-81 85.14,-62 16.14,-62"/>
<text text-anchor="middle" x="50.64" y="-69" font-family="Helvetica,sans-Serif" font-size="10.00">type_traits</text>
</a>
</g>
</g>
<!-- Node10&#45;&gt;Node27 -->
<g id="edge33" class="edge">
<title>Node10&#45;&gt;Node27</title>
<path fill="none" stroke="midnightblue" d="M809.94,-186.29C685.72,-181.49 349.22,-166.61 240.64,-143 180.62,-129.95 114.09,-101.91 77.85,-85.4"/>
<polygon fill="midnightblue" stroke="midnightblue" points="79.01,-82.08 68.47,-81.07 76.08,-88.43 79.01,-82.08"/>
</g>
<!-- Node13&#45;&gt;Node7 -->
<g id="edge21" class="edge">
<title>Node13&#45;&gt;Node7</title>
<path fill="none" stroke="midnightblue" d="M450.87,-124.99C455.52,-124.29 460.17,-123.62 464.64,-123 599.41,-104.39 641.59,-135.67 768.64,-87 790.98,-78.44 790.76,-65.67 812.64,-56 867.74,-31.66 937.25,-19.93 978.98,-14.72"/>
<polygon fill="midnightblue" stroke="midnightblue" points="979.45,-18.18 988.97,-13.53 978.62,-11.23 979.45,-18.18"/>
</g>
<!-- Node14 -->
<g id="node14" class="node">
<title>Node14</title>
<g id="a_node14"><a xlink:href="device__qualifier_8hpp.html" target="_top" xlink:title=" ">
<polygon fill="none" stroke="black" points="141.64,-62 141.64,-81 257.64,-81 257.64,-62 141.64,-62"/>
<text text-anchor="middle" x="199.64" y="-69" font-family="Helvetica,sans-Serif" font-size="10.00">device_qualifier.hpp</text>
</a>
</g>
</g>
<!-- Node13&#45;&gt;Node14 -->
<g id="edge14" class="edge">
<title>Node13&#45;&gt;Node14</title>
<path fill="none" stroke="midnightblue" d="M377.84,-123.48C341.39,-113.05 279.56,-95.36 239.16,-83.81"/>
<polygon fill="midnightblue" stroke="midnightblue" points="239.96,-80.39 229.38,-81.01 238.04,-87.12 239.96,-80.39"/>
</g>
<!-- Node13&#45;&gt;Node15 -->
<g id="edge20" class="edge">
<title>Node13&#45;&gt;Node15</title>
<path fill="none" stroke="midnightblue" d="M408.1,-123.48C408.45,-107.71 406.75,-73.91 387.64,-56 359.92,-30.03 250.62,-18.05 192.86,-13.43"/>
<polygon fill="midnightblue" stroke="midnightblue" points="192.94,-9.93 182.7,-12.65 192.41,-16.91 192.94,-9.93"/>
</g>
<!-- Node16 -->
<g id="node16" class="node">
<title>Node16</title>
<g id="a_node16"><a xlink:href="get_8hpp.html" target="_top" xlink:title=" ">
<polygon fill="none" stroke="black" points="436.14,-62 436.14,-81 489.14,-81 489.14,-62 436.14,-62"/>
<text text-anchor="middle" x="462.64" y="-69" font-family="Helvetica,sans-Serif" font-size="10.00">get.hpp</text>
</a>
</g>
</g>
<!-- Node13&#45;&gt;Node16 -->
<g id="edge16" class="edge">
<title>Node13&#45;&gt;Node16</title>
<path fill="none" stroke="midnightblue" d="M415.52,-123.48C423.93,-114.37 437.46,-99.74 447.86,-88.48"/>
<polygon fill="midnightblue" stroke="midnightblue" points="450.56,-90.73 454.77,-81.01 445.42,-85.98 450.56,-90.73"/>
</g>
<!-- Node18 -->
<g id="node18" class="node">
<title>Node18</title>
<g id="a_node18"><a xlink:title=" ">
<polygon fill="none" stroke="#bfbfbf" points="507.14,-56.5 507.14,-86.5 614.14,-86.5 614.14,-56.5 507.14,-56.5"/>
<text text-anchor="start" x="515.14" y="-74.5" font-family="Helvetica,sans-Serif" font-size="10.00">boost/serialization</text>
<text text-anchor="middle" x="560.64" y="-63.5" font-family="Helvetica,sans-Serif" font-size="10.00">/access.hpp</text>
</a>
</g>
</g>
<!-- Node13&#45;&gt;Node18 -->
<g id="edge19" class="edge">
<title>Node13&#45;&gt;Node18</title>
<path fill="none" stroke="midnightblue" d="M429.56,-123.48C451.73,-114.85 486.67,-101.26 514.91,-90.29"/>
<polygon fill="midnightblue" stroke="midnightblue" points="516.53,-93.41 524.58,-86.52 513.99,-86.89 516.53,-93.41"/>
</g>
<!-- Node13&#45;&gt;Node19 -->
<g id="edge22" class="edge">
<title>Node13&#45;&gt;Node19</title>
<path fill="none" stroke="midnightblue" d="M450.9,-125.15C455.53,-124.43 460.18,-123.7 464.64,-123 568.17,-106.83 596.6,-114.76 697.64,-87 700.14,-86.31 702.7,-85.5 705.25,-84.63"/>
<polygon fill="midnightblue" stroke="midnightblue" points="706.74,-87.81 714.86,-81.01 704.27,-81.26 706.74,-87.81"/>
</g>
<!-- Node20 -->
<g id="node20" class="node">
<title>Node20</title>
<g id="a_node20"><a xlink:title=" ">
<polygon fill="none" stroke="#bfbfbf" points="632.14,-62 632.14,-81 689.14,-81 689.14,-62 632.14,-62"/>
<text text-anchor="middle" x="660.64" y="-69" font-family="Helvetica,sans-Serif" font-size="10.00">ostream</text>
</a>
</g>
</g>
<!-- Node13&#45;&gt;Node20 -->
<g id="edge23" class="edge">
<title>Node13&#45;&gt;Node20</title>
<path fill="none" stroke="midnightblue" d="M450.97,-125.01C494.74,-117.46 564.09,-104.18 622.64,-87 625.22,-86.24 627.87,-85.39 630.52,-84.49"/>
<polygon fill="midnightblue" stroke="midnightblue" points="631.72,-87.77 639.94,-81.08 629.34,-81.19 631.72,-87.77"/>
</g>
<!-- Node21 -->
<g id="node21" class="node">
<title>Node21</title>
<g id="a_node21"><a xlink:title=" ">
<polygon fill="none" stroke="#bfbfbf" points="314.14,-62 314.14,-81 379.14,-81 379.14,-62 314.14,-62"/>
<text text-anchor="middle" x="346.64" y="-69" font-family="Helvetica,sans-Serif" font-size="10.00">stdexcept</text>
</a>
</g>
</g>
<!-- Node13&#45;&gt;Node21 -->
<g id="edge24" class="edge">
<title>Node13&#45;&gt;Node21</title>
<path fill="none" stroke="midnightblue" d="M398.9,-123.48C389.48,-114.28 374.27,-99.46 362.69,-88.16"/>
<polygon fill="midnightblue" stroke="midnightblue" points="364.96,-85.49 355.36,-81.01 360.08,-90.5 364.96,-85.49"/>
</g>
<!-- Node14&#45;&gt;Node15 -->
<g id="edge15" class="edge">
<title>Node14&#45;&gt;Node15</title>
<path fill="none" stroke="midnightblue" d="M193.48,-61.98C187.03,-53.05 176.73,-38.81 168.67,-27.64"/>
<polygon fill="midnightblue" stroke="midnightblue" points="171.48,-25.56 162.79,-19.51 165.81,-29.66 171.48,-25.56"/>
</g>
<!-- Node16&#45;&gt;Node7 -->
<g id="edge17" class="edge">
<title>Node16&#45;&gt;Node7</title>
<path fill="none" stroke="midnightblue" d="M480.45,-61.89C485.86,-59.61 491.89,-57.41 497.64,-56 674.02,-12.89 893.02,-9.74 978.78,-10.38"/>
<polygon fill="midnightblue" stroke="midnightblue" points="979,-13.88 989.04,-10.47 979.07,-6.88 979,-13.88"/>
</g>
<!-- Node17 -->
<g id="node17" class="node">
<title>Node17</title>
<g id="a_node17"><a xlink:title=" ">
<polygon fill="none" stroke="#bfbfbf" points="442.14,-0.5 442.14,-19.5 483.14,-19.5 483.14,-0.5 442.14,-0.5"/>
<text text-anchor="middle" x="462.64" y="-7.5" font-family="Helvetica,sans-Serif" font-size="10.00">tuple</text>
</a>
</g>
</g>
<!-- Node16&#45;&gt;Node17 -->
<g id="edge18" class="edge">
<title>Node16&#45;&gt;Node17</title>
<path fill="none" stroke="midnightblue" d="M462.64,-61.98C462.64,-53.58 462.64,-40.48 462.64,-29.66"/>
<polygon fill="midnightblue" stroke="midnightblue" points="466.14,-29.51 462.64,-19.51 459.14,-29.51 466.14,-29.51"/>
</g>
<!-- Node28&#45;&gt;Node7 -->
<g id="edge39" class="edge">
<title>Node28&#45;&gt;Node7</title>
<path fill="none" stroke="midnightblue" d="M290.96,-123.36C288.41,-107.38 285.68,-73.27 304.64,-56 354.72,-10.4 839.63,-9.89 978.6,-10.69"/>
<polygon fill="midnightblue" stroke="midnightblue" points="978.72,-14.19 988.74,-10.76 978.76,-7.19 978.72,-14.19"/>
</g>
<!-- Node28&#45;&gt;Node14 -->
<g id="edge37" class="edge">
<title>Node28&#45;&gt;Node14</title>
<path fill="none" stroke="midnightblue" d="M279.31,-123.48C264.26,-113.84 239.52,-98.02 221.6,-86.55"/>
<polygon fill="midnightblue" stroke="midnightblue" points="223.25,-83.45 212.94,-81.01 219.48,-89.35 223.25,-83.45"/>
</g>
<!-- Node28&#45;&gt;Node15 -->
<g id="edge38" class="edge">
<title>Node28&#45;&gt;Node15</title>
<path fill="none" stroke="midnightblue" d="M249.47,-125.79C207.08,-118.7 146.75,-105.63 132.64,-87 119.39,-69.5 131.77,-44.51 143.11,-28.03"/>
<polygon fill="midnightblue" stroke="midnightblue" points="146.02,-29.98 149.13,-19.85 140.39,-25.83 146.02,-29.98"/>
</g>
<!-- Node28&#45;&gt;Node19 -->
<g id="edge40" class="edge">
<title>Node28&#45;&gt;Node19</title>
<path fill="none" stroke="midnightblue" d="M335.65,-125.64C342.34,-124.71 349.17,-123.8 355.64,-123 507.32,-104.19 549.32,-123.91 697.64,-87 700.31,-86.34 703.04,-85.52 705.74,-84.61"/>
<polygon fill="midnightblue" stroke="midnightblue" points="707.14,-87.82 715.28,-81.04 704.69,-81.26 707.14,-87.82"/>
</g>
<!-- Node28&#45;&gt;Node21 -->
<g id="edge41" class="edge">
<title>Node28&#45;&gt;Node21</title>
<path fill="none" stroke="midnightblue" d="M300.38,-123.48C308.64,-114.37 321.92,-99.74 332.13,-88.48"/>
<polygon fill="midnightblue" stroke="midnightblue" points="334.79,-90.77 338.92,-81.01 329.6,-86.06 334.79,-90.77"/>
</g>
<!-- Node28&#45;&gt;Node27 -->
<g id="edge42" class="edge">
<title>Node28&#45;&gt;Node27</title>
<path fill="none" stroke="midnightblue" d="M252.92,-123.45C213.78,-114.86 152.36,-100.93 99.64,-87 95.99,-86.04 92.21,-84.99 88.43,-83.92"/>
<polygon fill="midnightblue" stroke="midnightblue" points="89.12,-80.48 78.54,-81.07 87.18,-87.21 89.12,-80.48"/>
</g>
<!-- Node30&#45;&gt;Node3 -->
<g id="edge47" class="edge">
<title>Node30&#45;&gt;Node3</title>
<path fill="none" stroke="midnightblue" d="M1201.07,-293.16C1168.68,-284.15 1111.28,-268.17 1072.36,-257.33"/>
<polygon fill="midnightblue" stroke="midnightblue" points="1072.97,-253.87 1062.4,-254.56 1071.09,-260.61 1072.97,-253.87"/>
</g>
<!-- Node30&#45;&gt;Node7 -->
<g id="edge52" class="edge">
<title>Node30&#45;&gt;Node7</title>
<path fill="none" stroke="midnightblue" d="M1250.27,-292.24C1278.09,-283.05 1320.98,-267.41 1332.64,-255 1374.51,-210.4 1407.37,-172.65 1371.64,-123 1333.53,-70.04 1135.07,-31.1 1052.13,-16.89"/>
<polygon fill="midnightblue" stroke="midnightblue" points="1052.59,-13.41 1042.14,-15.2 1051.42,-20.32 1052.59,-13.41"/>
</g>
<!-- Node30&#45;&gt;Node8 -->
<g id="edge54" class="edge">
<title>Node30&#45;&gt;Node8</title>
<path fill="none" stroke="midnightblue" d="M1227.31,-291.08C1232.19,-264.95 1246.52,-188.21 1253.17,-152.58"/>
<polygon fill="midnightblue" stroke="midnightblue" points="1256.64,-153.04 1255.04,-142.57 1249.76,-151.76 1256.64,-153.04"/>
</g>
<!-- Node30&#45;&gt;Node10 -->
<g id="edge48" class="edge">
<title>Node30&#45;&gt;Node10</title>
<path fill="none" stroke="midnightblue" d="M1208.86,-291.43C1181.43,-277.74 1125,-250.86 1074.64,-235 1020.95,-218.1 957.78,-205.86 913.31,-198.45"/>
<polygon fill="midnightblue" stroke="midnightblue" points="913.7,-194.97 903.27,-196.81 912.57,-201.88 913.7,-194.97"/>
</g>
<!-- Node30&#45;&gt;Node22 -->
<g id="edge51" class="edge">
<title>Node30&#45;&gt;Node22</title>
<path fill="none" stroke="midnightblue" d="M1248.25,-291.4C1271.79,-281.98 1306.37,-266.65 1314.64,-255 1336.33,-224.43 1335.68,-178.33 1333.21,-152.76"/>
<polygon fill="midnightblue" stroke="midnightblue" points="1336.66,-152.11 1332.02,-142.59 1329.71,-152.92 1336.66,-152.11"/>
</g>
<!-- Node30&#45;&gt;Node29 -->
<g id="edge49" class="edge">
<title>Node30&#45;&gt;Node29</title>
<path fill="none" stroke="midnightblue" d="M1250.46,-294.72C1291.74,-285.95 1375.3,-268.18 1429.3,-256.7"/>
<polygon fill="midnightblue" stroke="midnightblue" points="1430.3,-260.07 1439.36,-254.56 1428.85,-253.22 1430.3,-260.07"/>
</g>
<!-- Node31 -->
<g id="node31" class="node">
<title>Node31</title>
<g id="a_node31"><a xlink:title=" ">
<polygon fill="none" stroke="#bfbfbf" points="1254.14,-235.5 1254.14,-254.5 1305.14,-254.5 1305.14,-235.5 1254.14,-235.5"/>
<text text-anchor="middle" x="1279.64" y="-242.5" font-family="Helvetica,sans-Serif" font-size="10.00">fftw3.h</text>
</a>
</g>
</g>
<!-- Node30&#45;&gt;Node31 -->
<g id="edge50" class="edge">
<title>Node30&#45;&gt;Node31</title>
<path fill="none" stroke="midnightblue" d="M1234.56,-291.08C1242.42,-283.22 1254.07,-271.57 1263.56,-262.08"/>
<polygon fill="midnightblue" stroke="midnightblue" points="1266.29,-264.3 1270.89,-254.75 1261.34,-259.35 1266.29,-264.3"/>
</g>
<!-- Node32 -->
<g id="node32" class="node">
<title>Node32</title>
<g id="a_node32"><a xlink:title=" ">
<polygon fill="none" stroke="#bfbfbf" points="1160.14,-235.5 1160.14,-254.5 1197.14,-254.5 1197.14,-235.5 1160.14,-235.5"/>
<text text-anchor="middle" x="1178.64" y="-242.5" font-family="Helvetica,sans-Serif" font-size="10.00">new</text>
</a>
</g>
</g>
<!-- Node30&#45;&gt;Node32 -->
<g id="edge53" class="edge">
<title>Node30&#45;&gt;Node32</title>
<path fill="none" stroke="midnightblue" d="M1217.88,-291.08C1211.1,-283.3 1201.1,-271.8 1192.88,-262.37"/>
<polygon fill="midnightblue" stroke="midnightblue" points="1195.46,-260 1186.26,-254.75 1190.18,-264.59 1195.46,-260"/>
</g>
<!-- Node33&#45;&gt;Node7 -->
<g id="edge63" class="edge">
<title>Node33&#45;&gt;Node7</title>
<path fill="none" stroke="midnightblue" d="M1713.02,-291.22C1704.23,-282.73 1691.46,-269.1 1683.64,-255 1668.98,-228.57 1663.64,-220.23 1663.64,-190 1663.64,-190 1663.64,-190 1663.64,-132 1663.64,-96.58 1667.44,-77.95 1639.64,-56 1593.52,-19.58 1179.43,-12.58 1052.47,-11.28"/>
<polygon fill="midnightblue" stroke="midnightblue" points="1052.5,-7.78 1042.46,-11.19 1052.43,-14.78 1052.5,-7.78"/>
</g>
<!-- Node33&#45;&gt;Node10 -->
<g id="edge59" class="edge">
<title>Node33&#45;&gt;Node10</title>
<path fill="none" stroke="midnightblue" d="M1707.06,-291.31C1679.92,-276.65 1621.77,-247.41 1568.64,-235 1307.64,-174.01 1234,-217.93 966.64,-199 949.39,-197.78 930.62,-196.3 913.56,-194.9"/>
<polygon fill="midnightblue" stroke="midnightblue" points="913.44,-191.37 903.19,-194.04 912.86,-198.35 913.44,-191.37"/>
</g>
<!-- Node33&#45;&gt;Node29 -->
<g id="edge60" class="edge">
<title>Node33&#45;&gt;Node29</title>
<path fill="none" stroke="midnightblue" d="M1684.13,-291.44C1641.83,-282.04 1573.82,-266.93 1527.97,-256.74"/>
<polygon fill="midnightblue" stroke="midnightblue" points="1528.48,-253.27 1517.96,-254.52 1526.97,-260.1 1528.48,-253.27"/>
</g>
<!-- Node34 -->
<g id="node34" class="node">
<title>Node34</title>
<g id="a_node34"><a xlink:title=" ">
<polygon fill="none" stroke="#bfbfbf" points="1692.14,-235.5 1692.14,-254.5 1829.14,-254.5 1829.14,-235.5 1692.14,-235.5"/>
<text text-anchor="middle" x="1760.64" y="-242.5" font-family="Helvetica,sans-Serif" font-size="10.00">boost/mpi/exception.hpp</text>
</a>
</g>
</g>
<!-- Node33&#45;&gt;Node34 -->
<g id="edge61" class="edge">
<title>Node33&#45;&gt;Node34</title>
<path fill="none" stroke="midnightblue" d="M1728.91,-291.08C1734.28,-283.46 1742.16,-272.26 1748.72,-262.94"/>
<polygon fill="midnightblue" stroke="midnightblue" points="1751.59,-264.94 1754.48,-254.75 1745.86,-260.91 1751.59,-264.94"/>
</g>
<!-- Node33&#45;&gt;Node35 -->
<g id="edge62" class="edge">
<title>Node33&#45;&gt;Node35</title>
<path fill="none" stroke="midnightblue" d="M1758.06,-291.5C1792.19,-283.21 1845.52,-270.04 1900.41,-255.26"/>
<polygon fill="midnightblue" stroke="midnightblue" points="1901.58,-258.58 1910.31,-252.59 1899.75,-251.82 1901.58,-258.58"/>
</g>
<!-- Node36 -->
<g id="node36" class="node">
<title>Node36</title>
<g id="a_node36"><a xlink:title=" ">
<polygon fill="none" stroke="#bfbfbf" points="1847.14,-235.5 1847.14,-254.5 1892.14,-254.5 1892.14,-235.5 1847.14,-235.5"/>
<text text-anchor="middle" x="1869.64" y="-242.5" font-family="Helvetica,sans-Serif" font-size="10.00">utility</text>
</a>
</g>
</g>
<!-- Node33&#45;&gt;Node36 -->
<g id="edge64" class="edge">
<title>Node33&#45;&gt;Node36</title>
<path fill="none" stroke="midnightblue" d="M1745.93,-291.44C1770.59,-282.39 1809.69,-268.02 1837.32,-257.87"/>
<polygon fill="midnightblue" stroke="midnightblue" points="1838.76,-261.07 1846.94,-254.34 1836.34,-254.5 1838.76,-261.07"/>
</g>
</g>
</svg>
        <g id="navigator" transform="translate(0 0)" fill="#404254">
                <rect fill="#f2f5e9" fill-opacity="0.5" stroke="#606060" stroke-width=".5" x="0" y="0" width="60" height="60"/>
                <use id="zoomplus" xlink:href="#zoomPlus" x="17" y="9" onmousedown="handleZoom(evt,'in')"/>
                <use id="zoomminus" xlink:href="#zoomMin" x="42" y="9" onmousedown="handleZoom(evt,'out')"/>
                <use id="reset" xlink:href="#resetDef" x="30" y="36" onmousedown="handleReset()"/>
                <g id="arrowUp" xlink:href="#dirArrow" transform="translate(30 24)" onmousedown="handlePan(0,-1)">
                  <use xlink:href="#rim" fill="#404040">
                        <set attributeName="fill" to="#808080" begin="arrowUp.mouseover" end="arrowUp.mouseout"/>
                  </use>
                  <path fill="none" stroke="white" stroke-width="1.5" d="M0,-3.0v7 M-2.5,-0.5L0,-3.0L2.5,-0.5"/>
                </g>
                <g id="arrowRight" xlink:href="#dirArrow" transform="rotate(90) translate(36 -43)" onmousedown="handlePan(1,0)">
                  <use xlink:href="#rim" fill="#404040">
                        <set attributeName="fill" to="#808080" begin="arrowRight.mouseover" end="arrowRight.mouseout"/>
                  </use>
                  <path fill="none" stroke="white" stroke-width="1.5" d="M0,-3.0v7 M-2.5,-0.5L0,-3.0L2.5,-0.5"/>
                </g>
                <g id="arrowDown" xlink:href="#dirArrow" transform="rotate(180) translate(-30 -48)" onmousedown="handlePan(0,1)">
                  <use xlink:href="#rim" fill="#404040">
                        <set attributeName="fill" to="#808080" begin="arrowDown.mouseover" end="arrowDown.mouseout"/>
                  </use>
                  <path fill="none" stroke="white" stroke-width="1.5" d="M0,-3.0v7 M-2.5,-0.5L0,-3.0L2.5,-0.5"/>
                </g>
                <g id="arrowLeft" xlink:href="#dirArrow" transform="rotate(270) translate(-36 17)" onmousedown="handlePan(-1,0)">
                  <use xlink:href="#rim" fill="#404040">
                        <set attributeName="fill" to="#808080" begin="arrowLeft.mouseover" end="arrowLeft.mouseout"/>
                  </use>
                  <path fill="none" stroke="white" stroke-width="1.5" d="M0,-3.0v7 M-2.5,-0.5L0,-3.0L2.5,-0.5"/>
                </g>
        </g>
        <svg viewBox="0 0 15 15" width="100%" height="30px" preserveAspectRatio="xMaxYMin meet">
         <g id="arrow_out" transform="scale(0.3 0.3)">
          <a xlink:href="p3m__send__mesh_8cpp__incl_org.svg" target="_base">
           <rect id="button" ry="5" rx="5" y="6" x="6" height="38" width="38"
                fill="#f2f5e9" fill-opacity="0.5" stroke="#606060" stroke-width="1.0"/>
           <path id="arrow"
             d="M 11.500037,31.436501 C 11.940474,20.09759 22.043105,11.32322 32.158766,21.979434 L 37.068811,17.246167 C 37.068811,17.246167 37.088388,32 37.088388,32 L 22.160133,31.978069 C 22.160133,31.978069 26.997745,27.140456 26.997745,27.140456 C 18.528582,18.264221 13.291696,25.230495 11.500037,31.436501 z"
             style="fill:#404040;"/>
          </a>
         </g>
        </svg>
</svg>
