<?xml version="1.0" encoding="UTF-8" standalone="no"?>
<!DOCTYPE svg PUBLIC "-//W3C//DTD SVG 1.1//EN"
 "http://www.w3.org/Graphics/SVG/1.1/DTD/svg11.dtd">
<!-- Generated by graphviz version 2.43.0 (0)
 -->
<!-- Title: p3m_gpu.hpp Pages: 1 -->
<svg width="395pt" height="84pt"
 viewBox="0.00 0.00 395.00 84.00" xmlns="http://www.w3.org/2000/svg" xmlns:xlink="http://www.w3.org/1999/xlink">
<g id="graph0" class="graph" transform="scale(1 1) rotate(0) translate(4 80)">
<title>p3m_gpu.hpp</title>
<!-- Node1 -->
<g id="node1" class="node">
<title>Node1</title>
<g id="a_node1"><a xlink:title=" ">
<polygon fill="#bfbfbf" stroke="black" points="152,-56.5 152,-75.5 235,-75.5 235,-56.5 152,-56.5"/>
<text text-anchor="middle" x="193.5" y="-63.5" font-family="Helvetica,sans-Serif" font-size="10.00">p3m_gpu.hpp</text>
</a>
</g>
</g>
<!-- Node2 -->
<g id="node2" class="node">
<title>Node2</title>
<g id="a_node2"><a xlink:href="coulomb_8cpp.html" target="_top" xlink:title=" ">
<polygon fill="none" stroke="black" points="0,-0.5 0,-19.5 79,-19.5 79,-0.5 0,-0.5"/>
<text text-anchor="middle" x="39.5" y="-7.5" font-family="Helvetica,sans-Serif" font-size="10.00">coulomb.cpp</text>
</a>
</g>
</g>
<!-- Node1&#45;&gt;Node2 -->
<g id="edge1" class="edge">
<title>Node1&#45;&gt;Node2</title>
<path fill="none" stroke="midnightblue" d="M159.39,-53.04C130.41,-42.88 89.54,-28.55 63.79,-19.52"/>
<polygon fill="midnightblue" stroke="midnightblue" points="158.5,-56.44 169.1,-56.44 160.82,-49.83 158.5,-56.44"/>
</g>
<!-- Node3 -->
<g id="node3" class="node">
<title>Node3</title>
<g id="a_node3"><a xlink:href="p3m__gpu_8cpp.html" target="_top" xlink:title=" ">
<polygon fill="none" stroke="black" points="97.5,-0.5 97.5,-19.5 179.5,-19.5 179.5,-0.5 97.5,-0.5"/>
<text text-anchor="middle" x="138.5" y="-7.5" font-family="Helvetica,sans-Serif" font-size="10.00">p3m_gpu.cpp</text>
</a>
</g>
</g>
<!-- Node1&#45;&gt;Node3 -->
<g id="edge2" class="edge">
<title>Node1&#45;&gt;Node3</title>
<path fill="none" stroke="midnightblue" d="M177.21,-49C167.46,-39.43 155.45,-27.64 147.41,-19.75"/>
<polygon fill="midnightblue" stroke="midnightblue" points="174.83,-51.57 184.42,-56.08 179.73,-46.58 174.83,-51.57"/>
</g>
<!-- Node4 -->
<g id="node4" class="node">
<title>Node4</title>
<g id="a_node4"><a xlink:href="p3m__gpu__cuda_8cu.html" target="_top" xlink:title=" ">
<polygon fill="none" stroke="black" points="197.5,-0.5 197.5,-19.5 301.5,-19.5 301.5,-0.5 197.5,-0.5"/>
<text text-anchor="middle" x="249.5" y="-7.5" font-family="Helvetica,sans-Serif" font-size="10.00">p3m_gpu_cuda.cu</text>
</a>
</g>
</g>
<!-- Node1&#45;&gt;Node4 -->
<g id="edge3" class="edge">
<title>Node1&#45;&gt;Node4</title>
<path fill="none" stroke="midnightblue" d="M209.83,-49.25C219.76,-39.67 232.09,-27.79 240.34,-19.83"/>
<polygon fill="midnightblue" stroke="midnightblue" points="207.27,-46.86 202.5,-56.32 212.13,-51.9 207.27,-46.86"/>
</g>
<!-- Node5 -->
<g id="node5" class="node">
<title>Node5</title>
<g id="a_node5"><a xlink:href="forces_8cpp.html" target="_top" xlink:title=" ">
<polygon fill="none" stroke="black" points="320,-0.5 320,-19.5 387,-19.5 387,-0.5 320,-0.5"/>
<text text-anchor="middle" x="353.5" y="-7.5" font-family="Helvetica,sans-Serif" font-size="10.00">forces.cpp</text>
</a>
</g>
</g>
<!-- Node1&#45;&gt;Node5 -->
<g id="edge4" class="edge">
<title>Node1&#45;&gt;Node5</title>
<path fill="none" stroke="midnightblue" d="M228.55,-53.17C258.67,-43 301.4,-28.59 328.27,-19.52"/>
<polygon fill="midnightblue" stroke="midnightblue" points="227.21,-49.93 218.85,-56.44 229.45,-56.56 227.21,-49.93"/>
</g>
</g>
</svg>
