<?xml version="1.0" encoding="UTF-8" standalone="no"?>
<!DOCTYPE svg PUBLIC "-//W3C//DTD SVG 1.1//EN"
 "http://www.w3.org/Graphics/SVG/1.1/DTD/svg11.dtd">
<!-- Generated by graphviz version 2.43.0 (0)
 -->
<!-- Title: p3m_interpolation.hpp Pages: 1 -->
<svg width="1807pt" height="330pt"
 viewBox="0.00 0.00 1806.50 330.00" xmlns="http://www.w3.org/2000/svg" xmlns:xlink="http://www.w3.org/1999/xlink">
<g id="graph0" class="graph" transform="scale(1 1) rotate(0) translate(4 326)">
<title>p3m_interpolation.hpp</title>
<!-- Node1 -->
<g id="node1" class="node">
<title>Node1</title>
<g id="a_node1"><a xlink:title=" ">
<polygon fill="#bfbfbf" stroke="black" points="1362.5,-302.5 1362.5,-321.5 1489.5,-321.5 1489.5,-302.5 1362.5,-302.5"/>
<text text-anchor="middle" x="1426" y="-309.5" font-family="Helvetica,sans-Serif" font-size="10.00">p3m_interpolation.hpp</text>
</a>
</g>
</g>
<!-- Node2 -->
<g id="node2" class="node">
<title>Node2</title>
<g id="a_node2"><a xlink:href="Span_8hpp.html" target="_top" xlink:title=" ">
<polygon fill="none" stroke="black" points="214,-123.5 214,-142.5 300,-142.5 300,-123.5 214,-123.5"/>
<text text-anchor="middle" x="257" y="-130.5" font-family="Helvetica,sans-Serif" font-size="10.00">utils/Span.hpp</text>
</a>
</g>
</g>
<!-- Node1&#45;&gt;Node2 -->
<g id="edge1" class="edge">
<title>Node1&#45;&gt;Node2</title>
<path fill="none" stroke="midnightblue" d="M1369.62,-302.46C1170.79,-272.36 503.91,-171.39 310.19,-142.05"/>
<polygon fill="midnightblue" stroke="midnightblue" points="310.66,-138.59 300.25,-140.55 309.61,-145.51 310.66,-138.59"/>
</g>
<!-- Node4 -->
<g id="node4" class="node">
<title>Node4</title>
<g id="a_node4"><a xlink:title=" ">
<polygon fill="none" stroke="#bfbfbf" points="319,-0.5 319,-19.5 371,-19.5 371,-0.5 319,-0.5"/>
<text text-anchor="middle" x="345" y="-7.5" font-family="Helvetica,sans-Serif" font-size="10.00">cassert</text>
</a>
</g>
</g>
<!-- Node1&#45;&gt;Node4 -->
<g id="edge46" class="edge">
<title>Node1&#45;&gt;Node4</title>
<path fill="none" stroke="midnightblue" d="M1362.25,-310.66C1206.85,-309.25 796.31,-302.12 456,-266 251.69,-244.31 0,-395.46 0,-190 0,-190 0,-190 0,-132 0,-90.82 18.05,-77.78 53,-56 95.04,-29.8 239.89,-17.52 308.46,-13.07"/>
<polygon fill="midnightblue" stroke="midnightblue" points="309.02,-16.54 318.78,-12.42 308.58,-9.55 309.02,-16.54"/>
</g>
<!-- Node5 -->
<g id="node5" class="node">
<title>Node5</title>
<g id="a_node5"><a xlink:title=" ">
<polygon fill="none" stroke="#bfbfbf" points="1438.5,-0.5 1438.5,-19.5 1491.5,-19.5 1491.5,-0.5 1438.5,-0.5"/>
<text text-anchor="middle" x="1465" y="-7.5" font-family="Helvetica,sans-Serif" font-size="10.00">cstddef</text>
</a>
</g>
</g>
<!-- Node1&#45;&gt;Node5 -->
<g id="edge47" class="edge">
<title>Node1&#45;&gt;Node5</title>
<path fill="none" stroke="midnightblue" d="M1443.03,-302.27C1473.69,-285.21 1535,-244.29 1535,-190 1535,-190 1535,-190 1535,-132 1535,-89.61 1502.41,-48.73 1481.7,-27.04"/>
<polygon fill="midnightblue" stroke="midnightblue" points="1483.96,-24.35 1474.44,-19.7 1478.99,-29.27 1483.96,-24.35"/>
</g>
<!-- Node9 -->
<g id="node9" class="node">
<title>Node9</title>
<g id="a_node9"><a xlink:href="index_8hpp.html" target="_top" xlink:title=" ">
<polygon fill="none" stroke="black" points="1310.5,-241 1310.5,-260 1399.5,-260 1399.5,-241 1310.5,-241"/>
<text text-anchor="middle" x="1355" y="-248" font-family="Helvetica,sans-Serif" font-size="10.00">utils/index.hpp</text>
</a>
</g>
</g>
<!-- Node1&#45;&gt;Node9 -->
<g id="edge9" class="edge">
<title>Node1&#45;&gt;Node9</title>
<path fill="none" stroke="midnightblue" d="M1415.83,-302.48C1404.65,-293.11 1386.48,-277.88 1372.91,-266.51"/>
<polygon fill="midnightblue" stroke="midnightblue" points="1375.07,-263.75 1365.15,-260.01 1370.57,-269.11 1375.07,-263.75"/>
</g>
<!-- Node16 -->
<g id="node16" class="node">
<title>Node16</title>
<g id="a_node16"><a xlink:title=" ">
<polygon fill="none" stroke="#bfbfbf" points="1596.5,-0.5 1596.5,-19.5 1637.5,-19.5 1637.5,-0.5 1596.5,-0.5"/>
<text text-anchor="middle" x="1617" y="-7.5" font-family="Helvetica,sans-Serif" font-size="10.00">tuple</text>
</a>
</g>
</g>
<!-- Node1&#45;&gt;Node16 -->
<g id="edge48" class="edge">
<title>Node1&#45;&gt;Node16</title>
<path fill="none" stroke="midnightblue" d="M1489.64,-303.12C1554.3,-291.13 1645,-261.56 1645,-190 1645,-190 1645,-190 1645,-132 1645,-94.77 1632.26,-52.72 1623.97,-29.29"/>
<polygon fill="midnightblue" stroke="midnightblue" points="1627.16,-27.83 1620.43,-19.65 1620.59,-30.24 1627.16,-27.83"/>
</g>
<!-- Node23 -->
<g id="node23" class="node">
<title>Node23</title>
<g id="a_node23"><a xlink:title=" ">
<polygon fill="none" stroke="#bfbfbf" points="1383.5,-123.5 1383.5,-142.5 1430.5,-142.5 1430.5,-123.5 1383.5,-123.5"/>
<text text-anchor="middle" x="1407" y="-130.5" font-family="Helvetica,sans-Serif" font-size="10.00">vector</text>
</a>
</g>
</g>
<!-- Node1&#45;&gt;Node23 -->
<g id="edge49" class="edge">
<title>Node1&#45;&gt;Node23</title>
<path fill="none" stroke="midnightblue" d="M1425.08,-302.46C1422.18,-275.43 1413.14,-191.24 1409.05,-153.11"/>
<polygon fill="midnightblue" stroke="midnightblue" points="1412.5,-152.44 1407.95,-142.87 1405.54,-153.18 1412.5,-152.44"/>
</g>
<!-- Node24 -->
<g id="node24" class="node">
<title>Node24</title>
<g id="a_node24"><a xlink:href="bspline_8hpp.html" target="_top" xlink:title=" ">
<polygon fill="none" stroke="black" points="85.5,-179.5 85.5,-198.5 210.5,-198.5 210.5,-179.5 85.5,-179.5"/>
<text text-anchor="middle" x="148" y="-186.5" font-family="Helvetica,sans-Serif" font-size="10.00">utils/math/bspline.hpp</text>
</a>
</g>
</g>
<!-- Node1&#45;&gt;Node24 -->
<g id="edge39" class="edge">
<title>Node1&#45;&gt;Node24</title>
<path fill="none" stroke="midnightblue" d="M1362.13,-308.6C1236.07,-303.51 946.45,-290.09 704,-266 524.33,-248.15 313.41,-216.31 210.64,-200.1"/>
<polygon fill="midnightblue" stroke="midnightblue" points="211.17,-196.64 200.74,-198.53 210.07,-203.55 211.17,-196.64"/>
</g>
<!-- Node26 -->
<g id="node26" class="node">
<title>Node26</title>
<g id="a_node26"><a xlink:title=" ">
<polygon fill="none" stroke="#bfbfbf" points="1673.5,-235.5 1673.5,-265.5 1798.5,-265.5 1798.5,-235.5 1673.5,-235.5"/>
<text text-anchor="start" x="1681.5" y="-253.5" font-family="Helvetica,sans-Serif" font-size="10.00">boost/range/algorithm</text>
<text text-anchor="middle" x="1736" y="-242.5" font-family="Helvetica,sans-Serif" font-size="10.00">/copy.hpp</text>
</a>
</g>
</g>
<!-- Node1&#45;&gt;Node26 -->
<g id="edge45" class="edge">
<title>Node1&#45;&gt;Node26</title>
<path fill="none" stroke="midnightblue" d="M1470.42,-302.48C1520.74,-292.82 1603.52,-276.93 1663.3,-265.45"/>
<polygon fill="midnightblue" stroke="midnightblue" points="1664.27,-268.83 1673.44,-263.51 1662.96,-261.96 1664.27,-268.83"/>
</g>
<!-- Node3 -->
<g id="node3" class="node">
<title>Node3</title>
<g id="a_node3"><a xlink:href="device__qualifier_8hpp.html" target="_top" xlink:title=" ">
<polygon fill="none" stroke="black" points="62,-62 62,-81 178,-81 178,-62 62,-62"/>
<text text-anchor="middle" x="120" y="-69" font-family="Helvetica,sans-Serif" font-size="10.00">device_qualifier.hpp</text>
</a>
</g>
</g>
<!-- Node2&#45;&gt;Node3 -->
<g id="edge2" class="edge">
<title>Node2&#45;&gt;Node3</title>
<path fill="none" stroke="midnightblue" d="M237.37,-123.48C214.18,-113.4 175.38,-96.55 148.79,-85"/>
<polygon fill="midnightblue" stroke="midnightblue" points="150.16,-81.78 139.59,-81.01 147.37,-88.2 150.16,-81.78"/>
</g>
<!-- Node2&#45;&gt;Node4 -->
<g id="edge4" class="edge">
<title>Node2&#45;&gt;Node4</title>
<path fill="none" stroke="midnightblue" d="M263.33,-123.3C277.85,-103.33 313.78,-53.92 332.78,-27.8"/>
<polygon fill="midnightblue" stroke="midnightblue" points="335.68,-29.77 338.73,-19.62 330.02,-25.65 335.68,-29.77"/>
</g>
<!-- Node2&#45;&gt;Node5 -->
<g id="edge5" class="edge">
<title>Node2&#45;&gt;Node5</title>
<path fill="none" stroke="midnightblue" d="M297.12,-123.49C374.21,-107.49 548.55,-73.01 697,-56 976.95,-23.91 1317.08,-14.15 1428.06,-11.71"/>
<polygon fill="midnightblue" stroke="midnightblue" points="1428.46,-15.2 1438.38,-11.49 1428.31,-8.2 1428.46,-15.2"/>
</g>
<!-- Node6 -->
<g id="node6" class="node">
<title>Node6</title>
<g id="a_node6"><a xlink:title=" ">
<polygon fill="none" stroke="#bfbfbf" points="1035.5,-62 1035.5,-81 1088.5,-81 1088.5,-62 1035.5,-62"/>
<text text-anchor="middle" x="1062" y="-69" font-family="Helvetica,sans-Serif" font-size="10.00">iterator</text>
</a>
</g>
</g>
<!-- Node2&#45;&gt;Node6 -->
<g id="edge6" class="edge">
<title>Node2&#45;&gt;Node6</title>
<path fill="none" stroke="midnightblue" d="M300.28,-128.8C442.41,-118.3 893.29,-84.97 1025.33,-75.21"/>
<polygon fill="midnightblue" stroke="midnightblue" points="1025.63,-78.7 1035.35,-74.47 1025.11,-71.72 1025.63,-78.7"/>
</g>
<!-- Node7 -->
<g id="node7" class="node">
<title>Node7</title>
<g id="a_node7"><a xlink:title=" ">
<polygon fill="none" stroke="#bfbfbf" points="706.5,-62 706.5,-81 771.5,-81 771.5,-62 706.5,-62"/>
<text text-anchor="middle" x="739" y="-69" font-family="Helvetica,sans-Serif" font-size="10.00">stdexcept</text>
</a>
</g>
</g>
<!-- Node2&#45;&gt;Node7 -->
<g id="edge7" class="edge">
<title>Node2&#45;&gt;Node7</title>
<path fill="none" stroke="midnightblue" d="M300.23,-125C304.88,-124.3 309.53,-123.62 314,-123 453.54,-103.7 619.49,-85.29 696.2,-77.04"/>
<polygon fill="midnightblue" stroke="midnightblue" points="696.85,-80.49 706.42,-75.94 696.1,-73.53 696.85,-80.49"/>
</g>
<!-- Node8 -->
<g id="node8" class="node">
<title>Node8</title>
<g id="a_node8"><a xlink:title=" ">
<polygon fill="none" stroke="#bfbfbf" points="196.5,-62 196.5,-81 265.5,-81 265.5,-62 196.5,-62"/>
<text text-anchor="middle" x="231" y="-69" font-family="Helvetica,sans-Serif" font-size="10.00">type_traits</text>
</a>
</g>
</g>
<!-- Node2&#45;&gt;Node8 -->
<g id="edge8" class="edge">
<title>Node2&#45;&gt;Node8</title>
<path fill="none" stroke="midnightblue" d="M253.27,-123.48C249.53,-114.9 243.64,-101.43 238.86,-90.48"/>
<polygon fill="midnightblue" stroke="midnightblue" points="241.93,-88.77 234.72,-81.01 235.52,-91.57 241.93,-88.77"/>
</g>
<!-- Node3&#45;&gt;Node4 -->
<g id="edge3" class="edge">
<title>Node3&#45;&gt;Node4</title>
<path fill="none" stroke="midnightblue" d="M152.24,-61.98C193.75,-51 265.68,-31.98 308.96,-20.53"/>
<polygon fill="midnightblue" stroke="midnightblue" points="310.01,-23.87 318.78,-17.93 308.22,-17.11 310.01,-23.87"/>
</g>
<!-- Node9&#45;&gt;Node4 -->
<g id="edge10" class="edge">
<title>Node9&#45;&gt;Node4</title>
<path fill="none" stroke="midnightblue" d="M1368.46,-240.94C1398.07,-221 1464.27,-169.58 1439,-123 1412.96,-75 1387.99,-72.71 1336,-56 1243.8,-26.36 548.6,-14.07 381.18,-11.52"/>
<polygon fill="midnightblue" stroke="midnightblue" points="381.2,-8.02 371.15,-11.37 381.1,-15.02 381.2,-8.02"/>
</g>
<!-- Node9&#45;&gt;Node5 -->
<g id="edge11" class="edge">
<title>Node9&#45;&gt;Node5</title>
<path fill="none" stroke="midnightblue" d="M1373,-240.9C1390.25,-232.05 1416.35,-217.04 1435,-199 1456.62,-178.09 1464.17,-171.75 1473,-143 1484.98,-104 1476.47,-55.54 1470.15,-29.55"/>
<polygon fill="midnightblue" stroke="midnightblue" points="1473.46,-28.38 1467.56,-19.58 1466.69,-30.14 1473.46,-28.38"/>
</g>
<!-- Node9&#45;&gt;Node6 -->
<g id="edge12" class="edge">
<title>Node9&#45;&gt;Node6</title>
<path fill="none" stroke="midnightblue" d="M1356.7,-240.99C1360.68,-218.33 1368.03,-155.97 1336,-123 1304.53,-90.61 1180.38,-95.34 1136,-87 1123.86,-84.72 1110.62,-82.15 1098.73,-79.81"/>
<polygon fill="midnightblue" stroke="midnightblue" points="1099.19,-76.34 1088.7,-77.83 1097.83,-83.2 1099.19,-76.34"/>
</g>
<!-- Node9&#45;&gt;Node7 -->
<g id="edge14" class="edge">
<title>Node9&#45;&gt;Node7</title>
<path fill="none" stroke="midnightblue" d="M1337.88,-240.98C1291.57,-218.28 1159.45,-155.84 1043,-123 951.92,-97.31 841.57,-83.01 782.07,-76.63"/>
<polygon fill="midnightblue" stroke="midnightblue" points="782.22,-73.13 771.91,-75.56 781.49,-80.09 782.22,-73.13"/>
</g>
<!-- Node10 -->
<g id="node10" class="node">
<title>Node10</title>
<g id="a_node10"><a xlink:title=" ">
<polygon fill="none" stroke="#bfbfbf" points="1271,-123.5 1271,-142.5 1327,-142.5 1327,-123.5 1271,-123.5"/>
<text text-anchor="middle" x="1299" y="-130.5" font-family="Helvetica,sans-Serif" font-size="10.00">numeric</text>
</a>
</g>
</g>
<!-- Node9&#45;&gt;Node10 -->
<g id="edge13" class="edge">
<title>Node9&#45;&gt;Node10</title>
<path fill="none" stroke="midnightblue" d="M1350.79,-240.82C1341.67,-222.01 1319.92,-177.15 1307.71,-151.96"/>
<polygon fill="midnightblue" stroke="midnightblue" points="1310.77,-150.25 1303.26,-142.78 1304.47,-153.31 1310.77,-150.25"/>
</g>
<!-- Node11 -->
<g id="node11" class="node">
<title>Node11</title>
<g id="a_node11"><a xlink:href="Vector_8hpp.html" target="_top" xlink:title=" ">
<polygon fill="none" stroke="black" points="934.5,-179.5 934.5,-198.5 1003.5,-198.5 1003.5,-179.5 934.5,-179.5"/>
<text text-anchor="middle" x="969" y="-186.5" font-family="Helvetica,sans-Serif" font-size="10.00">Vector.hpp</text>
</a>
</g>
</g>
<!-- Node9&#45;&gt;Node11 -->
<g id="edge15" class="edge">
<title>Node9&#45;&gt;Node11</title>
<path fill="none" stroke="midnightblue" d="M1310.34,-242.62C1236.05,-231.16 1087.89,-208.33 1013.62,-196.88"/>
<polygon fill="midnightblue" stroke="midnightblue" points="1014.06,-193.4 1003.64,-195.34 1012.99,-200.32 1014.06,-193.4"/>
</g>
<!-- Node11&#45;&gt;Node4 -->
<g id="edge30" class="edge">
<title>Node11&#45;&gt;Node4</title>
<path fill="none" stroke="midnightblue" d="M934.39,-186.41C812.1,-180.64 406.53,-160.29 385,-143 350.55,-115.33 344.98,-58.98 344.56,-29.66"/>
<polygon fill="midnightblue" stroke="midnightblue" points="348.06,-29.56 344.6,-19.54 341.06,-29.53 348.06,-29.56"/>
</g>
<!-- Node11&#45;&gt;Node5 -->
<g id="edge32" class="edge">
<title>Node11&#45;&gt;Node5</title>
<path fill="none" stroke="midnightblue" d="M1003.67,-185.3C1053.53,-180.67 1147.86,-169.04 1224,-143 1242.06,-136.82 1244.35,-130.26 1262,-123 1312.71,-102.14 1332.22,-113.9 1380,-87 1408.31,-71.06 1435.26,-44.31 1450.96,-27.18"/>
<polygon fill="midnightblue" stroke="midnightblue" points="1453.66,-29.41 1457.72,-19.62 1448.44,-24.74 1453.66,-29.41"/>
</g>
<!-- Node11&#45;&gt;Node6 -->
<g id="edge35" class="edge">
<title>Node11&#45;&gt;Node6</title>
<path fill="none" stroke="midnightblue" d="M991.98,-179.49C1008.52,-172.22 1030.09,-160.2 1043,-143 1054.28,-127.97 1058.87,-106.71 1060.73,-91.48"/>
<polygon fill="midnightblue" stroke="midnightblue" points="1064.24,-91.48 1061.69,-81.2 1057.27,-90.83 1064.24,-91.48"/>
</g>
<!-- Node11&#45;&gt;Node8 -->
<g id="edge37" class="edge">
<title>Node11&#45;&gt;Node8</title>
<path fill="none" stroke="midnightblue" d="M934.48,-187.27C788.76,-184.03 230.35,-169.89 205,-143 190.8,-127.94 204.18,-104.48 216.41,-88.81"/>
<polygon fill="midnightblue" stroke="midnightblue" points="219.2,-90.93 222.91,-81 213.82,-86.45 219.2,-90.93"/>
</g>
<!-- Node11&#45;&gt;Node10 -->
<g id="edge36" class="edge">
<title>Node11&#45;&gt;Node10</title>
<path fill="none" stroke="midnightblue" d="M1003.69,-183.22C1057.9,-175.61 1165.94,-159.86 1257,-143 1258.24,-142.77 1259.49,-142.53 1260.76,-142.29"/>
<polygon fill="midnightblue" stroke="midnightblue" points="1261.46,-145.72 1270.58,-140.32 1260.08,-138.85 1261.46,-145.72"/>
</g>
<!-- Node12 -->
<g id="node12" class="node">
<title>Node12</title>
<g id="a_node12"><a xlink:title=" ">
<polygon fill="none" stroke="#bfbfbf" points="579,-123.5 579,-142.5 729,-142.5 729,-123.5 579,-123.5"/>
<text text-anchor="middle" x="654" y="-130.5" font-family="Helvetica,sans-Serif" font-size="10.00">boost/qvm/deduce_vec.hpp</text>
</a>
</g>
</g>
<!-- Node11&#45;&gt;Node12 -->
<g id="edge16" class="edge">
<title>Node11&#45;&gt;Node12</title>
<path fill="none" stroke="midnightblue" d="M934.39,-182.07C881.29,-172.96 779.05,-155.44 713.79,-144.25"/>
<polygon fill="midnightblue" stroke="midnightblue" points="714.1,-140.75 703.65,-142.51 712.91,-147.65 714.1,-140.75"/>
</g>
<!-- Node13 -->
<g id="node13" class="node">
<title>Node13</title>
<g id="a_node13"><a xlink:title=" ">
<polygon fill="none" stroke="#bfbfbf" points="747,-123.5 747,-142.5 887,-142.5 887,-123.5 747,-123.5"/>
<text text-anchor="middle" x="817" y="-130.5" font-family="Helvetica,sans-Serif" font-size="10.00">boost/qvm/vec_traits.hpp</text>
</a>
</g>
</g>
<!-- Node11&#45;&gt;Node13 -->
<g id="edge17" class="edge">
<title>Node11&#45;&gt;Node13</title>
<path fill="none" stroke="midnightblue" d="M944.92,-179.44C919.46,-170.4 879.11,-156.06 850.54,-145.92"/>
<polygon fill="midnightblue" stroke="midnightblue" points="851.57,-142.57 840.97,-142.52 849.22,-149.16 851.57,-142.57"/>
</g>
<!-- Node14 -->
<g id="node14" class="node">
<title>Node14</title>
<g id="a_node14"><a xlink:href="Array_8hpp.html" target="_top" xlink:title=" ">
<polygon fill="none" stroke="black" points="1129,-123.5 1129,-142.5 1215,-142.5 1215,-123.5 1129,-123.5"/>
<text text-anchor="middle" x="1172" y="-130.5" font-family="Helvetica,sans-Serif" font-size="10.00">utils/Array.hpp</text>
</a>
</g>
</g>
<!-- Node11&#45;&gt;Node14 -->
<g id="edge18" class="edge">
<title>Node11&#45;&gt;Node14</title>
<path fill="none" stroke="midnightblue" d="M1001.17,-179.44C1036.06,-170.16 1091.89,-155.31 1130.17,-145.13"/>
<polygon fill="midnightblue" stroke="midnightblue" points="1131.22,-148.47 1139.98,-142.52 1129.42,-141.7 1131.22,-148.47"/>
</g>
<!-- Node19 -->
<g id="node19" class="node">
<title>Node19</title>
<g id="a_node19"><a xlink:title=" ">
<polygon fill="none" stroke="#bfbfbf" points="905,-123.5 905,-142.5 969,-142.5 969,-123.5 905,-123.5"/>
<text text-anchor="middle" x="937" y="-130.5" font-family="Helvetica,sans-Serif" font-size="10.00">algorithm</text>
</a>
</g>
</g>
<!-- Node11&#45;&gt;Node19 -->
<g id="edge29" class="edge">
<title>Node11&#45;&gt;Node19</title>
<path fill="none" stroke="midnightblue" d="M963.72,-179.08C959.29,-171.61 952.84,-160.72 947.38,-151.52"/>
<polygon fill="midnightblue" stroke="midnightblue" points="950.29,-149.57 942.19,-142.75 944.27,-153.14 950.29,-149.57"/>
</g>
<!-- Node20 -->
<g id="node20" class="node">
<title>Node20</title>
<g id="a_node20"><a xlink:title=" ">
<polygon fill="none" stroke="#bfbfbf" points="987.5,-123.5 987.5,-142.5 1034.5,-142.5 1034.5,-123.5 987.5,-123.5"/>
<text text-anchor="middle" x="1011" y="-130.5" font-family="Helvetica,sans-Serif" font-size="10.00">cmath</text>
</a>
</g>
</g>
<!-- Node11&#45;&gt;Node20 -->
<g id="edge31" class="edge">
<title>Node11&#45;&gt;Node20</title>
<path fill="none" stroke="midnightblue" d="M975.94,-179.08C981.93,-171.38 990.75,-160.03 998.05,-150.65"/>
<polygon fill="midnightblue" stroke="midnightblue" points="1000.82,-152.79 1004.19,-142.75 995.29,-148.5 1000.82,-152.79"/>
</g>
<!-- Node21 -->
<g id="node21" class="node">
<title>Node21</title>
<g id="a_node21"><a xlink:title=" ">
<polygon fill="none" stroke="#bfbfbf" points="394.5,-123.5 394.5,-142.5 459.5,-142.5 459.5,-123.5 394.5,-123.5"/>
<text text-anchor="middle" x="427" y="-130.5" font-family="Helvetica,sans-Serif" font-size="10.00">functional</text>
</a>
</g>
</g>
<!-- Node11&#45;&gt;Node21 -->
<g id="edge33" class="edge">
<title>Node11&#45;&gt;Node21</title>
<path fill="none" stroke="midnightblue" d="M934.5,-186.41C854.44,-182.39 649.71,-170.27 469.52,-143.06"/>
<polygon fill="midnightblue" stroke="midnightblue" points="470.02,-139.6 459.6,-141.55 468.96,-146.52 470.02,-139.6"/>
</g>
<!-- Node22 -->
<g id="node22" class="node">
<title>Node22</title>
<g id="a_node22"><a xlink:title=" ">
<polygon fill="none" stroke="#bfbfbf" points="477.5,-123.5 477.5,-142.5 560.5,-142.5 560.5,-123.5 477.5,-123.5"/>
<text text-anchor="middle" x="519" y="-130.5" font-family="Helvetica,sans-Serif" font-size="10.00">initializer_list</text>
</a>
</g>
</g>
<!-- Node11&#45;&gt;Node22 -->
<g id="edge34" class="edge">
<title>Node11&#45;&gt;Node22</title>
<path fill="none" stroke="midnightblue" d="M934.48,-184.84C866.83,-178.48 711.85,-163.15 570.84,-143.04"/>
<polygon fill="midnightblue" stroke="midnightblue" points="571.11,-139.54 560.71,-141.58 570.11,-146.47 571.11,-139.54"/>
</g>
<!-- Node11&#45;&gt;Node23 -->
<g id="edge38" class="edge">
<title>Node11&#45;&gt;Node23</title>
<path fill="none" stroke="midnightblue" d="M1003.67,-183.8C1068.79,-175.89 1213.86,-158.23 1336,-143 1348.21,-141.48 1361.59,-139.79 1373.41,-138.29"/>
<polygon fill="midnightblue" stroke="midnightblue" points="1373.86,-141.76 1383.34,-137.02 1372.97,-134.81 1373.86,-141.76"/>
</g>
<!-- Node14&#45;&gt;Node3 -->
<g id="edge19" class="edge">
<title>Node14&#45;&gt;Node3</title>
<path fill="none" stroke="midnightblue" d="M1128.72,-128.68C1103.69,-126.84 1071.58,-124.6 1043,-123 662.81,-101.75 564.69,-135.45 187,-87 179.45,-86.03 171.49,-84.64 163.79,-83.1"/>
<polygon fill="midnightblue" stroke="midnightblue" points="164.4,-79.65 153.89,-81.01 162.95,-86.5 164.4,-79.65"/>
</g>
<!-- Node14&#45;&gt;Node4 -->
<g id="edge24" class="edge">
<title>Node14&#45;&gt;Node4</title>
<path fill="none" stroke="midnightblue" d="M1164.77,-123.23C1149.44,-104.9 1113.71,-63.58 1097,-56 1031.49,-26.28 523.12,-14.41 381.51,-11.66"/>
<polygon fill="midnightblue" stroke="midnightblue" points="381.27,-8.15 371.2,-11.46 381.13,-15.15 381.27,-8.15"/>
</g>
<!-- Node14&#45;&gt;Node5 -->
<g id="edge25" class="edge">
<title>Node14&#45;&gt;Node5</title>
<path fill="none" stroke="midnightblue" d="M1215.17,-123.44C1248.87,-115.98 1296.43,-103.73 1336,-87 1376.33,-69.94 1419.45,-42.42 1444.22,-25.59"/>
<polygon fill="midnightblue" stroke="midnightblue" points="1446.51,-28.26 1452.77,-19.71 1442.55,-22.5 1446.51,-28.26"/>
</g>
<!-- Node14&#45;&gt;Node6 -->
<g id="edge26" class="edge">
<title>Node14&#45;&gt;Node6</title>
<path fill="none" stroke="midnightblue" d="M1156.24,-123.48C1138.02,-113.62 1107.83,-97.29 1086.53,-85.77"/>
<polygon fill="midnightblue" stroke="midnightblue" points="1088.19,-82.69 1077.73,-81.01 1084.86,-88.85 1088.19,-82.69"/>
</g>
<!-- Node14&#45;&gt;Node7 -->
<g id="edge28" class="edge">
<title>Node14&#45;&gt;Node7</title>
<path fill="none" stroke="midnightblue" d="M1128.9,-126.08C1045.82,-114.66 864.42,-89.73 781.68,-78.36"/>
<polygon fill="midnightblue" stroke="midnightblue" points="782,-74.88 771.62,-76.98 781.05,-81.81 782,-74.88"/>
</g>
<!-- Node15 -->
<g id="node15" class="node">
<title>Node15</title>
<g id="a_node15"><a xlink:href="get_8hpp.html" target="_top" xlink:title=" ">
<polygon fill="none" stroke="black" points="1563.5,-62 1563.5,-81 1616.5,-81 1616.5,-62 1563.5,-62"/>
<text text-anchor="middle" x="1590" y="-69" font-family="Helvetica,sans-Serif" font-size="10.00">get.hpp</text>
</a>
</g>
</g>
<!-- Node14&#45;&gt;Node15 -->
<g id="edge20" class="edge">
<title>Node14&#45;&gt;Node15</title>
<path fill="none" stroke="midnightblue" d="M1215.16,-125.86C1297.54,-114.13 1475.85,-88.75 1553.09,-77.75"/>
<polygon fill="midnightblue" stroke="midnightblue" points="1553.89,-81.18 1563.29,-76.3 1552.9,-74.25 1553.89,-81.18"/>
</g>
<!-- Node17 -->
<g id="node17" class="node">
<title>Node17</title>
<g id="a_node17"><a xlink:title=" ">
<polygon fill="none" stroke="#bfbfbf" points="1145.5,-56.5 1145.5,-86.5 1252.5,-86.5 1252.5,-56.5 1145.5,-56.5"/>
<text text-anchor="start" x="1153.5" y="-74.5" font-family="Helvetica,sans-Serif" font-size="10.00">boost/serialization</text>
<text text-anchor="middle" x="1199" y="-63.5" font-family="Helvetica,sans-Serif" font-size="10.00">/access.hpp</text>
</a>
</g>
</g>
<!-- Node14&#45;&gt;Node17 -->
<g id="edge23" class="edge">
<title>Node14&#45;&gt;Node17</title>
<path fill="none" stroke="midnightblue" d="M1175.87,-123.48C1179.15,-116.25 1184.01,-105.53 1188.44,-95.78"/>
<polygon fill="midnightblue" stroke="midnightblue" points="1191.69,-97.08 1192.64,-86.52 1185.32,-94.18 1191.69,-97.08"/>
</g>
<!-- Node18 -->
<g id="node18" class="node">
<title>Node18</title>
<g id="a_node18"><a xlink:title=" ">
<polygon fill="none" stroke="#bfbfbf" points="1270.5,-62 1270.5,-81 1327.5,-81 1327.5,-62 1270.5,-62"/>
<text text-anchor="middle" x="1299" y="-69" font-family="Helvetica,sans-Serif" font-size="10.00">ostream</text>
</a>
</g>
</g>
<!-- Node14&#45;&gt;Node18 -->
<g id="edge27" class="edge">
<title>Node14&#45;&gt;Node18</title>
<path fill="none" stroke="midnightblue" d="M1190.2,-123.48C1211.51,-113.49 1247.03,-96.85 1271.66,-85.31"/>
<polygon fill="midnightblue" stroke="midnightblue" points="1273.27,-88.42 1280.84,-81.01 1270.3,-82.08 1273.27,-88.42"/>
</g>
<!-- Node15&#45;&gt;Node5 -->
<g id="edge21" class="edge">
<title>Node15&#45;&gt;Node5</title>
<path fill="none" stroke="midnightblue" d="M1572.09,-61.98C1551.11,-51.99 1516.15,-35.35 1491.91,-23.81"/>
<polygon fill="midnightblue" stroke="midnightblue" points="1493.41,-20.65 1482.88,-19.51 1490.4,-26.97 1493.41,-20.65"/>
</g>
<!-- Node15&#45;&gt;Node16 -->
<g id="edge22" class="edge">
<title>Node15&#45;&gt;Node16</title>
<path fill="none" stroke="midnightblue" d="M1593.87,-61.98C1597.8,-53.32 1604,-39.65 1608.99,-28.65"/>
<polygon fill="midnightblue" stroke="midnightblue" points="1612.19,-30.06 1613.14,-19.51 1605.82,-27.17 1612.19,-30.06"/>
</g>
<!-- Node24&#45;&gt;Node3 -->
<g id="edge42" class="edge">
<title>Node24&#45;&gt;Node3</title>
<path fill="none" stroke="midnightblue" d="M110.03,-179.41C90.59,-172.88 68.62,-161.72 57,-143 43.31,-120.97 70.53,-99.27 93.37,-85.89"/>
<polygon fill="midnightblue" stroke="midnightblue" points="95.08,-88.94 102.12,-81.02 91.68,-82.82 95.08,-88.94"/>
</g>
<!-- Node24&#45;&gt;Node7 -->
<g id="edge43" class="edge">
<title>Node24&#45;&gt;Node7</title>
<path fill="none" stroke="midnightblue" d="M178.49,-179.41C237.78,-162.73 364.63,-127.23 385,-123 496.07,-99.94 628.93,-84.07 695.89,-76.88"/>
<polygon fill="midnightblue" stroke="midnightblue" points="696.49,-80.33 706.06,-75.8 695.75,-73.37 696.49,-80.33"/>
</g>
<!-- Node24&#45;&gt;Node8 -->
<g id="edge44" class="edge">
<title>Node24&#45;&gt;Node8</title>
<path fill="none" stroke="midnightblue" d="M149.72,-179.35C152.64,-166.24 159.49,-140.97 172,-123 181.92,-108.75 196.79,-96.06 209.11,-86.97"/>
<polygon fill="midnightblue" stroke="midnightblue" points="211.39,-89.64 217.53,-81.01 207.35,-83.93 211.39,-89.64"/>
</g>
<!-- Node25 -->
<g id="node25" class="node">
<title>Node25</title>
<g id="a_node25"><a xlink:href="sqr_8hpp.html" target="_top" xlink:title=" ">
<polygon fill="none" stroke="black" points="66.5,-123.5 66.5,-142.5 119.5,-142.5 119.5,-123.5 66.5,-123.5"/>
<text text-anchor="middle" x="93" y="-130.5" font-family="Helvetica,sans-Serif" font-size="10.00">sqr.hpp</text>
</a>
</g>
</g>
<!-- Node24&#45;&gt;Node25 -->
<g id="edge40" class="edge">
<title>Node24&#45;&gt;Node25</title>
<path fill="none" stroke="midnightblue" d="M138.92,-179.08C130.83,-171.14 118.8,-159.34 109.09,-149.8"/>
<polygon fill="midnightblue" stroke="midnightblue" points="111.5,-147.26 101.91,-142.75 106.6,-152.25 111.5,-147.26"/>
</g>
<!-- Node25&#45;&gt;Node3 -->
<g id="edge41" class="edge">
<title>Node25&#45;&gt;Node3</title>
<path fill="none" stroke="midnightblue" d="M96.87,-123.48C100.8,-114.82 107,-101.15 111.99,-90.15"/>
<polygon fill="midnightblue" stroke="midnightblue" points="115.19,-91.56 116.14,-81.01 108.82,-88.67 115.19,-91.56"/>
</g>
</g>
</svg>
