<?xml version="1.0" encoding="UTF-8" standalone="no"?>
<!DOCTYPE svg PUBLIC "-//W3C//DTD SVG 1.1//EN"
 "http://www.w3.org/Graphics/SVG/1.1/DTD/svg11.dtd">
<!-- Generated by graphviz version 2.43.0 (0)
 -->
<!-- Title: p3m_send_mesh.hpp Pages: 1 -->
<svg width="1145pt" height="375pt"
 viewBox="0.00 0.00 1145.19 375.00" xmlns="http://www.w3.org/2000/svg" xmlns:xlink="http://www.w3.org/1999/xlink">
<g id="graph0" class="graph" transform="scale(1 1) rotate(0) translate(4 371)">
<title>p3m_send_mesh.hpp</title>
<!-- Node1 -->
<g id="node1" class="node">
<title>Node1</title>
<g id="a_node1"><a xlink:title=" ">
<polygon fill="#bfbfbf" stroke="black" points="494.5,-347.5 494.5,-366.5 614.5,-366.5 614.5,-347.5 494.5,-347.5"/>
<text text-anchor="middle" x="554.5" y="-354.5" font-family="Helvetica,sans-Serif" font-size="10.00">p3m_send_mesh.hpp</text>
</a>
</g>
</g>
<!-- Node2 -->
<g id="node2" class="node">
<title>Node2</title>
<g id="a_node2"><a xlink:href="config_8hpp.html" target="_top" xlink:title=" ">
<polygon fill="none" stroke="black" points="415.5,-235.5 415.5,-254.5 483.5,-254.5 483.5,-235.5 415.5,-235.5"/>
<text text-anchor="middle" x="449.5" y="-242.5" font-family="Helvetica,sans-Serif" font-size="10.00">config.hpp</text>
</a>
</g>
</g>
<!-- Node1&#45;&gt;Node2 -->
<g id="edge1" class="edge">
<title>Node1&#45;&gt;Node2</title>
<path fill="none" stroke="midnightblue" d="M541.47,-347.23C529.36,-338.75 511.18,-325.13 497.5,-311 483.07,-296.1 469.29,-276.72 460.23,-263.02"/>
<polygon fill="midnightblue" stroke="midnightblue" points="463.13,-261.05 454.76,-254.56 457.25,-264.85 463.13,-261.05"/>
</g>
<!-- Node4 -->
<g id="node4" class="node">
<title>Node4</title>
<g id="a_node4"><a xlink:href="p3m-common_8hpp.html" target="_top" xlink:title=" ">
<polygon fill="none" stroke="black" points="545.5,-291.5 545.5,-310.5 651.5,-310.5 651.5,-291.5 545.5,-291.5"/>
<text text-anchor="middle" x="598.5" y="-298.5" font-family="Helvetica,sans-Serif" font-size="10.00">p3m&#45;common.hpp</text>
</a>
</g>
</g>
<!-- Node1&#45;&gt;Node4 -->
<g id="edge3" class="edge">
<title>Node1&#45;&gt;Node4</title>
<path fill="none" stroke="midnightblue" d="M561.77,-347.08C568.04,-339.38 577.29,-328.03 584.93,-318.65"/>
<polygon fill="midnightblue" stroke="midnightblue" points="587.77,-320.71 591.37,-310.75 582.34,-316.29 587.77,-320.71"/>
</g>
<!-- Node7 -->
<g id="node7" class="node">
<title>Node7</title>
<g id="a_node7"><a xlink:title=" ">
<polygon fill="none" stroke="#bfbfbf" points="0,-123.5 0,-142.5 47,-142.5 47,-123.5 0,-123.5"/>
<text text-anchor="middle" x="23.5" y="-130.5" font-family="Helvetica,sans-Serif" font-size="10.00">vector</text>
</a>
</g>
</g>
<!-- Node1&#45;&gt;Node7 -->
<g id="edge44" class="edge">
<title>Node1&#45;&gt;Node7</title>
<path fill="none" stroke="midnightblue" d="M534.01,-347.43C452.37,-313.3 150.02,-186.9 53.4,-146.5"/>
<polygon fill="midnightblue" stroke="midnightblue" points="54.51,-143.17 43.93,-142.54 51.81,-149.63 54.51,-143.17"/>
</g>
<!-- Node9 -->
<g id="node9" class="node">
<title>Node9</title>
<g id="a_node9"><a xlink:href="Vector_8hpp.html" target="_top" xlink:title=" ">
<polygon fill="none" stroke="black" points="652,-179.5 652,-198.5 745,-198.5 745,-179.5 652,-179.5"/>
<text text-anchor="middle" x="698.5" y="-186.5" font-family="Helvetica,sans-Serif" font-size="10.00">utils/Vector.hpp</text>
</a>
</g>
</g>
<!-- Node1&#45;&gt;Node9 -->
<g id="edge42" class="edge">
<title>Node1&#45;&gt;Node9</title>
<path fill="none" stroke="midnightblue" d="M608.33,-347.4C659.36,-336.03 733.04,-310.52 766.5,-255 779.3,-233.76 752.99,-214.85 729.47,-202.98"/>
<polygon fill="midnightblue" stroke="midnightblue" points="730.88,-199.77 720.34,-198.63 727.87,-206.09 730.88,-199.77"/>
</g>
<!-- Node27 -->
<g id="node27" class="node">
<title>Node27</title>
<g id="a_node27"><a xlink:href="Span_8hpp.html" target="_top" xlink:title=" ">
<polygon fill="none" stroke="black" points="141.5,-123.5 141.5,-142.5 227.5,-142.5 227.5,-123.5 141.5,-123.5"/>
<text text-anchor="middle" x="184.5" y="-130.5" font-family="Helvetica,sans-Serif" font-size="10.00">utils/Span.hpp</text>
</a>
</g>
</g>
<!-- Node1&#45;&gt;Node27 -->
<g id="edge35" class="edge">
<title>Node1&#45;&gt;Node27</title>
<path fill="none" stroke="midnightblue" d="M550.88,-347.28C537.09,-314.55 487.06,-199.83 454.5,-179 374.44,-127.79 335.85,-157.32 237.64,-143.06"/>
<polygon fill="midnightblue" stroke="midnightblue" points="238.05,-139.59 227.63,-141.49 236.96,-146.5 238.05,-139.59"/>
</g>
<!-- Node28 -->
<g id="node28" class="node">
<title>Node28</title>
<g id="a_node28"><a xlink:title=" ">
<polygon fill="none" stroke="#bfbfbf" points="854.5,-291.5 854.5,-310.5 1014.5,-310.5 1014.5,-291.5 854.5,-291.5"/>
<text text-anchor="middle" x="934.5" y="-298.5" font-family="Helvetica,sans-Serif" font-size="10.00">boost/mpi/communicator.hpp</text>
</a>
</g>
</g>
<!-- Node1&#45;&gt;Node28 -->
<g id="edge43" class="edge">
<title>Node1&#45;&gt;Node28</title>
<path fill="none" stroke="midnightblue" d="M614.71,-347.44C682.53,-337.81 792.61,-322.16 864.28,-311.98"/>
<polygon fill="midnightblue" stroke="midnightblue" points="865.16,-315.39 874.57,-310.52 864.18,-308.46 865.16,-315.39"/>
</g>
<!-- Node3 -->
<g id="node3" class="node">
<title>Node3</title>
<g id="a_node3"><a xlink:title=" ">
<polygon fill="none" stroke="#bfbfbf" points="333.5,-179.5 333.5,-198.5 445.5,-198.5 445.5,-179.5 333.5,-179.5"/>
<text text-anchor="middle" x="389.5" y="-186.5" font-family="Helvetica,sans-Serif" font-size="10.00">config&#45;features.hpp</text>
</a>
</g>
</g>
<!-- Node2&#45;&gt;Node3 -->
<g id="edge2" class="edge">
<title>Node2&#45;&gt;Node3</title>
<path fill="none" stroke="midnightblue" d="M439.86,-235.32C430.99,-227.34 417.63,-215.31 406.89,-205.65"/>
<polygon fill="midnightblue" stroke="midnightblue" points="409.09,-202.92 399.32,-198.83 404.41,-208.13 409.09,-202.92"/>
</g>
<!-- Node4&#45;&gt;Node2 -->
<g id="edge4" class="edge">
<title>Node4&#45;&gt;Node2</title>
<path fill="none" stroke="midnightblue" d="M574.89,-291.44C550.04,-282.44 510.73,-268.19 482.75,-258.05"/>
<polygon fill="midnightblue" stroke="midnightblue" points="483.59,-254.63 473,-254.52 481.21,-261.21 483.59,-254.63"/>
</g>
<!-- Node5 -->
<g id="node5" class="node">
<title>Node5</title>
<g id="a_node5"><a xlink:title=" ">
<polygon fill="none" stroke="#bfbfbf" points="577.5,-235.5 577.5,-254.5 619.5,-254.5 619.5,-235.5 577.5,-235.5"/>
<text text-anchor="middle" x="598.5" y="-242.5" font-family="Helvetica,sans-Serif" font-size="10.00">array</text>
</a>
</g>
</g>
<!-- Node4&#45;&gt;Node5 -->
<g id="edge5" class="edge">
<title>Node4&#45;&gt;Node5</title>
<path fill="none" stroke="midnightblue" d="M598.5,-291.08C598.5,-284.01 598.5,-273.86 598.5,-264.99"/>
<polygon fill="midnightblue" stroke="midnightblue" points="602,-264.75 598.5,-254.75 595,-264.75 602,-264.75"/>
</g>
<!-- Node6 -->
<g id="node6" class="node">
<title>Node6</title>
<g id="a_node6"><a xlink:title=" ">
<polygon fill="none" stroke="#bfbfbf" points="866,-0.5 866,-19.5 919,-19.5 919,-0.5 866,-0.5"/>
<text text-anchor="middle" x="892.5" y="-7.5" font-family="Helvetica,sans-Serif" font-size="10.00">cstddef</text>
</a>
</g>
</g>
<!-- Node4&#45;&gt;Node6 -->
<g id="edge6" class="edge">
<title>Node4&#45;&gt;Node6</title>
<path fill="none" stroke="midnightblue" d="M651.72,-292.42C774.57,-273.71 1071.85,-221.12 1129.5,-143 1149.69,-115.64 1125.96,-78.58 1097.5,-56 1071.8,-35.61 980.8,-21.64 929.1,-15.14"/>
<polygon fill="midnightblue" stroke="midnightblue" points="929.36,-11.65 919.01,-13.91 928.51,-18.6 929.36,-11.65"/>
</g>
<!-- Node4&#45;&gt;Node7 -->
<g id="edge7" class="edge">
<title>Node4&#45;&gt;Node7</title>
<path fill="none" stroke="midnightblue" d="M591.54,-291.29C572.49,-268.17 516.78,-205.28 454.5,-179 306.35,-116.49 254.27,-161.11 94.5,-143 82.28,-141.61 68.89,-139.95 57.07,-138.44"/>
<polygon fill="midnightblue" stroke="midnightblue" points="57.51,-134.97 47.15,-137.16 56.62,-141.91 57.51,-134.97"/>
</g>
<!-- Node8 -->
<g id="node8" class="node">
<title>Node8</title>
<g id="a_node8"><a xlink:href="LocalBox_8hpp.html" target="_top" xlink:title=" ">
<polygon fill="none" stroke="black" points="675.5,-235.5 675.5,-254.5 757.5,-254.5 757.5,-235.5 675.5,-235.5"/>
<text text-anchor="middle" x="716.5" y="-242.5" font-family="Helvetica,sans-Serif" font-size="10.00">LocalBox.hpp</text>
</a>
</g>
</g>
<!-- Node4&#45;&gt;Node8 -->
<g id="edge8" class="edge">
<title>Node4&#45;&gt;Node8</title>
<path fill="none" stroke="midnightblue" d="M617.2,-291.44C636.44,-282.64 666.65,-268.81 688.7,-258.72"/>
<polygon fill="midnightblue" stroke="midnightblue" points="690.25,-261.86 697.89,-254.52 687.34,-255.5 690.25,-261.86"/>
</g>
<!-- Node4&#45;&gt;Node9 -->
<g id="edge34" class="edge">
<title>Node4&#45;&gt;Node9</title>
<path fill="none" stroke="midnightblue" d="M606.35,-291.37C623.07,-272.97 662.44,-229.67 683.91,-206.05"/>
<polygon fill="midnightblue" stroke="midnightblue" points="686.55,-208.35 690.69,-198.59 681.37,-203.64 686.55,-208.35"/>
</g>
<!-- Node8&#45;&gt;Node9 -->
<g id="edge9" class="edge">
<title>Node8&#45;&gt;Node9</title>
<path fill="none" stroke="midnightblue" d="M713.53,-235.08C711.12,-227.85 707.64,-217.41 704.63,-208.4"/>
<polygon fill="midnightblue" stroke="midnightblue" points="707.9,-207.13 701.42,-198.75 701.26,-209.34 707.9,-207.13"/>
</g>
<!-- Node9&#45;&gt;Node6 -->
<g id="edge27" class="edge">
<title>Node9&#45;&gt;Node6</title>
<path fill="none" stroke="midnightblue" d="M745.36,-183.29C852.7,-172.44 1107.47,-146.38 1110.5,-143 1169.18,-77.56 1005.51,-34.2 929.25,-18.05"/>
<polygon fill="midnightblue" stroke="midnightblue" points="929.6,-14.55 919.1,-15.96 928.18,-21.41 929.6,-14.55"/>
</g>
<!-- Node9&#45;&gt;Node7 -->
<g id="edge33" class="edge">
<title>Node9&#45;&gt;Node7</title>
<path fill="none" stroke="midnightblue" d="M651.74,-185.68C524.76,-179.23 175.48,-160.41 61.5,-143 60.03,-142.78 58.54,-142.52 57.04,-142.25"/>
<polygon fill="midnightblue" stroke="midnightblue" points="57.6,-138.8 47.1,-140.21 56.19,-145.65 57.6,-138.8"/>
</g>
<!-- Node10 -->
<g id="node10" class="node">
<title>Node10</title>
<g id="a_node10"><a xlink:title=" ">
<polygon fill="none" stroke="#bfbfbf" points="245.5,-123.5 245.5,-142.5 395.5,-142.5 395.5,-123.5 245.5,-123.5"/>
<text text-anchor="middle" x="320.5" y="-130.5" font-family="Helvetica,sans-Serif" font-size="10.00">boost/qvm/deduce_vec.hpp</text>
</a>
</g>
</g>
<!-- Node9&#45;&gt;Node10 -->
<g id="edge10" class="edge">
<title>Node9&#45;&gt;Node10</title>
<path fill="none" stroke="midnightblue" d="M651.77,-181.32C586.17,-171.95 466.31,-154.83 390.16,-143.95"/>
<polygon fill="midnightblue" stroke="midnightblue" points="390.58,-140.48 380.18,-142.53 389.59,-147.41 390.58,-140.48"/>
</g>
<!-- Node11 -->
<g id="node11" class="node">
<title>Node11</title>
<g id="a_node11"><a xlink:title=" ">
<polygon fill="none" stroke="#bfbfbf" points="413.5,-123.5 413.5,-142.5 553.5,-142.5 553.5,-123.5 413.5,-123.5"/>
<text text-anchor="middle" x="483.5" y="-130.5" font-family="Helvetica,sans-Serif" font-size="10.00">boost/qvm/vec_traits.hpp</text>
</a>
</g>
</g>
<!-- Node9&#45;&gt;Node11 -->
<g id="edge11" class="edge">
<title>Node9&#45;&gt;Node11</title>
<path fill="none" stroke="midnightblue" d="M664.43,-179.44C627.32,-170.12 567.84,-155.18 527.29,-145"/>
<polygon fill="midnightblue" stroke="midnightblue" points="527.96,-141.56 517.41,-142.52 526.25,-148.35 527.96,-141.56"/>
</g>
<!-- Node12 -->
<g id="node12" class="node">
<title>Node12</title>
<g id="a_node12"><a xlink:href="Array_8hpp.html" target="_top" xlink:title=" ">
<polygon fill="none" stroke="black" points="609.5,-123.5 609.5,-142.5 695.5,-142.5 695.5,-123.5 609.5,-123.5"/>
<text text-anchor="middle" x="652.5" y="-130.5" font-family="Helvetica,sans-Serif" font-size="10.00">utils/Array.hpp</text>
</a>
</g>
</g>
<!-- Node9&#45;&gt;Node12 -->
<g id="edge12" class="edge">
<title>Node9&#45;&gt;Node12</title>
<path fill="none" stroke="midnightblue" d="M690.9,-179.08C684.27,-171.3 674.48,-159.8 666.44,-150.37"/>
<polygon fill="midnightblue" stroke="midnightblue" points="669.1,-148.09 659.95,-142.75 663.77,-152.63 669.1,-148.09"/>
</g>
<!-- Node14 -->
<g id="node14" class="node">
<title>Node14</title>
<g id="a_node14"><a xlink:title=" ">
<polygon fill="none" stroke="#bfbfbf" points="260.5,-0.5 260.5,-19.5 312.5,-19.5 312.5,-0.5 260.5,-0.5"/>
<text text-anchor="middle" x="286.5" y="-7.5" font-family="Helvetica,sans-Serif" font-size="10.00">cassert</text>
</a>
</g>
</g>
<!-- Node9&#45;&gt;Node14 -->
<g id="edge25" class="edge">
<title>Node9&#45;&gt;Node14</title>
<path fill="none" stroke="midnightblue" d="M651.8,-185.65C518.14,-178.75 142.23,-158.09 120.5,-143 87.35,-119.98 69.43,-87.63 94.5,-56 113.56,-31.95 200.06,-19.52 250.22,-14.23"/>
<polygon fill="midnightblue" stroke="midnightblue" points="250.73,-17.69 260.33,-13.2 250.03,-10.73 250.73,-17.69"/>
</g>
<!-- Node18 -->
<g id="node18" class="node">
<title>Node18</title>
<g id="a_node18"><a xlink:title=" ">
<polygon fill="none" stroke="#bfbfbf" points="463,-62 463,-81 516,-81 516,-62 463,-62"/>
<text text-anchor="middle" x="489.5" y="-69" font-family="Helvetica,sans-Serif" font-size="10.00">iterator</text>
</a>
</g>
</g>
<!-- Node9&#45;&gt;Node18 -->
<g id="edge30" class="edge">
<title>Node9&#45;&gt;Node18</title>
<path fill="none" stroke="midnightblue" d="M677.84,-179.48C657.73,-170.96 626.49,-157.13 600.5,-143 568.04,-125.34 532.25,-101.83 510.32,-86.92"/>
<polygon fill="midnightblue" stroke="midnightblue" points="512.05,-83.86 501.82,-81.1 508.09,-89.64 512.05,-83.86"/>
</g>
<!-- Node21 -->
<g id="node21" class="node">
<title>Node21</title>
<g id="a_node21"><a xlink:title=" ">
<polygon fill="none" stroke="#bfbfbf" points="713.5,-123.5 713.5,-142.5 777.5,-142.5 777.5,-123.5 713.5,-123.5"/>
<text text-anchor="middle" x="745.5" y="-130.5" font-family="Helvetica,sans-Serif" font-size="10.00">algorithm</text>
</a>
</g>
</g>
<!-- Node9&#45;&gt;Node21 -->
<g id="edge24" class="edge">
<title>Node9&#45;&gt;Node21</title>
<path fill="none" stroke="midnightblue" d="M706.26,-179.08C713.04,-171.3 723.04,-159.8 731.26,-150.37"/>
<polygon fill="midnightblue" stroke="midnightblue" points="733.96,-152.59 737.88,-142.75 728.68,-148 733.96,-152.59"/>
</g>
<!-- Node22 -->
<g id="node22" class="node">
<title>Node22</title>
<g id="a_node22"><a xlink:title=" ">
<polygon fill="none" stroke="#bfbfbf" points="796,-123.5 796,-142.5 843,-142.5 843,-123.5 796,-123.5"/>
<text text-anchor="middle" x="819.5" y="-130.5" font-family="Helvetica,sans-Serif" font-size="10.00">cmath</text>
</a>
</g>
</g>
<!-- Node9&#45;&gt;Node22 -->
<g id="edge26" class="edge">
<title>Node9&#45;&gt;Node22</title>
<path fill="none" stroke="midnightblue" d="M717.67,-179.44C737.41,-170.64 768.39,-156.81 790.99,-146.72"/>
<polygon fill="midnightblue" stroke="midnightblue" points="792.71,-149.79 800.42,-142.52 789.86,-143.4 792.71,-149.79"/>
</g>
<!-- Node23 -->
<g id="node23" class="node">
<title>Node23</title>
<g id="a_node23"><a xlink:title=" ">
<polygon fill="none" stroke="#bfbfbf" points="861,-123.5 861,-142.5 926,-142.5 926,-123.5 861,-123.5"/>
<text text-anchor="middle" x="893.5" y="-130.5" font-family="Helvetica,sans-Serif" font-size="10.00">functional</text>
</a>
</g>
</g>
<!-- Node9&#45;&gt;Node23 -->
<g id="edge28" class="edge">
<title>Node9&#45;&gt;Node23</title>
<path fill="none" stroke="midnightblue" d="M729.4,-179.44C762.77,-170.2 816.09,-155.44 852.85,-145.26"/>
<polygon fill="midnightblue" stroke="midnightblue" points="854.04,-148.56 862.75,-142.52 852.17,-141.81 854.04,-148.56"/>
</g>
<!-- Node24 -->
<g id="node24" class="node">
<title>Node24</title>
<g id="a_node24"><a xlink:title=" ">
<polygon fill="none" stroke="#bfbfbf" points="944,-123.5 944,-142.5 1027,-142.5 1027,-123.5 944,-123.5"/>
<text text-anchor="middle" x="985.5" y="-130.5" font-family="Helvetica,sans-Serif" font-size="10.00">initializer_list</text>
</a>
</g>
</g>
<!-- Node9&#45;&gt;Node24 -->
<g id="edge29" class="edge">
<title>Node9&#45;&gt;Node24</title>
<path fill="none" stroke="midnightblue" d="M743.98,-179.44C795.65,-169.72 879.81,-153.89 933.9,-143.71"/>
<polygon fill="midnightblue" stroke="midnightblue" points="934.78,-147.1 943.96,-141.82 933.49,-140.22 934.78,-147.1"/>
</g>
<!-- Node25 -->
<g id="node25" class="node">
<title>Node25</title>
<g id="a_node25"><a xlink:title=" ">
<polygon fill="none" stroke="#bfbfbf" points="1045.5,-123.5 1045.5,-142.5 1101.5,-142.5 1101.5,-123.5 1045.5,-123.5"/>
<text text-anchor="middle" x="1073.5" y="-130.5" font-family="Helvetica,sans-Serif" font-size="10.00">numeric</text>
</a>
</g>
</g>
<!-- Node9&#45;&gt;Node25 -->
<g id="edge31" class="edge">
<title>Node9&#45;&gt;Node25</title>
<path fill="none" stroke="midnightblue" d="M745.22,-183.37C808.75,-176.72 926.09,-163.2 1035.41,-143.03"/>
<polygon fill="midnightblue" stroke="midnightblue" points="1036.1,-146.47 1045.29,-141.19 1034.81,-139.59 1036.1,-146.47"/>
</g>
<!-- Node26 -->
<g id="node26" class="node">
<title>Node26</title>
<g id="a_node26"><a xlink:title=" ">
<polygon fill="none" stroke="#bfbfbf" points="104,-62 104,-81 173,-81 173,-62 104,-62"/>
<text text-anchor="middle" x="138.5" y="-69" font-family="Helvetica,sans-Serif" font-size="10.00">type_traits</text>
</a>
</g>
</g>
<!-- Node9&#45;&gt;Node26 -->
<g id="edge32" class="edge">
<title>Node9&#45;&gt;Node26</title>
<path fill="none" stroke="midnightblue" d="M651.94,-186C519.68,-180.11 150.06,-162.01 132.5,-143 119.65,-129.08 124.46,-106.35 130.31,-90.47"/>
<polygon fill="midnightblue" stroke="midnightblue" points="133.56,-91.77 134.14,-81.19 127.09,-89.1 133.56,-91.77"/>
</g>
<!-- Node12&#45;&gt;Node6 -->
<g id="edge20" class="edge">
<title>Node12&#45;&gt;Node6</title>
<path fill="none" stroke="midnightblue" d="M695.61,-124.44C758.08,-113.3 867.06,-93.16 873.5,-87 888.9,-72.27 892.56,-47.1 893.09,-29.79"/>
<polygon fill="midnightblue" stroke="midnightblue" points="896.59,-29.73 893.08,-19.74 889.59,-29.74 896.59,-29.73"/>
</g>
<!-- Node13 -->
<g id="node13" class="node">
<title>Node13</title>
<g id="a_node13"><a xlink:href="device__qualifier_8hpp.html" target="_top" xlink:title=" ">
<polygon fill="none" stroke="black" points="313.5,-62 313.5,-81 429.5,-81 429.5,-62 313.5,-62"/>
<text text-anchor="middle" x="371.5" y="-69" font-family="Helvetica,sans-Serif" font-size="10.00">device_qualifier.hpp</text>
</a>
</g>
</g>
<!-- Node12&#45;&gt;Node13 -->
<g id="edge13" class="edge">
<title>Node12&#45;&gt;Node13</title>
<path fill="none" stroke="midnightblue" d="M612.24,-123.48C562.06,-112.85 476.27,-94.68 421.81,-83.15"/>
<polygon fill="midnightblue" stroke="midnightblue" points="422.19,-79.66 411.69,-81.01 420.74,-86.5 422.19,-79.66"/>
</g>
<!-- Node12&#45;&gt;Node14 -->
<g id="edge19" class="edge">
<title>Node12&#45;&gt;Node14</title>
<path fill="none" stroke="midnightblue" d="M641.2,-123.41C619.71,-107.52 570.92,-73.54 524.5,-56 455.93,-30.09 370.39,-18.6 322.79,-13.91"/>
<polygon fill="midnightblue" stroke="midnightblue" points="322.94,-10.4 312.66,-12.95 322.29,-17.37 322.94,-10.4"/>
</g>
<!-- Node15 -->
<g id="node15" class="node">
<title>Node15</title>
<g id="a_node15"><a xlink:href="get_8hpp.html" target="_top" xlink:title=" ">
<polygon fill="none" stroke="black" points="611,-62 611,-81 664,-81 664,-62 611,-62"/>
<text text-anchor="middle" x="637.5" y="-69" font-family="Helvetica,sans-Serif" font-size="10.00">get.hpp</text>
</a>
</g>
</g>
<!-- Node12&#45;&gt;Node15 -->
<g id="edge15" class="edge">
<title>Node12&#45;&gt;Node15</title>
<path fill="none" stroke="midnightblue" d="M650.35,-123.48C648.21,-114.99 644.86,-101.7 642.12,-90.82"/>
<polygon fill="midnightblue" stroke="midnightblue" points="645.48,-89.85 639.65,-81.01 638.7,-91.56 645.48,-89.85"/>
</g>
<!-- Node17 -->
<g id="node17" class="node">
<title>Node17</title>
<g id="a_node17"><a xlink:title=" ">
<polygon fill="none" stroke="#bfbfbf" points="682,-56.5 682,-86.5 789,-86.5 789,-56.5 682,-56.5"/>
<text text-anchor="start" x="690" y="-74.5" font-family="Helvetica,sans-Serif" font-size="10.00">boost/serialization</text>
<text text-anchor="middle" x="735.5" y="-63.5" font-family="Helvetica,sans-Serif" font-size="10.00">/access.hpp</text>
</a>
</g>
</g>
<!-- Node12&#45;&gt;Node17 -->
<g id="edge18" class="edge">
<title>Node12&#45;&gt;Node17</title>
<path fill="none" stroke="midnightblue" d="M664.39,-123.48C675.63,-115.42 692.92,-103.02 707.64,-92.47"/>
<polygon fill="midnightblue" stroke="midnightblue" points="709.85,-95.19 715.94,-86.52 705.77,-89.5 709.85,-95.19"/>
</g>
<!-- Node12&#45;&gt;Node18 -->
<g id="edge21" class="edge">
<title>Node12&#45;&gt;Node18</title>
<path fill="none" stroke="midnightblue" d="M629.15,-123.48C601.19,-113.27 554.17,-96.11 522.51,-84.55"/>
<polygon fill="midnightblue" stroke="midnightblue" points="523.4,-81.15 512.81,-81.01 521,-87.73 523.4,-81.15"/>
</g>
<!-- Node19 -->
<g id="node19" class="node">
<title>Node19</title>
<g id="a_node19"><a xlink:title=" ">
<polygon fill="none" stroke="#bfbfbf" points="807,-62 807,-81 864,-81 864,-62 807,-62"/>
<text text-anchor="middle" x="835.5" y="-69" font-family="Helvetica,sans-Serif" font-size="10.00">ostream</text>
</a>
</g>
</g>
<!-- Node12&#45;&gt;Node19 -->
<g id="edge22" class="edge">
<title>Node12&#45;&gt;Node19</title>
<path fill="none" stroke="midnightblue" d="M682.63,-123.43C712.3,-114.82 758.81,-100.87 798.5,-87 800.62,-86.26 802.79,-85.47 804.98,-84.67"/>
<polygon fill="midnightblue" stroke="midnightblue" points="806.37,-87.88 814.47,-81.05 803.88,-81.34 806.37,-87.88"/>
</g>
<!-- Node20 -->
<g id="node20" class="node">
<title>Node20</title>
<g id="a_node20"><a xlink:title=" ">
<polygon fill="none" stroke="#bfbfbf" points="230,-62 230,-81 295,-81 295,-62 230,-62"/>
<text text-anchor="middle" x="262.5" y="-69" font-family="Helvetica,sans-Serif" font-size="10.00">stdexcept</text>
</a>
</g>
</g>
<!-- Node12&#45;&gt;Node20 -->
<g id="edge23" class="edge">
<title>Node12&#45;&gt;Node20</title>
<path fill="none" stroke="midnightblue" d="M609.42,-127.54C529.59,-119.09 361.58,-100.4 304.5,-87 301.09,-86.2 297.57,-85.23 294.09,-84.17"/>
<polygon fill="midnightblue" stroke="midnightblue" points="295.08,-80.81 284.48,-81.03 292.9,-87.47 295.08,-80.81"/>
</g>
<!-- Node13&#45;&gt;Node14 -->
<g id="edge14" class="edge">
<title>Node13&#45;&gt;Node14</title>
<path fill="none" stroke="midnightblue" d="M359.32,-61.98C345.69,-52.43 323.37,-36.81 307.03,-25.37"/>
<polygon fill="midnightblue" stroke="midnightblue" points="308.86,-22.38 298.66,-19.51 304.84,-28.11 308.86,-22.38"/>
</g>
<!-- Node15&#45;&gt;Node6 -->
<g id="edge16" class="edge">
<title>Node15&#45;&gt;Node6</title>
<path fill="none" stroke="midnightblue" d="M657.08,-61.87C662.34,-59.76 668.08,-57.63 673.5,-56 736.46,-37.02 812,-23.45 855.9,-16.45"/>
<polygon fill="midnightblue" stroke="midnightblue" points="856.49,-19.9 865.82,-14.89 855.4,-12.98 856.49,-19.9"/>
</g>
<!-- Node16 -->
<g id="node16" class="node">
<title>Node16</title>
<g id="a_node16"><a xlink:title=" ">
<polygon fill="none" stroke="#bfbfbf" points="617,-0.5 617,-19.5 658,-19.5 658,-0.5 617,-0.5"/>
<text text-anchor="middle" x="637.5" y="-7.5" font-family="Helvetica,sans-Serif" font-size="10.00">tuple</text>
</a>
</g>
</g>
<!-- Node15&#45;&gt;Node16 -->
<g id="edge17" class="edge">
<title>Node15&#45;&gt;Node16</title>
<path fill="none" stroke="midnightblue" d="M637.5,-61.98C637.5,-53.58 637.5,-40.48 637.5,-29.66"/>
<polygon fill="midnightblue" stroke="midnightblue" points="641,-29.51 637.5,-19.51 634,-29.51 641,-29.51"/>
</g>
<!-- Node27&#45;&gt;Node6 -->
<g id="edge38" class="edge">
<title>Node27&#45;&gt;Node6</title>
<path fill="none" stroke="midnightblue" d="M227.61,-124.38C230.61,-123.9 233.6,-123.43 236.5,-123 364.09,-104 399.63,-119.36 524.5,-87 560.21,-77.75 565.93,-65.77 601.5,-56 691.11,-31.38 800.19,-19.04 855.9,-13.95"/>
<polygon fill="midnightblue" stroke="midnightblue" points="856.34,-17.42 865.99,-13.05 855.72,-10.45 856.34,-17.42"/>
</g>
<!-- Node27&#45;&gt;Node13 -->
<g id="edge36" class="edge">
<title>Node27&#45;&gt;Node13</title>
<path fill="none" stroke="midnightblue" d="M211.29,-123.48C243.79,-113.14 298.71,-95.66 335.04,-84.1"/>
<polygon fill="midnightblue" stroke="midnightblue" points="336.29,-87.38 344.76,-81.01 334.17,-80.71 336.29,-87.38"/>
</g>
<!-- Node27&#45;&gt;Node14 -->
<g id="edge37" class="edge">
<title>Node27&#45;&gt;Node14</title>
<path fill="none" stroke="midnightblue" d="M187,-123.18C191.61,-108.07 202.66,-76.86 220.5,-56 231.38,-43.28 246.67,-32.55 259.8,-24.76"/>
<polygon fill="midnightblue" stroke="midnightblue" points="261.9,-27.59 268.88,-19.62 258.45,-21.5 261.9,-27.59"/>
</g>
<!-- Node27&#45;&gt;Node18 -->
<g id="edge39" class="edge">
<title>Node27&#45;&gt;Node18</title>
<path fill="none" stroke="midnightblue" d="M227.69,-124.47C297.47,-112.28 428.3,-89.35 438.5,-87 443.24,-85.91 448.2,-84.65 453.08,-83.34"/>
<polygon fill="midnightblue" stroke="midnightblue" points="454.2,-86.66 462.9,-80.62 452.33,-79.92 454.2,-86.66"/>
</g>
<!-- Node27&#45;&gt;Node20 -->
<g id="edge40" class="edge">
<title>Node27&#45;&gt;Node20</title>
<path fill="none" stroke="midnightblue" d="M195.68,-123.48C208.07,-114.02 228.29,-98.6 243.25,-87.19"/>
<polygon fill="midnightblue" stroke="midnightblue" points="245.52,-89.86 251.35,-81.01 241.27,-84.29 245.52,-89.86"/>
</g>
<!-- Node27&#45;&gt;Node26 -->
<g id="edge41" class="edge">
<title>Node27&#45;&gt;Node26</title>
<path fill="none" stroke="midnightblue" d="M177.91,-123.48C171.01,-114.55 160,-100.31 151.37,-89.14"/>
<polygon fill="midnightblue" stroke="midnightblue" points="153.96,-86.78 145.08,-81.01 148.43,-91.06 153.96,-86.78"/>
</g>
</g>
</svg>
