<?xml version="1.0" encoding="UTF-8" standalone="no"?>
<!DOCTYPE svg PUBLIC "-//W3C//DTD SVG 1.1//EN"
 "http://www.w3.org/Graphics/SVG/1.1/DTD/svg11.dtd">
<!-- Generated by graphviz version 2.43.0 (0)
 -->
<!-- Title: p3m_send_mesh.hpp Pages: 1 -->
<svg width="1914pt" height="722pt"
 viewBox="0.00 0.00 1914.00 722.00" xmlns="http://www.w3.org/2000/svg" xmlns:xlink="http://www.w3.org/1999/xlink">
<g id="graph0" class="graph" transform="scale(1 1) rotate(0) translate(4 718)">
<title>p3m_send_mesh.hpp</title>
<!-- Node1 -->
<g id="node1" class="node">
<title>Node1</title>
<g id="a_node1"><a xlink:title=" ">
<polygon fill="#bfbfbf" stroke="black" points="602,-694.5 602,-713.5 722,-713.5 722,-694.5 602,-694.5"/>
<text text-anchor="middle" x="662" y="-701.5" font-family="Helvetica,sans-Serif" font-size="10.00">p3m_send_mesh.hpp</text>
</a>
</g>
</g>
<!-- Node2 -->
<g id="node2" class="node">
<title>Node2</title>
<g id="a_node2"><a xlink:href="p3m-dipolar_8cpp.html" target="_top" xlink:title=" ">
<polygon fill="none" stroke="black" points="0,-582.5 0,-601.5 96,-601.5 96,-582.5 0,-582.5"/>
<text text-anchor="middle" x="48" y="-589.5" font-family="Helvetica,sans-Serif" font-size="10.00">p3m&#45;dipolar.cpp</text>
</a>
</g>
</g>
<!-- Node1&#45;&gt;Node2 -->
<g id="edge1" class="edge">
<title>Node1&#45;&gt;Node2</title>
<path fill="none" stroke="midnightblue" d="M591.37,-700.83C471.03,-696.46 231.54,-684.65 152,-658 114.04,-645.28 75.75,-616.19 58.08,-601.63"/>
<polygon fill="midnightblue" stroke="midnightblue" points="591.47,-704.34 601.58,-701.2 591.71,-697.34 591.47,-704.34"/>
</g>
<!-- Node3 -->
<g id="node3" class="node">
<title>Node3</title>
<g id="a_node3"><a xlink:href="p3m-dipolar_8hpp.html" target="_top" xlink:title=" ">
<polygon fill="none" stroke="black" points="161.5,-638.5 161.5,-657.5 258.5,-657.5 258.5,-638.5 161.5,-638.5"/>
<text text-anchor="middle" x="210" y="-645.5" font-family="Helvetica,sans-Serif" font-size="10.00">p3m&#45;dipolar.hpp</text>
</a>
</g>
</g>
<!-- Node1&#45;&gt;Node3 -->
<g id="edge2" class="edge">
<title>Node1&#45;&gt;Node3</title>
<path fill="none" stroke="midnightblue" d="M591.86,-694.62C499.29,-683.56 338.71,-664.38 258.5,-654.79"/>
<polygon fill="midnightblue" stroke="midnightblue" points="591.63,-698.12 601.98,-695.83 592.46,-691.17 591.63,-698.12"/>
</g>
<!-- Node21 -->
<g id="node21" class="node">
<title>Node21</title>
<g id="a_node21"><a xlink:href="p3m_8hpp.html" target="_top" xlink:title=" ">
<polygon fill="none" stroke="black" points="1197.5,-638.5 1197.5,-657.5 1256.5,-657.5 1256.5,-638.5 1197.5,-638.5"/>
<text text-anchor="middle" x="1227" y="-645.5" font-family="Helvetica,sans-Serif" font-size="10.00">p3m.hpp</text>
</a>
</g>
</g>
<!-- Node1&#45;&gt;Node21 -->
<g id="edge23" class="edge">
<title>Node1&#45;&gt;Node21</title>
<path fill="none" stroke="midnightblue" d="M732.38,-696.27C856.89,-684.37 1111,-660.09 1197.45,-651.82"/>
<polygon fill="midnightblue" stroke="midnightblue" points="731.82,-692.81 722.2,-697.25 732.48,-699.78 731.82,-692.81"/>
</g>
<!-- Node51 -->
<g id="node51" class="node">
<title>Node51</title>
<g id="a_node51"><a xlink:href="p3m__send__mesh_8cpp.html" target="_top" xlink:title=" ">
<polygon fill="none" stroke="black" points="1274.5,-638.5 1274.5,-657.5 1393.5,-657.5 1393.5,-638.5 1274.5,-638.5"/>
<text text-anchor="middle" x="1334" y="-645.5" font-family="Helvetica,sans-Serif" font-size="10.00">p3m_send_mesh.cpp</text>
</a>
</g>
</g>
<!-- Node1&#45;&gt;Node51 -->
<g id="edge67" class="edge">
<title>Node1&#45;&gt;Node51</title>
<path fill="none" stroke="midnightblue" d="M732.21,-699.02C844.79,-692.36 1072.59,-677.71 1265,-658 1268,-657.69 1271.08,-657.36 1274.18,-657.01"/>
<polygon fill="midnightblue" stroke="midnightblue" points="731.78,-695.54 722.01,-699.62 732.2,-702.53 731.78,-695.54"/>
</g>
<!-- Node3&#45;&gt;Node2 -->
<g id="edge22" class="edge">
<title>Node3&#45;&gt;Node2</title>
<path fill="none" stroke="midnightblue" d="M174.52,-635.17C144.01,-625 100.76,-610.59 73.55,-601.52"/>
<polygon fill="midnightblue" stroke="midnightblue" points="173.74,-638.6 184.33,-638.44 175.95,-631.96 173.74,-638.6"/>
</g>
<!-- Node4 -->
<g id="node4" class="node">
<title>Node4</title>
<g id="a_node4"><a xlink:href="dipole_8cpp.html" target="_top" xlink:title=" ">
<polygon fill="none" stroke="black" points="285.5,-582.5 285.5,-601.5 352.5,-601.5 352.5,-582.5 285.5,-582.5"/>
<text text-anchor="middle" x="319" y="-589.5" font-family="Helvetica,sans-Serif" font-size="10.00">dipole.cpp</text>
</a>
</g>
</g>
<!-- Node3&#45;&gt;Node4 -->
<g id="edge3" class="edge">
<title>Node3&#45;&gt;Node4</title>
<path fill="none" stroke="midnightblue" d="M236.52,-633.86C256.73,-623.85 283.99,-610.35 301.53,-601.65"/>
<polygon fill="midnightblue" stroke="midnightblue" points="234.92,-630.75 227.51,-638.32 238.03,-637.02 234.92,-630.75"/>
</g>
<!-- Node5 -->
<g id="node5" class="node">
<title>Node5</title>
<g id="a_node5"><a xlink:href="dipole__inline_8hpp.html" target="_top" xlink:title=" ">
<polygon fill="none" stroke="black" points="639,-336.5 639,-355.5 739,-355.5 739,-336.5 639,-336.5"/>
<text text-anchor="middle" x="689" y="-343.5" font-family="Helvetica,sans-Serif" font-size="10.00">dipole_inline.hpp</text>
</a>
</g>
</g>
<!-- Node3&#45;&gt;Node5 -->
<g id="edge4" class="edge">
<title>Node3&#45;&gt;Node5</title>
<path fill="none" stroke="midnightblue" d="M181.31,-633.62C167.92,-626.06 152.82,-615.41 143,-602 125.22,-577.71 124,-567.1 124,-537 124,-537 124,-537 124,-473.5 124,-436.31 114.84,-416.3 143,-392 180.08,-360 511.03,-350.36 638.9,-347.82"/>
<polygon fill="midnightblue" stroke="midnightblue" points="179.74,-636.75 190.21,-638.36 183.03,-630.57 179.74,-636.75"/>
</g>
<!-- Node20 -->
<g id="node20" class="node">
<title>Node20</title>
<g id="a_node20"><a xlink:href="mdlc__correction_8cpp.html" target="_top" xlink:title=" ">
<polygon fill="none" stroke="black" points="152.5,-582.5 152.5,-601.5 267.5,-601.5 267.5,-582.5 152.5,-582.5"/>
<text text-anchor="middle" x="210" y="-589.5" font-family="Helvetica,sans-Serif" font-size="10.00">mdlc_correction.cpp</text>
</a>
</g>
</g>
<!-- Node3&#45;&gt;Node20 -->
<g id="edge21" class="edge">
<title>Node3&#45;&gt;Node20</title>
<path fill="none" stroke="midnightblue" d="M210,-627.8C210,-618.91 210,-608.78 210,-601.75"/>
<polygon fill="midnightblue" stroke="midnightblue" points="206.5,-628.08 210,-638.08 213.5,-628.08 206.5,-628.08"/>
</g>
<!-- Node6 -->
<g id="node6" class="node">
<title>Node6</title>
<g id="a_node6"><a xlink:href="energy__inline_8hpp.html" target="_top" xlink:title=" ">
<polygon fill="none" stroke="black" points="1534,-280.5 1534,-299.5 1638,-299.5 1638,-280.5 1534,-280.5"/>
<text text-anchor="middle" x="1586" y="-287.5" font-family="Helvetica,sans-Serif" font-size="10.00">energy_inline.hpp</text>
</a>
</g>
</g>
<!-- Node5&#45;&gt;Node6 -->
<g id="edge5" class="edge">
<title>Node5&#45;&gt;Node6</title>
<path fill="none" stroke="midnightblue" d="M749.35,-339.06C761.48,-337.96 774.14,-336.88 786,-336 1067.61,-315.02 1405.64,-299.02 1533.54,-293.29"/>
<polygon fill="midnightblue" stroke="midnightblue" points="748.95,-335.58 739.32,-339.98 749.59,-342.55 748.95,-335.58"/>
</g>
<!-- Node16 -->
<g id="node16" class="node">
<title>Node16</title>
<g id="a_node16"><a xlink:href="forces__inline_8hpp.html" target="_top" xlink:title=" ">
<polygon fill="none" stroke="black" points="826,-280.5 826,-299.5 926,-299.5 926,-280.5 826,-280.5"/>
<text text-anchor="middle" x="876" y="-287.5" font-family="Helvetica,sans-Serif" font-size="10.00">forces_inline.hpp</text>
</a>
</g>
</g>
<!-- Node5&#45;&gt;Node16 -->
<g id="edge16" class="edge">
<title>Node5&#45;&gt;Node16</title>
<path fill="none" stroke="midnightblue" d="M728.59,-333.57C763.87,-323.38 814.69,-308.7 846.51,-299.52"/>
<polygon fill="midnightblue" stroke="midnightblue" points="727.27,-330.31 718.63,-336.44 729.21,-337.03 727.27,-330.31"/>
</g>
<!-- Node7 -->
<g id="node7" class="node">
<title>Node7</title>
<g id="a_node7"><a xlink:href="ShapeBasedConstraint_8cpp.html" target="_top" xlink:title=" ">
<polygon fill="none" stroke="black" points="1154.5,-224.5 1154.5,-243.5 1301.5,-243.5 1301.5,-224.5 1154.5,-224.5"/>
<text text-anchor="middle" x="1228" y="-231.5" font-family="Helvetica,sans-Serif" font-size="10.00">ShapeBasedConstraint.cpp</text>
</a>
</g>
</g>
<!-- Node6&#45;&gt;Node7 -->
<g id="edge6" class="edge">
<title>Node6&#45;&gt;Node7</title>
<path fill="none" stroke="midnightblue" d="M1523.88,-279.63C1456.46,-269.46 1349.72,-253.36 1284.55,-243.53"/>
<polygon fill="midnightblue" stroke="midnightblue" points="1523.53,-283.12 1533.94,-281.15 1524.58,-276.2 1523.53,-283.12"/>
</g>
<!-- Node8 -->
<g id="node8" class="node">
<title>Node8</title>
<g id="a_node8"><a xlink:href="energy_8cpp.html" target="_top" xlink:title=" ">
<polygon fill="none" stroke="black" points="1406.5,-224.5 1406.5,-243.5 1475.5,-243.5 1475.5,-224.5 1406.5,-224.5"/>
<text text-anchor="middle" x="1441" y="-231.5" font-family="Helvetica,sans-Serif" font-size="10.00">energy.cpp</text>
</a>
</g>
</g>
<!-- Node6&#45;&gt;Node8 -->
<g id="edge7" class="edge">
<title>Node6&#45;&gt;Node8</title>
<path fill="none" stroke="midnightblue" d="M1553.52,-276.91C1526.26,-266.75 1488.01,-252.51 1463.87,-243.52"/>
<polygon fill="midnightblue" stroke="midnightblue" points="1552.43,-280.23 1563.02,-280.44 1554.87,-273.67 1552.43,-280.23"/>
</g>
<!-- Node9 -->
<g id="node9" class="node">
<title>Node9</title>
<g id="a_node9"><a xlink:href="core_2pair__criteria_2pair__criteria_8hpp.html" target="_top" xlink:title=" ">
<polygon fill="none" stroke="black" points="1538,-224.5 1538,-243.5 1634,-243.5 1634,-224.5 1538,-224.5"/>
<text text-anchor="middle" x="1586" y="-231.5" font-family="Helvetica,sans-Serif" font-size="10.00">pair_criteria.hpp</text>
</a>
</g>
</g>
<!-- Node6&#45;&gt;Node9 -->
<g id="edge8" class="edge">
<title>Node6&#45;&gt;Node9</title>
<path fill="none" stroke="midnightblue" d="M1586,-269.8C1586,-260.91 1586,-250.78 1586,-243.75"/>
<polygon fill="midnightblue" stroke="midnightblue" points="1582.5,-270.08 1586,-280.08 1589.5,-270.08 1582.5,-270.08"/>
</g>
<!-- Node10 -->
<g id="node10" class="node">
<title>Node10</title>
<g id="a_node10"><a xlink:href="script__interface_2pair__criteria_2pair__criteria_8hpp.html" target="_top" xlink:title=" ">
<polygon fill="none" stroke="black" points="1538,-168.5 1538,-187.5 1634,-187.5 1634,-168.5 1538,-168.5"/>
<text text-anchor="middle" x="1586" y="-175.5" font-family="Helvetica,sans-Serif" font-size="10.00">pair_criteria.hpp</text>
</a>
</g>
</g>
<!-- Node9&#45;&gt;Node10 -->
<g id="edge9" class="edge">
<title>Node9&#45;&gt;Node10</title>
<path fill="none" stroke="midnightblue" d="M1586,-213.8C1586,-204.91 1586,-194.78 1586,-187.75"/>
<polygon fill="midnightblue" stroke="midnightblue" points="1582.5,-214.08 1586,-224.08 1589.5,-214.08 1582.5,-214.08"/>
</g>
<!-- Node11 -->
<g id="node11" class="node">
<title>Node11</title>
<g id="a_node11"><a xlink:href="core_2cluster__analysis_2ClusterStructure_8hpp.html" target="_top" xlink:title=" ">
<polygon fill="none" stroke="black" points="1442,-112.5 1442,-131.5 1558,-131.5 1558,-112.5 1442,-112.5"/>
<text text-anchor="middle" x="1500" y="-119.5" font-family="Helvetica,sans-Serif" font-size="10.00">ClusterStructure.hpp</text>
</a>
</g>
</g>
<!-- Node10&#45;&gt;Node11 -->
<g id="edge10" class="edge">
<title>Node10&#45;&gt;Node11</title>
<path fill="none" stroke="midnightblue" d="M1563.55,-162.9C1547.78,-153 1527.19,-140.07 1513.78,-131.65"/>
<polygon fill="midnightblue" stroke="midnightblue" points="1561.85,-165.97 1572.18,-168.32 1565.57,-160.04 1561.85,-165.97"/>
</g>
<!-- Node13 -->
<g id="node13" class="node">
<title>Node13</title>
<g id="a_node13"><a xlink:href="script__interface_2cluster__analysis_2ClusterStructure_8hpp.html" target="_top" xlink:title=" ">
<polygon fill="none" stroke="black" points="1528,-56.5 1528,-75.5 1644,-75.5 1644,-56.5 1528,-56.5"/>
<text text-anchor="middle" x="1586" y="-63.5" font-family="Helvetica,sans-Serif" font-size="10.00">ClusterStructure.hpp</text>
</a>
</g>
</g>
<!-- Node10&#45;&gt;Node13 -->
<g id="edge14" class="edge">
<title>Node10&#45;&gt;Node13</title>
<path fill="none" stroke="midnightblue" d="M1586,-158.35C1586,-134.25 1586,-93.31 1586,-75.59"/>
<polygon fill="midnightblue" stroke="midnightblue" points="1582.5,-158.37 1586,-168.37 1589.5,-158.37 1582.5,-158.37"/>
</g>
<!-- Node15 -->
<g id="node15" class="node">
<title>Node15</title>
<g id="a_node15"><a xlink:href="pair__criteria_2initialize_8cpp.html" target="_top" xlink:title=" ">
<polygon fill="none" stroke="black" points="1614.5,-112.5 1614.5,-131.5 1693.5,-131.5 1693.5,-112.5 1614.5,-112.5"/>
<text text-anchor="middle" x="1654" y="-119.5" font-family="Helvetica,sans-Serif" font-size="10.00">initialize.cpp</text>
</a>
</g>
</g>
<!-- Node10&#45;&gt;Node15 -->
<g id="edge15" class="edge">
<title>Node10&#45;&gt;Node15</title>
<path fill="none" stroke="midnightblue" d="M1604.76,-162.1C1617,-152.38 1632.56,-140.03 1642.88,-131.83"/>
<polygon fill="midnightblue" stroke="midnightblue" points="1602.58,-159.36 1596.93,-168.32 1606.93,-164.85 1602.58,-159.36"/>
</g>
<!-- Node12 -->
<g id="node12" class="node">
<title>Node12</title>
<g id="a_node12"><a xlink:href="ClusterStructure_8cpp.html" target="_top" xlink:title=" ">
<polygon fill="none" stroke="black" points="1394,-56.5 1394,-75.5 1510,-75.5 1510,-56.5 1394,-56.5"/>
<text text-anchor="middle" x="1452" y="-63.5" font-family="Helvetica,sans-Serif" font-size="10.00">ClusterStructure.cpp</text>
</a>
</g>
</g>
<!-- Node11&#45;&gt;Node12 -->
<g id="edge11" class="edge">
<title>Node11&#45;&gt;Node12</title>
<path fill="none" stroke="midnightblue" d="M1485.27,-104.43C1476.86,-94.97 1466.65,-83.48 1459.78,-75.75"/>
<polygon fill="midnightblue" stroke="midnightblue" points="1482.81,-106.93 1492.07,-112.08 1488.05,-102.28 1482.81,-106.93"/>
</g>
<!-- Node11&#45;&gt;Node13 -->
<g id="edge12" class="edge">
<title>Node11&#45;&gt;Node13</title>
<path fill="none" stroke="midnightblue" d="M1522.45,-106.9C1538.22,-97 1558.81,-84.07 1572.22,-75.65"/>
<polygon fill="midnightblue" stroke="midnightblue" points="1520.43,-104.04 1513.82,-112.32 1524.15,-109.97 1520.43,-104.04"/>
</g>
<!-- Node14 -->
<g id="node14" class="node">
<title>Node14</title>
<g id="a_node14"><a xlink:href="cluster__analysis_2initialize_8cpp.html" target="_top" xlink:title=" ">
<polygon fill="none" stroke="black" points="1546.5,-0.5 1546.5,-19.5 1625.5,-19.5 1625.5,-0.5 1546.5,-0.5"/>
<text text-anchor="middle" x="1586" y="-7.5" font-family="Helvetica,sans-Serif" font-size="10.00">initialize.cpp</text>
</a>
</g>
</g>
<!-- Node13&#45;&gt;Node14 -->
<g id="edge13" class="edge">
<title>Node13&#45;&gt;Node14</title>
<path fill="none" stroke="midnightblue" d="M1586,-45.8C1586,-36.91 1586,-26.78 1586,-19.75"/>
<polygon fill="midnightblue" stroke="midnightblue" points="1582.5,-46.08 1586,-56.08 1589.5,-46.08 1582.5,-46.08"/>
</g>
<!-- Node16&#45;&gt;Node7 -->
<g id="edge17" class="edge">
<title>Node16&#45;&gt;Node7</title>
<path fill="none" stroke="midnightblue" d="M936.34,-279.74C1002.56,-269.58 1107.99,-253.41 1172.31,-243.54"/>
<polygon fill="midnightblue" stroke="midnightblue" points="935.41,-276.34 926.06,-281.32 936.47,-283.26 935.41,-276.34"/>
</g>
<!-- Node17 -->
<g id="node17" class="node">
<title>Node17</title>
<g id="a_node17"><a xlink:href="forces_8cpp.html" target="_top" xlink:title=" ">
<polygon fill="none" stroke="black" points="896.5,-224.5 896.5,-243.5 963.5,-243.5 963.5,-224.5 896.5,-224.5"/>
<text text-anchor="middle" x="930" y="-231.5" font-family="Helvetica,sans-Serif" font-size="10.00">forces.cpp</text>
</a>
</g>
</g>
<!-- Node16&#45;&gt;Node17 -->
<g id="edge18" class="edge">
<title>Node16&#45;&gt;Node17</title>
<path fill="none" stroke="midnightblue" d="M892,-273C901.57,-263.43 913.36,-251.64 921.25,-243.75"/>
<polygon fill="midnightblue" stroke="midnightblue" points="889.51,-270.54 884.92,-280.08 894.46,-275.49 889.51,-270.54"/>
</g>
<!-- Node18 -->
<g id="node18" class="node">
<title>Node18</title>
<g id="a_node18"><a xlink:href="pressure__inline_8hpp.html" target="_top" xlink:title=" ">
<polygon fill="none" stroke="black" points="766,-224.5 766,-243.5 878,-243.5 878,-224.5 766,-224.5"/>
<text text-anchor="middle" x="822" y="-231.5" font-family="Helvetica,sans-Serif" font-size="10.00">pressure_inline.hpp</text>
</a>
</g>
</g>
<!-- Node16&#45;&gt;Node18 -->
<g id="edge19" class="edge">
<title>Node16&#45;&gt;Node18</title>
<path fill="none" stroke="midnightblue" d="M860,-273C850.43,-263.43 838.64,-251.64 830.75,-243.75"/>
<polygon fill="midnightblue" stroke="midnightblue" points="857.54,-275.49 867.08,-280.08 862.49,-270.54 857.54,-275.49"/>
</g>
<!-- Node19 -->
<g id="node19" class="node">
<title>Node19</title>
<g id="a_node19"><a xlink:href="pressure_8cpp.html" target="_top" xlink:title=" ">
<polygon fill="none" stroke="black" points="1748.5,-168.5 1748.5,-187.5 1827.5,-187.5 1827.5,-168.5 1748.5,-168.5"/>
<text text-anchor="middle" x="1788" y="-175.5" font-family="Helvetica,sans-Serif" font-size="10.00">pressure.cpp</text>
</a>
</g>
</g>
<!-- Node18&#45;&gt;Node19 -->
<g id="edge20" class="edge">
<title>Node18&#45;&gt;Node19</title>
<path fill="none" stroke="midnightblue" d="M888.33,-223.96C1223.63,-193.16 1310.4,-206.24 1643,-188 1678.64,-186.05 1719.18,-183.5 1748.31,-181.62"/>
<polygon fill="midnightblue" stroke="midnightblue" points="887.97,-220.48 878.33,-224.88 888.61,-227.45 887.97,-220.48"/>
</g>
<!-- Node22 -->
<g id="node22" class="node">
<title>Node22</title>
<g id="a_node22"><a xlink:href="coulomb_8cpp.html" target="_top" xlink:title=" ">
<polygon fill="none" stroke="black" points="1244.5,-582.5 1244.5,-601.5 1323.5,-601.5 1323.5,-582.5 1244.5,-582.5"/>
<text text-anchor="middle" x="1284" y="-589.5" font-family="Helvetica,sans-Serif" font-size="10.00">coulomb.cpp</text>
</a>
</g>
</g>
<!-- Node21&#45;&gt;Node22 -->
<g id="edge24" class="edge">
<title>Node21&#45;&gt;Node22</title>
<path fill="none" stroke="midnightblue" d="M1243.62,-631.25C1253.73,-621.67 1266.28,-609.79 1274.68,-601.83"/>
<polygon fill="midnightblue" stroke="midnightblue" points="1241.01,-628.91 1236.16,-638.32 1245.82,-633.99 1241.01,-628.91"/>
</g>
<!-- Node23 -->
<g id="node23" class="node">
<title>Node23</title>
<g id="a_node23"><a xlink:href="coulomb__inline_8hpp.html" target="_top" xlink:title=" ">
<polygon fill="none" stroke="black" points="1114,-582.5 1114,-601.5 1226,-601.5 1226,-582.5 1114,-582.5"/>
<text text-anchor="middle" x="1170" y="-589.5" font-family="Helvetica,sans-Serif" font-size="10.00">coulomb_inline.hpp</text>
</a>
</g>
</g>
<!-- Node21&#45;&gt;Node23 -->
<g id="edge25" class="edge">
<title>Node21&#45;&gt;Node23</title>
<path fill="none" stroke="midnightblue" d="M1210.38,-631.25C1200.27,-621.67 1187.72,-609.79 1179.32,-601.83"/>
<polygon fill="midnightblue" stroke="midnightblue" points="1208.18,-633.99 1217.84,-638.32 1212.99,-628.91 1208.18,-633.99"/>
</g>
<!-- Node49 -->
<g id="node49" class="node">
<title>Node49</title>
<g id="a_node49"><a xlink:href="elc_8cpp.html" target="_top" xlink:title=" ">
<polygon fill="none" stroke="black" points="1341.5,-582.5 1341.5,-601.5 1392.5,-601.5 1392.5,-582.5 1341.5,-582.5"/>
<text text-anchor="middle" x="1367" y="-589.5" font-family="Helvetica,sans-Serif" font-size="10.00">elc.cpp</text>
</a>
</g>
</g>
<!-- Node21&#45;&gt;Node49 -->
<g id="edge65" class="edge">
<title>Node21&#45;&gt;Node49</title>
<path fill="none" stroke="midnightblue" d="M1258.7,-634.77C1285,-624.63 1321.72,-610.47 1344.92,-601.52"/>
<polygon fill="midnightblue" stroke="midnightblue" points="1257.25,-631.58 1249.18,-638.44 1259.77,-638.11 1257.25,-631.58"/>
</g>
<!-- Node50 -->
<g id="node50" class="node">
<title>Node50</title>
<g id="a_node50"><a xlink:href="p3m_8cpp.html" target="_top" xlink:title=" ">
<polygon fill="none" stroke="black" points="1410.5,-582.5 1410.5,-601.5 1469.5,-601.5 1469.5,-582.5 1410.5,-582.5"/>
<text text-anchor="middle" x="1440" y="-589.5" font-family="Helvetica,sans-Serif" font-size="10.00">p3m.cpp</text>
</a>
</g>
</g>
<!-- Node21&#45;&gt;Node50 -->
<g id="edge66" class="edge">
<title>Node21&#45;&gt;Node50</title>
<path fill="none" stroke="midnightblue" d="M1266.42,-637.01C1308.05,-626.45 1372.76,-610.05 1410.29,-600.53"/>
<polygon fill="midnightblue" stroke="midnightblue" points="1265.45,-633.64 1256.62,-639.49 1267.17,-640.43 1265.45,-633.64"/>
</g>
<!-- Node23&#45;&gt;Node6 -->
<g id="edge63" class="edge">
<title>Node23&#45;&gt;Node6</title>
<path fill="none" stroke="midnightblue" d="M1236.15,-581.48C1416.94,-555.37 1906,-483.93 1906,-475.5 1906,-475.5 1906,-475.5 1906,-406.5 1906,-350.24 1728.8,-313.75 1638.13,-298.77"/>
<polygon fill="midnightblue" stroke="midnightblue" points="1235.62,-578.02 1226.23,-582.92 1236.62,-584.95 1235.62,-578.02"/>
</g>
<!-- Node23&#45;&gt;Node16 -->
<g id="edge64" class="edge">
<title>Node23&#45;&gt;Node16</title>
<path fill="none" stroke="midnightblue" d="M1103.8,-590.79C896.72,-588.59 267.68,-569.73 143,-423 51.84,-315.72 646.08,-295.44 825.69,-291.77"/>
<polygon fill="midnightblue" stroke="midnightblue" points="1103.89,-594.29 1113.92,-590.89 1103.95,-587.29 1103.89,-594.29"/>
</g>
<!-- Node24 -->
<g id="node24" class="node">
<title>Node24</title>
<g id="a_node24"><a xlink:href="bonded__coulomb__sr_8hpp.html" target="_top" xlink:title=" ">
<polygon fill="none" stroke="black" points="1102.5,-526.5 1102.5,-545.5 1237.5,-545.5 1237.5,-526.5 1102.5,-526.5"/>
<text text-anchor="middle" x="1170" y="-533.5" font-family="Helvetica,sans-Serif" font-size="10.00">bonded_coulomb_sr.hpp</text>
</a>
</g>
</g>
<!-- Node23&#45;&gt;Node24 -->
<g id="edge26" class="edge">
<title>Node23&#45;&gt;Node24</title>
<path fill="none" stroke="midnightblue" d="M1170,-571.8C1170,-562.91 1170,-552.78 1170,-545.75"/>
<polygon fill="midnightblue" stroke="midnightblue" points="1166.5,-572.08 1170,-582.08 1173.5,-572.08 1166.5,-572.08"/>
</g>
<!-- Node29 -->
<g id="node29" class="node">
<title>Node29</title>
<g id="a_node29"><a xlink:href="thole_8hpp.html" target="_top" xlink:title=" ">
<polygon fill="none" stroke="black" points="1678,-336.5 1678,-355.5 1740,-355.5 1740,-336.5 1678,-336.5"/>
<text text-anchor="middle" x="1709" y="-343.5" font-family="Helvetica,sans-Serif" font-size="10.00">thole.hpp</text>
</a>
</g>
</g>
<!-- Node23&#45;&gt;Node29 -->
<g id="edge62" class="edge">
<title>Node23&#45;&gt;Node29</title>
<path fill="none" stroke="midnightblue" d="M1222.89,-580.45C1366.24,-551.35 1753.78,-469.05 1789,-423 1797.37,-412.06 1795.96,-403.89 1789,-392 1778.3,-373.71 1757.13,-362.27 1739.25,-355.51"/>
<polygon fill="midnightblue" stroke="midnightblue" points="1222.11,-577.04 1213,-582.45 1223.5,-583.9 1222.11,-577.04"/>
</g>
<!-- Node48 -->
<g id="node48" class="node">
<title>Node48</title>
<g id="a_node48"><a xlink:href="icc_8cpp.html" target="_top" xlink:title=" ">
<polygon fill="none" stroke="black" points="1256,-526.5 1256,-545.5 1306,-545.5 1306,-526.5 1256,-526.5"/>
<text text-anchor="middle" x="1281" y="-533.5" font-family="Helvetica,sans-Serif" font-size="10.00">icc.cpp</text>
</a>
</g>
</g>
<!-- Node23&#45;&gt;Node48 -->
<g id="edge61" class="edge">
<title>Node23&#45;&gt;Node48</title>
<path fill="none" stroke="midnightblue" d="M1197.01,-577.86C1217.59,-567.85 1245.34,-554.35 1263.21,-545.65"/>
<polygon fill="midnightblue" stroke="midnightblue" points="1195.3,-574.8 1187.83,-582.32 1198.36,-581.1 1195.3,-574.8"/>
</g>
<!-- Node25 -->
<g id="node25" class="node">
<title>Node25</title>
<g id="a_node25"><a xlink:href="bonded__coulomb__sr_8cpp.html" target="_top" xlink:title=" ">
<polygon fill="none" stroke="black" points="1243,-465 1243,-484 1377,-484 1377,-465 1243,-465"/>
<text text-anchor="middle" x="1310" y="-472" font-family="Helvetica,sans-Serif" font-size="10.00">bonded_coulomb_sr.cpp</text>
</a>
</g>
</g>
<!-- Node24&#45;&gt;Node25 -->
<g id="edge27" class="edge">
<title>Node24&#45;&gt;Node25</title>
<path fill="none" stroke="midnightblue" d="M1199.46,-522.48C1226.65,-510.92 1266.29,-494.08 1289.98,-484.01"/>
<polygon fill="midnightblue" stroke="midnightblue" points="1197.89,-519.34 1190.06,-526.48 1200.63,-525.78 1197.89,-519.34"/>
</g>
<!-- Node26 -->
<g id="node26" class="node">
<title>Node26</title>
<g id="a_node26"><a xlink:href="bonded__interaction__data_8hpp.html" target="_top" xlink:title=" ">
<polygon fill="none" stroke="black" points="1115,-459.5 1115,-489.5 1225,-489.5 1225,-459.5 1115,-459.5"/>
<text text-anchor="start" x="1123" y="-477.5" font-family="Helvetica,sans-Serif" font-size="10.00">bonded_interaction</text>
<text text-anchor="middle" x="1170" y="-466.5" font-family="Helvetica,sans-Serif" font-size="10.00">_data.hpp</text>
</a>
</g>
</g>
<!-- Node24&#45;&gt;Node26 -->
<g id="edge28" class="edge">
<title>Node24&#45;&gt;Node26</title>
<path fill="none" stroke="midnightblue" d="M1170,-516.23C1170,-507.59 1170,-497.5 1170,-489.52"/>
<polygon fill="midnightblue" stroke="midnightblue" points="1166.5,-516.48 1170,-526.48 1173.5,-516.48 1166.5,-516.48"/>
</g>
<!-- Node26&#45;&gt;Node6 -->
<g id="edge37" class="edge">
<title>Node26&#45;&gt;Node6</title>
<path fill="none" stroke="midnightblue" d="M1235.19,-459.17C1332.18,-448.06 1548.33,-477.89 1607,-423 1635.46,-396.37 1629.86,-373.13 1618,-336 1613.45,-321.75 1602.56,-308.16 1594.75,-299.71"/>
<polygon fill="midnightblue" stroke="midnightblue" points="1234.5,-455.73 1225.07,-460.56 1235.45,-462.67 1234.5,-455.73"/>
</g>
<!-- Node26&#45;&gt;Node16 -->
<g id="edge47" class="edge">
<title>Node26&#45;&gt;Node16</title>
<path fill="none" stroke="midnightblue" d="M1221.61,-455.5C1257.82,-440.18 1296.01,-416.77 1273,-392 1199.15,-312.49 859.85,-435.51 786,-356 763.44,-331.71 811.82,-310.72 846,-299.56"/>
<polygon fill="midnightblue" stroke="midnightblue" points="1219.94,-452.41 1211.99,-459.41 1222.57,-458.89 1219.94,-452.41"/>
</g>
<!-- Node26&#45;&gt;Node18 -->
<g id="edge59" class="edge">
<title>Node26&#45;&gt;Node18</title>
<path fill="none" stroke="midnightblue" d="M1104.51,-472.74C883.37,-469.84 176.21,-457.88 143,-423 52.76,-328.21 587.87,-260.52 765.88,-240.87"/>
<polygon fill="midnightblue" stroke="midnightblue" points="1104.62,-476.24 1114.67,-472.87 1104.72,-469.24 1104.62,-476.24"/>
</g>
<!-- Node26&#45;&gt;Node19 -->
<g id="edge58" class="edge">
<title>Node26&#45;&gt;Node19</title>
<path fill="none" stroke="midnightblue" d="M1235.21,-459.28C1329.91,-450.58 1739.07,-455.03 1789,-423 1821.3,-402.28 1830,-385.38 1830,-347 1830,-347 1830,-347 1830,-289 1830,-248.93 1805.38,-205.74 1793.84,-187.69"/>
<polygon fill="midnightblue" stroke="midnightblue" points="1234.59,-455.83 1225.05,-460.45 1235.39,-462.79 1234.59,-455.83"/>
</g>
<!-- Node27 -->
<g id="node27" class="node">
<title>Node27</title>
<g id="a_node27"><a xlink:href="bonded__interaction__data_8cpp.html" target="_top" xlink:title=" ">
<polygon fill="none" stroke="black" points="1488,-392.5 1488,-422.5 1598,-422.5 1598,-392.5 1488,-392.5"/>
<text text-anchor="start" x="1496" y="-410.5" font-family="Helvetica,sans-Serif" font-size="10.00">bonded_interaction</text>
<text text-anchor="middle" x="1543" y="-399.5" font-family="Helvetica,sans-Serif" font-size="10.00">_data.cpp</text>
</a>
</g>
</g>
<!-- Node26&#45;&gt;Node27 -->
<g id="edge29" class="edge">
<title>Node26&#45;&gt;Node27</title>
<path fill="none" stroke="midnightblue" d="M1235.17,-458.87C1343.94,-439.06 1373.98,-442.58 1479,-423 1481.91,-422.46 1484.89,-421.87 1487.9,-421.27"/>
<polygon fill="midnightblue" stroke="midnightblue" points="1234.3,-455.48 1225.1,-460.73 1235.57,-462.36 1234.3,-455.48"/>
</g>
<!-- Node28 -->
<g id="node28" class="node">
<title>Node28</title>
<g id="a_node28"><a xlink:href="bonded__interaction__utils_8hpp.html" target="_top" xlink:title=" ">
<polygon fill="none" stroke="black" points="1654,-392.5 1654,-422.5 1764,-422.5 1764,-392.5 1654,-392.5"/>
<text text-anchor="start" x="1662" y="-410.5" font-family="Helvetica,sans-Serif" font-size="10.00">bonded_interaction</text>
<text text-anchor="middle" x="1709" y="-399.5" font-family="Helvetica,sans-Serif" font-size="10.00">_utils.hpp</text>
</a>
</g>
</g>
<!-- Node26&#45;&gt;Node28 -->
<g id="edge30" class="edge">
<title>Node26&#45;&gt;Node28</title>
<path fill="none" stroke="midnightblue" d="M1235.12,-458.97C1414.74,-431.59 1464.06,-449.19 1640,-423 1644.48,-422.33 1649.11,-421.56 1653.74,-420.71"/>
<polygon fill="midnightblue" stroke="midnightblue" points="1234.41,-455.54 1225.07,-460.53 1235.49,-462.46 1234.41,-455.54"/>
</g>
<!-- Node26&#45;&gt;Node29 -->
<g id="edge38" class="edge">
<title>Node26&#45;&gt;Node29</title>
<path fill="none" stroke="midnightblue" d="M1235.28,-459.34C1328.7,-451.59 1733.68,-465.04 1773,-423 1782.41,-412.94 1779.35,-404.23 1773,-392 1764.11,-374.88 1745.39,-362.91 1730.48,-355.64"/>
<polygon fill="midnightblue" stroke="midnightblue" points="1234.62,-455.89 1225.06,-460.45 1235.38,-462.85 1234.62,-455.89"/>
</g>
<!-- Node31 -->
<g id="node31" class="node">
<title>Node31</title>
<g id="a_node31"><a xlink:href="thermalized__bond__utils_8cpp.html" target="_top" xlink:title=" ">
<polygon fill="none" stroke="black" points="152.5,-398 152.5,-417 303.5,-417 303.5,-398 152.5,-398"/>
<text text-anchor="middle" x="228" y="-405" font-family="Helvetica,sans-Serif" font-size="10.00">thermalized_bond_utils.cpp</text>
</a>
</g>
</g>
<!-- Node26&#45;&gt;Node31 -->
<g id="edge35" class="edge">
<title>Node26&#45;&gt;Node31</title>
<path fill="none" stroke="midnightblue" d="M1104.46,-472.15C960.58,-468.63 606.47,-456.97 312,-423 298.92,-421.49 284.78,-419.28 271.9,-417.03"/>
<polygon fill="midnightblue" stroke="midnightblue" points="1104.78,-475.66 1114.86,-472.4 1104.94,-468.66 1104.78,-475.66"/>
</g>
<!-- Node32 -->
<g id="node32" class="node">
<title>Node32</title>
<g id="a_node32"><a xlink:href="collision_8cpp.html" target="_top" xlink:title=" ">
<polygon fill="none" stroke="black" points="321.5,-398 321.5,-417 398.5,-417 398.5,-398 321.5,-398"/>
<text text-anchor="middle" x="360" y="-405" font-family="Helvetica,sans-Serif" font-size="10.00">collision.cpp</text>
</a>
</g>
</g>
<!-- Node26&#45;&gt;Node32 -->
<g id="edge36" class="edge">
<title>Node26&#45;&gt;Node32</title>
<path fill="none" stroke="midnightblue" d="M1104.48,-474.27C971.7,-474.72 661.84,-470.08 407,-423 399.44,-421.6 391.39,-419.4 384.12,-417.12"/>
<polygon fill="midnightblue" stroke="midnightblue" points="1104.89,-477.77 1114.87,-474.23 1104.86,-470.77 1104.89,-477.77"/>
</g>
<!-- Node33 -->
<g id="node33" class="node">
<title>Node33</title>
<g id="a_node33"><a xlink:href="forces_8hpp.html" target="_top" xlink:title=" ">
<polygon fill="none" stroke="black" points="1320,-398 1320,-417 1388,-417 1388,-398 1320,-398"/>
<text text-anchor="middle" x="1354" y="-405" font-family="Helvetica,sans-Serif" font-size="10.00">forces.hpp</text>
</a>
</g>
</g>
<!-- Node26&#45;&gt;Node33 -->
<g id="edge39" class="edge">
<title>Node26&#45;&gt;Node33</title>
<path fill="none" stroke="midnightblue" d="M1219.69,-455.95C1255.43,-443.32 1302.05,-426.85 1329.92,-417.01"/>
<polygon fill="midnightblue" stroke="midnightblue" points="1218.19,-452.76 1209.93,-459.4 1220.52,-459.37 1218.19,-452.76"/>
</g>
<!-- Node39 -->
<g id="node39" class="node">
<title>Node39</title>
<g id="a_node39"><a xlink:href="ImmersedBoundaries_8cpp.html" target="_top" xlink:title=" ">
<polygon fill="none" stroke="black" points="416.5,-398 416.5,-417 557.5,-417 557.5,-398 416.5,-398"/>
<text text-anchor="middle" x="487" y="-405" font-family="Helvetica,sans-Serif" font-size="10.00">ImmersedBoundaries.cpp</text>
</a>
</g>
</g>
<!-- Node26&#45;&gt;Node39 -->
<g id="edge48" class="edge">
<title>Node26&#45;&gt;Node39</title>
<path fill="none" stroke="midnightblue" d="M1104.81,-470.15C993.82,-463.98 761.21,-449.01 566,-423 553.97,-421.4 541,-419.21 529.11,-417.02"/>
<polygon fill="midnightblue" stroke="midnightblue" points="1104.66,-473.65 1114.84,-470.7 1105.05,-466.66 1104.66,-473.65"/>
</g>
<!-- Node40 -->
<g id="node40" class="node">
<title>Node40</title>
<g id="a_node40"><a xlink:href="rattle_8hpp.html" target="_top" xlink:title=" ">
<polygon fill="none" stroke="black" points="1406,-398 1406,-417 1470,-417 1470,-398 1406,-398"/>
<text text-anchor="middle" x="1438" y="-405" font-family="Helvetica,sans-Serif" font-size="10.00">rattle.hpp</text>
</a>
</g>
</g>
<!-- Node26&#45;&gt;Node40 -->
<g id="edge49" class="edge">
<title>Node26&#45;&gt;Node40</title>
<path fill="none" stroke="midnightblue" d="M1233.1,-457.22C1299.32,-442.81 1320.01,-442.45 1388,-423 1393.95,-421.3 1400.3,-419.2 1406.47,-417.13"/>
<polygon fill="midnightblue" stroke="midnightblue" points="1232,-453.88 1222.99,-459.45 1233.51,-460.71 1232,-453.88"/>
</g>
<!-- Node42 -->
<g id="node42" class="node">
<title>Node42</title>
<g id="a_node42"><a xlink:href="interactions_8cpp.html" target="_top" xlink:title=" ">
<polygon fill="none" stroke="black" points="575.5,-398 575.5,-417 670.5,-417 670.5,-398 575.5,-398"/>
<text text-anchor="middle" x="623" y="-405" font-family="Helvetica,sans-Serif" font-size="10.00">interactions.cpp</text>
</a>
</g>
</g>
<!-- Node26&#45;&gt;Node42 -->
<g id="edge53" class="edge">
<title>Node26&#45;&gt;Node42</title>
<path fill="none" stroke="midnightblue" d="M1104.5,-469.91C1009.95,-464.03 830,-450.15 679,-423 670.3,-421.44 660.97,-419.23 652.46,-417.02"/>
<polygon fill="midnightblue" stroke="midnightblue" points="1104.57,-473.43 1114.76,-470.54 1104.99,-466.44 1104.57,-473.43"/>
</g>
<!-- Node43 -->
<g id="node43" class="node">
<title>Node43</title>
<g id="a_node43"><a xlink:href="mpiio_8cpp.html" target="_top" xlink:title=" ">
<polygon fill="none" stroke="black" points="688.5,-398 688.5,-417 753.5,-417 753.5,-398 688.5,-398"/>
<text text-anchor="middle" x="721" y="-405" font-family="Helvetica,sans-Serif" font-size="10.00">mpiio.cpp</text>
</a>
</g>
</g>
<!-- Node26&#45;&gt;Node43 -->
<g id="edge54" class="edge">
<title>Node26&#45;&gt;Node43</title>
<path fill="none" stroke="midnightblue" d="M1104.67,-469.61C1023.65,-463.83 881.73,-450.54 763,-423 756.39,-421.47 749.36,-419.27 742.98,-417.06"/>
<polygon fill="midnightblue" stroke="midnightblue" points="1104.5,-473.11 1114.72,-470.31 1104.99,-466.13 1104.5,-473.11"/>
</g>
<!-- Node44 -->
<g id="node44" class="node">
<title>Node44</title>
<g id="a_node44"><a xlink:href="nonbonded__interaction__data_8cpp.html" target="_top" xlink:title=" ">
<polygon fill="none" stroke="black" points="772,-392.5 772,-422.5 900,-422.5 900,-392.5 772,-392.5"/>
<text text-anchor="start" x="780" y="-410.5" font-family="Helvetica,sans-Serif" font-size="10.00">nonbonded_interaction</text>
<text text-anchor="middle" x="836" y="-399.5" font-family="Helvetica,sans-Serif" font-size="10.00">_data.cpp</text>
</a>
</g>
</g>
<!-- Node26&#45;&gt;Node44 -->
<g id="edge55" class="edge">
<title>Node26&#45;&gt;Node44</title>
<path fill="none" stroke="midnightblue" d="M1105.08,-461.03C1052.27,-450.87 975.8,-436.1 909,-423 906.08,-422.43 903.1,-421.84 900.09,-421.25"/>
<polygon fill="midnightblue" stroke="midnightblue" points="1104.51,-464.49 1114.99,-462.94 1105.83,-457.61 1104.51,-464.49"/>
</g>
<!-- Node45 -->
<g id="node45" class="node">
<title>Node45</title>
<g id="a_node45"><a xlink:href="oif__global__forces_8cpp.html" target="_top" xlink:title=" ">
<polygon fill="none" stroke="black" points="918,-398 918,-417 1038,-417 1038,-398 918,-398"/>
<text text-anchor="middle" x="978" y="-405" font-family="Helvetica,sans-Serif" font-size="10.00">oif_global_forces.cpp</text>
</a>
</g>
</g>
<!-- Node26&#45;&gt;Node45 -->
<g id="edge56" class="edge">
<title>Node26&#45;&gt;Node45</title>
<path fill="none" stroke="midnightblue" d="M1118.63,-456.11C1081.27,-443.46 1032.33,-426.89 1003.13,-417.01"/>
<polygon fill="midnightblue" stroke="midnightblue" points="1117.74,-459.5 1128.34,-459.4 1119.99,-452.87 1117.74,-459.5"/>
</g>
<!-- Node46 -->
<g id="node46" class="node">
<title>Node46</title>
<g id="a_node46"><a xlink:href="Observable__stat_8cpp.html" target="_top" xlink:title=" ">
<polygon fill="none" stroke="black" points="1056,-398 1056,-417 1172,-417 1172,-398 1056,-398"/>
<text text-anchor="middle" x="1114" y="-405" font-family="Helvetica,sans-Serif" font-size="10.00">Observable_stat.cpp</text>
</a>
</g>
</g>
<!-- Node26&#45;&gt;Node46 -->
<g id="edge57" class="edge">
<title>Node26&#45;&gt;Node46</title>
<path fill="none" stroke="midnightblue" d="M1151.18,-451.66C1141.02,-439.86 1129.05,-425.97 1121.49,-417.19"/>
<polygon fill="midnightblue" stroke="midnightblue" points="1148.67,-454.1 1157.85,-459.4 1153.97,-449.54 1148.67,-454.1"/>
</g>
<!-- Node47 -->
<g id="node47" class="node">
<title>Node47</title>
<g id="a_node47"><a xlink:href="bonded_8hpp.html" target="_top" xlink:title=" ">
<polygon fill="none" stroke="black" points="1190,-398 1190,-417 1264,-417 1264,-398 1190,-398"/>
<text text-anchor="middle" x="1227" y="-405" font-family="Helvetica,sans-Serif" font-size="10.00">bonded.hpp</text>
</a>
</g>
</g>
<!-- Node26&#45;&gt;Node47 -->
<g id="edge60" class="edge">
<title>Node26&#45;&gt;Node47</title>
<path fill="none" stroke="midnightblue" d="M1189.15,-451.66C1199.5,-439.86 1211.68,-425.97 1219.38,-417.19"/>
<polygon fill="midnightblue" stroke="midnightblue" points="1186.33,-449.57 1182.37,-459.4 1191.59,-454.18 1186.33,-449.57"/>
</g>
<!-- Node28&#45;&gt;Node29 -->
<g id="edge31" class="edge">
<title>Node28&#45;&gt;Node29</title>
<path fill="none" stroke="midnightblue" d="M1709,-382.29C1709,-372.86 1709,-362.65 1709,-355.66"/>
<polygon fill="midnightblue" stroke="midnightblue" points="1705.5,-382.4 1709,-392.4 1712.5,-382.4 1705.5,-382.4"/>
</g>
<!-- Node29&#45;&gt;Node6 -->
<g id="edge32" class="edge">
<title>Node29&#45;&gt;Node6</title>
<path fill="none" stroke="midnightblue" d="M1680.23,-332.37C1657.19,-322.26 1625.52,-308.35 1605.4,-299.52"/>
<polygon fill="midnightblue" stroke="midnightblue" points="1678.95,-335.63 1689.51,-336.44 1681.76,-329.22 1678.95,-335.63"/>
</g>
<!-- Node29&#45;&gt;Node16 -->
<g id="edge33" class="edge">
<title>Node29&#45;&gt;Node16</title>
<path fill="none" stroke="midnightblue" d="M1667.52,-340.56C1652,-338.99 1634.2,-337.29 1618,-336 1358.13,-315.28 1046.38,-299.24 926.43,-293.4"/>
<polygon fill="midnightblue" stroke="midnightblue" points="1667.55,-344.08 1677.86,-341.62 1668.27,-337.12 1667.55,-344.08"/>
</g>
<!-- Node30 -->
<g id="node30" class="node">
<title>Node30</title>
<g id="a_node30"><a xlink:href="thole_8cpp.html" target="_top" xlink:title=" ">
<polygon fill="none" stroke="black" points="1678,-280.5 1678,-299.5 1740,-299.5 1740,-280.5 1678,-280.5"/>
<text text-anchor="middle" x="1709" y="-287.5" font-family="Helvetica,sans-Serif" font-size="10.00">thole.cpp</text>
</a>
</g>
</g>
<!-- Node29&#45;&gt;Node30 -->
<g id="edge34" class="edge">
<title>Node29&#45;&gt;Node30</title>
<path fill="none" stroke="midnightblue" d="M1709,-325.8C1709,-316.91 1709,-306.78 1709,-299.75"/>
<polygon fill="midnightblue" stroke="midnightblue" points="1705.5,-326.08 1709,-336.08 1712.5,-326.08 1705.5,-326.08"/>
</g>
<!-- Node33&#45;&gt;Node8 -->
<g id="edge43" class="edge">
<title>Node33&#45;&gt;Node8</title>
<path fill="none" stroke="midnightblue" d="M1362.99,-388.78C1381.48,-352.33 1423.16,-270.17 1436.68,-243.52"/>
<polygon fill="midnightblue" stroke="midnightblue" points="1359.84,-387.26 1358.43,-397.76 1366.08,-390.42 1359.84,-387.26"/>
</g>
<!-- Node33&#45;&gt;Node16 -->
<g id="edge44" class="edge">
<title>Node33&#45;&gt;Node16</title>
<path fill="none" stroke="midnightblue" d="M1362.5,-388.58C1368.62,-372.73 1373.78,-350.02 1361,-336 1332.09,-304.28 1044.06,-294.57 926.04,-291.91"/>
<polygon fill="midnightblue" stroke="midnightblue" points="1359.25,-387.27 1358.52,-397.84 1365.68,-390.03 1359.25,-387.27"/>
</g>
<!-- Node34 -->
<g id="node34" class="node">
<title>Node34</title>
<g id="a_node34"><a xlink:href="DipolarBarnesHut_8cpp.html" target="_top" xlink:title=" ">
<polygon fill="none" stroke="black" points="1229.5,-336.5 1229.5,-355.5 1352.5,-355.5 1352.5,-336.5 1229.5,-336.5"/>
<text text-anchor="middle" x="1291" y="-343.5" font-family="Helvetica,sans-Serif" font-size="10.00">DipolarBarnesHut.cpp</text>
</a>
</g>
</g>
<!-- Node33&#45;&gt;Node34 -->
<g id="edge40" class="edge">
<title>Node33&#45;&gt;Node34</title>
<path fill="none" stroke="midnightblue" d="M1337.4,-390.82C1325.43,-379.52 1309.73,-364.69 1300.01,-355.51"/>
<polygon fill="midnightblue" stroke="midnightblue" points="1335.3,-393.65 1344.97,-397.98 1340.11,-388.56 1335.3,-393.65"/>
</g>
<!-- Node35 -->
<g id="node35" class="node">
<title>Node35</title>
<g id="a_node35"><a xlink:href="DipolarDirectSum_8cpp.html" target="_top" xlink:title=" ">
<polygon fill="none" stroke="black" points="795.5,-336.5 795.5,-355.5 918.5,-355.5 918.5,-336.5 795.5,-336.5"/>
<text text-anchor="middle" x="857" y="-343.5" font-family="Helvetica,sans-Serif" font-size="10.00">DipolarDirectSum.cpp</text>
</a>
</g>
</g>
<!-- Node33&#45;&gt;Node35 -->
<g id="edge41" class="edge">
<title>Node33&#45;&gt;Node35</title>
<path fill="none" stroke="midnightblue" d="M1318.94,-395.04C1314.62,-393.88 1310.23,-392.83 1306,-392 1140.41,-359.44 1095.73,-374.61 928,-356 924.91,-355.66 921.75,-355.3 918.56,-354.92"/>
<polygon fill="midnightblue" stroke="midnightblue" points="1318.25,-398.48 1328.83,-397.87 1320.18,-391.75 1318.25,-398.48"/>
</g>
<!-- Node36 -->
<g id="node36" class="node">
<title>Node36</title>
<g id="a_node36"><a xlink:href="Mmm1dgpuForce_8cpp.html" target="_top" xlink:title=" ">
<polygon fill="none" stroke="black" points="937,-336.5 937,-355.5 1059,-355.5 1059,-336.5 937,-336.5"/>
<text text-anchor="middle" x="998" y="-343.5" font-family="Helvetica,sans-Serif" font-size="10.00">Mmm1dgpuForce.cpp</text>
</a>
</g>
</g>
<!-- Node33&#45;&gt;Node36 -->
<g id="edge42" class="edge">
<title>Node33&#45;&gt;Node36</title>
<path fill="none" stroke="midnightblue" d="M1318.61,-395.16C1314.38,-394 1310.11,-392.92 1306,-392 1260.24,-381.81 1135.04,-364.76 1059.09,-354.83"/>
<polygon fill="midnightblue" stroke="midnightblue" points="1317.7,-398.55 1328.28,-397.96 1319.65,-391.82 1317.7,-398.55"/>
</g>
<!-- Node37 -->
<g id="node37" class="node">
<title>Node37</title>
<g id="a_node37"><a xlink:href="integrate_8cpp.html" target="_top" xlink:title=" ">
<polygon fill="none" stroke="black" points="1447.5,-336.5 1447.5,-355.5 1528.5,-355.5 1528.5,-336.5 1447.5,-336.5"/>
<text text-anchor="middle" x="1488" y="-343.5" font-family="Helvetica,sans-Serif" font-size="10.00">integrate.cpp</text>
</a>
</g>
</g>
<!-- Node33&#45;&gt;Node37 -->
<g id="edge45" class="edge">
<title>Node33&#45;&gt;Node37</title>
<path fill="none" stroke="midnightblue" d="M1382.54,-393.83C1408.55,-382.28 1446.26,-365.53 1468.84,-355.51"/>
<polygon fill="midnightblue" stroke="midnightblue" points="1380.92,-390.72 1373.2,-397.98 1383.76,-397.12 1380.92,-390.72"/>
</g>
<!-- Node38 -->
<g id="node38" class="node">
<title>Node38</title>
<g id="a_node38"><a xlink:href="VirtualSitesRelative_8cpp.html" target="_top" xlink:title=" ">
<polygon fill="none" stroke="black" points="1077,-336.5 1077,-355.5 1211,-355.5 1211,-336.5 1077,-336.5"/>
<text text-anchor="middle" x="1144" y="-343.5" font-family="Helvetica,sans-Serif" font-size="10.00">VirtualSitesRelative.cpp</text>
</a>
</g>
</g>
<!-- Node33&#45;&gt;Node38 -->
<g id="edge46" class="edge">
<title>Node33&#45;&gt;Node38</title>
<path fill="none" stroke="midnightblue" d="M1316.35,-395.04C1312.85,-394 1309.36,-392.97 1306,-392 1260.72,-378.87 1208.1,-364.4 1175.42,-355.5"/>
<polygon fill="midnightblue" stroke="midnightblue" points="1315.53,-398.45 1326.11,-397.96 1317.53,-391.74 1315.53,-398.45"/>
</g>
<!-- Node40&#45;&gt;Node26 -->
<g id="edge50" class="edge">
<title>Node40&#45;&gt;Node26</title>
<path fill="none" stroke="midnightblue" d="M1414.23,-420.48C1411.48,-421.38 1408.7,-422.23 1406,-423 1334.67,-443.41 1315.4,-442.8 1243,-459 1237.22,-460.29 1231.15,-461.66 1225.06,-463.02"/>
<polygon fill="midnightblue" stroke="midnightblue" points="1415.58,-423.72 1423.88,-417.13 1413.28,-417.1 1415.58,-423.72"/>
</g>
<!-- Node40&#45;&gt;Node37 -->
<g id="edge51" class="edge">
<title>Node40&#45;&gt;Node37</title>
<path fill="none" stroke="midnightblue" d="M1451.72,-390.17C1461.15,-378.95 1473.28,-364.52 1480.85,-355.51"/>
<polygon fill="midnightblue" stroke="midnightblue" points="1448.92,-388.07 1445.16,-397.98 1454.28,-392.57 1448.92,-388.07"/>
</g>
<!-- Node41 -->
<g id="node41" class="node">
<title>Node41</title>
<g id="a_node41"><a xlink:href="rattle_8cpp.html" target="_top" xlink:title=" ">
<polygon fill="none" stroke="black" points="1546.5,-336.5 1546.5,-355.5 1609.5,-355.5 1609.5,-336.5 1546.5,-336.5"/>
<text text-anchor="middle" x="1578" y="-343.5" font-family="Helvetica,sans-Serif" font-size="10.00">rattle.cpp</text>
</a>
</g>
</g>
<!-- Node40&#45;&gt;Node41 -->
<g id="edge52" class="edge">
<title>Node40&#45;&gt;Node41</title>
<path fill="none" stroke="midnightblue" d="M1467.46,-393.98C1494.65,-382.42 1534.29,-365.58 1557.98,-355.51"/>
<polygon fill="midnightblue" stroke="midnightblue" points="1465.89,-390.84 1458.06,-397.98 1468.63,-397.28 1465.89,-390.84"/>
</g>
</g>
</svg>
