<?xml version="1.0" encoding="UTF-8" standalone="no"?>
<!DOCTYPE svg PUBLIC "-//W3C//DTD SVG 1.1//EN"
 "http://www.w3.org/Graphics/SVG/1.1/DTD/svg11.dtd">
<!-- Generated by graphviz version 2.43.0 (0)
 -->
<!-- Title: packed_variant.hpp Pages: 1 -->
<!--zoomable 330 -->
<svg id="main" version="1.1" xmlns="http://www.w3.org/2000/svg" xmlns:xlink="http://www.w3.org/1999/xlink" xml:space="preserve" onload="init(evt)">
<style type="text/css"><![CDATA[
.edge:hover path { stroke: red; }
.edge:hover polygon { stroke: red; fill: red; }
]]></style>
<script type="text/javascript"><![CDATA[
var edges = document.getElementsByTagName('g');
if (edges && edges.length) {
  for (var i=0;i<edges.length;i++) {
    if (edges[i].id.substr(0,4)=='edge') {
      edges[i].setAttribute('class','edge');
    }
  }
}
]]></script>
        <defs>
                <circle id="rim" cx="0" cy="0" r="7"/>
                <circle id="rim2" cx="0" cy="0" r="3.5"/>
                <g id="zoomPlus">
                        <use xlink:href="#rim" fill="#404040">
                                <set attributeName="fill" to="#808080" begin="zoomplus.mouseover" end="zoomplus.mouseout"/>
                        </use>
                        <path d="M-4,0h8M0,-4v8" fill="none" stroke="white" stroke-width="1.5" pointer-events="none"/>
                </g>
                <g id="zoomMin">
                        <use xlink:href="#rim" fill="#404040">
                                <set attributeName="fill" to="#808080" begin="zoomminus.mouseover" end="zoomminus.mouseout"/>
                        </use>
                        <path d="M-4,0h8" fill="none" stroke="white" stroke-width="1.5" pointer-events="none"/>
                </g>
                <g id="dirArrow">
                        <path fill="none" stroke="white" stroke-width="1.5" d="M0,-3.0v7 M-2.5,-0.5L0,-3.0L2.5,-0.5"/>
                </g>
               <g id="resetDef">
                       <use xlink:href="#rim2" fill="#404040">
                               <set attributeName="fill" to="#808080" begin="reset.mouseover" end="reset.mouseout"/>
                       </use>
               </g>
        </defs>

<script type="text/javascript">
var viewWidth = 1997;
var viewHeight = 330;
var sectionId = 'dynsection-0';
</script>
<script xlink:href="svgpan.js"/>
<svg id="graph" class="graph">
<g id="viewport">
<title>packed_variant.hpp</title>
<!-- Node1 -->
<g id="node1" class="node">
<title>Node1</title>
<g id="a_node1"><a xlink:title=" ">
<polygon fill="#bfbfbf" stroke="black" points="1746.5,-302.5 1746.5,-321.5 1858.5,-321.5 1858.5,-302.5 1746.5,-302.5"/>
<text text-anchor="middle" x="1802.5" y="-309.5" font-family="Helvetica,sans-Serif" font-size="10.00">packed_variant.hpp</text>
</a>
</g>
</g>
<!-- Node2 -->
<g id="node2" class="node">
<title>Node2</title>
<g id="a_node2"><a xlink:href="Variant_8hpp.html" target="_top" xlink:title=" ">
<polygon fill="none" stroke="black" points="1080,-246.5 1080,-265.5 1153,-265.5 1153,-246.5 1080,-246.5"/>
<text text-anchor="middle" x="1116.5" y="-253.5" font-family="Helvetica,sans-Serif" font-size="10.00">Variant.hpp</text>
</a>
</g>
</g>
<!-- Node1&#45;&gt;Node2 -->
<g id="edge1" class="edge">
<title>Node1&#45;&gt;Node2</title>
<path fill="none" stroke="midnightblue" d="M1746.36,-306.58C1614.22,-296.18 1285.48,-270.3 1163.25,-260.68"/>
<polygon fill="midnightblue" stroke="midnightblue" points="1163.34,-257.18 1153.1,-259.88 1162.79,-264.15 1163.34,-257.18"/>
</g>
<!-- Node5 -->
<g id="node5" class="node">
<title>Node5</title>
<g id="a_node5"><a xlink:title=" ">
<polygon fill="none" stroke="#bfbfbf" points="959,-0.5 959,-19.5 1012,-19.5 1012,-0.5 959,-0.5"/>
<text text-anchor="middle" x="985.5" y="-7.5" font-family="Helvetica,sans-Serif" font-size="10.00">cstddef</text>
</a>
</g>
</g>
<!-- Node1&#45;&gt;Node5 -->
<g id="edge44" class="edge">
<title>Node1&#45;&gt;Node5</title>
<path fill="none" stroke="midnightblue" d="M1821.41,-302.43C1853.58,-286.41 1915.5,-248.66 1915.5,-195.5 1915.5,-195.5 1915.5,-195.5 1915.5,-132 1915.5,-40.3 1195.29,-16.29 1022.45,-11.85"/>
<polygon fill="midnightblue" stroke="midnightblue" points="1022.41,-8.35 1012.33,-11.59 1022.24,-15.34 1022.41,-8.35"/>
</g>
<!-- Node19 -->
<g id="node19" class="node">
<title>Node19</title>
<g id="a_node19"><a xlink:title=" ">
<polygon fill="none" stroke="#bfbfbf" points="0,-123.5 0,-142.5 65,-142.5 65,-123.5 0,-123.5"/>
<text text-anchor="middle" x="32.5" y="-130.5" font-family="Helvetica,sans-Serif" font-size="10.00">functional</text>
</a>
</g>
</g>
<!-- Node1&#45;&gt;Node19 -->
<g id="edge45" class="edge">
<title>Node1&#45;&gt;Node19</title>
<path fill="none" stroke="midnightblue" d="M1746.49,-311.15C1549.4,-310.83 870.15,-302.62 319.5,-210 227.34,-194.5 121.76,-162.83 68,-145.67"/>
<polygon fill="midnightblue" stroke="midnightblue" points="68.86,-142.27 58.27,-142.54 66.71,-148.94 68.86,-142.27"/>
</g>
<!-- Node23 -->
<g id="node23" class="node">
<title>Node23</title>
<g id="a_node23"><a xlink:title=" ">
<polygon fill="none" stroke="#bfbfbf" points="1089,-123.5 1089,-142.5 1136,-142.5 1136,-123.5 1089,-123.5"/>
<text text-anchor="middle" x="1112.5" y="-130.5" font-family="Helvetica,sans-Serif" font-size="10.00">vector</text>
</a>
</g>
</g>
<!-- Node1&#45;&gt;Node23 -->
<g id="edge49" class="edge">
<title>Node1&#45;&gt;Node23</title>
<path fill="none" stroke="midnightblue" d="M1811.77,-302.45C1835.48,-279.6 1894.01,-216.34 1858.5,-179 1805.58,-123.35 1260.88,-153.65 1146.37,-142.58"/>
<polygon fill="midnightblue" stroke="midnightblue" points="1146.49,-139.06 1136.13,-141.28 1145.62,-146.01 1146.49,-139.06"/>
</g>
<!-- Node33 -->
<g id="node33" class="node">
<title>Node33</title>
<g id="a_node33"><a xlink:title=" ">
<polygon fill="none" stroke="#bfbfbf" points="1693.5,-185 1693.5,-204 1737.5,-204 1737.5,-185 1693.5,-185"/>
<text text-anchor="middle" x="1715.5" y="-192" font-family="Helvetica,sans-Serif" font-size="10.00">string</text>
</a>
</g>
</g>
<!-- Node1&#45;&gt;Node33 -->
<g id="edge46" class="edge">
<title>Node1&#45;&gt;Node33</title>
<path fill="none" stroke="midnightblue" d="M1795.96,-302.32C1781.6,-283.26 1747.1,-237.45 1728.27,-212.46"/>
<polygon fill="midnightblue" stroke="midnightblue" points="1730.93,-210.16 1722.12,-204.28 1725.34,-214.38 1730.93,-210.16"/>
</g>
<!-- Node34 -->
<g id="node34" class="node">
<title>Node34</title>
<g id="a_node34"><a xlink:title=" ">
<polygon fill="none" stroke="#bfbfbf" points="1756,-185 1756,-204 1849,-204 1849,-185 1756,-185"/>
<text text-anchor="middle" x="1802.5" y="-192" font-family="Helvetica,sans-Serif" font-size="10.00">unordered_map</text>
</a>
</g>
</g>
<!-- Node1&#45;&gt;Node34 -->
<g id="edge47" class="edge">
<title>Node1&#45;&gt;Node34</title>
<path fill="none" stroke="midnightblue" d="M1802.5,-302.32C1802.5,-283.76 1802.5,-239.84 1802.5,-214.47"/>
<polygon fill="midnightblue" stroke="midnightblue" points="1806,-214.28 1802.5,-204.28 1799,-214.28 1806,-214.28"/>
</g>
<!-- Node35 -->
<g id="node35" class="node">
<title>Node35</title>
<g id="a_node35"><a xlink:title=" ">
<polygon fill="none" stroke="#bfbfbf" points="1944,-246.5 1944,-265.5 1989,-265.5 1989,-246.5 1944,-246.5"/>
<text text-anchor="middle" x="1966.5" y="-253.5" font-family="Helvetica,sans-Serif" font-size="10.00">utility</text>
</a>
</g>
</g>
<!-- Node1&#45;&gt;Node35 -->
<g id="edge48" class="edge">
<title>Node1&#45;&gt;Node35</title>
<path fill="none" stroke="midnightblue" d="M1828.49,-302.44C1857.05,-293.04 1902.98,-277.91 1933.93,-267.72"/>
<polygon fill="midnightblue" stroke="midnightblue" points="1935.4,-270.93 1943.8,-264.47 1933.21,-264.28 1935.4,-270.93"/>
</g>
<!-- Node3 -->
<g id="node3" class="node">
<title>Node3</title>
<g id="a_node3"><a xlink:href="None_8hpp.html" target="_top" xlink:title=" ">
<polygon fill="none" stroke="black" points="1154,-123.5 1154,-142.5 1217,-142.5 1217,-123.5 1154,-123.5"/>
<text text-anchor="middle" x="1185.5" y="-130.5" font-family="Helvetica,sans-Serif" font-size="10.00">None.hpp</text>
</a>
</g>
</g>
<!-- Node2&#45;&gt;Node3 -->
<g id="edge2" class="edge">
<title>Node2&#45;&gt;Node3</title>
<path fill="none" stroke="midnightblue" d="M1153.05,-254.68C1267.32,-253.31 1612.26,-246.19 1645.5,-210 1654.82,-199.85 1654.76,-189.21 1645.5,-179 1617.69,-148.33 1335.76,-137.87 1227.52,-134.96"/>
<polygon fill="midnightblue" stroke="midnightblue" points="1227.38,-131.46 1217.29,-134.69 1227.2,-138.45 1227.38,-131.46"/>
</g>
<!-- Node2&#45;&gt;Node5 -->
<g id="edge38" class="edge">
<title>Node2&#45;&gt;Node5</title>
<path fill="none" stroke="midnightblue" d="M1079.68,-254.7C964.54,-253.4 617,-246.45 583.5,-210 574.18,-199.86 574.16,-189.13 583.5,-179 650.77,-106.07 950.26,-204 1028.5,-143 1059.71,-118.66 1065.48,-91.26 1047.5,-56 1040.5,-42.27 1027.13,-31.75 1014.6,-24.35"/>
<polygon fill="midnightblue" stroke="midnightblue" points="1016.18,-21.22 1005.72,-19.51 1012.83,-27.37 1016.18,-21.22"/>
</g>
<!-- Node6 -->
<g id="node6" class="node">
<title>Node6</title>
<g id="a_node6"><a xlink:href="Vector_8hpp.html" target="_top" xlink:title=" ">
<polygon fill="none" stroke="black" points="405,-185 405,-204 498,-204 498,-185 405,-185"/>
<text text-anchor="middle" x="451.5" y="-192" font-family="Helvetica,sans-Serif" font-size="10.00">utils/Vector.hpp</text>
</a>
</g>
</g>
<!-- Node2&#45;&gt;Node6 -->
<g id="edge5" class="edge">
<title>Node2&#45;&gt;Node6</title>
<path fill="none" stroke="midnightblue" d="M1079.84,-254.3C985.32,-252.04 725.77,-243.08 512.5,-210 506.22,-209.03 499.63,-207.74 493.19,-206.34"/>
<polygon fill="midnightblue" stroke="midnightblue" points="493.82,-202.89 483.29,-204.07 492.25,-209.71 493.82,-202.89"/>
</g>
<!-- Node22 -->
<g id="node22" class="node">
<title>Node22</title>
<g id="a_node22"><a xlink:title=" ">
<polygon fill="none" stroke="#bfbfbf" points="951,-123.5 951,-142.5 1020,-142.5 1020,-123.5 951,-123.5"/>
<text text-anchor="middle" x="985.5" y="-130.5" font-family="Helvetica,sans-Serif" font-size="10.00">type_traits</text>
</a>
</g>
</g>
<!-- Node2&#45;&gt;Node22 -->
<g id="edge41" class="edge">
<title>Node2&#45;&gt;Node22</title>
<path fill="none" stroke="midnightblue" d="M1079.95,-254.9C960.37,-254.19 586.41,-248.88 550.5,-210 541.15,-199.88 541.22,-189.18 550.5,-179 579.51,-147.16 893.83,-148.9 936.5,-143 937.8,-142.82 939.12,-142.63 940.45,-142.43"/>
<polygon fill="midnightblue" stroke="midnightblue" points="941.45,-145.82 950.76,-140.77 940.33,-138.91 941.45,-145.82"/>
</g>
<!-- Node2&#45;&gt;Node23 -->
<g id="edge43" class="edge">
<title>Node2&#45;&gt;Node23</title>
<path fill="none" stroke="midnightblue" d="M1116.21,-246.3C1115.57,-226.85 1114,-179.49 1113.12,-152.9"/>
<polygon fill="midnightblue" stroke="midnightblue" points="1116.61,-152.5 1112.79,-142.62 1109.62,-152.73 1116.61,-152.5"/>
</g>
<!-- Node24 -->
<g id="node24" class="node">
<title>Node24</title>
<g id="a_node24"><a xlink:title=" ">
<polygon fill="none" stroke="#bfbfbf" points="592.5,-185 592.5,-204 694.5,-204 694.5,-185 592.5,-185"/>
<text text-anchor="middle" x="643.5" y="-192" font-family="Helvetica,sans-Serif" font-size="10.00">boost/variant.hpp</text>
</a>
</g>
</g>
<!-- Node2&#45;&gt;Node24 -->
<g id="edge30" class="edge">
<title>Node2&#45;&gt;Node24</title>
<path fill="none" stroke="midnightblue" d="M1079.82,-252.59C1007.44,-247.5 841.34,-234.06 703.5,-210 697.62,-208.97 691.45,-207.71 685.4,-206.35"/>
<polygon fill="midnightblue" stroke="midnightblue" points="685.95,-202.88 675.41,-204.02 684.35,-209.7 685.95,-202.88"/>
</g>
<!-- Node25 -->
<g id="node25" class="node">
<title>Node25</title>
<g id="a_node25"><a xlink:title=" ">
<polygon fill="none" stroke="#bfbfbf" points="713,-179.5 713,-209.5 820,-209.5 820,-179.5 713,-179.5"/>
<text text-anchor="start" x="721" y="-197.5" font-family="Helvetica,sans-Serif" font-size="10.00">boost/serialization</text>
<text text-anchor="middle" x="766.5" y="-186.5" font-family="Helvetica,sans-Serif" font-size="10.00">/version.hpp</text>
</a>
</g>
</g>
<!-- Node2&#45;&gt;Node25 -->
<g id="edge31" class="edge">
<title>Node2&#45;&gt;Node25</title>
<path fill="none" stroke="midnightblue" d="M1079.98,-250.19C1027.02,-243.01 925.64,-228.55 830.31,-210.28"/>
<polygon fill="midnightblue" stroke="midnightblue" points="830.7,-206.79 820.22,-208.32 829.37,-213.66 830.7,-206.79"/>
</g>
<!-- Node26 -->
<g id="node26" class="node">
<title>Node26</title>
<g id="a_node26"><a xlink:title=" ">
<polygon fill="none" stroke="#bfbfbf" points="838,-179.5 838,-209.5 963,-209.5 963,-179.5 838,-179.5"/>
<text text-anchor="start" x="846" y="-197.5" font-family="Helvetica,sans-Serif" font-size="10.00">boost/range/algorithm</text>
<text text-anchor="middle" x="900.5" y="-186.5" font-family="Helvetica,sans-Serif" font-size="10.00">/transform.hpp</text>
</a>
</g>
</g>
<!-- Node2&#45;&gt;Node26 -->
<g id="edge32" class="edge">
<title>Node2&#45;&gt;Node26</title>
<path fill="none" stroke="midnightblue" d="M1085.55,-246.48C1053.22,-237.57 1001.67,-223.37 961.18,-212.22"/>
<polygon fill="midnightblue" stroke="midnightblue" points="961.98,-208.8 951.41,-209.52 960.12,-215.55 961.98,-208.8"/>
</g>
<!-- Node27 -->
<g id="node27" class="node">
<title>Node27</title>
<g id="a_node27"><a xlink:title=" ">
<polygon fill="none" stroke="#bfbfbf" points="981,-179.5 981,-209.5 1088,-209.5 1088,-179.5 981,-179.5"/>
<text text-anchor="start" x="989" y="-197.5" font-family="Helvetica,sans-Serif" font-size="10.00">boost/serialization</text>
<text text-anchor="middle" x="1034.5" y="-186.5" font-family="Helvetica,sans-Serif" font-size="10.00">/serialization.hpp</text>
</a>
</g>
</g>
<!-- Node2&#45;&gt;Node27 -->
<g id="edge33" class="edge">
<title>Node2&#45;&gt;Node27</title>
<path fill="none" stroke="midnightblue" d="M1104.75,-246.48C1093.65,-238.42 1076.57,-226.02 1062.03,-215.47"/>
<polygon fill="midnightblue" stroke="midnightblue" points="1063.98,-212.56 1053.83,-209.52 1059.86,-218.23 1063.98,-212.56"/>
</g>
<!-- Node28 -->
<g id="node28" class="node">
<title>Node28</title>
<g id="a_node28"><a xlink:title=" ">
<polygon fill="none" stroke="#bfbfbf" points="1145,-179.5 1145,-209.5 1252,-209.5 1252,-179.5 1145,-179.5"/>
<text text-anchor="start" x="1153" y="-197.5" font-family="Helvetica,sans-Serif" font-size="10.00">boost/serialization</text>
<text text-anchor="middle" x="1198.5" y="-186.5" font-family="Helvetica,sans-Serif" font-size="10.00">/string.hpp</text>
</a>
</g>
</g>
<!-- Node2&#45;&gt;Node28 -->
<g id="edge34" class="edge">
<title>Node2&#45;&gt;Node28</title>
<path fill="none" stroke="midnightblue" d="M1128.25,-246.48C1139.35,-238.42 1156.43,-226.02 1170.97,-215.47"/>
<polygon fill="midnightblue" stroke="midnightblue" points="1173.14,-218.23 1179.17,-209.52 1169.02,-212.56 1173.14,-218.23"/>
</g>
<!-- Node29 -->
<g id="node29" class="node">
<title>Node29</title>
<g id="a_node29"><a xlink:title=" ">
<polygon fill="none" stroke="#bfbfbf" points="1270,-179.5 1270,-209.5 1387,-209.5 1387,-179.5 1270,-179.5"/>
<text text-anchor="start" x="1278" y="-197.5" font-family="Helvetica,sans-Serif" font-size="10.00">boost/serialization</text>
<text text-anchor="middle" x="1328.5" y="-186.5" font-family="Helvetica,sans-Serif" font-size="10.00">/unordered_map.hpp</text>
</a>
</g>
</g>
<!-- Node2&#45;&gt;Node29 -->
<g id="edge35" class="edge">
<title>Node2&#45;&gt;Node29</title>
<path fill="none" stroke="midnightblue" d="M1146.87,-246.48C1178.54,-237.59 1228.99,-223.43 1268.69,-212.29"/>
<polygon fill="midnightblue" stroke="midnightblue" points="1269.85,-215.6 1278.54,-209.52 1267.96,-208.86 1269.85,-215.6"/>
</g>
<!-- Node30 -->
<g id="node30" class="node">
<title>Node30</title>
<g id="a_node30"><a xlink:title=" ">
<polygon fill="none" stroke="#bfbfbf" points="1405,-179.5 1405,-209.5 1512,-209.5 1512,-179.5 1405,-179.5"/>
<text text-anchor="start" x="1413" y="-197.5" font-family="Helvetica,sans-Serif" font-size="10.00">boost/serialization</text>
<text text-anchor="middle" x="1458.5" y="-186.5" font-family="Helvetica,sans-Serif" font-size="10.00">/variant.hpp</text>
</a>
</g>
</g>
<!-- Node2&#45;&gt;Node30 -->
<g id="edge36" class="edge">
<title>Node2&#45;&gt;Node30</title>
<path fill="none" stroke="midnightblue" d="M1153.2,-249.87C1204.85,-242.48 1302.12,-227.94 1395.08,-210"/>
<polygon fill="midnightblue" stroke="midnightblue" points="1395.79,-213.43 1404.94,-208.08 1394.45,-206.56 1395.79,-213.43"/>
</g>
<!-- Node31 -->
<g id="node31" class="node">
<title>Node31</title>
<g id="a_node31"><a xlink:title=" ">
<polygon fill="none" stroke="#bfbfbf" points="1530,-179.5 1530,-209.5 1637,-209.5 1637,-179.5 1530,-179.5"/>
<text text-anchor="start" x="1538" y="-197.5" font-family="Helvetica,sans-Serif" font-size="10.00">boost/serialization</text>
<text text-anchor="middle" x="1583.5" y="-186.5" font-family="Helvetica,sans-Serif" font-size="10.00">/vector.hpp</text>
</a>
</g>
</g>
<!-- Node2&#45;&gt;Node31 -->
<g id="edge37" class="edge">
<title>Node2&#45;&gt;Node31</title>
<path fill="none" stroke="midnightblue" d="M1153.19,-252.34C1222.7,-246.99 1378.52,-233.53 1519.82,-209.98"/>
<polygon fill="midnightblue" stroke="midnightblue" points="1520.69,-213.38 1529.97,-208.26 1519.53,-206.48 1520.69,-213.38"/>
</g>
<!-- Node32 -->
<g id="node32" class="node">
<title>Node32</title>
<g id="a_node32"><a xlink:title=" ">
<polygon fill="none" stroke="#bfbfbf" points="328.5,-185 328.5,-204 386.5,-204 386.5,-185 328.5,-185"/>
<text text-anchor="middle" x="357.5" y="-192" font-family="Helvetica,sans-Serif" font-size="10.00">memory</text>
</a>
</g>
</g>
<!-- Node2&#45;&gt;Node32 -->
<g id="edge39" class="edge">
<title>Node2&#45;&gt;Node32</title>
<path fill="none" stroke="midnightblue" d="M1079.78,-254.17C952.11,-251.06 528.18,-238.76 395.5,-210 392.42,-209.33 389.27,-208.46 386.15,-207.47"/>
<polygon fill="midnightblue" stroke="midnightblue" points="387.08,-204.09 376.49,-204.03 384.74,-210.68 387.08,-204.09"/>
</g>
<!-- Node2&#45;&gt;Node33 -->
<g id="edge40" class="edge">
<title>Node2&#45;&gt;Node33</title>
<path fill="none" stroke="midnightblue" d="M1153.24,-253.52C1261.63,-248.91 1578.81,-233.72 1679.5,-210 1682.17,-209.37 1684.91,-208.57 1687.62,-207.68"/>
<polygon fill="midnightblue" stroke="midnightblue" points="1689.01,-210.89 1697.17,-204.13 1686.57,-204.33 1689.01,-210.89"/>
</g>
<!-- Node2&#45;&gt;Node34 -->
<g id="edge42" class="edge">
<title>Node2&#45;&gt;Node34</title>
<path fill="none" stroke="midnightblue" d="M1153.34,-254.7C1250.82,-253.42 1523.31,-246.55 1746.5,-210 1752.07,-209.09 1757.9,-207.88 1763.61,-206.54"/>
<polygon fill="midnightblue" stroke="midnightblue" points="1764.79,-209.85 1773.65,-204.04 1763.1,-203.06 1764.79,-209.85"/>
</g>
<!-- Node4 -->
<g id="node4" class="node">
<title>Node4</title>
<g id="a_node4"><a xlink:title=" ">
<polygon fill="none" stroke="#bfbfbf" points="932,-56.5 932,-86.5 1039,-86.5 1039,-56.5 932,-56.5"/>
<text text-anchor="start" x="940" y="-74.5" font-family="Helvetica,sans-Serif" font-size="10.00">boost/serialization</text>
<text text-anchor="middle" x="985.5" y="-63.5" font-family="Helvetica,sans-Serif" font-size="10.00">/access.hpp</text>
</a>
</g>
</g>
<!-- Node3&#45;&gt;Node4 -->
<g id="edge3" class="edge">
<title>Node3&#45;&gt;Node4</title>
<path fill="none" stroke="midnightblue" d="M1156.84,-123.48C1127.1,-114.63 1079.78,-100.55 1042.4,-89.43"/>
<polygon fill="midnightblue" stroke="midnightblue" points="1043.22,-86.02 1032.64,-86.52 1041.22,-92.73 1043.22,-86.02"/>
</g>
<!-- Node3&#45;&gt;Node5 -->
<g id="edge4" class="edge">
<title>Node3&#45;&gt;Node5</title>
<path fill="none" stroke="midnightblue" d="M1175.04,-123.3C1156.81,-108.37 1117.67,-77.42 1081.5,-56 1060.36,-43.48 1035.18,-31.79 1015.9,-23.46"/>
<polygon fill="midnightblue" stroke="midnightblue" points="1017.26,-20.23 1006.69,-19.54 1014.52,-26.67 1017.26,-20.23"/>
</g>
<!-- Node6&#45;&gt;Node5 -->
<g id="edge23" class="edge">
<title>Node6&#45;&gt;Node5</title>
<path fill="none" stroke="midnightblue" d="M498.07,-185.35C511.72,-183.11 526.68,-180.81 540.5,-179 620.88,-168.48 842.95,-196.9 903.5,-143 933.06,-116.69 900.72,-89.05 922.5,-56 931.25,-42.73 945.36,-32.11 958.02,-24.53"/>
<polygon fill="midnightblue" stroke="midnightblue" points="959.87,-27.5 966.88,-19.55 956.44,-21.4 959.87,-27.5"/>
</g>
<!-- Node7 -->
<g id="node7" class="node">
<title>Node7</title>
<g id="a_node7"><a xlink:title=" ">
<polygon fill="none" stroke="#bfbfbf" points="586.5,-123.5 586.5,-142.5 736.5,-142.5 736.5,-123.5 586.5,-123.5"/>
<text text-anchor="middle" x="661.5" y="-130.5" font-family="Helvetica,sans-Serif" font-size="10.00">boost/qvm/deduce_vec.hpp</text>
</a>
</g>
</g>
<!-- Node6&#45;&gt;Node7 -->
<g id="edge6" class="edge">
<title>Node6&#45;&gt;Node7</title>
<path fill="none" stroke="midnightblue" d="M481.59,-184.98C518.39,-174.55 580.81,-156.86 621.59,-145.31"/>
<polygon fill="midnightblue" stroke="midnightblue" points="622.8,-148.6 631.47,-142.51 620.89,-141.87 622.8,-148.6"/>
</g>
<!-- Node8 -->
<g id="node8" class="node">
<title>Node8</title>
<g id="a_node8"><a xlink:title=" ">
<polygon fill="none" stroke="#bfbfbf" points="754.5,-123.5 754.5,-142.5 894.5,-142.5 894.5,-123.5 754.5,-123.5"/>
<text text-anchor="middle" x="824.5" y="-130.5" font-family="Helvetica,sans-Serif" font-size="10.00">boost/qvm/vec_traits.hpp</text>
</a>
</g>
</g>
<!-- Node6&#45;&gt;Node8 -->
<g id="edge7" class="edge">
<title>Node6&#45;&gt;Node8</title>
<path fill="none" stroke="midnightblue" d="M484.94,-184.98C493.86,-182.86 503.52,-180.71 512.5,-179 590.8,-164.08 680.99,-151.57 744.2,-143.56"/>
<polygon fill="midnightblue" stroke="midnightblue" points="745.01,-146.98 754.5,-142.26 744.14,-140.04 745.01,-146.98"/>
</g>
<!-- Node9 -->
<g id="node9" class="node">
<title>Node9</title>
<g id="a_node9"><a xlink:href="Array_8hpp.html" target="_top" xlink:title=" ">
<polygon fill="none" stroke="black" points="408.5,-123.5 408.5,-142.5 494.5,-142.5 494.5,-123.5 408.5,-123.5"/>
<text text-anchor="middle" x="451.5" y="-130.5" font-family="Helvetica,sans-Serif" font-size="10.00">utils/Array.hpp</text>
</a>
</g>
</g>
<!-- Node6&#45;&gt;Node9 -->
<g id="edge8" class="edge">
<title>Node6&#45;&gt;Node9</title>
<path fill="none" stroke="midnightblue" d="M451.5,-184.98C451.5,-176.58 451.5,-163.48 451.5,-152.66"/>
<polygon fill="midnightblue" stroke="midnightblue" points="455,-152.51 451.5,-142.51 448,-152.51 455,-152.51"/>
</g>
<!-- Node11 -->
<g id="node11" class="node">
<title>Node11</title>
<g id="a_node11"><a xlink:title=" ">
<polygon fill="none" stroke="#bfbfbf" points="368.5,-0.5 368.5,-19.5 420.5,-19.5 420.5,-0.5 368.5,-0.5"/>
<text text-anchor="middle" x="394.5" y="-7.5" font-family="Helvetica,sans-Serif" font-size="10.00">cassert</text>
</a>
</g>
</g>
<!-- Node6&#45;&gt;Node11 -->
<g id="edge21" class="edge">
<title>Node6&#45;&gt;Node11</title>
<path fill="none" stroke="midnightblue" d="M421.43,-184.97C413.08,-182.8 403.98,-180.63 395.5,-179 333.24,-167.03 154.4,-190.57 112.5,-143 38.86,-59.4 266.55,-24.86 358.13,-14.56"/>
<polygon fill="midnightblue" stroke="midnightblue" points="358.77,-18.01 368.34,-13.45 358.02,-11.05 358.77,-18.01"/>
</g>
<!-- Node14 -->
<g id="node14" class="node">
<title>Node14</title>
<g id="a_node14"><a xlink:title=" ">
<polygon fill="none" stroke="#bfbfbf" points="313,-62 313,-81 366,-81 366,-62 313,-62"/>
<text text-anchor="middle" x="339.5" y="-69" font-family="Helvetica,sans-Serif" font-size="10.00">iterator</text>
</a>
</g>
</g>
<!-- Node6&#45;&gt;Node14 -->
<g id="edge26" class="edge">
<title>Node6&#45;&gt;Node14</title>
<path fill="none" stroke="midnightblue" d="M442.03,-184.82C431.4,-174.96 413.78,-158.25 399.5,-143 382.94,-125.32 365.08,-104.02 353.2,-89.49"/>
<polygon fill="midnightblue" stroke="midnightblue" points="355.65,-86.97 346.63,-81.41 350.22,-91.38 355.65,-86.97"/>
</g>
<!-- Node17 -->
<g id="node17" class="node">
<title>Node17</title>
<g id="a_node17"><a xlink:title=" ">
<polygon fill="none" stroke="#bfbfbf" points="121.5,-123.5 121.5,-142.5 185.5,-142.5 185.5,-123.5 121.5,-123.5"/>
<text text-anchor="middle" x="153.5" y="-130.5" font-family="Helvetica,sans-Serif" font-size="10.00">algorithm</text>
</a>
</g>
</g>
<!-- Node6&#45;&gt;Node17 -->
<g id="edge20" class="edge">
<title>Node6&#45;&gt;Node17</title>
<path fill="none" stroke="midnightblue" d="M420.21,-184.95C412.18,-182.88 403.55,-180.76 395.5,-179 309.96,-160.29 285.23,-160.68 195.75,-143.18"/>
<polygon fill="midnightblue" stroke="midnightblue" points="196.19,-139.7 185.7,-141.19 194.84,-146.57 196.19,-139.7"/>
</g>
<!-- Node18 -->
<g id="node18" class="node">
<title>Node18</title>
<g id="a_node18"><a xlink:title=" ">
<polygon fill="none" stroke="#bfbfbf" points="204,-123.5 204,-142.5 251,-142.5 251,-123.5 204,-123.5"/>
<text text-anchor="middle" x="227.5" y="-130.5" font-family="Helvetica,sans-Serif" font-size="10.00">cmath</text>
</a>
</g>
</g>
<!-- Node6&#45;&gt;Node18 -->
<g id="edge22" class="edge">
<title>Node6&#45;&gt;Node18</title>
<path fill="none" stroke="midnightblue" d="M418.7,-184.94C375.83,-173.75 302.14,-154.47 260.98,-143.37"/>
<polygon fill="midnightblue" stroke="midnightblue" points="261.82,-139.97 251.25,-140.73 259.99,-146.72 261.82,-139.97"/>
</g>
<!-- Node6&#45;&gt;Node19 -->
<g id="edge24" class="edge">
<title>Node6&#45;&gt;Node19</title>
<path fill="none" stroke="midnightblue" d="M421.74,-184.97C413.31,-182.78 404.09,-180.59 395.5,-179 256.52,-153.22 219.24,-164.31 79.5,-143 78.04,-142.78 76.55,-142.54 75.05,-142.3"/>
<polygon fill="midnightblue" stroke="midnightblue" points="75.51,-138.82 65.06,-140.57 74.32,-145.72 75.51,-138.82"/>
</g>
<!-- Node20 -->
<g id="node20" class="node">
<title>Node20</title>
<g id="a_node20"><a xlink:title=" ">
<polygon fill="none" stroke="#bfbfbf" points="269,-123.5 269,-142.5 352,-142.5 352,-123.5 269,-123.5"/>
<text text-anchor="middle" x="310.5" y="-130.5" font-family="Helvetica,sans-Serif" font-size="10.00">initializer_list</text>
</a>
</g>
</g>
<!-- Node6&#45;&gt;Node20 -->
<g id="edge25" class="edge">
<title>Node6&#45;&gt;Node20</title>
<path fill="none" stroke="midnightblue" d="M431.3,-184.98C407.43,-174.9 367.5,-158.05 340.13,-146.5"/>
<polygon fill="midnightblue" stroke="midnightblue" points="341.24,-143.17 330.66,-142.51 338.52,-149.62 341.24,-143.17"/>
</g>
<!-- Node21 -->
<g id="node21" class="node">
<title>Node21</title>
<g id="a_node21"><a xlink:title=" ">
<polygon fill="none" stroke="#bfbfbf" points="512.5,-123.5 512.5,-142.5 568.5,-142.5 568.5,-123.5 512.5,-123.5"/>
<text text-anchor="middle" x="540.5" y="-130.5" font-family="Helvetica,sans-Serif" font-size="10.00">numeric</text>
</a>
</g>
</g>
<!-- Node6&#45;&gt;Node21 -->
<g id="edge27" class="edge">
<title>Node6&#45;&gt;Node21</title>
<path fill="none" stroke="midnightblue" d="M464.25,-184.98C478.53,-175.43 501.9,-159.81 519.01,-148.37"/>
<polygon fill="midnightblue" stroke="midnightblue" points="521.4,-150.98 527.77,-142.51 517.51,-145.16 521.4,-150.98"/>
</g>
<!-- Node6&#45;&gt;Node22 -->
<g id="edge28" class="edge">
<title>Node6&#45;&gt;Node22</title>
<path fill="none" stroke="midnightblue" d="M483.3,-185C492.65,-182.75 502.93,-180.53 512.5,-179 699.24,-149.05 749.05,-168.11 936.5,-143 937.8,-142.83 939.12,-142.64 940.45,-142.45"/>
<polygon fill="midnightblue" stroke="midnightblue" points="941.44,-145.83 950.77,-140.81 940.34,-138.92 941.44,-145.83"/>
</g>
<!-- Node6&#45;&gt;Node23 -->
<g id="edge29" class="edge">
<title>Node6&#45;&gt;Node23</title>
<path fill="none" stroke="midnightblue" d="M498.2,-188.04C523.44,-185.17 555.16,-181.7 583.5,-179 781.03,-160.16 830.95,-161.57 1028.5,-143 1045.11,-141.44 1063.54,-139.49 1078.9,-137.8"/>
<polygon fill="midnightblue" stroke="midnightblue" points="1079.43,-141.27 1088.98,-136.69 1078.66,-134.31 1079.43,-141.27"/>
</g>
<!-- Node9&#45;&gt;Node4 -->
<g id="edge14" class="edge">
<title>Node9&#45;&gt;Node4</title>
<path fill="none" stroke="midnightblue" d="M494.59,-124.31C497.61,-123.84 500.6,-123.4 503.5,-123 657.53,-101.73 696.87,-103.36 851.5,-87 874.4,-84.58 899.5,-81.87 921.73,-79.46"/>
<polygon fill="midnightblue" stroke="midnightblue" points="922.15,-82.94 931.71,-78.38 921.39,-75.98 922.15,-82.94"/>
</g>
<!-- Node9&#45;&gt;Node5 -->
<g id="edge16" class="edge">
<title>Node9&#45;&gt;Node5</title>
<path fill="none" stroke="midnightblue" d="M494.6,-124.36C497.61,-123.88 500.6,-123.42 503.5,-123 636.37,-103.54 673.64,-121.2 803.5,-87 833.91,-78.99 914.39,-43.35 957.42,-23.85"/>
<polygon fill="midnightblue" stroke="midnightblue" points="959.1,-26.93 966.75,-19.61 956.2,-20.56 959.1,-26.93"/>
</g>
<!-- Node10 -->
<g id="node10" class="node">
<title>Node10</title>
<g id="a_node10"><a xlink:href="device__qualifier_8hpp.html" target="_top" xlink:title=" ">
<polygon fill="none" stroke="black" points="581.5,-62 581.5,-81 697.5,-81 697.5,-62 581.5,-62"/>
<text text-anchor="middle" x="639.5" y="-69" font-family="Helvetica,sans-Serif" font-size="10.00">device_qualifier.hpp</text>
</a>
</g>
</g>
<!-- Node9&#45;&gt;Node10 -->
<g id="edge9" class="edge">
<title>Node9&#45;&gt;Node10</title>
<path fill="none" stroke="midnightblue" d="M478.44,-123.48C511.1,-113.14 566.32,-95.66 602.84,-84.1"/>
<polygon fill="midnightblue" stroke="midnightblue" points="604.14,-87.36 612.61,-81.01 602.02,-80.69 604.14,-87.36"/>
</g>
<!-- Node9&#45;&gt;Node11 -->
<g id="edge15" class="edge">
<title>Node9&#45;&gt;Node11</title>
<path fill="none" stroke="midnightblue" d="M441.96,-123.26C433.29,-114.8 420.77,-101.2 413.5,-87 404.22,-68.88 399.3,-45.97 396.81,-30.06"/>
<polygon fill="midnightblue" stroke="midnightblue" points="400.24,-29.31 395.4,-19.89 393.31,-30.27 400.24,-29.31"/>
</g>
<!-- Node12 -->
<g id="node12" class="node">
<title>Node12</title>
<g id="a_node12"><a xlink:href="get_8hpp.html" target="_top" xlink:title=" ">
<polygon fill="none" stroke="black" points="742,-62 742,-81 795,-81 795,-62 742,-62"/>
<text text-anchor="middle" x="768.5" y="-69" font-family="Helvetica,sans-Serif" font-size="10.00">get.hpp</text>
</a>
</g>
</g>
<!-- Node9&#45;&gt;Node12 -->
<g id="edge11" class="edge">
<title>Node9&#45;&gt;Node12</title>
<path fill="none" stroke="midnightblue" d="M494.76,-124.5C562.03,-112.82 686.13,-91.18 706.5,-87 714.74,-85.31 723.55,-83.35 731.88,-81.42"/>
<polygon fill="midnightblue" stroke="midnightblue" points="732.78,-84.8 741.72,-79.1 731.18,-77.99 732.78,-84.8"/>
</g>
<!-- Node9&#45;&gt;Node14 -->
<g id="edge17" class="edge">
<title>Node9&#45;&gt;Node14</title>
<path fill="none" stroke="midnightblue" d="M435.45,-123.48C416.91,-113.62 386.16,-97.29 364.48,-85.77"/>
<polygon fill="midnightblue" stroke="midnightblue" points="365.99,-82.61 355.52,-81.01 362.71,-88.79 365.99,-82.61"/>
</g>
<!-- Node15 -->
<g id="node15" class="node">
<title>Node15</title>
<g id="a_node15"><a xlink:title=" ">
<polygon fill="none" stroke="#bfbfbf" points="423,-62 423,-81 480,-81 480,-62 423,-62"/>
<text text-anchor="middle" x="451.5" y="-69" font-family="Helvetica,sans-Serif" font-size="10.00">ostream</text>
</a>
</g>
</g>
<!-- Node9&#45;&gt;Node15 -->
<g id="edge18" class="edge">
<title>Node9&#45;&gt;Node15</title>
<path fill="none" stroke="midnightblue" d="M451.5,-123.48C451.5,-115.08 451.5,-101.98 451.5,-91.16"/>
<polygon fill="midnightblue" stroke="midnightblue" points="455,-91.01 451.5,-81.01 448,-91.01 455,-91.01"/>
</g>
<!-- Node16 -->
<g id="node16" class="node">
<title>Node16</title>
<g id="a_node16"><a xlink:title=" ">
<polygon fill="none" stroke="#bfbfbf" points="498,-62 498,-81 563,-81 563,-62 498,-62"/>
<text text-anchor="middle" x="530.5" y="-69" font-family="Helvetica,sans-Serif" font-size="10.00">stdexcept</text>
</a>
</g>
</g>
<!-- Node9&#45;&gt;Node16 -->
<g id="edge19" class="edge">
<title>Node9&#45;&gt;Node16</title>
<path fill="none" stroke="midnightblue" d="M462.82,-123.48C475.37,-114.02 495.85,-98.6 511,-87.19"/>
<polygon fill="midnightblue" stroke="midnightblue" points="513.32,-89.82 519.2,-81.01 509.11,-84.23 513.32,-89.82"/>
</g>
<!-- Node10&#45;&gt;Node11 -->
<g id="edge10" class="edge">
<title>Node10&#45;&gt;Node11</title>
<path fill="none" stroke="midnightblue" d="M604.4,-61.98C558.15,-50.74 477.21,-31.09 430.51,-19.75"/>
<polygon fill="midnightblue" stroke="midnightblue" points="431.07,-16.28 420.53,-17.32 429.42,-23.08 431.07,-16.28"/>
</g>
<!-- Node12&#45;&gt;Node5 -->
<g id="edge12" class="edge">
<title>Node12&#45;&gt;Node5</title>
<path fill="none" stroke="midnightblue" d="M795.11,-63.2C833.67,-52.63 905.21,-33.02 948.77,-21.07"/>
<polygon fill="midnightblue" stroke="midnightblue" points="949.96,-24.38 958.67,-18.36 948.1,-17.62 949.96,-24.38"/>
</g>
<!-- Node13 -->
<g id="node13" class="node">
<title>Node13</title>
<g id="a_node13"><a xlink:title=" ">
<polygon fill="none" stroke="#bfbfbf" points="748,-0.5 748,-19.5 789,-19.5 789,-0.5 748,-0.5"/>
<text text-anchor="middle" x="768.5" y="-7.5" font-family="Helvetica,sans-Serif" font-size="10.00">tuple</text>
</a>
</g>
</g>
<!-- Node12&#45;&gt;Node13 -->
<g id="edge13" class="edge">
<title>Node12&#45;&gt;Node13</title>
<path fill="none" stroke="midnightblue" d="M768.5,-61.98C768.5,-53.58 768.5,-40.48 768.5,-29.66"/>
<polygon fill="midnightblue" stroke="midnightblue" points="772,-29.51 768.5,-19.51 765,-29.51 772,-29.51"/>
</g>
</g>
</svg>
        <g id="navigator" transform="translate(0 0)" fill="#404254">
                <rect fill="#f2f5e9" fill-opacity="0.5" stroke="#606060" stroke-width=".5" x="0" y="0" width="60" height="60"/>
                <use id="zoomplus" xlink:href="#zoomPlus" x="17" y="9" onmousedown="handleZoom(evt,'in')"/>
                <use id="zoomminus" xlink:href="#zoomMin" x="42" y="9" onmousedown="handleZoom(evt,'out')"/>
                <use id="reset" xlink:href="#resetDef" x="30" y="36" onmousedown="handleReset()"/>
                <g id="arrowUp" xlink:href="#dirArrow" transform="translate(30 24)" onmousedown="handlePan(0,-1)">
                  <use xlink:href="#rim" fill="#404040">
                        <set attributeName="fill" to="#808080" begin="arrowUp.mouseover" end="arrowUp.mouseout"/>
                  </use>
                  <path fill="none" stroke="white" stroke-width="1.5" d="M0,-3.0v7 M-2.5,-0.5L0,-3.0L2.5,-0.5"/>
                </g>
                <g id="arrowRight" xlink:href="#dirArrow" transform="rotate(90) translate(36 -43)" onmousedown="handlePan(1,0)">
                  <use xlink:href="#rim" fill="#404040">
                        <set attributeName="fill" to="#808080" begin="arrowRight.mouseover" end="arrowRight.mouseout"/>
                  </use>
                  <path fill="none" stroke="white" stroke-width="1.5" d="M0,-3.0v7 M-2.5,-0.5L0,-3.0L2.5,-0.5"/>
                </g>
                <g id="arrowDown" xlink:href="#dirArrow" transform="rotate(180) translate(-30 -48)" onmousedown="handlePan(0,1)">
                  <use xlink:href="#rim" fill="#404040">
                        <set attributeName="fill" to="#808080" begin="arrowDown.mouseover" end="arrowDown.mouseout"/>
                  </use>
                  <path fill="none" stroke="white" stroke-width="1.5" d="M0,-3.0v7 M-2.5,-0.5L0,-3.0L2.5,-0.5"/>
                </g>
                <g id="arrowLeft" xlink:href="#dirArrow" transform="rotate(270) translate(-36 17)" onmousedown="handlePan(-1,0)">
                  <use xlink:href="#rim" fill="#404040">
                        <set attributeName="fill" to="#808080" begin="arrowLeft.mouseover" end="arrowLeft.mouseout"/>
                  </use>
                  <path fill="none" stroke="white" stroke-width="1.5" d="M0,-3.0v7 M-2.5,-0.5L0,-3.0L2.5,-0.5"/>
                </g>
        </g>
        <svg viewBox="0 0 15 15" width="100%" height="30px" preserveAspectRatio="xMaxYMin meet">
         <g id="arrow_out" transform="scale(0.3 0.3)">
          <a xlink:href="packed__variant_8hpp__incl_org.svg" target="_base">
           <rect id="button" ry="5" rx="5" y="6" x="6" height="38" width="38"
                fill="#f2f5e9" fill-opacity="0.5" stroke="#606060" stroke-width="1.0"/>
           <path id="arrow"
             d="M 11.500037,31.436501 C 11.940474,20.09759 22.043105,11.32322 32.158766,21.979434 L 37.068811,17.246167 C 37.068811,17.246167 37.088388,32 37.088388,32 L 22.160133,31.978069 C 22.160133,31.978069 26.997745,27.140456 26.997745,27.140456 C 18.528582,18.264221 13.291696,25.230495 11.500037,31.436501 z"
             style="fill:#404040;"/>
          </a>
         </g>
        </svg>
</svg>
