<?xml version="1.0" encoding="UTF-8" standalone="no"?>
<!DOCTYPE svg PUBLIC "-//W3C//DTD SVG 1.1//EN"
 "http://www.w3.org/Graphics/SVG/1.1/DTD/svg11.dtd">
<!-- Generated by graphviz version 2.43.0 (0)
 -->
<!-- Title: pack.hpp Pages: 1 -->
<svg width="636pt" height="196pt"
 viewBox="0.00 0.00 635.50 196.00" xmlns="http://www.w3.org/2000/svg" xmlns:xlink="http://www.w3.org/1999/xlink">
<g id="graph0" class="graph" transform="scale(1 1) rotate(0) translate(4 192)">
<title>pack.hpp</title>
<!-- Node1 -->
<g id="node1" class="node">
<title>Node1</title>
<g id="a_node1"><a xlink:title=" ">
<polygon fill="#bfbfbf" stroke="black" points="220.5,-168.5 220.5,-187.5 281.5,-187.5 281.5,-168.5 220.5,-168.5"/>
<text text-anchor="middle" x="251" y="-175.5" font-family="Helvetica,sans-Serif" font-size="10.00">pack.hpp</text>
</a>
</g>
</g>
<!-- Node2 -->
<g id="node2" class="node">
<title>Node2</title>
<g id="a_node2"><a xlink:href="ContextManager_8cpp.html" target="_top" xlink:title=" ">
<polygon fill="none" stroke="black" points="0,-112.5 0,-131.5 118,-131.5 118,-112.5 0,-112.5"/>
<text text-anchor="middle" x="59" y="-119.5" font-family="Helvetica,sans-Serif" font-size="10.00">ContextManager.cpp</text>
</a>
</g>
</g>
<!-- Node1&#45;&gt;Node2 -->
<g id="edge1" class="edge">
<title>Node1&#45;&gt;Node2</title>
<path fill="none" stroke="midnightblue" d="M210.82,-165.7C174.58,-155.51 122.09,-140.74 89.28,-131.52"/>
<polygon fill="midnightblue" stroke="midnightblue" points="210,-169.11 220.58,-168.44 211.9,-162.37 210,-169.11"/>
</g>
<!-- Node3 -->
<g id="node3" class="node">
<title>Node3</title>
<g id="a_node3"><a xlink:href="GlobalContext_8cpp.html" target="_top" xlink:title=" ">
<polygon fill="none" stroke="black" points="136.5,-112.5 136.5,-131.5 243.5,-131.5 243.5,-112.5 136.5,-112.5"/>
<text text-anchor="middle" x="190" y="-119.5" font-family="Helvetica,sans-Serif" font-size="10.00">GlobalContext.cpp</text>
</a>
</g>
</g>
<!-- Node1&#45;&gt;Node3 -->
<g id="edge2" class="edge">
<title>Node1&#45;&gt;Node3</title>
<path fill="none" stroke="midnightblue" d="M233.53,-161.54C222.66,-151.91 209.06,-139.87 199.98,-131.83"/>
<polygon fill="midnightblue" stroke="midnightblue" points="231.39,-164.32 241.2,-168.32 236.03,-159.07 231.39,-164.32"/>
</g>
<!-- Node4 -->
<g id="node4" class="node">
<title>Node4</title>
<g id="a_node4"><a xlink:href="ObjectHandle_8cpp.html" target="_top" xlink:title=" ">
<polygon fill="none" stroke="black" points="261.5,-112.5 261.5,-131.5 364.5,-131.5 364.5,-112.5 261.5,-112.5"/>
<text text-anchor="middle" x="313" y="-119.5" font-family="Helvetica,sans-Serif" font-size="10.00">ObjectHandle.cpp</text>
</a>
</g>
</g>
<!-- Node1&#45;&gt;Node4 -->
<g id="edge3" class="edge">
<title>Node1&#45;&gt;Node4</title>
<path fill="none" stroke="midnightblue" d="M268.75,-161.54C279.81,-151.91 293.63,-139.87 302.86,-131.83"/>
<polygon fill="midnightblue" stroke="midnightblue" points="266.2,-159.12 260.96,-168.32 270.8,-164.4 266.2,-159.12"/>
</g>
<!-- Node5 -->
<g id="node5" class="node">
<title>Node5</title>
<g id="a_node5"><a xlink:href="ObjectList_8hpp.html" target="_top" xlink:title=" ">
<polygon fill="none" stroke="black" points="383,-112.5 383,-131.5 469,-131.5 469,-112.5 383,-112.5"/>
<text text-anchor="middle" x="426" y="-119.5" font-family="Helvetica,sans-Serif" font-size="10.00">ObjectList.hpp</text>
</a>
</g>
</g>
<!-- Node1&#45;&gt;Node5 -->
<g id="edge4" class="edge">
<title>Node1&#45;&gt;Node5</title>
<path fill="none" stroke="midnightblue" d="M288.47,-165.44C321.47,-155.26 368.76,-140.66 398.4,-131.52"/>
<polygon fill="midnightblue" stroke="midnightblue" points="287.25,-162.15 278.73,-168.44 289.32,-168.84 287.25,-162.15"/>
</g>
<!-- Node6 -->
<g id="node6" class="node">
<title>Node6</title>
<g id="a_node6"><a xlink:href="AutoUpdateAccumulators_8hpp.html" target="_top" xlink:title=" ">
<polygon fill="none" stroke="black" points="141,-56.5 141,-75.5 303,-75.5 303,-56.5 141,-56.5"/>
<text text-anchor="middle" x="222" y="-63.5" font-family="Helvetica,sans-Serif" font-size="10.00">AutoUpdateAccumulators.hpp</text>
</a>
</g>
</g>
<!-- Node5&#45;&gt;Node6 -->
<g id="edge5" class="edge">
<title>Node5&#45;&gt;Node6</title>
<path fill="none" stroke="midnightblue" d="M383.8,-109.83C345.28,-99.63 289.18,-84.78 254.17,-75.52"/>
<polygon fill="midnightblue" stroke="midnightblue" points="383.11,-113.27 393.68,-112.44 384.9,-106.5 383.11,-113.27"/>
</g>
<!-- Node8 -->
<g id="node8" class="node">
<title>Node8</title>
<g id="a_node8"><a xlink:href="script__interface_2constraints_2Constraints_8hpp.html" target="_top" xlink:title=" ">
<polygon fill="none" stroke="black" points="321.5,-56.5 321.5,-75.5 414.5,-75.5 414.5,-56.5 321.5,-56.5"/>
<text text-anchor="middle" x="368" y="-63.5" font-family="Helvetica,sans-Serif" font-size="10.00">Constraints.hpp</text>
</a>
</g>
</g>
<!-- Node5&#45;&gt;Node8 -->
<g id="edge7" class="edge">
<title>Node5&#45;&gt;Node8</title>
<path fill="none" stroke="midnightblue" d="M409.09,-105.25C398.8,-95.67 386.03,-83.79 377.49,-75.83"/>
<polygon fill="midnightblue" stroke="midnightblue" points="406.98,-108.07 416.68,-112.32 411.75,-102.95 406.98,-108.07"/>
</g>
<!-- Node10 -->
<g id="node10" class="node">
<title>Node10</title>
<g id="a_node10"><a xlink:href="LBBoundaries_8hpp.html" target="_top" xlink:title=" ">
<polygon fill="none" stroke="black" points="433,-56.5 433,-75.5 537,-75.5 537,-56.5 433,-56.5"/>
<text text-anchor="middle" x="485" y="-63.5" font-family="Helvetica,sans-Serif" font-size="10.00">LBBoundaries.hpp</text>
</a>
</g>
</g>
<!-- Node5&#45;&gt;Node10 -->
<g id="edge9" class="edge">
<title>Node5&#45;&gt;Node10</title>
<path fill="none" stroke="midnightblue" d="M442.89,-105.54C453.41,-95.91 466.57,-83.87 475.35,-75.83"/>
<polygon fill="midnightblue" stroke="midnightblue" points="440.49,-102.99 435.48,-112.32 445.22,-108.15 440.49,-102.99"/>
</g>
<!-- Node12 -->
<g id="node12" class="node">
<title>Node12</title>
<g id="a_node12"><a xlink:href="script__interface_2shapes_2Union_8hpp.html" target="_top" xlink:title=" ">
<polygon fill="none" stroke="black" points="555,-56.5 555,-75.5 621,-75.5 621,-56.5 555,-56.5"/>
<text text-anchor="middle" x="588" y="-63.5" font-family="Helvetica,sans-Serif" font-size="10.00">Union.hpp</text>
</a>
</g>
</g>
<!-- Node5&#45;&gt;Node12 -->
<g id="edge11" class="edge">
<title>Node5&#45;&gt;Node12</title>
<path fill="none" stroke="midnightblue" d="M461.48,-109.17C491.99,-99 535.24,-84.59 562.45,-75.52"/>
<polygon fill="midnightblue" stroke="midnightblue" points="460.05,-105.96 451.67,-112.44 462.26,-112.6 460.05,-105.96"/>
</g>
<!-- Node7 -->
<g id="node7" class="node">
<title>Node7</title>
<g id="a_node7"><a xlink:href="accumulators_2initialize_8cpp.html" target="_top" xlink:title=" ">
<polygon fill="none" stroke="black" points="182.5,-0.5 182.5,-19.5 261.5,-19.5 261.5,-0.5 182.5,-0.5"/>
<text text-anchor="middle" x="222" y="-7.5" font-family="Helvetica,sans-Serif" font-size="10.00">initialize.cpp</text>
</a>
</g>
</g>
<!-- Node6&#45;&gt;Node7 -->
<g id="edge6" class="edge">
<title>Node6&#45;&gt;Node7</title>
<path fill="none" stroke="midnightblue" d="M222,-45.8C222,-36.91 222,-26.78 222,-19.75"/>
<polygon fill="midnightblue" stroke="midnightblue" points="218.5,-46.08 222,-56.08 225.5,-46.08 218.5,-46.08"/>
</g>
<!-- Node9 -->
<g id="node9" class="node">
<title>Node9</title>
<g id="a_node9"><a xlink:href="constraints_2initialize_8cpp.html" target="_top" xlink:title=" ">
<polygon fill="none" stroke="black" points="328.5,-0.5 328.5,-19.5 407.5,-19.5 407.5,-0.5 328.5,-0.5"/>
<text text-anchor="middle" x="368" y="-7.5" font-family="Helvetica,sans-Serif" font-size="10.00">initialize.cpp</text>
</a>
</g>
</g>
<!-- Node8&#45;&gt;Node9 -->
<g id="edge8" class="edge">
<title>Node8&#45;&gt;Node9</title>
<path fill="none" stroke="midnightblue" d="M368,-45.8C368,-36.91 368,-26.78 368,-19.75"/>
<polygon fill="midnightblue" stroke="midnightblue" points="364.5,-46.08 368,-56.08 371.5,-46.08 364.5,-46.08"/>
</g>
<!-- Node11 -->
<g id="node11" class="node">
<title>Node11</title>
<g id="a_node11"><a xlink:href="lbboundaries_2initialize_8cpp.html" target="_top" xlink:title=" ">
<polygon fill="none" stroke="black" points="445.5,-0.5 445.5,-19.5 524.5,-19.5 524.5,-0.5 445.5,-0.5"/>
<text text-anchor="middle" x="485" y="-7.5" font-family="Helvetica,sans-Serif" font-size="10.00">initialize.cpp</text>
</a>
</g>
</g>
<!-- Node10&#45;&gt;Node11 -->
<g id="edge10" class="edge">
<title>Node10&#45;&gt;Node11</title>
<path fill="none" stroke="midnightblue" d="M485,-45.8C485,-36.91 485,-26.78 485,-19.75"/>
<polygon fill="midnightblue" stroke="midnightblue" points="481.5,-46.08 485,-56.08 488.5,-46.08 481.5,-46.08"/>
</g>
<!-- Node13 -->
<g id="node13" class="node">
<title>Node13</title>
<g id="a_node13"><a xlink:href="shapes_2initialize_8cpp.html" target="_top" xlink:title=" ">
<polygon fill="none" stroke="black" points="548.5,-0.5 548.5,-19.5 627.5,-19.5 627.5,-0.5 548.5,-0.5"/>
<text text-anchor="middle" x="588" y="-7.5" font-family="Helvetica,sans-Serif" font-size="10.00">initialize.cpp</text>
</a>
</g>
</g>
<!-- Node12&#45;&gt;Node13 -->
<g id="edge12" class="edge">
<title>Node12&#45;&gt;Node13</title>
<path fill="none" stroke="midnightblue" d="M588,-45.8C588,-36.91 588,-26.78 588,-19.75"/>
<polygon fill="midnightblue" stroke="midnightblue" points="584.5,-46.08 588,-56.08 591.5,-46.08 584.5,-46.08"/>
</g>
</g>
</svg>
