<?xml version="1.0" encoding="UTF-8" standalone="no"?>
<!DOCTYPE svg PUBLIC "-//W3C//DTD SVG 1.1//EN"
 "http://www.w3.org/Graphics/SVG/1.1/DTD/svg11.dtd">
<!-- Generated by graphviz version 2.43.0 (0)
 -->
<!-- Title: initialize.hpp Pages: 1 -->
<!--zoomable 397 -->
<svg id="main" version="1.1" xmlns="http://www.w3.org/2000/svg" xmlns:xlink="http://www.w3.org/1999/xlink" xml:space="preserve" onload="init(evt)">
<style type="text/css"><![CDATA[
.edge:hover path { stroke: red; }
.edge:hover polygon { stroke: red; fill: red; }
]]></style>
<script type="text/javascript"><![CDATA[
var edges = document.getElementsByTagName('g');
if (edges && edges.length) {
  for (var i=0;i<edges.length;i++) {
    if (edges[i].id.substr(0,4)=='edge') {
      edges[i].setAttribute('class','edge');
    }
  }
}
]]></script>
        <defs>
                <circle id="rim" cx="0" cy="0" r="7"/>
                <circle id="rim2" cx="0" cy="0" r="3.5"/>
                <g id="zoomPlus">
                        <use xlink:href="#rim" fill="#404040">
                                <set attributeName="fill" to="#808080" begin="zoomplus.mouseover" end="zoomplus.mouseout"/>
                        </use>
                        <path d="M-4,0h8M0,-4v8" fill="none" stroke="white" stroke-width="1.5" pointer-events="none"/>
                </g>
                <g id="zoomMin">
                        <use xlink:href="#rim" fill="#404040">
                                <set attributeName="fill" to="#808080" begin="zoomminus.mouseover" end="zoomminus.mouseout"/>
                        </use>
                        <path d="M-4,0h8" fill="none" stroke="white" stroke-width="1.5" pointer-events="none"/>
                </g>
                <g id="dirArrow">
                        <path fill="none" stroke="white" stroke-width="1.5" d="M0,-3.0v7 M-2.5,-0.5L0,-3.0L2.5,-0.5"/>
                </g>
               <g id="resetDef">
                       <use xlink:href="#rim2" fill="#404040">
                               <set attributeName="fill" to="#808080" begin="reset.mouseover" end="reset.mouseout"/>
                       </use>
               </g>
        </defs>

<script type="text/javascript">
var viewWidth = 2440;
var viewHeight = 397;
var sectionId = 'dynsection-0';
</script>
<script xlink:href="svgpan.js"/>
<svg id="graph" class="graph">
<g id="viewport">
<title>initialize.hpp</title>
<!-- Node1 -->
<g id="node1" class="node">
<title>Node1</title>
<g id="a_node1"><a xlink:title=" ">
<polygon fill="#bfbfbf" stroke="black" points="2055.76,-369.5 2055.76,-388.5 2135.76,-388.5 2135.76,-369.5 2055.76,-369.5"/>
<text text-anchor="middle" x="2095.76" y="-376.5" font-family="Helvetica,sans-Serif" font-size="10.00">initialize.hpp</text>
</a>
</g>
</g>
<!-- Node2 -->
<g id="node2" class="node">
<title>Node2</title>
<g id="a_node2"><a xlink:href="ObjectHandle_8hpp.html" target="_top" xlink:title=" ">
<polygon fill="none" stroke="black" points="1945.76,-313.5 1945.76,-332.5 2127.76,-332.5 2127.76,-313.5 1945.76,-313.5"/>
<text text-anchor="middle" x="2036.76" y="-320.5" font-family="Helvetica,sans-Serif" font-size="10.00">script_interface/ObjectHandle.hpp</text>
</a>
</g>
</g>
<!-- Node1&#45;&gt;Node2 -->
<g id="edge1" class="edge">
<title>Node1&#45;&gt;Node2</title>
<path fill="none" stroke="midnightblue" d="M2086.28,-369.32C2077.56,-361.34 2064.42,-349.31 2053.87,-339.65"/>
<polygon fill="midnightblue" stroke="midnightblue" points="2056.16,-337 2046.42,-332.83 2051.43,-342.17 2056.16,-337"/>
</g>
<!-- Node38 -->
<g id="node38" class="node">
<title>Node38</title>
<g id="a_node38"><a xlink:href="Factory_8hpp.html" target="_top" xlink:title=" ">
<polygon fill="none" stroke="black" points="2207.76,-252 2207.76,-271 2303.76,-271 2303.76,-252 2207.76,-252"/>
<text text-anchor="middle" x="2255.76" y="-259" font-family="Helvetica,sans-Serif" font-size="10.00">utils/Factory.hpp</text>
</a>
</g>
</g>
<!-- Node1&#45;&gt;Node38 -->
<g id="edge55" class="edge">
<title>Node1&#45;&gt;Node38</title>
<path fill="none" stroke="midnightblue" d="M2107.79,-369.32C2135.01,-349.67 2201.59,-301.61 2235.38,-277.22"/>
<polygon fill="midnightblue" stroke="midnightblue" points="2237.54,-279.97 2243.6,-271.28 2233.44,-274.3 2237.54,-279.97"/>
</g>
<!-- Node3 -->
<g id="node3" class="node">
<title>Node3</title>
<g id="a_node3"><a xlink:href="Variant_8hpp.html" target="_top" xlink:title=" ">
<polygon fill="none" stroke="black" points="1301.26,-252 1301.26,-271 1374.26,-271 1374.26,-252 1301.26,-252"/>
<text text-anchor="middle" x="1337.76" y="-259" font-family="Helvetica,sans-Serif" font-size="10.00">Variant.hpp</text>
</a>
</g>
</g>
<!-- Node2&#45;&gt;Node3 -->
<g id="edge2" class="edge">
<title>Node2&#45;&gt;Node3</title>
<path fill="none" stroke="midnightblue" d="M1945.74,-314.25C1795.15,-301.43 1499.43,-276.26 1384.76,-266.5"/>
<polygon fill="midnightblue" stroke="midnightblue" points="1384.82,-262.99 1374.56,-265.63 1384.23,-269.97 1384.82,-262.99"/>
</g>
<!-- Node33 -->
<g id="node33" class="node">
<title>Node33</title>
<g id="a_node33"><a xlink:title=" ">
<polygon fill="none" stroke="#bfbfbf" points="1919.76,-185 1919.76,-204 1977.76,-204 1977.76,-185 1919.76,-185"/>
<text text-anchor="middle" x="1948.76" y="-192" font-family="Helvetica,sans-Serif" font-size="10.00">memory</text>
</a>
</g>
</g>
<!-- Node2&#45;&gt;Node33 -->
<g id="edge53" class="edge">
<title>Node2&#45;&gt;Node33</title>
<path fill="none" stroke="midnightblue" d="M2030.72,-313.31C2016.33,-292.63 1979.88,-240.23 1960.81,-212.82"/>
<polygon fill="midnightblue" stroke="midnightblue" points="1963.44,-210.47 1954.86,-204.26 1957.69,-214.46 1963.44,-210.47"/>
</g>
<!-- Node34 -->
<g id="node34" class="node">
<title>Node34</title>
<g id="a_node34"><a xlink:title=" ">
<polygon fill="none" stroke="#bfbfbf" points="1995.76,-185 1995.76,-204 2039.76,-204 2039.76,-185 1995.76,-185"/>
<text text-anchor="middle" x="2017.76" y="-192" font-family="Helvetica,sans-Serif" font-size="10.00">string</text>
</a>
</g>
</g>
<!-- Node2&#45;&gt;Node34 -->
<g id="edge54" class="edge">
<title>Node2&#45;&gt;Node34</title>
<path fill="none" stroke="midnightblue" d="M2035.46,-313.31C2032.41,-292.99 2024.76,-242.05 2020.58,-214.28"/>
<polygon fill="midnightblue" stroke="midnightblue" points="2024.03,-213.62 2019.08,-204.26 2017.1,-214.66 2024.03,-213.62"/>
</g>
<!-- Node36 -->
<g id="node36" class="node">
<title>Node36</title>
<g id="a_node36"><a xlink:href="Span_8hpp.html" target="_top" xlink:title=" ">
<polygon fill="none" stroke="black" points="1270.76,-123.5 1270.76,-142.5 1356.76,-142.5 1356.76,-123.5 1270.76,-123.5"/>
<text text-anchor="middle" x="1313.76" y="-130.5" font-family="Helvetica,sans-Serif" font-size="10.00">utils/Span.hpp</text>
</a>
</g>
</g>
<!-- Node2&#45;&gt;Node36 -->
<g id="edge45" class="edge">
<title>Node2&#45;&gt;Node36</title>
<path fill="none" stroke="midnightblue" d="M2038.96,-313.27C2043.28,-297.73 2054.29,-265.14 2074.76,-246 2105.03,-217.7 2137.81,-244.5 2160.76,-210 2168.4,-198.53 2170.24,-189 2160.76,-179 2133.38,-150.13 1548.26,-137.93 1366.88,-134.83"/>
<polygon fill="midnightblue" stroke="midnightblue" points="1366.84,-131.33 1356.79,-134.66 1366.72,-138.33 1366.84,-131.33"/>
</g>
<!-- Node37 -->
<g id="node37" class="node">
<title>Node37</title>
<g id="a_node37"><a xlink:title=" ">
<polygon fill="none" stroke="#bfbfbf" points="2083.76,-246.5 2083.76,-276.5 2189.76,-276.5 2189.76,-246.5 2083.76,-246.5"/>
<text text-anchor="start" x="2091.76" y="-264.5" font-family="Helvetica,sans-Serif" font-size="10.00">boost/utility/string</text>
<text text-anchor="middle" x="2136.76" y="-253.5" font-family="Helvetica,sans-Serif" font-size="10.00">_ref.hpp</text>
</a>
</g>
</g>
<!-- Node2&#45;&gt;Node37 -->
<g id="edge52" class="edge">
<title>Node2&#45;&gt;Node37</title>
<path fill="none" stroke="midnightblue" d="M2051.09,-313.48C2064.89,-305.27 2086.25,-292.56 2104.19,-281.88"/>
<polygon fill="midnightblue" stroke="midnightblue" points="2106.39,-284.64 2113.2,-276.52 2102.81,-278.63 2106.39,-284.64"/>
</g>
<!-- Node4 -->
<g id="node4" class="node">
<title>Node4</title>
<g id="a_node4"><a xlink:href="None_8hpp.html" target="_top" xlink:title=" ">
<polygon fill="none" stroke="black" points="37.26,-123.5 37.26,-142.5 100.26,-142.5 100.26,-123.5 37.26,-123.5"/>
<text text-anchor="middle" x="68.76" y="-130.5" font-family="Helvetica,sans-Serif" font-size="10.00">None.hpp</text>
</a>
</g>
</g>
<!-- Node3&#45;&gt;Node4 -->
<g id="edge3" class="edge">
<title>Node3&#45;&gt;Node4</title>
<path fill="none" stroke="midnightblue" d="M1301.04,-260.65C1111.04,-261.17 244.2,-260.77 136.76,-210 110.44,-197.56 89.88,-169.74 78.53,-151.44"/>
<polygon fill="midnightblue" stroke="midnightblue" points="81.43,-149.46 73.33,-142.63 75.41,-153.02 81.43,-149.46"/>
</g>
<!-- Node6 -->
<g id="node6" class="node">
<title>Node6</title>
<g id="a_node6"><a xlink:title=" ">
<polygon fill="none" stroke="#bfbfbf" points="191.26,-0.5 191.26,-19.5 244.26,-19.5 244.26,-0.5 191.26,-0.5"/>
<text text-anchor="middle" x="217.76" y="-7.5" font-family="Helvetica,sans-Serif" font-size="10.00">cstddef</text>
</a>
</g>
</g>
<!-- Node3&#45;&gt;Node6 -->
<g id="edge39" class="edge">
<title>Node3&#45;&gt;Node6</title>
<path fill="none" stroke="midnightblue" d="M1301.22,-259.56C1114.2,-254.37 269.94,-226.43 192.76,-143 166.49,-114.6 179.14,-93.2 189.76,-56 192.67,-45.84 198.6,-35.75 204.25,-27.7"/>
<polygon fill="midnightblue" stroke="midnightblue" points="207.14,-29.69 210.35,-19.59 201.54,-25.48 207.14,-29.69"/>
</g>
<!-- Node7 -->
<g id="node7" class="node">
<title>Node7</title>
<g id="a_node7"><a xlink:href="Vector_8hpp.html" target="_top" xlink:title=" ">
<polygon fill="none" stroke="black" points="708.26,-185 708.26,-204 801.26,-204 801.26,-185 708.26,-185"/>
<text text-anchor="middle" x="754.76" y="-192" font-family="Helvetica,sans-Serif" font-size="10.00">utils/Vector.hpp</text>
</a>
</g>
</g>
<!-- Node3&#45;&gt;Node7 -->
<g id="edge6" class="edge">
<title>Node3&#45;&gt;Node7</title>
<path fill="none" stroke="midnightblue" d="M1301.15,-258.69C1215.68,-254.08 996.51,-240.08 815.76,-210 809.56,-208.97 803.06,-207.66 796.7,-206.26"/>
<polygon fill="midnightblue" stroke="midnightblue" points="797.42,-202.84 786.89,-204.01 795.85,-209.66 797.42,-202.84"/>
</g>
<!-- Node23 -->
<g id="node23" class="node">
<title>Node23</title>
<g id="a_node23"><a xlink:title=" ">
<polygon fill="none" stroke="#bfbfbf" points="1118.26,-62 1118.26,-81 1187.26,-81 1187.26,-62 1118.26,-62"/>
<text text-anchor="middle" x="1152.76" y="-69" font-family="Helvetica,sans-Serif" font-size="10.00">type_traits</text>
</a>
</g>
</g>
<!-- Node3&#45;&gt;Node23 -->
<g id="edge42" class="edge">
<title>Node3&#45;&gt;Node23</title>
<path fill="none" stroke="midnightblue" d="M1301.25,-259.15C1198.8,-254.99 914.27,-240.76 886.76,-210 877.58,-199.73 877.55,-189.25 886.76,-179 937.11,-122.99 1173.42,-199.01 1223.76,-143 1242.57,-122.08 1209.18,-99.42 1182.11,-85.59"/>
<polygon fill="midnightblue" stroke="midnightblue" points="1183.41,-82.33 1172.89,-81.09 1180.33,-88.62 1183.41,-82.33"/>
</g>
<!-- Node24 -->
<g id="node24" class="node">
<title>Node24</title>
<g id="a_node24"><a xlink:title=" ">
<polygon fill="none" stroke="#bfbfbf" points="1167.26,-123.5 1167.26,-142.5 1214.26,-142.5 1214.26,-123.5 1167.26,-123.5"/>
<text text-anchor="middle" x="1190.76" y="-130.5" font-family="Helvetica,sans-Serif" font-size="10.00">vector</text>
</a>
</g>
</g>
<!-- Node3&#45;&gt;Node24 -->
<g id="edge44" class="edge">
<title>Node3&#45;&gt;Node24</title>
<path fill="none" stroke="midnightblue" d="M1300.92,-259.44C1193.05,-255.95 883.6,-243.11 853.76,-210 844.54,-199.76 844.62,-189.31 853.76,-179 898.17,-128.93 1086.88,-154.73 1152.76,-143 1154.22,-142.74 1155.71,-142.46 1157.21,-142.16"/>
<polygon fill="midnightblue" stroke="midnightblue" points="1158.09,-145.55 1167.13,-140.03 1156.62,-138.71 1158.09,-145.55"/>
</g>
<!-- Node25 -->
<g id="node25" class="node">
<title>Node25</title>
<g id="a_node25"><a xlink:title=" ">
<polygon fill="none" stroke="#bfbfbf" points="895.76,-185 895.76,-204 997.76,-204 997.76,-185 895.76,-185"/>
<text text-anchor="middle" x="946.76" y="-192" font-family="Helvetica,sans-Serif" font-size="10.00">boost/variant.hpp</text>
</a>
</g>
</g>
<!-- Node3&#45;&gt;Node25 -->
<g id="edge31" class="edge">
<title>Node3&#45;&gt;Node25</title>
<path fill="none" stroke="midnightblue" d="M1300.97,-255.87C1239.83,-247.94 1113.57,-230.64 1007.76,-210 1002.22,-208.92 996.42,-207.68 990.69,-206.39"/>
<polygon fill="midnightblue" stroke="midnightblue" points="991.07,-202.89 980.54,-204.05 989.49,-209.71 991.07,-202.89"/>
</g>
<!-- Node26 -->
<g id="node26" class="node">
<title>Node26</title>
<g id="a_node26"><a xlink:title=" ">
<polygon fill="none" stroke="#bfbfbf" points="1016.26,-179.5 1016.26,-209.5 1123.26,-209.5 1123.26,-179.5 1016.26,-179.5"/>
<text text-anchor="start" x="1024.26" y="-197.5" font-family="Helvetica,sans-Serif" font-size="10.00">boost/serialization</text>
<text text-anchor="middle" x="1069.76" y="-186.5" font-family="Helvetica,sans-Serif" font-size="10.00">/version.hpp</text>
</a>
</g>
</g>
<!-- Node3&#45;&gt;Node26 -->
<g id="edge32" class="edge">
<title>Node3&#45;&gt;Node26</title>
<path fill="none" stroke="midnightblue" d="M1302.45,-251.94C1259.59,-241.54 1186.5,-223.81 1133.65,-211"/>
<polygon fill="midnightblue" stroke="midnightblue" points="1134.24,-207.54 1123.7,-208.58 1132.59,-214.34 1134.24,-207.54"/>
</g>
<!-- Node27 -->
<g id="node27" class="node">
<title>Node27</title>
<g id="a_node27"><a xlink:title=" ">
<polygon fill="none" stroke="#bfbfbf" points="1141.26,-179.5 1141.26,-209.5 1266.26,-209.5 1266.26,-179.5 1141.26,-179.5"/>
<text text-anchor="start" x="1149.26" y="-197.5" font-family="Helvetica,sans-Serif" font-size="10.00">boost/range/algorithm</text>
<text text-anchor="middle" x="1203.76" y="-186.5" font-family="Helvetica,sans-Serif" font-size="10.00">/transform.hpp</text>
</a>
</g>
</g>
<!-- Node3&#45;&gt;Node27 -->
<g id="edge33" class="edge">
<title>Node3&#45;&gt;Node27</title>
<path fill="none" stroke="midnightblue" d="M1319.97,-251.87C1300.12,-242.24 1267.44,-226.39 1241.78,-213.94"/>
<polygon fill="midnightblue" stroke="midnightblue" points="1243.21,-210.74 1232.68,-209.53 1240.15,-217.04 1243.21,-210.74"/>
</g>
<!-- Node28 -->
<g id="node28" class="node">
<title>Node28</title>
<g id="a_node28"><a xlink:title=" ">
<polygon fill="none" stroke="#bfbfbf" points="1284.26,-179.5 1284.26,-209.5 1391.26,-209.5 1391.26,-179.5 1284.26,-179.5"/>
<text text-anchor="start" x="1292.26" y="-197.5" font-family="Helvetica,sans-Serif" font-size="10.00">boost/serialization</text>
<text text-anchor="middle" x="1337.76" y="-186.5" font-family="Helvetica,sans-Serif" font-size="10.00">/serialization.hpp</text>
</a>
</g>
</g>
<!-- Node3&#45;&gt;Node28 -->
<g id="edge34" class="edge">
<title>Node3&#45;&gt;Node28</title>
<path fill="none" stroke="midnightblue" d="M1337.76,-251.73C1337.76,-243.54 1337.76,-230.92 1337.76,-219.71"/>
<polygon fill="midnightblue" stroke="midnightblue" points="1341.26,-219.59 1337.76,-209.59 1334.26,-219.59 1341.26,-219.59"/>
</g>
<!-- Node29 -->
<g id="node29" class="node">
<title>Node29</title>
<g id="a_node29"><a xlink:title=" ">
<polygon fill="none" stroke="#bfbfbf" points="1409.26,-179.5 1409.26,-209.5 1516.26,-209.5 1516.26,-179.5 1409.26,-179.5"/>
<text text-anchor="start" x="1417.26" y="-197.5" font-family="Helvetica,sans-Serif" font-size="10.00">boost/serialization</text>
<text text-anchor="middle" x="1462.76" y="-186.5" font-family="Helvetica,sans-Serif" font-size="10.00">/string.hpp</text>
</a>
</g>
</g>
<!-- Node3&#45;&gt;Node29 -->
<g id="edge35" class="edge">
<title>Node3&#45;&gt;Node29</title>
<path fill="none" stroke="midnightblue" d="M1354.36,-251.87C1372.66,-242.36 1402.64,-226.77 1426.44,-214.39"/>
<polygon fill="midnightblue" stroke="midnightblue" points="1428.29,-217.37 1435.55,-209.65 1425.06,-211.16 1428.29,-217.37"/>
</g>
<!-- Node30 -->
<g id="node30" class="node">
<title>Node30</title>
<g id="a_node30"><a xlink:title=" ">
<polygon fill="none" stroke="#bfbfbf" points="1534.26,-179.5 1534.26,-209.5 1651.26,-209.5 1651.26,-179.5 1534.26,-179.5"/>
<text text-anchor="start" x="1542.26" y="-197.5" font-family="Helvetica,sans-Serif" font-size="10.00">boost/serialization</text>
<text text-anchor="middle" x="1592.76" y="-186.5" font-family="Helvetica,sans-Serif" font-size="10.00">/unordered_map.hpp</text>
</a>
</g>
</g>
<!-- Node3&#45;&gt;Node30 -->
<g id="edge36" class="edge">
<title>Node3&#45;&gt;Node30</title>
<path fill="none" stroke="midnightblue" d="M1371.36,-251.94C1411.05,-241.82 1477.97,-224.76 1527.87,-212.04"/>
<polygon fill="midnightblue" stroke="midnightblue" points="1528.78,-215.42 1537.61,-209.56 1527.05,-208.64 1528.78,-215.42"/>
</g>
<!-- Node31 -->
<g id="node31" class="node">
<title>Node31</title>
<g id="a_node31"><a xlink:title=" ">
<polygon fill="none" stroke="#bfbfbf" points="1669.26,-179.5 1669.26,-209.5 1776.26,-209.5 1776.26,-179.5 1669.26,-179.5"/>
<text text-anchor="start" x="1677.26" y="-197.5" font-family="Helvetica,sans-Serif" font-size="10.00">boost/serialization</text>
<text text-anchor="middle" x="1722.76" y="-186.5" font-family="Helvetica,sans-Serif" font-size="10.00">/variant.hpp</text>
</a>
</g>
</g>
<!-- Node3&#45;&gt;Node31 -->
<g id="edge37" class="edge">
<title>Node3&#45;&gt;Node31</title>
<path fill="none" stroke="midnightblue" d="M1374.74,-255.63C1433.09,-247.76 1550.32,-231.13 1658.91,-210.29"/>
<polygon fill="midnightblue" stroke="midnightblue" points="1659.9,-213.66 1669.05,-208.32 1658.57,-206.79 1659.9,-213.66"/>
</g>
<!-- Node32 -->
<g id="node32" class="node">
<title>Node32</title>
<g id="a_node32"><a xlink:title=" ">
<polygon fill="none" stroke="#bfbfbf" points="1794.26,-179.5 1794.26,-209.5 1901.26,-209.5 1901.26,-179.5 1794.26,-179.5"/>
<text text-anchor="start" x="1802.26" y="-197.5" font-family="Helvetica,sans-Serif" font-size="10.00">boost/serialization</text>
<text text-anchor="middle" x="1847.76" y="-186.5" font-family="Helvetica,sans-Serif" font-size="10.00">/vector.hpp</text>
</a>
</g>
</g>
<!-- Node3&#45;&gt;Node32 -->
<g id="edge38" class="edge">
<title>Node3&#45;&gt;Node32</title>
<path fill="none" stroke="midnightblue" d="M1374.56,-257.83C1449.79,-252.04 1626.75,-236.81 1784.21,-210.15"/>
<polygon fill="midnightblue" stroke="midnightblue" points="1784.81,-213.6 1794.07,-208.46 1783.63,-206.7 1784.81,-213.6"/>
</g>
<!-- Node3&#45;&gt;Node33 -->
<g id="edge40" class="edge">
<title>Node3&#45;&gt;Node33</title>
<path fill="none" stroke="midnightblue" d="M1374.51,-260.75C1466.25,-260.63 1712.23,-255.69 1910.76,-210 1913.76,-209.31 1916.84,-208.43 1919.89,-207.46"/>
<polygon fill="midnightblue" stroke="midnightblue" points="1921.12,-210.73 1929.36,-204.09 1918.77,-204.14 1921.12,-210.73"/>
</g>
<!-- Node3&#45;&gt;Node34 -->
<g id="edge41" class="edge">
<title>Node3&#45;&gt;Node34</title>
<path fill="none" stroke="midnightblue" d="M1374.58,-259.37C1494,-255.43 1869.69,-240.84 1986.76,-210 1988.75,-209.48 1990.76,-208.83 1992.75,-208.11"/>
<polygon fill="midnightblue" stroke="midnightblue" points="1994.57,-211.14 2002.41,-204.01 1991.83,-204.7 1994.57,-211.14"/>
</g>
<!-- Node35 -->
<g id="node35" class="node">
<title>Node35</title>
<g id="a_node35"><a xlink:title=" ">
<polygon fill="none" stroke="#bfbfbf" points="2058.26,-185 2058.26,-204 2151.26,-204 2151.26,-185 2058.26,-185"/>
<text text-anchor="middle" x="2104.76" y="-192" font-family="Helvetica,sans-Serif" font-size="10.00">unordered_map</text>
</a>
</g>
</g>
<!-- Node3&#45;&gt;Node35 -->
<g id="edge43" class="edge">
<title>Node3&#45;&gt;Node35</title>
<path fill="none" stroke="midnightblue" d="M1374.29,-260.25C1479.65,-259.02 1792.91,-251.85 2048.76,-210 2054.34,-209.09 2060.17,-207.88 2065.87,-206.54"/>
<polygon fill="midnightblue" stroke="midnightblue" points="2067.05,-209.85 2075.91,-204.04 2065.36,-203.06 2067.05,-209.85"/>
</g>
<!-- Node5 -->
<g id="node5" class="node">
<title>Node5</title>
<g id="a_node5"><a xlink:title=" ">
<polygon fill="none" stroke="#bfbfbf" points="15.26,-56.5 15.26,-86.5 122.26,-86.5 122.26,-56.5 15.26,-56.5"/>
<text text-anchor="start" x="23.26" y="-74.5" font-family="Helvetica,sans-Serif" font-size="10.00">boost/serialization</text>
<text text-anchor="middle" x="68.76" y="-63.5" font-family="Helvetica,sans-Serif" font-size="10.00">/access.hpp</text>
</a>
</g>
</g>
<!-- Node4&#45;&gt;Node5 -->
<g id="edge4" class="edge">
<title>Node4&#45;&gt;Node5</title>
<path fill="none" stroke="midnightblue" d="M68.76,-123.48C68.76,-116.47 68.76,-106.19 68.76,-96.7"/>
<polygon fill="midnightblue" stroke="midnightblue" points="72.26,-96.52 68.76,-86.52 65.26,-96.52 72.26,-96.52"/>
</g>
<!-- Node4&#45;&gt;Node6 -->
<g id="edge5" class="edge">
<title>Node4&#45;&gt;Node6</title>
<path fill="none" stroke="midnightblue" d="M47.92,-123.43C33.19,-116.13 14.56,-104.09 5.76,-87 -0.54,-74.75 -2.91,-66.71 5.76,-56 27.4,-29.29 126.16,-17.78 180.92,-13.38"/>
<polygon fill="midnightblue" stroke="midnightblue" points="181.22,-16.87 190.93,-12.62 180.69,-9.89 181.22,-16.87"/>
</g>
<!-- Node7&#45;&gt;Node6 -->
<g id="edge24" class="edge">
<title>Node7&#45;&gt;Node6</title>
<path fill="none" stroke="midnightblue" d="M708.26,-192.71C582.22,-190.1 241.22,-179.69 207.76,-143 179.34,-111.83 196.82,-57.5 208.99,-29.24"/>
<polygon fill="midnightblue" stroke="midnightblue" points="212.33,-30.35 213.28,-19.79 205.96,-27.45 212.33,-30.35"/>
</g>
<!-- Node8 -->
<g id="node8" class="node">
<title>Node8</title>
<g id="a_node8"><a xlink:title=" ">
<polygon fill="none" stroke="#bfbfbf" points="216.76,-123.5 216.76,-142.5 366.76,-142.5 366.76,-123.5 216.76,-123.5"/>
<text text-anchor="middle" x="291.76" y="-130.5" font-family="Helvetica,sans-Serif" font-size="10.00">boost/qvm/deduce_vec.hpp</text>
</a>
</g>
</g>
<!-- Node7&#45;&gt;Node8 -->
<g id="edge7" class="edge">
<title>Node7&#45;&gt;Node8</title>
<path fill="none" stroke="midnightblue" d="M708.25,-187.52C628.52,-177.28 465.01,-156.26 368.27,-143.83"/>
<polygon fill="midnightblue" stroke="midnightblue" points="368.63,-140.35 358.26,-142.55 367.73,-147.29 368.63,-140.35"/>
</g>
<!-- Node9 -->
<g id="node9" class="node">
<title>Node9</title>
<g id="a_node9"><a xlink:title=" ">
<polygon fill="none" stroke="#bfbfbf" points="384.76,-123.5 384.76,-142.5 524.76,-142.5 524.76,-123.5 384.76,-123.5"/>
<text text-anchor="middle" x="454.76" y="-130.5" font-family="Helvetica,sans-Serif" font-size="10.00">boost/qvm/vec_traits.hpp</text>
</a>
</g>
</g>
<!-- Node7&#45;&gt;Node9 -->
<g id="edge8" class="edge">
<title>Node7&#45;&gt;Node9</title>
<path fill="none" stroke="midnightblue" d="M711.78,-184.98C657.98,-174.3 565.86,-156.03 507.75,-144.51"/>
<polygon fill="midnightblue" stroke="midnightblue" points="508.16,-141.02 497.67,-142.51 506.8,-147.89 508.16,-141.02"/>
</g>
<!-- Node10 -->
<g id="node10" class="node">
<title>Node10</title>
<g id="a_node10"><a xlink:href="Array_8hpp.html" target="_top" xlink:title=" ">
<polygon fill="none" stroke="black" points="542.76,-123.5 542.76,-142.5 628.76,-142.5 628.76,-123.5 542.76,-123.5"/>
<text text-anchor="middle" x="585.76" y="-130.5" font-family="Helvetica,sans-Serif" font-size="10.00">utils/Array.hpp</text>
</a>
</g>
</g>
<!-- Node7&#45;&gt;Node10 -->
<g id="edge9" class="edge">
<title>Node7&#45;&gt;Node10</title>
<path fill="none" stroke="midnightblue" d="M730.55,-184.98C701.44,-174.72 652.4,-157.46 619.56,-145.9"/>
<polygon fill="midnightblue" stroke="midnightblue" points="620.53,-142.53 609.93,-142.51 618.2,-149.13 620.53,-142.53"/>
</g>
<!-- Node12 -->
<g id="node12" class="node">
<title>Node12</title>
<g id="a_node12"><a xlink:title=" ">
<polygon fill="none" stroke="#bfbfbf" points="717.76,-0.5 717.76,-19.5 769.76,-19.5 769.76,-0.5 717.76,-0.5"/>
<text text-anchor="middle" x="743.76" y="-7.5" font-family="Helvetica,sans-Serif" font-size="10.00">cassert</text>
</a>
</g>
</g>
<!-- Node7&#45;&gt;Node12 -->
<g id="edge22" class="edge">
<title>Node7&#45;&gt;Node12</title>
<path fill="none" stroke="midnightblue" d="M744.34,-184.71C734.31,-175.5 719.81,-160.03 713.76,-143 710.79,-134.62 712.45,-131.79 713.76,-123 716.24,-106.45 720.29,-103.12 724.76,-87 730.15,-67.6 735.66,-45.21 739.35,-29.79"/>
<polygon fill="midnightblue" stroke="midnightblue" points="742.79,-30.47 741.69,-19.93 735.98,-28.85 742.79,-30.47"/>
</g>
<!-- Node15 -->
<g id="node15" class="node">
<title>Node15</title>
<g id="a_node15"><a xlink:title=" ">
<polygon fill="none" stroke="#bfbfbf" points="662.26,-62 662.26,-81 715.26,-81 715.26,-62 662.26,-62"/>
<text text-anchor="middle" x="688.76" y="-69" font-family="Helvetica,sans-Serif" font-size="10.00">iterator</text>
</a>
</g>
</g>
<!-- Node7&#45;&gt;Node15 -->
<g id="edge27" class="edge">
<title>Node7&#45;&gt;Node15</title>
<path fill="none" stroke="midnightblue" d="M732.11,-184.99C714.57,-177.05 691.52,-163.35 680.76,-143 672.25,-126.87 676.26,-105.82 681.15,-90.93"/>
<polygon fill="midnightblue" stroke="midnightblue" points="684.52,-91.93 684.71,-81.34 677.95,-89.5 684.52,-91.93"/>
</g>
<!-- Node18 -->
<g id="node18" class="node">
<title>Node18</title>
<g id="a_node18"><a xlink:title=" ">
<polygon fill="none" stroke="#bfbfbf" points="722.76,-123.5 722.76,-142.5 786.76,-142.5 786.76,-123.5 722.76,-123.5"/>
<text text-anchor="middle" x="754.76" y="-130.5" font-family="Helvetica,sans-Serif" font-size="10.00">algorithm</text>
</a>
</g>
</g>
<!-- Node7&#45;&gt;Node18 -->
<g id="edge21" class="edge">
<title>Node7&#45;&gt;Node18</title>
<path fill="none" stroke="midnightblue" d="M754.76,-184.98C754.76,-176.58 754.76,-163.48 754.76,-152.66"/>
<polygon fill="midnightblue" stroke="midnightblue" points="758.26,-152.51 754.76,-142.51 751.26,-152.51 758.26,-152.51"/>
</g>
<!-- Node19 -->
<g id="node19" class="node">
<title>Node19</title>
<g id="a_node19"><a xlink:title=" ">
<polygon fill="none" stroke="#bfbfbf" points="805.26,-123.5 805.26,-142.5 852.26,-142.5 852.26,-123.5 805.26,-123.5"/>
<text text-anchor="middle" x="828.76" y="-130.5" font-family="Helvetica,sans-Serif" font-size="10.00">cmath</text>
</a>
</g>
</g>
<!-- Node7&#45;&gt;Node19 -->
<g id="edge23" class="edge">
<title>Node7&#45;&gt;Node19</title>
<path fill="none" stroke="midnightblue" d="M765.37,-184.98C777.02,-175.61 795.95,-160.38 810.1,-149.01"/>
<polygon fill="midnightblue" stroke="midnightblue" points="812.58,-151.5 818.18,-142.51 808.2,-146.05 812.58,-151.5"/>
</g>
<!-- Node20 -->
<g id="node20" class="node">
<title>Node20</title>
<g id="a_node20"><a xlink:title=" ">
<polygon fill="none" stroke="#bfbfbf" points="870.26,-123.5 870.26,-142.5 935.26,-142.5 935.26,-123.5 870.26,-123.5"/>
<text text-anchor="middle" x="902.76" y="-130.5" font-family="Helvetica,sans-Serif" font-size="10.00">functional</text>
</a>
</g>
</g>
<!-- Node7&#45;&gt;Node20 -->
<g id="edge25" class="edge">
<title>Node7&#45;&gt;Node20</title>
<path fill="none" stroke="midnightblue" d="M775.97,-184.98C801.14,-174.86 843.3,-157.9 872.04,-146.35"/>
<polygon fill="midnightblue" stroke="midnightblue" points="873.63,-149.49 881.6,-142.51 871.01,-142.99 873.63,-149.49"/>
</g>
<!-- Node21 -->
<g id="node21" class="node">
<title>Node21</title>
<g id="a_node21"><a xlink:title=" ">
<polygon fill="none" stroke="#bfbfbf" points="953.26,-123.5 953.26,-142.5 1036.26,-142.5 1036.26,-123.5 953.26,-123.5"/>
<text text-anchor="middle" x="994.76" y="-130.5" font-family="Helvetica,sans-Serif" font-size="10.00">initializer_list</text>
</a>
</g>
</g>
<!-- Node7&#45;&gt;Node21 -->
<g id="edge26" class="edge">
<title>Node7&#45;&gt;Node21</title>
<path fill="none" stroke="midnightblue" d="M789.15,-184.98C831.66,-174.44 904.06,-156.49 950.63,-144.94"/>
<polygon fill="midnightblue" stroke="midnightblue" points="951.58,-148.31 960.44,-142.51 949.89,-141.52 951.58,-148.31"/>
</g>
<!-- Node22 -->
<g id="node22" class="node">
<title>Node22</title>
<g id="a_node22"><a xlink:title=" ">
<polygon fill="none" stroke="#bfbfbf" points="1054.76,-123.5 1054.76,-142.5 1110.76,-142.5 1110.76,-123.5 1054.76,-123.5"/>
<text text-anchor="middle" x="1082.76" y="-130.5" font-family="Helvetica,sans-Serif" font-size="10.00">numeric</text>
</a>
</g>
</g>
<!-- Node7&#45;&gt;Node22 -->
<g id="edge28" class="edge">
<title>Node7&#45;&gt;Node22</title>
<path fill="none" stroke="midnightblue" d="M788.54,-184.97C797.37,-182.88 806.9,-180.74 815.76,-179 914.11,-159.65 942.54,-163 1044.44,-143.12"/>
<polygon fill="midnightblue" stroke="midnightblue" points="1045.41,-146.5 1054.54,-141.12 1044.05,-139.63 1045.41,-146.5"/>
</g>
<!-- Node7&#45;&gt;Node23 -->
<g id="edge29" class="edge">
<title>Node7&#45;&gt;Node23</title>
<path fill="none" stroke="midnightblue" d="M801.3,-185.53C814.67,-183.32 829.28,-180.99 842.76,-179 904.17,-169.95 1069.65,-179.63 1119.76,-143 1136.61,-130.69 1145.14,-107.59 1149.25,-91.19"/>
<polygon fill="midnightblue" stroke="midnightblue" points="1152.74,-91.64 1151.45,-81.12 1145.9,-90.15 1152.74,-91.64"/>
</g>
<!-- Node7&#45;&gt;Node24 -->
<g id="edge30" class="edge">
<title>Node7&#45;&gt;Node24</title>
<path fill="none" stroke="midnightblue" d="M787.21,-184.98C796.4,-182.79 806.43,-180.6 815.76,-179 964.23,-153.53 1004.29,-168.41 1152.76,-143 1154.23,-142.75 1155.72,-142.48 1157.22,-142.19"/>
<polygon fill="midnightblue" stroke="midnightblue" points="1158.09,-145.58 1167.14,-140.08 1156.63,-138.73 1158.09,-145.58"/>
</g>
<!-- Node10&#45;&gt;Node5 -->
<g id="edge15" class="edge">
<title>Node10&#45;&gt;Node5</title>
<path fill="none" stroke="midnightblue" d="M542.67,-124.32C539.66,-123.86 536.67,-123.41 533.76,-123 390.91,-102.9 222.39,-86.38 132.62,-78.15"/>
<polygon fill="midnightblue" stroke="midnightblue" points="132.88,-74.66 122.6,-77.23 132.24,-81.63 132.88,-74.66"/>
</g>
<!-- Node10&#45;&gt;Node6 -->
<g id="edge17" class="edge">
<title>Node10&#45;&gt;Node6</title>
<path fill="none" stroke="midnightblue" d="M542.64,-124.48C539.64,-123.98 536.66,-123.48 533.76,-123 432.11,-106.21 398.11,-130.6 304.76,-87 274.78,-73 247.31,-45.47 231.56,-27.67"/>
<polygon fill="midnightblue" stroke="midnightblue" points="233.99,-25.12 224.82,-19.82 228.68,-29.69 233.99,-25.12"/>
</g>
<!-- Node11 -->
<g id="node11" class="node">
<title>Node11</title>
<g id="a_node11"><a xlink:href="device__qualifier_8hpp.html" target="_top" xlink:title=" ">
<polygon fill="none" stroke="black" points="527.76,-62 527.76,-81 643.76,-81 643.76,-62 527.76,-62"/>
<text text-anchor="middle" x="585.76" y="-69" font-family="Helvetica,sans-Serif" font-size="10.00">device_qualifier.hpp</text>
</a>
</g>
</g>
<!-- Node10&#45;&gt;Node11 -->
<g id="edge10" class="edge">
<title>Node10&#45;&gt;Node11</title>
<path fill="none" stroke="midnightblue" d="M585.76,-123.48C585.76,-115.08 585.76,-101.98 585.76,-91.16"/>
<polygon fill="midnightblue" stroke="midnightblue" points="589.26,-91.01 585.76,-81.01 582.26,-91.01 589.26,-91.01"/>
</g>
<!-- Node10&#45;&gt;Node12 -->
<g id="edge16" class="edge">
<title>Node10&#45;&gt;Node12</title>
<path fill="none" stroke="midnightblue" d="M542.42,-124.07C505.16,-116.26 455.6,-103.17 443.76,-87 435.63,-75.88 434.77,-66.44 443.76,-56 477.42,-16.92 635.19,-11.3 707.45,-10.81"/>
<polygon fill="midnightblue" stroke="midnightblue" points="707.48,-14.31 717.47,-10.78 707.46,-7.31 707.48,-14.31"/>
</g>
<!-- Node13 -->
<g id="node13" class="node">
<title>Node13</title>
<g id="a_node13"><a xlink:href="get_8hpp.html" target="_top" xlink:title=" ">
<polygon fill="none" stroke="black" points="313.26,-62 313.26,-81 366.26,-81 366.26,-62 313.26,-62"/>
<text text-anchor="middle" x="339.76" y="-69" font-family="Helvetica,sans-Serif" font-size="10.00">get.hpp</text>
</a>
</g>
</g>
<!-- Node10&#45;&gt;Node13 -->
<g id="edge12" class="edge">
<title>Node10&#45;&gt;Node13</title>
<path fill="none" stroke="midnightblue" d="M550.52,-123.48C504.23,-112.28 423.34,-92.71 376.38,-81.36"/>
<polygon fill="midnightblue" stroke="midnightblue" points="377.16,-77.94 366.61,-78.99 375.51,-84.75 377.16,-77.94"/>
</g>
<!-- Node10&#45;&gt;Node15 -->
<g id="edge18" class="edge">
<title>Node10&#45;&gt;Node15</title>
<path fill="none" stroke="midnightblue" d="M600.52,-123.48C617.42,-113.71 645.35,-97.58 665.25,-86.08"/>
<polygon fill="midnightblue" stroke="midnightblue" points="667.13,-89.04 674.03,-81.01 663.62,-82.98 667.13,-89.04"/>
</g>
<!-- Node16 -->
<g id="node16" class="node">
<title>Node16</title>
<g id="a_node16"><a xlink:title=" ">
<polygon fill="none" stroke="#bfbfbf" points="452.26,-62 452.26,-81 509.26,-81 509.26,-62 452.26,-62"/>
<text text-anchor="middle" x="480.76" y="-69" font-family="Helvetica,sans-Serif" font-size="10.00">ostream</text>
</a>
</g>
</g>
<!-- Node10&#45;&gt;Node16 -->
<g id="edge19" class="edge">
<title>Node10&#45;&gt;Node16</title>
<path fill="none" stroke="midnightblue" d="M570.72,-123.48C553.49,-113.71 525.02,-97.58 504.73,-86.08"/>
<polygon fill="midnightblue" stroke="midnightblue" points="506.21,-82.89 495.78,-81.01 502.75,-88.98 506.21,-82.89"/>
</g>
<!-- Node17 -->
<g id="node17" class="node">
<title>Node17</title>
<g id="a_node17"><a xlink:title=" ">
<polygon fill="none" stroke="#bfbfbf" points="1205.26,-62 1205.26,-81 1270.26,-81 1270.26,-62 1205.26,-62"/>
<text text-anchor="middle" x="1237.76" y="-69" font-family="Helvetica,sans-Serif" font-size="10.00">stdexcept</text>
</a>
</g>
</g>
<!-- Node10&#45;&gt;Node17 -->
<g id="edge20" class="edge">
<title>Node10&#45;&gt;Node17</title>
<path fill="none" stroke="midnightblue" d="M629.06,-128.97C766.21,-119.33 1182.86,-89.92 1196.76,-87 1200.19,-86.28 1203.73,-85.35 1207.21,-84.3"/>
<polygon fill="midnightblue" stroke="midnightblue" points="1208.4,-87.59 1216.79,-81.12 1206.2,-80.95 1208.4,-87.59"/>
</g>
<!-- Node11&#45;&gt;Node12 -->
<g id="edge11" class="edge">
<title>Node11&#45;&gt;Node12</title>
<path fill="none" stroke="midnightblue" d="M608.4,-61.98C635.5,-51.77 681.07,-34.61 711.77,-23.05"/>
<polygon fill="midnightblue" stroke="midnightblue" points="713.04,-26.31 721.17,-19.51 710.58,-19.76 713.04,-26.31"/>
</g>
<!-- Node13&#45;&gt;Node6 -->
<g id="edge13" class="edge">
<title>Node13&#45;&gt;Node6</title>
<path fill="none" stroke="midnightblue" d="M322.28,-61.98C301.9,-52.03 267.99,-35.49 244.34,-23.96"/>
<polygon fill="midnightblue" stroke="midnightblue" points="245.73,-20.75 235.21,-19.51 242.67,-27.04 245.73,-20.75"/>
</g>
<!-- Node14 -->
<g id="node14" class="node">
<title>Node14</title>
<g id="a_node14"><a xlink:title=" ">
<polygon fill="none" stroke="#bfbfbf" points="319.26,-0.5 319.26,-19.5 360.26,-19.5 360.26,-0.5 319.26,-0.5"/>
<text text-anchor="middle" x="339.76" y="-7.5" font-family="Helvetica,sans-Serif" font-size="10.00">tuple</text>
</a>
</g>
</g>
<!-- Node13&#45;&gt;Node14 -->
<g id="edge14" class="edge">
<title>Node13&#45;&gt;Node14</title>
<path fill="none" stroke="midnightblue" d="M339.76,-61.98C339.76,-53.58 339.76,-40.48 339.76,-29.66"/>
<polygon fill="midnightblue" stroke="midnightblue" points="343.26,-29.51 339.76,-19.51 336.26,-29.51 343.26,-29.51"/>
</g>
<!-- Node36&#45;&gt;Node6 -->
<g id="edge48" class="edge">
<title>Node36&#45;&gt;Node6</title>
<path fill="none" stroke="midnightblue" d="M1312.77,-123.04C1310.39,-106.51 1302.77,-71.52 1279.76,-56 1235.11,-25.87 364.51,-23.6 310.76,-20 292.27,-18.76 271.75,-16.84 254.71,-15.08"/>
<polygon fill="midnightblue" stroke="midnightblue" points="254.9,-11.58 244.59,-14.02 254.17,-18.55 254.9,-11.58"/>
</g>
<!-- Node36&#45;&gt;Node11 -->
<g id="edge46" class="edge">
<title>Node36&#45;&gt;Node11</title>
<path fill="none" stroke="midnightblue" d="M1270.76,-127.38C1255.89,-125.86 1239.1,-124.25 1223.76,-123 970.77,-102.37 905.24,-121.56 653.76,-87 646.28,-85.97 638.39,-84.58 630.74,-83.06"/>
<polygon fill="midnightblue" stroke="midnightblue" points="631.39,-79.62 620.88,-81.02 629.96,-86.48 631.39,-79.62"/>
</g>
<!-- Node36&#45;&gt;Node12 -->
<g id="edge47" class="edge">
<title>Node36&#45;&gt;Node12</title>
<path fill="none" stroke="midnightblue" d="M1316.94,-123.35C1322.07,-107.65 1329.99,-74.4 1312.76,-56 1276.36,-17.12 899.73,-11.81 780.05,-11.1"/>
<polygon fill="midnightblue" stroke="midnightblue" points="779.96,-7.6 769.94,-11.05 779.92,-14.6 779.96,-7.6"/>
</g>
<!-- Node36&#45;&gt;Node15 -->
<g id="edge49" class="edge">
<title>Node36&#45;&gt;Node15</title>
<path fill="none" stroke="midnightblue" d="M1270.74,-127.65C1255.86,-126.16 1239.08,-124.49 1223.76,-123 1036.57,-104.81 812.44,-83.95 725.62,-75.91"/>
<polygon fill="midnightblue" stroke="midnightblue" points="725.77,-72.41 715.49,-74.97 725.12,-79.38 725.77,-72.41"/>
</g>
<!-- Node36&#45;&gt;Node17 -->
<g id="edge50" class="edge">
<title>Node36&#45;&gt;Node17</title>
<path fill="none" stroke="midnightblue" d="M1302.88,-123.48C1290.8,-114.02 1271.1,-98.6 1256.52,-87.19"/>
<polygon fill="midnightblue" stroke="midnightblue" points="1258.66,-84.42 1248.63,-81.01 1254.35,-89.93 1258.66,-84.42"/>
</g>
<!-- Node36&#45;&gt;Node23 -->
<g id="edge51" class="edge">
<title>Node36&#45;&gt;Node23</title>
<path fill="none" stroke="midnightblue" d="M1290.7,-123.48C1263.08,-113.27 1216.64,-96.11 1185.37,-84.55"/>
<polygon fill="midnightblue" stroke="midnightblue" points="1186.38,-81.19 1175.79,-81.01 1183.96,-87.76 1186.38,-81.19"/>
</g>
<!-- Node38&#45;&gt;Node12 -->
<g id="edge56" class="edge">
<title>Node38&#45;&gt;Node12</title>
<path fill="none" stroke="midnightblue" d="M2250.37,-251.8C2239.2,-234.63 2211.71,-196.5 2177.76,-179 1840.02,-4.94 1709.41,-97.85 1331.76,-56 1123.52,-32.92 872.46,-17.98 780.11,-12.92"/>
<polygon fill="midnightblue" stroke="midnightblue" points="780.08,-9.41 769.9,-12.36 779.7,-16.4 780.08,-9.41"/>
</g>
<!-- Node38&#45;&gt;Node17 -->
<g id="edge59" class="edge">
<title>Node38&#45;&gt;Node17</title>
<path fill="none" stroke="midnightblue" d="M2250.59,-251.98C2239.61,-234.76 2212.16,-196.04 2177.76,-179 2016.49,-99.08 1442.29,-77.94 1280.48,-73.52"/>
<polygon fill="midnightblue" stroke="midnightblue" points="1280.52,-70.02 1270.43,-73.25 1280.33,-77.01 1280.52,-70.02"/>
</g>
<!-- Node38&#45;&gt;Node33 -->
<g id="edge58" class="edge">
<title>Node38&#45;&gt;Node33</title>
<path fill="none" stroke="midnightblue" d="M2224.21,-251.99C2215.96,-249.9 2207.06,-247.76 2198.76,-246 2105.27,-226.2 2078.96,-235.16 1986.76,-210 1984.11,-209.28 1981.38,-208.44 1978.67,-207.53"/>
<polygon fill="midnightblue" stroke="midnightblue" points="1979.62,-204.16 1969.03,-204.08 1977.26,-210.75 1979.62,-204.16"/>
</g>
<!-- Node38&#45;&gt;Node34 -->
<g id="edge60" class="edge">
<title>Node38&#45;&gt;Node34</title>
<path fill="none" stroke="midnightblue" d="M2222.63,-252C2214.81,-250.01 2206.49,-247.92 2198.76,-246 2132.64,-229.6 2114.19,-232.16 2049.76,-210 2048.1,-209.43 2046.4,-208.8 2044.7,-208.14"/>
<polygon fill="midnightblue" stroke="midnightblue" points="2045.7,-204.76 2035.13,-204.08 2042.97,-211.2 2045.7,-204.76"/>
</g>
<!-- Node38&#45;&gt;Node35 -->
<g id="edge62" class="edge">
<title>Node38&#45;&gt;Node35</title>
<path fill="none" stroke="midnightblue" d="M2235.71,-251.87C2209.76,-240.7 2164.34,-221.15 2134.41,-208.26"/>
<polygon fill="midnightblue" stroke="midnightblue" points="2135.47,-204.91 2124.9,-204.17 2132.7,-211.34 2135.47,-204.91"/>
</g>
<!-- Node39 -->
<g id="node39" class="node">
<title>Node39</title>
<g id="a_node39"><a xlink:title=" ">
<polygon fill="none" stroke="#bfbfbf" points="2284.26,-185 2284.26,-204 2349.26,-204 2349.26,-185 2284.26,-185"/>
<text text-anchor="middle" x="2316.76" y="-192" font-family="Helvetica,sans-Serif" font-size="10.00">exception</text>
</a>
</g>
</g>
<!-- Node38&#45;&gt;Node39 -->
<g id="edge57" class="edge">
<title>Node38&#45;&gt;Node39</title>
<path fill="none" stroke="midnightblue" d="M2263.99,-251.73C2273.59,-241.5 2289.68,-224.36 2301.57,-211.69"/>
<polygon fill="midnightblue" stroke="midnightblue" points="2304.38,-213.81 2308.67,-204.13 2299.27,-209.02 2304.38,-213.81"/>
</g>
<!-- Node40 -->
<g id="node40" class="node">
<title>Node40</title>
<g id="a_node40"><a xlink:title=" ">
<polygon fill="none" stroke="#bfbfbf" points="2367.26,-185 2367.26,-204 2432.26,-204 2432.26,-185 2367.26,-185"/>
<text text-anchor="middle" x="2399.76" y="-192" font-family="Helvetica,sans-Serif" font-size="10.00">typeindex</text>
</a>
</g>
</g>
<!-- Node38&#45;&gt;Node40 -->
<g id="edge61" class="edge">
<title>Node38&#45;&gt;Node40</title>
<path fill="none" stroke="midnightblue" d="M2274.89,-251.87C2299.52,-240.75 2342.57,-221.32 2371.12,-208.43"/>
<polygon fill="midnightblue" stroke="midnightblue" points="2372.89,-211.47 2380.56,-204.17 2370.01,-205.09 2372.89,-211.47"/>
</g>
</g>
</svg>
        <g id="navigator" transform="translate(0 0)" fill="#404254">
                <rect fill="#f2f5e9" fill-opacity="0.5" stroke="#606060" stroke-width=".5" x="0" y="0" width="60" height="60"/>
                <use id="zoomplus" xlink:href="#zoomPlus" x="17" y="9" onmousedown="handleZoom(evt,'in')"/>
                <use id="zoomminus" xlink:href="#zoomMin" x="42" y="9" onmousedown="handleZoom(evt,'out')"/>
                <use id="reset" xlink:href="#resetDef" x="30" y="36" onmousedown="handleReset()"/>
                <g id="arrowUp" xlink:href="#dirArrow" transform="translate(30 24)" onmousedown="handlePan(0,-1)">
                  <use xlink:href="#rim" fill="#404040">
                        <set attributeName="fill" to="#808080" begin="arrowUp.mouseover" end="arrowUp.mouseout"/>
                  </use>
                  <path fill="none" stroke="white" stroke-width="1.5" d="M0,-3.0v7 M-2.5,-0.5L0,-3.0L2.5,-0.5"/>
                </g>
                <g id="arrowRight" xlink:href="#dirArrow" transform="rotate(90) translate(36 -43)" onmousedown="handlePan(1,0)">
                  <use xlink:href="#rim" fill="#404040">
                        <set attributeName="fill" to="#808080" begin="arrowRight.mouseover" end="arrowRight.mouseout"/>
                  </use>
                  <path fill="none" stroke="white" stroke-width="1.5" d="M0,-3.0v7 M-2.5,-0.5L0,-3.0L2.5,-0.5"/>
                </g>
                <g id="arrowDown" xlink:href="#dirArrow" transform="rotate(180) translate(-30 -48)" onmousedown="handlePan(0,1)">
                  <use xlink:href="#rim" fill="#404040">
                        <set attributeName="fill" to="#808080" begin="arrowDown.mouseover" end="arrowDown.mouseout"/>
                  </use>
                  <path fill="none" stroke="white" stroke-width="1.5" d="M0,-3.0v7 M-2.5,-0.5L0,-3.0L2.5,-0.5"/>
                </g>
                <g id="arrowLeft" xlink:href="#dirArrow" transform="rotate(270) translate(-36 17)" onmousedown="handlePan(-1,0)">
                  <use xlink:href="#rim" fill="#404040">
                        <set attributeName="fill" to="#808080" begin="arrowLeft.mouseover" end="arrowLeft.mouseout"/>
                  </use>
                  <path fill="none" stroke="white" stroke-width="1.5" d="M0,-3.0v7 M-2.5,-0.5L0,-3.0L2.5,-0.5"/>
                </g>
        </g>
        <svg viewBox="0 0 15 15" width="100%" height="30px" preserveAspectRatio="xMaxYMin meet">
         <g id="arrow_out" transform="scale(0.3 0.3)">
          <a xlink:href="pair__criteria_2initialize_8hpp__incl_org.svg" target="_base">
           <rect id="button" ry="5" rx="5" y="6" x="6" height="38" width="38"
                fill="#f2f5e9" fill-opacity="0.5" stroke="#606060" stroke-width="1.0"/>
           <path id="arrow"
             d="M 11.500037,31.436501 C 11.940474,20.09759 22.043105,11.32322 32.158766,21.979434 L 37.068811,17.246167 C 37.068811,17.246167 37.088388,32 37.088388,32 L 22.160133,31.978069 C 22.160133,31.978069 26.997745,27.140456 26.997745,27.140456 C 18.528582,18.264221 13.291696,25.230495 11.500037,31.436501 z"
             style="fill:#404040;"/>
          </a>
         </g>
        </svg>
</svg>
