<?xml version="1.0" encoding="UTF-8" standalone="no"?>
<!DOCTYPE svg PUBLIC "-//W3C//DTD SVG 1.1//EN"
 "http://www.w3.org/Graphics/SVG/1.1/DTD/svg11.dtd">
<!-- Generated by graphviz version 2.43.0 (0)
 -->
<!-- Title: PartCfg.hpp Pages: 1 -->
<!--zoomable 308 -->
<svg id="main" version="1.1" xmlns="http://www.w3.org/2000/svg" xmlns:xlink="http://www.w3.org/1999/xlink" xml:space="preserve" onload="init(evt)">
<style type="text/css"><![CDATA[
.edge:hover path { stroke: red; }
.edge:hover polygon { stroke: red; fill: red; }
]]></style>
<script type="text/javascript"><![CDATA[
var edges = document.getElementsByTagName('g');
if (edges && edges.length) {
  for (var i=0;i<edges.length;i++) {
    if (edges[i].id.substr(0,4)=='edge') {
      edges[i].setAttribute('class','edge');
    }
  }
}
]]></script>
        <defs>
                <circle id="rim" cx="0" cy="0" r="7"/>
                <circle id="rim2" cx="0" cy="0" r="3.5"/>
                <g id="zoomPlus">
                        <use xlink:href="#rim" fill="#404040">
                                <set attributeName="fill" to="#808080" begin="zoomplus.mouseover" end="zoomplus.mouseout"/>
                        </use>
                        <path d="M-4,0h8M0,-4v8" fill="none" stroke="white" stroke-width="1.5" pointer-events="none"/>
                </g>
                <g id="zoomMin">
                        <use xlink:href="#rim" fill="#404040">
                                <set attributeName="fill" to="#808080" begin="zoomminus.mouseover" end="zoomminus.mouseout"/>
                        </use>
                        <path d="M-4,0h8" fill="none" stroke="white" stroke-width="1.5" pointer-events="none"/>
                </g>
                <g id="dirArrow">
                        <path fill="none" stroke="white" stroke-width="1.5" d="M0,-3.0v7 M-2.5,-0.5L0,-3.0L2.5,-0.5"/>
                </g>
               <g id="resetDef">
                       <use xlink:href="#rim2" fill="#404040">
                               <set attributeName="fill" to="#808080" begin="reset.mouseover" end="reset.mouseout"/>
                       </use>
               </g>
        </defs>

<script type="text/javascript">
var viewWidth = 979;
var viewHeight = 308;
var sectionId = 'dynsection-1';
</script>
<script xlink:href="svgpan.js"/>
<svg id="graph" class="graph">
<g id="viewport">
<title>PartCfg.hpp</title>
<!-- Node1 -->
<g id="node1" class="node">
<title>Node1</title>
<g id="a_node1"><a xlink:title=" ">
<polygon fill="#bfbfbf" stroke="black" points="654,-280.5 654,-299.5 728,-299.5 728,-280.5 654,-280.5"/>
<text text-anchor="middle" x="691" y="-287.5" font-family="Helvetica,sans-Serif" font-size="10.00">PartCfg.hpp</text>
</a>
</g>
</g>
<!-- Node2 -->
<g id="node2" class="node">
<title>Node2</title>
<g id="a_node2"><a xlink:href="ClusterStructure_8cpp.html" target="_top" xlink:title=" ">
<polygon fill="none" stroke="black" points="0,-168.5 0,-187.5 116,-187.5 116,-168.5 0,-168.5"/>
<text text-anchor="middle" x="58" y="-175.5" font-family="Helvetica,sans-Serif" font-size="10.00">ClusterStructure.cpp</text>
</a>
</g>
</g>
<!-- Node1&#45;&gt;Node2 -->
<g id="edge1" class="edge">
<title>Node1&#45;&gt;Node2</title>
<path fill="none" stroke="midnightblue" d="M643.61,-284.74C574.53,-278.16 442.27,-264.14 331,-244 242.31,-227.95 139.23,-201.15 88.88,-187.52"/>
<polygon fill="midnightblue" stroke="midnightblue" points="643.46,-288.24 653.74,-285.7 644.11,-281.28 643.46,-288.24"/>
</g>
<!-- Node3 -->
<g id="node3" class="node">
<title>Node3</title>
<g id="a_node3"><a xlink:href="partCfg__global_8hpp.html" target="_top" xlink:title=" ">
<polygon fill="none" stroke="black" points="340.5,-224.5 340.5,-243.5 449.5,-243.5 449.5,-224.5 340.5,-224.5"/>
<text text-anchor="middle" x="395" y="-231.5" font-family="Helvetica,sans-Serif" font-size="10.00">partCfg_global.hpp</text>
</a>
</g>
</g>
<!-- Node1&#45;&gt;Node3 -->
<g id="edge2" class="edge">
<title>Node1&#45;&gt;Node3</title>
<path fill="none" stroke="midnightblue" d="M643.9,-280.41C588.49,-270.3 497.05,-253.62 441.78,-243.53"/>
<polygon fill="midnightblue" stroke="midnightblue" points="643.35,-283.86 653.81,-282.22 644.6,-276.98 643.35,-283.86"/>
</g>
<!-- Node9 -->
<g id="node9" class="node">
<title>Node9</title>
<g id="a_node9"><a xlink:href="PartCfg_8cpp.html" target="_top" xlink:title=" ">
<polygon fill="none" stroke="black" points="897.5,-224.5 897.5,-243.5 970.5,-243.5 970.5,-224.5 897.5,-224.5"/>
<text text-anchor="middle" x="934" y="-231.5" font-family="Helvetica,sans-Serif" font-size="10.00">PartCfg.cpp</text>
</a>
</g>
</g>
<!-- Node1&#45;&gt;Node9 -->
<g id="edge9" class="edge">
<title>Node1&#45;&gt;Node9</title>
<path fill="none" stroke="midnightblue" d="M738,-278.56C784.49,-268.22 854.67,-252.63 897.23,-243.17"/>
<polygon fill="midnightblue" stroke="midnightblue" points="737.17,-275.15 728.17,-280.74 738.69,-281.99 737.17,-275.15"/>
</g>
<!-- Node10 -->
<g id="node10" class="node">
<title>Node10</title>
<g id="a_node10"><a xlink:href="polymer_8hpp.html" target="_top" xlink:title=" ">
<polygon fill="none" stroke="black" points="859,-112.5 859,-131.5 937,-131.5 937,-112.5 859,-112.5"/>
<text text-anchor="middle" x="898" y="-119.5" font-family="Helvetica,sans-Serif" font-size="10.00">polymer.hpp</text>
</a>
</g>
</g>
<!-- Node1&#45;&gt;Node10 -->
<g id="edge10" class="edge">
<title>Node1&#45;&gt;Node10</title>
<path fill="none" stroke="midnightblue" d="M713.37,-274.77C742.09,-256.13 792.97,-221.84 833,-188 854.94,-169.45 878.16,-144.85 890.02,-131.88"/>
<polygon fill="midnightblue" stroke="midnightblue" points="711.38,-271.89 704.87,-280.25 715.17,-277.77 711.38,-271.89"/>
</g>
<!-- Node12 -->
<g id="node12" class="node">
<title>Node12</title>
<g id="a_node12"><a xlink:href="statistics_8hpp.html" target="_top" xlink:title=" ">
<polygon fill="none" stroke="black" points="650,-224.5 650,-243.5 732,-243.5 732,-224.5 650,-224.5"/>
<text text-anchor="middle" x="691" y="-231.5" font-family="Helvetica,sans-Serif" font-size="10.00">statistics.hpp</text>
</a>
</g>
</g>
<!-- Node1&#45;&gt;Node12 -->
<g id="edge12" class="edge">
<title>Node1&#45;&gt;Node12</title>
<path fill="none" stroke="midnightblue" d="M691,-269.8C691,-260.91 691,-250.78 691,-243.75"/>
<polygon fill="midnightblue" stroke="midnightblue" points="687.5,-270.08 691,-280.08 694.5,-270.08 687.5,-270.08"/>
</g>
<!-- Node3&#45;&gt;Node2 -->
<g id="edge3" class="edge">
<title>Node3&#45;&gt;Node2</title>
<path fill="none" stroke="midnightblue" d="M331.68,-222.85C268.01,-212.65 170.94,-197.1 111.15,-187.52"/>
<polygon fill="midnightblue" stroke="midnightblue" points="331.17,-226.32 341.6,-224.44 332.28,-219.41 331.17,-226.32"/>
</g>
<!-- Node4 -->
<g id="node4" class="node">
<title>Node4</title>
<g id="a_node4"><a xlink:href="event_8cpp.html" target="_top" xlink:title=" ">
<polygon fill="none" stroke="black" points="134.5,-168.5 134.5,-187.5 199.5,-187.5 199.5,-168.5 134.5,-168.5"/>
<text text-anchor="middle" x="167" y="-175.5" font-family="Helvetica,sans-Serif" font-size="10.00">event.cpp</text>
</a>
</g>
</g>
<!-- Node3&#45;&gt;Node4 -->
<g id="edge4" class="edge">
<title>Node3&#45;&gt;Node4</title>
<path fill="none" stroke="midnightblue" d="M348.93,-222.09C304.63,-211.6 238.77,-196 199.63,-186.73"/>
<polygon fill="midnightblue" stroke="midnightblue" points="348.34,-225.54 358.87,-224.44 349.95,-218.73 348.34,-225.54"/>
</g>
<!-- Node5 -->
<g id="node5" class="node">
<title>Node5</title>
<g id="a_node5"><a xlink:href="partCfg__global_8cpp.html" target="_top" xlink:title=" ">
<polygon fill="none" stroke="black" points="218,-168.5 218,-187.5 326,-187.5 326,-168.5 218,-168.5"/>
<text text-anchor="middle" x="272" y="-175.5" font-family="Helvetica,sans-Serif" font-size="10.00">partCfg_global.cpp</text>
</a>
</g>
</g>
<!-- Node3&#45;&gt;Node5 -->
<g id="edge5" class="edge">
<title>Node3&#45;&gt;Node5</title>
<path fill="none" stroke="midnightblue" d="M366.23,-220.37C343.19,-210.26 311.52,-196.35 291.4,-187.52"/>
<polygon fill="midnightblue" stroke="midnightblue" points="364.95,-223.63 375.51,-224.44 367.76,-217.22 364.95,-223.63"/>
</g>
<!-- Node6 -->
<g id="node6" class="node">
<title>Node6</title>
<g id="a_node6"><a xlink:href="particle__data_8cpp.html" target="_top" xlink:title=" ">
<polygon fill="none" stroke="black" points="344.5,-168.5 344.5,-187.5 445.5,-187.5 445.5,-168.5 344.5,-168.5"/>
<text text-anchor="middle" x="395" y="-175.5" font-family="Helvetica,sans-Serif" font-size="10.00">particle_data.cpp</text>
</a>
</g>
</g>
<!-- Node3&#45;&gt;Node6 -->
<g id="edge6" class="edge">
<title>Node3&#45;&gt;Node6</title>
<path fill="none" stroke="midnightblue" d="M395,-213.8C395,-204.91 395,-194.78 395,-187.75"/>
<polygon fill="midnightblue" stroke="midnightblue" points="391.5,-214.08 395,-224.08 398.5,-214.08 391.5,-214.08"/>
</g>
<!-- Node7 -->
<g id="node7" class="node">
<title>Node7</title>
<g id="a_node7"><a xlink:href="ReactionAlgorithm_8cpp.html" target="_top" xlink:title=" ">
<polygon fill="none" stroke="black" points="563,-168.5 563,-187.5 691,-187.5 691,-168.5 563,-168.5"/>
<text text-anchor="middle" x="627" y="-175.5" font-family="Helvetica,sans-Serif" font-size="10.00">ReactionAlgorithm.cpp</text>
</a>
</g>
</g>
<!-- Node3&#45;&gt;Node7 -->
<g id="edge7" class="edge">
<title>Node3&#45;&gt;Node7</title>
<path fill="none" stroke="midnightblue" d="M441.6,-222.15C485.44,-211.95 550.18,-196.88 590.41,-187.52"/>
<polygon fill="midnightblue" stroke="midnightblue" points="440.71,-218.77 431.76,-224.44 442.29,-225.59 440.71,-218.77"/>
</g>
<!-- Node8 -->
<g id="node8" class="node">
<title>Node8</title>
<g id="a_node8"><a xlink:href="statistics_8cpp.html" target="_top" xlink:title=" ">
<polygon fill="none" stroke="black" points="463.5,-168.5 463.5,-187.5 544.5,-187.5 544.5,-168.5 463.5,-168.5"/>
<text text-anchor="middle" x="504" y="-175.5" font-family="Helvetica,sans-Serif" font-size="10.00">statistics.cpp</text>
</a>
</g>
</g>
<!-- Node3&#45;&gt;Node8 -->
<g id="edge8" class="edge">
<title>Node3&#45;&gt;Node8</title>
<path fill="none" stroke="midnightblue" d="M421.52,-219.86C441.73,-209.85 468.99,-196.35 486.53,-187.65"/>
<polygon fill="midnightblue" stroke="midnightblue" points="419.92,-216.75 412.51,-224.32 423.03,-223.02 419.92,-216.75"/>
</g>
<!-- Node11 -->
<g id="node11" class="node">
<title>Node11</title>
<g id="a_node11"><a xlink:href="polymer_8cpp.html" target="_top" xlink:title=" ">
<polygon fill="none" stroke="black" points="842.5,-56.5 842.5,-75.5 919.5,-75.5 919.5,-56.5 842.5,-56.5"/>
<text text-anchor="middle" x="881" y="-63.5" font-family="Helvetica,sans-Serif" font-size="10.00">polymer.cpp</text>
</a>
</g>
</g>
<!-- Node10&#45;&gt;Node11 -->
<g id="edge11" class="edge">
<title>Node10&#45;&gt;Node11</title>
<path fill="none" stroke="midnightblue" d="M892.14,-102.4C889.3,-93.36 886.02,-82.94 883.75,-75.75"/>
<polygon fill="midnightblue" stroke="midnightblue" points="888.85,-103.6 895.19,-112.08 895.53,-101.49 888.85,-103.6"/>
</g>
<!-- Node12&#45;&gt;Node7 -->
<g id="edge23" class="edge">
<title>Node12&#45;&gt;Node7</title>
<path fill="none" stroke="midnightblue" d="M673.01,-217.82C661.54,-208.15 647.09,-195.95 637.47,-187.83"/>
<polygon fill="midnightblue" stroke="midnightblue" points="670.82,-220.55 680.72,-224.32 675.33,-215.2 670.82,-220.55"/>
</g>
<!-- Node12&#45;&gt;Node8 -->
<g id="edge24" class="edge">
<title>Node12&#45;&gt;Node8</title>
<path fill="none" stroke="midnightblue" d="M651.41,-221.57C616.13,-211.38 565.31,-196.7 533.49,-187.52"/>
<polygon fill="midnightblue" stroke="midnightblue" points="650.79,-225.03 661.37,-224.44 652.73,-218.31 650.79,-225.03"/>
</g>
<!-- Node12&#45;&gt;Node11 -->
<g id="edge22" class="edge">
<title>Node12&#45;&gt;Node11</title>
<path fill="none" stroke="midnightblue" d="M741.87,-223.14C765.42,-216.47 792.45,-205.56 812,-188 840.1,-162.77 830.8,-144.52 850,-112 857.72,-98.93 867.9,-84.62 874.45,-75.72"/>
<polygon fill="midnightblue" stroke="midnightblue" points="740.79,-219.81 732.02,-225.75 742.59,-226.57 740.79,-219.81"/>
</g>
<!-- Node13 -->
<g id="node13" class="node">
<title>Node13</title>
<g id="a_node13"><a xlink:href="core_2constraints_2Constraints_8hpp.html" target="_top" xlink:title=" ">
<polygon fill="none" stroke="black" points="709.5,-168.5 709.5,-187.5 802.5,-187.5 802.5,-168.5 709.5,-168.5"/>
<text text-anchor="middle" x="756" y="-175.5" font-family="Helvetica,sans-Serif" font-size="10.00">Constraints.hpp</text>
</a>
</g>
</g>
<!-- Node12&#45;&gt;Node13 -->
<g id="edge13" class="edge">
<title>Node12&#45;&gt;Node13</title>
<path fill="none" stroke="midnightblue" d="M709.27,-217.82C720.92,-208.15 735.6,-195.95 745.37,-187.83"/>
<polygon fill="midnightblue" stroke="midnightblue" points="706.9,-215.24 701.44,-224.32 711.37,-220.63 706.9,-215.24"/>
</g>
<!-- Node13&#45;&gt;Node11 -->
<g id="edge21" class="edge">
<title>Node13&#45;&gt;Node11</title>
<path fill="none" stroke="midnightblue" d="M769.53,-160.82C781.37,-147.11 799.39,-127.29 817,-112 833.21,-97.93 853.79,-84.09 867.17,-75.55"/>
<polygon fill="midnightblue" stroke="midnightblue" points="766.83,-158.59 763.01,-168.48 772.16,-163.13 766.83,-158.59"/>
</g>
<!-- Node14 -->
<g id="node14" class="node">
<title>Node14</title>
<g id="a_node14"><a xlink:href="constraints_8hpp.html" target="_top" xlink:title=" ">
<polygon fill="none" stroke="black" points="651,-112.5 651,-131.5 743,-131.5 743,-112.5 651,-112.5"/>
<text text-anchor="middle" x="697" y="-119.5" font-family="Helvetica,sans-Serif" font-size="10.00">constraints.hpp</text>
</a>
</g>
</g>
<!-- Node13&#45;&gt;Node14 -->
<g id="edge14" class="edge">
<title>Node13&#45;&gt;Node14</title>
<path fill="none" stroke="midnightblue" d="M739.11,-161.54C728.59,-151.91 715.43,-139.87 706.65,-131.83"/>
<polygon fill="midnightblue" stroke="midnightblue" points="736.78,-164.15 746.52,-168.32 741.51,-158.99 736.78,-164.15"/>
</g>
<!-- Node14&#45;&gt;Node11 -->
<g id="edge18" class="edge">
<title>Node14&#45;&gt;Node11</title>
<path fill="none" stroke="midnightblue" d="M735.95,-109.57C770.66,-99.38 820.68,-84.7 851.98,-75.52"/>
<polygon fill="midnightblue" stroke="midnightblue" points="734.77,-106.27 726.16,-112.44 736.74,-112.99 734.77,-106.27"/>
</g>
<!-- Node15 -->
<g id="node15" class="node">
<title>Node15</title>
<g id="a_node15"><a xlink:href="constraints_8cpp.html" target="_top" xlink:title=" ">
<polygon fill="none" stroke="black" points="646.5,-56.5 646.5,-75.5 737.5,-75.5 737.5,-56.5 646.5,-56.5"/>
<text text-anchor="middle" x="692" y="-63.5" font-family="Helvetica,sans-Serif" font-size="10.00">constraints.cpp</text>
</a>
</g>
</g>
<!-- Node14&#45;&gt;Node15 -->
<g id="edge15" class="edge">
<title>Node14&#45;&gt;Node15</title>
<path fill="none" stroke="midnightblue" d="M695.25,-102.1C694.42,-93.14 693.47,-82.86 692.81,-75.75"/>
<polygon fill="midnightblue" stroke="midnightblue" points="691.77,-102.45 696.17,-112.08 698.74,-101.8 691.77,-102.45"/>
</g>
<!-- Node16 -->
<g id="node16" class="node">
<title>Node16</title>
<g id="a_node16"><a xlink:href="energy_8cpp.html" target="_top" xlink:title=" ">
<polygon fill="none" stroke="black" points="755.5,-56.5 755.5,-75.5 824.5,-75.5 824.5,-56.5 755.5,-56.5"/>
<text text-anchor="middle" x="790" y="-63.5" font-family="Helvetica,sans-Serif" font-size="10.00">energy.cpp</text>
</a>
</g>
</g>
<!-- Node14&#45;&gt;Node16 -->
<g id="edge16" class="edge">
<title>Node14&#45;&gt;Node16</title>
<path fill="none" stroke="midnightblue" d="M720.81,-107.18C737.92,-97.24 760.47,-84.15 775.1,-75.65"/>
<polygon fill="midnightblue" stroke="midnightblue" points="718.83,-104.28 711.94,-112.32 722.35,-110.33 718.83,-104.28"/>
</g>
<!-- Node17 -->
<g id="node17" class="node">
<title>Node17</title>
<g id="a_node17"><a xlink:href="forces_8cpp.html" target="_top" xlink:title=" ">
<polygon fill="none" stroke="black" points="450.5,-56.5 450.5,-75.5 517.5,-75.5 517.5,-56.5 450.5,-56.5"/>
<text text-anchor="middle" x="484" y="-63.5" font-family="Helvetica,sans-Serif" font-size="10.00">forces.cpp</text>
</a>
</g>
</g>
<!-- Node14&#45;&gt;Node17 -->
<g id="edge17" class="edge">
<title>Node14&#45;&gt;Node17</title>
<path fill="none" stroke="midnightblue" d="M653.45,-109.96C613.22,-99.76 554.3,-84.82 517.59,-75.52"/>
<polygon fill="midnightblue" stroke="midnightblue" points="652.7,-113.38 663.25,-112.44 654.42,-106.59 652.7,-113.38"/>
</g>
<!-- Node18 -->
<g id="node18" class="node">
<title>Node18</title>
<g id="a_node18"><a xlink:href="script__interface_2constraints_2Constraints_8hpp.html" target="_top" xlink:title=" ">
<polygon fill="none" stroke="black" points="535.5,-56.5 535.5,-75.5 628.5,-75.5 628.5,-56.5 535.5,-56.5"/>
<text text-anchor="middle" x="582" y="-63.5" font-family="Helvetica,sans-Serif" font-size="10.00">Constraints.hpp</text>
</a>
</g>
</g>
<!-- Node14&#45;&gt;Node18 -->
<g id="edge19" class="edge">
<title>Node14&#45;&gt;Node18</title>
<path fill="none" stroke="midnightblue" d="M669.52,-108.1C648.03,-98.01 618.78,-84.27 600.14,-75.52"/>
<polygon fill="midnightblue" stroke="midnightblue" points="668.24,-111.36 678.78,-112.44 671.21,-105.02 668.24,-111.36"/>
</g>
<!-- Node19 -->
<g id="node19" class="node">
<title>Node19</title>
<g id="a_node19"><a xlink:href="constraints_2initialize_8cpp.html" target="_top" xlink:title=" ">
<polygon fill="none" stroke="black" points="542.5,-0.5 542.5,-19.5 621.5,-19.5 621.5,-0.5 542.5,-0.5"/>
<text text-anchor="middle" x="582" y="-7.5" font-family="Helvetica,sans-Serif" font-size="10.00">initialize.cpp</text>
</a>
</g>
</g>
<!-- Node18&#45;&gt;Node19 -->
<g id="edge20" class="edge">
<title>Node18&#45;&gt;Node19</title>
<path fill="none" stroke="midnightblue" d="M582,-45.8C582,-36.91 582,-26.78 582,-19.75"/>
<polygon fill="midnightblue" stroke="midnightblue" points="578.5,-46.08 582,-56.08 585.5,-46.08 578.5,-46.08"/>
</g>
</g>
</svg>
        <g id="navigator" transform="translate(0 0)" fill="#404254">
                <rect fill="#f2f5e9" fill-opacity="0.5" stroke="#606060" stroke-width=".5" x="0" y="0" width="60" height="60"/>
                <use id="zoomplus" xlink:href="#zoomPlus" x="17" y="9" onmousedown="handleZoom(evt,'in')"/>
                <use id="zoomminus" xlink:href="#zoomMin" x="42" y="9" onmousedown="handleZoom(evt,'out')"/>
                <use id="reset" xlink:href="#resetDef" x="30" y="36" onmousedown="handleReset()"/>
                <g id="arrowUp" xlink:href="#dirArrow" transform="translate(30 24)" onmousedown="handlePan(0,-1)">
                  <use xlink:href="#rim" fill="#404040">
                        <set attributeName="fill" to="#808080" begin="arrowUp.mouseover" end="arrowUp.mouseout"/>
                  </use>
                  <path fill="none" stroke="white" stroke-width="1.5" d="M0,-3.0v7 M-2.5,-0.5L0,-3.0L2.5,-0.5"/>
                </g>
                <g id="arrowRight" xlink:href="#dirArrow" transform="rotate(90) translate(36 -43)" onmousedown="handlePan(1,0)">
                  <use xlink:href="#rim" fill="#404040">
                        <set attributeName="fill" to="#808080" begin="arrowRight.mouseover" end="arrowRight.mouseout"/>
                  </use>
                  <path fill="none" stroke="white" stroke-width="1.5" d="M0,-3.0v7 M-2.5,-0.5L0,-3.0L2.5,-0.5"/>
                </g>
                <g id="arrowDown" xlink:href="#dirArrow" transform="rotate(180) translate(-30 -48)" onmousedown="handlePan(0,1)">
                  <use xlink:href="#rim" fill="#404040">
                        <set attributeName="fill" to="#808080" begin="arrowDown.mouseover" end="arrowDown.mouseout"/>
                  </use>
                  <path fill="none" stroke="white" stroke-width="1.5" d="M0,-3.0v7 M-2.5,-0.5L0,-3.0L2.5,-0.5"/>
                </g>
                <g id="arrowLeft" xlink:href="#dirArrow" transform="rotate(270) translate(-36 17)" onmousedown="handlePan(-1,0)">
                  <use xlink:href="#rim" fill="#404040">
                        <set attributeName="fill" to="#808080" begin="arrowLeft.mouseover" end="arrowLeft.mouseout"/>
                  </use>
                  <path fill="none" stroke="white" stroke-width="1.5" d="M0,-3.0v7 M-2.5,-0.5L0,-3.0L2.5,-0.5"/>
                </g>
        </g>
        <svg viewBox="0 0 15 15" width="100%" height="30px" preserveAspectRatio="xMaxYMin meet">
         <g id="arrow_out" transform="scale(0.3 0.3)">
          <a xlink:href="PartCfg_8hpp__dep__incl_org.svg" target="_base">
           <rect id="button" ry="5" rx="5" y="6" x="6" height="38" width="38"
                fill="#f2f5e9" fill-opacity="0.5" stroke="#606060" stroke-width="1.0"/>
           <path id="arrow"
             d="M 11.500037,31.436501 C 11.940474,20.09759 22.043105,11.32322 32.158766,21.979434 L 37.068811,17.246167 C 37.068811,17.246167 37.088388,32 37.088388,32 L 22.160133,31.978069 C 22.160133,31.978069 26.997745,27.140456 26.997745,27.140456 C 18.528582,18.264221 13.291696,25.230495 11.500037,31.436501 z"
             style="fill:#404040;"/>
          </a>
         </g>
        </svg>
</svg>
