<?xml version="1.0" encoding="UTF-8" standalone="no"?>
<!DOCTYPE svg PUBLIC "-//W3C//DTD SVG 1.1//EN"
 "http://www.w3.org/Graphics/SVG/1.1/DTD/svg11.dtd">
<!-- Generated by graphviz version 2.43.0 (0)
 -->
<!-- Title: partCfg_global.hpp Pages: 1 -->
<svg width="700pt" height="84pt"
 viewBox="0.00 0.00 699.50 84.00" xmlns="http://www.w3.org/2000/svg" xmlns:xlink="http://www.w3.org/1999/xlink">
<g id="graph0" class="graph" transform="scale(1 1) rotate(0) translate(4 80)">
<title>partCfg_global.hpp</title>
<!-- Node1 -->
<g id="node1" class="node">
<title>Node1</title>
<g id="a_node1"><a xlink:title=" ">
<polygon fill="#bfbfbf" stroke="black" points="278.5,-56.5 278.5,-75.5 387.5,-75.5 387.5,-56.5 278.5,-56.5"/>
<text text-anchor="middle" x="333" y="-63.5" font-family="Helvetica,sans-Serif" font-size="10.00">partCfg_global.hpp</text>
</a>
</g>
</g>
<!-- Node2 -->
<g id="node2" class="node">
<title>Node2</title>
<g id="a_node2"><a xlink:href="ClusterStructure_8cpp.html" target="_top" xlink:title=" ">
<polygon fill="none" stroke="black" points="0,-0.5 0,-19.5 116,-19.5 116,-0.5 0,-0.5"/>
<text text-anchor="middle" x="58" y="-7.5" font-family="Helvetica,sans-Serif" font-size="10.00">ClusterStructure.cpp</text>
</a>
</g>
</g>
<!-- Node1&#45;&gt;Node2 -->
<g id="edge1" class="edge">
<title>Node1&#45;&gt;Node2</title>
<path fill="none" stroke="midnightblue" d="M279.39,-54.47C227.42,-44.27 149.56,-28.98 101.37,-19.52"/>
<polygon fill="midnightblue" stroke="midnightblue" points="278.94,-57.95 289.43,-56.44 280.29,-51.08 278.94,-57.95"/>
</g>
<!-- Node3 -->
<g id="node3" class="node">
<title>Node3</title>
<g id="a_node3"><a xlink:href="event_8cpp.html" target="_top" xlink:title=" ">
<polygon fill="none" stroke="black" points="134.5,-0.5 134.5,-19.5 199.5,-19.5 199.5,-0.5 134.5,-0.5"/>
<text text-anchor="middle" x="167" y="-7.5" font-family="Helvetica,sans-Serif" font-size="10.00">event.cpp</text>
</a>
</g>
</g>
<!-- Node1&#45;&gt;Node3 -->
<g id="edge2" class="edge">
<title>Node1&#45;&gt;Node3</title>
<path fill="none" stroke="midnightblue" d="M297.05,-53.3C265.77,-43.13 221.18,-28.62 193.18,-19.52"/>
<polygon fill="midnightblue" stroke="midnightblue" points="296.1,-56.68 306.7,-56.44 298.27,-50.02 296.1,-56.68"/>
</g>
<!-- Node4 -->
<g id="node4" class="node">
<title>Node4</title>
<g id="a_node4"><a xlink:href="partCfg__global_8cpp.html" target="_top" xlink:title=" ">
<polygon fill="none" stroke="black" points="218,-0.5 218,-19.5 326,-19.5 326,-0.5 218,-0.5"/>
<text text-anchor="middle" x="272" y="-7.5" font-family="Helvetica,sans-Serif" font-size="10.00">partCfg_global.cpp</text>
</a>
</g>
</g>
<!-- Node1&#45;&gt;Node4 -->
<g id="edge3" class="edge">
<title>Node1&#45;&gt;Node4</title>
<path fill="none" stroke="midnightblue" d="M315.53,-49.54C304.66,-39.91 291.06,-27.87 281.98,-19.83"/>
<polygon fill="midnightblue" stroke="midnightblue" points="313.39,-52.32 323.2,-56.32 318.03,-47.07 313.39,-52.32"/>
</g>
<!-- Node5 -->
<g id="node5" class="node">
<title>Node5</title>
<g id="a_node5"><a xlink:href="particle__data_8cpp.html" target="_top" xlink:title=" ">
<polygon fill="none" stroke="black" points="344.5,-0.5 344.5,-19.5 445.5,-19.5 445.5,-0.5 344.5,-0.5"/>
<text text-anchor="middle" x="395" y="-7.5" font-family="Helvetica,sans-Serif" font-size="10.00">particle_data.cpp</text>
</a>
</g>
</g>
<!-- Node1&#45;&gt;Node5 -->
<g id="edge4" class="edge">
<title>Node1&#45;&gt;Node5</title>
<path fill="none" stroke="midnightblue" d="M350.75,-49.54C361.81,-39.91 375.63,-27.87 384.86,-19.83"/>
<polygon fill="midnightblue" stroke="midnightblue" points="348.2,-47.12 342.96,-56.32 352.8,-52.4 348.2,-47.12"/>
</g>
<!-- Node6 -->
<g id="node6" class="node">
<title>Node6</title>
<g id="a_node6"><a xlink:href="ReactionAlgorithm_8cpp.html" target="_top" xlink:title=" ">
<polygon fill="none" stroke="black" points="464,-0.5 464,-19.5 592,-19.5 592,-0.5 464,-0.5"/>
<text text-anchor="middle" x="528" y="-7.5" font-family="Helvetica,sans-Serif" font-size="10.00">ReactionAlgorithm.cpp</text>
</a>
</g>
</g>
<!-- Node1&#45;&gt;Node6 -->
<g id="edge5" class="edge">
<title>Node1&#45;&gt;Node6</title>
<path fill="none" stroke="midnightblue" d="M373.81,-53.7C410.61,-43.51 463.93,-28.74 497.25,-19.52"/>
<polygon fill="midnightblue" stroke="midnightblue" points="372.6,-50.4 363.9,-56.44 374.47,-57.15 372.6,-50.4"/>
</g>
<!-- Node7 -->
<g id="node7" class="node">
<title>Node7</title>
<g id="a_node7"><a xlink:href="statistics_8cpp.html" target="_top" xlink:title=" ">
<polygon fill="none" stroke="black" points="610.5,-0.5 610.5,-19.5 691.5,-19.5 691.5,-0.5 610.5,-0.5"/>
<text text-anchor="middle" x="651" y="-7.5" font-family="Helvetica,sans-Serif" font-size="10.00">statistics.cpp</text>
</a>
</g>
</g>
<!-- Node1&#45;&gt;Node7 -->
<g id="edge6" class="edge">
<title>Node1&#45;&gt;Node7</title>
<path fill="none" stroke="midnightblue" d="M395.07,-54.79C449.41,-45.8 530.48,-32.27 601,-20 604.04,-19.47 607.19,-18.92 610.35,-18.36"/>
<polygon fill="midnightblue" stroke="midnightblue" points="394.2,-51.39 384.91,-56.47 395.35,-58.29 394.2,-51.39"/>
</g>
</g>
</svg>
