<?xml version="1.0" encoding="UTF-8" standalone="no"?>
<!DOCTYPE svg PUBLIC "-//W3C//DTD SVG 1.1//EN"
 "http://www.w3.org/Graphics/SVG/1.1/DTD/svg11.dtd">
<!-- Generated by graphviz version 2.43.0 (0)
 -->
<!-- Title: particle_data.hpp Pages: 1 -->
<svg width="1801pt" height="308pt"
 viewBox="0.00 0.00 1801.00 308.00" xmlns="http://www.w3.org/2000/svg" xmlns:xlink="http://www.w3.org/1999/xlink">
<g id="graph0" class="graph" transform="scale(1 1) rotate(0) translate(4 304)">
<title>particle_data.hpp</title>
<!-- Node1 -->
<g id="node1" class="node">
<title>Node1</title>
<g id="a_node1"><a xlink:title=" ">
<polygon fill="#bfbfbf" stroke="black" points="753,-280.5 753,-299.5 854,-299.5 854,-280.5 753,-280.5"/>
<text text-anchor="middle" x="803.5" y="-287.5" font-family="Helvetica,sans-Serif" font-size="10.00">particle_data.hpp</text>
</a>
</g>
</g>
<!-- Node2 -->
<g id="node2" class="node">
<title>Node2</title>
<g id="a_node2"><a xlink:href="cells_8cpp.html" target="_top" xlink:title=" ">
<polygon fill="none" stroke="black" points="0,-224.5 0,-243.5 59,-243.5 59,-224.5 0,-224.5"/>
<text text-anchor="middle" x="29.5" y="-231.5" font-family="Helvetica,sans-Serif" font-size="10.00">cells.cpp</text>
</a>
</g>
</g>
<!-- Node1&#45;&gt;Node2 -->
<g id="edge1" class="edge">
<title>Node1&#45;&gt;Node2</title>
<path fill="none" stroke="midnightblue" d="M742.52,-288.8C615.99,-287.6 316.01,-280.75 67.5,-244 64.82,-243.6 62.05,-243.11 59.28,-242.56"/>
<polygon fill="midnightblue" stroke="midnightblue" points="742.74,-292.3 752.77,-288.88 742.8,-285.3 742.74,-292.3"/>
</g>
<!-- Node3 -->
<g id="node3" class="node">
<title>Node3</title>
<g id="a_node3"><a xlink:href="Cluster_8cpp.html" target="_top" xlink:title=" ">
<polygon fill="none" stroke="black" points="77,-224.5 77,-243.5 148,-243.5 148,-224.5 77,-224.5"/>
<text text-anchor="middle" x="112.5" y="-231.5" font-family="Helvetica,sans-Serif" font-size="10.00">Cluster.cpp</text>
</a>
</g>
</g>
<!-- Node1&#45;&gt;Node3 -->
<g id="edge2" class="edge">
<title>Node1&#45;&gt;Node3</title>
<path fill="none" stroke="midnightblue" d="M742.93,-287.46C628.07,-283.95 370.93,-273.26 156.5,-244 153.87,-243.64 151.17,-243.22 148.45,-242.76"/>
<polygon fill="midnightblue" stroke="midnightblue" points="742.83,-290.96 752.93,-287.76 743.04,-283.96 742.83,-290.96"/>
</g>
<!-- Node4 -->
<g id="node4" class="node">
<title>Node4</title>
<g id="a_node4"><a xlink:href="mdlc__correction_8cpp.html" target="_top" xlink:title=" ">
<polygon fill="none" stroke="black" points="166,-224.5 166,-243.5 281,-243.5 281,-224.5 166,-224.5"/>
<text text-anchor="middle" x="223.5" y="-231.5" font-family="Helvetica,sans-Serif" font-size="10.00">mdlc_correction.cpp</text>
</a>
</g>
</g>
<!-- Node1&#45;&gt;Node4 -->
<g id="edge3" class="edge">
<title>Node1&#45;&gt;Node4</title>
<path fill="none" stroke="midnightblue" d="M742.58,-284.62C646.25,-277.48 452.91,-262.28 289.5,-244 286.74,-243.69 283.92,-243.36 281.07,-243.02"/>
<polygon fill="midnightblue" stroke="midnightblue" points="742.48,-288.12 752.72,-285.37 743,-281.14 742.48,-288.12"/>
</g>
<!-- Node5 -->
<g id="node5" class="node">
<title>Node5</title>
<g id="a_node5"><a xlink:href="ScafacosContext_8cpp.html" target="_top" xlink:title=" ">
<polygon fill="none" stroke="black" points="299,-224.5 299,-243.5 418,-243.5 418,-224.5 299,-224.5"/>
<text text-anchor="middle" x="358.5" y="-231.5" font-family="Helvetica,sans-Serif" font-size="10.00">ScafacosContext.cpp</text>
</a>
</g>
</g>
<!-- Node1&#45;&gt;Node5 -->
<g id="edge4" class="edge">
<title>Node1&#45;&gt;Node5</title>
<path fill="none" stroke="midnightblue" d="M742.72,-281.99C668.18,-273.33 538,-258.03 426.5,-244 423.78,-243.66 421,-243.3 418.2,-242.95"/>
<polygon fill="midnightblue" stroke="midnightblue" points="742.53,-285.49 752.86,-283.16 743.33,-278.53 742.53,-285.49"/>
</g>
<!-- Node6 -->
<g id="node6" class="node">
<title>Node6</title>
<g id="a_node6"><a xlink:href="event_8cpp.html" target="_top" xlink:title=" ">
<polygon fill="none" stroke="black" points="436,-224.5 436,-243.5 501,-243.5 501,-224.5 436,-224.5"/>
<text text-anchor="middle" x="468.5" y="-231.5" font-family="Helvetica,sans-Serif" font-size="10.00">event.cpp</text>
</a>
</g>
</g>
<!-- Node1&#45;&gt;Node6 -->
<g id="edge5" class="edge">
<title>Node1&#45;&gt;Node6</title>
<path fill="none" stroke="midnightblue" d="M742.84,-280.74C683.46,-272.41 590.53,-258.71 510.5,-244 507.42,-243.43 504.22,-242.81 501.02,-242.17"/>
<polygon fill="midnightblue" stroke="midnightblue" points="742.41,-284.22 752.8,-282.13 743.38,-277.28 742.41,-284.22"/>
</g>
<!-- Node7 -->
<g id="node7" class="node">
<title>Node7</title>
<g id="a_node7"><a xlink:href="grid_8cpp.html" target="_top" xlink:title=" ">
<polygon fill="none" stroke="black" points="519.5,-224.5 519.5,-243.5 575.5,-243.5 575.5,-224.5 519.5,-224.5"/>
<text text-anchor="middle" x="547.5" y="-231.5" font-family="Helvetica,sans-Serif" font-size="10.00">grid.cpp</text>
</a>
</g>
</g>
<!-- Node1&#45;&gt;Node7 -->
<g id="edge6" class="edge">
<title>Node1&#45;&gt;Node7</title>
<path fill="none" stroke="midnightblue" d="M749.78,-278.52C705.37,-269.73 640.72,-256.61 584.5,-244 581.66,-243.36 578.71,-242.68 575.76,-241.98"/>
<polygon fill="midnightblue" stroke="midnightblue" points="749.28,-281.99 759.77,-280.5 750.64,-275.12 749.28,-281.99"/>
</g>
<!-- Node8 -->
<g id="node8" class="node">
<title>Node8</title>
<g id="a_node8"><a xlink:href="ibm__tribend_8cpp.html" target="_top" xlink:title=" ">
<polygon fill="none" stroke="black" points="594,-224.5 594,-243.5 689,-243.5 689,-224.5 594,-224.5"/>
<text text-anchor="middle" x="641.5" y="-231.5" font-family="Helvetica,sans-Serif" font-size="10.00">ibm_tribend.cpp</text>
</a>
</g>
</g>
<!-- Node1&#45;&gt;Node8 -->
<g id="edge7" class="edge">
<title>Node1&#45;&gt;Node8</title>
<path fill="none" stroke="midnightblue" d="M768.02,-277.17C737.51,-267 694.26,-252.59 667.05,-243.52"/>
<polygon fill="midnightblue" stroke="midnightblue" points="767.24,-280.6 777.83,-280.44 769.45,-273.96 767.24,-280.6"/>
</g>
<!-- Node9 -->
<g id="node9" class="node">
<title>Node9</title>
<g id="a_node9"><a xlink:href="ibm__triel_8cpp.html" target="_top" xlink:title=" ">
<polygon fill="none" stroke="black" points="707.5,-224.5 707.5,-243.5 787.5,-243.5 787.5,-224.5 707.5,-224.5"/>
<text text-anchor="middle" x="747.5" y="-231.5" font-family="Helvetica,sans-Serif" font-size="10.00">ibm_triel.cpp</text>
</a>
</g>
</g>
<!-- Node1&#45;&gt;Node9 -->
<g id="edge8" class="edge">
<title>Node1&#45;&gt;Node9</title>
<path fill="none" stroke="midnightblue" d="M787.17,-273.25C777.24,-263.67 764.91,-251.79 756.66,-243.83"/>
<polygon fill="midnightblue" stroke="midnightblue" points="784.87,-275.9 794.5,-280.32 789.73,-270.86 784.87,-275.9"/>
</g>
<!-- Node10 -->
<g id="node10" class="node">
<title>Node10</title>
<g id="a_node10"><a xlink:href="fetch__particles_8hpp.html" target="_top" xlink:title=" ">
<polygon fill="none" stroke="black" points="805.5,-224.5 805.5,-243.5 915.5,-243.5 915.5,-224.5 805.5,-224.5"/>
<text text-anchor="middle" x="860.5" y="-231.5" font-family="Helvetica,sans-Serif" font-size="10.00">fetch_particles.hpp</text>
</a>
</g>
</g>
<!-- Node1&#45;&gt;Node10 -->
<g id="edge9" class="edge">
<title>Node1&#45;&gt;Node10</title>
<path fill="none" stroke="midnightblue" d="M820.12,-273.25C830.23,-263.67 842.78,-251.79 851.18,-243.83"/>
<polygon fill="midnightblue" stroke="midnightblue" points="817.51,-270.91 812.66,-280.32 822.32,-275.99 817.51,-270.91"/>
</g>
<!-- Node13 -->
<g id="node13" class="node">
<title>Node13</title>
<g id="a_node13"><a xlink:href="core_2pair__criteria_2pair__criteria_8hpp.html" target="_top" xlink:title=" ">
<polygon fill="none" stroke="black" points="933.5,-224.5 933.5,-243.5 1029.5,-243.5 1029.5,-224.5 933.5,-224.5"/>
<text text-anchor="middle" x="981.5" y="-231.5" font-family="Helvetica,sans-Serif" font-size="10.00">pair_criteria.hpp</text>
</a>
</g>
</g>
<!-- Node1&#45;&gt;Node13 -->
<g id="edge12" class="edge">
<title>Node1&#45;&gt;Node13</title>
<path fill="none" stroke="midnightblue" d="M841.62,-277.44C875.18,-267.26 923.27,-252.66 953.43,-243.52"/>
<polygon fill="midnightblue" stroke="midnightblue" points="840.26,-274.19 831.7,-280.44 842.29,-280.89 840.26,-274.19"/>
</g>
<!-- Node20 -->
<g id="node20" class="node">
<title>Node20</title>
<g id="a_node20"><a xlink:href="PartCfg_8cpp.html" target="_top" xlink:title=" ">
<polygon fill="none" stroke="black" points="1048,-224.5 1048,-243.5 1121,-243.5 1121,-224.5 1048,-224.5"/>
<text text-anchor="middle" x="1084.5" y="-231.5" font-family="Helvetica,sans-Serif" font-size="10.00">PartCfg.cpp</text>
</a>
</g>
</g>
<!-- Node1&#45;&gt;Node20 -->
<g id="edge20" class="edge">
<title>Node1&#45;&gt;Node20</title>
<path fill="none" stroke="midnightblue" d="M858.66,-278.5C906.29,-269.42 976.95,-255.91 1038.5,-244 1041.54,-243.41 1044.68,-242.8 1047.84,-242.19"/>
<polygon fill="midnightblue" stroke="midnightblue" points="857.73,-275.12 848.56,-280.43 859.04,-281.99 857.73,-275.12"/>
</g>
<!-- Node21 -->
<g id="node21" class="node">
<title>Node21</title>
<g id="a_node21"><a xlink:href="particle__data_8cpp.html" target="_top" xlink:title=" ">
<polygon fill="none" stroke="black" points="1139,-224.5 1139,-243.5 1240,-243.5 1240,-224.5 1139,-224.5"/>
<text text-anchor="middle" x="1189.5" y="-231.5" font-family="Helvetica,sans-Serif" font-size="10.00">particle_data.cpp</text>
</a>
</g>
</g>
<!-- Node1&#45;&gt;Node21 -->
<g id="edge21" class="edge">
<title>Node1&#45;&gt;Node21</title>
<path fill="none" stroke="midnightblue" d="M864.4,-280.89C930.1,-272.08 1037.77,-257.45 1130.5,-244 1133.27,-243.6 1136.11,-243.18 1138.98,-242.76"/>
<polygon fill="midnightblue" stroke="midnightblue" points="863.68,-277.46 854.23,-282.25 864.6,-284.39 863.68,-277.46"/>
</g>
<!-- Node22 -->
<g id="node22" class="node">
<title>Node22</title>
<g id="a_node22"><a xlink:href="ConstantpHEnsemble_8cpp.html" target="_top" xlink:title=" ">
<polygon fill="none" stroke="black" points="1258.5,-224.5 1258.5,-243.5 1400.5,-243.5 1400.5,-224.5 1258.5,-224.5"/>
<text text-anchor="middle" x="1329.5" y="-231.5" font-family="Helvetica,sans-Serif" font-size="10.00">ConstantpHEnsemble.cpp</text>
</a>
</g>
</g>
<!-- Node1&#45;&gt;Node22 -->
<g id="edge22" class="edge">
<title>Node1&#45;&gt;Node22</title>
<path fill="none" stroke="midnightblue" d="M864.1,-283.11C949.91,-274.71 1111.75,-258.7 1249.5,-244 1252.42,-243.69 1255.4,-243.37 1258.4,-243.04"/>
<polygon fill="midnightblue" stroke="midnightblue" points="863.63,-279.64 854.02,-284.09 864.31,-286.6 863.63,-279.64"/>
</g>
<!-- Node23 -->
<g id="node23" class="node">
<title>Node23</title>
<g id="a_node23"><a xlink:href="ReactionAlgorithm_8cpp.html" target="_top" xlink:title=" ">
<polygon fill="none" stroke="black" points="1418.5,-224.5 1418.5,-243.5 1546.5,-243.5 1546.5,-224.5 1418.5,-224.5"/>
<text text-anchor="middle" x="1482.5" y="-231.5" font-family="Helvetica,sans-Serif" font-size="10.00">ReactionAlgorithm.cpp</text>
</a>
</g>
</g>
<!-- Node1&#45;&gt;Node23 -->
<g id="edge23" class="edge">
<title>Node1&#45;&gt;Node23</title>
<path fill="none" stroke="midnightblue" d="M864.43,-285.46C973.75,-278.88 1210.41,-263.65 1409.5,-244 1412.42,-243.71 1415.41,-243.4 1418.43,-243.08"/>
<polygon fill="midnightblue" stroke="midnightblue" points="864.02,-281.98 854.25,-286.07 864.44,-288.96 864.02,-281.98"/>
</g>
<!-- Node24 -->
<g id="node24" class="node">
<title>Node24</title>
<g id="a_node24"><a xlink:href="statistics__chain_8cpp.html" target="_top" xlink:title=" ">
<polygon fill="none" stroke="black" points="1565,-224.5 1565,-243.5 1678,-243.5 1678,-224.5 1565,-224.5"/>
<text text-anchor="middle" x="1621.5" y="-231.5" font-family="Helvetica,sans-Serif" font-size="10.00">statistics_chain.cpp</text>
</a>
</g>
</g>
<!-- Node1&#45;&gt;Node24 -->
<g id="edge24" class="edge">
<title>Node1&#45;&gt;Node24</title>
<path fill="none" stroke="midnightblue" d="M864.22,-286.93C992.24,-282.22 1299.18,-269.11 1555.5,-244 1558.49,-243.71 1561.56,-243.38 1564.65,-243.03"/>
<polygon fill="midnightblue" stroke="midnightblue" points="864.08,-283.43 854.22,-287.29 864.34,-290.43 864.08,-283.43"/>
</g>
<!-- Node25 -->
<g id="node25" class="node">
<title>Node25</title>
<g id="a_node25"><a xlink:href="virtual__sites_8cpp.html" target="_top" xlink:title=" ">
<polygon fill="none" stroke="black" points="1696,-224.5 1696,-243.5 1793,-243.5 1793,-224.5 1696,-224.5"/>
<text text-anchor="middle" x="1744.5" y="-231.5" font-family="Helvetica,sans-Serif" font-size="10.00">virtual_sites.cpp</text>
</a>
</g>
</g>
<!-- Node1&#45;&gt;Node25 -->
<g id="edge25" class="edge">
<title>Node1&#45;&gt;Node25</title>
<path fill="none" stroke="midnightblue" d="M864.85,-288.11C1008.85,-285.53 1379.58,-276.06 1687.5,-244 1690.19,-243.72 1692.95,-243.4 1695.73,-243.05"/>
<polygon fill="midnightblue" stroke="midnightblue" points="864.41,-284.61 854.47,-288.29 864.53,-291.61 864.41,-284.61"/>
</g>
<!-- Node11 -->
<g id="node11" class="node">
<title>Node11</title>
<g id="a_node11"><a xlink:href="PidObservable_8cpp.html" target="_top" xlink:title=" ">
<polygon fill="none" stroke="black" points="721,-168.5 721,-187.5 828,-187.5 828,-168.5 721,-168.5"/>
<text text-anchor="middle" x="774.5" y="-175.5" font-family="Helvetica,sans-Serif" font-size="10.00">PidObservable.cpp</text>
</a>
</g>
</g>
<!-- Node10&#45;&gt;Node11 -->
<g id="edge10" class="edge">
<title>Node10&#45;&gt;Node11</title>
<path fill="none" stroke="midnightblue" d="M838.05,-218.9C822.28,-209 801.69,-196.07 788.28,-187.65"/>
<polygon fill="midnightblue" stroke="midnightblue" points="836.35,-221.97 846.68,-224.32 840.07,-216.04 836.35,-221.97"/>
</g>
<!-- Node12 -->
<g id="node12" class="node">
<title>Node12</title>
<g id="a_node12"><a xlink:href="RDF_8cpp.html" target="_top" xlink:title=" ">
<polygon fill="none" stroke="black" points="846.5,-168.5 846.5,-187.5 902.5,-187.5 902.5,-168.5 846.5,-168.5"/>
<text text-anchor="middle" x="874.5" y="-175.5" font-family="Helvetica,sans-Serif" font-size="10.00">RDF.cpp</text>
</a>
</g>
</g>
<!-- Node10&#45;&gt;Node12 -->
<g id="edge11" class="edge">
<title>Node10&#45;&gt;Node12</title>
<path fill="none" stroke="midnightblue" d="M865.32,-214.4C867.67,-205.36 870.37,-194.94 872.23,-187.75"/>
<polygon fill="midnightblue" stroke="midnightblue" points="861.93,-213.52 862.81,-224.08 868.71,-215.28 861.93,-213.52"/>
</g>
<!-- Node14 -->
<g id="node14" class="node">
<title>Node14</title>
<g id="a_node14"><a xlink:href="script__interface_2pair__criteria_2pair__criteria_8hpp.html" target="_top" xlink:title=" ">
<polygon fill="none" stroke="black" points="933.5,-168.5 933.5,-187.5 1029.5,-187.5 1029.5,-168.5 933.5,-168.5"/>
<text text-anchor="middle" x="981.5" y="-175.5" font-family="Helvetica,sans-Serif" font-size="10.00">pair_criteria.hpp</text>
</a>
</g>
</g>
<!-- Node13&#45;&gt;Node14 -->
<g id="edge13" class="edge">
<title>Node13&#45;&gt;Node14</title>
<path fill="none" stroke="midnightblue" d="M981.5,-213.8C981.5,-204.91 981.5,-194.78 981.5,-187.75"/>
<polygon fill="midnightblue" stroke="midnightblue" points="978,-214.08 981.5,-224.08 985,-214.08 978,-214.08"/>
</g>
<!-- Node15 -->
<g id="node15" class="node">
<title>Node15</title>
<g id="a_node15"><a xlink:href="core_2cluster__analysis_2ClusterStructure_8hpp.html" target="_top" xlink:title=" ">
<polygon fill="none" stroke="black" points="837.5,-112.5 837.5,-131.5 953.5,-131.5 953.5,-112.5 837.5,-112.5"/>
<text text-anchor="middle" x="895.5" y="-119.5" font-family="Helvetica,sans-Serif" font-size="10.00">ClusterStructure.hpp</text>
</a>
</g>
</g>
<!-- Node14&#45;&gt;Node15 -->
<g id="edge14" class="edge">
<title>Node14&#45;&gt;Node15</title>
<path fill="none" stroke="midnightblue" d="M959.05,-162.9C943.28,-153 922.69,-140.07 909.28,-131.65"/>
<polygon fill="midnightblue" stroke="midnightblue" points="957.35,-165.97 967.68,-168.32 961.07,-160.04 957.35,-165.97"/>
</g>
<!-- Node17 -->
<g id="node17" class="node">
<title>Node17</title>
<g id="a_node17"><a xlink:href="script__interface_2cluster__analysis_2ClusterStructure_8hpp.html" target="_top" xlink:title=" ">
<polygon fill="none" stroke="black" points="923.5,-56.5 923.5,-75.5 1039.5,-75.5 1039.5,-56.5 923.5,-56.5"/>
<text text-anchor="middle" x="981.5" y="-63.5" font-family="Helvetica,sans-Serif" font-size="10.00">ClusterStructure.hpp</text>
</a>
</g>
</g>
<!-- Node14&#45;&gt;Node17 -->
<g id="edge18" class="edge">
<title>Node14&#45;&gt;Node17</title>
<path fill="none" stroke="midnightblue" d="M981.5,-158.35C981.5,-134.25 981.5,-93.31 981.5,-75.59"/>
<polygon fill="midnightblue" stroke="midnightblue" points="978,-158.37 981.5,-168.37 985,-158.37 978,-158.37"/>
</g>
<!-- Node19 -->
<g id="node19" class="node">
<title>Node19</title>
<g id="a_node19"><a xlink:href="pair__criteria_2initialize_8cpp.html" target="_top" xlink:title=" ">
<polygon fill="none" stroke="black" points="1010,-112.5 1010,-131.5 1089,-131.5 1089,-112.5 1010,-112.5"/>
<text text-anchor="middle" x="1049.5" y="-119.5" font-family="Helvetica,sans-Serif" font-size="10.00">initialize.cpp</text>
</a>
</g>
</g>
<!-- Node14&#45;&gt;Node19 -->
<g id="edge19" class="edge">
<title>Node14&#45;&gt;Node19</title>
<path fill="none" stroke="midnightblue" d="M1000.26,-162.1C1012.5,-152.38 1028.06,-140.03 1038.38,-131.83"/>
<polygon fill="midnightblue" stroke="midnightblue" points="998.08,-159.36 992.43,-168.32 1002.43,-164.85 998.08,-159.36"/>
</g>
<!-- Node16 -->
<g id="node16" class="node">
<title>Node16</title>
<g id="a_node16"><a xlink:href="ClusterStructure_8cpp.html" target="_top" xlink:title=" ">
<polygon fill="none" stroke="black" points="789.5,-56.5 789.5,-75.5 905.5,-75.5 905.5,-56.5 789.5,-56.5"/>
<text text-anchor="middle" x="847.5" y="-63.5" font-family="Helvetica,sans-Serif" font-size="10.00">ClusterStructure.cpp</text>
</a>
</g>
</g>
<!-- Node15&#45;&gt;Node16 -->
<g id="edge15" class="edge">
<title>Node15&#45;&gt;Node16</title>
<path fill="none" stroke="midnightblue" d="M880.77,-104.43C872.36,-94.97 862.15,-83.48 855.28,-75.75"/>
<polygon fill="midnightblue" stroke="midnightblue" points="878.31,-106.93 887.57,-112.08 883.55,-102.28 878.31,-106.93"/>
</g>
<!-- Node15&#45;&gt;Node17 -->
<g id="edge16" class="edge">
<title>Node15&#45;&gt;Node17</title>
<path fill="none" stroke="midnightblue" d="M917.95,-106.9C933.72,-97 954.31,-84.07 967.72,-75.65"/>
<polygon fill="midnightblue" stroke="midnightblue" points="915.93,-104.04 909.32,-112.32 919.65,-109.97 915.93,-104.04"/>
</g>
<!-- Node18 -->
<g id="node18" class="node">
<title>Node18</title>
<g id="a_node18"><a xlink:href="cluster__analysis_2initialize_8cpp.html" target="_top" xlink:title=" ">
<polygon fill="none" stroke="black" points="942,-0.5 942,-19.5 1021,-19.5 1021,-0.5 942,-0.5"/>
<text text-anchor="middle" x="981.5" y="-7.5" font-family="Helvetica,sans-Serif" font-size="10.00">initialize.cpp</text>
</a>
</g>
</g>
<!-- Node17&#45;&gt;Node18 -->
<g id="edge17" class="edge">
<title>Node17&#45;&gt;Node18</title>
<path fill="none" stroke="midnightblue" d="M981.5,-45.8C981.5,-36.91 981.5,-26.78 981.5,-19.75"/>
<polygon fill="midnightblue" stroke="midnightblue" points="978,-46.08 981.5,-56.08 985,-46.08 978,-46.08"/>
</g>
</g>
</svg>
