<?xml version="1.0" encoding="UTF-8" standalone="no"?>
<!DOCTYPE svg PUBLIC "-//W3C//DTD SVG 1.1//EN"
 "http://www.w3.org/Graphics/SVG/1.1/DTD/svg11.dtd">
<!-- Generated by graphviz version 2.43.0 (0)
 -->
<!-- Title: PlaneWave.hpp Pages: 1 -->
<!--zoomable 375 -->
<svg id="main" version="1.1" xmlns="http://www.w3.org/2000/svg" xmlns:xlink="http://www.w3.org/1999/xlink" xml:space="preserve" onload="init(evt)">
<style type="text/css"><![CDATA[
.edge:hover path { stroke: red; }
.edge:hover polygon { stroke: red; fill: red; }
]]></style>
<script type="text/javascript"><![CDATA[
var edges = document.getElementsByTagName('g');
if (edges && edges.length) {
  for (var i=0;i<edges.length;i++) {
    if (edges[i].id.substr(0,4)=='edge') {
      edges[i].setAttribute('class','edge');
    }
  }
}
]]></script>
        <defs>
                <circle id="rim" cx="0" cy="0" r="7"/>
                <circle id="rim2" cx="0" cy="0" r="3.5"/>
                <g id="zoomPlus">
                        <use xlink:href="#rim" fill="#404040">
                                <set attributeName="fill" to="#808080" begin="zoomplus.mouseover" end="zoomplus.mouseout"/>
                        </use>
                        <path d="M-4,0h8M0,-4v8" fill="none" stroke="white" stroke-width="1.5" pointer-events="none"/>
                </g>
                <g id="zoomMin">
                        <use xlink:href="#rim" fill="#404040">
                                <set attributeName="fill" to="#808080" begin="zoomminus.mouseover" end="zoomminus.mouseout"/>
                        </use>
                        <path d="M-4,0h8" fill="none" stroke="white" stroke-width="1.5" pointer-events="none"/>
                </g>
                <g id="dirArrow">
                        <path fill="none" stroke="white" stroke-width="1.5" d="M0,-3.0v7 M-2.5,-0.5L0,-3.0L2.5,-0.5"/>
                </g>
               <g id="resetDef">
                       <use xlink:href="#rim2" fill="#404040">
                               <set attributeName="fill" to="#808080" begin="reset.mouseover" end="reset.mouseout"/>
                       </use>
               </g>
        </defs>

<script type="text/javascript">
var viewWidth = 3124;
var viewHeight = 375;
var sectionId = 'dynsection-0';
</script>
<script xlink:href="svgpan.js"/>
<svg id="graph" class="graph">
<g id="viewport">
<title>PlaneWave.hpp</title>
<!-- Node1 -->
<g id="node1" class="node">
<title>Node1</title>
<g id="a_node1"><a xlink:title=" ">
<polygon fill="#bfbfbf" stroke="black" points="736.08,-347.5 736.08,-366.5 828.08,-366.5 828.08,-347.5 736.08,-347.5"/>
<text text-anchor="middle" x="782.08" y="-354.5" font-family="Helvetica,sans-Serif" font-size="10.00">PlaneWave.hpp</text>
</a>
</g>
</g>
<!-- Node2 -->
<g id="node2" class="node">
<title>Node2</title>
<g id="a_node2"><a xlink:href="jacobian__type_8hpp.html" target="_top" xlink:title=" ">
<polygon fill="none" stroke="black" points="1058.08,-291.5 1058.08,-310.5 1164.08,-310.5 1164.08,-291.5 1058.08,-291.5"/>
<text text-anchor="middle" x="1111.08" y="-298.5" font-family="Helvetica,sans-Serif" font-size="10.00">jacobian_type.hpp</text>
</a>
</g>
</g>
<!-- Node1&#45;&gt;Node2 -->
<g id="edge1" class="edge">
<title>Node1&#45;&gt;Node2</title>
<path fill="none" stroke="midnightblue" d="M828.17,-348.43C885.83,-338.97 984.79,-322.73 1049.06,-312.18"/>
<polygon fill="midnightblue" stroke="midnightblue" points="1049.76,-315.61 1059.06,-310.54 1048.63,-308.7 1049.76,-315.61"/>
</g>
<!-- Node3 -->
<g id="node3" class="node">
<title>Node3</title>
<g id="a_node3"><a xlink:href="Vector_8hpp.html" target="_top" xlink:title=" ">
<polygon fill="none" stroke="black" points="483.58,-179.5 483.58,-198.5 576.58,-198.5 576.58,-179.5 483.58,-179.5"/>
<text text-anchor="middle" x="530.08" y="-186.5" font-family="Helvetica,sans-Serif" font-size="10.00">utils/Vector.hpp</text>
</a>
</g>
</g>
<!-- Node1&#45;&gt;Node3 -->
<g id="edge52" class="edge">
<title>Node1&#45;&gt;Node3</title>
<path fill="none" stroke="midnightblue" d="M735.91,-351.46C678.49,-343.13 582.28,-319.78 535.08,-255 525.4,-241.72 525.09,-222.6 526.64,-208.53"/>
<polygon fill="midnightblue" stroke="midnightblue" points="530.12,-208.95 528.13,-198.54 523.19,-207.91 530.12,-208.95"/>
</g>
<!-- Node10 -->
<g id="node10" class="node">
<title>Node10</title>
<g id="a_node10"><a xlink:title=" ">
<polygon fill="none" stroke="#bfbfbf" points="2908.58,-0.5 2908.58,-19.5 2961.58,-19.5 2961.58,-0.5 2908.58,-0.5"/>
<text text-anchor="middle" x="2935.08" y="-7.5" font-family="Helvetica,sans-Serif" font-size="10.00">cstddef</text>
</a>
</g>
</g>
<!-- Node1&#45;&gt;Node10 -->
<g id="edge59" class="edge">
<title>Node1&#45;&gt;Node10</title>
<path fill="none" stroke="midnightblue" d="M735.79,-354.4C567.8,-347.98 0.08,-320.76 0.08,-246 0.08,-246 0.08,-246 0.08,-132 0.08,-125.41 -4.99,-99.28 638.08,-56 1103.97,-24.65 2639.07,-13 2897.87,-11.24"/>
<polygon fill="midnightblue" stroke="midnightblue" points="2898.25,-14.74 2908.23,-11.17 2898.21,-7.74 2898.25,-14.74"/>
</g>
<!-- Node17 -->
<g id="node17" class="node">
<title>Node17</title>
<g id="a_node17"><a xlink:title=" ">
<polygon fill="none" stroke="#bfbfbf" points="2963.58,-123.5 2963.58,-142.5 3010.58,-142.5 3010.58,-123.5 2963.58,-123.5"/>
<text text-anchor="middle" x="2987.08" y="-130.5" font-family="Helvetica,sans-Serif" font-size="10.00">cmath</text>
</a>
</g>
</g>
<!-- Node1&#45;&gt;Node17 -->
<g id="edge58" class="edge">
<title>Node1&#45;&gt;Node17</title>
<path fill="none" stroke="midnightblue" d="M828.12,-355.42C1126,-351.33 2774.22,-323.13 2956.08,-199 2971.7,-188.34 2979.69,-167.58 2983.6,-152.38"/>
<polygon fill="midnightblue" stroke="midnightblue" points="2987.04,-153.04 2985.79,-142.52 2980.21,-151.52 2987.04,-153.04"/>
</g>
<!-- Node38 -->
<g id="node38" class="node">
<title>Node38</title>
<g id="a_node38"><a xlink:href="tensor__product_8hpp.html" target="_top" xlink:title=" ">
<polygon fill="none" stroke="black" points="700.58,-291.5 700.58,-310.5 863.58,-310.5 863.58,-291.5 700.58,-291.5"/>
<text text-anchor="middle" x="782.08" y="-298.5" font-family="Helvetica,sans-Serif" font-size="10.00">utils/math/tensor_product.hpp</text>
</a>
</g>
</g>
<!-- Node1&#45;&gt;Node38 -->
<g id="edge53" class="edge">
<title>Node1&#45;&gt;Node38</title>
<path fill="none" stroke="midnightblue" d="M782.08,-347.08C782.08,-340.01 782.08,-329.86 782.08,-320.99"/>
<polygon fill="midnightblue" stroke="midnightblue" points="785.58,-320.75 782.08,-310.75 778.58,-320.75 785.58,-320.75"/>
</g>
<!-- Node2&#45;&gt;Node3 -->
<g id="edge2" class="edge">
<title>Node2&#45;&gt;Node3</title>
<path fill="none" stroke="midnightblue" d="M1065.97,-291.46C960.77,-271.54 699.43,-222.06 585.1,-200.42"/>
<polygon fill="midnightblue" stroke="midnightblue" points="585.63,-196.96 575.16,-198.53 584.33,-203.83 585.63,-196.96"/>
</g>
<!-- Node2&#45;&gt;Node10 -->
<g id="edge51" class="edge">
<title>Node2&#45;&gt;Node10</title>
<path fill="none" stroke="midnightblue" d="M1164.36,-299.91C1467.5,-299.28 2964.39,-294.19 3053.08,-255 3089.6,-238.86 3115.08,-229.92 3115.08,-190 3115.08,-190 3115.08,-190 3115.08,-132 3115.08,-97.18 3120.36,-80.96 3096.08,-56 3063.57,-22.58 3008.46,-13.38 2971.92,-11.17"/>
<polygon fill="midnightblue" stroke="midnightblue" points="2971.83,-7.66 2961.68,-10.7 2971.51,-14.65 2971.83,-7.66"/>
</g>
<!-- Node23 -->
<g id="node23" class="node">
<title>Node23</title>
<g id="a_node23"><a xlink:href="matrix_8hpp.html" target="_top" xlink:title="This file contains a matrix implementation and the trait types needed for the boost qvm interoperabil...">
<polygon fill="none" stroke="black" points="1415.08,-235.5 1415.08,-254.5 1509.08,-254.5 1509.08,-235.5 1415.08,-235.5"/>
<text text-anchor="middle" x="1462.08" y="-242.5" font-family="Helvetica,sans-Serif" font-size="10.00">utils/matrix.hpp</text>
</a>
</g>
</g>
<!-- Node2&#45;&gt;Node23 -->
<g id="edge27" class="edge">
<title>Node2&#45;&gt;Node23</title>
<path fill="none" stroke="midnightblue" d="M1164.39,-291.8C1229.33,-281.81 1338.58,-265 1405.13,-254.76"/>
<polygon fill="midnightblue" stroke="midnightblue" points="1405.67,-258.22 1415.03,-253.24 1404.61,-251.3 1405.67,-258.22"/>
</g>
<!-- Node4 -->
<g id="node4" class="node">
<title>Node4</title>
<g id="a_node4"><a xlink:title=" ">
<polygon fill="none" stroke="#bfbfbf" points="1984.08,-123.5 1984.08,-142.5 2134.08,-142.5 2134.08,-123.5 1984.08,-123.5"/>
<text text-anchor="middle" x="2059.08" y="-130.5" font-family="Helvetica,sans-Serif" font-size="10.00">boost/qvm/deduce_vec.hpp</text>
</a>
</g>
</g>
<!-- Node3&#45;&gt;Node4 -->
<g id="edge3" class="edge">
<title>Node3&#45;&gt;Node4</title>
<path fill="none" stroke="midnightblue" d="M576.75,-185.86C618.9,-183.95 682.64,-181.14 738.08,-179 1204.52,-160.96 1763.76,-143.18 1973.82,-136.63"/>
<polygon fill="midnightblue" stroke="midnightblue" points="1973.97,-140.13 1983.85,-136.32 1973.75,-133.13 1973.97,-140.13"/>
</g>
<!-- Node5 -->
<g id="node5" class="node">
<title>Node5</title>
<g id="a_node5"><a xlink:title=" ">
<polygon fill="none" stroke="#bfbfbf" points="391.08,-123.5 391.08,-142.5 531.08,-142.5 531.08,-123.5 391.08,-123.5"/>
<text text-anchor="middle" x="461.08" y="-130.5" font-family="Helvetica,sans-Serif" font-size="10.00">boost/qvm/vec_traits.hpp</text>
</a>
</g>
</g>
<!-- Node3&#45;&gt;Node5 -->
<g id="edge4" class="edge">
<title>Node3&#45;&gt;Node5</title>
<path fill="none" stroke="midnightblue" d="M518.99,-179.32C508.59,-171.18 492.82,-158.84 480.36,-149.09"/>
<polygon fill="midnightblue" stroke="midnightblue" points="482.4,-146.24 472.37,-142.83 478.09,-151.75 482.4,-146.24"/>
</g>
<!-- Node6 -->
<g id="node6" class="node">
<title>Node6</title>
<g id="a_node6"><a xlink:href="Array_8hpp.html" target="_top" xlink:title=" ">
<polygon fill="none" stroke="black" points="1052.08,-123.5 1052.08,-142.5 1138.08,-142.5 1138.08,-123.5 1052.08,-123.5"/>
<text text-anchor="middle" x="1095.08" y="-130.5" font-family="Helvetica,sans-Serif" font-size="10.00">utils/Array.hpp</text>
</a>
</g>
</g>
<!-- Node3&#45;&gt;Node6 -->
<g id="edge5" class="edge">
<title>Node3&#45;&gt;Node6</title>
<path fill="none" stroke="midnightblue" d="M576.8,-183.54C680.91,-173.58 931.47,-149.64 1041.61,-139.11"/>
<polygon fill="midnightblue" stroke="midnightblue" points="1042.2,-142.57 1051.82,-138.13 1041.53,-135.6 1042.2,-142.57"/>
</g>
<!-- Node8 -->
<g id="node8" class="node">
<title>Node8</title>
<g id="a_node8"><a xlink:title=" ">
<polygon fill="none" stroke="#bfbfbf" points="774.08,-0.5 774.08,-19.5 826.08,-19.5 826.08,-0.5 774.08,-0.5"/>
<text text-anchor="middle" x="800.08" y="-7.5" font-family="Helvetica,sans-Serif" font-size="10.00">cassert</text>
</a>
</g>
</g>
<!-- Node3&#45;&gt;Node8 -->
<g id="edge18" class="edge">
<title>Node3&#45;&gt;Node8</title>
<path fill="none" stroke="midnightblue" d="M483.38,-187.05C369.63,-184.24 85.42,-174.16 57.08,-143 51.1,-136.42 51.28,-129.74 57.08,-123 150.18,-14.82 626.99,-9.75 763.51,-10.56"/>
<polygon fill="midnightblue" stroke="midnightblue" points="763.82,-14.06 773.84,-10.63 763.87,-7.06 763.82,-14.06"/>
</g>
<!-- Node3&#45;&gt;Node10 -->
<g id="edge20" class="edge">
<title>Node3&#45;&gt;Node10</title>
<path fill="none" stroke="midnightblue" d="M534.25,-179.48C541.47,-165.6 557.61,-138.16 579.08,-123 660.15,-65.76 694.15,-72.09 792.08,-56 1007.69,-20.57 2631.5,-12.27 2898.1,-11.14"/>
<polygon fill="midnightblue" stroke="midnightblue" points="2898.41,-14.64 2908.39,-11.1 2898.38,-7.64 2898.41,-14.64"/>
</g>
<!-- Node13 -->
<g id="node13" class="node">
<title>Node13</title>
<g id="a_node13"><a xlink:title=" ">
<polygon fill="none" stroke="#bfbfbf" points="800.58,-62 800.58,-81 853.58,-81 853.58,-62 800.58,-62"/>
<text text-anchor="middle" x="827.08" y="-69" font-family="Helvetica,sans-Serif" font-size="10.00">iterator</text>
</a>
</g>
</g>
<!-- Node3&#45;&gt;Node13 -->
<g id="edge23" class="edge">
<title>Node3&#45;&gt;Node13</title>
<path fill="none" stroke="midnightblue" d="M538.79,-179.4C553.45,-165.41 584.57,-137.8 616.08,-123 679.31,-93.3 701.19,-103.47 769.08,-87 775.99,-85.32 783.36,-83.5 790.44,-81.74"/>
<polygon fill="midnightblue" stroke="midnightblue" points="791.68,-85.04 800.53,-79.22 789.98,-78.25 791.68,-85.04"/>
</g>
<!-- Node16 -->
<g id="node16" class="node">
<title>Node16</title>
<g id="a_node16"><a xlink:title=" ">
<polygon fill="none" stroke="#bfbfbf" points="625.08,-123.5 625.08,-142.5 689.08,-142.5 689.08,-123.5 625.08,-123.5"/>
<text text-anchor="middle" x="657.08" y="-130.5" font-family="Helvetica,sans-Serif" font-size="10.00">algorithm</text>
</a>
</g>
</g>
<!-- Node3&#45;&gt;Node16 -->
<g id="edge17" class="edge">
<title>Node3&#45;&gt;Node16</title>
<path fill="none" stroke="midnightblue" d="M550.2,-179.44C571.1,-170.56 604.01,-156.56 627.8,-146.45"/>
<polygon fill="midnightblue" stroke="midnightblue" points="629.22,-149.65 637.05,-142.52 626.48,-143.21 629.22,-149.65"/>
</g>
<!-- Node3&#45;&gt;Node17 -->
<g id="edge19" class="edge">
<title>Node3&#45;&gt;Node17</title>
<path fill="none" stroke="midnightblue" d="M576.74,-185.67C618.89,-183.64 682.62,-180.75 738.08,-179 1640.68,-150.45 2747.65,-136.76 2953.36,-134.38"/>
<polygon fill="midnightblue" stroke="midnightblue" points="2953.57,-137.88 2963.53,-134.26 2953.49,-130.88 2953.57,-137.88"/>
</g>
<!-- Node18 -->
<g id="node18" class="node">
<title>Node18</title>
<g id="a_node18"><a xlink:title=" ">
<polygon fill="none" stroke="#bfbfbf" points="66.58,-123.5 66.58,-142.5 131.58,-142.5 131.58,-123.5 66.58,-123.5"/>
<text text-anchor="middle" x="99.08" y="-130.5" font-family="Helvetica,sans-Serif" font-size="10.00">functional</text>
</a>
</g>
</g>
<!-- Node3&#45;&gt;Node18 -->
<g id="edge21" class="edge">
<title>Node3&#45;&gt;Node18</title>
<path fill="none" stroke="midnightblue" d="M483.34,-184.15C411.8,-177.91 270.67,-164.29 141.75,-143.14"/>
<polygon fill="midnightblue" stroke="midnightblue" points="142.13,-139.66 131.7,-141.47 140.99,-146.56 142.13,-139.66"/>
</g>
<!-- Node19 -->
<g id="node19" class="node">
<title>Node19</title>
<g id="a_node19"><a xlink:title=" ">
<polygon fill="none" stroke="#bfbfbf" points="149.58,-123.5 149.58,-142.5 232.58,-142.5 232.58,-123.5 149.58,-123.5"/>
<text text-anchor="middle" x="191.08" y="-130.5" font-family="Helvetica,sans-Serif" font-size="10.00">initializer_list</text>
</a>
</g>
</g>
<!-- Node3&#45;&gt;Node19 -->
<g id="edge22" class="edge">
<title>Node3&#45;&gt;Node19</title>
<path fill="none" stroke="midnightblue" d="M483.39,-180.99C428.4,-172.68 334,-158.2 242.77,-143.09"/>
<polygon fill="midnightblue" stroke="midnightblue" points="243.25,-139.62 232.82,-141.43 242.11,-146.53 243.25,-139.62"/>
</g>
<!-- Node20 -->
<g id="node20" class="node">
<title>Node20</title>
<g id="a_node20"><a xlink:title=" ">
<polygon fill="none" stroke="#bfbfbf" points="251.08,-123.5 251.08,-142.5 307.08,-142.5 307.08,-123.5 251.08,-123.5"/>
<text text-anchor="middle" x="279.08" y="-130.5" font-family="Helvetica,sans-Serif" font-size="10.00">numeric</text>
</a>
</g>
</g>
<!-- Node3&#45;&gt;Node20 -->
<g id="edge24" class="edge">
<title>Node3&#45;&gt;Node20</title>
<path fill="none" stroke="midnightblue" d="M487.36,-179.43C446.22,-171.08 381.98,-157.81 317.3,-143.23"/>
<polygon fill="midnightblue" stroke="midnightblue" points="317.87,-139.77 307.34,-140.97 316.32,-146.59 317.87,-139.77"/>
</g>
<!-- Node21 -->
<g id="node21" class="node">
<title>Node21</title>
<g id="a_node21"><a xlink:title=" ">
<polygon fill="none" stroke="#bfbfbf" points="745.58,-123.5 745.58,-142.5 814.58,-142.5 814.58,-123.5 745.58,-123.5"/>
<text text-anchor="middle" x="780.08" y="-130.5" font-family="Helvetica,sans-Serif" font-size="10.00">type_traits</text>
</a>
</g>
</g>
<!-- Node3&#45;&gt;Node21 -->
<g id="edge25" class="edge">
<title>Node3&#45;&gt;Node21</title>
<path fill="none" stroke="midnightblue" d="M569.69,-179.44C614.84,-169.69 688.47,-153.79 735.56,-143.62"/>
<polygon fill="midnightblue" stroke="midnightblue" points="736.45,-147.01 745.48,-141.47 734.97,-140.16 736.45,-147.01"/>
</g>
<!-- Node22 -->
<g id="node22" class="node">
<title>Node22</title>
<g id="a_node22"><a xlink:title=" ">
<polygon fill="none" stroke="#bfbfbf" points="325.58,-123.5 325.58,-142.5 372.58,-142.5 372.58,-123.5 325.58,-123.5"/>
<text text-anchor="middle" x="349.08" y="-130.5" font-family="Helvetica,sans-Serif" font-size="10.00">vector</text>
</a>
</g>
</g>
<!-- Node3&#45;&gt;Node22 -->
<g id="edge26" class="edge">
<title>Node3&#45;&gt;Node22</title>
<path fill="none" stroke="midnightblue" d="M501.4,-179.44C469.15,-169.82 416.84,-154.21 382.69,-144.03"/>
<polygon fill="midnightblue" stroke="midnightblue" points="383.31,-140.56 372.72,-141.05 381.3,-147.27 383.31,-140.56"/>
</g>
<!-- Node7 -->
<g id="node7" class="node">
<title>Node7</title>
<g id="a_node7"><a xlink:href="device__qualifier_8hpp.html" target="_top" xlink:title=" ">
<polygon fill="none" stroke="black" points="910.08,-62 910.08,-81 1026.08,-81 1026.08,-62 910.08,-62"/>
<text text-anchor="middle" x="968.08" y="-69" font-family="Helvetica,sans-Serif" font-size="10.00">device_qualifier.hpp</text>
</a>
</g>
</g>
<!-- Node6&#45;&gt;Node7 -->
<g id="edge6" class="edge">
<title>Node6&#45;&gt;Node7</title>
<path fill="none" stroke="midnightblue" d="M1076.88,-123.48C1055.57,-113.49 1020.05,-96.85 995.42,-85.31"/>
<polygon fill="midnightblue" stroke="midnightblue" points="996.78,-82.08 986.24,-81.01 993.81,-88.42 996.78,-82.08"/>
</g>
<!-- Node6&#45;&gt;Node8 -->
<g id="edge12" class="edge">
<title>Node6&#45;&gt;Node8</title>
<path fill="none" stroke="midnightblue" d="M1051.96,-127.69C1011.34,-122.34 949.66,-110.83 901.08,-87 881.51,-77.4 880.4,-69.23 863.08,-56 849.33,-45.5 833.47,-34.18 821.11,-25.52"/>
<polygon fill="midnightblue" stroke="midnightblue" points="823.01,-22.57 812.8,-19.73 819.01,-28.32 823.01,-22.57"/>
</g>
<!-- Node9 -->
<g id="node9" class="node">
<title>Node9</title>
<g id="a_node9"><a xlink:href="get_8hpp.html" target="_top" xlink:title=" ">
<polygon fill="none" stroke="black" points="3033.58,-62 3033.58,-81 3086.58,-81 3086.58,-62 3033.58,-62"/>
<text text-anchor="middle" x="3060.08" y="-69" font-family="Helvetica,sans-Serif" font-size="10.00">get.hpp</text>
</a>
</g>
</g>
<!-- Node6&#45;&gt;Node9 -->
<g id="edge8" class="edge">
<title>Node6&#45;&gt;Node9</title>
<path fill="none" stroke="midnightblue" d="M1138.41,-130.69C1401.31,-122.73 2779.37,-81 3023.19,-73.62"/>
<polygon fill="midnightblue" stroke="midnightblue" points="3023.42,-77.11 3033.31,-73.31 3023.21,-70.11 3023.42,-77.11"/>
</g>
<!-- Node6&#45;&gt;Node10 -->
<g id="edge13" class="edge">
<title>Node6&#45;&gt;Node10</title>
<path fill="none" stroke="midnightblue" d="M1088.17,-123.41C1076.49,-107.81 1055.82,-74.71 1074.08,-56 1107.15,-22.12 2639.65,-12.56 2898.22,-11.18"/>
<polygon fill="midnightblue" stroke="midnightblue" points="2898.58,-14.68 2908.57,-11.13 2898.55,-7.68 2898.58,-14.68"/>
</g>
<!-- Node12 -->
<g id="node12" class="node">
<title>Node12</title>
<g id="a_node12"><a xlink:title=" ">
<polygon fill="none" stroke="#bfbfbf" points="1082.58,-56.5 1082.58,-86.5 1189.58,-86.5 1189.58,-56.5 1082.58,-56.5"/>
<text text-anchor="start" x="1090.58" y="-74.5" font-family="Helvetica,sans-Serif" font-size="10.00">boost/serialization</text>
<text text-anchor="middle" x="1136.08" y="-63.5" font-family="Helvetica,sans-Serif" font-size="10.00">/access.hpp</text>
</a>
</g>
</g>
<!-- Node6&#45;&gt;Node12 -->
<g id="edge11" class="edge">
<title>Node6&#45;&gt;Node12</title>
<path fill="none" stroke="midnightblue" d="M1100.95,-123.48C1106.09,-116.02 1113.79,-104.85 1120.67,-94.87"/>
<polygon fill="midnightblue" stroke="midnightblue" points="1123.62,-96.74 1126.42,-86.52 1117.86,-92.77 1123.62,-96.74"/>
</g>
<!-- Node6&#45;&gt;Node13 -->
<g id="edge14" class="edge">
<title>Node6&#45;&gt;Node13</title>
<path fill="none" stroke="midnightblue" d="M1051.98,-125.36C1005.99,-117.83 931.23,-104.33 868.08,-87 865.12,-86.19 862.06,-85.27 859.01,-84.29"/>
<polygon fill="midnightblue" stroke="midnightblue" points="860.04,-80.95 849.45,-81.07 857.81,-87.58 860.04,-80.95"/>
</g>
<!-- Node14 -->
<g id="node14" class="node">
<title>Node14</title>
<g id="a_node14"><a xlink:title=" ">
<polygon fill="none" stroke="#bfbfbf" points="1207.58,-62 1207.58,-81 1264.58,-81 1264.58,-62 1207.58,-62"/>
<text text-anchor="middle" x="1236.08" y="-69" font-family="Helvetica,sans-Serif" font-size="10.00">ostream</text>
</a>
</g>
</g>
<!-- Node6&#45;&gt;Node14 -->
<g id="edge15" class="edge">
<title>Node6&#45;&gt;Node14</title>
<path fill="none" stroke="midnightblue" d="M1115.28,-123.48C1139.15,-113.4 1179.08,-96.55 1206.45,-85"/>
<polygon fill="midnightblue" stroke="midnightblue" points="1208.06,-88.12 1215.91,-81.01 1205.34,-81.67 1208.06,-88.12"/>
</g>
<!-- Node15 -->
<g id="node15" class="node">
<title>Node15</title>
<g id="a_node15"><a xlink:title=" ">
<polygon fill="none" stroke="#bfbfbf" points="1282.58,-62 1282.58,-81 1347.58,-81 1347.58,-62 1282.58,-62"/>
<text text-anchor="middle" x="1315.08" y="-69" font-family="Helvetica,sans-Serif" font-size="10.00">stdexcept</text>
</a>
</g>
</g>
<!-- Node6&#45;&gt;Node15 -->
<g id="edge16" class="edge">
<title>Node6&#45;&gt;Node15</title>
<path fill="none" stroke="midnightblue" d="M1133.42,-123.46C1169.86,-115.08 1226.07,-101.49 1274.08,-87 1276.86,-86.16 1279.73,-85.25 1282.59,-84.3"/>
<polygon fill="midnightblue" stroke="midnightblue" points="1283.89,-87.56 1292.22,-81.01 1281.62,-80.93 1283.89,-87.56"/>
</g>
<!-- Node7&#45;&gt;Node8 -->
<g id="edge7" class="edge">
<title>Node7&#45;&gt;Node8</title>
<path fill="none" stroke="midnightblue" d="M944.01,-61.98C915.07,-51.72 866.32,-34.46 833.68,-22.9"/>
<polygon fill="midnightblue" stroke="midnightblue" points="834.7,-19.55 824.1,-19.51 832.36,-26.15 834.7,-19.55"/>
</g>
<!-- Node9&#45;&gt;Node10 -->
<g id="edge9" class="edge">
<title>Node9&#45;&gt;Node10</title>
<path fill="none" stroke="midnightblue" d="M3042.17,-61.98C3021.19,-51.99 2986.23,-35.35 2961.99,-23.81"/>
<polygon fill="midnightblue" stroke="midnightblue" points="2963.49,-20.65 2952.96,-19.51 2960.48,-26.97 2963.49,-20.65"/>
</g>
<!-- Node11 -->
<g id="node11" class="node">
<title>Node11</title>
<g id="a_node11"><a xlink:title=" ">
<polygon fill="none" stroke="#bfbfbf" points="3039.58,-0.5 3039.58,-19.5 3080.58,-19.5 3080.58,-0.5 3039.58,-0.5"/>
<text text-anchor="middle" x="3060.08" y="-7.5" font-family="Helvetica,sans-Serif" font-size="10.00">tuple</text>
</a>
</g>
</g>
<!-- Node9&#45;&gt;Node11 -->
<g id="edge10" class="edge">
<title>Node9&#45;&gt;Node11</title>
<path fill="none" stroke="midnightblue" d="M3060.08,-61.98C3060.08,-53.58 3060.08,-40.48 3060.08,-29.66"/>
<polygon fill="midnightblue" stroke="midnightblue" points="3063.58,-29.51 3060.08,-19.51 3056.58,-29.51 3063.58,-29.51"/>
</g>
<!-- Node23&#45;&gt;Node3 -->
<g id="edge29" class="edge">
<title>Node23&#45;&gt;Node3</title>
<path fill="none" stroke="midnightblue" d="M1415.07,-242.07C1288.18,-236.71 928.09,-220.66 629.08,-199 615.43,-198.01 600.74,-196.77 586.96,-195.53"/>
<polygon fill="midnightblue" stroke="midnightblue" points="586.91,-192.01 576.64,-194.59 586.28,-198.98 586.91,-192.01"/>
</g>
<!-- Node23&#45;&gt;Node4 -->
<g id="edge44" class="edge">
<title>Node23&#45;&gt;Node4</title>
<path fill="none" stroke="midnightblue" d="M1509.34,-243.44C1757.24,-240.39 2896.91,-224.96 2922.08,-199 2928.27,-192.62 2928.2,-185.45 2922.08,-179 2895.59,-151.1 2357.4,-139.02 2144.6,-135.32"/>
<polygon fill="midnightblue" stroke="midnightblue" points="2144.47,-131.82 2134.41,-135.14 2144.34,-138.82 2144.47,-131.82"/>
</g>
<!-- Node23&#45;&gt;Node6 -->
<g id="edge28" class="edge">
<title>Node23&#45;&gt;Node6</title>
<path fill="none" stroke="midnightblue" d="M1509.23,-243.42C1755.24,-240.31 2881.2,-224.66 2906.08,-199 2912.27,-192.62 2912.29,-185.36 2906.08,-179 2890.32,-162.84 1445.44,-139.46 1148.18,-134.82"/>
<polygon fill="midnightblue" stroke="midnightblue" points="1148.15,-131.32 1138.1,-134.66 1148.04,-138.32 1148.15,-131.32"/>
</g>
<!-- Node23&#45;&gt;Node8 -->
<g id="edge35" class="edge">
<title>Node23&#45;&gt;Node8</title>
<path fill="none" stroke="midnightblue" d="M1414.83,-242.87C1256.25,-238.83 751.66,-224.07 728.08,-199 680.42,-148.33 750.4,-62.8 783.89,-27.25"/>
<polygon fill="midnightblue" stroke="midnightblue" points="786.75,-29.34 791.17,-19.71 781.71,-24.48 786.75,-29.34"/>
</g>
<!-- Node23&#45;&gt;Node10 -->
<g id="edge36" class="edge">
<title>Node23&#45;&gt;Node10</title>
<path fill="none" stroke="midnightblue" d="M1509.45,-243.45C1759.21,-240.46 2912.62,-225.25 2938.08,-199 2961.03,-175.34 2945.9,-72.01 2938.49,-29.44"/>
<polygon fill="midnightblue" stroke="midnightblue" points="2941.94,-28.8 2936.72,-19.58 2935.05,-30.04 2941.94,-28.8"/>
</g>
<!-- Node23&#45;&gt;Node16 -->
<g id="edge33" class="edge">
<title>Node23&#45;&gt;Node16</title>
<path fill="none" stroke="midnightblue" d="M1414.86,-242.95C1248.03,-239.05 694.87,-224.24 667.08,-199 654.55,-187.62 653.18,-167.63 654.24,-152.81"/>
<polygon fill="midnightblue" stroke="midnightblue" points="657.74,-153.05 655.39,-142.72 650.78,-152.26 657.74,-153.05"/>
</g>
<!-- Node23&#45;&gt;Node21 -->
<g id="edge37" class="edge">
<title>Node23&#45;&gt;Node21</title>
<path fill="none" stroke="midnightblue" d="M1414.92,-242.83C1257.9,-238.69 761.3,-223.71 738.08,-199 723.69,-183.69 742.56,-162.82 759.42,-148.91"/>
<polygon fill="midnightblue" stroke="midnightblue" points="761.66,-151.6 767.38,-142.69 757.35,-146.08 761.66,-151.6"/>
</g>
<!-- Node24 -->
<g id="node24" class="node">
<title>Node24</title>
<g id="a_node24"><a xlink:href="flatten_8hpp.html" target="_top" xlink:title=" ">
<polygon fill="none" stroke="black" points="747.08,-179.5 747.08,-198.5 841.08,-198.5 841.08,-179.5 747.08,-179.5"/>
<text text-anchor="middle" x="794.08" y="-186.5" font-family="Helvetica,sans-Serif" font-size="10.00">utils/flatten.hpp</text>
</a>
</g>
</g>
<!-- Node23&#45;&gt;Node24 -->
<g id="edge30" class="edge">
<title>Node23&#45;&gt;Node24</title>
<path fill="none" stroke="midnightblue" d="M1414.72,-241.91C1313.31,-237.13 1067.45,-223.93 851.05,-199.01"/>
<polygon fill="midnightblue" stroke="midnightblue" points="851.43,-195.53 841.09,-197.86 850.62,-202.49 851.43,-195.53"/>
</g>
<!-- Node25 -->
<g id="node25" class="node">
<title>Node25</title>
<g id="a_node25"><a xlink:title=" ">
<polygon fill="none" stroke="#bfbfbf" points="859.08,-179.5 859.08,-198.5 901.08,-198.5 901.08,-179.5 859.08,-179.5"/>
<text text-anchor="middle" x="880.08" y="-186.5" font-family="Helvetica,sans-Serif" font-size="10.00">array</text>
</a>
</g>
</g>
<!-- Node23&#45;&gt;Node25 -->
<g id="edge34" class="edge">
<title>Node23&#45;&gt;Node25</title>
<path fill="none" stroke="midnightblue" d="M1414.86,-243.33C1319.07,-241.28 1095.38,-232.92 911.08,-199 910.98,-198.98 910.88,-198.96 910.78,-198.94"/>
<polygon fill="midnightblue" stroke="midnightblue" points="911.82,-195.59 901.29,-196.77 910.25,-202.41 911.82,-195.59"/>
</g>
<!-- Node26 -->
<g id="node26" class="node">
<title>Node26</title>
<g id="a_node26"><a xlink:title=" ">
<polygon fill="none" stroke="#bfbfbf" points="919.58,-179.5 919.58,-198.5 964.58,-198.5 964.58,-179.5 919.58,-179.5"/>
<text text-anchor="middle" x="942.08" y="-186.5" font-family="Helvetica,sans-Serif" font-size="10.00">utility</text>
</a>
</g>
</g>
<!-- Node23&#45;&gt;Node26 -->
<g id="edge38" class="edge">
<title>Node23&#45;&gt;Node26</title>
<path fill="none" stroke="midnightblue" d="M1414.92,-242.5C1329.09,-239.17 1141.59,-229.03 974.64,-198.74"/>
<polygon fill="midnightblue" stroke="midnightblue" points="975.15,-195.28 964.68,-196.91 973.88,-202.16 975.15,-195.28"/>
</g>
<!-- Node27 -->
<g id="node27" class="node">
<title>Node27</title>
<g id="a_node27"><a xlink:title=" ">
<polygon fill="none" stroke="#bfbfbf" points="982.58,-179.5 982.58,-198.5 1151.58,-198.5 1151.58,-179.5 982.58,-179.5"/>
<text text-anchor="middle" x="1067.08" y="-186.5" font-family="Helvetica,sans-Serif" font-size="10.00">boost/qvm/mat_operations.hpp</text>
</a>
</g>
</g>
<!-- Node23&#45;&gt;Node27 -->
<g id="edge39" class="edge">
<title>Node23&#45;&gt;Node27</title>
<path fill="none" stroke="midnightblue" d="M1414.83,-237.54C1346.49,-228.2 1219.49,-210.84 1139.34,-199.88"/>
<polygon fill="midnightblue" stroke="midnightblue" points="1139.71,-196.4 1129.32,-198.51 1138.76,-203.33 1139.71,-196.4"/>
</g>
<!-- Node28 -->
<g id="node28" class="node">
<title>Node28</title>
<g id="a_node28"><a xlink:title=" ">
<polygon fill="none" stroke="#bfbfbf" points="1169.58,-179.5 1169.58,-198.5 1360.58,-198.5 1360.58,-179.5 1169.58,-179.5"/>
<text text-anchor="middle" x="1265.08" y="-186.5" font-family="Helvetica,sans-Serif" font-size="10.00">boost/qvm/vec_mat_operations.hpp</text>
</a>
</g>
</g>
<!-- Node23&#45;&gt;Node28 -->
<g id="edge40" class="edge">
<title>Node23&#45;&gt;Node28</title>
<path fill="none" stroke="midnightblue" d="M1430.86,-235.44C1397.15,-226.2 1343.28,-211.44 1306.15,-201.26"/>
<polygon fill="midnightblue" stroke="midnightblue" points="1306.72,-197.78 1296.15,-198.52 1304.87,-204.54 1306.72,-197.78"/>
</g>
<!-- Node29 -->
<g id="node29" class="node">
<title>Node29</title>
<g id="a_node29"><a xlink:title=" ">
<polygon fill="none" stroke="#bfbfbf" points="1378.58,-179.5 1378.58,-198.5 1545.58,-198.5 1545.58,-179.5 1378.58,-179.5"/>
<text text-anchor="middle" x="1462.08" y="-186.5" font-family="Helvetica,sans-Serif" font-size="10.00">boost/qvm/vec_operations.hpp</text>
</a>
</g>
</g>
<!-- Node23&#45;&gt;Node29 -->
<g id="edge41" class="edge">
<title>Node23&#45;&gt;Node29</title>
<path fill="none" stroke="midnightblue" d="M1462.08,-235.08C1462.08,-228.01 1462.08,-217.86 1462.08,-208.99"/>
<polygon fill="midnightblue" stroke="midnightblue" points="1465.58,-208.75 1462.08,-198.75 1458.58,-208.75 1465.58,-208.75"/>
</g>
<!-- Node30 -->
<g id="node30" class="node">
<title>Node30</title>
<g id="a_node30"><a xlink:title=" ">
<polygon fill="none" stroke="#bfbfbf" points="1564.08,-179.5 1564.08,-198.5 1716.08,-198.5 1716.08,-179.5 1564.08,-179.5"/>
<text text-anchor="middle" x="1640.08" y="-186.5" font-family="Helvetica,sans-Serif" font-size="10.00">boost/qvm/deduce_mat.hpp</text>
</a>
</g>
</g>
<!-- Node23&#45;&gt;Node30 -->
<g id="edge42" class="edge">
<title>Node23&#45;&gt;Node30</title>
<path fill="none" stroke="midnightblue" d="M1490.28,-235.44C1520.49,-226.28 1568.59,-211.69 1602.11,-201.52"/>
<polygon fill="midnightblue" stroke="midnightblue" points="1603.45,-204.77 1612.01,-198.52 1601.42,-198.07 1603.45,-204.77"/>
</g>
<!-- Node31 -->
<g id="node31" class="node">
<title>Node31</title>
<g id="a_node31"><a xlink:title=" ">
<polygon fill="none" stroke="#bfbfbf" points="1734.08,-179.5 1734.08,-198.5 1896.08,-198.5 1896.08,-179.5 1734.08,-179.5"/>
<text text-anchor="middle" x="1815.08" y="-186.5" font-family="Helvetica,sans-Serif" font-size="10.00">boost/qvm/deduce_scalar.hpp</text>
</a>
</g>
</g>
<!-- Node23&#45;&gt;Node31 -->
<g id="edge43" class="edge">
<title>Node23&#45;&gt;Node31</title>
<path fill="none" stroke="midnightblue" d="M1509.32,-236.77C1571.1,-227.32 1679.64,-210.72 1749.4,-200.05"/>
<polygon fill="midnightblue" stroke="midnightblue" points="1750.04,-203.49 1759.4,-198.52 1748.98,-196.57 1750.04,-203.49"/>
</g>
<!-- Node32 -->
<g id="node32" class="node">
<title>Node32</title>
<g id="a_node32"><a xlink:title=" ">
<polygon fill="none" stroke="#bfbfbf" points="1914.08,-179.5 1914.08,-198.5 2078.08,-198.5 2078.08,-179.5 1914.08,-179.5"/>
<text text-anchor="middle" x="1996.08" y="-186.5" font-family="Helvetica,sans-Serif" font-size="10.00">boost/qvm/map_mat_mat.hpp</text>
</a>
</g>
</g>
<!-- Node23&#45;&gt;Node32 -->
<g id="edge45" class="edge">
<title>Node23&#45;&gt;Node32</title>
<path fill="none" stroke="midnightblue" d="M1509.47,-239.21C1597.8,-230.28 1789.02,-210.94 1903.7,-199.34"/>
<polygon fill="midnightblue" stroke="midnightblue" points="1904.27,-202.8 1913.87,-198.31 1903.57,-195.84 1904.27,-202.8"/>
</g>
<!-- Node33 -->
<g id="node33" class="node">
<title>Node33</title>
<g id="a_node33"><a xlink:title=" ">
<polygon fill="none" stroke="#bfbfbf" points="2096.58,-179.5 2096.58,-198.5 2257.58,-198.5 2257.58,-179.5 2096.58,-179.5"/>
<text text-anchor="middle" x="2177.08" y="-186.5" font-family="Helvetica,sans-Serif" font-size="10.00">boost/qvm/map_mat_vec.hpp</text>
</a>
</g>
</g>
<!-- Node23&#45;&gt;Node33 -->
<g id="edge46" class="edge">
<title>Node23&#45;&gt;Node33</title>
<path fill="none" stroke="midnightblue" d="M1509.16,-241.06C1611.79,-234.55 1863.61,-218.06 2085.91,-199.08"/>
<polygon fill="midnightblue" stroke="midnightblue" points="2086.47,-202.54 2096.14,-198.2 2085.87,-195.57 2086.47,-202.54"/>
</g>
<!-- Node34 -->
<g id="node34" class="node">
<title>Node34</title>
<g id="a_node34"><a xlink:title=" ">
<polygon fill="none" stroke="#bfbfbf" points="2275.58,-179.5 2275.58,-198.5 2436.58,-198.5 2436.58,-179.5 2275.58,-179.5"/>
<text text-anchor="middle" x="2356.08" y="-186.5" font-family="Helvetica,sans-Serif" font-size="10.00">boost/qvm/map_vec_mat.hpp</text>
</a>
</g>
</g>
<!-- Node23&#45;&gt;Node34 -->
<g id="edge47" class="edge">
<title>Node23&#45;&gt;Node34</title>
<path fill="none" stroke="midnightblue" d="M1509.31,-242.1C1632.14,-237.01 1971.87,-221.9 2265.57,-199.09"/>
<polygon fill="midnightblue" stroke="midnightblue" points="2265.87,-202.57 2275.56,-198.31 2265.32,-195.6 2265.87,-202.57"/>
</g>
<!-- Node35 -->
<g id="node35" class="node">
<title>Node35</title>
<g id="a_node35"><a xlink:title=" ">
<polygon fill="none" stroke="#bfbfbf" points="2455.08,-179.5 2455.08,-198.5 2567.08,-198.5 2567.08,-179.5 2455.08,-179.5"/>
<text text-anchor="middle" x="2511.08" y="-186.5" font-family="Helvetica,sans-Serif" font-size="10.00">boost/qvm/mat.hpp</text>
</a>
</g>
</g>
<!-- Node23&#45;&gt;Node35 -->
<g id="edge48" class="edge">
<title>Node23&#45;&gt;Node35</title>
<path fill="none" stroke="midnightblue" d="M1509.3,-243.38C1650.01,-241.2 2078.91,-232.19 2444.76,-199.04"/>
<polygon fill="midnightblue" stroke="midnightblue" points="2445.11,-202.52 2454.75,-198.12 2444.47,-195.55 2445.11,-202.52"/>
</g>
<!-- Node36 -->
<g id="node36" class="node">
<title>Node36</title>
<g id="a_node36"><a xlink:title=" ">
<polygon fill="none" stroke="#bfbfbf" points="2585.08,-179.5 2585.08,-198.5 2735.08,-198.5 2735.08,-179.5 2585.08,-179.5"/>
<text text-anchor="middle" x="2660.08" y="-186.5" font-family="Helvetica,sans-Serif" font-size="10.00">boost/qvm/mat_access.hpp</text>
</a>
</g>
</g>
<!-- Node23&#45;&gt;Node36 -->
<g id="edge49" class="edge">
<title>Node23&#45;&gt;Node36</title>
<path fill="none" stroke="midnightblue" d="M1509.11,-243.22C1661.43,-240.44 2155.18,-229.6 2574.79,-199.04"/>
<polygon fill="midnightblue" stroke="midnightblue" points="2575.28,-202.52 2585,-198.29 2574.77,-195.53 2575.28,-202.52"/>
</g>
<!-- Node37 -->
<g id="node37" class="node">
<title>Node37</title>
<g id="a_node37"><a xlink:title=" ">
<polygon fill="none" stroke="#bfbfbf" points="2753.58,-179.5 2753.58,-198.5 2896.58,-198.5 2896.58,-179.5 2753.58,-179.5"/>
<text text-anchor="middle" x="2825.08" y="-186.5" font-family="Helvetica,sans-Serif" font-size="10.00">boost/qvm/mat_traits.hpp</text>
</a>
</g>
</g>
<!-- Node23&#45;&gt;Node37 -->
<g id="edge50" class="edge">
<title>Node23&#45;&gt;Node37</title>
<path fill="none" stroke="midnightblue" d="M1509.3,-243.63C1676.28,-242.05 2254.66,-234.25 2743.47,-198.98"/>
<polygon fill="midnightblue" stroke="midnightblue" points="2743.83,-202.46 2753.55,-198.24 2743.33,-195.48 2743.83,-202.46"/>
</g>
<!-- Node24&#45;&gt;Node13 -->
<g id="edge31" class="edge">
<title>Node24&#45;&gt;Node13</title>
<path fill="none" stroke="midnightblue" d="M801.88,-179.47C809.13,-170.94 819.48,-157.1 824.08,-143 829.59,-126.09 829.82,-105.68 828.98,-91.19"/>
<polygon fill="midnightblue" stroke="midnightblue" points="832.45,-90.69 828.16,-81.01 825.47,-91.26 832.45,-90.69"/>
</g>
<!-- Node24&#45;&gt;Node21 -->
<g id="edge32" class="edge">
<title>Node24&#45;&gt;Node21</title>
<path fill="none" stroke="midnightblue" d="M791.77,-179.08C789.91,-171.93 787.24,-161.64 784.93,-152.69"/>
<polygon fill="midnightblue" stroke="midnightblue" points="788.25,-151.55 782.35,-142.75 781.47,-153.31 788.25,-151.55"/>
</g>
<!-- Node38&#45;&gt;Node3 -->
<g id="edge54" class="edge">
<title>Node38&#45;&gt;Node3</title>
<path fill="none" stroke="midnightblue" d="M700.56,-292.34C644.36,-285.52 575.99,-273.68 554.08,-255 540.51,-243.43 534.61,-223.47 532.04,-208.71"/>
<polygon fill="midnightblue" stroke="midnightblue" points="535.49,-208.1 530.66,-198.67 528.56,-209.05 535.49,-208.1"/>
</g>
<!-- Node38&#45;&gt;Node10 -->
<g id="edge57" class="edge">
<title>Node38&#45;&gt;Node10</title>
<path fill="none" stroke="midnightblue" d="M863.9,-296.94C1253.81,-282.24 2906.62,-218.9 2956.08,-199 2997.05,-182.51 3034.16,-164.85 3020.08,-123 3006.75,-83.38 2973.21,-46.64 2952.47,-26.67"/>
<polygon fill="midnightblue" stroke="midnightblue" points="2954.65,-23.91 2944.96,-19.63 2949.86,-29.02 2954.65,-23.91"/>
</g>
<!-- Node38&#45;&gt;Node16 -->
<g id="edge56" class="edge">
<title>Node38&#45;&gt;Node16</title>
<path fill="none" stroke="midnightblue" d="M761.75,-291.39C731.31,-277.23 675.01,-245.85 652.08,-199 644.93,-184.4 647.38,-165.73 650.9,-152.14"/>
<polygon fill="midnightblue" stroke="midnightblue" points="654.27,-153.1 653.8,-142.52 647.57,-151.08 654.27,-153.1"/>
</g>
<!-- Node38&#45;&gt;Node23 -->
<g id="edge55" class="edge">
<title>Node38&#45;&gt;Node23</title>
<path fill="none" stroke="midnightblue" d="M863.77,-293.51C1003.32,-282.43 1284.25,-260.12 1404.9,-250.54"/>
<polygon fill="midnightblue" stroke="midnightblue" points="1405.34,-254.02 1415.03,-249.74 1404.79,-247.04 1405.34,-254.02"/>
</g>
</g>
</svg>
        <g id="navigator" transform="translate(0 0)" fill="#404254">
                <rect fill="#f2f5e9" fill-opacity="0.5" stroke="#606060" stroke-width=".5" x="0" y="0" width="60" height="60"/>
                <use id="zoomplus" xlink:href="#zoomPlus" x="17" y="9" onmousedown="handleZoom(evt,'in')"/>
                <use id="zoomminus" xlink:href="#zoomMin" x="42" y="9" onmousedown="handleZoom(evt,'out')"/>
                <use id="reset" xlink:href="#resetDef" x="30" y="36" onmousedown="handleReset()"/>
                <g id="arrowUp" xlink:href="#dirArrow" transform="translate(30 24)" onmousedown="handlePan(0,-1)">
                  <use xlink:href="#rim" fill="#404040">
                        <set attributeName="fill" to="#808080" begin="arrowUp.mouseover" end="arrowUp.mouseout"/>
                  </use>
                  <path fill="none" stroke="white" stroke-width="1.5" d="M0,-3.0v7 M-2.5,-0.5L0,-3.0L2.5,-0.5"/>
                </g>
                <g id="arrowRight" xlink:href="#dirArrow" transform="rotate(90) translate(36 -43)" onmousedown="handlePan(1,0)">
                  <use xlink:href="#rim" fill="#404040">
                        <set attributeName="fill" to="#808080" begin="arrowRight.mouseover" end="arrowRight.mouseout"/>
                  </use>
                  <path fill="none" stroke="white" stroke-width="1.5" d="M0,-3.0v7 M-2.5,-0.5L0,-3.0L2.5,-0.5"/>
                </g>
                <g id="arrowDown" xlink:href="#dirArrow" transform="rotate(180) translate(-30 -48)" onmousedown="handlePan(0,1)">
                  <use xlink:href="#rim" fill="#404040">
                        <set attributeName="fill" to="#808080" begin="arrowDown.mouseover" end="arrowDown.mouseout"/>
                  </use>
                  <path fill="none" stroke="white" stroke-width="1.5" d="M0,-3.0v7 M-2.5,-0.5L0,-3.0L2.5,-0.5"/>
                </g>
                <g id="arrowLeft" xlink:href="#dirArrow" transform="rotate(270) translate(-36 17)" onmousedown="handlePan(-1,0)">
                  <use xlink:href="#rim" fill="#404040">
                        <set attributeName="fill" to="#808080" begin="arrowLeft.mouseover" end="arrowLeft.mouseout"/>
                  </use>
                  <path fill="none" stroke="white" stroke-width="1.5" d="M0,-3.0v7 M-2.5,-0.5L0,-3.0L2.5,-0.5"/>
                </g>
        </g>
        <svg viewBox="0 0 15 15" width="100%" height="30px" preserveAspectRatio="xMaxYMin meet">
         <g id="arrow_out" transform="scale(0.3 0.3)">
          <a xlink:href="PlaneWave_8hpp__incl_org.svg" target="_base">
           <rect id="button" ry="5" rx="5" y="6" x="6" height="38" width="38"
                fill="#f2f5e9" fill-opacity="0.5" stroke="#606060" stroke-width="1.0"/>
           <path id="arrow"
             d="M 11.500037,31.436501 C 11.940474,20.09759 22.043105,11.32322 32.158766,21.979434 L 37.068811,17.246167 C 37.068811,17.246167 37.088388,32 37.088388,32 L 22.160133,31.978069 C 22.160133,31.978069 26.997745,27.140456 26.997745,27.140456 C 18.528582,18.264221 13.291696,25.230495 11.500037,31.436501 z"
             style="fill:#404040;"/>
          </a>
         </g>
        </svg>
</svg>
