<?xml version="1.0" encoding="UTF-8" standalone="no"?>
<!DOCTYPE svg PUBLIC "-//W3C//DTD SVG 1.1//EN"
 "http://www.w3.org/Graphics/SVG/1.1/DTD/svg11.dtd">
<!-- Generated by graphviz version 2.43.0 (0)
 -->
<!-- Title: PotentialField.hpp Pages: 1 -->
<!--zoomable 263 -->
<svg id="main" version="1.1" xmlns="http://www.w3.org/2000/svg" xmlns:xlink="http://www.w3.org/1999/xlink" xml:space="preserve" onload="init(evt)">
<style type="text/css"><![CDATA[
.edge:hover path { stroke: red; }
.edge:hover polygon { stroke: red; fill: red; }
]]></style>
<script type="text/javascript"><![CDATA[
var edges = document.getElementsByTagName('g');
if (edges && edges.length) {
  for (var i=0;i<edges.length;i++) {
    if (edges[i].id.substr(0,4)=='edge') {
      edges[i].setAttribute('class','edge');
    }
  }
}
]]></script>
        <defs>
                <circle id="rim" cx="0" cy="0" r="7"/>
                <circle id="rim2" cx="0" cy="0" r="3.5"/>
                <g id="zoomPlus">
                        <use xlink:href="#rim" fill="#404040">
                                <set attributeName="fill" to="#808080" begin="zoomplus.mouseover" end="zoomplus.mouseout"/>
                        </use>
                        <path d="M-4,0h8M0,-4v8" fill="none" stroke="white" stroke-width="1.5" pointer-events="none"/>
                </g>
                <g id="zoomMin">
                        <use xlink:href="#rim" fill="#404040">
                                <set attributeName="fill" to="#808080" begin="zoomminus.mouseover" end="zoomminus.mouseout"/>
                        </use>
                        <path d="M-4,0h8" fill="none" stroke="white" stroke-width="1.5" pointer-events="none"/>
                </g>
                <g id="dirArrow">
                        <path fill="none" stroke="white" stroke-width="1.5" d="M0,-3.0v7 M-2.5,-0.5L0,-3.0L2.5,-0.5"/>
                </g>
               <g id="resetDef">
                       <use xlink:href="#rim2" fill="#404040">
                               <set attributeName="fill" to="#808080" begin="reset.mouseover" end="reset.mouseout"/>
                       </use>
               </g>
        </defs>

<script type="text/javascript">
var viewWidth = 1634;
var viewHeight = 263;
var sectionId = 'dynsection-0';
</script>
<script xlink:href="svgpan.js"/>
<svg id="graph" class="graph">
<g id="viewport">
<title>PotentialField.hpp</title>
<!-- Node1 -->
<g id="node1" class="node">
<title>Node1</title>
<g id="a_node1"><a xlink:title=" ">
<polygon fill="#bfbfbf" stroke="black" points="637.5,-235.5 637.5,-254.5 741.5,-254.5 741.5,-235.5 637.5,-235.5"/>
<text text-anchor="middle" x="689.5" y="-242.5" font-family="Helvetica,sans-Serif" font-size="10.00">PotentialField.hpp</text>
</a>
</g>
</g>
<!-- Node2 -->
<g id="node2" class="node">
<title>Node2</title>
<g id="a_node2"><a xlink:href="Base_8hpp.html" target="_top" xlink:title=" ">
<polygon fill="none" stroke="black" points="180.5,-179.5 180.5,-198.5 272.5,-198.5 272.5,-179.5 180.5,-179.5"/>
<text text-anchor="middle" x="226.5" y="-186.5" font-family="Helvetica,sans-Serif" font-size="10.00">detail/Base.hpp</text>
</a>
</g>
</g>
<!-- Node1&#45;&gt;Node2 -->
<g id="edge1" class="edge">
<title>Node1&#45;&gt;Node2</title>
<path fill="none" stroke="midnightblue" d="M637.29,-237.91C549.5,-227.67 373.09,-207.1 282.7,-196.55"/>
<polygon fill="midnightblue" stroke="midnightblue" points="282.98,-193.06 272.64,-195.38 282.17,-200.02 282.98,-193.06"/>
</g>
<!-- Node4 -->
<g id="node4" class="node">
<title>Node4</title>
<g id="a_node4"><a xlink:href="BindCoupling_8hpp.html" target="_top" xlink:title=" ">
<polygon fill="none" stroke="black" points="623,-179.5 623,-198.5 756,-198.5 756,-179.5 623,-179.5"/>
<text text-anchor="middle" x="689.5" y="-186.5" font-family="Helvetica,sans-Serif" font-size="10.00">detail/BindCoupling.hpp</text>
</a>
</g>
</g>
<!-- Node1&#45;&gt;Node4 -->
<g id="edge3" class="edge">
<title>Node1&#45;&gt;Node4</title>
<path fill="none" stroke="midnightblue" d="M689.5,-235.08C689.5,-228.01 689.5,-217.86 689.5,-208.99"/>
<polygon fill="midnightblue" stroke="midnightblue" points="693,-208.75 689.5,-198.75 686,-208.75 693,-208.75"/>
</g>
<!-- Node5 -->
<g id="node5" class="node">
<title>Node5</title>
<g id="a_node5"><a xlink:href="Vector_8hpp.html" target="_top" xlink:title=" ">
<polygon fill="none" stroke="black" points="940,-179.5 940,-198.5 1033,-198.5 1033,-179.5 940,-179.5"/>
<text text-anchor="middle" x="986.5" y="-186.5" font-family="Helvetica,sans-Serif" font-size="10.00">utils/Vector.hpp</text>
</a>
</g>
</g>
<!-- Node1&#45;&gt;Node5 -->
<g id="edge4" class="edge">
<title>Node1&#45;&gt;Node5</title>
<path fill="none" stroke="midnightblue" d="M736.56,-235.44C788.91,-225.92 873.49,-210.55 929.54,-200.36"/>
<polygon fill="midnightblue" stroke="midnightblue" points="930.45,-203.75 939.66,-198.52 929.19,-196.86 930.45,-203.75"/>
</g>
<!-- Node3 -->
<g id="node3" class="node">
<title>Node3</title>
<g id="a_node3"><a xlink:title=" ">
<polygon fill="none" stroke="#bfbfbf" points="0,-123.5 0,-142.5 45,-142.5 45,-123.5 0,-123.5"/>
<text text-anchor="middle" x="22.5" y="-130.5" font-family="Helvetica,sans-Serif" font-size="10.00">utility</text>
</a>
</g>
</g>
<!-- Node2&#45;&gt;Node3 -->
<g id="edge2" class="edge">
<title>Node2&#45;&gt;Node3</title>
<path fill="none" stroke="midnightblue" d="M193.16,-179.47C160.44,-171.05 108.87,-157.68 54.95,-143.08"/>
<polygon fill="midnightblue" stroke="midnightblue" points="55.78,-139.68 45.21,-140.44 53.95,-146.44 55.78,-139.68"/>
</g>
<!-- Node6 -->
<g id="node6" class="node">
<title>Node6</title>
<g id="a_node6"><a xlink:title=" ">
<polygon fill="none" stroke="#bfbfbf" points="1475.5,-123.5 1475.5,-142.5 1625.5,-142.5 1625.5,-123.5 1475.5,-123.5"/>
<text text-anchor="middle" x="1550.5" y="-130.5" font-family="Helvetica,sans-Serif" font-size="10.00">boost/qvm/deduce_vec.hpp</text>
</a>
</g>
</g>
<!-- Node5&#45;&gt;Node6 -->
<g id="edge5" class="edge">
<title>Node5&#45;&gt;Node6</title>
<path fill="none" stroke="midnightblue" d="M1033.29,-183.85C1117.54,-176.34 1300.62,-159.77 1465.1,-143.23"/>
<polygon fill="midnightblue" stroke="midnightblue" points="1465.81,-146.68 1475.4,-142.19 1465.1,-139.71 1465.81,-146.68"/>
</g>
<!-- Node7 -->
<g id="node7" class="node">
<title>Node7</title>
<g id="a_node7"><a xlink:title=" ">
<polygon fill="none" stroke="#bfbfbf" points="63.5,-123.5 63.5,-142.5 203.5,-142.5 203.5,-123.5 63.5,-123.5"/>
<text text-anchor="middle" x="133.5" y="-130.5" font-family="Helvetica,sans-Serif" font-size="10.00">boost/qvm/vec_traits.hpp</text>
</a>
</g>
</g>
<!-- Node5&#45;&gt;Node7 -->
<g id="edge6" class="edge">
<title>Node5&#45;&gt;Node7</title>
<path fill="none" stroke="midnightblue" d="M939.63,-186.05C819.48,-180.87 490.72,-165.62 217.5,-143 216.23,-142.89 214.94,-142.79 213.65,-142.67"/>
<polygon fill="midnightblue" stroke="midnightblue" points="213.88,-139.18 203.6,-141.77 213.25,-146.15 213.88,-139.18"/>
</g>
<!-- Node8 -->
<g id="node8" class="node">
<title>Node8</title>
<g id="a_node8"><a xlink:href="Array_8hpp.html" target="_top" xlink:title=" ">
<polygon fill="none" stroke="black" points="558.5,-123.5 558.5,-142.5 644.5,-142.5 644.5,-123.5 558.5,-123.5"/>
<text text-anchor="middle" x="601.5" y="-130.5" font-family="Helvetica,sans-Serif" font-size="10.00">utils/Array.hpp</text>
</a>
</g>
</g>
<!-- Node5&#45;&gt;Node8 -->
<g id="edge7" class="edge">
<title>Node5&#45;&gt;Node8</title>
<path fill="none" stroke="midnightblue" d="M939.68,-181.43C867.81,-171.35 730.7,-152.12 655.01,-141.5"/>
<polygon fill="midnightblue" stroke="midnightblue" points="655.14,-137.99 644.75,-140.07 654.16,-144.92 655.14,-137.99"/>
</g>
<!-- Node10 -->
<g id="node10" class="node">
<title>Node10</title>
<g id="a_node10"><a xlink:title=" ">
<polygon fill="none" stroke="#bfbfbf" points="722.5,-0.5 722.5,-19.5 774.5,-19.5 774.5,-0.5 722.5,-0.5"/>
<text text-anchor="middle" x="748.5" y="-7.5" font-family="Helvetica,sans-Serif" font-size="10.00">cassert</text>
</a>
</g>
</g>
<!-- Node5&#45;&gt;Node10 -->
<g id="edge20" class="edge">
<title>Node5&#45;&gt;Node10</title>
<path fill="none" stroke="midnightblue" d="M961.04,-179.45C943.71,-172.34 921.61,-160.53 908.5,-143 884.68,-111.15 914.53,-85.18 887.5,-56 861.01,-27.41 816.26,-16.93 784.7,-13.12"/>
<polygon fill="midnightblue" stroke="midnightblue" points="784.85,-9.62 774.55,-12.07 784.13,-16.58 784.85,-9.62"/>
</g>
<!-- Node12 -->
<g id="node12" class="node">
<title>Node12</title>
<g id="a_node12"><a xlink:title=" ">
<polygon fill="none" stroke="#bfbfbf" points="238,-0.5 238,-19.5 291,-19.5 291,-0.5 238,-0.5"/>
<text text-anchor="middle" x="264.5" y="-7.5" font-family="Helvetica,sans-Serif" font-size="10.00">cstddef</text>
</a>
</g>
</g>
<!-- Node5&#45;&gt;Node12 -->
<g id="edge22" class="edge">
<title>Node5&#45;&gt;Node12</title>
<path fill="none" stroke="midnightblue" d="M939.85,-185.01C787.25,-174.76 310.2,-138.79 266.5,-87 253.23,-71.28 255.38,-46.53 259.09,-29.57"/>
<polygon fill="midnightblue" stroke="midnightblue" points="262.52,-30.28 261.61,-19.73 255.74,-28.55 262.52,-30.28"/>
</g>
<!-- Node15 -->
<g id="node15" class="node">
<title>Node15</title>
<g id="a_node15"><a xlink:title=" ">
<polygon fill="none" stroke="#bfbfbf" points="825,-62 825,-81 878,-81 878,-62 825,-62"/>
<text text-anchor="middle" x="851.5" y="-69" font-family="Helvetica,sans-Serif" font-size="10.00">iterator</text>
</a>
</g>
</g>
<!-- Node5&#45;&gt;Node15 -->
<g id="edge25" class="edge">
<title>Node5&#45;&gt;Node15</title>
<path fill="none" stroke="midnightblue" d="M942.8,-179.48C920.02,-172.98 893.28,-161.82 875.5,-143 862.07,-128.78 856.13,-106.75 853.52,-91.1"/>
<polygon fill="midnightblue" stroke="midnightblue" points="856.97,-90.47 852.15,-81.04 850.03,-91.42 856.97,-90.47"/>
</g>
<!-- Node18 -->
<g id="node18" class="node">
<title>Node18</title>
<g id="a_node18"><a xlink:title=" ">
<polygon fill="none" stroke="#bfbfbf" points="917.5,-123.5 917.5,-142.5 981.5,-142.5 981.5,-123.5 917.5,-123.5"/>
<text text-anchor="middle" x="949.5" y="-130.5" font-family="Helvetica,sans-Serif" font-size="10.00">algorithm</text>
</a>
</g>
</g>
<!-- Node5&#45;&gt;Node18 -->
<g id="edge19" class="edge">
<title>Node5&#45;&gt;Node18</title>
<path fill="none" stroke="midnightblue" d="M980.39,-179.08C975.22,-171.53 967.65,-160.49 961.31,-151.23"/>
<polygon fill="midnightblue" stroke="midnightblue" points="964.04,-149.02 955.5,-142.75 958.26,-152.98 964.04,-149.02"/>
</g>
<!-- Node19 -->
<g id="node19" class="node">
<title>Node19</title>
<g id="a_node19"><a xlink:title=" ">
<polygon fill="none" stroke="#bfbfbf" points="1000,-123.5 1000,-142.5 1047,-142.5 1047,-123.5 1000,-123.5"/>
<text text-anchor="middle" x="1023.5" y="-130.5" font-family="Helvetica,sans-Serif" font-size="10.00">cmath</text>
</a>
</g>
</g>
<!-- Node5&#45;&gt;Node19 -->
<g id="edge21" class="edge">
<title>Node5&#45;&gt;Node19</title>
<path fill="none" stroke="midnightblue" d="M992.61,-179.08C997.78,-171.53 1005.35,-160.49 1011.69,-151.23"/>
<polygon fill="midnightblue" stroke="midnightblue" points="1014.74,-152.98 1017.5,-142.75 1008.96,-149.02 1014.74,-152.98"/>
</g>
<!-- Node20 -->
<g id="node20" class="node">
<title>Node20</title>
<g id="a_node20"><a xlink:title=" ">
<polygon fill="none" stroke="#bfbfbf" points="1065,-123.5 1065,-142.5 1130,-142.5 1130,-123.5 1065,-123.5"/>
<text text-anchor="middle" x="1097.5" y="-130.5" font-family="Helvetica,sans-Serif" font-size="10.00">functional</text>
</a>
</g>
</g>
<!-- Node5&#45;&gt;Node20 -->
<g id="edge23" class="edge">
<title>Node5&#45;&gt;Node20</title>
<path fill="none" stroke="midnightblue" d="M1004.33,-179.32C1022.22,-170.62 1049.98,-157.12 1070.55,-147.11"/>
<polygon fill="midnightblue" stroke="midnightblue" points="1072.25,-150.18 1079.71,-142.65 1069.19,-143.88 1072.25,-150.18"/>
</g>
<!-- Node21 -->
<g id="node21" class="node">
<title>Node21</title>
<g id="a_node21"><a xlink:title=" ">
<polygon fill="none" stroke="#bfbfbf" points="1148,-123.5 1148,-142.5 1231,-142.5 1231,-123.5 1148,-123.5"/>
<text text-anchor="middle" x="1189.5" y="-130.5" font-family="Helvetica,sans-Serif" font-size="10.00">initializer_list</text>
</a>
</g>
</g>
<!-- Node5&#45;&gt;Node21 -->
<g id="edge24" class="edge">
<title>Node5&#45;&gt;Node21</title>
<path fill="none" stroke="midnightblue" d="M1018.67,-179.44C1053.56,-170.16 1109.39,-155.31 1147.67,-145.13"/>
<polygon fill="midnightblue" stroke="midnightblue" points="1148.72,-148.47 1157.48,-142.52 1146.92,-141.7 1148.72,-148.47"/>
</g>
<!-- Node22 -->
<g id="node22" class="node">
<title>Node22</title>
<g id="a_node22"><a xlink:title=" ">
<polygon fill="none" stroke="#bfbfbf" points="1249.5,-123.5 1249.5,-142.5 1305.5,-142.5 1305.5,-123.5 1249.5,-123.5"/>
<text text-anchor="middle" x="1277.5" y="-130.5" font-family="Helvetica,sans-Serif" font-size="10.00">numeric</text>
</a>
</g>
</g>
<!-- Node5&#45;&gt;Node22 -->
<g id="edge26" class="edge">
<title>Node5&#45;&gt;Node22</title>
<path fill="none" stroke="midnightblue" d="M1033.02,-180.67C1081.99,-172.74 1161.54,-159.3 1239.3,-143.15"/>
<polygon fill="midnightblue" stroke="midnightblue" points="1240.19,-146.54 1249.26,-141.06 1238.75,-139.69 1240.19,-146.54"/>
</g>
<!-- Node23 -->
<g id="node23" class="node">
<title>Node23</title>
<g id="a_node23"><a xlink:title=" ">
<polygon fill="none" stroke="#bfbfbf" points="1324,-123.5 1324,-142.5 1393,-142.5 1393,-123.5 1324,-123.5"/>
<text text-anchor="middle" x="1358.5" y="-130.5" font-family="Helvetica,sans-Serif" font-size="10.00">type_traits</text>
</a>
</g>
</g>
<!-- Node5&#45;&gt;Node23 -->
<g id="edge27" class="edge">
<title>Node5&#45;&gt;Node23</title>
<path fill="none" stroke="midnightblue" d="M1033.09,-182.58C1094.88,-175.18 1207.55,-160.94 1314,-142.98"/>
<polygon fill="midnightblue" stroke="midnightblue" points="1314.68,-146.42 1323.95,-141.29 1313.51,-139.52 1314.68,-146.42"/>
</g>
<!-- Node24 -->
<g id="node24" class="node">
<title>Node24</title>
<g id="a_node24"><a xlink:title=" ">
<polygon fill="none" stroke="#bfbfbf" points="1411,-123.5 1411,-142.5 1458,-142.5 1458,-123.5 1411,-123.5"/>
<text text-anchor="middle" x="1434.5" y="-130.5" font-family="Helvetica,sans-Serif" font-size="10.00">vector</text>
</a>
</g>
</g>
<!-- Node5&#45;&gt;Node24 -->
<g id="edge28" class="edge">
<title>Node5&#45;&gt;Node24</title>
<path fill="none" stroke="midnightblue" d="M1033.04,-185.5C1108.54,-180.89 1262.41,-169.21 1400.9,-143.04"/>
<polygon fill="midnightblue" stroke="midnightblue" points="1401.68,-146.45 1410.84,-141.13 1400.36,-139.58 1401.68,-146.45"/>
</g>
<!-- Node9 -->
<g id="node9" class="node">
<title>Node9</title>
<g id="a_node9"><a xlink:href="device__qualifier_8hpp.html" target="_top" xlink:title=" ">
<polygon fill="none" stroke="black" points="690.5,-62 690.5,-81 806.5,-81 806.5,-62 690.5,-62"/>
<text text-anchor="middle" x="748.5" y="-69" font-family="Helvetica,sans-Serif" font-size="10.00">device_qualifier.hpp</text>
</a>
</g>
</g>
<!-- Node8&#45;&gt;Node9 -->
<g id="edge8" class="edge">
<title>Node8&#45;&gt;Node9</title>
<path fill="none" stroke="midnightblue" d="M622.56,-123.48C647.56,-113.36 689.44,-96.4 717.99,-84.85"/>
<polygon fill="midnightblue" stroke="midnightblue" points="719.52,-88.01 727.48,-81.01 716.89,-81.52 719.52,-88.01"/>
</g>
<!-- Node8&#45;&gt;Node10 -->
<g id="edge14" class="edge">
<title>Node8&#45;&gt;Node10</title>
<path fill="none" stroke="midnightblue" d="M609.94,-123.06C624.06,-108.31 653.7,-78.28 681.5,-56 695.54,-44.75 712.34,-33.47 725.61,-25.01"/>
<polygon fill="midnightblue" stroke="midnightblue" points="727.55,-27.93 734.16,-19.65 723.83,-22 727.55,-27.93"/>
</g>
<!-- Node11 -->
<g id="node11" class="node">
<title>Node11</title>
<g id="a_node11"><a xlink:href="get_8hpp.html" target="_top" xlink:title=" ">
<polygon fill="none" stroke="black" points="298,-62 298,-81 351,-81 351,-62 298,-62"/>
<text text-anchor="middle" x="324.5" y="-69" font-family="Helvetica,sans-Serif" font-size="10.00">get.hpp</text>
</a>
</g>
</g>
<!-- Node8&#45;&gt;Node11 -->
<g id="edge10" class="edge">
<title>Node8&#45;&gt;Node11</title>
<path fill="none" stroke="midnightblue" d="M558.46,-126.76C509.57,-120.18 427.72,-107.23 359.5,-87 357.21,-86.32 354.87,-85.54 352.53,-84.71"/>
<polygon fill="midnightblue" stroke="midnightblue" points="353.72,-81.41 343.13,-81.06 351.19,-87.94 353.72,-81.41"/>
</g>
<!-- Node8&#45;&gt;Node12 -->
<g id="edge15" class="edge">
<title>Node8&#45;&gt;Node12</title>
<path fill="none" stroke="midnightblue" d="M558.34,-131.32C482.22,-129.24 328.36,-120.84 288.5,-87 271.89,-72.9 266.63,-47.38 265.05,-29.83"/>
<polygon fill="midnightblue" stroke="midnightblue" points="268.53,-29.43 264.45,-19.65 261.54,-29.84 268.53,-29.43"/>
</g>
<!-- Node14 -->
<g id="node14" class="node">
<title>Node14</title>
<g id="a_node14"><a xlink:title=" ">
<polygon fill="none" stroke="#bfbfbf" points="369,-56.5 369,-86.5 476,-86.5 476,-56.5 369,-56.5"/>
<text text-anchor="start" x="377" y="-74.5" font-family="Helvetica,sans-Serif" font-size="10.00">boost/serialization</text>
<text text-anchor="middle" x="422.5" y="-63.5" font-family="Helvetica,sans-Serif" font-size="10.00">/access.hpp</text>
</a>
</g>
</g>
<!-- Node8&#45;&gt;Node14 -->
<g id="edge13" class="edge">
<title>Node8&#45;&gt;Node14</title>
<path fill="none" stroke="midnightblue" d="M575.85,-123.48C549.46,-114.7 507.6,-100.79 474.28,-89.71"/>
<polygon fill="midnightblue" stroke="midnightblue" points="475.28,-86.36 464.69,-86.52 473.07,-93 475.28,-86.36"/>
</g>
<!-- Node8&#45;&gt;Node15 -->
<g id="edge16" class="edge">
<title>Node8&#45;&gt;Node15</title>
<path fill="none" stroke="midnightblue" d="M644.69,-125.21C688.32,-117.83 757.38,-104.67 815.5,-87 817.78,-86.31 820.13,-85.53 822.47,-84.7"/>
<polygon fill="midnightblue" stroke="midnightblue" points="823.81,-87.93 831.92,-81.11 821.33,-81.39 823.81,-87.93"/>
</g>
<!-- Node16 -->
<g id="node16" class="node">
<title>Node16</title>
<g id="a_node16"><a xlink:title=" ">
<polygon fill="none" stroke="#bfbfbf" points="494,-62 494,-81 551,-81 551,-62 494,-62"/>
<text text-anchor="middle" x="522.5" y="-69" font-family="Helvetica,sans-Serif" font-size="10.00">ostream</text>
</a>
</g>
</g>
<!-- Node8&#45;&gt;Node16 -->
<g id="edge17" class="edge">
<title>Node8&#45;&gt;Node16</title>
<path fill="none" stroke="midnightblue" d="M590.18,-123.48C577.63,-114.02 557.15,-98.6 542,-87.19"/>
<polygon fill="midnightblue" stroke="midnightblue" points="543.89,-84.23 533.8,-81.01 539.68,-89.82 543.89,-84.23"/>
</g>
<!-- Node17 -->
<g id="node17" class="node">
<title>Node17</title>
<g id="a_node17"><a xlink:title=" ">
<polygon fill="none" stroke="#bfbfbf" points="569,-62 569,-81 634,-81 634,-62 569,-62"/>
<text text-anchor="middle" x="601.5" y="-69" font-family="Helvetica,sans-Serif" font-size="10.00">stdexcept</text>
</a>
</g>
</g>
<!-- Node8&#45;&gt;Node17 -->
<g id="edge18" class="edge">
<title>Node8&#45;&gt;Node17</title>
<path fill="none" stroke="midnightblue" d="M601.5,-123.48C601.5,-115.08 601.5,-101.98 601.5,-91.16"/>
<polygon fill="midnightblue" stroke="midnightblue" points="605,-91.01 601.5,-81.01 598,-91.01 605,-91.01"/>
</g>
<!-- Node9&#45;&gt;Node10 -->
<g id="edge9" class="edge">
<title>Node9&#45;&gt;Node10</title>
<path fill="none" stroke="midnightblue" d="M748.5,-61.98C748.5,-53.58 748.5,-40.48 748.5,-29.66"/>
<polygon fill="midnightblue" stroke="midnightblue" points="752,-29.51 748.5,-19.51 745,-29.51 752,-29.51"/>
</g>
<!-- Node11&#45;&gt;Node12 -->
<g id="edge11" class="edge">
<title>Node11&#45;&gt;Node12</title>
<path fill="none" stroke="midnightblue" d="M315.9,-61.98C306.64,-52.78 291.68,-37.96 280.29,-26.66"/>
<polygon fill="midnightblue" stroke="midnightblue" points="282.65,-24.07 273.08,-19.51 277.72,-29.04 282.65,-24.07"/>
</g>
<!-- Node13 -->
<g id="node13" class="node">
<title>Node13</title>
<g id="a_node13"><a xlink:title=" ">
<polygon fill="none" stroke="#bfbfbf" points="309,-0.5 309,-19.5 350,-19.5 350,-0.5 309,-0.5"/>
<text text-anchor="middle" x="329.5" y="-7.5" font-family="Helvetica,sans-Serif" font-size="10.00">tuple</text>
</a>
</g>
</g>
<!-- Node11&#45;&gt;Node13 -->
<g id="edge12" class="edge">
<title>Node11&#45;&gt;Node13</title>
<path fill="none" stroke="midnightblue" d="M325.22,-61.98C325.92,-53.58 327.02,-40.48 327.93,-29.66"/>
<polygon fill="midnightblue" stroke="midnightblue" points="331.44,-29.77 328.78,-19.51 324.46,-29.18 331.44,-29.77"/>
</g>
</g>
</svg>
        <g id="navigator" transform="translate(0 0)" fill="#404254">
                <rect fill="#f2f5e9" fill-opacity="0.5" stroke="#606060" stroke-width=".5" x="0" y="0" width="60" height="60"/>
                <use id="zoomplus" xlink:href="#zoomPlus" x="17" y="9" onmousedown="handleZoom(evt,'in')"/>
                <use id="zoomminus" xlink:href="#zoomMin" x="42" y="9" onmousedown="handleZoom(evt,'out')"/>
                <use id="reset" xlink:href="#resetDef" x="30" y="36" onmousedown="handleReset()"/>
                <g id="arrowUp" xlink:href="#dirArrow" transform="translate(30 24)" onmousedown="handlePan(0,-1)">
                  <use xlink:href="#rim" fill="#404040">
                        <set attributeName="fill" to="#808080" begin="arrowUp.mouseover" end="arrowUp.mouseout"/>
                  </use>
                  <path fill="none" stroke="white" stroke-width="1.5" d="M0,-3.0v7 M-2.5,-0.5L0,-3.0L2.5,-0.5"/>
                </g>
                <g id="arrowRight" xlink:href="#dirArrow" transform="rotate(90) translate(36 -43)" onmousedown="handlePan(1,0)">
                  <use xlink:href="#rim" fill="#404040">
                        <set attributeName="fill" to="#808080" begin="arrowRight.mouseover" end="arrowRight.mouseout"/>
                  </use>
                  <path fill="none" stroke="white" stroke-width="1.5" d="M0,-3.0v7 M-2.5,-0.5L0,-3.0L2.5,-0.5"/>
                </g>
                <g id="arrowDown" xlink:href="#dirArrow" transform="rotate(180) translate(-30 -48)" onmousedown="handlePan(0,1)">
                  <use xlink:href="#rim" fill="#404040">
                        <set attributeName="fill" to="#808080" begin="arrowDown.mouseover" end="arrowDown.mouseout"/>
                  </use>
                  <path fill="none" stroke="white" stroke-width="1.5" d="M0,-3.0v7 M-2.5,-0.5L0,-3.0L2.5,-0.5"/>
                </g>
                <g id="arrowLeft" xlink:href="#dirArrow" transform="rotate(270) translate(-36 17)" onmousedown="handlePan(-1,0)">
                  <use xlink:href="#rim" fill="#404040">
                        <set attributeName="fill" to="#808080" begin="arrowLeft.mouseover" end="arrowLeft.mouseout"/>
                  </use>
                  <path fill="none" stroke="white" stroke-width="1.5" d="M0,-3.0v7 M-2.5,-0.5L0,-3.0L2.5,-0.5"/>
                </g>
        </g>
        <svg viewBox="0 0 15 15" width="100%" height="30px" preserveAspectRatio="xMaxYMin meet">
         <g id="arrow_out" transform="scale(0.3 0.3)">
          <a xlink:href="PotentialField_8hpp__incl_org.svg" target="_base">
           <rect id="button" ry="5" rx="5" y="6" x="6" height="38" width="38"
                fill="#f2f5e9" fill-opacity="0.5" stroke="#606060" stroke-width="1.0"/>
           <path id="arrow"
             d="M 11.500037,31.436501 C 11.940474,20.09759 22.043105,11.32322 32.158766,21.979434 L 37.068811,17.246167 C 37.068811,17.246167 37.088388,32 37.088388,32 L 22.160133,31.978069 C 22.160133,31.978069 26.997745,27.140456 26.997745,27.140456 C 18.528582,18.264221 13.291696,25.230495 11.500037,31.436501 z"
             style="fill:#404040;"/>
          </a>
         </g>
        </svg>
</svg>
