<?xml version="1.0" encoding="UTF-8" standalone="no"?>
<!DOCTYPE svg PUBLIC "-//W3C//DTD SVG 1.1//EN"
 "http://www.w3.org/Graphics/SVG/1.1/DTD/svg11.dtd">
<!-- Generated by graphviz version 2.43.0 (0)
 -->
<!-- Title: pressure.hpp Pages: 1 -->
<!--zoomable 274 -->
<svg id="main" version="1.1" xmlns="http://www.w3.org/2000/svg" xmlns:xlink="http://www.w3.org/1999/xlink" xml:space="preserve" onload="init(evt)">
<style type="text/css"><![CDATA[
.edge:hover path { stroke: red; }
.edge:hover polygon { stroke: red; fill: red; }
]]></style>
<script type="text/javascript"><![CDATA[
var edges = document.getElementsByTagName('g');
if (edges && edges.length) {
  for (var i=0;i<edges.length;i++) {
    if (edges[i].id.substr(0,4)=='edge') {
      edges[i].setAttribute('class','edge');
    }
  }
}
]]></script>
        <defs>
                <circle id="rim" cx="0" cy="0" r="7"/>
                <circle id="rim2" cx="0" cy="0" r="3.5"/>
                <g id="zoomPlus">
                        <use xlink:href="#rim" fill="#404040">
                                <set attributeName="fill" to="#808080" begin="zoomplus.mouseover" end="zoomplus.mouseout"/>
                        </use>
                        <path d="M-4,0h8M0,-4v8" fill="none" stroke="white" stroke-width="1.5" pointer-events="none"/>
                </g>
                <g id="zoomMin">
                        <use xlink:href="#rim" fill="#404040">
                                <set attributeName="fill" to="#808080" begin="zoomminus.mouseover" end="zoomminus.mouseout"/>
                        </use>
                        <path d="M-4,0h8" fill="none" stroke="white" stroke-width="1.5" pointer-events="none"/>
                </g>
                <g id="dirArrow">
                        <path fill="none" stroke="white" stroke-width="1.5" d="M0,-3.0v7 M-2.5,-0.5L0,-3.0L2.5,-0.5"/>
                </g>
               <g id="resetDef">
                       <use xlink:href="#rim2" fill="#404040">
                               <set attributeName="fill" to="#808080" begin="reset.mouseover" end="reset.mouseout"/>
                       </use>
               </g>
        </defs>

<script type="text/javascript">
var viewWidth = 1533;
var viewHeight = 274;
var sectionId = 'dynsection-0';
</script>
<script xlink:href="svgpan.js"/>
<svg id="graph" class="graph">
<g id="viewport">
<title>pressure.hpp</title>
<!-- Node1 -->
<g id="node1" class="node">
<title>Node1</title>
<g id="a_node1"><a xlink:title=" ">
<polygon fill="#bfbfbf" stroke="black" points="833.5,-246.5 833.5,-265.5 913.5,-265.5 913.5,-246.5 833.5,-246.5"/>
<text text-anchor="middle" x="873.5" y="-253.5" font-family="Helvetica,sans-Serif" font-size="10.00">pressure.hpp</text>
</a>
</g>
</g>
<!-- Node2 -->
<g id="node2" class="node">
<title>Node2</title>
<g id="a_node2"><a xlink:href="Observable__stat_8hpp.html" target="_top" xlink:title=" ">
<polygon fill="none" stroke="black" points="360,-190.5 360,-209.5 477,-209.5 477,-190.5 360,-190.5"/>
<text text-anchor="middle" x="418.5" y="-197.5" font-family="Helvetica,sans-Serif" font-size="10.00">Observable_stat.hpp</text>
</a>
</g>
</g>
<!-- Node1&#45;&gt;Node2 -->
<g id="edge1" class="edge">
<title>Node1&#45;&gt;Node2</title>
<path fill="none" stroke="midnightblue" d="M833.12,-250.21C755.27,-240.97 583.61,-220.6 487.37,-209.17"/>
<polygon fill="midnightblue" stroke="midnightblue" points="487.5,-205.66 477.16,-207.96 486.67,-212.62 487.5,-205.66"/>
</g>
<!-- Node15 -->
<g id="node15" class="node">
<title>Node15</title>
<g id="a_node15"><a xlink:href="Vector_8hpp.html" target="_top" xlink:title=" ">
<polygon fill="none" stroke="black" points="827,-190.5 827,-209.5 920,-209.5 920,-190.5 827,-190.5"/>
<text text-anchor="middle" x="873.5" y="-197.5" font-family="Helvetica,sans-Serif" font-size="10.00">utils/Vector.hpp</text>
</a>
</g>
</g>
<!-- Node1&#45;&gt;Node15 -->
<g id="edge17" class="edge">
<title>Node1&#45;&gt;Node15</title>
<path fill="none" stroke="midnightblue" d="M873.5,-246.08C873.5,-239.01 873.5,-228.86 873.5,-219.99"/>
<polygon fill="midnightblue" stroke="midnightblue" points="877,-219.75 873.5,-209.75 870,-219.75 877,-219.75"/>
</g>
<!-- Node26 -->
<g id="node26" class="node">
<title>Node26</title>
<g id="a_node26"><a xlink:title=" ">
<polygon fill="none" stroke="#bfbfbf" points="938.5,-190.5 938.5,-209.5 996.5,-209.5 996.5,-190.5 938.5,-190.5"/>
<text text-anchor="middle" x="967.5" y="-197.5" font-family="Helvetica,sans-Serif" font-size="10.00">memory</text>
</a>
</g>
</g>
<!-- Node1&#45;&gt;Node26 -->
<g id="edge41" class="edge">
<title>Node1&#45;&gt;Node26</title>
<path fill="none" stroke="midnightblue" d="M888.6,-246.32C903.4,-237.82 926.19,-224.73 943.48,-214.8"/>
<polygon fill="midnightblue" stroke="midnightblue" points="945.51,-217.67 952.43,-209.65 942.02,-211.6 945.51,-217.67"/>
</g>
<!-- Node3 -->
<g id="node3" class="node">
<title>Node3</title>
<g id="a_node3"><a xlink:title=" ">
<polygon fill="none" stroke="#bfbfbf" points="0,-123.5 0,-153.5 125,-153.5 125,-123.5 0,-123.5"/>
<text text-anchor="start" x="8" y="-141.5" font-family="Helvetica,sans-Serif" font-size="10.00">boost/range/algorithm</text>
<text text-anchor="middle" x="62.5" y="-130.5" font-family="Helvetica,sans-Serif" font-size="10.00">/transform.hpp</text>
</a>
</g>
</g>
<!-- Node2&#45;&gt;Node3 -->
<g id="edge2" class="edge">
<title>Node2&#45;&gt;Node3</title>
<path fill="none" stroke="midnightblue" d="M362.85,-190.46C306.48,-181.71 216.83,-167.51 139.5,-154 138.03,-153.74 136.55,-153.48 135.06,-153.22"/>
<polygon fill="midnightblue" stroke="midnightblue" points="135.55,-149.75 125.09,-151.43 134.31,-156.64 135.55,-149.75"/>
</g>
<!-- Node4 -->
<g id="node4" class="node">
<title>Node4</title>
<g id="a_node4"><a xlink:title=" ">
<polygon fill="none" stroke="#bfbfbf" points="181.5,-129 181.5,-148 319.5,-148 319.5,-129 181.5,-129"/>
<text text-anchor="middle" x="250.5" y="-136" font-family="Helvetica,sans-Serif" font-size="10.00">boost/range/numeric.hpp</text>
</a>
</g>
</g>
<!-- Node2&#45;&gt;Node4 -->
<g id="edge3" class="edge">
<title>Node2&#45;&gt;Node4</title>
<path fill="none" stroke="midnightblue" d="M394.43,-190.48C365.49,-180.22 316.74,-162.96 284.1,-151.4"/>
<polygon fill="midnightblue" stroke="midnightblue" points="285.12,-148.05 274.53,-148.01 282.78,-154.65 285.12,-148.05"/>
</g>
<!-- Node5 -->
<g id="node5" class="node">
<title>Node5</title>
<g id="a_node5"><a xlink:href="Span_8hpp.html" target="_top" xlink:title=" ">
<polygon fill="none" stroke="black" points="375.5,-129 375.5,-148 461.5,-148 461.5,-129 375.5,-129"/>
<text text-anchor="middle" x="418.5" y="-136" font-family="Helvetica,sans-Serif" font-size="10.00">utils/Span.hpp</text>
</a>
</g>
</g>
<!-- Node2&#45;&gt;Node5 -->
<g id="edge4" class="edge">
<title>Node2&#45;&gt;Node5</title>
<path fill="none" stroke="midnightblue" d="M418.5,-190.48C418.5,-182.08 418.5,-168.98 418.5,-158.16"/>
<polygon fill="midnightblue" stroke="midnightblue" points="422,-158.01 418.5,-148.01 415,-158.01 422,-158.01"/>
</g>
<!-- Node7 -->
<g id="node7" class="node">
<title>Node7</title>
<g id="a_node7"><a xlink:title=" ">
<polygon fill="none" stroke="#bfbfbf" points="548.5,-0.5 548.5,-19.5 600.5,-19.5 600.5,-0.5 548.5,-0.5"/>
<text text-anchor="middle" x="574.5" y="-7.5" font-family="Helvetica,sans-Serif" font-size="10.00">cassert</text>
</a>
</g>
</g>
<!-- Node2&#45;&gt;Node7 -->
<g id="edge13" class="edge">
<title>Node2&#45;&gt;Node7</title>
<path fill="none" stroke="midnightblue" d="M359.85,-196.65C294.79,-192.67 195.89,-182.05 172.5,-154 163.68,-143.42 164.42,-134.16 172.5,-123 216.08,-62.81 447.93,-27.17 538.35,-15.38"/>
<polygon fill="midnightblue" stroke="midnightblue" points="538.93,-18.83 548.4,-14.09 538.04,-11.89 538.93,-18.83"/>
</g>
<!-- Node8 -->
<g id="node8" class="node">
<title>Node8</title>
<g id="a_node8"><a xlink:title=" ">
<polygon fill="none" stroke="#bfbfbf" points="866,-0.5 866,-19.5 919,-19.5 919,-0.5 866,-0.5"/>
<text text-anchor="middle" x="892.5" y="-7.5" font-family="Helvetica,sans-Serif" font-size="10.00">cstddef</text>
</a>
</g>
</g>
<!-- Node2&#45;&gt;Node8 -->
<g id="edge14" class="edge">
<title>Node2&#45;&gt;Node8</title>
<path fill="none" stroke="midnightblue" d="M402.72,-190.47C390.3,-182.77 373.89,-170.18 366.5,-154 347.08,-111.51 365.26,-81.34 404.5,-56 442.15,-31.68 748.49,-16.91 855.65,-12.44"/>
<polygon fill="midnightblue" stroke="midnightblue" points="855.83,-15.94 865.68,-12.03 855.54,-8.94 855.83,-15.94"/>
</g>
<!-- Node12 -->
<g id="node12" class="node">
<title>Node12</title>
<g id="a_node12"><a xlink:title=" ">
<polygon fill="none" stroke="#bfbfbf" points="545.5,-129 545.5,-148 609.5,-148 609.5,-129 545.5,-129"/>
<text text-anchor="middle" x="577.5" y="-136" font-family="Helvetica,sans-Serif" font-size="10.00">algorithm</text>
</a>
</g>
</g>
<!-- Node2&#45;&gt;Node12 -->
<g id="edge12" class="edge">
<title>Node2&#45;&gt;Node12</title>
<path fill="none" stroke="midnightblue" d="M441.28,-190.48C468.55,-180.27 514.41,-163.11 545.3,-151.55"/>
<polygon fill="midnightblue" stroke="midnightblue" points="546.62,-154.79 554.76,-148.01 544.17,-148.24 546.62,-154.79"/>
</g>
<!-- Node13 -->
<g id="node13" class="node">
<title>Node13</title>
<g id="a_node13"><a xlink:title=" ">
<polygon fill="none" stroke="#bfbfbf" points="628,-129 628,-148 693,-148 693,-129 628,-129"/>
<text text-anchor="middle" x="660.5" y="-136" font-family="Helvetica,sans-Serif" font-size="10.00">functional</text>
</a>
</g>
</g>
<!-- Node2&#45;&gt;Node13 -->
<g id="edge15" class="edge">
<title>Node2&#45;&gt;Node13</title>
<path fill="none" stroke="midnightblue" d="M462.94,-190.48C503.71,-182.31 565.61,-169.03 618.5,-154 621.45,-153.16 624.49,-152.24 627.53,-151.27"/>
<polygon fill="midnightblue" stroke="midnightblue" points="628.71,-154.56 637.1,-148.09 626.51,-147.92 628.71,-154.56"/>
</g>
<!-- Node14 -->
<g id="node14" class="node">
<title>Node14</title>
<g id="a_node14"><a xlink:title=" ">
<polygon fill="none" stroke="#bfbfbf" points="480,-129 480,-148 527,-148 527,-129 480,-129"/>
<text text-anchor="middle" x="503.5" y="-136" font-family="Helvetica,sans-Serif" font-size="10.00">vector</text>
</a>
</g>
</g>
<!-- Node2&#45;&gt;Node14 -->
<g id="edge16" class="edge">
<title>Node2&#45;&gt;Node14</title>
<path fill="none" stroke="midnightblue" d="M430.68,-190.48C444.31,-180.93 466.63,-165.31 482.97,-153.87"/>
<polygon fill="midnightblue" stroke="midnightblue" points="485.16,-156.61 491.34,-148.01 481.14,-150.88 485.16,-156.61"/>
</g>
<!-- Node6 -->
<g id="node6" class="node">
<title>Node6</title>
<g id="a_node6"><a xlink:href="device__qualifier_8hpp.html" target="_top" xlink:title=" ">
<polygon fill="none" stroke="black" points="516.5,-62 516.5,-81 632.5,-81 632.5,-62 516.5,-62"/>
<text text-anchor="middle" x="574.5" y="-69" font-family="Helvetica,sans-Serif" font-size="10.00">device_qualifier.hpp</text>
</a>
</g>
</g>
<!-- Node5&#45;&gt;Node6 -->
<g id="edge5" class="edge">
<title>Node5&#45;&gt;Node6</title>
<path fill="none" stroke="midnightblue" d="M439.22,-128.87C466.14,-117.65 513.36,-97.98 544.28,-85.09"/>
<polygon fill="midnightblue" stroke="midnightblue" points="545.81,-88.24 553.7,-81.17 543.12,-81.78 545.81,-88.24"/>
</g>
<!-- Node5&#45;&gt;Node7 -->
<g id="edge7" class="edge">
<title>Node5&#45;&gt;Node7</title>
<path fill="none" stroke="midnightblue" d="M409.88,-128.81C395.18,-112.94 368.52,-78.79 386.5,-56 404.99,-32.56 488.61,-19.96 537.88,-14.46"/>
<polygon fill="midnightblue" stroke="midnightblue" points="538.56,-17.91 548.13,-13.36 537.82,-10.95 538.56,-17.91"/>
</g>
<!-- Node5&#45;&gt;Node8 -->
<g id="edge8" class="edge">
<title>Node5&#45;&gt;Node8</title>
<path fill="none" stroke="midnightblue" d="M415.29,-128.77C409.83,-112.21 401,-76.09 419.5,-56 448.87,-24.1 749.12,-14.24 855.44,-11.74"/>
<polygon fill="midnightblue" stroke="midnightblue" points="855.77,-15.23 865.69,-11.51 855.61,-8.24 855.77,-15.23"/>
</g>
<!-- Node9 -->
<g id="node9" class="node">
<title>Node9</title>
<g id="a_node9"><a xlink:title=" ">
<polygon fill="none" stroke="#bfbfbf" points="773,-62 773,-81 826,-81 826,-62 773,-62"/>
<text text-anchor="middle" x="799.5" y="-69" font-family="Helvetica,sans-Serif" font-size="10.00">iterator</text>
</a>
</g>
</g>
<!-- Node5&#45;&gt;Node9 -->
<g id="edge9" class="edge">
<title>Node5&#45;&gt;Node9</title>
<path fill="none" stroke="midnightblue" d="M447.22,-128.93C455.05,-126.79 463.56,-124.64 471.5,-123 583.15,-99.91 613.07,-105.97 725.5,-87 737.68,-84.94 750.94,-82.43 762.82,-80.08"/>
<polygon fill="midnightblue" stroke="midnightblue" points="763.73,-83.47 772.85,-78.08 762.35,-76.61 763.73,-83.47"/>
</g>
<!-- Node10 -->
<g id="node10" class="node">
<title>Node10</title>
<g id="a_node10"><a xlink:title=" ">
<polygon fill="none" stroke="#bfbfbf" points="651,-62 651,-81 716,-81 716,-62 651,-62"/>
<text text-anchor="middle" x="683.5" y="-69" font-family="Helvetica,sans-Serif" font-size="10.00">stdexcept</text>
</a>
</g>
</g>
<!-- Node5&#45;&gt;Node10 -->
<g id="edge10" class="edge">
<title>Node5&#45;&gt;Node10</title>
<path fill="none" stroke="midnightblue" d="M448.41,-128.99C455.93,-126.94 463.99,-124.82 471.5,-123 546.56,-104.8 567.08,-107.64 641.5,-87 644.45,-86.18 647.5,-85.27 650.54,-84.31"/>
<polygon fill="midnightblue" stroke="midnightblue" points="651.72,-87.61 660.11,-81.15 649.52,-80.96 651.72,-87.61"/>
</g>
<!-- Node11 -->
<g id="node11" class="node">
<title>Node11</title>
<g id="a_node11"><a xlink:title=" ">
<polygon fill="none" stroke="#bfbfbf" points="429,-62 429,-81 498,-81 498,-62 429,-62"/>
<text text-anchor="middle" x="463.5" y="-69" font-family="Helvetica,sans-Serif" font-size="10.00">type_traits</text>
</a>
</g>
</g>
<!-- Node5&#45;&gt;Node11 -->
<g id="edge11" class="edge">
<title>Node5&#45;&gt;Node11</title>
<path fill="none" stroke="midnightblue" d="M424.57,-128.73C431.52,-118.7 443.07,-102.01 451.79,-89.42"/>
<polygon fill="midnightblue" stroke="midnightblue" points="454.71,-91.34 457.53,-81.13 448.96,-87.36 454.71,-91.34"/>
</g>
<!-- Node6&#45;&gt;Node7 -->
<g id="edge6" class="edge">
<title>Node6&#45;&gt;Node7</title>
<path fill="none" stroke="midnightblue" d="M574.5,-61.98C574.5,-53.58 574.5,-40.48 574.5,-29.66"/>
<polygon fill="midnightblue" stroke="midnightblue" points="578,-29.51 574.5,-19.51 571,-29.51 578,-29.51"/>
</g>
<!-- Node15&#45;&gt;Node7 -->
<g id="edge32" class="edge">
<title>Node15&#45;&gt;Node7</title>
<path fill="none" stroke="midnightblue" d="M844.43,-190.37C824.3,-183.22 797.92,-171.39 779.5,-154 743.35,-119.85 764.22,-87.21 725.5,-56 692.45,-29.36 643.97,-18.48 610.92,-14.04"/>
<polygon fill="midnightblue" stroke="midnightblue" points="611.12,-10.54 600.77,-12.82 610.28,-17.49 611.12,-10.54"/>
</g>
<!-- Node15&#45;&gt;Node8 -->
<g id="edge34" class="edge">
<title>Node15&#45;&gt;Node8</title>
<path fill="none" stroke="midnightblue" d="M920.16,-190.9C983.65,-179.69 1090.14,-160.14 1096.5,-154 1118.53,-132.74 1108.92,-117.41 1112.5,-87 1114.11,-73.32 1121.21,-66.67 1112.5,-56 1089.81,-28.19 985.94,-17.11 929.41,-13.07"/>
<polygon fill="midnightblue" stroke="midnightblue" points="929.32,-9.56 919.11,-12.38 928.85,-16.54 929.32,-9.56"/>
</g>
<!-- Node15&#45;&gt;Node9 -->
<g id="edge37" class="edge">
<title>Node15&#45;&gt;Node9</title>
<path fill="none" stroke="midnightblue" d="M904.52,-190.44C922.53,-183.69 943.73,-172.3 954.5,-154 961.49,-142.13 962.64,-134.11 954.5,-123 923.09,-80.14 890.89,-103.86 840.5,-87 838.06,-86.18 835.54,-85.33 833,-84.45"/>
<polygon fill="midnightblue" stroke="midnightblue" points="833.9,-81.06 823.3,-81.07 831.59,-87.67 833.9,-81.06"/>
</g>
<!-- Node15&#45;&gt;Node11 -->
<g id="edge39" class="edge">
<title>Node15&#45;&gt;Node11</title>
<path fill="none" stroke="midnightblue" d="M841.15,-190.43C814.61,-182.74 776.51,-170.19 745.5,-154 724.62,-143.09 724.17,-132.25 702.5,-123 621.45,-88.39 592.88,-108.84 507.5,-87 504.13,-86.14 500.63,-85.15 497.16,-84.11"/>
<polygon fill="midnightblue" stroke="midnightblue" points="498.12,-80.74 487.53,-81.07 496.02,-87.42 498.12,-80.74"/>
</g>
<!-- Node15&#45;&gt;Node12 -->
<g id="edge31" class="edge">
<title>Node15&#45;&gt;Node12</title>
<path fill="none" stroke="midnightblue" d="M826.68,-192.95C775.35,-185.81 690.81,-172.5 619.5,-154 616.46,-153.21 613.33,-152.31 610.21,-151.34"/>
<polygon fill="midnightblue" stroke="midnightblue" points="611,-147.92 600.41,-148.14 608.82,-154.57 611,-147.92"/>
</g>
<!-- Node15&#45;&gt;Node13 -->
<g id="edge35" class="edge">
<title>Node15&#45;&gt;Node13</title>
<path fill="none" stroke="midnightblue" d="M840.65,-190.45C807.09,-181.64 753.53,-167.34 707.5,-154 704.3,-153.07 700.99,-152.09 697.66,-151.1"/>
<polygon fill="midnightblue" stroke="midnightblue" points="698.38,-147.65 687.79,-148.09 696.34,-154.35 698.38,-147.65"/>
</g>
<!-- Node15&#45;&gt;Node14 -->
<g id="edge40" class="edge">
<title>Node15&#45;&gt;Node14</title>
<path fill="none" stroke="midnightblue" d="M826.88,-196.91C761.07,-193.04 637.67,-182.37 536.5,-154 534.35,-153.4 532.15,-152.68 529.97,-151.89"/>
<polygon fill="midnightblue" stroke="midnightblue" points="531.21,-148.62 520.63,-148.12 528.59,-155.11 531.21,-148.62"/>
</g>
<!-- Node16 -->
<g id="node16" class="node">
<title>Node16</title>
<g id="a_node16"><a xlink:title=" ">
<polygon fill="none" stroke="#bfbfbf" points="1151.5,-129 1151.5,-148 1301.5,-148 1301.5,-129 1151.5,-129"/>
<text text-anchor="middle" x="1226.5" y="-136" font-family="Helvetica,sans-Serif" font-size="10.00">boost/qvm/deduce_vec.hpp</text>
</a>
</g>
</g>
<!-- Node15&#45;&gt;Node16 -->
<g id="edge18" class="edge">
<title>Node15&#45;&gt;Node16</title>
<path fill="none" stroke="midnightblue" d="M920.01,-191.16C983.18,-180.51 1096.19,-161.46 1165.92,-149.71"/>
<polygon fill="midnightblue" stroke="midnightblue" points="1166.61,-153.14 1175.89,-148.03 1165.44,-146.24 1166.61,-153.14"/>
</g>
<!-- Node17 -->
<g id="node17" class="node">
<title>Node17</title>
<g id="a_node17"><a xlink:title=" ">
<polygon fill="none" stroke="#bfbfbf" points="1319.5,-129 1319.5,-148 1459.5,-148 1459.5,-129 1319.5,-129"/>
<text text-anchor="middle" x="1389.5" y="-136" font-family="Helvetica,sans-Serif" font-size="10.00">boost/qvm/vec_traits.hpp</text>
</a>
</g>
</g>
<!-- Node15&#45;&gt;Node17 -->
<g id="edge19" class="edge">
<title>Node15&#45;&gt;Node17</title>
<path fill="none" stroke="midnightblue" d="M920.22,-191.26C923.36,-190.81 926.47,-190.39 929.5,-190 1098.22,-168.49 1142.03,-177.38 1310.5,-154 1319.13,-152.8 1328.25,-151.33 1337.12,-149.78"/>
<polygon fill="midnightblue" stroke="midnightblue" points="1337.75,-153.22 1346.97,-148.01 1336.51,-146.33 1337.75,-153.22"/>
</g>
<!-- Node18 -->
<g id="node18" class="node">
<title>Node18</title>
<g id="a_node18"><a xlink:href="Array_8hpp.html" target="_top" xlink:title=" ">
<polygon fill="none" stroke="black" points="1001.5,-129 1001.5,-148 1087.5,-148 1087.5,-129 1001.5,-129"/>
<text text-anchor="middle" x="1044.5" y="-136" font-family="Helvetica,sans-Serif" font-size="10.00">utils/Array.hpp</text>
</a>
</g>
</g>
<!-- Node15&#45;&gt;Node18 -->
<g id="edge20" class="edge">
<title>Node15&#45;&gt;Node18</title>
<path fill="none" stroke="midnightblue" d="M898,-190.48C927.46,-180.22 977.08,-162.96 1010.3,-151.4"/>
<polygon fill="midnightblue" stroke="midnightblue" points="1011.75,-154.6 1020.05,-148.01 1009.45,-147.99 1011.75,-154.6"/>
</g>
<!-- Node23 -->
<g id="node23" class="node">
<title>Node23</title>
<g id="a_node23"><a xlink:title=" ">
<polygon fill="none" stroke="#bfbfbf" points="1478,-129 1478,-148 1525,-148 1525,-129 1478,-129"/>
<text text-anchor="middle" x="1501.5" y="-136" font-family="Helvetica,sans-Serif" font-size="10.00">cmath</text>
</a>
</g>
</g>
<!-- Node15&#45;&gt;Node23 -->
<g id="edge33" class="edge">
<title>Node15&#45;&gt;Node23</title>
<path fill="none" stroke="midnightblue" d="M920.21,-191.16C923.35,-190.74 926.47,-190.34 929.5,-190 1168.06,-162.92 1235.31,-211.15 1468.5,-154 1470.86,-153.42 1473.26,-152.69 1475.64,-151.85"/>
<polygon fill="midnightblue" stroke="midnightblue" points="1477.14,-155.02 1485.11,-148.04 1474.52,-148.53 1477.14,-155.02"/>
</g>
<!-- Node24 -->
<g id="node24" class="node">
<title>Node24</title>
<g id="a_node24"><a xlink:title=" ">
<polygon fill="none" stroke="#bfbfbf" points="788,-129 788,-148 871,-148 871,-129 788,-129"/>
<text text-anchor="middle" x="829.5" y="-136" font-family="Helvetica,sans-Serif" font-size="10.00">initializer_list</text>
</a>
</g>
</g>
<!-- Node15&#45;&gt;Node24 -->
<g id="edge36" class="edge">
<title>Node15&#45;&gt;Node24</title>
<path fill="none" stroke="midnightblue" d="M867.2,-190.48C860.6,-181.55 850.06,-167.31 841.81,-156.14"/>
<polygon fill="midnightblue" stroke="midnightblue" points="844.55,-153.97 835.79,-148.01 838.92,-158.13 844.55,-153.97"/>
</g>
<!-- Node25 -->
<g id="node25" class="node">
<title>Node25</title>
<g id="a_node25"><a xlink:title=" ">
<polygon fill="none" stroke="#bfbfbf" points="889.5,-129 889.5,-148 945.5,-148 945.5,-129 889.5,-129"/>
<text text-anchor="middle" x="917.5" y="-136" font-family="Helvetica,sans-Serif" font-size="10.00">numeric</text>
</a>
</g>
</g>
<!-- Node15&#45;&gt;Node25 -->
<g id="edge38" class="edge">
<title>Node15&#45;&gt;Node25</title>
<path fill="none" stroke="midnightblue" d="M879.8,-190.48C886.4,-181.55 896.94,-167.31 905.19,-156.14"/>
<polygon fill="midnightblue" stroke="midnightblue" points="908.08,-158.13 911.21,-148.01 902.45,-153.97 908.08,-158.13"/>
</g>
<!-- Node18&#45;&gt;Node6 -->
<g id="edge21" class="edge">
<title>Node18&#45;&gt;Node6</title>
<path fill="none" stroke="midnightblue" d="M1001.07,-130.1C986.31,-127.69 969.71,-125.1 954.5,-123 816.23,-103.89 780.25,-109.58 642.5,-87 635.7,-85.88 628.55,-84.55 621.54,-83.14"/>
<polygon fill="midnightblue" stroke="midnightblue" points="621.94,-79.65 611.44,-81.04 620.52,-86.5 621.94,-79.65"/>
</g>
<!-- Node18&#45;&gt;Node7 -->
<g id="edge26" class="edge">
<title>Node18&#45;&gt;Node7</title>
<path fill="none" stroke="midnightblue" d="M1013.62,-128.99C982.49,-120.01 933.31,-104.71 892.5,-87 866.05,-75.52 862.74,-65.47 835.5,-56 758.25,-29.16 662.37,-17.89 611.02,-13.52"/>
<polygon fill="midnightblue" stroke="midnightblue" points="611.02,-10 600.77,-12.68 610.45,-16.98 611.02,-10"/>
</g>
<!-- Node18&#45;&gt;Node8 -->
<g id="edge27" class="edge">
<title>Node18&#45;&gt;Node8</title>
<path fill="none" stroke="midnightblue" d="M1001.26,-131.4C972.24,-125.09 935.28,-112.38 912.5,-87 898.43,-71.32 894.06,-46.92 892.8,-30.01"/>
<polygon fill="midnightblue" stroke="midnightblue" points="896.29,-29.54 892.35,-19.7 889.29,-29.85 896.29,-29.54"/>
</g>
<!-- Node18&#45;&gt;Node9 -->
<g id="edge28" class="edge">
<title>Node18&#45;&gt;Node9</title>
<path fill="none" stroke="midnightblue" d="M1011.06,-128.94C1003.32,-126.97 995.13,-124.9 987.5,-123 922.24,-106.71 904.95,-106.24 840.5,-87 837.72,-86.17 834.85,-85.26 831.98,-84.32"/>
<polygon fill="midnightblue" stroke="midnightblue" points="832.95,-80.95 822.35,-81.04 830.69,-87.58 832.95,-80.95"/>
</g>
<!-- Node18&#45;&gt;Node10 -->
<g id="edge30" class="edge">
<title>Node18&#45;&gt;Node10</title>
<path fill="none" stroke="midnightblue" d="M1001.31,-129.72C931.71,-117.19 795.54,-92.67 726.23,-80.19"/>
<polygon fill="midnightblue" stroke="midnightblue" points="726.56,-76.7 716.1,-78.37 725.32,-83.59 726.56,-76.7"/>
</g>
<!-- Node19 -->
<g id="node19" class="node">
<title>Node19</title>
<g id="a_node19"><a xlink:href="get_8hpp.html" target="_top" xlink:title=" ">
<polygon fill="none" stroke="black" points="1160,-62 1160,-81 1213,-81 1213,-62 1160,-62"/>
<text text-anchor="middle" x="1186.5" y="-69" font-family="Helvetica,sans-Serif" font-size="10.00">get.hpp</text>
</a>
</g>
</g>
<!-- Node18&#45;&gt;Node19 -->
<g id="edge22" class="edge">
<title>Node18&#45;&gt;Node19</title>
<path fill="none" stroke="midnightblue" d="M1063.36,-128.87C1087.65,-117.75 1130.1,-98.32 1158.26,-85.43"/>
<polygon fill="midnightblue" stroke="midnightblue" points="1159.93,-88.51 1167.57,-81.17 1157.02,-82.15 1159.93,-88.51"/>
</g>
<!-- Node21 -->
<g id="node21" class="node">
<title>Node21</title>
<g id="a_node21"><a xlink:title=" ">
<polygon fill="none" stroke="#bfbfbf" points="921,-56.5 921,-86.5 1028,-86.5 1028,-56.5 921,-56.5"/>
<text text-anchor="start" x="929" y="-74.5" font-family="Helvetica,sans-Serif" font-size="10.00">boost/serialization</text>
<text text-anchor="middle" x="974.5" y="-63.5" font-family="Helvetica,sans-Serif" font-size="10.00">/access.hpp</text>
</a>
</g>
</g>
<!-- Node18&#45;&gt;Node21 -->
<g id="edge25" class="edge">
<title>Node18&#45;&gt;Node21</title>
<path fill="none" stroke="midnightblue" d="M1035.06,-128.73C1025.42,-119.78 1010.08,-105.54 997.26,-93.63"/>
<polygon fill="midnightblue" stroke="midnightblue" points="999.38,-90.83 989.67,-86.59 994.62,-95.96 999.38,-90.83"/>
</g>
<!-- Node22 -->
<g id="node22" class="node">
<title>Node22</title>
<g id="a_node22"><a xlink:title=" ">
<polygon fill="none" stroke="#bfbfbf" points="1046,-62 1046,-81 1103,-81 1103,-62 1046,-62"/>
<text text-anchor="middle" x="1074.5" y="-69" font-family="Helvetica,sans-Serif" font-size="10.00">ostream</text>
</a>
</g>
</g>
<!-- Node18&#45;&gt;Node22 -->
<g id="edge29" class="edge">
<title>Node18&#45;&gt;Node22</title>
<path fill="none" stroke="midnightblue" d="M1048.55,-128.73C1053.04,-118.99 1060.43,-102.98 1066.18,-90.53"/>
<polygon fill="midnightblue" stroke="midnightblue" points="1069.51,-91.67 1070.52,-81.13 1063.15,-88.74 1069.51,-91.67"/>
</g>
<!-- Node19&#45;&gt;Node8 -->
<g id="edge23" class="edge">
<title>Node19&#45;&gt;Node8</title>
<path fill="none" stroke="midnightblue" d="M1164.15,-61.85C1158.15,-59.74 1151.63,-57.62 1145.5,-56 1069.59,-35.97 978.49,-22.21 928.95,-15.57"/>
<polygon fill="midnightblue" stroke="midnightblue" points="929.41,-12.1 919.03,-14.26 928.49,-19.04 929.41,-12.1"/>
</g>
<!-- Node20 -->
<g id="node20" class="node">
<title>Node20</title>
<g id="a_node20"><a xlink:title=" ">
<polygon fill="none" stroke="#bfbfbf" points="1166,-0.5 1166,-19.5 1207,-19.5 1207,-0.5 1166,-0.5"/>
<text text-anchor="middle" x="1186.5" y="-7.5" font-family="Helvetica,sans-Serif" font-size="10.00">tuple</text>
</a>
</g>
</g>
<!-- Node19&#45;&gt;Node20 -->
<g id="edge24" class="edge">
<title>Node19&#45;&gt;Node20</title>
<path fill="none" stroke="midnightblue" d="M1186.5,-61.98C1186.5,-53.58 1186.5,-40.48 1186.5,-29.66"/>
<polygon fill="midnightblue" stroke="midnightblue" points="1190,-29.51 1186.5,-19.51 1183,-29.51 1190,-29.51"/>
</g>
</g>
</svg>
        <g id="navigator" transform="translate(0 0)" fill="#404254">
                <rect fill="#f2f5e9" fill-opacity="0.5" stroke="#606060" stroke-width=".5" x="0" y="0" width="60" height="60"/>
                <use id="zoomplus" xlink:href="#zoomPlus" x="17" y="9" onmousedown="handleZoom(evt,'in')"/>
                <use id="zoomminus" xlink:href="#zoomMin" x="42" y="9" onmousedown="handleZoom(evt,'out')"/>
                <use id="reset" xlink:href="#resetDef" x="30" y="36" onmousedown="handleReset()"/>
                <g id="arrowUp" xlink:href="#dirArrow" transform="translate(30 24)" onmousedown="handlePan(0,-1)">
                  <use xlink:href="#rim" fill="#404040">
                        <set attributeName="fill" to="#808080" begin="arrowUp.mouseover" end="arrowUp.mouseout"/>
                  </use>
                  <path fill="none" stroke="white" stroke-width="1.5" d="M0,-3.0v7 M-2.5,-0.5L0,-3.0L2.5,-0.5"/>
                </g>
                <g id="arrowRight" xlink:href="#dirArrow" transform="rotate(90) translate(36 -43)" onmousedown="handlePan(1,0)">
                  <use xlink:href="#rim" fill="#404040">
                        <set attributeName="fill" to="#808080" begin="arrowRight.mouseover" end="arrowRight.mouseout"/>
                  </use>
                  <path fill="none" stroke="white" stroke-width="1.5" d="M0,-3.0v7 M-2.5,-0.5L0,-3.0L2.5,-0.5"/>
                </g>
                <g id="arrowDown" xlink:href="#dirArrow" transform="rotate(180) translate(-30 -48)" onmousedown="handlePan(0,1)">
                  <use xlink:href="#rim" fill="#404040">
                        <set attributeName="fill" to="#808080" begin="arrowDown.mouseover" end="arrowDown.mouseout"/>
                  </use>
                  <path fill="none" stroke="white" stroke-width="1.5" d="M0,-3.0v7 M-2.5,-0.5L0,-3.0L2.5,-0.5"/>
                </g>
                <g id="arrowLeft" xlink:href="#dirArrow" transform="rotate(270) translate(-36 17)" onmousedown="handlePan(-1,0)">
                  <use xlink:href="#rim" fill="#404040">
                        <set attributeName="fill" to="#808080" begin="arrowLeft.mouseover" end="arrowLeft.mouseout"/>
                  </use>
                  <path fill="none" stroke="white" stroke-width="1.5" d="M0,-3.0v7 M-2.5,-0.5L0,-3.0L2.5,-0.5"/>
                </g>
        </g>
        <svg viewBox="0 0 15 15" width="100%" height="30px" preserveAspectRatio="xMaxYMin meet">
         <g id="arrow_out" transform="scale(0.3 0.3)">
          <a xlink:href="pressure_8hpp__incl_org.svg" target="_base">
           <rect id="button" ry="5" rx="5" y="6" x="6" height="38" width="38"
                fill="#f2f5e9" fill-opacity="0.5" stroke="#606060" stroke-width="1.0"/>
           <path id="arrow"
             d="M 11.500037,31.436501 C 11.940474,20.09759 22.043105,11.32322 32.158766,21.979434 L 37.068811,17.246167 C 37.068811,17.246167 37.088388,32 37.088388,32 L 22.160133,31.978069 C 22.160133,31.978069 26.997745,27.140456 26.997745,27.140456 C 18.528582,18.264221 13.291696,25.230495 11.500037,31.436501 z"
             style="fill:#404040;"/>
          </a>
         </g>
        </svg>
</svg>
