<?xml version="1.0" encoding="UTF-8" standalone="no"?>
<!DOCTYPE svg PUBLIC "-//W3C//DTD SVG 1.1//EN"
 "http://www.w3.org/Graphics/SVG/1.1/DTD/svg11.dtd">
<!-- Generated by graphviz version 2.43.0 (0)
 -->
<!-- Title: PressureObservable.hpp Pages: 1 -->
<!--zoomable 330 -->
<svg id="main" version="1.1" xmlns="http://www.w3.org/2000/svg" xmlns:xlink="http://www.w3.org/1999/xlink" xml:space="preserve" onload="init(evt)">
<style type="text/css"><![CDATA[
.edge:hover path { stroke: red; }
.edge:hover polygon { stroke: red; fill: red; }
]]></style>
<script type="text/javascript"><![CDATA[
var edges = document.getElementsByTagName('g');
if (edges && edges.length) {
  for (var i=0;i<edges.length;i++) {
    if (edges[i].id.substr(0,4)=='edge') {
      edges[i].setAttribute('class','edge');
    }
  }
}
]]></script>
        <defs>
                <circle id="rim" cx="0" cy="0" r="7"/>
                <circle id="rim2" cx="0" cy="0" r="3.5"/>
                <g id="zoomPlus">
                        <use xlink:href="#rim" fill="#404040">
                                <set attributeName="fill" to="#808080" begin="zoomplus.mouseover" end="zoomplus.mouseout"/>
                        </use>
                        <path d="M-4,0h8M0,-4v8" fill="none" stroke="white" stroke-width="1.5" pointer-events="none"/>
                </g>
                <g id="zoomMin">
                        <use xlink:href="#rim" fill="#404040">
                                <set attributeName="fill" to="#808080" begin="zoomminus.mouseover" end="zoomminus.mouseout"/>
                        </use>
                        <path d="M-4,0h8" fill="none" stroke="white" stroke-width="1.5" pointer-events="none"/>
                </g>
                <g id="dirArrow">
                        <path fill="none" stroke="white" stroke-width="1.5" d="M0,-3.0v7 M-2.5,-0.5L0,-3.0L2.5,-0.5"/>
                </g>
               <g id="resetDef">
                       <use xlink:href="#rim2" fill="#404040">
                               <set attributeName="fill" to="#808080" begin="reset.mouseover" end="reset.mouseout"/>
                       </use>
               </g>
        </defs>

<script type="text/javascript">
var viewWidth = 1591;
var viewHeight = 330;
var sectionId = 'dynsection-0';
</script>
<script xlink:href="svgpan.js"/>
<svg id="graph" class="graph">
<g id="viewport">
<title>PressureObservable.hpp</title>
<!-- Node1 -->
<g id="node1" class="node">
<title>Node1</title>
<g id="a_node1"><a xlink:title=" ">
<polygon fill="#bfbfbf" stroke="black" points="58.5,-302.5 58.5,-321.5 193.5,-321.5 193.5,-302.5 58.5,-302.5"/>
<text text-anchor="middle" x="126" y="-309.5" font-family="Helvetica,sans-Serif" font-size="10.00">PressureObservable.hpp</text>
</a>
</g>
</g>
<!-- Node2 -->
<g id="node2" class="node">
<title>Node2</title>
<g id="a_node2"><a xlink:href="core_2observables_2Observable_8hpp.html" target="_top" xlink:title=" ">
<polygon fill="none" stroke="black" points="117.5,-190.5 117.5,-209.5 210.5,-209.5 210.5,-190.5 117.5,-190.5"/>
<text text-anchor="middle" x="164" y="-197.5" font-family="Helvetica,sans-Serif" font-size="10.00">Observable.hpp</text>
</a>
</g>
</g>
<!-- Node1&#45;&gt;Node2 -->
<g id="edge1" class="edge">
<title>Node1&#45;&gt;Node2</title>
<path fill="none" stroke="midnightblue" d="M128.98,-302.37C135.14,-284.54 149.39,-243.3 157.69,-219.27"/>
<polygon fill="midnightblue" stroke="midnightblue" points="161.07,-220.19 161.03,-209.59 154.46,-217.9 161.07,-220.19"/>
</g>
<!-- Node3 -->
<g id="node3" class="node">
<title>Node3</title>
<g id="a_node3"><a xlink:title=" ">
<polygon fill="none" stroke="#bfbfbf" points="730.5,-0.5 730.5,-19.5 783.5,-19.5 783.5,-0.5 730.5,-0.5"/>
<text text-anchor="middle" x="757" y="-7.5" font-family="Helvetica,sans-Serif" font-size="10.00">cstddef</text>
</a>
</g>
</g>
<!-- Node1&#45;&gt;Node3 -->
<g id="edge48" class="edge">
<title>Node1&#45;&gt;Node3</title>
<path fill="none" stroke="midnightblue" d="M101.71,-302.47C65.09,-287.88 0,-254.43 0,-201 0,-201 0,-201 0,-137.5 0,-78.43 49.81,-77.06 105,-56 218.71,-12.62 599.7,-10.34 720.16,-10.74"/>
<polygon fill="midnightblue" stroke="midnightblue" points="720.33,-14.25 730.34,-10.79 720.35,-7.25 720.33,-14.25"/>
</g>
<!-- Node6 -->
<g id="node6" class="node">
<title>Node6</title>
<g id="a_node6"><a xlink:title=" ">
<polygon fill="none" stroke="#bfbfbf" points="66.5,-129 66.5,-148 113.5,-148 113.5,-129 66.5,-129"/>
<text text-anchor="middle" x="90" y="-136" font-family="Helvetica,sans-Serif" font-size="10.00">vector</text>
</a>
</g>
</g>
<!-- Node1&#45;&gt;Node6 -->
<g id="edge49" class="edge">
<title>Node1&#45;&gt;Node6</title>
<path fill="none" stroke="midnightblue" d="M124.17,-302.26C118.56,-275.54 101.55,-194.52 93.85,-157.86"/>
<polygon fill="midnightblue" stroke="midnightblue" points="97.27,-157.09 91.79,-148.02 90.42,-158.53 97.27,-157.09"/>
</g>
<!-- Node7 -->
<g id="node7" class="node">
<title>Node7</title>
<g id="a_node7"><a xlink:href="pressure_8hpp.html" target="_top" xlink:title=" ">
<polygon fill="none" stroke="black" points="627,-246.5 627,-265.5 707,-265.5 707,-246.5 627,-246.5"/>
<text text-anchor="middle" x="667" y="-253.5" font-family="Helvetica,sans-Serif" font-size="10.00">pressure.hpp</text>
</a>
</g>
</g>
<!-- Node1&#45;&gt;Node7 -->
<g id="edge6" class="edge">
<title>Node1&#45;&gt;Node7</title>
<path fill="none" stroke="midnightblue" d="M193.7,-304.24C303.8,-293.25 519.18,-271.75 616.78,-262.01"/>
<polygon fill="midnightblue" stroke="midnightblue" points="617.37,-265.47 626.97,-261 616.68,-258.51 617.37,-265.47"/>
</g>
<!-- Node2&#45;&gt;Node3 -->
<g id="edge2" class="edge">
<title>Node2&#45;&gt;Node3</title>
<path fill="none" stroke="midnightblue" d="M117.37,-191.6C95.13,-185.48 70.49,-174.31 57,-154 49.38,-142.52 48.33,-133.71 57,-123 141.23,-18.9 588.05,-10.85 720.17,-10.78"/>
<polygon fill="midnightblue" stroke="midnightblue" points="720.2,-14.28 730.2,-10.79 720.21,-7.28 720.2,-14.28"/>
</g>
<!-- Node4 -->
<g id="node4" class="node">
<title>Node4</title>
<g id="a_node4"><a xlink:title=" ">
<polygon fill="none" stroke="#bfbfbf" points="131.5,-129 131.5,-148 196.5,-148 196.5,-129 131.5,-129"/>
<text text-anchor="middle" x="164" y="-136" font-family="Helvetica,sans-Serif" font-size="10.00">functional</text>
</a>
</g>
</g>
<!-- Node2&#45;&gt;Node4 -->
<g id="edge3" class="edge">
<title>Node2&#45;&gt;Node4</title>
<path fill="none" stroke="midnightblue" d="M164,-190.48C164,-182.08 164,-168.98 164,-158.16"/>
<polygon fill="midnightblue" stroke="midnightblue" points="167.5,-158.01 164,-148.01 160.5,-158.01 167.5,-158.01"/>
</g>
<!-- Node5 -->
<g id="node5" class="node">
<title>Node5</title>
<g id="a_node5"><a xlink:title=" ">
<polygon fill="none" stroke="#bfbfbf" points="215,-129 215,-148 271,-148 271,-129 215,-129"/>
<text text-anchor="middle" x="243" y="-136" font-family="Helvetica,sans-Serif" font-size="10.00">numeric</text>
</a>
</g>
</g>
<!-- Node2&#45;&gt;Node5 -->
<g id="edge4" class="edge">
<title>Node2&#45;&gt;Node5</title>
<path fill="none" stroke="midnightblue" d="M175.32,-190.48C187.87,-181.02 208.35,-165.6 223.5,-154.19"/>
<polygon fill="midnightblue" stroke="midnightblue" points="225.82,-156.82 231.7,-148.01 221.61,-151.23 225.82,-156.82"/>
</g>
<!-- Node2&#45;&gt;Node6 -->
<g id="edge5" class="edge">
<title>Node2&#45;&gt;Node6</title>
<path fill="none" stroke="midnightblue" d="M153.4,-190.48C141.75,-181.11 122.81,-165.88 108.67,-154.51"/>
<polygon fill="midnightblue" stroke="midnightblue" points="110.57,-151.55 100.58,-148.01 106.18,-157 110.57,-151.55"/>
</g>
<!-- Node8 -->
<g id="node8" class="node">
<title>Node8</title>
<g id="a_node8"><a xlink:href="Observable__stat_8hpp.html" target="_top" xlink:title=" ">
<polygon fill="none" stroke="black" points="481.5,-190.5 481.5,-209.5 598.5,-209.5 598.5,-190.5 481.5,-190.5"/>
<text text-anchor="middle" x="540" y="-197.5" font-family="Helvetica,sans-Serif" font-size="10.00">Observable_stat.hpp</text>
</a>
</g>
</g>
<!-- Node7&#45;&gt;Node8 -->
<g id="edge7" class="edge">
<title>Node7&#45;&gt;Node8</title>
<path fill="none" stroke="midnightblue" d="M646.88,-246.44C625.98,-237.56 593.07,-223.56 569.28,-213.45"/>
<polygon fill="midnightblue" stroke="midnightblue" points="570.6,-210.21 560.03,-209.52 567.86,-216.65 570.6,-210.21"/>
</g>
<!-- Node18 -->
<g id="node18" class="node">
<title>Node18</title>
<g id="a_node18"><a xlink:href="Vector_8hpp.html" target="_top" xlink:title=" ">
<polygon fill="none" stroke="black" points="748.5,-190.5 748.5,-209.5 841.5,-209.5 841.5,-190.5 748.5,-190.5"/>
<text text-anchor="middle" x="795" y="-197.5" font-family="Helvetica,sans-Serif" font-size="10.00">utils/Vector.hpp</text>
</a>
</g>
</g>
<!-- Node7&#45;&gt;Node18 -->
<g id="edge23" class="edge">
<title>Node7&#45;&gt;Node18</title>
<path fill="none" stroke="midnightblue" d="M687.28,-246.44C708.35,-237.56 741.52,-223.56 765.49,-213.45"/>
<polygon fill="midnightblue" stroke="midnightblue" points="766.96,-216.63 774.81,-209.52 764.24,-210.18 766.96,-216.63"/>
</g>
<!-- Node28 -->
<g id="node28" class="node">
<title>Node28</title>
<g id="a_node28"><a xlink:title=" ">
<polygon fill="none" stroke="#bfbfbf" points="860,-190.5 860,-209.5 918,-209.5 918,-190.5 860,-190.5"/>
<text text-anchor="middle" x="889" y="-197.5" font-family="Helvetica,sans-Serif" font-size="10.00">memory</text>
</a>
</g>
</g>
<!-- Node7&#45;&gt;Node28 -->
<g id="edge47" class="edge">
<title>Node7&#45;&gt;Node28</title>
<path fill="none" stroke="midnightblue" d="M702.18,-246.44C742.39,-236.66 808.02,-220.7 849.83,-210.53"/>
<polygon fill="midnightblue" stroke="midnightblue" points="850.77,-213.9 859.66,-208.14 849.12,-207.1 850.77,-213.9"/>
</g>
<!-- Node8&#45;&gt;Node3 -->
<g id="edge20" class="edge">
<title>Node8&#45;&gt;Node3</title>
<path fill="none" stroke="midnightblue" d="M481.36,-198.21C401.4,-194.99 272.95,-180.99 318,-123 367.89,-58.79 623.53,-25.24 720.05,-14.71"/>
<polygon fill="midnightblue" stroke="midnightblue" points="720.64,-18.17 730.21,-13.62 719.89,-11.21 720.64,-18.17"/>
</g>
<!-- Node8&#45;&gt;Node4 -->
<g id="edge21" class="edge">
<title>Node8&#45;&gt;Node4</title>
<path fill="none" stroke="midnightblue" d="M481.43,-194.65C414.24,-188.85 301.07,-176.58 206,-154 202.59,-153.19 199.08,-152.21 195.59,-151.15"/>
<polygon fill="midnightblue" stroke="midnightblue" points="196.58,-147.79 185.99,-148.01 194.41,-154.45 196.58,-147.79"/>
</g>
<!-- Node8&#45;&gt;Node6 -->
<g id="edge22" class="edge">
<title>Node8&#45;&gt;Node6</title>
<path fill="none" stroke="midnightblue" d="M481.45,-198.52C399.6,-196.55 246.99,-188.1 122,-154 119.85,-153.41 117.66,-152.7 115.49,-151.9"/>
<polygon fill="midnightblue" stroke="midnightblue" points="116.81,-148.66 106.24,-148.06 114.13,-155.13 116.81,-148.66"/>
</g>
<!-- Node9 -->
<g id="node9" class="node">
<title>Node9</title>
<g id="a_node9"><a xlink:title=" ">
<polygon fill="none" stroke="#bfbfbf" points="327.5,-123.5 327.5,-153.5 452.5,-153.5 452.5,-123.5 327.5,-123.5"/>
<text text-anchor="start" x="335.5" y="-141.5" font-family="Helvetica,sans-Serif" font-size="10.00">boost/range/algorithm</text>
<text text-anchor="middle" x="390" y="-130.5" font-family="Helvetica,sans-Serif" font-size="10.00">/transform.hpp</text>
</a>
</g>
</g>
<!-- Node8&#45;&gt;Node9 -->
<g id="edge8" class="edge">
<title>Node8&#45;&gt;Node9</title>
<path fill="none" stroke="midnightblue" d="M518.51,-190.48C496.77,-181.85 462.51,-168.26 434.84,-157.29"/>
<polygon fill="midnightblue" stroke="midnightblue" points="435.94,-153.96 425.35,-153.52 433.36,-160.46 435.94,-153.96"/>
</g>
<!-- Node10 -->
<g id="node10" class="node">
<title>Node10</title>
<g id="a_node10"><a xlink:title=" ">
<polygon fill="none" stroke="#bfbfbf" points="471,-129 471,-148 609,-148 609,-129 471,-129"/>
<text text-anchor="middle" x="540" y="-136" font-family="Helvetica,sans-Serif" font-size="10.00">boost/range/numeric.hpp</text>
</a>
</g>
</g>
<!-- Node8&#45;&gt;Node10 -->
<g id="edge9" class="edge">
<title>Node8&#45;&gt;Node10</title>
<path fill="none" stroke="midnightblue" d="M540,-190.48C540,-182.08 540,-168.98 540,-158.16"/>
<polygon fill="midnightblue" stroke="midnightblue" points="543.5,-158.01 540,-148.01 536.5,-158.01 543.5,-158.01"/>
</g>
<!-- Node11 -->
<g id="node11" class="node">
<title>Node11</title>
<g id="a_node11"><a xlink:href="Span_8hpp.html" target="_top" xlink:title=" ">
<polygon fill="none" stroke="black" points="823,-129 823,-148 909,-148 909,-129 823,-129"/>
<text text-anchor="middle" x="866" y="-136" font-family="Helvetica,sans-Serif" font-size="10.00">utils/Span.hpp</text>
</a>
</g>
</g>
<!-- Node8&#45;&gt;Node11 -->
<g id="edge10" class="edge">
<title>Node8&#45;&gt;Node11</title>
<path fill="none" stroke="midnightblue" d="M586.71,-190.48C646.5,-179.56 749.84,-160.7 812.66,-149.24"/>
<polygon fill="midnightblue" stroke="midnightblue" points="813.55,-152.63 822.76,-147.39 812.3,-145.74 813.55,-152.63"/>
</g>
<!-- Node13 -->
<g id="node13" class="node">
<title>Node13</title>
<g id="a_node13"><a xlink:title=" ">
<polygon fill="none" stroke="#bfbfbf" points="981,-0.5 981,-19.5 1033,-19.5 1033,-0.5 981,-0.5"/>
<text text-anchor="middle" x="1007" y="-7.5" font-family="Helvetica,sans-Serif" font-size="10.00">cassert</text>
</a>
</g>
</g>
<!-- Node8&#45;&gt;Node13 -->
<g id="edge19" class="edge">
<title>Node8&#45;&gt;Node13</title>
<path fill="none" stroke="midnightblue" d="M556.6,-190.43C572.72,-181.88 597.67,-168.02 618,-154 635.94,-141.63 637.95,-135.22 656,-123 706.91,-88.54 719.24,-77.05 777,-56 842.97,-31.96 924.5,-19.88 970.65,-14.56"/>
<polygon fill="midnightblue" stroke="midnightblue" points="971.21,-18.02 980.76,-13.44 970.44,-11.07 971.21,-18.02"/>
</g>
<!-- Node17 -->
<g id="node17" class="node">
<title>Node17</title>
<g id="a_node17"><a xlink:title=" ">
<polygon fill="none" stroke="#bfbfbf" points="665,-129 665,-148 729,-148 729,-129 665,-129"/>
<text text-anchor="middle" x="697" y="-136" font-family="Helvetica,sans-Serif" font-size="10.00">algorithm</text>
</a>
</g>
</g>
<!-- Node8&#45;&gt;Node17 -->
<g id="edge18" class="edge">
<title>Node8&#45;&gt;Node17</title>
<path fill="none" stroke="midnightblue" d="M562.49,-190.48C589.31,-180.31 634.32,-163.26 664.81,-151.7"/>
<polygon fill="midnightblue" stroke="midnightblue" points="666.44,-154.83 674.55,-148.01 663.96,-148.28 666.44,-154.83"/>
</g>
<!-- Node11&#45;&gt;Node3 -->
<g id="edge14" class="edge">
<title>Node11&#45;&gt;Node3</title>
<path fill="none" stroke="midnightblue" d="M868.56,-128.97C872.78,-113.07 879.31,-78.45 864,-56 848.2,-32.84 817.97,-21.56 793.66,-16.09"/>
<polygon fill="midnightblue" stroke="midnightblue" points="794.16,-12.62 783.67,-14.08 792.78,-19.48 794.16,-12.62"/>
</g>
<!-- Node12 -->
<g id="node12" class="node">
<title>Node12</title>
<g id="a_node12"><a xlink:href="device__qualifier_8hpp.html" target="_top" xlink:title=" ">
<polygon fill="none" stroke="black" points="949,-62 949,-81 1065,-81 1065,-62 949,-62"/>
<text text-anchor="middle" x="1007" y="-69" font-family="Helvetica,sans-Serif" font-size="10.00">device_qualifier.hpp</text>
</a>
</g>
</g>
<!-- Node11&#45;&gt;Node12 -->
<g id="edge11" class="edge">
<title>Node11&#45;&gt;Node12</title>
<path fill="none" stroke="midnightblue" d="M884.72,-128.87C908.85,-117.75 951,-98.32 978.95,-85.43"/>
<polygon fill="midnightblue" stroke="midnightblue" points="980.58,-88.53 988.2,-81.17 977.65,-82.18 980.58,-88.53"/>
</g>
<!-- Node11&#45;&gt;Node13 -->
<g id="edge13" class="edge">
<title>Node11&#45;&gt;Node13</title>
<path fill="none" stroke="midnightblue" d="M872.74,-128.78C885.07,-113.13 912.52,-79.74 940,-56 953.53,-44.31 970.21,-33.1 983.54,-24.79"/>
<polygon fill="midnightblue" stroke="midnightblue" points="985.45,-27.73 992.16,-19.53 981.8,-21.75 985.45,-27.73"/>
</g>
<!-- Node14 -->
<g id="node14" class="node">
<title>Node14</title>
<g id="a_node14"><a xlink:title=" ">
<polygon fill="none" stroke="#bfbfbf" points="1166.5,-62 1166.5,-81 1219.5,-81 1219.5,-62 1166.5,-62"/>
<text text-anchor="middle" x="1193" y="-69" font-family="Helvetica,sans-Serif" font-size="10.00">iterator</text>
</a>
</g>
</g>
<!-- Node11&#45;&gt;Node14 -->
<g id="edge15" class="edge">
<title>Node11&#45;&gt;Node14</title>
<path fill="none" stroke="midnightblue" d="M894.18,-128.96C901.86,-126.82 910.21,-124.66 918,-123 1023.48,-100.47 1054.07,-115.86 1158,-87 1160.44,-86.32 1162.94,-85.52 1165.42,-84.65"/>
<polygon fill="midnightblue" stroke="midnightblue" points="1166.7,-87.9 1174.77,-81.04 1164.18,-81.37 1166.7,-87.9"/>
</g>
<!-- Node15 -->
<g id="node15" class="node">
<title>Node15</title>
<g id="a_node15"><a xlink:title=" ">
<polygon fill="none" stroke="#bfbfbf" points="1083.5,-62 1083.5,-81 1148.5,-81 1148.5,-62 1083.5,-62"/>
<text text-anchor="middle" x="1116" y="-69" font-family="Helvetica,sans-Serif" font-size="10.00">stdexcept</text>
</a>
</g>
</g>
<!-- Node11&#45;&gt;Node15 -->
<g id="edge16" class="edge">
<title>Node11&#45;&gt;Node15</title>
<path fill="none" stroke="midnightblue" d="M895.64,-128.99C902.93,-126.96 910.73,-124.85 918,-123 986.95,-105.44 1005.61,-106.64 1074,-87 1076.94,-86.15 1079.99,-85.22 1083.03,-84.25"/>
<polygon fill="midnightblue" stroke="midnightblue" points="1084.21,-87.55 1092.59,-81.07 1082,-80.9 1084.21,-87.55"/>
</g>
<!-- Node16 -->
<g id="node16" class="node">
<title>Node16</title>
<g id="a_node16"><a xlink:title=" ">
<polygon fill="none" stroke="#bfbfbf" points="785.5,-62 785.5,-81 854.5,-81 854.5,-62 785.5,-62"/>
<text text-anchor="middle" x="820" y="-69" font-family="Helvetica,sans-Serif" font-size="10.00">type_traits</text>
</a>
</g>
</g>
<!-- Node11&#45;&gt;Node16 -->
<g id="edge17" class="edge">
<title>Node11&#45;&gt;Node16</title>
<path fill="none" stroke="midnightblue" d="M859.8,-128.73C852.69,-118.7 840.89,-102.01 831.98,-89.42"/>
<polygon fill="midnightblue" stroke="midnightblue" points="834.74,-87.27 826.11,-81.13 829.03,-91.31 834.74,-87.27"/>
</g>
<!-- Node12&#45;&gt;Node13 -->
<g id="edge12" class="edge">
<title>Node12&#45;&gt;Node13</title>
<path fill="none" stroke="midnightblue" d="M1007,-61.98C1007,-53.58 1007,-40.48 1007,-29.66"/>
<polygon fill="midnightblue" stroke="midnightblue" points="1010.5,-29.51 1007,-19.51 1003.5,-29.51 1010.5,-29.51"/>
</g>
<!-- Node18&#45;&gt;Node3 -->
<g id="edge40" class="edge">
<title>Node18&#45;&gt;Node3</title>
<path fill="none" stroke="midnightblue" d="M793.27,-190.43C787.49,-161.87 768.81,-69.43 760.75,-29.57"/>
<polygon fill="midnightblue" stroke="midnightblue" points="764.15,-28.73 758.74,-19.62 757.29,-30.11 764.15,-28.73"/>
</g>
<!-- Node18&#45;&gt;Node4 -->
<g id="edge41" class="edge">
<title>Node18&#45;&gt;Node4</title>
<path fill="none" stroke="midnightblue" d="M748.21,-196.97C627.79,-191.51 309.43,-175.43 206,-154 202.49,-153.27 198.88,-152.33 195.31,-151.28"/>
<polygon fill="midnightblue" stroke="midnightblue" points="196.09,-147.86 185.5,-148.11 193.94,-154.52 196.09,-147.86"/>
</g>
<!-- Node18&#45;&gt;Node5 -->
<g id="edge44" class="edge">
<title>Node18&#45;&gt;Node5</title>
<path fill="none" stroke="midnightblue" d="M748.44,-196.11C662.89,-190.47 475.06,-176.54 318,-154 305.92,-152.27 292.83,-149.9 281.02,-147.59"/>
<polygon fill="midnightblue" stroke="midnightblue" points="281.52,-144.12 271.03,-145.59 280.14,-150.99 281.52,-144.12"/>
</g>
<!-- Node18&#45;&gt;Node6 -->
<g id="edge46" class="edge">
<title>Node18&#45;&gt;Node6</title>
<path fill="none" stroke="midnightblue" d="M748.28,-196.84C605.72,-190.13 182.3,-169.15 122,-154 119.79,-153.44 117.54,-152.74 115.32,-151.95"/>
<polygon fill="midnightblue" stroke="midnightblue" points="116.45,-148.63 105.87,-148.04 113.78,-155.1 116.45,-148.63"/>
</g>
<!-- Node18&#45;&gt;Node13 -->
<g id="edge38" class="edge">
<title>Node18&#45;&gt;Node13</title>
<path fill="none" stroke="midnightblue" d="M841.7,-191.11C844.84,-190.7 847.96,-190.32 851,-190 928.67,-181.79 1490,-200.17 1553,-154 1578.64,-135.21 1572.35,-118.28 1578,-87 1580.45,-73.44 1587.35,-66.12 1578,-56 1541.72,-16.75 1163.59,-11.69 1043.44,-11.07"/>
<polygon fill="midnightblue" stroke="midnightblue" points="1043.29,-7.57 1033.28,-11.03 1043.26,-14.57 1043.29,-7.57"/>
</g>
<!-- Node18&#45;&gt;Node14 -->
<g id="edge43" class="edge">
<title>Node18&#45;&gt;Node14</title>
<path fill="none" stroke="midnightblue" d="M841.72,-191.25C844.86,-190.8 847.97,-190.38 851,-190 894.51,-184.52 1214.44,-186.39 1244,-154 1262.97,-133.21 1234.83,-104.45 1213.4,-87.24"/>
<polygon fill="midnightblue" stroke="midnightblue" points="1215.41,-84.37 1205.35,-81.04 1211.14,-89.91 1215.41,-84.37"/>
</g>
<!-- Node18&#45;&gt;Node16 -->
<g id="edge45" class="edge">
<title>Node18&#45;&gt;Node16</title>
<path fill="none" stroke="midnightblue" d="M796.72,-190.31C800.73,-169.99 810.8,-119.05 816.29,-91.28"/>
<polygon fill="midnightblue" stroke="midnightblue" points="819.76,-91.74 818.27,-81.26 812.9,-90.39 819.76,-91.74"/>
</g>
<!-- Node18&#45;&gt;Node17 -->
<g id="edge37" class="edge">
<title>Node18&#45;&gt;Node17</title>
<path fill="none" stroke="midnightblue" d="M780.96,-190.48C764.95,-180.75 738.55,-164.73 719.63,-153.24"/>
<polygon fill="midnightblue" stroke="midnightblue" points="721.38,-150.21 711.01,-148.01 717.75,-156.19 721.38,-150.21"/>
</g>
<!-- Node19 -->
<g id="node19" class="node">
<title>Node19</title>
<g id="a_node19"><a xlink:title=" ">
<polygon fill="none" stroke="#bfbfbf" points="927,-129 927,-148 1077,-148 1077,-129 927,-129"/>
<text text-anchor="middle" x="1002" y="-136" font-family="Helvetica,sans-Serif" font-size="10.00">boost/qvm/deduce_vec.hpp</text>
</a>
</g>
</g>
<!-- Node18&#45;&gt;Node19 -->
<g id="edge24" class="edge">
<title>Node18&#45;&gt;Node19</title>
<path fill="none" stroke="midnightblue" d="M824.66,-190.48C860.93,-180.05 922.46,-162.36 962.66,-150.81"/>
<polygon fill="midnightblue" stroke="midnightblue" points="963.75,-154.14 972.4,-148.01 961.82,-147.41 963.75,-154.14"/>
</g>
<!-- Node20 -->
<g id="node20" class="node">
<title>Node20</title>
<g id="a_node20"><a xlink:title=" ">
<polygon fill="none" stroke="#bfbfbf" points="1095,-129 1095,-148 1235,-148 1235,-129 1095,-129"/>
<text text-anchor="middle" x="1165" y="-136" font-family="Helvetica,sans-Serif" font-size="10.00">boost/qvm/vec_traits.hpp</text>
</a>
</g>
</g>
<!-- Node18&#45;&gt;Node20 -->
<g id="edge25" class="edge">
<title>Node18&#45;&gt;Node20</title>
<path fill="none" stroke="midnightblue" d="M841.75,-191.46C844.88,-190.96 847.98,-190.47 851,-190 955.39,-173.62 981.8,-171.54 1086,-154 1093.73,-152.7 1101.88,-151.27 1109.89,-149.83"/>
<polygon fill="midnightblue" stroke="midnightblue" points="1110.71,-153.24 1119.92,-148.01 1109.46,-146.35 1110.71,-153.24"/>
</g>
<!-- Node21 -->
<g id="node21" class="node">
<title>Node21</title>
<g id="a_node21"><a xlink:href="Array_8hpp.html" target="_top" xlink:title=" ">
<polygon fill="none" stroke="black" points="1458,-129 1458,-148 1544,-148 1544,-129 1458,-129"/>
<text text-anchor="middle" x="1501" y="-136" font-family="Helvetica,sans-Serif" font-size="10.00">utils/Array.hpp</text>
</a>
</g>
</g>
<!-- Node18&#45;&gt;Node21 -->
<g id="edge26" class="edge">
<title>Node18&#45;&gt;Node21</title>
<path fill="none" stroke="midnightblue" d="M841.7,-191.14C844.85,-190.72 847.97,-190.33 851,-190 1115.66,-160.84 1186.4,-198.01 1449,-154 1454.13,-153.14 1459.47,-151.97 1464.7,-150.67"/>
<polygon fill="midnightblue" stroke="midnightblue" points="1465.76,-154.01 1474.52,-148.05 1463.96,-147.25 1465.76,-154.01"/>
</g>
<!-- Node26 -->
<g id="node26" class="node">
<title>Node26</title>
<g id="a_node26"><a xlink:title=" ">
<polygon fill="none" stroke="#bfbfbf" points="1291.5,-129 1291.5,-148 1338.5,-148 1338.5,-129 1291.5,-129"/>
<text text-anchor="middle" x="1315" y="-136" font-family="Helvetica,sans-Serif" font-size="10.00">cmath</text>
</a>
</g>
</g>
<!-- Node18&#45;&gt;Node26 -->
<g id="edge39" class="edge">
<title>Node18&#45;&gt;Node26</title>
<path fill="none" stroke="midnightblue" d="M841.71,-191.22C844.85,-190.78 847.97,-190.37 851,-190 1039.6,-166.91 1091.76,-196.28 1277,-154 1280,-153.31 1283.08,-152.44 1286.13,-151.47"/>
<polygon fill="midnightblue" stroke="midnightblue" points="1287.35,-154.75 1295.6,-148.1 1285.01,-148.15 1287.35,-154.75"/>
</g>
<!-- Node27 -->
<g id="node27" class="node">
<title>Node27</title>
<g id="a_node27"><a xlink:title=" ">
<polygon fill="none" stroke="#bfbfbf" points="1356.5,-129 1356.5,-148 1439.5,-148 1439.5,-129 1356.5,-129"/>
<text text-anchor="middle" x="1398" y="-136" font-family="Helvetica,sans-Serif" font-size="10.00">initializer_list</text>
</a>
</g>
</g>
<!-- Node18&#45;&gt;Node27 -->
<g id="edge42" class="edge">
<title>Node18&#45;&gt;Node27</title>
<path fill="none" stroke="midnightblue" d="M841.71,-191.18C844.85,-190.75 847.97,-190.35 851,-190 1070.98,-164.4 1130,-193.06 1348,-154 1352.75,-153.15 1357.7,-152.02 1362.56,-150.77"/>
<polygon fill="midnightblue" stroke="midnightblue" points="1363.59,-154.11 1372.29,-148.07 1361.72,-147.37 1363.59,-154.11"/>
</g>
<!-- Node21&#45;&gt;Node3 -->
<g id="edge33" class="edge">
<title>Node21&#45;&gt;Node3</title>
<path fill="none" stroke="midnightblue" d="M1471.95,-128.98C1464.5,-126.91 1456.48,-124.78 1449,-123 1369.22,-103.97 1342.42,-121.49 1268,-87 1247.91,-77.69 1249.54,-64.28 1229,-56 1188.96,-39.85 897.55,-19.95 793.66,-13.29"/>
<polygon fill="midnightblue" stroke="midnightblue" points="793.84,-9.8 783.64,-12.65 793.4,-16.78 793.84,-9.8"/>
</g>
<!-- Node21&#45;&gt;Node12 -->
<g id="edge27" class="edge">
<title>Node21&#45;&gt;Node12</title>
<path fill="none" stroke="midnightblue" d="M1473.95,-128.99C1465.98,-126.74 1457.2,-124.53 1449,-123 1284.83,-92.46 1240.04,-112.45 1075,-87 1067.86,-85.9 1060.35,-84.52 1053.03,-83.06"/>
<polygon fill="midnightblue" stroke="midnightblue" points="1053.71,-79.62 1043.21,-81.02 1052.29,-86.48 1053.71,-79.62"/>
</g>
<!-- Node21&#45;&gt;Node13 -->
<g id="edge32" class="edge">
<title>Node21&#45;&gt;Node13</title>
<path fill="none" stroke="midnightblue" d="M1500.33,-128.86C1498.51,-111.78 1491.85,-73.82 1468,-56 1434.21,-30.75 1146.12,-16.66 1043.29,-12.4"/>
<polygon fill="midnightblue" stroke="midnightblue" points="1043.22,-8.89 1033.08,-11.98 1042.93,-15.89 1043.22,-8.89"/>
</g>
<!-- Node21&#45;&gt;Node14 -->
<g id="edge34" class="edge">
<title>Node21&#45;&gt;Node14</title>
<path fill="none" stroke="midnightblue" d="M1472.53,-128.97C1464.92,-126.86 1456.68,-124.71 1449,-123 1354.43,-101.96 1327.8,-111.24 1234,-87 1230.95,-86.21 1227.82,-85.3 1224.69,-84.32"/>
<polygon fill="midnightblue" stroke="midnightblue" points="1225.5,-80.9 1214.91,-81.04 1223.28,-87.54 1225.5,-80.9"/>
</g>
<!-- Node21&#45;&gt;Node15 -->
<g id="edge36" class="edge">
<title>Node21&#45;&gt;Node15</title>
<path fill="none" stroke="midnightblue" d="M1473.39,-128.98C1465.56,-126.79 1457,-124.6 1449,-123 1321.21,-97.43 1284.95,-116.43 1158,-87 1154.59,-86.21 1151.07,-85.24 1147.58,-84.19"/>
<polygon fill="midnightblue" stroke="midnightblue" points="1148.57,-80.83 1137.98,-81.06 1146.4,-87.49 1148.57,-80.83"/>
</g>
<!-- Node22 -->
<g id="node22" class="node">
<title>Node22</title>
<g id="a_node22"><a xlink:href="get_8hpp.html" target="_top" xlink:title=" ">
<polygon fill="none" stroke="black" points="1515.5,-62 1515.5,-81 1568.5,-81 1568.5,-62 1515.5,-62"/>
<text text-anchor="middle" x="1542" y="-69" font-family="Helvetica,sans-Serif" font-size="10.00">get.hpp</text>
</a>
</g>
</g>
<!-- Node21&#45;&gt;Node22 -->
<g id="edge28" class="edge">
<title>Node21&#45;&gt;Node22</title>
<path fill="none" stroke="midnightblue" d="M1506.53,-128.73C1512.8,-118.79 1523.18,-102.34 1531.09,-89.79"/>
<polygon fill="midnightblue" stroke="midnightblue" points="1534.18,-91.45 1536.56,-81.13 1528.26,-87.72 1534.18,-91.45"/>
</g>
<!-- Node24 -->
<g id="node24" class="node">
<title>Node24</title>
<g id="a_node24"><a xlink:title=" ">
<polygon fill="none" stroke="#bfbfbf" points="1276.5,-56.5 1276.5,-86.5 1383.5,-86.5 1383.5,-56.5 1276.5,-56.5"/>
<text text-anchor="start" x="1284.5" y="-74.5" font-family="Helvetica,sans-Serif" font-size="10.00">boost/serialization</text>
<text text-anchor="middle" x="1330" y="-63.5" font-family="Helvetica,sans-Serif" font-size="10.00">/access.hpp</text>
</a>
</g>
</g>
<!-- Node21&#45;&gt;Node24 -->
<g id="edge31" class="edge">
<title>Node21&#45;&gt;Node24</title>
<path fill="none" stroke="midnightblue" d="M1478.29,-128.87C1452.41,-119.03 1409.42,-102.69 1376.37,-90.13"/>
<polygon fill="midnightblue" stroke="midnightblue" points="1377.5,-86.81 1366.9,-86.53 1375.01,-93.35 1377.5,-86.81"/>
</g>
<!-- Node25 -->
<g id="node25" class="node">
<title>Node25</title>
<g id="a_node25"><a xlink:title=" ">
<polygon fill="none" stroke="#bfbfbf" points="1401.5,-62 1401.5,-81 1458.5,-81 1458.5,-62 1401.5,-62"/>
<text text-anchor="middle" x="1430" y="-69" font-family="Helvetica,sans-Serif" font-size="10.00">ostream</text>
</a>
</g>
</g>
<!-- Node21&#45;&gt;Node25 -->
<g id="edge35" class="edge">
<title>Node21&#45;&gt;Node25</title>
<path fill="none" stroke="midnightblue" d="M1491.42,-128.73C1480.03,-118.31 1460.81,-100.71 1446.9,-87.97"/>
<polygon fill="midnightblue" stroke="midnightblue" points="1449.16,-85.3 1439.42,-81.13 1444.44,-90.46 1449.16,-85.3"/>
</g>
<!-- Node22&#45;&gt;Node3 -->
<g id="edge29" class="edge">
<title>Node22&#45;&gt;Node3</title>
<path fill="none" stroke="midnightblue" d="M1515.42,-64.42C1501.39,-61.43 1483.84,-58.04 1468,-56 1335.55,-38.91 920.6,-18.63 794.03,-12.7"/>
<polygon fill="midnightblue" stroke="midnightblue" points="793.86,-9.19 783.71,-12.22 793.53,-16.18 793.86,-9.19"/>
</g>
<!-- Node23 -->
<g id="node23" class="node">
<title>Node23</title>
<g id="a_node23"><a xlink:title=" ">
<polygon fill="none" stroke="#bfbfbf" points="1521.5,-0.5 1521.5,-19.5 1562.5,-19.5 1562.5,-0.5 1521.5,-0.5"/>
<text text-anchor="middle" x="1542" y="-7.5" font-family="Helvetica,sans-Serif" font-size="10.00">tuple</text>
</a>
</g>
</g>
<!-- Node22&#45;&gt;Node23 -->
<g id="edge30" class="edge">
<title>Node22&#45;&gt;Node23</title>
<path fill="none" stroke="midnightblue" d="M1542,-61.98C1542,-53.58 1542,-40.48 1542,-29.66"/>
<polygon fill="midnightblue" stroke="midnightblue" points="1545.5,-29.51 1542,-19.51 1538.5,-29.51 1545.5,-29.51"/>
</g>
</g>
</svg>
        <g id="navigator" transform="translate(0 0)" fill="#404254">
                <rect fill="#f2f5e9" fill-opacity="0.5" stroke="#606060" stroke-width=".5" x="0" y="0" width="60" height="60"/>
                <use id="zoomplus" xlink:href="#zoomPlus" x="17" y="9" onmousedown="handleZoom(evt,'in')"/>
                <use id="zoomminus" xlink:href="#zoomMin" x="42" y="9" onmousedown="handleZoom(evt,'out')"/>
                <use id="reset" xlink:href="#resetDef" x="30" y="36" onmousedown="handleReset()"/>
                <g id="arrowUp" xlink:href="#dirArrow" transform="translate(30 24)" onmousedown="handlePan(0,-1)">
                  <use xlink:href="#rim" fill="#404040">
                        <set attributeName="fill" to="#808080" begin="arrowUp.mouseover" end="arrowUp.mouseout"/>
                  </use>
                  <path fill="none" stroke="white" stroke-width="1.5" d="M0,-3.0v7 M-2.5,-0.5L0,-3.0L2.5,-0.5"/>
                </g>
                <g id="arrowRight" xlink:href="#dirArrow" transform="rotate(90) translate(36 -43)" onmousedown="handlePan(1,0)">
                  <use xlink:href="#rim" fill="#404040">
                        <set attributeName="fill" to="#808080" begin="arrowRight.mouseover" end="arrowRight.mouseout"/>
                  </use>
                  <path fill="none" stroke="white" stroke-width="1.5" d="M0,-3.0v7 M-2.5,-0.5L0,-3.0L2.5,-0.5"/>
                </g>
                <g id="arrowDown" xlink:href="#dirArrow" transform="rotate(180) translate(-30 -48)" onmousedown="handlePan(0,1)">
                  <use xlink:href="#rim" fill="#404040">
                        <set attributeName="fill" to="#808080" begin="arrowDown.mouseover" end="arrowDown.mouseout"/>
                  </use>
                  <path fill="none" stroke="white" stroke-width="1.5" d="M0,-3.0v7 M-2.5,-0.5L0,-3.0L2.5,-0.5"/>
                </g>
                <g id="arrowLeft" xlink:href="#dirArrow" transform="rotate(270) translate(-36 17)" onmousedown="handlePan(-1,0)">
                  <use xlink:href="#rim" fill="#404040">
                        <set attributeName="fill" to="#808080" begin="arrowLeft.mouseover" end="arrowLeft.mouseout"/>
                  </use>
                  <path fill="none" stroke="white" stroke-width="1.5" d="M0,-3.0v7 M-2.5,-0.5L0,-3.0L2.5,-0.5"/>
                </g>
        </g>
        <svg viewBox="0 0 15 15" width="100%" height="30px" preserveAspectRatio="xMaxYMin meet">
         <g id="arrow_out" transform="scale(0.3 0.3)">
          <a xlink:href="PressureObservable_8hpp__incl_org.svg" target="_base">
           <rect id="button" ry="5" rx="5" y="6" x="6" height="38" width="38"
                fill="#f2f5e9" fill-opacity="0.5" stroke="#606060" stroke-width="1.0"/>
           <path id="arrow"
             d="M 11.500037,31.436501 C 11.940474,20.09759 22.043105,11.32322 32.158766,21.979434 L 37.068811,17.246167 C 37.068811,17.246167 37.088388,32 37.088388,32 L 22.160133,31.978069 C 22.160133,31.978069 26.997745,27.140456 26.997745,27.140456 C 18.528582,18.264221 13.291696,25.230495 11.500037,31.436501 z"
             style="fill:#404040;"/>
          </a>
         </g>
        </svg>
</svg>
