<?xml version="1.0" encoding="UTF-8" standalone="no"?>
<!DOCTYPE svg PUBLIC "-//W3C//DTD SVG 1.1//EN"
 "http://www.w3.org/Graphics/SVG/1.1/DTD/svg11.dtd">
<!-- Generated by graphviz version 2.43.0 (0)
 -->
<!-- Title: quartic.cpp Pages: 1 -->
<svg width="1361pt" height="319pt"
 viewBox="0.00 0.00 1361.00 319.00" xmlns="http://www.w3.org/2000/svg" xmlns:xlink="http://www.w3.org/1999/xlink">
<g id="graph0" class="graph" transform="scale(1 1) rotate(0) translate(4 315)">
<title>quartic.cpp</title>
<!-- Node1 -->
<g id="node1" class="node">
<title>Node1</title>
<g id="a_node1"><a xlink:title=" ">
<polygon fill="#bfbfbf" stroke="black" points="1072,-291.5 1072,-310.5 1143,-310.5 1143,-291.5 1072,-291.5"/>
<text text-anchor="middle" x="1107.5" y="-298.5" font-family="Helvetica,sans-Serif" font-size="10.00">quartic.cpp</text>
</a>
</g>
</g>
<!-- Node2 -->
<g id="node2" class="node">
<title>Node2</title>
<g id="a_node2"><a xlink:href="quartic_8hpp.html" target="_top" xlink:title=" ">
<polygon fill="none" stroke="black" points="1072,-235.5 1072,-254.5 1143,-254.5 1143,-235.5 1072,-235.5"/>
<text text-anchor="middle" x="1107.5" y="-242.5" font-family="Helvetica,sans-Serif" font-size="10.00">quartic.hpp</text>
</a>
</g>
</g>
<!-- Node1&#45;&gt;Node2 -->
<g id="edge1" class="edge">
<title>Node1&#45;&gt;Node2</title>
<path fill="none" stroke="midnightblue" d="M1107.5,-291.08C1107.5,-284.01 1107.5,-273.86 1107.5,-264.99"/>
<polygon fill="midnightblue" stroke="midnightblue" points="1111,-264.75 1107.5,-254.75 1104,-264.75 1111,-264.75"/>
</g>
<!-- Node3 -->
<g id="node3" class="node">
<title>Node3</title>
<g id="a_node3"><a xlink:href="Vector_8hpp.html" target="_top" xlink:title=" ">
<polygon fill="none" stroke="black" points="604,-179.5 604,-198.5 697,-198.5 697,-179.5 604,-179.5"/>
<text text-anchor="middle" x="650.5" y="-186.5" font-family="Helvetica,sans-Serif" font-size="10.00">utils/Vector.hpp</text>
</a>
</g>
</g>
<!-- Node2&#45;&gt;Node3 -->
<g id="edge2" class="edge">
<title>Node2&#45;&gt;Node3</title>
<path fill="none" stroke="midnightblue" d="M1071.64,-239.76C992.56,-230.42 802.68,-207.98 707.26,-196.71"/>
<polygon fill="midnightblue" stroke="midnightblue" points="707.55,-193.22 697.21,-195.52 706.73,-200.17 707.55,-193.22"/>
</g>
<!-- Node23 -->
<g id="node23" class="node">
<title>Node23</title>
<g id="a_node23"><a xlink:href="int__pow_8hpp.html" target="_top" xlink:title=" ">
<polygon fill="none" stroke="black" points="976.5,-179.5 976.5,-198.5 1104.5,-198.5 1104.5,-179.5 976.5,-179.5"/>
<text text-anchor="middle" x="1040.5" y="-186.5" font-family="Helvetica,sans-Serif" font-size="10.00">utils/math/int_pow.hpp</text>
</a>
</g>
</g>
<!-- Node2&#45;&gt;Node23 -->
<g id="edge27" class="edge">
<title>Node2&#45;&gt;Node23</title>
<path fill="none" stroke="midnightblue" d="M1096.74,-235.32C1086.73,-227.26 1071.61,-215.08 1059.57,-205.37"/>
<polygon fill="midnightblue" stroke="midnightblue" points="1061.44,-202.38 1051.46,-198.83 1057.05,-207.83 1061.44,-202.38"/>
</g>
<!-- Node24 -->
<g id="node24" class="node">
<title>Node24</title>
<g id="a_node24"><a xlink:href="sqr_8hpp.html" target="_top" xlink:title=" ">
<polygon fill="none" stroke="black" points="1123,-179.5 1123,-198.5 1228,-198.5 1228,-179.5 1123,-179.5"/>
<text text-anchor="middle" x="1175.5" y="-186.5" font-family="Helvetica,sans-Serif" font-size="10.00">utils/math/sqr.hpp</text>
</a>
</g>
</g>
<!-- Node2&#45;&gt;Node24 -->
<g id="edge30" class="edge">
<title>Node2&#45;&gt;Node24</title>
<path fill="none" stroke="midnightblue" d="M1118.43,-235.32C1128.67,-227.18 1144.22,-214.84 1156.5,-205.09"/>
<polygon fill="midnightblue" stroke="midnightblue" points="1158.72,-207.79 1164.38,-198.83 1154.37,-202.31 1158.72,-207.79"/>
</g>
<!-- Node25 -->
<g id="node25" class="node">
<title>Node25</title>
<g id="a_node25"><a xlink:title=" ">
<polygon fill="none" stroke="#bfbfbf" points="1246,-179.5 1246,-198.5 1353,-198.5 1353,-179.5 1246,-179.5"/>
<text text-anchor="middle" x="1299.5" y="-186.5" font-family="Helvetica,sans-Serif" font-size="10.00">boost/optional.hpp</text>
</a>
</g>
</g>
<!-- Node2&#45;&gt;Node25 -->
<g id="edge32" class="edge">
<title>Node2&#45;&gt;Node25</title>
<path fill="none" stroke="midnightblue" d="M1137.92,-235.44C1170.78,-226.2 1223.28,-211.44 1259.47,-201.26"/>
<polygon fill="midnightblue" stroke="midnightblue" points="1260.54,-204.59 1269.22,-198.52 1258.65,-197.85 1260.54,-204.59"/>
</g>
<!-- Node4 -->
<g id="node4" class="node">
<title>Node4</title>
<g id="a_node4"><a xlink:title=" ">
<polygon fill="none" stroke="#bfbfbf" points="240.5,-123.5 240.5,-142.5 390.5,-142.5 390.5,-123.5 240.5,-123.5"/>
<text text-anchor="middle" x="315.5" y="-130.5" font-family="Helvetica,sans-Serif" font-size="10.00">boost/qvm/deduce_vec.hpp</text>
</a>
</g>
</g>
<!-- Node3&#45;&gt;Node4 -->
<g id="edge3" class="edge">
<title>Node3&#45;&gt;Node4</title>
<path fill="none" stroke="midnightblue" d="M603.92,-180.49C545.21,-171.03 444.08,-154.73 378.51,-144.16"/>
<polygon fill="midnightblue" stroke="midnightblue" points="378.73,-140.65 368.3,-142.51 377.62,-147.56 378.73,-140.65"/>
</g>
<!-- Node5 -->
<g id="node5" class="node">
<title>Node5</title>
<g id="a_node5"><a xlink:title=" ">
<polygon fill="none" stroke="#bfbfbf" points="408.5,-123.5 408.5,-142.5 548.5,-142.5 548.5,-123.5 408.5,-123.5"/>
<text text-anchor="middle" x="478.5" y="-130.5" font-family="Helvetica,sans-Serif" font-size="10.00">boost/qvm/vec_traits.hpp</text>
</a>
</g>
</g>
<!-- Node3&#45;&gt;Node5 -->
<g id="edge4" class="edge">
<title>Node3&#45;&gt;Node5</title>
<path fill="none" stroke="midnightblue" d="M623.25,-179.44C594.06,-170.28 547.58,-155.69 515.19,-145.52"/>
<polygon fill="midnightblue" stroke="midnightblue" points="516.22,-142.17 505.63,-142.52 514.12,-148.85 516.22,-142.17"/>
</g>
<!-- Node6 -->
<g id="node6" class="node">
<title>Node6</title>
<g id="a_node6"><a xlink:href="Array_8hpp.html" target="_top" xlink:title=" ">
<polygon fill="none" stroke="black" points="642.5,-123.5 642.5,-142.5 728.5,-142.5 728.5,-123.5 642.5,-123.5"/>
<text text-anchor="middle" x="685.5" y="-130.5" font-family="Helvetica,sans-Serif" font-size="10.00">utils/Array.hpp</text>
</a>
</g>
</g>
<!-- Node3&#45;&gt;Node6 -->
<g id="edge5" class="edge">
<title>Node3&#45;&gt;Node6</title>
<path fill="none" stroke="midnightblue" d="M656.28,-179.08C661.17,-171.53 668.33,-160.49 674.33,-151.23"/>
<polygon fill="midnightblue" stroke="midnightblue" points="677.33,-153.05 679.83,-142.75 671.45,-149.24 677.33,-153.05"/>
</g>
<!-- Node8 -->
<g id="node8" class="node">
<title>Node8</title>
<g id="a_node8"><a xlink:title=" ">
<polygon fill="none" stroke="#bfbfbf" points="993.5,-0.5 993.5,-19.5 1045.5,-19.5 1045.5,-0.5 993.5,-0.5"/>
<text text-anchor="middle" x="1019.5" y="-7.5" font-family="Helvetica,sans-Serif" font-size="10.00">cassert</text>
</a>
</g>
</g>
<!-- Node3&#45;&gt;Node8 -->
<g id="edge18" class="edge">
<title>Node3&#45;&gt;Node8</title>
<path fill="none" stroke="midnightblue" d="M667.2,-179.41C684.72,-170.38 713.08,-155.74 737.5,-143 754.42,-134.17 757.41,-129.09 775.5,-123 867.74,-91.94 916.53,-149.06 991.5,-87 1008.56,-72.88 1015.23,-47.37 1017.83,-29.82"/>
<polygon fill="midnightblue" stroke="midnightblue" points="1021.34,-29.99 1019.02,-19.65 1014.38,-29.17 1021.34,-29.99"/>
</g>
<!-- Node10 -->
<g id="node10" class="node">
<title>Node10</title>
<g id="a_node10"><a xlink:title=" ">
<polygon fill="none" stroke="#bfbfbf" points="715,-0.5 715,-19.5 768,-19.5 768,-0.5 715,-0.5"/>
<text text-anchor="middle" x="741.5" y="-7.5" font-family="Helvetica,sans-Serif" font-size="10.00">cstddef</text>
</a>
</g>
</g>
<!-- Node3&#45;&gt;Node10 -->
<g id="edge20" class="edge">
<title>Node3&#45;&gt;Node10</title>
<path fill="none" stroke="midnightblue" d="M638.62,-179.34C621.1,-166.65 587.18,-142.4 557.5,-123 531.79,-106.19 513.54,-113.79 498.5,-87 491.76,-74.99 489.69,-66.59 498.5,-56 524.31,-24.97 643.4,-15.25 704.75,-12.27"/>
<polygon fill="midnightblue" stroke="midnightblue" points="704.95,-15.76 714.78,-11.82 704.64,-8.77 704.95,-15.76"/>
</g>
<!-- Node13 -->
<g id="node13" class="node">
<title>Node13</title>
<g id="a_node13"><a xlink:title=" ">
<polygon fill="none" stroke="#bfbfbf" points="507,-62 507,-81 560,-81 560,-62 507,-62"/>
<text text-anchor="middle" x="533.5" y="-69" font-family="Helvetica,sans-Serif" font-size="10.00">iterator</text>
</a>
</g>
</g>
<!-- Node3&#45;&gt;Node13 -->
<g id="edge23" class="edge">
<title>Node3&#45;&gt;Node13</title>
<path fill="none" stroke="midnightblue" d="M643,-179.33C631.89,-166.62 610.25,-142.35 590.5,-123 578.01,-110.76 563.21,-97.69 551.82,-87.91"/>
<polygon fill="midnightblue" stroke="midnightblue" points="553.75,-84.96 543.87,-81.14 549.21,-90.29 553.75,-84.96"/>
</g>
<!-- Node16 -->
<g id="node16" class="node">
<title>Node16</title>
<g id="a_node16"><a xlink:title=" ">
<polygon fill="none" stroke="#bfbfbf" points="784.5,-123.5 784.5,-142.5 848.5,-142.5 848.5,-123.5 784.5,-123.5"/>
<text text-anchor="middle" x="816.5" y="-130.5" font-family="Helvetica,sans-Serif" font-size="10.00">algorithm</text>
</a>
</g>
</g>
<!-- Node3&#45;&gt;Node16 -->
<g id="edge17" class="edge">
<title>Node3&#45;&gt;Node16</title>
<path fill="none" stroke="midnightblue" d="M676.8,-179.44C704.85,-170.32 749.44,-155.81 780.68,-145.65"/>
<polygon fill="midnightblue" stroke="midnightblue" points="781.89,-148.94 790.32,-142.52 779.73,-142.28 781.89,-148.94"/>
</g>
<!-- Node17 -->
<g id="node17" class="node">
<title>Node17</title>
<g id="a_node17"><a xlink:title=" ">
<polygon fill="none" stroke="#bfbfbf" points="867,-123.5 867,-142.5 914,-142.5 914,-123.5 867,-123.5"/>
<text text-anchor="middle" x="890.5" y="-130.5" font-family="Helvetica,sans-Serif" font-size="10.00">cmath</text>
</a>
</g>
</g>
<!-- Node3&#45;&gt;Node17 -->
<g id="edge19" class="edge">
<title>Node3&#45;&gt;Node17</title>
<path fill="none" stroke="midnightblue" d="M693.07,-179.42C732.89,-171.25 794.25,-158.27 856.71,-143.09"/>
<polygon fill="midnightblue" stroke="midnightblue" points="857.86,-146.41 866.75,-140.64 856.2,-139.61 857.86,-146.41"/>
</g>
<!-- Node18 -->
<g id="node18" class="node">
<title>Node18</title>
<g id="a_node18"><a xlink:title=" ">
<polygon fill="none" stroke="#bfbfbf" points="932,-123.5 932,-142.5 997,-142.5 997,-123.5 932,-123.5"/>
<text text-anchor="middle" x="964.5" y="-130.5" font-family="Helvetica,sans-Serif" font-size="10.00">functional</text>
</a>
</g>
</g>
<!-- Node3&#45;&gt;Node18 -->
<g id="edge21" class="edge">
<title>Node3&#45;&gt;Node18</title>
<path fill="none" stroke="midnightblue" d="M697,-181.1C749.37,-173.16 837.24,-159.32 921.83,-143.25"/>
<polygon fill="midnightblue" stroke="midnightblue" points="922.69,-146.65 931.86,-141.33 921.38,-139.77 922.69,-146.65"/>
</g>
<!-- Node19 -->
<g id="node19" class="node">
<title>Node19</title>
<g id="a_node19"><a xlink:title=" ">
<polygon fill="none" stroke="#bfbfbf" points="0,-123.5 0,-142.5 83,-142.5 83,-123.5 0,-123.5"/>
<text text-anchor="middle" x="41.5" y="-130.5" font-family="Helvetica,sans-Serif" font-size="10.00">initializer_list</text>
</a>
</g>
</g>
<!-- Node3&#45;&gt;Node19 -->
<g id="edge22" class="edge">
<title>Node3&#45;&gt;Node19</title>
<path fill="none" stroke="midnightblue" d="M603.68,-185.72C509.22,-180.79 288.9,-167.66 93.38,-142.99"/>
<polygon fill="midnightblue" stroke="midnightblue" points="93.56,-139.48 83.2,-141.69 92.68,-146.43 93.56,-139.48"/>
</g>
<!-- Node20 -->
<g id="node20" class="node">
<title>Node20</title>
<g id="a_node20"><a xlink:title=" ">
<polygon fill="none" stroke="#bfbfbf" points="101.5,-123.5 101.5,-142.5 157.5,-142.5 157.5,-123.5 101.5,-123.5"/>
<text text-anchor="middle" x="129.5" y="-130.5" font-family="Helvetica,sans-Serif" font-size="10.00">numeric</text>
</a>
</g>
</g>
<!-- Node3&#45;&gt;Node20 -->
<g id="edge24" class="edge">
<title>Node3&#45;&gt;Node20</title>
<path fill="none" stroke="midnightblue" d="M603.82,-185.93C518.85,-181.66 333.13,-170.08 167.56,-142.95"/>
<polygon fill="midnightblue" stroke="midnightblue" points="168.13,-139.49 157.69,-141.31 166.99,-146.4 168.13,-139.49"/>
</g>
<!-- Node21 -->
<g id="node21" class="node">
<title>Node21</title>
<g id="a_node21"><a xlink:title=" ">
<polygon fill="none" stroke="#bfbfbf" points="1015,-123.5 1015,-142.5 1084,-142.5 1084,-123.5 1015,-123.5"/>
<text text-anchor="middle" x="1049.5" y="-130.5" font-family="Helvetica,sans-Serif" font-size="10.00">type_traits</text>
</a>
</g>
</g>
<!-- Node3&#45;&gt;Node21 -->
<g id="edge25" class="edge">
<title>Node3&#45;&gt;Node21</title>
<path fill="none" stroke="midnightblue" d="M697.04,-183.33C763.27,-176.41 888.7,-162.33 1004.69,-143.2"/>
<polygon fill="midnightblue" stroke="midnightblue" points="1005.52,-146.61 1014.81,-141.51 1004.37,-139.7 1005.52,-146.61"/>
</g>
<!-- Node22 -->
<g id="node22" class="node">
<title>Node22</title>
<g id="a_node22"><a xlink:title=" ">
<polygon fill="none" stroke="#bfbfbf" points="176,-123.5 176,-142.5 223,-142.5 223,-123.5 176,-123.5"/>
<text text-anchor="middle" x="199.5" y="-130.5" font-family="Helvetica,sans-Serif" font-size="10.00">vector</text>
</a>
</g>
</g>
<!-- Node3&#45;&gt;Node22 -->
<g id="edge26" class="edge">
<title>Node3&#45;&gt;Node22</title>
<path fill="none" stroke="midnightblue" d="M603.93,-185.55C528.01,-180.99 372.79,-169.37 233.18,-143.05"/>
<polygon fill="midnightblue" stroke="midnightblue" points="233.64,-139.57 223.16,-141.13 232.32,-146.45 233.64,-139.57"/>
</g>
<!-- Node7 -->
<g id="node7" class="node">
<title>Node7</title>
<g id="a_node7"><a xlink:href="device__qualifier_8hpp.html" target="_top" xlink:title=" ">
<polygon fill="none" stroke="black" points="1050.5,-62 1050.5,-81 1166.5,-81 1166.5,-62 1050.5,-62"/>
<text text-anchor="middle" x="1108.5" y="-69" font-family="Helvetica,sans-Serif" font-size="10.00">device_qualifier.hpp</text>
</a>
</g>
</g>
<!-- Node6&#45;&gt;Node7 -->
<g id="edge6" class="edge">
<title>Node6&#45;&gt;Node7</title>
<path fill="none" stroke="midnightblue" d="M728.78,-125.91C802.3,-115.57 952.15,-94.49 1040.02,-82.13"/>
<polygon fill="midnightblue" stroke="midnightblue" points="1040.75,-85.56 1050.16,-80.71 1039.77,-78.63 1040.75,-85.56"/>
</g>
<!-- Node6&#45;&gt;Node8 -->
<g id="edge12" class="edge">
<title>Node6&#45;&gt;Node8</title>
<path fill="none" stroke="midnightblue" d="M728.55,-125.11C806.06,-112.69 961.25,-87.76 962.5,-87 985.25,-73.23 1001.96,-46.65 1011.21,-28.87"/>
<polygon fill="midnightblue" stroke="midnightblue" points="1014.39,-30.32 1015.67,-19.8 1008.11,-27.22 1014.39,-30.32"/>
</g>
<!-- Node9 -->
<g id="node9" class="node">
<title>Node9</title>
<g id="a_node9"><a xlink:href="get_8hpp.html" target="_top" xlink:title=" ">
<polygon fill="none" stroke="black" points="775,-62 775,-81 828,-81 828,-62 775,-62"/>
<text text-anchor="middle" x="801.5" y="-69" font-family="Helvetica,sans-Serif" font-size="10.00">get.hpp</text>
</a>
</g>
</g>
<!-- Node6&#45;&gt;Node9 -->
<g id="edge8" class="edge">
<title>Node6&#45;&gt;Node9</title>
<path fill="none" stroke="midnightblue" d="M702.12,-123.48C721.42,-113.58 753.46,-97.14 775.93,-85.62"/>
<polygon fill="midnightblue" stroke="midnightblue" points="777.61,-88.69 784.91,-81.01 774.42,-82.46 777.61,-88.69"/>
</g>
<!-- Node6&#45;&gt;Node10 -->
<g id="edge13" class="edge">
<title>Node6&#45;&gt;Node10</title>
<path fill="none" stroke="midnightblue" d="M696.66,-123.26C706.4,-115 720.1,-101.7 727.5,-87 736.53,-69.07 739.79,-46.12 740.94,-30.16"/>
<polygon fill="midnightblue" stroke="midnightblue" points="744.44,-30.1 741.45,-19.94 737.45,-29.75 744.44,-30.1"/>
</g>
<!-- Node12 -->
<g id="node12" class="node">
<title>Node12</title>
<g id="a_node12"><a xlink:title=" ">
<polygon fill="none" stroke="#bfbfbf" points="846,-56.5 846,-86.5 953,-86.5 953,-56.5 846,-56.5"/>
<text text-anchor="start" x="854" y="-74.5" font-family="Helvetica,sans-Serif" font-size="10.00">boost/serialization</text>
<text text-anchor="middle" x="899.5" y="-63.5" font-family="Helvetica,sans-Serif" font-size="10.00">/access.hpp</text>
</a>
</g>
</g>
<!-- Node6&#45;&gt;Node12 -->
<g id="edge11" class="edge">
<title>Node6&#45;&gt;Node12</title>
<path fill="none" stroke="midnightblue" d="M716.16,-123.48C748.19,-114.57 799.27,-100.37 839.38,-89.22"/>
<polygon fill="midnightblue" stroke="midnightblue" points="840.37,-92.57 849.06,-86.52 838.49,-85.83 840.37,-92.57"/>
</g>
<!-- Node6&#45;&gt;Node13 -->
<g id="edge14" class="edge">
<title>Node6&#45;&gt;Node13</title>
<path fill="none" stroke="midnightblue" d="M663.23,-123.46C639.85,-114.47 602.04,-99.87 569.5,-87 567.86,-86.35 566.19,-85.69 564.49,-85.01"/>
<polygon fill="midnightblue" stroke="midnightblue" points="565.39,-81.6 554.8,-81.13 562.78,-88.1 565.39,-81.6"/>
</g>
<!-- Node14 -->
<g id="node14" class="node">
<title>Node14</title>
<g id="a_node14"><a xlink:title=" ">
<polygon fill="none" stroke="#bfbfbf" points="578,-62 578,-81 635,-81 635,-62 578,-62"/>
<text text-anchor="middle" x="606.5" y="-69" font-family="Helvetica,sans-Serif" font-size="10.00">ostream</text>
</a>
</g>
</g>
<!-- Node6&#45;&gt;Node14 -->
<g id="edge15" class="edge">
<title>Node6&#45;&gt;Node14</title>
<path fill="none" stroke="midnightblue" d="M674.18,-123.48C661.63,-114.02 641.15,-98.6 626,-87.19"/>
<polygon fill="midnightblue" stroke="midnightblue" points="627.89,-84.23 617.8,-81.01 623.68,-89.82 627.89,-84.23"/>
</g>
<!-- Node15 -->
<g id="node15" class="node">
<title>Node15</title>
<g id="a_node15"><a xlink:title=" ">
<polygon fill="none" stroke="#bfbfbf" points="653,-62 653,-81 718,-81 718,-62 653,-62"/>
<text text-anchor="middle" x="685.5" y="-69" font-family="Helvetica,sans-Serif" font-size="10.00">stdexcept</text>
</a>
</g>
</g>
<!-- Node6&#45;&gt;Node15 -->
<g id="edge16" class="edge">
<title>Node6&#45;&gt;Node15</title>
<path fill="none" stroke="midnightblue" d="M685.5,-123.48C685.5,-115.08 685.5,-101.98 685.5,-91.16"/>
<polygon fill="midnightblue" stroke="midnightblue" points="689,-91.01 685.5,-81.01 682,-91.01 689,-91.01"/>
</g>
<!-- Node7&#45;&gt;Node8 -->
<g id="edge7" class="edge">
<title>Node7&#45;&gt;Node8</title>
<path fill="none" stroke="midnightblue" d="M1095.75,-61.98C1081.47,-52.43 1058.1,-36.81 1040.99,-25.37"/>
<polygon fill="midnightblue" stroke="midnightblue" points="1042.49,-22.16 1032.23,-19.51 1038.6,-27.98 1042.49,-22.16"/>
</g>
<!-- Node9&#45;&gt;Node10 -->
<g id="edge9" class="edge">
<title>Node9&#45;&gt;Node10</title>
<path fill="none" stroke="midnightblue" d="M792.9,-61.98C783.64,-52.78 768.68,-37.96 757.29,-26.66"/>
<polygon fill="midnightblue" stroke="midnightblue" points="759.65,-24.07 750.08,-19.51 754.72,-29.04 759.65,-24.07"/>
</g>
<!-- Node11 -->
<g id="node11" class="node">
<title>Node11</title>
<g id="a_node11"><a xlink:title=" ">
<polygon fill="none" stroke="#bfbfbf" points="786,-0.5 786,-19.5 827,-19.5 827,-0.5 786,-0.5"/>
<text text-anchor="middle" x="806.5" y="-7.5" font-family="Helvetica,sans-Serif" font-size="10.00">tuple</text>
</a>
</g>
</g>
<!-- Node9&#45;&gt;Node11 -->
<g id="edge10" class="edge">
<title>Node9&#45;&gt;Node11</title>
<path fill="none" stroke="midnightblue" d="M802.22,-61.98C802.92,-53.58 804.02,-40.48 804.93,-29.66"/>
<polygon fill="midnightblue" stroke="midnightblue" points="808.44,-29.77 805.78,-19.51 801.46,-29.18 808.44,-29.77"/>
</g>
<!-- Node23&#45;&gt;Node7 -->
<g id="edge28" class="edge">
<title>Node23&#45;&gt;Node7</title>
<path fill="none" stroke="midnightblue" d="M1055.46,-179.24C1067.62,-171.32 1084.22,-158.55 1093.5,-143 1102.91,-127.25 1106.46,-106.41 1107.78,-91.48"/>
<polygon fill="midnightblue" stroke="midnightblue" points="1111.28,-91.6 1108.41,-81.4 1104.29,-91.16 1111.28,-91.6"/>
</g>
<!-- Node23&#45;&gt;Node21 -->
<g id="edge29" class="edge">
<title>Node23&#45;&gt;Node21</title>
<path fill="none" stroke="midnightblue" d="M1041.99,-179.08C1043.18,-171.93 1044.89,-161.64 1046.38,-152.69"/>
<polygon fill="midnightblue" stroke="midnightblue" points="1049.85,-153.19 1048.04,-142.75 1042.95,-152.04 1049.85,-153.19"/>
</g>
<!-- Node24&#45;&gt;Node7 -->
<g id="edge31" class="edge">
<title>Node24&#45;&gt;Node7</title>
<path fill="none" stroke="midnightblue" d="M1170.46,-179.32C1159.5,-160.42 1133.3,-115.25 1118.72,-90.12"/>
<polygon fill="midnightblue" stroke="midnightblue" points="1121.64,-88.18 1113.59,-81.28 1115.58,-91.69 1121.64,-88.18"/>
</g>
</g>
</svg>
