<?xml version="1.0" encoding="UTF-8" standalone="no"?>
<!DOCTYPE svg PUBLIC "-//W3C//DTD SVG 1.1//EN"
 "http://www.w3.org/Graphics/SVG/1.1/DTD/svg11.dtd">
<!-- Generated by graphviz version 2.43.0 (0)
 -->
<!-- Title: random.hpp Pages: 1 -->
<svg width="1795pt" height="274pt"
 viewBox="0.00 0.00 1795.00 274.00" xmlns="http://www.w3.org/2000/svg" xmlns:xlink="http://www.w3.org/1999/xlink">
<g id="graph0" class="graph" transform="scale(1 1) rotate(0) translate(4 270)">
<title>random.hpp</title>
<!-- Node1 -->
<g id="node1" class="node">
<title>Node1</title>
<g id="a_node1"><a xlink:title=" ">
<polygon fill="#bfbfbf" stroke="black" points="1316.5,-246.5 1316.5,-265.5 1391.5,-265.5 1391.5,-246.5 1316.5,-246.5"/>
<text text-anchor="middle" x="1354" y="-253.5" font-family="Helvetica,sans-Serif" font-size="10.00">random.hpp</text>
</a>
</g>
</g>
<!-- Node2 -->
<g id="node2" class="node">
<title>Node2</title>
<g id="a_node2"><a xlink:href="Vector_8hpp.html" target="_top" xlink:title=" ">
<polygon fill="none" stroke="black" points="761.5,-190.5 761.5,-209.5 854.5,-209.5 854.5,-190.5 761.5,-190.5"/>
<text text-anchor="middle" x="808" y="-197.5" font-family="Helvetica,sans-Serif" font-size="10.00">utils/Vector.hpp</text>
</a>
</g>
</g>
<!-- Node1&#45;&gt;Node2 -->
<g id="edge1" class="edge">
<title>Node1&#45;&gt;Node2</title>
<path fill="none" stroke="midnightblue" d="M1316.47,-251.29C1222.43,-241.99 976.27,-217.64 864.58,-206.6"/>
<polygon fill="midnightblue" stroke="midnightblue" points="864.81,-203.1 854.52,-205.6 864.12,-210.07 864.81,-203.1"/>
</g>
<!-- Node9 -->
<g id="node9" class="node">
<title>Node9</title>
<g id="a_node9"><a xlink:title=" ">
<polygon fill="none" stroke="#bfbfbf" points="965.5,-0.5 965.5,-19.5 1018.5,-19.5 1018.5,-0.5 965.5,-0.5"/>
<text text-anchor="middle" x="992" y="-7.5" font-family="Helvetica,sans-Serif" font-size="10.00">cstddef</text>
</a>
</g>
</g>
<!-- Node1&#45;&gt;Node9 -->
<g id="edge36" class="edge">
<title>Node1&#45;&gt;Node9</title>
<path fill="none" stroke="midnightblue" d="M1350.17,-246.38C1337.19,-217.16 1295.6,-123.6 1295,-123 1220.58,-48.22 1091.92,-22.86 1028.92,-14.68"/>
<polygon fill="midnightblue" stroke="midnightblue" points="1029.02,-11.16 1018.67,-13.42 1028.17,-18.11 1029.02,-11.16"/>
</g>
<!-- Node21 -->
<g id="node21" class="node">
<title>Node21</title>
<g id="a_node21"><a xlink:title=" ">
<polygon fill="none" stroke="#bfbfbf" points="1239.5,-129 1239.5,-148 1286.5,-148 1286.5,-129 1239.5,-129"/>
<text text-anchor="middle" x="1263" y="-136" font-family="Helvetica,sans-Serif" font-size="10.00">vector</text>
</a>
</g>
</g>
<!-- Node1&#45;&gt;Node21 -->
<g id="edge38" class="edge">
<title>Node1&#45;&gt;Node21</title>
<path fill="none" stroke="midnightblue" d="M1341.48,-246.46C1329.94,-238.14 1312.85,-224.63 1301,-210 1287.92,-193.84 1277.16,-172.51 1270.47,-157.56"/>
<polygon fill="midnightblue" stroke="midnightblue" points="1273.68,-156.17 1266.51,-148.37 1267.25,-158.94 1273.68,-156.17"/>
</g>
<!-- Node22 -->
<g id="node22" class="node">
<title>Node22</title>
<g id="a_node22"><a xlink:href="constants_8hpp.html" target="_top" xlink:title=" ">
<polygon fill="none" stroke="black" points="95.5,-190.5 95.5,-209.5 204.5,-209.5 204.5,-190.5 95.5,-190.5"/>
<text text-anchor="middle" x="150" y="-197.5" font-family="Helvetica,sans-Serif" font-size="10.00">utils/constants.hpp</text>
</a>
</g>
</g>
<!-- Node1&#45;&gt;Node22 -->
<g id="edge26" class="edge">
<title>Node1&#45;&gt;Node22</title>
<path fill="none" stroke="midnightblue" d="M1316.31,-253.31C1144.48,-245.6 434.19,-213.75 214.83,-203.91"/>
<polygon fill="midnightblue" stroke="midnightblue" points="214.91,-200.41 204.76,-203.46 214.59,-207.4 214.91,-200.41"/>
</g>
<!-- Node24 -->
<g id="node24" class="node">
<title>Node24</title>
<g id="a_node24"><a xlink:href="u32__to__u64_8hpp.html" target="_top" xlink:title=" ">
<polygon fill="none" stroke="black" points="1461,-190.5 1461,-209.5 1579,-209.5 1579,-190.5 1461,-190.5"/>
<text text-anchor="middle" x="1520" y="-197.5" font-family="Helvetica,sans-Serif" font-size="10.00">utils/u32_to_u64.hpp</text>
</a>
</g>
</g>
<!-- Node1&#45;&gt;Node24 -->
<g id="edge29" class="edge">
<title>Node1&#45;&gt;Node24</title>
<path fill="none" stroke="midnightblue" d="M1380.3,-246.44C1408.35,-237.32 1452.94,-222.81 1484.18,-212.65"/>
<polygon fill="midnightblue" stroke="midnightblue" points="1485.39,-215.94 1493.82,-209.52 1483.23,-209.28 1485.39,-215.94"/>
</g>
<!-- Node27 -->
<g id="node27" class="node">
<title>Node27</title>
<g id="a_node27"><a xlink:href="uniform_8hpp.html" target="_top" xlink:title=" ">
<polygon fill="none" stroke="black" points="1343,-190.5 1343,-209.5 1443,-209.5 1443,-190.5 1343,-190.5"/>
<text text-anchor="middle" x="1393" y="-197.5" font-family="Helvetica,sans-Serif" font-size="10.00">utils/uniform.hpp</text>
</a>
</g>
</g>
<!-- Node1&#45;&gt;Node27 -->
<g id="edge32" class="edge">
<title>Node1&#45;&gt;Node27</title>
<path fill="none" stroke="midnightblue" d="M1360.44,-246.08C1365.95,-238.46 1374.03,-227.26 1380.76,-217.94"/>
<polygon fill="midnightblue" stroke="midnightblue" points="1383.66,-219.91 1386.68,-209.75 1377.99,-215.81 1383.66,-219.91"/>
</g>
<!-- Node29 -->
<g id="node29" class="node">
<title>Node29</title>
<g id="a_node29"><a xlink:title=" ">
<polygon fill="none" stroke="#bfbfbf" points="1597.5,-190.5 1597.5,-209.5 1714.5,-209.5 1714.5,-190.5 1597.5,-190.5"/>
<text text-anchor="middle" x="1656" y="-197.5" font-family="Helvetica,sans-Serif" font-size="10.00">Random123/philox.h</text>
</a>
</g>
</g>
<!-- Node1&#45;&gt;Node29 -->
<g id="edge35" class="edge">
<title>Node1&#45;&gt;Node29</title>
<path fill="none" stroke="midnightblue" d="M1391.64,-248.27C1443.5,-239 1537.42,-222.2 1598.22,-211.33"/>
<polygon fill="midnightblue" stroke="midnightblue" points="1599.2,-214.71 1608.42,-209.51 1597.96,-207.82 1599.2,-214.71"/>
</g>
<!-- Node30 -->
<g id="node30" class="node">
<title>Node30</title>
<g id="a_node30"><a xlink:title=" ">
<polygon fill="none" stroke="#bfbfbf" points="1733,-190.5 1733,-209.5 1787,-209.5 1787,-190.5 1733,-190.5"/>
<text text-anchor="middle" x="1760" y="-197.5" font-family="Helvetica,sans-Serif" font-size="10.00">random</text>
</a>
</g>
</g>
<!-- Node1&#45;&gt;Node30 -->
<g id="edge37" class="edge">
<title>Node1&#45;&gt;Node30</title>
<path fill="none" stroke="midnightblue" d="M1391.52,-251.99C1456.91,-246.4 1596.12,-233.02 1723.06,-209.97"/>
<polygon fill="midnightblue" stroke="midnightblue" points="1723.75,-213.4 1732.95,-208.14 1722.48,-206.51 1723.75,-213.4"/>
</g>
<!-- Node3 -->
<g id="node3" class="node">
<title>Node3</title>
<g id="a_node3"><a xlink:title=" ">
<polygon fill="none" stroke="#bfbfbf" points="651,-129 651,-148 801,-148 801,-129 651,-129"/>
<text text-anchor="middle" x="726" y="-136" font-family="Helvetica,sans-Serif" font-size="10.00">boost/qvm/deduce_vec.hpp</text>
</a>
</g>
</g>
<!-- Node2&#45;&gt;Node3 -->
<g id="edge2" class="edge">
<title>Node2&#45;&gt;Node3</title>
<path fill="none" stroke="midnightblue" d="M796.25,-190.48C783.22,-181.02 761.96,-165.6 746.24,-154.19"/>
<polygon fill="midnightblue" stroke="midnightblue" points="747.88,-151.05 737.73,-148.01 743.77,-156.71 747.88,-151.05"/>
</g>
<!-- Node4 -->
<g id="node4" class="node">
<title>Node4</title>
<g id="a_node4"><a xlink:title=" ">
<polygon fill="none" stroke="#bfbfbf" points="819,-129 819,-148 959,-148 959,-129 819,-129"/>
<text text-anchor="middle" x="889" y="-136" font-family="Helvetica,sans-Serif" font-size="10.00">boost/qvm/vec_traits.hpp</text>
</a>
</g>
</g>
<!-- Node2&#45;&gt;Node4 -->
<g id="edge3" class="edge">
<title>Node2&#45;&gt;Node4</title>
<path fill="none" stroke="midnightblue" d="M819.61,-190.48C832.48,-181.02 853.47,-165.6 869.01,-154.19"/>
<polygon fill="midnightblue" stroke="midnightblue" points="871.43,-156.75 877.42,-148.01 867.28,-151.11 871.43,-156.75"/>
</g>
<!-- Node5 -->
<g id="node5" class="node">
<title>Node5</title>
<g id="a_node5"><a xlink:href="Array_8hpp.html" target="_top" xlink:title=" ">
<polygon fill="none" stroke="black" points="977,-129 977,-148 1063,-148 1063,-129 977,-129"/>
<text text-anchor="middle" x="1020" y="-136" font-family="Helvetica,sans-Serif" font-size="10.00">utils/Array.hpp</text>
</a>
</g>
</g>
<!-- Node2&#45;&gt;Node5 -->
<g id="edge4" class="edge">
<title>Node2&#45;&gt;Node5</title>
<path fill="none" stroke="midnightblue" d="M838.37,-190.48C875.61,-180.03 938.81,-162.29 979.98,-150.73"/>
<polygon fill="midnightblue" stroke="midnightblue" points="981,-154.08 989.68,-148.01 979.11,-147.34 981,-154.08"/>
</g>
<!-- Node7 -->
<g id="node7" class="node">
<title>Node7</title>
<g id="a_node7"><a xlink:title=" ">
<polygon fill="none" stroke="#bfbfbf" points="186,-0.5 186,-19.5 238,-19.5 238,-0.5 186,-0.5"/>
<text text-anchor="middle" x="212" y="-7.5" font-family="Helvetica,sans-Serif" font-size="10.00">cassert</text>
</a>
</g>
</g>
<!-- Node2&#45;&gt;Node7 -->
<g id="edge17" class="edge">
<title>Node2&#45;&gt;Node7</title>
<path fill="none" stroke="midnightblue" d="M761.12,-198.66C630.44,-197.27 269.16,-190.15 231,-154 196.99,-121.79 202.53,-60.32 207.99,-29.53"/>
<polygon fill="midnightblue" stroke="midnightblue" points="211.43,-30.18 209.92,-19.69 204.56,-28.83 211.43,-30.18"/>
</g>
<!-- Node2&#45;&gt;Node9 -->
<g id="edge19" class="edge">
<title>Node2&#45;&gt;Node9</title>
<path fill="none" stroke="midnightblue" d="M854.51,-196.9C925.81,-192.84 1057.79,-181.72 1095,-154 1131.74,-126.62 1153.79,-93.17 1127,-56 1104.81,-25.21 1060.63,-15.17 1028.85,-12.06"/>
<polygon fill="midnightblue" stroke="midnightblue" points="1028.84,-8.55 1018.6,-11.25 1028.29,-15.53 1028.84,-8.55"/>
</g>
<!-- Node12 -->
<g id="node12" class="node">
<title>Node12</title>
<g id="a_node12"><a xlink:title=" ">
<polygon fill="none" stroke="#bfbfbf" points="1065.5,-62 1065.5,-81 1118.5,-81 1118.5,-62 1065.5,-62"/>
<text text-anchor="middle" x="1092" y="-69" font-family="Helvetica,sans-Serif" font-size="10.00">iterator</text>
</a>
</g>
</g>
<!-- Node2&#45;&gt;Node12 -->
<g id="edge22" class="edge">
<title>Node2&#45;&gt;Node12</title>
<path fill="none" stroke="midnightblue" d="M854.77,-197.06C921.98,-193.29 1041.2,-182.67 1072,-154 1089.13,-138.05 1092.64,-110.02 1092.87,-91.36"/>
<polygon fill="midnightblue" stroke="midnightblue" points="1096.37,-91.07 1092.69,-81.14 1089.37,-91.2 1096.37,-91.07"/>
</g>
<!-- Node15 -->
<g id="node15" class="node">
<title>Node15</title>
<g id="a_node15"><a xlink:title=" ">
<polygon fill="none" stroke="#bfbfbf" points="1157,-129 1157,-148 1221,-148 1221,-129 1157,-129"/>
<text text-anchor="middle" x="1189" y="-136" font-family="Helvetica,sans-Serif" font-size="10.00">algorithm</text>
</a>
</g>
</g>
<!-- Node2&#45;&gt;Node15 -->
<g id="edge16" class="edge">
<title>Node2&#45;&gt;Node15</title>
<path fill="none" stroke="midnightblue" d="M854.5,-195.3C919.6,-189.54 1041.34,-176.67 1143,-154 1146.84,-153.14 1150.83,-152.11 1154.77,-151"/>
<polygon fill="midnightblue" stroke="midnightblue" points="1155.81,-154.34 1164.38,-148.12 1153.8,-147.64 1155.81,-154.34"/>
</g>
<!-- Node16 -->
<g id="node16" class="node">
<title>Node16</title>
<g id="a_node16"><a xlink:title=" ">
<polygon fill="none" stroke="#bfbfbf" points="240.5,-129 240.5,-148 287.5,-148 287.5,-129 240.5,-129"/>
<text text-anchor="middle" x="264" y="-136" font-family="Helvetica,sans-Serif" font-size="10.00">cmath</text>
</a>
</g>
</g>
<!-- Node2&#45;&gt;Node16 -->
<g id="edge18" class="edge">
<title>Node2&#45;&gt;Node16</title>
<path fill="none" stroke="midnightblue" d="M761.31,-196.91C652.22,-191.7 383.28,-176.9 296,-154 293.84,-153.43 291.65,-152.73 289.47,-151.95"/>
<polygon fill="midnightblue" stroke="midnightblue" points="290.8,-148.71 280.22,-148.13 288.12,-155.18 290.8,-148.71"/>
</g>
<!-- Node17 -->
<g id="node17" class="node">
<title>Node17</title>
<g id="a_node17"><a xlink:title=" ">
<polygon fill="none" stroke="#bfbfbf" points="305.5,-129 305.5,-148 370.5,-148 370.5,-129 305.5,-129"/>
<text text-anchor="middle" x="338" y="-136" font-family="Helvetica,sans-Serif" font-size="10.00">functional</text>
</a>
</g>
</g>
<!-- Node2&#45;&gt;Node17 -->
<g id="edge20" class="edge">
<title>Node2&#45;&gt;Node17</title>
<path fill="none" stroke="midnightblue" d="M761.39,-197.69C681.99,-194.68 515.78,-184.91 379,-154 375.76,-153.27 372.42,-152.36 369.12,-151.36"/>
<polygon fill="midnightblue" stroke="midnightblue" points="370.02,-147.97 359.42,-148.15 367.82,-154.61 370.02,-147.97"/>
</g>
<!-- Node18 -->
<g id="node18" class="node">
<title>Node18</title>
<g id="a_node18"><a xlink:title=" ">
<polygon fill="none" stroke="#bfbfbf" points="388.5,-129 388.5,-148 471.5,-148 471.5,-129 388.5,-129"/>
<text text-anchor="middle" x="430" y="-136" font-family="Helvetica,sans-Serif" font-size="10.00">initializer_list</text>
</a>
</g>
</g>
<!-- Node2&#45;&gt;Node18 -->
<g id="edge21" class="edge">
<title>Node2&#45;&gt;Node18</title>
<path fill="none" stroke="midnightblue" d="M761.35,-194.66C697.58,-188.26 579.85,-174.75 481,-154 476.52,-153.06 471.86,-151.94 467.25,-150.74"/>
<polygon fill="midnightblue" stroke="midnightblue" points="467.92,-147.29 457.35,-148.04 466.08,-154.05 467.92,-147.29"/>
</g>
<!-- Node19 -->
<g id="node19" class="node">
<title>Node19</title>
<g id="a_node19"><a xlink:title=" ">
<polygon fill="none" stroke="#bfbfbf" points="490,-129 490,-148 546,-148 546,-129 490,-129"/>
<text text-anchor="middle" x="518" y="-136" font-family="Helvetica,sans-Serif" font-size="10.00">numeric</text>
</a>
</g>
</g>
<!-- Node2&#45;&gt;Node19 -->
<g id="edge23" class="edge">
<title>Node2&#45;&gt;Node19</title>
<path fill="none" stroke="midnightblue" d="M761.21,-193.49C709.96,-186.81 625.64,-173.91 555,-154 552.41,-153.27 549.76,-152.43 547.11,-151.52"/>
<polygon fill="midnightblue" stroke="midnightblue" points="548.32,-148.24 537.72,-148.06 545.9,-154.8 548.32,-148.24"/>
</g>
<!-- Node20 -->
<g id="node20" class="node">
<title>Node20</title>
<g id="a_node20"><a xlink:title=" ">
<polygon fill="none" stroke="#bfbfbf" points="564.5,-129 564.5,-148 633.5,-148 633.5,-129 564.5,-129"/>
<text text-anchor="middle" x="599" y="-136" font-family="Helvetica,sans-Serif" font-size="10.00">type_traits</text>
</a>
</g>
</g>
<!-- Node2&#45;&gt;Node20 -->
<g id="edge24" class="edge">
<title>Node2&#45;&gt;Node20</title>
<path fill="none" stroke="midnightblue" d="M774.13,-190.46C740.46,-181.82 687.43,-167.8 642,-154 639.08,-153.11 636.06,-152.16 633.03,-151.19"/>
<polygon fill="midnightblue" stroke="midnightblue" points="634.07,-147.84 623.48,-148.04 631.88,-154.49 634.07,-147.84"/>
</g>
<!-- Node2&#45;&gt;Node21 -->
<g id="edge25" class="edge">
<title>Node2&#45;&gt;Node21</title>
<path fill="none" stroke="midnightblue" d="M854.74,-198.67C933.49,-197.09 1097.03,-189.39 1230,-154 1232.3,-153.39 1234.64,-152.64 1236.96,-151.81"/>
<polygon fill="midnightblue" stroke="midnightblue" points="1238.28,-155.05 1246.23,-148.06 1235.65,-148.56 1238.28,-155.05"/>
</g>
<!-- Node6 -->
<g id="node6" class="node">
<title>Node6</title>
<g id="a_node6"><a xlink:href="device__qualifier_8hpp.html" target="_top" xlink:title=" ">
<polygon fill="none" stroke="black" points="68,-62 68,-81 184,-81 184,-62 68,-62"/>
<text text-anchor="middle" x="126" y="-69" font-family="Helvetica,sans-Serif" font-size="10.00">device_qualifier.hpp</text>
</a>
</g>
</g>
<!-- Node5&#45;&gt;Node6 -->
<g id="edge5" class="edge">
<title>Node5&#45;&gt;Node6</title>
<path fill="none" stroke="midnightblue" d="M993.52,-128.95C985.41,-126.65 976.41,-124.41 968,-123 892.69,-110.39 381.25,-84.81 194.28,-75.76"/>
<polygon fill="midnightblue" stroke="midnightblue" points="194.18,-72.25 184.03,-75.27 193.85,-79.24 194.18,-72.25"/>
</g>
<!-- Node5&#45;&gt;Node7 -->
<g id="edge11" class="edge">
<title>Node5&#45;&gt;Node7</title>
<path fill="none" stroke="midnightblue" d="M992.39,-128.95C984.57,-126.76 976,-124.58 968,-123 834.08,-96.59 798.12,-106.35 663,-87 508.36,-64.86 325.03,-31.86 248.45,-17.77"/>
<polygon fill="midnightblue" stroke="midnightblue" points="248.83,-14.28 238.36,-15.91 247.56,-21.17 248.83,-14.28"/>
</g>
<!-- Node8 -->
<g id="node8" class="node">
<title>Node8</title>
<g id="a_node8"><a xlink:href="get_8hpp.html" target="_top" xlink:title=" ">
<polygon fill="none" stroke="black" points="672.5,-62 672.5,-81 725.5,-81 725.5,-62 672.5,-62"/>
<text text-anchor="middle" x="699" y="-69" font-family="Helvetica,sans-Serif" font-size="10.00">get.hpp</text>
</a>
</g>
</g>
<!-- Node5&#45;&gt;Node8 -->
<g id="edge7" class="edge">
<title>Node5&#45;&gt;Node8</title>
<path fill="none" stroke="midnightblue" d="M991.82,-128.98C984.14,-126.84 975.79,-124.68 968,-123 865.14,-100.83 835.34,-115.34 734,-87 731.56,-86.32 729.06,-85.51 726.58,-84.64"/>
<polygon fill="midnightblue" stroke="midnightblue" points="727.82,-81.37 717.23,-81.02 725.3,-87.89 727.82,-81.37"/>
</g>
<!-- Node5&#45;&gt;Node9 -->
<g id="edge12" class="edge">
<title>Node5&#45;&gt;Node9</title>
<path fill="none" stroke="midnightblue" d="M990.76,-128.97C944.16,-115.32 858.06,-89.79 856,-87 827.13,-47.9 905.82,-26.24 955.28,-16.81"/>
<polygon fill="midnightblue" stroke="midnightblue" points="956.13,-20.21 965.34,-14.98 954.87,-13.32 956.13,-20.21"/>
</g>
<!-- Node11 -->
<g id="node11" class="node">
<title>Node11</title>
<g id="a_node11"><a xlink:title=" ">
<polygon fill="none" stroke="#bfbfbf" points="865.5,-56.5 865.5,-86.5 972.5,-86.5 972.5,-56.5 865.5,-56.5"/>
<text text-anchor="start" x="873.5" y="-74.5" font-family="Helvetica,sans-Serif" font-size="10.00">boost/serialization</text>
<text text-anchor="middle" x="919" y="-63.5" font-family="Helvetica,sans-Serif" font-size="10.00">/access.hpp</text>
</a>
</g>
</g>
<!-- Node5&#45;&gt;Node11 -->
<g id="edge10" class="edge">
<title>Node5&#45;&gt;Node11</title>
<path fill="none" stroke="midnightblue" d="M1006.38,-128.73C991.88,-119.4 968.45,-104.32 949.5,-92.13"/>
<polygon fill="midnightblue" stroke="midnightblue" points="951.2,-89.06 940.89,-86.59 947.41,-94.94 951.2,-89.06"/>
</g>
<!-- Node5&#45;&gt;Node12 -->
<g id="edge13" class="edge">
<title>Node5&#45;&gt;Node12</title>
<path fill="none" stroke="midnightblue" d="M1029.71,-128.73C1041.26,-118.31 1060.75,-100.71 1074.86,-87.97"/>
<polygon fill="midnightblue" stroke="midnightblue" points="1077.37,-90.43 1082.44,-81.13 1072.68,-85.23 1077.37,-90.43"/>
</g>
<!-- Node13 -->
<g id="node13" class="node">
<title>Node13</title>
<g id="a_node13"><a xlink:title=" ">
<polygon fill="none" stroke="#bfbfbf" points="990.5,-62 990.5,-81 1047.5,-81 1047.5,-62 990.5,-62"/>
<text text-anchor="middle" x="1019" y="-69" font-family="Helvetica,sans-Serif" font-size="10.00">ostream</text>
</a>
</g>
</g>
<!-- Node5&#45;&gt;Node13 -->
<g id="edge14" class="edge">
<title>Node5&#45;&gt;Node13</title>
<path fill="none" stroke="midnightblue" d="M1019.87,-128.73C1019.72,-119.18 1019.48,-103.62 1019.29,-91.28"/>
<polygon fill="midnightblue" stroke="midnightblue" points="1022.79,-91.07 1019.13,-81.13 1015.79,-91.18 1022.79,-91.07"/>
</g>
<!-- Node14 -->
<g id="node14" class="node">
<title>Node14</title>
<g id="a_node14"><a xlink:title=" ">
<polygon fill="none" stroke="#bfbfbf" points="743.5,-62 743.5,-81 808.5,-81 808.5,-62 743.5,-62"/>
<text text-anchor="middle" x="776" y="-69" font-family="Helvetica,sans-Serif" font-size="10.00">stdexcept</text>
</a>
</g>
</g>
<!-- Node5&#45;&gt;Node14 -->
<g id="edge15" class="edge">
<title>Node5&#45;&gt;Node14</title>
<path fill="none" stroke="midnightblue" d="M990.07,-129C982.85,-126.99 975.16,-124.89 968,-123 903.79,-106.08 886.97,-104.79 823,-87 819.61,-86.06 816.09,-85.04 812.57,-84"/>
<polygon fill="midnightblue" stroke="midnightblue" points="813.35,-80.58 802.77,-81.04 811.33,-87.28 813.35,-80.58"/>
</g>
<!-- Node6&#45;&gt;Node7 -->
<g id="edge6" class="edge">
<title>Node6&#45;&gt;Node7</title>
<path fill="none" stroke="midnightblue" d="M138.32,-61.98C152.12,-52.43 174.7,-36.81 191.23,-25.37"/>
<polygon fill="midnightblue" stroke="midnightblue" points="193.47,-28.08 199.7,-19.51 189.49,-22.32 193.47,-28.08"/>
</g>
<!-- Node8&#45;&gt;Node9 -->
<g id="edge8" class="edge">
<title>Node8&#45;&gt;Node9</title>
<path fill="none" stroke="midnightblue" d="M717.62,-61.9C722.84,-59.73 728.57,-57.58 734,-56 811.04,-33.62 904.45,-20.71 955.06,-14.85"/>
<polygon fill="midnightblue" stroke="midnightblue" points="955.65,-18.31 965.19,-13.71 954.86,-11.35 955.65,-18.31"/>
</g>
<!-- Node10 -->
<g id="node10" class="node">
<title>Node10</title>
<g id="a_node10"><a xlink:title=" ">
<polygon fill="none" stroke="#bfbfbf" points="678.5,-0.5 678.5,-19.5 719.5,-19.5 719.5,-0.5 678.5,-0.5"/>
<text text-anchor="middle" x="699" y="-7.5" font-family="Helvetica,sans-Serif" font-size="10.00">tuple</text>
</a>
</g>
</g>
<!-- Node8&#45;&gt;Node10 -->
<g id="edge9" class="edge">
<title>Node8&#45;&gt;Node10</title>
<path fill="none" stroke="midnightblue" d="M699,-61.98C699,-53.58 699,-40.48 699,-29.66"/>
<polygon fill="midnightblue" stroke="midnightblue" points="702.5,-29.51 699,-19.51 695.5,-29.51 702.5,-29.51"/>
</g>
<!-- Node22&#45;&gt;Node6 -->
<g id="edge27" class="edge">
<title>Node22&#45;&gt;Node6</title>
<path fill="none" stroke="midnightblue" d="M148.35,-190.31C144.5,-169.99 134.83,-119.05 129.56,-91.28"/>
<polygon fill="midnightblue" stroke="midnightblue" points="132.96,-90.43 127.66,-81.26 126.09,-91.73 132.96,-90.43"/>
</g>
<!-- Node23 -->
<g id="node23" class="node">
<title>Node23</title>
<g id="a_node23"><a xlink:title=" ">
<polygon fill="none" stroke="#bfbfbf" points="0,-123.5 0,-153.5 122,-153.5 122,-123.5 0,-123.5"/>
<text text-anchor="start" x="8" y="-141.5" font-family="Helvetica,sans-Serif" font-size="10.00">boost/math/constants</text>
<text text-anchor="middle" x="61" y="-130.5" font-family="Helvetica,sans-Serif" font-size="10.00">/constants.hpp</text>
</a>
</g>
</g>
<!-- Node22&#45;&gt;Node23 -->
<g id="edge28" class="edge">
<title>Node22&#45;&gt;Node23</title>
<path fill="none" stroke="midnightblue" d="M137.25,-190.48C125.08,-182.34 106.31,-169.79 90.44,-159.18"/>
<polygon fill="midnightblue" stroke="midnightblue" points="92.23,-156.17 81.98,-153.52 88.34,-161.99 92.23,-156.17"/>
</g>
<!-- Node25 -->
<g id="node25" class="node">
<title>Node25</title>
<g id="a_node25"><a xlink:title=" ">
<polygon fill="none" stroke="#bfbfbf" points="1425,-129 1425,-148 1487,-148 1487,-129 1425,-129"/>
<text text-anchor="middle" x="1456" y="-136" font-family="Helvetica,sans-Serif" font-size="10.00">cinttypes</text>
</a>
</g>
</g>
<!-- Node24&#45;&gt;Node25 -->
<g id="edge30" class="edge">
<title>Node24&#45;&gt;Node25</title>
<path fill="none" stroke="midnightblue" d="M1510.83,-190.48C1500.85,-181.2 1484.69,-166.17 1472.49,-154.83"/>
<polygon fill="midnightblue" stroke="midnightblue" points="1474.86,-152.25 1465.15,-148.01 1470.09,-157.38 1474.86,-152.25"/>
</g>
<!-- Node26 -->
<g id="node26" class="node">
<title>Node26</title>
<g id="a_node26"><a xlink:title=" ">
<polygon fill="none" stroke="#bfbfbf" points="1505.5,-129 1505.5,-148 1550.5,-148 1550.5,-129 1505.5,-129"/>
<text text-anchor="middle" x="1528" y="-136" font-family="Helvetica,sans-Serif" font-size="10.00">utility</text>
</a>
</g>
</g>
<!-- Node24&#45;&gt;Node26 -->
<g id="edge31" class="edge">
<title>Node24&#45;&gt;Node26</title>
<path fill="none" stroke="midnightblue" d="M1521.15,-190.48C1522.27,-182.08 1524.04,-168.98 1525.49,-158.16"/>
<polygon fill="midnightblue" stroke="midnightblue" points="1528.99,-158.39 1526.86,-148.01 1522.05,-157.45 1528.99,-158.39"/>
</g>
<!-- Node27&#45;&gt;Node25 -->
<g id="edge33" class="edge">
<title>Node27&#45;&gt;Node25</title>
<path fill="none" stroke="midnightblue" d="M1402.03,-190.48C1411.76,-181.28 1427.46,-166.46 1439.42,-155.16"/>
<polygon fill="midnightblue" stroke="midnightblue" points="1442.12,-157.42 1446.99,-148.01 1437.32,-152.33 1442.12,-157.42"/>
</g>
<!-- Node28 -->
<g id="node28" class="node">
<title>Node28</title>
<g id="a_node28"><a xlink:title=" ">
<polygon fill="none" stroke="#bfbfbf" points="1363,-129 1363,-148 1407,-148 1407,-129 1363,-129"/>
<text text-anchor="middle" x="1385" y="-136" font-family="Helvetica,sans-Serif" font-size="10.00">limits</text>
</a>
</g>
</g>
<!-- Node27&#45;&gt;Node28 -->
<g id="edge34" class="edge">
<title>Node27&#45;&gt;Node28</title>
<path fill="none" stroke="midnightblue" d="M1391.85,-190.48C1390.73,-182.08 1388.96,-168.98 1387.51,-158.16"/>
<polygon fill="midnightblue" stroke="midnightblue" points="1390.95,-157.45 1386.14,-148.01 1384.01,-158.39 1390.95,-157.45"/>
</g>
</g>
</svg>
