<?xml version="1.0" encoding="UTF-8" standalone="no"?>
<!DOCTYPE svg PUBLIC "-//W3C//DTD SVG 1.1//EN"
 "http://www.w3.org/Graphics/SVG/1.1/DTD/svg11.dtd">
<!-- Generated by graphviz version 2.43.0 (0)
 -->
<!-- Title: raster.hpp Pages: 1 -->
<!--zoomable 285 -->
<svg id="main" version="1.1" xmlns="http://www.w3.org/2000/svg" xmlns:xlink="http://www.w3.org/1999/xlink" xml:space="preserve" onload="init(evt)">
<style type="text/css"><![CDATA[
.edge:hover path { stroke: red; }
.edge:hover polygon { stroke: red; fill: red; }
]]></style>
<script type="text/javascript"><![CDATA[
var edges = document.getElementsByTagName('g');
if (edges && edges.length) {
  for (var i=0;i<edges.length;i++) {
    if (edges[i].id.substr(0,4)=='edge') {
      edges[i].setAttribute('class','edge');
    }
  }
}
]]></script>
        <defs>
                <circle id="rim" cx="0" cy="0" r="7"/>
                <circle id="rim2" cx="0" cy="0" r="3.5"/>
                <g id="zoomPlus">
                        <use xlink:href="#rim" fill="#404040">
                                <set attributeName="fill" to="#808080" begin="zoomplus.mouseover" end="zoomplus.mouseout"/>
                        </use>
                        <path d="M-4,0h8M0,-4v8" fill="none" stroke="white" stroke-width="1.5" pointer-events="none"/>
                </g>
                <g id="zoomMin">
                        <use xlink:href="#rim" fill="#404040">
                                <set attributeName="fill" to="#808080" begin="zoomminus.mouseover" end="zoomminus.mouseout"/>
                        </use>
                        <path d="M-4,0h8" fill="none" stroke="white" stroke-width="1.5" pointer-events="none"/>
                </g>
                <g id="dirArrow">
                        <path fill="none" stroke="white" stroke-width="1.5" d="M0,-3.0v7 M-2.5,-0.5L0,-3.0L2.5,-0.5"/>
                </g>
               <g id="resetDef">
                       <use xlink:href="#rim2" fill="#404040">
                               <set attributeName="fill" to="#808080" begin="reset.mouseover" end="reset.mouseout"/>
                       </use>
               </g>
        </defs>

<script type="text/javascript">
var viewWidth = 1620;
var viewHeight = 285;
var sectionId = 'dynsection-0';
</script>
<script xlink:href="svgpan.js"/>
<svg id="graph" class="graph">
<g id="viewport">
<title>raster.hpp</title>
<!-- Node1 -->
<g id="node1" class="node">
<title>Node1</title>
<g id="a_node1"><a xlink:title=" ">
<polygon fill="#bfbfbf" stroke="black" points="992,-257.5 992,-276.5 1058,-276.5 1058,-257.5 992,-257.5"/>
<text text-anchor="middle" x="1025" y="-264.5" font-family="Helvetica,sans-Serif" font-size="10.00">raster.hpp</text>
</a>
</g>
</g>
<!-- Node2 -->
<g id="node2" class="node">
<title>Node2</title>
<g id="a_node2"><a xlink:href="Vector_8hpp.html" target="_top" xlink:title=" ">
<polygon fill="none" stroke="black" points="978.5,-196 978.5,-215 1071.5,-215 1071.5,-196 978.5,-196"/>
<text text-anchor="middle" x="1025" y="-203" font-family="Helvetica,sans-Serif" font-size="10.00">utils/Vector.hpp</text>
</a>
</g>
</g>
<!-- Node1&#45;&gt;Node2 -->
<g id="edge1" class="edge">
<title>Node1&#45;&gt;Node2</title>
<path fill="none" stroke="midnightblue" d="M1025,-257.48C1025,-249.08 1025,-235.98 1025,-225.16"/>
<polygon fill="midnightblue" stroke="midnightblue" points="1028.5,-225.01 1025,-215.01 1021.5,-225.01 1028.5,-225.01"/>
</g>
<!-- Node22 -->
<g id="node22" class="node">
<title>Node22</title>
<g id="a_node22"><a xlink:href="make__lin__space_8hpp.html" target="_top" xlink:title=" ">
<polygon fill="none" stroke="black" points="298.5,-190.5 298.5,-220.5 411.5,-220.5 411.5,-190.5 298.5,-190.5"/>
<text text-anchor="start" x="306.5" y="-208.5" font-family="Helvetica,sans-Serif" font-size="10.00">utils/math/make_lin</text>
<text text-anchor="middle" x="355" y="-197.5" font-family="Helvetica,sans-Serif" font-size="10.00">_space.hpp</text>
</a>
</g>
</g>
<!-- Node1&#45;&gt;Node22 -->
<g id="edge26" class="edge">
<title>Node1&#45;&gt;Node22</title>
<path fill="none" stroke="midnightblue" d="M991.77,-263.05C887.19,-253.76 563.33,-225 422.05,-212.45"/>
<polygon fill="midnightblue" stroke="midnightblue" points="422.06,-208.94 411.79,-211.54 421.45,-215.91 422.06,-208.94"/>
</g>
<!-- Node26 -->
<g id="node26" class="node">
<title>Node26</title>
<g id="a_node26"><a xlink:title=" ">
<polygon fill="none" stroke="#bfbfbf" points="1090,-196 1090,-215 1212,-215 1212,-196 1090,-196"/>
<text text-anchor="middle" x="1151" y="-203" font-family="Helvetica,sans-Serif" font-size="10.00">boost/multi_array.hpp</text>
</a>
</g>
</g>
<!-- Node1&#45;&gt;Node26 -->
<g id="edge31" class="edge">
<title>Node1&#45;&gt;Node26</title>
<path fill="none" stroke="midnightblue" d="M1043.05,-257.48C1064.2,-247.49 1099.44,-230.85 1123.88,-219.31"/>
<polygon fill="midnightblue" stroke="midnightblue" points="1125.43,-222.44 1132.98,-215.01 1122.44,-216.11 1125.43,-222.44"/>
</g>
<!-- Node3 -->
<g id="node3" class="node">
<title>Node3</title>
<g id="a_node3"><a xlink:title=" ">
<polygon fill="none" stroke="#bfbfbf" points="1267,-129 1267,-148 1417,-148 1417,-129 1267,-129"/>
<text text-anchor="middle" x="1342" y="-136" font-family="Helvetica,sans-Serif" font-size="10.00">boost/qvm/deduce_vec.hpp</text>
</a>
</g>
</g>
<!-- Node2&#45;&gt;Node3 -->
<g id="edge2" class="edge">
<title>Node2&#45;&gt;Node3</title>
<path fill="none" stroke="midnightblue" d="M1056.61,-195.95C1064.55,-193.9 1073.07,-191.79 1081,-190 1150.15,-174.37 1230.28,-159.32 1283.32,-149.78"/>
<polygon fill="midnightblue" stroke="midnightblue" points="1284,-153.21 1293.23,-148 1282.77,-146.32 1284,-153.21"/>
</g>
<!-- Node4 -->
<g id="node4" class="node">
<title>Node4</title>
<g id="a_node4"><a xlink:title=" ">
<polygon fill="none" stroke="#bfbfbf" points="1435,-129 1435,-148 1575,-148 1575,-129 1435,-129"/>
<text text-anchor="middle" x="1505" y="-136" font-family="Helvetica,sans-Serif" font-size="10.00">boost/qvm/vec_traits.hpp</text>
</a>
</g>
</g>
<!-- Node2&#45;&gt;Node4 -->
<g id="edge3" class="edge">
<title>Node2&#45;&gt;Node4</title>
<path fill="none" stroke="midnightblue" d="M1054.46,-195.99C1062.97,-193.77 1072.3,-191.57 1081,-190 1232.71,-162.6 1273.4,-175.93 1426,-154 1434.43,-152.79 1443.34,-151.33 1452.01,-149.81"/>
<polygon fill="midnightblue" stroke="midnightblue" points="1452.82,-153.22 1462.05,-148.01 1451.59,-146.33 1452.82,-153.22"/>
</g>
<!-- Node5 -->
<g id="node5" class="node">
<title>Node5</title>
<g id="a_node5"><a xlink:href="Array_8hpp.html" target="_top" xlink:title=" ">
<polygon fill="none" stroke="black" points="605,-129 605,-148 691,-148 691,-129 605,-129"/>
<text text-anchor="middle" x="648" y="-136" font-family="Helvetica,sans-Serif" font-size="10.00">utils/Array.hpp</text>
</a>
</g>
</g>
<!-- Node2&#45;&gt;Node5 -->
<g id="edge4" class="edge">
<title>Node2&#45;&gt;Node5</title>
<path fill="none" stroke="midnightblue" d="M978.4,-199.01C915,-191.15 798.23,-175.25 700,-154 695.5,-153.03 690.81,-151.89 686.17,-150.69"/>
<polygon fill="midnightblue" stroke="midnightblue" points="686.75,-147.23 676.19,-148.01 684.94,-153.99 686.75,-147.23"/>
</g>
<!-- Node7 -->
<g id="node7" class="node">
<title>Node7</title>
<g id="a_node7"><a xlink:title=" ">
<polygon fill="none" stroke="#bfbfbf" points="1017,-0.5 1017,-19.5 1069,-19.5 1069,-0.5 1017,-0.5"/>
<text text-anchor="middle" x="1043" y="-7.5" font-family="Helvetica,sans-Serif" font-size="10.00">cassert</text>
</a>
</g>
</g>
<!-- Node2&#45;&gt;Node7 -->
<g id="edge17" class="edge">
<title>Node2&#45;&gt;Node7</title>
<path fill="none" stroke="midnightblue" d="M1053.85,-195.95C1062.51,-193.67 1072.08,-191.45 1081,-190 1138.38,-180.67 1563.33,-196.5 1603,-154 1678,-73.65 1214.56,-26.1 1079.29,-14.05"/>
<polygon fill="midnightblue" stroke="midnightblue" points="1079.3,-10.54 1069.03,-13.15 1078.69,-17.51 1079.3,-10.54"/>
</g>
<!-- Node9 -->
<g id="node9" class="node">
<title>Node9</title>
<g id="a_node9"><a xlink:title=" ">
<polygon fill="none" stroke="#bfbfbf" points="470.5,-0.5 470.5,-19.5 523.5,-19.5 523.5,-0.5 470.5,-0.5"/>
<text text-anchor="middle" x="497" y="-7.5" font-family="Helvetica,sans-Serif" font-size="10.00">cstddef</text>
</a>
</g>
</g>
<!-- Node2&#45;&gt;Node9 -->
<g id="edge19" class="edge">
<title>Node2&#45;&gt;Node9</title>
<path fill="none" stroke="midnightblue" d="M978.4,-202.18C882.09,-196.87 664.42,-182.09 596,-154 551.18,-135.6 534.88,-128.58 510,-87 499.6,-69.62 496.95,-46.24 496.53,-30.02"/>
<polygon fill="midnightblue" stroke="midnightblue" points="500.03,-29.67 496.53,-19.67 493.03,-29.67 500.03,-29.67"/>
</g>
<!-- Node12 -->
<g id="node12" class="node">
<title>Node12</title>
<g id="a_node12"><a xlink:title=" ">
<polygon fill="none" stroke="#bfbfbf" points="1340.5,-62 1340.5,-81 1393.5,-81 1393.5,-62 1340.5,-62"/>
<text text-anchor="middle" x="1367" y="-69" font-family="Helvetica,sans-Serif" font-size="10.00">iterator</text>
</a>
</g>
</g>
<!-- Node2&#45;&gt;Node12 -->
<g id="edge22" class="edge">
<title>Node2&#45;&gt;Node12</title>
<path fill="none" stroke="midnightblue" d="M1053.85,-195.96C1062.51,-193.69 1072.08,-191.46 1081,-190 1136.29,-180.94 1545.82,-195.01 1584,-154 1638.34,-95.63 1478.5,-78.79 1403.53,-74.16"/>
<polygon fill="midnightblue" stroke="midnightblue" points="1403.73,-70.67 1393.54,-73.59 1403.32,-77.66 1403.73,-70.67"/>
</g>
<!-- Node15 -->
<g id="node15" class="node">
<title>Node15</title>
<g id="a_node15"><a xlink:title=" ">
<polygon fill="none" stroke="#bfbfbf" points="709,-129 709,-148 773,-148 773,-129 709,-129"/>
<text text-anchor="middle" x="741" y="-136" font-family="Helvetica,sans-Serif" font-size="10.00">algorithm</text>
</a>
</g>
</g>
<!-- Node2&#45;&gt;Node15 -->
<g id="edge16" class="edge">
<title>Node2&#45;&gt;Node15</title>
<path fill="none" stroke="midnightblue" d="M978.19,-196.55C929.13,-187.8 850.03,-172.48 783,-154 779.97,-153.17 776.85,-152.23 773.73,-151.25"/>
<polygon fill="midnightblue" stroke="midnightblue" points="774.54,-147.83 763.94,-148.01 772.34,-154.47 774.54,-147.83"/>
</g>
<!-- Node16 -->
<g id="node16" class="node">
<title>Node16</title>
<g id="a_node16"><a xlink:title=" ">
<polygon fill="none" stroke="#bfbfbf" points="791.5,-129 791.5,-148 838.5,-148 838.5,-129 791.5,-129"/>
<text text-anchor="middle" x="815" y="-136" font-family="Helvetica,sans-Serif" font-size="10.00">cmath</text>
</a>
</g>
</g>
<!-- Node2&#45;&gt;Node16 -->
<g id="edge18" class="edge">
<title>Node2&#45;&gt;Node16</title>
<path fill="none" stroke="midnightblue" d="M989.63,-195.92C953.57,-186.83 896.25,-171.39 848,-154 846.34,-153.4 844.65,-152.76 842.95,-152.09"/>
<polygon fill="midnightblue" stroke="midnightblue" points="843.9,-148.7 833.32,-148.08 841.2,-155.16 843.9,-148.7"/>
</g>
<!-- Node17 -->
<g id="node17" class="node">
<title>Node17</title>
<g id="a_node17"><a xlink:title=" ">
<polygon fill="none" stroke="#bfbfbf" points="856.5,-129 856.5,-148 921.5,-148 921.5,-129 856.5,-129"/>
<text text-anchor="middle" x="889" y="-136" font-family="Helvetica,sans-Serif" font-size="10.00">functional</text>
</a>
</g>
</g>
<!-- Node2&#45;&gt;Node17 -->
<g id="edge20" class="edge">
<title>Node2&#45;&gt;Node17</title>
<path fill="none" stroke="midnightblue" d="M1006.94,-195.87C983.77,-184.8 943.37,-165.49 916.4,-152.6"/>
<polygon fill="midnightblue" stroke="midnightblue" points="917.67,-149.32 907.13,-148.17 914.65,-155.64 917.67,-149.32"/>
</g>
<!-- Node18 -->
<g id="node18" class="node">
<title>Node18</title>
<g id="a_node18"><a xlink:title=" ">
<polygon fill="none" stroke="#bfbfbf" points="939.5,-129 939.5,-148 1022.5,-148 1022.5,-129 939.5,-129"/>
<text text-anchor="middle" x="981" y="-136" font-family="Helvetica,sans-Serif" font-size="10.00">initializer_list</text>
</a>
</g>
</g>
<!-- Node2&#45;&gt;Node18 -->
<g id="edge21" class="edge">
<title>Node2&#45;&gt;Node18</title>
<path fill="none" stroke="midnightblue" d="M1019.07,-195.73C1012.27,-185.7 1000.98,-169.01 992.45,-156.42"/>
<polygon fill="midnightblue" stroke="midnightblue" points="995.34,-154.45 986.84,-148.13 989.55,-158.37 995.34,-154.45"/>
</g>
<!-- Node19 -->
<g id="node19" class="node">
<title>Node19</title>
<g id="a_node19"><a xlink:title=" ">
<polygon fill="none" stroke="#bfbfbf" points="1041,-129 1041,-148 1097,-148 1097,-129 1041,-129"/>
<text text-anchor="middle" x="1069" y="-136" font-family="Helvetica,sans-Serif" font-size="10.00">numeric</text>
</a>
</g>
</g>
<!-- Node2&#45;&gt;Node19 -->
<g id="edge23" class="edge">
<title>Node2&#45;&gt;Node19</title>
<path fill="none" stroke="midnightblue" d="M1030.93,-195.73C1037.73,-185.7 1049.02,-169.01 1057.55,-156.42"/>
<polygon fill="midnightblue" stroke="midnightblue" points="1060.45,-158.37 1063.16,-148.13 1054.66,-154.45 1060.45,-158.37"/>
</g>
<!-- Node20 -->
<g id="node20" class="node">
<title>Node20</title>
<g id="a_node20"><a xlink:title=" ">
<polygon fill="none" stroke="#bfbfbf" points="1115.5,-129 1115.5,-148 1184.5,-148 1184.5,-129 1115.5,-129"/>
<text text-anchor="middle" x="1150" y="-136" font-family="Helvetica,sans-Serif" font-size="10.00">type_traits</text>
</a>
</g>
</g>
<!-- Node2&#45;&gt;Node20 -->
<g id="edge24" class="edge">
<title>Node2&#45;&gt;Node20</title>
<path fill="none" stroke="midnightblue" d="M1041.6,-195.87C1062.71,-184.89 1099.38,-165.82 1124.16,-152.94"/>
<polygon fill="midnightblue" stroke="midnightblue" points="1126.07,-155.89 1133.33,-148.17 1122.85,-149.68 1126.07,-155.89"/>
</g>
<!-- Node21 -->
<g id="node21" class="node">
<title>Node21</title>
<g id="a_node21"><a xlink:title=" ">
<polygon fill="none" stroke="#bfbfbf" points="1202.5,-129 1202.5,-148 1249.5,-148 1249.5,-129 1202.5,-129"/>
<text text-anchor="middle" x="1226" y="-136" font-family="Helvetica,sans-Serif" font-size="10.00">vector</text>
</a>
</g>
</g>
<!-- Node2&#45;&gt;Node21 -->
<g id="edge25" class="edge">
<title>Node2&#45;&gt;Node21</title>
<path fill="none" stroke="midnightblue" d="M1058.47,-195.93C1092.88,-186.79 1147.82,-171.27 1194,-154 1195.61,-153.4 1197.25,-152.75 1198.9,-152.08"/>
<polygon fill="midnightblue" stroke="midnightblue" points="1200.44,-155.23 1208.24,-148.06 1197.67,-148.8 1200.44,-155.23"/>
</g>
<!-- Node6 -->
<g id="node6" class="node">
<title>Node6</title>
<g id="a_node6"><a xlink:href="device__qualifier_8hpp.html" target="_top" xlink:title=" ">
<polygon fill="none" stroke="black" points="899,-62 899,-81 1015,-81 1015,-62 899,-62"/>
<text text-anchor="middle" x="957" y="-69" font-family="Helvetica,sans-Serif" font-size="10.00">device_qualifier.hpp</text>
</a>
</g>
</g>
<!-- Node5&#45;&gt;Node6 -->
<g id="edge5" class="edge">
<title>Node5&#45;&gt;Node6</title>
<path fill="none" stroke="midnightblue" d="M677.04,-128.93C684.49,-126.87 692.52,-124.75 700,-123 783.69,-103.44 805.77,-104.09 890,-87 895.9,-85.8 902.09,-84.51 908.22,-83.21"/>
<polygon fill="midnightblue" stroke="midnightblue" points="909.37,-86.54 918.42,-81.03 907.91,-79.7 909.37,-86.54"/>
</g>
<!-- Node5&#45;&gt;Node7 -->
<g id="edge11" class="edge">
<title>Node5&#45;&gt;Node7</title>
<path fill="none" stroke="midnightblue" d="M675.33,-128.99C683.23,-126.77 691.9,-124.57 700,-123 771.12,-109.23 969.45,-134.67 1024,-87 1040.13,-72.9 1043.6,-47.39 1043.89,-29.84"/>
<polygon fill="midnightblue" stroke="midnightblue" points="1047.39,-29.59 1043.72,-19.65 1040.39,-29.71 1047.39,-29.59"/>
</g>
<!-- Node8 -->
<g id="node8" class="node">
<title>Node8</title>
<g id="a_node8"><a xlink:href="get_8hpp.html" target="_top" xlink:title=" ">
<polygon fill="none" stroke="black" points="827.5,-62 827.5,-81 880.5,-81 880.5,-62 827.5,-62"/>
<text text-anchor="middle" x="854" y="-69" font-family="Helvetica,sans-Serif" font-size="10.00">get.hpp</text>
</a>
</g>
</g>
<!-- Node5&#45;&gt;Node8 -->
<g id="edge7" class="edge">
<title>Node5&#45;&gt;Node8</title>
<path fill="none" stroke="midnightblue" d="M678.37,-128.95C720.09,-117.13 792.95,-96.21 819,-87 820.86,-86.34 822.77,-85.64 824.68,-84.91"/>
<polygon fill="midnightblue" stroke="midnightblue" points="826.15,-88.09 834.15,-81.15 823.57,-81.59 826.15,-88.09"/>
</g>
<!-- Node5&#45;&gt;Node9 -->
<g id="edge12" class="edge">
<title>Node5&#45;&gt;Node9</title>
<path fill="none" stroke="midnightblue" d="M613.84,-128.93C589.4,-121.33 557.04,-108.1 535,-87 518.39,-71.1 507.92,-46.39 502.27,-29.49"/>
<polygon fill="midnightblue" stroke="midnightblue" points="505.54,-28.2 499.24,-19.68 498.85,-30.27 505.54,-28.2"/>
</g>
<!-- Node11 -->
<g id="node11" class="node">
<title>Node11</title>
<g id="a_node11"><a xlink:title=" ">
<polygon fill="none" stroke="#bfbfbf" points="544.5,-56.5 544.5,-86.5 651.5,-86.5 651.5,-56.5 544.5,-56.5"/>
<text text-anchor="start" x="552.5" y="-74.5" font-family="Helvetica,sans-Serif" font-size="10.00">boost/serialization</text>
<text text-anchor="middle" x="598" y="-63.5" font-family="Helvetica,sans-Serif" font-size="10.00">/access.hpp</text>
</a>
</g>
</g>
<!-- Node5&#45;&gt;Node11 -->
<g id="edge10" class="edge">
<title>Node5&#45;&gt;Node11</title>
<path fill="none" stroke="midnightblue" d="M641.26,-128.73C634.56,-120.03 624.03,-106.34 615.04,-94.65"/>
<polygon fill="midnightblue" stroke="midnightblue" points="617.71,-92.38 608.84,-86.59 612.16,-96.65 617.71,-92.38"/>
</g>
<!-- Node5&#45;&gt;Node12 -->
<g id="edge13" class="edge">
<title>Node5&#45;&gt;Node12</title>
<path fill="none" stroke="midnightblue" d="M674.76,-128.96C682.8,-126.68 691.69,-124.46 700,-123 822.83,-101.44 1209.01,-80.51 1330.22,-74.33"/>
<polygon fill="midnightblue" stroke="midnightblue" points="1330.65,-77.81 1340.46,-73.81 1330.3,-70.82 1330.65,-77.81"/>
</g>
<!-- Node13 -->
<g id="node13" class="node">
<title>Node13</title>
<g id="a_node13"><a xlink:title=" ">
<polygon fill="none" stroke="#bfbfbf" points="669.5,-62 669.5,-81 726.5,-81 726.5,-62 669.5,-62"/>
<text text-anchor="middle" x="698" y="-69" font-family="Helvetica,sans-Serif" font-size="10.00">ostream</text>
</a>
</g>
</g>
<!-- Node5&#45;&gt;Node13 -->
<g id="edge14" class="edge">
<title>Node5&#45;&gt;Node13</title>
<path fill="none" stroke="midnightblue" d="M654.74,-128.73C662.54,-118.6 675.55,-101.69 685.26,-89.06"/>
<polygon fill="midnightblue" stroke="midnightblue" points="688.04,-91.19 691.36,-81.13 682.49,-86.92 688.04,-91.19"/>
</g>
<!-- Node14 -->
<g id="node14" class="node">
<title>Node14</title>
<g id="a_node14"><a xlink:title=" ">
<polygon fill="none" stroke="#bfbfbf" points="744.5,-62 744.5,-81 809.5,-81 809.5,-62 744.5,-62"/>
<text text-anchor="middle" x="777" y="-69" font-family="Helvetica,sans-Serif" font-size="10.00">stdexcept</text>
</a>
</g>
</g>
<!-- Node5&#45;&gt;Node14 -->
<g id="edge15" class="edge">
<title>Node5&#45;&gt;Node14</title>
<path fill="none" stroke="midnightblue" d="M665.13,-128.87C687.01,-117.84 725.09,-98.66 750.67,-85.77"/>
<polygon fill="midnightblue" stroke="midnightblue" points="752.44,-88.79 759.8,-81.17 749.29,-82.54 752.44,-88.79"/>
</g>
<!-- Node6&#45;&gt;Node7 -->
<g id="edge6" class="edge">
<title>Node6&#45;&gt;Node7</title>
<path fill="none" stroke="midnightblue" d="M969.32,-61.98C983.12,-52.43 1005.7,-36.81 1022.23,-25.37"/>
<polygon fill="midnightblue" stroke="midnightblue" points="1024.47,-28.08 1030.7,-19.51 1020.49,-22.32 1024.47,-28.08"/>
</g>
<!-- Node8&#45;&gt;Node9 -->
<g id="edge8" class="edge">
<title>Node8&#45;&gt;Node9</title>
<path fill="none" stroke="midnightblue" d="M835.78,-61.93C830.47,-59.71 824.58,-57.52 819,-56 718.04,-28.51 594.46,-17.24 533.95,-13.11"/>
<polygon fill="midnightblue" stroke="midnightblue" points="533.96,-9.6 523.75,-12.44 533.5,-16.59 533.96,-9.6"/>
</g>
<!-- Node10 -->
<g id="node10" class="node">
<title>Node10</title>
<g id="a_node10"><a xlink:title=" ">
<polygon fill="none" stroke="#bfbfbf" points="833.5,-0.5 833.5,-19.5 874.5,-19.5 874.5,-0.5 833.5,-0.5"/>
<text text-anchor="middle" x="854" y="-7.5" font-family="Helvetica,sans-Serif" font-size="10.00">tuple</text>
</a>
</g>
</g>
<!-- Node8&#45;&gt;Node10 -->
<g id="edge9" class="edge">
<title>Node8&#45;&gt;Node10</title>
<path fill="none" stroke="midnightblue" d="M854,-61.98C854,-53.58 854,-40.48 854,-29.66"/>
<polygon fill="midnightblue" stroke="midnightblue" points="857.5,-29.51 854,-19.51 850.5,-29.51 857.5,-29.51"/>
</g>
<!-- Node22&#45;&gt;Node9 -->
<g id="edge30" class="edge">
<title>Node22&#45;&gt;Node9</title>
<path fill="none" stroke="midnightblue" d="M378.4,-190.46C391.94,-181.4 408.52,-168.61 420,-154 449.5,-116.46 439.97,-97.26 464,-56 469.73,-46.16 477.15,-35.88 483.5,-27.62"/>
<polygon fill="midnightblue" stroke="midnightblue" points="486.4,-29.61 489.85,-19.59 480.91,-25.27 486.4,-29.61"/>
</g>
<!-- Node23 -->
<g id="node23" class="node">
<title>Node23</title>
<g id="a_node23"><a xlink:title=" ">
<polygon fill="none" stroke="#bfbfbf" points="0,-123.5 0,-153.5 128,-153.5 128,-123.5 0,-123.5"/>
<text text-anchor="start" x="8" y="-141.5" font-family="Helvetica,sans-Serif" font-size="10.00">boost/iterator/counting</text>
<text text-anchor="middle" x="64" y="-130.5" font-family="Helvetica,sans-Serif" font-size="10.00">_iterator.hpp</text>
</a>
</g>
</g>
<!-- Node22&#45;&gt;Node23 -->
<g id="edge27" class="edge">
<title>Node22&#45;&gt;Node23</title>
<path fill="none" stroke="midnightblue" d="M298.2,-191.81C251.99,-181.49 186.48,-166.86 136.49,-155.69"/>
<polygon fill="midnightblue" stroke="midnightblue" points="137.23,-152.27 126.71,-153.51 135.71,-159.1 137.23,-152.27"/>
</g>
<!-- Node24 -->
<g id="node24" class="node">
<title>Node24</title>
<g id="a_node24"><a xlink:title=" ">
<polygon fill="none" stroke="#bfbfbf" points="146,-123.5 146,-153.5 280,-153.5 280,-123.5 146,-123.5"/>
<text text-anchor="start" x="154" y="-141.5" font-family="Helvetica,sans-Serif" font-size="10.00">boost/iterator/transform</text>
<text text-anchor="middle" x="213" y="-130.5" font-family="Helvetica,sans-Serif" font-size="10.00">_iterator.hpp</text>
</a>
</g>
</g>
<!-- Node22&#45;&gt;Node24 -->
<g id="edge28" class="edge">
<title>Node22&#45;&gt;Node24</title>
<path fill="none" stroke="midnightblue" d="M324.19,-190.4C303.35,-180.86 275.62,-168.16 253.07,-157.84"/>
<polygon fill="midnightblue" stroke="midnightblue" points="254.3,-154.56 243.75,-153.58 251.39,-160.92 254.3,-154.56"/>
</g>
<!-- Node25 -->
<g id="node25" class="node">
<title>Node25</title>
<g id="a_node25"><a xlink:title=" ">
<polygon fill="none" stroke="#bfbfbf" points="298.5,-123.5 298.5,-153.5 411.5,-153.5 411.5,-123.5 298.5,-123.5"/>
<text text-anchor="start" x="306.5" y="-141.5" font-family="Helvetica,sans-Serif" font-size="10.00">boost/range/iterator</text>
<text text-anchor="middle" x="355" y="-130.5" font-family="Helvetica,sans-Serif" font-size="10.00">_range.hpp</text>
</a>
</g>
</g>
<!-- Node22&#45;&gt;Node25 -->
<g id="edge29" class="edge">
<title>Node22&#45;&gt;Node25</title>
<path fill="none" stroke="midnightblue" d="M355,-190.4C355,-182.64 355,-172.81 355,-163.86"/>
<polygon fill="midnightblue" stroke="midnightblue" points="358.5,-163.58 355,-153.58 351.5,-163.58 358.5,-163.58"/>
</g>
</g>
</svg>
        <g id="navigator" transform="translate(0 0)" fill="#404254">
                <rect fill="#f2f5e9" fill-opacity="0.5" stroke="#606060" stroke-width=".5" x="0" y="0" width="60" height="60"/>
                <use id="zoomplus" xlink:href="#zoomPlus" x="17" y="9" onmousedown="handleZoom(evt,'in')"/>
                <use id="zoomminus" xlink:href="#zoomMin" x="42" y="9" onmousedown="handleZoom(evt,'out')"/>
                <use id="reset" xlink:href="#resetDef" x="30" y="36" onmousedown="handleReset()"/>
                <g id="arrowUp" xlink:href="#dirArrow" transform="translate(30 24)" onmousedown="handlePan(0,-1)">
                  <use xlink:href="#rim" fill="#404040">
                        <set attributeName="fill" to="#808080" begin="arrowUp.mouseover" end="arrowUp.mouseout"/>
                  </use>
                  <path fill="none" stroke="white" stroke-width="1.5" d="M0,-3.0v7 M-2.5,-0.5L0,-3.0L2.5,-0.5"/>
                </g>
                <g id="arrowRight" xlink:href="#dirArrow" transform="rotate(90) translate(36 -43)" onmousedown="handlePan(1,0)">
                  <use xlink:href="#rim" fill="#404040">
                        <set attributeName="fill" to="#808080" begin="arrowRight.mouseover" end="arrowRight.mouseout"/>
                  </use>
                  <path fill="none" stroke="white" stroke-width="1.5" d="M0,-3.0v7 M-2.5,-0.5L0,-3.0L2.5,-0.5"/>
                </g>
                <g id="arrowDown" xlink:href="#dirArrow" transform="rotate(180) translate(-30 -48)" onmousedown="handlePan(0,1)">
                  <use xlink:href="#rim" fill="#404040">
                        <set attributeName="fill" to="#808080" begin="arrowDown.mouseover" end="arrowDown.mouseout"/>
                  </use>
                  <path fill="none" stroke="white" stroke-width="1.5" d="M0,-3.0v7 M-2.5,-0.5L0,-3.0L2.5,-0.5"/>
                </g>
                <g id="arrowLeft" xlink:href="#dirArrow" transform="rotate(270) translate(-36 17)" onmousedown="handlePan(-1,0)">
                  <use xlink:href="#rim" fill="#404040">
                        <set attributeName="fill" to="#808080" begin="arrowLeft.mouseover" end="arrowLeft.mouseout"/>
                  </use>
                  <path fill="none" stroke="white" stroke-width="1.5" d="M0,-3.0v7 M-2.5,-0.5L0,-3.0L2.5,-0.5"/>
                </g>
        </g>
        <svg viewBox="0 0 15 15" width="100%" height="30px" preserveAspectRatio="xMaxYMin meet">
         <g id="arrow_out" transform="scale(0.3 0.3)">
          <a xlink:href="raster_8hpp__incl_org.svg" target="_base">
           <rect id="button" ry="5" rx="5" y="6" x="6" height="38" width="38"
                fill="#f2f5e9" fill-opacity="0.5" stroke="#606060" stroke-width="1.0"/>
           <path id="arrow"
             d="M 11.500037,31.436501 C 11.940474,20.09759 22.043105,11.32322 32.158766,21.979434 L 37.068811,17.246167 C 37.068811,17.246167 37.088388,32 37.088388,32 L 22.160133,31.978069 C 22.160133,31.978069 26.997745,27.140456 26.997745,27.140456 C 18.528582,18.264221 13.291696,25.230495 11.500037,31.436501 z"
             style="fill:#404040;"/>
          </a>
         </g>
        </svg>
</svg>
