<?xml version="1.0" encoding="UTF-8" standalone="no"?>
<!DOCTYPE svg PUBLIC "-//W3C//DTD SVG 1.1//EN"
 "http://www.w3.org/Graphics/SVG/1.1/DTD/svg11.dtd">
<!-- Generated by graphviz version 2.43.0 (0)
 -->
<!-- Title: ReactionAlgorithm.hpp Pages: 1 -->
<svg width="1860pt" height="330pt"
 viewBox="0.00 0.00 1859.50 330.00" xmlns="http://www.w3.org/2000/svg" xmlns:xlink="http://www.w3.org/1999/xlink">
<g id="graph0" class="graph" transform="scale(1 1) rotate(0) translate(4 326)">
<title>ReactionAlgorithm.hpp</title>
<!-- Node1 -->
<g id="node1" class="node">
<title>Node1</title>
<g id="a_node1"><a xlink:title=" ">
<polygon fill="#bfbfbf" stroke="black" points="1290.5,-302.5 1290.5,-321.5 1418.5,-321.5 1418.5,-302.5 1290.5,-302.5"/>
<text text-anchor="middle" x="1354.5" y="-309.5" font-family="Helvetica,sans-Serif" font-size="10.00">ReactionAlgorithm.hpp</text>
</a>
</g>
</g>
<!-- Node2 -->
<g id="node2" class="node">
<title>Node2</title>
<g id="a_node2"><a xlink:href="config_8hpp.html" target="_top" xlink:title=" ">
<polygon fill="none" stroke="black" points="33.5,-246.5 33.5,-265.5 101.5,-265.5 101.5,-246.5 33.5,-246.5"/>
<text text-anchor="middle" x="67.5" y="-253.5" font-family="Helvetica,sans-Serif" font-size="10.00">config.hpp</text>
</a>
</g>
</g>
<!-- Node1&#45;&gt;Node2 -->
<g id="edge1" class="edge">
<title>Node1&#45;&gt;Node2</title>
<path fill="none" stroke="midnightblue" d="M1290.41,-311.24C1107.98,-311.36 570.41,-307.85 126.5,-266 121.72,-265.55 116.74,-264.97 111.79,-264.32"/>
<polygon fill="midnightblue" stroke="midnightblue" points="112.13,-260.83 101.74,-262.9 111.15,-267.76 112.13,-260.83"/>
</g>
<!-- Node4 -->
<g id="node4" class="node">
<title>Node4</title>
<g id="a_node4"><a xlink:href="SingleReaction_8hpp.html" target="_top" xlink:title=" ">
<polygon fill="none" stroke="black" points="323.5,-246.5 323.5,-265.5 433.5,-265.5 433.5,-246.5 323.5,-246.5"/>
<text text-anchor="middle" x="378.5" y="-253.5" font-family="Helvetica,sans-Serif" font-size="10.00">SingleReaction.hpp</text>
</a>
</g>
</g>
<!-- Node1&#45;&gt;Node4 -->
<g id="edge3" class="edge">
<title>Node1&#45;&gt;Node4</title>
<path fill="none" stroke="midnightblue" d="M1290.46,-307.46C1113.86,-297.69 621.28,-270.43 443.52,-260.6"/>
<polygon fill="midnightblue" stroke="midnightblue" points="443.71,-257.1 433.53,-260.04 443.32,-264.09 443.71,-257.1"/>
</g>
<!-- Node13 -->
<g id="node13" class="node">
<title>Node13</title>
<g id="a_node13"><a xlink:title=" ">
<polygon fill="none" stroke="#bfbfbf" points="0,-129 0,-148 47,-148 47,-129 0,-129"/>
<text text-anchor="middle" x="23.5" y="-136" font-family="Helvetica,sans-Serif" font-size="10.00">vector</text>
</a>
</g>
</g>
<!-- Node1&#45;&gt;Node13 -->
<g id="edge59" class="edge">
<title>Node1&#45;&gt;Node13</title>
<path fill="none" stroke="midnightblue" d="M1290.26,-310.68C1093.78,-309.31 502.84,-302.21 314.5,-266 240.51,-251.77 222.64,-242.14 154.5,-210 138.99,-202.68 136.46,-198.38 121.5,-190 97.67,-176.66 69.97,-162.51 50.11,-152.59"/>
<polygon fill="midnightblue" stroke="midnightblue" points="51.55,-149.4 41.04,-148.08 48.44,-155.67 51.55,-149.4"/>
</g>
<!-- Node15 -->
<g id="node15" class="node">
<title>Node15</title>
<g id="a_node15"><a xlink:href="random_8hpp.html" target="_top" xlink:title=" ">
<polygon fill="none" stroke="black" points="1317,-246.5 1317,-265.5 1392,-265.5 1392,-246.5 1317,-246.5"/>
<text text-anchor="middle" x="1354.5" y="-253.5" font-family="Helvetica,sans-Serif" font-size="10.00">random.hpp</text>
</a>
</g>
</g>
<!-- Node1&#45;&gt;Node15 -->
<g id="edge15" class="edge">
<title>Node1&#45;&gt;Node15</title>
<path fill="none" stroke="midnightblue" d="M1354.5,-302.08C1354.5,-295.01 1354.5,-284.86 1354.5,-275.99"/>
<polygon fill="midnightblue" stroke="midnightblue" points="1358,-275.75 1354.5,-265.75 1351,-275.75 1358,-275.75"/>
</g>
<!-- Node16 -->
<g id="node16" class="node">
<title>Node16</title>
<g id="a_node16"><a xlink:href="Vector_8hpp.html" target="_top" xlink:title=" ">
<polygon fill="none" stroke="black" points="757,-190.5 757,-209.5 850,-209.5 850,-190.5 757,-190.5"/>
<text text-anchor="middle" x="803.5" y="-197.5" font-family="Helvetica,sans-Serif" font-size="10.00">utils/Vector.hpp</text>
</a>
</g>
</g>
<!-- Node1&#45;&gt;Node16 -->
<g id="edge54" class="edge">
<title>Node1&#45;&gt;Node16</title>
<path fill="none" stroke="midnightblue" d="M1311.72,-302.46C1212.15,-282.58 965.1,-233.26 856.33,-211.55"/>
<polygon fill="midnightblue" stroke="midnightblue" points="856.74,-208.06 846.25,-209.53 855.37,-214.92 856.74,-208.06"/>
</g>
<!-- Node23 -->
<g id="node23" class="node">
<title>Node23</title>
<g id="a_node23"><a xlink:title=" ">
<polygon fill="none" stroke="#bfbfbf" points="1586,-0.5 1586,-19.5 1627,-19.5 1627,-0.5 1586,-0.5"/>
<text text-anchor="middle" x="1606.5" y="-7.5" font-family="Helvetica,sans-Serif" font-size="10.00">tuple</text>
</a>
</g>
</g>
<!-- Node1&#45;&gt;Node23 -->
<g id="edge57" class="edge">
<title>Node1&#45;&gt;Node23</title>
<path fill="none" stroke="midnightblue" d="M1418.56,-307.92C1538.62,-300.39 1785.5,-275.81 1785.5,-201 1785.5,-201 1785.5,-201 1785.5,-137.5 1785.5,-65.59 1687.95,-30.91 1636.88,-17.68"/>
<polygon fill="midnightblue" stroke="midnightblue" points="1637.58,-14.25 1627.03,-15.25 1635.9,-21.05 1637.58,-14.25"/>
</g>
<!-- Node33 -->
<g id="node33" class="node">
<title>Node33</title>
<g id="a_node33"><a xlink:title=" ">
<polygon fill="none" stroke="#bfbfbf" points="1484,-129 1484,-148 1529,-148 1529,-129 1484,-129"/>
<text text-anchor="middle" x="1506.5" y="-136" font-family="Helvetica,sans-Serif" font-size="10.00">utility</text>
</a>
</g>
</g>
<!-- Node1&#45;&gt;Node33 -->
<g id="edge58" class="edge">
<title>Node1&#45;&gt;Node33</title>
<path fill="none" stroke="midnightblue" d="M1373.71,-302.28C1403.62,-287.68 1460.95,-255.34 1490.5,-210 1500.66,-194.42 1504.42,-173.24 1505.78,-158.18"/>
<polygon fill="midnightblue" stroke="midnightblue" points="1509.28,-158.25 1506.42,-148.04 1502.3,-157.8 1509.28,-158.25"/>
</g>
<!-- Node36 -->
<g id="node36" class="node">
<title>Node36</title>
<g id="a_node36"><a xlink:title=" ">
<polygon fill="none" stroke="#bfbfbf" points="1703.5,-190.5 1703.5,-209.5 1757.5,-209.5 1757.5,-190.5 1703.5,-190.5"/>
<text text-anchor="middle" x="1730.5" y="-197.5" font-family="Helvetica,sans-Serif" font-size="10.00">random</text>
</a>
</g>
</g>
<!-- Node1&#45;&gt;Node36 -->
<g id="edge56" class="edge">
<title>Node1&#45;&gt;Node36</title>
<path fill="none" stroke="midnightblue" d="M1403.97,-302.45C1446.25,-294.62 1508.47,-281.86 1561.5,-266 1611.72,-250.98 1668.22,-227.95 1701.51,-213.72"/>
<polygon fill="midnightblue" stroke="midnightblue" points="1703.27,-216.77 1711.07,-209.6 1700.5,-210.34 1703.27,-216.77"/>
</g>
<!-- Node37 -->
<g id="node37" class="node">
<title>Node37</title>
<g id="a_node37"><a xlink:title=" ">
<polygon fill="none" stroke="#bfbfbf" points="1813.5,-246.5 1813.5,-265.5 1851.5,-265.5 1851.5,-246.5 1813.5,-246.5"/>
<text text-anchor="middle" x="1832.5" y="-253.5" font-family="Helvetica,sans-Serif" font-size="10.00">map</text>
</a>
</g>
</g>
<!-- Node1&#45;&gt;Node37 -->
<g id="edge55" class="edge">
<title>Node1&#45;&gt;Node37</title>
<path fill="none" stroke="midnightblue" d="M1418.71,-307.85C1505.64,-302.82 1665.32,-290.9 1799.5,-266 1800.78,-265.76 1802.08,-265.5 1803.4,-265.22"/>
<polygon fill="midnightblue" stroke="midnightblue" points="1804.54,-268.54 1813.43,-262.78 1802.89,-261.74 1804.54,-268.54"/>
</g>
<!-- Node3 -->
<g id="node3" class="node">
<title>Node3</title>
<g id="a_node3"><a xlink:title=" ">
<polygon fill="none" stroke="#bfbfbf" points="0.5,-190.5 0.5,-209.5 112.5,-209.5 112.5,-190.5 0.5,-190.5"/>
<text text-anchor="middle" x="56.5" y="-197.5" font-family="Helvetica,sans-Serif" font-size="10.00">config&#45;features.hpp</text>
</a>
</g>
</g>
<!-- Node2&#45;&gt;Node3 -->
<g id="edge2" class="edge">
<title>Node2&#45;&gt;Node3</title>
<path fill="none" stroke="midnightblue" d="M65.68,-246.08C64.23,-238.93 62.13,-228.64 60.31,-219.69"/>
<polygon fill="midnightblue" stroke="midnightblue" points="63.71,-218.85 58.28,-209.75 56.85,-220.25 63.71,-218.85"/>
</g>
<!-- Node5 -->
<g id="node5" class="node">
<title>Node5</title>
<g id="a_node5"><a xlink:href="Accumulator_8hpp.html" target="_top" xlink:title=" ">
<polygon fill="none" stroke="black" points="245,-190.5 245,-209.5 368,-209.5 368,-190.5 245,-190.5"/>
<text text-anchor="middle" x="306.5" y="-197.5" font-family="Helvetica,sans-Serif" font-size="10.00">utils/Accumulator.hpp</text>
</a>
</g>
</g>
<!-- Node4&#45;&gt;Node5 -->
<g id="edge4" class="edge">
<title>Node4&#45;&gt;Node5</title>
<path fill="none" stroke="midnightblue" d="M366.93,-246.32C356.08,-238.18 339.62,-225.84 326.62,-216.09"/>
<polygon fill="midnightblue" stroke="midnightblue" points="328.38,-213.03 318.28,-209.83 324.18,-218.63 328.38,-213.03"/>
</g>
<!-- Node4&#45;&gt;Node13 -->
<g id="edge14" class="edge">
<title>Node4&#45;&gt;Node13</title>
<path fill="none" stroke="midnightblue" d="M338.18,-246.44C302.19,-238.38 248.27,-225.3 202.5,-210 180.58,-202.67 176.03,-198.4 154.5,-190 110.88,-172.99 98.85,-171.67 55.5,-154 54.09,-153.42 52.65,-152.82 51.2,-152.21"/>
<polygon fill="midnightblue" stroke="midnightblue" points="52.23,-148.84 41.67,-148.02 49.42,-155.25 52.23,-148.84"/>
</g>
<!-- Node14 -->
<g id="node14" class="node">
<title>Node14</title>
<g id="a_node14"><a xlink:title=" ">
<polygon fill="none" stroke="#bfbfbf" points="452.5,-129 452.5,-148 508.5,-148 508.5,-129 452.5,-129"/>
<text text-anchor="middle" x="480.5" y="-136" font-family="Helvetica,sans-Serif" font-size="10.00">numeric</text>
</a>
</g>
</g>
<!-- Node4&#45;&gt;Node14 -->
<g id="edge13" class="edge">
<title>Node4&#45;&gt;Node14</title>
<path fill="none" stroke="midnightblue" d="M386.17,-246.32C403.15,-227.09 444.17,-180.64 466.1,-155.81"/>
<polygon fill="midnightblue" stroke="midnightblue" points="468.75,-158.09 472.74,-148.28 463.5,-153.46 468.75,-158.09"/>
</g>
<!-- Node6 -->
<g id="node6" class="node">
<title>Node6</title>
<g id="a_node6"><a xlink:title=" ">
<polygon fill="none" stroke="#bfbfbf" points="648,-56.5 648,-86.5 755,-86.5 755,-56.5 648,-56.5"/>
<text text-anchor="start" x="656" y="-74.5" font-family="Helvetica,sans-Serif" font-size="10.00">boost/serialization</text>
<text text-anchor="middle" x="701.5" y="-63.5" font-family="Helvetica,sans-Serif" font-size="10.00">/access.hpp</text>
</a>
</g>
</g>
<!-- Node5&#45;&gt;Node6 -->
<g id="edge5" class="edge">
<title>Node5&#45;&gt;Node6</title>
<path fill="none" stroke="midnightblue" d="M301.3,-190.2C292.82,-174.57 278.55,-141.82 295.5,-123 344.98,-68.07 547.44,-97.33 637.64,-86.92"/>
<polygon fill="midnightblue" stroke="midnightblue" points="638.4,-90.35 647.81,-85.49 637.42,-83.42 638.4,-90.35"/>
</g>
<!-- Node7 -->
<g id="node7" class="node">
<title>Node7</title>
<g id="a_node7"><a xlink:title=" ">
<polygon fill="none" stroke="#bfbfbf" points="65,-123.5 65,-153.5 172,-153.5 172,-123.5 65,-123.5"/>
<text text-anchor="start" x="73" y="-141.5" font-family="Helvetica,sans-Serif" font-size="10.00">boost/serialization</text>
<text text-anchor="middle" x="118.5" y="-130.5" font-family="Helvetica,sans-Serif" font-size="10.00">/vector.hpp</text>
</a>
</g>
</g>
<!-- Node5&#45;&gt;Node7 -->
<g id="edge6" class="edge">
<title>Node5&#45;&gt;Node7</title>
<path fill="none" stroke="midnightblue" d="M279.56,-190.48C251.72,-181.66 207.5,-167.67 172.43,-156.57"/>
<polygon fill="midnightblue" stroke="midnightblue" points="173.4,-153.2 162.81,-153.52 171.29,-159.88 173.4,-153.2"/>
</g>
<!-- Node8 -->
<g id="node8" class="node">
<title>Node8</title>
<g id="a_node8"><a xlink:title=" ">
<polygon fill="none" stroke="#bfbfbf" points="304.5,-129 304.5,-148 368.5,-148 368.5,-129 304.5,-129"/>
<text text-anchor="middle" x="336.5" y="-136" font-family="Helvetica,sans-Serif" font-size="10.00">algorithm</text>
</a>
</g>
</g>
<!-- Node5&#45;&gt;Node8 -->
<g id="edge7" class="edge">
<title>Node5&#45;&gt;Node8</title>
<path fill="none" stroke="midnightblue" d="M310.8,-190.48C315.16,-181.82 322.06,-168.15 327.6,-157.15"/>
<polygon fill="midnightblue" stroke="midnightblue" points="330.83,-158.51 332.21,-148.01 324.58,-155.36 330.83,-158.51"/>
</g>
<!-- Node9 -->
<g id="node9" class="node">
<title>Node9</title>
<g id="a_node9"><a xlink:title=" ">
<polygon fill="none" stroke="#bfbfbf" points="387,-129 387,-148 434,-148 434,-129 387,-129"/>
<text text-anchor="middle" x="410.5" y="-136" font-family="Helvetica,sans-Serif" font-size="10.00">cmath</text>
</a>
</g>
</g>
<!-- Node5&#45;&gt;Node9 -->
<g id="edge8" class="edge">
<title>Node5&#45;&gt;Node9</title>
<path fill="none" stroke="midnightblue" d="M321.4,-190.48C338.47,-180.71 366.66,-164.58 386.76,-153.08"/>
<polygon fill="midnightblue" stroke="midnightblue" points="388.69,-156.01 395.63,-148.01 385.21,-149.94 388.69,-156.01"/>
</g>
<!-- Node10 -->
<g id="node10" class="node">
<title>Node10</title>
<g id="a_node10"><a xlink:title=" ">
<polygon fill="none" stroke="#bfbfbf" points="828,-0.5 828,-19.5 881,-19.5 881,-0.5 828,-0.5"/>
<text text-anchor="middle" x="854.5" y="-7.5" font-family="Helvetica,sans-Serif" font-size="10.00">cstddef</text>
</a>
</g>
</g>
<!-- Node5&#45;&gt;Node10 -->
<g id="edge9" class="edge">
<title>Node5&#45;&gt;Node10</title>
<path fill="none" stroke="midnightblue" d="M290.17,-190.39C277.54,-182.72 261,-170.21 253.5,-154 247.71,-141.5 244.94,-133.79 253.5,-123 324.26,-33.82 698.47,-15.45 817.86,-11.84"/>
<polygon fill="midnightblue" stroke="midnightblue" points="818.06,-15.34 827.96,-11.56 817.86,-8.34 818.06,-15.34"/>
</g>
<!-- Node11 -->
<g id="node11" class="node">
<title>Node11</title>
<g id="a_node11"><a xlink:title=" ">
<polygon fill="none" stroke="#bfbfbf" points="1303.5,-129 1303.5,-148 1347.5,-148 1347.5,-129 1303.5,-129"/>
<text text-anchor="middle" x="1325.5" y="-136" font-family="Helvetica,sans-Serif" font-size="10.00">limits</text>
</a>
</g>
</g>
<!-- Node5&#45;&gt;Node11 -->
<g id="edge10" class="edge">
<title>Node5&#45;&gt;Node11</title>
<path fill="none" stroke="midnightblue" d="M368.22,-197.59C570.4,-192.77 1204.99,-176.05 1294.5,-154 1296.49,-153.51 1298.51,-152.89 1300.51,-152.18"/>
<polygon fill="midnightblue" stroke="midnightblue" points="1302.31,-155.22 1310.17,-148.12 1299.59,-148.77 1302.31,-155.22"/>
</g>
<!-- Node12 -->
<g id="node12" class="node">
<title>Node12</title>
<g id="a_node12"><a xlink:title=" ">
<polygon fill="none" stroke="#bfbfbf" points="565,-62 565,-81 630,-81 630,-62 565,-62"/>
<text text-anchor="middle" x="597.5" y="-69" font-family="Helvetica,sans-Serif" font-size="10.00">stdexcept</text>
</a>
</g>
</g>
<!-- Node5&#45;&gt;Node12 -->
<g id="edge11" class="edge">
<title>Node5&#45;&gt;Node12</title>
<path fill="none" stroke="midnightblue" d="M294.88,-190.36C276.3,-175.53 243.8,-144.73 262.5,-123 299.68,-79.8 472.55,-73.07 554.36,-72.34"/>
<polygon fill="midnightblue" stroke="midnightblue" points="554.83,-75.84 564.81,-72.28 554.79,-68.84 554.83,-75.84"/>
</g>
<!-- Node5&#45;&gt;Node13 -->
<g id="edge12" class="edge">
<title>Node5&#45;&gt;Node13</title>
<path fill="none" stroke="midnightblue" d="M249.66,-190.49C187.15,-180.83 90.85,-164.99 55.5,-154 53.62,-153.42 51.71,-152.75 49.8,-152.03"/>
<polygon fill="midnightblue" stroke="midnightblue" points="51.04,-148.76 40.47,-148.13 48.34,-155.21 51.04,-148.76"/>
</g>
<!-- Node15&#45;&gt;Node10 -->
<g id="edge51" class="edge">
<title>Node15&#45;&gt;Node10</title>
<path fill="none" stroke="midnightblue" d="M1392.14,-248.29C1420.9,-241.86 1460.55,-230.09 1490.5,-210 1527.17,-185.4 1567.75,-156.09 1538.5,-123 1495.35,-74.18 1311.86,-97.19 1247.5,-87 1115.62,-66.12 960.32,-33.77 891.05,-18.93"/>
<polygon fill="midnightblue" stroke="midnightblue" points="891.59,-15.47 881.07,-16.79 890.12,-22.31 891.59,-15.47"/>
</g>
<!-- Node15&#45;&gt;Node13 -->
<g id="edge53" class="edge">
<title>Node15&#45;&gt;Node13</title>
<path fill="none" stroke="midnightblue" d="M1316.7,-254.36C1133.5,-251.15 342.32,-235.89 235.5,-210 215.02,-205.04 212.33,-197.15 192.5,-190 133.28,-168.64 114.83,-175.07 55.5,-154 53.84,-153.41 52.15,-152.77 50.45,-152.1"/>
<polygon fill="midnightblue" stroke="midnightblue" points="51.46,-148.72 40.89,-148.02 48.71,-155.16 51.46,-148.72"/>
</g>
<!-- Node15&#45;&gt;Node16 -->
<g id="edge16" class="edge">
<title>Node15&#45;&gt;Node16</title>
<path fill="none" stroke="midnightblue" d="M1316.63,-251.29C1221.61,-241.98 972.7,-217.58 860.17,-206.55"/>
<polygon fill="midnightblue" stroke="midnightblue" points="860.34,-203.05 850.04,-205.56 859.65,-210.02 860.34,-203.05"/>
</g>
<!-- Node29 -->
<g id="node29" class="node">
<title>Node29</title>
<g id="a_node29"><a xlink:href="constants_8hpp.html" target="_top" xlink:title=" ">
<polygon fill="none" stroke="black" points="1576,-190.5 1576,-209.5 1685,-209.5 1685,-190.5 1576,-190.5"/>
<text text-anchor="middle" x="1630.5" y="-197.5" font-family="Helvetica,sans-Serif" font-size="10.00">utils/constants.hpp</text>
</a>
</g>
</g>
<!-- Node15&#45;&gt;Node29 -->
<g id="edge41" class="edge">
<title>Node15&#45;&gt;Node29</title>
<path fill="none" stroke="midnightblue" d="M1392.01,-247.66C1439.64,-238.34 1522.16,-222.2 1576.55,-211.56"/>
<polygon fill="midnightblue" stroke="midnightblue" points="1577.55,-214.93 1586.7,-209.57 1576.21,-208.06 1577.55,-214.93"/>
</g>
<!-- Node31 -->
<g id="node31" class="node">
<title>Node31</title>
<g id="a_node31"><a xlink:href="u32__to__u64_8hpp.html" target="_top" xlink:title=" ">
<polygon fill="none" stroke="black" points="1363.5,-190.5 1363.5,-209.5 1481.5,-209.5 1481.5,-190.5 1363.5,-190.5"/>
<text text-anchor="middle" x="1422.5" y="-197.5" font-family="Helvetica,sans-Serif" font-size="10.00">utils/u32_to_u64.hpp</text>
</a>
</g>
</g>
<!-- Node15&#45;&gt;Node31 -->
<g id="edge44" class="edge">
<title>Node15&#45;&gt;Node31</title>
<path fill="none" stroke="midnightblue" d="M1365.43,-246.32C1375.67,-238.18 1391.22,-225.84 1403.5,-216.09"/>
<polygon fill="midnightblue" stroke="midnightblue" points="1405.72,-218.79 1411.38,-209.83 1401.37,-213.31 1405.72,-218.79"/>
</g>
<!-- Node34 -->
<g id="node34" class="node">
<title>Node34</title>
<g id="a_node34"><a xlink:href="uniform_8hpp.html" target="_top" xlink:title=" ">
<polygon fill="none" stroke="black" points="1109.5,-190.5 1109.5,-209.5 1209.5,-209.5 1209.5,-190.5 1109.5,-190.5"/>
<text text-anchor="middle" x="1159.5" y="-197.5" font-family="Helvetica,sans-Serif" font-size="10.00">utils/uniform.hpp</text>
</a>
</g>
</g>
<!-- Node15&#45;&gt;Node34 -->
<g id="edge47" class="edge">
<title>Node15&#45;&gt;Node34</title>
<path fill="none" stroke="midnightblue" d="M1323.6,-246.44C1290.23,-237.2 1236.91,-222.44 1200.15,-212.26"/>
<polygon fill="midnightblue" stroke="midnightblue" points="1200.83,-208.81 1190.25,-209.52 1198.96,-215.56 1200.83,-208.81"/>
</g>
<!-- Node35 -->
<g id="node35" class="node">
<title>Node35</title>
<g id="a_node35"><a xlink:title=" ">
<polygon fill="none" stroke="#bfbfbf" points="1228,-190.5 1228,-209.5 1345,-209.5 1345,-190.5 1228,-190.5"/>
<text text-anchor="middle" x="1286.5" y="-197.5" font-family="Helvetica,sans-Serif" font-size="10.00">Random123/philox.h</text>
</a>
</g>
</g>
<!-- Node15&#45;&gt;Node35 -->
<g id="edge50" class="edge">
<title>Node15&#45;&gt;Node35</title>
<path fill="none" stroke="midnightblue" d="M1343.57,-246.32C1333.33,-238.18 1317.78,-225.84 1305.5,-216.09"/>
<polygon fill="midnightblue" stroke="midnightblue" points="1307.63,-213.31 1297.62,-209.83 1303.28,-218.79 1307.63,-213.31"/>
</g>
<!-- Node15&#45;&gt;Node36 -->
<g id="edge52" class="edge">
<title>Node15&#45;&gt;Node36</title>
<path fill="none" stroke="midnightblue" d="M1392.2,-251.42C1453.39,-245.31 1578.23,-231.56 1693.4,-210.02"/>
<polygon fill="midnightblue" stroke="midnightblue" points="1694.27,-213.41 1703.45,-208.11 1692.97,-206.54 1694.27,-213.41"/>
</g>
<!-- Node16&#45;&gt;Node8 -->
<g id="edge31" class="edge">
<title>Node16&#45;&gt;Node8</title>
<path fill="none" stroke="midnightblue" d="M756.9,-197.65C677.93,-194.56 513.14,-184.7 377.5,-154 374.26,-153.27 370.92,-152.36 367.62,-151.35"/>
<polygon fill="midnightblue" stroke="midnightblue" points="368.52,-147.96 357.92,-148.14 366.32,-154.61 368.52,-147.96"/>
</g>
<!-- Node16&#45;&gt;Node9 -->
<g id="edge33" class="edge">
<title>Node16&#45;&gt;Node9</title>
<path fill="none" stroke="midnightblue" d="M756.92,-197.47C687.48,-194.23 553.25,-184.28 443.5,-154 441.34,-153.41 439.15,-152.69 436.96,-151.91"/>
<polygon fill="midnightblue" stroke="midnightblue" points="438.21,-148.64 427.62,-148.15 435.59,-155.13 438.21,-148.64"/>
</g>
<!-- Node16&#45;&gt;Node10 -->
<g id="edge34" class="edge">
<title>Node16&#45;&gt;Node10</title>
<path fill="none" stroke="midnightblue" d="M756.77,-197.41C692.16,-194.11 580.63,-184.11 555.5,-154 545.16,-141.61 535.69,-79.83 556.5,-56 590.06,-17.58 745.38,-11.58 817.51,-10.9"/>
<polygon fill="midnightblue" stroke="midnightblue" points="817.95,-14.4 827.93,-10.84 817.91,-7.4 817.95,-14.4"/>
</g>
<!-- Node16&#45;&gt;Node13 -->
<g id="edge40" class="edge">
<title>Node16&#45;&gt;Node13</title>
<path fill="none" stroke="midnightblue" d="M756.67,-198.41C614.49,-196.26 189.36,-187.15 55.5,-154 53.29,-153.45 51.04,-152.75 48.81,-151.96"/>
<polygon fill="midnightblue" stroke="midnightblue" points="49.94,-148.65 39.37,-148.07 47.28,-155.12 49.94,-148.65"/>
</g>
<!-- Node16&#45;&gt;Node14 -->
<g id="edge38" class="edge">
<title>Node16&#45;&gt;Node14</title>
<path fill="none" stroke="midnightblue" d="M756.76,-194.03C700.58,-187.49 603.73,-174.36 522.5,-154 519.28,-153.19 515.96,-152.25 512.66,-151.24"/>
<polygon fill="midnightblue" stroke="midnightblue" points="513.54,-147.84 502.95,-148.06 511.37,-154.49 513.54,-147.84"/>
</g>
<!-- Node17 -->
<g id="node17" class="node">
<title>Node17</title>
<g id="a_node17"><a xlink:title=" ">
<polygon fill="none" stroke="#bfbfbf" points="1135.5,-129 1135.5,-148 1285.5,-148 1285.5,-129 1135.5,-129"/>
<text text-anchor="middle" x="1210.5" y="-136" font-family="Helvetica,sans-Serif" font-size="10.00">boost/qvm/deduce_vec.hpp</text>
</a>
</g>
</g>
<!-- Node16&#45;&gt;Node17 -->
<g id="edge17" class="edge">
<title>Node16&#45;&gt;Node17</title>
<path fill="none" stroke="midnightblue" d="M850.25,-193.03C913.3,-184.86 1029.04,-169.43 1127.5,-154 1135.81,-152.7 1144.57,-151.25 1153.17,-149.78"/>
<polygon fill="midnightblue" stroke="midnightblue" points="1153.88,-153.21 1163.14,-148.07 1152.7,-146.31 1153.88,-153.21"/>
</g>
<!-- Node18 -->
<g id="node18" class="node">
<title>Node18</title>
<g id="a_node18"><a xlink:title=" ">
<polygon fill="none" stroke="#bfbfbf" points="564.5,-129 564.5,-148 704.5,-148 704.5,-129 564.5,-129"/>
<text text-anchor="middle" x="634.5" y="-136" font-family="Helvetica,sans-Serif" font-size="10.00">boost/qvm/vec_traits.hpp</text>
</a>
</g>
</g>
<!-- Node16&#45;&gt;Node18 -->
<g id="edge18" class="edge">
<title>Node16&#45;&gt;Node18</title>
<path fill="none" stroke="midnightblue" d="M779.29,-190.48C750.17,-180.22 701.13,-162.96 668.3,-151.4"/>
<polygon fill="midnightblue" stroke="midnightblue" points="669.26,-148.03 658.67,-148.01 666.94,-154.63 669.26,-148.03"/>
</g>
<!-- Node19 -->
<g id="node19" class="node">
<title>Node19</title>
<g id="a_node19"><a xlink:href="Array_8hpp.html" target="_top" xlink:title=" ">
<polygon fill="none" stroke="black" points="760.5,-129 760.5,-148 846.5,-148 846.5,-129 760.5,-129"/>
<text text-anchor="middle" x="803.5" y="-136" font-family="Helvetica,sans-Serif" font-size="10.00">utils/Array.hpp</text>
</a>
</g>
</g>
<!-- Node16&#45;&gt;Node19 -->
<g id="edge19" class="edge">
<title>Node16&#45;&gt;Node19</title>
<path fill="none" stroke="midnightblue" d="M803.5,-190.48C803.5,-182.08 803.5,-168.98 803.5,-158.16"/>
<polygon fill="midnightblue" stroke="midnightblue" points="807,-158.01 803.5,-148.01 800,-158.01 807,-158.01"/>
</g>
<!-- Node21 -->
<g id="node21" class="node">
<title>Node21</title>
<g id="a_node21"><a xlink:title=" ">
<polygon fill="none" stroke="#bfbfbf" points="1349.5,-0.5 1349.5,-19.5 1401.5,-19.5 1401.5,-0.5 1349.5,-0.5"/>
<text text-anchor="middle" x="1375.5" y="-7.5" font-family="Helvetica,sans-Serif" font-size="10.00">cassert</text>
</a>
</g>
</g>
<!-- Node16&#45;&gt;Node21 -->
<g id="edge32" class="edge">
<title>Node16&#45;&gt;Node21</title>
<path fill="none" stroke="midnightblue" d="M850.26,-196.78C980.36,-190.4 1338.24,-171.36 1356.5,-154 1390.45,-121.73 1384.94,-60.29 1379.5,-29.52"/>
<polygon fill="midnightblue" stroke="midnightblue" points="1382.93,-28.82 1377.57,-19.68 1376.06,-30.17 1382.93,-28.82"/>
</g>
<!-- Node24 -->
<g id="node24" class="node">
<title>Node24</title>
<g id="a_node24"><a xlink:title=" ">
<polygon fill="none" stroke="#bfbfbf" points="773,-62 773,-81 826,-81 826,-62 773,-62"/>
<text text-anchor="middle" x="799.5" y="-69" font-family="Helvetica,sans-Serif" font-size="10.00">iterator</text>
</a>
</g>
</g>
<!-- Node16&#45;&gt;Node24 -->
<g id="edge37" class="edge">
<title>Node16&#45;&gt;Node24</title>
<path fill="none" stroke="midnightblue" d="M787.72,-190.47C775.3,-182.77 758.89,-170.18 751.5,-154 745.77,-141.47 746.39,-135.79 751.5,-123 757.09,-109 768.62,-96.65 778.98,-87.68"/>
<polygon fill="midnightblue" stroke="midnightblue" points="781.35,-90.26 786.9,-81.23 776.93,-84.83 781.35,-90.26"/>
</g>
<!-- Node26 -->
<g id="node26" class="node">
<title>Node26</title>
<g id="a_node26"><a xlink:title=" ">
<polygon fill="none" stroke="#bfbfbf" points="865,-129 865,-148 930,-148 930,-129 865,-129"/>
<text text-anchor="middle" x="897.5" y="-136" font-family="Helvetica,sans-Serif" font-size="10.00">functional</text>
</a>
</g>
</g>
<!-- Node16&#45;&gt;Node26 -->
<g id="edge35" class="edge">
<title>Node16&#45;&gt;Node26</title>
<path fill="none" stroke="midnightblue" d="M816.97,-190.48C832.18,-180.84 857.19,-165.02 875.3,-153.55"/>
<polygon fill="midnightblue" stroke="midnightblue" points="877.48,-156.31 884.06,-148.01 873.74,-150.4 877.48,-156.31"/>
</g>
<!-- Node27 -->
<g id="node27" class="node">
<title>Node27</title>
<g id="a_node27"><a xlink:title=" ">
<polygon fill="none" stroke="#bfbfbf" points="948,-129 948,-148 1031,-148 1031,-129 948,-129"/>
<text text-anchor="middle" x="989.5" y="-136" font-family="Helvetica,sans-Serif" font-size="10.00">initializer_list</text>
</a>
</g>
</g>
<!-- Node16&#45;&gt;Node27 -->
<g id="edge36" class="edge">
<title>Node16&#45;&gt;Node27</title>
<path fill="none" stroke="midnightblue" d="M830.15,-190.48C862.47,-180.14 917.1,-162.66 953.23,-151.1"/>
<polygon fill="midnightblue" stroke="midnightblue" points="954.44,-154.39 962.9,-148.01 952.31,-147.72 954.44,-154.39"/>
</g>
<!-- Node28 -->
<g id="node28" class="node">
<title>Node28</title>
<g id="a_node28"><a xlink:title=" ">
<polygon fill="none" stroke="#bfbfbf" points="1049,-129 1049,-148 1118,-148 1118,-129 1049,-129"/>
<text text-anchor="middle" x="1083.5" y="-136" font-family="Helvetica,sans-Serif" font-size="10.00">type_traits</text>
</a>
</g>
</g>
<!-- Node16&#45;&gt;Node28 -->
<g id="edge39" class="edge">
<title>Node16&#45;&gt;Node28</title>
<path fill="none" stroke="midnightblue" d="M850.24,-192.07C898.35,-184.49 975.28,-171.1 1040.5,-154 1043.7,-153.16 1047.01,-152.21 1050.3,-151.2"/>
<polygon fill="midnightblue" stroke="midnightblue" points="1051.57,-154.47 1060.02,-148.07 1049.43,-147.8 1051.57,-154.47"/>
</g>
<!-- Node19&#45;&gt;Node6 -->
<g id="edge25" class="edge">
<title>Node19&#45;&gt;Node6</title>
<path fill="none" stroke="midnightblue" d="M789.74,-128.73C775.03,-119.36 751.23,-104.19 732.05,-91.97"/>
<polygon fill="midnightblue" stroke="midnightblue" points="733.92,-89.01 723.61,-86.59 730.16,-94.91 733.92,-89.01"/>
</g>
<!-- Node19&#45;&gt;Node10 -->
<g id="edge27" class="edge">
<title>Node19&#45;&gt;Node10</title>
<path fill="none" stroke="midnightblue" d="M810.33,-128.68C817.55,-118.97 828.79,-102.65 835.5,-87 843.52,-68.29 848.66,-45.48 851.54,-29.76"/>
<polygon fill="midnightblue" stroke="midnightblue" points="855.02,-30.17 853.25,-19.72 848.12,-28.99 855.02,-30.17"/>
</g>
<!-- Node19&#45;&gt;Node12 -->
<g id="edge30" class="edge">
<title>Node19&#45;&gt;Node12</title>
<path fill="none" stroke="midnightblue" d="M774.67,-128.94C741.84,-119.13 686.65,-102.39 639.5,-87 636.91,-86.15 634.23,-85.26 631.54,-84.36"/>
<polygon fill="midnightblue" stroke="midnightblue" points="632.48,-80.98 621.88,-81.07 630.22,-87.61 632.48,-80.98"/>
</g>
<!-- Node20 -->
<g id="node20" class="node">
<title>Node20</title>
<g id="a_node20"><a xlink:href="device__qualifier_8hpp.html" target="_top" xlink:title=" ">
<polygon fill="none" stroke="black" points="1403.5,-62 1403.5,-81 1519.5,-81 1519.5,-62 1403.5,-62"/>
<text text-anchor="middle" x="1461.5" y="-69" font-family="Helvetica,sans-Serif" font-size="10.00">device_qualifier.hpp</text>
</a>
</g>
</g>
<!-- Node19&#45;&gt;Node20 -->
<g id="edge20" class="edge">
<title>Node19&#45;&gt;Node20</title>
<path fill="none" stroke="midnightblue" d="M830.78,-128.95C838.98,-126.67 848.04,-124.45 856.5,-123 1073.91,-85.72 1132.06,-109.42 1351.5,-87 1365.07,-85.61 1379.55,-83.88 1393.4,-82.11"/>
<polygon fill="midnightblue" stroke="midnightblue" points="1393.88,-85.58 1403.35,-80.81 1392.98,-78.63 1393.88,-85.58"/>
</g>
<!-- Node19&#45;&gt;Node21 -->
<g id="edge26" class="edge">
<title>Node19&#45;&gt;Node21</title>
<path fill="none" stroke="midnightblue" d="M830.78,-128.97C838.98,-126.7 848.04,-124.47 856.5,-123 957.95,-105.33 1228.25,-136.6 1318.5,-87 1342.05,-74.06 1358.71,-46.8 1367.71,-28.7"/>
<polygon fill="midnightblue" stroke="midnightblue" points="1370.95,-30.04 1372.02,-19.5 1364.61,-27.07 1370.95,-30.04"/>
</g>
<!-- Node22 -->
<g id="node22" class="node">
<title>Node22</title>
<g id="a_node22"><a xlink:href="get_8hpp.html" target="_top" xlink:title=" ">
<polygon fill="none" stroke="black" points="1256,-62 1256,-81 1309,-81 1309,-62 1256,-62"/>
<text text-anchor="middle" x="1282.5" y="-69" font-family="Helvetica,sans-Serif" font-size="10.00">get.hpp</text>
</a>
</g>
</g>
<!-- Node19&#45;&gt;Node22 -->
<g id="edge22" class="edge">
<title>Node19&#45;&gt;Node22</title>
<path fill="none" stroke="midnightblue" d="M831.65,-128.96C839.62,-126.77 848.35,-124.59 856.5,-123 998.98,-95.22 1171.45,-80.47 1245.65,-75.01"/>
<polygon fill="midnightblue" stroke="midnightblue" points="1246.14,-78.48 1255.87,-74.27 1245.64,-71.5 1246.14,-78.48"/>
</g>
<!-- Node19&#45;&gt;Node24 -->
<g id="edge28" class="edge">
<title>Node19&#45;&gt;Node24</title>
<path fill="none" stroke="midnightblue" d="M802.96,-128.73C802.37,-119.18 801.41,-103.62 800.66,-91.28"/>
<polygon fill="midnightblue" stroke="midnightblue" points="804.14,-90.89 800.03,-81.13 797.15,-91.32 804.14,-90.89"/>
</g>
<!-- Node25 -->
<g id="node25" class="node">
<title>Node25</title>
<g id="a_node25"><a xlink:title=" ">
<polygon fill="none" stroke="#bfbfbf" points="883,-62 883,-81 940,-81 940,-62 883,-62"/>
<text text-anchor="middle" x="911.5" y="-69" font-family="Helvetica,sans-Serif" font-size="10.00">ostream</text>
</a>
</g>
</g>
<!-- Node19&#45;&gt;Node25 -->
<g id="edge29" class="edge">
<title>Node19&#45;&gt;Node25</title>
<path fill="none" stroke="midnightblue" d="M818.07,-128.73C836.12,-117.87 867.11,-99.22 888.42,-86.39"/>
<polygon fill="midnightblue" stroke="midnightblue" points="890.4,-89.28 897.17,-81.13 886.79,-83.29 890.4,-89.28"/>
</g>
<!-- Node20&#45;&gt;Node21 -->
<g id="edge21" class="edge">
<title>Node20&#45;&gt;Node21</title>
<path fill="none" stroke="midnightblue" d="M1449.18,-61.98C1435.38,-52.43 1412.8,-36.81 1396.27,-25.37"/>
<polygon fill="midnightblue" stroke="midnightblue" points="1398.01,-22.32 1387.8,-19.51 1394.03,-28.08 1398.01,-22.32"/>
</g>
<!-- Node22&#45;&gt;Node10 -->
<g id="edge23" class="edge">
<title>Node22&#45;&gt;Node10</title>
<path fill="none" stroke="midnightblue" d="M1261.07,-61.9C1254.84,-59.68 1247.97,-57.5 1241.5,-56 1115.16,-26.7 960.97,-16.05 891.53,-12.55"/>
<polygon fill="midnightblue" stroke="midnightblue" points="891.28,-9.03 881.13,-12.04 890.95,-16.02 891.28,-9.03"/>
</g>
<!-- Node22&#45;&gt;Node23 -->
<g id="edge24" class="edge">
<title>Node22&#45;&gt;Node23</title>
<path fill="none" stroke="midnightblue" d="M1309.01,-65.63C1368.45,-54.72 1512.08,-28.34 1575.51,-16.69"/>
<polygon fill="midnightblue" stroke="midnightblue" points="1576.47,-20.07 1585.68,-14.82 1575.21,-13.19 1576.47,-20.07"/>
</g>
<!-- Node29&#45;&gt;Node20 -->
<g id="edge42" class="edge">
<title>Node29&#45;&gt;Node20</title>
<path fill="none" stroke="midnightblue" d="M1625.72,-190.38C1616.82,-175.03 1596.37,-142.72 1571.5,-123 1549.84,-105.82 1521.4,-92.97 1498.86,-84.52"/>
<polygon fill="midnightblue" stroke="midnightblue" points="1499.88,-81.17 1489.29,-81.07 1497.51,-87.75 1499.88,-81.17"/>
</g>
<!-- Node30 -->
<g id="node30" class="node">
<title>Node30</title>
<g id="a_node30"><a xlink:title=" ">
<polygon fill="none" stroke="#bfbfbf" points="1623.5,-123.5 1623.5,-153.5 1745.5,-153.5 1745.5,-123.5 1623.5,-123.5"/>
<text text-anchor="start" x="1631.5" y="-141.5" font-family="Helvetica,sans-Serif" font-size="10.00">boost/math/constants</text>
<text text-anchor="middle" x="1684.5" y="-130.5" font-family="Helvetica,sans-Serif" font-size="10.00">/constants.hpp</text>
</a>
</g>
</g>
<!-- Node29&#45;&gt;Node30 -->
<g id="edge43" class="edge">
<title>Node29&#45;&gt;Node30</title>
<path fill="none" stroke="midnightblue" d="M1638.24,-190.48C1645.21,-182.79 1655.76,-171.17 1665.02,-160.96"/>
<polygon fill="midnightblue" stroke="midnightblue" points="1667.64,-163.28 1671.77,-153.52 1662.46,-158.58 1667.64,-163.28"/>
</g>
<!-- Node32 -->
<g id="node32" class="node">
<title>Node32</title>
<g id="a_node32"><a xlink:title=" ">
<polygon fill="none" stroke="#bfbfbf" points="1403.5,-129 1403.5,-148 1465.5,-148 1465.5,-129 1403.5,-129"/>
<text text-anchor="middle" x="1434.5" y="-136" font-family="Helvetica,sans-Serif" font-size="10.00">cinttypes</text>
</a>
</g>
</g>
<!-- Node31&#45;&gt;Node32 -->
<g id="edge45" class="edge">
<title>Node31&#45;&gt;Node32</title>
<path fill="none" stroke="midnightblue" d="M1424.22,-190.48C1425.93,-181.99 1428.61,-168.7 1430.8,-157.82"/>
<polygon fill="midnightblue" stroke="midnightblue" points="1434.24,-158.5 1432.78,-148.01 1427.38,-157.12 1434.24,-158.5"/>
</g>
<!-- Node31&#45;&gt;Node33 -->
<g id="edge46" class="edge">
<title>Node31&#45;&gt;Node33</title>
<path fill="none" stroke="midnightblue" d="M1434.54,-190.48C1448.01,-180.93 1470.07,-165.31 1486.22,-153.87"/>
<polygon fill="midnightblue" stroke="midnightblue" points="1488.35,-156.65 1494.49,-148.01 1484.3,-150.93 1488.35,-156.65"/>
</g>
<!-- Node34&#45;&gt;Node11 -->
<g id="edge49" class="edge">
<title>Node34&#45;&gt;Node11</title>
<path fill="none" stroke="midnightblue" d="M1188.29,-190.46C1215.86,-182.04 1258.47,-168.37 1294.5,-154 1295.88,-153.45 1297.29,-152.87 1298.7,-152.27"/>
<polygon fill="midnightblue" stroke="midnightblue" points="1300.24,-155.41 1307.95,-148.14 1297.39,-149.02 1300.24,-155.41"/>
</g>
<!-- Node34&#45;&gt;Node32 -->
<g id="edge48" class="edge">
<title>Node34&#45;&gt;Node32</title>
<path fill="none" stroke="midnightblue" d="M1209.68,-190.95C1256.54,-183.01 1328.24,-169.8 1389.5,-154 1392.94,-153.11 1396.51,-152.11 1400.06,-151.06"/>
<polygon fill="midnightblue" stroke="midnightblue" points="1401.38,-154.31 1409.9,-148.01 1399.31,-147.62 1401.38,-154.31"/>
</g>
</g>
</svg>
