<?xml version="1.0" encoding="UTF-8" standalone="no"?>
<!DOCTYPE svg PUBLIC "-//W3C//DTD SVG 1.1//EN"
 "http://www.w3.org/Graphics/SVG/1.1/DTD/svg11.dtd">
<!-- Generated by graphviz version 2.43.0 (0)
 -->
<!-- Title: rigid_bond.cpp Pages: 1 -->
<!--zoomable 330 -->
<svg id="main" version="1.1" xmlns="http://www.w3.org/2000/svg" xmlns:xlink="http://www.w3.org/1999/xlink" xml:space="preserve" onload="init(evt)">
<style type="text/css"><![CDATA[
.edge:hover path { stroke: red; }
.edge:hover polygon { stroke: red; fill: red; }
]]></style>
<script type="text/javascript"><![CDATA[
var edges = document.getElementsByTagName('g');
if (edges && edges.length) {
  for (var i=0;i<edges.length;i++) {
    if (edges[i].id.substr(0,4)=='edge') {
      edges[i].setAttribute('class','edge');
    }
  }
}
]]></script>
        <defs>
                <circle id="rim" cx="0" cy="0" r="7"/>
                <circle id="rim2" cx="0" cy="0" r="3.5"/>
                <g id="zoomPlus">
                        <use xlink:href="#rim" fill="#404040">
                                <set attributeName="fill" to="#808080" begin="zoomplus.mouseover" end="zoomplus.mouseout"/>
                        </use>
                        <path d="M-4,0h8M0,-4v8" fill="none" stroke="white" stroke-width="1.5" pointer-events="none"/>
                </g>
                <g id="zoomMin">
                        <use xlink:href="#rim" fill="#404040">
                                <set attributeName="fill" to="#808080" begin="zoomminus.mouseover" end="zoomminus.mouseout"/>
                        </use>
                        <path d="M-4,0h8" fill="none" stroke="white" stroke-width="1.5" pointer-events="none"/>
                </g>
                <g id="dirArrow">
                        <path fill="none" stroke="white" stroke-width="1.5" d="M0,-3.0v7 M-2.5,-0.5L0,-3.0L2.5,-0.5"/>
                </g>
               <g id="resetDef">
                       <use xlink:href="#rim2" fill="#404040">
                               <set attributeName="fill" to="#808080" begin="reset.mouseover" end="reset.mouseout"/>
                       </use>
               </g>
        </defs>

<script type="text/javascript">
var viewWidth = 2198;
var viewHeight = 330;
var sectionId = 'dynsection-0';
</script>
<script xlink:href="svgpan.js"/>
<svg id="graph" class="graph">
<g id="viewport">
<title>rigid_bond.cpp</title>
<!-- Node1 -->
<g id="node1" class="node">
<title>Node1</title>
<g id="a_node1"><a xlink:title=" ">
<polygon fill="#bfbfbf" stroke="black" points="685.5,-302.5 685.5,-321.5 773.5,-321.5 773.5,-302.5 685.5,-302.5"/>
<text text-anchor="middle" x="729.5" y="-309.5" font-family="Helvetica,sans-Serif" font-size="10.00">rigid_bond.cpp</text>
</a>
</g>
</g>
<!-- Node2 -->
<g id="node2" class="node">
<title>Node2</title>
<g id="a_node2"><a xlink:href="rigid__bond_8hpp.html" target="_top" xlink:title=" ">
<polygon fill="none" stroke="black" points="685,-246.5 685,-265.5 774,-265.5 774,-246.5 685,-246.5"/>
<text text-anchor="middle" x="729.5" y="-253.5" font-family="Helvetica,sans-Serif" font-size="10.00">rigid_bond.hpp</text>
</a>
</g>
</g>
<!-- Node1&#45;&gt;Node2 -->
<g id="edge1" class="edge">
<title>Node1&#45;&gt;Node2</title>
<path fill="none" stroke="midnightblue" d="M729.5,-302.08C729.5,-295.01 729.5,-284.86 729.5,-275.99"/>
<polygon fill="midnightblue" stroke="midnightblue" points="733,-275.75 729.5,-265.75 726,-275.75 733,-275.75"/>
</g>
<!-- Node3 -->
<g id="node3" class="node">
<title>Node3</title>
<g id="a_node3"><a xlink:href="Vector_8hpp.html" target="_top" xlink:title=" ">
<polygon fill="none" stroke="black" points="603,-190.5 603,-209.5 696,-209.5 696,-190.5 603,-190.5"/>
<text text-anchor="middle" x="649.5" y="-197.5" font-family="Helvetica,sans-Serif" font-size="10.00">utils/Vector.hpp</text>
</a>
</g>
</g>
<!-- Node1&#45;&gt;Node3 -->
<g id="edge64" class="edge">
<title>Node1&#45;&gt;Node3</title>
<path fill="none" stroke="midnightblue" d="M716.18,-302.41C704.41,-294.25 687.45,-281.02 676.5,-266 666.15,-251.82 658.92,-233.1 654.56,-219.39"/>
<polygon fill="midnightblue" stroke="midnightblue" points="657.87,-218.24 651.67,-209.65 651.16,-220.23 657.87,-218.24"/>
</g>
<!-- Node23 -->
<g id="node23" class="node">
<title>Node23</title>
<g id="a_node23"><a xlink:href="communication_8hpp.html" target="_top" xlink:title=" ">
<polygon fill="none" stroke="black" points="1181,-246.5 1181,-265.5 1294,-265.5 1294,-246.5 1181,-246.5"/>
<text text-anchor="middle" x="1237.5" y="-253.5" font-family="Helvetica,sans-Serif" font-size="10.00">communication.hpp</text>
</a>
</g>
</g>
<!-- Node1&#45;&gt;Node23 -->
<g id="edge28" class="edge">
<title>Node1&#45;&gt;Node23</title>
<path fill="none" stroke="midnightblue" d="M773.69,-306.3C862.93,-296.82 1065.11,-275.32 1170.6,-264.11"/>
<polygon fill="midnightblue" stroke="midnightblue" points="1171.24,-267.56 1180.81,-263.03 1170.5,-260.6 1171.24,-267.56"/>
</g>
<!-- Node2&#45;&gt;Node3 -->
<g id="edge2" class="edge">
<title>Node2&#45;&gt;Node3</title>
<path fill="none" stroke="midnightblue" d="M716.64,-246.32C704.28,-237.98 685.37,-225.21 670.76,-215.35"/>
<polygon fill="midnightblue" stroke="midnightblue" points="672.56,-212.35 662.32,-209.65 668.65,-218.15 672.56,-212.35"/>
</g>
<!-- Node17 -->
<g id="node17" class="node">
<title>Node17</title>
<g id="a_node17"><a xlink:title=" ">
<polygon fill="none" stroke="#bfbfbf" points="716,-129 716,-148 763,-148 763,-129 716,-129"/>
<text text-anchor="middle" x="739.5" y="-136" font-family="Helvetica,sans-Serif" font-size="10.00">cmath</text>
</a>
</g>
</g>
<!-- Node2&#45;&gt;Node17 -->
<g id="edge27" class="edge">
<title>Node2&#45;&gt;Node17</title>
<path fill="none" stroke="midnightblue" d="M730.25,-246.32C731.85,-227.76 735.66,-183.84 737.85,-158.47"/>
<polygon fill="midnightblue" stroke="midnightblue" points="741.36,-158.55 738.74,-148.28 734.39,-157.94 741.36,-158.55"/>
</g>
<!-- Node4 -->
<g id="node4" class="node">
<title>Node4</title>
<g id="a_node4"><a xlink:title=" ">
<polygon fill="none" stroke="#bfbfbf" points="15.5,-129 15.5,-148 165.5,-148 165.5,-129 15.5,-129"/>
<text text-anchor="middle" x="90.5" y="-136" font-family="Helvetica,sans-Serif" font-size="10.00">boost/qvm/deduce_vec.hpp</text>
</a>
</g>
</g>
<!-- Node3&#45;&gt;Node4 -->
<g id="edge3" class="edge">
<title>Node3&#45;&gt;Node4</title>
<path fill="none" stroke="midnightblue" d="M602.68,-195.55C518.04,-189.08 333.96,-173.95 179.5,-154 169.71,-152.74 159.36,-151.22 149.3,-149.64"/>
<polygon fill="midnightblue" stroke="midnightblue" points="149.8,-146.18 139.38,-148.06 148.7,-153.09 149.8,-146.18"/>
</g>
<!-- Node5 -->
<g id="node5" class="node">
<title>Node5</title>
<g id="a_node5"><a xlink:title=" ">
<polygon fill="none" stroke="#bfbfbf" points="221.5,-129 221.5,-148 361.5,-148 361.5,-129 221.5,-129"/>
<text text-anchor="middle" x="291.5" y="-136" font-family="Helvetica,sans-Serif" font-size="10.00">boost/qvm/vec_traits.hpp</text>
</a>
</g>
</g>
<!-- Node3&#45;&gt;Node5 -->
<g id="edge4" class="edge">
<title>Node3&#45;&gt;Node5</title>
<path fill="none" stroke="midnightblue" d="M602.55,-191.74C547.06,-183.1 451.97,-168.05 370.5,-154 362.86,-152.68 354.82,-151.26 346.91,-149.83"/>
<polygon fill="midnightblue" stroke="midnightblue" points="347.47,-146.37 337,-148.03 346.21,-153.26 347.47,-146.37"/>
</g>
<!-- Node6 -->
<g id="node6" class="node">
<title>Node6</title>
<g id="a_node6"><a xlink:href="Array_8hpp.html" target="_top" xlink:title=" ">
<polygon fill="none" stroke="black" points="461.5,-129 461.5,-148 547.5,-148 547.5,-129 461.5,-129"/>
<text text-anchor="middle" x="504.5" y="-136" font-family="Helvetica,sans-Serif" font-size="10.00">utils/Array.hpp</text>
</a>
</g>
</g>
<!-- Node3&#45;&gt;Node6 -->
<g id="edge5" class="edge">
<title>Node3&#45;&gt;Node6</title>
<path fill="none" stroke="midnightblue" d="M628.72,-190.48C604.06,-180.36 562.75,-163.4 534.59,-151.85"/>
<polygon fill="midnightblue" stroke="midnightblue" points="535.81,-148.57 525.23,-148.01 533.16,-155.04 535.81,-148.57"/>
</g>
<!-- Node8 -->
<g id="node8" class="node">
<title>Node8</title>
<g id="a_node8"><a xlink:title=" ">
<polygon fill="none" stroke="#bfbfbf" points="665.5,-0.5 665.5,-19.5 717.5,-19.5 717.5,-0.5 665.5,-0.5"/>
<text text-anchor="middle" x="691.5" y="-7.5" font-family="Helvetica,sans-Serif" font-size="10.00">cassert</text>
</a>
</g>
</g>
<!-- Node3&#45;&gt;Node8 -->
<g id="edge18" class="edge">
<title>Node3&#45;&gt;Node8</title>
<path fill="none" stroke="midnightblue" d="M602.63,-199.31C461.36,-199.77 46.94,-197.38 6.5,-154 -2.9,-143.92 -1.14,-134.47 6.5,-123 79.13,-13.83 523.33,-9.33 654.84,-10.44"/>
<polygon fill="midnightblue" stroke="midnightblue" points="655.14,-13.94 665.18,-10.54 655.21,-6.94 655.14,-13.94"/>
</g>
<!-- Node10 -->
<g id="node10" class="node">
<title>Node10</title>
<g id="a_node10"><a xlink:title=" ">
<polygon fill="none" stroke="#bfbfbf" points="992,-0.5 992,-19.5 1045,-19.5 1045,-0.5 992,-0.5"/>
<text text-anchor="middle" x="1018.5" y="-7.5" font-family="Helvetica,sans-Serif" font-size="10.00">cstddef</text>
</a>
</g>
</g>
<!-- Node3&#45;&gt;Node10 -->
<g id="edge20" class="edge">
<title>Node3&#45;&gt;Node10</title>
<path fill="none" stroke="midnightblue" d="M649.42,-190.31C649.79,-174.25 653.08,-140 673.5,-123 773.31,-39.91 851.69,-153.1 963.5,-87 986.1,-73.63 1002.05,-46.95 1010.76,-29.03"/>
<polygon fill="midnightblue" stroke="midnightblue" points="1013.97,-30.44 1014.95,-19.89 1007.6,-27.52 1013.97,-30.44"/>
</g>
<!-- Node13 -->
<g id="node13" class="node">
<title>Node13</title>
<g id="a_node13"><a xlink:title=" ">
<polygon fill="none" stroke="#bfbfbf" points="176,-62 176,-81 229,-81 229,-62 176,-62"/>
<text text-anchor="middle" x="202.5" y="-69" font-family="Helvetica,sans-Serif" font-size="10.00">iterator</text>
</a>
</g>
</g>
<!-- Node3&#45;&gt;Node13 -->
<g id="edge23" class="edge">
<title>Node3&#45;&gt;Node13</title>
<path fill="none" stroke="midnightblue" d="M602.64,-197.42C495.55,-193.36 239.96,-180.94 212.5,-154 196.07,-137.89 196.38,-109.69 198.85,-91.06"/>
<polygon fill="midnightblue" stroke="midnightblue" points="202.32,-91.56 200.5,-81.12 195.41,-90.41 202.32,-91.56"/>
</g>
<!-- Node16 -->
<g id="node16" class="node">
<title>Node16</title>
<g id="a_node16"><a xlink:title=" ">
<polygon fill="none" stroke="#bfbfbf" points="379.5,-129 379.5,-148 443.5,-148 443.5,-129 379.5,-129"/>
<text text-anchor="middle" x="411.5" y="-136" font-family="Helvetica,sans-Serif" font-size="10.00">algorithm</text>
</a>
</g>
</g>
<!-- Node3&#45;&gt;Node16 -->
<g id="edge17" class="edge">
<title>Node3&#45;&gt;Node16</title>
<path fill="none" stroke="midnightblue" d="M605.31,-190.43C565.13,-182.28 504.38,-169.05 452.5,-154 449.71,-153.19 446.83,-152.3 443.96,-151.37"/>
<polygon fill="midnightblue" stroke="midnightblue" points="444.92,-148 434.33,-148.1 442.68,-154.63 444.92,-148"/>
</g>
<!-- Node3&#45;&gt;Node17 -->
<g id="edge19" class="edge">
<title>Node3&#45;&gt;Node17</title>
<path fill="none" stroke="midnightblue" d="M662.39,-190.48C676.96,-180.84 700.9,-165.02 718.24,-153.55"/>
<polygon fill="midnightblue" stroke="midnightblue" points="720.21,-156.44 726.63,-148.01 716.35,-150.6 720.21,-156.44"/>
</g>
<!-- Node18 -->
<g id="node18" class="node">
<title>Node18</title>
<g id="a_node18"><a xlink:title=" ">
<polygon fill="none" stroke="#bfbfbf" points="781,-129 781,-148 846,-148 846,-129 781,-129"/>
<text text-anchor="middle" x="813.5" y="-136" font-family="Helvetica,sans-Serif" font-size="10.00">functional</text>
</a>
</g>
</g>
<!-- Node3&#45;&gt;Node18 -->
<g id="edge21" class="edge">
<title>Node3&#45;&gt;Node18</title>
<path fill="none" stroke="midnightblue" d="M672.99,-190.48C701.12,-180.27 748.43,-163.11 780.28,-151.55"/>
<polygon fill="midnightblue" stroke="midnightblue" points="781.84,-154.71 790.04,-148.01 779.45,-148.13 781.84,-154.71"/>
</g>
<!-- Node19 -->
<g id="node19" class="node">
<title>Node19</title>
<g id="a_node19"><a xlink:title=" ">
<polygon fill="none" stroke="#bfbfbf" points="864,-129 864,-148 947,-148 947,-129 864,-129"/>
<text text-anchor="middle" x="905.5" y="-136" font-family="Helvetica,sans-Serif" font-size="10.00">initializer_list</text>
</a>
</g>
</g>
<!-- Node3&#45;&gt;Node19 -->
<g id="edge22" class="edge">
<title>Node3&#45;&gt;Node19</title>
<path fill="none" stroke="midnightblue" d="M692.7,-190.44C734.52,-181.95 799.61,-168.19 855.5,-154 859.38,-153.01 863.41,-151.94 867.43,-150.83"/>
<polygon fill="midnightblue" stroke="midnightblue" points="868.62,-154.13 877.29,-148.04 866.72,-147.39 868.62,-154.13"/>
</g>
<!-- Node20 -->
<g id="node20" class="node">
<title>Node20</title>
<g id="a_node20"><a xlink:title=" ">
<polygon fill="none" stroke="#bfbfbf" points="565.5,-129 565.5,-148 621.5,-148 621.5,-129 565.5,-129"/>
<text text-anchor="middle" x="593.5" y="-136" font-family="Helvetica,sans-Serif" font-size="10.00">numeric</text>
</a>
</g>
</g>
<!-- Node3&#45;&gt;Node20 -->
<g id="edge24" class="edge">
<title>Node3&#45;&gt;Node20</title>
<path fill="none" stroke="midnightblue" d="M641.47,-190.48C632.91,-181.37 619.13,-166.74 608.54,-155.48"/>
<polygon fill="midnightblue" stroke="midnightblue" points="610.91,-152.89 601.5,-148.01 605.81,-157.69 610.91,-152.89"/>
</g>
<!-- Node21 -->
<g id="node21" class="node">
<title>Node21</title>
<g id="a_node21"><a xlink:title=" ">
<polygon fill="none" stroke="#bfbfbf" points="1813,-0.5 1813,-19.5 1882,-19.5 1882,-0.5 1813,-0.5"/>
<text text-anchor="middle" x="1847.5" y="-7.5" font-family="Helvetica,sans-Serif" font-size="10.00">type_traits</text>
</a>
</g>
</g>
<!-- Node3&#45;&gt;Node21 -->
<g id="edge25" class="edge">
<title>Node3&#45;&gt;Node21</title>
<path fill="none" stroke="midnightblue" d="M653.23,-190.04C660.63,-173.51 678.9,-138.53 706.5,-123 730.9,-109.27 1594.46,-33.1 1802.67,-14.9"/>
<polygon fill="midnightblue" stroke="midnightblue" points="1803.27,-18.37 1812.93,-14.01 1802.66,-11.39 1803.27,-18.37"/>
</g>
<!-- Node22 -->
<g id="node22" class="node">
<title>Node22</title>
<g id="a_node22"><a xlink:title=" ">
<polygon fill="none" stroke="#bfbfbf" points="965,-129 965,-148 1012,-148 1012,-129 965,-129"/>
<text text-anchor="middle" x="988.5" y="-136" font-family="Helvetica,sans-Serif" font-size="10.00">vector</text>
</a>
</g>
</g>
<!-- Node3&#45;&gt;Node22 -->
<g id="edge26" class="edge">
<title>Node3&#45;&gt;Node22</title>
<path fill="none" stroke="midnightblue" d="M696.13,-196.23C757.05,-191.7 866.56,-180.4 956.5,-154 958.43,-153.43 960.39,-152.77 962.35,-152.05"/>
<polygon fill="midnightblue" stroke="midnightblue" points="964,-155.15 971.89,-148.08 961.32,-148.69 964,-155.15"/>
</g>
<!-- Node7 -->
<g id="node7" class="node">
<title>Node7</title>
<g id="a_node7"><a xlink:href="device__qualifier_8hpp.html" target="_top" xlink:title=" ">
<polygon fill="none" stroke="black" points="547.5,-62 547.5,-81 663.5,-81 663.5,-62 547.5,-62"/>
<text text-anchor="middle" x="605.5" y="-69" font-family="Helvetica,sans-Serif" font-size="10.00">device_qualifier.hpp</text>
</a>
</g>
</g>
<!-- Node6&#45;&gt;Node7 -->
<g id="edge6" class="edge">
<title>Node6&#45;&gt;Node7</title>
<path fill="none" stroke="midnightblue" d="M518.12,-128.73C534.93,-117.92 563.72,-99.38 583.64,-86.57"/>
<polygon fill="midnightblue" stroke="midnightblue" points="585.58,-89.48 592.09,-81.13 581.79,-83.6 585.58,-89.48"/>
</g>
<!-- Node6&#45;&gt;Node8 -->
<g id="edge12" class="edge">
<title>Node6&#45;&gt;Node8</title>
<path fill="none" stroke="midnightblue" d="M534.38,-128.92C582,-115.2 670.05,-89.57 672.5,-87 687.07,-71.73 690.95,-47.04 691.76,-29.97"/>
<polygon fill="midnightblue" stroke="midnightblue" points="695.26,-29.63 691.91,-19.58 688.26,-29.52 695.26,-29.63"/>
</g>
<!-- Node9 -->
<g id="node9" class="node">
<title>Node9</title>
<g id="a_node9"><a xlink:href="get_8hpp.html" target="_top" xlink:title=" ">
<polygon fill="none" stroke="black" points="1724,-62 1724,-81 1777,-81 1777,-62 1724,-62"/>
<text text-anchor="middle" x="1750.5" y="-69" font-family="Helvetica,sans-Serif" font-size="10.00">get.hpp</text>
</a>
</g>
</g>
<!-- Node6&#45;&gt;Node9 -->
<g id="edge8" class="edge">
<title>Node6&#45;&gt;Node9</title>
<path fill="none" stroke="midnightblue" d="M530.69,-128.93C538.87,-126.6 547.98,-124.35 556.5,-123 787.57,-86.4 1538.18,-75.09 1713.59,-72.92"/>
<polygon fill="midnightblue" stroke="midnightblue" points="1713.89,-76.42 1723.85,-72.8 1713.8,-69.42 1713.89,-76.42"/>
</g>
<!-- Node6&#45;&gt;Node10 -->
<g id="edge13" class="edge">
<title>Node6&#45;&gt;Node10</title>
<path fill="none" stroke="midnightblue" d="M531.54,-128.99C539.51,-126.74 548.3,-124.53 556.5,-123 720.67,-92.46 776.96,-152.67 930.5,-87 946.72,-80.06 981.81,-47.17 1002.45,-27"/>
<polygon fill="midnightblue" stroke="midnightblue" points="1005.16,-29.24 1009.82,-19.73 1000.24,-24.25 1005.16,-29.24"/>
</g>
<!-- Node12 -->
<g id="node12" class="node">
<title>Node12</title>
<g id="a_node12"><a xlink:title=" ">
<polygon fill="none" stroke="#bfbfbf" points="264,-56.5 264,-86.5 371,-86.5 371,-56.5 264,-56.5"/>
<text text-anchor="start" x="272" y="-74.5" font-family="Helvetica,sans-Serif" font-size="10.00">boost/serialization</text>
<text text-anchor="middle" x="317.5" y="-63.5" font-family="Helvetica,sans-Serif" font-size="10.00">/access.hpp</text>
</a>
</g>
</g>
<!-- Node6&#45;&gt;Node12 -->
<g id="edge11" class="edge">
<title>Node6&#45;&gt;Node12</title>
<path fill="none" stroke="midnightblue" d="M479.66,-128.87C451.24,-118.99 403.94,-102.55 367.74,-89.97"/>
<polygon fill="midnightblue" stroke="midnightblue" points="368.45,-86.51 357.85,-86.53 366.15,-93.12 368.45,-86.51"/>
</g>
<!-- Node6&#45;&gt;Node13 -->
<g id="edge14" class="edge">
<title>Node6&#45;&gt;Node13</title>
<path fill="none" stroke="midnightblue" d="M475.74,-128.97C468.21,-126.88 460.08,-124.74 452.5,-123 365.33,-102.97 341.67,-107.03 254.5,-87 249.43,-85.84 244.12,-84.5 238.91,-83.11"/>
<polygon fill="midnightblue" stroke="midnightblue" points="239.67,-79.69 229.1,-80.43 237.82,-86.44 239.67,-79.69"/>
</g>
<!-- Node14 -->
<g id="node14" class="node">
<title>Node14</title>
<g id="a_node14"><a xlink:title=" ">
<polygon fill="none" stroke="#bfbfbf" points="389,-62 389,-81 446,-81 446,-62 389,-62"/>
<text text-anchor="middle" x="417.5" y="-69" font-family="Helvetica,sans-Serif" font-size="10.00">ostream</text>
</a>
</g>
</g>
<!-- Node6&#45;&gt;Node14 -->
<g id="edge15" class="edge">
<title>Node6&#45;&gt;Node14</title>
<path fill="none" stroke="midnightblue" d="M492.76,-128.73C478.54,-118.11 454.37,-100.05 437.26,-87.26"/>
<polygon fill="midnightblue" stroke="midnightblue" points="439.15,-84.31 429.04,-81.13 434.96,-89.92 439.15,-84.31"/>
</g>
<!-- Node15 -->
<g id="node15" class="node">
<title>Node15</title>
<g id="a_node15"><a xlink:title=" ">
<polygon fill="none" stroke="#bfbfbf" points="464,-62 464,-81 529,-81 529,-62 464,-62"/>
<text text-anchor="middle" x="496.5" y="-69" font-family="Helvetica,sans-Serif" font-size="10.00">stdexcept</text>
</a>
</g>
</g>
<!-- Node6&#45;&gt;Node15 -->
<g id="edge16" class="edge">
<title>Node6&#45;&gt;Node15</title>
<path fill="none" stroke="midnightblue" d="M503.42,-128.73C502.24,-119.18 500.33,-103.62 498.81,-91.28"/>
<polygon fill="midnightblue" stroke="midnightblue" points="502.25,-90.62 497.56,-81.13 495.31,-91.48 502.25,-90.62"/>
</g>
<!-- Node7&#45;&gt;Node8 -->
<g id="edge7" class="edge">
<title>Node7&#45;&gt;Node8</title>
<path fill="none" stroke="midnightblue" d="M617.82,-61.98C631.61,-52.43 654.19,-36.81 670.73,-25.37"/>
<polygon fill="midnightblue" stroke="midnightblue" points="672.96,-28.08 679.2,-19.51 668.98,-22.32 672.96,-28.08"/>
</g>
<!-- Node9&#45;&gt;Node10 -->
<g id="edge9" class="edge">
<title>Node9&#45;&gt;Node10</title>
<path fill="none" stroke="midnightblue" d="M1723.58,-68.31C1611.81,-59.23 1184.2,-24.47 1055.41,-14"/>
<polygon fill="midnightblue" stroke="midnightblue" points="1055.52,-10.5 1045.27,-13.18 1054.96,-17.48 1055.52,-10.5"/>
</g>
<!-- Node11 -->
<g id="node11" class="node">
<title>Node11</title>
<g id="a_node11"><a xlink:title=" ">
<polygon fill="none" stroke="#bfbfbf" points="2077,-0.5 2077,-19.5 2118,-19.5 2118,-0.5 2077,-0.5"/>
<text text-anchor="middle" x="2097.5" y="-7.5" font-family="Helvetica,sans-Serif" font-size="10.00">tuple</text>
</a>
</g>
</g>
<!-- Node9&#45;&gt;Node11 -->
<g id="edge10" class="edge">
<title>Node9&#45;&gt;Node11</title>
<path fill="none" stroke="midnightblue" d="M1769.26,-61.96C1774.73,-59.74 1780.77,-57.54 1786.5,-56 1839.12,-41.81 1999.06,-22.36 2066.73,-14.5"/>
<polygon fill="midnightblue" stroke="midnightblue" points="2067.24,-17.97 2076.77,-13.34 2066.43,-11.01 2067.24,-17.97"/>
</g>
<!-- Node24 -->
<g id="node24" class="node">
<title>Node24</title>
<g id="a_node24"><a xlink:href="MpiCallbacks_8hpp.html" target="_top" xlink:title=" ">
<polygon fill="none" stroke="black" points="1439,-190.5 1439,-209.5 1542,-209.5 1542,-190.5 1439,-190.5"/>
<text text-anchor="middle" x="1490.5" y="-197.5" font-family="Helvetica,sans-Serif" font-size="10.00">MpiCallbacks.hpp</text>
</a>
</g>
</g>
<!-- Node23&#45;&gt;Node24 -->
<g id="edge29" class="edge">
<title>Node23&#45;&gt;Node24</title>
<path fill="none" stroke="midnightblue" d="M1277.58,-246.44C1321.81,-237 1393.03,-221.8 1440.78,-211.61"/>
<polygon fill="midnightblue" stroke="midnightblue" points="1441.55,-215.03 1450.59,-209.52 1440.08,-208.18 1441.55,-215.03"/>
</g>
<!-- Node32 -->
<g id="node32" class="node">
<title>Node32</title>
<g id="a_node32"><a xlink:title=" ">
<polygon fill="none" stroke="#bfbfbf" points="2126,-62 2126,-81 2171,-81 2171,-62 2126,-62"/>
<text text-anchor="middle" x="2148.5" y="-69" font-family="Helvetica,sans-Serif" font-size="10.00">utility</text>
</a>
</g>
</g>
<!-- Node23&#45;&gt;Node32 -->
<g id="edge63" class="edge">
<title>Node23&#45;&gt;Node32</title>
<path fill="none" stroke="midnightblue" d="M1294.32,-252.73C1483.11,-244.64 2080.88,-214.43 2140.5,-154 2156.61,-137.66 2155.59,-109.53 2152.63,-90.97"/>
<polygon fill="midnightblue" stroke="midnightblue" points="2156.05,-90.23 2150.72,-81.07 2149.18,-91.55 2156.05,-90.23"/>
</g>
<!-- Node35 -->
<g id="node35" class="node">
<title>Node35</title>
<g id="a_node35"><a xlink:title=" ">
<polygon fill="none" stroke="#bfbfbf" points="1030.5,-129 1030.5,-148 1190.5,-148 1190.5,-129 1030.5,-129"/>
<text text-anchor="middle" x="1110.5" y="-136" font-family="Helvetica,sans-Serif" font-size="10.00">boost/mpi/communicator.hpp</text>
</a>
</g>
</g>
<!-- Node23&#45;&gt;Node35 -->
<g id="edge61" class="edge">
<title>Node23&#45;&gt;Node35</title>
<path fill="none" stroke="midnightblue" d="M1227.95,-246.32C1206.62,-226.92 1154.84,-179.83 1127.72,-155.16"/>
<polygon fill="midnightblue" stroke="midnightblue" points="1129.91,-152.42 1120.15,-148.28 1125.2,-157.6 1129.91,-152.42"/>
</g>
<!-- Node38 -->
<g id="node38" class="node">
<title>Node38</title>
<g id="a_node38"><a xlink:title=" ">
<polygon fill="none" stroke="#bfbfbf" points="1208.5,-129 1208.5,-148 1266.5,-148 1266.5,-129 1208.5,-129"/>
<text text-anchor="middle" x="1237.5" y="-136" font-family="Helvetica,sans-Serif" font-size="10.00">memory</text>
</a>
</g>
</g>
<!-- Node23&#45;&gt;Node38 -->
<g id="edge62" class="edge">
<title>Node23&#45;&gt;Node38</title>
<path fill="none" stroke="midnightblue" d="M1237.5,-246.32C1237.5,-227.76 1237.5,-183.84 1237.5,-158.47"/>
<polygon fill="midnightblue" stroke="midnightblue" points="1241,-158.28 1237.5,-148.28 1234,-158.28 1241,-158.28"/>
</g>
<!-- Node24&#45;&gt;Node8 -->
<g id="edge53" class="edge">
<title>Node24&#45;&gt;Node8</title>
<path fill="none" stroke="midnightblue" d="M1438.92,-193.38C1401.02,-187.6 1349.24,-176.17 1308.5,-154 1290.82,-144.38 1293.94,-131.04 1275.5,-123 1167.9,-76.08 851.64,-143.05 748.5,-87 724.88,-74.17 708.24,-46.89 699.26,-28.74"/>
<polygon fill="midnightblue" stroke="midnightblue" points="702.36,-27.11 694.96,-19.53 696.01,-30.07 702.36,-27.11"/>
</g>
<!-- Node24&#45;&gt;Node11 -->
<g id="edge57" class="edge">
<title>Node24&#45;&gt;Node11</title>
<path fill="none" stroke="midnightblue" d="M1542.05,-198.15C1686.84,-195.4 2090.01,-185.01 2140.5,-154 2180.58,-129.38 2204.56,-96.42 2180.5,-56 2169.12,-36.9 2146.51,-25.41 2127.75,-18.82"/>
<polygon fill="midnightblue" stroke="midnightblue" points="2128.69,-15.45 2118.1,-15.73 2126.55,-22.11 2128.69,-15.45"/>
</g>
<!-- Node24&#45;&gt;Node18 -->
<g id="edge54" class="edge">
<title>Node24&#45;&gt;Node18</title>
<path fill="none" stroke="midnightblue" d="M1438.85,-199.88C1329.85,-200.74 1068.81,-197.59 855.5,-154 851.99,-153.28 848.37,-152.35 844.8,-151.3"/>
<polygon fill="midnightblue" stroke="midnightblue" points="845.58,-147.88 834.99,-148.13 843.43,-154.54 845.58,-147.88"/>
</g>
<!-- Node24&#45;&gt;Node19 -->
<g id="edge55" class="edge">
<title>Node24&#45;&gt;Node19</title>
<path fill="none" stroke="midnightblue" d="M1438.89,-197.95C1343.08,-195.28 1131.54,-185.95 956.5,-154 951.66,-153.12 946.62,-151.97 941.67,-150.71"/>
<polygon fill="midnightblue" stroke="midnightblue" points="942.31,-147.26 931.74,-148.01 940.47,-154.01 942.31,-147.26"/>
</g>
<!-- Node24&#45;&gt;Node21 -->
<g id="edge58" class="edge">
<title>Node24&#45;&gt;Node21</title>
<path fill="none" stroke="midnightblue" d="M1542.19,-197.08C1646.67,-192.67 1875.11,-180.11 1898.5,-154 1907.69,-143.74 1907.25,-133.64 1898.5,-123 1845.84,-58.98 1768.15,-151.02 1715.5,-87 1687.03,-52.39 1754.08,-30.3 1802.67,-19.32"/>
<polygon fill="midnightblue" stroke="midnightblue" points="1803.69,-22.68 1812.72,-17.15 1802.21,-15.84 1803.69,-22.68"/>
</g>
<!-- Node24&#45;&gt;Node22 -->
<g id="edge60" class="edge">
<title>Node24&#45;&gt;Node22</title>
<path fill="none" stroke="midnightblue" d="M1438.91,-199.36C1351.54,-198.8 1169.52,-192.56 1021.5,-154 1019.2,-153.4 1016.85,-152.66 1014.53,-151.83"/>
<polygon fill="midnightblue" stroke="midnightblue" points="1015.84,-148.59 1005.25,-148.09 1013.22,-155.08 1015.84,-148.59"/>
</g>
<!-- Node25 -->
<g id="node25" class="node">
<title>Node25</title>
<g id="a_node25"><a xlink:href="NumeratedContainer_8hpp.html" target="_top" xlink:title=" ">
<polygon fill="none" stroke="black" points="757.5,-62 757.5,-81 921.5,-81 921.5,-62 757.5,-62"/>
<text text-anchor="middle" x="839.5" y="-69" font-family="Helvetica,sans-Serif" font-size="10.00">utils/NumeratedContainer.hpp</text>
</a>
</g>
</g>
<!-- Node24&#45;&gt;Node25 -->
<g id="edge30" class="edge">
<title>Node24&#45;&gt;Node25</title>
<path fill="none" stroke="midnightblue" d="M1454.76,-190.5C1426.2,-182.97 1385.61,-170.59 1352.5,-154 1331.11,-143.28 1330.88,-131.44 1308.5,-123 1291.13,-116.45 1063.19,-93.86 931.6,-81.22"/>
<polygon fill="midnightblue" stroke="midnightblue" points="931.81,-77.73 921.52,-80.26 931.14,-84.69 931.81,-77.73"/>
</g>
<!-- Node28 -->
<g id="node28" class="node">
<title>Node28</title>
<g id="a_node28"><a xlink:href="as__const_8hpp.html" target="_top" xlink:title=" ">
<polygon fill="none" stroke="black" points="1795.5,-62 1795.5,-81 1899.5,-81 1899.5,-62 1795.5,-62"/>
<text text-anchor="middle" x="1847.5" y="-69" font-family="Helvetica,sans-Serif" font-size="10.00">utils/as_const.hpp</text>
</a>
</g>
</g>
<!-- Node24&#45;&gt;Node28 -->
<g id="edge35" class="edge">
<title>Node24&#45;&gt;Node28</title>
<path fill="none" stroke="midnightblue" d="M1542.11,-197.54C1652.95,-193.87 1905.8,-182.45 1931.5,-154 1954.61,-128.4 1910.14,-100.92 1877.55,-85.3"/>
<polygon fill="midnightblue" stroke="midnightblue" points="1878.87,-82.06 1868.32,-81.04 1875.93,-88.41 1878.87,-82.06"/>
</g>
<!-- Node29 -->
<g id="node29" class="node">
<title>Node29</title>
<g id="a_node29"><a xlink:href="tuple_8hpp.html" target="_top" xlink:title=" ">
<polygon fill="none" stroke="black" points="2021.5,-129 2021.5,-148 2107.5,-148 2107.5,-129 2021.5,-129"/>
<text text-anchor="middle" x="2064.5" y="-136" font-family="Helvetica,sans-Serif" font-size="10.00">utils/tuple.hpp</text>
</a>
</g>
</g>
<!-- Node24&#45;&gt;Node29 -->
<g id="edge37" class="edge">
<title>Node24&#45;&gt;Node29</title>
<path fill="none" stroke="midnightblue" d="M1542.21,-197.28C1635.69,-193.54 1838.72,-182.62 2007.5,-154 2013.1,-153.05 2018.95,-151.83 2024.69,-150.5"/>
<polygon fill="midnightblue" stroke="midnightblue" points="2025.93,-153.8 2034.81,-148.02 2024.27,-147 2025.93,-153.8"/>
</g>
<!-- Node30 -->
<g id="node30" class="node">
<title>Node30</title>
<g id="a_node30"><a xlink:href="type__traits_8hpp.html" target="_top" xlink:title=" ">
<polygon fill="none" stroke="black" points="1917.5,-62 1917.5,-81 2031.5,-81 2031.5,-62 1917.5,-62"/>
<text text-anchor="middle" x="1974.5" y="-69" font-family="Helvetica,sans-Serif" font-size="10.00">utils/type_traits.hpp</text>
</a>
</g>
</g>
<!-- Node24&#45;&gt;Node30 -->
<g id="edge47" class="edge">
<title>Node24&#45;&gt;Node30</title>
<path fill="none" stroke="midnightblue" d="M1542.2,-197.09C1655.36,-192.45 1917.43,-179.12 1948.5,-154 1967.23,-138.85 1972.66,-110.17 1974.13,-91.19"/>
<polygon fill="midnightblue" stroke="midnightblue" points="1977.63,-91.23 1974.61,-81.08 1970.64,-90.9 1977.63,-91.23"/>
</g>
<!-- Node24&#45;&gt;Node32 -->
<g id="edge59" class="edge">
<title>Node24&#45;&gt;Node32</title>
<path fill="none" stroke="midnightblue" d="M1542.17,-198.41C1683.81,-196.35 2070.72,-187.67 2116.5,-154 2136.46,-139.32 2143.97,-110.29 2146.8,-91.14"/>
<polygon fill="midnightblue" stroke="midnightblue" points="2150.28,-91.53 2147.98,-81.19 2143.32,-90.7 2150.28,-91.53"/>
</g>
<!-- Node33 -->
<g id="node33" class="node">
<title>Node33</title>
<g id="a_node33"><a xlink:title=" ">
<polygon fill="none" stroke="#bfbfbf" points="1361,-123.5 1361,-153.5 1482,-153.5 1482,-123.5 1361,-123.5"/>
<text text-anchor="start" x="1369" y="-141.5" font-family="Helvetica,sans-Serif" font-size="10.00">boost/mpi/collectives</text>
<text text-anchor="middle" x="1421.5" y="-130.5" font-family="Helvetica,sans-Serif" font-size="10.00">/all_reduce.hpp</text>
</a>
</g>
</g>
<!-- Node24&#45;&gt;Node33 -->
<g id="edge48" class="edge">
<title>Node24&#45;&gt;Node33</title>
<path fill="none" stroke="midnightblue" d="M1480.61,-190.48C1471.44,-182.57 1457.43,-170.48 1445.35,-160.07"/>
<polygon fill="midnightblue" stroke="midnightblue" points="1447.62,-157.4 1437.76,-153.52 1443.05,-162.7 1447.62,-157.4"/>
</g>
<!-- Node34 -->
<g id="node34" class="node">
<title>Node34</title>
<g id="a_node34"><a xlink:title=" ">
<polygon fill="none" stroke="#bfbfbf" points="1500,-123.5 1500,-153.5 1621,-153.5 1621,-123.5 1500,-123.5"/>
<text text-anchor="start" x="1508" y="-141.5" font-family="Helvetica,sans-Serif" font-size="10.00">boost/mpi/collectives</text>
<text text-anchor="middle" x="1560.5" y="-130.5" font-family="Helvetica,sans-Serif" font-size="10.00">/broadcast.hpp</text>
</a>
</g>
</g>
<!-- Node24&#45;&gt;Node34 -->
<g id="edge49" class="edge">
<title>Node24&#45;&gt;Node34</title>
<path fill="none" stroke="midnightblue" d="M1500.53,-190.48C1509.83,-182.57 1524.04,-170.48 1536.3,-160.07"/>
<polygon fill="midnightblue" stroke="midnightblue" points="1538.65,-162.67 1544,-153.52 1534.11,-157.33 1538.65,-162.67"/>
</g>
<!-- Node24&#45;&gt;Node35 -->
<g id="edge50" class="edge">
<title>Node24&#45;&gt;Node35</title>
<path fill="none" stroke="midnightblue" d="M1438.96,-191.16C1380.78,-182.28 1283.31,-167.31 1199.5,-154 1190.73,-152.61 1181.49,-151.12 1172.41,-149.65"/>
<polygon fill="midnightblue" stroke="midnightblue" points="1172.68,-146.15 1162.25,-148 1171.56,-153.06 1172.68,-146.15"/>
</g>
<!-- Node36 -->
<g id="node36" class="node">
<title>Node36</title>
<g id="a_node36"><a xlink:title=" ">
<polygon fill="none" stroke="#bfbfbf" points="1639,-129 1639,-148 1746,-148 1746,-129 1639,-129"/>
<text text-anchor="middle" x="1692.5" y="-136" font-family="Helvetica,sans-Serif" font-size="10.00">boost/optional.hpp</text>
</a>
</g>
</g>
<!-- Node24&#45;&gt;Node36 -->
<g id="edge51" class="edge">
<title>Node24&#45;&gt;Node36</title>
<path fill="none" stroke="midnightblue" d="M1519.44,-190.48C1554.76,-180.07 1614.63,-162.44 1653.86,-150.88"/>
<polygon fill="midnightblue" stroke="midnightblue" points="1655,-154.19 1663.61,-148.01 1653.03,-147.48 1655,-154.19"/>
</g>
<!-- Node37 -->
<g id="node37" class="node">
<title>Node37</title>
<g id="a_node37"><a xlink:title=" ">
<polygon fill="none" stroke="#bfbfbf" points="1764,-123.5 1764,-153.5 1889,-153.5 1889,-123.5 1764,-123.5"/>
<text text-anchor="start" x="1772" y="-141.5" font-family="Helvetica,sans-Serif" font-size="10.00">boost/range/algorithm</text>
<text text-anchor="middle" x="1826.5" y="-130.5" font-family="Helvetica,sans-Serif" font-size="10.00">/remove_if.hpp</text>
</a>
</g>
</g>
<!-- Node24&#45;&gt;Node37 -->
<g id="edge52" class="edge">
<title>Node24&#45;&gt;Node37</title>
<path fill="none" stroke="midnightblue" d="M1542.38,-190.71C1593.68,-182.4 1674.66,-168.97 1753.67,-154.31"/>
<polygon fill="midnightblue" stroke="midnightblue" points="1754.61,-157.7 1763.8,-152.42 1753.33,-150.81 1754.61,-157.7"/>
</g>
<!-- Node24&#45;&gt;Node38 -->
<g id="edge56" class="edge">
<title>Node24&#45;&gt;Node38</title>
<path fill="none" stroke="midnightblue" d="M1443,-190.43C1400.19,-182.32 1335.68,-169.16 1280.5,-154 1277.48,-153.17 1274.36,-152.25 1271.25,-151.29"/>
<polygon fill="midnightblue" stroke="midnightblue" points="1272.05,-147.86 1261.45,-148.12 1269.89,-154.52 1272.05,-147.86"/>
</g>
<!-- Node25&#45;&gt;Node8 -->
<g id="edge31" class="edge">
<title>Node25&#45;&gt;Node8</title>
<path fill="none" stroke="midnightblue" d="M818.29,-61.98C793.12,-51.86 750.96,-34.9 722.22,-23.35"/>
<polygon fill="midnightblue" stroke="midnightblue" points="723.25,-19.99 712.66,-19.51 720.63,-26.49 723.25,-19.99"/>
</g>
<!-- Node25&#45;&gt;Node10 -->
<g id="edge32" class="edge">
<title>Node25&#45;&gt;Node10</title>
<path fill="none" stroke="midnightblue" d="M865.14,-61.98C896.11,-51.68 948.37,-34.31 983.15,-22.75"/>
<polygon fill="midnightblue" stroke="midnightblue" points="984.51,-25.98 992.9,-19.51 982.3,-19.34 984.51,-25.98"/>
</g>
<!-- Node26 -->
<g id="node26" class="node">
<title>Node26</title>
<g id="a_node26"><a xlink:title=" ">
<polygon fill="none" stroke="#bfbfbf" points="783.5,-0.5 783.5,-19.5 815.5,-19.5 815.5,-0.5 783.5,-0.5"/>
<text text-anchor="middle" x="799.5" y="-7.5" font-family="Helvetica,sans-Serif" font-size="10.00">set</text>
</a>
</g>
</g>
<!-- Node25&#45;&gt;Node26 -->
<g id="edge33" class="edge">
<title>Node25&#45;&gt;Node26</title>
<path fill="none" stroke="midnightblue" d="M833.76,-61.98C827.82,-53.14 818.38,-39.09 810.91,-27.98"/>
<polygon fill="midnightblue" stroke="midnightblue" points="813.7,-25.86 805.22,-19.51 807.89,-29.76 813.7,-25.86"/>
</g>
<!-- Node27 -->
<g id="node27" class="node">
<title>Node27</title>
<g id="a_node27"><a xlink:title=" ">
<polygon fill="none" stroke="#bfbfbf" points="834,-0.5 834,-19.5 927,-19.5 927,-0.5 834,-0.5"/>
<text text-anchor="middle" x="880.5" y="-7.5" font-family="Helvetica,sans-Serif" font-size="10.00">unordered_map</text>
</a>
</g>
</g>
<!-- Node25&#45;&gt;Node27 -->
<g id="edge34" class="edge">
<title>Node25&#45;&gt;Node27</title>
<path fill="none" stroke="midnightblue" d="M845.37,-61.98C851.46,-53.14 861.14,-39.09 868.8,-27.98"/>
<polygon fill="midnightblue" stroke="midnightblue" points="871.84,-29.73 874.63,-19.51 866.08,-25.76 871.84,-29.73"/>
</g>
<!-- Node28&#45;&gt;Node21 -->
<g id="edge36" class="edge">
<title>Node28&#45;&gt;Node21</title>
<path fill="none" stroke="midnightblue" d="M1847.5,-61.98C1847.5,-53.58 1847.5,-40.48 1847.5,-29.66"/>
<polygon fill="midnightblue" stroke="midnightblue" points="1851,-29.51 1847.5,-19.51 1844,-29.51 1851,-29.51"/>
</g>
<!-- Node29&#45;&gt;Node9 -->
<g id="edge38" class="edge">
<title>Node29&#45;&gt;Node9</title>
<path fill="none" stroke="midnightblue" d="M2021.49,-132.45C1966.32,-125.34 1868.02,-110.56 1786.5,-87 1784.06,-86.3 1781.56,-85.49 1779.07,-84.62"/>
<polygon fill="midnightblue" stroke="midnightblue" points="1780.26,-81.32 1769.67,-81.06 1777.79,-87.87 1780.26,-81.32"/>
</g>
<!-- Node29&#45;&gt;Node10 -->
<g id="edge43" class="edge">
<title>Node29&#45;&gt;Node10</title>
<path fill="none" stroke="midnightblue" d="M2021.21,-132.27C1849.17,-111.46 1215.32,-34.8 1055.35,-15.46"/>
<polygon fill="midnightblue" stroke="midnightblue" points="1055.43,-11.94 1045.08,-14.22 1054.59,-18.89 1055.43,-11.94"/>
</g>
<!-- Node29&#45;&gt;Node11 -->
<g id="edge44" class="edge">
<title>Node29&#45;&gt;Node11</title>
<path fill="none" stroke="midnightblue" d="M2066.76,-128.81C2072.06,-108.49 2085.35,-57.55 2092.6,-29.78"/>
<polygon fill="midnightblue" stroke="midnightblue" points="2096.07,-30.32 2095.21,-19.76 2089.3,-28.55 2096.07,-30.32"/>
</g>
<!-- Node29&#45;&gt;Node21 -->
<g id="edge45" class="edge">
<title>Node29&#45;&gt;Node21</title>
<path fill="none" stroke="midnightblue" d="M2064.62,-128.93C2064.36,-112.32 2061.3,-75.65 2040.5,-56 2019.37,-36.06 1942.14,-22.84 1892.01,-16.16"/>
<polygon fill="midnightblue" stroke="midnightblue" points="1892.43,-12.68 1882.06,-14.87 1891.53,-19.63 1892.43,-12.68"/>
</g>
<!-- Node29&#45;&gt;Node30 -->
<g id="edge39" class="edge">
<title>Node29&#45;&gt;Node30</title>
<path fill="none" stroke="midnightblue" d="M2052.36,-128.73C2037.65,-118.11 2012.64,-100.05 1994.94,-87.26"/>
<polygon fill="midnightblue" stroke="midnightblue" points="1996.6,-84.14 1986.44,-81.13 1992.5,-89.82 1996.6,-84.14"/>
</g>
<!-- Node29&#45;&gt;Node32 -->
<g id="edge46" class="edge">
<title>Node29&#45;&gt;Node32</title>
<path fill="none" stroke="midnightblue" d="M2075.82,-128.73C2089.55,-118.11 2112.89,-100.05 2129.42,-87.26"/>
<polygon fill="midnightblue" stroke="midnightblue" points="2131.58,-90.02 2137.35,-81.13 2127.3,-84.48 2131.58,-90.02"/>
</g>
<!-- Node30&#45;&gt;Node10 -->
<g id="edge41" class="edge">
<title>Node30&#45;&gt;Node10</title>
<path fill="none" stroke="midnightblue" d="M1940.77,-61.96C1930.48,-59.66 1919.08,-57.42 1908.5,-56 1579.92,-11.91 1177.84,-10.1 1055.52,-10.68"/>
<polygon fill="midnightblue" stroke="midnightblue" points="1055.2,-7.18 1045.22,-10.74 1055.24,-14.18 1055.2,-7.18"/>
</g>
<!-- Node30&#45;&gt;Node21 -->
<g id="edge42" class="edge">
<title>Node30&#45;&gt;Node21</title>
<path fill="none" stroke="midnightblue" d="M1956.3,-61.98C1934.99,-51.99 1899.46,-35.35 1874.83,-23.81"/>
<polygon fill="midnightblue" stroke="midnightblue" points="1876.2,-20.58 1865.66,-19.51 1873.23,-26.92 1876.2,-20.58"/>
</g>
<!-- Node31 -->
<g id="node31" class="node">
<title>Node31</title>
<g id="a_node31"><a xlink:title=" ">
<polygon fill="none" stroke="#bfbfbf" points="1949.5,-0.5 1949.5,-19.5 1999.5,-19.5 1999.5,-0.5 1949.5,-0.5"/>
<text text-anchor="middle" x="1974.5" y="-7.5" font-family="Helvetica,sans-Serif" font-size="10.00">climits</text>
</a>
</g>
</g>
<!-- Node30&#45;&gt;Node31 -->
<g id="edge40" class="edge">
<title>Node30&#45;&gt;Node31</title>
<path fill="none" stroke="midnightblue" d="M1974.5,-61.98C1974.5,-53.58 1974.5,-40.48 1974.5,-29.66"/>
<polygon fill="midnightblue" stroke="midnightblue" points="1978,-29.51 1974.5,-19.51 1971,-29.51 1978,-29.51"/>
</g>
</g>
</svg>
        <g id="navigator" transform="translate(0 0)" fill="#404254">
                <rect fill="#f2f5e9" fill-opacity="0.5" stroke="#606060" stroke-width=".5" x="0" y="0" width="60" height="60"/>
                <use id="zoomplus" xlink:href="#zoomPlus" x="17" y="9" onmousedown="handleZoom(evt,'in')"/>
                <use id="zoomminus" xlink:href="#zoomMin" x="42" y="9" onmousedown="handleZoom(evt,'out')"/>
                <use id="reset" xlink:href="#resetDef" x="30" y="36" onmousedown="handleReset()"/>
                <g id="arrowUp" xlink:href="#dirArrow" transform="translate(30 24)" onmousedown="handlePan(0,-1)">
                  <use xlink:href="#rim" fill="#404040">
                        <set attributeName="fill" to="#808080" begin="arrowUp.mouseover" end="arrowUp.mouseout"/>
                  </use>
                  <path fill="none" stroke="white" stroke-width="1.5" d="M0,-3.0v7 M-2.5,-0.5L0,-3.0L2.5,-0.5"/>
                </g>
                <g id="arrowRight" xlink:href="#dirArrow" transform="rotate(90) translate(36 -43)" onmousedown="handlePan(1,0)">
                  <use xlink:href="#rim" fill="#404040">
                        <set attributeName="fill" to="#808080" begin="arrowRight.mouseover" end="arrowRight.mouseout"/>
                  </use>
                  <path fill="none" stroke="white" stroke-width="1.5" d="M0,-3.0v7 M-2.5,-0.5L0,-3.0L2.5,-0.5"/>
                </g>
                <g id="arrowDown" xlink:href="#dirArrow" transform="rotate(180) translate(-30 -48)" onmousedown="handlePan(0,1)">
                  <use xlink:href="#rim" fill="#404040">
                        <set attributeName="fill" to="#808080" begin="arrowDown.mouseover" end="arrowDown.mouseout"/>
                  </use>
                  <path fill="none" stroke="white" stroke-width="1.5" d="M0,-3.0v7 M-2.5,-0.5L0,-3.0L2.5,-0.5"/>
                </g>
                <g id="arrowLeft" xlink:href="#dirArrow" transform="rotate(270) translate(-36 17)" onmousedown="handlePan(-1,0)">
                  <use xlink:href="#rim" fill="#404040">
                        <set attributeName="fill" to="#808080" begin="arrowLeft.mouseover" end="arrowLeft.mouseout"/>
                  </use>
                  <path fill="none" stroke="white" stroke-width="1.5" d="M0,-3.0v7 M-2.5,-0.5L0,-3.0L2.5,-0.5"/>
                </g>
        </g>
        <svg viewBox="0 0 15 15" width="100%" height="30px" preserveAspectRatio="xMaxYMin meet">
         <g id="arrow_out" transform="scale(0.3 0.3)">
          <a xlink:href="rigid__bond_8cpp__incl_org.svg" target="_base">
           <rect id="button" ry="5" rx="5" y="6" x="6" height="38" width="38"
                fill="#f2f5e9" fill-opacity="0.5" stroke="#606060" stroke-width="1.0"/>
           <path id="arrow"
             d="M 11.500037,31.436501 C 11.940474,20.09759 22.043105,11.32322 32.158766,21.979434 L 37.068811,17.246167 C 37.068811,17.246167 37.088388,32 37.088388,32 L 22.160133,31.978069 C 22.160133,31.978069 26.997745,27.140456 26.997745,27.140456 C 18.528582,18.264221 13.291696,25.230495 11.500037,31.436501 z"
             style="fill:#404040;"/>
          </a>
         </g>
        </svg>
</svg>
