<?xml version="1.0" encoding="UTF-8" standalone="no"?>
<!DOCTYPE svg PUBLIC "-//W3C//DTD SVG 1.1//EN"
 "http://www.w3.org/Graphics/SVG/1.1/DTD/svg11.dtd">
<!-- Generated by graphviz version 2.43.0 (0)
 -->
<!-- Title: RuntimeErrorStream.cpp Pages: 1 -->
<!--zoomable 207 -->
<svg id="main" version="1.1" xmlns="http://www.w3.org/2000/svg" xmlns:xlink="http://www.w3.org/1999/xlink" xml:space="preserve" onload="init(evt)">
<style type="text/css"><![CDATA[
.edge:hover path { stroke: red; }
.edge:hover polygon { stroke: red; fill: red; }
]]></style>
<script type="text/javascript"><![CDATA[
var edges = document.getElementsByTagName('g');
if (edges && edges.length) {
  for (var i=0;i<edges.length;i++) {
    if (edges[i].id.substr(0,4)=='edge') {
      edges[i].setAttribute('class','edge');
    }
  }
}
]]></script>
        <defs>
                <circle id="rim" cx="0" cy="0" r="7"/>
                <circle id="rim2" cx="0" cy="0" r="3.5"/>
                <g id="zoomPlus">
                        <use xlink:href="#rim" fill="#404040">
                                <set attributeName="fill" to="#808080" begin="zoomplus.mouseover" end="zoomplus.mouseout"/>
                        </use>
                        <path d="M-4,0h8M0,-4v8" fill="none" stroke="white" stroke-width="1.5" pointer-events="none"/>
                </g>
                <g id="zoomMin">
                        <use xlink:href="#rim" fill="#404040">
                                <set attributeName="fill" to="#808080" begin="zoomminus.mouseover" end="zoomminus.mouseout"/>
                        </use>
                        <path d="M-4,0h8" fill="none" stroke="white" stroke-width="1.5" pointer-events="none"/>
                </g>
                <g id="dirArrow">
                        <path fill="none" stroke="white" stroke-width="1.5" d="M0,-3.0v7 M-2.5,-0.5L0,-3.0L2.5,-0.5"/>
                </g>
               <g id="resetDef">
                       <use xlink:href="#rim2" fill="#404040">
                               <set attributeName="fill" to="#808080" begin="reset.mouseover" end="reset.mouseout"/>
                       </use>
               </g>
        </defs>

<script type="text/javascript">
var viewWidth = 536;
var viewHeight = 207;
var sectionId = 'dynsection-0';
</script>
<script xlink:href="svgpan.js"/>
<svg id="graph" class="graph">
<g id="viewport">
<title>RuntimeErrorStream.cpp</title>
<!-- Node1 -->
<g id="node1" class="node">
<title>Node1</title>
<g id="a_node1"><a xlink:title=" ">
<polygon fill="#bfbfbf" stroke="black" points="98.15,-179.5 98.15,-198.5 235.15,-198.5 235.15,-179.5 98.15,-179.5"/>
<text text-anchor="middle" x="166.65" y="-186.5" font-family="Helvetica,sans-Serif" font-size="10.00">RuntimeErrorStream.cpp</text>
</a>
</g>
</g>
<!-- Node2 -->
<g id="node2" class="node">
<title>Node2</title>
<g id="a_node2"><a xlink:href="RuntimeErrorStream_8hpp.html" target="_top" xlink:title=" ">
<polygon fill="none" stroke="black" points="18.15,-123.5 18.15,-142.5 155.15,-142.5 155.15,-123.5 18.15,-123.5"/>
<text text-anchor="middle" x="86.65" y="-130.5" font-family="Helvetica,sans-Serif" font-size="10.00">RuntimeErrorStream.hpp</text>
</a>
</g>
</g>
<!-- Node1&#45;&gt;Node2 -->
<g id="edge1" class="edge">
<title>Node1&#45;&gt;Node2</title>
<path fill="none" stroke="midnightblue" d="M153.8,-179.32C141.44,-170.98 122.52,-158.21 107.92,-148.35"/>
<polygon fill="midnightblue" stroke="midnightblue" points="109.72,-145.35 99.48,-142.65 105.81,-151.15 109.72,-145.35"/>
</g>
<!-- Node6 -->
<g id="node6" class="node">
<title>Node6</title>
<g id="a_node6"><a xlink:title=" ">
<polygon fill="none" stroke="#bfbfbf" points="54.65,-6 54.65,-25 98.65,-25 98.65,-6 54.65,-6"/>
<text text-anchor="middle" x="76.65" y="-13" font-family="Helvetica,sans-Serif" font-size="10.00">string</text>
</a>
</g>
</g>
<!-- Node1&#45;&gt;Node6 -->
<g id="edge15" class="edge">
<title>Node1&#45;&gt;Node6</title>
<path fill="none" stroke="midnightblue" d="M111.57,-179.5C71.17,-172 21.24,-159.67 8.65,-143 -19.24,-106.05 29.1,-56.16 57.76,-31.53"/>
<polygon fill="midnightblue" stroke="midnightblue" points="60.14,-34.1 65.58,-25.01 55.66,-28.73 60.14,-34.1"/>
</g>
<!-- Node7 -->
<g id="node7" class="node">
<title>Node7</title>
<g id="a_node7"><a xlink:title=" ">
<polygon fill="none" stroke="#bfbfbf" points="455.15,-6 455.15,-25 500.15,-25 500.15,-6 455.15,-6"/>
<text text-anchor="middle" x="477.65" y="-13" font-family="Helvetica,sans-Serif" font-size="10.00">utility</text>
</a>
</g>
</g>
<!-- Node1&#45;&gt;Node7 -->
<g id="edge16" class="edge">
<title>Node1&#45;&gt;Node7</title>
<path fill="none" stroke="midnightblue" d="M228.92,-179.47C321.46,-165.37 488.24,-134.01 523.65,-87 537.48,-68.64 516.96,-46.23 499.07,-31.68"/>
<polygon fill="midnightblue" stroke="midnightblue" points="500.73,-28.54 490.67,-25.22 496.46,-34.09 500.73,-28.54"/>
</g>
<!-- Node9 -->
<g id="node9" class="node">
<title>Node9</title>
<g id="a_node9"><a xlink:href="RuntimeErrorCollector_8hpp.html" target="_top" xlink:title=" ">
<polygon fill="none" stroke="black" points="173.65,-123.5 173.65,-142.5 319.65,-142.5 319.65,-123.5 173.65,-123.5"/>
<text text-anchor="middle" x="246.65" y="-130.5" font-family="Helvetica,sans-Serif" font-size="10.00">RuntimeErrorCollector.hpp</text>
</a>
</g>
</g>
<!-- Node1&#45;&gt;Node9 -->
<g id="edge9" class="edge">
<title>Node1&#45;&gt;Node9</title>
<path fill="none" stroke="midnightblue" d="M179.51,-179.32C191.87,-170.98 210.78,-158.21 225.39,-148.35"/>
<polygon fill="midnightblue" stroke="midnightblue" points="227.5,-151.15 233.83,-142.65 223.59,-145.35 227.5,-151.15"/>
</g>
<!-- Node3 -->
<g id="node3" class="node">
<title>Node3</title>
<g id="a_node3"><a xlink:href="RuntimeError_8hpp.html" target="_top" xlink:title=" ">
<polygon fill="none" stroke="black" points="168.65,-67.5 168.65,-86.5 270.65,-86.5 270.65,-67.5 168.65,-67.5"/>
<text text-anchor="middle" x="219.65" y="-74.5" font-family="Helvetica,sans-Serif" font-size="10.00">RuntimeError.hpp</text>
</a>
</g>
</g>
<!-- Node2&#45;&gt;Node3 -->
<g id="edge2" class="edge">
<title>Node2&#45;&gt;Node3</title>
<path fill="none" stroke="midnightblue" d="M107.73,-123.44C129.71,-114.52 164.39,-100.44 189.32,-90.32"/>
<polygon fill="midnightblue" stroke="midnightblue" points="190.73,-93.52 198.68,-86.52 188.1,-87.04 190.73,-93.52"/>
</g>
<!-- Node2&#45;&gt;Node6 -->
<g id="edge8" class="edge">
<title>Node2&#45;&gt;Node6</title>
<path fill="none" stroke="midnightblue" d="M75.66,-123.37C66.2,-115.17 53.22,-101.92 47.65,-87 40.68,-68.31 51.97,-47.19 62.44,-32.98"/>
<polygon fill="midnightblue" stroke="midnightblue" points="65.21,-35.12 68.68,-25.11 59.72,-30.77 65.21,-35.12"/>
</g>
<!-- Node8 -->
<g id="node8" class="node">
<title>Node8</title>
<g id="a_node8"><a xlink:title=" ">
<polygon fill="none" stroke="#bfbfbf" points="56.65,-67.5 56.65,-86.5 112.65,-86.5 112.65,-67.5 56.65,-67.5"/>
<text text-anchor="middle" x="84.65" y="-74.5" font-family="Helvetica,sans-Serif" font-size="10.00">sstream</text>
</a>
</g>
</g>
<!-- Node2&#45;&gt;Node8 -->
<g id="edge7" class="edge">
<title>Node2&#45;&gt;Node8</title>
<path fill="none" stroke="midnightblue" d="M86.32,-123.08C86.06,-116.01 85.69,-105.86 85.36,-96.99"/>
<polygon fill="midnightblue" stroke="midnightblue" points="88.85,-96.61 84.98,-86.75 81.85,-96.87 88.85,-96.61"/>
</g>
<!-- Node4 -->
<g id="node4" class="node">
<title>Node4</title>
<g id="a_node4"><a xlink:title=" ">
<polygon fill="none" stroke="#bfbfbf" points="141.15,-0.5 141.15,-30.5 248.15,-30.5 248.15,-0.5 141.15,-0.5"/>
<text text-anchor="start" x="149.15" y="-18.5" font-family="Helvetica,sans-Serif" font-size="10.00">boost/serialization</text>
<text text-anchor="middle" x="194.65" y="-7.5" font-family="Helvetica,sans-Serif" font-size="10.00">/access.hpp</text>
</a>
</g>
</g>
<!-- Node3&#45;&gt;Node4 -->
<g id="edge3" class="edge">
<title>Node3&#45;&gt;Node4</title>
<path fill="none" stroke="midnightblue" d="M216.07,-67.48C213.03,-60.25 208.53,-49.53 204.44,-39.78"/>
<polygon fill="midnightblue" stroke="midnightblue" points="207.65,-38.39 200.55,-30.52 201.19,-41.1 207.65,-38.39"/>
</g>
<!-- Node5 -->
<g id="node5" class="node">
<title>Node5</title>
<g id="a_node5"><a xlink:title=" ">
<polygon fill="none" stroke="#bfbfbf" points="266.15,-0.5 266.15,-30.5 373.15,-30.5 373.15,-0.5 266.15,-0.5"/>
<text text-anchor="start" x="274.15" y="-18.5" font-family="Helvetica,sans-Serif" font-size="10.00">boost/serialization</text>
<text text-anchor="middle" x="319.65" y="-7.5" font-family="Helvetica,sans-Serif" font-size="10.00">/string.hpp</text>
</a>
</g>
</g>
<!-- Node3&#45;&gt;Node5 -->
<g id="edge4" class="edge">
<title>Node3&#45;&gt;Node5</title>
<path fill="none" stroke="midnightblue" d="M233.98,-67.48C247.78,-59.27 269.14,-46.56 287.08,-35.88"/>
<polygon fill="midnightblue" stroke="midnightblue" points="289.28,-38.64 296.09,-30.52 285.7,-32.63 289.28,-38.64"/>
</g>
<!-- Node3&#45;&gt;Node6 -->
<g id="edge5" class="edge">
<title>Node3&#45;&gt;Node6</title>
<path fill="none" stroke="midnightblue" d="M199.17,-67.48C174.85,-57.36 134.11,-40.4 106.34,-28.85"/>
<polygon fill="midnightblue" stroke="midnightblue" points="107.68,-25.62 97.1,-25.01 104.99,-32.08 107.68,-25.62"/>
</g>
<!-- Node3&#45;&gt;Node7 -->
<g id="edge6" class="edge">
<title>Node3&#45;&gt;Node7</title>
<path fill="none" stroke="midnightblue" d="M256.62,-67.48C307.12,-55.83 396.87,-35.13 445.01,-24.03"/>
<polygon fill="midnightblue" stroke="midnightblue" points="445.94,-27.41 454.9,-21.75 444.37,-20.58 445.94,-27.41"/>
</g>
<!-- Node9&#45;&gt;Node3 -->
<g id="edge10" class="edge">
<title>Node9&#45;&gt;Node3</title>
<path fill="none" stroke="midnightblue" d="M242.2,-123.08C238.5,-115.69 233.13,-104.95 228.56,-95.81"/>
<polygon fill="midnightblue" stroke="midnightblue" points="231.63,-94.13 224.03,-86.75 225.37,-97.26 231.63,-94.13"/>
</g>
<!-- Node9&#45;&gt;Node6 -->
<g id="edge13" class="edge">
<title>Node9&#45;&gt;Node6</title>
<path fill="none" stroke="midnightblue" d="M226.94,-123.37C208.82,-115.08 181.54,-101.68 159.65,-87 134.78,-70.32 108.92,-47.29 92.8,-32.16"/>
<polygon fill="midnightblue" stroke="midnightblue" points="94.98,-29.4 85.33,-25.04 90.16,-34.47 94.98,-29.4"/>
</g>
<!-- Node9&#45;&gt;Node8 -->
<g id="edge12" class="edge">
<title>Node9&#45;&gt;Node8</title>
<path fill="none" stroke="midnightblue" d="M220.98,-123.44C193.73,-114.36 150.47,-99.94 120,-89.78"/>
<polygon fill="midnightblue" stroke="midnightblue" points="120.8,-86.36 110.2,-86.52 118.58,-93 120.8,-86.36"/>
</g>
<!-- Node10 -->
<g id="node10" class="node">
<title>Node10</title>
<g id="a_node10"><a xlink:title=" ">
<polygon fill="none" stroke="#bfbfbf" points="354.65,-67.5 354.65,-86.5 514.65,-86.5 514.65,-67.5 354.65,-67.5"/>
<text text-anchor="middle" x="434.65" y="-74.5" font-family="Helvetica,sans-Serif" font-size="10.00">boost/mpi/communicator.hpp</text>
</a>
</g>
</g>
<!-- Node9&#45;&gt;Node10 -->
<g id="edge11" class="edge">
<title>Node9&#45;&gt;Node10</title>
<path fill="none" stroke="midnightblue" d="M276.44,-123.44C308.48,-114.24 359.59,-99.56 395.01,-89.39"/>
<polygon fill="midnightblue" stroke="midnightblue" points="396.36,-92.64 405,-86.52 394.43,-85.91 396.36,-92.64"/>
</g>
<!-- Node11 -->
<g id="node11" class="node">
<title>Node11</title>
<g id="a_node11"><a xlink:title=" ">
<polygon fill="none" stroke="#bfbfbf" points="289.15,-67.5 289.15,-86.5 336.15,-86.5 336.15,-67.5 289.15,-67.5"/>
<text text-anchor="middle" x="312.65" y="-74.5" font-family="Helvetica,sans-Serif" font-size="10.00">vector</text>
</a>
</g>
</g>
<!-- Node9&#45;&gt;Node11 -->
<g id="edge14" class="edge">
<title>Node9&#45;&gt;Node11</title>
<path fill="none" stroke="midnightblue" d="M257.26,-123.32C267.11,-115.26 282,-103.08 293.87,-93.37"/>
<polygon fill="midnightblue" stroke="midnightblue" points="296.33,-95.88 301.86,-86.83 291.9,-90.46 296.33,-95.88"/>
</g>
</g>
</svg>
        <g id="navigator" transform="translate(0 0)" fill="#404254">
                <rect fill="#f2f5e9" fill-opacity="0.5" stroke="#606060" stroke-width=".5" x="0" y="0" width="60" height="60"/>
                <use id="zoomplus" xlink:href="#zoomPlus" x="17" y="9" onmousedown="handleZoom(evt,'in')"/>
                <use id="zoomminus" xlink:href="#zoomMin" x="42" y="9" onmousedown="handleZoom(evt,'out')"/>
                <use id="reset" xlink:href="#resetDef" x="30" y="36" onmousedown="handleReset()"/>
                <g id="arrowUp" xlink:href="#dirArrow" transform="translate(30 24)" onmousedown="handlePan(0,-1)">
                  <use xlink:href="#rim" fill="#404040">
                        <set attributeName="fill" to="#808080" begin="arrowUp.mouseover" end="arrowUp.mouseout"/>
                  </use>
                  <path fill="none" stroke="white" stroke-width="1.5" d="M0,-3.0v7 M-2.5,-0.5L0,-3.0L2.5,-0.5"/>
                </g>
                <g id="arrowRight" xlink:href="#dirArrow" transform="rotate(90) translate(36 -43)" onmousedown="handlePan(1,0)">
                  <use xlink:href="#rim" fill="#404040">
                        <set attributeName="fill" to="#808080" begin="arrowRight.mouseover" end="arrowRight.mouseout"/>
                  </use>
                  <path fill="none" stroke="white" stroke-width="1.5" d="M0,-3.0v7 M-2.5,-0.5L0,-3.0L2.5,-0.5"/>
                </g>
                <g id="arrowDown" xlink:href="#dirArrow" transform="rotate(180) translate(-30 -48)" onmousedown="handlePan(0,1)">
                  <use xlink:href="#rim" fill="#404040">
                        <set attributeName="fill" to="#808080" begin="arrowDown.mouseover" end="arrowDown.mouseout"/>
                  </use>
                  <path fill="none" stroke="white" stroke-width="1.5" d="M0,-3.0v7 M-2.5,-0.5L0,-3.0L2.5,-0.5"/>
                </g>
                <g id="arrowLeft" xlink:href="#dirArrow" transform="rotate(270) translate(-36 17)" onmousedown="handlePan(-1,0)">
                  <use xlink:href="#rim" fill="#404040">
                        <set attributeName="fill" to="#808080" begin="arrowLeft.mouseover" end="arrowLeft.mouseout"/>
                  </use>
                  <path fill="none" stroke="white" stroke-width="1.5" d="M0,-3.0v7 M-2.5,-0.5L0,-3.0L2.5,-0.5"/>
                </g>
        </g>
        <svg viewBox="0 0 15 15" width="100%" height="30px" preserveAspectRatio="xMaxYMin meet">
         <g id="arrow_out" transform="scale(0.3 0.3)">
          <a xlink:href="RuntimeErrorStream_8cpp__incl_org.svg" target="_base">
           <rect id="button" ry="5" rx="5" y="6" x="6" height="38" width="38"
                fill="#f2f5e9" fill-opacity="0.5" stroke="#606060" stroke-width="1.0"/>
           <path id="arrow"
             d="M 11.500037,31.436501 C 11.940474,20.09759 22.043105,11.32322 32.158766,21.979434 L 37.068811,17.246167 C 37.068811,17.246167 37.088388,32 37.088388,32 L 22.160133,31.978069 C 22.160133,31.978069 26.997745,27.140456 26.997745,27.140456 C 18.528582,18.264221 13.291696,25.230495 11.500037,31.436501 z"
             style="fill:#404040;"/>
          </a>
         </g>
        </svg>
</svg>
