<?xml version="1.0" encoding="UTF-8" standalone="no"?>
<!DOCTYPE svg PUBLIC "-//W3C//DTD SVG 1.1//EN"
 "http://www.w3.org/Graphics/SVG/1.1/DTD/svg11.dtd">
<!-- Generated by graphviz version 2.43.0 (0)
 -->
<!-- Title: RuntimeError.cpp Pages: 1 -->
<svg width="506pt" height="151pt"
 viewBox="0.00 0.00 505.50 151.00" xmlns="http://www.w3.org/2000/svg" xmlns:xlink="http://www.w3.org/1999/xlink">
<g id="graph0" class="graph" transform="scale(1 1) rotate(0) translate(4 147)">
<title>RuntimeError.cpp</title>
<!-- Node1 -->
<g id="node1" class="node">
<title>Node1</title>
<g id="a_node1"><a xlink:title=" ">
<polygon fill="#bfbfbf" stroke="black" points="314,-123.5 314,-142.5 415,-142.5 415,-123.5 314,-123.5"/>
<text text-anchor="middle" x="364.5" y="-130.5" font-family="Helvetica,sans-Serif" font-size="10.00">RuntimeError.cpp</text>
</a>
</g>
</g>
<!-- Node2 -->
<g id="node2" class="node">
<title>Node2</title>
<g id="a_node2"><a xlink:href="RuntimeError_8hpp.html" target="_top" xlink:title=" ">
<polygon fill="none" stroke="black" points="205.5,-67.5 205.5,-86.5 307.5,-86.5 307.5,-67.5 205.5,-67.5"/>
<text text-anchor="middle" x="256.5" y="-74.5" font-family="Helvetica,sans-Serif" font-size="10.00">RuntimeError.hpp</text>
</a>
</g>
</g>
<!-- Node1&#45;&gt;Node2 -->
<g id="edge1" class="edge">
<title>Node1&#45;&gt;Node2</title>
<path fill="none" stroke="midnightblue" d="M347.15,-123.32C329.83,-114.66 302.98,-101.24 283,-91.25"/>
<polygon fill="midnightblue" stroke="midnightblue" points="284.32,-88 273.81,-86.65 281.19,-94.26 284.32,-88"/>
</g>
<!-- Node5 -->
<g id="node5" class="node">
<title>Node5</title>
<g id="a_node5"><a xlink:title=" ">
<polygon fill="none" stroke="#bfbfbf" points="313.5,-6 313.5,-25 357.5,-25 357.5,-6 313.5,-6"/>
<text text-anchor="middle" x="335.5" y="-13" font-family="Helvetica,sans-Serif" font-size="10.00">string</text>
</a>
</g>
</g>
<!-- Node1&#45;&gt;Node5 -->
<g id="edge8" class="edge">
<title>Node1&#45;&gt;Node5</title>
<path fill="none" stroke="midnightblue" d="M362.32,-123.32C357.64,-104.67 346.53,-60.44 340.18,-35.13"/>
<polygon fill="midnightblue" stroke="midnightblue" points="343.53,-34.13 337.71,-25.28 336.75,-35.83 343.53,-34.13"/>
</g>
<!-- Node7 -->
<g id="node7" class="node">
<title>Node7</title>
<g id="a_node7"><a xlink:title=" ">
<polygon fill="none" stroke="#bfbfbf" points="363.5,-67.5 363.5,-86.5 423.5,-86.5 423.5,-67.5 363.5,-67.5"/>
<text text-anchor="middle" x="393.5" y="-74.5" font-family="Helvetica,sans-Serif" font-size="10.00">iostream</text>
</a>
</g>
</g>
<!-- Node1&#45;&gt;Node7 -->
<g id="edge6" class="edge">
<title>Node1&#45;&gt;Node7</title>
<path fill="none" stroke="midnightblue" d="M369.29,-123.08C373.26,-115.69 379.03,-104.95 383.93,-95.81"/>
<polygon fill="midnightblue" stroke="midnightblue" points="387.15,-97.22 388.8,-86.75 380.99,-93.91 387.15,-97.22"/>
</g>
<!-- Node8 -->
<g id="node8" class="node">
<title>Node8</title>
<g id="a_node8"><a xlink:title=" ">
<polygon fill="none" stroke="#bfbfbf" points="441.5,-67.5 441.5,-86.5 497.5,-86.5 497.5,-67.5 441.5,-67.5"/>
<text text-anchor="middle" x="469.5" y="-74.5" font-family="Helvetica,sans-Serif" font-size="10.00">sstream</text>
</a>
</g>
</g>
<!-- Node1&#45;&gt;Node8 -->
<g id="edge7" class="edge">
<title>Node1&#45;&gt;Node8</title>
<path fill="none" stroke="midnightblue" d="M381.37,-123.32C398.21,-114.66 424.31,-101.24 443.74,-91.25"/>
<polygon fill="midnightblue" stroke="midnightblue" points="445.38,-94.34 452.67,-86.65 442.18,-88.12 445.38,-94.34"/>
</g>
<!-- Node3 -->
<g id="node3" class="node">
<title>Node3</title>
<g id="a_node3"><a xlink:title=" ">
<polygon fill="none" stroke="#bfbfbf" points="0,-0.5 0,-30.5 107,-30.5 107,-0.5 0,-0.5"/>
<text text-anchor="start" x="8" y="-18.5" font-family="Helvetica,sans-Serif" font-size="10.00">boost/serialization</text>
<text text-anchor="middle" x="53.5" y="-7.5" font-family="Helvetica,sans-Serif" font-size="10.00">/access.hpp</text>
</a>
</g>
</g>
<!-- Node2&#45;&gt;Node3 -->
<g id="edge2" class="edge">
<title>Node2&#45;&gt;Node3</title>
<path fill="none" stroke="midnightblue" d="M227.42,-67.48C197.22,-58.63 149.2,-44.55 111.25,-33.43"/>
<polygon fill="midnightblue" stroke="midnightblue" points="111.92,-29.98 101.34,-30.52 109.95,-36.69 111.92,-29.98"/>
</g>
<!-- Node4 -->
<g id="node4" class="node">
<title>Node4</title>
<g id="a_node4"><a xlink:title=" ">
<polygon fill="none" stroke="#bfbfbf" points="125,-0.5 125,-30.5 232,-30.5 232,-0.5 125,-0.5"/>
<text text-anchor="start" x="133" y="-18.5" font-family="Helvetica,sans-Serif" font-size="10.00">boost/serialization</text>
<text text-anchor="middle" x="178.5" y="-7.5" font-family="Helvetica,sans-Serif" font-size="10.00">/string.hpp</text>
</a>
</g>
</g>
<!-- Node2&#45;&gt;Node4 -->
<g id="edge3" class="edge">
<title>Node2&#45;&gt;Node4</title>
<path fill="none" stroke="midnightblue" d="M245.32,-67.48C234.86,-59.49 218.82,-47.25 205.07,-36.77"/>
<polygon fill="midnightblue" stroke="midnightblue" points="206.96,-33.81 196.88,-30.52 202.71,-39.37 206.96,-33.81"/>
</g>
<!-- Node2&#45;&gt;Node5 -->
<g id="edge4" class="edge">
<title>Node2&#45;&gt;Node5</title>
<path fill="none" stroke="midnightblue" d="M267.82,-67.48C280.37,-58.02 300.85,-42.6 316,-31.19"/>
<polygon fill="midnightblue" stroke="midnightblue" points="318.32,-33.82 324.2,-25.01 314.11,-28.23 318.32,-33.82"/>
</g>
<!-- Node6 -->
<g id="node6" class="node">
<title>Node6</title>
<g id="a_node6"><a xlink:title=" ">
<polygon fill="none" stroke="#bfbfbf" points="250,-6 250,-25 295,-25 295,-6 250,-6"/>
<text text-anchor="middle" x="272.5" y="-13" font-family="Helvetica,sans-Serif" font-size="10.00">utility</text>
</a>
</g>
</g>
<!-- Node2&#45;&gt;Node6 -->
<g id="edge5" class="edge">
<title>Node2&#45;&gt;Node6</title>
<path fill="none" stroke="midnightblue" d="M258.79,-67.48C261.07,-58.99 264.65,-45.7 267.57,-34.82"/>
<polygon fill="midnightblue" stroke="midnightblue" points="270.99,-35.57 270.21,-25.01 264.24,-33.76 270.99,-35.57"/>
</g>
</g>
</svg>
