<?xml version="1.0" encoding="UTF-8" standalone="no"?>
<!DOCTYPE svg PUBLIC "-//W3C//DTD SVG 1.1//EN"
 "http://www.w3.org/Graphics/SVG/1.1/DTD/svg11.dtd">
<!-- Generated by graphviz version 2.43.0 (0)
 -->
<!-- Title: RuntimeErrorCollector.hpp Pages: 1 -->
<svg width="671pt" height="151pt"
 viewBox="0.00 0.00 671.00 151.00" xmlns="http://www.w3.org/2000/svg" xmlns:xlink="http://www.w3.org/1999/xlink">
<g id="graph0" class="graph" transform="scale(1 1) rotate(0) translate(4 147)">
<title>RuntimeErrorCollector.hpp</title>
<!-- Node1 -->
<g id="node1" class="node">
<title>Node1</title>
<g id="a_node1"><a xlink:title=" ">
<polygon fill="#bfbfbf" stroke="black" points="370.5,-123.5 370.5,-142.5 516.5,-142.5 516.5,-123.5 370.5,-123.5"/>
<text text-anchor="middle" x="443.5" y="-130.5" font-family="Helvetica,sans-Serif" font-size="10.00">RuntimeErrorCollector.hpp</text>
</a>
</g>
</g>
<!-- Node2 -->
<g id="node2" class="node">
<title>Node2</title>
<g id="a_node2"><a xlink:href="RuntimeError_8hpp.html" target="_top" xlink:title=" ">
<polygon fill="none" stroke="black" points="205.5,-67.5 205.5,-86.5 307.5,-86.5 307.5,-67.5 205.5,-67.5"/>
<text text-anchor="middle" x="256.5" y="-74.5" font-family="Helvetica,sans-Serif" font-size="10.00">RuntimeError.hpp</text>
</a>
</g>
</g>
<!-- Node1&#45;&gt;Node2 -->
<g id="edge1" class="edge">
<title>Node1&#45;&gt;Node2</title>
<path fill="none" stroke="midnightblue" d="M413.87,-123.44C382,-114.24 331.17,-99.56 295.94,-89.39"/>
<polygon fill="midnightblue" stroke="midnightblue" points="296.57,-85.93 285.99,-86.52 294.63,-92.65 296.57,-85.93"/>
</g>
<!-- Node5 -->
<g id="node5" class="node">
<title>Node5</title>
<g id="a_node5"><a xlink:title=" ">
<polygon fill="none" stroke="#bfbfbf" points="313.5,-6 313.5,-25 357.5,-25 357.5,-6 313.5,-6"/>
<text text-anchor="middle" x="335.5" y="-13" font-family="Helvetica,sans-Serif" font-size="10.00">string</text>
</a>
</g>
</g>
<!-- Node1&#45;&gt;Node5 -->
<g id="edge8" class="edge">
<title>Node1&#45;&gt;Node5</title>
<path fill="none" stroke="midnightblue" d="M412.53,-123.5C393.19,-116.65 369.25,-105.13 354.5,-87 342.64,-72.43 338.15,-51.09 336.46,-35.72"/>
<polygon fill="midnightblue" stroke="midnightblue" points="339.92,-35.02 335.65,-25.33 332.94,-35.57 339.92,-35.02"/>
</g>
<!-- Node7 -->
<g id="node7" class="node">
<title>Node7</title>
<g id="a_node7"><a xlink:title=" ">
<polygon fill="none" stroke="#bfbfbf" points="363.5,-67.5 363.5,-86.5 523.5,-86.5 523.5,-67.5 363.5,-67.5"/>
<text text-anchor="middle" x="443.5" y="-74.5" font-family="Helvetica,sans-Serif" font-size="10.00">boost/mpi/communicator.hpp</text>
</a>
</g>
</g>
<!-- Node1&#45;&gt;Node7 -->
<g id="edge6" class="edge">
<title>Node1&#45;&gt;Node7</title>
<path fill="none" stroke="midnightblue" d="M443.5,-123.08C443.5,-116.01 443.5,-105.86 443.5,-96.99"/>
<polygon fill="midnightblue" stroke="midnightblue" points="447,-96.75 443.5,-86.75 440,-96.75 447,-96.75"/>
</g>
<!-- Node8 -->
<g id="node8" class="node">
<title>Node8</title>
<g id="a_node8"><a xlink:title=" ">
<polygon fill="none" stroke="#bfbfbf" points="541.5,-67.5 541.5,-86.5 597.5,-86.5 597.5,-67.5 541.5,-67.5"/>
<text text-anchor="middle" x="569.5" y="-74.5" font-family="Helvetica,sans-Serif" font-size="10.00">sstream</text>
</a>
</g>
</g>
<!-- Node1&#45;&gt;Node8 -->
<g id="edge7" class="edge">
<title>Node1&#45;&gt;Node8</title>
<path fill="none" stroke="midnightblue" d="M463.47,-123.44C484.11,-114.6 516.56,-100.69 540.13,-90.59"/>
<polygon fill="midnightblue" stroke="midnightblue" points="541.82,-93.67 549.63,-86.52 539.06,-87.24 541.82,-93.67"/>
</g>
<!-- Node9 -->
<g id="node9" class="node">
<title>Node9</title>
<g id="a_node9"><a xlink:title=" ">
<polygon fill="none" stroke="#bfbfbf" points="616,-67.5 616,-86.5 663,-86.5 663,-67.5 616,-67.5"/>
<text text-anchor="middle" x="639.5" y="-74.5" font-family="Helvetica,sans-Serif" font-size="10.00">vector</text>
</a>
</g>
</g>
<!-- Node1&#45;&gt;Node9 -->
<g id="edge9" class="edge">
<title>Node1&#45;&gt;Node9</title>
<path fill="none" stroke="midnightblue" d="M474.56,-123.44C510.47,-113.55 569.36,-97.32 606.2,-87.17"/>
<polygon fill="midnightblue" stroke="midnightblue" points="607.26,-90.51 615.97,-84.48 605.4,-83.76 607.26,-90.51"/>
</g>
<!-- Node3 -->
<g id="node3" class="node">
<title>Node3</title>
<g id="a_node3"><a xlink:title=" ">
<polygon fill="none" stroke="#bfbfbf" points="0,-0.5 0,-30.5 107,-30.5 107,-0.5 0,-0.5"/>
<text text-anchor="start" x="8" y="-18.5" font-family="Helvetica,sans-Serif" font-size="10.00">boost/serialization</text>
<text text-anchor="middle" x="53.5" y="-7.5" font-family="Helvetica,sans-Serif" font-size="10.00">/access.hpp</text>
</a>
</g>
</g>
<!-- Node2&#45;&gt;Node3 -->
<g id="edge2" class="edge">
<title>Node2&#45;&gt;Node3</title>
<path fill="none" stroke="midnightblue" d="M227.42,-67.48C197.22,-58.63 149.2,-44.55 111.25,-33.43"/>
<polygon fill="midnightblue" stroke="midnightblue" points="111.92,-29.98 101.34,-30.52 109.95,-36.69 111.92,-29.98"/>
</g>
<!-- Node4 -->
<g id="node4" class="node">
<title>Node4</title>
<g id="a_node4"><a xlink:title=" ">
<polygon fill="none" stroke="#bfbfbf" points="125,-0.5 125,-30.5 232,-30.5 232,-0.5 125,-0.5"/>
<text text-anchor="start" x="133" y="-18.5" font-family="Helvetica,sans-Serif" font-size="10.00">boost/serialization</text>
<text text-anchor="middle" x="178.5" y="-7.5" font-family="Helvetica,sans-Serif" font-size="10.00">/string.hpp</text>
</a>
</g>
</g>
<!-- Node2&#45;&gt;Node4 -->
<g id="edge3" class="edge">
<title>Node2&#45;&gt;Node4</title>
<path fill="none" stroke="midnightblue" d="M245.32,-67.48C234.86,-59.49 218.82,-47.25 205.07,-36.77"/>
<polygon fill="midnightblue" stroke="midnightblue" points="206.96,-33.81 196.88,-30.52 202.71,-39.37 206.96,-33.81"/>
</g>
<!-- Node2&#45;&gt;Node5 -->
<g id="edge4" class="edge">
<title>Node2&#45;&gt;Node5</title>
<path fill="none" stroke="midnightblue" d="M267.82,-67.48C280.37,-58.02 300.85,-42.6 316,-31.19"/>
<polygon fill="midnightblue" stroke="midnightblue" points="318.32,-33.82 324.2,-25.01 314.11,-28.23 318.32,-33.82"/>
</g>
<!-- Node6 -->
<g id="node6" class="node">
<title>Node6</title>
<g id="a_node6"><a xlink:title=" ">
<polygon fill="none" stroke="#bfbfbf" points="250,-6 250,-25 295,-25 295,-6 250,-6"/>
<text text-anchor="middle" x="272.5" y="-13" font-family="Helvetica,sans-Serif" font-size="10.00">utility</text>
</a>
</g>
</g>
<!-- Node2&#45;&gt;Node6 -->
<g id="edge5" class="edge">
<title>Node2&#45;&gt;Node6</title>
<path fill="none" stroke="midnightblue" d="M258.79,-67.48C261.07,-58.99 264.65,-45.7 267.57,-34.82"/>
<polygon fill="midnightblue" stroke="midnightblue" points="270.99,-35.57 270.21,-25.01 264.24,-33.76 270.99,-35.57"/>
</g>
</g>
</svg>
