<?xml version="1.0" encoding="UTF-8" standalone="no"?>
<!DOCTYPE svg PUBLIC "-//W3C//DTD SVG 1.1//EN"
 "http://www.w3.org/Graphics/SVG/1.1/DTD/svg11.dtd">
<!-- Generated by graphviz version 2.43.0 (0)
 -->
<!-- Title: Scafacos.hpp Pages: 1 -->
<svg width="288pt" height="84pt"
 viewBox="0.00 0.00 287.50 84.00" xmlns="http://www.w3.org/2000/svg" xmlns:xlink="http://www.w3.org/1999/xlink">
<g id="graph0" class="graph" transform="scale(1 1) rotate(0) translate(4 80)">
<title>Scafacos.hpp</title>
<!-- Node1 -->
<g id="node1" class="node">
<title>Node1</title>
<g id="a_node1"><a xlink:title=" ">
<polygon fill="#bfbfbf" stroke="black" points="95.5,-56.5 95.5,-75.5 176.5,-75.5 176.5,-56.5 95.5,-56.5"/>
<text text-anchor="middle" x="136" y="-63.5" font-family="Helvetica,sans-Serif" font-size="10.00">Scafacos.hpp</text>
</a>
</g>
</g>
<!-- Node2 -->
<g id="node2" class="node">
<title>Node2</title>
<g id="a_node2"><a xlink:title=" ">
<polygon fill="none" stroke="#bfbfbf" points="0,-0.5 0,-19.5 40,-19.5 40,-0.5 0,-0.5"/>
<text text-anchor="middle" x="20" y="-7.5" font-family="Helvetica,sans-Serif" font-size="10.00">fcs.h</text>
</a>
</g>
</g>
<!-- Node1&#45;&gt;Node2 -->
<g id="edge1" class="edge">
<title>Node1&#45;&gt;Node2</title>
<path fill="none" stroke="midnightblue" d="M117.62,-56.44C98.78,-47.68 69.27,-33.94 47.62,-23.86"/>
<polygon fill="midnightblue" stroke="midnightblue" points="48.84,-20.56 38.29,-19.52 45.88,-26.91 48.84,-20.56"/>
</g>
<!-- Node3 -->
<g id="node3" class="node">
<title>Node3</title>
<g id="a_node3"><a xlink:title=" ">
<polygon fill="none" stroke="#bfbfbf" points="58,-0.5 58,-19.5 102,-19.5 102,-0.5 58,-0.5"/>
<text text-anchor="middle" x="80" y="-7.5" font-family="Helvetica,sans-Serif" font-size="10.00">mpi.h</text>
</a>
</g>
</g>
<!-- Node1&#45;&gt;Node3 -->
<g id="edge2" class="edge">
<title>Node1&#45;&gt;Node3</title>
<path fill="none" stroke="midnightblue" d="M127,-56.32C118.81,-48.42 106.49,-36.55 96.53,-26.94"/>
<polygon fill="midnightblue" stroke="midnightblue" points="98.79,-24.26 89.16,-19.83 93.93,-29.29 98.79,-24.26"/>
</g>
<!-- Node4 -->
<g id="node4" class="node">
<title>Node4</title>
<g id="a_node4"><a xlink:title=" ">
<polygon fill="none" stroke="#bfbfbf" points="120,-0.5 120,-19.5 152,-19.5 152,-0.5 120,-0.5"/>
<text text-anchor="middle" x="136" y="-7.5" font-family="Helvetica,sans-Serif" font-size="10.00">list</text>
</a>
</g>
</g>
<!-- Node1&#45;&gt;Node4 -->
<g id="edge3" class="edge">
<title>Node1&#45;&gt;Node4</title>
<path fill="none" stroke="midnightblue" d="M136,-56.08C136,-49.01 136,-38.86 136,-29.99"/>
<polygon fill="midnightblue" stroke="midnightblue" points="139.5,-29.75 136,-19.75 132.5,-29.75 139.5,-29.75"/>
</g>
<!-- Node5 -->
<g id="node5" class="node">
<title>Node5</title>
<g id="a_node5"><a xlink:title=" ">
<polygon fill="none" stroke="#bfbfbf" points="170,-0.5 170,-19.5 214,-19.5 214,-0.5 170,-0.5"/>
<text text-anchor="middle" x="192" y="-7.5" font-family="Helvetica,sans-Serif" font-size="10.00">string</text>
</a>
</g>
</g>
<!-- Node1&#45;&gt;Node5 -->
<g id="edge4" class="edge">
<title>Node1&#45;&gt;Node5</title>
<path fill="none" stroke="midnightblue" d="M145,-56.32C153.19,-48.42 165.51,-36.55 175.47,-26.94"/>
<polygon fill="midnightblue" stroke="midnightblue" points="178.07,-29.29 182.84,-19.83 173.21,-24.26 178.07,-29.29"/>
</g>
<!-- Node6 -->
<g id="node6" class="node">
<title>Node6</title>
<g id="a_node6"><a xlink:title=" ">
<polygon fill="none" stroke="#bfbfbf" points="232.5,-0.5 232.5,-19.5 279.5,-19.5 279.5,-0.5 232.5,-0.5"/>
<text text-anchor="middle" x="256" y="-7.5" font-family="Helvetica,sans-Serif" font-size="10.00">vector</text>
</a>
</g>
</g>
<!-- Node1&#45;&gt;Node6 -->
<g id="edge5" class="edge">
<title>Node1&#45;&gt;Node6</title>
<path fill="none" stroke="midnightblue" d="M155.01,-56.44C174.59,-47.64 205.31,-33.81 227.73,-23.72"/>
<polygon fill="midnightblue" stroke="midnightblue" points="229.39,-26.81 237.07,-19.52 226.52,-20.43 229.39,-26.81"/>
</g>
</g>
</svg>
