<?xml version="1.0" encoding="UTF-8" standalone="no"?>
<!DOCTYPE svg PUBLIC "-//W3C//DTD SVG 1.1//EN"
 "http://www.w3.org/Graphics/SVG/1.1/DTD/svg11.dtd">
<!-- Generated by graphviz version 2.43.0 (0)
 -->
<!-- Title: scafacos.hpp Pages: 1 -->
<svg width="1423pt" height="330pt"
 viewBox="0.00 0.00 1423.49 330.00" xmlns="http://www.w3.org/2000/svg" xmlns:xlink="http://www.w3.org/1999/xlink">
<g id="graph0" class="graph" transform="scale(1 1) rotate(0) translate(4 326)">
<title>scafacos.hpp</title>
<!-- Node1 -->
<g id="node1" class="node">
<title>Node1</title>
<g id="a_node1"><a xlink:title=" ">
<polygon fill="#bfbfbf" stroke="black" points="722,-302.5 722,-321.5 802,-321.5 802,-302.5 722,-302.5"/>
<text text-anchor="middle" x="762" y="-309.5" font-family="Helvetica,sans-Serif" font-size="10.00">scafacos.hpp</text>
</a>
</g>
</g>
<!-- Node2 -->
<g id="node2" class="node">
<title>Node2</title>
<g id="a_node2"><a xlink:href="config_8hpp.html" target="_top" xlink:title=" ">
<polygon fill="none" stroke="black" points="580,-179.5 580,-198.5 648,-198.5 648,-179.5 580,-179.5"/>
<text text-anchor="middle" x="614" y="-186.5" font-family="Helvetica,sans-Serif" font-size="10.00">config.hpp</text>
</a>
</g>
</g>
<!-- Node1&#45;&gt;Node2 -->
<g id="edge1" class="edge">
<title>Node1&#45;&gt;Node2</title>
<path fill="none" stroke="midnightblue" d="M731.41,-302.42C710.14,-295.3 682.12,-283.48 662,-266 643.46,-249.9 629.58,-224.88 621.63,-207.99"/>
<polygon fill="midnightblue" stroke="midnightblue" points="624.74,-206.37 617.46,-198.67 618.35,-209.23 624.74,-206.37"/>
</g>
<!-- Node4 -->
<g id="node4" class="node">
<title>Node4</title>
<g id="a_node4"><a xlink:href="ScafacosContextBase_8hpp.html" target="_top" xlink:title=" ">
<polygon fill="none" stroke="black" points="680,-235.5 680,-265.5 844,-265.5 844,-235.5 680,-235.5"/>
<text text-anchor="start" x="688" y="-253.5" font-family="Helvetica,sans-Serif" font-size="10.00">electrostatics_magnetostatics</text>
<text text-anchor="middle" x="762" y="-242.5" font-family="Helvetica,sans-Serif" font-size="10.00">/ScafacosContextBase.hpp</text>
</a>
</g>
</g>
<!-- Node1&#45;&gt;Node4 -->
<g id="edge3" class="edge">
<title>Node1&#45;&gt;Node4</title>
<path fill="none" stroke="midnightblue" d="M762,-302.48C762,-295.47 762,-285.19 762,-275.7"/>
<polygon fill="midnightblue" stroke="midnightblue" points="765.5,-275.52 762,-265.52 758.5,-275.52 765.5,-275.52"/>
</g>
<!-- Node5 -->
<g id="node5" class="node">
<title>Node5</title>
<g id="a_node5"><a xlink:href="Vector_8hpp.html" target="_top" xlink:title=" ">
<polygon fill="none" stroke="black" points="715.5,-179.5 715.5,-198.5 808.5,-198.5 808.5,-179.5 715.5,-179.5"/>
<text text-anchor="middle" x="762" y="-186.5" font-family="Helvetica,sans-Serif" font-size="10.00">utils/Vector.hpp</text>
</a>
</g>
</g>
<!-- Node1&#45;&gt;Node5 -->
<g id="edge31" class="edge">
<title>Node1&#45;&gt;Node5</title>
<path fill="none" stroke="midnightblue" d="M724.03,-302.41C704.59,-295.88 682.62,-284.72 671,-266 663.73,-254.3 663.73,-246.7 671,-235 680.72,-219.36 697.66,-208.98 714.32,-202.19"/>
<polygon fill="midnightblue" stroke="midnightblue" points="715.87,-205.35 724.03,-198.59 713.44,-198.78 715.87,-205.35"/>
</g>
<!-- Node25 -->
<g id="node25" class="node">
<title>Node25</title>
<g id="a_node25"><a xlink:title=" ">
<polygon fill="none" stroke="#bfbfbf" points="838,-179.5 838,-198.5 882,-198.5 882,-179.5 838,-179.5"/>
<text text-anchor="middle" x="860" y="-186.5" font-family="Helvetica,sans-Serif" font-size="10.00">string</text>
</a>
</g>
</g>
<!-- Node1&#45;&gt;Node25 -->
<g id="edge33" class="edge">
<title>Node1&#45;&gt;Node25</title>
<path fill="none" stroke="midnightblue" d="M797.92,-302.45C817.48,-295.85 840.23,-284.6 853,-266 864.46,-249.31 864.73,-225.48 863.09,-208.97"/>
<polygon fill="midnightblue" stroke="midnightblue" points="866.54,-208.35 861.77,-198.89 859.6,-209.26 866.54,-208.35"/>
</g>
<!-- Node26 -->
<g id="node26" class="node">
<title>Node26</title>
<g id="a_node26"><a xlink:title=" ">
<polygon fill="none" stroke="#bfbfbf" points="900,-241 900,-260 932,-260 932,-241 900,-241"/>
<text text-anchor="middle" x="916" y="-248" font-family="Helvetica,sans-Serif" font-size="10.00">list</text>
</a>
</g>
</g>
<!-- Node1&#45;&gt;Node26 -->
<g id="edge32" class="edge">
<title>Node1&#45;&gt;Node26</title>
<path fill="none" stroke="midnightblue" d="M787.94,-302.45C813.24,-293.91 852.66,-280.06 886,-266 887.58,-265.34 889.19,-264.63 890.81,-263.9"/>
<polygon fill="midnightblue" stroke="midnightblue" points="892.37,-267.04 899.95,-259.63 889.4,-260.7 892.37,-267.04"/>
</g>
<!-- Node3 -->
<g id="node3" class="node">
<title>Node3</title>
<g id="a_node3"><a xlink:title=" ">
<polygon fill="none" stroke="#bfbfbf" points="0,-123.5 0,-142.5 112,-142.5 112,-123.5 0,-123.5"/>
<text text-anchor="middle" x="56" y="-130.5" font-family="Helvetica,sans-Serif" font-size="10.00">config&#45;features.hpp</text>
</a>
</g>
</g>
<!-- Node2&#45;&gt;Node3 -->
<g id="edge2" class="edge">
<title>Node2&#45;&gt;Node3</title>
<path fill="none" stroke="midnightblue" d="M579.94,-185.28C500.38,-178.84 296.19,-161.78 126,-143 124.73,-142.86 123.45,-142.72 122.16,-142.57"/>
<polygon fill="midnightblue" stroke="midnightblue" points="122.48,-139.08 112.14,-141.4 121.67,-146.04 122.48,-139.08"/>
</g>
<!-- Node4&#45;&gt;Node2 -->
<g id="edge4" class="edge">
<title>Node4&#45;&gt;Node2</title>
<path fill="none" stroke="midnightblue" d="M726.93,-235.4C701.98,-225.37 668.79,-212.03 644.86,-202.4"/>
<polygon fill="midnightblue" stroke="midnightblue" points="646.12,-199.14 635.54,-198.66 643.51,-205.64 646.12,-199.14"/>
</g>
<!-- Node4&#45;&gt;Node5 -->
<g id="edge5" class="edge">
<title>Node4&#45;&gt;Node5</title>
<path fill="none" stroke="midnightblue" d="M762,-235.4C762,-227.47 762,-217.46 762,-208.86"/>
<polygon fill="midnightblue" stroke="midnightblue" points="765.5,-208.66 762,-198.66 758.5,-208.66 765.5,-208.66"/>
</g>
<!-- Node4&#45;&gt;Node25 -->
<g id="edge30" class="edge">
<title>Node4&#45;&gt;Node25</title>
<path fill="none" stroke="midnightblue" d="M785.22,-235.4C800.79,-225.95 821.2,-213.56 836.76,-204.11"/>
<polygon fill="midnightblue" stroke="midnightblue" points="839.01,-206.84 845.74,-198.66 835.38,-200.86 839.01,-206.84"/>
</g>
<!-- Node6 -->
<g id="node6" class="node">
<title>Node6</title>
<g id="a_node6"><a xlink:title=" ">
<polygon fill="none" stroke="#bfbfbf" points="1094,-123.5 1094,-142.5 1244,-142.5 1244,-123.5 1094,-123.5"/>
<text text-anchor="middle" x="1169" y="-130.5" font-family="Helvetica,sans-Serif" font-size="10.00">boost/qvm/deduce_vec.hpp</text>
</a>
</g>
</g>
<!-- Node5&#45;&gt;Node6 -->
<g id="edge6" class="edge">
<title>Node5&#45;&gt;Node6</title>
<path fill="none" stroke="midnightblue" d="M808.86,-181.69C815.61,-180.79 822.49,-179.87 829,-179 920.22,-166.84 1025.24,-152.96 1094.13,-143.87"/>
<polygon fill="midnightblue" stroke="midnightblue" points="1094.99,-147.28 1104.45,-142.51 1094.08,-140.34 1094.99,-147.28"/>
</g>
<!-- Node7 -->
<g id="node7" class="node">
<title>Node7</title>
<g id="a_node7"><a xlink:title=" ">
<polygon fill="none" stroke="#bfbfbf" points="1262,-123.5 1262,-142.5 1402,-142.5 1402,-123.5 1262,-123.5"/>
<text text-anchor="middle" x="1332" y="-130.5" font-family="Helvetica,sans-Serif" font-size="10.00">boost/qvm/vec_traits.hpp</text>
</a>
</g>
</g>
<!-- Node5&#45;&gt;Node7 -->
<g id="edge7" class="edge">
<title>Node5&#45;&gt;Node7</title>
<path fill="none" stroke="midnightblue" d="M808.82,-181.41C815.59,-180.55 822.47,-179.72 829,-179 1013.78,-158.76 1063.13,-161.6 1251.83,-143.09"/>
<polygon fill="midnightblue" stroke="midnightblue" points="1252.19,-146.57 1261.8,-142.1 1251.5,-139.6 1252.19,-146.57"/>
</g>
<!-- Node8 -->
<g id="node8" class="node">
<title>Node8</title>
<g id="a_node8"><a xlink:href="Array_8hpp.html" target="_top" xlink:title=" ">
<polygon fill="none" stroke="black" points="394,-123.5 394,-142.5 480,-142.5 480,-123.5 394,-123.5"/>
<text text-anchor="middle" x="437" y="-130.5" font-family="Helvetica,sans-Serif" font-size="10.00">utils/Array.hpp</text>
</a>
</g>
</g>
<!-- Node5&#45;&gt;Node8 -->
<g id="edge8" class="edge">
<title>Node5&#45;&gt;Node8</title>
<path fill="none" stroke="midnightblue" d="M715.44,-180.26C655.83,-170.36 552.8,-153.24 490.18,-142.84"/>
<polygon fill="midnightblue" stroke="midnightblue" points="490.54,-139.35 480.11,-141.16 489.4,-146.25 490.54,-139.35"/>
</g>
<!-- Node10 -->
<g id="node10" class="node">
<title>Node10</title>
<g id="a_node10"><a xlink:title=" ">
<polygon fill="none" stroke="#bfbfbf" points="284,-0.5 284,-19.5 336,-19.5 336,-0.5 284,-0.5"/>
<text text-anchor="middle" x="310" y="-7.5" font-family="Helvetica,sans-Serif" font-size="10.00">cassert</text>
</a>
</g>
</g>
<!-- Node5&#45;&gt;Node10 -->
<g id="edge21" class="edge">
<title>Node5&#45;&gt;Node10</title>
<path fill="none" stroke="midnightblue" d="M715.37,-183.78C579.85,-171.02 193.46,-131.04 159,-87 125.53,-44.22 219.37,-23.58 273.94,-15.42"/>
<polygon fill="midnightblue" stroke="midnightblue" points="274.55,-18.87 283.96,-13.99 273.57,-11.94 274.55,-18.87"/>
</g>
<!-- Node12 -->
<g id="node12" class="node">
<title>Node12</title>
<g id="a_node12"><a xlink:title=" ">
<polygon fill="none" stroke="#bfbfbf" points="679.5,-0.5 679.5,-19.5 732.5,-19.5 732.5,-0.5 679.5,-0.5"/>
<text text-anchor="middle" x="706" y="-7.5" font-family="Helvetica,sans-Serif" font-size="10.00">cstddef</text>
</a>
</g>
</g>
<!-- Node5&#45;&gt;Node12 -->
<g id="edge23" class="edge">
<title>Node5&#45;&gt;Node12</title>
<path fill="none" stroke="midnightblue" d="M808.81,-181.28C815.57,-180.43 822.46,-179.64 829,-179 893.48,-172.68 1366.62,-190.21 1411,-143 1417.09,-136.52 1416.77,-129.76 1411,-123 1323.45,-20.45 875.35,-11.31 742.91,-10.88"/>
<polygon fill="midnightblue" stroke="midnightblue" points="742.86,-7.38 732.85,-10.86 742.85,-14.38 742.86,-7.38"/>
</g>
<!-- Node15 -->
<g id="node15" class="node">
<title>Node15</title>
<g id="a_node15"><a xlink:title=" ">
<polygon fill="none" stroke="#bfbfbf" points="734.5,-62 734.5,-81 787.5,-81 787.5,-62 734.5,-62"/>
<text text-anchor="middle" x="761" y="-69" font-family="Helvetica,sans-Serif" font-size="10.00">iterator</text>
</a>
</g>
</g>
<!-- Node5&#45;&gt;Node15 -->
<g id="edge26" class="edge">
<title>Node5&#45;&gt;Node15</title>
<path fill="none" stroke="midnightblue" d="M715.31,-182.27C650.25,-173.8 538.91,-157.41 527,-143 487.71,-95.47 467.35,-154.8 720,-87 722.97,-86.2 726.03,-85.29 729.07,-84.33"/>
<polygon fill="midnightblue" stroke="midnightblue" points="730.28,-87.62 738.64,-81.12 728.05,-80.98 730.28,-87.62"/>
</g>
<!-- Node18 -->
<g id="node18" class="node">
<title>Node18</title>
<g id="a_node18"><a xlink:title=" ">
<polygon fill="none" stroke="#bfbfbf" points="536,-123.5 536,-142.5 600,-142.5 600,-123.5 536,-123.5"/>
<text text-anchor="middle" x="568" y="-130.5" font-family="Helvetica,sans-Serif" font-size="10.00">algorithm</text>
</a>
</g>
</g>
<!-- Node5&#45;&gt;Node18 -->
<g id="edge20" class="edge">
<title>Node5&#45;&gt;Node18</title>
<path fill="none" stroke="midnightblue" d="M731.26,-179.44C698.06,-170.2 645.01,-155.44 608.44,-145.26"/>
<polygon fill="midnightblue" stroke="midnightblue" points="609.17,-141.83 598.6,-142.52 607.29,-148.57 609.17,-141.83"/>
</g>
<!-- Node19 -->
<g id="node19" class="node">
<title>Node19</title>
<g id="a_node19"><a xlink:title=" ">
<polygon fill="none" stroke="#bfbfbf" points="618.5,-123.5 618.5,-142.5 665.5,-142.5 665.5,-123.5 618.5,-123.5"/>
<text text-anchor="middle" x="642" y="-130.5" font-family="Helvetica,sans-Serif" font-size="10.00">cmath</text>
</a>
</g>
</g>
<!-- Node5&#45;&gt;Node19 -->
<g id="edge22" class="edge">
<title>Node5&#45;&gt;Node19</title>
<path fill="none" stroke="midnightblue" d="M742.99,-179.44C723.41,-170.64 692.69,-156.81 670.27,-146.72"/>
<polygon fill="midnightblue" stroke="midnightblue" points="671.48,-143.43 660.93,-142.52 668.61,-149.81 671.48,-143.43"/>
</g>
<!-- Node20 -->
<g id="node20" class="node">
<title>Node20</title>
<g id="a_node20"><a xlink:title=" ">
<polygon fill="none" stroke="#bfbfbf" points="683.5,-123.5 683.5,-142.5 748.5,-142.5 748.5,-123.5 683.5,-123.5"/>
<text text-anchor="middle" x="716" y="-130.5" font-family="Helvetica,sans-Serif" font-size="10.00">functional</text>
</a>
</g>
</g>
<!-- Node5&#45;&gt;Node20 -->
<g id="edge24" class="edge">
<title>Node5&#45;&gt;Node20</title>
<path fill="none" stroke="midnightblue" d="M754.4,-179.08C747.77,-171.3 737.98,-159.8 729.94,-150.37"/>
<polygon fill="midnightblue" stroke="midnightblue" points="732.6,-148.09 723.45,-142.75 727.27,-152.63 732.6,-148.09"/>
</g>
<!-- Node21 -->
<g id="node21" class="node">
<title>Node21</title>
<g id="a_node21"><a xlink:title=" ">
<polygon fill="none" stroke="#bfbfbf" points="766.5,-123.5 766.5,-142.5 849.5,-142.5 849.5,-123.5 766.5,-123.5"/>
<text text-anchor="middle" x="808" y="-130.5" font-family="Helvetica,sans-Serif" font-size="10.00">initializer_list</text>
</a>
</g>
</g>
<!-- Node5&#45;&gt;Node21 -->
<g id="edge25" class="edge">
<title>Node5&#45;&gt;Node21</title>
<path fill="none" stroke="midnightblue" d="M769.6,-179.08C776.23,-171.3 786.02,-159.8 794.06,-150.37"/>
<polygon fill="midnightblue" stroke="midnightblue" points="796.73,-152.63 800.55,-142.75 791.4,-148.09 796.73,-152.63"/>
</g>
<!-- Node22 -->
<g id="node22" class="node">
<title>Node22</title>
<g id="a_node22"><a xlink:title=" ">
<polygon fill="none" stroke="#bfbfbf" points="868,-123.5 868,-142.5 924,-142.5 924,-123.5 868,-123.5"/>
<text text-anchor="middle" x="896" y="-130.5" font-family="Helvetica,sans-Serif" font-size="10.00">numeric</text>
</a>
</g>
</g>
<!-- Node5&#45;&gt;Node22 -->
<g id="edge27" class="edge">
<title>Node5&#45;&gt;Node22</title>
<path fill="none" stroke="midnightblue" d="M783.23,-179.44C805.38,-170.52 840.32,-156.44 865.44,-146.32"/>
<polygon fill="midnightblue" stroke="midnightblue" points="866.9,-149.5 874.87,-142.52 864.28,-143.01 866.9,-149.5"/>
</g>
<!-- Node23 -->
<g id="node23" class="node">
<title>Node23</title>
<g id="a_node23"><a xlink:title=" ">
<polygon fill="none" stroke="#bfbfbf" points="942.5,-123.5 942.5,-142.5 1011.5,-142.5 1011.5,-123.5 942.5,-123.5"/>
<text text-anchor="middle" x="977" y="-130.5" font-family="Helvetica,sans-Serif" font-size="10.00">type_traits</text>
</a>
</g>
</g>
<!-- Node5&#45;&gt;Node23 -->
<g id="edge28" class="edge">
<title>Node5&#45;&gt;Node23</title>
<path fill="none" stroke="midnightblue" d="M796.07,-179.44C833.18,-170.12 892.66,-155.18 933.21,-145"/>
<polygon fill="midnightblue" stroke="midnightblue" points="934.25,-148.35 943.09,-142.52 932.54,-141.56 934.25,-148.35"/>
</g>
<!-- Node24 -->
<g id="node24" class="node">
<title>Node24</title>
<g id="a_node24"><a xlink:title=" ">
<polygon fill="none" stroke="#bfbfbf" points="1029.5,-123.5 1029.5,-142.5 1076.5,-142.5 1076.5,-123.5 1029.5,-123.5"/>
<text text-anchor="middle" x="1053" y="-130.5" font-family="Helvetica,sans-Serif" font-size="10.00">vector</text>
</a>
</g>
</g>
<!-- Node5&#45;&gt;Node24 -->
<g id="edge29" class="edge">
<title>Node5&#45;&gt;Node24</title>
<path fill="none" stroke="midnightblue" d="M808.6,-181.37C858.54,-173.94 940.29,-160.84 1019.2,-143.24"/>
<polygon fill="midnightblue" stroke="midnightblue" points="1020.32,-146.57 1029.3,-140.96 1018.78,-139.75 1020.32,-146.57"/>
</g>
<!-- Node9 -->
<g id="node9" class="node">
<title>Node9</title>
<g id="a_node9"><a xlink:href="device__qualifier_8hpp.html" target="_top" xlink:title=" ">
<polygon fill="none" stroke="black" points="252,-62 252,-81 368,-81 368,-62 252,-62"/>
<text text-anchor="middle" x="310" y="-69" font-family="Helvetica,sans-Serif" font-size="10.00">device_qualifier.hpp</text>
</a>
</g>
</g>
<!-- Node8&#45;&gt;Node9 -->
<g id="edge9" class="edge">
<title>Node8&#45;&gt;Node9</title>
<path fill="none" stroke="midnightblue" d="M418.8,-123.48C397.49,-113.49 361.97,-96.85 337.34,-85.31"/>
<polygon fill="midnightblue" stroke="midnightblue" points="338.7,-82.08 328.16,-81.01 335.73,-88.42 338.7,-82.08"/>
</g>
<!-- Node8&#45;&gt;Node10 -->
<g id="edge15" class="edge">
<title>Node8&#45;&gt;Node10</title>
<path fill="none" stroke="midnightblue" d="M431.46,-123.31C421.68,-108.39 400.19,-77.47 377,-56 364.05,-44.01 347.63,-32.93 334.28,-24.76"/>
<polygon fill="midnightblue" stroke="midnightblue" points="336,-21.71 325.62,-19.6 332.42,-27.72 336,-21.71"/>
</g>
<!-- Node11 -->
<g id="node11" class="node">
<title>Node11</title>
<g id="a_node11"><a xlink:href="get_8hpp.html" target="_top" xlink:title=" ">
<polygon fill="none" stroke="black" points="549.5,-62 549.5,-81 602.5,-81 602.5,-62 549.5,-62"/>
<text text-anchor="middle" x="576" y="-69" font-family="Helvetica,sans-Serif" font-size="10.00">get.hpp</text>
</a>
</g>
</g>
<!-- Node8&#45;&gt;Node11 -->
<g id="edge11" class="edge">
<title>Node8&#45;&gt;Node11</title>
<path fill="none" stroke="midnightblue" d="M456.92,-123.48C480.45,-113.4 519.81,-96.55 546.79,-85"/>
<polygon fill="midnightblue" stroke="midnightblue" points="548.31,-88.16 556.12,-81.01 545.55,-81.73 548.31,-88.16"/>
</g>
<!-- Node8&#45;&gt;Node12 -->
<g id="edge16" class="edge">
<title>Node8&#45;&gt;Node12</title>
<path fill="none" stroke="midnightblue" d="M480.15,-125.43C549.42,-114.71 678.47,-93.96 686,-87 701.78,-72.41 705.71,-47.01 706.4,-29.62"/>
<polygon fill="midnightblue" stroke="midnightblue" points="709.9,-29.57 706.48,-19.54 702.9,-29.51 709.9,-29.57"/>
</g>
<!-- Node14 -->
<g id="node14" class="node">
<title>Node14</title>
<g id="a_node14"><a xlink:title=" ">
<polygon fill="none" stroke="#bfbfbf" points="424.5,-56.5 424.5,-86.5 531.5,-86.5 531.5,-56.5 424.5,-56.5"/>
<text text-anchor="start" x="432.5" y="-74.5" font-family="Helvetica,sans-Serif" font-size="10.00">boost/serialization</text>
<text text-anchor="middle" x="478" y="-63.5" font-family="Helvetica,sans-Serif" font-size="10.00">/access.hpp</text>
</a>
</g>
</g>
<!-- Node8&#45;&gt;Node14 -->
<g id="edge14" class="edge">
<title>Node8&#45;&gt;Node14</title>
<path fill="none" stroke="midnightblue" d="M442.87,-123.48C448.01,-116.02 455.71,-104.85 462.59,-94.87"/>
<polygon fill="midnightblue" stroke="midnightblue" points="465.55,-96.74 468.34,-86.52 459.78,-92.77 465.55,-96.74"/>
</g>
<!-- Node8&#45;&gt;Node15 -->
<g id="edge17" class="edge">
<title>Node8&#45;&gt;Node15</title>
<path fill="none" stroke="midnightblue" d="M480.06,-125.2C558.54,-112.81 717.1,-87.74 720,-87 723.05,-86.23 726.19,-85.32 729.31,-84.34"/>
<polygon fill="midnightblue" stroke="midnightblue" points="730.72,-87.56 739.1,-81.08 728.5,-80.92 730.72,-87.56"/>
</g>
<!-- Node16 -->
<g id="node16" class="node">
<title>Node16</title>
<g id="a_node16"><a xlink:title=" ">
<polygon fill="none" stroke="#bfbfbf" points="620.5,-62 620.5,-81 677.5,-81 677.5,-62 620.5,-62"/>
<text text-anchor="middle" x="649" y="-69" font-family="Helvetica,sans-Serif" font-size="10.00">ostream</text>
</a>
</g>
</g>
<!-- Node8&#45;&gt;Node16 -->
<g id="edge18" class="edge">
<title>Node8&#45;&gt;Node16</title>
<path fill="none" stroke="midnightblue" d="M475.02,-123.46C510.51,-115.18 564.78,-101.75 611,-87 613.41,-86.23 615.9,-85.39 618.38,-84.52"/>
<polygon fill="midnightblue" stroke="midnightblue" points="619.66,-87.78 627.84,-81.05 617.25,-81.21 619.66,-87.78"/>
</g>
<!-- Node17 -->
<g id="node17" class="node">
<title>Node17</title>
<g id="a_node17"><a xlink:title=" ">
<polygon fill="none" stroke="#bfbfbf" points="168.5,-62 168.5,-81 233.5,-81 233.5,-62 168.5,-62"/>
<text text-anchor="middle" x="201" y="-69" font-family="Helvetica,sans-Serif" font-size="10.00">stdexcept</text>
</a>
</g>
</g>
<!-- Node8&#45;&gt;Node17 -->
<g id="edge19" class="edge">
<title>Node8&#45;&gt;Node17</title>
<path fill="none" stroke="midnightblue" d="M394.29,-123.43C354.76,-115.19 294.5,-101.82 243,-87 240.06,-86.15 237.01,-85.22 233.98,-84.25"/>
<polygon fill="midnightblue" stroke="midnightblue" points="235,-80.9 224.41,-81.07 232.79,-87.54 235,-80.9"/>
</g>
<!-- Node9&#45;&gt;Node10 -->
<g id="edge10" class="edge">
<title>Node9&#45;&gt;Node10</title>
<path fill="none" stroke="midnightblue" d="M310,-61.98C310,-53.58 310,-40.48 310,-29.66"/>
<polygon fill="midnightblue" stroke="midnightblue" points="313.5,-29.51 310,-19.51 306.5,-29.51 313.5,-29.51"/>
</g>
<!-- Node11&#45;&gt;Node12 -->
<g id="edge12" class="edge">
<title>Node11&#45;&gt;Node12</title>
<path fill="none" stroke="midnightblue" d="M594.63,-61.98C616.44,-51.99 652.8,-35.35 678.02,-23.81"/>
<polygon fill="midnightblue" stroke="midnightblue" points="679.77,-26.85 687.41,-19.51 676.86,-20.49 679.77,-26.85"/>
</g>
<!-- Node13 -->
<g id="node13" class="node">
<title>Node13</title>
<g id="a_node13"><a xlink:title=" ">
<polygon fill="none" stroke="#bfbfbf" points="555.5,-0.5 555.5,-19.5 596.5,-19.5 596.5,-0.5 555.5,-0.5"/>
<text text-anchor="middle" x="576" y="-7.5" font-family="Helvetica,sans-Serif" font-size="10.00">tuple</text>
</a>
</g>
</g>
<!-- Node11&#45;&gt;Node13 -->
<g id="edge13" class="edge">
<title>Node11&#45;&gt;Node13</title>
<path fill="none" stroke="midnightblue" d="M576,-61.98C576,-53.58 576,-40.48 576,-29.66"/>
<polygon fill="midnightblue" stroke="midnightblue" points="579.5,-29.51 576,-19.51 572.5,-29.51 579.5,-29.51"/>
</g>
</g>
</svg>
