<?xml version="1.0" encoding="UTF-8" standalone="no"?>
<!DOCTYPE svg PUBLIC "-//W3C//DTD SVG 1.1//EN"
 "http://www.w3.org/Graphics/SVG/1.1/DTD/svg11.dtd">
<!-- Generated by graphviz version 2.43.0 (0)
 -->
<!-- Title: ScafacosContext.hpp Pages: 1 -->
<!--zoomable 330 -->
<svg id="main" version="1.1" xmlns="http://www.w3.org/2000/svg" xmlns:xlink="http://www.w3.org/1999/xlink" xml:space="preserve" onload="init(evt)">
<style type="text/css"><![CDATA[
.edge:hover path { stroke: red; }
.edge:hover polygon { stroke: red; fill: red; }
]]></style>
<script type="text/javascript"><![CDATA[
var edges = document.getElementsByTagName('g');
if (edges && edges.length) {
  for (var i=0;i<edges.length;i++) {
    if (edges[i].id.substr(0,4)=='edge') {
      edges[i].setAttribute('class','edge');
    }
  }
}
]]></script>
        <defs>
                <circle id="rim" cx="0" cy="0" r="7"/>
                <circle id="rim2" cx="0" cy="0" r="3.5"/>
                <g id="zoomPlus">
                        <use xlink:href="#rim" fill="#404040">
                                <set attributeName="fill" to="#808080" begin="zoomplus.mouseover" end="zoomplus.mouseout"/>
                        </use>
                        <path d="M-4,0h8M0,-4v8" fill="none" stroke="white" stroke-width="1.5" pointer-events="none"/>
                </g>
                <g id="zoomMin">
                        <use xlink:href="#rim" fill="#404040">
                                <set attributeName="fill" to="#808080" begin="zoomminus.mouseover" end="zoomminus.mouseout"/>
                        </use>
                        <path d="M-4,0h8" fill="none" stroke="white" stroke-width="1.5" pointer-events="none"/>
                </g>
                <g id="dirArrow">
                        <path fill="none" stroke="white" stroke-width="1.5" d="M0,-3.0v7 M-2.5,-0.5L0,-3.0L2.5,-0.5"/>
                </g>
               <g id="resetDef">
                       <use xlink:href="#rim2" fill="#404040">
                               <set attributeName="fill" to="#808080" begin="reset.mouseover" end="reset.mouseout"/>
                       </use>
               </g>
        </defs>

<script type="text/javascript">
var viewWidth = 1257;
var viewHeight = 330;
var sectionId = 'dynsection-0';
</script>
<script xlink:href="svgpan.js"/>
<svg id="graph" class="graph">
<g id="viewport">
<title>ScafacosContext.hpp</title>
<!-- Node1 -->
<g id="node1" class="node">
<title>Node1</title>
<g id="a_node1"><a xlink:title=" ">
<polygon fill="#bfbfbf" stroke="black" points="675.5,-302.5 675.5,-321.5 794.5,-321.5 794.5,-302.5 675.5,-302.5"/>
<text text-anchor="middle" x="735" y="-309.5" font-family="Helvetica,sans-Serif" font-size="10.00">ScafacosContext.hpp</text>
</a>
</g>
</g>
<!-- Node2 -->
<g id="node2" class="node">
<title>Node2</title>
<g id="a_node2"><a xlink:href="config_8hpp.html" target="_top" xlink:title=" ">
<polygon fill="none" stroke="black" points="462,-179.5 462,-198.5 530,-198.5 530,-179.5 462,-179.5"/>
<text text-anchor="middle" x="496" y="-186.5" font-family="Helvetica,sans-Serif" font-size="10.00">config.hpp</text>
</a>
</g>
</g>
<!-- Node1&#45;&gt;Node2 -->
<g id="edge1" class="edge">
<title>Node1&#45;&gt;Node2</title>
<path fill="none" stroke="midnightblue" d="M675.43,-305.92C618.33,-299.83 537.6,-287.64 515,-266 499.61,-251.26 495.94,-226.1 495.41,-208.79"/>
<polygon fill="midnightblue" stroke="midnightblue" points="498.91,-208.74 495.42,-198.74 491.91,-208.73 498.91,-208.74"/>
</g>
<!-- Node4 -->
<g id="node4" class="node">
<title>Node4</title>
<g id="a_node4"><a xlink:href="Scafacos_8hpp.html" target="_top" xlink:title=" ">
<polygon fill="none" stroke="black" points="801.5,-241 801.5,-260 882.5,-260 882.5,-241 801.5,-241"/>
<text text-anchor="middle" x="842" y="-248" font-family="Helvetica,sans-Serif" font-size="10.00">Scafacos.hpp</text>
</a>
</g>
</g>
<!-- Node1&#45;&gt;Node4 -->
<g id="edge3" class="edge">
<title>Node1&#45;&gt;Node4</title>
<path fill="none" stroke="midnightblue" d="M750.33,-302.48C767.97,-292.67 797.16,-276.43 817.86,-264.92"/>
<polygon fill="midnightblue" stroke="midnightblue" points="819.66,-267.93 826.7,-260.01 816.26,-261.81 819.66,-267.93"/>
</g>
<!-- Node8 -->
<g id="node8" class="node">
<title>Node8</title>
<g id="a_node8"><a xlink:title=" ">
<polygon fill="none" stroke="#bfbfbf" points="722,-179.5 722,-198.5 766,-198.5 766,-179.5 722,-179.5"/>
<text text-anchor="middle" x="744" y="-186.5" font-family="Helvetica,sans-Serif" font-size="10.00">string</text>
</a>
</g>
</g>
<!-- Node1&#45;&gt;Node8 -->
<g id="edge38" class="edge">
<title>Node1&#45;&gt;Node8</title>
<path fill="none" stroke="midnightblue" d="M735.65,-302.3C737.09,-282.85 740.62,-235.49 742.59,-208.9"/>
<polygon fill="midnightblue" stroke="midnightblue" points="746.11,-208.86 743.36,-198.62 739.13,-208.34 746.11,-208.86"/>
</g>
<!-- Node9 -->
<g id="node9" class="node">
<title>Node9</title>
<g id="a_node9"><a xlink:title=" ">
<polygon fill="none" stroke="#bfbfbf" points="1201.5,-123.5 1201.5,-142.5 1248.5,-142.5 1248.5,-123.5 1201.5,-123.5"/>
<text text-anchor="middle" x="1225" y="-130.5" font-family="Helvetica,sans-Serif" font-size="10.00">vector</text>
</a>
</g>
</g>
<!-- Node1&#45;&gt;Node9 -->
<g id="edge39" class="edge">
<title>Node1&#45;&gt;Node9</title>
<path fill="none" stroke="midnightblue" d="M768.37,-302.45C800.36,-294.03 849.86,-280.35 892,-266 1006.12,-227.13 1138.36,-171.43 1195.84,-146.69"/>
<polygon fill="midnightblue" stroke="midnightblue" points="1197.57,-149.75 1205.36,-142.57 1194.79,-143.32 1197.57,-149.75"/>
</g>
<!-- Node10 -->
<g id="node10" class="node">
<title>Node10</title>
<g id="a_node10"><a xlink:href="ScafacosContextBase_8hpp.html" target="_top" xlink:title=" ">
<polygon fill="none" stroke="black" points="524,-235.5 524,-265.5 688,-265.5 688,-235.5 524,-235.5"/>
<text text-anchor="start" x="532" y="-253.5" font-family="Helvetica,sans-Serif" font-size="10.00">electrostatics_magnetostatics</text>
<text text-anchor="middle" x="606" y="-242.5" font-family="Helvetica,sans-Serif" font-size="10.00">/ScafacosContextBase.hpp</text>
</a>
</g>
</g>
<!-- Node1&#45;&gt;Node10 -->
<g id="edge9" class="edge">
<title>Node1&#45;&gt;Node10</title>
<path fill="none" stroke="midnightblue" d="M716.52,-302.48C698.07,-293.96 669.13,-280.62 645.5,-269.72"/>
<polygon fill="midnightblue" stroke="midnightblue" points="646.95,-266.53 636.4,-265.52 644.02,-272.89 646.95,-266.53"/>
</g>
<!-- Node11 -->
<g id="node11" class="node">
<title>Node11</title>
<g id="a_node11"><a xlink:href="Vector_8hpp.html" target="_top" xlink:title=" ">
<polygon fill="none" stroke="black" points="559.5,-179.5 559.5,-198.5 652.5,-198.5 652.5,-179.5 559.5,-179.5"/>
<text text-anchor="middle" x="606" y="-186.5" font-family="Helvetica,sans-Serif" font-size="10.00">utils/Vector.hpp</text>
</a>
</g>
</g>
<!-- Node1&#45;&gt;Node11 -->
<g id="edge37" class="edge">
<title>Node1&#45;&gt;Node11</title>
<path fill="none" stroke="midnightblue" d="M732.69,-302.39C728.17,-287.06 716.86,-254.78 697,-235 682.25,-220.31 661.73,-209.6 643.92,-202.32"/>
<polygon fill="midnightblue" stroke="midnightblue" points="644.94,-198.96 634.35,-198.62 642.42,-205.49 644.94,-198.96"/>
</g>
<!-- Node3 -->
<g id="node3" class="node">
<title>Node3</title>
<g id="a_node3"><a xlink:title=" ">
<polygon fill="none" stroke="#bfbfbf" points="0,-123.5 0,-142.5 112,-142.5 112,-123.5 0,-123.5"/>
<text text-anchor="middle" x="56" y="-130.5" font-family="Helvetica,sans-Serif" font-size="10.00">config&#45;features.hpp</text>
</a>
</g>
</g>
<!-- Node2&#45;&gt;Node3 -->
<g id="edge2" class="edge">
<title>Node2&#45;&gt;Node3</title>
<path fill="none" stroke="midnightblue" d="M461.81,-183.92C396.53,-176.12 249.6,-158.46 126,-143 124.73,-142.84 123.46,-142.68 122.17,-142.52"/>
<polygon fill="midnightblue" stroke="midnightblue" points="122.52,-139.04 112.16,-141.25 121.64,-145.98 122.52,-139.04"/>
</g>
<!-- Node5 -->
<g id="node5" class="node">
<title>Node5</title>
<g id="a_node5"><a xlink:title=" ">
<polygon fill="none" stroke="#bfbfbf" points="784,-179.5 784,-198.5 824,-198.5 824,-179.5 784,-179.5"/>
<text text-anchor="middle" x="804" y="-186.5" font-family="Helvetica,sans-Serif" font-size="10.00">fcs.h</text>
</a>
</g>
</g>
<!-- Node4&#45;&gt;Node5 -->
<g id="edge4" class="edge">
<title>Node4&#45;&gt;Node5</title>
<path fill="none" stroke="midnightblue" d="M836.56,-240.98C830.91,-232.14 821.94,-218.09 814.84,-206.98"/>
<polygon fill="midnightblue" stroke="midnightblue" points="817.77,-205.05 809.43,-198.51 811.87,-208.82 817.77,-205.05"/>
</g>
<!-- Node6 -->
<g id="node6" class="node">
<title>Node6</title>
<g id="a_node6"><a xlink:title=" ">
<polygon fill="none" stroke="#bfbfbf" points="880,-179.5 880,-198.5 924,-198.5 924,-179.5 880,-179.5"/>
<text text-anchor="middle" x="902" y="-186.5" font-family="Helvetica,sans-Serif" font-size="10.00">mpi.h</text>
</a>
</g>
</g>
<!-- Node4&#45;&gt;Node6 -->
<g id="edge5" class="edge">
<title>Node4&#45;&gt;Node6</title>
<path fill="none" stroke="midnightblue" d="M850.6,-240.98C859.86,-231.78 874.82,-216.96 886.21,-205.66"/>
<polygon fill="midnightblue" stroke="midnightblue" points="888.78,-208.04 893.42,-198.51 883.85,-203.07 888.78,-208.04"/>
</g>
<!-- Node7 -->
<g id="node7" class="node">
<title>Node7</title>
<g id="a_node7"><a xlink:title=" ">
<polygon fill="none" stroke="#bfbfbf" points="942,-179.5 942,-198.5 974,-198.5 974,-179.5 942,-179.5"/>
<text text-anchor="middle" x="958" y="-186.5" font-family="Helvetica,sans-Serif" font-size="10.00">list</text>
</a>
</g>
</g>
<!-- Node4&#45;&gt;Node7 -->
<g id="edge6" class="edge">
<title>Node4&#45;&gt;Node7</title>
<path fill="none" stroke="midnightblue" d="M858.62,-240.98C878.02,-231.02 910.32,-214.45 932.81,-202.92"/>
<polygon fill="midnightblue" stroke="midnightblue" points="934.48,-206 941.78,-198.32 931.29,-199.77 934.48,-206"/>
</g>
<!-- Node4&#45;&gt;Node8 -->
<g id="edge7" class="edge">
<title>Node4&#45;&gt;Node8</title>
<path fill="none" stroke="midnightblue" d="M827.96,-240.98C811.95,-231.25 785.55,-215.23 766.63,-203.74"/>
<polygon fill="midnightblue" stroke="midnightblue" points="768.38,-200.71 758.01,-198.51 764.75,-206.69 768.38,-200.71"/>
</g>
<!-- Node4&#45;&gt;Node9 -->
<g id="edge8" class="edge">
<title>Node4&#45;&gt;Node9</title>
<path fill="none" stroke="midnightblue" d="M842.79,-240.88C844.68,-225.65 850.94,-194.16 871,-179 927.39,-136.4 1117.38,-155.17 1187,-143 1188.46,-142.74 1189.95,-142.47 1191.45,-142.17"/>
<polygon fill="midnightblue" stroke="midnightblue" points="1192.32,-145.57 1201.37,-140.06 1190.86,-138.72 1192.32,-145.57"/>
</g>
<!-- Node10&#45;&gt;Node2 -->
<g id="edge10" class="edge">
<title>Node10&#45;&gt;Node2</title>
<path fill="none" stroke="midnightblue" d="M579.93,-235.4C562.13,-225.77 538.69,-213.09 521.1,-203.58"/>
<polygon fill="midnightblue" stroke="midnightblue" points="522.47,-200.34 512.01,-198.66 519.14,-206.49 522.47,-200.34"/>
</g>
<!-- Node10&#45;&gt;Node8 -->
<g id="edge36" class="edge">
<title>Node10&#45;&gt;Node8</title>
<path fill="none" stroke="midnightblue" d="M638.7,-235.4C661.75,-225.46 692.36,-212.26 714.63,-202.66"/>
<polygon fill="midnightblue" stroke="midnightblue" points="716.12,-205.83 723.92,-198.66 713.35,-199.4 716.12,-205.83"/>
</g>
<!-- Node10&#45;&gt;Node11 -->
<g id="edge11" class="edge">
<title>Node10&#45;&gt;Node11</title>
<path fill="none" stroke="midnightblue" d="M606,-235.4C606,-227.47 606,-217.46 606,-208.86"/>
<polygon fill="midnightblue" stroke="midnightblue" points="609.5,-208.66 606,-198.66 602.5,-208.66 609.5,-208.66"/>
</g>
<!-- Node11&#45;&gt;Node9 -->
<g id="edge35" class="edge">
<title>Node11&#45;&gt;Node9</title>
<path fill="none" stroke="midnightblue" d="M652.6,-184C671.37,-182.41 693.21,-180.58 713,-179 923.6,-162.15 978.23,-175.45 1187,-143 1188.47,-142.77 1189.96,-142.52 1191.46,-142.24"/>
<polygon fill="midnightblue" stroke="midnightblue" points="1192.31,-145.64 1201.4,-140.2 1190.9,-138.79 1192.31,-145.64"/>
</g>
<!-- Node12 -->
<g id="node12" class="node">
<title>Node12</title>
<g id="a_node12"><a xlink:title=" ">
<polygon fill="none" stroke="#bfbfbf" points="699,-123.5 699,-142.5 849,-142.5 849,-123.5 699,-123.5"/>
<text text-anchor="middle" x="774" y="-130.5" font-family="Helvetica,sans-Serif" font-size="10.00">boost/qvm/deduce_vec.hpp</text>
</a>
</g>
</g>
<!-- Node11&#45;&gt;Node12 -->
<g id="edge12" class="edge">
<title>Node11&#45;&gt;Node12</title>
<path fill="none" stroke="midnightblue" d="M632.62,-179.44C661.01,-170.32 706.14,-155.81 737.75,-145.65"/>
<polygon fill="midnightblue" stroke="midnightblue" points="739.06,-148.91 747.5,-142.52 736.91,-142.24 739.06,-148.91"/>
</g>
<!-- Node13 -->
<g id="node13" class="node">
<title>Node13</title>
<g id="a_node13"><a xlink:title=" ">
<polygon fill="none" stroke="#bfbfbf" points="867,-123.5 867,-142.5 1007,-142.5 1007,-123.5 867,-123.5"/>
<text text-anchor="middle" x="937" y="-130.5" font-family="Helvetica,sans-Serif" font-size="10.00">boost/qvm/vec_traits.hpp</text>
</a>
</g>
</g>
<!-- Node11&#45;&gt;Node13 -->
<g id="edge13" class="edge">
<title>Node11&#45;&gt;Node13</title>
<path fill="none" stroke="midnightblue" d="M652.72,-180.38C710.83,-170.9 810.22,-154.68 874.74,-144.16"/>
<polygon fill="midnightblue" stroke="midnightblue" points="875.48,-147.58 884.79,-142.52 874.35,-140.67 875.48,-147.58"/>
</g>
<!-- Node14 -->
<g id="node14" class="node">
<title>Node14</title>
<g id="a_node14"><a xlink:href="Array_8hpp.html" target="_top" xlink:title=" ">
<polygon fill="none" stroke="black" points="1025,-123.5 1025,-142.5 1111,-142.5 1111,-123.5 1025,-123.5"/>
<text text-anchor="middle" x="1068" y="-130.5" font-family="Helvetica,sans-Serif" font-size="10.00">utils/Array.hpp</text>
</a>
</g>
</g>
<!-- Node11&#45;&gt;Node14 -->
<g id="edge14" class="edge">
<title>Node11&#45;&gt;Node14</title>
<path fill="none" stroke="midnightblue" d="M652.54,-183.84C726.84,-176.99 877.08,-162.3 1014.6,-143.12"/>
<polygon fill="midnightblue" stroke="midnightblue" points="1015.49,-146.53 1024.9,-141.67 1014.51,-139.6 1015.49,-146.53"/>
</g>
<!-- Node16 -->
<g id="node16" class="node">
<title>Node16</title>
<g id="a_node16"><a xlink:title=" ">
<polygon fill="none" stroke="#bfbfbf" points="919,-0.5 919,-19.5 971,-19.5 971,-0.5 919,-0.5"/>
<text text-anchor="middle" x="945" y="-7.5" font-family="Helvetica,sans-Serif" font-size="10.00">cassert</text>
</a>
</g>
</g>
<!-- Node11&#45;&gt;Node16 -->
<g id="edge27" class="edge">
<title>Node11&#45;&gt;Node16</title>
<path fill="none" stroke="midnightblue" d="M652.7,-184.02C778.89,-173.26 1117.39,-144.29 1120,-143 1150.17,-128.06 1158.85,-118.39 1171,-87 1175.97,-74.15 1179.74,-66.65 1171,-56 1147.41,-27.25 1038.87,-16.52 981.23,-12.81"/>
<polygon fill="midnightblue" stroke="midnightblue" points="981.28,-9.3 971.09,-12.19 980.85,-16.29 981.28,-9.3"/>
</g>
<!-- Node18 -->
<g id="node18" class="node">
<title>Node18</title>
<g id="a_node18"><a xlink:title=" ">
<polygon fill="none" stroke="#bfbfbf" points="588.5,-0.5 588.5,-19.5 641.5,-19.5 641.5,-0.5 588.5,-0.5"/>
<text text-anchor="middle" x="615" y="-7.5" font-family="Helvetica,sans-Serif" font-size="10.00">cstddef</text>
</a>
</g>
</g>
<!-- Node11&#45;&gt;Node18 -->
<g id="edge29" class="edge">
<title>Node11&#45;&gt;Node18</title>
<path fill="none" stroke="midnightblue" d="M559.17,-181.51C552.4,-180.63 545.53,-179.77 539,-179 499.63,-174.36 210.58,-172.41 184,-143 70.69,-17.62 455.26,-9.84 578.34,-10.48"/>
<polygon fill="midnightblue" stroke="midnightblue" points="578.4,-13.98 588.42,-10.55 578.45,-6.98 578.4,-13.98"/>
</g>
<!-- Node21 -->
<g id="node21" class="node">
<title>Node21</title>
<g id="a_node21"><a xlink:title=" ">
<polygon fill="none" stroke="#bfbfbf" points="375.5,-62 375.5,-81 428.5,-81 428.5,-62 375.5,-62"/>
<text text-anchor="middle" x="402" y="-69" font-family="Helvetica,sans-Serif" font-size="10.00">iterator</text>
</a>
</g>
</g>
<!-- Node11&#45;&gt;Node21 -->
<g id="edge32" class="edge">
<title>Node11&#45;&gt;Node21</title>
<path fill="none" stroke="midnightblue" d="M559.16,-181.53C552.4,-180.65 545.53,-179.78 539,-179 463.12,-169.91 248.13,-199.8 197,-143 147.78,-88.33 293.24,-76.04 364.78,-73.29"/>
<polygon fill="midnightblue" stroke="midnightblue" points="365.3,-76.77 375.17,-72.94 365.06,-69.78 365.3,-76.77"/>
</g>
<!-- Node24 -->
<g id="node24" class="node">
<title>Node24</title>
<g id="a_node24"><a xlink:title=" ">
<polygon fill="none" stroke="#bfbfbf" points="206,-123.5 206,-142.5 270,-142.5 270,-123.5 206,-123.5"/>
<text text-anchor="middle" x="238" y="-130.5" font-family="Helvetica,sans-Serif" font-size="10.00">algorithm</text>
</a>
</g>
</g>
<!-- Node11&#45;&gt;Node24 -->
<g id="edge26" class="edge">
<title>Node11&#45;&gt;Node24</title>
<path fill="none" stroke="midnightblue" d="M559.48,-181.7C480.47,-170.98 324.88,-149.82 280.15,-142.94"/>
<polygon fill="midnightblue" stroke="midnightblue" points="280.61,-139.47 270.18,-141.32 279.49,-146.38 280.61,-139.47"/>
</g>
<!-- Node25 -->
<g id="node25" class="node">
<title>Node25</title>
<g id="a_node25"><a xlink:title=" ">
<polygon fill="none" stroke="#bfbfbf" points="288.5,-123.5 288.5,-142.5 335.5,-142.5 335.5,-123.5 288.5,-123.5"/>
<text text-anchor="middle" x="312" y="-130.5" font-family="Helvetica,sans-Serif" font-size="10.00">cmath</text>
</a>
</g>
</g>
<!-- Node11&#45;&gt;Node25 -->
<g id="edge28" class="edge">
<title>Node11&#45;&gt;Node25</title>
<path fill="none" stroke="midnightblue" d="M559.33,-181.48C508.87,-174.1 425.89,-161.01 345.93,-143.26"/>
<polygon fill="midnightblue" stroke="midnightblue" points="346.22,-139.74 335.7,-140.96 344.68,-146.57 346.22,-139.74"/>
</g>
<!-- Node26 -->
<g id="node26" class="node">
<title>Node26</title>
<g id="a_node26"><a xlink:title=" ">
<polygon fill="none" stroke="#bfbfbf" points="353.5,-123.5 353.5,-142.5 418.5,-142.5 418.5,-123.5 353.5,-123.5"/>
<text text-anchor="middle" x="386" y="-130.5" font-family="Helvetica,sans-Serif" font-size="10.00">functional</text>
</a>
</g>
</g>
<!-- Node11&#45;&gt;Node26 -->
<g id="edge30" class="edge">
<title>Node11&#45;&gt;Node26</title>
<path fill="none" stroke="midnightblue" d="M571.14,-179.44C532.41,-169.94 469.88,-154.59 428.36,-144.4"/>
<polygon fill="midnightblue" stroke="midnightblue" points="429.09,-140.97 418.54,-141.99 427.42,-147.77 429.09,-140.97"/>
</g>
<!-- Node27 -->
<g id="node27" class="node">
<title>Node27</title>
<g id="a_node27"><a xlink:title=" ">
<polygon fill="none" stroke="#bfbfbf" points="436.5,-123.5 436.5,-142.5 519.5,-142.5 519.5,-123.5 436.5,-123.5"/>
<text text-anchor="middle" x="478" y="-130.5" font-family="Helvetica,sans-Serif" font-size="10.00">initializer_list</text>
</a>
</g>
</g>
<!-- Node11&#45;&gt;Node27 -->
<g id="edge31" class="edge">
<title>Node11&#45;&gt;Node27</title>
<path fill="none" stroke="midnightblue" d="M585.72,-179.44C564.65,-170.56 531.48,-156.56 507.51,-146.45"/>
<polygon fill="midnightblue" stroke="midnightblue" points="508.76,-143.18 498.19,-142.52 506.04,-149.63 508.76,-143.18"/>
</g>
<!-- Node28 -->
<g id="node28" class="node">
<title>Node28</title>
<g id="a_node28"><a xlink:title=" ">
<polygon fill="none" stroke="#bfbfbf" points="538,-123.5 538,-142.5 594,-142.5 594,-123.5 538,-123.5"/>
<text text-anchor="middle" x="566" y="-130.5" font-family="Helvetica,sans-Serif" font-size="10.00">numeric</text>
</a>
</g>
</g>
<!-- Node11&#45;&gt;Node28 -->
<g id="edge33" class="edge">
<title>Node11&#45;&gt;Node28</title>
<path fill="none" stroke="midnightblue" d="M599.39,-179.08C593.74,-171.46 585.46,-160.26 578.55,-150.94"/>
<polygon fill="midnightblue" stroke="midnightblue" points="581.25,-148.7 572.48,-142.75 575.62,-152.87 581.25,-148.7"/>
</g>
<!-- Node29 -->
<g id="node29" class="node">
<title>Node29</title>
<g id="a_node29"><a xlink:title=" ">
<polygon fill="none" stroke="#bfbfbf" points="612.5,-123.5 612.5,-142.5 681.5,-142.5 681.5,-123.5 612.5,-123.5"/>
<text text-anchor="middle" x="647" y="-130.5" font-family="Helvetica,sans-Serif" font-size="10.00">type_traits</text>
</a>
</g>
</g>
<!-- Node11&#45;&gt;Node29 -->
<g id="edge34" class="edge">
<title>Node11&#45;&gt;Node29</title>
<path fill="none" stroke="midnightblue" d="M612.77,-179.08C618.56,-171.46 627.06,-160.26 634.14,-150.94"/>
<polygon fill="midnightblue" stroke="midnightblue" points="637.1,-152.83 640.36,-142.75 631.52,-148.6 637.1,-152.83"/>
</g>
<!-- Node15 -->
<g id="node15" class="node">
<title>Node15</title>
<g id="a_node15"><a xlink:href="device__qualifier_8hpp.html" target="_top" xlink:title=" ">
<polygon fill="none" stroke="black" points="887,-62 887,-81 1003,-81 1003,-62 887,-62"/>
<text text-anchor="middle" x="945" y="-69" font-family="Helvetica,sans-Serif" font-size="10.00">device_qualifier.hpp</text>
</a>
</g>
</g>
<!-- Node14&#45;&gt;Node15 -->
<g id="edge15" class="edge">
<title>Node14&#45;&gt;Node15</title>
<path fill="none" stroke="midnightblue" d="M1050.38,-123.48C1029.83,-113.53 995.64,-96.99 971.79,-85.46"/>
<polygon fill="midnightblue" stroke="midnightblue" points="973.12,-82.21 962.59,-81.01 970.07,-88.51 973.12,-82.21"/>
</g>
<!-- Node14&#45;&gt;Node16 -->
<g id="edge21" class="edge">
<title>Node14&#45;&gt;Node16</title>
<path fill="none" stroke="midnightblue" d="M1024.89,-124.42C1021.88,-123.93 1018.9,-123.45 1016,-123 957.71,-113.97 791.78,-131.45 753,-87 707.25,-34.56 841.27,-17.95 908.74,-12.98"/>
<polygon fill="midnightblue" stroke="midnightblue" points="909.23,-16.46 918.96,-12.28 908.75,-9.48 909.23,-16.46"/>
</g>
<!-- Node17 -->
<g id="node17" class="node">
<title>Node17</title>
<g id="a_node17"><a xlink:href="get_8hpp.html" target="_top" xlink:title=" ">
<polygon fill="none" stroke="black" points="651.5,-62 651.5,-81 704.5,-81 704.5,-62 651.5,-62"/>
<text text-anchor="middle" x="678" y="-69" font-family="Helvetica,sans-Serif" font-size="10.00">get.hpp</text>
</a>
</g>
</g>
<!-- Node14&#45;&gt;Node17 -->
<g id="edge17" class="edge">
<title>Node14&#45;&gt;Node17</title>
<path fill="none" stroke="midnightblue" d="M1024.9,-124.37C1021.89,-123.89 1018.9,-123.43 1016,-123 884.45,-103.66 848.46,-117.35 719,-87 715.77,-86.24 712.43,-85.32 709.13,-84.3"/>
<polygon fill="midnightblue" stroke="midnightblue" points="710.03,-80.91 699.44,-81.08 707.82,-87.56 710.03,-80.91"/>
</g>
<!-- Node14&#45;&gt;Node18 -->
<g id="edge22" class="edge">
<title>Node14&#45;&gt;Node18</title>
<path fill="none" stroke="midnightblue" d="M1024.91,-124.29C1021.9,-123.83 1018.91,-123.39 1016,-123 933.47,-111.89 708.94,-137.86 643,-87 625.38,-73.41 618.84,-47.58 616.42,-29.84"/>
<polygon fill="midnightblue" stroke="midnightblue" points="619.89,-29.36 615.37,-19.78 612.93,-30.09 619.89,-29.36"/>
</g>
<!-- Node20 -->
<g id="node20" class="node">
<title>Node20</title>
<g id="a_node20"><a xlink:title=" ">
<polygon fill="none" stroke="#bfbfbf" points="761.5,-56.5 761.5,-86.5 868.5,-86.5 868.5,-56.5 761.5,-56.5"/>
<text text-anchor="start" x="769.5" y="-74.5" font-family="Helvetica,sans-Serif" font-size="10.00">boost/serialization</text>
<text text-anchor="middle" x="815" y="-63.5" font-family="Helvetica,sans-Serif" font-size="10.00">/access.hpp</text>
</a>
</g>
</g>
<!-- Node14&#45;&gt;Node20 -->
<g id="edge20" class="edge">
<title>Node14&#45;&gt;Node20</title>
<path fill="none" stroke="midnightblue" d="M1031.75,-123.48C991.87,-114.1 927.01,-98.84 878.62,-87.46"/>
<polygon fill="midnightblue" stroke="midnightblue" points="879.4,-84.05 868.87,-85.17 877.8,-90.86 879.4,-84.05"/>
</g>
<!-- Node14&#45;&gt;Node21 -->
<g id="edge23" class="edge">
<title>Node14&#45;&gt;Node21</title>
<path fill="none" stroke="midnightblue" d="M1024.91,-124.24C1021.9,-123.79 1018.91,-123.37 1016,-123 903.08,-108.61 553.46,-83.24 438.82,-75.09"/>
<polygon fill="midnightblue" stroke="midnightblue" points="439.01,-71.6 428.78,-74.38 438.51,-78.58 439.01,-71.6"/>
</g>
<!-- Node22 -->
<g id="node22" class="node">
<title>Node22</title>
<g id="a_node22"><a xlink:title=" ">
<polygon fill="none" stroke="#bfbfbf" points="1021.5,-62 1021.5,-81 1078.5,-81 1078.5,-62 1021.5,-62"/>
<text text-anchor="middle" x="1050" y="-69" font-family="Helvetica,sans-Serif" font-size="10.00">ostream</text>
</a>
</g>
</g>
<!-- Node14&#45;&gt;Node22 -->
<g id="edge24" class="edge">
<title>Node14&#45;&gt;Node22</title>
<path fill="none" stroke="midnightblue" d="M1065.42,-123.48C1062.85,-114.99 1058.83,-101.7 1055.54,-90.82"/>
<polygon fill="midnightblue" stroke="midnightblue" points="1058.82,-89.57 1052.57,-81.01 1052.12,-91.59 1058.82,-89.57"/>
</g>
<!-- Node23 -->
<g id="node23" class="node">
<title>Node23</title>
<g id="a_node23"><a xlink:title=" ">
<polygon fill="none" stroke="#bfbfbf" points="1096.5,-62 1096.5,-81 1161.5,-81 1161.5,-62 1096.5,-62"/>
<text text-anchor="middle" x="1129" y="-69" font-family="Helvetica,sans-Serif" font-size="10.00">stdexcept</text>
</a>
</g>
</g>
<!-- Node14&#45;&gt;Node23 -->
<g id="edge25" class="edge">
<title>Node14&#45;&gt;Node23</title>
<path fill="none" stroke="midnightblue" d="M1076.74,-123.48C1086.16,-114.28 1101.36,-99.46 1112.95,-88.16"/>
<polygon fill="midnightblue" stroke="midnightblue" points="1115.56,-90.5 1120.28,-81.01 1110.67,-85.49 1115.56,-90.5"/>
</g>
<!-- Node15&#45;&gt;Node16 -->
<g id="edge16" class="edge">
<title>Node15&#45;&gt;Node16</title>
<path fill="none" stroke="midnightblue" d="M945,-61.98C945,-53.58 945,-40.48 945,-29.66"/>
<polygon fill="midnightblue" stroke="midnightblue" points="948.5,-29.51 945,-19.51 941.5,-29.51 948.5,-29.51"/>
</g>
<!-- Node17&#45;&gt;Node18 -->
<g id="edge18" class="edge">
<title>Node17&#45;&gt;Node18</title>
<path fill="none" stroke="midnightblue" d="M668.97,-61.98C659.24,-52.78 643.54,-37.96 631.58,-26.66"/>
<polygon fill="midnightblue" stroke="midnightblue" points="633.68,-23.83 624.01,-19.51 628.88,-28.92 633.68,-23.83"/>
</g>
<!-- Node19 -->
<g id="node19" class="node">
<title>Node19</title>
<g id="a_node19"><a xlink:title=" ">
<polygon fill="none" stroke="#bfbfbf" points="659.5,-0.5 659.5,-19.5 700.5,-19.5 700.5,-0.5 659.5,-0.5"/>
<text text-anchor="middle" x="680" y="-7.5" font-family="Helvetica,sans-Serif" font-size="10.00">tuple</text>
</a>
</g>
</g>
<!-- Node17&#45;&gt;Node19 -->
<g id="edge19" class="edge">
<title>Node17&#45;&gt;Node19</title>
<path fill="none" stroke="midnightblue" d="M678.29,-61.98C678.57,-53.58 679.01,-40.48 679.37,-29.66"/>
<polygon fill="midnightblue" stroke="midnightblue" points="682.88,-29.62 679.71,-19.51 675.88,-29.39 682.88,-29.62"/>
</g>
</g>
</svg>
        <g id="navigator" transform="translate(0 0)" fill="#404254">
                <rect fill="#f2f5e9" fill-opacity="0.5" stroke="#606060" stroke-width=".5" x="0" y="0" width="60" height="60"/>
                <use id="zoomplus" xlink:href="#zoomPlus" x="17" y="9" onmousedown="handleZoom(evt,'in')"/>
                <use id="zoomminus" xlink:href="#zoomMin" x="42" y="9" onmousedown="handleZoom(evt,'out')"/>
                <use id="reset" xlink:href="#resetDef" x="30" y="36" onmousedown="handleReset()"/>
                <g id="arrowUp" xlink:href="#dirArrow" transform="translate(30 24)" onmousedown="handlePan(0,-1)">
                  <use xlink:href="#rim" fill="#404040">
                        <set attributeName="fill" to="#808080" begin="arrowUp.mouseover" end="arrowUp.mouseout"/>
                  </use>
                  <path fill="none" stroke="white" stroke-width="1.5" d="M0,-3.0v7 M-2.5,-0.5L0,-3.0L2.5,-0.5"/>
                </g>
                <g id="arrowRight" xlink:href="#dirArrow" transform="rotate(90) translate(36 -43)" onmousedown="handlePan(1,0)">
                  <use xlink:href="#rim" fill="#404040">
                        <set attributeName="fill" to="#808080" begin="arrowRight.mouseover" end="arrowRight.mouseout"/>
                  </use>
                  <path fill="none" stroke="white" stroke-width="1.5" d="M0,-3.0v7 M-2.5,-0.5L0,-3.0L2.5,-0.5"/>
                </g>
                <g id="arrowDown" xlink:href="#dirArrow" transform="rotate(180) translate(-30 -48)" onmousedown="handlePan(0,1)">
                  <use xlink:href="#rim" fill="#404040">
                        <set attributeName="fill" to="#808080" begin="arrowDown.mouseover" end="arrowDown.mouseout"/>
                  </use>
                  <path fill="none" stroke="white" stroke-width="1.5" d="M0,-3.0v7 M-2.5,-0.5L0,-3.0L2.5,-0.5"/>
                </g>
                <g id="arrowLeft" xlink:href="#dirArrow" transform="rotate(270) translate(-36 17)" onmousedown="handlePan(-1,0)">
                  <use xlink:href="#rim" fill="#404040">
                        <set attributeName="fill" to="#808080" begin="arrowLeft.mouseover" end="arrowLeft.mouseout"/>
                  </use>
                  <path fill="none" stroke="white" stroke-width="1.5" d="M0,-3.0v7 M-2.5,-0.5L0,-3.0L2.5,-0.5"/>
                </g>
        </g>
        <svg viewBox="0 0 15 15" width="100%" height="30px" preserveAspectRatio="xMaxYMin meet">
         <g id="arrow_out" transform="scale(0.3 0.3)">
          <a xlink:href="ScafacosContext_8hpp__incl_org.svg" target="_base">
           <rect id="button" ry="5" rx="5" y="6" x="6" height="38" width="38"
                fill="#f2f5e9" fill-opacity="0.5" stroke="#606060" stroke-width="1.0"/>
           <path id="arrow"
             d="M 11.500037,31.436501 C 11.940474,20.09759 22.043105,11.32322 32.158766,21.979434 L 37.068811,17.246167 C 37.068811,17.246167 37.088388,32 37.088388,32 L 22.160133,31.978069 C 22.160133,31.978069 26.997745,27.140456 26.997745,27.140456 C 18.528582,18.264221 13.291696,25.230495 11.500037,31.436501 z"
             style="fill:#404040;"/>
          </a>
         </g>
        </svg>
</svg>
