<?xml version="1.0" encoding="UTF-8" standalone="no"?>
<!DOCTYPE svg PUBLIC "-//W3C//DTD SVG 1.1//EN"
 "http://www.w3.org/Graphics/SVG/1.1/DTD/svg11.dtd">
<!-- Generated by graphviz version 2.43.0 (0)
 -->
<!-- Title: Ellipsoid.hpp Pages: 1 -->
<!--zoomable 319 -->
<svg id="main" version="1.1" xmlns="http://www.w3.org/2000/svg" xmlns:xlink="http://www.w3.org/1999/xlink" xml:space="preserve" onload="init(evt)">
<style type="text/css"><![CDATA[
.edge:hover path { stroke: red; }
.edge:hover polygon { stroke: red; fill: red; }
]]></style>
<script type="text/javascript"><![CDATA[
var edges = document.getElementsByTagName('g');
if (edges && edges.length) {
  for (var i=0;i<edges.length;i++) {
    if (edges[i].id.substr(0,4)=='edge') {
      edges[i].setAttribute('class','edge');
    }
  }
}
]]></script>
        <defs>
                <circle id="rim" cx="0" cy="0" r="7"/>
                <circle id="rim2" cx="0" cy="0" r="3.5"/>
                <g id="zoomPlus">
                        <use xlink:href="#rim" fill="#404040">
                                <set attributeName="fill" to="#808080" begin="zoomplus.mouseover" end="zoomplus.mouseout"/>
                        </use>
                        <path d="M-4,0h8M0,-4v8" fill="none" stroke="white" stroke-width="1.5" pointer-events="none"/>
                </g>
                <g id="zoomMin">
                        <use xlink:href="#rim" fill="#404040">
                                <set attributeName="fill" to="#808080" begin="zoomminus.mouseover" end="zoomminus.mouseout"/>
                        </use>
                        <path d="M-4,0h8" fill="none" stroke="white" stroke-width="1.5" pointer-events="none"/>
                </g>
                <g id="dirArrow">
                        <path fill="none" stroke="white" stroke-width="1.5" d="M0,-3.0v7 M-2.5,-0.5L0,-3.0L2.5,-0.5"/>
                </g>
               <g id="resetDef">
                       <use xlink:href="#rim2" fill="#404040">
                               <set attributeName="fill" to="#808080" begin="reset.mouseover" end="reset.mouseout"/>
                       </use>
               </g>
        </defs>

<script type="text/javascript">
var viewWidth = 1249;
var viewHeight = 319;
var sectionId = 'dynsection-0';
</script>
<script xlink:href="svgpan.js"/>
<svg id="graph" class="graph">
<g id="viewport">
<title>Ellipsoid.hpp</title>
<!-- Node1 -->
<g id="node1" class="node">
<title>Node1</title>
<g id="a_node1"><a xlink:title=" ">
<polygon fill="#bfbfbf" stroke="black" points="628.24,-291.5 628.24,-310.5 707.24,-310.5 707.24,-291.5 628.24,-291.5"/>
<text text-anchor="middle" x="667.74" y="-298.5" font-family="Helvetica,sans-Serif" font-size="10.00">Ellipsoid.hpp</text>
</a>
</g>
</g>
<!-- Node2 -->
<g id="node2" class="node">
<title>Node2</title>
<g id="a_node2"><a xlink:href="shapes_2include_2shapes_2Shape_8hpp.html" target="_top" xlink:title=" ">
<polygon fill="none" stroke="black" points="633.74,-235.5 633.74,-254.5 701.74,-254.5 701.74,-235.5 633.74,-235.5"/>
<text text-anchor="middle" x="667.74" y="-242.5" font-family="Helvetica,sans-Serif" font-size="10.00">Shape.hpp</text>
</a>
</g>
</g>
<!-- Node1&#45;&gt;Node2 -->
<g id="edge1" class="edge">
<title>Node1&#45;&gt;Node2</title>
<path fill="none" stroke="midnightblue" d="M667.74,-291.08C667.74,-284.01 667.74,-273.86 667.74,-264.99"/>
<polygon fill="midnightblue" stroke="midnightblue" points="671.24,-264.75 667.74,-254.75 664.24,-264.75 671.24,-264.75"/>
</g>
<!-- Node3 -->
<g id="node3" class="node">
<title>Node3</title>
<g id="a_node3"><a xlink:href="Vector_8hpp.html" target="_top" xlink:title=" ">
<polygon fill="none" stroke="black" points="683.24,-179.5 683.24,-198.5 776.24,-198.5 776.24,-179.5 683.24,-179.5"/>
<text text-anchor="middle" x="729.74" y="-186.5" font-family="Helvetica,sans-Serif" font-size="10.00">utils/Vector.hpp</text>
</a>
</g>
</g>
<!-- Node1&#45;&gt;Node3 -->
<g id="edge28" class="edge">
<title>Node1&#45;&gt;Node3</title>
<path fill="none" stroke="midnightblue" d="M678.44,-291.45C688.19,-283.12 702.31,-269.6 710.74,-255 719.1,-240.52 724.03,-222.07 726.77,-208.53"/>
<polygon fill="midnightblue" stroke="midnightblue" points="730.25,-208.97 728.58,-198.51 723.36,-207.73 730.25,-208.97"/>
</g>
<!-- Node6 -->
<g id="node6" class="node">
<title>Node6</title>
<g id="a_node6"><a xlink:href="Array_8hpp.html" target="_top" xlink:title=" ">
<polygon fill="none" stroke="black" points="241.74,-123.5 241.74,-142.5 327.74,-142.5 327.74,-123.5 241.74,-123.5"/>
<text text-anchor="middle" x="284.74" y="-130.5" font-family="Helvetica,sans-Serif" font-size="10.00">utils/Array.hpp</text>
</a>
</g>
</g>
<!-- Node1&#45;&gt;Node6 -->
<g id="edge27" class="edge">
<title>Node1&#45;&gt;Node6</title>
<path fill="none" stroke="midnightblue" d="M647.96,-291.42C584.92,-264.1 388.57,-179 313.93,-146.65"/>
<polygon fill="midnightblue" stroke="midnightblue" points="315.21,-143.39 304.64,-142.62 312.42,-149.81 315.21,-143.39"/>
</g>
<!-- Node2&#45;&gt;Node3 -->
<g id="edge2" class="edge">
<title>Node2&#45;&gt;Node3</title>
<path fill="none" stroke="midnightblue" d="M677.7,-235.32C686.87,-227.34 700.68,-215.31 711.77,-205.65"/>
<polygon fill="midnightblue" stroke="midnightblue" points="714.36,-208.04 719.6,-198.83 709.76,-202.76 714.36,-208.04"/>
</g>
<!-- Node4 -->
<g id="node4" class="node">
<title>Node4</title>
<g id="a_node4"><a xlink:title=" ">
<polygon fill="none" stroke="#bfbfbf" points="1061.74,-123.5 1061.74,-142.5 1211.74,-142.5 1211.74,-123.5 1061.74,-123.5"/>
<text text-anchor="middle" x="1136.74" y="-130.5" font-family="Helvetica,sans-Serif" font-size="10.00">boost/qvm/deduce_vec.hpp</text>
</a>
</g>
</g>
<!-- Node3&#45;&gt;Node4 -->
<g id="edge3" class="edge">
<title>Node3&#45;&gt;Node4</title>
<path fill="none" stroke="midnightblue" d="M776.43,-181.81C846.38,-172.52 979.06,-154.92 1062.43,-143.86"/>
<polygon fill="midnightblue" stroke="midnightblue" points="1063.14,-147.3 1072.6,-142.51 1062.22,-140.36 1063.14,-147.3"/>
</g>
<!-- Node5 -->
<g id="node5" class="node">
<title>Node5</title>
<g id="a_node5"><a xlink:title=" ">
<polygon fill="none" stroke="#bfbfbf" points="345.74,-123.5 345.74,-142.5 485.74,-142.5 485.74,-123.5 345.74,-123.5"/>
<text text-anchor="middle" x="415.74" y="-130.5" font-family="Helvetica,sans-Serif" font-size="10.00">boost/qvm/vec_traits.hpp</text>
</a>
</g>
</g>
<!-- Node3&#45;&gt;Node5 -->
<g id="edge4" class="edge">
<title>Node3&#45;&gt;Node5</title>
<path fill="none" stroke="midnightblue" d="M683.07,-179.97C627.84,-170.48 535.77,-154.64 475.41,-144.26"/>
<polygon fill="midnightblue" stroke="midnightblue" points="475.71,-140.76 465.26,-142.52 474.52,-147.66 475.71,-140.76"/>
</g>
<!-- Node3&#45;&gt;Node6 -->
<g id="edge5" class="edge">
<title>Node3&#45;&gt;Node6</title>
<path fill="none" stroke="midnightblue" d="M683.05,-183.53C611.19,-176.46 468.94,-161.7 338.05,-143.12"/>
<polygon fill="midnightblue" stroke="midnightblue" points="338.24,-139.61 327.84,-141.66 337.25,-146.54 338.24,-139.61"/>
</g>
<!-- Node8 -->
<g id="node8" class="node">
<title>Node8</title>
<g id="a_node8"><a xlink:title=" ">
<polygon fill="none" stroke="#bfbfbf" points="46.74,-0.5 46.74,-19.5 98.74,-19.5 98.74,-0.5 46.74,-0.5"/>
<text text-anchor="middle" x="72.74" y="-7.5" font-family="Helvetica,sans-Serif" font-size="10.00">cassert</text>
</a>
</g>
</g>
<!-- Node3&#45;&gt;Node8 -->
<g id="edge18" class="edge">
<title>Node3&#45;&gt;Node8</title>
<path fill="none" stroke="midnightblue" d="M683.22,-185.19C529.88,-175.44 47.81,-140.7 5.74,-87 -2.75,-76.15 -0.74,-68.16 5.74,-56 13.29,-41.83 27.5,-31.33 40.9,-24.06"/>
<polygon fill="midnightblue" stroke="midnightblue" points="42.58,-27.13 49.95,-19.53 39.44,-20.87 42.58,-27.13"/>
</g>
<!-- Node10 -->
<g id="node10" class="node">
<title>Node10</title>
<g id="a_node10"><a xlink:title=" ">
<polygon fill="none" stroke="#bfbfbf" points="533.24,-0.5 533.24,-19.5 586.24,-19.5 586.24,-0.5 533.24,-0.5"/>
<text text-anchor="middle" x="559.74" y="-7.5" font-family="Helvetica,sans-Serif" font-size="10.00">cstddef</text>
</a>
</g>
</g>
<!-- Node3&#45;&gt;Node10 -->
<g id="edge20" class="edge">
<title>Node3&#45;&gt;Node10</title>
<path fill="none" stroke="midnightblue" d="M776.26,-187.37C895.69,-185.27 1205.98,-176.61 1236.74,-143 1242.74,-136.44 1242.26,-129.97 1236.74,-123 1156.6,-21.66 726.26,-11.64 596.68,-10.95"/>
<polygon fill="midnightblue" stroke="midnightblue" points="596.5,-7.45 586.48,-10.91 596.47,-14.45 596.5,-7.45"/>
</g>
<!-- Node13 -->
<g id="node13" class="node">
<title>Node13</title>
<g id="a_node13"><a xlink:title=" ">
<polygon fill="none" stroke="#bfbfbf" points="891.24,-62 891.24,-81 944.24,-81 944.24,-62 891.24,-62"/>
<text text-anchor="middle" x="917.74" y="-69" font-family="Helvetica,sans-Serif" font-size="10.00">iterator</text>
</a>
</g>
</g>
<!-- Node3&#45;&gt;Node13 -->
<g id="edge23" class="edge">
<title>Node3&#45;&gt;Node13</title>
<path fill="none" stroke="midnightblue" d="M776.49,-187.22C893.38,-184.79 1191.13,-175.45 1220.74,-143 1226.73,-136.43 1226.49,-129.78 1220.74,-123 1186.98,-83.15 1027.51,-74.72 954.45,-72.95"/>
<polygon fill="midnightblue" stroke="midnightblue" points="954.4,-69.45 944.33,-72.74 954.25,-76.45 954.4,-69.45"/>
</g>
<!-- Node16 -->
<g id="node16" class="node">
<title>Node16</title>
<g id="a_node16"><a xlink:title=" ">
<polygon fill="none" stroke="#bfbfbf" points="503.74,-123.5 503.74,-142.5 567.74,-142.5 567.74,-123.5 503.74,-123.5"/>
<text text-anchor="middle" x="535.74" y="-130.5" font-family="Helvetica,sans-Serif" font-size="10.00">algorithm</text>
</a>
</g>
</g>
<!-- Node3&#45;&gt;Node16 -->
<g id="edge17" class="edge">
<title>Node3&#45;&gt;Node16</title>
<path fill="none" stroke="midnightblue" d="M699,-179.44C665.8,-170.2 612.75,-155.44 576.18,-145.26"/>
<polygon fill="midnightblue" stroke="midnightblue" points="576.91,-141.83 566.34,-142.52 575.03,-148.57 576.91,-141.83"/>
</g>
<!-- Node17 -->
<g id="node17" class="node">
<title>Node17</title>
<g id="a_node17"><a xlink:title=" ">
<polygon fill="none" stroke="#bfbfbf" points="586.24,-123.5 586.24,-142.5 633.24,-142.5 633.24,-123.5 586.24,-123.5"/>
<text text-anchor="middle" x="609.74" y="-130.5" font-family="Helvetica,sans-Serif" font-size="10.00">cmath</text>
</a>
</g>
</g>
<!-- Node3&#45;&gt;Node17 -->
<g id="edge19" class="edge">
<title>Node3&#45;&gt;Node17</title>
<path fill="none" stroke="midnightblue" d="M710.73,-179.44C691.15,-170.64 660.43,-156.81 638.01,-146.72"/>
<polygon fill="midnightblue" stroke="midnightblue" points="639.22,-143.43 628.67,-142.52 636.35,-149.81 639.22,-143.43"/>
</g>
<!-- Node18 -->
<g id="node18" class="node">
<title>Node18</title>
<g id="a_node18"><a xlink:title=" ">
<polygon fill="none" stroke="#bfbfbf" points="651.24,-123.5 651.24,-142.5 716.24,-142.5 716.24,-123.5 651.24,-123.5"/>
<text text-anchor="middle" x="683.74" y="-130.5" font-family="Helvetica,sans-Serif" font-size="10.00">functional</text>
</a>
</g>
</g>
<!-- Node3&#45;&gt;Node18 -->
<g id="edge21" class="edge">
<title>Node3&#45;&gt;Node18</title>
<path fill="none" stroke="midnightblue" d="M722.15,-179.08C715.51,-171.3 705.72,-159.8 697.68,-150.37"/>
<polygon fill="midnightblue" stroke="midnightblue" points="700.35,-148.09 691.2,-142.75 695.02,-152.63 700.35,-148.09"/>
</g>
<!-- Node19 -->
<g id="node19" class="node">
<title>Node19</title>
<g id="a_node19"><a xlink:title=" ">
<polygon fill="none" stroke="#bfbfbf" points="734.24,-123.5 734.24,-142.5 817.24,-142.5 817.24,-123.5 734.24,-123.5"/>
<text text-anchor="middle" x="775.74" y="-130.5" font-family="Helvetica,sans-Serif" font-size="10.00">initializer_list</text>
</a>
</g>
</g>
<!-- Node3&#45;&gt;Node19 -->
<g id="edge22" class="edge">
<title>Node3&#45;&gt;Node19</title>
<path fill="none" stroke="midnightblue" d="M737.34,-179.08C743.97,-171.3 753.76,-159.8 761.8,-150.37"/>
<polygon fill="midnightblue" stroke="midnightblue" points="764.47,-152.63 768.29,-142.75 759.14,-148.09 764.47,-152.63"/>
</g>
<!-- Node20 -->
<g id="node20" class="node">
<title>Node20</title>
<g id="a_node20"><a xlink:title=" ">
<polygon fill="none" stroke="#bfbfbf" points="835.74,-123.5 835.74,-142.5 891.74,-142.5 891.74,-123.5 835.74,-123.5"/>
<text text-anchor="middle" x="863.74" y="-130.5" font-family="Helvetica,sans-Serif" font-size="10.00">numeric</text>
</a>
</g>
</g>
<!-- Node3&#45;&gt;Node20 -->
<g id="edge24" class="edge">
<title>Node3&#45;&gt;Node20</title>
<path fill="none" stroke="midnightblue" d="M750.97,-179.44C773.13,-170.52 808.06,-156.44 833.18,-146.32"/>
<polygon fill="midnightblue" stroke="midnightblue" points="834.64,-149.5 842.61,-142.52 832.03,-143.01 834.64,-149.5"/>
</g>
<!-- Node21 -->
<g id="node21" class="node">
<title>Node21</title>
<g id="a_node21"><a xlink:title=" ">
<polygon fill="none" stroke="#bfbfbf" points="910.24,-123.5 910.24,-142.5 979.24,-142.5 979.24,-123.5 910.24,-123.5"/>
<text text-anchor="middle" x="944.74" y="-130.5" font-family="Helvetica,sans-Serif" font-size="10.00">type_traits</text>
</a>
</g>
</g>
<!-- Node3&#45;&gt;Node21 -->
<g id="edge25" class="edge">
<title>Node3&#45;&gt;Node21</title>
<path fill="none" stroke="midnightblue" d="M763.81,-179.44C800.92,-170.12 860.4,-155.18 900.96,-145"/>
<polygon fill="midnightblue" stroke="midnightblue" points="901.99,-148.35 910.83,-142.52 900.28,-141.56 901.99,-148.35"/>
</g>
<!-- Node22 -->
<g id="node22" class="node">
<title>Node22</title>
<g id="a_node22"><a xlink:title=" ">
<polygon fill="none" stroke="#bfbfbf" points="997.24,-123.5 997.24,-142.5 1044.24,-142.5 1044.24,-123.5 997.24,-123.5"/>
<text text-anchor="middle" x="1020.74" y="-130.5" font-family="Helvetica,sans-Serif" font-size="10.00">vector</text>
</a>
</g>
</g>
<!-- Node3&#45;&gt;Node22 -->
<g id="edge26" class="edge">
<title>Node3&#45;&gt;Node22</title>
<path fill="none" stroke="midnightblue" d="M776.34,-181.37C826.28,-173.94 908.03,-160.84 986.94,-143.24"/>
<polygon fill="midnightblue" stroke="midnightblue" points="988.06,-146.57 997.05,-140.96 986.52,-139.75 988.06,-146.57"/>
</g>
<!-- Node7 -->
<g id="node7" class="node">
<title>Node7</title>
<g id="a_node7"><a xlink:href="device__qualifier_8hpp.html" target="_top" xlink:title=" ">
<polygon fill="none" stroke="black" points="14.74,-62 14.74,-81 130.74,-81 130.74,-62 14.74,-62"/>
<text text-anchor="middle" x="72.74" y="-69" font-family="Helvetica,sans-Serif" font-size="10.00">device_qualifier.hpp</text>
</a>
</g>
</g>
<!-- Node6&#45;&gt;Node7 -->
<g id="edge6" class="edge">
<title>Node6&#45;&gt;Node7</title>
<path fill="none" stroke="midnightblue" d="M254.37,-123.48C217.14,-113.03 153.93,-95.29 112.77,-83.73"/>
<polygon fill="midnightblue" stroke="midnightblue" points="113.63,-80.34 103.06,-81.01 111.74,-87.08 113.63,-80.34"/>
</g>
<!-- Node6&#45;&gt;Node8 -->
<g id="edge12" class="edge">
<title>Node6&#45;&gt;Node8</title>
<path fill="none" stroke="midnightblue" d="M285.14,-123.3C285.36,-107.54 283.42,-74.18 264.74,-56 242.87,-34.71 158.31,-21.25 109.01,-15.04"/>
<polygon fill="midnightblue" stroke="midnightblue" points="109.41,-11.56 99.06,-13.82 108.56,-18.51 109.41,-11.56"/>
</g>
<!-- Node9 -->
<g id="node9" class="node">
<title>Node9</title>
<g id="a_node9"><a xlink:href="get_8hpp.html" target="_top" xlink:title=" ">
<polygon fill="none" stroke="black" points="471.24,-62 471.24,-81 524.24,-81 524.24,-62 471.24,-62"/>
<text text-anchor="middle" x="497.74" y="-69" font-family="Helvetica,sans-Serif" font-size="10.00">get.hpp</text>
</a>
</g>
</g>
<!-- Node6&#45;&gt;Node9 -->
<g id="edge8" class="edge">
<title>Node6&#45;&gt;Node9</title>
<path fill="none" stroke="midnightblue" d="M324.54,-123.49C360.71,-115.37 415.33,-102.17 461.74,-87 463.88,-86.3 466.06,-85.54 468.26,-84.74"/>
<polygon fill="midnightblue" stroke="midnightblue" points="469.65,-87.96 477.74,-81.11 467.14,-81.42 469.65,-87.96"/>
</g>
<!-- Node6&#45;&gt;Node10 -->
<g id="edge13" class="edge">
<title>Node6&#45;&gt;Node10</title>
<path fill="none" stroke="midnightblue" d="M327.81,-124.46C398.31,-112.09 530.79,-88.66 532.74,-87 549.55,-72.72 555.89,-47.24 558.29,-29.75"/>
<polygon fill="midnightblue" stroke="midnightblue" points="561.79,-29.92 559.36,-19.61 554.83,-29.19 561.79,-29.92"/>
</g>
<!-- Node12 -->
<g id="node12" class="node">
<title>Node12</title>
<g id="a_node12"><a xlink:title=" ">
<polygon fill="none" stroke="#bfbfbf" points="149.24,-56.5 149.24,-86.5 256.24,-86.5 256.24,-56.5 149.24,-56.5"/>
<text text-anchor="start" x="157.24" y="-74.5" font-family="Helvetica,sans-Serif" font-size="10.00">boost/serialization</text>
<text text-anchor="middle" x="202.74" y="-63.5" font-family="Helvetica,sans-Serif" font-size="10.00">/access.hpp</text>
</a>
</g>
</g>
<!-- Node6&#45;&gt;Node12 -->
<g id="edge11" class="edge">
<title>Node6&#45;&gt;Node12</title>
<path fill="none" stroke="midnightblue" d="M272.99,-123.48C261.89,-115.42 244.81,-103.02 230.27,-92.47"/>
<polygon fill="midnightblue" stroke="midnightblue" points="232.22,-89.56 222.07,-86.52 228.11,-95.23 232.22,-89.56"/>
</g>
<!-- Node6&#45;&gt;Node13 -->
<g id="edge14" class="edge">
<title>Node6&#45;&gt;Node13</title>
<path fill="none" stroke="midnightblue" d="M327.83,-124.25C330.84,-123.8 333.83,-123.38 336.74,-123 541.5,-96.43 788.71,-80.15 880.82,-74.62"/>
<polygon fill="midnightblue" stroke="midnightblue" points="881.24,-78.1 891.02,-74.01 880.83,-71.11 881.24,-78.1"/>
</g>
<!-- Node14 -->
<g id="node14" class="node">
<title>Node14</title>
<g id="a_node14"><a xlink:title=" ">
<polygon fill="none" stroke="#bfbfbf" points="313.24,-62 313.24,-81 370.24,-81 370.24,-62 313.24,-62"/>
<text text-anchor="middle" x="341.74" y="-69" font-family="Helvetica,sans-Serif" font-size="10.00">ostream</text>
</a>
</g>
</g>
<!-- Node6&#45;&gt;Node14 -->
<g id="edge15" class="edge">
<title>Node6&#45;&gt;Node14</title>
<path fill="none" stroke="midnightblue" d="M292.91,-123.48C301.63,-114.37 315.65,-99.74 326.43,-88.48"/>
<polygon fill="midnightblue" stroke="midnightblue" points="329.2,-90.65 333.59,-81.01 324.15,-85.81 329.2,-90.65"/>
</g>
<!-- Node15 -->
<g id="node15" class="node">
<title>Node15</title>
<g id="a_node15"><a xlink:title=" ">
<polygon fill="none" stroke="#bfbfbf" points="388.24,-62 388.24,-81 453.24,-81 453.24,-62 388.24,-62"/>
<text text-anchor="middle" x="420.74" y="-69" font-family="Helvetica,sans-Serif" font-size="10.00">stdexcept</text>
</a>
</g>
</g>
<!-- Node6&#45;&gt;Node15 -->
<g id="edge16" class="edge">
<title>Node6&#45;&gt;Node15</title>
<path fill="none" stroke="midnightblue" d="M304.23,-123.48C327.15,-113.45 365.43,-96.7 391.82,-85.15"/>
<polygon fill="midnightblue" stroke="midnightblue" points="393.53,-88.22 401.29,-81.01 390.73,-81.81 393.53,-88.22"/>
</g>
<!-- Node7&#45;&gt;Node8 -->
<g id="edge7" class="edge">
<title>Node7&#45;&gt;Node8</title>
<path fill="none" stroke="midnightblue" d="M72.74,-61.98C72.74,-53.58 72.74,-40.48 72.74,-29.66"/>
<polygon fill="midnightblue" stroke="midnightblue" points="76.24,-29.51 72.74,-19.51 69.24,-29.51 76.24,-29.51"/>
</g>
<!-- Node9&#45;&gt;Node10 -->
<g id="edge9" class="edge">
<title>Node9&#45;&gt;Node10</title>
<path fill="none" stroke="midnightblue" d="M506.63,-61.98C516.2,-52.78 531.65,-37.96 543.43,-26.66"/>
<polygon fill="midnightblue" stroke="midnightblue" points="546.08,-28.96 550.88,-19.51 541.24,-23.91 546.08,-28.96"/>
</g>
<!-- Node11 -->
<g id="node11" class="node">
<title>Node11</title>
<g id="a_node11"><a xlink:title=" ">
<polygon fill="none" stroke="#bfbfbf" points="474.24,-0.5 474.24,-19.5 515.24,-19.5 515.24,-0.5 474.24,-0.5"/>
<text text-anchor="middle" x="494.74" y="-7.5" font-family="Helvetica,sans-Serif" font-size="10.00">tuple</text>
</a>
</g>
</g>
<!-- Node9&#45;&gt;Node11 -->
<g id="edge10" class="edge">
<title>Node9&#45;&gt;Node11</title>
<path fill="none" stroke="midnightblue" d="M497.31,-61.98C496.89,-53.58 496.23,-40.48 495.68,-29.66"/>
<polygon fill="midnightblue" stroke="midnightblue" points="499.17,-29.32 495.17,-19.51 492.18,-29.67 499.17,-29.32"/>
</g>
</g>
</svg>
        <g id="navigator" transform="translate(0 0)" fill="#404254">
                <rect fill="#f2f5e9" fill-opacity="0.5" stroke="#606060" stroke-width=".5" x="0" y="0" width="60" height="60"/>
                <use id="zoomplus" xlink:href="#zoomPlus" x="17" y="9" onmousedown="handleZoom(evt,'in')"/>
                <use id="zoomminus" xlink:href="#zoomMin" x="42" y="9" onmousedown="handleZoom(evt,'out')"/>
                <use id="reset" xlink:href="#resetDef" x="30" y="36" onmousedown="handleReset()"/>
                <g id="arrowUp" xlink:href="#dirArrow" transform="translate(30 24)" onmousedown="handlePan(0,-1)">
                  <use xlink:href="#rim" fill="#404040">
                        <set attributeName="fill" to="#808080" begin="arrowUp.mouseover" end="arrowUp.mouseout"/>
                  </use>
                  <path fill="none" stroke="white" stroke-width="1.5" d="M0,-3.0v7 M-2.5,-0.5L0,-3.0L2.5,-0.5"/>
                </g>
                <g id="arrowRight" xlink:href="#dirArrow" transform="rotate(90) translate(36 -43)" onmousedown="handlePan(1,0)">
                  <use xlink:href="#rim" fill="#404040">
                        <set attributeName="fill" to="#808080" begin="arrowRight.mouseover" end="arrowRight.mouseout"/>
                  </use>
                  <path fill="none" stroke="white" stroke-width="1.5" d="M0,-3.0v7 M-2.5,-0.5L0,-3.0L2.5,-0.5"/>
                </g>
                <g id="arrowDown" xlink:href="#dirArrow" transform="rotate(180) translate(-30 -48)" onmousedown="handlePan(0,1)">
                  <use xlink:href="#rim" fill="#404040">
                        <set attributeName="fill" to="#808080" begin="arrowDown.mouseover" end="arrowDown.mouseout"/>
                  </use>
                  <path fill="none" stroke="white" stroke-width="1.5" d="M0,-3.0v7 M-2.5,-0.5L0,-3.0L2.5,-0.5"/>
                </g>
                <g id="arrowLeft" xlink:href="#dirArrow" transform="rotate(270) translate(-36 17)" onmousedown="handlePan(-1,0)">
                  <use xlink:href="#rim" fill="#404040">
                        <set attributeName="fill" to="#808080" begin="arrowLeft.mouseover" end="arrowLeft.mouseout"/>
                  </use>
                  <path fill="none" stroke="white" stroke-width="1.5" d="M0,-3.0v7 M-2.5,-0.5L0,-3.0L2.5,-0.5"/>
                </g>
        </g>
        <svg viewBox="0 0 15 15" width="100%" height="30px" preserveAspectRatio="xMaxYMin meet">
         <g id="arrow_out" transform="scale(0.3 0.3)">
          <a xlink:href="shapes_2include_2shapes_2Ellipsoid_8hpp__incl_org.svg" target="_base">
           <rect id="button" ry="5" rx="5" y="6" x="6" height="38" width="38"
                fill="#f2f5e9" fill-opacity="0.5" stroke="#606060" stroke-width="1.0"/>
           <path id="arrow"
             d="M 11.500037,31.436501 C 11.940474,20.09759 22.043105,11.32322 32.158766,21.979434 L 37.068811,17.246167 C 37.068811,17.246167 37.088388,32 37.088388,32 L 22.160133,31.978069 C 22.160133,31.978069 26.997745,27.140456 26.997745,27.140456 C 18.528582,18.264221 13.291696,25.230495 11.500037,31.436501 z"
             style="fill:#404040;"/>
          </a>
         </g>
        </svg>
</svg>
