<?xml version="1.0" encoding="UTF-8" standalone="no"?>
<!DOCTYPE svg PUBLIC "-//W3C//DTD SVG 1.1//EN"
 "http://www.w3.org/Graphics/SVG/1.1/DTD/svg11.dtd">
<!-- Generated by graphviz version 2.43.0 (0)
 -->
<!-- Title: SpheroCylinder.hpp Pages: 1 -->
<svg width="1571pt" height="319pt"
 viewBox="0.00 0.00 1570.50 319.00" xmlns="http://www.w3.org/2000/svg" xmlns:xlink="http://www.w3.org/1999/xlink">
<g id="graph0" class="graph" transform="scale(1 1) rotate(0) translate(4 315)">
<title>SpheroCylinder.hpp</title>
<!-- Node1 -->
<g id="node1" class="node">
<title>Node1</title>
<g id="a_node1"><a xlink:title=" ">
<polygon fill="#bfbfbf" stroke="black" points="998,-291.5 998,-310.5 1110,-310.5 1110,-291.5 998,-291.5"/>
<text text-anchor="middle" x="1054" y="-298.5" font-family="Helvetica,sans-Serif" font-size="10.00">SpheroCylinder.hpp</text>
</a>
</g>
</g>
<!-- Node2 -->
<g id="node2" class="node">
<title>Node2</title>
<g id="a_node2"><a xlink:href="shapes_2include_2shapes_2Shape_8hpp.html" target="_top" xlink:title=" ">
<polygon fill="none" stroke="black" points="1051,-235.5 1051,-254.5 1119,-254.5 1119,-235.5 1051,-235.5"/>
<text text-anchor="middle" x="1085" y="-242.5" font-family="Helvetica,sans-Serif" font-size="10.00">Shape.hpp</text>
</a>
</g>
</g>
<!-- Node1&#45;&gt;Node2 -->
<g id="edge1" class="edge">
<title>Node1&#45;&gt;Node2</title>
<path fill="none" stroke="midnightblue" d="M1059.12,-291.08C1063.41,-283.61 1069.66,-272.72 1074.94,-263.52"/>
<polygon fill="midnightblue" stroke="midnightblue" points="1078.03,-265.17 1079.98,-254.75 1071.96,-261.68 1078.03,-265.17"/>
</g>
<!-- Node3 -->
<g id="node3" class="node">
<title>Node3</title>
<g id="a_node3"><a xlink:href="Vector_8hpp.html" target="_top" xlink:title=" ">
<polygon fill="none" stroke="black" points="1007.5,-179.5 1007.5,-198.5 1100.5,-198.5 1100.5,-179.5 1007.5,-179.5"/>
<text text-anchor="middle" x="1054" y="-186.5" font-family="Helvetica,sans-Serif" font-size="10.00">utils/Vector.hpp</text>
</a>
</g>
</g>
<!-- Node1&#45;&gt;Node3 -->
<g id="edge27" class="edge">
<title>Node1&#45;&gt;Node3</title>
<path fill="none" stroke="midnightblue" d="M1050.91,-291.17C1047.95,-282.2 1043.68,-267.83 1042,-255 1039.93,-239.18 1043.65,-221.36 1047.48,-208.39"/>
<polygon fill="midnightblue" stroke="midnightblue" points="1050.84,-209.38 1050.6,-198.79 1044.18,-207.22 1050.84,-209.38"/>
</g>
<!-- Node2&#45;&gt;Node3 -->
<g id="edge2" class="edge">
<title>Node2&#45;&gt;Node3</title>
<path fill="none" stroke="midnightblue" d="M1079.88,-235.08C1075.59,-227.61 1069.34,-216.72 1064.06,-207.52"/>
<polygon fill="midnightblue" stroke="midnightblue" points="1067.04,-205.68 1059.02,-198.75 1060.97,-209.17 1067.04,-205.68"/>
</g>
<!-- Node4 -->
<g id="node4" class="node">
<title>Node4</title>
<g id="a_node4"><a xlink:title=" ">
<polygon fill="none" stroke="#bfbfbf" points="0,-123.5 0,-142.5 150,-142.5 150,-123.5 0,-123.5"/>
<text text-anchor="middle" x="75" y="-130.5" font-family="Helvetica,sans-Serif" font-size="10.00">boost/qvm/deduce_vec.hpp</text>
</a>
</g>
</g>
<!-- Node3&#45;&gt;Node4 -->
<g id="edge3" class="edge">
<title>Node3&#45;&gt;Node4</title>
<path fill="none" stroke="midnightblue" d="M1007.35,-186.58C875.92,-182.4 491.16,-168.78 160.35,-143.06"/>
<polygon fill="midnightblue" stroke="midnightblue" points="160.33,-139.55 150.09,-142.26 159.78,-146.53 160.33,-139.55"/>
</g>
<!-- Node5 -->
<g id="node5" class="node">
<title>Node5</title>
<g id="a_node5"><a xlink:title=" ">
<polygon fill="none" stroke="#bfbfbf" points="168,-123.5 168,-142.5 308,-142.5 308,-123.5 168,-123.5"/>
<text text-anchor="middle" x="238" y="-130.5" font-family="Helvetica,sans-Serif" font-size="10.00">boost/qvm/vec_traits.hpp</text>
</a>
</g>
</g>
<!-- Node3&#45;&gt;Node5 -->
<g id="edge4" class="edge">
<title>Node3&#45;&gt;Node5</title>
<path fill="none" stroke="midnightblue" d="M1007.27,-185.86C891.21,-180.4 580.5,-164.78 322,-143 320.73,-142.89 319.44,-142.78 318.15,-142.67"/>
<polygon fill="midnightblue" stroke="midnightblue" points="318.38,-139.18 308.1,-141.75 317.74,-146.15 318.38,-139.18"/>
</g>
<!-- Node6 -->
<g id="node6" class="node">
<title>Node6</title>
<g id="a_node6"><a xlink:href="Array_8hpp.html" target="_top" xlink:title=" ">
<polygon fill="none" stroke="black" points="663,-123.5 663,-142.5 749,-142.5 749,-123.5 663,-123.5"/>
<text text-anchor="middle" x="706" y="-130.5" font-family="Helvetica,sans-Serif" font-size="10.00">utils/Array.hpp</text>
</a>
</g>
</g>
<!-- Node3&#45;&gt;Node6 -->
<g id="edge5" class="edge">
<title>Node3&#45;&gt;Node6</title>
<path fill="none" stroke="midnightblue" d="M1007.43,-180.77C942.95,-170.77 826.8,-152.74 759.05,-142.23"/>
<polygon fill="midnightblue" stroke="midnightblue" points="759.44,-138.75 749.02,-140.67 758.36,-145.67 759.44,-138.75"/>
</g>
<!-- Node8 -->
<g id="node8" class="node">
<title>Node8</title>
<g id="a_node8"><a xlink:title=" ">
<polygon fill="none" stroke="#bfbfbf" points="827,-0.5 827,-19.5 879,-19.5 879,-0.5 827,-0.5"/>
<text text-anchor="middle" x="853" y="-7.5" font-family="Helvetica,sans-Serif" font-size="10.00">cassert</text>
</a>
</g>
</g>
<!-- Node3&#45;&gt;Node8 -->
<g id="edge18" class="edge">
<title>Node3&#45;&gt;Node8</title>
<path fill="none" stroke="midnightblue" d="M1043.69,-179.41C1034.32,-171.06 1020.81,-157.52 1013,-143 994.11,-107.87 1018.23,-85.14 991,-56 964.64,-27.8 920.42,-17.23 889.14,-13.3"/>
<polygon fill="midnightblue" stroke="midnightblue" points="889.4,-9.81 879.08,-12.2 888.64,-16.76 889.4,-9.81"/>
</g>
<!-- Node10 -->
<g id="node10" class="node">
<title>Node10</title>
<g id="a_node10"><a xlink:title=" ">
<polygon fill="none" stroke="#bfbfbf" points="342.5,-0.5 342.5,-19.5 395.5,-19.5 395.5,-0.5 342.5,-0.5"/>
<text text-anchor="middle" x="369" y="-7.5" font-family="Helvetica,sans-Serif" font-size="10.00">cstddef</text>
</a>
</g>
</g>
<!-- Node3&#45;&gt;Node10 -->
<g id="edge20" class="edge">
<title>Node3&#45;&gt;Node10</title>
<path fill="none" stroke="midnightblue" d="M1007.17,-188.68C866.58,-189.63 452.84,-183.99 371,-87 357.73,-71.28 359.88,-46.53 363.59,-29.57"/>
<polygon fill="midnightblue" stroke="midnightblue" points="367.02,-30.28 366.11,-19.73 360.24,-28.55 367.02,-30.28"/>
</g>
<!-- Node13 -->
<g id="node13" class="node">
<title>Node13</title>
<g id="a_node13"><a xlink:title=" ">
<polygon fill="none" stroke="#bfbfbf" points="929.5,-62 929.5,-81 982.5,-81 982.5,-62 929.5,-62"/>
<text text-anchor="middle" x="956" y="-69" font-family="Helvetica,sans-Serif" font-size="10.00">iterator</text>
</a>
</g>
</g>
<!-- Node3&#45;&gt;Node13 -->
<g id="edge23" class="edge">
<title>Node3&#45;&gt;Node13</title>
<path fill="none" stroke="midnightblue" d="M1031.68,-179.39C1015.27,-172.01 993.55,-159.89 980,-143 968.01,-128.05 961.85,-106.78 958.8,-91.52"/>
<polygon fill="midnightblue" stroke="midnightblue" points="962.18,-90.48 957.03,-81.22 955.28,-91.67 962.18,-90.48"/>
</g>
<!-- Node16 -->
<g id="node16" class="node">
<title>Node16</title>
<g id="a_node16"><a xlink:title=" ">
<polygon fill="none" stroke="#bfbfbf" points="1022,-123.5 1022,-142.5 1086,-142.5 1086,-123.5 1022,-123.5"/>
<text text-anchor="middle" x="1054" y="-130.5" font-family="Helvetica,sans-Serif" font-size="10.00">algorithm</text>
</a>
</g>
</g>
<!-- Node3&#45;&gt;Node16 -->
<g id="edge17" class="edge">
<title>Node3&#45;&gt;Node16</title>
<path fill="none" stroke="midnightblue" d="M1054,-179.08C1054,-172.01 1054,-161.86 1054,-152.99"/>
<polygon fill="midnightblue" stroke="midnightblue" points="1057.5,-152.75 1054,-142.75 1050.5,-152.75 1057.5,-152.75"/>
</g>
<!-- Node17 -->
<g id="node17" class="node">
<title>Node17</title>
<g id="a_node17"><a xlink:title=" ">
<polygon fill="none" stroke="#bfbfbf" points="1104.5,-123.5 1104.5,-142.5 1151.5,-142.5 1151.5,-123.5 1104.5,-123.5"/>
<text text-anchor="middle" x="1128" y="-130.5" font-family="Helvetica,sans-Serif" font-size="10.00">cmath</text>
</a>
</g>
</g>
<!-- Node3&#45;&gt;Node17 -->
<g id="edge19" class="edge">
<title>Node3&#45;&gt;Node17</title>
<path fill="none" stroke="midnightblue" d="M1065.89,-179.32C1077.15,-171.11 1094.29,-158.6 1107.71,-148.81"/>
<polygon fill="midnightblue" stroke="midnightblue" points="1109.88,-151.56 1115.89,-142.83 1105.75,-145.9 1109.88,-151.56"/>
</g>
<!-- Node18 -->
<g id="node18" class="node">
<title>Node18</title>
<g id="a_node18"><a xlink:title=" ">
<polygon fill="none" stroke="#bfbfbf" points="1169.5,-123.5 1169.5,-142.5 1234.5,-142.5 1234.5,-123.5 1169.5,-123.5"/>
<text text-anchor="middle" x="1202" y="-130.5" font-family="Helvetica,sans-Serif" font-size="10.00">functional</text>
</a>
</g>
</g>
<!-- Node3&#45;&gt;Node18 -->
<g id="edge21" class="edge">
<title>Node3&#45;&gt;Node18</title>
<path fill="none" stroke="midnightblue" d="M1077.45,-179.44C1102.13,-170.44 1141.19,-156.19 1168.98,-146.05"/>
<polygon fill="midnightblue" stroke="midnightblue" points="1170.46,-149.23 1178.66,-142.52 1168.06,-142.66 1170.46,-149.23"/>
</g>
<!-- Node19 -->
<g id="node19" class="node">
<title>Node19</title>
<g id="a_node19"><a xlink:title=" ">
<polygon fill="none" stroke="#bfbfbf" points="1252.5,-123.5 1252.5,-142.5 1335.5,-142.5 1335.5,-123.5 1252.5,-123.5"/>
<text text-anchor="middle" x="1294" y="-130.5" font-family="Helvetica,sans-Serif" font-size="10.00">initializer_list</text>
</a>
</g>
</g>
<!-- Node3&#45;&gt;Node19 -->
<g id="edge22" class="edge">
<title>Node3&#45;&gt;Node19</title>
<path fill="none" stroke="midnightblue" d="M1092.03,-179.44C1133.81,-170.04 1200.98,-154.93 1246.27,-144.74"/>
<polygon fill="midnightblue" stroke="midnightblue" points="1247.16,-148.13 1256.15,-142.52 1245.62,-141.3 1247.16,-148.13"/>
</g>
<!-- Node20 -->
<g id="node20" class="node">
<title>Node20</title>
<g id="a_node20"><a xlink:title=" ">
<polygon fill="none" stroke="#bfbfbf" points="1354,-123.5 1354,-142.5 1410,-142.5 1410,-123.5 1354,-123.5"/>
<text text-anchor="middle" x="1382" y="-130.5" font-family="Helvetica,sans-Serif" font-size="10.00">numeric</text>
</a>
</g>
</g>
<!-- Node3&#45;&gt;Node20 -->
<g id="edge24" class="edge">
<title>Node3&#45;&gt;Node20</title>
<path fill="none" stroke="midnightblue" d="M1100.66,-181.91C1158.12,-174.15 1258.62,-159.71 1344,-143 1344.1,-142.98 1344.2,-142.96 1344.3,-142.94"/>
<polygon fill="midnightblue" stroke="midnightblue" points="1344.77,-146.42 1353.83,-140.93 1343.32,-139.57 1344.77,-146.42"/>
</g>
<!-- Node21 -->
<g id="node21" class="node">
<title>Node21</title>
<g id="a_node21"><a xlink:title=" ">
<polygon fill="none" stroke="#bfbfbf" points="1428.5,-123.5 1428.5,-142.5 1497.5,-142.5 1497.5,-123.5 1428.5,-123.5"/>
<text text-anchor="middle" x="1463" y="-130.5" font-family="Helvetica,sans-Serif" font-size="10.00">type_traits</text>
</a>
</g>
</g>
<!-- Node3&#45;&gt;Node21 -->
<g id="edge25" class="edge">
<title>Node3&#45;&gt;Node21</title>
<path fill="none" stroke="midnightblue" d="M1100.55,-183.45C1168.19,-176.58 1297.78,-162.44 1418.32,-142.99"/>
<polygon fill="midnightblue" stroke="midnightblue" points="1419.15,-146.4 1428.46,-141.33 1418.03,-139.49 1419.15,-146.4"/>
</g>
<!-- Node22 -->
<g id="node22" class="node">
<title>Node22</title>
<g id="a_node22"><a xlink:title=" ">
<polygon fill="none" stroke="#bfbfbf" points="1515.5,-123.5 1515.5,-142.5 1562.5,-142.5 1562.5,-123.5 1515.5,-123.5"/>
<text text-anchor="middle" x="1539" y="-130.5" font-family="Helvetica,sans-Serif" font-size="10.00">vector</text>
</a>
</g>
</g>
<!-- Node3&#45;&gt;Node22 -->
<g id="edge26" class="edge">
<title>Node3&#45;&gt;Node22</title>
<path fill="none" stroke="midnightblue" d="M1100.68,-186.06C1181.48,-182.12 1352.66,-171.19 1505.32,-143.03"/>
<polygon fill="midnightblue" stroke="midnightblue" points="1506.16,-146.43 1515.34,-141.15 1504.87,-139.55 1506.16,-146.43"/>
</g>
<!-- Node7 -->
<g id="node7" class="node">
<title>Node7</title>
<g id="a_node7"><a xlink:href="device__qualifier_8hpp.html" target="_top" xlink:title=" ">
<polygon fill="none" stroke="black" points="795,-62 795,-81 911,-81 911,-62 795,-62"/>
<text text-anchor="middle" x="853" y="-69" font-family="Helvetica,sans-Serif" font-size="10.00">device_qualifier.hpp</text>
</a>
</g>
</g>
<!-- Node6&#45;&gt;Node7 -->
<g id="edge6" class="edge">
<title>Node6&#45;&gt;Node7</title>
<path fill="none" stroke="midnightblue" d="M727.06,-123.48C752.06,-113.36 793.94,-96.4 822.49,-84.85"/>
<polygon fill="midnightblue" stroke="midnightblue" points="824.02,-88.01 831.98,-81.01 821.39,-81.52 824.02,-88.01"/>
</g>
<!-- Node6&#45;&gt;Node8 -->
<g id="edge12" class="edge">
<title>Node6&#45;&gt;Node8</title>
<path fill="none" stroke="midnightblue" d="M714.44,-123.06C728.56,-108.31 758.2,-78.28 786,-56 800.04,-44.75 816.84,-33.47 830.11,-25.01"/>
<polygon fill="midnightblue" stroke="midnightblue" points="832.05,-27.93 838.66,-19.65 828.33,-22 832.05,-27.93"/>
</g>
<!-- Node9 -->
<g id="node9" class="node">
<title>Node9</title>
<g id="a_node9"><a xlink:href="get_8hpp.html" target="_top" xlink:title=" ">
<polygon fill="none" stroke="black" points="402.5,-62 402.5,-81 455.5,-81 455.5,-62 402.5,-62"/>
<text text-anchor="middle" x="429" y="-69" font-family="Helvetica,sans-Serif" font-size="10.00">get.hpp</text>
</a>
</g>
</g>
<!-- Node6&#45;&gt;Node9 -->
<g id="edge8" class="edge">
<title>Node6&#45;&gt;Node9</title>
<path fill="none" stroke="midnightblue" d="M662.96,-126.76C614.07,-120.18 532.22,-107.23 464,-87 461.71,-86.32 459.37,-85.54 457.03,-84.71"/>
<polygon fill="midnightblue" stroke="midnightblue" points="458.22,-81.41 447.63,-81.06 455.69,-87.94 458.22,-81.41"/>
</g>
<!-- Node6&#45;&gt;Node10 -->
<g id="edge13" class="edge">
<title>Node6&#45;&gt;Node10</title>
<path fill="none" stroke="midnightblue" d="M662.84,-131.32C586.72,-129.24 432.86,-120.84 393,-87 376.39,-72.9 371.13,-47.38 369.55,-29.83"/>
<polygon fill="midnightblue" stroke="midnightblue" points="373.03,-29.43 368.95,-19.65 366.04,-29.84 373.03,-29.43"/>
</g>
<!-- Node12 -->
<g id="node12" class="node">
<title>Node12</title>
<g id="a_node12"><a xlink:title=" ">
<polygon fill="none" stroke="#bfbfbf" points="473.5,-56.5 473.5,-86.5 580.5,-86.5 580.5,-56.5 473.5,-56.5"/>
<text text-anchor="start" x="481.5" y="-74.5" font-family="Helvetica,sans-Serif" font-size="10.00">boost/serialization</text>
<text text-anchor="middle" x="527" y="-63.5" font-family="Helvetica,sans-Serif" font-size="10.00">/access.hpp</text>
</a>
</g>
</g>
<!-- Node6&#45;&gt;Node12 -->
<g id="edge11" class="edge">
<title>Node6&#45;&gt;Node12</title>
<path fill="none" stroke="midnightblue" d="M680.35,-123.48C653.96,-114.7 612.1,-100.79 578.78,-89.71"/>
<polygon fill="midnightblue" stroke="midnightblue" points="579.78,-86.36 569.19,-86.52 577.57,-93 579.78,-86.36"/>
</g>
<!-- Node6&#45;&gt;Node13 -->
<g id="edge14" class="edge">
<title>Node6&#45;&gt;Node13</title>
<path fill="none" stroke="midnightblue" d="M749.19,-125.21C792.82,-117.83 861.88,-104.67 920,-87 922.28,-86.31 924.63,-85.53 926.97,-84.7"/>
<polygon fill="midnightblue" stroke="midnightblue" points="928.31,-87.93 936.42,-81.11 925.83,-81.39 928.31,-87.93"/>
</g>
<!-- Node14 -->
<g id="node14" class="node">
<title>Node14</title>
<g id="a_node14"><a xlink:title=" ">
<polygon fill="none" stroke="#bfbfbf" points="598.5,-62 598.5,-81 655.5,-81 655.5,-62 598.5,-62"/>
<text text-anchor="middle" x="627" y="-69" font-family="Helvetica,sans-Serif" font-size="10.00">ostream</text>
</a>
</g>
</g>
<!-- Node6&#45;&gt;Node14 -->
<g id="edge15" class="edge">
<title>Node6&#45;&gt;Node14</title>
<path fill="none" stroke="midnightblue" d="M694.68,-123.48C682.13,-114.02 661.65,-98.6 646.5,-87.19"/>
<polygon fill="midnightblue" stroke="midnightblue" points="648.39,-84.23 638.3,-81.01 644.18,-89.82 648.39,-84.23"/>
</g>
<!-- Node15 -->
<g id="node15" class="node">
<title>Node15</title>
<g id="a_node15"><a xlink:title=" ">
<polygon fill="none" stroke="#bfbfbf" points="673.5,-62 673.5,-81 738.5,-81 738.5,-62 673.5,-62"/>
<text text-anchor="middle" x="706" y="-69" font-family="Helvetica,sans-Serif" font-size="10.00">stdexcept</text>
</a>
</g>
</g>
<!-- Node6&#45;&gt;Node15 -->
<g id="edge16" class="edge">
<title>Node6&#45;&gt;Node15</title>
<path fill="none" stroke="midnightblue" d="M706,-123.48C706,-115.08 706,-101.98 706,-91.16"/>
<polygon fill="midnightblue" stroke="midnightblue" points="709.5,-91.01 706,-81.01 702.5,-91.01 709.5,-91.01"/>
</g>
<!-- Node7&#45;&gt;Node8 -->
<g id="edge7" class="edge">
<title>Node7&#45;&gt;Node8</title>
<path fill="none" stroke="midnightblue" d="M853,-61.98C853,-53.58 853,-40.48 853,-29.66"/>
<polygon fill="midnightblue" stroke="midnightblue" points="856.5,-29.51 853,-19.51 849.5,-29.51 856.5,-29.51"/>
</g>
<!-- Node9&#45;&gt;Node10 -->
<g id="edge9" class="edge">
<title>Node9&#45;&gt;Node10</title>
<path fill="none" stroke="midnightblue" d="M420.4,-61.98C411.14,-52.78 396.18,-37.96 384.79,-26.66"/>
<polygon fill="midnightblue" stroke="midnightblue" points="387.15,-24.07 377.58,-19.51 382.22,-29.04 387.15,-24.07"/>
</g>
<!-- Node11 -->
<g id="node11" class="node">
<title>Node11</title>
<g id="a_node11"><a xlink:title=" ">
<polygon fill="none" stroke="#bfbfbf" points="413.5,-0.5 413.5,-19.5 454.5,-19.5 454.5,-0.5 413.5,-0.5"/>
<text text-anchor="middle" x="434" y="-7.5" font-family="Helvetica,sans-Serif" font-size="10.00">tuple</text>
</a>
</g>
</g>
<!-- Node9&#45;&gt;Node11 -->
<g id="edge10" class="edge">
<title>Node9&#45;&gt;Node11</title>
<path fill="none" stroke="midnightblue" d="M429.72,-61.98C430.42,-53.58 431.52,-40.48 432.43,-29.66"/>
<polygon fill="midnightblue" stroke="midnightblue" points="435.94,-29.77 433.28,-19.51 428.96,-29.18 435.94,-29.77"/>
</g>
</g>
</svg>
