<?xml version="1.0" encoding="UTF-8" standalone="no"?>
<!DOCTYPE svg PUBLIC "-//W3C//DTD SVG 1.1//EN"
 "http://www.w3.org/Graphics/SVG/1.1/DTD/svg11.dtd">
<!-- Generated by graphviz version 2.43.0 (0)
 -->
<!-- Title: HollowConicalFrustum.hpp Pages: 1 -->
<svg width="1357pt" height="408pt"
 viewBox="0.00 0.00 1356.88 408.00" xmlns="http://www.w3.org/2000/svg" xmlns:xlink="http://www.w3.org/1999/xlink">
<g id="graph0" class="graph" transform="scale(1 1) rotate(0) translate(4 404)">
<title>HollowConicalFrustum.hpp</title>
<!-- Node1 -->
<g id="node1" class="node">
<title>Node1</title>
<g id="a_node1"><a xlink:title=" ">
<polygon fill="#bfbfbf" stroke="black" points="949.88,-380.5 949.88,-399.5 1096.88,-399.5 1096.88,-380.5 949.88,-380.5"/>
<text text-anchor="middle" x="1023.38" y="-387.5" font-family="Helvetica,sans-Serif" font-size="10.00">HollowConicalFrustum.hpp</text>
</a>
</g>
</g>
<!-- Node2 -->
<g id="node2" class="node">
<title>Node2</title>
<g id="a_node2"><a xlink:href="shapes_2include_2shapes_2Shape_8hpp.html" target="_top" xlink:title=" ">
<polygon fill="none" stroke="black" points="759.38,-252 759.38,-271 827.38,-271 827.38,-252 759.38,-252"/>
<text text-anchor="middle" x="793.38" y="-259" font-family="Helvetica,sans-Serif" font-size="10.00">Shape.hpp</text>
</a>
</g>
</g>
<!-- Node1&#45;&gt;Node2 -->
<g id="edge1" class="edge">
<title>Node1&#45;&gt;Node2</title>
<path fill="none" stroke="midnightblue" d="M963.36,-380.48C932.05,-374.02 894.18,-362.89 864.38,-344 838.19,-327.4 816.24,-298.29 803.96,-279.72"/>
<polygon fill="midnightblue" stroke="midnightblue" points="806.78,-277.64 798.44,-271.1 800.88,-281.41 806.78,-277.64"/>
</g>
<!-- Node3 -->
<g id="node3" class="node">
<title>Node3</title>
<g id="a_node3"><a xlink:href="Vector_8hpp.html" target="_top" xlink:title=" ">
<polygon fill="none" stroke="black" points="697.88,-190.5 697.88,-209.5 790.88,-209.5 790.88,-190.5 697.88,-190.5"/>
<text text-anchor="middle" x="744.38" y="-197.5" font-family="Helvetica,sans-Serif" font-size="10.00">utils/Vector.hpp</text>
</a>
</g>
</g>
<!-- Node1&#45;&gt;Node3 -->
<g id="edge39" class="edge">
<title>Node1&#45;&gt;Node3</title>
<path fill="none" stroke="midnightblue" d="M949.69,-380.8C911.63,-374.45 865.34,-363.32 827.38,-344 786.95,-323.42 770.79,-317.51 750.38,-277 741.37,-259.12 740.91,-235.83 742.05,-219.77"/>
<polygon fill="midnightblue" stroke="midnightblue" points="745.56,-219.83 743.05,-209.53 738.59,-219.14 745.56,-219.83"/>
</g>
<!-- Node23 -->
<g id="node23" class="node">
<title>Node23</title>
<g id="a_node23"><a xlink:href="cylindrical__transformation__parameters_8hpp.html" target="_top" xlink:title=" ">
<polygon fill="none" stroke="black" points="873.88,-313.5 873.88,-343.5 1050.88,-343.5 1050.88,-313.5 873.88,-313.5"/>
<text text-anchor="start" x="881.88" y="-331.5" font-family="Helvetica,sans-Serif" font-size="10.00">utils/math/cylindrical</text>
<text text-anchor="middle" x="962.38" y="-320.5" font-family="Helvetica,sans-Serif" font-size="10.00">_transformation_parameters.hpp</text>
</a>
</g>
</g>
<!-- Node1&#45;&gt;Node23 -->
<g id="edge27" class="edge">
<title>Node1&#45;&gt;Node23</title>
<path fill="none" stroke="midnightblue" d="M1014.64,-380.48C1006.69,-372.72 994.61,-360.94 984.08,-350.66"/>
<polygon fill="midnightblue" stroke="midnightblue" points="986.36,-348 976.75,-343.52 981.47,-353.01 986.36,-348"/>
</g>
<!-- Node29 -->
<g id="node29" class="node">
<title>Node29</title>
<g id="a_node29"><a xlink:title=" ">
<polygon fill="none" stroke="#bfbfbf" points="1068.38,-319 1068.38,-338 1100.38,-338 1100.38,-319 1068.38,-319"/>
<text text-anchor="middle" x="1084.38" y="-326" font-family="Helvetica,sans-Serif" font-size="10.00">list</text>
</a>
</g>
</g>
<!-- Node1&#45;&gt;Node29 -->
<g id="edge40" class="edge">
<title>Node1&#45;&gt;Node29</title>
<path fill="none" stroke="midnightblue" d="M1032.12,-380.48C1041.54,-371.28 1056.74,-356.46 1068.33,-345.16"/>
<polygon fill="midnightblue" stroke="midnightblue" points="1070.94,-347.5 1075.65,-338.01 1066.05,-342.49 1070.94,-347.5"/>
</g>
<!-- Node30 -->
<g id="node30" class="node">
<title>Node30</title>
<g id="a_node30"><a xlink:title=" ">
<polygon fill="none" stroke="#bfbfbf" points="1118.38,-319 1118.38,-338 1176.38,-338 1176.38,-319 1118.38,-319"/>
<text text-anchor="middle" x="1147.38" y="-326" font-family="Helvetica,sans-Serif" font-size="10.00">memory</text>
</a>
</g>
</g>
<!-- Node1&#45;&gt;Node30 -->
<g id="edge41" class="edge">
<title>Node1&#45;&gt;Node30</title>
<path fill="none" stroke="midnightblue" d="M1041.14,-380.48C1061.86,-370.53 1096.33,-353.99 1120.37,-342.46"/>
<polygon fill="midnightblue" stroke="midnightblue" points="1122.14,-345.49 1129.65,-338.01 1119.12,-339.18 1122.14,-345.49"/>
</g>
<!-- Node31 -->
<g id="node31" class="node">
<title>Node31</title>
<g id="a_node31"><a xlink:title=" ">
<polygon fill="none" stroke="#bfbfbf" points="1194.88,-319 1194.88,-338 1239.88,-338 1239.88,-319 1194.88,-319"/>
<text text-anchor="middle" x="1217.38" y="-326" font-family="Helvetica,sans-Serif" font-size="10.00">utility</text>
</a>
</g>
</g>
<!-- Node1&#45;&gt;Node31 -->
<g id="edge42" class="edge">
<title>Node1&#45;&gt;Node31</title>
<path fill="none" stroke="midnightblue" d="M1060.24,-380.49C1093.41,-372.42 1143.26,-359.29 1185.38,-344 1186.99,-343.41 1188.64,-342.78 1190.3,-342.12"/>
<polygon fill="midnightblue" stroke="midnightblue" points="1191.82,-345.27 1199.64,-338.12 1189.07,-338.84 1191.82,-345.27"/>
</g>
<!-- Node2&#45;&gt;Node3 -->
<g id="edge2" class="edge">
<title>Node2&#45;&gt;Node3</title>
<path fill="none" stroke="midnightblue" d="M786.36,-251.98C778.94,-242.96 767.05,-228.52 757.81,-217.31"/>
<polygon fill="midnightblue" stroke="midnightblue" points="760.44,-215 751.39,-209.51 755.04,-219.45 760.44,-215"/>
</g>
<!-- Node4 -->
<g id="node4" class="node">
<title>Node4</title>
<g id="a_node4"><a xlink:title=" ">
<polygon fill="none" stroke="#bfbfbf" points="17.38,-129 17.38,-148 167.38,-148 167.38,-129 17.38,-129"/>
<text text-anchor="middle" x="92.38" y="-136" font-family="Helvetica,sans-Serif" font-size="10.00">boost/qvm/deduce_vec.hpp</text>
</a>
</g>
</g>
<!-- Node3&#45;&gt;Node4 -->
<g id="edge3" class="edge">
<title>Node3&#45;&gt;Node4</title>
<path fill="none" stroke="midnightblue" d="M697.85,-196.76C600.68,-191.78 369.24,-178.23 176.38,-154 166.9,-152.81 156.85,-151.3 147.14,-149.7"/>
<polygon fill="midnightblue" stroke="midnightblue" points="147.61,-146.23 137.17,-148.02 146.44,-153.13 147.61,-146.23"/>
</g>
<!-- Node5 -->
<g id="node5" class="node">
<title>Node5</title>
<g id="a_node5"><a xlink:title=" ">
<polygon fill="none" stroke="#bfbfbf" points="185.38,-129 185.38,-148 325.38,-148 325.38,-129 185.38,-129"/>
<text text-anchor="middle" x="255.38" y="-136" font-family="Helvetica,sans-Serif" font-size="10.00">boost/qvm/vec_traits.hpp</text>
</a>
</g>
</g>
<!-- Node3&#45;&gt;Node5 -->
<g id="edge4" class="edge">
<title>Node3&#45;&gt;Node5</title>
<path fill="none" stroke="midnightblue" d="M697.8,-194.75C622.35,-187.65 468.79,-172.34 339.38,-154 330.54,-152.75 321.21,-151.28 312.1,-149.77"/>
<polygon fill="midnightblue" stroke="midnightblue" points="312.4,-146.27 301.95,-148.05 311.23,-153.17 312.4,-146.27"/>
</g>
<!-- Node6 -->
<g id="node6" class="node">
<title>Node6</title>
<g id="a_node6"><a xlink:href="Array_8hpp.html" target="_top" xlink:title=" ">
<polygon fill="none" stroke="black" points="875.38,-129 875.38,-148 961.38,-148 961.38,-129 875.38,-129"/>
<text text-anchor="middle" x="918.38" y="-136" font-family="Helvetica,sans-Serif" font-size="10.00">utils/Array.hpp</text>
</a>
</g>
</g>
<!-- Node3&#45;&gt;Node6 -->
<g id="edge5" class="edge">
<title>Node3&#45;&gt;Node6</title>
<path fill="none" stroke="midnightblue" d="M769.31,-190.48C799.41,-180.18 850.21,-162.81 884.02,-151.25"/>
<polygon fill="midnightblue" stroke="midnightblue" points="885.17,-154.56 893.49,-148.01 882.9,-147.93 885.17,-154.56"/>
</g>
<!-- Node8 -->
<g id="node8" class="node">
<title>Node8</title>
<g id="a_node8"><a xlink:title=" ">
<polygon fill="none" stroke="#bfbfbf" points="1001.38,-0.5 1001.38,-19.5 1053.38,-19.5 1053.38,-0.5 1001.38,-0.5"/>
<text text-anchor="middle" x="1027.38" y="-7.5" font-family="Helvetica,sans-Serif" font-size="10.00">cassert</text>
</a>
</g>
</g>
<!-- Node3&#45;&gt;Node8 -->
<g id="edge18" class="edge">
<title>Node3&#45;&gt;Node8</title>
<path fill="none" stroke="midnightblue" d="M791.09,-196.34C854.21,-191.79 962.09,-180.32 990.38,-154 1025.34,-121.48 1029.02,-60.61 1028.42,-29.84"/>
<polygon fill="midnightblue" stroke="midnightblue" points="1031.91,-29.5 1028.04,-19.64 1024.92,-29.76 1031.91,-29.5"/>
</g>
<!-- Node10 -->
<g id="node10" class="node">
<title>Node10</title>
<g id="a_node10"><a xlink:title=" ">
<polygon fill="none" stroke="#bfbfbf" points="548.88,-0.5 548.88,-19.5 601.88,-19.5 601.88,-0.5 548.88,-0.5"/>
<text text-anchor="middle" x="575.38" y="-7.5" font-family="Helvetica,sans-Serif" font-size="10.00">cstddef</text>
</a>
</g>
</g>
<!-- Node3&#45;&gt;Node10 -->
<g id="edge20" class="edge">
<title>Node3&#45;&gt;Node10</title>
<path fill="none" stroke="midnightblue" d="M697.6,-196.75C602.46,-191.7 393.63,-177.98 372.38,-154 316.12,-90.53 466.24,-40.15 538.74,-20.24"/>
<polygon fill="midnightblue" stroke="midnightblue" points="539.68,-23.61 548.43,-17.63 537.86,-16.85 539.68,-23.61"/>
</g>
<!-- Node13 -->
<g id="node13" class="node">
<title>Node13</title>
<g id="a_node13"><a xlink:title=" ">
<polygon fill="none" stroke="#bfbfbf" points="945.88,-62 945.88,-81 998.88,-81 998.88,-62 945.88,-62"/>
<text text-anchor="middle" x="972.38" y="-69" font-family="Helvetica,sans-Serif" font-size="10.00">iterator</text>
</a>
</g>
</g>
<!-- Node3&#45;&gt;Node13 -->
<g id="edge23" class="edge">
<title>Node3&#45;&gt;Node13</title>
<path fill="none" stroke="midnightblue" d="M790.92,-196.4C850.23,-192.01 947.81,-180.83 970.38,-154 984.93,-136.7 982.1,-109.25 977.92,-91.06"/>
<polygon fill="midnightblue" stroke="midnightblue" points="981.28,-90.11 975.35,-81.34 974.52,-91.9 981.28,-90.11"/>
</g>
<!-- Node16 -->
<g id="node16" class="node">
<title>Node16</title>
<g id="a_node16"><a xlink:title=" ">
<polygon fill="none" stroke="#bfbfbf" points="381.38,-129 381.38,-148 445.38,-148 445.38,-129 381.38,-129"/>
<text text-anchor="middle" x="413.38" y="-136" font-family="Helvetica,sans-Serif" font-size="10.00">algorithm</text>
</a>
</g>
</g>
<!-- Node3&#45;&gt;Node16 -->
<g id="edge17" class="edge">
<title>Node3&#45;&gt;Node16</title>
<path fill="none" stroke="midnightblue" d="M697.64,-194.45C639.87,-188.22 538.86,-175.3 454.38,-154 451.33,-153.23 448.19,-152.33 445.06,-151.36"/>
<polygon fill="midnightblue" stroke="midnightblue" points="445.87,-147.94 435.28,-148.09 443.65,-154.58 445.87,-147.94"/>
</g>
<!-- Node17 -->
<g id="node17" class="node">
<title>Node17</title>
<g id="a_node17"><a xlink:title=" ">
<polygon fill="none" stroke="#bfbfbf" points="1271.88,-129 1271.88,-148 1318.88,-148 1318.88,-129 1271.88,-129"/>
<text text-anchor="middle" x="1295.38" y="-136" font-family="Helvetica,sans-Serif" font-size="10.00">cmath</text>
</a>
</g>
</g>
<!-- Node3&#45;&gt;Node17 -->
<g id="edge19" class="edge">
<title>Node3&#45;&gt;Node17</title>
<path fill="none" stroke="midnightblue" d="M790.92,-196.31C876.88,-190.98 1066.25,-177.49 1224.38,-154 1236.7,-152.17 1250.11,-149.59 1261.92,-147.11"/>
<polygon fill="midnightblue" stroke="midnightblue" points="1262.79,-150.5 1271.82,-144.98 1261.31,-143.66 1262.79,-150.5"/>
</g>
<!-- Node18 -->
<g id="node18" class="node">
<title>Node18</title>
<g id="a_node18"><a xlink:title=" ">
<polygon fill="none" stroke="#bfbfbf" points="463.88,-129 463.88,-148 528.88,-148 528.88,-129 463.88,-129"/>
<text text-anchor="middle" x="496.38" y="-136" font-family="Helvetica,sans-Serif" font-size="10.00">functional</text>
</a>
</g>
</g>
<!-- Node3&#45;&gt;Node18 -->
<g id="edge21" class="edge">
<title>Node3&#45;&gt;Node18</title>
<path fill="none" stroke="midnightblue" d="M697.51,-190.56C655.28,-182.54 591.68,-169.44 537.38,-154 534.59,-153.21 531.71,-152.32 528.83,-151.4"/>
<polygon fill="midnightblue" stroke="midnightblue" points="529.79,-148.03 519.2,-148.14 527.55,-154.66 529.79,-148.03"/>
</g>
<!-- Node19 -->
<g id="node19" class="node">
<title>Node19</title>
<g id="a_node19"><a xlink:title=" ">
<polygon fill="none" stroke="#bfbfbf" points="546.88,-129 546.88,-148 629.88,-148 629.88,-129 546.88,-129"/>
<text text-anchor="middle" x="588.38" y="-136" font-family="Helvetica,sans-Serif" font-size="10.00">initializer_list</text>
</a>
</g>
</g>
<!-- Node3&#45;&gt;Node19 -->
<g id="edge22" class="edge">
<title>Node3&#45;&gt;Node19</title>
<path fill="none" stroke="midnightblue" d="M722.03,-190.48C695.38,-180.31 650.66,-163.26 620.36,-151.7"/>
<polygon fill="midnightblue" stroke="midnightblue" points="621.28,-148.3 610.69,-148.01 618.78,-154.84 621.28,-148.3"/>
</g>
<!-- Node20 -->
<g id="node20" class="node">
<title>Node20</title>
<g id="a_node20"><a xlink:title=" ">
<polygon fill="none" stroke="#bfbfbf" points="648.38,-129 648.38,-148 704.38,-148 704.38,-129 648.38,-129"/>
<text text-anchor="middle" x="676.38" y="-136" font-family="Helvetica,sans-Serif" font-size="10.00">numeric</text>
</a>
</g>
</g>
<!-- Node3&#45;&gt;Node20 -->
<g id="edge24" class="edge">
<title>Node3&#45;&gt;Node20</title>
<path fill="none" stroke="midnightblue" d="M734.64,-190.48C724.03,-181.2 706.86,-166.17 693.9,-154.83"/>
<polygon fill="midnightblue" stroke="midnightblue" points="695.93,-151.96 686.1,-148.01 691.32,-157.23 695.93,-151.96"/>
</g>
<!-- Node21 -->
<g id="node21" class="node">
<title>Node21</title>
<g id="a_node21"><a xlink:title=" ">
<polygon fill="none" stroke="#bfbfbf" points="722.88,-129 722.88,-148 791.88,-148 791.88,-129 722.88,-129"/>
<text text-anchor="middle" x="757.38" y="-136" font-family="Helvetica,sans-Serif" font-size="10.00">type_traits</text>
</a>
</g>
</g>
<!-- Node3&#45;&gt;Node21 -->
<g id="edge25" class="edge">
<title>Node3&#45;&gt;Node21</title>
<path fill="none" stroke="midnightblue" d="M746.24,-190.48C748.09,-181.99 751,-168.7 753.38,-157.82"/>
<polygon fill="midnightblue" stroke="midnightblue" points="756.8,-158.53 755.52,-148.01 749.97,-157.03 756.8,-158.53"/>
</g>
<!-- Node22 -->
<g id="node22" class="node">
<title>Node22</title>
<g id="a_node22"><a xlink:title=" ">
<polygon fill="none" stroke="#bfbfbf" points="809.88,-129 809.88,-148 856.88,-148 856.88,-129 809.88,-129"/>
<text text-anchor="middle" x="833.38" y="-136" font-family="Helvetica,sans-Serif" font-size="10.00">vector</text>
</a>
</g>
</g>
<!-- Node3&#45;&gt;Node22 -->
<g id="edge26" class="edge">
<title>Node3&#45;&gt;Node22</title>
<path fill="none" stroke="midnightblue" d="M757.13,-190.48C771.41,-180.93 794.78,-165.31 811.89,-153.87"/>
<polygon fill="midnightblue" stroke="midnightblue" points="814.28,-156.48 820.65,-148.01 810.39,-150.66 814.28,-156.48"/>
</g>
<!-- Node7 -->
<g id="node7" class="node">
<title>Node7</title>
<g id="a_node7"><a xlink:href="device__qualifier_8hpp.html" target="_top" xlink:title=" ">
<polygon fill="none" stroke="black" points="1162.38,-62 1162.38,-81 1278.38,-81 1278.38,-62 1162.38,-62"/>
<text text-anchor="middle" x="1220.38" y="-69" font-family="Helvetica,sans-Serif" font-size="10.00">device_qualifier.hpp</text>
</a>
</g>
</g>
<!-- Node6&#45;&gt;Node7 -->
<g id="edge6" class="edge">
<title>Node6&#45;&gt;Node7</title>
<path fill="none" stroke="midnightblue" d="M958.17,-128.94C1012.83,-117.17 1111.11,-96.02 1170.58,-83.22"/>
<polygon fill="midnightblue" stroke="midnightblue" points="1171.46,-86.61 1180.5,-81.08 1169.99,-79.77 1171.46,-86.61"/>
</g>
<!-- Node6&#45;&gt;Node8 -->
<g id="edge12" class="edge">
<title>Node6&#45;&gt;Node8</title>
<path fill="none" stroke="midnightblue" d="M917.97,-128.87C917.68,-112.79 919.22,-77.9 936.38,-56 950.08,-38.51 972.34,-27.34 991.42,-20.5"/>
<polygon fill="midnightblue" stroke="midnightblue" points="992.65,-23.78 1001.04,-17.31 990.45,-17.13 992.65,-23.78"/>
</g>
<!-- Node9 -->
<g id="node9" class="node">
<title>Node9</title>
<g id="a_node9"><a xlink:href="get_8hpp.html" target="_top" xlink:title=" ">
<polygon fill="none" stroke="black" points="835.88,-62 835.88,-81 888.88,-81 888.88,-62 835.88,-62"/>
<text text-anchor="middle" x="862.38" y="-69" font-family="Helvetica,sans-Serif" font-size="10.00">get.hpp</text>
</a>
</g>
</g>
<!-- Node6&#45;&gt;Node9 -->
<g id="edge8" class="edge">
<title>Node6&#45;&gt;Node9</title>
<path fill="none" stroke="midnightblue" d="M910.83,-128.73C902.09,-118.6 887.53,-101.69 876.64,-89.06"/>
<polygon fill="midnightblue" stroke="midnightblue" points="878.99,-86.42 869.81,-81.13 873.69,-90.99 878.99,-86.42"/>
</g>
<!-- Node6&#45;&gt;Node10 -->
<g id="edge13" class="edge">
<title>Node6&#45;&gt;Node10</title>
<path fill="none" stroke="midnightblue" d="M900.57,-128.86C881.64,-119.42 851.11,-103.44 826.38,-87 807.94,-74.74 807.41,-65.44 787.38,-56 729.84,-28.88 655.84,-17.96 612.21,-13.66"/>
<polygon fill="midnightblue" stroke="midnightblue" points="612.35,-10.16 602.07,-12.73 611.71,-17.13 612.35,-10.16"/>
</g>
<!-- Node12 -->
<g id="node12" class="node">
<title>Node12</title>
<g id="a_node12"><a xlink:title=" ">
<polygon fill="none" stroke="#bfbfbf" points="596.88,-56.5 596.88,-86.5 703.88,-86.5 703.88,-56.5 596.88,-56.5"/>
<text text-anchor="start" x="604.88" y="-74.5" font-family="Helvetica,sans-Serif" font-size="10.00">boost/serialization</text>
<text text-anchor="middle" x="650.38" y="-63.5" font-family="Helvetica,sans-Serif" font-size="10.00">/access.hpp</text>
</a>
</g>
</g>
<!-- Node6&#45;&gt;Node12 -->
<g id="edge11" class="edge">
<title>Node6&#45;&gt;Node12</title>
<path fill="none" stroke="midnightblue" d="M887.88,-128.95C880.53,-126.95 872.68,-124.86 865.38,-123 857.89,-121.1 774.51,-101.55 713.83,-87.34"/>
<polygon fill="midnightblue" stroke="midnightblue" points="714.46,-83.9 703.92,-85.03 712.86,-90.71 714.46,-83.9"/>
</g>
<!-- Node6&#45;&gt;Node13 -->
<g id="edge14" class="edge">
<title>Node6&#45;&gt;Node13</title>
<path fill="none" stroke="midnightblue" d="M925.66,-128.73C934.08,-118.6 948.13,-101.69 958.62,-89.06"/>
<polygon fill="midnightblue" stroke="midnightblue" points="961.51,-91.06 965.21,-81.13 956.13,-86.58 961.51,-91.06"/>
</g>
<!-- Node14 -->
<g id="node14" class="node">
<title>Node14</title>
<g id="a_node14"><a xlink:title=" ">
<polygon fill="none" stroke="#bfbfbf" points="721.88,-62 721.88,-81 778.88,-81 778.88,-62 721.88,-62"/>
<text text-anchor="middle" x="750.38" y="-69" font-family="Helvetica,sans-Serif" font-size="10.00">ostream</text>
</a>
</g>
</g>
<!-- Node6&#45;&gt;Node14 -->
<g id="edge15" class="edge">
<title>Node6&#45;&gt;Node14</title>
<path fill="none" stroke="midnightblue" d="M896.07,-128.87C866.87,-117.57 815.5,-97.7 782.22,-84.82"/>
<polygon fill="midnightblue" stroke="midnightblue" points="783.1,-81.41 772.51,-81.06 780.58,-87.94 783.1,-81.41"/>
</g>
<!-- Node15 -->
<g id="node15" class="node">
<title>Node15</title>
<g id="a_node15"><a xlink:title=" ">
<polygon fill="none" stroke="#bfbfbf" points="1055.88,-62 1055.88,-81 1120.88,-81 1120.88,-62 1055.88,-62"/>
<text text-anchor="middle" x="1088.38" y="-69" font-family="Helvetica,sans-Serif" font-size="10.00">stdexcept</text>
</a>
</g>
</g>
<!-- Node6&#45;&gt;Node15 -->
<g id="edge16" class="edge">
<title>Node6&#45;&gt;Node15</title>
<path fill="none" stroke="midnightblue" d="M940.95,-128.87C970.63,-117.52 1022.93,-97.52 1056.6,-84.65"/>
<polygon fill="midnightblue" stroke="midnightblue" points="1057.89,-87.9 1065.98,-81.06 1055.39,-81.37 1057.89,-87.9"/>
</g>
<!-- Node7&#45;&gt;Node8 -->
<g id="edge7" class="edge">
<title>Node7&#45;&gt;Node8</title>
<path fill="none" stroke="midnightblue" d="M1192.73,-61.98C1158.71,-51.49 1100.89,-33.66 1063.42,-22.11"/>
<polygon fill="midnightblue" stroke="midnightblue" points="1064.02,-18.63 1053.43,-19.03 1061.96,-25.32 1064.02,-18.63"/>
</g>
<!-- Node9&#45;&gt;Node10 -->
<g id="edge9" class="edge">
<title>Node9&#45;&gt;Node10</title>
<path fill="none" stroke="midnightblue" d="M840.02,-61.87C834.03,-59.76 827.51,-57.63 821.38,-56 748.09,-36.47 660.28,-22.64 611.89,-15.83"/>
<polygon fill="midnightblue" stroke="midnightblue" points="612.28,-12.35 601.9,-14.44 611.32,-19.28 612.28,-12.35"/>
</g>
<!-- Node11 -->
<g id="node11" class="node">
<title>Node11</title>
<g id="a_node11"><a xlink:title=" ">
<polygon fill="none" stroke="#bfbfbf" points="841.88,-0.5 841.88,-19.5 882.88,-19.5 882.88,-0.5 841.88,-0.5"/>
<text text-anchor="middle" x="862.38" y="-7.5" font-family="Helvetica,sans-Serif" font-size="10.00">tuple</text>
</a>
</g>
</g>
<!-- Node9&#45;&gt;Node11 -->
<g id="edge10" class="edge">
<title>Node9&#45;&gt;Node11</title>
<path fill="none" stroke="midnightblue" d="M862.38,-61.98C862.38,-53.58 862.38,-40.48 862.38,-29.66"/>
<polygon fill="midnightblue" stroke="midnightblue" points="865.88,-29.51 862.38,-19.51 858.88,-29.51 865.88,-29.51"/>
</g>
<!-- Node23&#45;&gt;Node15 -->
<g id="edge28" class="edge">
<title>Node23&#45;&gt;Node15</title>
<path fill="none" stroke="midnightblue" d="M999.61,-313.37C1016.34,-305.19 1034.88,-293.25 1046.38,-277 1067.67,-246.93 1081.63,-135.65 1086.48,-91.11"/>
<polygon fill="midnightblue" stroke="midnightblue" points="1089.97,-91.4 1087.54,-81.09 1083.01,-90.67 1089.97,-91.4"/>
</g>
<!-- Node24 -->
<g id="node24" class="node">
<title>Node24</title>
<g id="a_node24"><a xlink:title=" ">
<polygon fill="none" stroke="#bfbfbf" points="993.38,-252 993.38,-271 1037.38,-271 1037.38,-252 993.38,-252"/>
<text text-anchor="middle" x="1015.38" y="-259" font-family="Helvetica,sans-Serif" font-size="10.00">string</text>
</a>
</g>
</g>
<!-- Node23&#45;&gt;Node24 -->
<g id="edge29" class="edge">
<title>Node23&#45;&gt;Node24</title>
<path fill="none" stroke="midnightblue" d="M973.88,-313.4C982.06,-303.36 993.09,-289.84 1001.72,-279.25"/>
<polygon fill="midnightblue" stroke="midnightblue" points="1004.68,-281.16 1008.29,-271.19 999.26,-276.73 1004.68,-281.16"/>
</g>
<!-- Node25 -->
<g id="node25" class="node">
<title>Node25</title>
<g id="a_node25"><a xlink:href="abs_8hpp.html" target="_top" xlink:title=" ">
<polygon fill="none" stroke="black" points="1241.88,-190.5 1241.88,-209.5 1348.88,-209.5 1348.88,-190.5 1241.88,-190.5"/>
<text text-anchor="middle" x="1295.38" y="-197.5" font-family="Helvetica,sans-Serif" font-size="10.00">utils/math/abs.hpp</text>
</a>
</g>
</g>
<!-- Node23&#45;&gt;Node25 -->
<g id="edge30" class="edge">
<title>Node23&#45;&gt;Node25</title>
<path fill="none" stroke="midnightblue" d="M999.29,-313.48C1064.89,-288.56 1200.75,-236.95 1262.98,-213.31"/>
<polygon fill="midnightblue" stroke="midnightblue" points="1264.55,-216.45 1272.66,-209.63 1262.07,-209.91 1264.55,-216.45"/>
</g>
<!-- Node26 -->
<g id="node26" class="node">
<title>Node26</title>
<g id="a_node26"><a xlink:href="orthonormal__vec_8hpp.html" target="_top" xlink:title=" ">
<polygon fill="none" stroke="black" points="845.88,-246.5 845.88,-276.5 974.88,-276.5 974.88,-246.5 845.88,-246.5"/>
<text text-anchor="start" x="853.88" y="-264.5" font-family="Helvetica,sans-Serif" font-size="10.00">utils/math/orthonormal</text>
<text text-anchor="middle" x="910.38" y="-253.5" font-family="Helvetica,sans-Serif" font-size="10.00">_vec.hpp</text>
</a>
</g>
</g>
<!-- Node23&#45;&gt;Node26 -->
<g id="edge33" class="edge">
<title>Node23&#45;&gt;Node26</title>
<path fill="none" stroke="midnightblue" d="M951.1,-313.4C944.35,-304.96 935.63,-294.07 928,-284.52"/>
<polygon fill="midnightblue" stroke="midnightblue" points="930.62,-282.2 921.64,-276.58 925.15,-286.57 930.62,-282.2"/>
</g>
<!-- Node25&#45;&gt;Node7 -->
<g id="edge31" class="edge">
<title>Node25&#45;&gt;Node7</title>
<path fill="none" stroke="midnightblue" d="M1304.65,-190.12C1318.81,-175.46 1342.74,-145.57 1328.38,-123 1316.15,-103.78 1294.47,-91.75 1273.73,-84.28"/>
<polygon fill="midnightblue" stroke="midnightblue" points="1274.58,-80.88 1263.99,-81.07 1272.39,-87.53 1274.58,-80.88"/>
</g>
<!-- Node25&#45;&gt;Node17 -->
<g id="edge32" class="edge">
<title>Node25&#45;&gt;Node17</title>
<path fill="none" stroke="midnightblue" d="M1295.38,-190.48C1295.38,-182.08 1295.38,-168.98 1295.38,-158.16"/>
<polygon fill="midnightblue" stroke="midnightblue" points="1298.88,-158.01 1295.38,-148.01 1291.88,-158.01 1298.88,-158.01"/>
</g>
<!-- Node26&#45;&gt;Node3 -->
<g id="edge34" class="edge">
<title>Node26&#45;&gt;Node3</title>
<path fill="none" stroke="midnightblue" d="M871.04,-246.4C842.81,-236.28 805.17,-222.79 778.27,-213.15"/>
<polygon fill="midnightblue" stroke="midnightblue" points="779.13,-209.74 768.53,-209.66 776.77,-216.33 779.13,-209.74"/>
</g>
<!-- Node26&#45;&gt;Node10 -->
<g id="edge38" class="edge">
<title>Node26&#45;&gt;Node10</title>
<path fill="none" stroke="midnightblue" d="M845.86,-247.53C842.66,-246.99 839.48,-246.48 836.38,-246 653.38,-217.95 131.85,-291.95 8.38,-154 -65.77,-71.15 402.08,-25.39 538.7,-13.9"/>
<polygon fill="midnightblue" stroke="midnightblue" points="539.02,-17.39 548.69,-13.07 538.44,-10.41 539.02,-17.39"/>
</g>
<!-- Node27 -->
<g id="node27" class="node">
<title>Node27</title>
<g id="a_node27"><a xlink:href="constants_8hpp.html" target="_top" xlink:title=" ">
<polygon fill="none" stroke="black" points="1099.88,-190.5 1099.88,-209.5 1208.88,-209.5 1208.88,-190.5 1099.88,-190.5"/>
<text text-anchor="middle" x="1154.38" y="-197.5" font-family="Helvetica,sans-Serif" font-size="10.00">utils/constants.hpp</text>
</a>
</g>
</g>
<!-- Node26&#45;&gt;Node27 -->
<g id="edge35" class="edge">
<title>Node26&#45;&gt;Node27</title>
<path fill="none" stroke="midnightblue" d="M967.89,-246.47C1011.18,-235.92 1069.67,-221.66 1109.53,-211.94"/>
<polygon fill="midnightblue" stroke="midnightblue" points="1110.61,-215.28 1119.5,-209.51 1108.95,-208.48 1110.61,-215.28"/>
</g>
<!-- Node27&#45;&gt;Node7 -->
<g id="edge36" class="edge">
<title>Node27&#45;&gt;Node7</title>
<path fill="none" stroke="midnightblue" d="M1178.85,-190.44C1194.95,-183.38 1214.76,-171.63 1224.38,-154 1235.01,-134.52 1231.13,-108.36 1226.52,-90.99"/>
<polygon fill="midnightblue" stroke="midnightblue" points="1229.75,-89.58 1223.53,-81 1223.05,-91.59 1229.75,-89.58"/>
</g>
<!-- Node28 -->
<g id="node28" class="node">
<title>Node28</title>
<g id="a_node28"><a xlink:title=" ">
<polygon fill="none" stroke="#bfbfbf" points="1093.38,-123.5 1093.38,-153.5 1215.38,-153.5 1215.38,-123.5 1093.38,-123.5"/>
<text text-anchor="start" x="1101.38" y="-141.5" font-family="Helvetica,sans-Serif" font-size="10.00">boost/math/constants</text>
<text text-anchor="middle" x="1154.38" y="-130.5" font-family="Helvetica,sans-Serif" font-size="10.00">/constants.hpp</text>
</a>
</g>
</g>
<!-- Node27&#45;&gt;Node28 -->
<g id="edge37" class="edge">
<title>Node27&#45;&gt;Node28</title>
<path fill="none" stroke="midnightblue" d="M1154.38,-190.48C1154.38,-183.47 1154.38,-173.19 1154.38,-163.7"/>
<polygon fill="midnightblue" stroke="midnightblue" points="1157.88,-163.52 1154.38,-153.52 1150.88,-163.52 1157.88,-163.52"/>
</g>
</g>
</svg>
