<?xml version="1.0" encoding="UTF-8" standalone="no"?>
<!DOCTYPE svg PUBLIC "-//W3C//DTD SVG 1.1//EN"
 "http://www.w3.org/Graphics/SVG/1.1/DTD/svg11.dtd">
<!-- Generated by graphviz version 2.43.0 (0)
 -->
<!-- Title: SimplePore.cpp Pages: 1 -->
<svg width="1351pt" height="263pt"
 viewBox="0.00 0.00 1350.50 263.00" xmlns="http://www.w3.org/2000/svg" xmlns:xlink="http://www.w3.org/1999/xlink">
<g id="graph0" class="graph" transform="scale(1 1) rotate(0) translate(4 259)">
<title>SimplePore.cpp</title>
<!-- Node1 -->
<g id="node1" class="node">
<title>Node1</title>
<g id="a_node1"><a xlink:title=" ">
<polygon fill="#bfbfbf" stroke="black" points="1048,-235.5 1048,-254.5 1140,-254.5 1140,-235.5 1048,-235.5"/>
<text text-anchor="middle" x="1094" y="-242.5" font-family="Helvetica,sans-Serif" font-size="10.00">SimplePore.cpp</text>
</a>
</g>
</g>
<!-- Node2 -->
<g id="node2" class="node">
<title>Node2</title>
<g id="a_node2"><a xlink:title=" ">
<polygon fill="none" stroke="#bfbfbf" points="464.5,-179.5 464.5,-198.5 595.5,-198.5 595.5,-179.5 464.5,-179.5"/>
<text text-anchor="middle" x="530" y="-186.5" font-family="Helvetica,sans-Serif" font-size="10.00">shapes/SimplePore.hpp</text>
</a>
</g>
</g>
<!-- Node1&#45;&gt;Node2 -->
<g id="edge1" class="edge">
<title>Node1&#45;&gt;Node2</title>
<path fill="none" stroke="midnightblue" d="M1047.68,-240.2C962.37,-233.11 774.41,-217.02 605.81,-199.17"/>
<polygon fill="midnightblue" stroke="midnightblue" points="606.07,-195.68 595.76,-198.1 605.33,-202.64 606.07,-195.68"/>
</g>
<!-- Node3 -->
<g id="node3" class="node">
<title>Node3</title>
<g id="a_node3"><a xlink:href="Vector_8hpp.html" target="_top" xlink:title=" ">
<polygon fill="none" stroke="black" points="613.5,-179.5 613.5,-198.5 706.5,-198.5 706.5,-179.5 613.5,-179.5"/>
<text text-anchor="middle" x="660" y="-186.5" font-family="Helvetica,sans-Serif" font-size="10.00">utils/Vector.hpp</text>
</a>
</g>
</g>
<!-- Node1&#45;&gt;Node3 -->
<g id="edge2" class="edge">
<title>Node1&#45;&gt;Node3</title>
<path fill="none" stroke="midnightblue" d="M1047.97,-238.27C967.91,-228.31 803.31,-207.83 716.48,-197.03"/>
<polygon fill="midnightblue" stroke="midnightblue" points="716.9,-193.55 706.54,-195.79 716.04,-200.5 716.9,-193.55"/>
</g>
<!-- Node8 -->
<g id="node8" class="node">
<title>Node8</title>
<g id="a_node8"><a xlink:title=" ">
<polygon fill="none" stroke="#bfbfbf" points="1162,-0.5 1162,-19.5 1214,-19.5 1214,-0.5 1162,-0.5"/>
<text text-anchor="middle" x="1188" y="-7.5" font-family="Helvetica,sans-Serif" font-size="10.00">cassert</text>
</a>
</g>
</g>
<!-- Node1&#45;&gt;Node8 -->
<g id="edge27" class="edge">
<title>Node1&#45;&gt;Node8</title>
<path fill="none" stroke="midnightblue" d="M1105.7,-235.4C1133.61,-214.05 1203.63,-155.42 1229,-87 1233.79,-74.08 1233.98,-68.85 1229,-56 1224.55,-44.5 1215.63,-34.13 1207.25,-26.25"/>
<polygon fill="midnightblue" stroke="midnightblue" points="1209.37,-23.46 1199.54,-19.51 1204.76,-28.73 1209.37,-23.46"/>
</g>
<!-- Node11 -->
<g id="node11" class="node">
<title>Node11</title>
<g id="a_node11"><a xlink:title=" ">
<polygon fill="none" stroke="#bfbfbf" points="918.5,-0.5 918.5,-19.5 959.5,-19.5 959.5,-0.5 918.5,-0.5"/>
<text text-anchor="middle" x="939" y="-7.5" font-family="Helvetica,sans-Serif" font-size="10.00">tuple</text>
</a>
</g>
</g>
<!-- Node1&#45;&gt;Node11 -->
<g id="edge29" class="edge">
<title>Node1&#45;&gt;Node11</title>
<path fill="none" stroke="midnightblue" d="M1096.4,-235.47C1101.7,-214.79 1112.5,-160.93 1093,-123 1066.85,-72.12 1005.69,-38.85 968.8,-22.63"/>
<polygon fill="midnightblue" stroke="midnightblue" points="970.1,-19.39 959.53,-18.69 967.36,-25.83 970.1,-19.39"/>
</g>
<!-- Node17 -->
<g id="node17" class="node">
<title>Node17</title>
<g id="a_node17"><a xlink:title=" ">
<polygon fill="none" stroke="#bfbfbf" points="1037.5,-123.5 1037.5,-142.5 1084.5,-142.5 1084.5,-123.5 1037.5,-123.5"/>
<text text-anchor="middle" x="1061" y="-130.5" font-family="Helvetica,sans-Serif" font-size="10.00">cmath</text>
</a>
</g>
</g>
<!-- Node1&#45;&gt;Node17 -->
<g id="edge28" class="edge">
<title>Node1&#45;&gt;Node17</title>
<path fill="none" stroke="midnightblue" d="M1091.41,-235.37C1086.06,-217.54 1073.69,-176.3 1066.48,-152.27"/>
<polygon fill="midnightblue" stroke="midnightblue" points="1069.8,-151.16 1063.58,-142.59 1063.1,-153.18 1069.8,-151.16"/>
</g>
<!-- Node23 -->
<g id="node23" class="node">
<title>Node23</title>
<g id="a_node23"><a xlink:title=" ">
<polygon fill="none" stroke="#bfbfbf" points="1297.5,-179.5 1297.5,-198.5 1342.5,-198.5 1342.5,-179.5 1297.5,-179.5"/>
<text text-anchor="middle" x="1320" y="-186.5" font-family="Helvetica,sans-Serif" font-size="10.00">utility</text>
</a>
</g>
</g>
<!-- Node1&#45;&gt;Node23 -->
<g id="edge30" class="edge">
<title>Node1&#45;&gt;Node23</title>
<path fill="none" stroke="midnightblue" d="M1130.25,-235.43C1168.3,-226.41 1229.87,-211.79 1283,-199 1284.45,-198.65 1285.92,-198.3 1287.42,-197.93"/>
<polygon fill="midnightblue" stroke="midnightblue" points="1288.41,-201.3 1297.31,-195.54 1286.76,-194.49 1288.41,-201.3"/>
</g>
<!-- Node4 -->
<g id="node4" class="node">
<title>Node4</title>
<g id="a_node4"><a xlink:title=" ">
<polygon fill="none" stroke="#bfbfbf" points="226,-123.5 226,-142.5 376,-142.5 376,-123.5 226,-123.5"/>
<text text-anchor="middle" x="301" y="-130.5" font-family="Helvetica,sans-Serif" font-size="10.00">boost/qvm/deduce_vec.hpp</text>
</a>
</g>
</g>
<!-- Node3&#45;&gt;Node4 -->
<g id="edge3" class="edge">
<title>Node3&#45;&gt;Node4</title>
<path fill="none" stroke="midnightblue" d="M613.26,-180.44C610.12,-179.95 607.02,-179.47 604,-179 523.6,-166.57 431.08,-152.93 369.65,-143.96"/>
<polygon fill="midnightblue" stroke="midnightblue" points="370.08,-140.48 359.68,-142.5 369.07,-147.41 370.08,-140.48"/>
</g>
<!-- Node5 -->
<g id="node5" class="node">
<title>Node5</title>
<g id="a_node5"><a xlink:title=" ">
<polygon fill="none" stroke="#bfbfbf" points="394,-123.5 394,-142.5 534,-142.5 534,-123.5 394,-123.5"/>
<text text-anchor="middle" x="464" y="-130.5" font-family="Helvetica,sans-Serif" font-size="10.00">boost/qvm/vec_traits.hpp</text>
</a>
</g>
</g>
<!-- Node3&#45;&gt;Node5 -->
<g id="edge4" class="edge">
<title>Node3&#45;&gt;Node5</title>
<path fill="none" stroke="midnightblue" d="M628.94,-179.44C595.4,-170.2 541.8,-155.44 504.86,-145.26"/>
<polygon fill="midnightblue" stroke="midnightblue" points="505.48,-141.8 494.91,-142.52 503.62,-148.55 505.48,-141.8"/>
</g>
<!-- Node6 -->
<g id="node6" class="node">
<title>Node6</title>
<g id="a_node6"><a xlink:href="Array_8hpp.html" target="_top" xlink:title=" ">
<polygon fill="none" stroke="black" points="710,-123.5 710,-142.5 796,-142.5 796,-123.5 710,-123.5"/>
<text text-anchor="middle" x="753" y="-130.5" font-family="Helvetica,sans-Serif" font-size="10.00">utils/Array.hpp</text>
</a>
</g>
</g>
<!-- Node3&#45;&gt;Node6 -->
<g id="edge5" class="edge">
<title>Node3&#45;&gt;Node6</title>
<path fill="none" stroke="midnightblue" d="M674.94,-179.32C689.59,-170.82 712.13,-157.73 729.24,-147.8"/>
<polygon fill="midnightblue" stroke="midnightblue" points="731.2,-150.7 738.1,-142.65 727.69,-144.65 731.2,-150.7"/>
</g>
<!-- Node3&#45;&gt;Node8 -->
<g id="edge18" class="edge">
<title>Node3&#45;&gt;Node8</title>
<path fill="none" stroke="midnightblue" d="M706.57,-186.55C771.31,-183.44 891.53,-173.67 989,-143 1007.58,-137.15 1009.59,-129.38 1028,-123 1106.74,-95.72 1159.04,-151.33 1212,-87 1226.1,-69.88 1213.13,-44.39 1201.46,-27.74"/>
<polygon fill="midnightblue" stroke="midnightblue" points="1204.09,-25.41 1195.3,-19.5 1198.49,-29.61 1204.09,-25.41"/>
</g>
<!-- Node10 -->
<g id="node10" class="node">
<title>Node10</title>
<g id="a_node10"><a xlink:title=" ">
<polygon fill="none" stroke="#bfbfbf" points="726.5,-0.5 726.5,-19.5 779.5,-19.5 779.5,-0.5 726.5,-0.5"/>
<text text-anchor="middle" x="753" y="-7.5" font-family="Helvetica,sans-Serif" font-size="10.00">cstddef</text>
</a>
</g>
</g>
<!-- Node3&#45;&gt;Node10 -->
<g id="edge20" class="edge">
<title>Node3&#45;&gt;Node10</title>
<path fill="none" stroke="midnightblue" d="M640.56,-179.41C596.74,-158.9 497.08,-105.09 537,-56 559.19,-28.71 660.72,-17.41 716.32,-13.21"/>
<polygon fill="midnightblue" stroke="midnightblue" points="716.74,-16.69 726.47,-12.48 716.24,-9.71 716.74,-16.69"/>
</g>
<!-- Node13 -->
<g id="node13" class="node">
<title>Node13</title>
<g id="a_node13"><a xlink:title=" ">
<polygon fill="none" stroke="#bfbfbf" points="546.5,-62 546.5,-81 599.5,-81 599.5,-62 546.5,-62"/>
<text text-anchor="middle" x="573" y="-69" font-family="Helvetica,sans-Serif" font-size="10.00">iterator</text>
</a>
</g>
</g>
<!-- Node3&#45;&gt;Node13 -->
<g id="edge23" class="edge">
<title>Node3&#45;&gt;Node13</title>
<path fill="none" stroke="midnightblue" d="M651.39,-179.4C642.78,-170.61 629.35,-156.37 619,-143 605.63,-125.72 592.19,-104.58 583.32,-89.98"/>
<polygon fill="midnightblue" stroke="midnightblue" points="586.11,-87.83 577.96,-81.05 580.1,-91.42 586.11,-87.83"/>
</g>
<!-- Node16 -->
<g id="node16" class="node">
<title>Node16</title>
<g id="a_node16"><a xlink:title=" ">
<polygon fill="none" stroke="#bfbfbf" points="628,-123.5 628,-142.5 692,-142.5 692,-123.5 628,-123.5"/>
<text text-anchor="middle" x="660" y="-130.5" font-family="Helvetica,sans-Serif" font-size="10.00">algorithm</text>
</a>
</g>
</g>
<!-- Node3&#45;&gt;Node16 -->
<g id="edge17" class="edge">
<title>Node3&#45;&gt;Node16</title>
<path fill="none" stroke="midnightblue" d="M660,-179.08C660,-172.01 660,-161.86 660,-152.99"/>
<polygon fill="midnightblue" stroke="midnightblue" points="663.5,-152.75 660,-142.75 656.5,-152.75 663.5,-152.75"/>
</g>
<!-- Node3&#45;&gt;Node17 -->
<g id="edge19" class="edge">
<title>Node3&#45;&gt;Node17</title>
<path fill="none" stroke="midnightblue" d="M706.66,-183.86C776,-177.34 910.19,-163.29 1023,-143 1024.46,-142.74 1025.95,-142.45 1027.45,-142.16"/>
<polygon fill="midnightblue" stroke="midnightblue" points="1028.33,-145.55 1037.37,-140.02 1026.85,-138.7 1028.33,-145.55"/>
</g>
<!-- Node18 -->
<g id="node18" class="node">
<title>Node18</title>
<g id="a_node18"><a xlink:title=" ">
<polygon fill="none" stroke="#bfbfbf" points="814.5,-123.5 814.5,-142.5 879.5,-142.5 879.5,-123.5 814.5,-123.5"/>
<text text-anchor="middle" x="847" y="-130.5" font-family="Helvetica,sans-Serif" font-size="10.00">functional</text>
</a>
</g>
</g>
<!-- Node3&#45;&gt;Node18 -->
<g id="edge21" class="edge">
<title>Node3&#45;&gt;Node18</title>
<path fill="none" stroke="midnightblue" d="M689.63,-179.44C721.5,-170.24 772.33,-155.56 807.56,-145.39"/>
<polygon fill="midnightblue" stroke="midnightblue" points="808.87,-148.65 817.51,-142.52 806.93,-141.93 808.87,-148.65"/>
</g>
<!-- Node19 -->
<g id="node19" class="node">
<title>Node19</title>
<g id="a_node19"><a xlink:title=" ">
<polygon fill="none" stroke="#bfbfbf" points="897.5,-123.5 897.5,-142.5 980.5,-142.5 980.5,-123.5 897.5,-123.5"/>
<text text-anchor="middle" x="939" y="-130.5" font-family="Helvetica,sans-Serif" font-size="10.00">initializer_list</text>
</a>
</g>
</g>
<!-- Node3&#45;&gt;Node19 -->
<g id="edge22" class="edge">
<title>Node3&#45;&gt;Node19</title>
<path fill="none" stroke="midnightblue" d="M704.21,-179.44C753.91,-169.82 834.51,-154.22 887.14,-144.04"/>
<polygon fill="midnightblue" stroke="midnightblue" points="888.12,-147.41 897.28,-142.08 886.79,-140.54 888.12,-147.41"/>
</g>
<!-- Node20 -->
<g id="node20" class="node">
<title>Node20</title>
<g id="a_node20"><a xlink:title=" ">
<polygon fill="none" stroke="#bfbfbf" points="0,-123.5 0,-142.5 56,-142.5 56,-123.5 0,-123.5"/>
<text text-anchor="middle" x="28" y="-130.5" font-family="Helvetica,sans-Serif" font-size="10.00">numeric</text>
</a>
</g>
</g>
<!-- Node3&#45;&gt;Node20 -->
<g id="edge24" class="edge">
<title>Node3&#45;&gt;Node20</title>
<path fill="none" stroke="midnightblue" d="M613.29,-180.16C610.15,-179.74 607.03,-179.34 604,-179 368.7,-152.29 304.06,-178.76 66.17,-142.91"/>
<polygon fill="midnightblue" stroke="midnightblue" points="66.6,-139.43 56.18,-141.38 65.54,-146.35 66.6,-139.43"/>
</g>
<!-- Node21 -->
<g id="node21" class="node">
<title>Node21</title>
<g id="a_node21"><a xlink:title=" ">
<polygon fill="none" stroke="#bfbfbf" points="74.5,-123.5 74.5,-142.5 143.5,-142.5 143.5,-123.5 74.5,-123.5"/>
<text text-anchor="middle" x="109" y="-130.5" font-family="Helvetica,sans-Serif" font-size="10.00">type_traits</text>
</a>
</g>
</g>
<!-- Node3&#45;&gt;Node21 -->
<g id="edge25" class="edge">
<title>Node3&#45;&gt;Node21</title>
<path fill="none" stroke="midnightblue" d="M613.29,-180.21C610.15,-179.77 607.03,-179.36 604,-179 407.13,-155.38 353.2,-171.17 153.59,-143.07"/>
<polygon fill="midnightblue" stroke="midnightblue" points="154.06,-139.6 143.67,-141.65 153.07,-146.53 154.06,-139.6"/>
</g>
<!-- Node22 -->
<g id="node22" class="node">
<title>Node22</title>
<g id="a_node22"><a xlink:title=" ">
<polygon fill="none" stroke="#bfbfbf" points="161.5,-123.5 161.5,-142.5 208.5,-142.5 208.5,-123.5 161.5,-123.5"/>
<text text-anchor="middle" x="185" y="-130.5" font-family="Helvetica,sans-Serif" font-size="10.00">vector</text>
</a>
</g>
</g>
<!-- Node3&#45;&gt;Node22 -->
<g id="edge26" class="edge">
<title>Node3&#45;&gt;Node22</title>
<path fill="none" stroke="midnightblue" d="M613.28,-180.25C610.14,-179.81 607.03,-179.38 604,-179 435.89,-157.7 388.63,-173.87 218.69,-143.02"/>
<polygon fill="midnightblue" stroke="midnightblue" points="219.12,-139.54 208.65,-141.17 217.85,-146.42 219.12,-139.54"/>
</g>
<!-- Node7 -->
<g id="node7" class="node">
<title>Node7</title>
<g id="a_node7"><a xlink:href="device__qualifier_8hpp.html" target="_top" xlink:title=" ">
<polygon fill="none" stroke="black" points="1087,-62 1087,-81 1203,-81 1203,-62 1087,-62"/>
<text text-anchor="middle" x="1145" y="-69" font-family="Helvetica,sans-Serif" font-size="10.00">device_qualifier.hpp</text>
</a>
</g>
</g>
<!-- Node6&#45;&gt;Node7 -->
<g id="edge6" class="edge">
<title>Node6&#45;&gt;Node7</title>
<path fill="none" stroke="midnightblue" d="M796.12,-124.46C799.12,-123.96 802.11,-123.47 805,-123 899.01,-107.89 1007.91,-91.99 1076.62,-82.17"/>
<polygon fill="midnightblue" stroke="midnightblue" points="1077.48,-85.58 1086.88,-80.7 1076.49,-78.65 1077.48,-85.58"/>
</g>
<!-- Node6&#45;&gt;Node8 -->
<g id="edge12" class="edge">
<title>Node6&#45;&gt;Node8</title>
<path fill="none" stroke="midnightblue" d="M796.02,-124.43C864.4,-112.37 991.22,-89.84 1001,-87 1004.99,-85.84 1105.82,-44.64 1157.73,-23.4"/>
<polygon fill="midnightblue" stroke="midnightblue" points="1159.19,-26.58 1167.12,-19.55 1156.54,-20.1 1159.19,-26.58"/>
</g>
<!-- Node9 -->
<g id="node9" class="node">
<title>Node9</title>
<g id="a_node9"><a xlink:href="get_8hpp.html" target="_top" xlink:title=" ">
<polygon fill="none" stroke="black" points="781.5,-62 781.5,-81 834.5,-81 834.5,-62 781.5,-62"/>
<text text-anchor="middle" x="808" y="-69" font-family="Helvetica,sans-Serif" font-size="10.00">get.hpp</text>
</a>
</g>
</g>
<!-- Node6&#45;&gt;Node9 -->
<g id="edge8" class="edge">
<title>Node6&#45;&gt;Node9</title>
<path fill="none" stroke="midnightblue" d="M760.88,-123.48C769.29,-114.37 782.82,-99.74 793.23,-88.48"/>
<polygon fill="midnightblue" stroke="midnightblue" points="795.92,-90.73 800.13,-81.01 790.78,-85.98 795.92,-90.73"/>
</g>
<!-- Node6&#45;&gt;Node10 -->
<g id="edge13" class="edge">
<title>Node6&#45;&gt;Node10</title>
<path fill="none" stroke="midnightblue" d="M753,-123.3C753,-103.85 753,-56.49 753,-29.9"/>
<polygon fill="midnightblue" stroke="midnightblue" points="756.5,-29.62 753,-19.62 749.5,-29.62 756.5,-29.62"/>
</g>
<!-- Node12 -->
<g id="node12" class="node">
<title>Node12</title>
<g id="a_node12"><a xlink:title=" ">
<polygon fill="none" stroke="#bfbfbf" points="617.5,-56.5 617.5,-86.5 724.5,-86.5 724.5,-56.5 617.5,-56.5"/>
<text text-anchor="start" x="625.5" y="-74.5" font-family="Helvetica,sans-Serif" font-size="10.00">boost/serialization</text>
<text text-anchor="middle" x="671" y="-63.5" font-family="Helvetica,sans-Serif" font-size="10.00">/access.hpp</text>
</a>
</g>
</g>
<!-- Node6&#45;&gt;Node12 -->
<g id="edge11" class="edge">
<title>Node6&#45;&gt;Node12</title>
<path fill="none" stroke="midnightblue" d="M741.25,-123.48C730.15,-115.42 713.07,-103.02 698.53,-92.47"/>
<polygon fill="midnightblue" stroke="midnightblue" points="700.48,-89.56 690.33,-86.52 696.36,-95.23 700.48,-89.56"/>
</g>
<!-- Node6&#45;&gt;Node13 -->
<g id="edge14" class="edge">
<title>Node6&#45;&gt;Node13</title>
<path fill="none" stroke="midnightblue" d="M722.74,-123.49C693.22,-114.98 647.17,-101.16 608,-87 606.14,-86.33 604.24,-85.62 602.33,-84.88"/>
<polygon fill="midnightblue" stroke="midnightblue" points="603.45,-81.56 592.87,-81.1 600.85,-88.06 603.45,-81.56"/>
</g>
<!-- Node14 -->
<g id="node14" class="node">
<title>Node14</title>
<g id="a_node14"><a xlink:title=" ">
<polygon fill="none" stroke="#bfbfbf" points="852.5,-62 852.5,-81 909.5,-81 909.5,-62 852.5,-62"/>
<text text-anchor="middle" x="881" y="-69" font-family="Helvetica,sans-Serif" font-size="10.00">ostream</text>
</a>
</g>
</g>
<!-- Node6&#45;&gt;Node14 -->
<g id="edge15" class="edge">
<title>Node6&#45;&gt;Node14</title>
<path fill="none" stroke="midnightblue" d="M771.34,-123.48C792.82,-113.49 828.62,-96.85 853.45,-85.31"/>
<polygon fill="midnightblue" stroke="midnightblue" points="855.1,-88.4 862.69,-81.01 852.15,-82.05 855.1,-88.4"/>
</g>
<!-- Node15 -->
<g id="node15" class="node">
<title>Node15</title>
<g id="a_node15"><a xlink:title=" ">
<polygon fill="none" stroke="#bfbfbf" points="927.5,-62 927.5,-81 992.5,-81 992.5,-62 927.5,-62"/>
<text text-anchor="middle" x="960" y="-69" font-family="Helvetica,sans-Serif" font-size="10.00">stdexcept</text>
</a>
</g>
</g>
<!-- Node6&#45;&gt;Node15 -->
<g id="edge16" class="edge">
<title>Node6&#45;&gt;Node15</title>
<path fill="none" stroke="midnightblue" d="M787,-123.43C820.5,-114.82 873.03,-100.88 918,-87 920.76,-86.15 923.62,-85.23 926.48,-84.29"/>
<polygon fill="midnightblue" stroke="midnightblue" points="927.74,-87.56 936.1,-81.06 925.51,-80.93 927.74,-87.56"/>
</g>
<!-- Node7&#45;&gt;Node8 -->
<g id="edge7" class="edge">
<title>Node7&#45;&gt;Node8</title>
<path fill="none" stroke="midnightblue" d="M1151.16,-61.98C1157.61,-53.05 1167.9,-38.81 1175.97,-27.64"/>
<polygon fill="midnightblue" stroke="midnightblue" points="1178.83,-29.66 1181.85,-19.51 1173.16,-25.56 1178.83,-29.66"/>
</g>
<!-- Node9&#45;&gt;Node10 -->
<g id="edge9" class="edge">
<title>Node9&#45;&gt;Node10</title>
<path fill="none" stroke="midnightblue" d="M800.12,-61.98C791.71,-52.87 778.18,-38.24 767.77,-26.98"/>
<polygon fill="midnightblue" stroke="midnightblue" points="770.22,-24.48 760.87,-19.51 765.08,-29.23 770.22,-24.48"/>
</g>
<!-- Node9&#45;&gt;Node11 -->
<g id="edge10" class="edge">
<title>Node9&#45;&gt;Node11</title>
<path fill="none" stroke="midnightblue" d="M826.77,-61.98C848.85,-51.95 885.72,-35.2 911.14,-23.65"/>
<polygon fill="midnightblue" stroke="midnightblue" points="912.61,-26.83 920.27,-19.51 909.71,-20.46 912.61,-26.83"/>
</g>
</g>
</svg>
