<?xml version="1.0" encoding="UTF-8" standalone="no"?>
<!DOCTYPE svg PUBLIC "-//W3C//DTD SVG 1.1//EN"
 "http://www.w3.org/Graphics/SVG/1.1/DTD/svg11.dtd">
<!-- Generated by graphviz version 2.43.0 (0)
 -->
<!-- Title: sinc.hpp Pages: 1 -->
<svg width="692pt" height="140pt"
 viewBox="0.00 0.00 692.00 140.00" xmlns="http://www.w3.org/2000/svg" xmlns:xlink="http://www.w3.org/1999/xlink">
<g id="graph0" class="graph" transform="scale(1 1) rotate(0) translate(4 136)">
<title>sinc.hpp</title>
<!-- Node1 -->
<g id="node1" class="node">
<title>Node1</title>
<g id="a_node1"><a xlink:title=" ">
<polygon fill="#bfbfbf" stroke="black" points="239,-112.5 239,-131.5 296,-131.5 296,-112.5 239,-112.5"/>
<text text-anchor="middle" x="267.5" y="-119.5" font-family="Helvetica,sans-Serif" font-size="10.00">sinc.hpp</text>
</a>
</g>
</g>
<!-- Node2 -->
<g id="node2" class="node">
<title>Node2</title>
<g id="a_node2"><a xlink:href="dp3m__influence__function_8hpp.html" target="_top" xlink:title=" ">
<polygon fill="none" stroke="black" points="0,-56.5 0,-75.5 161,-75.5 161,-56.5 0,-56.5"/>
<text text-anchor="middle" x="80.5" y="-63.5" font-family="Helvetica,sans-Serif" font-size="10.00">dp3m_influence_function.hpp</text>
</a>
</g>
</g>
<!-- Node1&#45;&gt;Node2 -->
<g id="edge1" class="edge">
<title>Node1&#45;&gt;Node2</title>
<path fill="none" stroke="midnightblue" d="M228.74,-109.81C193.42,-99.61 142.02,-84.77 109.96,-75.51"/>
<polygon fill="midnightblue" stroke="midnightblue" points="228.11,-113.27 238.69,-112.68 230.05,-106.54 228.11,-113.27"/>
</g>
<!-- Node3 -->
<g id="node3" class="node">
<title>Node3</title>
<g id="a_node3"><a xlink:href="p3m-dipolar_8cpp.html" target="_top" xlink:title=" ">
<polygon fill="none" stroke="black" points="99.5,-0.5 99.5,-19.5 195.5,-19.5 195.5,-0.5 99.5,-0.5"/>
<text text-anchor="middle" x="147.5" y="-7.5" font-family="Helvetica,sans-Serif" font-size="10.00">p3m&#45;dipolar.cpp</text>
</a>
</g>
</g>
<!-- Node1&#45;&gt;Node3 -->
<g id="edge3" class="edge">
<title>Node1&#45;&gt;Node3</title>
<path fill="none" stroke="midnightblue" d="M250.6,-105.51C224.96,-82.01 177.07,-38.11 156.87,-19.59"/>
<polygon fill="midnightblue" stroke="midnightblue" points="248.35,-108.19 258.08,-112.37 253.08,-103.03 248.35,-108.19"/>
</g>
<!-- Node4 -->
<g id="node4" class="node">
<title>Node4</title>
<g id="a_node4"><a xlink:href="p3m_8cpp.html" target="_top" xlink:title=" ">
<polygon fill="none" stroke="black" points="239,-0.5 239,-19.5 298,-19.5 298,-0.5 239,-0.5"/>
<text text-anchor="middle" x="268.5" y="-7.5" font-family="Helvetica,sans-Serif" font-size="10.00">p3m.cpp</text>
</a>
</g>
</g>
<!-- Node1&#45;&gt;Node4 -->
<g id="edge4" class="edge">
<title>Node1&#45;&gt;Node4</title>
<path fill="none" stroke="midnightblue" d="M256.43,-103.53C249.57,-90.57 242.71,-72.39 246.5,-56 249.64,-42.44 257.45,-28.26 262.86,-19.52"/>
<polygon fill="midnightblue" stroke="midnightblue" points="253.47,-105.4 261.51,-112.3 259.53,-101.89 253.47,-105.4"/>
</g>
<!-- Node5 -->
<g id="node5" class="node">
<title>Node5</title>
<g id="a_node5"><a xlink:href="p3m__gpu__cuda_8cu.html" target="_top" xlink:title=" ">
<polygon fill="none" stroke="black" points="255.5,-56.5 255.5,-75.5 359.5,-75.5 359.5,-56.5 255.5,-56.5"/>
<text text-anchor="middle" x="307.5" y="-63.5" font-family="Helvetica,sans-Serif" font-size="10.00">p3m_gpu_cuda.cu</text>
</a>
</g>
</g>
<!-- Node1&#45;&gt;Node5 -->
<g id="edge5" class="edge">
<title>Node1&#45;&gt;Node5</title>
<path fill="none" stroke="midnightblue" d="M280.2,-103.86C287.13,-94.5 295.41,-83.33 301.02,-75.75"/>
<polygon fill="midnightblue" stroke="midnightblue" points="277.25,-101.96 274.11,-112.08 282.87,-106.13 277.25,-101.96"/>
</g>
<!-- Node6 -->
<g id="node6" class="node">
<title>Node6</title>
<g id="a_node6"><a xlink:href="p3m__gpu__error__cuda_8cu.html" target="_top" xlink:title=" ">
<polygon fill="none" stroke="black" points="378,-56.5 378,-75.5 511,-75.5 511,-56.5 378,-56.5"/>
<text text-anchor="middle" x="444.5" y="-63.5" font-family="Helvetica,sans-Serif" font-size="10.00">p3m_gpu_error_cuda.cu</text>
</a>
</g>
</g>
<!-- Node1&#45;&gt;Node6 -->
<g id="edge6" class="edge">
<title>Node1&#45;&gt;Node6</title>
<path fill="none" stroke="midnightblue" d="M305.4,-109.44C338.78,-99.26 386.6,-84.66 416.59,-75.52"/>
<polygon fill="midnightblue" stroke="midnightblue" points="304.09,-106.18 295.55,-112.44 306.13,-112.87 304.09,-106.18"/>
</g>
<!-- Node7 -->
<g id="node7" class="node">
<title>Node7</title>
<g id="a_node7"><a xlink:href="p3m__influence__function_8hpp.html" target="_top" xlink:title=" ">
<polygon fill="none" stroke="black" points="529,-56.5 529,-75.5 684,-75.5 684,-56.5 529,-56.5"/>
<text text-anchor="middle" x="606.5" y="-63.5" font-family="Helvetica,sans-Serif" font-size="10.00">p3m_influence_function.hpp</text>
</a>
</g>
</g>
<!-- Node1&#45;&gt;Node7 -->
<g id="edge7" class="edge">
<title>Node1&#45;&gt;Node7</title>
<path fill="none" stroke="midnightblue" d="M306.04,-114.86C366.65,-105.21 484.42,-86.45 553.13,-75.5"/>
<polygon fill="midnightblue" stroke="midnightblue" points="305.44,-111.41 296.11,-116.44 306.54,-118.33 305.44,-111.41"/>
</g>
<!-- Node2&#45;&gt;Node3 -->
<g id="edge2" class="edge">
<title>Node2&#45;&gt;Node3</title>
<path fill="none" stroke="midnightblue" d="M99.33,-49.82C111.34,-40.15 126.47,-27.95 136.54,-19.83"/>
<polygon fill="midnightblue" stroke="midnightblue" points="96.85,-47.32 91.26,-56.32 101.25,-52.77 96.85,-47.32"/>
</g>
<!-- Node7&#45;&gt;Node4 -->
<g id="edge8" class="edge">
<title>Node7&#45;&gt;Node4</title>
<path fill="none" stroke="midnightblue" d="M542.92,-54.84C469.75,-43.15 352.7,-24.45 298.2,-15.75"/>
<polygon fill="midnightblue" stroke="midnightblue" points="542.52,-58.32 552.94,-56.44 543.62,-51.41 542.52,-58.32"/>
</g>
</g>
</svg>
