<?xml version="1.0" encoding="UTF-8" standalone="no"?>
<!DOCTYPE svg PUBLIC "-//W3C//DTD SVG 1.1//EN"
 "http://www.w3.org/Graphics/SVG/1.1/DTD/svg11.dtd">
<!-- Generated by graphviz version 2.43.0 (0)
 -->
<!-- Title: size_and_offset.hpp Pages: 1 -->
<svg width="706pt" height="151pt"
 viewBox="0.00 0.00 706.00 151.00" xmlns="http://www.w3.org/2000/svg" xmlns:xlink="http://www.w3.org/1999/xlink">
<g id="graph0" class="graph" transform="scale(1 1) rotate(0) translate(4 147)">
<title>size_and_offset.hpp</title>
<!-- Node1 -->
<g id="node1" class="node">
<title>Node1</title>
<g id="a_node1"><a xlink:title=" ">
<polygon fill="#bfbfbf" stroke="black" points="391.5,-123.5 391.5,-142.5 505.5,-142.5 505.5,-123.5 391.5,-123.5"/>
<text text-anchor="middle" x="448.5" y="-130.5" font-family="Helvetica,sans-Serif" font-size="10.00">size_and_offset.hpp</text>
</a>
</g>
</g>
<!-- Node2 -->
<g id="node2" class="node">
<title>Node2</title>
<g id="a_node2"><a xlink:href="gather__buffer_8hpp.html" target="_top" xlink:title=" ">
<polygon fill="none" stroke="black" points="335.5,-67.5 335.5,-86.5 439.5,-86.5 439.5,-67.5 335.5,-67.5"/>
<text text-anchor="middle" x="387.5" y="-74.5" font-family="Helvetica,sans-Serif" font-size="10.00">gather_buffer.hpp</text>
</a>
</g>
</g>
<!-- Node1&#45;&gt;Node2 -->
<g id="edge1" class="edge">
<title>Node1&#45;&gt;Node2</title>
<path fill="none" stroke="midnightblue" d="M431.03,-116.54C420.16,-106.91 406.56,-94.87 397.48,-86.83"/>
<polygon fill="midnightblue" stroke="midnightblue" points="428.89,-119.32 438.7,-123.32 433.53,-114.07 428.89,-119.32"/>
</g>
<!-- Node9 -->
<g id="node9" class="node">
<title>Node9</title>
<g id="a_node9"><a xlink:href="scatter__buffer_8hpp.html" target="_top" xlink:title=" ">
<polygon fill="none" stroke="black" points="457.5,-67.5 457.5,-86.5 563.5,-86.5 563.5,-67.5 457.5,-67.5"/>
<text text-anchor="middle" x="510.5" y="-74.5" font-family="Helvetica,sans-Serif" font-size="10.00">scatter_buffer.hpp</text>
</a>
</g>
</g>
<!-- Node1&#45;&gt;Node9 -->
<g id="edge8" class="edge">
<title>Node1&#45;&gt;Node9</title>
<path fill="none" stroke="midnightblue" d="M466.25,-116.54C477.31,-106.91 491.13,-94.87 500.36,-86.83"/>
<polygon fill="midnightblue" stroke="midnightblue" points="463.7,-114.12 458.46,-123.32 468.3,-119.4 463.7,-114.12"/>
</g>
<!-- Node3 -->
<g id="node3" class="node">
<title>Node3</title>
<g id="a_node3"><a xlink:href="cells_8cpp.html" target="_top" xlink:title=" ">
<polygon fill="none" stroke="black" points="0,-6 0,-25 59,-25 59,-6 0,-6"/>
<text text-anchor="middle" x="29.5" y="-13" font-family="Helvetica,sans-Serif" font-size="10.00">cells.cpp</text>
</a>
</g>
</g>
<!-- Node2&#45;&gt;Node3 -->
<g id="edge2" class="edge">
<title>Node2&#45;&gt;Node3</title>
<path fill="none" stroke="midnightblue" d="M325.16,-71.41C260.07,-65.65 155.43,-53.65 67.5,-31 61.48,-29.45 55.11,-27.25 49.34,-25.04"/>
<polygon fill="midnightblue" stroke="midnightblue" points="324.99,-74.91 335.26,-72.28 325.59,-67.93 324.99,-74.91"/>
</g>
<!-- Node4 -->
<g id="node4" class="node">
<title>Node4</title>
<g id="a_node4"><a xlink:href="collision_8cpp.html" target="_top" xlink:title=" ">
<polygon fill="none" stroke="black" points="77,-6 77,-25 154,-25 154,-6 77,-6"/>
<text text-anchor="middle" x="115.5" y="-13" font-family="Helvetica,sans-Serif" font-size="10.00">collision.cpp</text>
</a>
</g>
</g>
<!-- Node2&#45;&gt;Node4 -->
<g id="edge3" class="edge">
<title>Node2&#45;&gt;Node4</title>
<path fill="none" stroke="midnightblue" d="M327.12,-65.65C281.61,-57.43 217.78,-45.02 162.5,-31 155.71,-29.28 148.45,-27.17 141.72,-25.1"/>
<polygon fill="midnightblue" stroke="midnightblue" points="326.67,-69.12 337.13,-67.44 327.9,-62.23 326.67,-69.12"/>
</g>
<!-- Node5 -->
<g id="node5" class="node">
<title>Node5</title>
<g id="a_node5"><a xlink:href="cuda__interface_8cpp.html" target="_top" xlink:title=" ">
<polygon fill="none" stroke="black" points="335,-6 335,-25 444,-25 444,-6 335,-6"/>
<text text-anchor="middle" x="389.5" y="-13" font-family="Helvetica,sans-Serif" font-size="10.00">cuda_interface.cpp</text>
</a>
</g>
</g>
<!-- Node2&#45;&gt;Node5 -->
<g id="edge4" class="edge">
<title>Node2&#45;&gt;Node5</title>
<path fill="none" stroke="midnightblue" d="M388.13,-57.32C388.49,-46.5 388.93,-33.4 389.21,-25.01"/>
<polygon fill="midnightblue" stroke="midnightblue" points="384.62,-57.36 387.79,-67.48 391.62,-57.6 384.62,-57.36"/>
</g>
<!-- Node6 -->
<g id="node6" class="node">
<title>Node6</title>
<g id="a_node6"><a xlink:href="RuntimeErrorCollector_8cpp.html" target="_top" xlink:title=" ">
<polygon fill="none" stroke="black" points="172,-6 172,-25 317,-25 317,-6 172,-6"/>
<text text-anchor="middle" x="244.5" y="-13" font-family="Helvetica,sans-Serif" font-size="10.00">RuntimeErrorCollector.cpp</text>
</a>
</g>
</g>
<!-- Node2&#45;&gt;Node6 -->
<g id="edge5" class="edge">
<title>Node2&#45;&gt;Node6</title>
<path fill="none" stroke="midnightblue" d="M357.77,-63.63C329.99,-52.07 289.25,-35.12 264.95,-25.01"/>
<polygon fill="midnightblue" stroke="midnightblue" points="356.43,-66.86 367.01,-67.48 359.12,-60.4 356.43,-66.86"/>
</g>
<!-- Node7 -->
<g id="node7" class="node">
<title>Node7</title>
<g id="a_node7"><a xlink:href="sd__interface_8cpp.html" target="_top" xlink:title=" ">
<polygon fill="none" stroke="black" points="462,-6 462,-25 559,-25 559,-6 462,-6"/>
<text text-anchor="middle" x="510.5" y="-13" font-family="Helvetica,sans-Serif" font-size="10.00">sd_interface.cpp</text>
</a>
</g>
</g>
<!-- Node2&#45;&gt;Node7 -->
<g id="edge6" class="edge">
<title>Node2&#45;&gt;Node7</title>
<path fill="none" stroke="midnightblue" d="M414.33,-63.02C438.19,-51.48 472.37,-34.94 492.91,-25.01"/>
<polygon fill="midnightblue" stroke="midnightblue" points="412.6,-59.97 405.12,-67.48 415.65,-66.27 412.6,-59.97"/>
</g>
<!-- Node8 -->
<g id="node8" class="node">
<title>Node8</title>
<g id="a_node8"><a xlink:href="lb__inertialess__tracers__cuda__interface_8cpp.html" target="_top" xlink:title=" ">
<polygon fill="none" stroke="black" points="577,-0.5 577,-30.5 698,-30.5 698,-0.5 577,-0.5"/>
<text text-anchor="start" x="585" y="-18.5" font-family="Helvetica,sans-Serif" font-size="10.00">lb_inertialess_tracers</text>
<text text-anchor="middle" x="637.5" y="-7.5" font-family="Helvetica,sans-Serif" font-size="10.00">_cuda_interface.cpp</text>
</a>
</g>
</g>
<!-- Node2&#45;&gt;Node8 -->
<g id="edge7" class="edge">
<title>Node2&#45;&gt;Node8</title>
<path fill="none" stroke="midnightblue" d="M433.27,-65.11C474.11,-55.39 534.16,-41.1 578.58,-30.52"/>
<polygon fill="midnightblue" stroke="midnightblue" points="432.24,-61.75 423.32,-67.48 433.86,-68.56 432.24,-61.75"/>
</g>
<!-- Node9&#45;&gt;Node5 -->
<g id="edge9" class="edge">
<title>Node9&#45;&gt;Node5</title>
<path fill="none" stroke="midnightblue" d="M484.11,-63.02C460.64,-51.48 427.01,-34.94 406.8,-25.01"/>
<polygon fill="midnightblue" stroke="midnightblue" points="482.65,-66.2 493.16,-67.48 485.73,-59.92 482.65,-66.2"/>
</g>
<!-- Node9&#45;&gt;Node7 -->
<g id="edge10" class="edge">
<title>Node9&#45;&gt;Node7</title>
<path fill="none" stroke="midnightblue" d="M510.5,-57.32C510.5,-46.5 510.5,-33.4 510.5,-25.01"/>
<polygon fill="midnightblue" stroke="midnightblue" points="507,-57.48 510.5,-67.48 514,-57.48 507,-57.48"/>
</g>
<!-- Node9&#45;&gt;Node8 -->
<g id="edge11" class="edge">
<title>Node9&#45;&gt;Node8</title>
<path fill="none" stroke="midnightblue" d="M537.82,-63.2C558.34,-53.58 586.44,-40.42 607.57,-30.52"/>
<polygon fill="midnightblue" stroke="midnightblue" points="536.27,-60.06 528.7,-67.48 539.24,-66.4 536.27,-60.06"/>
</g>
</g>
</svg>
