<?xml version="1.0" encoding="UTF-8" standalone="no"?>
<!DOCTYPE svg PUBLIC "-//W3C//DTD SVG 1.1//EN"
 "http://www.w3.org/Graphics/SVG/1.1/DTD/svg11.dtd">
<!-- Generated by graphviz version 2.43.0 (0)
 -->
<!-- Title: SpheroCylinder.cpp Pages: 1 -->
<svg width="1582pt" height="263pt"
 viewBox="0.00 0.00 1581.50 263.00" xmlns="http://www.w3.org/2000/svg" xmlns:xlink="http://www.w3.org/1999/xlink">
<g id="graph0" class="graph" transform="scale(1 1) rotate(0) translate(4 259)">
<title>SpheroCylinder.cpp</title>
<!-- Node1 -->
<g id="node1" class="node">
<title>Node1</title>
<g id="a_node1"><a xlink:title=" ">
<polygon fill="#bfbfbf" stroke="black" points="971.5,-235.5 971.5,-254.5 1082.5,-254.5 1082.5,-235.5 971.5,-235.5"/>
<text text-anchor="middle" x="1027" y="-242.5" font-family="Helvetica,sans-Serif" font-size="10.00">SpheroCylinder.cpp</text>
</a>
</g>
</g>
<!-- Node2 -->
<g id="node2" class="node">
<title>Node2</title>
<g id="a_node2"><a xlink:title=" ">
<polygon fill="none" stroke="#bfbfbf" points="813.5,-179.5 813.5,-198.5 962.5,-198.5 962.5,-179.5 813.5,-179.5"/>
<text text-anchor="middle" x="888" y="-186.5" font-family="Helvetica,sans-Serif" font-size="10.00">shapes/SpheroCylinder.hpp</text>
</a>
</g>
</g>
<!-- Node1&#45;&gt;Node2 -->
<g id="edge1" class="edge">
<title>Node1&#45;&gt;Node2</title>
<path fill="none" stroke="midnightblue" d="M1004.98,-235.44C981.9,-226.48 945.44,-212.31 919.36,-202.18"/>
<polygon fill="midnightblue" stroke="midnightblue" points="920.51,-198.88 909.92,-198.52 917.98,-205.4 920.51,-198.88"/>
</g>
<!-- Node3 -->
<g id="node3" class="node">
<title>Node3</title>
<g id="a_node3"><a xlink:href="Vector_8hpp.html" target="_top" xlink:title=" ">
<polygon fill="none" stroke="black" points="980.5,-179.5 980.5,-198.5 1073.5,-198.5 1073.5,-179.5 980.5,-179.5"/>
<text text-anchor="middle" x="1027" y="-186.5" font-family="Helvetica,sans-Serif" font-size="10.00">utils/Vector.hpp</text>
</a>
</g>
</g>
<!-- Node1&#45;&gt;Node3 -->
<g id="edge2" class="edge">
<title>Node1&#45;&gt;Node3</title>
<path fill="none" stroke="midnightblue" d="M1027,-235.08C1027,-228.01 1027,-217.86 1027,-208.99"/>
<polygon fill="midnightblue" stroke="midnightblue" points="1030.5,-208.75 1027,-198.75 1023.5,-208.75 1030.5,-208.75"/>
</g>
<!-- Node17 -->
<g id="node17" class="node">
<title>Node17</title>
<g id="a_node17"><a xlink:title=" ">
<polygon fill="none" stroke="#bfbfbf" points="1526.5,-123.5 1526.5,-142.5 1573.5,-142.5 1573.5,-123.5 1526.5,-123.5"/>
<text text-anchor="middle" x="1550" y="-130.5" font-family="Helvetica,sans-Serif" font-size="10.00">cmath</text>
</a>
</g>
</g>
<!-- Node1&#45;&gt;Node17 -->
<g id="edge27" class="edge">
<title>Node1&#45;&gt;Node17</title>
<path fill="none" stroke="midnightblue" d="M1073.96,-235.49C1159.98,-219.67 1348.69,-183.78 1516.53,-143.24"/>
<polygon fill="midnightblue" stroke="midnightblue" points="1517.39,-146.63 1526.28,-140.87 1515.74,-139.83 1517.39,-146.63"/>
</g>
<!-- Node4 -->
<g id="node4" class="node">
<title>Node4</title>
<g id="a_node4"><a xlink:title=" ">
<polygon fill="none" stroke="#bfbfbf" points="1359,-123.5 1359,-142.5 1509,-142.5 1509,-123.5 1359,-123.5"/>
<text text-anchor="middle" x="1434" y="-130.5" font-family="Helvetica,sans-Serif" font-size="10.00">boost/qvm/deduce_vec.hpp</text>
</a>
</g>
</g>
<!-- Node3&#45;&gt;Node4 -->
<g id="edge3" class="edge">
<title>Node3&#45;&gt;Node4</title>
<path fill="none" stroke="midnightblue" d="M1073.69,-181.81C1143.64,-172.52 1276.32,-154.92 1359.69,-143.86"/>
<polygon fill="midnightblue" stroke="midnightblue" points="1360.4,-147.3 1369.85,-142.51 1359.48,-140.36 1360.4,-147.3"/>
</g>
<!-- Node5 -->
<g id="node5" class="node">
<title>Node5</title>
<g id="a_node5"><a xlink:title=" ">
<polygon fill="none" stroke="#bfbfbf" points="0,-123.5 0,-142.5 140,-142.5 140,-123.5 0,-123.5"/>
<text text-anchor="middle" x="70" y="-130.5" font-family="Helvetica,sans-Serif" font-size="10.00">boost/qvm/vec_traits.hpp</text>
</a>
</g>
</g>
<!-- Node3&#45;&gt;Node5 -->
<g id="edge4" class="edge">
<title>Node3&#45;&gt;Node5</title>
<path fill="none" stroke="midnightblue" d="M980.3,-180.08C977.16,-179.68 974.04,-179.31 971,-179 609.41,-142.1 516.43,-170.37 154,-143 152.72,-142.9 151.44,-142.8 150.15,-142.7"/>
<polygon fill="midnightblue" stroke="midnightblue" points="150.36,-139.21 140.1,-141.84 149.76,-146.18 150.36,-139.21"/>
</g>
<!-- Node6 -->
<g id="node6" class="node">
<title>Node6</title>
<g id="a_node6"><a xlink:href="Array_8hpp.html" target="_top" xlink:title=" ">
<polygon fill="none" stroke="black" points="495,-123.5 495,-142.5 581,-142.5 581,-123.5 495,-123.5"/>
<text text-anchor="middle" x="538" y="-130.5" font-family="Helvetica,sans-Serif" font-size="10.00">utils/Array.hpp</text>
</a>
</g>
</g>
<!-- Node3&#45;&gt;Node6 -->
<g id="edge5" class="edge">
<title>Node3&#45;&gt;Node6</title>
<path fill="none" stroke="midnightblue" d="M980.28,-180.29C977.14,-179.84 974.03,-179.4 971,-179 834.48,-160.95 672.94,-145.8 591.16,-138.56"/>
<polygon fill="midnightblue" stroke="midnightblue" points="591.38,-135.07 581.11,-137.68 590.77,-142.04 591.38,-135.07"/>
</g>
<!-- Node8 -->
<g id="node8" class="node">
<title>Node8</title>
<g id="a_node8"><a xlink:title=" ">
<polygon fill="none" stroke="#bfbfbf" points="659,-0.5 659,-19.5 711,-19.5 711,-0.5 659,-0.5"/>
<text text-anchor="middle" x="685" y="-7.5" font-family="Helvetica,sans-Serif" font-size="10.00">cassert</text>
</a>
</g>
</g>
<!-- Node3&#45;&gt;Node8 -->
<g id="edge18" class="edge">
<title>Node3&#45;&gt;Node8</title>
<path fill="none" stroke="midnightblue" d="M980.49,-180.55C936.69,-172.69 875.17,-159.21 857,-143 826.02,-115.36 853.18,-84.5 823,-56 795.3,-29.85 752.19,-18.89 721.53,-14.3"/>
<polygon fill="midnightblue" stroke="midnightblue" points="721.63,-10.78 711.25,-12.93 720.7,-17.72 721.63,-10.78"/>
</g>
<!-- Node10 -->
<g id="node10" class="node">
<title>Node10</title>
<g id="a_node10"><a xlink:title=" ">
<polygon fill="none" stroke="#bfbfbf" points="174.5,-0.5 174.5,-19.5 227.5,-19.5 227.5,-0.5 174.5,-0.5"/>
<text text-anchor="middle" x="201" y="-7.5" font-family="Helvetica,sans-Serif" font-size="10.00">cstddef</text>
</a>
</g>
</g>
<!-- Node3&#45;&gt;Node10 -->
<g id="edge20" class="edge">
<title>Node3&#45;&gt;Node10</title>
<path fill="none" stroke="midnightblue" d="M980.29,-180.19C977.15,-179.76 974.03,-179.36 971,-179 800.28,-158.98 313.85,-218.37 203,-87 189.73,-71.28 191.88,-46.53 195.59,-29.57"/>
<polygon fill="midnightblue" stroke="midnightblue" points="199.02,-30.28 198.11,-19.73 192.24,-28.55 199.02,-30.28"/>
</g>
<!-- Node13 -->
<g id="node13" class="node">
<title>Node13</title>
<g id="a_node13"><a xlink:title=" ">
<polygon fill="none" stroke="#bfbfbf" points="761.5,-62 761.5,-81 814.5,-81 814.5,-62 761.5,-62"/>
<text text-anchor="middle" x="788" y="-69" font-family="Helvetica,sans-Serif" font-size="10.00">iterator</text>
</a>
</g>
</g>
<!-- Node3&#45;&gt;Node13 -->
<g id="edge23" class="edge">
<title>Node3&#45;&gt;Node13</title>
<path fill="none" stroke="midnightblue" d="M980.23,-179.8C924.2,-169.65 836.31,-152.53 824,-143 807.4,-130.16 797.79,-107.54 792.74,-91.39"/>
<polygon fill="midnightblue" stroke="midnightblue" points="796.02,-90.11 789.95,-81.43 789.28,-92.01 796.02,-90.11"/>
</g>
<!-- Node16 -->
<g id="node16" class="node">
<title>Node16</title>
<g id="a_node16"><a xlink:title=" ">
<polygon fill="none" stroke="#bfbfbf" points="866,-123.5 866,-142.5 930,-142.5 930,-123.5 866,-123.5"/>
<text text-anchor="middle" x="898" y="-130.5" font-family="Helvetica,sans-Serif" font-size="10.00">algorithm</text>
</a>
</g>
</g>
<!-- Node3&#45;&gt;Node16 -->
<g id="edge17" class="edge">
<title>Node3&#45;&gt;Node16</title>
<path fill="none" stroke="midnightblue" d="M1006.56,-179.44C985.33,-170.56 951.9,-156.56 927.75,-146.45"/>
<polygon fill="midnightblue" stroke="midnightblue" points="928.92,-143.15 918.34,-142.52 926.22,-149.61 928.92,-143.15"/>
</g>
<!-- Node3&#45;&gt;Node17 -->
<g id="edge19" class="edge">
<title>Node3&#45;&gt;Node17</title>
<path fill="none" stroke="midnightblue" d="M1073.76,-186.56C1159.8,-183.29 1349.02,-173.24 1516.37,-143"/>
<polygon fill="midnightblue" stroke="midnightblue" points="1517.14,-146.42 1526.35,-141.17 1515.88,-139.54 1517.14,-146.42"/>
</g>
<!-- Node18 -->
<g id="node18" class="node">
<title>Node18</title>
<g id="a_node18"><a xlink:title=" ">
<polygon fill="none" stroke="#bfbfbf" points="948.5,-123.5 948.5,-142.5 1013.5,-142.5 1013.5,-123.5 948.5,-123.5"/>
<text text-anchor="middle" x="981" y="-130.5" font-family="Helvetica,sans-Serif" font-size="10.00">functional</text>
</a>
</g>
</g>
<!-- Node3&#45;&gt;Node18 -->
<g id="edge21" class="edge">
<title>Node3&#45;&gt;Node18</title>
<path fill="none" stroke="midnightblue" d="M1019.4,-179.08C1012.77,-171.3 1002.98,-159.8 994.94,-150.37"/>
<polygon fill="midnightblue" stroke="midnightblue" points="997.6,-148.09 988.45,-142.75 992.27,-152.63 997.6,-148.09"/>
</g>
<!-- Node19 -->
<g id="node19" class="node">
<title>Node19</title>
<g id="a_node19"><a xlink:title=" ">
<polygon fill="none" stroke="#bfbfbf" points="1031.5,-123.5 1031.5,-142.5 1114.5,-142.5 1114.5,-123.5 1031.5,-123.5"/>
<text text-anchor="middle" x="1073" y="-130.5" font-family="Helvetica,sans-Serif" font-size="10.00">initializer_list</text>
</a>
</g>
</g>
<!-- Node3&#45;&gt;Node19 -->
<g id="edge22" class="edge">
<title>Node3&#45;&gt;Node19</title>
<path fill="none" stroke="midnightblue" d="M1034.6,-179.08C1041.23,-171.3 1051.02,-159.8 1059.06,-150.37"/>
<polygon fill="midnightblue" stroke="midnightblue" points="1061.73,-152.63 1065.55,-142.75 1056.4,-148.09 1061.73,-152.63"/>
</g>
<!-- Node20 -->
<g id="node20" class="node">
<title>Node20</title>
<g id="a_node20"><a xlink:title=" ">
<polygon fill="none" stroke="#bfbfbf" points="1133,-123.5 1133,-142.5 1189,-142.5 1189,-123.5 1133,-123.5"/>
<text text-anchor="middle" x="1161" y="-130.5" font-family="Helvetica,sans-Serif" font-size="10.00">numeric</text>
</a>
</g>
</g>
<!-- Node3&#45;&gt;Node20 -->
<g id="edge24" class="edge">
<title>Node3&#45;&gt;Node20</title>
<path fill="none" stroke="midnightblue" d="M1048.23,-179.44C1070.38,-170.52 1105.32,-156.44 1130.44,-146.32"/>
<polygon fill="midnightblue" stroke="midnightblue" points="1131.9,-149.5 1139.87,-142.52 1129.28,-143.01 1131.9,-149.5"/>
</g>
<!-- Node21 -->
<g id="node21" class="node">
<title>Node21</title>
<g id="a_node21"><a xlink:title=" ">
<polygon fill="none" stroke="#bfbfbf" points="1207.5,-123.5 1207.5,-142.5 1276.5,-142.5 1276.5,-123.5 1207.5,-123.5"/>
<text text-anchor="middle" x="1242" y="-130.5" font-family="Helvetica,sans-Serif" font-size="10.00">type_traits</text>
</a>
</g>
</g>
<!-- Node3&#45;&gt;Node21 -->
<g id="edge25" class="edge">
<title>Node3&#45;&gt;Node21</title>
<path fill="none" stroke="midnightblue" d="M1061.07,-179.44C1098.18,-170.12 1157.66,-155.18 1198.21,-145"/>
<polygon fill="midnightblue" stroke="midnightblue" points="1199.25,-148.35 1208.09,-142.52 1197.54,-141.56 1199.25,-148.35"/>
</g>
<!-- Node22 -->
<g id="node22" class="node">
<title>Node22</title>
<g id="a_node22"><a xlink:title=" ">
<polygon fill="none" stroke="#bfbfbf" points="1294.5,-123.5 1294.5,-142.5 1341.5,-142.5 1341.5,-123.5 1294.5,-123.5"/>
<text text-anchor="middle" x="1318" y="-130.5" font-family="Helvetica,sans-Serif" font-size="10.00">vector</text>
</a>
</g>
</g>
<!-- Node3&#45;&gt;Node22 -->
<g id="edge26" class="edge">
<title>Node3&#45;&gt;Node22</title>
<path fill="none" stroke="midnightblue" d="M1073.87,-181.18C1123.64,-173.63 1204.78,-160.47 1284.11,-143.02"/>
<polygon fill="midnightblue" stroke="midnightblue" points="1285.27,-146.35 1294.27,-140.76 1283.75,-139.51 1285.27,-146.35"/>
</g>
<!-- Node7 -->
<g id="node7" class="node">
<title>Node7</title>
<g id="a_node7"><a xlink:href="device__qualifier_8hpp.html" target="_top" xlink:title=" ">
<polygon fill="none" stroke="black" points="627,-62 627,-81 743,-81 743,-62 627,-62"/>
<text text-anchor="middle" x="685" y="-69" font-family="Helvetica,sans-Serif" font-size="10.00">device_qualifier.hpp</text>
</a>
</g>
</g>
<!-- Node6&#45;&gt;Node7 -->
<g id="edge6" class="edge">
<title>Node6&#45;&gt;Node7</title>
<path fill="none" stroke="midnightblue" d="M559.06,-123.48C584.06,-113.36 625.94,-96.4 654.49,-84.85"/>
<polygon fill="midnightblue" stroke="midnightblue" points="656.02,-88.01 663.98,-81.01 653.39,-81.52 656.02,-88.01"/>
</g>
<!-- Node6&#45;&gt;Node8 -->
<g id="edge12" class="edge">
<title>Node6&#45;&gt;Node8</title>
<path fill="none" stroke="midnightblue" d="M546.44,-123.06C560.56,-108.31 590.2,-78.28 618,-56 632.04,-44.75 648.84,-33.47 662.11,-25.01"/>
<polygon fill="midnightblue" stroke="midnightblue" points="664.05,-27.93 670.66,-19.65 660.33,-22 664.05,-27.93"/>
</g>
<!-- Node9 -->
<g id="node9" class="node">
<title>Node9</title>
<g id="a_node9"><a xlink:href="get_8hpp.html" target="_top" xlink:title=" ">
<polygon fill="none" stroke="black" points="234.5,-62 234.5,-81 287.5,-81 287.5,-62 234.5,-62"/>
<text text-anchor="middle" x="261" y="-69" font-family="Helvetica,sans-Serif" font-size="10.00">get.hpp</text>
</a>
</g>
</g>
<!-- Node6&#45;&gt;Node9 -->
<g id="edge8" class="edge">
<title>Node6&#45;&gt;Node9</title>
<path fill="none" stroke="midnightblue" d="M494.96,-126.76C446.07,-120.18 364.22,-107.23 296,-87 293.71,-86.32 291.37,-85.54 289.03,-84.71"/>
<polygon fill="midnightblue" stroke="midnightblue" points="290.22,-81.41 279.63,-81.06 287.69,-87.94 290.22,-81.41"/>
</g>
<!-- Node6&#45;&gt;Node10 -->
<g id="edge13" class="edge">
<title>Node6&#45;&gt;Node10</title>
<path fill="none" stroke="midnightblue" d="M494.84,-131.32C418.72,-129.24 264.86,-120.84 225,-87 208.39,-72.9 203.13,-47.38 201.55,-29.83"/>
<polygon fill="midnightblue" stroke="midnightblue" points="205.03,-29.43 200.95,-19.65 198.04,-29.84 205.03,-29.43"/>
</g>
<!-- Node12 -->
<g id="node12" class="node">
<title>Node12</title>
<g id="a_node12"><a xlink:title=" ">
<polygon fill="none" stroke="#bfbfbf" points="305.5,-56.5 305.5,-86.5 412.5,-86.5 412.5,-56.5 305.5,-56.5"/>
<text text-anchor="start" x="313.5" y="-74.5" font-family="Helvetica,sans-Serif" font-size="10.00">boost/serialization</text>
<text text-anchor="middle" x="359" y="-63.5" font-family="Helvetica,sans-Serif" font-size="10.00">/access.hpp</text>
</a>
</g>
</g>
<!-- Node6&#45;&gt;Node12 -->
<g id="edge11" class="edge">
<title>Node6&#45;&gt;Node12</title>
<path fill="none" stroke="midnightblue" d="M512.35,-123.48C485.96,-114.7 444.1,-100.79 410.78,-89.71"/>
<polygon fill="midnightblue" stroke="midnightblue" points="411.78,-86.36 401.19,-86.52 409.57,-93 411.78,-86.36"/>
</g>
<!-- Node6&#45;&gt;Node13 -->
<g id="edge14" class="edge">
<title>Node6&#45;&gt;Node13</title>
<path fill="none" stroke="midnightblue" d="M581.19,-125.21C624.82,-117.83 693.88,-104.67 752,-87 754.28,-86.31 756.63,-85.53 758.97,-84.7"/>
<polygon fill="midnightblue" stroke="midnightblue" points="760.31,-87.93 768.42,-81.11 757.83,-81.39 760.31,-87.93"/>
</g>
<!-- Node14 -->
<g id="node14" class="node">
<title>Node14</title>
<g id="a_node14"><a xlink:title=" ">
<polygon fill="none" stroke="#bfbfbf" points="430.5,-62 430.5,-81 487.5,-81 487.5,-62 430.5,-62"/>
<text text-anchor="middle" x="459" y="-69" font-family="Helvetica,sans-Serif" font-size="10.00">ostream</text>
</a>
</g>
</g>
<!-- Node6&#45;&gt;Node14 -->
<g id="edge15" class="edge">
<title>Node6&#45;&gt;Node14</title>
<path fill="none" stroke="midnightblue" d="M526.68,-123.48C514.13,-114.02 493.65,-98.6 478.5,-87.19"/>
<polygon fill="midnightblue" stroke="midnightblue" points="480.39,-84.23 470.3,-81.01 476.18,-89.82 480.39,-84.23"/>
</g>
<!-- Node15 -->
<g id="node15" class="node">
<title>Node15</title>
<g id="a_node15"><a xlink:title=" ">
<polygon fill="none" stroke="#bfbfbf" points="505.5,-62 505.5,-81 570.5,-81 570.5,-62 505.5,-62"/>
<text text-anchor="middle" x="538" y="-69" font-family="Helvetica,sans-Serif" font-size="10.00">stdexcept</text>
</a>
</g>
</g>
<!-- Node6&#45;&gt;Node15 -->
<g id="edge16" class="edge">
<title>Node6&#45;&gt;Node15</title>
<path fill="none" stroke="midnightblue" d="M538,-123.48C538,-115.08 538,-101.98 538,-91.16"/>
<polygon fill="midnightblue" stroke="midnightblue" points="541.5,-91.01 538,-81.01 534.5,-91.01 541.5,-91.01"/>
</g>
<!-- Node7&#45;&gt;Node8 -->
<g id="edge7" class="edge">
<title>Node7&#45;&gt;Node8</title>
<path fill="none" stroke="midnightblue" d="M685,-61.98C685,-53.58 685,-40.48 685,-29.66"/>
<polygon fill="midnightblue" stroke="midnightblue" points="688.5,-29.51 685,-19.51 681.5,-29.51 688.5,-29.51"/>
</g>
<!-- Node9&#45;&gt;Node10 -->
<g id="edge9" class="edge">
<title>Node9&#45;&gt;Node10</title>
<path fill="none" stroke="midnightblue" d="M252.4,-61.98C243.14,-52.78 228.18,-37.96 216.79,-26.66"/>
<polygon fill="midnightblue" stroke="midnightblue" points="219.15,-24.07 209.58,-19.51 214.22,-29.04 219.15,-24.07"/>
</g>
<!-- Node11 -->
<g id="node11" class="node">
<title>Node11</title>
<g id="a_node11"><a xlink:title=" ">
<polygon fill="none" stroke="#bfbfbf" points="245.5,-0.5 245.5,-19.5 286.5,-19.5 286.5,-0.5 245.5,-0.5"/>
<text text-anchor="middle" x="266" y="-7.5" font-family="Helvetica,sans-Serif" font-size="10.00">tuple</text>
</a>
</g>
</g>
<!-- Node9&#45;&gt;Node11 -->
<g id="edge10" class="edge">
<title>Node9&#45;&gt;Node11</title>
<path fill="none" stroke="midnightblue" d="M261.72,-61.98C262.42,-53.58 263.52,-40.48 264.43,-29.66"/>
<polygon fill="midnightblue" stroke="midnightblue" points="267.94,-29.77 265.28,-19.51 260.96,-29.18 267.94,-29.77"/>
</g>
</g>
</svg>
