<?xml version="1.0" encoding="UTF-8" standalone="no"?>
<!DOCTYPE svg PUBLIC "-//W3C//DTD SVG 1.1//EN"
 "http://www.w3.org/Graphics/SVG/1.1/DTD/svg11.dtd">
<!-- Generated by graphviz version 2.43.0 (0)
 -->
<!-- Title: statistics.hpp Pages: 1 -->
<svg width="694pt" height="252pt"
 viewBox="0.00 0.00 694.00 252.00" xmlns="http://www.w3.org/2000/svg" xmlns:xlink="http://www.w3.org/1999/xlink">
<g id="graph0" class="graph" transform="scale(1 1) rotate(0) translate(4 248)">
<title>statistics.hpp</title>
<!-- Node1 -->
<g id="node1" class="node">
<title>Node1</title>
<g id="a_node1"><a xlink:title=" ">
<polygon fill="#bfbfbf" stroke="black" points="435.5,-224.5 435.5,-243.5 517.5,-243.5 517.5,-224.5 435.5,-224.5"/>
<text text-anchor="middle" x="476.5" y="-231.5" font-family="Helvetica,sans-Serif" font-size="10.00">statistics.hpp</text>
</a>
</g>
</g>
<!-- Node2 -->
<g id="node2" class="node">
<title>Node2</title>
<g id="a_node2"><a xlink:href="core_2constraints_2Constraints_8hpp.html" target="_top" xlink:title=" ">
<polygon fill="none" stroke="black" points="309,-168.5 309,-187.5 402,-187.5 402,-168.5 309,-168.5"/>
<text text-anchor="middle" x="355.5" y="-175.5" font-family="Helvetica,sans-Serif" font-size="10.00">Constraints.hpp</text>
</a>
</g>
</g>
<!-- Node1&#45;&gt;Node2 -->
<g id="edge1" class="edge">
<title>Node1&#45;&gt;Node2</title>
<path fill="none" stroke="midnightblue" d="M448.19,-220.37C425.53,-210.26 394.37,-196.35 374.58,-187.52"/>
<polygon fill="midnightblue" stroke="midnightblue" points="446.77,-223.56 457.33,-224.44 449.62,-217.17 446.77,-223.56"/>
</g>
<!-- Node7 -->
<g id="node7" class="node">
<title>Node7</title>
<g id="a_node7"><a xlink:href="polymer_8cpp.html" target="_top" xlink:title=" ">
<polygon fill="none" stroke="black" points="392,-56.5 392,-75.5 469,-75.5 469,-56.5 392,-56.5"/>
<text text-anchor="middle" x="430.5" y="-63.5" font-family="Helvetica,sans-Serif" font-size="10.00">polymer.cpp</text>
</a>
</g>
</g>
<!-- Node1&#45;&gt;Node7 -->
<g id="edge10" class="edge">
<title>Node1&#45;&gt;Node7</title>
<path fill="none" stroke="midnightblue" d="M464,-215.74C458.74,-207.68 453.03,-197.73 449.5,-188 434.92,-147.82 431.52,-96.14 430.74,-75.79"/>
<polygon fill="midnightblue" stroke="midnightblue" points="461.27,-217.95 469.82,-224.21 467.04,-213.99 461.27,-217.95"/>
</g>
<!-- Node10 -->
<g id="node10" class="node">
<title>Node10</title>
<g id="a_node10"><a xlink:href="ReactionAlgorithm_8cpp.html" target="_top" xlink:title=" ">
<polygon fill="none" stroke="black" points="458.5,-168.5 458.5,-187.5 586.5,-187.5 586.5,-168.5 458.5,-168.5"/>
<text text-anchor="middle" x="522.5" y="-175.5" font-family="Helvetica,sans-Serif" font-size="10.00">ReactionAlgorithm.cpp</text>
</a>
</g>
</g>
<!-- Node1&#45;&gt;Node10 -->
<g id="edge11" class="edge">
<title>Node1&#45;&gt;Node10</title>
<path fill="none" stroke="midnightblue" d="M490.61,-216.43C498.68,-206.97 508.46,-195.48 515.05,-187.75"/>
<polygon fill="midnightblue" stroke="midnightblue" points="487.92,-214.2 484.1,-224.08 493.25,-218.74 487.92,-214.2"/>
</g>
<!-- Node11 -->
<g id="node11" class="node">
<title>Node11</title>
<g id="a_node11"><a xlink:href="statistics_8cpp.html" target="_top" xlink:title=" ">
<polygon fill="none" stroke="black" points="605,-168.5 605,-187.5 686,-187.5 686,-168.5 605,-168.5"/>
<text text-anchor="middle" x="645.5" y="-175.5" font-family="Helvetica,sans-Serif" font-size="10.00">statistics.cpp</text>
</a>
</g>
</g>
<!-- Node1&#45;&gt;Node11 -->
<g id="edge12" class="edge">
<title>Node1&#45;&gt;Node11</title>
<path fill="none" stroke="midnightblue" d="M513.1,-221.3C544.95,-211.13 590.34,-196.62 618.85,-187.52"/>
<polygon fill="midnightblue" stroke="midnightblue" points="511.74,-218.07 503.28,-224.44 513.87,-224.73 511.74,-218.07"/>
</g>
<!-- Node3 -->
<g id="node3" class="node">
<title>Node3</title>
<g id="a_node3"><a xlink:href="constraints_8hpp.html" target="_top" xlink:title=" ">
<polygon fill="none" stroke="black" points="210.5,-112.5 210.5,-131.5 302.5,-131.5 302.5,-112.5 210.5,-112.5"/>
<text text-anchor="middle" x="256.5" y="-119.5" font-family="Helvetica,sans-Serif" font-size="10.00">constraints.hpp</text>
</a>
</g>
</g>
<!-- Node2&#45;&gt;Node3 -->
<g id="edge2" class="edge">
<title>Node2&#45;&gt;Node3</title>
<path fill="none" stroke="midnightblue" d="M330.66,-163.45C312.39,-153.48 288.08,-140.23 272.37,-131.65"/>
<polygon fill="midnightblue" stroke="midnightblue" points="329.14,-166.61 339.59,-168.32 332.49,-160.46 329.14,-166.61"/>
</g>
<!-- Node2&#45;&gt;Node7 -->
<g id="edge9" class="edge">
<title>Node2&#45;&gt;Node7</title>
<path fill="none" stroke="midnightblue" d="M367.12,-159.96C383.37,-136.12 412.29,-93.71 424.64,-75.59"/>
<polygon fill="midnightblue" stroke="midnightblue" points="364.13,-158.13 361.39,-168.37 369.91,-162.08 364.13,-158.13"/>
</g>
<!-- Node4 -->
<g id="node4" class="node">
<title>Node4</title>
<g id="a_node4"><a xlink:href="constraints_8cpp.html" target="_top" xlink:title=" ">
<polygon fill="none" stroke="black" points="0,-56.5 0,-75.5 91,-75.5 91,-56.5 0,-56.5"/>
<text text-anchor="middle" x="45.5" y="-63.5" font-family="Helvetica,sans-Serif" font-size="10.00">constraints.cpp</text>
</a>
</g>
</g>
<!-- Node3&#45;&gt;Node4 -->
<g id="edge3" class="edge">
<title>Node3&#45;&gt;Node4</title>
<path fill="none" stroke="midnightblue" d="M213.36,-109.96C173.51,-99.76 115.14,-84.82 78.78,-75.52"/>
<polygon fill="midnightblue" stroke="midnightblue" points="212.51,-113.35 223.07,-112.44 214.25,-106.57 212.51,-113.35"/>
</g>
<!-- Node5 -->
<g id="node5" class="node">
<title>Node5</title>
<g id="a_node5"><a xlink:href="energy_8cpp.html" target="_top" xlink:title=" ">
<polygon fill="none" stroke="black" points="109,-56.5 109,-75.5 178,-75.5 178,-56.5 109,-56.5"/>
<text text-anchor="middle" x="143.5" y="-63.5" font-family="Helvetica,sans-Serif" font-size="10.00">energy.cpp</text>
</a>
</g>
</g>
<!-- Node3&#45;&gt;Node5 -->
<g id="edge4" class="edge">
<title>Node3&#45;&gt;Node5</title>
<path fill="none" stroke="midnightblue" d="M229.5,-108.1C208.39,-98.01 179.64,-84.27 161.32,-75.52"/>
<polygon fill="midnightblue" stroke="midnightblue" points="228.06,-111.29 238.59,-112.44 231.08,-104.97 228.06,-111.29"/>
</g>
<!-- Node6 -->
<g id="node6" class="node">
<title>Node6</title>
<g id="a_node6"><a xlink:href="forces_8cpp.html" target="_top" xlink:title=" ">
<polygon fill="none" stroke="black" points="196,-56.5 196,-75.5 263,-75.5 263,-56.5 196,-56.5"/>
<text text-anchor="middle" x="229.5" y="-63.5" font-family="Helvetica,sans-Serif" font-size="10.00">forces.cpp</text>
</a>
</g>
</g>
<!-- Node3&#45;&gt;Node6 -->
<g id="edge5" class="edge">
<title>Node3&#45;&gt;Node6</title>
<path fill="none" stroke="midnightblue" d="M247.49,-102.98C242.91,-93.82 237.55,-83.09 233.88,-75.75"/>
<polygon fill="midnightblue" stroke="midnightblue" points="244.44,-104.7 252.04,-112.08 250.7,-101.57 244.44,-104.7"/>
</g>
<!-- Node3&#45;&gt;Node7 -->
<g id="edge6" class="edge">
<title>Node3&#45;&gt;Node7</title>
<path fill="none" stroke="midnightblue" d="M293.76,-109.44C326.57,-99.26 373.58,-84.66 403.06,-75.52"/>
<polygon fill="midnightblue" stroke="midnightblue" points="292.58,-106.14 284.07,-112.44 294.66,-112.82 292.58,-106.14"/>
</g>
<!-- Node8 -->
<g id="node8" class="node">
<title>Node8</title>
<g id="a_node8"><a xlink:href="script__interface_2constraints_2Constraints_8hpp.html" target="_top" xlink:title=" ">
<polygon fill="none" stroke="black" points="281,-56.5 281,-75.5 374,-75.5 374,-56.5 281,-56.5"/>
<text text-anchor="middle" x="327.5" y="-63.5" font-family="Helvetica,sans-Serif" font-size="10.00">Constraints.hpp</text>
</a>
</g>
</g>
<!-- Node3&#45;&gt;Node8 -->
<g id="edge7" class="edge">
<title>Node3&#45;&gt;Node8</title>
<path fill="none" stroke="midnightblue" d="M276.09,-106.1C288.87,-96.38 305.11,-84.03 315.89,-75.83"/>
<polygon fill="midnightblue" stroke="midnightblue" points="273.75,-103.48 267.91,-112.32 277.99,-109.06 273.75,-103.48"/>
</g>
<!-- Node9 -->
<g id="node9" class="node">
<title>Node9</title>
<g id="a_node9"><a xlink:href="constraints_2initialize_8cpp.html" target="_top" xlink:title=" ">
<polygon fill="none" stroke="black" points="288,-0.5 288,-19.5 367,-19.5 367,-0.5 288,-0.5"/>
<text text-anchor="middle" x="327.5" y="-7.5" font-family="Helvetica,sans-Serif" font-size="10.00">initialize.cpp</text>
</a>
</g>
</g>
<!-- Node8&#45;&gt;Node9 -->
<g id="edge8" class="edge">
<title>Node8&#45;&gt;Node9</title>
<path fill="none" stroke="midnightblue" d="M327.5,-45.8C327.5,-36.91 327.5,-26.78 327.5,-19.75"/>
<polygon fill="midnightblue" stroke="midnightblue" points="324,-46.08 327.5,-56.08 331,-46.08 324,-46.08"/>
</g>
</g>
</svg>
