<?xml version="1.0" encoding="UTF-8" standalone="no"?>
<!DOCTYPE svg PUBLIC "-//W3C//DTD SVG 1.1//EN"
 "http://www.w3.org/Graphics/SVG/1.1/DTD/svg11.dtd">
<!-- Generated by graphviz version 2.43.0 (0)
 -->
<!-- Title: Writer::H5md::H5MD_Specification Pages: 1 -->
<svg width="164pt" height="352pt"
 viewBox="0.00 0.00 164.00 352.00" xmlns="http://www.w3.org/2000/svg" xmlns:xlink="http://www.w3.org/1999/xlink">
<g id="graph0" class="graph" transform="scale(1 1) rotate(0) translate(4 348)">
<title>Writer::H5md::H5MD_Specification</title>
<!-- Node1 -->
<g id="node1" class="node">
<title>Node1</title>
<g id="a_node1"><a xlink:title="Layout information for H5MD files.">
<polygon fill="#bfbfbf" stroke="black" points="19,-0.5 19,-30.5 137,-30.5 137,-0.5 19,-0.5"/>
<text text-anchor="start" x="27" y="-18.5" font-family="Helvetica,sans-Serif" font-size="10.00">Writer::H5md::H5MD</text>
<text text-anchor="middle" x="78" y="-7.5" font-family="Helvetica,sans-Serif" font-size="10.00">_Specification</text>
</a>
</g>
</g>
<!-- Node2 -->
<g id="node2" class="node">
<title>Node2</title>
<g id="a_node2"><a xlink:title=" ">
<polygon fill="none" stroke="#bfbfbf" points="0,-78.5 0,-119.5 156,-119.5 156,-78.5 0,-78.5"/>
<text text-anchor="start" x="8" y="-107.5" font-family="Helvetica,sans-Serif" font-size="10.00">std::array&lt; Writer</text>
<text text-anchor="start" x="8" y="-96.5" font-family="Helvetica,sans-Serif" font-size="10.00">::H5md::H5MD_Specification</text>
<text text-anchor="middle" x="78" y="-85.5" font-family="Helvetica,sans-Serif" font-size="10.00">::Dataset, 30 &gt;</text>
</a>
</g>
</g>
<!-- Node2&#45;&gt;Node1 -->
<g id="edge1" class="edge">
<title>Node2&#45;&gt;Node1</title>
<path fill="none" stroke="#9a32cd" stroke-dasharray="5,2" d="M78,-68.03C78,-55.26 78,-40.97 78,-30.68"/>
<polygon fill="#9a32cd" stroke="#9a32cd" points="74.5,-68.27 78,-78.27 81.5,-68.27 74.5,-68.27"/>
<text text-anchor="middle" x="104.5" y="-52" font-family="Helvetica,sans-Serif" font-size="10.00"> DATASETS</text>
</g>
<!-- Node3 -->
<g id="node3" class="node">
<title>Node3</title>
<g id="a_node3"><a xlink:href="structWriter_1_1H5md_1_1H5MD__Specification_1_1Dataset.html" target="_top" xlink:title=" ">
<polygon fill="none" stroke="black" points="13.5,-167.5 13.5,-197.5 142.5,-197.5 142.5,-167.5 13.5,-167.5"/>
<text text-anchor="start" x="21.5" y="-185.5" font-family="Helvetica,sans-Serif" font-size="10.00">Writer::H5md::H5MD</text>
<text text-anchor="middle" x="78" y="-174.5" font-family="Helvetica,sans-Serif" font-size="10.00">_Specification::Dataset</text>
</a>
</g>
</g>
<!-- Node3&#45;&gt;Node2 -->
<g id="edge2" class="edge">
<title>Node3&#45;&gt;Node2</title>
<path fill="none" stroke="#9a32cd" stroke-dasharray="5,2" d="M78,-157.07C78,-145.06 78,-130.79 78,-119.53"/>
<polygon fill="#9a32cd" stroke="#9a32cd" points="74.5,-157.3 78,-167.3 81.5,-157.3 74.5,-157.3"/>
<text text-anchor="middle" x="102.5" y="-141" font-family="Helvetica,sans-Serif" font-size="10.00"> elements</text>
</g>
<!-- Node4 -->
<g id="node4" class="node">
<title>Node4</title>
<g id="a_node4"><a xlink:title="STL class.">
<polygon fill="none" stroke="#bfbfbf" points="45.5,-256.5 45.5,-275.5 110.5,-275.5 110.5,-256.5 45.5,-256.5"/>
<text text-anchor="middle" x="78" y="-263.5" font-family="Helvetica,sans-Serif" font-size="10.00">std::string</text>
</a>
</g>
</g>
<!-- Node4&#45;&gt;Node3 -->
<g id="edge3" class="edge">
<title>Node4&#45;&gt;Node3</title>
<path fill="none" stroke="#9a32cd" stroke-dasharray="5,2" d="M78,-246.23C78,-231.41 78,-211.05 78,-197.6"/>
<polygon fill="#9a32cd" stroke="#9a32cd" points="74.5,-246.28 78,-256.28 81.5,-246.28 74.5,-246.28"/>
<text text-anchor="middle" x="93.5" y="-230" font-family="Helvetica,sans-Serif" font-size="10.00"> group</text>
<text text-anchor="middle" x="93.5" y="-219" font-family="Helvetica,sans-Serif" font-size="10.00">name</text>
</g>
<!-- Node5 -->
<g id="node5" class="node">
<title>Node5</title>
<g id="a_node5"><a xlink:title="STL class.">
<polygon fill="none" stroke="#bfbfbf" points="26,-313.5 26,-343.5 130,-343.5 130,-313.5 26,-313.5"/>
<text text-anchor="start" x="34" y="-331.5" font-family="Helvetica,sans-Serif" font-size="10.00">std::basic_string&lt;</text>
<text text-anchor="middle" x="78" y="-320.5" font-family="Helvetica,sans-Serif" font-size="10.00"> char &gt;</text>
</a>
</g>
</g>
<!-- Node5&#45;&gt;Node4 -->
<g id="edge4" class="edge">
<title>Node5&#45;&gt;Node4</title>
<path fill="none" stroke="midnightblue" d="M78,-303.35C78,-293.51 78,-282.78 78,-275.54"/>
<polygon fill="midnightblue" stroke="midnightblue" points="74.5,-303.47 78,-313.47 81.5,-303.47 74.5,-303.47"/>
</g>
</g>
</svg>
