<?xml version="1.0" encoding="UTF-8" standalone="no"?>
<!DOCTYPE svg PUBLIC "-//W3C//DTD SVG 1.1//EN"
 "http://www.w3.org/Graphics/SVG/1.1/DTD/svg11.dtd">
<!-- Generated by graphviz version 2.43.0 (0)
 -->
<!-- Title: Scafacos::ScafacosContextDipoles Pages: 1 -->
<svg width="308pt" height="151pt"
 viewBox="0.00 0.00 308.00 151.00" xmlns="http://www.w3.org/2000/svg" xmlns:xlink="http://www.w3.org/1999/xlink">
<g id="graph0" class="graph" transform="scale(1 1) rotate(0) translate(4 147)">
<title>Scafacos::ScafacosContextDipoles</title>
<!-- Node1 -->
<g id="node1" class="node">
<title>Node1</title>
<g id="a_node1"><a xlink:title=" ">
<polygon fill="#bfbfbf" stroke="black" points="91,-0.5 91,-30.5 239,-30.5 239,-0.5 91,-0.5"/>
<text text-anchor="start" x="99" y="-18.5" font-family="Helvetica,sans-Serif" font-size="10.00">Scafacos::ScafacosContext</text>
<text text-anchor="middle" x="165" y="-7.5" font-family="Helvetica,sans-Serif" font-size="10.00">Dipoles</text>
</a>
</g>
</g>
<!-- Node2 -->
<g id="node2" class="node">
<title>Node2</title>
<g id="a_node2"><a xlink:href="structScafacos_1_1ScafacosContext.html" target="_top" xlink:title="Encapsulation for the particle data needed by ScaFaCoS.">
<polygon fill="none" stroke="black" points="91,-67.5 91,-86.5 239,-86.5 239,-67.5 91,-67.5"/>
<text text-anchor="middle" x="165" y="-74.5" font-family="Helvetica,sans-Serif" font-size="10.00">Scafacos::ScafacosContext</text>
</a>
</g>
</g>
<!-- Node2&#45;&gt;Node1 -->
<g id="edge1" class="edge">
<title>Node2&#45;&gt;Node1</title>
<path fill="none" stroke="midnightblue" d="M165,-57.23C165,-48.59 165,-38.5 165,-30.52"/>
<polygon fill="midnightblue" stroke="midnightblue" points="161.5,-57.48 165,-67.48 168.5,-57.48 161.5,-57.48"/>
</g>
<!-- Node3 -->
<g id="node3" class="node">
<title>Node3</title>
<g id="a_node3"><a xlink:href="structScafacos_1_1ScafacosContextBase.html" target="_top" xlink:title="Public interface to the ScaFaCoS context.">
<polygon fill="none" stroke="black" points="0,-123.5 0,-142.5 172,-142.5 172,-123.5 0,-123.5"/>
<text text-anchor="middle" x="86" y="-130.5" font-family="Helvetica,sans-Serif" font-size="10.00">Scafacos::ScafacosContextBase</text>
</a>
</g>
</g>
<!-- Node3&#45;&gt;Node2 -->
<g id="edge2" class="edge">
<title>Node3&#45;&gt;Node2</title>
<path fill="none" stroke="midnightblue" d="M107.03,-117.62C121.47,-107.76 140.14,-94.99 152.34,-86.65"/>
<polygon fill="midnightblue" stroke="midnightblue" points="104.97,-114.79 98.69,-123.32 108.92,-120.57 104.97,-114.79"/>
</g>
<!-- Node4 -->
<g id="node4" class="node">
<title>Node4</title>
<g id="a_node4"><a xlink:href="structScafacos_1_1Scafacos.html" target="_top" xlink:title="Abstraction of a method from the scafacos library.">
<polygon fill="none" stroke="black" points="190,-123.5 190,-142.5 300,-142.5 300,-123.5 190,-123.5"/>
<text text-anchor="middle" x="245" y="-130.5" font-family="Helvetica,sans-Serif" font-size="10.00">Scafacos::Scafacos</text>
</a>
</g>
</g>
<!-- Node4&#45;&gt;Node2 -->
<g id="edge3" class="edge">
<title>Node4&#45;&gt;Node2</title>
<path fill="none" stroke="midnightblue" d="M223.7,-117.62C209.08,-107.76 190.17,-94.99 177.82,-86.65"/>
<polygon fill="midnightblue" stroke="midnightblue" points="221.9,-120.63 232.15,-123.32 225.82,-114.83 221.9,-120.63"/>
</g>
</g>
</svg>
