<?xml version="1.0" encoding="UTF-8" standalone="no"?>
<!DOCTYPE svg PUBLIC "-//W3C//DTD SVG 1.1//EN"
 "http://www.w3.org/Graphics/SVG/1.1/DTD/svg11.dtd">
<!-- Generated by graphviz version 2.43.0 (0)
 -->
<!-- Title: Scafacos::ScafacosContext Pages: 1 -->
<svg width="450pt" height="252pt"
 viewBox="0.00 0.00 450.00 252.00" xmlns="http://www.w3.org/2000/svg" xmlns:xlink="http://www.w3.org/1999/xlink">
<g id="graph0" class="graph" transform="scale(1 1) rotate(0) translate(4 248)">
<title>Scafacos::ScafacosContext</title>
<!-- Node1 -->
<g id="node1" class="node">
<title>Node1</title>
<g id="a_node1"><a xlink:title="Encapsulation for the particle data needed by ScaFaCoS.">
<polygon fill="#bfbfbf" stroke="black" points="171,-0.5 171,-19.5 319,-19.5 319,-0.5 171,-0.5"/>
<text text-anchor="middle" x="245" y="-7.5" font-family="Helvetica,sans-Serif" font-size="10.00">Scafacos::ScafacosContext</text>
</a>
</g>
</g>
<!-- Node2 -->
<g id="node2" class="node">
<title>Node2</title>
<g id="a_node2"><a xlink:href="structScafacos_1_1ScafacosContextBase.html" target="_top" xlink:title="Public interface to the ScaFaCoS context.">
<polygon fill="none" stroke="black" points="0,-78.5 0,-97.5 172,-97.5 172,-78.5 0,-78.5"/>
<text text-anchor="middle" x="86" y="-85.5" font-family="Helvetica,sans-Serif" font-size="10.00">Scafacos::ScafacosContextBase</text>
</a>
</g>
</g>
<!-- Node2&#45;&gt;Node1 -->
<g id="edge1" class="edge">
<title>Node2&#45;&gt;Node1</title>
<path fill="none" stroke="midnightblue" d="M113.29,-73.96C145.78,-58.43 199.11,-32.94 226.89,-19.66"/>
<polygon fill="midnightblue" stroke="midnightblue" points="111.44,-70.96 103.93,-78.43 114.46,-77.27 111.44,-70.96"/>
</g>
<!-- Node3 -->
<g id="node3" class="node">
<title>Node3</title>
<g id="a_node3"><a xlink:href="structScafacos_1_1Scafacos.html" target="_top" xlink:title="Abstraction of a method from the scafacos library.">
<polygon fill="none" stroke="black" points="190,-78.5 190,-97.5 300,-97.5 300,-78.5 190,-78.5"/>
<text text-anchor="middle" x="245" y="-85.5" font-family="Helvetica,sans-Serif" font-size="10.00">Scafacos::Scafacos</text>
</a>
</g>
</g>
<!-- Node3&#45;&gt;Node1 -->
<g id="edge2" class="edge">
<title>Node3&#45;&gt;Node1</title>
<path fill="none" stroke="midnightblue" d="M245,-68.22C245,-52.7 245,-31.36 245,-19.62"/>
<polygon fill="midnightblue" stroke="midnightblue" points="241.5,-68.28 245,-78.28 248.5,-68.28 241.5,-68.28"/>
</g>
<!-- Node4 -->
<g id="node4" class="node">
<title>Node4</title>
<g id="a_node4"><a xlink:title="STL class.">
<polygon fill="none" stroke="#bfbfbf" points="212.5,-156.5 212.5,-175.5 277.5,-175.5 277.5,-156.5 212.5,-156.5"/>
<text text-anchor="middle" x="245" y="-163.5" font-family="Helvetica,sans-Serif" font-size="10.00">std::string</text>
</a>
</g>
</g>
<!-- Node4&#45;&gt;Node3 -->
<g id="edge3" class="edge">
<title>Node4&#45;&gt;Node3</title>
<path fill="none" stroke="#9a32cd" stroke-dasharray="5,2" d="M245,-146.22C245,-130.7 245,-109.36 245,-97.62"/>
<polygon fill="#9a32cd" stroke="#9a32cd" points="241.5,-146.28 245,-156.28 248.5,-146.28 241.5,-146.28"/>
<text text-anchor="middle" x="294" y="-130" font-family="Helvetica,sans-Serif" font-size="10.00"> m_last_parameters</text>
<text text-anchor="middle" x="294" y="-119" font-family="Helvetica,sans-Serif" font-size="10.00">method</text>
</g>
<!-- Node5 -->
<g id="node5" class="node">
<title>Node5</title>
<g id="a_node5"><a xlink:title="STL class.">
<polygon fill="none" stroke="#bfbfbf" points="193,-213.5 193,-243.5 297,-243.5 297,-213.5 193,-213.5"/>
<text text-anchor="start" x="201" y="-231.5" font-family="Helvetica,sans-Serif" font-size="10.00">std::basic_string&lt;</text>
<text text-anchor="middle" x="245" y="-220.5" font-family="Helvetica,sans-Serif" font-size="10.00"> char &gt;</text>
</a>
</g>
</g>
<!-- Node5&#45;&gt;Node4 -->
<g id="edge4" class="edge">
<title>Node5&#45;&gt;Node4</title>
<path fill="none" stroke="midnightblue" d="M245,-203.35C245,-193.51 245,-182.78 245,-175.54"/>
<polygon fill="midnightblue" stroke="midnightblue" points="241.5,-203.47 245,-213.47 248.5,-203.47 241.5,-203.47"/>
</g>
<!-- Node6 -->
<g id="node6" class="node">
<title>Node6</title>
<g id="a_node6"><a xlink:title=" ">
<polygon fill="none" stroke="#bfbfbf" points="318,-78.5 318,-97.5 442,-97.5 442,-78.5 318,-78.5"/>
<text text-anchor="middle" x="380" y="-85.5" font-family="Helvetica,sans-Serif" font-size="10.00">std::vector&lt; double &gt;</text>
</a>
</g>
</g>
<!-- Node6&#45;&gt;Node1 -->
<g id="edge5" class="edge">
<title>Node6&#45;&gt;Node1</title>
<path fill="none" stroke="#9a32cd" stroke-dasharray="5,2" d="M355.75,-73.35C328.08,-57.77 283.66,-32.76 260.38,-19.66"/>
<polygon fill="#9a32cd" stroke="#9a32cd" points="354.35,-76.57 364.78,-78.43 357.78,-70.47 354.35,-76.57"/>
<text text-anchor="middle" x="355" y="-52" font-family="Helvetica,sans-Serif" font-size="10.00"> potentials</text>
<text text-anchor="middle" x="355" y="-41" font-family="Helvetica,sans-Serif" font-size="10.00">fields</text>
</g>
</g>
</svg>
