<?xml version="1.0" encoding="UTF-8" standalone="no"?>
<!DOCTYPE svg PUBLIC "-//W3C//DTD SVG 1.1//EN"
 "http://www.w3.org/Graphics/SVG/1.1/DTD/svg11.dtd">
<!-- Generated by graphviz version 2.43.0 (0)
 -->
<!-- Title: DomainDecomposition Pages: 1 -->
<svg width="1441pt" height="272pt"
 viewBox="0.00 0.00 1441.00 272.29" xmlns="http://www.w3.org/2000/svg" xmlns:xlink="http://www.w3.org/1999/xlink">
<g id="graph0" class="graph" transform="scale(1 1) rotate(0) translate(4 268.29)">
<title>DomainDecomposition</title>
<!-- Node1 -->
<g id="node1" class="node">
<title>Node1</title>
<g id="a_node1"><a xlink:title="Structure containing the information about the cell grid used for domain decomposition.">
<polygon fill="#bfbfbf" stroke="black" points="1305,-128.79 1305,-147.79 1433,-147.79 1433,-128.79 1305,-128.79"/>
<text text-anchor="middle" x="1369" y="-135.79" font-family="Helvetica,sans-Serif" font-size="10.00">DomainDecomposition</text>
</a>
</g>
</g>
<!-- Node2 -->
<g id="node2" class="node">
<title>Node2</title>
<g id="a_node2"><a xlink:href="classParticleDecomposition.html" target="_top" xlink:title="A distributed particle decomposition.">
<polygon fill="none" stroke="black" points="1006,-244.79 1006,-263.79 1133,-263.79 1133,-244.79 1006,-244.79"/>
<text text-anchor="middle" x="1069.5" y="-251.79" font-family="Helvetica,sans-Serif" font-size="10.00">ParticleDecomposition</text>
</a>
</g>
</g>
<!-- Node2&#45;&gt;Node1 -->
<g id="edge1" class="edge">
<title>Node2&#45;&gt;Node1</title>
<path fill="none" stroke="midnightblue" d="M1143.26,-259.55C1187.19,-259.66 1242.99,-254.2 1287,-231.29 1324.22,-211.9 1351.93,-167.69 1362.87,-148.02"/>
<polygon fill="midnightblue" stroke="midnightblue" points="1143.26,-256.05 1133.22,-259.42 1143.17,-263.04 1143.26,-256.05"/>
</g>
<!-- Node3 -->
<g id="node3" class="node">
<title>Node3</title>
<g id="a_node3"><a xlink:title=" ">
<polygon fill="none" stroke="#bfbfbf" points="1014.5,-206.79 1014.5,-225.79 1124.5,-225.79 1124.5,-206.79 1014.5,-206.79"/>
<text text-anchor="middle" x="1069.5" y="-213.79" font-family="Helvetica,sans-Serif" font-size="10.00">std::vector&lt; Cell &gt;</text>
</a>
</g>
</g>
<!-- Node3&#45;&gt;Node1 -->
<g id="edge2" class="edge">
<title>Node3&#45;&gt;Node1</title>
<path fill="none" stroke="#9a32cd" stroke-dasharray="5,2" d="M1134.65,-217.57C1178.74,-216.53 1237.94,-211.26 1287,-193.29 1315.09,-182.99 1342.84,-160.86 1357.44,-148.03"/>
<polygon fill="#9a32cd" stroke="#9a32cd" points="1134.57,-214.07 1124.63,-217.74 1134.69,-221.07 1134.57,-214.07"/>
<text text-anchor="middle" x="1219" y="-219.29" font-family="Helvetica,sans-Serif" font-size="10.00"> cells</text>
</g>
<!-- Node4 -->
<g id="node4" class="node">
<title>Node4</title>
<g id="a_node4"><a xlink:href="classCell.html" target="_top" xlink:title=" ">
<polygon fill="none" stroke="black" points="769,-187.79 769,-206.79 804,-206.79 804,-187.79 769,-187.79"/>
<text text-anchor="middle" x="786.5" y="-194.79" font-family="Helvetica,sans-Serif" font-size="10.00">Cell</text>
</a>
</g>
</g>
<!-- Node4&#45;&gt;Node3 -->
<g id="edge3" class="edge">
<title>Node4&#45;&gt;Node3</title>
<path fill="none" stroke="#9a32cd" stroke-dasharray="5,2" d="M814.28,-199.1C860.1,-202.19 954.4,-208.57 1014.38,-212.63"/>
<polygon fill="#9a32cd" stroke="#9a32cd" points="814.45,-195.6 804.24,-198.42 813.98,-202.58 814.45,-195.6"/>
<text text-anchor="middle" x="945.5" y="-213.29" font-family="Helvetica,sans-Serif" font-size="10.00"> elements</text>
</g>
<!-- Node9 -->
<g id="node9" class="node">
<title>Node9</title>
<g id="a_node9"><a xlink:title=" ">
<polygon fill="none" stroke="#bfbfbf" points="1010.5,-168.79 1010.5,-187.79 1128.5,-187.79 1128.5,-168.79 1010.5,-168.79"/>
<text text-anchor="middle" x="1069.5" y="-175.79" font-family="Helvetica,sans-Serif" font-size="10.00">std::vector&lt; Cell * &gt;</text>
</a>
</g>
</g>
<!-- Node4&#45;&gt;Node9 -->
<g id="edge9" class="edge">
<title>Node4&#45;&gt;Node9</title>
<path fill="none" stroke="#9a32cd" stroke-dasharray="5,2" d="M814.34,-195.47C859.17,-192.44 950.29,-186.28 1010.36,-182.22"/>
<polygon fill="#9a32cd" stroke="#9a32cd" points="813.98,-191.99 804.24,-196.15 814.45,-198.97 813.98,-191.99"/>
<text text-anchor="middle" x="945.5" y="-191.29" font-family="Helvetica,sans-Serif" font-size="10.00"> elements</text>
</g>
<!-- Node5 -->
<g id="node5" class="node">
<title>Node5</title>
<g id="a_node5"><a xlink:title=" ">
<polygon fill="none" stroke="#bfbfbf" points="439,-204.29 439,-234.29 585,-234.29 585,-204.29 439,-204.29"/>
<text text-anchor="start" x="447" y="-222.29" font-family="Helvetica,sans-Serif" font-size="10.00">std::vector&lt; std::pair</text>
<text text-anchor="middle" x="512" y="-211.29" font-family="Helvetica,sans-Serif" font-size="10.00">&lt; Particle *, Particle * &gt; &gt;</text>
</a>
</g>
</g>
<!-- Node5&#45;&gt;Node4 -->
<g id="edge4" class="edge">
<title>Node5&#45;&gt;Node4</title>
<path fill="none" stroke="#9a32cd" stroke-dasharray="5,2" d="M595.37,-212.64C656.64,-207.69 735.23,-201.34 768.94,-198.62"/>
<polygon fill="#9a32cd" stroke="#9a32cd" points="595,-209.15 585.31,-213.45 595.56,-216.13 595,-209.15"/>
<text text-anchor="middle" x="636.5" y="-214.29" font-family="Helvetica,sans-Serif" font-size="10.00"> m_verlet_list</text>
</g>
<!-- Node6 -->
<g id="node6" class="node">
<title>Node6</title>
<g id="a_node6"><a xlink:href="classNeighbors.html" target="_top" xlink:title=" ">
<polygon fill="none" stroke="black" points="454,-165.79 454,-184.79 570,-184.79 570,-165.79 454,-165.79"/>
<text text-anchor="middle" x="512" y="-172.79" font-family="Helvetica,sans-Serif" font-size="10.00">Neighbors&lt; Cell * &gt;</text>
</a>
</g>
</g>
<!-- Node6&#45;&gt;Node4 -->
<g id="edge5" class="edge">
<title>Node6&#45;&gt;Node4</title>
<path fill="none" stroke="#9a32cd" stroke-dasharray="5,2" d="M580.35,-180.72C643.12,-185.79 732.37,-193 768.92,-195.95"/>
<polygon fill="#9a32cd" stroke="#9a32cd" points="580.37,-177.21 570.12,-179.9 579.81,-184.19 580.37,-177.21"/>
<text text-anchor="middle" x="636.5" y="-190.29" font-family="Helvetica,sans-Serif" font-size="10.00"> m_neighbors</text>
</g>
<!-- Node7 -->
<g id="node7" class="node">
<title>Node7</title>
<g id="a_node7"><a xlink:href="classBoxGeometry.html" target="_top" xlink:title=" ">
<polygon fill="none" stroke="black" points="1027.5,-130.79 1027.5,-149.79 1111.5,-149.79 1111.5,-130.79 1027.5,-130.79"/>
<text text-anchor="middle" x="1069.5" y="-137.79" font-family="Helvetica,sans-Serif" font-size="10.00">BoxGeometry</text>
</a>
</g>
</g>
<!-- Node7&#45;&gt;Node1 -->
<g id="edge6" class="edge">
<title>Node7&#45;&gt;Node1</title>
<path fill="none" stroke="#9a32cd" stroke-dasharray="5,2" d="M1122.11,-139.58C1131.71,-139.47 1141.66,-139.37 1151,-139.29 1202.8,-138.84 1261.56,-138.59 1304.85,-138.45"/>
<polygon fill="#9a32cd" stroke="#9a32cd" points="1121.82,-136.09 1111.87,-139.71 1121.91,-143.09 1121.82,-136.09"/>
<text text-anchor="middle" x="1219" y="-142.29" font-family="Helvetica,sans-Serif" font-size="10.00"> m_box</text>
</g>
<!-- Node8 -->
<g id="node8" class="node">
<title>Node8</title>
<g id="a_node8"><a xlink:title=" ">
<polygon fill="none" stroke="#bfbfbf" points="743,-80.79 743,-99.79 830,-99.79 830,-80.79 743,-80.79"/>
<text text-anchor="middle" x="786.5" y="-87.79" font-family="Helvetica,sans-Serif" font-size="10.00">communicator</text>
</a>
</g>
</g>
<!-- Node8&#45;&gt;Node1 -->
<g id="edge7" class="edge">
<title>Node8&#45;&gt;Node1</title>
<path fill="none" stroke="#9a32cd" stroke-dasharray="5,2" d="M840.12,-92.34C907.92,-95.21 1029.39,-101.12 1133,-110.29 1191.32,-115.44 1257.53,-123.53 1304.77,-129.7"/>
<polygon fill="#9a32cd" stroke="#9a32cd" points="840.25,-88.84 830.11,-91.92 839.96,-95.83 840.25,-88.84"/>
<text text-anchor="middle" x="1069.5" y="-113.29" font-family="Helvetica,sans-Serif" font-size="10.00"> m_comm</text>
</g>
<!-- Node11 -->
<g id="node11" class="node">
<title>Node11</title>
<g id="a_node11"><a xlink:href="structGhostCommunicator.html" target="_top" xlink:title="Properties for a ghost communication.">
<polygon fill="none" stroke="black" points="1011,-44.79 1011,-63.79 1128,-63.79 1128,-44.79 1011,-44.79"/>
<text text-anchor="middle" x="1069.5" y="-51.79" font-family="Helvetica,sans-Serif" font-size="10.00">GhostCommunicator</text>
</a>
</g>
</g>
<!-- Node8&#45;&gt;Node11 -->
<g id="edge12" class="edge">
<title>Node8&#45;&gt;Node11</title>
<path fill="none" stroke="#9a32cd" stroke-dasharray="5,2" d="M840.17,-83.54C888.73,-77.32 960.67,-68.1 1010.77,-61.68"/>
<polygon fill="#9a32cd" stroke="#9a32cd" points="839.65,-80.08 830.18,-84.82 840.54,-87.02 839.65,-80.08"/>
<text text-anchor="middle" x="945.5" y="-77.29" font-family="Helvetica,sans-Serif" font-size="10.00"> mpi_comm</text>
</g>
<!-- Node9&#45;&gt;Node1 -->
<g id="edge8" class="edge">
<title>Node9&#45;&gt;Node1</title>
<path fill="none" stroke="#9a32cd" stroke-dasharray="5,2" d="M1138.87,-169.77C1181.5,-164.38 1237.48,-157.16 1287,-150.29 1292.77,-149.48 1298.77,-148.63 1304.78,-147.77"/>
<polygon fill="#9a32cd" stroke="#9a32cd" points="1138.37,-166.31 1128.89,-171.03 1139.25,-173.25 1138.37,-166.31"/>
<text text-anchor="middle" x="1219" y="-181.29" font-family="Helvetica,sans-Serif" font-size="10.00"> m_ghost_cells</text>
<text text-anchor="middle" x="1219" y="-170.29" font-family="Helvetica,sans-Serif" font-size="10.00">m_local_cells</text>
</g>
<!-- Node10 -->
<g id="node10" class="node">
<title>Node10</title>
<g id="a_node10"><a xlink:href="classLocalBox.html" target="_top" xlink:title=" ">
<polygon fill="none" stroke="black" points="1011.5,-6.79 1011.5,-25.79 1127.5,-25.79 1127.5,-6.79 1011.5,-6.79"/>
<text text-anchor="middle" x="1069.5" y="-13.79" font-family="Helvetica,sans-Serif" font-size="10.00">LocalBox&lt; double &gt;</text>
</a>
</g>
</g>
<!-- Node10&#45;&gt;Node1 -->
<g id="edge10" class="edge">
<title>Node10&#45;&gt;Node1</title>
<path fill="none" stroke="#9a32cd" stroke-dasharray="5,2" d="M1123.33,-5.09C1169.39,1.85 1236.54,4.92 1287,-22.29 1330.89,-45.95 1356.11,-105.02 1364.67,-128.47"/>
<polygon fill="#9a32cd" stroke="#9a32cd" points="1122.57,-1.66 1113.26,-6.71 1123.69,-8.57 1122.57,-1.66"/>
<text text-anchor="middle" x="1219" y="-25.29" font-family="Helvetica,sans-Serif" font-size="10.00"> m_local_box</text>
</g>
<!-- Node11&#45;&gt;Node1 -->
<g id="edge11" class="edge">
<title>Node11&#45;&gt;Node1</title>
<path fill="none" stroke="#9a32cd" stroke-dasharray="5,2" d="M1123.46,-43.09C1168.76,-36.08 1234.74,-32.08 1287,-54.29 1323.17,-69.66 1351.04,-109.97 1362.41,-128.6"/>
<polygon fill="#9a32cd" stroke="#9a32cd" points="1122.85,-39.65 1113.55,-44.73 1123.98,-46.55 1122.85,-39.65"/>
<text text-anchor="start" x="1151" y="-79.29" font-family="Helvetica,sans-Serif" font-size="10.00"> m_collect_ghost_force</text>
<text text-anchor="middle" x="1219" y="-68.29" font-family="Helvetica,sans-Serif" font-size="10.00">_comm</text>
<text text-anchor="middle" x="1219" y="-57.29" font-family="Helvetica,sans-Serif" font-size="10.00">m_exchange_ghosts_comm</text>
</g>
<!-- Node12 -->
<g id="node12" class="node">
<title>Node12</title>
<g id="a_node12"><a xlink:title=" ">
<polygon fill="none" stroke="#bfbfbf" points="688,-31.79 688,-50.79 885,-50.79 885,-31.79 688,-31.79"/>
<text text-anchor="middle" x="786.5" y="-38.79" font-family="Helvetica,sans-Serif" font-size="10.00">std::vector&lt; GhostCommunication &gt;</text>
</a>
</g>
</g>
<!-- Node12&#45;&gt;Node11 -->
<g id="edge13" class="edge">
<title>Node12&#45;&gt;Node11</title>
<path fill="none" stroke="#9a32cd" stroke-dasharray="5,2" d="M895.1,-38.99C925.2,-39.12 957.91,-39.98 988,-42.29 995.61,-42.87 1003.59,-43.74 1011.44,-44.75"/>
<polygon fill="#9a32cd" stroke="#9a32cd" points="895.01,-35.49 885,-38.98 895,-42.49 895.01,-35.49"/>
<text text-anchor="middle" x="945.5" y="-45.29" font-family="Helvetica,sans-Serif" font-size="10.00"> communications</text>
</g>
<!-- Node13 -->
<g id="node13" class="node">
<title>Node13</title>
<g id="a_node13"><a xlink:href="structGhostCommunication.html" target="_top" xlink:title=" ">
<polygon fill="none" stroke="black" points="451,-31.79 451,-50.79 573,-50.79 573,-31.79 451,-31.79"/>
<text text-anchor="middle" x="512" y="-38.79" font-family="Helvetica,sans-Serif" font-size="10.00">GhostCommunication</text>
</a>
</g>
</g>
<!-- Node13&#45;&gt;Node12 -->
<g id="edge14" class="edge">
<title>Node13&#45;&gt;Node12</title>
<path fill="none" stroke="#9a32cd" stroke-dasharray="5,2" d="M583.24,-41.29C615.06,-41.29 653.22,-41.29 687.78,-41.29"/>
<polygon fill="#9a32cd" stroke="#9a32cd" points="583.14,-37.79 573.14,-41.29 583.14,-44.79 583.14,-37.79"/>
<text text-anchor="middle" x="636.5" y="-44.29" font-family="Helvetica,sans-Serif" font-size="10.00"> elements</text>
</g>
<!-- Node14 -->
<g id="node14" class="node">
<title>Node14</title>
<g id="a_node14"><a xlink:title=" ">
<polygon fill="none" stroke="#bfbfbf" points="208,-26.29 208,-56.29 354,-56.29 354,-26.29 208,-26.29"/>
<text text-anchor="start" x="216" y="-44.29" font-family="Helvetica,sans-Serif" font-size="10.00">std::vector&lt; Bag&lt; Particle</text>
<text text-anchor="middle" x="281" y="-33.29" font-family="Helvetica,sans-Serif" font-size="10.00"> &gt; * &gt;</text>
</a>
</g>
</g>
<!-- Node14&#45;&gt;Node13 -->
<g id="edge15" class="edge">
<title>Node14&#45;&gt;Node13</title>
<path fill="none" stroke="#9a32cd" stroke-dasharray="5,2" d="M364.5,-41.29C393,-41.29 424.37,-41.29 450.75,-41.29"/>
<polygon fill="#9a32cd" stroke="#9a32cd" points="364.14,-37.79 354.14,-41.29 364.14,-44.79 364.14,-37.79"/>
<text text-anchor="middle" x="396.5" y="-44.29" font-family="Helvetica,sans-Serif" font-size="10.00"> part_lists</text>
</g>
<!-- Node15 -->
<g id="node15" class="node">
<title>Node15</title>
<g id="a_node15"><a xlink:href="classUtils_1_1Bag.html" target="_top" xlink:title=" ">
<polygon fill="none" stroke="black" points="0,-31.79 0,-50.79 123,-50.79 123,-31.79 0,-31.79"/>
<text text-anchor="middle" x="61.5" y="-38.79" font-family="Helvetica,sans-Serif" font-size="10.00">Utils::Bag&lt; Particle &gt;</text>
</a>
</g>
</g>
<!-- Node15&#45;&gt;Node14 -->
<g id="edge16" class="edge">
<title>Node15&#45;&gt;Node14</title>
<path fill="none" stroke="#9a32cd" stroke-dasharray="5,2" d="M133.14,-41.29C157.04,-41.29 183.76,-41.29 207.78,-41.29"/>
<polygon fill="#9a32cd" stroke="#9a32cd" points="133.09,-37.79 123.09,-41.29 133.09,-44.79 133.09,-37.79"/>
<text text-anchor="middle" x="165.5" y="-44.29" font-family="Helvetica,sans-Serif" font-size="10.00"> elements</text>
</g>
</g>
</svg>
