<?xml version="1.0" encoding="UTF-8" standalone="no"?>
<!DOCTYPE svg PUBLIC "-//W3C//DTD SVG 1.1//EN"
 "http://www.w3.org/Graphics/SVG/1.1/DTD/svg11.dtd">
<!-- Generated by graphviz version 2.43.0 (0)
 -->
<!-- Title: Scafacos::ScafacosContextCoulomb Pages: 1 -->
<svg width="450pt" height="320pt"
 viewBox="0.00 0.00 450.00 320.00" xmlns="http://www.w3.org/2000/svg" xmlns:xlink="http://www.w3.org/1999/xlink">
<g id="graph0" class="graph" transform="scale(1 1) rotate(0) translate(4 316)">
<title>Scafacos::ScafacosContextCoulomb</title>
<!-- Node1 -->
<g id="node1" class="node">
<title>Node1</title>
<g id="a_node1"><a xlink:title=" ">
<polygon fill="#bfbfbf" stroke="black" points="171,-0.5 171,-30.5 319,-30.5 319,-0.5 171,-0.5"/>
<text text-anchor="start" x="179" y="-18.5" font-family="Helvetica,sans-Serif" font-size="10.00">Scafacos::ScafacosContext</text>
<text text-anchor="middle" x="245" y="-7.5" font-family="Helvetica,sans-Serif" font-size="10.00">Coulomb</text>
</a>
</g>
</g>
<!-- Node2 -->
<g id="node2" class="node">
<title>Node2</title>
<g id="a_node2"><a xlink:href="structScafacos_1_1ScafacosContext.html" target="_top" xlink:title="Encapsulation for the particle data needed by ScaFaCoS.">
<polygon fill="none" stroke="black" points="171,-68.5 171,-87.5 319,-87.5 319,-68.5 171,-68.5"/>
<text text-anchor="middle" x="245" y="-75.5" font-family="Helvetica,sans-Serif" font-size="10.00">Scafacos::ScafacosContext</text>
</a>
</g>
</g>
<!-- Node2&#45;&gt;Node1 -->
<g id="edge1" class="edge">
<title>Node2&#45;&gt;Node1</title>
<path fill="none" stroke="midnightblue" d="M245,-58.22C245,-49.36 245,-38.96 245,-30.76"/>
<polygon fill="midnightblue" stroke="midnightblue" points="241.5,-58.33 245,-68.33 248.5,-58.33 241.5,-58.33"/>
</g>
<!-- Node3 -->
<g id="node3" class="node">
<title>Node3</title>
<g id="a_node3"><a xlink:href="structScafacos_1_1ScafacosContextBase.html" target="_top" xlink:title="Public interface to the ScaFaCoS context.">
<polygon fill="none" stroke="black" points="0,-146.5 0,-165.5 172,-165.5 172,-146.5 0,-146.5"/>
<text text-anchor="middle" x="86" y="-153.5" font-family="Helvetica,sans-Serif" font-size="10.00">Scafacos::ScafacosContextBase</text>
</a>
</g>
</g>
<!-- Node3&#45;&gt;Node2 -->
<g id="edge2" class="edge">
<title>Node3&#45;&gt;Node2</title>
<path fill="none" stroke="midnightblue" d="M113.29,-141.96C145.78,-126.43 199.11,-100.94 226.89,-87.66"/>
<polygon fill="midnightblue" stroke="midnightblue" points="111.44,-138.96 103.93,-146.43 114.46,-145.27 111.44,-138.96"/>
</g>
<!-- Node4 -->
<g id="node4" class="node">
<title>Node4</title>
<g id="a_node4"><a xlink:href="structScafacos_1_1Scafacos.html" target="_top" xlink:title="Abstraction of a method from the scafacos library.">
<polygon fill="none" stroke="black" points="190,-146.5 190,-165.5 300,-165.5 300,-146.5 190,-146.5"/>
<text text-anchor="middle" x="245" y="-153.5" font-family="Helvetica,sans-Serif" font-size="10.00">Scafacos::Scafacos</text>
</a>
</g>
</g>
<!-- Node4&#45;&gt;Node2 -->
<g id="edge3" class="edge">
<title>Node4&#45;&gt;Node2</title>
<path fill="none" stroke="midnightblue" d="M245,-136.22C245,-120.7 245,-99.36 245,-87.62"/>
<polygon fill="midnightblue" stroke="midnightblue" points="241.5,-136.28 245,-146.28 248.5,-136.28 241.5,-136.28"/>
</g>
<!-- Node5 -->
<g id="node5" class="node">
<title>Node5</title>
<g id="a_node5"><a xlink:title="STL class.">
<polygon fill="none" stroke="#bfbfbf" points="212.5,-224.5 212.5,-243.5 277.5,-243.5 277.5,-224.5 212.5,-224.5"/>
<text text-anchor="middle" x="245" y="-231.5" font-family="Helvetica,sans-Serif" font-size="10.00">std::string</text>
</a>
</g>
</g>
<!-- Node5&#45;&gt;Node4 -->
<g id="edge4" class="edge">
<title>Node5&#45;&gt;Node4</title>
<path fill="none" stroke="#9a32cd" stroke-dasharray="5,2" d="M245,-214.22C245,-198.7 245,-177.36 245,-165.62"/>
<polygon fill="#9a32cd" stroke="#9a32cd" points="241.5,-214.28 245,-224.28 248.5,-214.28 241.5,-214.28"/>
<text text-anchor="middle" x="294" y="-198" font-family="Helvetica,sans-Serif" font-size="10.00"> m_last_parameters</text>
<text text-anchor="middle" x="294" y="-187" font-family="Helvetica,sans-Serif" font-size="10.00">method</text>
</g>
<!-- Node6 -->
<g id="node6" class="node">
<title>Node6</title>
<g id="a_node6"><a xlink:title="STL class.">
<polygon fill="none" stroke="#bfbfbf" points="193,-281.5 193,-311.5 297,-311.5 297,-281.5 193,-281.5"/>
<text text-anchor="start" x="201" y="-299.5" font-family="Helvetica,sans-Serif" font-size="10.00">std::basic_string&lt;</text>
<text text-anchor="middle" x="245" y="-288.5" font-family="Helvetica,sans-Serif" font-size="10.00"> char &gt;</text>
</a>
</g>
</g>
<!-- Node6&#45;&gt;Node5 -->
<g id="edge5" class="edge">
<title>Node6&#45;&gt;Node5</title>
<path fill="none" stroke="midnightblue" d="M245,-271.35C245,-261.51 245,-250.78 245,-243.54"/>
<polygon fill="midnightblue" stroke="midnightblue" points="241.5,-271.47 245,-281.47 248.5,-271.47 241.5,-271.47"/>
</g>
<!-- Node7 -->
<g id="node7" class="node">
<title>Node7</title>
<g id="a_node7"><a xlink:title=" ">
<polygon fill="none" stroke="#bfbfbf" points="318,-146.5 318,-165.5 442,-165.5 442,-146.5 318,-146.5"/>
<text text-anchor="middle" x="380" y="-153.5" font-family="Helvetica,sans-Serif" font-size="10.00">std::vector&lt; double &gt;</text>
</a>
</g>
</g>
<!-- Node7&#45;&gt;Node2 -->
<g id="edge6" class="edge">
<title>Node7&#45;&gt;Node2</title>
<path fill="none" stroke="#9a32cd" stroke-dasharray="5,2" d="M355.75,-141.35C328.08,-125.77 283.66,-100.76 260.38,-87.66"/>
<polygon fill="#9a32cd" stroke="#9a32cd" points="354.35,-144.57 364.78,-146.43 357.78,-138.47 354.35,-144.57"/>
<text text-anchor="middle" x="355" y="-120" font-family="Helvetica,sans-Serif" font-size="10.00"> potentials</text>
<text text-anchor="middle" x="355" y="-109" font-family="Helvetica,sans-Serif" font-size="10.00">fields</text>
</g>
</g>
</svg>
