<?xml version="1.0" encoding="UTF-8" standalone="no"?>
<!DOCTYPE svg PUBLIC "-//W3C//DTD SVG 1.1//EN"
 "http://www.w3.org/Graphics/SVG/1.1/DTD/svg11.dtd">
<!-- Generated by graphviz version 2.43.0 (0)
 -->
<!-- Title: SystemInterface.cpp Pages: 1 -->
<svg width="1279pt" height="319pt"
 viewBox="0.00 0.00 1279.00 319.00" xmlns="http://www.w3.org/2000/svg" xmlns:xlink="http://www.w3.org/1999/xlink">
<g id="graph0" class="graph" transform="scale(1 1) rotate(0) translate(4 315)">
<title>SystemInterface.cpp</title>
<!-- Node1 -->
<g id="node1" class="node">
<title>Node1</title>
<g id="a_node1"><a xlink:title=" ">
<polygon fill="#bfbfbf" stroke="black" points="39.5,-291.5 39.5,-310.5 156.5,-310.5 156.5,-291.5 39.5,-291.5"/>
<text text-anchor="middle" x="98" y="-298.5" font-family="Helvetica,sans-Serif" font-size="10.00">SystemInterface.cpp</text>
</a>
</g>
</g>
<!-- Node2 -->
<g id="node2" class="node">
<title>Node2</title>
<g id="a_node2"><a xlink:href="SystemInterface_8hpp.html" target="_top" xlink:title=" ">
<polygon fill="none" stroke="black" points="83,-235.5 83,-254.5 201,-254.5 201,-235.5 83,-235.5"/>
<text text-anchor="middle" x="142" y="-242.5" font-family="Helvetica,sans-Serif" font-size="10.00">SystemInterface.hpp</text>
</a>
</g>
</g>
<!-- Node1&#45;&gt;Node2 -->
<g id="edge1" class="edge">
<title>Node1&#45;&gt;Node2</title>
<path fill="none" stroke="midnightblue" d="M105.27,-291.08C111.54,-283.38 120.79,-272.03 128.43,-262.65"/>
<polygon fill="midnightblue" stroke="midnightblue" points="131.27,-264.71 134.87,-254.75 125.84,-260.29 131.27,-264.71"/>
</g>
<!-- Node3 -->
<g id="node3" class="node">
<title>Node3</title>
<g id="a_node3"><a xlink:href="config_8hpp.html" target="_top" xlink:title=" ">
<polygon fill="none" stroke="black" points="22,-179.5 22,-198.5 90,-198.5 90,-179.5 22,-179.5"/>
<text text-anchor="middle" x="56" y="-186.5" font-family="Helvetica,sans-Serif" font-size="10.00">config.hpp</text>
</a>
</g>
</g>
<!-- Node1&#45;&gt;Node3 -->
<g id="edge30" class="edge">
<title>Node1&#45;&gt;Node3</title>
<path fill="none" stroke="midnightblue" d="M92.62,-291.31C87.32,-282.44 79.26,-268.16 74,-255 67.89,-239.71 63.06,-221.6 59.95,-208.39"/>
<polygon fill="midnightblue" stroke="midnightblue" points="63.36,-207.6 57.75,-198.61 56.53,-209.13 63.36,-207.6"/>
</g>
<!-- Node2&#45;&gt;Node3 -->
<g id="edge2" class="edge">
<title>Node2&#45;&gt;Node3</title>
<path fill="none" stroke="midnightblue" d="M128.18,-235.32C114.77,-226.9 94.18,-213.97 78.41,-204.07"/>
<polygon fill="midnightblue" stroke="midnightblue" points="80.11,-201.01 69.78,-198.65 76.39,-206.94 80.11,-201.01"/>
</g>
<!-- Node5 -->
<g id="node5" class="node">
<title>Node5</title>
<g id="a_node5"><a xlink:href="Vector_8hpp.html" target="_top" xlink:title=" ">
<polygon fill="none" stroke="black" points="560.5,-179.5 560.5,-198.5 653.5,-198.5 653.5,-179.5 560.5,-179.5"/>
<text text-anchor="middle" x="607" y="-186.5" font-family="Helvetica,sans-Serif" font-size="10.00">utils/Vector.hpp</text>
</a>
</g>
</g>
<!-- Node2&#45;&gt;Node5 -->
<g id="edge4" class="edge">
<title>Node2&#45;&gt;Node5</title>
<path fill="none" stroke="midnightblue" d="M201.36,-237.11C291.45,-226.64 461.54,-206.89 550.12,-196.61"/>
<polygon fill="midnightblue" stroke="midnightblue" points="550.72,-200.06 560.25,-195.43 549.91,-193.11 550.72,-200.06"/>
</g>
<!-- Node12 -->
<g id="node12" class="node">
<title>Node12</title>
<g id="a_node12"><a xlink:title=" ">
<polygon fill="none" stroke="#bfbfbf" points="231.5,-0.5 231.5,-19.5 284.5,-19.5 284.5,-0.5 231.5,-0.5"/>
<text text-anchor="middle" x="258" y="-7.5" font-family="Helvetica,sans-Serif" font-size="10.00">cstddef</text>
</a>
</g>
</g>
<!-- Node2&#45;&gt;Node12 -->
<g id="edge29" class="edge">
<title>Node2&#45;&gt;Node12</title>
<path fill="none" stroke="midnightblue" d="M142.22,-235.24C143.36,-206.73 150.23,-114.98 192,-56 201.42,-42.7 216.09,-32.13 229.21,-24.59"/>
<polygon fill="midnightblue" stroke="midnightblue" points="231.26,-27.46 238.4,-19.63 227.93,-21.3 231.26,-27.46"/>
</g>
<!-- Node4 -->
<g id="node4" class="node">
<title>Node4</title>
<g id="a_node4"><a xlink:title=" ">
<polygon fill="none" stroke="#bfbfbf" points="0,-123.5 0,-142.5 112,-142.5 112,-123.5 0,-123.5"/>
<text text-anchor="middle" x="56" y="-130.5" font-family="Helvetica,sans-Serif" font-size="10.00">config&#45;features.hpp</text>
</a>
</g>
</g>
<!-- Node3&#45;&gt;Node4 -->
<g id="edge3" class="edge">
<title>Node3&#45;&gt;Node4</title>
<path fill="none" stroke="midnightblue" d="M56,-179.08C56,-172.01 56,-161.86 56,-152.99"/>
<polygon fill="midnightblue" stroke="midnightblue" points="59.5,-152.75 56,-142.75 52.5,-152.75 59.5,-152.75"/>
</g>
<!-- Node6 -->
<g id="node6" class="node">
<title>Node6</title>
<g id="a_node6"><a xlink:title=" ">
<polygon fill="none" stroke="#bfbfbf" points="1121,-123.5 1121,-142.5 1271,-142.5 1271,-123.5 1121,-123.5"/>
<text text-anchor="middle" x="1196" y="-130.5" font-family="Helvetica,sans-Serif" font-size="10.00">boost/qvm/deduce_vec.hpp</text>
</a>
</g>
</g>
<!-- Node5&#45;&gt;Node6 -->
<g id="edge5" class="edge">
<title>Node5&#45;&gt;Node6</title>
<path fill="none" stroke="midnightblue" d="M653.55,-183.98C741.94,-176.32 940.2,-158.94 1107,-143 1108.12,-142.89 1109.25,-142.78 1110.38,-142.68"/>
<polygon fill="midnightblue" stroke="midnightblue" points="1111.13,-146.12 1120.74,-141.67 1110.45,-139.15 1111.13,-146.12"/>
</g>
<!-- Node7 -->
<g id="node7" class="node">
<title>Node7</title>
<g id="a_node7"><a xlink:title=" ">
<polygon fill="none" stroke="#bfbfbf" points="766,-123.5 766,-142.5 906,-142.5 906,-123.5 766,-123.5"/>
<text text-anchor="middle" x="836" y="-130.5" font-family="Helvetica,sans-Serif" font-size="10.00">boost/qvm/vec_traits.hpp</text>
</a>
</g>
</g>
<!-- Node5&#45;&gt;Node7 -->
<g id="edge6" class="edge">
<title>Node5&#45;&gt;Node7</title>
<path fill="none" stroke="midnightblue" d="M643.29,-179.44C682.98,-170.08 746.71,-155.06 789.91,-144.87"/>
<polygon fill="midnightblue" stroke="midnightblue" points="790.95,-148.22 799.88,-142.52 789.35,-141.41 790.95,-148.22"/>
</g>
<!-- Node8 -->
<g id="node8" class="node">
<title>Node8</title>
<g id="a_node8"><a xlink:href="Array_8hpp.html" target="_top" xlink:title=" ">
<polygon fill="none" stroke="black" points="924,-123.5 924,-142.5 1010,-142.5 1010,-123.5 924,-123.5"/>
<text text-anchor="middle" x="967" y="-130.5" font-family="Helvetica,sans-Serif" font-size="10.00">utils/Array.hpp</text>
</a>
</g>
</g>
<!-- Node5&#45;&gt;Node8 -->
<g id="edge7" class="edge">
<title>Node5&#45;&gt;Node8</title>
<path fill="none" stroke="midnightblue" d="M653.76,-181.56C712.16,-173.43 815.4,-158.77 913.77,-143.16"/>
<polygon fill="midnightblue" stroke="midnightblue" points="914.56,-146.58 923.88,-141.55 913.46,-139.67 914.56,-146.58"/>
</g>
<!-- Node10 -->
<g id="node10" class="node">
<title>Node10</title>
<g id="a_node10"><a xlink:title=" ">
<polygon fill="none" stroke="#bfbfbf" points="957,-0.5 957,-19.5 1009,-19.5 1009,-0.5 957,-0.5"/>
<text text-anchor="middle" x="983" y="-7.5" font-family="Helvetica,sans-Serif" font-size="10.00">cassert</text>
</a>
</g>
</g>
<!-- Node5&#45;&gt;Node10 -->
<g id="edge20" class="edge">
<title>Node5&#45;&gt;Node10</title>
<path fill="none" stroke="midnightblue" d="M653.72,-188.2C751.88,-187.83 975.67,-182.53 1039,-143 1074.36,-120.93 1095.99,-91.41 1074,-56 1061.99,-36.66 1038.93,-25.38 1019.03,-18.95"/>
<polygon fill="midnightblue" stroke="midnightblue" points="1019.86,-15.55 1009.28,-16.09 1017.89,-22.26 1019.86,-15.55"/>
</g>
<!-- Node5&#45;&gt;Node12 -->
<g id="edge22" class="edge">
<title>Node5&#45;&gt;Node12</title>
<path fill="none" stroke="midnightblue" d="M560.27,-186.3C458.06,-182.1 221.84,-169.6 198,-143 166.5,-107.85 213.33,-53.38 240.64,-26.75"/>
<polygon fill="midnightblue" stroke="midnightblue" points="243.21,-29.14 248.07,-19.72 238.4,-24.05 243.21,-29.14"/>
</g>
<!-- Node15 -->
<g id="node15" class="node">
<title>Node15</title>
<g id="a_node15"><a xlink:title=" ">
<polygon fill="none" stroke="#bfbfbf" points="1011.5,-62 1011.5,-81 1064.5,-81 1064.5,-62 1011.5,-62"/>
<text text-anchor="middle" x="1038" y="-69" font-family="Helvetica,sans-Serif" font-size="10.00">iterator</text>
</a>
</g>
</g>
<!-- Node5&#45;&gt;Node15 -->
<g id="edge25" class="edge">
<title>Node5&#45;&gt;Node15</title>
<path fill="none" stroke="midnightblue" d="M653.6,-185.84C755.58,-180.7 991.67,-166.4 1019,-143 1033.72,-130.39 1037.64,-107.7 1038.4,-91.46"/>
<polygon fill="midnightblue" stroke="midnightblue" points="1041.9,-91.05 1038.51,-81.02 1034.91,-90.98 1041.9,-91.05"/>
</g>
<!-- Node18 -->
<g id="node18" class="node">
<title>Node18</title>
<g id="a_node18"><a xlink:title=" ">
<polygon fill="none" stroke="#bfbfbf" points="207,-123.5 207,-142.5 271,-142.5 271,-123.5 207,-123.5"/>
<text text-anchor="middle" x="239" y="-130.5" font-family="Helvetica,sans-Serif" font-size="10.00">algorithm</text>
</a>
</g>
</g>
<!-- Node5&#45;&gt;Node18 -->
<g id="edge19" class="edge">
<title>Node5&#45;&gt;Node18</title>
<path fill="none" stroke="midnightblue" d="M560.25,-182.75C498.61,-175.56 386.57,-161.61 281.34,-143.12"/>
<polygon fill="midnightblue" stroke="midnightblue" points="281.64,-139.62 271.18,-141.32 280.42,-146.51 281.64,-139.62"/>
</g>
<!-- Node19 -->
<g id="node19" class="node">
<title>Node19</title>
<g id="a_node19"><a xlink:title=" ">
<polygon fill="none" stroke="#bfbfbf" points="289.5,-123.5 289.5,-142.5 336.5,-142.5 336.5,-123.5 289.5,-123.5"/>
<text text-anchor="middle" x="313" y="-130.5" font-family="Helvetica,sans-Serif" font-size="10.00">cmath</text>
</a>
</g>
</g>
<!-- Node5&#45;&gt;Node19 -->
<g id="edge21" class="edge">
<title>Node5&#45;&gt;Node19</title>
<path fill="none" stroke="midnightblue" d="M560.33,-181.48C509.87,-174.1 426.89,-161.01 346.93,-143.26"/>
<polygon fill="midnightblue" stroke="midnightblue" points="347.22,-139.74 336.7,-140.96 345.68,-146.57 347.22,-139.74"/>
</g>
<!-- Node20 -->
<g id="node20" class="node">
<title>Node20</title>
<g id="a_node20"><a xlink:title=" ">
<polygon fill="none" stroke="#bfbfbf" points="354.5,-123.5 354.5,-142.5 419.5,-142.5 419.5,-123.5 354.5,-123.5"/>
<text text-anchor="middle" x="387" y="-130.5" font-family="Helvetica,sans-Serif" font-size="10.00">functional</text>
</a>
</g>
</g>
<!-- Node5&#45;&gt;Node20 -->
<g id="edge23" class="edge">
<title>Node5&#45;&gt;Node20</title>
<path fill="none" stroke="midnightblue" d="M572.14,-179.44C533.41,-169.94 470.88,-154.59 429.36,-144.4"/>
<polygon fill="midnightblue" stroke="midnightblue" points="430.09,-140.97 419.54,-141.99 428.42,-147.77 430.09,-140.97"/>
</g>
<!-- Node21 -->
<g id="node21" class="node">
<title>Node21</title>
<g id="a_node21"><a xlink:title=" ">
<polygon fill="none" stroke="#bfbfbf" points="437.5,-123.5 437.5,-142.5 520.5,-142.5 520.5,-123.5 437.5,-123.5"/>
<text text-anchor="middle" x="479" y="-130.5" font-family="Helvetica,sans-Serif" font-size="10.00">initializer_list</text>
</a>
</g>
</g>
<!-- Node5&#45;&gt;Node21 -->
<g id="edge24" class="edge">
<title>Node5&#45;&gt;Node21</title>
<path fill="none" stroke="midnightblue" d="M586.72,-179.44C565.65,-170.56 532.48,-156.56 508.51,-146.45"/>
<polygon fill="midnightblue" stroke="midnightblue" points="509.76,-143.18 499.19,-142.52 507.04,-149.63 509.76,-143.18"/>
</g>
<!-- Node22 -->
<g id="node22" class="node">
<title>Node22</title>
<g id="a_node22"><a xlink:title=" ">
<polygon fill="none" stroke="#bfbfbf" points="539,-123.5 539,-142.5 595,-142.5 595,-123.5 539,-123.5"/>
<text text-anchor="middle" x="567" y="-130.5" font-family="Helvetica,sans-Serif" font-size="10.00">numeric</text>
</a>
</g>
</g>
<!-- Node5&#45;&gt;Node22 -->
<g id="edge26" class="edge">
<title>Node5&#45;&gt;Node22</title>
<path fill="none" stroke="midnightblue" d="M600.39,-179.08C594.74,-171.46 586.46,-160.26 579.55,-150.94"/>
<polygon fill="midnightblue" stroke="midnightblue" points="582.25,-148.7 573.48,-142.75 576.62,-152.87 582.25,-148.7"/>
</g>
<!-- Node23 -->
<g id="node23" class="node">
<title>Node23</title>
<g id="a_node23"><a xlink:title=" ">
<polygon fill="none" stroke="#bfbfbf" points="613.5,-123.5 613.5,-142.5 682.5,-142.5 682.5,-123.5 613.5,-123.5"/>
<text text-anchor="middle" x="648" y="-130.5" font-family="Helvetica,sans-Serif" font-size="10.00">type_traits</text>
</a>
</g>
</g>
<!-- Node5&#45;&gt;Node23 -->
<g id="edge27" class="edge">
<title>Node5&#45;&gt;Node23</title>
<path fill="none" stroke="midnightblue" d="M613.77,-179.08C619.56,-171.46 628.06,-160.26 635.14,-150.94"/>
<polygon fill="midnightblue" stroke="midnightblue" points="638.1,-152.83 641.36,-142.75 632.52,-148.6 638.1,-152.83"/>
</g>
<!-- Node24 -->
<g id="node24" class="node">
<title>Node24</title>
<g id="a_node24"><a xlink:title=" ">
<polygon fill="none" stroke="#bfbfbf" points="700.5,-123.5 700.5,-142.5 747.5,-142.5 747.5,-123.5 700.5,-123.5"/>
<text text-anchor="middle" x="724" y="-130.5" font-family="Helvetica,sans-Serif" font-size="10.00">vector</text>
</a>
</g>
</g>
<!-- Node5&#45;&gt;Node24 -->
<g id="edge28" class="edge">
<title>Node5&#45;&gt;Node24</title>
<path fill="none" stroke="midnightblue" d="M625.54,-179.44C644.62,-170.64 674.57,-156.81 696.44,-146.72"/>
<polygon fill="midnightblue" stroke="midnightblue" points="697.93,-149.88 705.55,-142.52 695,-143.53 697.93,-149.88"/>
</g>
<!-- Node9 -->
<g id="node9" class="node">
<title>Node9</title>
<g id="a_node9"><a xlink:href="device__qualifier_8hpp.html" target="_top" xlink:title=" ">
<polygon fill="none" stroke="black" points="839,-62 839,-81 955,-81 955,-62 839,-62"/>
<text text-anchor="middle" x="897" y="-69" font-family="Helvetica,sans-Serif" font-size="10.00">device_qualifier.hpp</text>
</a>
</g>
</g>
<!-- Node8&#45;&gt;Node9 -->
<g id="edge8" class="edge">
<title>Node8&#45;&gt;Node9</title>
<path fill="none" stroke="midnightblue" d="M956.97,-123.48C945.95,-114.11 928.04,-98.88 914.66,-87.51"/>
<polygon fill="midnightblue" stroke="midnightblue" points="916.9,-84.82 907.01,-81.01 912.36,-90.15 916.9,-84.82"/>
</g>
<!-- Node8&#45;&gt;Node10 -->
<g id="edge14" class="edge">
<title>Node8&#45;&gt;Node10</title>
<path fill="none" stroke="midnightblue" d="M968.15,-123.3C970.73,-103.76 977.04,-56.06 980.55,-29.55"/>
<polygon fill="midnightblue" stroke="midnightblue" points="984.02,-30 981.86,-19.62 977.08,-29.08 984.02,-30"/>
</g>
<!-- Node11 -->
<g id="node11" class="node">
<title>Node11</title>
<g id="a_node11"><a xlink:href="get_8hpp.html" target="_top" xlink:title=" ">
<polygon fill="none" stroke="black" points="692.5,-62 692.5,-81 745.5,-81 745.5,-62 692.5,-62"/>
<text text-anchor="middle" x="719" y="-69" font-family="Helvetica,sans-Serif" font-size="10.00">get.hpp</text>
</a>
</g>
</g>
<!-- Node8&#45;&gt;Node11 -->
<g id="edge10" class="edge">
<title>Node8&#45;&gt;Node11</title>
<path fill="none" stroke="midnightblue" d="M923.96,-123.78C871.51,-113.61 786.04,-96.47 755,-87 752.72,-86.3 750.37,-85.52 748.04,-84.69"/>
<polygon fill="midnightblue" stroke="midnightblue" points="749.18,-81.38 738.58,-81.11 746.69,-87.93 749.18,-81.38"/>
</g>
<!-- Node8&#45;&gt;Node12 -->
<g id="edge15" class="edge">
<title>Node8&#45;&gt;Node12</title>
<path fill="none" stroke="midnightblue" d="M923.91,-124.24C920.9,-123.79 917.91,-123.37 915,-123 720.8,-98.28 667.52,-127.55 476,-87 405.9,-72.16 327.41,-40.99 286.42,-23.53"/>
<polygon fill="midnightblue" stroke="midnightblue" points="287.64,-20.24 277.07,-19.51 284.87,-26.67 287.64,-20.24"/>
</g>
<!-- Node14 -->
<g id="node14" class="node">
<title>Node14</title>
<g id="a_node14"><a xlink:title=" ">
<polygon fill="none" stroke="#bfbfbf" points="567.5,-56.5 567.5,-86.5 674.5,-86.5 674.5,-56.5 567.5,-56.5"/>
<text text-anchor="start" x="575.5" y="-74.5" font-family="Helvetica,sans-Serif" font-size="10.00">boost/serialization</text>
<text text-anchor="middle" x="621" y="-63.5" font-family="Helvetica,sans-Serif" font-size="10.00">/access.hpp</text>
</a>
</g>
</g>
<!-- Node8&#45;&gt;Node14 -->
<g id="edge13" class="edge">
<title>Node8&#45;&gt;Node14</title>
<path fill="none" stroke="midnightblue" d="M923.88,-124.48C920.88,-123.97 917.89,-123.48 915,-123 815.58,-106.65 787.7,-106.65 684.46,-87"/>
<polygon fill="midnightblue" stroke="midnightblue" points="685.04,-83.55 674.56,-85.1 683.72,-90.42 685.04,-83.55"/>
</g>
<!-- Node8&#45;&gt;Node15 -->
<g id="edge16" class="edge">
<title>Node8&#45;&gt;Node15</title>
<path fill="none" stroke="midnightblue" d="M977.17,-123.48C988.35,-114.11 1006.52,-98.88 1020.09,-87.51"/>
<polygon fill="midnightblue" stroke="midnightblue" points="1022.43,-90.11 1027.85,-81.01 1017.93,-84.75 1022.43,-90.11"/>
</g>
<!-- Node16 -->
<g id="node16" class="node">
<title>Node16</title>
<g id="a_node16"><a xlink:title=" ">
<polygon fill="none" stroke="#bfbfbf" points="763.5,-62 763.5,-81 820.5,-81 820.5,-62 763.5,-62"/>
<text text-anchor="middle" x="792" y="-69" font-family="Helvetica,sans-Serif" font-size="10.00">ostream</text>
</a>
</g>
</g>
<!-- Node8&#45;&gt;Node16 -->
<g id="edge17" class="edge">
<title>Node8&#45;&gt;Node16</title>
<path fill="none" stroke="midnightblue" d="M939.84,-123.49C912.1,-114.71 867.87,-100.44 830,-87 827.89,-86.25 825.72,-85.47 823.54,-84.67"/>
<polygon fill="midnightblue" stroke="midnightblue" points="824.63,-81.34 814.04,-81.11 822.18,-87.89 824.63,-81.34"/>
</g>
<!-- Node17 -->
<g id="node17" class="node">
<title>Node17</title>
<g id="a_node17"><a xlink:title=" ">
<polygon fill="none" stroke="#bfbfbf" points="484.5,-62 484.5,-81 549.5,-81 549.5,-62 484.5,-62"/>
<text text-anchor="middle" x="517" y="-69" font-family="Helvetica,sans-Serif" font-size="10.00">stdexcept</text>
</a>
</g>
</g>
<!-- Node8&#45;&gt;Node17 -->
<g id="edge18" class="edge">
<title>Node8&#45;&gt;Node17</title>
<path fill="none" stroke="midnightblue" d="M923.91,-124.3C920.9,-123.84 917.9,-123.4 915,-123 757.44,-101.43 714.31,-121.18 559,-87 555.5,-86.23 551.9,-85.26 548.33,-84.2"/>
<polygon fill="midnightblue" stroke="midnightblue" points="549.12,-80.77 538.52,-81 546.95,-87.43 549.12,-80.77"/>
</g>
<!-- Node9&#45;&gt;Node10 -->
<g id="edge9" class="edge">
<title>Node9&#45;&gt;Node10</title>
<path fill="none" stroke="midnightblue" d="M909.32,-61.98C923.12,-52.43 945.7,-36.81 962.23,-25.37"/>
<polygon fill="midnightblue" stroke="midnightblue" points="964.47,-28.08 970.7,-19.51 960.49,-22.32 964.47,-28.08"/>
</g>
<!-- Node11&#45;&gt;Node12 -->
<g id="edge11" class="edge">
<title>Node11&#45;&gt;Node12</title>
<path fill="none" stroke="midnightblue" d="M701.17,-61.96C695.77,-59.68 689.74,-57.46 684,-56 543.51,-20.28 370,-12.87 295.19,-11.36"/>
<polygon fill="midnightblue" stroke="midnightblue" points="294.95,-7.86 284.89,-11.18 294.83,-14.86 294.95,-7.86"/>
</g>
<!-- Node13 -->
<g id="node13" class="node">
<title>Node13</title>
<g id="a_node13"><a xlink:title=" ">
<polygon fill="none" stroke="#bfbfbf" points="698.5,-0.5 698.5,-19.5 739.5,-19.5 739.5,-0.5 698.5,-0.5"/>
<text text-anchor="middle" x="719" y="-7.5" font-family="Helvetica,sans-Serif" font-size="10.00">tuple</text>
</a>
</g>
</g>
<!-- Node11&#45;&gt;Node13 -->
<g id="edge12" class="edge">
<title>Node11&#45;&gt;Node13</title>
<path fill="none" stroke="midnightblue" d="M719,-61.98C719,-53.58 719,-40.48 719,-29.66"/>
<polygon fill="midnightblue" stroke="midnightblue" points="722.5,-29.51 719,-19.51 715.5,-29.51 722.5,-29.51"/>
</g>
</g>
</svg>
