<?xml version="1.0" encoding="UTF-8" standalone="no"?>
<!DOCTYPE svg PUBLIC "-//W3C//DTD SVG 1.1//EN"
 "http://www.w3.org/Graphics/SVG/1.1/DTD/svg11.dtd">
<!-- Generated by graphviz version 2.43.0 (0)
 -->
<!-- Title: SystemInterface.hpp Pages: 1 -->
<svg width="1750pt" height="263pt"
 viewBox="0.00 0.00 1750.00 263.00" xmlns="http://www.w3.org/2000/svg" xmlns:xlink="http://www.w3.org/1999/xlink">
<g id="graph0" class="graph" transform="scale(1 1) rotate(0) translate(4 259)">
<title>SystemInterface.hpp</title>
<!-- Node1 -->
<g id="node1" class="node">
<title>Node1</title>
<g id="a_node1"><a xlink:title=" ">
<polygon fill="#bfbfbf" stroke="black" points="81,-235.5 81,-254.5 199,-254.5 199,-235.5 81,-235.5"/>
<text text-anchor="middle" x="140" y="-242.5" font-family="Helvetica,sans-Serif" font-size="10.00">SystemInterface.hpp</text>
</a>
</g>
</g>
<!-- Node2 -->
<g id="node2" class="node">
<title>Node2</title>
<g id="a_node2"><a xlink:href="config_8hpp.html" target="_top" xlink:title=" ">
<polygon fill="none" stroke="black" points="33,-179.5 33,-198.5 101,-198.5 101,-179.5 33,-179.5"/>
<text text-anchor="middle" x="67" y="-186.5" font-family="Helvetica,sans-Serif" font-size="10.00">config.hpp</text>
</a>
</g>
</g>
<!-- Node1&#45;&gt;Node2 -->
<g id="edge1" class="edge">
<title>Node1&#45;&gt;Node2</title>
<path fill="none" stroke="midnightblue" d="M128.27,-235.32C117.16,-227.11 100.26,-214.6 87.02,-204.81"/>
<polygon fill="midnightblue" stroke="midnightblue" points="89.06,-201.97 78.94,-198.83 84.9,-207.59 89.06,-201.97"/>
</g>
<!-- Node4 -->
<g id="node4" class="node">
<title>Node4</title>
<g id="a_node4"><a xlink:href="Vector_8hpp.html" target="_top" xlink:title=" ">
<polygon fill="none" stroke="black" points="972.5,-179.5 972.5,-198.5 1065.5,-198.5 1065.5,-179.5 972.5,-179.5"/>
<text text-anchor="middle" x="1019" y="-186.5" font-family="Helvetica,sans-Serif" font-size="10.00">utils/Vector.hpp</text>
</a>
</g>
</g>
<!-- Node1&#45;&gt;Node4 -->
<g id="edge3" class="edge">
<title>Node1&#45;&gt;Node4</title>
<path fill="none" stroke="midnightblue" d="M199.04,-240.37C359.87,-230.49 804.27,-203.19 962.31,-193.48"/>
<polygon fill="midnightblue" stroke="midnightblue" points="962.53,-196.98 972.3,-192.87 962.1,-189.99 962.53,-196.98"/>
</g>
<!-- Node11 -->
<g id="node11" class="node">
<title>Node11</title>
<g id="a_node11"><a xlink:title=" ">
<polygon fill="none" stroke="#bfbfbf" points="170.5,-0.5 170.5,-19.5 223.5,-19.5 223.5,-0.5 170.5,-0.5"/>
<text text-anchor="middle" x="197" y="-7.5" font-family="Helvetica,sans-Serif" font-size="10.00">cstddef</text>
</a>
</g>
</g>
<!-- Node1&#45;&gt;Node11 -->
<g id="edge28" class="edge">
<title>Node1&#45;&gt;Node11</title>
<path fill="none" stroke="midnightblue" d="M142.1,-235.43C150.35,-201.68 180.74,-77.47 192.4,-29.8"/>
<polygon fill="midnightblue" stroke="midnightblue" points="195.85,-30.44 194.82,-19.9 189.05,-28.78 195.85,-30.44"/>
</g>
<!-- Node3 -->
<g id="node3" class="node">
<title>Node3</title>
<g id="a_node3"><a xlink:title=" ">
<polygon fill="none" stroke="#bfbfbf" points="0,-123.5 0,-142.5 112,-142.5 112,-123.5 0,-123.5"/>
<text text-anchor="middle" x="56" y="-130.5" font-family="Helvetica,sans-Serif" font-size="10.00">config&#45;features.hpp</text>
</a>
</g>
</g>
<!-- Node2&#45;&gt;Node3 -->
<g id="edge2" class="edge">
<title>Node2&#45;&gt;Node3</title>
<path fill="none" stroke="midnightblue" d="M65.18,-179.08C63.73,-171.93 61.63,-161.64 59.81,-152.69"/>
<polygon fill="midnightblue" stroke="midnightblue" points="63.21,-151.85 57.78,-142.75 56.35,-153.25 63.21,-151.85"/>
</g>
<!-- Node5 -->
<g id="node5" class="node">
<title>Node5</title>
<g id="a_node5"><a xlink:title=" ">
<polygon fill="none" stroke="#bfbfbf" points="1434,-123.5 1434,-142.5 1584,-142.5 1584,-123.5 1434,-123.5"/>
<text text-anchor="middle" x="1509" y="-130.5" font-family="Helvetica,sans-Serif" font-size="10.00">boost/qvm/deduce_vec.hpp</text>
</a>
</g>
</g>
<!-- Node4&#45;&gt;Node5 -->
<g id="edge4" class="edge">
<title>Node4&#45;&gt;Node5</title>
<path fill="none" stroke="midnightblue" d="M1065.54,-182.87C1147.73,-173.81 1319.7,-154.86 1423.68,-143.4"/>
<polygon fill="midnightblue" stroke="midnightblue" points="1424.28,-146.86 1433.83,-142.28 1423.51,-139.9 1424.28,-146.86"/>
</g>
<!-- Node6 -->
<g id="node6" class="node">
<title>Node6</title>
<g id="a_node6"><a xlink:title=" ">
<polygon fill="none" stroke="#bfbfbf" points="1602,-123.5 1602,-142.5 1742,-142.5 1742,-123.5 1602,-123.5"/>
<text text-anchor="middle" x="1672" y="-130.5" font-family="Helvetica,sans-Serif" font-size="10.00">boost/qvm/vec_traits.hpp</text>
</a>
</g>
</g>
<!-- Node4&#45;&gt;Node6 -->
<g id="edge5" class="edge">
<title>Node4&#45;&gt;Node6</title>
<path fill="none" stroke="midnightblue" d="M1065.55,-184.91C1161.71,-178.4 1389.51,-162.36 1591.59,-143.11"/>
<polygon fill="midnightblue" stroke="midnightblue" points="1592.18,-146.56 1601.8,-142.13 1591.51,-139.6 1592.18,-146.56"/>
</g>
<!-- Node7 -->
<g id="node7" class="node">
<title>Node7</title>
<g id="a_node7"><a xlink:href="Array_8hpp.html" target="_top" xlink:title=" ">
<polygon fill="none" stroke="black" points="511,-123.5 511,-142.5 597,-142.5 597,-123.5 511,-123.5"/>
<text text-anchor="middle" x="554" y="-130.5" font-family="Helvetica,sans-Serif" font-size="10.00">utils/Array.hpp</text>
</a>
</g>
</g>
<!-- Node4&#45;&gt;Node7 -->
<g id="edge6" class="edge">
<title>Node4&#45;&gt;Node7</title>
<path fill="none" stroke="midnightblue" d="M972.28,-182.58C885.35,-172.48 699.27,-150.87 607.47,-140.21"/>
<polygon fill="midnightblue" stroke="midnightblue" points="607.62,-136.7 597.28,-139.03 606.81,-143.66 607.62,-136.7"/>
</g>
<!-- Node9 -->
<g id="node9" class="node">
<title>Node9</title>
<g id="a_node9"><a xlink:title=" ">
<polygon fill="none" stroke="#bfbfbf" points="669,-0.5 669,-19.5 721,-19.5 721,-0.5 669,-0.5"/>
<text text-anchor="middle" x="695" y="-7.5" font-family="Helvetica,sans-Serif" font-size="10.00">cassert</text>
</a>
</g>
</g>
<!-- Node4&#45;&gt;Node9 -->
<g id="edge19" class="edge">
<title>Node4&#45;&gt;Node9</title>
<path fill="none" stroke="midnightblue" d="M972.46,-184.99C939.28,-180.52 895.65,-169.58 867,-143 836.69,-114.87 863.96,-84.51 834,-56 806.02,-29.37 762.14,-18.5 731.18,-14.06"/>
<polygon fill="midnightblue" stroke="midnightblue" points="731.58,-10.58 721.22,-12.79 730.69,-17.53 731.58,-10.58"/>
</g>
<!-- Node4&#45;&gt;Node11 -->
<g id="edge21" class="edge">
<title>Node4&#45;&gt;Node11</title>
<path fill="none" stroke="midnightblue" d="M972.26,-185.57C807.56,-176.56 261.24,-142.66 208,-87 193.56,-71.9 192.68,-46.82 194.16,-29.63"/>
<polygon fill="midnightblue" stroke="midnightblue" points="197.64,-30 195.36,-19.65 190.69,-29.16 197.64,-30"/>
</g>
<!-- Node14 -->
<g id="node14" class="node">
<title>Node14</title>
<g id="a_node14"><a xlink:title=" ">
<polygon fill="none" stroke="#bfbfbf" points="771.5,-62 771.5,-81 824.5,-81 824.5,-62 771.5,-62"/>
<text text-anchor="middle" x="798" y="-69" font-family="Helvetica,sans-Serif" font-size="10.00">iterator</text>
</a>
</g>
</g>
<!-- Node4&#45;&gt;Node14 -->
<g id="edge24" class="edge">
<title>Node4&#45;&gt;Node14</title>
<path fill="none" stroke="midnightblue" d="M972.13,-187.2C931.63,-184.24 873.55,-174.25 834,-143 817.53,-129.99 807.9,-107.4 802.81,-91.3"/>
<polygon fill="midnightblue" stroke="midnightblue" points="806.09,-90.05 799.98,-81.39 799.36,-91.97 806.09,-90.05"/>
</g>
<!-- Node17 -->
<g id="node17" class="node">
<title>Node17</title>
<g id="a_node17"><a xlink:title=" ">
<polygon fill="none" stroke="#bfbfbf" points="876,-123.5 876,-142.5 940,-142.5 940,-123.5 876,-123.5"/>
<text text-anchor="middle" x="908" y="-130.5" font-family="Helvetica,sans-Serif" font-size="10.00">algorithm</text>
</a>
</g>
</g>
<!-- Node4&#45;&gt;Node17 -->
<g id="edge18" class="edge">
<title>Node4&#45;&gt;Node17</title>
<path fill="none" stroke="midnightblue" d="M1001.17,-179.32C983.28,-170.62 955.52,-157.12 934.95,-147.11"/>
<polygon fill="midnightblue" stroke="midnightblue" points="936.31,-143.88 925.79,-142.65 933.25,-150.18 936.31,-143.88"/>
</g>
<!-- Node18 -->
<g id="node18" class="node">
<title>Node18</title>
<g id="a_node18"><a xlink:title=" ">
<polygon fill="none" stroke="#bfbfbf" points="958.5,-123.5 958.5,-142.5 1005.5,-142.5 1005.5,-123.5 958.5,-123.5"/>
<text text-anchor="middle" x="982" y="-130.5" font-family="Helvetica,sans-Serif" font-size="10.00">cmath</text>
</a>
</g>
</g>
<!-- Node4&#45;&gt;Node18 -->
<g id="edge20" class="edge">
<title>Node4&#45;&gt;Node18</title>
<path fill="none" stroke="midnightblue" d="M1012.89,-179.08C1007.72,-171.53 1000.15,-160.49 993.81,-151.23"/>
<polygon fill="midnightblue" stroke="midnightblue" points="996.54,-149.02 988,-142.75 990.76,-152.98 996.54,-149.02"/>
</g>
<!-- Node19 -->
<g id="node19" class="node">
<title>Node19</title>
<g id="a_node19"><a xlink:title=" ">
<polygon fill="none" stroke="#bfbfbf" points="1023.5,-123.5 1023.5,-142.5 1088.5,-142.5 1088.5,-123.5 1023.5,-123.5"/>
<text text-anchor="middle" x="1056" y="-130.5" font-family="Helvetica,sans-Serif" font-size="10.00">functional</text>
</a>
</g>
</g>
<!-- Node4&#45;&gt;Node19 -->
<g id="edge22" class="edge">
<title>Node4&#45;&gt;Node19</title>
<path fill="none" stroke="midnightblue" d="M1025.11,-179.08C1030.28,-171.53 1037.85,-160.49 1044.19,-151.23"/>
<polygon fill="midnightblue" stroke="midnightblue" points="1047.24,-152.98 1050,-142.75 1041.46,-149.02 1047.24,-152.98"/>
</g>
<!-- Node20 -->
<g id="node20" class="node">
<title>Node20</title>
<g id="a_node20"><a xlink:title=" ">
<polygon fill="none" stroke="#bfbfbf" points="1106.5,-123.5 1106.5,-142.5 1189.5,-142.5 1189.5,-123.5 1106.5,-123.5"/>
<text text-anchor="middle" x="1148" y="-130.5" font-family="Helvetica,sans-Serif" font-size="10.00">initializer_list</text>
</a>
</g>
</g>
<!-- Node4&#45;&gt;Node20 -->
<g id="edge23" class="edge">
<title>Node4&#45;&gt;Node20</title>
<path fill="none" stroke="midnightblue" d="M1039.44,-179.44C1060.67,-170.56 1094.1,-156.56 1118.25,-146.45"/>
<polygon fill="midnightblue" stroke="midnightblue" points="1119.78,-149.61 1127.66,-142.52 1117.08,-143.15 1119.78,-149.61"/>
</g>
<!-- Node21 -->
<g id="node21" class="node">
<title>Node21</title>
<g id="a_node21"><a xlink:title=" ">
<polygon fill="none" stroke="#bfbfbf" points="1208,-123.5 1208,-142.5 1264,-142.5 1264,-123.5 1208,-123.5"/>
<text text-anchor="middle" x="1236" y="-130.5" font-family="Helvetica,sans-Serif" font-size="10.00">numeric</text>
</a>
</g>
</g>
<!-- Node4&#45;&gt;Node21 -->
<g id="edge25" class="edge">
<title>Node4&#45;&gt;Node21</title>
<path fill="none" stroke="midnightblue" d="M1053.38,-179.44C1092.83,-169.63 1157.3,-153.59 1198.14,-143.42"/>
<polygon fill="midnightblue" stroke="midnightblue" points="1199.13,-146.78 1207.99,-140.97 1197.44,-139.99 1199.13,-146.78"/>
</g>
<!-- Node22 -->
<g id="node22" class="node">
<title>Node22</title>
<g id="a_node22"><a xlink:title=" ">
<polygon fill="none" stroke="#bfbfbf" points="1282.5,-123.5 1282.5,-142.5 1351.5,-142.5 1351.5,-123.5 1282.5,-123.5"/>
<text text-anchor="middle" x="1317" y="-130.5" font-family="Helvetica,sans-Serif" font-size="10.00">type_traits</text>
</a>
</g>
</g>
<!-- Node4&#45;&gt;Node22 -->
<g id="edge26" class="edge">
<title>Node4&#45;&gt;Node22</title>
<path fill="none" stroke="midnightblue" d="M1065.88,-180.08C1114.81,-171.72 1194.02,-157.95 1272.38,-143.08"/>
<polygon fill="midnightblue" stroke="midnightblue" points="1273.26,-146.47 1282.43,-141.16 1271.95,-139.6 1273.26,-146.47"/>
</g>
<!-- Node23 -->
<g id="node23" class="node">
<title>Node23</title>
<g id="a_node23"><a xlink:title=" ">
<polygon fill="none" stroke="#bfbfbf" points="1369.5,-123.5 1369.5,-142.5 1416.5,-142.5 1416.5,-123.5 1369.5,-123.5"/>
<text text-anchor="middle" x="1393" y="-130.5" font-family="Helvetica,sans-Serif" font-size="10.00">vector</text>
</a>
</g>
</g>
<!-- Node4&#45;&gt;Node23 -->
<g id="edge27" class="edge">
<title>Node4&#45;&gt;Node23</title>
<path fill="none" stroke="midnightblue" d="M1065.54,-184.01C1129.74,-178.04 1249.17,-165.25 1359.38,-143.1"/>
<polygon fill="midnightblue" stroke="midnightblue" points="1360.23,-146.5 1369.33,-141.07 1358.83,-139.64 1360.23,-146.5"/>
</g>
<!-- Node8 -->
<g id="node8" class="node">
<title>Node8</title>
<g id="a_node8"><a xlink:href="device__qualifier_8hpp.html" target="_top" xlink:title=" ">
<polygon fill="none" stroke="black" points="637,-62 637,-81 753,-81 753,-62 637,-62"/>
<text text-anchor="middle" x="695" y="-69" font-family="Helvetica,sans-Serif" font-size="10.00">device_qualifier.hpp</text>
</a>
</g>
</g>
<!-- Node7&#45;&gt;Node8 -->
<g id="edge7" class="edge">
<title>Node7&#45;&gt;Node8</title>
<path fill="none" stroke="midnightblue" d="M574.2,-123.48C598.07,-113.4 638,-96.55 665.37,-85"/>
<polygon fill="midnightblue" stroke="midnightblue" points="666.98,-88.12 674.84,-81.01 664.26,-81.67 666.98,-88.12"/>
</g>
<!-- Node7&#45;&gt;Node9 -->
<g id="edge13" class="edge">
<title>Node7&#45;&gt;Node9</title>
<path fill="none" stroke="midnightblue" d="M561.26,-123.46C573.97,-108.77 601.41,-78.17 628,-56 641.81,-44.48 658.62,-33.2 671.95,-24.81"/>
<polygon fill="midnightblue" stroke="midnightblue" points="673.87,-27.74 680.54,-19.5 670.19,-21.78 673.87,-27.74"/>
</g>
<!-- Node10 -->
<g id="node10" class="node">
<title>Node10</title>
<g id="a_node10"><a xlink:href="get_8hpp.html" target="_top" xlink:title=" ">
<polygon fill="none" stroke="black" points="527.5,-62 527.5,-81 580.5,-81 580.5,-62 527.5,-62"/>
<text text-anchor="middle" x="554" y="-69" font-family="Helvetica,sans-Serif" font-size="10.00">get.hpp</text>
</a>
</g>
</g>
<!-- Node7&#45;&gt;Node10 -->
<g id="edge9" class="edge">
<title>Node7&#45;&gt;Node10</title>
<path fill="none" stroke="midnightblue" d="M554,-123.48C554,-115.08 554,-101.98 554,-91.16"/>
<polygon fill="midnightblue" stroke="midnightblue" points="557.5,-91.01 554,-81.01 550.5,-91.01 557.5,-91.01"/>
</g>
<!-- Node7&#45;&gt;Node11 -->
<g id="edge14" class="edge">
<title>Node7&#45;&gt;Node11</title>
<path fill="none" stroke="midnightblue" d="M510.83,-130.79C434.18,-127.86 278.3,-118.15 235,-87 215.96,-73.3 205.91,-47.3 201.03,-29.57"/>
<polygon fill="midnightblue" stroke="midnightblue" points="204.41,-28.65 198.63,-19.77 197.61,-30.32 204.41,-28.65"/>
</g>
<!-- Node13 -->
<g id="node13" class="node">
<title>Node13</title>
<g id="a_node13"><a xlink:title=" ">
<polygon fill="none" stroke="#bfbfbf" points="244.5,-56.5 244.5,-86.5 351.5,-86.5 351.5,-56.5 244.5,-56.5"/>
<text text-anchor="start" x="252.5" y="-74.5" font-family="Helvetica,sans-Serif" font-size="10.00">boost/serialization</text>
<text text-anchor="middle" x="298" y="-63.5" font-family="Helvetica,sans-Serif" font-size="10.00">/access.hpp</text>
</a>
</g>
</g>
<!-- Node7&#45;&gt;Node13 -->
<g id="edge12" class="edge">
<title>Node7&#45;&gt;Node13</title>
<path fill="none" stroke="midnightblue" d="M517.17,-123.48C480.2,-114.92 421.34,-101.28 361.73,-87.4"/>
<polygon fill="midnightblue" stroke="midnightblue" points="362.3,-83.94 351.77,-85.08 360.71,-90.76 362.3,-83.94"/>
</g>
<!-- Node7&#45;&gt;Node14 -->
<g id="edge15" class="edge">
<title>Node7&#45;&gt;Node14</title>
<path fill="none" stroke="midnightblue" d="M597.17,-124.87C639.63,-117.35 706.02,-104.19 762,-87 764.28,-86.3 766.62,-85.51 768.96,-84.68"/>
<polygon fill="midnightblue" stroke="midnightblue" points="770.31,-87.92 778.41,-81.09 767.82,-81.37 770.31,-87.92"/>
</g>
<!-- Node15 -->
<g id="node15" class="node">
<title>Node15</title>
<g id="a_node15"><a xlink:title=" ">
<polygon fill="none" stroke="#bfbfbf" points="369.5,-62 369.5,-81 426.5,-81 426.5,-62 369.5,-62"/>
<text text-anchor="middle" x="398" y="-69" font-family="Helvetica,sans-Serif" font-size="10.00">ostream</text>
</a>
</g>
</g>
<!-- Node7&#45;&gt;Node15 -->
<g id="edge16" class="edge">
<title>Node7&#45;&gt;Node15</title>
<path fill="none" stroke="midnightblue" d="M531.16,-123.45C507.18,-114.46 468.39,-99.86 435,-87 433.17,-86.29 431.28,-85.56 429.38,-84.83"/>
<polygon fill="midnightblue" stroke="midnightblue" points="430.48,-81.5 419.9,-81.13 427.94,-88.02 430.48,-81.5"/>
</g>
<!-- Node16 -->
<g id="node16" class="node">
<title>Node16</title>
<g id="a_node16"><a xlink:title=" ">
<polygon fill="none" stroke="#bfbfbf" points="444.5,-62 444.5,-81 509.5,-81 509.5,-62 444.5,-62"/>
<text text-anchor="middle" x="477" y="-69" font-family="Helvetica,sans-Serif" font-size="10.00">stdexcept</text>
</a>
</g>
</g>
<!-- Node7&#45;&gt;Node16 -->
<g id="edge17" class="edge">
<title>Node7&#45;&gt;Node16</title>
<path fill="none" stroke="midnightblue" d="M542.97,-123.48C530.73,-114.02 510.77,-98.6 496.01,-87.19"/>
<polygon fill="midnightblue" stroke="midnightblue" points="498.06,-84.35 488.01,-81.01 493.78,-89.89 498.06,-84.35"/>
</g>
<!-- Node8&#45;&gt;Node9 -->
<g id="edge8" class="edge">
<title>Node8&#45;&gt;Node9</title>
<path fill="none" stroke="midnightblue" d="M695,-61.98C695,-53.58 695,-40.48 695,-29.66"/>
<polygon fill="midnightblue" stroke="midnightblue" points="698.5,-29.51 695,-19.51 691.5,-29.51 698.5,-29.51"/>
</g>
<!-- Node10&#45;&gt;Node11 -->
<g id="edge10" class="edge">
<title>Node10&#45;&gt;Node11</title>
<path fill="none" stroke="midnightblue" d="M535.24,-61.94C529.77,-59.72 523.73,-57.53 518,-56 417.22,-29.07 294.08,-17.55 233.81,-13.24"/>
<polygon fill="midnightblue" stroke="midnightblue" points="233.86,-9.73 223.65,-12.54 233.38,-16.72 233.86,-9.73"/>
</g>
<!-- Node12 -->
<g id="node12" class="node">
<title>Node12</title>
<g id="a_node12"><a xlink:title=" ">
<polygon fill="none" stroke="#bfbfbf" points="533.5,-0.5 533.5,-19.5 574.5,-19.5 574.5,-0.5 533.5,-0.5"/>
<text text-anchor="middle" x="554" y="-7.5" font-family="Helvetica,sans-Serif" font-size="10.00">tuple</text>
</a>
</g>
</g>
<!-- Node10&#45;&gt;Node12 -->
<g id="edge11" class="edge">
<title>Node10&#45;&gt;Node12</title>
<path fill="none" stroke="midnightblue" d="M554,-61.98C554,-53.58 554,-40.48 554,-29.66"/>
<polygon fill="midnightblue" stroke="midnightblue" points="557.5,-29.51 554,-19.51 550.5,-29.51 557.5,-29.51"/>
</g>
</g>
</svg>
