<?xml version="1.0" encoding="UTF-8" standalone="no"?>
<!DOCTYPE svg PUBLIC "-//W3C//DTD SVG 1.1//EN"
 "http://www.w3.org/Graphics/SVG/1.1/DTD/svg11.dtd">
<!-- Generated by graphviz version 2.43.0 (0)
 -->
<!-- Title: tensor_product.hpp Pages: 1 -->
<svg width="3029pt" height="319pt"
 viewBox="0.00 0.00 3028.71 319.00" xmlns="http://www.w3.org/2000/svg" xmlns:xlink="http://www.w3.org/1999/xlink">
<g id="graph0" class="graph" transform="scale(1 1) rotate(0) translate(4 315)">
<title>tensor_product.hpp</title>
<!-- Node1 -->
<g id="node1" class="node">
<title>Node1</title>
<g id="a_node1"><a xlink:title=" ">
<polygon fill="#bfbfbf" stroke="black" points="603,-291.5 603,-310.5 713,-310.5 713,-291.5 603,-291.5"/>
<text text-anchor="middle" x="658" y="-298.5" font-family="Helvetica,sans-Serif" font-size="10.00">tensor_product.hpp</text>
</a>
</g>
</g>
<!-- Node2 -->
<g id="node2" class="node">
<title>Node2</title>
<g id="a_node2"><a xlink:href="Vector_8hpp.html" target="_top" xlink:title=" ">
<polygon fill="none" stroke="black" points="2424.5,-179.5 2424.5,-198.5 2517.5,-198.5 2517.5,-179.5 2424.5,-179.5"/>
<text text-anchor="middle" x="2471" y="-186.5" font-family="Helvetica,sans-Serif" font-size="10.00">utils/Vector.hpp</text>
</a>
</g>
</g>
<!-- Node1&#45;&gt;Node2 -->
<g id="edge1" class="edge">
<title>Node1&#45;&gt;Node2</title>
<path fill="none" stroke="midnightblue" d="M713.13,-297.37C926.6,-287.08 1719.26,-247.61 2371,-199 2385.06,-197.95 2400.21,-196.67 2414.37,-195.4"/>
<polygon fill="midnightblue" stroke="midnightblue" points="2414.83,-198.87 2424.47,-194.49 2414.2,-191.9 2414.83,-198.87"/>
</g>
<!-- Node9 -->
<g id="node9" class="node">
<title>Node9</title>
<g id="a_node9"><a xlink:title=" ">
<polygon fill="none" stroke="#bfbfbf" points="1758.5,-0.5 1758.5,-19.5 1811.5,-19.5 1811.5,-0.5 1758.5,-0.5"/>
<text text-anchor="middle" x="1785" y="-7.5" font-family="Helvetica,sans-Serif" font-size="10.00">cstddef</text>
</a>
</g>
</g>
<!-- Node1&#45;&gt;Node9 -->
<g id="edge51" class="edge">
<title>Node1&#45;&gt;Node9</title>
<path fill="none" stroke="midnightblue" d="M602.81,-299.45C512.63,-297.52 328.54,-289.3 177,-255 95.26,-236.5 0,-273.8 0,-190 0,-190 0,-190 0,-132 0,-6.05 148.48,-74.9 273,-56 570.49,-10.85 1546.87,-10.47 1748.41,-10.89"/>
<polygon fill="midnightblue" stroke="midnightblue" points="1748.47,-14.39 1758.47,-10.91 1748.48,-7.39 1748.47,-14.39"/>
</g>
<!-- Node15 -->
<g id="node15" class="node">
<title>Node15</title>
<g id="a_node15"><a xlink:title=" ">
<polygon fill="none" stroke="#bfbfbf" points="104,-123.5 104,-142.5 168,-142.5 168,-123.5 104,-123.5"/>
<text text-anchor="middle" x="136" y="-130.5" font-family="Helvetica,sans-Serif" font-size="10.00">algorithm</text>
</a>
</g>
</g>
<!-- Node1&#45;&gt;Node15 -->
<g id="edge50" class="edge">
<title>Node1&#45;&gt;Node15</title>
<path fill="none" stroke="midnightblue" d="M602.62,-298.2C477.87,-292.85 180.99,-272.5 120,-199 108.91,-185.63 116.23,-165.71 124.24,-151.45"/>
<polygon fill="midnightblue" stroke="midnightblue" points="127.4,-152.98 129.67,-142.63 121.45,-149.3 127.4,-152.98"/>
</g>
<!-- Node22 -->
<g id="node22" class="node">
<title>Node22</title>
<g id="a_node22"><a xlink:href="matrix_8hpp.html" target="_top" xlink:title="This file contains a matrix implementation and the trait types needed for the boost qvm interoperabil...">
<polygon fill="none" stroke="black" points="1322,-235.5 1322,-254.5 1416,-254.5 1416,-235.5 1322,-235.5"/>
<text text-anchor="middle" x="1369" y="-242.5" font-family="Helvetica,sans-Serif" font-size="10.00">utils/matrix.hpp</text>
</a>
</g>
</g>
<!-- Node1&#45;&gt;Node22 -->
<g id="edge26" class="edge">
<title>Node1&#45;&gt;Node22</title>
<path fill="none" stroke="midnightblue" d="M713.2,-295.81C845.17,-285.78 1177.88,-260.52 1311.83,-250.34"/>
<polygon fill="midnightblue" stroke="midnightblue" points="1312.18,-253.83 1321.88,-249.58 1311.65,-246.85 1312.18,-253.83"/>
</g>
<!-- Node3 -->
<g id="node3" class="node">
<title>Node3</title>
<g id="a_node3"><a xlink:title=" ">
<polygon fill="none" stroke="#bfbfbf" points="2244,-123.5 2244,-142.5 2394,-142.5 2394,-123.5 2244,-123.5"/>
<text text-anchor="middle" x="2319" y="-130.5" font-family="Helvetica,sans-Serif" font-size="10.00">boost/qvm/deduce_vec.hpp</text>
</a>
</g>
</g>
<!-- Node2&#45;&gt;Node3 -->
<g id="edge2" class="edge">
<title>Node2&#45;&gt;Node3</title>
<path fill="none" stroke="midnightblue" d="M2446.92,-179.44C2421.46,-170.4 2381.11,-156.06 2352.54,-145.92"/>
<polygon fill="midnightblue" stroke="midnightblue" points="2353.57,-142.57 2342.97,-142.52 2351.22,-149.16 2353.57,-142.57"/>
</g>
<!-- Node4 -->
<g id="node4" class="node">
<title>Node4</title>
<g id="a_node4"><a xlink:title=" ">
<polygon fill="none" stroke="#bfbfbf" points="2450,-123.5 2450,-142.5 2590,-142.5 2590,-123.5 2450,-123.5"/>
<text text-anchor="middle" x="2520" y="-130.5" font-family="Helvetica,sans-Serif" font-size="10.00">boost/qvm/vec_traits.hpp</text>
</a>
</g>
</g>
<!-- Node2&#45;&gt;Node4 -->
<g id="edge3" class="edge">
<title>Node2&#45;&gt;Node4</title>
<path fill="none" stroke="midnightblue" d="M2479.09,-179.08C2486.16,-171.3 2496.59,-159.8 2505.15,-150.37"/>
<polygon fill="midnightblue" stroke="midnightblue" points="2507.93,-152.51 2512.06,-142.75 2502.75,-147.8 2507.93,-152.51"/>
</g>
<!-- Node5 -->
<g id="node5" class="node">
<title>Node5</title>
<g id="a_node5"><a xlink:href="Array_8hpp.html" target="_top" xlink:title=" ">
<polygon fill="none" stroke="black" points="2015,-123.5 2015,-142.5 2101,-142.5 2101,-123.5 2015,-123.5"/>
<text text-anchor="middle" x="2058" y="-130.5" font-family="Helvetica,sans-Serif" font-size="10.00">utils/Array.hpp</text>
</a>
</g>
</g>
<!-- Node2&#45;&gt;Node5 -->
<g id="edge4" class="edge">
<title>Node2&#45;&gt;Node5</title>
<path fill="none" stroke="midnightblue" d="M2424.43,-181.91C2347.15,-171.81 2192.87,-151.63 2111.34,-140.97"/>
<polygon fill="midnightblue" stroke="midnightblue" points="2111.66,-137.49 2101.29,-139.66 2110.75,-144.43 2111.66,-137.49"/>
</g>
<!-- Node7 -->
<g id="node7" class="node">
<title>Node7</title>
<g id="a_node7"><a xlink:title=" ">
<polygon fill="none" stroke="#bfbfbf" points="2629,-0.5 2629,-19.5 2681,-19.5 2681,-0.5 2629,-0.5"/>
<text text-anchor="middle" x="2655" y="-7.5" font-family="Helvetica,sans-Serif" font-size="10.00">cassert</text>
</a>
</g>
</g>
<!-- Node2&#45;&gt;Node7 -->
<g id="edge17" class="edge">
<title>Node2&#45;&gt;Node7</title>
<path fill="none" stroke="midnightblue" d="M2517.64,-187.46C2639,-185.58 2957.47,-177.39 2989,-143 3077.71,-46.25 2794.65,-19.36 2691.28,-12.86"/>
<polygon fill="midnightblue" stroke="midnightblue" points="2691.48,-9.36 2681.29,-12.26 2691.06,-16.35 2691.48,-9.36"/>
</g>
<!-- Node2&#45;&gt;Node9 -->
<g id="edge19" class="edge">
<title>Node2&#45;&gt;Node9</title>
<path fill="none" stroke="midnightblue" d="M2424.29,-184.54C2322.9,-176.86 2085.42,-157.89 2006,-143 1915.69,-126.06 1872.21,-151.73 1807,-87 1791.87,-71.98 1787,-47.24 1785.51,-30.09"/>
<polygon fill="midnightblue" stroke="midnightblue" points="1788.98,-29.43 1784.93,-19.64 1781.99,-29.81 1788.98,-29.43"/>
</g>
<!-- Node12 -->
<g id="node12" class="node">
<title>Node12</title>
<g id="a_node12"><a xlink:title=" ">
<polygon fill="none" stroke="#bfbfbf" points="2379.5,-62 2379.5,-81 2432.5,-81 2432.5,-62 2379.5,-62"/>
<text text-anchor="middle" x="2406" y="-69" font-family="Helvetica,sans-Serif" font-size="10.00">iterator</text>
</a>
</g>
</g>
<!-- Node2&#45;&gt;Node12 -->
<g id="edge22" class="edge">
<title>Node2&#45;&gt;Node12</title>
<path fill="none" stroke="midnightblue" d="M2464.68,-179.25C2458.36,-170.33 2448.52,-156 2441,-143 2430.98,-125.68 2420.97,-105.1 2414.24,-90.66"/>
<polygon fill="midnightblue" stroke="midnightblue" points="2417.32,-88.99 2409.96,-81.37 2410.96,-91.92 2417.32,-88.99"/>
</g>
<!-- Node2&#45;&gt;Node15 -->
<g id="edge16" class="edge">
<title>Node2&#45;&gt;Node15</title>
<path fill="none" stroke="midnightblue" d="M2424.3,-184.27C2399.06,-182.39 2367.34,-180.25 2339,-179 1468.06,-140.44 401.95,-134.87 178.34,-134.11"/>
<polygon fill="midnightblue" stroke="midnightblue" points="178.05,-130.61 168.04,-134.08 178.03,-137.61 178.05,-130.61"/>
</g>
<!-- Node16 -->
<g id="node16" class="node">
<title>Node16</title>
<g id="a_node16"><a xlink:title=" ">
<polygon fill="none" stroke="#bfbfbf" points="2608.5,-123.5 2608.5,-142.5 2655.5,-142.5 2655.5,-123.5 2608.5,-123.5"/>
<text text-anchor="middle" x="2632" y="-130.5" font-family="Helvetica,sans-Serif" font-size="10.00">cmath</text>
</a>
</g>
</g>
<!-- Node2&#45;&gt;Node16 -->
<g id="edge18" class="edge">
<title>Node2&#45;&gt;Node16</title>
<path fill="none" stroke="midnightblue" d="M2496.51,-179.44C2524.15,-170.17 2568.37,-155.34 2598.72,-145.16"/>
<polygon fill="midnightblue" stroke="midnightblue" points="2600.07,-148.4 2608.44,-141.9 2597.85,-141.76 2600.07,-148.4"/>
</g>
<!-- Node17 -->
<g id="node17" class="node">
<title>Node17</title>
<g id="a_node17"><a xlink:title=" ">
<polygon fill="none" stroke="#bfbfbf" points="2673.5,-123.5 2673.5,-142.5 2738.5,-142.5 2738.5,-123.5 2673.5,-123.5"/>
<text text-anchor="middle" x="2706" y="-130.5" font-family="Helvetica,sans-Serif" font-size="10.00">functional</text>
</a>
</g>
</g>
<!-- Node2&#45;&gt;Node17 -->
<g id="edge20" class="edge">
<title>Node2&#45;&gt;Node17</title>
<path fill="none" stroke="midnightblue" d="M2508.24,-179.44C2550.5,-169.73 2619.3,-153.92 2663.6,-143.74"/>
<polygon fill="midnightblue" stroke="midnightblue" points="2664.52,-147.12 2673.48,-141.47 2662.95,-140.3 2664.52,-147.12"/>
</g>
<!-- Node18 -->
<g id="node18" class="node">
<title>Node18</title>
<g id="a_node18"><a xlink:title=" ">
<polygon fill="none" stroke="#bfbfbf" points="2756.5,-123.5 2756.5,-142.5 2839.5,-142.5 2839.5,-123.5 2756.5,-123.5"/>
<text text-anchor="middle" x="2798" y="-130.5" font-family="Helvetica,sans-Serif" font-size="10.00">initializer_list</text>
</a>
</g>
</g>
<!-- Node2&#45;&gt;Node18 -->
<g id="edge21" class="edge">
<title>Node2&#45;&gt;Node18</title>
<path fill="none" stroke="midnightblue" d="M2517.6,-180.68C2570.64,-172.29 2660.13,-157.97 2746.32,-143.27"/>
<polygon fill="midnightblue" stroke="midnightblue" points="2747,-146.7 2756.27,-141.57 2745.82,-139.8 2747,-146.7"/>
</g>
<!-- Node19 -->
<g id="node19" class="node">
<title>Node19</title>
<g id="a_node19"><a xlink:title=" ">
<polygon fill="none" stroke="#bfbfbf" points="2858,-123.5 2858,-142.5 2914,-142.5 2914,-123.5 2858,-123.5"/>
<text text-anchor="middle" x="2886" y="-130.5" font-family="Helvetica,sans-Serif" font-size="10.00">numeric</text>
</a>
</g>
</g>
<!-- Node2&#45;&gt;Node19 -->
<g id="edge23" class="edge">
<title>Node2&#45;&gt;Node19</title>
<path fill="none" stroke="midnightblue" d="M2517.53,-184.27C2587.24,-178.29 2723.06,-165.11 2847.69,-143.04"/>
<polygon fill="midnightblue" stroke="midnightblue" points="2848.57,-146.44 2857.79,-141.23 2847.33,-139.55 2848.57,-146.44"/>
</g>
<!-- Node20 -->
<g id="node20" class="node">
<title>Node20</title>
<g id="a_node20"><a xlink:title=" ">
<polygon fill="none" stroke="#bfbfbf" points="2157.5,-123.5 2157.5,-142.5 2226.5,-142.5 2226.5,-123.5 2157.5,-123.5"/>
<text text-anchor="middle" x="2192" y="-130.5" font-family="Helvetica,sans-Serif" font-size="10.00">type_traits</text>
</a>
</g>
</g>
<!-- Node2&#45;&gt;Node20 -->
<g id="edge24" class="edge">
<title>Node2&#45;&gt;Node20</title>
<path fill="none" stroke="midnightblue" d="M2424.83,-179.45C2379.36,-170.97 2307.65,-157.45 2236.72,-143.32"/>
<polygon fill="midnightblue" stroke="midnightblue" points="2237.21,-139.85 2226.72,-141.32 2235.84,-146.71 2237.21,-139.85"/>
</g>
<!-- Node21 -->
<g id="node21" class="node">
<title>Node21</title>
<g id="a_node21"><a xlink:title=" ">
<polygon fill="none" stroke="#bfbfbf" points="2932.5,-123.5 2932.5,-142.5 2979.5,-142.5 2979.5,-123.5 2932.5,-123.5"/>
<text text-anchor="middle" x="2956" y="-130.5" font-family="Helvetica,sans-Serif" font-size="10.00">vector</text>
</a>
</g>
</g>
<!-- Node2&#45;&gt;Node21 -->
<g id="edge25" class="edge">
<title>Node2&#45;&gt;Node21</title>
<path fill="none" stroke="midnightblue" d="M2517.56,-185.93C2598.15,-181.8 2768.89,-170.58 2922.24,-142.82"/>
<polygon fill="midnightblue" stroke="midnightblue" points="2923.11,-146.22 2932.32,-140.97 2921.85,-139.33 2923.11,-146.22"/>
</g>
<!-- Node6 -->
<g id="node6" class="node">
<title>Node6</title>
<g id="a_node6"><a xlink:href="device__qualifier_8hpp.html" target="_top" xlink:title=" ">
<polygon fill="none" stroke="black" points="2245,-62 2245,-81 2361,-81 2361,-62 2245,-62"/>
<text text-anchor="middle" x="2303" y="-69" font-family="Helvetica,sans-Serif" font-size="10.00">device_qualifier.hpp</text>
</a>
</g>
</g>
<!-- Node5&#45;&gt;Node6 -->
<g id="edge5" class="edge">
<title>Node5&#45;&gt;Node6</title>
<path fill="none" stroke="midnightblue" d="M2093.1,-123.48C2136.49,-112.94 2210.41,-94.99 2257.95,-83.44"/>
<polygon fill="midnightblue" stroke="midnightblue" points="2259.07,-86.77 2267.96,-81.01 2257.42,-79.97 2259.07,-86.77"/>
</g>
<!-- Node5&#45;&gt;Node7 -->
<g id="edge11" class="edge">
<title>Node5&#45;&gt;Node7</title>
<path fill="none" stroke="midnightblue" d="M2057.35,-123.27C2056.7,-107.14 2057.89,-72.79 2078,-56 2119.46,-21.39 2498.3,-13.17 2618.55,-11.43"/>
<polygon fill="midnightblue" stroke="midnightblue" points="2618.76,-14.93 2628.71,-11.29 2618.67,-7.93 2618.76,-14.93"/>
</g>
<!-- Node8 -->
<g id="node8" class="node">
<title>Node8</title>
<g id="a_node8"><a xlink:href="get_8hpp.html" target="_top" xlink:title=" ">
<polygon fill="none" stroke="black" points="1976.5,-62 1976.5,-81 2029.5,-81 2029.5,-62 1976.5,-62"/>
<text text-anchor="middle" x="2003" y="-69" font-family="Helvetica,sans-Serif" font-size="10.00">get.hpp</text>
</a>
</g>
</g>
<!-- Node5&#45;&gt;Node8 -->
<g id="edge7" class="edge">
<title>Node5&#45;&gt;Node8</title>
<path fill="none" stroke="midnightblue" d="M2050.12,-123.48C2041.71,-114.37 2028.18,-99.74 2017.77,-88.48"/>
<polygon fill="midnightblue" stroke="midnightblue" points="2020.22,-85.98 2010.87,-81.01 2015.08,-90.73 2020.22,-85.98"/>
</g>
<!-- Node5&#45;&gt;Node9 -->
<g id="edge12" class="edge">
<title>Node5&#45;&gt;Node9</title>
<path fill="none" stroke="midnightblue" d="M2014.73,-131.65C1968.81,-129.39 1895.74,-120.26 1843,-87 1820.47,-72.79 1803.39,-46.52 1793.78,-28.91"/>
<polygon fill="midnightblue" stroke="midnightblue" points="1796.72,-26.96 1789.01,-19.69 1790.5,-30.18 1796.72,-26.96"/>
</g>
<!-- Node11 -->
<g id="node11" class="node">
<title>Node11</title>
<g id="a_node11"><a xlink:title=" ">
<polygon fill="none" stroke="#bfbfbf" points="1851.5,-56.5 1851.5,-86.5 1958.5,-86.5 1958.5,-56.5 1851.5,-56.5"/>
<text text-anchor="start" x="1859.5" y="-74.5" font-family="Helvetica,sans-Serif" font-size="10.00">boost/serialization</text>
<text text-anchor="middle" x="1905" y="-63.5" font-family="Helvetica,sans-Serif" font-size="10.00">/access.hpp</text>
</a>
</g>
</g>
<!-- Node5&#45;&gt;Node11 -->
<g id="edge10" class="edge">
<title>Node5&#45;&gt;Node11</title>
<path fill="none" stroke="midnightblue" d="M2036.08,-123.48C2013.9,-114.85 1978.96,-101.26 1950.73,-90.29"/>
<polygon fill="midnightblue" stroke="midnightblue" points="1951.65,-86.89 1941.06,-86.52 1949.11,-93.41 1951.65,-86.89"/>
</g>
<!-- Node5&#45;&gt;Node12 -->
<g id="edge13" class="edge">
<title>Node5&#45;&gt;Node12</title>
<path fill="none" stroke="midnightblue" d="M2101.25,-125.1C2105.89,-124.38 2110.54,-123.67 2115,-123 2228.2,-106.07 2259.44,-116.6 2370,-87 2372.51,-86.33 2375.07,-85.53 2377.62,-84.66"/>
<polygon fill="midnightblue" stroke="midnightblue" points="2379.1,-87.85 2387.24,-81.06 2376.65,-81.29 2379.1,-87.85"/>
</g>
<!-- Node13 -->
<g id="node13" class="node">
<title>Node13</title>
<g id="a_node13"><a xlink:title=" ">
<polygon fill="none" stroke="#bfbfbf" points="2086.5,-62 2086.5,-81 2143.5,-81 2143.5,-62 2086.5,-62"/>
<text text-anchor="middle" x="2115" y="-69" font-family="Helvetica,sans-Serif" font-size="10.00">ostream</text>
</a>
</g>
</g>
<!-- Node5&#45;&gt;Node13 -->
<g id="edge14" class="edge">
<title>Node5&#45;&gt;Node13</title>
<path fill="none" stroke="midnightblue" d="M2066.17,-123.48C2074.89,-114.37 2088.9,-99.74 2099.69,-88.48"/>
<polygon fill="midnightblue" stroke="midnightblue" points="2102.46,-90.65 2106.85,-81.01 2097.4,-85.81 2102.46,-90.65"/>
</g>
<!-- Node14 -->
<g id="node14" class="node">
<title>Node14</title>
<g id="a_node14"><a xlink:title=" ">
<polygon fill="none" stroke="#bfbfbf" points="2161.5,-62 2161.5,-81 2226.5,-81 2226.5,-62 2161.5,-62"/>
<text text-anchor="middle" x="2194" y="-69" font-family="Helvetica,sans-Serif" font-size="10.00">stdexcept</text>
</a>
</g>
</g>
<!-- Node5&#45;&gt;Node14 -->
<g id="edge15" class="edge">
<title>Node5&#45;&gt;Node14</title>
<path fill="none" stroke="midnightblue" d="M2077.49,-123.48C2100.41,-113.45 2138.69,-96.7 2165.08,-85.15"/>
<polygon fill="midnightblue" stroke="midnightblue" points="2166.79,-88.22 2174.55,-81.01 2163.99,-81.81 2166.79,-88.22"/>
</g>
<!-- Node6&#45;&gt;Node7 -->
<g id="edge6" class="edge">
<title>Node6&#45;&gt;Node7</title>
<path fill="none" stroke="midnightblue" d="M2341.41,-61.94C2351.05,-59.89 2361.39,-57.79 2371,-56 2459.58,-39.55 2564.41,-23.93 2618.55,-16.14"/>
<polygon fill="midnightblue" stroke="midnightblue" points="2619.28,-19.58 2628.69,-14.69 2618.29,-12.65 2619.28,-19.58"/>
</g>
<!-- Node8&#45;&gt;Node9 -->
<g id="edge8" class="edge">
<title>Node8&#45;&gt;Node9</title>
<path fill="none" stroke="midnightblue" d="M1983.94,-61.99C1978.82,-59.87 1973.25,-57.72 1968,-56 1918.13,-39.64 1858.9,-26.12 1821.63,-18.29"/>
<polygon fill="midnightblue" stroke="midnightblue" points="1822.22,-14.84 1811.72,-16.24 1820.8,-21.7 1822.22,-14.84"/>
</g>
<!-- Node10 -->
<g id="node10" class="node">
<title>Node10</title>
<g id="a_node10"><a xlink:title=" ">
<polygon fill="none" stroke="#bfbfbf" points="1982.5,-0.5 1982.5,-19.5 2023.5,-19.5 2023.5,-0.5 1982.5,-0.5"/>
<text text-anchor="middle" x="2003" y="-7.5" font-family="Helvetica,sans-Serif" font-size="10.00">tuple</text>
</a>
</g>
</g>
<!-- Node8&#45;&gt;Node10 -->
<g id="edge9" class="edge">
<title>Node8&#45;&gt;Node10</title>
<path fill="none" stroke="midnightblue" d="M2003,-61.98C2003,-53.58 2003,-40.48 2003,-29.66"/>
<polygon fill="midnightblue" stroke="midnightblue" points="2006.5,-29.51 2003,-19.51 1999.5,-29.51 2006.5,-29.51"/>
</g>
<!-- Node22&#45;&gt;Node2 -->
<g id="edge28" class="edge">
<title>Node22&#45;&gt;Node2</title>
<path fill="none" stroke="midnightblue" d="M1416.07,-243.69C1563.22,-242.37 2027.54,-235.38 2410,-199 2411.47,-198.86 2412.95,-198.71 2414.45,-198.55"/>
<polygon fill="midnightblue" stroke="midnightblue" points="2414.91,-202.02 2424.43,-197.38 2414.09,-195.07 2414.91,-202.02"/>
</g>
<!-- Node22&#45;&gt;Node3 -->
<g id="edge43" class="edge">
<title>Node22&#45;&gt;Node3</title>
<path fill="none" stroke="midnightblue" d="M1416.11,-243.64C1608.02,-241.93 2322.23,-233.3 2355,-199 2368.89,-184.46 2352.53,-163.54 2337.6,-149.39"/>
<polygon fill="midnightblue" stroke="midnightblue" points="2339.88,-146.73 2330.09,-142.68 2335.21,-151.95 2339.88,-146.73"/>
</g>
<!-- Node22&#45;&gt;Node5 -->
<g id="edge27" class="edge">
<title>Node22&#45;&gt;Node5</title>
<path fill="none" stroke="midnightblue" d="M1416.07,-243.18C1586.44,-240.01 2162.29,-227.21 2189,-199 2216.95,-169.48 2158.69,-151.46 2111.13,-142.1"/>
<polygon fill="midnightblue" stroke="midnightblue" points="2111.65,-138.64 2101.18,-140.23 2110.36,-145.52 2111.65,-138.64"/>
</g>
<!-- Node22&#45;&gt;Node7 -->
<g id="edge34" class="edge">
<title>Node22&#45;&gt;Node7</title>
<path fill="none" stroke="midnightblue" d="M1416.33,-242.94C1679.69,-236.82 2954.58,-204.11 3009,-143 3028.01,-121.66 3024.07,-86.43 2988,-56 2943.76,-18.68 2768.05,-12.18 2691.25,-11.14"/>
<polygon fill="midnightblue" stroke="midnightblue" points="2691.13,-7.64 2681.09,-11.03 2691.05,-14.64 2691.13,-7.64"/>
</g>
<!-- Node22&#45;&gt;Node9 -->
<g id="edge35" class="edge">
<title>Node22&#45;&gt;Node9</title>
<path fill="none" stroke="midnightblue" d="M1321.83,-243.69C1100.17,-242.06 170.68,-233.18 120,-199 90.52,-179.11 70.7,-148.96 95,-123 153.56,-60.43 1507.33,-18.93 1748.44,-12.02"/>
<polygon fill="midnightblue" stroke="midnightblue" points="1748.55,-15.52 1758.45,-11.74 1748.35,-8.52 1748.55,-15.52"/>
</g>
<!-- Node22&#45;&gt;Node15 -->
<g id="edge32" class="edge">
<title>Node22&#45;&gt;Node15</title>
<path fill="none" stroke="midnightblue" d="M1321.97,-244.09C1101.01,-244.3 174.99,-242.55 133,-199 121.26,-186.83 124.28,-166.67 128.8,-152.03"/>
<polygon fill="midnightblue" stroke="midnightblue" points="132.13,-153.12 132.18,-142.53 125.53,-150.78 132.13,-153.12"/>
</g>
<!-- Node22&#45;&gt;Node20 -->
<g id="edge36" class="edge">
<title>Node22&#45;&gt;Node20</title>
<path fill="none" stroke="midnightblue" d="M1416.31,-243.6C1606.52,-241.76 2306.82,-232.7 2339,-199 2345.14,-192.57 2344.29,-186.15 2339,-179 2332.68,-170.45 2277.26,-155.11 2236.33,-144.74"/>
<polygon fill="midnightblue" stroke="midnightblue" points="2237.08,-141.32 2226.53,-142.29 2235.38,-148.11 2237.08,-141.32"/>
</g>
<!-- Node23 -->
<g id="node23" class="node">
<title>Node23</title>
<g id="a_node23"><a xlink:href="flatten_8hpp.html" target="_top" xlink:title=" ">
<polygon fill="none" stroke="black" points="2236,-179.5 2236,-198.5 2330,-198.5 2330,-179.5 2236,-179.5"/>
<text text-anchor="middle" x="2283" y="-186.5" font-family="Helvetica,sans-Serif" font-size="10.00">utils/flatten.hpp</text>
</a>
</g>
</g>
<!-- Node22&#45;&gt;Node23 -->
<g id="edge29" class="edge">
<title>Node22&#45;&gt;Node23</title>
<path fill="none" stroke="midnightblue" d="M1416.28,-243.06C1545.57,-240.16 1915.81,-229.6 2222,-199 2223.26,-198.87 2224.53,-198.74 2225.81,-198.6"/>
<polygon fill="midnightblue" stroke="midnightblue" points="2226.25,-202.07 2235.77,-197.42 2225.42,-195.12 2226.25,-202.07"/>
</g>
<!-- Node24 -->
<g id="node24" class="node">
<title>Node24</title>
<g id="a_node24"><a xlink:title=" ">
<polygon fill="none" stroke="#bfbfbf" points="142,-179.5 142,-198.5 184,-198.5 184,-179.5 142,-179.5"/>
<text text-anchor="middle" x="163" y="-186.5" font-family="Helvetica,sans-Serif" font-size="10.00">array</text>
</a>
</g>
</g>
<!-- Node22&#45;&gt;Node24 -->
<g id="edge33" class="edge">
<title>Node22&#45;&gt;Node24</title>
<path fill="none" stroke="midnightblue" d="M1321.93,-243.73C1131.37,-242.4 416.81,-235.05 194,-199 193.9,-198.98 193.8,-198.97 193.7,-198.95"/>
<polygon fill="midnightblue" stroke="midnightblue" points="194.7,-195.59 184.19,-196.89 193.22,-202.43 194.7,-195.59"/>
</g>
<!-- Node25 -->
<g id="node25" class="node">
<title>Node25</title>
<g id="a_node25"><a xlink:title=" ">
<polygon fill="none" stroke="#bfbfbf" points="202.5,-179.5 202.5,-198.5 247.5,-198.5 247.5,-179.5 202.5,-179.5"/>
<text text-anchor="middle" x="225" y="-186.5" font-family="Helvetica,sans-Serif" font-size="10.00">utility</text>
</a>
</g>
</g>
<!-- Node22&#45;&gt;Node25 -->
<g id="edge37" class="edge">
<title>Node22&#45;&gt;Node25</title>
<path fill="none" stroke="midnightblue" d="M1321.98,-243.56C1140.73,-241.64 486.58,-232.59 257.51,-198.59"/>
<polygon fill="midnightblue" stroke="midnightblue" points="258,-195.12 247.58,-197.06 256.93,-202.04 258,-195.12"/>
</g>
<!-- Node26 -->
<g id="node26" class="node">
<title>Node26</title>
<g id="a_node26"><a xlink:title=" ">
<polygon fill="none" stroke="#bfbfbf" points="265.5,-179.5 265.5,-198.5 434.5,-198.5 434.5,-179.5 265.5,-179.5"/>
<text text-anchor="middle" x="350" y="-186.5" font-family="Helvetica,sans-Serif" font-size="10.00">boost/qvm/mat_operations.hpp</text>
</a>
</g>
</g>
<!-- Node22&#45;&gt;Node26 -->
<g id="edge38" class="edge">
<title>Node22&#45;&gt;Node26</title>
<path fill="none" stroke="midnightblue" d="M1321.78,-242.48C1186.86,-237.99 787.86,-223.53 444.67,-199.01"/>
<polygon fill="midnightblue" stroke="midnightblue" points="444.76,-195.51 434.54,-198.28 444.26,-202.49 444.76,-195.51"/>
</g>
<!-- Node27 -->
<g id="node27" class="node">
<title>Node27</title>
<g id="a_node27"><a xlink:title=" ">
<polygon fill="none" stroke="#bfbfbf" points="452.5,-179.5 452.5,-198.5 643.5,-198.5 643.5,-179.5 452.5,-179.5"/>
<text text-anchor="middle" x="548" y="-186.5" font-family="Helvetica,sans-Serif" font-size="10.00">boost/qvm/vec_mat_operations.hpp</text>
</a>
</g>
</g>
<!-- Node22&#45;&gt;Node27 -->
<g id="edge39" class="edge">
<title>Node22&#45;&gt;Node27</title>
<path fill="none" stroke="midnightblue" d="M1321.64,-241.4C1208.39,-235.09 912.76,-218.16 653.92,-199.05"/>
<polygon fill="midnightblue" stroke="midnightblue" points="653.79,-195.53 643.56,-198.28 653.28,-202.51 653.79,-195.53"/>
</g>
<!-- Node28 -->
<g id="node28" class="node">
<title>Node28</title>
<g id="a_node28"><a xlink:title=" ">
<polygon fill="none" stroke="#bfbfbf" points="661.5,-179.5 661.5,-198.5 828.5,-198.5 828.5,-179.5 661.5,-179.5"/>
<text text-anchor="middle" x="745" y="-186.5" font-family="Helvetica,sans-Serif" font-size="10.00">boost/qvm/vec_operations.hpp</text>
</a>
</g>
</g>
<!-- Node22&#45;&gt;Node28 -->
<g id="edge40" class="edge">
<title>Node22&#45;&gt;Node28</title>
<path fill="none" stroke="midnightblue" d="M1321.74,-240.19C1230.65,-232.79 1024.16,-215.83 838.85,-199.07"/>
<polygon fill="midnightblue" stroke="midnightblue" points="838.92,-195.56 828.65,-198.14 838.29,-202.53 838.92,-195.56"/>
</g>
<!-- Node29 -->
<g id="node29" class="node">
<title>Node29</title>
<g id="a_node29"><a xlink:title=" ">
<polygon fill="none" stroke="#bfbfbf" points="847,-179.5 847,-198.5 999,-198.5 999,-179.5 847,-179.5"/>
<text text-anchor="middle" x="923" y="-186.5" font-family="Helvetica,sans-Serif" font-size="10.00">boost/qvm/deduce_mat.hpp</text>
</a>
</g>
</g>
<!-- Node22&#45;&gt;Node29 -->
<g id="edge41" class="edge">
<title>Node22&#45;&gt;Node29</title>
<path fill="none" stroke="midnightblue" d="M1321.69,-238.27C1245.95,-229.1 1096.58,-211.02 1003.72,-199.77"/>
<polygon fill="midnightblue" stroke="midnightblue" points="1003.87,-196.27 993.53,-198.54 1003.03,-203.22 1003.87,-196.27"/>
</g>
<!-- Node30 -->
<g id="node30" class="node">
<title>Node30</title>
<g id="a_node30"><a xlink:title=" ">
<polygon fill="none" stroke="#bfbfbf" points="1017,-179.5 1017,-198.5 1179,-198.5 1179,-179.5 1017,-179.5"/>
<text text-anchor="middle" x="1098" y="-186.5" font-family="Helvetica,sans-Serif" font-size="10.00">boost/qvm/deduce_scalar.hpp</text>
</a>
</g>
</g>
<!-- Node22&#45;&gt;Node30 -->
<g id="edge42" class="edge">
<title>Node22&#45;&gt;Node30</title>
<path fill="none" stroke="midnightblue" d="M1326.06,-235.44C1278.49,-225.96 1201.76,-210.67 1150.61,-200.48"/>
<polygon fill="midnightblue" stroke="midnightblue" points="1151.23,-197.04 1140.74,-198.52 1149.86,-203.9 1151.23,-197.04"/>
</g>
<!-- Node31 -->
<g id="node31" class="node">
<title>Node31</title>
<g id="a_node31"><a xlink:title=" ">
<polygon fill="none" stroke="#bfbfbf" points="1197,-179.5 1197,-198.5 1361,-198.5 1361,-179.5 1197,-179.5"/>
<text text-anchor="middle" x="1279" y="-186.5" font-family="Helvetica,sans-Serif" font-size="10.00">boost/qvm/map_mat_mat.hpp</text>
</a>
</g>
</g>
<!-- Node22&#45;&gt;Node31 -->
<g id="edge44" class="edge">
<title>Node22&#45;&gt;Node31</title>
<path fill="none" stroke="midnightblue" d="M1354.54,-235.32C1340.5,-226.9 1318.95,-213.97 1302.46,-204.07"/>
<polygon fill="midnightblue" stroke="midnightblue" points="1303.8,-200.8 1293.42,-198.65 1300.2,-206.8 1303.8,-200.8"/>
</g>
<!-- Node32 -->
<g id="node32" class="node">
<title>Node32</title>
<g id="a_node32"><a xlink:title=" ">
<polygon fill="none" stroke="#bfbfbf" points="1379.5,-179.5 1379.5,-198.5 1540.5,-198.5 1540.5,-179.5 1379.5,-179.5"/>
<text text-anchor="middle" x="1460" y="-186.5" font-family="Helvetica,sans-Serif" font-size="10.00">boost/qvm/map_mat_vec.hpp</text>
</a>
</g>
</g>
<!-- Node22&#45;&gt;Node32 -->
<g id="edge45" class="edge">
<title>Node22&#45;&gt;Node32</title>
<path fill="none" stroke="midnightblue" d="M1383.62,-235.32C1397.95,-226.82 1420.01,-213.73 1436.75,-203.8"/>
<polygon fill="midnightblue" stroke="midnightblue" points="1438.6,-206.77 1445.42,-198.65 1435.03,-200.75 1438.6,-206.77"/>
</g>
<!-- Node33 -->
<g id="node33" class="node">
<title>Node33</title>
<g id="a_node33"><a xlink:title=" ">
<polygon fill="none" stroke="#bfbfbf" points="1558.5,-179.5 1558.5,-198.5 1719.5,-198.5 1719.5,-179.5 1558.5,-179.5"/>
<text text-anchor="middle" x="1639" y="-186.5" font-family="Helvetica,sans-Serif" font-size="10.00">boost/qvm/map_vec_mat.hpp</text>
</a>
</g>
</g>
<!-- Node22&#45;&gt;Node33 -->
<g id="edge46" class="edge">
<title>Node22&#45;&gt;Node33</title>
<path fill="none" stroke="midnightblue" d="M1411.78,-235.44C1459.18,-225.96 1535.63,-210.67 1586.58,-200.48"/>
<polygon fill="midnightblue" stroke="midnightblue" points="1587.3,-203.91 1596.42,-198.52 1585.93,-197.05 1587.3,-203.91"/>
</g>
<!-- Node34 -->
<g id="node34" class="node">
<title>Node34</title>
<g id="a_node34"><a xlink:title=" ">
<polygon fill="none" stroke="#bfbfbf" points="1738,-179.5 1738,-198.5 1850,-198.5 1850,-179.5 1738,-179.5"/>
<text text-anchor="middle" x="1794" y="-186.5" font-family="Helvetica,sans-Serif" font-size="10.00">boost/qvm/mat.hpp</text>
</a>
</g>
</g>
<!-- Node22&#45;&gt;Node34 -->
<g id="edge47" class="edge">
<title>Node22&#45;&gt;Node34</title>
<path fill="none" stroke="midnightblue" d="M1416.2,-238.3C1483.13,-230.18 1609.74,-214.64 1728.03,-199.11"/>
<polygon fill="midnightblue" stroke="midnightblue" points="1728.53,-202.58 1737.99,-197.8 1727.62,-195.64 1728.53,-202.58"/>
</g>
<!-- Node35 -->
<g id="node35" class="node">
<title>Node35</title>
<g id="a_node35"><a xlink:title=" ">
<polygon fill="none" stroke="#bfbfbf" points="1868,-179.5 1868,-198.5 2018,-198.5 2018,-179.5 1868,-179.5"/>
<text text-anchor="middle" x="1943" y="-186.5" font-family="Helvetica,sans-Serif" font-size="10.00">boost/qvm/mat_access.hpp</text>
</a>
</g>
</g>
<!-- Node22&#45;&gt;Node35 -->
<g id="edge48" class="edge">
<title>Node22&#45;&gt;Node35</title>
<path fill="none" stroke="midnightblue" d="M1416.32,-239.89C1502.08,-232.4 1689.14,-215.82 1857.84,-199.1"/>
<polygon fill="midnightblue" stroke="midnightblue" points="1858.29,-202.57 1867.9,-198.1 1857.6,-195.61 1858.29,-202.57"/>
</g>
<!-- Node36 -->
<g id="node36" class="node">
<title>Node36</title>
<g id="a_node36"><a xlink:title=" ">
<polygon fill="none" stroke="#bfbfbf" points="2036.5,-179.5 2036.5,-198.5 2179.5,-198.5 2179.5,-179.5 2036.5,-179.5"/>
<text text-anchor="middle" x="2108" y="-186.5" font-family="Helvetica,sans-Serif" font-size="10.00">boost/qvm/mat_traits.hpp</text>
</a>
</g>
</g>
<!-- Node22&#45;&gt;Node36 -->
<g id="edge49" class="edge">
<title>Node22&#45;&gt;Node36</title>
<path fill="none" stroke="midnightblue" d="M1416.13,-241.46C1522.7,-235.58 1790.61,-219.96 2026.33,-199.02"/>
<polygon fill="midnightblue" stroke="midnightblue" points="2026.81,-202.49 2036.46,-198.11 2026.19,-195.52 2026.81,-202.49"/>
</g>
<!-- Node23&#45;&gt;Node12 -->
<g id="edge30" class="edge">
<title>Node23&#45;&gt;Node12</title>
<path fill="none" stroke="midnightblue" d="M2241.04,-179.49C2205.98,-171.42 2160,-158.29 2149,-143 2143.81,-135.78 2143.24,-129.77 2149,-123 2181.23,-85.09 2322.07,-100.38 2370,-87 2372.44,-86.32 2374.94,-85.52 2377.43,-84.66"/>
<polygon fill="midnightblue" stroke="midnightblue" points="2378.71,-87.92 2386.84,-81.13 2376.25,-81.37 2378.71,-87.92"/>
</g>
<!-- Node23&#45;&gt;Node20 -->
<g id="edge31" class="edge">
<title>Node23&#45;&gt;Node20</title>
<path fill="none" stroke="midnightblue" d="M2268.38,-179.32C2254.05,-170.82 2231.99,-157.73 2215.25,-147.8"/>
<polygon fill="midnightblue" stroke="midnightblue" points="2216.97,-144.75 2206.58,-142.65 2213.4,-150.77 2216.97,-144.75"/>
</g>
</g>
</svg>
