<?xml version="1.0" encoding="UTF-8" standalone="no"?>
<!DOCTYPE svg PUBLIC "-//W3C//DTD SVG 1.1//EN"
 "http://www.w3.org/Graphics/SVG/1.1/DTD/svg11.dtd">
<!-- Generated by graphviz version 2.43.0 (0)
 -->
<!-- Title: thermalized_bond.hpp Pages: 1 -->
<svg width="2429pt" height="554pt"
 viewBox="0.00 0.00 2428.50 554.00" xmlns="http://www.w3.org/2000/svg" xmlns:xlink="http://www.w3.org/1999/xlink">
<g id="graph0" class="graph" transform="scale(1 1) rotate(0) translate(4 550)">
<title>thermalized_bond.hpp</title>
<!-- Node1 -->
<g id="node1" class="node">
<title>Node1</title>
<g id="a_node1"><a xlink:title=" ">
<polygon fill="#bfbfbf" stroke="black" points="1883.5,-526.5 1883.5,-545.5 2008.5,-545.5 2008.5,-526.5 1883.5,-526.5"/>
<text text-anchor="middle" x="1946" y="-533.5" font-family="Helvetica,sans-Serif" font-size="10.00">thermalized_bond.hpp</text>
</a>
</g>
</g>
<!-- Node2 -->
<g id="node2" class="node">
<title>Node2</title>
<g id="a_node2"><a xlink:href="bonded__interaction__data_8hpp.html" target="_top" xlink:title=" ">
<polygon fill="none" stroke="black" points="1227,-459.5 1227,-489.5 1337,-489.5 1337,-459.5 1227,-459.5"/>
<text text-anchor="start" x="1235" y="-477.5" font-family="Helvetica,sans-Serif" font-size="10.00">bonded_interaction</text>
<text text-anchor="middle" x="1282" y="-466.5" font-family="Helvetica,sans-Serif" font-size="10.00">_data.hpp</text>
</a>
</g>
</g>
<!-- Node1&#45;&gt;Node2 -->
<g id="edge1" class="edge">
<title>Node1&#45;&gt;Node2</title>
<path fill="none" stroke="midnightblue" d="M1873.07,-528.46C1739.09,-516.46 1456.58,-491.14 1337.16,-480.44"/>
<polygon fill="midnightblue" stroke="midnightblue" points="1872.96,-531.97 1883.23,-529.38 1873.59,-525 1872.96,-531.97"/>
</g>
<!-- Node21 -->
<g id="node21" class="node">
<title>Node21</title>
<g id="a_node21"><a xlink:href="thermalized__bond__utils_8cpp.html" target="_top" xlink:title=" ">
<polygon fill="none" stroke="black" points="2269.5,-398 2269.5,-417 2420.5,-417 2420.5,-398 2269.5,-398"/>
<text text-anchor="middle" x="2345" y="-405" font-family="Helvetica,sans-Serif" font-size="10.00">thermalized_bond_utils.cpp</text>
</a>
</g>
</g>
<!-- Node1&#45;&gt;Node21 -->
<g id="edge49" class="edge">
<title>Node1&#45;&gt;Node21</title>
<path fill="none" stroke="midnightblue" d="M1911.4,-521.92C1897.49,-514.75 1882.89,-504.34 1875,-490 1868.36,-477.93 1865.72,-469.19 1875,-459 1903.93,-427.24 2217.4,-428.62 2260,-423 2272.62,-421.34 2286.22,-419.18 2298.78,-417.04"/>
<polygon fill="midnightblue" stroke="midnightblue" points="1910.3,-525.27 1920.84,-526.38 1913.29,-518.94 1910.3,-525.27"/>
</g>
<!-- Node38 -->
<g id="node38" class="node">
<title>Node38</title>
<g id="a_node38"><a xlink:href="thermalized__bond_8cpp.html" target="_top" xlink:title=" ">
<polygon fill="none" stroke="black" points="1883.5,-465 1883.5,-484 2008.5,-484 2008.5,-465 1883.5,-465"/>
<text text-anchor="middle" x="1946" y="-472" font-family="Helvetica,sans-Serif" font-size="10.00">thermalized_bond.cpp</text>
</a>
</g>
</g>
<!-- Node1&#45;&gt;Node38 -->
<g id="edge48" class="edge">
<title>Node1&#45;&gt;Node38</title>
<path fill="none" stroke="midnightblue" d="M1946,-516.32C1946,-505.5 1946,-492.4 1946,-484.01"/>
<polygon fill="midnightblue" stroke="midnightblue" points="1942.5,-516.48 1946,-526.48 1949.5,-516.48 1942.5,-516.48"/>
</g>
<!-- Node39 -->
<g id="node39" class="node">
<title>Node39</title>
<g id="a_node39"><a xlink:href="event_8cpp.html" target="_top" xlink:title=" ">
<polygon fill="none" stroke="black" points="2026.5,-465 2026.5,-484 2091.5,-484 2091.5,-465 2026.5,-465"/>
<text text-anchor="middle" x="2059" y="-472" font-family="Helvetica,sans-Serif" font-size="10.00">event.cpp</text>
</a>
</g>
</g>
<!-- Node1&#45;&gt;Node39 -->
<g id="edge50" class="edge">
<title>Node1&#45;&gt;Node39</title>
<path fill="none" stroke="midnightblue" d="M1971.24,-521.71C1993.12,-510.19 2024.14,-493.86 2042.84,-484.01"/>
<polygon fill="midnightblue" stroke="midnightblue" points="1969.41,-518.72 1962.19,-526.48 1972.67,-524.91 1969.41,-518.72"/>
</g>
<!-- Node40 -->
<g id="node40" class="node">
<title>Node40</title>
<g id="a_node40"><a xlink:href="thermostat_8cpp.html" target="_top" xlink:title=" ">
<polygon fill="none" stroke="black" points="2109.5,-465 2109.5,-484 2200.5,-484 2200.5,-465 2109.5,-465"/>
<text text-anchor="middle" x="2155" y="-472" font-family="Helvetica,sans-Serif" font-size="10.00">thermostat.cpp</text>
</a>
</g>
</g>
<!-- Node1&#45;&gt;Node40 -->
<g id="edge51" class="edge">
<title>Node1&#45;&gt;Node40</title>
<path fill="none" stroke="midnightblue" d="M1985.78,-523.68C2026.39,-512.11 2088.51,-494.43 2125.11,-484.01"/>
<polygon fill="midnightblue" stroke="midnightblue" points="1984.6,-520.37 1975.94,-526.48 1986.52,-527.1 1984.6,-520.37"/>
</g>
<!-- Node3 -->
<g id="node3" class="node">
<title>Node3</title>
<g id="a_node3"><a xlink:href="bonded__interaction__data_8cpp.html" target="_top" xlink:title=" ">
<polygon fill="none" stroke="black" points="2141,-392.5 2141,-422.5 2251,-422.5 2251,-392.5 2141,-392.5"/>
<text text-anchor="start" x="2149" y="-410.5" font-family="Helvetica,sans-Serif" font-size="10.00">bonded_interaction</text>
<text text-anchor="middle" x="2196" y="-399.5" font-family="Helvetica,sans-Serif" font-size="10.00">_data.cpp</text>
</a>
</g>
</g>
<!-- Node2&#45;&gt;Node3 -->
<g id="edge2" class="edge">
<title>Node2&#45;&gt;Node3</title>
<path fill="none" stroke="midnightblue" d="M1347.34,-473.25C1490.33,-471.9 1841.43,-464.27 2132,-423 2134.93,-422.58 2137.93,-422.1 2140.95,-421.57"/>
<polygon fill="midnightblue" stroke="midnightblue" points="1346.97,-469.75 1337,-473.34 1347.03,-476.75 1346.97,-469.75"/>
</g>
<!-- Node4 -->
<g id="node4" class="node">
<title>Node4</title>
<g id="a_node4"><a xlink:href="bonded__interaction__utils_8hpp.html" target="_top" xlink:title=" ">
<polygon fill="none" stroke="black" points="326,-392.5 326,-422.5 436,-422.5 436,-392.5 326,-392.5"/>
<text text-anchor="start" x="334" y="-410.5" font-family="Helvetica,sans-Serif" font-size="10.00">bonded_interaction</text>
<text text-anchor="middle" x="381" y="-399.5" font-family="Helvetica,sans-Serif" font-size="10.00">_utils.hpp</text>
</a>
</g>
</g>
<!-- Node2&#45;&gt;Node4 -->
<g id="edge3" class="edge">
<title>Node2&#45;&gt;Node4</title>
<path fill="none" stroke="midnightblue" d="M1216.53,-472.78C1075.69,-470.52 733.68,-461.21 450,-423 445.51,-422.4 440.88,-421.66 436.24,-420.85"/>
<polygon fill="midnightblue" stroke="midnightblue" points="1216.67,-476.28 1226.72,-472.94 1216.78,-469.28 1216.67,-476.28"/>
</g>
<!-- Node5 -->
<g id="node5" class="node">
<title>Node5</title>
<g id="a_node5"><a xlink:href="thole_8hpp.html" target="_top" xlink:title=" ">
<polygon fill="none" stroke="black" points="330,-336.5 330,-355.5 392,-355.5 392,-336.5 330,-336.5"/>
<text text-anchor="middle" x="361" y="-343.5" font-family="Helvetica,sans-Serif" font-size="10.00">thole.hpp</text>
</a>
</g>
</g>
<!-- Node2&#45;&gt;Node5 -->
<g id="edge25" class="edge">
<title>Node2&#45;&gt;Node5</title>
<path fill="none" stroke="midnightblue" d="M1216.91,-472.53C1005.2,-469.05 347.98,-455.64 317,-423 297.16,-402.1 330.6,-370.64 349.46,-355.6"/>
<polygon fill="midnightblue" stroke="midnightblue" points="1216.89,-476.03 1226.95,-472.69 1217.01,-469.03 1216.89,-476.03"/>
</g>
<!-- Node6 -->
<g id="node6" class="node">
<title>Node6</title>
<g id="a_node6"><a xlink:href="energy__inline_8hpp.html" target="_top" xlink:title=" ">
<polygon fill="none" stroke="black" points="208,-280.5 208,-299.5 312,-299.5 312,-280.5 208,-280.5"/>
<text text-anchor="middle" x="260" y="-287.5" font-family="Helvetica,sans-Serif" font-size="10.00">energy_inline.hpp</text>
</a>
</g>
</g>
<!-- Node2&#45;&gt;Node6 -->
<g id="edge24" class="edge">
<title>Node2&#45;&gt;Node6</title>
<path fill="none" stroke="midnightblue" d="M1216.64,-472.1C1004,-467.27 343.46,-450.16 307,-423 266.23,-392.63 260.7,-323.87 260.05,-299.64"/>
<polygon fill="midnightblue" stroke="midnightblue" points="1216.65,-475.6 1226.72,-472.32 1216.8,-468.6 1216.65,-475.6"/>
</g>
<!-- Node16 -->
<g id="node16" class="node">
<title>Node16</title>
<g id="a_node16"><a xlink:href="forces__inline_8hpp.html" target="_top" xlink:title=" ">
<polygon fill="none" stroke="black" points="410,-280.5 410,-299.5 510,-299.5 510,-280.5 410,-280.5"/>
<text text-anchor="middle" x="460" y="-287.5" font-family="Helvetica,sans-Serif" font-size="10.00">forces_inline.hpp</text>
</a>
</g>
</g>
<!-- Node2&#45;&gt;Node16 -->
<g id="edge34" class="edge">
<title>Node2&#45;&gt;Node16</title>
<path fill="none" stroke="midnightblue" d="M1216.9,-473.71C1037.53,-473.7 545.85,-469.39 491,-423 453.43,-391.23 456.54,-323.35 458.95,-299.5"/>
<polygon fill="midnightblue" stroke="midnightblue" points="1216.98,-477.21 1226.98,-473.71 1216.98,-470.21 1216.98,-477.21"/>
</g>
<!-- Node18 -->
<g id="node18" class="node">
<title>Node18</title>
<g id="a_node18"><a xlink:href="pressure__inline_8hpp.html" target="_top" xlink:title=" ">
<polygon fill="none" stroke="black" points="596,-224.5 596,-243.5 708,-243.5 708,-224.5 596,-224.5"/>
<text text-anchor="middle" x="652" y="-231.5" font-family="Helvetica,sans-Serif" font-size="10.00">pressure_inline.hpp</text>
</a>
</g>
</g>
<!-- Node2&#45;&gt;Node18 -->
<g id="edge46" class="edge">
<title>Node2&#45;&gt;Node18</title>
<path fill="none" stroke="midnightblue" d="M1216.41,-473.68C1053.96,-472.53 640.34,-459.32 562,-356 530.21,-314.07 603.82,-263.39 636.92,-243.55"/>
<polygon fill="midnightblue" stroke="midnightblue" points="1216.73,-477.18 1226.75,-473.74 1216.77,-470.18 1216.73,-477.18"/>
</g>
<!-- Node19 -->
<g id="node19" class="node">
<title>Node19</title>
<g id="a_node19"><a xlink:href="pressure_8cpp.html" target="_top" xlink:title=" ">
<polygon fill="none" stroke="black" points="954.5,-168.5 954.5,-187.5 1033.5,-187.5 1033.5,-168.5 954.5,-168.5"/>
<text text-anchor="middle" x="994" y="-175.5" font-family="Helvetica,sans-Serif" font-size="10.00">pressure.cpp</text>
</a>
</g>
</g>
<!-- Node2&#45;&gt;Node19 -->
<g id="edge45" class="edge">
<title>Node2&#45;&gt;Node19</title>
<path fill="none" stroke="midnightblue" d="M1224.87,-455.99C1187.69,-441.59 1149.73,-419.15 1171,-392 1213.86,-337.29 1353.87,-394.91 1317,-336 1253.82,-235.05 1105.12,-197.34 1033.68,-184.7"/>
<polygon fill="midnightblue" stroke="midnightblue" points="1223.68,-459.29 1234.27,-459.48 1226.12,-452.72 1223.68,-459.29"/>
</g>
<!-- Node2&#45;&gt;Node21 -->
<g id="edge22" class="edge">
<title>Node2&#45;&gt;Node21</title>
<path fill="none" stroke="midnightblue" d="M1347.52,-472.77C1505.14,-470.43 1917.85,-460.88 2260,-423 2273.39,-421.52 2287.87,-419.28 2301.02,-417.01"/>
<polygon fill="midnightblue" stroke="midnightblue" points="1347.01,-469.28 1337.06,-472.92 1347.11,-476.27 1347.01,-469.28"/>
</g>
<!-- Node22 -->
<g id="node22" class="node">
<title>Node22</title>
<g id="a_node22"><a xlink:href="collision_8cpp.html" target="_top" xlink:title=" ">
<polygon fill="none" stroke="black" points="1180.5,-398 1180.5,-417 1257.5,-417 1257.5,-398 1180.5,-398"/>
<text text-anchor="middle" x="1219" y="-405" font-family="Helvetica,sans-Serif" font-size="10.00">collision.cpp</text>
</a>
</g>
</g>
<!-- Node2&#45;&gt;Node22 -->
<g id="edge23" class="edge">
<title>Node2&#45;&gt;Node22</title>
<path fill="none" stroke="midnightblue" d="M1261.16,-452C1249.66,-440.13 1236.01,-426.05 1227.43,-417.19"/>
<polygon fill="midnightblue" stroke="midnightblue" points="1258.86,-454.65 1268.33,-459.4 1263.88,-449.78 1258.86,-454.65"/>
</g>
<!-- Node23 -->
<g id="node23" class="node">
<title>Node23</title>
<g id="a_node23"><a xlink:href="forces_8hpp.html" target="_top" xlink:title=" ">
<polygon fill="none" stroke="black" points="810,-398 810,-417 878,-417 878,-398 810,-398"/>
<text text-anchor="middle" x="844" y="-405" font-family="Helvetica,sans-Serif" font-size="10.00">forces.hpp</text>
</a>
</g>
</g>
<!-- Node2&#45;&gt;Node23 -->
<g id="edge26" class="edge">
<title>Node2&#45;&gt;Node23</title>
<path fill="none" stroke="midnightblue" d="M1216.96,-463.85C1122.54,-449.84 950.82,-424.35 878.05,-413.55"/>
<polygon fill="midnightblue" stroke="midnightblue" points="1216.57,-467.33 1226.97,-465.33 1217.59,-460.4 1216.57,-467.33"/>
</g>
<!-- Node29 -->
<g id="node29" class="node">
<title>Node29</title>
<g id="a_node29"><a xlink:href="ImmersedBoundaries_8cpp.html" target="_top" xlink:title=" ">
<polygon fill="none" stroke="black" points="1275.5,-398 1275.5,-417 1416.5,-417 1416.5,-398 1275.5,-398"/>
<text text-anchor="middle" x="1346" y="-405" font-family="Helvetica,sans-Serif" font-size="10.00">ImmersedBoundaries.cpp</text>
</a>
</g>
</g>
<!-- Node2&#45;&gt;Node29 -->
<g id="edge35" class="edge">
<title>Node2&#45;&gt;Node29</title>
<path fill="none" stroke="midnightblue" d="M1303.17,-452C1314.85,-440.13 1328.72,-426.05 1337.44,-417.19"/>
<polygon fill="midnightblue" stroke="midnightblue" points="1300.41,-449.81 1295.89,-459.4 1305.4,-454.73 1300.41,-449.81"/>
</g>
<!-- Node30 -->
<g id="node30" class="node">
<title>Node30</title>
<g id="a_node30"><a xlink:href="rattle_8hpp.html" target="_top" xlink:title=" ">
<polygon fill="none" stroke="black" points="1060,-398 1060,-417 1124,-417 1124,-398 1060,-398"/>
<text text-anchor="middle" x="1092" y="-405" font-family="Helvetica,sans-Serif" font-size="10.00">rattle.hpp</text>
</a>
</g>
</g>
<!-- Node2&#45;&gt;Node30 -->
<g id="edge36" class="edge">
<title>Node2&#45;&gt;Node30</title>
<path fill="none" stroke="midnightblue" d="M1225.59,-456.27C1187.3,-443.6 1139.01,-426.93 1112.13,-417.01"/>
<polygon fill="midnightblue" stroke="midnightblue" points="1224.5,-459.59 1235.09,-459.4 1226.69,-452.95 1224.5,-459.59"/>
</g>
<!-- Node32 -->
<g id="node32" class="node">
<title>Node32</title>
<g id="a_node32"><a xlink:href="interactions_8cpp.html" target="_top" xlink:title=" ">
<polygon fill="none" stroke="black" points="1434.5,-398 1434.5,-417 1529.5,-417 1529.5,-398 1434.5,-398"/>
<text text-anchor="middle" x="1482" y="-405" font-family="Helvetica,sans-Serif" font-size="10.00">interactions.cpp</text>
</a>
</g>
</g>
<!-- Node2&#45;&gt;Node32 -->
<g id="edge40" class="edge">
<title>Node2&#45;&gt;Node32</title>
<path fill="none" stroke="midnightblue" d="M1335.02,-456.27C1373.99,-443.6 1425.28,-426.93 1455.82,-417.01"/>
<polygon fill="midnightblue" stroke="midnightblue" points="1333.83,-452.98 1325.4,-459.4 1335.99,-459.63 1333.83,-452.98"/>
</g>
<!-- Node33 -->
<g id="node33" class="node">
<title>Node33</title>
<g id="a_node33"><a xlink:href="mpiio_8cpp.html" target="_top" xlink:title=" ">
<polygon fill="none" stroke="black" points="1547.5,-398 1547.5,-417 1612.5,-417 1612.5,-398 1547.5,-398"/>
<text text-anchor="middle" x="1580" y="-405" font-family="Helvetica,sans-Serif" font-size="10.00">mpiio.cpp</text>
</a>
</g>
</g>
<!-- Node2&#45;&gt;Node33 -->
<g id="edge41" class="edge">
<title>Node2&#45;&gt;Node33</title>
<path fill="none" stroke="midnightblue" d="M1347.54,-463.13C1399.6,-454.28 1474.04,-440.26 1538,-423 1544.26,-421.31 1550.93,-419.17 1557.07,-417.05"/>
<polygon fill="midnightblue" stroke="midnightblue" points="1346.72,-459.72 1337.44,-464.83 1347.88,-466.62 1346.72,-459.72"/>
</g>
<!-- Node34 -->
<g id="node34" class="node">
<title>Node34</title>
<g id="a_node34"><a xlink:href="nonbonded__interaction__data_8cpp.html" target="_top" xlink:title=" ">
<polygon fill="none" stroke="black" points="1631,-392.5 1631,-422.5 1759,-422.5 1759,-392.5 1631,-392.5"/>
<text text-anchor="start" x="1639" y="-410.5" font-family="Helvetica,sans-Serif" font-size="10.00">nonbonded_interaction</text>
<text text-anchor="middle" x="1695" y="-399.5" font-family="Helvetica,sans-Serif" font-size="10.00">_data.cpp</text>
</a>
</g>
</g>
<!-- Node2&#45;&gt;Node34 -->
<g id="edge42" class="edge">
<title>Node2&#45;&gt;Node34</title>
<path fill="none" stroke="midnightblue" d="M1347.21,-464.69C1415.57,-455.23 1526.04,-439.37 1621,-423 1624.23,-422.44 1627.53,-421.86 1630.86,-421.25"/>
<polygon fill="midnightblue" stroke="midnightblue" points="1346.45,-461.26 1337.02,-466.09 1347.41,-468.19 1346.45,-461.26"/>
</g>
<!-- Node35 -->
<g id="node35" class="node">
<title>Node35</title>
<g id="a_node35"><a xlink:href="oif__global__forces_8cpp.html" target="_top" xlink:title=" ">
<polygon fill="none" stroke="black" points="1777,-398 1777,-417 1897,-417 1897,-398 1777,-398"/>
<text text-anchor="middle" x="1837" y="-405" font-family="Helvetica,sans-Serif" font-size="10.00">oif_global_forces.cpp</text>
</a>
</g>
</g>
<!-- Node2&#45;&gt;Node35 -->
<g id="edge43" class="edge">
<title>Node2&#45;&gt;Node35</title>
<path fill="none" stroke="midnightblue" d="M1347.44,-468.87C1441.03,-461.75 1618.36,-446.43 1768,-423 1778.4,-421.37 1789.6,-419.2 1799.89,-417.04"/>
<polygon fill="midnightblue" stroke="midnightblue" points="1346.98,-465.39 1337.27,-469.63 1347.5,-472.37 1346.98,-465.39"/>
</g>
<!-- Node36 -->
<g id="node36" class="node">
<title>Node36</title>
<g id="a_node36"><a xlink:href="Observable__stat_8cpp.html" target="_top" xlink:title=" ">
<polygon fill="none" stroke="black" points="1915,-398 1915,-417 2031,-417 2031,-398 1915,-398"/>
<text text-anchor="middle" x="1973" y="-405" font-family="Helvetica,sans-Serif" font-size="10.00">Observable_stat.cpp</text>
</a>
</g>
</g>
<!-- Node2&#45;&gt;Node36 -->
<g id="edge44" class="edge">
<title>Node2&#45;&gt;Node36</title>
<path fill="none" stroke="midnightblue" d="M1347.68,-471.05C1461.76,-466.15 1703.73,-452.94 1906,-423 1916.36,-421.47 1927.51,-419.27 1937.69,-417.06"/>
<polygon fill="midnightblue" stroke="midnightblue" points="1347.21,-467.56 1337.37,-471.48 1347.51,-474.56 1347.21,-467.56"/>
</g>
<!-- Node37 -->
<g id="node37" class="node">
<title>Node37</title>
<g id="a_node37"><a xlink:href="bonded_8hpp.html" target="_top" xlink:title=" ">
<polygon fill="none" stroke="black" points="2049,-398 2049,-417 2123,-417 2123,-398 2049,-398"/>
<text text-anchor="middle" x="2086" y="-405" font-family="Helvetica,sans-Serif" font-size="10.00">bonded.hpp</text>
</a>
</g>
</g>
<!-- Node2&#45;&gt;Node37 -->
<g id="edge47" class="edge">
<title>Node2&#45;&gt;Node37</title>
<path fill="none" stroke="midnightblue" d="M1347.61,-474.36C1479.84,-474.96 1787.29,-470.54 2040,-423 2047.41,-421.61 2055.29,-419.4 2062.4,-417.13"/>
<polygon fill="midnightblue" stroke="midnightblue" points="1347.28,-470.86 1337.26,-474.3 1347.24,-477.86 1347.28,-470.86"/>
</g>
<!-- Node4&#45;&gt;Node5 -->
<g id="edge4" class="edge">
<title>Node4&#45;&gt;Node5</title>
<path fill="none" stroke="midnightblue" d="M373.07,-382.9C369.84,-373.3 366.31,-362.81 363.91,-355.66"/>
<polygon fill="midnightblue" stroke="midnightblue" points="369.76,-384.04 376.26,-392.4 376.39,-381.81 369.76,-384.04"/>
</g>
<!-- Node5&#45;&gt;Node6 -->
<g id="edge5" class="edge">
<title>Node5&#45;&gt;Node6</title>
<path fill="none" stroke="midnightblue" d="M335.92,-331.59C317.24,-321.61 292.3,-308.27 276.19,-299.65"/>
<polygon fill="midnightblue" stroke="midnightblue" points="334.3,-334.7 344.77,-336.32 337.6,-328.52 334.3,-334.7"/>
</g>
<!-- Node5&#45;&gt;Node16 -->
<g id="edge16" class="edge">
<title>Node5&#45;&gt;Node16</title>
<path fill="none" stroke="midnightblue" d="M385.84,-331.45C404.11,-321.48 428.42,-308.23 444.13,-299.65"/>
<polygon fill="midnightblue" stroke="midnightblue" points="384.01,-328.46 376.91,-336.32 387.36,-334.61 384.01,-328.46"/>
</g>
<!-- Node20 -->
<g id="node20" class="node">
<title>Node20</title>
<g id="a_node20"><a xlink:href="thole_8cpp.html" target="_top" xlink:title=" ">
<polygon fill="none" stroke="black" points="330,-280.5 330,-299.5 392,-299.5 392,-280.5 330,-280.5"/>
<text text-anchor="middle" x="361" y="-287.5" font-family="Helvetica,sans-Serif" font-size="10.00">thole.cpp</text>
</a>
</g>
</g>
<!-- Node5&#45;&gt;Node20 -->
<g id="edge21" class="edge">
<title>Node5&#45;&gt;Node20</title>
<path fill="none" stroke="midnightblue" d="M361,-325.8C361,-316.91 361,-306.78 361,-299.75"/>
<polygon fill="midnightblue" stroke="midnightblue" points="357.5,-326.08 361,-336.08 364.5,-326.08 357.5,-326.08"/>
</g>
<!-- Node7 -->
<g id="node7" class="node">
<title>Node7</title>
<g id="a_node7"><a xlink:href="ShapeBasedConstraint_8cpp.html" target="_top" xlink:title=" ">
<polygon fill="none" stroke="black" points="258.5,-224.5 258.5,-243.5 405.5,-243.5 405.5,-224.5 258.5,-224.5"/>
<text text-anchor="middle" x="332" y="-231.5" font-family="Helvetica,sans-Serif" font-size="10.00">ShapeBasedConstraint.cpp</text>
</a>
</g>
</g>
<!-- Node6&#45;&gt;Node7 -->
<g id="edge6" class="edge">
<title>Node6&#45;&gt;Node7</title>
<path fill="none" stroke="midnightblue" d="M279.87,-274.1C292.82,-264.38 309.3,-252.03 320.22,-243.83"/>
<polygon fill="midnightblue" stroke="midnightblue" points="277.47,-271.52 271.57,-280.32 281.67,-277.12 277.47,-271.52"/>
</g>
<!-- Node8 -->
<g id="node8" class="node">
<title>Node8</title>
<g id="a_node8"><a xlink:href="energy_8cpp.html" target="_top" xlink:title=" ">
<polygon fill="none" stroke="black" points="508.5,-224.5 508.5,-243.5 577.5,-243.5 577.5,-224.5 508.5,-224.5"/>
<text text-anchor="middle" x="543" y="-231.5" font-family="Helvetica,sans-Serif" font-size="10.00">energy.cpp</text>
</a>
</g>
</g>
<!-- Node6&#45;&gt;Node8 -->
<g id="edge7" class="edge">
<title>Node6&#45;&gt;Node8</title>
<path fill="none" stroke="midnightblue" d="M316.73,-278.58C365.19,-269.61 436.73,-256.23 499,-244 502.06,-243.4 505.24,-242.77 508.42,-242.13"/>
<polygon fill="midnightblue" stroke="midnightblue" points="315.95,-275.16 306.75,-280.42 317.22,-282.05 315.95,-275.16"/>
</g>
<!-- Node9 -->
<g id="node9" class="node">
<title>Node9</title>
<g id="a_node9"><a xlink:href="core_2pair__criteria_2pair__criteria_8hpp.html" target="_top" xlink:title=" ">
<polygon fill="none" stroke="black" points="144,-224.5 144,-243.5 240,-243.5 240,-224.5 144,-224.5"/>
<text text-anchor="middle" x="192" y="-231.5" font-family="Helvetica,sans-Serif" font-size="10.00">pair_criteria.hpp</text>
</a>
</g>
</g>
<!-- Node6&#45;&gt;Node9 -->
<g id="edge8" class="edge">
<title>Node6&#45;&gt;Node9</title>
<path fill="none" stroke="midnightblue" d="M241.24,-274.1C229,-264.38 213.44,-252.03 203.12,-243.83"/>
<polygon fill="midnightblue" stroke="midnightblue" points="239.07,-276.85 249.07,-280.32 243.42,-271.36 239.07,-276.85"/>
</g>
<!-- Node10 -->
<g id="node10" class="node">
<title>Node10</title>
<g id="a_node10"><a xlink:href="script__interface_2pair__criteria_2pair__criteria_8hpp.html" target="_top" xlink:title=" ">
<polygon fill="none" stroke="black" points="144,-168.5 144,-187.5 240,-187.5 240,-168.5 144,-168.5"/>
<text text-anchor="middle" x="192" y="-175.5" font-family="Helvetica,sans-Serif" font-size="10.00">pair_criteria.hpp</text>
</a>
</g>
</g>
<!-- Node9&#45;&gt;Node10 -->
<g id="edge9" class="edge">
<title>Node9&#45;&gt;Node10</title>
<path fill="none" stroke="midnightblue" d="M192,-213.8C192,-204.91 192,-194.78 192,-187.75"/>
<polygon fill="midnightblue" stroke="midnightblue" points="188.5,-214.08 192,-224.08 195.5,-214.08 188.5,-214.08"/>
</g>
<!-- Node11 -->
<g id="node11" class="node">
<title>Node11</title>
<g id="a_node11"><a xlink:href="core_2cluster__analysis_2ClusterStructure_8hpp.html" target="_top" xlink:title=" ">
<polygon fill="none" stroke="black" points="48,-112.5 48,-131.5 164,-131.5 164,-112.5 48,-112.5"/>
<text text-anchor="middle" x="106" y="-119.5" font-family="Helvetica,sans-Serif" font-size="10.00">ClusterStructure.hpp</text>
</a>
</g>
</g>
<!-- Node10&#45;&gt;Node11 -->
<g id="edge10" class="edge">
<title>Node10&#45;&gt;Node11</title>
<path fill="none" stroke="midnightblue" d="M169.55,-162.9C153.78,-153 133.19,-140.07 119.78,-131.65"/>
<polygon fill="midnightblue" stroke="midnightblue" points="167.85,-165.97 178.18,-168.32 171.57,-160.04 167.85,-165.97"/>
</g>
<!-- Node13 -->
<g id="node13" class="node">
<title>Node13</title>
<g id="a_node13"><a xlink:href="script__interface_2cluster__analysis_2ClusterStructure_8hpp.html" target="_top" xlink:title=" ">
<polygon fill="none" stroke="black" points="134,-56.5 134,-75.5 250,-75.5 250,-56.5 134,-56.5"/>
<text text-anchor="middle" x="192" y="-63.5" font-family="Helvetica,sans-Serif" font-size="10.00">ClusterStructure.hpp</text>
</a>
</g>
</g>
<!-- Node10&#45;&gt;Node13 -->
<g id="edge14" class="edge">
<title>Node10&#45;&gt;Node13</title>
<path fill="none" stroke="midnightblue" d="M192,-158.35C192,-134.25 192,-93.31 192,-75.59"/>
<polygon fill="midnightblue" stroke="midnightblue" points="188.5,-158.37 192,-168.37 195.5,-158.37 188.5,-158.37"/>
</g>
<!-- Node15 -->
<g id="node15" class="node">
<title>Node15</title>
<g id="a_node15"><a xlink:href="pair__criteria_2initialize_8cpp.html" target="_top" xlink:title=" ">
<polygon fill="none" stroke="black" points="220.5,-112.5 220.5,-131.5 299.5,-131.5 299.5,-112.5 220.5,-112.5"/>
<text text-anchor="middle" x="260" y="-119.5" font-family="Helvetica,sans-Serif" font-size="10.00">initialize.cpp</text>
</a>
</g>
</g>
<!-- Node10&#45;&gt;Node15 -->
<g id="edge15" class="edge">
<title>Node10&#45;&gt;Node15</title>
<path fill="none" stroke="midnightblue" d="M210.76,-162.1C223,-152.38 238.56,-140.03 248.88,-131.83"/>
<polygon fill="midnightblue" stroke="midnightblue" points="208.58,-159.36 202.93,-168.32 212.93,-164.85 208.58,-159.36"/>
</g>
<!-- Node12 -->
<g id="node12" class="node">
<title>Node12</title>
<g id="a_node12"><a xlink:href="ClusterStructure_8cpp.html" target="_top" xlink:title=" ">
<polygon fill="none" stroke="black" points="0,-56.5 0,-75.5 116,-75.5 116,-56.5 0,-56.5"/>
<text text-anchor="middle" x="58" y="-63.5" font-family="Helvetica,sans-Serif" font-size="10.00">ClusterStructure.cpp</text>
</a>
</g>
</g>
<!-- Node11&#45;&gt;Node12 -->
<g id="edge11" class="edge">
<title>Node11&#45;&gt;Node12</title>
<path fill="none" stroke="midnightblue" d="M91.27,-104.43C82.86,-94.97 72.65,-83.48 65.78,-75.75"/>
<polygon fill="midnightblue" stroke="midnightblue" points="88.81,-106.93 98.07,-112.08 94.05,-102.28 88.81,-106.93"/>
</g>
<!-- Node11&#45;&gt;Node13 -->
<g id="edge12" class="edge">
<title>Node11&#45;&gt;Node13</title>
<path fill="none" stroke="midnightblue" d="M128.45,-106.9C144.22,-97 164.81,-84.07 178.22,-75.65"/>
<polygon fill="midnightblue" stroke="midnightblue" points="126.43,-104.04 119.82,-112.32 130.15,-109.97 126.43,-104.04"/>
</g>
<!-- Node14 -->
<g id="node14" class="node">
<title>Node14</title>
<g id="a_node14"><a xlink:href="cluster__analysis_2initialize_8cpp.html" target="_top" xlink:title=" ">
<polygon fill="none" stroke="black" points="152.5,-0.5 152.5,-19.5 231.5,-19.5 231.5,-0.5 152.5,-0.5"/>
<text text-anchor="middle" x="192" y="-7.5" font-family="Helvetica,sans-Serif" font-size="10.00">initialize.cpp</text>
</a>
</g>
</g>
<!-- Node13&#45;&gt;Node14 -->
<g id="edge13" class="edge">
<title>Node13&#45;&gt;Node14</title>
<path fill="none" stroke="midnightblue" d="M192,-45.8C192,-36.91 192,-26.78 192,-19.75"/>
<polygon fill="midnightblue" stroke="midnightblue" points="188.5,-46.08 192,-56.08 195.5,-46.08 188.5,-46.08"/>
</g>
<!-- Node16&#45;&gt;Node7 -->
<g id="edge17" class="edge">
<title>Node16&#45;&gt;Node7</title>
<path fill="none" stroke="midnightblue" d="M430.38,-276.5C406.38,-266.38 373.22,-252.39 352.19,-243.52"/>
<polygon fill="midnightblue" stroke="midnightblue" points="429.14,-279.78 439.72,-280.44 431.86,-273.33 429.14,-279.78"/>
</g>
<!-- Node17 -->
<g id="node17" class="node">
<title>Node17</title>
<g id="a_node17"><a xlink:href="forces_8cpp.html" target="_top" xlink:title=" ">
<polygon fill="none" stroke="black" points="423.5,-224.5 423.5,-243.5 490.5,-243.5 490.5,-224.5 423.5,-224.5"/>
<text text-anchor="middle" x="457" y="-231.5" font-family="Helvetica,sans-Serif" font-size="10.00">forces.cpp</text>
</a>
</g>
</g>
<!-- Node16&#45;&gt;Node17 -->
<g id="edge18" class="edge">
<title>Node16&#45;&gt;Node17</title>
<path fill="none" stroke="midnightblue" d="M458.93,-269.8C458.44,-260.91 457.88,-250.78 457.49,-243.75"/>
<polygon fill="midnightblue" stroke="midnightblue" points="455.46,-270.29 459.5,-280.08 462.44,-269.9 455.46,-270.29"/>
</g>
<!-- Node16&#45;&gt;Node18 -->
<g id="edge19" class="edge">
<title>Node16&#45;&gt;Node18</title>
<path fill="none" stroke="midnightblue" d="M500.18,-277.7C536.42,-267.51 588.91,-252.74 621.72,-243.52"/>
<polygon fill="midnightblue" stroke="midnightblue" points="499.1,-274.37 490.42,-280.44 501,-281.11 499.1,-274.37"/>
</g>
<!-- Node18&#45;&gt;Node19 -->
<g id="edge20" class="edge">
<title>Node18&#45;&gt;Node19</title>
<path fill="none" stroke="midnightblue" d="M716.22,-222.86C786.24,-211.8 896.09,-194.46 954.46,-185.24"/>
<polygon fill="midnightblue" stroke="midnightblue" points="715.52,-219.43 706.19,-224.44 716.61,-226.34 715.52,-219.43"/>
</g>
<!-- Node23&#45;&gt;Node8 -->
<g id="edge30" class="edge">
<title>Node23&#45;&gt;Node8</title>
<path fill="none" stroke="midnightblue" d="M799.48,-404.65C728.49,-400.73 594.35,-389.05 562,-356 531.51,-324.85 537.67,-266 541.33,-243.78"/>
<polygon fill="midnightblue" stroke="midnightblue" points="799.72,-408.17 809.89,-405.19 800.09,-401.18 799.72,-408.17"/>
</g>
<!-- Node23&#45;&gt;Node16 -->
<g id="edge31" class="edge">
<title>Node23&#45;&gt;Node16</title>
<path fill="none" stroke="midnightblue" d="M799.83,-407.42C736.56,-407.02 617.97,-399.78 529,-356 501.53,-342.49 477.55,-314.3 466.49,-299.89"/>
<polygon fill="midnightblue" stroke="midnightblue" points="799.86,-410.92 809.87,-407.43 799.87,-403.92 799.86,-410.92"/>
</g>
<!-- Node24 -->
<g id="node24" class="node">
<title>Node24</title>
<g id="a_node24"><a xlink:href="DipolarBarnesHut_8cpp.html" target="_top" xlink:title=" ">
<polygon fill="none" stroke="black" points="571.5,-336.5 571.5,-355.5 694.5,-355.5 694.5,-336.5 571.5,-336.5"/>
<text text-anchor="middle" x="633" y="-343.5" font-family="Helvetica,sans-Serif" font-size="10.00">DipolarBarnesHut.cpp</text>
</a>
</g>
</g>
<!-- Node23&#45;&gt;Node24 -->
<g id="edge27" class="edge">
<title>Node23&#45;&gt;Node24</title>
<path fill="none" stroke="midnightblue" d="M804.1,-395.25C763.11,-383.69 700.2,-365.95 663.18,-355.51"/>
<polygon fill="midnightblue" stroke="midnightblue" points="803.19,-398.63 813.77,-397.98 805.09,-391.89 803.19,-398.63"/>
</g>
<!-- Node25 -->
<g id="node25" class="node">
<title>Node25</title>
<g id="a_node25"><a xlink:href="DipolarDirectSum_8cpp.html" target="_top" xlink:title=" ">
<polygon fill="none" stroke="black" points="712.5,-336.5 712.5,-355.5 835.5,-355.5 835.5,-336.5 712.5,-336.5"/>
<text text-anchor="middle" x="774" y="-343.5" font-family="Helvetica,sans-Serif" font-size="10.00">DipolarDirectSum.cpp</text>
</a>
</g>
</g>
<!-- Node23&#45;&gt;Node25 -->
<g id="edge28" class="edge">
<title>Node23&#45;&gt;Node25</title>
<path fill="none" stroke="midnightblue" d="M826.32,-391.47C812.93,-380.09 795.02,-364.87 784.01,-355.51"/>
<polygon fill="midnightblue" stroke="midnightblue" points="824.08,-394.17 833.97,-397.98 828.62,-388.83 824.08,-394.17"/>
</g>
<!-- Node26 -->
<g id="node26" class="node">
<title>Node26</title>
<g id="a_node26"><a xlink:href="Mmm1dgpuForce_8cpp.html" target="_top" xlink:title=" ">
<polygon fill="none" stroke="black" points="854,-336.5 854,-355.5 976,-355.5 976,-336.5 854,-336.5"/>
<text text-anchor="middle" x="915" y="-343.5" font-family="Helvetica,sans-Serif" font-size="10.00">Mmm1dgpuForce.cpp</text>
</a>
</g>
</g>
<!-- Node23&#45;&gt;Node26 -->
<g id="edge29" class="edge">
<title>Node23&#45;&gt;Node26</title>
<path fill="none" stroke="midnightblue" d="M861.93,-391.47C875.51,-380.09 893.68,-364.87 904.85,-355.51"/>
<polygon fill="midnightblue" stroke="midnightblue" points="859.59,-388.87 854.17,-397.98 864.09,-394.23 859.59,-388.87"/>
</g>
<!-- Node27 -->
<g id="node27" class="node">
<title>Node27</title>
<g id="a_node27"><a xlink:href="integrate_8cpp.html" target="_top" xlink:title=" ">
<polygon fill="none" stroke="black" points="1146.5,-336.5 1146.5,-355.5 1227.5,-355.5 1227.5,-336.5 1146.5,-336.5"/>
<text text-anchor="middle" x="1187" y="-343.5" font-family="Helvetica,sans-Serif" font-size="10.00">integrate.cpp</text>
</a>
</g>
</g>
<!-- Node23&#45;&gt;Node27 -->
<g id="edge32" class="edge">
<title>Node23&#45;&gt;Node27</title>
<path fill="none" stroke="midnightblue" d="M888.48,-398.94C945.91,-389.15 1048.94,-371.51 1137,-356 1140.04,-355.46 1143.18,-354.91 1146.35,-354.34"/>
<polygon fill="midnightblue" stroke="midnightblue" points="887.57,-395.54 878.3,-400.67 888.74,-402.44 887.57,-395.54"/>
</g>
<!-- Node28 -->
<g id="node28" class="node">
<title>Node28</title>
<g id="a_node28"><a xlink:href="VirtualSitesRelative_8cpp.html" target="_top" xlink:title=" ">
<polygon fill="none" stroke="black" points="994,-336.5 994,-355.5 1128,-355.5 1128,-336.5 994,-336.5"/>
<text text-anchor="middle" x="1061" y="-343.5" font-family="Helvetica,sans-Serif" font-size="10.00">VirtualSitesRelative.cpp</text>
</a>
</g>
</g>
<!-- Node23&#45;&gt;Node28 -->
<g id="edge33" class="edge">
<title>Node23&#45;&gt;Node28</title>
<path fill="none" stroke="midnightblue" d="M884.77,-395.32C926.92,-383.76 991.8,-365.97 1029.97,-355.51"/>
<polygon fill="midnightblue" stroke="midnightblue" points="883.81,-391.96 875.09,-397.98 885.66,-398.71 883.81,-391.96"/>
</g>
<!-- Node30&#45;&gt;Node2 -->
<g id="edge37" class="edge">
<title>Node30&#45;&gt;Node2</title>
<path fill="none" stroke="midnightblue" d="M1131.19,-420.09C1165.13,-431.09 1213.62,-447.64 1246.45,-459.4"/>
<polygon fill="midnightblue" stroke="midnightblue" points="1132.19,-416.74 1121.6,-417.01 1130.05,-423.4 1132.19,-416.74"/>
</g>
<!-- Node30&#45;&gt;Node27 -->
<g id="edge38" class="edge">
<title>Node30&#45;&gt;Node27</title>
<path fill="none" stroke="midnightblue" d="M1114.21,-392.59C1132.55,-381.1 1157.98,-365.18 1173.41,-355.51"/>
<polygon fill="midnightblue" stroke="midnightblue" points="1112.23,-389.7 1105.61,-397.98 1115.94,-395.63 1112.23,-389.7"/>
</g>
<!-- Node31 -->
<g id="node31" class="node">
<title>Node31</title>
<g id="a_node31"><a xlink:href="rattle_8cpp.html" target="_top" xlink:title=" ">
<polygon fill="none" stroke="black" points="1245.5,-336.5 1245.5,-355.5 1308.5,-355.5 1308.5,-336.5 1245.5,-336.5"/>
<text text-anchor="middle" x="1277" y="-343.5" font-family="Helvetica,sans-Serif" font-size="10.00">rattle.cpp</text>
</a>
</g>
</g>
<!-- Node30&#45;&gt;Node31 -->
<g id="edge39" class="edge">
<title>Node30&#45;&gt;Node31</title>
<path fill="none" stroke="midnightblue" d="M1128.13,-394.88C1164.09,-383.32 1218.42,-365.84 1250.54,-355.51"/>
<polygon fill="midnightblue" stroke="midnightblue" points="1126.95,-391.58 1118.51,-397.98 1129.1,-398.25 1126.95,-391.58"/>
</g>
</g>
</svg>
