<?xml version="1.0" encoding="UTF-8" standalone="no"?>
<!DOCTYPE svg PUBLIC "-//W3C//DTD SVG 1.1//EN"
 "http://www.w3.org/Graphics/SVG/1.1/DTD/svg11.dtd">
<!-- Generated by graphviz version 2.43.0 (0)
 -->
<!-- Title: thermostat.hpp Pages: 1 -->
<svg width="1495pt" height="263pt"
 viewBox="0.00 0.00 1495.00 263.00" xmlns="http://www.w3.org/2000/svg" xmlns:xlink="http://www.w3.org/1999/xlink">
<g id="graph0" class="graph" transform="scale(1 1) rotate(0) translate(4 259)">
<title>thermostat.hpp</title>
<!-- Node1 -->
<g id="node1" class="node">
<title>Node1</title>
<g id="a_node1"><a xlink:title=" ">
<polygon fill="#bfbfbf" stroke="black" points="1185,-235.5 1185,-254.5 1277,-254.5 1277,-235.5 1185,-235.5"/>
<text text-anchor="middle" x="1231" y="-242.5" font-family="Helvetica,sans-Serif" font-size="10.00">thermostat.hpp</text>
</a>
</g>
</g>
<!-- Node2 -->
<g id="node2" class="node">
<title>Node2</title>
<g id="a_node2"><a xlink:href="config_8hpp.html" target="_top" xlink:title=" ">
<polygon fill="none" stroke="black" points="124,-179.5 124,-198.5 192,-198.5 192,-179.5 124,-179.5"/>
<text text-anchor="middle" x="158" y="-186.5" font-family="Helvetica,sans-Serif" font-size="10.00">config.hpp</text>
</a>
</g>
</g>
<!-- Node1&#45;&gt;Node2 -->
<g id="edge1" class="edge">
<title>Node1&#45;&gt;Node2</title>
<path fill="none" stroke="midnightblue" d="M1184.89,-241.68C1008.2,-232.79 375.43,-200.94 202.15,-192.22"/>
<polygon fill="midnightblue" stroke="midnightblue" points="202.27,-188.72 192.11,-191.72 201.92,-195.71 202.27,-188.72"/>
</g>
<!-- Node4 -->
<g id="node4" class="node">
<title>Node4</title>
<g id="a_node4"><a xlink:href="Counter_8hpp.html" target="_top" xlink:title=" ">
<polygon fill="none" stroke="black" points="475,-179.5 475,-198.5 575,-198.5 575,-179.5 475,-179.5"/>
<text text-anchor="middle" x="525" y="-186.5" font-family="Helvetica,sans-Serif" font-size="10.00">utils/Counter.hpp</text>
</a>
</g>
</g>
<!-- Node1&#45;&gt;Node4 -->
<g id="edge3" class="edge">
<title>Node1&#45;&gt;Node4</title>
<path fill="none" stroke="midnightblue" d="M1184.95,-240.48C1061.59,-231.04 723.69,-205.2 585.31,-194.61"/>
<polygon fill="midnightblue" stroke="midnightblue" points="585.54,-191.12 575.3,-193.85 585,-198.1 585.54,-191.12"/>
</g>
<!-- Node6 -->
<g id="node6" class="node">
<title>Node6</title>
<g id="a_node6"><a xlink:href="Vector_8hpp.html" target="_top" xlink:title=" ">
<polygon fill="none" stroke="black" points="725.5,-179.5 725.5,-198.5 818.5,-198.5 818.5,-179.5 725.5,-179.5"/>
<text text-anchor="middle" x="772" y="-186.5" font-family="Helvetica,sans-Serif" font-size="10.00">utils/Vector.hpp</text>
</a>
</g>
</g>
<!-- Node1&#45;&gt;Node6 -->
<g id="edge5" class="edge">
<title>Node1&#45;&gt;Node6</title>
<path fill="none" stroke="midnightblue" d="M1184.89,-238.58C1100.31,-228.62 920.63,-207.49 828.72,-196.67"/>
<polygon fill="midnightblue" stroke="midnightblue" points="829.11,-193.19 818.77,-195.5 828.29,-200.15 829.11,-193.19"/>
</g>
<!-- Node11 -->
<g id="node11" class="node">
<title>Node11</title>
<g id="a_node11"><a xlink:title=" ">
<polygon fill="none" stroke="#bfbfbf" points="1110,-0.5 1110,-19.5 1162,-19.5 1162,-0.5 1110,-0.5"/>
<text text-anchor="middle" x="1136" y="-7.5" font-family="Helvetica,sans-Serif" font-size="10.00">cassert</text>
</a>
</g>
</g>
<!-- Node1&#45;&gt;Node11 -->
<g id="edge31" class="edge">
<title>Node1&#45;&gt;Node11</title>
<path fill="none" stroke="midnightblue" d="M1237.21,-235.47C1251.12,-215.23 1282.17,-163.05 1264,-123 1243.1,-76.94 1192.87,-42.38 1161.91,-24.55"/>
<polygon fill="midnightblue" stroke="midnightblue" points="1163.41,-21.38 1152.97,-19.56 1160,-27.49 1163.41,-21.38"/>
</g>
<!-- Node19 -->
<g id="node19" class="node">
<title>Node19</title>
<g id="a_node19"><a xlink:title=" ">
<polygon fill="none" stroke="#bfbfbf" points="1207.5,-123.5 1207.5,-142.5 1254.5,-142.5 1254.5,-123.5 1207.5,-123.5"/>
<text text-anchor="middle" x="1231" y="-130.5" font-family="Helvetica,sans-Serif" font-size="10.00">cmath</text>
</a>
</g>
</g>
<!-- Node1&#45;&gt;Node19 -->
<g id="edge32" class="edge">
<title>Node1&#45;&gt;Node19</title>
<path fill="none" stroke="midnightblue" d="M1231,-235.37C1231,-217.62 1231,-176.67 1231,-152.6"/>
<polygon fill="midnightblue" stroke="midnightblue" points="1234.5,-152.59 1231,-142.59 1227.5,-152.59 1234.5,-152.59"/>
</g>
<!-- Node25 -->
<g id="node25" class="node">
<title>Node25</title>
<g id="a_node25"><a xlink:title=" ">
<polygon fill="none" stroke="#bfbfbf" points="1311.5,-179.5 1311.5,-198.5 1418.5,-198.5 1418.5,-179.5 1311.5,-179.5"/>
<text text-anchor="middle" x="1365" y="-186.5" font-family="Helvetica,sans-Serif" font-size="10.00">boost/optional.hpp</text>
</a>
</g>
</g>
<!-- Node1&#45;&gt;Node25 -->
<g id="edge30" class="edge">
<title>Node1&#45;&gt;Node25</title>
<path fill="none" stroke="midnightblue" d="M1252.23,-235.44C1274.38,-226.52 1309.32,-212.44 1334.44,-202.32"/>
<polygon fill="midnightblue" stroke="midnightblue" points="1335.9,-205.5 1343.87,-198.52 1333.28,-199.01 1335.9,-205.5"/>
</g>
<!-- Node26 -->
<g id="node26" class="node">
<title>Node26</title>
<g id="a_node26"><a xlink:title=" ">
<polygon fill="none" stroke="#bfbfbf" points="1437,-179.5 1437,-198.5 1487,-198.5 1487,-179.5 1437,-179.5"/>
<text text-anchor="middle" x="1462" y="-186.5" font-family="Helvetica,sans-Serif" font-size="10.00">cstdint</text>
</a>
</g>
</g>
<!-- Node1&#45;&gt;Node26 -->
<g id="edge33" class="edge">
<title>Node1&#45;&gt;Node26</title>
<path fill="none" stroke="midnightblue" d="M1270.34,-235.43C1308.07,-227.12 1366.89,-213.92 1426.77,-199.24"/>
<polygon fill="midnightblue" stroke="midnightblue" points="1427.9,-202.57 1436.77,-196.78 1426.23,-195.77 1427.9,-202.57"/>
</g>
<!-- Node3 -->
<g id="node3" class="node">
<title>Node3</title>
<g id="a_node3"><a xlink:title=" ">
<polygon fill="none" stroke="#bfbfbf" points="0,-123.5 0,-142.5 112,-142.5 112,-123.5 0,-123.5"/>
<text text-anchor="middle" x="56" y="-130.5" font-family="Helvetica,sans-Serif" font-size="10.00">config&#45;features.hpp</text>
</a>
</g>
</g>
<!-- Node2&#45;&gt;Node3 -->
<g id="edge2" class="edge">
<title>Node2&#45;&gt;Node3</title>
<path fill="none" stroke="midnightblue" d="M141.61,-179.32C125.33,-170.7 100.13,-157.36 81.28,-147.39"/>
<polygon fill="midnightblue" stroke="midnightblue" points="82.82,-144.24 72.35,-142.65 79.55,-150.43 82.82,-144.24"/>
</g>
<!-- Node5 -->
<g id="node5" class="node">
<title>Node5</title>
<g id="a_node5"><a xlink:title=" ">
<polygon fill="none" stroke="#bfbfbf" points="42.5,-56.5 42.5,-86.5 149.5,-86.5 149.5,-56.5 42.5,-56.5"/>
<text text-anchor="start" x="50.5" y="-74.5" font-family="Helvetica,sans-Serif" font-size="10.00">boost/serialization</text>
<text text-anchor="middle" x="96" y="-63.5" font-family="Helvetica,sans-Serif" font-size="10.00">/access.hpp</text>
</a>
</g>
</g>
<!-- Node4&#45;&gt;Node5 -->
<g id="edge4" class="edge">
<title>Node4&#45;&gt;Node5</title>
<path fill="none" stroke="midnightblue" d="M474.73,-185.85C388.71,-181.5 217.38,-169.7 164,-143 142.18,-132.09 123.47,-111.27 111.23,-95.08"/>
<polygon fill="midnightblue" stroke="midnightblue" points="113.82,-92.69 105.11,-86.65 108.15,-96.8 113.82,-92.69"/>
</g>
<!-- Node7 -->
<g id="node7" class="node">
<title>Node7</title>
<g id="a_node7"><a xlink:title=" ">
<polygon fill="none" stroke="#bfbfbf" points="1001,-123.5 1001,-142.5 1151,-142.5 1151,-123.5 1001,-123.5"/>
<text text-anchor="middle" x="1076" y="-130.5" font-family="Helvetica,sans-Serif" font-size="10.00">boost/qvm/deduce_vec.hpp</text>
</a>
</g>
</g>
<!-- Node6&#45;&gt;Node7 -->
<g id="edge6" class="edge">
<title>Node6&#45;&gt;Node7</title>
<path fill="none" stroke="midnightblue" d="M818.5,-179.74C872.01,-170.24 959.93,-154.62 1017.89,-144.32"/>
<polygon fill="midnightblue" stroke="midnightblue" points="1018.76,-147.72 1028,-142.53 1017.54,-140.83 1018.76,-147.72"/>
</g>
<!-- Node8 -->
<g id="node8" class="node">
<title>Node8</title>
<g id="a_node8"><a xlink:title=" ">
<polygon fill="none" stroke="#bfbfbf" points="206,-123.5 206,-142.5 346,-142.5 346,-123.5 206,-123.5"/>
<text text-anchor="middle" x="276" y="-130.5" font-family="Helvetica,sans-Serif" font-size="10.00">boost/qvm/vec_traits.hpp</text>
</a>
</g>
</g>
<!-- Node6&#45;&gt;Node8 -->
<g id="edge7" class="edge">
<title>Node6&#45;&gt;Node8</title>
<path fill="none" stroke="midnightblue" d="M725.4,-183.06C650.13,-175.07 496.83,-158.7 356.3,-143.14"/>
<polygon fill="midnightblue" stroke="midnightblue" points="356.53,-139.64 346.21,-142.02 355.76,-146.6 356.53,-139.64"/>
</g>
<!-- Node9 -->
<g id="node9" class="node">
<title>Node9</title>
<g id="a_node9"><a xlink:href="Array_8hpp.html" target="_top" xlink:title=" ">
<polygon fill="none" stroke="black" points="897,-123.5 897,-142.5 983,-142.5 983,-123.5 897,-123.5"/>
<text text-anchor="middle" x="940" y="-130.5" font-family="Helvetica,sans-Serif" font-size="10.00">utils/Array.hpp</text>
</a>
</g>
</g>
<!-- Node6&#45;&gt;Node9 -->
<g id="edge8" class="edge">
<title>Node6&#45;&gt;Node9</title>
<path fill="none" stroke="midnightblue" d="M798.62,-179.44C827.01,-170.32 872.14,-155.81 903.75,-145.65"/>
<polygon fill="midnightblue" stroke="midnightblue" points="905.06,-148.91 913.5,-142.52 902.91,-142.24 905.06,-148.91"/>
</g>
<!-- Node6&#45;&gt;Node11 -->
<g id="edge21" class="edge">
<title>Node6&#45;&gt;Node11</title>
<path fill="none" stroke="midnightblue" d="M818.54,-186.01C916.67,-181.34 1137.62,-168.13 1160,-143 1188.69,-110.79 1163.32,-56.12 1147.08,-28.33"/>
<polygon fill="midnightblue" stroke="midnightblue" points="1150.02,-26.42 1141.83,-19.7 1144.04,-30.06 1150.02,-26.42"/>
</g>
<!-- Node13 -->
<g id="node13" class="node">
<title>Node13</title>
<g id="a_node13"><a xlink:title=" ">
<polygon fill="none" stroke="#bfbfbf" points="707.5,-0.5 707.5,-19.5 760.5,-19.5 760.5,-0.5 707.5,-0.5"/>
<text text-anchor="middle" x="734" y="-7.5" font-family="Helvetica,sans-Serif" font-size="10.00">cstddef</text>
</a>
</g>
</g>
<!-- Node6&#45;&gt;Node13 -->
<g id="edge23" class="edge">
<title>Node6&#45;&gt;Node13</title>
<path fill="none" stroke="midnightblue" d="M725.3,-185.19C589.86,-176.92 205.95,-152.68 197,-143 126,-66.23 564.71,-24.53 697.05,-13.81"/>
<polygon fill="midnightblue" stroke="midnightblue" points="697.42,-17.29 707.11,-13 696.86,-10.31 697.42,-17.29"/>
</g>
<!-- Node15 -->
<g id="node15" class="node">
<title>Node15</title>
<g id="a_node15"><a xlink:title=" ">
<polygon fill="none" stroke="#bfbfbf" points="657.5,-62 657.5,-81 710.5,-81 710.5,-62 657.5,-62"/>
<text text-anchor="middle" x="684" y="-69" font-family="Helvetica,sans-Serif" font-size="10.00">iterator</text>
</a>
</g>
</g>
<!-- Node6&#45;&gt;Node15 -->
<g id="edge26" class="edge">
<title>Node6&#45;&gt;Node15</title>
<path fill="none" stroke="midnightblue" d="M776.95,-179.3C783.73,-166.12 793.88,-140.76 783,-123 775.4,-110.6 742.43,-95.29 716.59,-84.8"/>
<polygon fill="midnightblue" stroke="midnightblue" points="717.7,-81.47 707.11,-81.03 715.11,-87.98 717.7,-81.47"/>
</g>
<!-- Node18 -->
<g id="node18" class="node">
<title>Node18</title>
<g id="a_node18"><a xlink:title=" ">
<polygon fill="none" stroke="#bfbfbf" points="364,-123.5 364,-142.5 428,-142.5 428,-123.5 364,-123.5"/>
<text text-anchor="middle" x="396" y="-130.5" font-family="Helvetica,sans-Serif" font-size="10.00">algorithm</text>
</a>
</g>
</g>
<!-- Node6&#45;&gt;Node18 -->
<g id="edge20" class="edge">
<title>Node6&#45;&gt;Node18</title>
<path fill="none" stroke="midnightblue" d="M725.48,-182.98C662.58,-175.92 546.71,-161.97 438.31,-143.11"/>
<polygon fill="midnightblue" stroke="midnightblue" points="438.63,-139.61 428.18,-141.33 437.42,-146.51 438.63,-139.61"/>
</g>
<!-- Node6&#45;&gt;Node19 -->
<g id="edge22" class="edge">
<title>Node6&#45;&gt;Node19</title>
<path fill="none" stroke="midnightblue" d="M818.68,-184.94C896.63,-179.41 1058.06,-166.1 1193,-143 1194.46,-142.75 1195.95,-142.48 1197.45,-142.19"/>
<polygon fill="midnightblue" stroke="midnightblue" points="1198.32,-145.58 1207.38,-140.08 1196.87,-138.73 1198.32,-145.58"/>
</g>
<!-- Node20 -->
<g id="node20" class="node">
<title>Node20</title>
<g id="a_node20"><a xlink:title=" ">
<polygon fill="none" stroke="#bfbfbf" points="446.5,-123.5 446.5,-142.5 511.5,-142.5 511.5,-123.5 446.5,-123.5"/>
<text text-anchor="middle" x="479" y="-130.5" font-family="Helvetica,sans-Serif" font-size="10.00">functional</text>
</a>
</g>
</g>
<!-- Node6&#45;&gt;Node20 -->
<g id="edge24" class="edge">
<title>Node6&#45;&gt;Node20</title>
<path fill="none" stroke="midnightblue" d="M725.45,-180.25C676.88,-172.04 598.26,-158.4 521.49,-143.24"/>
<polygon fill="midnightblue" stroke="midnightblue" points="522.14,-139.8 511.65,-141.29 520.78,-146.67 522.14,-139.8"/>
</g>
<!-- Node21 -->
<g id="node21" class="node">
<title>Node21</title>
<g id="a_node21"><a xlink:title=" ">
<polygon fill="none" stroke="#bfbfbf" points="529.5,-123.5 529.5,-142.5 612.5,-142.5 612.5,-123.5 529.5,-123.5"/>
<text text-anchor="middle" x="571" y="-130.5" font-family="Helvetica,sans-Serif" font-size="10.00">initializer_list</text>
</a>
</g>
</g>
<!-- Node6&#45;&gt;Node21 -->
<g id="edge25" class="edge">
<title>Node6&#45;&gt;Node21</title>
<path fill="none" stroke="midnightblue" d="M740.15,-179.44C705.6,-170.16 650.32,-155.31 612.42,-145.13"/>
<polygon fill="midnightblue" stroke="midnightblue" points="613.27,-141.73 602.7,-142.52 611.45,-148.49 613.27,-141.73"/>
</g>
<!-- Node22 -->
<g id="node22" class="node">
<title>Node22</title>
<g id="a_node22"><a xlink:title=" ">
<polygon fill="none" stroke="#bfbfbf" points="631,-123.5 631,-142.5 687,-142.5 687,-123.5 631,-123.5"/>
<text text-anchor="middle" x="659" y="-130.5" font-family="Helvetica,sans-Serif" font-size="10.00">numeric</text>
</a>
</g>
</g>
<!-- Node6&#45;&gt;Node22 -->
<g id="edge27" class="edge">
<title>Node6&#45;&gt;Node22</title>
<path fill="none" stroke="midnightblue" d="M754.09,-179.44C735.75,-170.68 706.99,-156.94 685.91,-146.86"/>
<polygon fill="midnightblue" stroke="midnightblue" points="687.35,-143.67 676.82,-142.52 684.33,-149.99 687.35,-143.67"/>
</g>
<!-- Node23 -->
<g id="node23" class="node">
<title>Node23</title>
<g id="a_node23"><a xlink:title=" ">
<polygon fill="none" stroke="#bfbfbf" points="705.5,-123.5 705.5,-142.5 774.5,-142.5 774.5,-123.5 705.5,-123.5"/>
<text text-anchor="middle" x="740" y="-130.5" font-family="Helvetica,sans-Serif" font-size="10.00">type_traits</text>
</a>
</g>
</g>
<!-- Node6&#45;&gt;Node23 -->
<g id="edge28" class="edge">
<title>Node6&#45;&gt;Node23</title>
<path fill="none" stroke="midnightblue" d="M766.72,-179.08C762.29,-171.61 755.84,-160.72 750.38,-151.52"/>
<polygon fill="midnightblue" stroke="midnightblue" points="753.29,-149.57 745.19,-142.75 747.27,-153.14 753.29,-149.57"/>
</g>
<!-- Node24 -->
<g id="node24" class="node">
<title>Node24</title>
<g id="a_node24"><a xlink:title=" ">
<polygon fill="none" stroke="#bfbfbf" points="831.5,-123.5 831.5,-142.5 878.5,-142.5 878.5,-123.5 831.5,-123.5"/>
<text text-anchor="middle" x="855" y="-130.5" font-family="Helvetica,sans-Serif" font-size="10.00">vector</text>
</a>
</g>
</g>
<!-- Node6&#45;&gt;Node24 -->
<g id="edge29" class="edge">
<title>Node6&#45;&gt;Node24</title>
<path fill="none" stroke="midnightblue" d="M785.34,-179.32C798.16,-170.98 817.78,-158.21 832.94,-148.35"/>
<polygon fill="midnightblue" stroke="midnightblue" points="835.22,-151.04 841.7,-142.65 831.41,-145.17 835.22,-151.04"/>
</g>
<!-- Node9&#45;&gt;Node5 -->
<g id="edge14" class="edge">
<title>Node9&#45;&gt;Node5</title>
<path fill="none" stroke="midnightblue" d="M896.96,-124.3C893.59,-123.82 890.24,-123.38 887,-123 617.91,-91.65 294.9,-78.65 160.04,-74.32"/>
<polygon fill="midnightblue" stroke="midnightblue" points="159.99,-70.82 149.88,-74 159.77,-77.81 159.99,-70.82"/>
</g>
<!-- Node10 -->
<g id="node10" class="node">
<title>Node10</title>
<g id="a_node10"><a xlink:href="device__qualifier_8hpp.html" target="_top" xlink:title=" ">
<polygon fill="none" stroke="black" points="1035,-62 1035,-81 1151,-81 1151,-62 1035,-62"/>
<text text-anchor="middle" x="1093" y="-69" font-family="Helvetica,sans-Serif" font-size="10.00">device_qualifier.hpp</text>
</a>
</g>
</g>
<!-- Node9&#45;&gt;Node10 -->
<g id="edge9" class="edge">
<title>Node9&#45;&gt;Node10</title>
<path fill="none" stroke="midnightblue" d="M961.92,-123.48C988.05,-113.31 1031.91,-96.26 1061.63,-84.7"/>
<polygon fill="midnightblue" stroke="midnightblue" points="1063.07,-87.9 1071.12,-81.01 1060.53,-81.37 1063.07,-87.9"/>
</g>
<!-- Node9&#45;&gt;Node11 -->
<g id="edge15" class="edge">
<title>Node9&#45;&gt;Node11</title>
<path fill="none" stroke="midnightblue" d="M948.94,-123.4C967.39,-105.78 1009.33,-66.36 1026,-56 1049.25,-41.55 1077.95,-29.99 1100.2,-22.21"/>
<polygon fill="midnightblue" stroke="midnightblue" points="1101.59,-25.43 1109.93,-18.9 1099.34,-18.81 1101.59,-25.43"/>
</g>
<!-- Node12 -->
<g id="node12" class="node">
<title>Node12</title>
<g id="a_node12"><a xlink:href="get_8hpp.html" target="_top" xlink:title=" ">
<polygon fill="none" stroke="black" points="767.5,-62 767.5,-81 820.5,-81 820.5,-62 767.5,-62"/>
<text text-anchor="middle" x="794" y="-69" font-family="Helvetica,sans-Serif" font-size="10.00">get.hpp</text>
</a>
</g>
</g>
<!-- Node9&#45;&gt;Node12 -->
<g id="edge11" class="edge">
<title>Node9&#45;&gt;Node12</title>
<path fill="none" stroke="midnightblue" d="M918.7,-123.42C896.34,-114.4 860.17,-99.77 829,-87 827.41,-86.35 825.78,-85.68 824.13,-85"/>
<polygon fill="midnightblue" stroke="midnightblue" points="825.3,-81.69 814.72,-81.11 822.62,-88.16 825.3,-81.69"/>
</g>
<!-- Node9&#45;&gt;Node13 -->
<g id="edge16" class="edge">
<title>Node9&#45;&gt;Node13</title>
<path fill="none" stroke="midnightblue" d="M896.93,-123.65C846.4,-113.5 768.18,-96.55 758,-87 742.19,-72.16 736.74,-47.02 734.9,-29.74"/>
<polygon fill="midnightblue" stroke="midnightblue" points="738.38,-29.42 734.13,-19.71 731.4,-29.95 738.38,-29.42"/>
</g>
<!-- Node9&#45;&gt;Node15 -->
<g id="edge17" class="edge">
<title>Node9&#45;&gt;Node15</title>
<path fill="none" stroke="midnightblue" d="M896.76,-124.71C853.05,-116.92 783.75,-103.46 725,-87 722.04,-86.17 718.99,-85.24 715.94,-84.26"/>
<polygon fill="midnightblue" stroke="midnightblue" points="716.98,-80.91 706.38,-81.02 714.73,-87.54 716.98,-80.91"/>
</g>
<!-- Node16 -->
<g id="node16" class="node">
<title>Node16</title>
<g id="a_node16"><a xlink:title=" ">
<polygon fill="none" stroke="#bfbfbf" points="838.5,-62 838.5,-81 895.5,-81 895.5,-62 838.5,-62"/>
<text text-anchor="middle" x="867" y="-69" font-family="Helvetica,sans-Serif" font-size="10.00">ostream</text>
</a>
</g>
</g>
<!-- Node9&#45;&gt;Node16 -->
<g id="edge18" class="edge">
<title>Node9&#45;&gt;Node16</title>
<path fill="none" stroke="midnightblue" d="M929.54,-123.48C918.05,-114.11 899.37,-98.88 885.41,-87.51"/>
<polygon fill="midnightblue" stroke="midnightblue" points="887.4,-84.61 877.44,-81.01 882.98,-90.04 887.4,-84.61"/>
</g>
<!-- Node17 -->
<g id="node17" class="node">
<title>Node17</title>
<g id="a_node17"><a xlink:title=" ">
<polygon fill="none" stroke="#bfbfbf" points="913.5,-62 913.5,-81 978.5,-81 978.5,-62 913.5,-62"/>
<text text-anchor="middle" x="946" y="-69" font-family="Helvetica,sans-Serif" font-size="10.00">stdexcept</text>
</a>
</g>
</g>
<!-- Node9&#45;&gt;Node17 -->
<g id="edge19" class="edge">
<title>Node9&#45;&gt;Node17</title>
<path fill="none" stroke="midnightblue" d="M940.86,-123.48C941.71,-115.08 943.03,-101.98 944.12,-91.16"/>
<polygon fill="midnightblue" stroke="midnightblue" points="947.62,-91.31 945.14,-81.01 940.66,-90.61 947.62,-91.31"/>
</g>
<!-- Node10&#45;&gt;Node11 -->
<g id="edge10" class="edge">
<title>Node10&#45;&gt;Node11</title>
<path fill="none" stroke="midnightblue" d="M1099.16,-61.98C1105.61,-53.05 1115.9,-38.81 1123.97,-27.64"/>
<polygon fill="midnightblue" stroke="midnightblue" points="1126.83,-29.66 1129.85,-19.51 1121.16,-25.56 1126.83,-29.66"/>
</g>
<!-- Node12&#45;&gt;Node13 -->
<g id="edge12" class="edge">
<title>Node12&#45;&gt;Node13</title>
<path fill="none" stroke="midnightblue" d="M785.4,-61.98C776.14,-52.78 761.18,-37.96 749.79,-26.66"/>
<polygon fill="midnightblue" stroke="midnightblue" points="752.15,-24.07 742.58,-19.51 747.22,-29.04 752.15,-24.07"/>
</g>
<!-- Node14 -->
<g id="node14" class="node">
<title>Node14</title>
<g id="a_node14"><a xlink:title=" ">
<polygon fill="none" stroke="#bfbfbf" points="778.5,-0.5 778.5,-19.5 819.5,-19.5 819.5,-0.5 778.5,-0.5"/>
<text text-anchor="middle" x="799" y="-7.5" font-family="Helvetica,sans-Serif" font-size="10.00">tuple</text>
</a>
</g>
</g>
<!-- Node12&#45;&gt;Node14 -->
<g id="edge13" class="edge">
<title>Node12&#45;&gt;Node14</title>
<path fill="none" stroke="midnightblue" d="M794.72,-61.98C795.42,-53.58 796.52,-40.48 797.43,-29.66"/>
<polygon fill="midnightblue" stroke="midnightblue" points="800.94,-29.77 798.28,-19.51 793.96,-29.18 800.94,-29.77"/>
</g>
</g>
</svg>
