<?xml version="1.0" encoding="UTF-8" standalone="no"?>
<!DOCTYPE svg PUBLIC "-//W3C//DTD SVG 1.1//EN"
 "http://www.w3.org/Graphics/SVG/1.1/DTD/svg11.dtd">
<!-- Generated by graphviz version 2.43.0 (0)
 -->
<!-- Title: triangle_functions.hpp Pages: 1 -->
<!--zoomable 610 -->
<svg id="main" version="1.1" xmlns="http://www.w3.org/2000/svg" xmlns:xlink="http://www.w3.org/1999/xlink" xml:space="preserve" onload="init(evt)">
<style type="text/css"><![CDATA[
.edge:hover path { stroke: red; }
.edge:hover polygon { stroke: red; fill: red; }
]]></style>
<script type="text/javascript"><![CDATA[
var edges = document.getElementsByTagName('g');
if (edges && edges.length) {
  for (var i=0;i<edges.length;i++) {
    if (edges[i].id.substr(0,4)=='edge') {
      edges[i].setAttribute('class','edge');
    }
  }
}
]]></script>
        <defs>
                <circle id="rim" cx="0" cy="0" r="7"/>
                <circle id="rim2" cx="0" cy="0" r="3.5"/>
                <g id="zoomPlus">
                        <use xlink:href="#rim" fill="#404040">
                                <set attributeName="fill" to="#808080" begin="zoomplus.mouseover" end="zoomplus.mouseout"/>
                        </use>
                        <path d="M-4,0h8M0,-4v8" fill="none" stroke="white" stroke-width="1.5" pointer-events="none"/>
                </g>
                <g id="zoomMin">
                        <use xlink:href="#rim" fill="#404040">
                                <set attributeName="fill" to="#808080" begin="zoomminus.mouseover" end="zoomminus.mouseout"/>
                        </use>
                        <path d="M-4,0h8" fill="none" stroke="white" stroke-width="1.5" pointer-events="none"/>
                </g>
                <g id="dirArrow">
                        <path fill="none" stroke="white" stroke-width="1.5" d="M0,-3.0v7 M-2.5,-0.5L0,-3.0L2.5,-0.5"/>
                </g>
               <g id="resetDef">
                       <use xlink:href="#rim2" fill="#404040">
                               <set attributeName="fill" to="#808080" begin="reset.mouseover" end="reset.mouseout"/>
                       </use>
               </g>
        </defs>

<script type="text/javascript">
var viewWidth = 1726;
var viewHeight = 610;
var sectionId = 'dynsection-1';
</script>
<script xlink:href="svgpan.js"/>
<svg id="graph" class="graph">
<g id="viewport">
<title>triangle_functions.hpp</title>
<!-- Node1 -->
<g id="node1" class="node">
<title>Node1</title>
<g id="a_node1"><a xlink:title=" ">
<polygon fill="#bfbfbf" stroke="black" points="800.44,-582.5 800.44,-601.5 925.44,-601.5 925.44,-582.5 800.44,-582.5"/>
<text text-anchor="middle" x="862.94" y="-589.5" font-family="Helvetica,sans-Serif" font-size="10.00">triangle_functions.hpp</text>
</a>
</g>
</g>
<!-- Node2 -->
<g id="node2" class="node">
<title>Node2</title>
<g id="a_node2"><a xlink:href="oif__local__forces_8hpp.html" target="_top" xlink:title=" ">
<polygon fill="none" stroke="black" points="763.94,-526.5 763.94,-545.5 877.94,-545.5 877.94,-526.5 763.94,-526.5"/>
<text text-anchor="middle" x="820.94" y="-533.5" font-family="Helvetica,sans-Serif" font-size="10.00">oif_local_forces.hpp</text>
</a>
</g>
</g>
<!-- Node1&#45;&gt;Node2 -->
<g id="edge1" class="edge">
<title>Node1&#45;&gt;Node2</title>
<path fill="none" stroke="midnightblue" d="M849.83,-574.14C842.51,-564.74 833.7,-553.4 827.74,-545.75"/>
<polygon fill="midnightblue" stroke="midnightblue" points="847.1,-576.34 856,-582.08 852.63,-572.04 847.1,-576.34"/>
</g>
<!-- Node36 -->
<g id="node36" class="node">
<title>Node36</title>
<g id="a_node36"><a xlink:href="oif__global__forces_8cpp.html" target="_top" xlink:title=" ">
<polygon fill="none" stroke="black" points="1597.94,-398 1597.94,-417 1717.94,-417 1717.94,-398 1597.94,-398"/>
<text text-anchor="middle" x="1657.94" y="-405" font-family="Helvetica,sans-Serif" font-size="10.00">oif_global_forces.cpp</text>
</a>
</g>
</g>
<!-- Node1&#45;&gt;Node36 -->
<g id="edge50" class="edge">
<title>Node1&#45;&gt;Node36</title>
<path fill="none" stroke="midnightblue" d="M910.13,-580.17C1054.84,-546.95 1490.46,-446.95 1620.74,-417.04"/>
<polygon fill="midnightblue" stroke="midnightblue" points="909.18,-576.79 900.22,-582.44 910.75,-583.62 909.18,-576.79"/>
</g>
<!-- Node3 -->
<g id="node3" class="node">
<title>Node3</title>
<g id="a_node3"><a xlink:href="bonded__interaction__data_8hpp.html" target="_top" xlink:title=" ">
<polygon fill="none" stroke="black" points="765.94,-459.5 765.94,-489.5 875.94,-489.5 875.94,-459.5 765.94,-459.5"/>
<text text-anchor="start" x="773.94" y="-477.5" font-family="Helvetica,sans-Serif" font-size="10.00">bonded_interaction</text>
<text text-anchor="middle" x="820.94" y="-466.5" font-family="Helvetica,sans-Serif" font-size="10.00">_data.hpp</text>
</a>
</g>
</g>
<!-- Node2&#45;&gt;Node3 -->
<g id="edge2" class="edge">
<title>Node2&#45;&gt;Node3</title>
<path fill="none" stroke="midnightblue" d="M820.94,-516.23C820.94,-507.59 820.94,-497.5 820.94,-489.52"/>
<polygon fill="midnightblue" stroke="midnightblue" points="817.44,-516.48 820.94,-526.48 824.44,-516.48 817.44,-516.48"/>
</g>
<!-- Node17 -->
<g id="node17" class="node">
<title>Node17</title>
<g id="a_node17"><a xlink:href="forces__inline_8hpp.html" target="_top" xlink:title=" ">
<polygon fill="none" stroke="black" points="109.94,-280.5 109.94,-299.5 209.94,-299.5 209.94,-280.5 109.94,-280.5"/>
<text text-anchor="middle" x="159.94" y="-287.5" font-family="Helvetica,sans-Serif" font-size="10.00">forces_inline.hpp</text>
</a>
</g>
</g>
<!-- Node2&#45;&gt;Node17 -->
<g id="edge49" class="edge">
<title>Node2&#45;&gt;Node17</title>
<path fill="none" stroke="midnightblue" d="M753.64,-530.57C569.68,-517.78 68.93,-478.17 20.94,-423 -23.07,-372.4 88.32,-319.68 137.74,-299.52"/>
<polygon fill="midnightblue" stroke="midnightblue" points="753.51,-534.07 763.73,-531.27 753.99,-527.09 753.51,-534.07"/>
</g>
<!-- Node4 -->
<g id="node4" class="node">
<title>Node4</title>
<g id="a_node4"><a xlink:href="bonded__interaction__data_8cpp.html" target="_top" xlink:title=" ">
<polygon fill="none" stroke="black" points="29.94,-392.5 29.94,-422.5 139.94,-422.5 139.94,-392.5 29.94,-392.5"/>
<text text-anchor="start" x="37.94" y="-410.5" font-family="Helvetica,sans-Serif" font-size="10.00">bonded_interaction</text>
<text text-anchor="middle" x="84.94" y="-399.5" font-family="Helvetica,sans-Serif" font-size="10.00">_data.cpp</text>
</a>
</g>
</g>
<!-- Node3&#45;&gt;Node4 -->
<g id="edge3" class="edge">
<title>Node3&#45;&gt;Node4</title>
<path fill="none" stroke="midnightblue" d="M755.67,-471.41C635.89,-466.94 373.18,-454.2 153.94,-423 149.45,-422.36 144.83,-421.61 140.19,-420.78"/>
<polygon fill="midnightblue" stroke="midnightblue" points="755.65,-474.91 765.77,-471.78 755.9,-467.91 755.65,-474.91"/>
</g>
<!-- Node5 -->
<g id="node5" class="node">
<title>Node5</title>
<g id="a_node5"><a xlink:href="bonded__interaction__utils_8hpp.html" target="_top" xlink:title=" ">
<polygon fill="none" stroke="black" points="195.94,-392.5 195.94,-422.5 305.94,-422.5 305.94,-392.5 195.94,-392.5"/>
<text text-anchor="start" x="203.94" y="-410.5" font-family="Helvetica,sans-Serif" font-size="10.00">bonded_interaction</text>
<text text-anchor="middle" x="250.94" y="-399.5" font-family="Helvetica,sans-Serif" font-size="10.00">_utils.hpp</text>
</a>
</g>
</g>
<!-- Node3&#45;&gt;Node5 -->
<g id="edge4" class="edge">
<title>Node3&#45;&gt;Node5</title>
<path fill="none" stroke="midnightblue" d="M755.71,-469.16C659.84,-462.27 475.39,-447.1 319.94,-423 315.46,-422.31 310.84,-421.51 306.2,-420.66"/>
<polygon fill="midnightblue" stroke="midnightblue" points="755.61,-472.66 765.84,-469.88 756.11,-465.68 755.61,-472.66"/>
</g>
<!-- Node6 -->
<g id="node6" class="node">
<title>Node6</title>
<g id="a_node6"><a xlink:href="thole_8hpp.html" target="_top" xlink:title=" ">
<polygon fill="none" stroke="black" points="227.94,-336.5 227.94,-355.5 289.94,-355.5 289.94,-336.5 227.94,-336.5"/>
<text text-anchor="middle" x="258.94" y="-343.5" font-family="Helvetica,sans-Serif" font-size="10.00">thole.hpp</text>
</a>
</g>
</g>
<!-- Node3&#45;&gt;Node6 -->
<g id="edge26" class="edge">
<title>Node3&#45;&gt;Node6</title>
<path fill="none" stroke="midnightblue" d="M755.54,-470.71C645.52,-465.3 428.54,-451.34 357.94,-423 347.88,-418.96 293.11,-374.85 269.63,-355.74"/>
<polygon fill="midnightblue" stroke="midnightblue" points="755.68,-474.22 765.84,-471.21 756.02,-467.23 755.68,-474.22"/>
</g>
<!-- Node7 -->
<g id="node7" class="node">
<title>Node7</title>
<g id="a_node7"><a xlink:href="energy__inline_8hpp.html" target="_top" xlink:title=" ">
<polygon fill="none" stroke="black" points="732.94,-280.5 732.94,-299.5 836.94,-299.5 836.94,-280.5 732.94,-280.5"/>
<text text-anchor="middle" x="784.94" y="-287.5" font-family="Helvetica,sans-Serif" font-size="10.00">energy_inline.hpp</text>
</a>
</g>
</g>
<!-- Node3&#45;&gt;Node7 -->
<g id="edge25" class="edge">
<title>Node3&#45;&gt;Node7</title>
<path fill="none" stroke="midnightblue" d="M886.28,-471.37C1061.21,-465.37 1528.42,-447.13 1550.94,-423 1577.32,-394.73 1577.47,-364.13 1550.94,-336 1526.45,-310.03 1005.82,-296 837.16,-292.12"/>
<polygon fill="midnightblue" stroke="midnightblue" points="886.06,-467.88 876.18,-471.72 886.3,-474.88 886.06,-467.88"/>
</g>
<!-- Node3&#45;&gt;Node17 -->
<g id="edge35" class="edge">
<title>Node3&#45;&gt;Node17</title>
<path fill="none" stroke="midnightblue" d="M755.7,-472.67C602.38,-470.11 228.88,-460.1 186.94,-423 150.5,-390.76 155.45,-323.77 158.59,-299.78"/>
<polygon fill="midnightblue" stroke="midnightblue" points="755.86,-476.17 765.91,-472.84 755.97,-469.17 755.86,-476.17"/>
</g>
<!-- Node19 -->
<g id="node19" class="node">
<title>Node19</title>
<g id="a_node19"><a xlink:href="pressure__inline_8hpp.html" target="_top" xlink:title=" ">
<polygon fill="none" stroke="black" points="167.94,-224.5 167.94,-243.5 279.94,-243.5 279.94,-224.5 167.94,-224.5"/>
<text text-anchor="middle" x="223.94" y="-231.5" font-family="Helvetica,sans-Serif" font-size="10.00">pressure_inline.hpp</text>
</a>
</g>
</g>
<!-- Node3&#45;&gt;Node19 -->
<g id="edge47" class="edge">
<title>Node3&#45;&gt;Node19</title>
<path fill="none" stroke="midnightblue" d="M755.46,-472.54C650.48,-469.91 450.26,-460.02 390.94,-423 326.83,-382.98 353.21,-332.6 298.94,-280 282.58,-264.15 259.64,-251.42 243.45,-243.6"/>
<polygon fill="midnightblue" stroke="midnightblue" points="755.55,-476.05 765.63,-472.78 755.71,-469.05 755.55,-476.05"/>
</g>
<!-- Node20 -->
<g id="node20" class="node">
<title>Node20</title>
<g id="a_node20"><a xlink:href="pressure_8cpp.html" target="_top" xlink:title=" ">
<polygon fill="none" stroke="black" points="99.44,-168.5 99.44,-187.5 178.44,-187.5 178.44,-168.5 99.44,-168.5"/>
<text text-anchor="middle" x="138.94" y="-175.5" font-family="Helvetica,sans-Serif" font-size="10.00">pressure.cpp</text>
</a>
</g>
</g>
<!-- Node3&#45;&gt;Node20 -->
<g id="edge46" class="edge">
<title>Node3&#45;&gt;Node20</title>
<path fill="none" stroke="midnightblue" d="M755.53,-471.46C569.5,-465.39 49.01,-446.38 20.94,-423 -5.82,-400.72 1.94,-381.82 1.94,-347 1.94,-347 1.94,-347 1.94,-289 1.94,-233.79 70.42,-201.66 110.55,-187.58"/>
<polygon fill="midnightblue" stroke="midnightblue" points="755.61,-474.97 765.71,-471.79 755.83,-467.97 755.61,-474.97"/>
</g>
<!-- Node22 -->
<g id="node22" class="node">
<title>Node22</title>
<g id="a_node22"><a xlink:href="thermalized__bond__utils_8cpp.html" target="_top" xlink:title=" ">
<polygon fill="none" stroke="black" points="486.44,-398 486.44,-417 637.44,-417 637.44,-398 486.44,-398"/>
<text text-anchor="middle" x="561.94" y="-405" font-family="Helvetica,sans-Serif" font-size="10.00">thermalized_bond_utils.cpp</text>
</a>
</g>
</g>
<!-- Node3&#45;&gt;Node22 -->
<g id="edge23" class="edge">
<title>Node3&#45;&gt;Node22</title>
<path fill="none" stroke="midnightblue" d="M755.79,-457.15C705.04,-444.41 636.61,-427.24 596.09,-417.07"/>
<polygon fill="midnightblue" stroke="midnightblue" points="755.14,-460.6 765.69,-459.64 756.85,-453.81 755.14,-460.6"/>
</g>
<!-- Node23 -->
<g id="node23" class="node">
<title>Node23</title>
<g id="a_node23"><a xlink:href="collision_8cpp.html" target="_top" xlink:title=" ">
<polygon fill="none" stroke="black" points="655.44,-398 655.44,-417 732.44,-417 732.44,-398 655.44,-398"/>
<text text-anchor="middle" x="693.94" y="-405" font-family="Helvetica,sans-Serif" font-size="10.00">collision.cpp</text>
</a>
</g>
</g>
<!-- Node3&#45;&gt;Node23 -->
<g id="edge24" class="edge">
<title>Node3&#45;&gt;Node23</title>
<path fill="none" stroke="midnightblue" d="M784.41,-454.8C760.06,-442.34 729.22,-426.56 710.56,-417.01"/>
<polygon fill="midnightblue" stroke="midnightblue" points="782.88,-457.96 793.38,-459.4 786.07,-451.72 782.88,-457.96"/>
</g>
<!-- Node24 -->
<g id="node24" class="node">
<title>Node24</title>
<g id="a_node24"><a xlink:href="forces_8hpp.html" target="_top" xlink:title=" ">
<polygon fill="none" stroke="black" points="399.94,-398 399.94,-417 467.94,-417 467.94,-398 399.94,-398"/>
<text text-anchor="middle" x="433.94" y="-405" font-family="Helvetica,sans-Serif" font-size="10.00">forces.hpp</text>
</a>
</g>
</g>
<!-- Node3&#45;&gt;Node24 -->
<g id="edge27" class="edge">
<title>Node3&#45;&gt;Node24</title>
<path fill="none" stroke="midnightblue" d="M755.89,-467.47C686.22,-460.19 572.74,-445.99 476.94,-423 470.35,-421.42 463.34,-419.26 456.92,-417.1"/>
<polygon fill="midnightblue" stroke="midnightblue" points="755.54,-470.95 765.85,-468.49 756.26,-463.99 755.54,-470.95"/>
</g>
<!-- Node30 -->
<g id="node30" class="node">
<title>Node30</title>
<g id="a_node30"><a xlink:href="ImmersedBoundaries_8cpp.html" target="_top" xlink:title=" ">
<polygon fill="none" stroke="black" points="750.44,-398 750.44,-417 891.44,-417 891.44,-398 750.44,-398"/>
<text text-anchor="middle" x="820.94" y="-405" font-family="Helvetica,sans-Serif" font-size="10.00">ImmersedBoundaries.cpp</text>
</a>
</g>
</g>
<!-- Node3&#45;&gt;Node30 -->
<g id="edge36" class="edge">
<title>Node3&#45;&gt;Node30</title>
<path fill="none" stroke="midnightblue" d="M820.94,-449.25C820.94,-438.02 820.94,-425.38 820.94,-417.19"/>
<polygon fill="midnightblue" stroke="midnightblue" points="817.44,-449.4 820.94,-459.4 824.44,-449.4 817.44,-449.4"/>
</g>
<!-- Node31 -->
<g id="node31" class="node">
<title>Node31</title>
<g id="a_node31"><a xlink:href="rattle_8hpp.html" target="_top" xlink:title=" ">
<polygon fill="none" stroke="black" points="1477.94,-398 1477.94,-417 1541.94,-417 1541.94,-398 1477.94,-398"/>
<text text-anchor="middle" x="1509.94" y="-405" font-family="Helvetica,sans-Serif" font-size="10.00">rattle.hpp</text>
</a>
</g>
</g>
<!-- Node3&#45;&gt;Node31 -->
<g id="edge37" class="edge">
<title>Node3&#45;&gt;Node31</title>
<path fill="none" stroke="midnightblue" d="M886.57,-474.01C1003.27,-473.52 1253.67,-466.72 1459.94,-423 1466.59,-421.59 1473.63,-419.38 1480.35,-417.11"/>
<polygon fill="midnightblue" stroke="midnightblue" points="886.36,-470.51 876.37,-474.03 886.38,-477.51 886.36,-470.51"/>
</g>
<!-- Node33 -->
<g id="node33" class="node">
<title>Node33</title>
<g id="a_node33"><a xlink:href="interactions_8cpp.html" target="_top" xlink:title=" ">
<polygon fill="none" stroke="black" points="909.44,-398 909.44,-417 1004.44,-417 1004.44,-398 909.44,-398"/>
<text text-anchor="middle" x="956.94" y="-405" font-family="Helvetica,sans-Serif" font-size="10.00">interactions.cpp</text>
</a>
</g>
</g>
<!-- Node3&#45;&gt;Node33 -->
<g id="edge41" class="edge">
<title>Node3&#45;&gt;Node33</title>
<path fill="none" stroke="midnightblue" d="M859.71,-454.97C885.84,-442.48 919.07,-426.6 939.14,-417.01"/>
<polygon fill="midnightblue" stroke="midnightblue" points="857.96,-451.93 850.45,-459.4 860.98,-458.24 857.96,-451.93"/>
</g>
<!-- Node34 -->
<g id="node34" class="node">
<title>Node34</title>
<g id="a_node34"><a xlink:href="mpiio_8cpp.html" target="_top" xlink:title=" ">
<polygon fill="none" stroke="black" points="1022.44,-398 1022.44,-417 1087.44,-417 1087.44,-398 1022.44,-398"/>
<text text-anchor="middle" x="1054.94" y="-405" font-family="Helvetica,sans-Serif" font-size="10.00">mpiio.cpp</text>
</a>
</g>
</g>
<!-- Node3&#45;&gt;Node34 -->
<g id="edge42" class="edge">
<title>Node3&#45;&gt;Node34</title>
<path fill="none" stroke="midnightblue" d="M886.04,-457.67C923.37,-448.27 971.01,-435.73 1012.94,-423 1018.84,-421.21 1025.16,-419.12 1031.05,-417.09"/>
<polygon fill="midnightblue" stroke="midnightblue" points="885.13,-454.29 876.28,-460.12 886.84,-461.08 885.13,-454.29"/>
</g>
<!-- Node35 -->
<g id="node35" class="node">
<title>Node35</title>
<g id="a_node35"><a xlink:href="nonbonded__interaction__data_8cpp.html" target="_top" xlink:title=" ">
<polygon fill="none" stroke="black" points="1105.94,-392.5 1105.94,-422.5 1233.94,-422.5 1233.94,-392.5 1105.94,-392.5"/>
<text text-anchor="start" x="1113.94" y="-410.5" font-family="Helvetica,sans-Serif" font-size="10.00">nonbonded_interaction</text>
<text text-anchor="middle" x="1169.94" y="-399.5" font-family="Helvetica,sans-Serif" font-size="10.00">_data.cpp</text>
</a>
</g>
</g>
<!-- Node3&#45;&gt;Node35 -->
<g id="edge43" class="edge">
<title>Node3&#45;&gt;Node35</title>
<path fill="none" stroke="midnightblue" d="M886.11,-461.76C941.86,-451.66 1024.22,-436.61 1095.94,-423 1099.15,-422.39 1102.45,-421.76 1105.77,-421.12"/>
<polygon fill="midnightblue" stroke="midnightblue" points="885.24,-458.36 876.02,-463.58 886.48,-465.25 885.24,-458.36"/>
</g>
<!-- Node3&#45;&gt;Node36 -->
<g id="edge44" class="edge">
<title>Node3&#45;&gt;Node36</title>
<path fill="none" stroke="midnightblue" d="M886.6,-471.97C1019,-468.26 1327.28,-456.5 1583.94,-423 1595.49,-421.49 1607.96,-419.28 1619.3,-417.04"/>
<polygon fill="midnightblue" stroke="midnightblue" points="886.13,-468.48 876.23,-472.25 886.32,-475.48 886.13,-468.48"/>
</g>
<!-- Node37 -->
<g id="node37" class="node">
<title>Node37</title>
<g id="a_node37"><a xlink:href="Observable__stat_8cpp.html" target="_top" xlink:title=" ">
<polygon fill="none" stroke="black" points="1251.94,-398 1251.94,-417 1367.94,-417 1367.94,-398 1251.94,-398"/>
<text text-anchor="middle" x="1309.94" y="-405" font-family="Helvetica,sans-Serif" font-size="10.00">Observable_stat.cpp</text>
</a>
</g>
</g>
<!-- Node3&#45;&gt;Node37 -->
<g id="edge45" class="edge">
<title>Node3&#45;&gt;Node37</title>
<path fill="none" stroke="midnightblue" d="M886.2,-467.61C969.35,-459.67 1117.37,-444.05 1242.94,-423 1252.92,-421.33 1263.65,-419.17 1273.55,-417.03"/>
<polygon fill="midnightblue" stroke="midnightblue" points="885.76,-464.14 876.14,-468.57 886.42,-471.11 885.76,-464.14"/>
</g>
<!-- Node38 -->
<g id="node38" class="node">
<title>Node38</title>
<g id="a_node38"><a xlink:href="bonded_8hpp.html" target="_top" xlink:title=" ">
<polygon fill="none" stroke="black" points="1385.94,-398 1385.94,-417 1459.94,-417 1459.94,-398 1385.94,-398"/>
<text text-anchor="middle" x="1422.94" y="-405" font-family="Helvetica,sans-Serif" font-size="10.00">bonded.hpp</text>
</a>
</g>
</g>
<!-- Node3&#45;&gt;Node38 -->
<g id="edge48" class="edge">
<title>Node3&#45;&gt;Node38</title>
<path fill="none" stroke="midnightblue" d="M886.03,-472.11C990.52,-468.86 1201.74,-458.14 1376.94,-423 1384.33,-421.52 1392.21,-419.29 1399.32,-417.01"/>
<polygon fill="midnightblue" stroke="midnightblue" points="885.84,-468.61 875.95,-472.41 886.05,-475.61 885.84,-468.61"/>
</g>
<!-- Node5&#45;&gt;Node6 -->
<g id="edge5" class="edge">
<title>Node5&#45;&gt;Node6</title>
<path fill="none" stroke="midnightblue" d="M254.19,-382.29C255.46,-372.86 256.83,-362.65 257.77,-355.66"/>
<polygon fill="midnightblue" stroke="midnightblue" points="250.7,-382.02 252.83,-392.4 257.64,-382.95 250.7,-382.02"/>
</g>
<!-- Node6&#45;&gt;Node7 -->
<g id="edge6" class="edge">
<title>Node6&#45;&gt;Node7</title>
<path fill="none" stroke="midnightblue" d="M300.35,-340.75C395.3,-331 628.53,-307.06 732.94,-296.34"/>
<polygon fill="midnightblue" stroke="midnightblue" points="299.86,-337.28 290.27,-341.78 300.57,-344.24 299.86,-337.28"/>
</g>
<!-- Node6&#45;&gt;Node17 -->
<g id="edge17" class="edge">
<title>Node6&#45;&gt;Node17</title>
<path fill="none" stroke="midnightblue" d="M234.1,-331.45C215.82,-321.48 191.52,-308.23 175.81,-299.65"/>
<polygon fill="midnightblue" stroke="midnightblue" points="232.58,-334.61 243.03,-336.32 235.93,-328.46 232.58,-334.61"/>
</g>
<!-- Node21 -->
<g id="node21" class="node">
<title>Node21</title>
<g id="a_node21"><a xlink:href="thole_8cpp.html" target="_top" xlink:title=" ">
<polygon fill="none" stroke="black" points="227.94,-280.5 227.94,-299.5 289.94,-299.5 289.94,-280.5 227.94,-280.5"/>
<text text-anchor="middle" x="258.94" y="-287.5" font-family="Helvetica,sans-Serif" font-size="10.00">thole.cpp</text>
</a>
</g>
</g>
<!-- Node6&#45;&gt;Node21 -->
<g id="edge22" class="edge">
<title>Node6&#45;&gt;Node21</title>
<path fill="none" stroke="midnightblue" d="M258.94,-325.8C258.94,-316.91 258.94,-306.78 258.94,-299.75"/>
<polygon fill="midnightblue" stroke="midnightblue" points="255.44,-326.08 258.94,-336.08 262.44,-326.08 255.44,-326.08"/>
</g>
<!-- Node8 -->
<g id="node8" class="node">
<title>Node8</title>
<g id="a_node8"><a xlink:href="ShapeBasedConstraint_8cpp.html" target="_top" xlink:title=" ">
<polygon fill="none" stroke="black" points="480.44,-224.5 480.44,-243.5 627.44,-243.5 627.44,-224.5 480.44,-224.5"/>
<text text-anchor="middle" x="553.94" y="-231.5" font-family="Helvetica,sans-Serif" font-size="10.00">ShapeBasedConstraint.cpp</text>
</a>
</g>
</g>
<!-- Node7&#45;&gt;Node8 -->
<g id="edge7" class="edge">
<title>Node7&#45;&gt;Node8</title>
<path fill="none" stroke="midnightblue" d="M738.54,-278.15C694.89,-267.95 630.43,-252.88 590.37,-243.52"/>
<polygon fill="midnightblue" stroke="midnightblue" points="737.8,-281.58 748.34,-280.44 739.4,-274.76 737.8,-281.58"/>
</g>
<!-- Node9 -->
<g id="node9" class="node">
<title>Node9</title>
<g id="a_node9"><a xlink:href="energy_8cpp.html" target="_top" xlink:title=" ">
<polygon fill="none" stroke="black" points="893.44,-224.5 893.44,-243.5 962.44,-243.5 962.44,-224.5 893.44,-224.5"/>
<text text-anchor="middle" x="927.94" y="-231.5" font-family="Helvetica,sans-Serif" font-size="10.00">energy.cpp</text>
</a>
</g>
</g>
<!-- Node7&#45;&gt;Node9 -->
<g id="edge8" class="edge">
<title>Node7&#45;&gt;Node9</title>
<path fill="none" stroke="midnightblue" d="M816.97,-276.91C843.85,-266.75 881.58,-252.51 905.39,-243.52"/>
<polygon fill="midnightblue" stroke="midnightblue" points="815.72,-273.64 807.6,-280.44 818.19,-280.19 815.72,-273.64"/>
</g>
<!-- Node10 -->
<g id="node10" class="node">
<title>Node10</title>
<g id="a_node10"><a xlink:href="core_2pair__criteria_2pair__criteria_8hpp.html" target="_top" xlink:title=" ">
<polygon fill="none" stroke="black" points="736.94,-224.5 736.94,-243.5 832.94,-243.5 832.94,-224.5 736.94,-224.5"/>
<text text-anchor="middle" x="784.94" y="-231.5" font-family="Helvetica,sans-Serif" font-size="10.00">pair_criteria.hpp</text>
</a>
</g>
</g>
<!-- Node7&#45;&gt;Node10 -->
<g id="edge9" class="edge">
<title>Node7&#45;&gt;Node10</title>
<path fill="none" stroke="midnightblue" d="M784.94,-269.8C784.94,-260.91 784.94,-250.78 784.94,-243.75"/>
<polygon fill="midnightblue" stroke="midnightblue" points="781.44,-270.08 784.94,-280.08 788.44,-270.08 781.44,-270.08"/>
</g>
<!-- Node11 -->
<g id="node11" class="node">
<title>Node11</title>
<g id="a_node11"><a xlink:href="script__interface_2pair__criteria_2pair__criteria_8hpp.html" target="_top" xlink:title=" ">
<polygon fill="none" stroke="black" points="736.94,-168.5 736.94,-187.5 832.94,-187.5 832.94,-168.5 736.94,-168.5"/>
<text text-anchor="middle" x="784.94" y="-175.5" font-family="Helvetica,sans-Serif" font-size="10.00">pair_criteria.hpp</text>
</a>
</g>
</g>
<!-- Node10&#45;&gt;Node11 -->
<g id="edge10" class="edge">
<title>Node10&#45;&gt;Node11</title>
<path fill="none" stroke="midnightblue" d="M784.94,-213.8C784.94,-204.91 784.94,-194.78 784.94,-187.75"/>
<polygon fill="midnightblue" stroke="midnightblue" points="781.44,-214.08 784.94,-224.08 788.44,-214.08 781.44,-214.08"/>
</g>
<!-- Node12 -->
<g id="node12" class="node">
<title>Node12</title>
<g id="a_node12"><a xlink:href="core_2cluster__analysis_2ClusterStructure_8hpp.html" target="_top" xlink:title=" ">
<polygon fill="none" stroke="black" points="640.94,-112.5 640.94,-131.5 756.94,-131.5 756.94,-112.5 640.94,-112.5"/>
<text text-anchor="middle" x="698.94" y="-119.5" font-family="Helvetica,sans-Serif" font-size="10.00">ClusterStructure.hpp</text>
</a>
</g>
</g>
<!-- Node11&#45;&gt;Node12 -->
<g id="edge11" class="edge">
<title>Node11&#45;&gt;Node12</title>
<path fill="none" stroke="midnightblue" d="M762.48,-162.9C746.71,-153 726.13,-140.07 712.72,-131.65"/>
<polygon fill="midnightblue" stroke="midnightblue" points="760.79,-165.97 771.12,-168.32 764.51,-160.04 760.79,-165.97"/>
</g>
<!-- Node14 -->
<g id="node14" class="node">
<title>Node14</title>
<g id="a_node14"><a xlink:href="script__interface_2cluster__analysis_2ClusterStructure_8hpp.html" target="_top" xlink:title=" ">
<polygon fill="none" stroke="black" points="726.94,-56.5 726.94,-75.5 842.94,-75.5 842.94,-56.5 726.94,-56.5"/>
<text text-anchor="middle" x="784.94" y="-63.5" font-family="Helvetica,sans-Serif" font-size="10.00">ClusterStructure.hpp</text>
</a>
</g>
</g>
<!-- Node11&#45;&gt;Node14 -->
<g id="edge15" class="edge">
<title>Node11&#45;&gt;Node14</title>
<path fill="none" stroke="midnightblue" d="M784.94,-158.35C784.94,-134.25 784.94,-93.31 784.94,-75.59"/>
<polygon fill="midnightblue" stroke="midnightblue" points="781.44,-158.37 784.94,-168.37 788.44,-158.37 781.44,-158.37"/>
</g>
<!-- Node16 -->
<g id="node16" class="node">
<title>Node16</title>
<g id="a_node16"><a xlink:href="pair__criteria_2initialize_8cpp.html" target="_top" xlink:title=" ">
<polygon fill="none" stroke="black" points="813.44,-112.5 813.44,-131.5 892.44,-131.5 892.44,-112.5 813.44,-112.5"/>
<text text-anchor="middle" x="852.94" y="-119.5" font-family="Helvetica,sans-Serif" font-size="10.00">initialize.cpp</text>
</a>
</g>
</g>
<!-- Node11&#45;&gt;Node16 -->
<g id="edge16" class="edge">
<title>Node11&#45;&gt;Node16</title>
<path fill="none" stroke="midnightblue" d="M803.7,-162.1C815.94,-152.38 831.5,-140.03 841.81,-131.83"/>
<polygon fill="midnightblue" stroke="midnightblue" points="801.52,-159.36 795.86,-168.32 805.87,-164.85 801.52,-159.36"/>
</g>
<!-- Node13 -->
<g id="node13" class="node">
<title>Node13</title>
<g id="a_node13"><a xlink:href="ClusterStructure_8cpp.html" target="_top" xlink:title=" ">
<polygon fill="none" stroke="black" points="592.94,-56.5 592.94,-75.5 708.94,-75.5 708.94,-56.5 592.94,-56.5"/>
<text text-anchor="middle" x="650.94" y="-63.5" font-family="Helvetica,sans-Serif" font-size="10.00">ClusterStructure.cpp</text>
</a>
</g>
</g>
<!-- Node12&#45;&gt;Node13 -->
<g id="edge12" class="edge">
<title>Node12&#45;&gt;Node13</title>
<path fill="none" stroke="midnightblue" d="M684.21,-104.43C675.8,-94.97 665.59,-83.48 658.72,-75.75"/>
<polygon fill="midnightblue" stroke="midnightblue" points="681.75,-106.93 691.01,-112.08 686.98,-102.28 681.75,-106.93"/>
</g>
<!-- Node12&#45;&gt;Node14 -->
<g id="edge13" class="edge">
<title>Node12&#45;&gt;Node14</title>
<path fill="none" stroke="midnightblue" d="M721.39,-106.9C737.16,-97 757.75,-84.07 771.16,-75.65"/>
<polygon fill="midnightblue" stroke="midnightblue" points="719.36,-104.04 712.76,-112.32 723.09,-109.97 719.36,-104.04"/>
</g>
<!-- Node15 -->
<g id="node15" class="node">
<title>Node15</title>
<g id="a_node15"><a xlink:href="cluster__analysis_2initialize_8cpp.html" target="_top" xlink:title=" ">
<polygon fill="none" stroke="black" points="745.44,-0.5 745.44,-19.5 824.44,-19.5 824.44,-0.5 745.44,-0.5"/>
<text text-anchor="middle" x="784.94" y="-7.5" font-family="Helvetica,sans-Serif" font-size="10.00">initialize.cpp</text>
</a>
</g>
</g>
<!-- Node14&#45;&gt;Node15 -->
<g id="edge14" class="edge">
<title>Node14&#45;&gt;Node15</title>
<path fill="none" stroke="midnightblue" d="M784.94,-45.8C784.94,-36.91 784.94,-26.78 784.94,-19.75"/>
<polygon fill="midnightblue" stroke="midnightblue" points="781.44,-46.08 784.94,-56.08 788.44,-46.08 781.44,-46.08"/>
</g>
<!-- Node17&#45;&gt;Node8 -->
<g id="edge18" class="edge">
<title>Node17&#45;&gt;Node8</title>
<path fill="none" stroke="midnightblue" d="M220.32,-279.82C319.3,-265.69 422.42,-252.04 487.78,-243.53"/>
<polygon fill="midnightblue" stroke="midnightblue" points="219.54,-276.4 210.14,-281.28 220.54,-283.33 219.54,-276.4"/>
</g>
<!-- Node18 -->
<g id="node18" class="node">
<title>Node18</title>
<g id="a_node18"><a xlink:href="forces_8cpp.html" target="_top" xlink:title=" ">
<polygon fill="none" stroke="black" points="82.44,-224.5 82.44,-243.5 149.44,-243.5 149.44,-224.5 82.44,-224.5"/>
<text text-anchor="middle" x="115.94" y="-231.5" font-family="Helvetica,sans-Serif" font-size="10.00">forces.cpp</text>
</a>
</g>
</g>
<!-- Node17&#45;&gt;Node18 -->
<g id="edge19" class="edge">
<title>Node17&#45;&gt;Node18</title>
<path fill="none" stroke="midnightblue" d="M146.2,-272.14C138.54,-262.74 129.31,-251.4 123.07,-243.75"/>
<polygon fill="midnightblue" stroke="midnightblue" points="143.64,-274.54 152.67,-280.08 149.07,-270.12 143.64,-274.54"/>
</g>
<!-- Node17&#45;&gt;Node19 -->
<g id="edge20" class="edge">
<title>Node17&#45;&gt;Node19</title>
<path fill="none" stroke="midnightblue" d="M177.93,-273.82C189.4,-264.15 203.85,-251.95 213.47,-243.83"/>
<polygon fill="midnightblue" stroke="midnightblue" points="175.61,-271.2 170.22,-280.32 180.12,-276.55 175.61,-271.2"/>
</g>
<!-- Node19&#45;&gt;Node20 -->
<g id="edge21" class="edge">
<title>Node19&#45;&gt;Node20</title>
<path fill="none" stroke="midnightblue" d="M201.74,-218.9C186.16,-209 165.81,-196.07 152.56,-187.65"/>
<polygon fill="midnightblue" stroke="midnightblue" points="199.96,-221.92 210.28,-224.32 203.72,-216.01 199.96,-221.92"/>
</g>
<!-- Node24&#45;&gt;Node9 -->
<g id="edge31" class="edge">
<title>Node24&#45;&gt;Node9</title>
<path fill="none" stroke="midnightblue" d="M465.68,-394.82C469.43,-393.73 473.25,-392.75 476.94,-392 528.59,-381.5 914.11,-394.66 949.94,-356 979.69,-323.9 947.69,-265.62 933.75,-243.67"/>
<polygon fill="midnightblue" stroke="midnightblue" points="464.44,-391.54 455.97,-397.9 466.56,-398.21 464.44,-391.54"/>
</g>
<!-- Node24&#45;&gt;Node17 -->
<g id="edge32" class="edge">
<title>Node24&#45;&gt;Node17</title>
<path fill="none" stroke="midnightblue" d="M410.46,-392.69C383.98,-377.48 339.33,-352.94 298.94,-336 262.92,-320.89 219.93,-307.67 191.4,-299.54"/>
<polygon fill="midnightblue" stroke="midnightblue" points="408.94,-395.85 419.35,-397.84 412.45,-389.8 408.94,-395.85"/>
</g>
<!-- Node25 -->
<g id="node25" class="node">
<title>Node25</title>
<g id="a_node25"><a xlink:href="DipolarBarnesHut_8cpp.html" target="_top" xlink:title=" ">
<polygon fill="none" stroke="black" points="384.44,-336.5 384.44,-355.5 507.44,-355.5 507.44,-336.5 384.44,-336.5"/>
<text text-anchor="middle" x="445.94" y="-343.5" font-family="Helvetica,sans-Serif" font-size="10.00">DipolarBarnesHut.cpp</text>
</a>
</g>
</g>
<!-- Node24&#45;&gt;Node25 -->
<g id="edge28" class="edge">
<title>Node24&#45;&gt;Node25</title>
<path fill="none" stroke="midnightblue" d="M437.64,-388.16C439.83,-377.27 442.51,-363.99 444.22,-355.51"/>
<polygon fill="midnightblue" stroke="midnightblue" points="434.2,-387.48 435.66,-397.98 441.07,-388.86 434.2,-387.48"/>
</g>
<!-- Node26 -->
<g id="node26" class="node">
<title>Node26</title>
<g id="a_node26"><a xlink:href="DipolarDirectSum_8cpp.html" target="_top" xlink:title=" ">
<polygon fill="none" stroke="black" points="525.44,-336.5 525.44,-355.5 648.44,-355.5 648.44,-336.5 525.44,-336.5"/>
<text text-anchor="middle" x="586.94" y="-343.5" font-family="Helvetica,sans-Serif" font-size="10.00">DipolarDirectSum.cpp</text>
</a>
</g>
</g>
<!-- Node24&#45;&gt;Node26 -->
<g id="edge29" class="edge">
<title>Node24&#45;&gt;Node26</title>
<path fill="none" stroke="midnightblue" d="M465.36,-394.28C495.09,-382.72 538.95,-365.66 565.06,-355.51"/>
<polygon fill="midnightblue" stroke="midnightblue" points="463.91,-391.09 455.86,-397.98 466.45,-397.61 463.91,-391.09"/>
</g>
<!-- Node27 -->
<g id="node27" class="node">
<title>Node27</title>
<g id="a_node27"><a xlink:href="Mmm1dgpuForce_8cpp.html" target="_top" xlink:title=" ">
<polygon fill="none" stroke="black" points="666.94,-336.5 666.94,-355.5 788.94,-355.5 788.94,-336.5 666.94,-336.5"/>
<text text-anchor="middle" x="727.94" y="-343.5" font-family="Helvetica,sans-Serif" font-size="10.00">Mmm1dgpuForce.cpp</text>
</a>
</g>
</g>
<!-- Node24&#45;&gt;Node27 -->
<g id="edge30" class="edge">
<title>Node24&#45;&gt;Node27</title>
<path fill="none" stroke="midnightblue" d="M467.13,-394.77C470.42,-393.77 473.73,-392.82 476.94,-392 540.94,-375.57 615.63,-363 666.79,-355.38"/>
<polygon fill="midnightblue" stroke="midnightblue" points="465.86,-391.5 457.41,-397.89 468,-398.16 465.86,-391.5"/>
</g>
<!-- Node28 -->
<g id="node28" class="node">
<title>Node28</title>
<g id="a_node28"><a xlink:href="integrate_8cpp.html" target="_top" xlink:title=" ">
<polygon fill="none" stroke="black" points="1192.44,-336.5 1192.44,-355.5 1273.44,-355.5 1273.44,-336.5 1192.44,-336.5"/>
<text text-anchor="middle" x="1232.94" y="-343.5" font-family="Helvetica,sans-Serif" font-size="10.00">integrate.cpp</text>
</a>
</g>
</g>
<!-- Node24&#45;&gt;Node28 -->
<g id="edge33" class="edge">
<title>Node24&#45;&gt;Node28</title>
<path fill="none" stroke="midnightblue" d="M465.07,-394.93C469.03,-393.78 473.05,-392.76 476.94,-392 547.23,-378.31 1045.47,-355.33 1192.31,-348.79"/>
<polygon fill="midnightblue" stroke="midnightblue" points="463.97,-391.6 455.51,-397.98 466.1,-398.27 463.97,-391.6"/>
</g>
<!-- Node29 -->
<g id="node29" class="node">
<title>Node29</title>
<g id="a_node29"><a xlink:href="VirtualSitesRelative_8cpp.html" target="_top" xlink:title=" ">
<polygon fill="none" stroke="black" points="806.94,-336.5 806.94,-355.5 940.94,-355.5 940.94,-336.5 806.94,-336.5"/>
<text text-anchor="middle" x="873.94" y="-343.5" font-family="Helvetica,sans-Serif" font-size="10.00">VirtualSitesRelative.cpp</text>
</a>
</g>
</g>
<!-- Node24&#45;&gt;Node29 -->
<g id="edge34" class="edge">
<title>Node24&#45;&gt;Node29</title>
<path fill="none" stroke="midnightblue" d="M466.28,-394.78C469.85,-393.73 473.45,-392.77 476.94,-392 617.09,-360.89 655.32,-372.44 797.94,-356 800.84,-355.67 803.81,-355.32 806.8,-354.97"/>
<polygon fill="midnightblue" stroke="midnightblue" points="464.91,-391.54 456.44,-397.9 467.03,-398.21 464.91,-391.54"/>
</g>
<!-- Node31&#45;&gt;Node3 -->
<g id="edge38" class="edge">
<title>Node31&#45;&gt;Node3</title>
<path fill="none" stroke="midnightblue" d="M1488.02,-420.38C1484.68,-421.39 1481.26,-422.3 1477.94,-423 1258.82,-469.44 989.91,-474.22 875.97,-474.03"/>
<polygon fill="midnightblue" stroke="midnightblue" points="1489.25,-423.66 1497.57,-417.11 1486.98,-417.03 1489.25,-423.66"/>
</g>
<!-- Node31&#45;&gt;Node28 -->
<g id="edge39" class="edge">
<title>Node31&#45;&gt;Node28</title>
<path fill="none" stroke="midnightblue" d="M1478.01,-394.68C1474.96,-393.72 1471.9,-392.8 1468.94,-392 1401.3,-373.7 1320.8,-360.04 1273.45,-352.81"/>
<polygon fill="midnightblue" stroke="midnightblue" points="1476.98,-398.03 1487.58,-397.9 1479.21,-391.4 1476.98,-398.03"/>
</g>
<!-- Node32 -->
<g id="node32" class="node">
<title>Node32</title>
<g id="a_node32"><a xlink:href="rattle_8cpp.html" target="_top" xlink:title=" ">
<polygon fill="none" stroke="black" points="1478.44,-336.5 1478.44,-355.5 1541.44,-355.5 1541.44,-336.5 1478.44,-336.5"/>
<text text-anchor="middle" x="1509.94" y="-343.5" font-family="Helvetica,sans-Serif" font-size="10.00">rattle.cpp</text>
</a>
</g>
</g>
<!-- Node31&#45;&gt;Node32 -->
<g id="edge40" class="edge">
<title>Node31&#45;&gt;Node32</title>
<path fill="none" stroke="midnightblue" d="M1509.94,-387.82C1509.94,-377 1509.94,-363.9 1509.94,-355.51"/>
<polygon fill="midnightblue" stroke="midnightblue" points="1506.44,-387.98 1509.94,-397.98 1513.44,-387.98 1506.44,-387.98"/>
</g>
</g>
</svg>
        <g id="navigator" transform="translate(0 0)" fill="#404254">
                <rect fill="#f2f5e9" fill-opacity="0.5" stroke="#606060" stroke-width=".5" x="0" y="0" width="60" height="60"/>
                <use id="zoomplus" xlink:href="#zoomPlus" x="17" y="9" onmousedown="handleZoom(evt,'in')"/>
                <use id="zoomminus" xlink:href="#zoomMin" x="42" y="9" onmousedown="handleZoom(evt,'out')"/>
                <use id="reset" xlink:href="#resetDef" x="30" y="36" onmousedown="handleReset()"/>
                <g id="arrowUp" xlink:href="#dirArrow" transform="translate(30 24)" onmousedown="handlePan(0,-1)">
                  <use xlink:href="#rim" fill="#404040">
                        <set attributeName="fill" to="#808080" begin="arrowUp.mouseover" end="arrowUp.mouseout"/>
                  </use>
                  <path fill="none" stroke="white" stroke-width="1.5" d="M0,-3.0v7 M-2.5,-0.5L0,-3.0L2.5,-0.5"/>
                </g>
                <g id="arrowRight" xlink:href="#dirArrow" transform="rotate(90) translate(36 -43)" onmousedown="handlePan(1,0)">
                  <use xlink:href="#rim" fill="#404040">
                        <set attributeName="fill" to="#808080" begin="arrowRight.mouseover" end="arrowRight.mouseout"/>
                  </use>
                  <path fill="none" stroke="white" stroke-width="1.5" d="M0,-3.0v7 M-2.5,-0.5L0,-3.0L2.5,-0.5"/>
                </g>
                <g id="arrowDown" xlink:href="#dirArrow" transform="rotate(180) translate(-30 -48)" onmousedown="handlePan(0,1)">
                  <use xlink:href="#rim" fill="#404040">
                        <set attributeName="fill" to="#808080" begin="arrowDown.mouseover" end="arrowDown.mouseout"/>
                  </use>
                  <path fill="none" stroke="white" stroke-width="1.5" d="M0,-3.0v7 M-2.5,-0.5L0,-3.0L2.5,-0.5"/>
                </g>
                <g id="arrowLeft" xlink:href="#dirArrow" transform="rotate(270) translate(-36 17)" onmousedown="handlePan(-1,0)">
                  <use xlink:href="#rim" fill="#404040">
                        <set attributeName="fill" to="#808080" begin="arrowLeft.mouseover" end="arrowLeft.mouseout"/>
                  </use>
                  <path fill="none" stroke="white" stroke-width="1.5" d="M0,-3.0v7 M-2.5,-0.5L0,-3.0L2.5,-0.5"/>
                </g>
        </g>
        <svg viewBox="0 0 15 15" width="100%" height="30px" preserveAspectRatio="xMaxYMin meet">
         <g id="arrow_out" transform="scale(0.3 0.3)">
          <a xlink:href="triangle__functions_8hpp__dep__incl_org.svg" target="_base">
           <rect id="button" ry="5" rx="5" y="6" x="6" height="38" width="38"
                fill="#f2f5e9" fill-opacity="0.5" stroke="#606060" stroke-width="1.0"/>
           <path id="arrow"
             d="M 11.500037,31.436501 C 11.940474,20.09759 22.043105,11.32322 32.158766,21.979434 L 37.068811,17.246167 C 37.068811,17.246167 37.088388,32 37.088388,32 L 22.160133,31.978069 C 22.160133,31.978069 26.997745,27.140456 26.997745,27.140456 C 18.528582,18.264221 13.291696,25.230495 11.500037,31.436501 z"
             style="fill:#404040;"/>
          </a>
         </g>
        </svg>
</svg>
