<?xml version="1.0" encoding="UTF-8" standalone="no"?>
<!DOCTYPE svg PUBLIC "-//W3C//DTD SVG 1.1//EN"
 "http://www.w3.org/Graphics/SVG/1.1/DTD/svg11.dtd">
<!-- Generated by graphviz version 2.43.0 (0)
 -->
<!-- Title: triangle_functions.hpp Pages: 1 -->
<!--zoomable 274 -->
<svg id="main" version="1.1" xmlns="http://www.w3.org/2000/svg" xmlns:xlink="http://www.w3.org/1999/xlink" xml:space="preserve" onload="init(evt)">
<style type="text/css"><![CDATA[
.edge:hover path { stroke: red; }
.edge:hover polygon { stroke: red; fill: red; }
]]></style>
<script type="text/javascript"><![CDATA[
var edges = document.getElementsByTagName('g');
if (edges && edges.length) {
  for (var i=0;i<edges.length;i++) {
    if (edges[i].id.substr(0,4)=='edge') {
      edges[i].setAttribute('class','edge');
    }
  }
}
]]></script>
        <defs>
                <circle id="rim" cx="0" cy="0" r="7"/>
                <circle id="rim2" cx="0" cy="0" r="3.5"/>
                <g id="zoomPlus">
                        <use xlink:href="#rim" fill="#404040">
                                <set attributeName="fill" to="#808080" begin="zoomplus.mouseover" end="zoomplus.mouseout"/>
                        </use>
                        <path d="M-4,0h8M0,-4v8" fill="none" stroke="white" stroke-width="1.5" pointer-events="none"/>
                </g>
                <g id="zoomMin">
                        <use xlink:href="#rim" fill="#404040">
                                <set attributeName="fill" to="#808080" begin="zoomminus.mouseover" end="zoomminus.mouseout"/>
                        </use>
                        <path d="M-4,0h8" fill="none" stroke="white" stroke-width="1.5" pointer-events="none"/>
                </g>
                <g id="dirArrow">
                        <path fill="none" stroke="white" stroke-width="1.5" d="M0,-3.0v7 M-2.5,-0.5L0,-3.0L2.5,-0.5"/>
                </g>
               <g id="resetDef">
                       <use xlink:href="#rim2" fill="#404040">
                               <set attributeName="fill" to="#808080" begin="reset.mouseover" end="reset.mouseout"/>
                       </use>
               </g>
        </defs>

<script type="text/javascript">
var viewWidth = 1581;
var viewHeight = 274;
var sectionId = 'dynsection-0';
</script>
<script xlink:href="svgpan.js"/>
<svg id="graph" class="graph">
<g id="viewport">
<title>triangle_functions.hpp</title>
<!-- Node1 -->
<g id="node1" class="node">
<title>Node1</title>
<g id="a_node1"><a xlink:title=" ">
<polygon fill="#bfbfbf" stroke="black" points="697.7,-246.5 697.7,-265.5 822.7,-265.5 822.7,-246.5 697.7,-246.5"/>
<text text-anchor="middle" x="760.2" y="-253.5" font-family="Helvetica,sans-Serif" font-size="10.00">triangle_functions.hpp</text>
</a>
</g>
</g>
<!-- Node2 -->
<g id="node2" class="node">
<title>Node2</title>
<g id="a_node2"><a xlink:href="Vector_8hpp.html" target="_top" xlink:title=" ">
<polygon fill="none" stroke="black" points="676.7,-190.5 676.7,-209.5 769.7,-209.5 769.7,-190.5 676.7,-190.5"/>
<text text-anchor="middle" x="723.2" y="-197.5" font-family="Helvetica,sans-Serif" font-size="10.00">utils/Vector.hpp</text>
</a>
</g>
</g>
<!-- Node1&#45;&gt;Node2 -->
<g id="edge1" class="edge">
<title>Node1&#45;&gt;Node2</title>
<path fill="none" stroke="midnightblue" d="M754.09,-246.08C748.92,-238.53 741.35,-227.49 735,-218.23"/>
<polygon fill="midnightblue" stroke="midnightblue" points="737.73,-216.02 729.2,-209.75 731.96,-219.98 737.73,-216.02"/>
</g>
<!-- Node16 -->
<g id="node16" class="node">
<title>Node16</title>
<g id="a_node16"><a xlink:title=" ">
<polygon fill="none" stroke="#bfbfbf" points="1525.7,-129 1525.7,-148 1572.7,-148 1572.7,-129 1525.7,-129"/>
<text text-anchor="middle" x="1549.2" y="-136" font-family="Helvetica,sans-Serif" font-size="10.00">cmath</text>
</a>
</g>
</g>
<!-- Node1&#45;&gt;Node16 -->
<g id="edge30" class="edge">
<title>Node1&#45;&gt;Node16</title>
<path fill="none" stroke="midnightblue" d="M764.75,-246.28C772.97,-231.59 791.81,-202.31 817.2,-190 956.16,-122.64 1360.1,-185.92 1511.2,-154 1514.28,-153.35 1517.44,-152.49 1520.55,-151.5"/>
<polygon fill="midnightblue" stroke="midnightblue" points="1521.97,-154.72 1530.22,-148.07 1519.63,-148.12 1521.97,-154.72"/>
</g>
<!-- Node22 -->
<g id="node22" class="node">
<title>Node22</title>
<g id="a_node22"><a xlink:href="constants_8hpp.html" target="_top" xlink:title=" ">
<polygon fill="none" stroke="black" points="21.7,-190.5 21.7,-209.5 130.7,-209.5 130.7,-190.5 21.7,-190.5"/>
<text text-anchor="middle" x="76.2" y="-197.5" font-family="Helvetica,sans-Serif" font-size="10.00">utils/constants.hpp</text>
</a>
</g>
</g>
<!-- Node1&#45;&gt;Node22 -->
<g id="edge26" class="edge">
<title>Node1&#45;&gt;Node22</title>
<path fill="none" stroke="midnightblue" d="M697.69,-250.06C568.44,-239.86 272.95,-216.53 141.42,-206.15"/>
<polygon fill="midnightblue" stroke="midnightblue" points="141.35,-202.63 131.1,-205.33 140.8,-209.61 141.35,-202.63"/>
</g>
<!-- Node24 -->
<g id="node24" class="node">
<title>Node24</title>
<g id="a_node24"><a xlink:title=" ">
<polygon fill="none" stroke="#bfbfbf" points="826.2,-190.5 826.2,-209.5 974.2,-209.5 974.2,-190.5 826.2,-190.5"/>
<text text-anchor="middle" x="900.2" y="-197.5" font-family="Helvetica,sans-Serif" font-size="10.00">boost/algorithm/clamp.hpp</text>
</a>
</g>
</g>
<!-- Node1&#45;&gt;Node24 -->
<g id="edge29" class="edge">
<title>Node1&#45;&gt;Node24</title>
<path fill="none" stroke="midnightblue" d="M782.38,-246.44C805.63,-237.48 842.35,-223.31 868.61,-213.18"/>
<polygon fill="midnightblue" stroke="midnightblue" points="870.05,-216.38 878.12,-209.52 867.53,-209.85 870.05,-216.38"/>
</g>
<!-- Node3 -->
<g id="node3" class="node">
<title>Node3</title>
<g id="a_node3"><a xlink:title=" ">
<polygon fill="none" stroke="#bfbfbf" points="648.2,-129 648.2,-148 798.2,-148 798.2,-129 648.2,-129"/>
<text text-anchor="middle" x="723.2" y="-136" font-family="Helvetica,sans-Serif" font-size="10.00">boost/qvm/deduce_vec.hpp</text>
</a>
</g>
</g>
<!-- Node2&#45;&gt;Node3 -->
<g id="edge2" class="edge">
<title>Node2&#45;&gt;Node3</title>
<path fill="none" stroke="midnightblue" d="M723.2,-190.48C723.2,-182.08 723.2,-168.98 723.2,-158.16"/>
<polygon fill="midnightblue" stroke="midnightblue" points="726.7,-158.01 723.2,-148.01 719.7,-158.01 726.7,-158.01"/>
</g>
<!-- Node4 -->
<g id="node4" class="node">
<title>Node4</title>
<g id="a_node4"><a xlink:title=" ">
<polygon fill="none" stroke="#bfbfbf" points="816.2,-129 816.2,-148 956.2,-148 956.2,-129 816.2,-129"/>
<text text-anchor="middle" x="886.2" y="-136" font-family="Helvetica,sans-Serif" font-size="10.00">boost/qvm/vec_traits.hpp</text>
</a>
</g>
</g>
<!-- Node2&#45;&gt;Node4 -->
<g id="edge3" class="edge">
<title>Node2&#45;&gt;Node4</title>
<path fill="none" stroke="midnightblue" d="M746.55,-190.48C774.51,-180.27 821.53,-163.11 853.19,-151.55"/>
<polygon fill="midnightblue" stroke="midnightblue" points="854.7,-154.73 862.89,-148.01 852.29,-148.15 854.7,-154.73"/>
</g>
<!-- Node5 -->
<g id="node5" class="node">
<title>Node5</title>
<g id="a_node5"><a xlink:href="Array_8hpp.html" target="_top" xlink:title=" ">
<polygon fill="none" stroke="black" points="1061.2,-129 1061.2,-148 1147.2,-148 1147.2,-129 1061.2,-129"/>
<text text-anchor="middle" x="1104.2" y="-136" font-family="Helvetica,sans-Serif" font-size="10.00">utils/Array.hpp</text>
</a>
</g>
</g>
<!-- Node2&#45;&gt;Node5 -->
<g id="edge4" class="edge">
<title>Node2&#45;&gt;Node5</title>
<path fill="none" stroke="midnightblue" d="M769.82,-192.1C774.68,-191.39 779.54,-190.68 784.2,-190 896.16,-173.74 924.81,-173.81 1036.2,-154 1042.83,-152.82 1049.79,-151.47 1056.64,-150.07"/>
<polygon fill="midnightblue" stroke="midnightblue" points="1057.45,-153.48 1066.52,-148.01 1056.02,-146.63 1057.45,-153.48"/>
</g>
<!-- Node7 -->
<g id="node7" class="node">
<title>Node7</title>
<g id="a_node7"><a xlink:title=" ">
<polygon fill="none" stroke="#bfbfbf" points="930.2,-0.5 930.2,-19.5 982.2,-19.5 982.2,-0.5 930.2,-0.5"/>
<text text-anchor="middle" x="956.2" y="-7.5" font-family="Helvetica,sans-Serif" font-size="10.00">cassert</text>
</a>
</g>
</g>
<!-- Node2&#45;&gt;Node7 -->
<g id="edge17" class="edge">
<title>Node2&#45;&gt;Node7</title>
<path fill="none" stroke="midnightblue" d="M769.77,-191.9C838.3,-181.23 958.96,-161.51 965.2,-154 980.49,-135.61 967.73,-64.18 960.44,-29.76"/>
<polygon fill="midnightblue" stroke="midnightblue" points="963.78,-28.65 958.22,-19.63 956.94,-30.15 963.78,-28.65"/>
</g>
<!-- Node9 -->
<g id="node9" class="node">
<title>Node9</title>
<g id="a_node9"><a xlink:title=" ">
<polygon fill="none" stroke="#bfbfbf" points="1104.7,-0.5 1104.7,-19.5 1157.7,-19.5 1157.7,-0.5 1104.7,-0.5"/>
<text text-anchor="middle" x="1131.2" y="-7.5" font-family="Helvetica,sans-Serif" font-size="10.00">cstddef</text>
</a>
</g>
</g>
<!-- Node2&#45;&gt;Node9 -->
<g id="edge19" class="edge">
<title>Node2&#45;&gt;Node9</title>
<path fill="none" stroke="midnightblue" d="M770.01,-192.18C775.79,-191.41 781.63,-190.66 787.2,-190 941.36,-171.65 1380.24,-207.44 1478.2,-87 1542.63,-7.78 1607.72,-98.99 1168,-19.91"/>
<polygon fill="midnightblue" stroke="midnightblue" points="1168.32,-16.41 1157.85,-18.07 1167.07,-23.3 1168.32,-16.41"/>
</g>
<!-- Node12 -->
<g id="node12" class="node">
<title>Node12</title>
<g id="a_node12"><a xlink:title=" ">
<polygon fill="none" stroke="#bfbfbf" points="984.7,-62 984.7,-81 1037.7,-81 1037.7,-62 984.7,-62"/>
<text text-anchor="middle" x="1011.2" y="-69" font-family="Helvetica,sans-Serif" font-size="10.00">iterator</text>
</a>
</g>
</g>
<!-- Node2&#45;&gt;Node12 -->
<g id="edge22" class="edge">
<title>Node2&#45;&gt;Node12</title>
<path fill="none" stroke="midnightblue" d="M769.94,-192.06C847.37,-180.47 994.18,-158.03 998.2,-154 1014.44,-137.69 1015.42,-109.75 1013.89,-91.21"/>
<polygon fill="midnightblue" stroke="midnightblue" points="1017.35,-90.6 1012.73,-81.06 1010.39,-91.39 1017.35,-90.6"/>
</g>
<!-- Node15 -->
<g id="node15" class="node">
<title>Node15</title>
<g id="a_node15"><a xlink:title=" ">
<polygon fill="none" stroke="#bfbfbf" points="155.2,-129 155.2,-148 219.2,-148 219.2,-129 155.2,-129"/>
<text text-anchor="middle" x="187.2" y="-136" font-family="Helvetica,sans-Serif" font-size="10.00">algorithm</text>
</a>
</g>
</g>
<!-- Node2&#45;&gt;Node15 -->
<g id="edge16" class="edge">
<title>Node2&#45;&gt;Node15</title>
<path fill="none" stroke="midnightblue" d="M676.55,-198.61C588.08,-197.03 390.27,-189.44 228.2,-154 224.78,-153.25 221.25,-152.3 217.76,-151.24"/>
<polygon fill="midnightblue" stroke="midnightblue" points="218.78,-147.89 208.19,-148.05 216.57,-154.53 218.78,-147.89"/>
</g>
<!-- Node2&#45;&gt;Node16 -->
<g id="edge18" class="edge">
<title>Node2&#45;&gt;Node16</title>
<path fill="none" stroke="midnightblue" d="M769.77,-191.65C774.63,-191.03 779.51,-190.46 784.2,-190 1106.15,-158.35 1194.6,-220.49 1511.2,-154 1514.28,-153.35 1517.44,-152.49 1520.55,-151.51"/>
<polygon fill="midnightblue" stroke="midnightblue" points="1521.97,-154.72 1530.22,-148.08 1519.63,-148.13 1521.97,-154.72"/>
</g>
<!-- Node17 -->
<g id="node17" class="node">
<title>Node17</title>
<g id="a_node17"><a xlink:title=" ">
<polygon fill="none" stroke="#bfbfbf" points="237.7,-129 237.7,-148 302.7,-148 302.7,-129 237.7,-129"/>
<text text-anchor="middle" x="270.2" y="-136" font-family="Helvetica,sans-Serif" font-size="10.00">functional</text>
</a>
</g>
</g>
<!-- Node2&#45;&gt;Node17 -->
<g id="edge20" class="edge">
<title>Node2&#45;&gt;Node17</title>
<path fill="none" stroke="midnightblue" d="M676.59,-197.41C599.62,-194.01 441.5,-183.74 311.2,-154 307.96,-153.26 304.62,-152.35 301.32,-151.34"/>
<polygon fill="midnightblue" stroke="midnightblue" points="302.22,-147.95 291.63,-148.13 300.02,-154.6 302.22,-147.95"/>
</g>
<!-- Node18 -->
<g id="node18" class="node">
<title>Node18</title>
<g id="a_node18"><a xlink:title=" ">
<polygon fill="none" stroke="#bfbfbf" points="320.7,-129 320.7,-148 403.7,-148 403.7,-129 320.7,-129"/>
<text text-anchor="middle" x="362.2" y="-136" font-family="Helvetica,sans-Serif" font-size="10.00">initializer_list</text>
</a>
</g>
</g>
<!-- Node2&#45;&gt;Node18 -->
<g id="edge21" class="edge">
<title>Node2&#45;&gt;Node18</title>
<path fill="none" stroke="midnightblue" d="M676.64,-194.19C615.69,-187.46 505.74,-173.78 413.2,-154 408.72,-153.04 404.06,-151.91 399.46,-150.71"/>
<polygon fill="midnightblue" stroke="midnightblue" points="400.13,-147.26 389.56,-148 398.28,-154.02 400.13,-147.26"/>
</g>
<!-- Node19 -->
<g id="node19" class="node">
<title>Node19</title>
<g id="a_node19"><a xlink:title=" ">
<polygon fill="none" stroke="#bfbfbf" points="422.2,-129 422.2,-148 478.2,-148 478.2,-129 422.2,-129"/>
<text text-anchor="middle" x="450.2" y="-136" font-family="Helvetica,sans-Serif" font-size="10.00">numeric</text>
</a>
</g>
</g>
<!-- Node2&#45;&gt;Node19 -->
<g id="edge23" class="edge">
<title>Node2&#45;&gt;Node19</title>
<path fill="none" stroke="midnightblue" d="M676.48,-192.7C628.43,-185.62 551.72,-172.62 487.2,-154 484.62,-153.25 481.96,-152.4 479.32,-151.49"/>
<polygon fill="midnightblue" stroke="midnightblue" points="480.53,-148.2 469.94,-148.01 478.1,-154.77 480.53,-148.2"/>
</g>
<!-- Node20 -->
<g id="node20" class="node">
<title>Node20</title>
<g id="a_node20"><a xlink:title=" ">
<polygon fill="none" stroke="#bfbfbf" points="496.7,-129 496.7,-148 565.7,-148 565.7,-129 496.7,-129"/>
<text text-anchor="middle" x="531.2" y="-136" font-family="Helvetica,sans-Serif" font-size="10.00">type_traits</text>
</a>
</g>
</g>
<!-- Node2&#45;&gt;Node20 -->
<g id="edge24" class="edge">
<title>Node2&#45;&gt;Node20</title>
<path fill="none" stroke="midnightblue" d="M693.99,-190.48C663.89,-181.63 615.64,-167.24 574.2,-154 571.46,-153.12 568.62,-152.2 565.77,-151.26"/>
<polygon fill="midnightblue" stroke="midnightblue" points="566.76,-147.91 556.17,-148.07 564.55,-154.55 566.76,-147.91"/>
</g>
<!-- Node21 -->
<g id="node21" class="node">
<title>Node21</title>
<g id="a_node21"><a xlink:title=" ">
<polygon fill="none" stroke="#bfbfbf" points="583.7,-129 583.7,-148 630.7,-148 630.7,-129 583.7,-129"/>
<text text-anchor="middle" x="607.2" y="-136" font-family="Helvetica,sans-Serif" font-size="10.00">vector</text>
</a>
</g>
</g>
<!-- Node2&#45;&gt;Node21 -->
<g id="edge25" class="edge">
<title>Node2&#45;&gt;Node21</title>
<path fill="none" stroke="midnightblue" d="M706.58,-190.48C687.28,-180.58 655.24,-164.14 632.77,-152.62"/>
<polygon fill="midnightblue" stroke="midnightblue" points="634.28,-149.46 623.79,-148.01 631.09,-155.69 634.28,-149.46"/>
</g>
<!-- Node6 -->
<g id="node6" class="node">
<title>Node6</title>
<g id="a_node6"><a xlink:href="device__qualifier_8hpp.html" target="_top" xlink:title=" ">
<polygon fill="none" stroke="black" points="812.2,-62 812.2,-81 928.2,-81 928.2,-62 812.2,-62"/>
<text text-anchor="middle" x="870.2" y="-69" font-family="Helvetica,sans-Serif" font-size="10.00">device_qualifier.hpp</text>
</a>
</g>
</g>
<!-- Node5&#45;&gt;Node6 -->
<g id="edge5" class="edge">
<title>Node5&#45;&gt;Node6</title>
<path fill="none" stroke="midnightblue" d="M1073.13,-128.87C1031.31,-117.25 956.87,-96.58 910.71,-83.75"/>
<polygon fill="midnightblue" stroke="midnightblue" points="911.6,-80.37 901.03,-81.06 909.73,-87.11 911.6,-80.37"/>
</g>
<!-- Node5&#45;&gt;Node7 -->
<g id="edge11" class="edge">
<title>Node5&#45;&gt;Node7</title>
<path fill="none" stroke="midnightblue" d="M1100.01,-128.82C1091.83,-112.65 1072.34,-77.61 1047.2,-56 1030.84,-41.95 1009.34,-31.05 991.34,-23.5"/>
<polygon fill="midnightblue" stroke="midnightblue" points="992.34,-20.13 981.76,-19.65 989.73,-26.62 992.34,-20.13"/>
</g>
<!-- Node8 -->
<g id="node8" class="node">
<title>Node8</title>
<g id="a_node8"><a xlink:href="get_8hpp.html" target="_top" xlink:title=" ">
<polygon fill="none" stroke="black" points="1132.7,-62 1132.7,-81 1185.7,-81 1185.7,-62 1132.7,-62"/>
<text text-anchor="middle" x="1159.2" y="-69" font-family="Helvetica,sans-Serif" font-size="10.00">get.hpp</text>
</a>
</g>
</g>
<!-- Node5&#45;&gt;Node8 -->
<g id="edge7" class="edge">
<title>Node5&#45;&gt;Node8</title>
<path fill="none" stroke="midnightblue" d="M1111.62,-128.73C1120.19,-118.6 1134.5,-101.69 1145.19,-89.06"/>
<polygon fill="midnightblue" stroke="midnightblue" points="1148.11,-91.02 1151.9,-81.13 1142.77,-86.5 1148.11,-91.02"/>
</g>
<!-- Node5&#45;&gt;Node9 -->
<g id="edge12" class="edge">
<title>Node5&#45;&gt;Node9</title>
<path fill="none" stroke="midnightblue" d="M1106.06,-128.81C1110.39,-108.49 1121.26,-57.55 1127.19,-29.78"/>
<polygon fill="midnightblue" stroke="midnightblue" points="1130.67,-30.27 1129.33,-19.76 1123.82,-28.8 1130.67,-30.27"/>
</g>
<!-- Node11 -->
<g id="node11" class="node">
<title>Node11</title>
<g id="a_node11"><a xlink:title=" ">
<polygon fill="none" stroke="#bfbfbf" points="1203.7,-56.5 1203.7,-86.5 1310.7,-86.5 1310.7,-56.5 1203.7,-56.5"/>
<text text-anchor="start" x="1211.7" y="-74.5" font-family="Helvetica,sans-Serif" font-size="10.00">boost/serialization</text>
<text text-anchor="middle" x="1257.2" y="-63.5" font-family="Helvetica,sans-Serif" font-size="10.00">/access.hpp</text>
</a>
</g>
</g>
<!-- Node5&#45;&gt;Node11 -->
<g id="edge10" class="edge">
<title>Node5&#45;&gt;Node11</title>
<path fill="none" stroke="midnightblue" d="M1124.52,-128.87C1147.47,-119.12 1185.48,-102.97 1214.94,-90.45"/>
<polygon fill="midnightblue" stroke="midnightblue" points="1216.34,-93.66 1224.18,-86.53 1213.61,-87.22 1216.34,-93.66"/>
</g>
<!-- Node5&#45;&gt;Node12 -->
<g id="edge13" class="edge">
<title>Node5&#45;&gt;Node12</title>
<path fill="none" stroke="midnightblue" d="M1091.66,-128.73C1076.32,-118.01 1050.14,-99.72 1031.82,-86.91"/>
<polygon fill="midnightblue" stroke="midnightblue" points="1033.74,-83.99 1023.54,-81.13 1029.73,-89.72 1033.74,-83.99"/>
</g>
<!-- Node13 -->
<g id="node13" class="node">
<title>Node13</title>
<g id="a_node13"><a xlink:title=" ">
<polygon fill="none" stroke="#bfbfbf" points="1328.7,-62 1328.7,-81 1385.7,-81 1385.7,-62 1328.7,-62"/>
<text text-anchor="middle" x="1357.2" y="-69" font-family="Helvetica,sans-Serif" font-size="10.00">ostream</text>
</a>
</g>
</g>
<!-- Node5&#45;&gt;Node13 -->
<g id="edge14" class="edge">
<title>Node5&#45;&gt;Node13</title>
<path fill="none" stroke="midnightblue" d="M1147.31,-129.33C1191.26,-120.55 1261.18,-105.36 1320.2,-87 1322.62,-86.25 1325.11,-85.41 1327.6,-84.53"/>
<polygon fill="midnightblue" stroke="midnightblue" points="1328.89,-87.79 1337.03,-81.01 1326.44,-81.23 1328.89,-87.79"/>
</g>
<!-- Node14 -->
<g id="node14" class="node">
<title>Node14</title>
<g id="a_node14"><a xlink:title=" ">
<polygon fill="none" stroke="#bfbfbf" points="1403.7,-62 1403.7,-81 1468.7,-81 1468.7,-62 1403.7,-62"/>
<text text-anchor="middle" x="1436.2" y="-69" font-family="Helvetica,sans-Serif" font-size="10.00">stdexcept</text>
</a>
</g>
</g>
<!-- Node5&#45;&gt;Node14 -->
<g id="edge15" class="edge">
<title>Node5&#45;&gt;Node14</title>
<path fill="none" stroke="midnightblue" d="M1147.58,-132.29C1204.87,-124.88 1308.64,-109.65 1395.2,-87 1398.24,-86.2 1401.38,-85.28 1404.5,-84.3"/>
<polygon fill="midnightblue" stroke="midnightblue" points="1405.92,-87.52 1414.28,-81.02 1403.69,-80.88 1405.92,-87.52"/>
</g>
<!-- Node6&#45;&gt;Node7 -->
<g id="edge6" class="edge">
<title>Node6&#45;&gt;Node7</title>
<path fill="none" stroke="midnightblue" d="M882.52,-61.98C896.32,-52.43 918.9,-36.81 935.43,-25.37"/>
<polygon fill="midnightblue" stroke="midnightblue" points="937.67,-28.08 943.9,-19.51 933.69,-22.32 937.67,-28.08"/>
</g>
<!-- Node8&#45;&gt;Node9 -->
<g id="edge8" class="edge">
<title>Node8&#45;&gt;Node9</title>
<path fill="none" stroke="midnightblue" d="M1155.19,-61.98C1151.11,-53.32 1144.68,-39.65 1139.5,-28.65"/>
<polygon fill="midnightblue" stroke="midnightblue" points="1142.63,-27.07 1135.2,-19.51 1136.29,-30.05 1142.63,-27.07"/>
</g>
<!-- Node10 -->
<g id="node10" class="node">
<title>Node10</title>
<g id="a_node10"><a xlink:title=" ">
<polygon fill="none" stroke="#bfbfbf" points="1175.7,-0.5 1175.7,-19.5 1216.7,-19.5 1216.7,-0.5 1175.7,-0.5"/>
<text text-anchor="middle" x="1196.2" y="-7.5" font-family="Helvetica,sans-Serif" font-size="10.00">tuple</text>
</a>
</g>
</g>
<!-- Node8&#45;&gt;Node10 -->
<g id="edge9" class="edge">
<title>Node8&#45;&gt;Node10</title>
<path fill="none" stroke="midnightblue" d="M1164.5,-61.98C1169.94,-53.23 1178.56,-39.37 1185.44,-28.31"/>
<polygon fill="midnightblue" stroke="midnightblue" points="1188.6,-29.85 1190.91,-19.51 1182.65,-26.15 1188.6,-29.85"/>
</g>
<!-- Node22&#45;&gt;Node6 -->
<g id="edge27" class="edge">
<title>Node22&#45;&gt;Node6</title>
<path fill="none" stroke="midnightblue" d="M51.73,-190.44C35.63,-183.38 15.82,-171.63 6.2,-154 -0.4,-141.91 -3.25,-133.02 6.2,-123 33.39,-94.18 602.47,-78.56 801.89,-73.96"/>
<polygon fill="midnightblue" stroke="midnightblue" points="802.04,-77.46 811.96,-73.73 801.88,-70.46 802.04,-77.46"/>
</g>
<!-- Node23 -->
<g id="node23" class="node">
<title>Node23</title>
<g id="a_node23"><a xlink:title=" ">
<polygon fill="none" stroke="#bfbfbf" points="15.2,-123.5 15.2,-153.5 137.2,-153.5 137.2,-123.5 15.2,-123.5"/>
<text text-anchor="start" x="23.2" y="-141.5" font-family="Helvetica,sans-Serif" font-size="10.00">boost/math/constants</text>
<text text-anchor="middle" x="76.2" y="-130.5" font-family="Helvetica,sans-Serif" font-size="10.00">/constants.hpp</text>
</a>
</g>
</g>
<!-- Node22&#45;&gt;Node23 -->
<g id="edge28" class="edge">
<title>Node22&#45;&gt;Node23</title>
<path fill="none" stroke="midnightblue" d="M76.2,-190.48C76.2,-183.47 76.2,-173.19 76.2,-163.7"/>
<polygon fill="midnightblue" stroke="midnightblue" points="79.7,-163.52 76.2,-153.52 72.7,-163.52 79.7,-163.52"/>
</g>
</g>
</svg>
        <g id="navigator" transform="translate(0 0)" fill="#404254">
                <rect fill="#f2f5e9" fill-opacity="0.5" stroke="#606060" stroke-width=".5" x="0" y="0" width="60" height="60"/>
                <use id="zoomplus" xlink:href="#zoomPlus" x="17" y="9" onmousedown="handleZoom(evt,'in')"/>
                <use id="zoomminus" xlink:href="#zoomMin" x="42" y="9" onmousedown="handleZoom(evt,'out')"/>
                <use id="reset" xlink:href="#resetDef" x="30" y="36" onmousedown="handleReset()"/>
                <g id="arrowUp" xlink:href="#dirArrow" transform="translate(30 24)" onmousedown="handlePan(0,-1)">
                  <use xlink:href="#rim" fill="#404040">
                        <set attributeName="fill" to="#808080" begin="arrowUp.mouseover" end="arrowUp.mouseout"/>
                  </use>
                  <path fill="none" stroke="white" stroke-width="1.5" d="M0,-3.0v7 M-2.5,-0.5L0,-3.0L2.5,-0.5"/>
                </g>
                <g id="arrowRight" xlink:href="#dirArrow" transform="rotate(90) translate(36 -43)" onmousedown="handlePan(1,0)">
                  <use xlink:href="#rim" fill="#404040">
                        <set attributeName="fill" to="#808080" begin="arrowRight.mouseover" end="arrowRight.mouseout"/>
                  </use>
                  <path fill="none" stroke="white" stroke-width="1.5" d="M0,-3.0v7 M-2.5,-0.5L0,-3.0L2.5,-0.5"/>
                </g>
                <g id="arrowDown" xlink:href="#dirArrow" transform="rotate(180) translate(-30 -48)" onmousedown="handlePan(0,1)">
                  <use xlink:href="#rim" fill="#404040">
                        <set attributeName="fill" to="#808080" begin="arrowDown.mouseover" end="arrowDown.mouseout"/>
                  </use>
                  <path fill="none" stroke="white" stroke-width="1.5" d="M0,-3.0v7 M-2.5,-0.5L0,-3.0L2.5,-0.5"/>
                </g>
                <g id="arrowLeft" xlink:href="#dirArrow" transform="rotate(270) translate(-36 17)" onmousedown="handlePan(-1,0)">
                  <use xlink:href="#rim" fill="#404040">
                        <set attributeName="fill" to="#808080" begin="arrowLeft.mouseover" end="arrowLeft.mouseout"/>
                  </use>
                  <path fill="none" stroke="white" stroke-width="1.5" d="M0,-3.0v7 M-2.5,-0.5L0,-3.0L2.5,-0.5"/>
                </g>
        </g>
        <svg viewBox="0 0 15 15" width="100%" height="30px" preserveAspectRatio="xMaxYMin meet">
         <g id="arrow_out" transform="scale(0.3 0.3)">
          <a xlink:href="triangle__functions_8hpp__incl_org.svg" target="_base">
           <rect id="button" ry="5" rx="5" y="6" x="6" height="38" width="38"
                fill="#f2f5e9" fill-opacity="0.5" stroke="#606060" stroke-width="1.0"/>
           <path id="arrow"
             d="M 11.500037,31.436501 C 11.940474,20.09759 22.043105,11.32322 32.158766,21.979434 L 37.068811,17.246167 C 37.068811,17.246167 37.088388,32 37.088388,32 L 22.160133,31.978069 C 22.160133,31.978069 26.997745,27.140456 26.997745,27.140456 C 18.528582,18.264221 13.291696,25.230495 11.500037,31.436501 z"
             style="fill:#404040;"/>
          </a>
         </g>
        </svg>
</svg>
