<?xml version="1.0" encoding="UTF-8" standalone="no"?>
<!DOCTYPE svg PUBLIC "-//W3C//DTD SVG 1.1//EN"
 "http://www.w3.org/Graphics/SVG/1.1/DTD/svg11.dtd">
<!-- Generated by graphviz version 2.43.0 (0)
 -->
<!-- Title: utils.hpp Pages: 1 -->
<svg width="1942pt" height="397pt"
 viewBox="0.00 0.00 1941.50 397.00" xmlns="http://www.w3.org/2000/svg" xmlns:xlink="http://www.w3.org/1999/xlink">
<g id="graph0" class="graph" transform="scale(1 1) rotate(0) translate(4 393)">
<title>utils.hpp</title>
<!-- Node1 -->
<g id="node1" class="node">
<title>Node1</title>
<g id="a_node1"><a xlink:title=" ">
<polygon fill="#bfbfbf" stroke="black" points="1745,-369.5 1745,-388.5 1804,-388.5 1804,-369.5 1745,-369.5"/>
<text text-anchor="middle" x="1774.5" y="-376.5" font-family="Helvetica,sans-Serif" font-size="10.00">utils.hpp</text>
</a>
</g>
</g>
<!-- Node2 -->
<g id="node2" class="node">
<title>Node2</title>
<g id="a_node2"><a xlink:href="ReactionAlgorithm_8hpp.html" target="_top" xlink:title=" ">
<polygon fill="none" stroke="black" points="1648.5,-302.5 1648.5,-332.5 1798.5,-332.5 1798.5,-302.5 1648.5,-302.5"/>
<text text-anchor="start" x="1656.5" y="-320.5" font-family="Helvetica,sans-Serif" font-size="10.00">reaction_methods/Reaction</text>
<text text-anchor="middle" x="1723.5" y="-309.5" font-family="Helvetica,sans-Serif" font-size="10.00">Algorithm.hpp</text>
</a>
</g>
</g>
<!-- Node1&#45;&gt;Node2 -->
<g id="edge1" class="edge">
<title>Node1&#45;&gt;Node2</title>
<path fill="none" stroke="midnightblue" d="M1767.19,-369.48C1760.67,-361.87 1750.84,-350.4 1742.16,-340.26"/>
<polygon fill="midnightblue" stroke="midnightblue" points="1744.69,-337.84 1735.52,-332.52 1739.37,-342.39 1744.69,-337.84"/>
</g>
<!-- Node38 -->
<g id="node38" class="node">
<title>Node38</title>
<g id="a_node38"><a xlink:title=" ">
<polygon fill="none" stroke="#bfbfbf" points="1895.5,-246.5 1895.5,-265.5 1933.5,-265.5 1933.5,-246.5 1895.5,-246.5"/>
<text text-anchor="middle" x="1914.5" y="-253.5" font-family="Helvetica,sans-Serif" font-size="10.00">map</text>
</a>
</g>
</g>
<!-- Node1&#45;&gt;Node38 -->
<g id="edge61" class="edge">
<title>Node1&#45;&gt;Node38</title>
<path fill="none" stroke="midnightblue" d="M1784.57,-369.3C1808.08,-348.98 1866.85,-298.19 1896.62,-272.46"/>
<polygon fill="midnightblue" stroke="midnightblue" points="1899.25,-274.81 1904.52,-265.62 1894.67,-269.51 1899.25,-274.81"/>
</g>
<!-- Node3 -->
<g id="node3" class="node">
<title>Node3</title>
<g id="a_node3"><a xlink:href="config_8hpp.html" target="_top" xlink:title=" ">
<polygon fill="none" stroke="black" points="1809.5,-246.5 1809.5,-265.5 1877.5,-265.5 1877.5,-246.5 1809.5,-246.5"/>
<text text-anchor="middle" x="1843.5" y="-253.5" font-family="Helvetica,sans-Serif" font-size="10.00">config.hpp</text>
</a>
</g>
</g>
<!-- Node2&#45;&gt;Node3 -->
<g id="edge2" class="edge">
<title>Node2&#45;&gt;Node3</title>
<path fill="none" stroke="midnightblue" d="M1751.94,-302.4C1771.62,-292.64 1797.64,-279.74 1816.91,-270.18"/>
<polygon fill="midnightblue" stroke="midnightblue" points="1818.63,-273.24 1826.04,-265.66 1815.52,-266.96 1818.63,-273.24"/>
</g>
<!-- Node5 -->
<g id="node5" class="node">
<title>Node5</title>
<g id="a_node5"><a xlink:href="SingleReaction_8hpp.html" target="_top" xlink:title=" ">
<polygon fill="none" stroke="black" points="294.5,-246.5 294.5,-265.5 404.5,-265.5 404.5,-246.5 294.5,-246.5"/>
<text text-anchor="middle" x="349.5" y="-253.5" font-family="Helvetica,sans-Serif" font-size="10.00">SingleReaction.hpp</text>
</a>
</g>
</g>
<!-- Node2&#45;&gt;Node5 -->
<g id="edge4" class="edge">
<title>Node2&#45;&gt;Node5</title>
<path fill="none" stroke="midnightblue" d="M1648.16,-313.24C1404.93,-302.7 643.15,-269.72 414.82,-259.83"/>
<polygon fill="midnightblue" stroke="midnightblue" points="414.81,-256.33 404.67,-259.39 414.51,-263.32 414.81,-256.33"/>
</g>
<!-- Node14 -->
<g id="node14" class="node">
<title>Node14</title>
<g id="a_node14"><a xlink:title=" ">
<polygon fill="none" stroke="#bfbfbf" points="0,-129 0,-148 47,-148 47,-129 0,-129"/>
<text text-anchor="middle" x="23.5" y="-136" font-family="Helvetica,sans-Serif" font-size="10.00">vector</text>
</a>
</g>
</g>
<!-- Node2&#45;&gt;Node14 -->
<g id="edge60" class="edge">
<title>Node2&#45;&gt;Node14</title>
<path fill="none" stroke="midnightblue" d="M1648.16,-316.64C1391.27,-316.69 550.98,-313.16 285.5,-266 206.76,-252.01 185.14,-247.48 114.5,-210 85.98,-194.87 57.21,-170.76 39.87,-155.03"/>
<polygon fill="midnightblue" stroke="midnightblue" points="42.05,-152.27 32.33,-148.05 37.29,-157.41 42.05,-152.27"/>
</g>
<!-- Node16 -->
<g id="node16" class="node">
<title>Node16</title>
<g id="a_node16"><a xlink:href="random_8hpp.html" target="_top" xlink:title=" ">
<polygon fill="none" stroke="black" points="1283,-246.5 1283,-265.5 1358,-265.5 1358,-246.5 1283,-246.5"/>
<text text-anchor="middle" x="1320.5" y="-253.5" font-family="Helvetica,sans-Serif" font-size="10.00">random.hpp</text>
</a>
</g>
</g>
<!-- Node2&#45;&gt;Node16 -->
<g id="edge16" class="edge">
<title>Node2&#45;&gt;Node16</title>
<path fill="none" stroke="midnightblue" d="M1648.17,-305.38C1566.15,-293.27 1437.47,-274.27 1368.3,-264.06"/>
<polygon fill="midnightblue" stroke="midnightblue" points="1368.53,-260.55 1358.13,-262.56 1367.51,-267.48 1368.53,-260.55"/>
</g>
<!-- Node17 -->
<g id="node17" class="node">
<title>Node17</title>
<g id="a_node17"><a xlink:href="Vector_8hpp.html" target="_top" xlink:title=" ">
<polygon fill="none" stroke="black" points="737,-190.5 737,-209.5 830,-209.5 830,-190.5 737,-190.5"/>
<text text-anchor="middle" x="783.5" y="-197.5" font-family="Helvetica,sans-Serif" font-size="10.00">utils/Vector.hpp</text>
</a>
</g>
</g>
<!-- Node2&#45;&gt;Node17 -->
<g id="edge55" class="edge">
<title>Node2&#45;&gt;Node17</title>
<path fill="none" stroke="midnightblue" d="M1648.2,-308.52C1558.79,-298.93 1405.18,-282.12 1273.5,-266 1116.44,-246.77 931.42,-221.52 840.2,-208.9"/>
<polygon fill="midnightblue" stroke="midnightblue" points="840.46,-205.4 830.08,-207.5 839.5,-212.34 840.46,-205.4"/>
</g>
<!-- Node24 -->
<g id="node24" class="node">
<title>Node24</title>
<g id="a_node24"><a xlink:title=" ">
<polygon fill="none" stroke="#bfbfbf" points="1642,-0.5 1642,-19.5 1683,-19.5 1683,-0.5 1642,-0.5"/>
<text text-anchor="middle" x="1662.5" y="-7.5" font-family="Helvetica,sans-Serif" font-size="10.00">tuple</text>
</a>
</g>
</g>
<!-- Node2&#45;&gt;Node24 -->
<g id="edge58" class="edge">
<title>Node2&#45;&gt;Node24</title>
<path fill="none" stroke="midnightblue" d="M1736.09,-302.34C1753.14,-281.63 1781.5,-241.16 1781.5,-201 1781.5,-201 1781.5,-201 1781.5,-137.5 1781.5,-83.94 1724.21,-43.81 1689.13,-24.25"/>
<polygon fill="midnightblue" stroke="midnightblue" points="1690.78,-21.16 1680.32,-19.51 1687.46,-27.33 1690.78,-21.16"/>
</g>
<!-- Node34 -->
<g id="node34" class="node">
<title>Node34</title>
<g id="a_node34"><a xlink:title=" ">
<polygon fill="none" stroke="#bfbfbf" points="1522,-129 1522,-148 1567,-148 1567,-129 1522,-129"/>
<text text-anchor="middle" x="1544.5" y="-136" font-family="Helvetica,sans-Serif" font-size="10.00">utility</text>
</a>
</g>
</g>
<!-- Node2&#45;&gt;Node34 -->
<g id="edge59" class="edge">
<title>Node2&#45;&gt;Node34</title>
<path fill="none" stroke="midnightblue" d="M1728.81,-302.15C1737.24,-276.6 1750.28,-222.81 1724.5,-190 1682.67,-136.77 1640.5,-176.07 1576.5,-154 1574.84,-153.43 1573.14,-152.8 1571.44,-152.13"/>
<polygon fill="midnightblue" stroke="midnightblue" points="1572.44,-148.76 1561.87,-148.08 1569.71,-155.2 1572.44,-148.76"/>
</g>
<!-- Node37 -->
<g id="node37" class="node">
<title>Node37</title>
<g id="a_node37"><a xlink:title=" ">
<polygon fill="none" stroke="#bfbfbf" points="1661.5,-190.5 1661.5,-209.5 1715.5,-209.5 1715.5,-190.5 1661.5,-190.5"/>
<text text-anchor="middle" x="1688.5" y="-197.5" font-family="Helvetica,sans-Serif" font-size="10.00">random</text>
</a>
</g>
</g>
<!-- Node2&#45;&gt;Node37 -->
<g id="edge57" class="edge">
<title>Node2&#45;&gt;Node37</title>
<path fill="none" stroke="midnightblue" d="M1719.21,-302.34C1712.87,-281.43 1701.02,-242.31 1694.04,-219.27"/>
<polygon fill="midnightblue" stroke="midnightblue" points="1697.38,-218.22 1691.13,-209.67 1690.68,-220.25 1697.38,-218.22"/>
</g>
<!-- Node2&#45;&gt;Node38 -->
<g id="edge56" class="edge">
<title>Node2&#45;&gt;Node38</title>
<path fill="none" stroke="midnightblue" d="M1769.21,-302.48C1799.74,-293.08 1841.02,-280.32 1885.66,-266.25"/>
<polygon fill="midnightblue" stroke="midnightblue" points="1886.75,-269.57 1895.23,-263.22 1884.64,-262.9 1886.75,-269.57"/>
</g>
<!-- Node4 -->
<g id="node4" class="node">
<title>Node4</title>
<g id="a_node4"><a xlink:title=" ">
<polygon fill="none" stroke="#bfbfbf" points="1809.5,-190.5 1809.5,-209.5 1921.5,-209.5 1921.5,-190.5 1809.5,-190.5"/>
<text text-anchor="middle" x="1865.5" y="-197.5" font-family="Helvetica,sans-Serif" font-size="10.00">config&#45;features.hpp</text>
</a>
</g>
</g>
<!-- Node3&#45;&gt;Node4 -->
<g id="edge3" class="edge">
<title>Node3&#45;&gt;Node4</title>
<path fill="none" stroke="midnightblue" d="M1847.13,-246.08C1850.11,-238.77 1854.43,-228.18 1858.12,-219.1"/>
<polygon fill="midnightblue" stroke="midnightblue" points="1861.4,-220.33 1861.93,-209.75 1854.92,-217.69 1861.4,-220.33"/>
</g>
<!-- Node6 -->
<g id="node6" class="node">
<title>Node6</title>
<g id="a_node6"><a xlink:href="Accumulator_8hpp.html" target="_top" xlink:title=" ">
<polygon fill="none" stroke="black" points="215,-190.5 215,-209.5 338,-209.5 338,-190.5 215,-190.5"/>
<text text-anchor="middle" x="276.5" y="-197.5" font-family="Helvetica,sans-Serif" font-size="10.00">utils/Accumulator.hpp</text>
</a>
</g>
</g>
<!-- Node5&#45;&gt;Node6 -->
<g id="edge5" class="edge">
<title>Node5&#45;&gt;Node6</title>
<path fill="none" stroke="midnightblue" d="M337.77,-246.32C326.66,-238.11 309.76,-225.6 296.52,-215.81"/>
<polygon fill="midnightblue" stroke="midnightblue" points="298.56,-212.97 288.44,-209.83 294.4,-218.59 298.56,-212.97"/>
</g>
<!-- Node5&#45;&gt;Node14 -->
<g id="edge15" class="edge">
<title>Node5&#45;&gt;Node14</title>
<path fill="none" stroke="midnightblue" d="M299.86,-246.46C261.4,-239.05 207.15,-226.85 161.5,-210 119.24,-194.4 73.23,-169.05 46.45,-153.37"/>
<polygon fill="midnightblue" stroke="midnightblue" points="47.88,-150.16 37.49,-148.07 44.32,-156.18 47.88,-150.16"/>
</g>
<!-- Node15 -->
<g id="node15" class="node">
<title>Node15</title>
<g id="a_node15"><a xlink:title=" ">
<polygon fill="none" stroke="#bfbfbf" points="452.5,-129 452.5,-148 508.5,-148 508.5,-129 452.5,-129"/>
<text text-anchor="middle" x="480.5" y="-136" font-family="Helvetica,sans-Serif" font-size="10.00">numeric</text>
</a>
</g>
</g>
<!-- Node5&#45;&gt;Node15 -->
<g id="edge14" class="edge">
<title>Node5&#45;&gt;Node15</title>
<path fill="none" stroke="midnightblue" d="M359.35,-246.32C381.35,-226.92 434.76,-179.83 462.74,-155.16"/>
<polygon fill="midnightblue" stroke="midnightblue" points="465.35,-157.52 470.54,-148.28 460.72,-152.27 465.35,-157.52"/>
</g>
<!-- Node7 -->
<g id="node7" class="node">
<title>Node7</title>
<g id="a_node7"><a xlink:title=" ">
<polygon fill="none" stroke="#bfbfbf" points="252,-56.5 252,-86.5 359,-86.5 359,-56.5 252,-56.5"/>
<text text-anchor="start" x="260" y="-74.5" font-family="Helvetica,sans-Serif" font-size="10.00">boost/serialization</text>
<text text-anchor="middle" x="305.5" y="-63.5" font-family="Helvetica,sans-Serif" font-size="10.00">/access.hpp</text>
</a>
</g>
</g>
<!-- Node6&#45;&gt;Node7 -->
<g id="edge6" class="edge">
<title>Node6&#45;&gt;Node7</title>
<path fill="none" stroke="midnightblue" d="M272,-190.31C265.18,-175.93 253.88,-146.42 262.5,-123 266.48,-112.19 273.91,-102.12 281.5,-93.86"/>
<polygon fill="midnightblue" stroke="midnightblue" points="284.19,-96.11 288.7,-86.53 279.2,-91.2 284.19,-96.11"/>
</g>
<!-- Node8 -->
<g id="node8" class="node">
<title>Node8</title>
<g id="a_node8"><a xlink:title=" ">
<polygon fill="none" stroke="#bfbfbf" points="65,-123.5 65,-153.5 172,-153.5 172,-123.5 65,-123.5"/>
<text text-anchor="start" x="73" y="-141.5" font-family="Helvetica,sans-Serif" font-size="10.00">boost/serialization</text>
<text text-anchor="middle" x="118.5" y="-130.5" font-family="Helvetica,sans-Serif" font-size="10.00">/vector.hpp</text>
</a>
</g>
</g>
<!-- Node6&#45;&gt;Node8 -->
<g id="edge7" class="edge">
<title>Node6&#45;&gt;Node8</title>
<path fill="none" stroke="midnightblue" d="M253.86,-190.48C230.86,-181.81 194.57,-168.15 165.35,-157.14"/>
<polygon fill="midnightblue" stroke="midnightblue" points="166.33,-153.77 155.74,-153.52 163.86,-160.32 166.33,-153.77"/>
</g>
<!-- Node9 -->
<g id="node9" class="node">
<title>Node9</title>
<g id="a_node9"><a xlink:title=" ">
<polygon fill="none" stroke="#bfbfbf" points="304.5,-129 304.5,-148 368.5,-148 368.5,-129 304.5,-129"/>
<text text-anchor="middle" x="336.5" y="-136" font-family="Helvetica,sans-Serif" font-size="10.00">algorithm</text>
</a>
</g>
</g>
<!-- Node6&#45;&gt;Node9 -->
<g id="edge8" class="edge">
<title>Node6&#45;&gt;Node9</title>
<path fill="none" stroke="midnightblue" d="M285.1,-190.48C294.36,-181.28 309.32,-166.46 320.71,-155.16"/>
<polygon fill="midnightblue" stroke="midnightblue" points="323.28,-157.54 327.92,-148.01 318.35,-152.57 323.28,-157.54"/>
</g>
<!-- Node10 -->
<g id="node10" class="node">
<title>Node10</title>
<g id="a_node10"><a xlink:title=" ">
<polygon fill="none" stroke="#bfbfbf" points="387,-129 387,-148 434,-148 434,-129 387,-129"/>
<text text-anchor="middle" x="410.5" y="-136" font-family="Helvetica,sans-Serif" font-size="10.00">cmath</text>
</a>
</g>
</g>
<!-- Node6&#45;&gt;Node10 -->
<g id="edge9" class="edge">
<title>Node6&#45;&gt;Node10</title>
<path fill="none" stroke="midnightblue" d="M295.7,-190.48C318.29,-180.45 356,-163.7 382,-152.15"/>
<polygon fill="midnightblue" stroke="midnightblue" points="383.62,-155.27 391.34,-148.01 380.78,-148.87 383.62,-155.27"/>
</g>
<!-- Node11 -->
<g id="node11" class="node">
<title>Node11</title>
<g id="a_node11"><a xlink:title=" ">
<polygon fill="none" stroke="#bfbfbf" points="1072,-0.5 1072,-19.5 1125,-19.5 1125,-0.5 1072,-0.5"/>
<text text-anchor="middle" x="1098.5" y="-7.5" font-family="Helvetica,sans-Serif" font-size="10.00">cstddef</text>
</a>
</g>
</g>
<!-- Node6&#45;&gt;Node11 -->
<g id="edge10" class="edge">
<title>Node6&#45;&gt;Node11</title>
<path fill="none" stroke="midnightblue" d="M269.77,-190.22C251.68,-165.52 205.79,-94.69 242.5,-56 271.07,-25.89 900.09,-14.08 1061.19,-11.55"/>
<polygon fill="midnightblue" stroke="midnightblue" points="1061.59,-15.04 1071.54,-11.39 1061.48,-8.04 1061.59,-15.04"/>
</g>
<!-- Node12 -->
<g id="node12" class="node">
<title>Node12</title>
<g id="a_node12"><a xlink:title=" ">
<polygon fill="none" stroke="#bfbfbf" points="1003.5,-129 1003.5,-148 1047.5,-148 1047.5,-129 1003.5,-129"/>
<text text-anchor="middle" x="1025.5" y="-136" font-family="Helvetica,sans-Serif" font-size="10.00">limits</text>
</a>
</g>
</g>
<!-- Node6&#45;&gt;Node12 -->
<g id="edge11" class="edge">
<title>Node6&#45;&gt;Node12</title>
<path fill="none" stroke="midnightblue" d="M338.06,-198.09C488.42,-195.38 871.07,-185.52 994.5,-154 996.49,-153.49 998.5,-152.86 1000.5,-152.14"/>
<polygon fill="midnightblue" stroke="midnightblue" points="1002.3,-155.18 1010.15,-148.06 999.58,-148.73 1002.3,-155.18"/>
</g>
<!-- Node13 -->
<g id="node13" class="node">
<title>Node13</title>
<g id="a_node13"><a xlink:title=" ">
<polygon fill="none" stroke="#bfbfbf" points="421,-62 421,-81 486,-81 486,-62 421,-62"/>
<text text-anchor="middle" x="453.5" y="-69" font-family="Helvetica,sans-Serif" font-size="10.00">stdexcept</text>
</a>
</g>
</g>
<!-- Node6&#45;&gt;Node13 -->
<g id="edge12" class="edge">
<title>Node6&#45;&gt;Node13</title>
<path fill="none" stroke="midnightblue" d="M276.11,-190.21C275.92,-174.58 277.83,-141.85 295.5,-123 311.38,-106.07 369.91,-90.43 411.08,-81.18"/>
<polygon fill="midnightblue" stroke="midnightblue" points="411.87,-84.59 420.88,-79.02 410.36,-77.75 411.87,-84.59"/>
</g>
<!-- Node6&#45;&gt;Node14 -->
<g id="edge13" class="edge">
<title>Node6&#45;&gt;Node14</title>
<path fill="none" stroke="midnightblue" d="M216,-190.44C171.05,-183.19 108.58,-171.19 55.5,-154 53.63,-153.39 51.72,-152.71 49.82,-151.98"/>
<polygon fill="midnightblue" stroke="midnightblue" points="51.07,-148.71 40.49,-148.05 48.35,-155.16 51.07,-148.71"/>
</g>
<!-- Node16&#45;&gt;Node11 -->
<g id="edge52" class="edge">
<title>Node16&#45;&gt;Node11</title>
<path fill="none" stroke="midnightblue" d="M1301.91,-246.45C1286.88,-238.74 1266.07,-226.15 1252.5,-210 1225.35,-177.7 1243.72,-153.44 1214.5,-123 1189.17,-96.61 1167.03,-112.18 1140.5,-87 1123.46,-70.82 1111.6,-46.17 1104.93,-29.36"/>
<polygon fill="midnightblue" stroke="midnightblue" points="1108.07,-27.76 1101.29,-19.62 1101.51,-30.21 1108.07,-27.76"/>
</g>
<!-- Node16&#45;&gt;Node14 -->
<g id="edge54" class="edge">
<title>Node16&#45;&gt;Node14</title>
<path fill="none" stroke="midnightblue" d="M1282.83,-255.16C1113.03,-255.6 417.97,-254.63 205.5,-210 181.67,-205 177.28,-198.61 154.5,-190 110.7,-173.45 98.85,-171.67 55.5,-154 54.09,-153.42 52.65,-152.82 51.2,-152.21"/>
<polygon fill="midnightblue" stroke="midnightblue" points="52.23,-148.84 41.67,-148.02 49.42,-155.25 52.23,-148.84"/>
</g>
<!-- Node16&#45;&gt;Node17 -->
<g id="edge17" class="edge">
<title>Node16&#45;&gt;Node17</title>
<path fill="none" stroke="midnightblue" d="M1282.74,-251.2C1190,-241.88 950.59,-217.8 840.47,-206.73"/>
<polygon fill="midnightblue" stroke="midnightblue" points="840.52,-203.22 830.22,-205.7 839.82,-210.18 840.52,-203.22"/>
</g>
<!-- Node30 -->
<g id="node30" class="node">
<title>Node30</title>
<g id="a_node30"><a xlink:href="constants_8hpp.html" target="_top" xlink:title=" ">
<polygon fill="none" stroke="black" points="1534,-190.5 1534,-209.5 1643,-209.5 1643,-190.5 1534,-190.5"/>
<text text-anchor="middle" x="1588.5" y="-197.5" font-family="Helvetica,sans-Serif" font-size="10.00">utils/constants.hpp</text>
</a>
</g>
</g>
<!-- Node16&#45;&gt;Node30 -->
<g id="edge42" class="edge">
<title>Node16&#45;&gt;Node30</title>
<path fill="none" stroke="midnightblue" d="M1358.05,-247.43C1404.37,-238.1 1483.41,-222.18 1535.8,-211.62"/>
<polygon fill="midnightblue" stroke="midnightblue" points="1536.79,-214.99 1545.9,-209.58 1535.41,-208.13 1536.79,-214.99"/>
</g>
<!-- Node32 -->
<g id="node32" class="node">
<title>Node32</title>
<g id="a_node32"><a xlink:href="u32__to__u64_8hpp.html" target="_top" xlink:title=" ">
<polygon fill="none" stroke="black" points="1397.5,-190.5 1397.5,-209.5 1515.5,-209.5 1515.5,-190.5 1397.5,-190.5"/>
<text text-anchor="middle" x="1456.5" y="-197.5" font-family="Helvetica,sans-Serif" font-size="10.00">utils/u32_to_u64.hpp</text>
</a>
</g>
</g>
<!-- Node16&#45;&gt;Node32 -->
<g id="edge45" class="edge">
<title>Node16&#45;&gt;Node32</title>
<path fill="none" stroke="midnightblue" d="M1342.05,-246.44C1364.53,-237.52 1399.99,-223.44 1425.48,-213.32"/>
<polygon fill="midnightblue" stroke="midnightblue" points="1427.05,-216.46 1435.05,-209.52 1424.47,-209.95 1427.05,-216.46"/>
</g>
<!-- Node35 -->
<g id="node35" class="node">
<title>Node35</title>
<g id="a_node35"><a xlink:href="uniform_8hpp.html" target="_top" xlink:title=" ">
<polygon fill="none" stroke="black" points="1105.5,-190.5 1105.5,-209.5 1205.5,-209.5 1205.5,-190.5 1105.5,-190.5"/>
<text text-anchor="middle" x="1155.5" y="-197.5" font-family="Helvetica,sans-Serif" font-size="10.00">utils/uniform.hpp</text>
</a>
</g>
</g>
<!-- Node16&#45;&gt;Node35 -->
<g id="edge48" class="edge">
<title>Node16&#45;&gt;Node35</title>
<path fill="none" stroke="midnightblue" d="M1294.36,-246.44C1266.48,-237.32 1222.15,-222.81 1191.1,-212.65"/>
<polygon fill="midnightblue" stroke="midnightblue" points="1192.12,-209.3 1181.52,-209.52 1189.94,-215.95 1192.12,-209.3"/>
</g>
<!-- Node36 -->
<g id="node36" class="node">
<title>Node36</title>
<g id="a_node36"><a xlink:title=" ">
<polygon fill="none" stroke="#bfbfbf" points="1262,-190.5 1262,-209.5 1379,-209.5 1379,-190.5 1262,-190.5"/>
<text text-anchor="middle" x="1320.5" y="-197.5" font-family="Helvetica,sans-Serif" font-size="10.00">Random123/philox.h</text>
</a>
</g>
</g>
<!-- Node16&#45;&gt;Node36 -->
<g id="edge51" class="edge">
<title>Node16&#45;&gt;Node36</title>
<path fill="none" stroke="midnightblue" d="M1320.5,-246.08C1320.5,-239.01 1320.5,-228.86 1320.5,-219.99"/>
<polygon fill="midnightblue" stroke="midnightblue" points="1324,-219.75 1320.5,-209.75 1317,-219.75 1324,-219.75"/>
</g>
<!-- Node16&#45;&gt;Node37 -->
<g id="edge53" class="edge">
<title>Node16&#45;&gt;Node37</title>
<path fill="none" stroke="midnightblue" d="M1358.43,-251.14C1420.17,-244.56 1546.08,-229.93 1651.5,-210 1651.6,-209.98 1651.7,-209.96 1651.8,-209.94"/>
<polygon fill="midnightblue" stroke="midnightblue" points="1652.42,-213.39 1661.49,-207.91 1650.99,-206.54 1652.42,-213.39"/>
</g>
<!-- Node17&#45;&gt;Node9 -->
<g id="edge32" class="edge">
<title>Node17&#45;&gt;Node9</title>
<path fill="none" stroke="midnightblue" d="M736.95,-197.31C660.88,-193.78 505.56,-183.33 377.5,-154 374.26,-153.26 370.93,-152.34 367.62,-151.34"/>
<polygon fill="midnightblue" stroke="midnightblue" points="368.52,-147.95 357.93,-148.12 366.32,-154.59 368.52,-147.95"/>
</g>
<!-- Node17&#45;&gt;Node10 -->
<g id="edge34" class="edge">
<title>Node17&#45;&gt;Node10</title>
<path fill="none" stroke="midnightblue" d="M736.75,-196.98C670.42,-193.19 545.71,-182.6 443.5,-154 441.35,-153.4 439.15,-152.68 436.96,-151.89"/>
<polygon fill="midnightblue" stroke="midnightblue" points="438.21,-148.62 427.63,-148.12 435.59,-155.11 438.21,-148.62"/>
</g>
<!-- Node17&#45;&gt;Node11 -->
<g id="edge35" class="edge">
<title>Node17&#45;&gt;Node11</title>
<path fill="none" stroke="midnightblue" d="M736.82,-198.73C656.46,-196.65 505.23,-184.7 555.5,-123 620,-43.84 950.53,-18.96 1061.85,-12.76"/>
<polygon fill="midnightblue" stroke="midnightblue" points="1062.13,-16.26 1071.92,-12.22 1061.75,-9.27 1062.13,-16.26"/>
</g>
<!-- Node17&#45;&gt;Node14 -->
<g id="edge41" class="edge">
<title>Node17&#45;&gt;Node14</title>
<path fill="none" stroke="midnightblue" d="M736.94,-198.32C597.58,-195.94 185.46,-186.3 55.5,-154 53.29,-153.45 51.04,-152.75 48.81,-151.96"/>
<polygon fill="midnightblue" stroke="midnightblue" points="49.95,-148.64 39.37,-148.06 47.28,-155.11 49.95,-148.64"/>
</g>
<!-- Node17&#45;&gt;Node15 -->
<g id="edge39" class="edge">
<title>Node17&#45;&gt;Node15</title>
<path fill="none" stroke="midnightblue" d="M736.82,-193.27C684.22,-186.28 596.43,-173 522.5,-154 519.29,-153.17 515.97,-152.22 512.67,-151.2"/>
<polygon fill="midnightblue" stroke="midnightblue" points="513.56,-147.8 502.96,-148.01 511.37,-154.45 513.56,-147.8"/>
</g>
<!-- Node18 -->
<g id="node18" class="node">
<title>Node18</title>
<g id="a_node18"><a xlink:title=" ">
<polygon fill="none" stroke="#bfbfbf" points="835.5,-129 835.5,-148 985.5,-148 985.5,-129 835.5,-129"/>
<text text-anchor="middle" x="910.5" y="-136" font-family="Helvetica,sans-Serif" font-size="10.00">boost/qvm/deduce_vec.hpp</text>
</a>
</g>
</g>
<!-- Node17&#45;&gt;Node18 -->
<g id="edge18" class="edge">
<title>Node17&#45;&gt;Node18</title>
<path fill="none" stroke="midnightblue" d="M801.7,-190.48C823.01,-180.49 858.53,-163.85 883.16,-152.31"/>
<polygon fill="midnightblue" stroke="midnightblue" points="884.77,-155.42 892.34,-148.01 881.8,-149.08 884.77,-155.42"/>
</g>
<!-- Node19 -->
<g id="node19" class="node">
<title>Node19</title>
<g id="a_node19"><a xlink:title=" ">
<polygon fill="none" stroke="#bfbfbf" points="1065.5,-129 1065.5,-148 1205.5,-148 1205.5,-129 1065.5,-129"/>
<text text-anchor="middle" x="1135.5" y="-136" font-family="Helvetica,sans-Serif" font-size="10.00">boost/qvm/vec_traits.hpp</text>
</a>
</g>
</g>
<!-- Node17&#45;&gt;Node19 -->
<g id="edge19" class="edge">
<title>Node17&#45;&gt;Node19</title>
<path fill="none" stroke="midnightblue" d="M830.4,-191.53C884.82,-182.81 977.23,-167.81 1056.5,-154 1063.95,-152.7 1071.79,-151.3 1079.52,-149.91"/>
<polygon fill="midnightblue" stroke="midnightblue" points="1080.36,-153.31 1089.57,-148.08 1079.11,-146.42 1080.36,-153.31"/>
</g>
<!-- Node20 -->
<g id="node20" class="node">
<title>Node20</title>
<g id="a_node20"><a xlink:href="Array_8hpp.html" target="_top" xlink:title=" ">
<polygon fill="none" stroke="black" points="1261.5,-129 1261.5,-148 1347.5,-148 1347.5,-129 1261.5,-129"/>
<text text-anchor="middle" x="1304.5" y="-136" font-family="Helvetica,sans-Serif" font-size="10.00">utils/Array.hpp</text>
</a>
</g>
</g>
<!-- Node17&#45;&gt;Node20 -->
<g id="edge20" class="edge">
<title>Node17&#45;&gt;Node20</title>
<path fill="none" stroke="midnightblue" d="M830.16,-194.99C909.35,-187.98 1075.04,-172.5 1214.5,-154 1226.39,-152.42 1239.13,-150.51 1251.17,-148.6"/>
<polygon fill="midnightblue" stroke="midnightblue" points="1251.77,-152.04 1261.08,-147 1250.65,-145.13 1251.77,-152.04"/>
</g>
<!-- Node22 -->
<g id="node22" class="node">
<title>Node22</title>
<g id="a_node22"><a xlink:title=" ">
<polygon fill="none" stroke="#bfbfbf" points="1452.5,-0.5 1452.5,-19.5 1504.5,-19.5 1504.5,-0.5 1452.5,-0.5"/>
<text text-anchor="middle" x="1478.5" y="-7.5" font-family="Helvetica,sans-Serif" font-size="10.00">cassert</text>
</a>
</g>
</g>
<!-- Node17&#45;&gt;Node22 -->
<g id="edge33" class="edge">
<title>Node17&#45;&gt;Node22</title>
<path fill="none" stroke="midnightblue" d="M830.26,-198.18C952.15,-195.62 1277.22,-185.9 1379.5,-154 1405.55,-145.88 1407.57,-134.1 1432.5,-123 1480.65,-101.56 1514.4,-129.55 1545.5,-87 1553.63,-75.88 1551.98,-68.16 1545.5,-56 1537.95,-41.83 1523.74,-31.33 1510.34,-24.06"/>
<polygon fill="midnightblue" stroke="midnightblue" points="1511.8,-20.87 1501.29,-19.53 1508.67,-27.13 1511.8,-20.87"/>
</g>
<!-- Node25 -->
<g id="node25" class="node">
<title>Node25</title>
<g id="a_node25"><a xlink:title=" ">
<polygon fill="none" stroke="#bfbfbf" points="1349,-62 1349,-81 1402,-81 1402,-62 1349,-62"/>
<text text-anchor="middle" x="1375.5" y="-69" font-family="Helvetica,sans-Serif" font-size="10.00">iterator</text>
</a>
</g>
</g>
<!-- Node17&#45;&gt;Node25 -->
<g id="edge38" class="edge">
<title>Node17&#45;&gt;Node25</title>
<path fill="none" stroke="midnightblue" d="M830.35,-198.44C960.07,-196.47 1316.96,-187.99 1356.5,-154 1374.38,-138.63 1377.22,-110.01 1376.91,-91.1"/>
<polygon fill="midnightblue" stroke="midnightblue" points="1380.41,-90.85 1376.44,-81.03 1373.41,-91.19 1380.41,-90.85"/>
</g>
<!-- Node27 -->
<g id="node27" class="node">
<title>Node27</title>
<g id="a_node27"><a xlink:title=" ">
<polygon fill="none" stroke="#bfbfbf" points="565,-129 565,-148 630,-148 630,-129 565,-129"/>
<text text-anchor="middle" x="597.5" y="-136" font-family="Helvetica,sans-Serif" font-size="10.00">functional</text>
</a>
</g>
</g>
<!-- Node17&#45;&gt;Node27 -->
<g id="edge36" class="edge">
<title>Node17&#45;&gt;Node27</title>
<path fill="none" stroke="midnightblue" d="M754.78,-190.45C725.45,-181.63 678.65,-167.32 638.5,-154 636.05,-153.19 633.53,-152.34 631,-151.47"/>
<polygon fill="midnightblue" stroke="midnightblue" points="631.89,-148.07 621.29,-148.09 629.59,-154.68 631.89,-148.07"/>
</g>
<!-- Node28 -->
<g id="node28" class="node">
<title>Node28</title>
<g id="a_node28"><a xlink:title=" ">
<polygon fill="none" stroke="#bfbfbf" points="648,-129 648,-148 731,-148 731,-129 648,-129"/>
<text text-anchor="middle" x="689.5" y="-136" font-family="Helvetica,sans-Serif" font-size="10.00">initializer_list</text>
</a>
</g>
</g>
<!-- Node17&#45;&gt;Node28 -->
<g id="edge37" class="edge">
<title>Node17&#45;&gt;Node28</title>
<path fill="none" stroke="midnightblue" d="M770.03,-190.48C754.82,-180.84 729.81,-165.02 711.7,-153.55"/>
<polygon fill="midnightblue" stroke="midnightblue" points="713.26,-150.4 702.94,-148.01 709.52,-156.31 713.26,-150.4"/>
</g>
<!-- Node29 -->
<g id="node29" class="node">
<title>Node29</title>
<g id="a_node29"><a xlink:title=" ">
<polygon fill="none" stroke="#bfbfbf" points="749,-129 749,-148 818,-148 818,-129 749,-129"/>
<text text-anchor="middle" x="783.5" y="-136" font-family="Helvetica,sans-Serif" font-size="10.00">type_traits</text>
</a>
</g>
</g>
<!-- Node17&#45;&gt;Node29 -->
<g id="edge40" class="edge">
<title>Node17&#45;&gt;Node29</title>
<path fill="none" stroke="midnightblue" d="M783.5,-190.48C783.5,-182.08 783.5,-168.98 783.5,-158.16"/>
<polygon fill="midnightblue" stroke="midnightblue" points="787,-158.01 783.5,-148.01 780,-158.01 787,-158.01"/>
</g>
<!-- Node20&#45;&gt;Node7 -->
<g id="edge26" class="edge">
<title>Node20&#45;&gt;Node7</title>
<path fill="none" stroke="midnightblue" d="M1261.15,-129.48C1246.39,-127.03 1229.77,-124.57 1214.5,-123 859.12,-86.53 767.29,-119.24 411.5,-87 397.73,-85.75 383.01,-84 369.05,-82.15"/>
<polygon fill="midnightblue" stroke="midnightblue" points="369.43,-78.67 359.04,-80.79 368.48,-85.61 369.43,-78.67"/>
</g>
<!-- Node20&#45;&gt;Node11 -->
<g id="edge28" class="edge">
<title>Node20&#45;&gt;Node11</title>
<path fill="none" stroke="midnightblue" d="M1276.8,-128.91C1251.41,-120.36 1213.35,-105.82 1183.5,-87 1156.16,-69.76 1129.11,-43.6 1113.11,-26.9"/>
<polygon fill="midnightblue" stroke="midnightblue" points="1115.59,-24.43 1106.19,-19.55 1110.5,-29.23 1115.59,-24.43"/>
</g>
<!-- Node20&#45;&gt;Node13 -->
<g id="edge31" class="edge">
<title>Node20&#45;&gt;Node13</title>
<path fill="none" stroke="midnightblue" d="M1261.12,-129.67C1246.37,-127.23 1229.75,-124.73 1214.5,-123 942.11,-92.09 612.57,-78.15 496.47,-73.94"/>
<polygon fill="midnightblue" stroke="midnightblue" points="496.35,-70.44 486.23,-73.58 496.1,-77.43 496.35,-70.44"/>
</g>
<!-- Node21 -->
<g id="node21" class="node">
<title>Node21</title>
<g id="a_node21"><a xlink:href="device__qualifier_8hpp.html" target="_top" xlink:title=" ">
<polygon fill="none" stroke="black" points="1420.5,-62 1420.5,-81 1536.5,-81 1536.5,-62 1420.5,-62"/>
<text text-anchor="middle" x="1478.5" y="-69" font-family="Helvetica,sans-Serif" font-size="10.00">device_qualifier.hpp</text>
</a>
</g>
</g>
<!-- Node20&#45;&gt;Node21 -->
<g id="edge21" class="edge">
<title>Node20&#45;&gt;Node21</title>
<path fill="none" stroke="midnightblue" d="M1327.61,-128.87C1357.98,-117.52 1411.51,-97.52 1445.97,-84.65"/>
<polygon fill="midnightblue" stroke="midnightblue" points="1447.43,-87.84 1455.58,-81.06 1444.98,-81.28 1447.43,-87.84"/>
</g>
<!-- Node20&#45;&gt;Node22 -->
<g id="edge27" class="edge">
<title>Node20&#45;&gt;Node22</title>
<path fill="none" stroke="midnightblue" d="M1273.92,-128.98C1232.15,-115.87 1165.47,-88.81 1193.5,-56 1225.07,-19.05 1372.52,-12.26 1442.04,-11.14"/>
<polygon fill="midnightblue" stroke="midnightblue" points="1442.16,-14.64 1452.11,-11.01 1442.06,-7.64 1442.16,-14.64"/>
</g>
<!-- Node23 -->
<g id="node23" class="node">
<title>Node23</title>
<g id="a_node23"><a xlink:href="get_8hpp.html" target="_top" xlink:title=" ">
<polygon fill="none" stroke="black" points="1278,-62 1278,-81 1331,-81 1331,-62 1278,-62"/>
<text text-anchor="middle" x="1304.5" y="-69" font-family="Helvetica,sans-Serif" font-size="10.00">get.hpp</text>
</a>
</g>
</g>
<!-- Node20&#45;&gt;Node23 -->
<g id="edge23" class="edge">
<title>Node20&#45;&gt;Node23</title>
<path fill="none" stroke="midnightblue" d="M1304.5,-128.73C1304.5,-119.18 1304.5,-103.62 1304.5,-91.28"/>
<polygon fill="midnightblue" stroke="midnightblue" points="1308,-91.13 1304.5,-81.13 1301,-91.13 1308,-91.13"/>
</g>
<!-- Node20&#45;&gt;Node25 -->
<g id="edge29" class="edge">
<title>Node20&#45;&gt;Node25</title>
<path fill="none" stroke="midnightblue" d="M1314.08,-128.73C1325.47,-118.31 1344.69,-100.71 1358.6,-87.97"/>
<polygon fill="midnightblue" stroke="midnightblue" points="1361.06,-90.46 1366.08,-81.13 1356.34,-85.3 1361.06,-90.46"/>
</g>
<!-- Node26 -->
<g id="node26" class="node">
<title>Node26</title>
<g id="a_node26"><a xlink:title=" ">
<polygon fill="none" stroke="#bfbfbf" points="1203,-62 1203,-81 1260,-81 1260,-62 1203,-62"/>
<text text-anchor="middle" x="1231.5" y="-69" font-family="Helvetica,sans-Serif" font-size="10.00">ostream</text>
</a>
</g>
</g>
<!-- Node20&#45;&gt;Node26 -->
<g id="edge30" class="edge">
<title>Node20&#45;&gt;Node26</title>
<path fill="none" stroke="midnightblue" d="M1294.65,-128.73C1282.94,-118.31 1263.18,-100.71 1248.88,-87.97"/>
<polygon fill="midnightblue" stroke="midnightblue" points="1250.99,-85.16 1241.19,-81.13 1246.33,-90.39 1250.99,-85.16"/>
</g>
<!-- Node21&#45;&gt;Node22 -->
<g id="edge22" class="edge">
<title>Node21&#45;&gt;Node22</title>
<path fill="none" stroke="midnightblue" d="M1478.5,-61.98C1478.5,-53.58 1478.5,-40.48 1478.5,-29.66"/>
<polygon fill="midnightblue" stroke="midnightblue" points="1482,-29.51 1478.5,-19.51 1475,-29.51 1482,-29.51"/>
</g>
<!-- Node23&#45;&gt;Node11 -->
<g id="edge24" class="edge">
<title>Node23&#45;&gt;Node11</title>
<path fill="none" stroke="midnightblue" d="M1284.48,-61.92C1279.32,-59.86 1273.74,-57.74 1268.5,-56 1223.21,-40.95 1169.84,-27.5 1135.15,-19.31"/>
<polygon fill="midnightblue" stroke="midnightblue" points="1135.54,-15.81 1125.01,-16.94 1133.95,-22.62 1135.54,-15.81"/>
</g>
<!-- Node23&#45;&gt;Node24 -->
<g id="edge25" class="edge">
<title>Node23&#45;&gt;Node24</title>
<path fill="none" stroke="midnightblue" d="M1322.72,-61.93C1328.03,-59.71 1333.92,-57.52 1339.5,-56 1444.42,-27.46 1573.7,-16.42 1631.74,-12.68"/>
<polygon fill="midnightblue" stroke="midnightblue" points="1631.96,-16.17 1641.73,-12.06 1631.53,-9.18 1631.96,-16.17"/>
</g>
<!-- Node30&#45;&gt;Node21 -->
<g id="edge43" class="edge">
<title>Node30&#45;&gt;Node21</title>
<path fill="none" stroke="midnightblue" d="M1631.91,-190.49C1679.02,-179.32 1744.07,-157.04 1716.5,-123 1695.47,-97.04 1609.55,-83.88 1546.97,-77.61"/>
<polygon fill="midnightblue" stroke="midnightblue" points="1547.04,-74.1 1536.75,-76.63 1546.37,-81.07 1547.04,-74.1"/>
</g>
<!-- Node31 -->
<g id="node31" class="node">
<title>Node31</title>
<g id="a_node31"><a xlink:title=" ">
<polygon fill="none" stroke="#bfbfbf" points="1585.5,-123.5 1585.5,-153.5 1707.5,-153.5 1707.5,-123.5 1585.5,-123.5"/>
<text text-anchor="start" x="1593.5" y="-141.5" font-family="Helvetica,sans-Serif" font-size="10.00">boost/math/constants</text>
<text text-anchor="middle" x="1646.5" y="-130.5" font-family="Helvetica,sans-Serif" font-size="10.00">/constants.hpp</text>
</a>
</g>
</g>
<!-- Node30&#45;&gt;Node31 -->
<g id="edge44" class="edge">
<title>Node30&#45;&gt;Node31</title>
<path fill="none" stroke="midnightblue" d="M1596.81,-190.48C1604.3,-182.79 1615.63,-171.17 1625.58,-160.96"/>
<polygon fill="midnightblue" stroke="midnightblue" points="1628.36,-163.13 1632.83,-153.52 1623.34,-158.24 1628.36,-163.13"/>
</g>
<!-- Node33 -->
<g id="node33" class="node">
<title>Node33</title>
<g id="a_node33"><a xlink:title=" ">
<polygon fill="none" stroke="#bfbfbf" points="1441.5,-129 1441.5,-148 1503.5,-148 1503.5,-129 1441.5,-129"/>
<text text-anchor="middle" x="1472.5" y="-136" font-family="Helvetica,sans-Serif" font-size="10.00">cinttypes</text>
</a>
</g>
</g>
<!-- Node32&#45;&gt;Node33 -->
<g id="edge46" class="edge">
<title>Node32&#45;&gt;Node33</title>
<path fill="none" stroke="midnightblue" d="M1458.79,-190.48C1461.07,-181.99 1464.65,-168.7 1467.57,-157.82"/>
<polygon fill="midnightblue" stroke="midnightblue" points="1470.99,-158.57 1470.21,-148.01 1464.24,-156.76 1470.99,-158.57"/>
</g>
<!-- Node32&#45;&gt;Node34 -->
<g id="edge47" class="edge">
<title>Node32&#45;&gt;Node34</title>
<path fill="none" stroke="midnightblue" d="M1469.11,-190.48C1483.22,-180.93 1506.33,-165.31 1523.25,-153.87"/>
<polygon fill="midnightblue" stroke="midnightblue" points="1525.59,-156.51 1531.92,-148.01 1521.67,-150.71 1525.59,-156.51"/>
</g>
<!-- Node35&#45;&gt;Node12 -->
<g id="edge50" class="edge">
<title>Node35&#45;&gt;Node12</title>
<path fill="none" stroke="midnightblue" d="M1136.49,-190.43C1116.54,-181.43 1084.27,-166.81 1056.5,-154 1055.35,-153.47 1054.17,-152.92 1052.98,-152.37"/>
<polygon fill="midnightblue" stroke="midnightblue" points="1054.39,-149.17 1043.84,-148.12 1051.43,-155.51 1054.39,-149.17"/>
</g>
<!-- Node35&#45;&gt;Node33 -->
<g id="edge49" class="edge">
<title>Node35&#45;&gt;Node33</title>
<path fill="none" stroke="midnightblue" d="M1205.58,-192.97C1260.49,-185.84 1350.98,-172.55 1427.5,-154 1430.96,-153.16 1434.53,-152.19 1438.08,-151.16"/>
<polygon fill="midnightblue" stroke="midnightblue" points="1439.4,-154.42 1447.93,-148.14 1437.34,-147.73 1439.4,-154.42"/>
</g>
</g>
</svg>
