<?xml version="1.0" encoding="UTF-8" standalone="no"?>
<!DOCTYPE svg PUBLIC "-//W3C//DTD SVG 1.1//EN"
 "http://www.w3.org/Graphics/SVG/1.1/DTD/svg11.dtd">
<!-- Generated by graphviz version 2.43.0 (0)
 -->
<!-- Title: utils.cpp Pages: 1 -->
<!--zoomable 453 -->
<svg id="main" version="1.1" xmlns="http://www.w3.org/2000/svg" xmlns:xlink="http://www.w3.org/1999/xlink" xml:space="preserve" onload="init(evt)">
<style type="text/css"><![CDATA[
.edge:hover path { stroke: red; }
.edge:hover polygon { stroke: red; fill: red; }
]]></style>
<script type="text/javascript"><![CDATA[
var edges = document.getElementsByTagName('g');
if (edges && edges.length) {
  for (var i=0;i<edges.length;i++) {
    if (edges[i].id.substr(0,4)=='edge') {
      edges[i].setAttribute('class','edge');
    }
  }
}
]]></script>
        <defs>
                <circle id="rim" cx="0" cy="0" r="7"/>
                <circle id="rim2" cx="0" cy="0" r="3.5"/>
                <g id="zoomPlus">
                        <use xlink:href="#rim" fill="#404040">
                                <set attributeName="fill" to="#808080" begin="zoomplus.mouseover" end="zoomplus.mouseout"/>
                        </use>
                        <path d="M-4,0h8M0,-4v8" fill="none" stroke="white" stroke-width="1.5" pointer-events="none"/>
                </g>
                <g id="zoomMin">
                        <use xlink:href="#rim" fill="#404040">
                                <set attributeName="fill" to="#808080" begin="zoomminus.mouseover" end="zoomminus.mouseout"/>
                        </use>
                        <path d="M-4,0h8" fill="none" stroke="white" stroke-width="1.5" pointer-events="none"/>
                </g>
                <g id="dirArrow">
                        <path fill="none" stroke="white" stroke-width="1.5" d="M0,-3.0v7 M-2.5,-0.5L0,-3.0L2.5,-0.5"/>
                </g>
               <g id="resetDef">
                       <use xlink:href="#rim2" fill="#404040">
                               <set attributeName="fill" to="#808080" begin="reset.mouseover" end="reset.mouseout"/>
                       </use>
               </g>
        </defs>

<script type="text/javascript">
var viewWidth = 2119;
var viewHeight = 453;
var sectionId = 'dynsection-0';
</script>
<script xlink:href="svgpan.js"/>
<svg id="graph" class="graph">
<g id="viewport">
<title>utils.cpp</title>
<!-- Node1 -->
<g id="node1" class="node">
<title>Node1</title>
<g id="a_node1"><a xlink:title=" ">
<polygon fill="#bfbfbf" stroke="black" points="1883.5,-425.5 1883.5,-444.5 1941.5,-444.5 1941.5,-425.5 1883.5,-425.5"/>
<text text-anchor="middle" x="1912.5" y="-432.5" font-family="Helvetica,sans-Serif" font-size="10.00">utils.cpp</text>
</a>
</g>
</g>
<!-- Node2 -->
<g id="node2" class="node">
<title>Node2</title>
<g id="a_node2"><a xlink:href="utils_8hpp.html" target="_top" xlink:title=" ">
<polygon fill="none" stroke="black" points="1838,-369.5 1838,-388.5 1987,-388.5 1987,-369.5 1838,-369.5"/>
<text text-anchor="middle" x="1912.5" y="-376.5" font-family="Helvetica,sans-Serif" font-size="10.00">reaction_methods/utils.hpp</text>
</a>
</g>
</g>
<!-- Node1&#45;&gt;Node2 -->
<g id="edge1" class="edge">
<title>Node1&#45;&gt;Node2</title>
<path fill="none" stroke="midnightblue" d="M1912.5,-425.08C1912.5,-418.01 1912.5,-407.86 1912.5,-398.99"/>
<polygon fill="midnightblue" stroke="midnightblue" points="1916,-398.75 1912.5,-388.75 1909,-398.75 1916,-398.75"/>
</g>
<!-- Node11 -->
<g id="node11" class="node">
<title>Node11</title>
<g id="a_node11"><a xlink:title=" ">
<polygon fill="none" stroke="#bfbfbf" points="1010,-129 1010,-148 1057,-148 1057,-129 1010,-129"/>
<text text-anchor="middle" x="1033.5" y="-136" font-family="Helvetica,sans-Serif" font-size="10.00">cmath</text>
</a>
</g>
</g>
<!-- Node1&#45;&gt;Node11 -->
<g id="edge63" class="edge">
<title>Node1&#45;&gt;Node11</title>
<path fill="none" stroke="midnightblue" d="M1883.26,-433.76C1718.91,-432.01 917.5,-418.39 917.5,-318.5 917.5,-318.5 917.5,-318.5 917.5,-255 917.5,-205.9 970.33,-170.47 1004.68,-152.62"/>
<polygon fill="midnightblue" stroke="midnightblue" points="1006.44,-155.66 1013.82,-148.06 1003.31,-149.39 1006.44,-155.66"/>
</g>
<!-- Node39 -->
<g id="node39" class="node">
<title>Node39</title>
<g id="a_node39"><a xlink:title=" ">
<polygon fill="none" stroke="#bfbfbf" points="2072.5,-246.5 2072.5,-265.5 2110.5,-265.5 2110.5,-246.5 2072.5,-246.5"/>
<text text-anchor="middle" x="2091.5" y="-253.5" font-family="Helvetica,sans-Serif" font-size="10.00">map</text>
</a>
</g>
</g>
<!-- Node1&#45;&gt;Node39 -->
<g id="edge64" class="edge">
<title>Node1&#45;&gt;Node39</title>
<path fill="none" stroke="midnightblue" d="M1934.25,-425.42C1952.03,-417.7 1977.13,-405.09 1995.5,-389 2034.61,-354.74 2066.97,-301.79 2082.17,-274.53"/>
<polygon fill="midnightblue" stroke="midnightblue" points="2085.25,-276.19 2086.97,-265.74 2079.1,-272.84 2085.25,-276.19"/>
</g>
<!-- Node3 -->
<g id="node3" class="node">
<title>Node3</title>
<g id="a_node3"><a xlink:href="ReactionAlgorithm_8hpp.html" target="_top" xlink:title=" ">
<polygon fill="none" stroke="black" points="1770.5,-302.5 1770.5,-332.5 1920.5,-332.5 1920.5,-302.5 1770.5,-302.5"/>
<text text-anchor="start" x="1778.5" y="-320.5" font-family="Helvetica,sans-Serif" font-size="10.00">reaction_methods/Reaction</text>
<text text-anchor="middle" x="1845.5" y="-309.5" font-family="Helvetica,sans-Serif" font-size="10.00">Algorithm.hpp</text>
</a>
</g>
</g>
<!-- Node2&#45;&gt;Node3 -->
<g id="edge2" class="edge">
<title>Node2&#45;&gt;Node3</title>
<path fill="none" stroke="midnightblue" d="M1902.9,-369.48C1894.08,-361.64 1880.65,-349.71 1869,-339.37"/>
<polygon fill="midnightblue" stroke="midnightblue" points="1871.09,-336.55 1861.29,-332.52 1866.44,-341.78 1871.09,-336.55"/>
</g>
<!-- Node2&#45;&gt;Node39 -->
<g id="edge62" class="edge">
<title>Node2&#45;&gt;Node39</title>
<path fill="none" stroke="midnightblue" d="M1925.09,-369.49C1955.31,-349.06 2032.27,-297.04 2069.99,-271.54"/>
<polygon fill="midnightblue" stroke="midnightblue" points="2072.36,-274.16 2078.69,-265.66 2068.44,-268.36 2072.36,-274.16"/>
</g>
<!-- Node4 -->
<g id="node4" class="node">
<title>Node4</title>
<g id="a_node4"><a xlink:href="config_8hpp.html" target="_top" xlink:title=" ">
<polygon fill="none" stroke="black" points="1869.5,-246.5 1869.5,-265.5 1937.5,-265.5 1937.5,-246.5 1869.5,-246.5"/>
<text text-anchor="middle" x="1903.5" y="-253.5" font-family="Helvetica,sans-Serif" font-size="10.00">config.hpp</text>
</a>
</g>
</g>
<!-- Node3&#45;&gt;Node4 -->
<g id="edge3" class="edge">
<title>Node3&#45;&gt;Node4</title>
<path fill="none" stroke="midnightblue" d="M1859.25,-302.4C1867.85,-293.58 1878.95,-282.18 1887.89,-273.02"/>
<polygon fill="midnightblue" stroke="midnightblue" points="1890.59,-275.26 1895.06,-265.66 1885.57,-270.38 1890.59,-275.26"/>
</g>
<!-- Node6 -->
<g id="node6" class="node">
<title>Node6</title>
<g id="a_node6"><a xlink:href="SingleReaction_8hpp.html" target="_top" xlink:title=" ">
<polygon fill="none" stroke="black" points="1190.5,-246.5 1190.5,-265.5 1300.5,-265.5 1300.5,-246.5 1190.5,-246.5"/>
<text text-anchor="middle" x="1245.5" y="-253.5" font-family="Helvetica,sans-Serif" font-size="10.00">SingleReaction.hpp</text>
</a>
</g>
</g>
<!-- Node3&#45;&gt;Node6 -->
<g id="edge5" class="edge">
<title>Node3&#45;&gt;Node6</title>
<path fill="none" stroke="midnightblue" d="M1770.42,-309.05C1651.81,-297.29 1423.03,-274.61 1310.81,-263.48"/>
<polygon fill="midnightblue" stroke="midnightblue" points="1310.95,-259.97 1300.65,-262.47 1310.26,-266.94 1310.95,-259.97"/>
</g>
<!-- Node15 -->
<g id="node15" class="node">
<title>Node15</title>
<g id="a_node15"><a xlink:title=" ">
<polygon fill="none" stroke="#bfbfbf" points="1216,-129 1216,-148 1263,-148 1263,-129 1216,-129"/>
<text text-anchor="middle" x="1239.5" y="-136" font-family="Helvetica,sans-Serif" font-size="10.00">vector</text>
</a>
</g>
</g>
<!-- Node3&#45;&gt;Node15 -->
<g id="edge61" class="edge">
<title>Node3&#45;&gt;Node15</title>
<path fill="none" stroke="midnightblue" d="M1770.24,-316.19C1605.09,-314.76 1222.31,-306.99 1181.5,-266 1157.64,-242.03 1162.98,-220.55 1177.5,-190 1184.91,-174.41 1199.74,-162.06 1213.04,-153.47"/>
<polygon fill="midnightblue" stroke="midnightblue" points="1215.14,-156.29 1221.89,-148.13 1211.52,-150.3 1215.14,-156.29"/>
</g>
<!-- Node17 -->
<g id="node17" class="node">
<title>Node17</title>
<g id="a_node17"><a xlink:href="random_8hpp.html" target="_top" xlink:title=" ">
<polygon fill="none" stroke="black" points="1515,-246.5 1515,-265.5 1590,-265.5 1590,-246.5 1515,-246.5"/>
<text text-anchor="middle" x="1552.5" y="-253.5" font-family="Helvetica,sans-Serif" font-size="10.00">random.hpp</text>
</a>
</g>
</g>
<!-- Node3&#45;&gt;Node17 -->
<g id="edge17" class="edge">
<title>Node3&#45;&gt;Node17</title>
<path fill="none" stroke="midnightblue" d="M1776.43,-302.47C1722.21,-291.46 1648.13,-276.42 1600.3,-266.71"/>
<polygon fill="midnightblue" stroke="midnightblue" points="1600.71,-263.22 1590.21,-264.66 1599.31,-270.08 1600.71,-263.22"/>
</g>
<!-- Node18 -->
<g id="node18" class="node">
<title>Node18</title>
<g id="a_node18"><a xlink:href="Vector_8hpp.html" target="_top" xlink:title=" ">
<polygon fill="none" stroke="black" points="741,-190.5 741,-209.5 834,-209.5 834,-190.5 741,-190.5"/>
<text text-anchor="middle" x="787.5" y="-197.5" font-family="Helvetica,sans-Serif" font-size="10.00">utils/Vector.hpp</text>
</a>
</g>
</g>
<!-- Node3&#45;&gt;Node18 -->
<g id="edge56" class="edge">
<title>Node3&#45;&gt;Node18</title>
<path fill="none" stroke="midnightblue" d="M1770.27,-314.63C1636.42,-310.58 1348.35,-298.56 1107.5,-266 1007.99,-252.55 892.97,-226.59 831.56,-211.87"/>
<polygon fill="midnightblue" stroke="midnightblue" points="832.36,-208.47 821.81,-209.53 830.72,-215.27 832.36,-208.47"/>
</g>
<!-- Node25 -->
<g id="node25" class="node">
<title>Node25</title>
<g id="a_node25"><a xlink:title=" ">
<polygon fill="none" stroke="#bfbfbf" points="1585,-0.5 1585,-19.5 1626,-19.5 1626,-0.5 1585,-0.5"/>
<text text-anchor="middle" x="1605.5" y="-7.5" font-family="Helvetica,sans-Serif" font-size="10.00">tuple</text>
</a>
</g>
</g>
<!-- Node3&#45;&gt;Node25 -->
<g id="edge59" class="edge">
<title>Node3&#45;&gt;Node25</title>
<path fill="none" stroke="midnightblue" d="M1920.73,-304.03C1977.09,-289.88 2044.5,-260.52 2044.5,-201 2044.5,-201 2044.5,-201 2044.5,-137.5 2044.5,-52.36 1735.78,-21.06 1636.12,-13.17"/>
<polygon fill="midnightblue" stroke="midnightblue" points="1636.32,-9.67 1626.09,-12.4 1635.79,-16.65 1636.32,-9.67"/>
</g>
<!-- Node35 -->
<g id="node35" class="node">
<title>Node35</title>
<g id="a_node35"><a xlink:title=" ">
<polygon fill="none" stroke="#bfbfbf" points="1883,-129 1883,-148 1928,-148 1928,-129 1883,-129"/>
<text text-anchor="middle" x="1905.5" y="-136" font-family="Helvetica,sans-Serif" font-size="10.00">utility</text>
</a>
</g>
</g>
<!-- Node3&#45;&gt;Node35 -->
<g id="edge60" class="edge">
<title>Node3&#45;&gt;Node35</title>
<path fill="none" stroke="midnightblue" d="M1884.04,-302.37C1904.04,-293.82 1928.08,-281.56 1946.5,-266 1970.07,-246.1 1977.91,-239.32 1987.5,-210 1990.26,-201.55 1991.83,-197.76 1987.5,-190 1976.91,-171.03 1955.94,-158.31 1937.86,-150.38"/>
<polygon fill="midnightblue" stroke="midnightblue" points="1938.78,-146.98 1928.2,-146.46 1936.15,-153.46 1938.78,-146.98"/>
</g>
<!-- Node38 -->
<g id="node38" class="node">
<title>Node38</title>
<g id="a_node38"><a xlink:title=" ">
<polygon fill="none" stroke="#bfbfbf" points="1794.5,-190.5 1794.5,-209.5 1848.5,-209.5 1848.5,-190.5 1794.5,-190.5"/>
<text text-anchor="middle" x="1821.5" y="-197.5" font-family="Helvetica,sans-Serif" font-size="10.00">random</text>
</a>
</g>
</g>
<!-- Node3&#45;&gt;Node38 -->
<g id="edge58" class="edge">
<title>Node3&#45;&gt;Node38</title>
<path fill="none" stroke="midnightblue" d="M1842.56,-302.34C1838.23,-281.53 1830.16,-242.66 1825.36,-219.58"/>
<polygon fill="midnightblue" stroke="midnightblue" points="1828.76,-218.75 1823.3,-209.67 1821.91,-220.17 1828.76,-218.75"/>
</g>
<!-- Node3&#45;&gt;Node39 -->
<g id="edge57" class="edge">
<title>Node3&#45;&gt;Node39</title>
<path fill="none" stroke="midnightblue" d="M1907.15,-302.46C1949.75,-292.61 2007.68,-278.95 2058.5,-266 2059.76,-265.68 2061.05,-265.35 2062.35,-265.01"/>
<polygon fill="midnightblue" stroke="midnightblue" points="2063.57,-268.3 2072.33,-262.34 2061.77,-261.54 2063.57,-268.3"/>
</g>
<!-- Node5 -->
<g id="node5" class="node">
<title>Node5</title>
<g id="a_node5"><a xlink:title=" ">
<polygon fill="none" stroke="#bfbfbf" points="1866.5,-190.5 1866.5,-209.5 1978.5,-209.5 1978.5,-190.5 1866.5,-190.5"/>
<text text-anchor="middle" x="1922.5" y="-197.5" font-family="Helvetica,sans-Serif" font-size="10.00">config&#45;features.hpp</text>
</a>
</g>
</g>
<!-- Node4&#45;&gt;Node5 -->
<g id="edge4" class="edge">
<title>Node4&#45;&gt;Node5</title>
<path fill="none" stroke="midnightblue" d="M1906.64,-246.08C1909.18,-238.85 1912.86,-228.41 1916.03,-219.4"/>
<polygon fill="midnightblue" stroke="midnightblue" points="1919.4,-220.35 1919.42,-209.75 1912.8,-218.02 1919.4,-220.35"/>
</g>
<!-- Node7 -->
<g id="node7" class="node">
<title>Node7</title>
<g id="a_node7"><a xlink:href="Accumulator_8hpp.html" target="_top" xlink:title=" ">
<polygon fill="none" stroke="black" points="1226,-190.5 1226,-209.5 1349,-209.5 1349,-190.5 1226,-190.5"/>
<text text-anchor="middle" x="1287.5" y="-197.5" font-family="Helvetica,sans-Serif" font-size="10.00">utils/Accumulator.hpp</text>
</a>
</g>
</g>
<!-- Node6&#45;&gt;Node7 -->
<g id="edge6" class="edge">
<title>Node6&#45;&gt;Node7</title>
<path fill="none" stroke="midnightblue" d="M1252.44,-246.08C1258.43,-238.38 1267.25,-227.03 1274.55,-217.65"/>
<polygon fill="midnightblue" stroke="midnightblue" points="1277.32,-219.79 1280.69,-209.75 1271.79,-215.5 1277.32,-219.79"/>
</g>
<!-- Node6&#45;&gt;Node15 -->
<g id="edge16" class="edge">
<title>Node6&#45;&gt;Node15</title>
<path fill="none" stroke="midnightblue" d="M1225.28,-246.49C1210.73,-239.17 1192.2,-227.06 1183.5,-210 1172.43,-188.29 1195.62,-166.87 1215.44,-153.44"/>
<polygon fill="midnightblue" stroke="midnightblue" points="1217.36,-156.37 1223.9,-148.03 1213.59,-150.47 1217.36,-156.37"/>
</g>
<!-- Node16 -->
<g id="node16" class="node">
<title>Node16</title>
<g id="a_node16"><a xlink:title=" ">
<polygon fill="none" stroke="#bfbfbf" points="853.5,-129 853.5,-148 909.5,-148 909.5,-129 853.5,-129"/>
<text text-anchor="middle" x="881.5" y="-136" font-family="Helvetica,sans-Serif" font-size="10.00">numeric</text>
</a>
</g>
</g>
<!-- Node6&#45;&gt;Node16 -->
<g id="edge15" class="edge">
<title>Node6&#45;&gt;Node16</title>
<path fill="none" stroke="midnightblue" d="M1190.38,-253.55C1134.03,-250.34 1045.03,-240.37 974.5,-210 944.12,-196.92 914.66,-171.84 897.3,-155.4"/>
<polygon fill="midnightblue" stroke="midnightblue" points="899.42,-152.57 889.81,-148.11 894.54,-157.59 899.42,-152.57"/>
</g>
<!-- Node8 -->
<g id="node8" class="node">
<title>Node8</title>
<g id="a_node8"><a xlink:title=" ">
<polygon fill="none" stroke="#bfbfbf" points="859,-56.5 859,-86.5 966,-86.5 966,-56.5 859,-56.5"/>
<text text-anchor="start" x="867" y="-74.5" font-family="Helvetica,sans-Serif" font-size="10.00">boost/serialization</text>
<text text-anchor="middle" x="912.5" y="-63.5" font-family="Helvetica,sans-Serif" font-size="10.00">/access.hpp</text>
</a>
</g>
</g>
<!-- Node7&#45;&gt;Node8 -->
<g id="edge7" class="edge">
<title>Node7&#45;&gt;Node8</title>
<path fill="none" stroke="midnightblue" d="M1288.58,-190.41C1290.04,-174.5 1290.58,-140.49 1271.5,-123 1224.6,-80.01 1055.4,-96.95 976.29,-86.95"/>
<polygon fill="midnightblue" stroke="midnightblue" points="976.6,-83.46 966.19,-85.44 975.56,-90.38 976.6,-83.46"/>
</g>
<!-- Node9 -->
<g id="node9" class="node">
<title>Node9</title>
<g id="a_node9"><a xlink:title=" ">
<polygon fill="none" stroke="#bfbfbf" points="1358,-123.5 1358,-153.5 1465,-153.5 1465,-123.5 1358,-123.5"/>
<text text-anchor="start" x="1366" y="-141.5" font-family="Helvetica,sans-Serif" font-size="10.00">boost/serialization</text>
<text text-anchor="middle" x="1411.5" y="-130.5" font-family="Helvetica,sans-Serif" font-size="10.00">/vector.hpp</text>
</a>
</g>
</g>
<!-- Node7&#45;&gt;Node9 -->
<g id="edge8" class="edge">
<title>Node7&#45;&gt;Node9</title>
<path fill="none" stroke="midnightblue" d="M1305.27,-190.48C1322.92,-182 1350.57,-168.74 1373.23,-157.86"/>
<polygon fill="midnightblue" stroke="midnightblue" points="1374.77,-161 1382.28,-153.52 1371.75,-154.69 1374.77,-161"/>
</g>
<!-- Node10 -->
<g id="node10" class="node">
<title>Node10</title>
<g id="a_node10"><a xlink:title=" ">
<polygon fill="none" stroke="#bfbfbf" points="927.5,-129 927.5,-148 991.5,-148 991.5,-129 927.5,-129"/>
<text text-anchor="middle" x="959.5" y="-136" font-family="Helvetica,sans-Serif" font-size="10.00">algorithm</text>
</a>
</g>
</g>
<!-- Node7&#45;&gt;Node10 -->
<g id="edge9" class="edge">
<title>Node7&#45;&gt;Node10</title>
<path fill="none" stroke="midnightblue" d="M1225.81,-192.66C1167.24,-185.86 1077.02,-173.35 1000.5,-154 997.45,-153.23 994.31,-152.32 991.18,-151.35"/>
<polygon fill="midnightblue" stroke="midnightblue" points="991.99,-147.93 981.4,-148.08 989.78,-154.57 991.99,-147.93"/>
</g>
<!-- Node7&#45;&gt;Node11 -->
<g id="edge10" class="edge">
<title>Node7&#45;&gt;Node11</title>
<path fill="none" stroke="midnightblue" d="M1228.47,-190.49C1183.45,-183.17 1120.24,-171.06 1066.5,-154 1064.58,-153.39 1062.61,-152.7 1060.65,-151.97"/>
<polygon fill="midnightblue" stroke="midnightblue" points="1061.62,-148.58 1051.04,-148.04 1058.97,-155.06 1061.62,-148.58"/>
</g>
<!-- Node12 -->
<g id="node12" class="node">
<title>Node12</title>
<g id="a_node12"><a xlink:title=" ">
<polygon fill="none" stroke="#bfbfbf" points="1051,-0.5 1051,-19.5 1104,-19.5 1104,-0.5 1051,-0.5"/>
<text text-anchor="middle" x="1077.5" y="-7.5" font-family="Helvetica,sans-Serif" font-size="10.00">cstddef</text>
</a>
</g>
</g>
<!-- Node7&#45;&gt;Node12 -->
<g id="edge11" class="edge">
<title>Node7&#45;&gt;Node12</title>
<path fill="none" stroke="midnightblue" d="M1336.2,-190.42C1388.38,-180.73 1464.92,-164.9 1473.5,-154 1482.02,-143.17 1481.81,-133.99 1473.5,-123 1429.5,-64.83 1203.81,-28.21 1114.22,-15.76"/>
<polygon fill="midnightblue" stroke="midnightblue" points="1114.62,-12.28 1104.24,-14.4 1113.67,-19.22 1114.62,-12.28"/>
</g>
<!-- Node13 -->
<g id="node13" class="node">
<title>Node13</title>
<g id="a_node13"><a xlink:title=" ">
<polygon fill="none" stroke="#bfbfbf" points="1527.5,-129 1527.5,-148 1571.5,-148 1571.5,-129 1527.5,-129"/>
<text text-anchor="middle" x="1549.5" y="-136" font-family="Helvetica,sans-Serif" font-size="10.00">limits</text>
</a>
</g>
</g>
<!-- Node7&#45;&gt;Node13 -->
<g id="edge12" class="edge">
<title>Node7&#45;&gt;Node13</title>
<path fill="none" stroke="midnightblue" d="M1338.63,-190.5C1383.5,-182.57 1450.34,-169.64 1507.5,-154 1510.88,-153.08 1514.37,-152.02 1517.85,-150.92"/>
<polygon fill="midnightblue" stroke="midnightblue" points="1519.06,-154.21 1527.44,-147.72 1516.84,-147.56 1519.06,-154.21"/>
</g>
<!-- Node14 -->
<g id="node14" class="node">
<title>Node14</title>
<g id="a_node14"><a xlink:title=" ">
<polygon fill="none" stroke="#bfbfbf" points="984,-62 984,-81 1049,-81 1049,-62 984,-62"/>
<text text-anchor="middle" x="1016.5" y="-69" font-family="Helvetica,sans-Serif" font-size="10.00">stdexcept</text>
</a>
</g>
</g>
<!-- Node7&#45;&gt;Node14 -->
<g id="edge13" class="edge">
<title>Node7&#45;&gt;Node14</title>
<path fill="none" stroke="midnightblue" d="M1293.78,-190.38C1304.13,-175.03 1322.08,-142.72 1305.5,-123 1274.54,-86.16 1131.83,-76.19 1059.21,-73.5"/>
<polygon fill="midnightblue" stroke="midnightblue" points="1059.14,-69.99 1049.03,-73.15 1058.9,-76.99 1059.14,-69.99"/>
</g>
<!-- Node7&#45;&gt;Node15 -->
<g id="edge14" class="edge">
<title>Node7&#45;&gt;Node15</title>
<path fill="none" stroke="midnightblue" d="M1280.62,-190.48C1273.35,-181.46 1261.7,-167.02 1252.66,-155.81"/>
<polygon fill="midnightblue" stroke="midnightblue" points="1255.37,-153.59 1246.36,-148.01 1249.92,-157.99 1255.37,-153.59"/>
</g>
<!-- Node17&#45;&gt;Node12 -->
<g id="edge53" class="edge">
<title>Node17&#45;&gt;Node12</title>
<path fill="none" stroke="midnightblue" d="M1590.42,-251.75C1641.49,-246.5 1728.25,-234.2 1747.5,-210 1777.82,-171.89 1739.3,-153.01 1688.5,-123 1589.45,-64.49 1231.16,-25.72 1114.49,-14.42"/>
<polygon fill="midnightblue" stroke="midnightblue" points="1114.58,-10.91 1104.29,-13.44 1113.91,-17.88 1114.58,-10.91"/>
</g>
<!-- Node17&#45;&gt;Node15 -->
<g id="edge55" class="edge">
<title>Node17&#45;&gt;Node15</title>
<path fill="none" stroke="midnightblue" d="M1514.78,-255.87C1435.34,-256.8 1254.92,-253.9 1216.5,-210 1203.32,-194.94 1214.63,-172.16 1225.55,-156.6"/>
<polygon fill="midnightblue" stroke="midnightblue" points="1228.52,-158.48 1231.74,-148.39 1222.93,-154.27 1228.52,-158.48"/>
</g>
<!-- Node17&#45;&gt;Node18 -->
<g id="edge18" class="edge">
<title>Node17&#45;&gt;Node18</title>
<path fill="none" stroke="midnightblue" d="M1514.82,-252.34C1390.6,-243.57 993.38,-215.53 844.54,-205.03"/>
<polygon fill="midnightblue" stroke="midnightblue" points="844.48,-201.51 834.26,-204.3 843.99,-208.5 844.48,-201.51"/>
</g>
<!-- Node31 -->
<g id="node31" class="node">
<title>Node31</title>
<g id="a_node31"><a xlink:href="constants_8hpp.html" target="_top" xlink:title=" ">
<polygon fill="none" stroke="black" points="984,-190.5 984,-209.5 1093,-209.5 1093,-190.5 984,-190.5"/>
<text text-anchor="middle" x="1038.5" y="-197.5" font-family="Helvetica,sans-Serif" font-size="10.00">utils/constants.hpp</text>
</a>
</g>
</g>
<!-- Node17&#45;&gt;Node31 -->
<g id="edge43" class="edge">
<title>Node17&#45;&gt;Node31</title>
<path fill="none" stroke="midnightblue" d="M1514.7,-251.03C1427.67,-241.89 1212.27,-219.26 1103.53,-207.83"/>
<polygon fill="midnightblue" stroke="midnightblue" points="1103.65,-204.33 1093.34,-206.76 1102.92,-211.29 1103.65,-204.33"/>
</g>
<!-- Node33 -->
<g id="node33" class="node">
<title>Node33</title>
<g id="a_node33"><a xlink:href="u32__to__u64_8hpp.html" target="_top" xlink:title=" ">
<polygon fill="none" stroke="black" points="1620.5,-190.5 1620.5,-209.5 1738.5,-209.5 1738.5,-190.5 1620.5,-190.5"/>
<text text-anchor="middle" x="1679.5" y="-197.5" font-family="Helvetica,sans-Serif" font-size="10.00">utils/u32_to_u64.hpp</text>
</a>
</g>
</g>
<!-- Node17&#45;&gt;Node33 -->
<g id="edge46" class="edge">
<title>Node17&#45;&gt;Node33</title>
<path fill="none" stroke="midnightblue" d="M1572.62,-246.44C1593.52,-237.56 1626.43,-223.56 1650.22,-213.45"/>
<polygon fill="midnightblue" stroke="midnightblue" points="1651.64,-216.65 1659.47,-209.52 1648.9,-210.21 1651.64,-216.65"/>
</g>
<!-- Node36 -->
<g id="node36" class="node">
<title>Node36</title>
<g id="a_node36"><a xlink:href="uniform_8hpp.html" target="_top" xlink:title=" ">
<polygon fill="none" stroke="black" points="1502.5,-190.5 1502.5,-209.5 1602.5,-209.5 1602.5,-190.5 1502.5,-190.5"/>
<text text-anchor="middle" x="1552.5" y="-197.5" font-family="Helvetica,sans-Serif" font-size="10.00">utils/uniform.hpp</text>
</a>
</g>
</g>
<!-- Node17&#45;&gt;Node36 -->
<g id="edge49" class="edge">
<title>Node17&#45;&gt;Node36</title>
<path fill="none" stroke="midnightblue" d="M1552.5,-246.08C1552.5,-239.01 1552.5,-228.86 1552.5,-219.99"/>
<polygon fill="midnightblue" stroke="midnightblue" points="1556,-219.75 1552.5,-209.75 1549,-219.75 1556,-219.75"/>
</g>
<!-- Node37 -->
<g id="node37" class="node">
<title>Node37</title>
<g id="a_node37"><a xlink:title=" ">
<polygon fill="none" stroke="#bfbfbf" points="1367,-190.5 1367,-209.5 1484,-209.5 1484,-190.5 1367,-190.5"/>
<text text-anchor="middle" x="1425.5" y="-197.5" font-family="Helvetica,sans-Serif" font-size="10.00">Random123/philox.h</text>
</a>
</g>
</g>
<!-- Node17&#45;&gt;Node37 -->
<g id="edge52" class="edge">
<title>Node17&#45;&gt;Node37</title>
<path fill="none" stroke="midnightblue" d="M1532.38,-246.44C1511.48,-237.56 1478.57,-223.56 1454.78,-213.45"/>
<polygon fill="midnightblue" stroke="midnightblue" points="1456.1,-210.21 1445.53,-209.52 1453.36,-216.65 1456.1,-210.21"/>
</g>
<!-- Node17&#45;&gt;Node38 -->
<g id="edge54" class="edge">
<title>Node17&#45;&gt;Node38</title>
<path fill="none" stroke="midnightblue" d="M1590.07,-247.84C1635.3,-239.16 1713.55,-223.95 1780.5,-210 1781.74,-209.74 1783.01,-209.48 1784.29,-209.2"/>
<polygon fill="midnightblue" stroke="midnightblue" points="1785.13,-212.6 1794.17,-207.08 1783.66,-205.76 1785.13,-212.6"/>
</g>
<!-- Node18&#45;&gt;Node10 -->
<g id="edge33" class="edge">
<title>Node18&#45;&gt;Node10</title>
<path fill="none" stroke="midnightblue" d="M812.64,-190.44C839.03,-181.44 881.71,-166.82 918.5,-154 920.87,-153.17 923.32,-152.32 925.78,-151.45"/>
<polygon fill="midnightblue" stroke="midnightblue" points="926.96,-154.75 935.23,-148.12 924.64,-148.14 926.96,-154.75"/>
</g>
<!-- Node18&#45;&gt;Node11 -->
<g id="edge35" class="edge">
<title>Node18&#45;&gt;Node11</title>
<path fill="none" stroke="midnightblue" d="M834.34,-191.96C877.98,-184.73 944.55,-171.99 1000.5,-154 1002.42,-153.38 1004.38,-152.69 1006.34,-151.95"/>
<polygon fill="midnightblue" stroke="midnightblue" points="1008.03,-155.04 1015.95,-148.01 1005.37,-148.57 1008.03,-155.04"/>
</g>
<!-- Node18&#45;&gt;Node12 -->
<g id="edge36" class="edge">
<title>Node18&#45;&gt;Node12</title>
<path fill="none" stroke="midnightblue" d="M791.34,-190.22C798.92,-173.99 817.46,-139.48 844.5,-123 926.48,-73.03 986.63,-151.77 1057.5,-87 1073.36,-72.5 1077.28,-47.08 1077.94,-29.66"/>
<polygon fill="midnightblue" stroke="midnightblue" points="1081.44,-29.58 1078,-19.56 1074.44,-29.54 1081.44,-29.58"/>
</g>
<!-- Node18&#45;&gt;Node15 -->
<g id="edge42" class="edge">
<title>Node18&#45;&gt;Node15</title>
<path fill="none" stroke="midnightblue" d="M834.34,-195.79C928.42,-189.03 1137.22,-172.47 1206.5,-154 1208.8,-153.39 1211.14,-152.64 1213.46,-151.81"/>
<polygon fill="midnightblue" stroke="midnightblue" points="1214.78,-155.05 1222.73,-148.05 1212.15,-148.56 1214.78,-155.05"/>
</g>
<!-- Node18&#45;&gt;Node16 -->
<g id="edge40" class="edge">
<title>Node18&#45;&gt;Node16</title>
<path fill="none" stroke="midnightblue" d="M800.97,-190.48C816.18,-180.84 841.19,-165.02 859.3,-153.55"/>
<polygon fill="midnightblue" stroke="midnightblue" points="861.48,-156.31 868.06,-148.01 857.74,-150.4 861.48,-156.31"/>
</g>
<!-- Node19 -->
<g id="node19" class="node">
<title>Node19</title>
<g id="a_node19"><a xlink:title=" ">
<polygon fill="none" stroke="#bfbfbf" points="309.5,-129 309.5,-148 459.5,-148 459.5,-129 309.5,-129"/>
<text text-anchor="middle" x="384.5" y="-136" font-family="Helvetica,sans-Serif" font-size="10.00">boost/qvm/deduce_vec.hpp</text>
</a>
</g>
</g>
<!-- Node18&#45;&gt;Node19 -->
<g id="edge19" class="edge">
<title>Node18&#45;&gt;Node19</title>
<path fill="none" stroke="midnightblue" d="M740.94,-192.89C678.76,-184.62 565.2,-169.16 468.5,-154 460.09,-152.68 451.23,-151.22 442.53,-149.76"/>
<polygon fill="midnightblue" stroke="midnightblue" points="442.88,-146.27 432.43,-148.04 441.7,-153.17 442.88,-146.27"/>
</g>
<!-- Node20 -->
<g id="node20" class="node">
<title>Node20</title>
<g id="a_node20"><a xlink:title=" ">
<polygon fill="none" stroke="#bfbfbf" points="477.5,-129 477.5,-148 617.5,-148 617.5,-129 477.5,-129"/>
<text text-anchor="middle" x="547.5" y="-136" font-family="Helvetica,sans-Serif" font-size="10.00">boost/qvm/vec_traits.hpp</text>
</a>
</g>
</g>
<!-- Node18&#45;&gt;Node20 -->
<g id="edge20" class="edge">
<title>Node18&#45;&gt;Node20</title>
<path fill="none" stroke="midnightblue" d="M753.11,-190.48C710.61,-179.94 638.2,-161.99 591.63,-150.44"/>
<polygon fill="midnightblue" stroke="midnightblue" points="592.37,-147.02 581.82,-148.01 590.69,-153.81 592.37,-147.02"/>
</g>
<!-- Node21 -->
<g id="node21" class="node">
<title>Node21</title>
<g id="a_node21"><a xlink:href="Array_8hpp.html" target="_top" xlink:title=" ">
<polygon fill="none" stroke="black" points="673.5,-129 673.5,-148 759.5,-148 759.5,-129 673.5,-129"/>
<text text-anchor="middle" x="716.5" y="-136" font-family="Helvetica,sans-Serif" font-size="10.00">utils/Array.hpp</text>
</a>
</g>
</g>
<!-- Node18&#45;&gt;Node21 -->
<g id="edge21" class="edge">
<title>Node18&#45;&gt;Node21</title>
<path fill="none" stroke="midnightblue" d="M777.33,-190.48C766.15,-181.11 747.98,-165.88 734.41,-154.51"/>
<polygon fill="midnightblue" stroke="midnightblue" points="736.57,-151.75 726.65,-148.01 732.07,-157.11 736.57,-151.75"/>
</g>
<!-- Node23 -->
<g id="node23" class="node">
<title>Node23</title>
<g id="a_node23"><a xlink:title=" ">
<polygon fill="none" stroke="#bfbfbf" points="462.5,-0.5 462.5,-19.5 514.5,-19.5 514.5,-0.5 462.5,-0.5"/>
<text text-anchor="middle" x="488.5" y="-7.5" font-family="Helvetica,sans-Serif" font-size="10.00">cassert</text>
</a>
</g>
</g>
<!-- Node18&#45;&gt;Node23 -->
<g id="edge34" class="edge">
<title>Node18&#45;&gt;Node23</title>
<path fill="none" stroke="midnightblue" d="M740.71,-198.18C624.47,-195.67 329.82,-186.15 300.5,-154 246.62,-94.91 383.89,-42.88 452.38,-21.43"/>
<polygon fill="midnightblue" stroke="midnightblue" points="453.81,-24.65 462.34,-18.37 451.76,-17.96 453.81,-24.65"/>
</g>
<!-- Node26 -->
<g id="node26" class="node">
<title>Node26</title>
<g id="a_node26"><a xlink:title=" ">
<polygon fill="none" stroke="#bfbfbf" points="788,-62 788,-81 841,-81 841,-62 788,-62"/>
<text text-anchor="middle" x="814.5" y="-69" font-family="Helvetica,sans-Serif" font-size="10.00">iterator</text>
</a>
</g>
</g>
<!-- Node18&#45;&gt;Node26 -->
<g id="edge39" class="edge">
<title>Node18&#45;&gt;Node26</title>
<path fill="none" stroke="midnightblue" d="M789.36,-190.31C793.69,-169.99 804.56,-119.05 810.49,-91.28"/>
<polygon fill="midnightblue" stroke="midnightblue" points="813.97,-91.77 812.63,-81.26 807.12,-90.3 813.97,-91.77"/>
</g>
<!-- Node28 -->
<g id="node28" class="node">
<title>Node28</title>
<g id="a_node28"><a xlink:title=" ">
<polygon fill="none" stroke="#bfbfbf" points="0,-129 0,-148 65,-148 65,-129 0,-129"/>
<text text-anchor="middle" x="32.5" y="-136" font-family="Helvetica,sans-Serif" font-size="10.00">functional</text>
</a>
</g>
</g>
<!-- Node18&#45;&gt;Node28 -->
<g id="edge37" class="edge">
<title>Node18&#45;&gt;Node28</title>
<path fill="none" stroke="midnightblue" d="M740.97,-197.75C603.68,-193.79 201.89,-180.22 73.5,-154 69.99,-153.28 66.37,-152.33 62.81,-151.26"/>
<polygon fill="midnightblue" stroke="midnightblue" points="63.63,-147.85 53.04,-148.02 61.43,-154.49 63.63,-147.85"/>
</g>
<!-- Node29 -->
<g id="node29" class="node">
<title>Node29</title>
<g id="a_node29"><a xlink:title=" ">
<polygon fill="none" stroke="#bfbfbf" points="83,-129 83,-148 166,-148 166,-129 83,-129"/>
<text text-anchor="middle" x="124.5" y="-136" font-family="Helvetica,sans-Serif" font-size="10.00">initializer_list</text>
</a>
</g>
</g>
<!-- Node18&#45;&gt;Node29 -->
<g id="edge38" class="edge">
<title>Node18&#45;&gt;Node29</title>
<path fill="none" stroke="midnightblue" d="M740.95,-198.89C637.99,-197.91 383.51,-191.55 174.5,-154 169.75,-153.15 164.8,-152.02 159.94,-150.76"/>
<polygon fill="midnightblue" stroke="midnightblue" points="160.78,-147.36 150.21,-148.07 158.91,-154.11 160.78,-147.36"/>
</g>
<!-- Node30 -->
<g id="node30" class="node">
<title>Node30</title>
<g id="a_node30"><a xlink:title=" ">
<polygon fill="none" stroke="#bfbfbf" points="184,-129 184,-148 253,-148 253,-129 184,-129"/>
<text text-anchor="middle" x="218.5" y="-136" font-family="Helvetica,sans-Serif" font-size="10.00">type_traits</text>
</a>
</g>
</g>
<!-- Node18&#45;&gt;Node30 -->
<g id="edge41" class="edge">
<title>Node18&#45;&gt;Node30</title>
<path fill="none" stroke="midnightblue" d="M740.81,-198.1C649.25,-195.65 440.01,-186.64 267.5,-154 262.96,-153.14 258.25,-152.03 253.61,-150.81"/>
<polygon fill="midnightblue" stroke="midnightblue" points="254.27,-147.36 243.69,-148.01 252.37,-154.1 254.27,-147.36"/>
</g>
<!-- Node21&#45;&gt;Node8 -->
<g id="edge27" class="edge">
<title>Node21&#45;&gt;Node8</title>
<path fill="none" stroke="midnightblue" d="M742.53,-128.87C772.45,-118.95 822.31,-102.41 860.32,-89.81"/>
<polygon fill="midnightblue" stroke="midnightblue" points="861.81,-93 870.2,-86.53 859.61,-86.35 861.81,-93"/>
</g>
<!-- Node21&#45;&gt;Node12 -->
<g id="edge29" class="edge">
<title>Node21&#45;&gt;Node12</title>
<path fill="none" stroke="midnightblue" d="M711.7,-128.6C703.5,-112.07 689.38,-76.46 707.5,-56 729.38,-31.3 951.25,-17.39 1040.56,-12.76"/>
<polygon fill="midnightblue" stroke="midnightblue" points="1040.96,-16.24 1050.77,-12.24 1040.6,-9.25 1040.96,-16.24"/>
</g>
<!-- Node21&#45;&gt;Node14 -->
<g id="edge32" class="edge">
<title>Node21&#45;&gt;Node14</title>
<path fill="none" stroke="midnightblue" d="M759.83,-130.91C811.44,-122.63 900.02,-107.04 974.5,-87 977.53,-86.18 980.66,-85.26 983.78,-84.29"/>
<polygon fill="midnightblue" stroke="midnightblue" points="985.17,-87.51 993.57,-81.06 982.98,-80.86 985.17,-87.51"/>
</g>
<!-- Node22 -->
<g id="node22" class="node">
<title>Node22</title>
<g id="a_node22"><a xlink:href="device__qualifier_8hpp.html" target="_top" xlink:title=" ">
<polygon fill="none" stroke="black" points="430.5,-62 430.5,-81 546.5,-81 546.5,-62 430.5,-62"/>
<text text-anchor="middle" x="488.5" y="-69" font-family="Helvetica,sans-Serif" font-size="10.00">device_qualifier.hpp</text>
</a>
</g>
</g>
<!-- Node21&#45;&gt;Node22 -->
<g id="edge22" class="edge">
<title>Node21&#45;&gt;Node22</title>
<path fill="none" stroke="midnightblue" d="M686.22,-128.87C645.57,-117.28 573.25,-96.66 528.25,-83.83"/>
<polygon fill="midnightblue" stroke="midnightblue" points="529.12,-80.44 518.54,-81.06 527.2,-87.17 529.12,-80.44"/>
</g>
<!-- Node21&#45;&gt;Node23 -->
<g id="edge28" class="edge">
<title>Node21&#45;&gt;Node23</title>
<path fill="none" stroke="midnightblue" d="M689.02,-128.83C663.35,-120.14 624.44,-105.42 593.5,-87 574.77,-75.85 573.01,-68.98 555.5,-56 540.87,-45.15 523.82,-33.72 510.58,-25.09"/>
<polygon fill="midnightblue" stroke="midnightblue" points="512.4,-22.1 502.1,-19.61 508.6,-27.98 512.4,-22.1"/>
</g>
<!-- Node24 -->
<g id="node24" class="node">
<title>Node24</title>
<g id="a_node24"><a xlink:href="get_8hpp.html" target="_top" xlink:title=" ">
<polygon fill="none" stroke="black" points="717,-62 717,-81 770,-81 770,-62 717,-62"/>
<text text-anchor="middle" x="743.5" y="-69" font-family="Helvetica,sans-Serif" font-size="10.00">get.hpp</text>
</a>
</g>
</g>
<!-- Node21&#45;&gt;Node24 -->
<g id="edge24" class="edge">
<title>Node21&#45;&gt;Node24</title>
<path fill="none" stroke="midnightblue" d="M720.14,-128.73C724.19,-118.99 730.84,-102.98 736.01,-90.53"/>
<polygon fill="midnightblue" stroke="midnightblue" points="739.31,-91.7 739.92,-81.13 732.85,-89.02 739.31,-91.7"/>
</g>
<!-- Node21&#45;&gt;Node26 -->
<g id="edge30" class="edge">
<title>Node21&#45;&gt;Node26</title>
<path fill="none" stroke="midnightblue" d="M729.72,-128.73C745.95,-117.96 773.72,-99.55 793.03,-86.74"/>
<polygon fill="midnightblue" stroke="midnightblue" points="795.09,-89.57 801.49,-81.13 791.22,-83.74 795.09,-89.57"/>
</g>
<!-- Node27 -->
<g id="node27" class="node">
<title>Node27</title>
<g id="a_node27"><a xlink:title=" ">
<polygon fill="none" stroke="#bfbfbf" points="603,-62 603,-81 660,-81 660,-62 603,-62"/>
<text text-anchor="middle" x="631.5" y="-69" font-family="Helvetica,sans-Serif" font-size="10.00">ostream</text>
</a>
</g>
</g>
<!-- Node21&#45;&gt;Node27 -->
<g id="edge31" class="edge">
<title>Node21&#45;&gt;Node27</title>
<path fill="none" stroke="midnightblue" d="M705.04,-128.73C691.14,-118.11 667.52,-100.05 650.81,-87.26"/>
<polygon fill="midnightblue" stroke="midnightblue" points="652.85,-84.42 642.78,-81.13 648.6,-89.98 652.85,-84.42"/>
</g>
<!-- Node22&#45;&gt;Node23 -->
<g id="edge23" class="edge">
<title>Node22&#45;&gt;Node23</title>
<path fill="none" stroke="midnightblue" d="M488.5,-61.98C488.5,-53.58 488.5,-40.48 488.5,-29.66"/>
<polygon fill="midnightblue" stroke="midnightblue" points="492,-29.51 488.5,-19.51 485,-29.51 492,-29.51"/>
</g>
<!-- Node24&#45;&gt;Node12 -->
<g id="edge25" class="edge">
<title>Node24&#45;&gt;Node12</title>
<path fill="none" stroke="midnightblue" d="M761.73,-61.96C767.04,-59.75 772.92,-57.55 778.5,-56 870.87,-30.33 983.62,-18.38 1040.66,-13.64"/>
<polygon fill="midnightblue" stroke="midnightblue" points="1040.96,-17.13 1050.65,-12.84 1040.4,-10.15 1040.96,-17.13"/>
</g>
<!-- Node24&#45;&gt;Node25 -->
<g id="edge26" class="edge">
<title>Node24&#45;&gt;Node25</title>
<path fill="none" stroke="midnightblue" d="M760.92,-61.92C766.42,-59.59 772.6,-57.34 778.5,-56 934.48,-20.54 1444.02,-12.73 1574.73,-11.29"/>
<polygon fill="midnightblue" stroke="midnightblue" points="1574.87,-14.79 1584.83,-11.18 1574.8,-7.79 1574.87,-14.79"/>
</g>
<!-- Node31&#45;&gt;Node22 -->
<g id="edge44" class="edge">
<title>Node31&#45;&gt;Node22</title>
<path fill="none" stroke="midnightblue" d="M983.9,-196.17C894.4,-190.91 720.77,-177.93 664.5,-154 644.44,-145.47 645.44,-133.78 626.5,-123 596.29,-105.8 559.14,-92.6 531,-84.02"/>
<polygon fill="midnightblue" stroke="midnightblue" points="531.65,-80.56 521.07,-81.07 529.66,-87.27 531.65,-80.56"/>
</g>
<!-- Node32 -->
<g id="node32" class="node">
<title>Node32</title>
<g id="a_node32"><a xlink:title=" ">
<polygon fill="none" stroke="#bfbfbf" points="1075.5,-123.5 1075.5,-153.5 1197.5,-153.5 1197.5,-123.5 1075.5,-123.5"/>
<text text-anchor="start" x="1083.5" y="-141.5" font-family="Helvetica,sans-Serif" font-size="10.00">boost/math/constants</text>
<text text-anchor="middle" x="1136.5" y="-130.5" font-family="Helvetica,sans-Serif" font-size="10.00">/constants.hpp</text>
</a>
</g>
</g>
<!-- Node31&#45;&gt;Node32 -->
<g id="edge45" class="edge">
<title>Node31&#45;&gt;Node32</title>
<path fill="none" stroke="midnightblue" d="M1052.54,-190.48C1066.06,-182.27 1086.99,-169.56 1104.57,-158.88"/>
<polygon fill="midnightblue" stroke="midnightblue" points="1106.67,-161.7 1113.4,-153.52 1103.04,-155.72 1106.67,-161.7"/>
</g>
<!-- Node34 -->
<g id="node34" class="node">
<title>Node34</title>
<g id="a_node34"><a xlink:title=" ">
<polygon fill="none" stroke="#bfbfbf" points="1617.5,-129 1617.5,-148 1679.5,-148 1679.5,-129 1617.5,-129"/>
<text text-anchor="middle" x="1648.5" y="-136" font-family="Helvetica,sans-Serif" font-size="10.00">cinttypes</text>
</a>
</g>
</g>
<!-- Node33&#45;&gt;Node34 -->
<g id="edge47" class="edge">
<title>Node33&#45;&gt;Node34</title>
<path fill="none" stroke="midnightblue" d="M1675.06,-190.48C1670.55,-181.82 1663.43,-168.15 1657.69,-157.15"/>
<polygon fill="midnightblue" stroke="midnightblue" points="1660.66,-155.26 1652.93,-148.01 1654.45,-158.49 1660.66,-155.26"/>
</g>
<!-- Node33&#45;&gt;Node35 -->
<g id="edge48" class="edge">
<title>Node33&#45;&gt;Node35</title>
<path fill="none" stroke="midnightblue" d="M1711.88,-190.48C1754.82,-179.17 1830.16,-159.33 1873.11,-148.03"/>
<polygon fill="midnightblue" stroke="midnightblue" points="1874,-151.41 1882.78,-145.48 1872.21,-144.64 1874,-151.41"/>
</g>
<!-- Node36&#45;&gt;Node13 -->
<g id="edge51" class="edge">
<title>Node36&#45;&gt;Node13</title>
<path fill="none" stroke="midnightblue" d="M1552.07,-190.48C1551.65,-182.08 1550.99,-168.98 1550.44,-158.16"/>
<polygon fill="midnightblue" stroke="midnightblue" points="1553.93,-157.82 1549.93,-148.01 1546.94,-158.17 1553.93,-157.82"/>
</g>
<!-- Node36&#45;&gt;Node34 -->
<g id="edge50" class="edge">
<title>Node36&#45;&gt;Node34</title>
<path fill="none" stroke="midnightblue" d="M1566.25,-190.48C1581.87,-180.8 1607.56,-164.87 1626.08,-153.39"/>
<polygon fill="midnightblue" stroke="midnightblue" points="1628.12,-156.25 1634.77,-148.01 1624.43,-150.3 1628.12,-156.25"/>
</g>
</g>
</svg>
        <g id="navigator" transform="translate(0 0)" fill="#404254">
                <rect fill="#f2f5e9" fill-opacity="0.5" stroke="#606060" stroke-width=".5" x="0" y="0" width="60" height="60"/>
                <use id="zoomplus" xlink:href="#zoomPlus" x="17" y="9" onmousedown="handleZoom(evt,'in')"/>
                <use id="zoomminus" xlink:href="#zoomMin" x="42" y="9" onmousedown="handleZoom(evt,'out')"/>
                <use id="reset" xlink:href="#resetDef" x="30" y="36" onmousedown="handleReset()"/>
                <g id="arrowUp" xlink:href="#dirArrow" transform="translate(30 24)" onmousedown="handlePan(0,-1)">
                  <use xlink:href="#rim" fill="#404040">
                        <set attributeName="fill" to="#808080" begin="arrowUp.mouseover" end="arrowUp.mouseout"/>
                  </use>
                  <path fill="none" stroke="white" stroke-width="1.5" d="M0,-3.0v7 M-2.5,-0.5L0,-3.0L2.5,-0.5"/>
                </g>
                <g id="arrowRight" xlink:href="#dirArrow" transform="rotate(90) translate(36 -43)" onmousedown="handlePan(1,0)">
                  <use xlink:href="#rim" fill="#404040">
                        <set attributeName="fill" to="#808080" begin="arrowRight.mouseover" end="arrowRight.mouseout"/>
                  </use>
                  <path fill="none" stroke="white" stroke-width="1.5" d="M0,-3.0v7 M-2.5,-0.5L0,-3.0L2.5,-0.5"/>
                </g>
                <g id="arrowDown" xlink:href="#dirArrow" transform="rotate(180) translate(-30 -48)" onmousedown="handlePan(0,1)">
                  <use xlink:href="#rim" fill="#404040">
                        <set attributeName="fill" to="#808080" begin="arrowDown.mouseover" end="arrowDown.mouseout"/>
                  </use>
                  <path fill="none" stroke="white" stroke-width="1.5" d="M0,-3.0v7 M-2.5,-0.5L0,-3.0L2.5,-0.5"/>
                </g>
                <g id="arrowLeft" xlink:href="#dirArrow" transform="rotate(270) translate(-36 17)" onmousedown="handlePan(-1,0)">
                  <use xlink:href="#rim" fill="#404040">
                        <set attributeName="fill" to="#808080" begin="arrowLeft.mouseover" end="arrowLeft.mouseout"/>
                  </use>
                  <path fill="none" stroke="white" stroke-width="1.5" d="M0,-3.0v7 M-2.5,-0.5L0,-3.0L2.5,-0.5"/>
                </g>
        </g>
        <svg viewBox="0 0 15 15" width="100%" height="30px" preserveAspectRatio="xMaxYMin meet">
         <g id="arrow_out" transform="scale(0.3 0.3)">
          <a xlink:href="utils_8cpp__incl_org.svg" target="_base">
           <rect id="button" ry="5" rx="5" y="6" x="6" height="38" width="38"
                fill="#f2f5e9" fill-opacity="0.5" stroke="#606060" stroke-width="1.0"/>
           <path id="arrow"
             d="M 11.500037,31.436501 C 11.940474,20.09759 22.043105,11.32322 32.158766,21.979434 L 37.068811,17.246167 C 37.068811,17.246167 37.088388,32 37.088388,32 L 22.160133,31.978069 C 22.160133,31.978069 26.997745,27.140456 26.997745,27.140456 C 18.528582,18.264221 13.291696,25.230495 11.500037,31.436501 z"
             style="fill:#404040;"/>
          </a>
         </g>
        </svg>
</svg>
