<?xml version="1.0" encoding="UTF-8" standalone="no"?>
<!DOCTYPE svg PUBLIC "-//W3C//DTD SVG 1.1//EN"
 "http://www.w3.org/Graphics/SVG/1.1/DTD/svg11.dtd">
<!-- Generated by graphviz version 2.43.0 (0)
 -->
<!-- Title: Variant.hpp Pages: 1 -->
<!--zoomable 274 -->
<svg id="main" version="1.1" xmlns="http://www.w3.org/2000/svg" xmlns:xlink="http://www.w3.org/1999/xlink" xml:space="preserve" onload="init(evt)">
<style type="text/css"><![CDATA[
.edge:hover path { stroke: red; }
.edge:hover polygon { stroke: red; fill: red; }
]]></style>
<script type="text/javascript"><![CDATA[
var edges = document.getElementsByTagName('g');
if (edges && edges.length) {
  for (var i=0;i<edges.length;i++) {
    if (edges[i].id.substr(0,4)=='edge') {
      edges[i].setAttribute('class','edge');
    }
  }
}
]]></script>
        <defs>
                <circle id="rim" cx="0" cy="0" r="7"/>
                <circle id="rim2" cx="0" cy="0" r="3.5"/>
                <g id="zoomPlus">
                        <use xlink:href="#rim" fill="#404040">
                                <set attributeName="fill" to="#808080" begin="zoomplus.mouseover" end="zoomplus.mouseout"/>
                        </use>
                        <path d="M-4,0h8M0,-4v8" fill="none" stroke="white" stroke-width="1.5" pointer-events="none"/>
                </g>
                <g id="zoomMin">
                        <use xlink:href="#rim" fill="#404040">
                                <set attributeName="fill" to="#808080" begin="zoomminus.mouseover" end="zoomminus.mouseout"/>
                        </use>
                        <path d="M-4,0h8" fill="none" stroke="white" stroke-width="1.5" pointer-events="none"/>
                </g>
                <g id="dirArrow">
                        <path fill="none" stroke="white" stroke-width="1.5" d="M0,-3.0v7 M-2.5,-0.5L0,-3.0L2.5,-0.5"/>
                </g>
               <g id="resetDef">
                       <use xlink:href="#rim2" fill="#404040">
                               <set attributeName="fill" to="#808080" begin="reset.mouseover" end="reset.mouseout"/>
                       </use>
               </g>
        </defs>

<script type="text/javascript">
var viewWidth = 2117;
var viewHeight = 274;
var sectionId = 'dynsection-0';
</script>
<script xlink:href="svgpan.js"/>
<svg id="graph" class="graph">
<g id="viewport">
<title>Variant.hpp</title>
<!-- Node1 -->
<g id="node1" class="node">
<title>Node1</title>
<g id="a_node1"><a xlink:title=" ">
<polygon fill="#bfbfbf" stroke="black" points="1192.16,-246.5 1192.16,-265.5 1265.16,-265.5 1265.16,-246.5 1192.16,-246.5"/>
<text text-anchor="middle" x="1228.66" y="-253.5" font-family="Helvetica,sans-Serif" font-size="10.00">Variant.hpp</text>
</a>
</g>
</g>
<!-- Node2 -->
<g id="node2" class="node">
<title>Node2</title>
<g id="a_node2"><a xlink:href="None_8hpp.html" target="_top" xlink:title=" ">
<polygon fill="none" stroke="black" points="19.16,-123.5 19.16,-142.5 82.16,-142.5 82.16,-123.5 19.16,-123.5"/>
<text text-anchor="middle" x="50.66" y="-130.5" font-family="Helvetica,sans-Serif" font-size="10.00">None.hpp</text>
</a>
</g>
</g>
<!-- Node1&#45;&gt;Node2 -->
<g id="edge1" class="edge">
<title>Node1&#45;&gt;Node2</title>
<path fill="none" stroke="midnightblue" d="M1191.82,-252.9C1049.78,-244.47 524.39,-210.29 96.66,-143 95.2,-142.77 93.72,-142.53 92.23,-142.28"/>
<polygon fill="midnightblue" stroke="midnightblue" points="92.74,-138.81 82.28,-140.51 91.51,-145.71 92.74,-138.81"/>
</g>
<!-- Node4 -->
<g id="node4" class="node">
<title>Node4</title>
<g id="a_node4"><a xlink:title=" ">
<polygon fill="none" stroke="#bfbfbf" points="84.16,-0.5 84.16,-19.5 137.16,-19.5 137.16,-0.5 84.16,-0.5"/>
<text text-anchor="middle" x="110.66" y="-7.5" font-family="Helvetica,sans-Serif" font-size="10.00">cstddef</text>
</a>
</g>
</g>
<!-- Node1&#45;&gt;Node4 -->
<g id="edge37" class="edge">
<title>Node1&#45;&gt;Node4</title>
<path fill="none" stroke="midnightblue" d="M1191.85,-254.63C996.52,-252.26 87.26,-236.28 9.66,-143 -25.27,-101.02 46.65,-48.96 86.52,-24.68"/>
<polygon fill="midnightblue" stroke="midnightblue" points="88.38,-27.64 95.19,-19.52 84.81,-21.63 88.38,-27.64"/>
</g>
<!-- Node5 -->
<g id="node5" class="node">
<title>Node5</title>
<g id="a_node5"><a xlink:href="Vector_8hpp.html" target="_top" xlink:title=" ">
<polygon fill="none" stroke="black" points="666.16,-185 666.16,-204 759.16,-204 759.16,-185 666.16,-185"/>
<text text-anchor="middle" x="712.66" y="-192" font-family="Helvetica,sans-Serif" font-size="10.00">utils/Vector.hpp</text>
</a>
</g>
</g>
<!-- Node1&#45;&gt;Node5 -->
<g id="edge4" class="edge">
<title>Node1&#45;&gt;Node5</title>
<path fill="none" stroke="midnightblue" d="M1191.87,-253.05C1114.19,-248.56 927.88,-235.84 773.66,-210 767.67,-209 761.41,-207.74 755.26,-206.4"/>
<polygon fill="midnightblue" stroke="midnightblue" points="755.63,-202.89 745.1,-204.07 754.07,-209.71 755.63,-202.89"/>
</g>
<!-- Node21 -->
<g id="node21" class="node">
<title>Node21</title>
<g id="a_node21"><a xlink:title=" ">
<polygon fill="none" stroke="#bfbfbf" points="1051.16,-123.5 1051.16,-142.5 1120.16,-142.5 1120.16,-123.5 1051.16,-123.5"/>
<text text-anchor="middle" x="1085.66" y="-130.5" font-family="Helvetica,sans-Serif" font-size="10.00">type_traits</text>
</a>
</g>
</g>
<!-- Node1&#45;&gt;Node21 -->
<g id="edge40" class="edge">
<title>Node1&#45;&gt;Node21</title>
<path fill="none" stroke="midnightblue" d="M1192.05,-253.56C1098.68,-249.5 857.33,-236.52 833.66,-210 731.35,-95.37 640.45,-214.52 1036.66,-143 1038.12,-142.74 1039.61,-142.47 1041.11,-142.19"/>
<polygon fill="midnightblue" stroke="midnightblue" points="1041.92,-145.6 1051.13,-140.37 1040.66,-138.72 1041.92,-145.6"/>
</g>
<!-- Node22 -->
<g id="node22" class="node">
<title>Node22</title>
<g id="a_node22"><a xlink:title=" ">
<polygon fill="none" stroke="#bfbfbf" points="1138.16,-123.5 1138.16,-142.5 1185.16,-142.5 1185.16,-123.5 1138.16,-123.5"/>
<text text-anchor="middle" x="1161.66" y="-130.5" font-family="Helvetica,sans-Serif" font-size="10.00">vector</text>
</a>
</g>
</g>
<!-- Node1&#45;&gt;Node22 -->
<g id="edge42" class="edge">
<title>Node1&#45;&gt;Node22</title>
<path fill="none" stroke="midnightblue" d="M1192.07,-253.43C1100.58,-249.13 867.55,-235.73 844.66,-210 835.5,-199.71 835.55,-189.33 844.66,-179 884.98,-133.27 1051.18,-153.62 1127.79,-142.82"/>
<polygon fill="midnightblue" stroke="midnightblue" points="1128.72,-146.21 1137.99,-141.08 1127.54,-139.31 1128.72,-146.21"/>
</g>
<!-- Node23 -->
<g id="node23" class="node">
<title>Node23</title>
<g id="a_node23"><a xlink:title=" ">
<polygon fill="none" stroke="#bfbfbf" points="853.66,-185 853.66,-204 955.66,-204 955.66,-185 853.66,-185"/>
<text text-anchor="middle" x="904.66" y="-192" font-family="Helvetica,sans-Serif" font-size="10.00">boost/variant.hpp</text>
</a>
</g>
</g>
<!-- Node1&#45;&gt;Node23 -->
<g id="edge29" class="edge">
<title>Node1&#45;&gt;Node23</title>
<path fill="none" stroke="midnightblue" d="M1191.93,-249.48C1140.97,-241.64 1045.99,-226.4 965.66,-210 960.19,-208.88 954.47,-207.63 948.81,-206.35"/>
<polygon fill="midnightblue" stroke="midnightblue" points="949.3,-202.87 938.77,-204.02 947.72,-209.69 949.3,-202.87"/>
</g>
<!-- Node24 -->
<g id="node24" class="node">
<title>Node24</title>
<g id="a_node24"><a xlink:title=" ">
<polygon fill="none" stroke="#bfbfbf" points="974.16,-179.5 974.16,-209.5 1081.16,-209.5 1081.16,-179.5 974.16,-179.5"/>
<text text-anchor="start" x="982.16" y="-197.5" font-family="Helvetica,sans-Serif" font-size="10.00">boost/serialization</text>
<text text-anchor="middle" x="1027.66" y="-186.5" font-family="Helvetica,sans-Serif" font-size="10.00">/version.hpp</text>
</a>
</g>
</g>
<!-- Node1&#45;&gt;Node24 -->
<g id="edge30" class="edge">
<title>Node1&#45;&gt;Node24</title>
<path fill="none" stroke="midnightblue" d="M1199.86,-246.48C1169.97,-237.63 1122.41,-223.55 1084.84,-212.43"/>
<polygon fill="midnightblue" stroke="midnightblue" points="1085.61,-209.01 1075.03,-209.52 1083.63,-215.72 1085.61,-209.01"/>
</g>
<!-- Node25 -->
<g id="node25" class="node">
<title>Node25</title>
<g id="a_node25"><a xlink:title=" ">
<polygon fill="none" stroke="#bfbfbf" points="1099.16,-179.5 1099.16,-209.5 1224.16,-209.5 1224.16,-179.5 1099.16,-179.5"/>
<text text-anchor="start" x="1107.16" y="-197.5" font-family="Helvetica,sans-Serif" font-size="10.00">boost/range/algorithm</text>
<text text-anchor="middle" x="1161.66" y="-186.5" font-family="Helvetica,sans-Serif" font-size="10.00">/transform.hpp</text>
</a>
</g>
</g>
<!-- Node1&#45;&gt;Node25 -->
<g id="edge31" class="edge">
<title>Node1&#45;&gt;Node25</title>
<path fill="none" stroke="midnightblue" d="M1219.06,-246.48C1210.24,-238.64 1196.81,-226.71 1185.15,-216.37"/>
<polygon fill="midnightblue" stroke="midnightblue" points="1187.25,-213.55 1177.45,-209.52 1182.6,-218.78 1187.25,-213.55"/>
</g>
<!-- Node26 -->
<g id="node26" class="node">
<title>Node26</title>
<g id="a_node26"><a xlink:title=" ">
<polygon fill="none" stroke="#bfbfbf" points="1242.16,-179.5 1242.16,-209.5 1349.16,-209.5 1349.16,-179.5 1242.16,-179.5"/>
<text text-anchor="start" x="1250.16" y="-197.5" font-family="Helvetica,sans-Serif" font-size="10.00">boost/serialization</text>
<text text-anchor="middle" x="1295.66" y="-186.5" font-family="Helvetica,sans-Serif" font-size="10.00">/serialization.hpp</text>
</a>
</g>
</g>
<!-- Node1&#45;&gt;Node26 -->
<g id="edge32" class="edge">
<title>Node1&#45;&gt;Node26</title>
<path fill="none" stroke="midnightblue" d="M1238.26,-246.48C1247.08,-238.64 1260.51,-226.71 1272.16,-216.37"/>
<polygon fill="midnightblue" stroke="midnightblue" points="1274.71,-218.78 1279.87,-209.52 1270.07,-213.55 1274.71,-218.78"/>
</g>
<!-- Node27 -->
<g id="node27" class="node">
<title>Node27</title>
<g id="a_node27"><a xlink:title=" ">
<polygon fill="none" stroke="#bfbfbf" points="1367.16,-179.5 1367.16,-209.5 1474.16,-209.5 1474.16,-179.5 1367.16,-179.5"/>
<text text-anchor="start" x="1375.16" y="-197.5" font-family="Helvetica,sans-Serif" font-size="10.00">boost/serialization</text>
<text text-anchor="middle" x="1420.66" y="-186.5" font-family="Helvetica,sans-Serif" font-size="10.00">/string.hpp</text>
</a>
</g>
</g>
<!-- Node1&#45;&gt;Node27 -->
<g id="edge33" class="edge">
<title>Node1&#45;&gt;Node27</title>
<path fill="none" stroke="midnightblue" d="M1256.17,-246.48C1284.6,-237.66 1329.76,-223.67 1365.58,-212.57"/>
<polygon fill="midnightblue" stroke="midnightblue" points="1366.89,-215.83 1375.41,-209.52 1364.82,-209.14 1366.89,-215.83"/>
</g>
<!-- Node28 -->
<g id="node28" class="node">
<title>Node28</title>
<g id="a_node28"><a xlink:title=" ">
<polygon fill="none" stroke="#bfbfbf" points="1492.16,-179.5 1492.16,-209.5 1609.16,-209.5 1609.16,-179.5 1492.16,-179.5"/>
<text text-anchor="start" x="1500.16" y="-197.5" font-family="Helvetica,sans-Serif" font-size="10.00">boost/serialization</text>
<text text-anchor="middle" x="1550.66" y="-186.5" font-family="Helvetica,sans-Serif" font-size="10.00">/unordered_map.hpp</text>
</a>
</g>
</g>
<!-- Node1&#45;&gt;Node28 -->
<g id="edge34" class="edge">
<title>Node1&#45;&gt;Node28</title>
<path fill="none" stroke="midnightblue" d="M1265.48,-248.96C1313.19,-241.03 1399.19,-226.4 1481.8,-210.33"/>
<polygon fill="midnightblue" stroke="midnightblue" points="1482.72,-213.71 1491.86,-208.36 1481.37,-206.84 1482.72,-213.71"/>
</g>
<!-- Node29 -->
<g id="node29" class="node">
<title>Node29</title>
<g id="a_node29"><a xlink:title=" ">
<polygon fill="none" stroke="#bfbfbf" points="1627.16,-179.5 1627.16,-209.5 1734.16,-209.5 1734.16,-179.5 1627.16,-179.5"/>
<text text-anchor="start" x="1635.16" y="-197.5" font-family="Helvetica,sans-Serif" font-size="10.00">boost/serialization</text>
<text text-anchor="middle" x="1680.66" y="-186.5" font-family="Helvetica,sans-Serif" font-size="10.00">/variant.hpp</text>
</a>
</g>
</g>
<!-- Node1&#45;&gt;Node29 -->
<g id="edge35" class="edge">
<title>Node1&#45;&gt;Node29</title>
<path fill="none" stroke="midnightblue" d="M1265.42,-252.18C1333.13,-246.67 1482.22,-233.12 1616.89,-210.19"/>
<polygon fill="midnightblue" stroke="midnightblue" points="1617.71,-213.6 1626.97,-208.45 1616.52,-206.71 1617.71,-213.6"/>
</g>
<!-- Node30 -->
<g id="node30" class="node">
<title>Node30</title>
<g id="a_node30"><a xlink:title=" ">
<polygon fill="none" stroke="#bfbfbf" points="1752.16,-179.5 1752.16,-209.5 1859.16,-209.5 1859.16,-179.5 1752.16,-179.5"/>
<text text-anchor="start" x="1760.16" y="-197.5" font-family="Helvetica,sans-Serif" font-size="10.00">boost/serialization</text>
<text text-anchor="middle" x="1805.66" y="-186.5" font-family="Helvetica,sans-Serif" font-size="10.00">/vector.hpp</text>
</a>
</g>
</g>
<!-- Node1&#45;&gt;Node30 -->
<g id="edge36" class="edge">
<title>Node1&#45;&gt;Node30</title>
<path fill="none" stroke="midnightblue" d="M1265.41,-253.59C1348.64,-250.01 1557.99,-238.84 1741.86,-210.15"/>
<polygon fill="midnightblue" stroke="midnightblue" points="1742.65,-213.57 1751.98,-208.55 1741.56,-206.65 1742.65,-213.57"/>
</g>
<!-- Node31 -->
<g id="node31" class="node">
<title>Node31</title>
<g id="a_node31"><a xlink:title=" ">
<polygon fill="none" stroke="#bfbfbf" points="1877.66,-185 1877.66,-204 1935.66,-204 1935.66,-185 1877.66,-185"/>
<text text-anchor="middle" x="1906.66" y="-192" font-family="Helvetica,sans-Serif" font-size="10.00">memory</text>
</a>
</g>
</g>
<!-- Node1&#45;&gt;Node31 -->
<g id="edge38" class="edge">
<title>Node1&#45;&gt;Node31</title>
<path fill="none" stroke="midnightblue" d="M1265.29,-253.84C1383.25,-249.88 1752.28,-235.7 1868.66,-210 1871.73,-209.32 1874.89,-208.44 1878,-207.45"/>
<polygon fill="midnightblue" stroke="midnightblue" points="1879.42,-210.66 1887.66,-204 1877.07,-204.06 1879.42,-210.66"/>
</g>
<!-- Node32 -->
<g id="node32" class="node">
<title>Node32</title>
<g id="a_node32"><a xlink:title=" ">
<polygon fill="none" stroke="#bfbfbf" points="1953.66,-185 1953.66,-204 1997.66,-204 1997.66,-185 1953.66,-185"/>
<text text-anchor="middle" x="1975.66" y="-192" font-family="Helvetica,sans-Serif" font-size="10.00">string</text>
</a>
</g>
</g>
<!-- Node1&#45;&gt;Node32 -->
<g id="edge39" class="edge">
<title>Node1&#45;&gt;Node32</title>
<path fill="none" stroke="midnightblue" d="M1265.21,-254.5C1392.25,-252.48 1814.03,-243.37 1944.66,-210 1946.64,-209.49 1948.66,-208.86 1950.66,-208.14"/>
<polygon fill="midnightblue" stroke="midnightblue" points="1952.46,-211.18 1960.31,-204.06 1949.74,-204.73 1952.46,-211.18"/>
</g>
<!-- Node33 -->
<g id="node33" class="node">
<title>Node33</title>
<g id="a_node33"><a xlink:title=" ">
<polygon fill="none" stroke="#bfbfbf" points="2016.16,-185 2016.16,-204 2109.16,-204 2109.16,-185 2016.16,-185"/>
<text text-anchor="middle" x="2062.66" y="-192" font-family="Helvetica,sans-Serif" font-size="10.00">unordered_map</text>
</a>
</g>
</g>
<!-- Node1&#45;&gt;Node33 -->
<g id="edge41" class="edge">
<title>Node1&#45;&gt;Node33</title>
<path fill="none" stroke="midnightblue" d="M1265.38,-255.41C1377.35,-256.13 1723.96,-254.34 2006.66,-210 2012.44,-209.09 2018.5,-207.85 2024.4,-206.46"/>
<polygon fill="midnightblue" stroke="midnightblue" points="2025.25,-209.86 2034.11,-204.04 2023.56,-203.07 2025.25,-209.86"/>
</g>
<!-- Node3 -->
<g id="node3" class="node">
<title>Node3</title>
<g id="a_node3"><a xlink:title=" ">
<polygon fill="none" stroke="#bfbfbf" points="175.16,-56.5 175.16,-86.5 282.16,-86.5 282.16,-56.5 175.16,-56.5"/>
<text text-anchor="start" x="183.16" y="-74.5" font-family="Helvetica,sans-Serif" font-size="10.00">boost/serialization</text>
<text text-anchor="middle" x="228.66" y="-63.5" font-family="Helvetica,sans-Serif" font-size="10.00">/access.hpp</text>
</a>
</g>
</g>
<!-- Node2&#45;&gt;Node3 -->
<g id="edge2" class="edge">
<title>Node2&#45;&gt;Node3</title>
<path fill="none" stroke="midnightblue" d="M76.16,-123.48C102.41,-114.7 144.03,-100.79 177.17,-89.71"/>
<polygon fill="midnightblue" stroke="midnightblue" points="178.33,-93.01 186.71,-86.52 176.11,-86.37 178.33,-93.01"/>
</g>
<!-- Node2&#45;&gt;Node4 -->
<g id="edge3" class="edge">
<title>Node2&#45;&gt;Node4</title>
<path fill="none" stroke="midnightblue" d="M54.97,-123.3C64.75,-103.59 88.74,-55.21 101.81,-28.84"/>
<polygon fill="midnightblue" stroke="midnightblue" points="105.08,-30.14 106.38,-19.62 98.8,-27.03 105.08,-30.14"/>
</g>
<!-- Node5&#45;&gt;Node4 -->
<g id="edge22" class="edge">
<title>Node5&#45;&gt;Node4</title>
<path fill="none" stroke="midnightblue" d="M665.85,-190.22C529.14,-180.54 139.4,-152.2 129.66,-143 98.76,-113.8 102.41,-58.58 106.95,-29.68"/>
<polygon fill="midnightblue" stroke="midnightblue" points="110.42,-30.15 108.72,-19.69 103.53,-28.93 110.42,-30.15"/>
</g>
<!-- Node6 -->
<g id="node6" class="node">
<title>Node6</title>
<g id="a_node6"><a xlink:title=" ">
<polygon fill="none" stroke="#bfbfbf" points="138.66,-123.5 138.66,-142.5 288.66,-142.5 288.66,-123.5 138.66,-123.5"/>
<text text-anchor="middle" x="213.66" y="-130.5" font-family="Helvetica,sans-Serif" font-size="10.00">boost/qvm/deduce_vec.hpp</text>
</a>
</g>
</g>
<!-- Node5&#45;&gt;Node6 -->
<g id="edge5" class="edge">
<title>Node5&#45;&gt;Node6</title>
<path fill="none" stroke="midnightblue" d="M665.71,-187.9C580.75,-177.77 400.52,-156.28 295.1,-143.71"/>
<polygon fill="midnightblue" stroke="midnightblue" points="295.48,-140.23 285.14,-142.52 294.65,-147.18 295.48,-140.23"/>
</g>
<!-- Node7 -->
<g id="node7" class="node">
<title>Node7</title>
<g id="a_node7"><a xlink:title=" ">
<polygon fill="none" stroke="#bfbfbf" points="306.66,-123.5 306.66,-142.5 446.66,-142.5 446.66,-123.5 306.66,-123.5"/>
<text text-anchor="middle" x="376.66" y="-130.5" font-family="Helvetica,sans-Serif" font-size="10.00">boost/qvm/vec_traits.hpp</text>
</a>
</g>
</g>
<!-- Node5&#45;&gt;Node7 -->
<g id="edge6" class="edge">
<title>Node5&#45;&gt;Node7</title>
<path fill="none" stroke="midnightblue" d="M665.94,-185.23C605.6,-174.54 500.58,-155.94 435.05,-144.34"/>
<polygon fill="midnightblue" stroke="midnightblue" points="435.34,-140.84 424.88,-142.54 434.12,-147.73 435.34,-140.84"/>
</g>
<!-- Node8 -->
<g id="node8" class="node">
<title>Node8</title>
<g id="a_node8"><a xlink:href="Array_8hpp.html" target="_top" xlink:title=" ">
<polygon fill="none" stroke="black" points="502.66,-123.5 502.66,-142.5 588.66,-142.5 588.66,-123.5 502.66,-123.5"/>
<text text-anchor="middle" x="545.66" y="-130.5" font-family="Helvetica,sans-Serif" font-size="10.00">utils/Array.hpp</text>
</a>
</g>
</g>
<!-- Node5&#45;&gt;Node8 -->
<g id="edge7" class="edge">
<title>Node5&#45;&gt;Node8</title>
<path fill="none" stroke="midnightblue" d="M688.73,-184.98C659.96,-174.72 611.5,-157.46 579.06,-145.9"/>
<polygon fill="midnightblue" stroke="midnightblue" points="580.14,-142.57 569.54,-142.51 577.79,-149.16 580.14,-142.57"/>
</g>
<!-- Node10 -->
<g id="node10" class="node">
<title>Node10</title>
<g id="a_node10"><a xlink:title=" ">
<polygon fill="none" stroke="#bfbfbf" points="745.66,-0.5 745.66,-19.5 797.66,-19.5 797.66,-0.5 745.66,-0.5"/>
<text text-anchor="middle" x="771.66" y="-7.5" font-family="Helvetica,sans-Serif" font-size="10.00">cassert</text>
</a>
</g>
</g>
<!-- Node5&#45;&gt;Node10 -->
<g id="edge20" class="edge">
<title>Node5&#45;&gt;Node10</title>
<path fill="none" stroke="midnightblue" d="M759.22,-185.61C841.17,-171.71 1002.67,-144.17 1003.66,-143 1063.55,-71.82 886.87,-31.11 807.8,-16.85"/>
<polygon fill="midnightblue" stroke="midnightblue" points="808.22,-13.37 797.77,-15.09 807.01,-20.26 808.22,-13.37"/>
</g>
<!-- Node13 -->
<g id="node13" class="node">
<title>Node13</title>
<g id="a_node13"><a xlink:title=" ">
<polygon fill="none" stroke="#bfbfbf" points="336.16,-62 336.16,-81 389.16,-81 389.16,-62 336.16,-62"/>
<text text-anchor="middle" x="362.66" y="-69" font-family="Helvetica,sans-Serif" font-size="10.00">iterator</text>
</a>
</g>
</g>
<!-- Node5&#45;&gt;Node13 -->
<g id="edge25" class="edge">
<title>Node5&#45;&gt;Node13</title>
<path fill="none" stroke="midnightblue" d="M665.89,-186.44C620.81,-178.78 551.17,-164.66 493.66,-143 490.89,-141.96 425.04,-106.33 387.78,-86.13"/>
<polygon fill="midnightblue" stroke="midnightblue" points="389,-82.81 378.54,-81.12 385.67,-88.96 389,-82.81"/>
</g>
<!-- Node16 -->
<g id="node16" class="node">
<title>Node16</title>
<g id="a_node16"><a xlink:title=" ">
<polygon fill="none" stroke="#bfbfbf" points="606.66,-123.5 606.66,-142.5 670.66,-142.5 670.66,-123.5 606.66,-123.5"/>
<text text-anchor="middle" x="638.66" y="-130.5" font-family="Helvetica,sans-Serif" font-size="10.00">algorithm</text>
</a>
</g>
</g>
<!-- Node5&#45;&gt;Node16 -->
<g id="edge19" class="edge">
<title>Node5&#45;&gt;Node16</title>
<path fill="none" stroke="midnightblue" d="M702.06,-184.98C690.41,-175.61 671.47,-160.38 657.32,-149.01"/>
<polygon fill="midnightblue" stroke="midnightblue" points="659.23,-146.05 649.24,-142.51 654.84,-151.5 659.23,-146.05"/>
</g>
<!-- Node17 -->
<g id="node17" class="node">
<title>Node17</title>
<g id="a_node17"><a xlink:title=" ">
<polygon fill="none" stroke="#bfbfbf" points="689.16,-123.5 689.16,-142.5 736.16,-142.5 736.16,-123.5 689.16,-123.5"/>
<text text-anchor="middle" x="712.66" y="-130.5" font-family="Helvetica,sans-Serif" font-size="10.00">cmath</text>
</a>
</g>
</g>
<!-- Node5&#45;&gt;Node17 -->
<g id="edge21" class="edge">
<title>Node5&#45;&gt;Node17</title>
<path fill="none" stroke="midnightblue" d="M712.66,-184.98C712.66,-176.58 712.66,-163.48 712.66,-152.66"/>
<polygon fill="midnightblue" stroke="midnightblue" points="716.16,-152.51 712.66,-142.51 709.16,-152.51 716.16,-152.51"/>
</g>
<!-- Node18 -->
<g id="node18" class="node">
<title>Node18</title>
<g id="a_node18"><a xlink:title=" ">
<polygon fill="none" stroke="#bfbfbf" points="754.16,-123.5 754.16,-142.5 819.16,-142.5 819.16,-123.5 754.16,-123.5"/>
<text text-anchor="middle" x="786.66" y="-130.5" font-family="Helvetica,sans-Serif" font-size="10.00">functional</text>
</a>
</g>
</g>
<!-- Node5&#45;&gt;Node18 -->
<g id="edge23" class="edge">
<title>Node5&#45;&gt;Node18</title>
<path fill="none" stroke="midnightblue" d="M723.26,-184.98C734.91,-175.61 753.84,-160.38 767.99,-149.01"/>
<polygon fill="midnightblue" stroke="midnightblue" points="770.48,-151.5 776.08,-142.51 766.09,-146.05 770.48,-151.5"/>
</g>
<!-- Node19 -->
<g id="node19" class="node">
<title>Node19</title>
<g id="a_node19"><a xlink:title=" ">
<polygon fill="none" stroke="#bfbfbf" points="837.16,-123.5 837.16,-142.5 920.16,-142.5 920.16,-123.5 837.16,-123.5"/>
<text text-anchor="middle" x="878.66" y="-130.5" font-family="Helvetica,sans-Serif" font-size="10.00">initializer_list</text>
</a>
</g>
</g>
<!-- Node5&#45;&gt;Node19 -->
<g id="edge24" class="edge">
<title>Node5&#45;&gt;Node19</title>
<path fill="none" stroke="midnightblue" d="M736.44,-184.98C765.04,-174.72 813.21,-157.46 845.46,-145.9"/>
<polygon fill="midnightblue" stroke="midnightblue" points="846.69,-149.18 854.92,-142.51 844.32,-142.59 846.69,-149.18"/>
</g>
<!-- Node20 -->
<g id="node20" class="node">
<title>Node20</title>
<g id="a_node20"><a xlink:title=" ">
<polygon fill="none" stroke="#bfbfbf" points="938.66,-123.5 938.66,-142.5 994.66,-142.5 994.66,-123.5 938.66,-123.5"/>
<text text-anchor="middle" x="966.66" y="-130.5" font-family="Helvetica,sans-Serif" font-size="10.00">numeric</text>
</a>
</g>
</g>
<!-- Node5&#45;&gt;Node20 -->
<g id="edge26" class="edge">
<title>Node5&#45;&gt;Node20</title>
<path fill="none" stroke="midnightblue" d="M748.45,-184.95C756.73,-182.98 765.5,-180.91 773.66,-179 839.83,-163.5 858.75,-159.74 928.23,-143.32"/>
<polygon fill="midnightblue" stroke="midnightblue" points="929.46,-146.62 938.38,-140.91 927.85,-139.81 929.46,-146.62"/>
</g>
<!-- Node5&#45;&gt;Node21 -->
<g id="edge27" class="edge">
<title>Node5&#45;&gt;Node21</title>
<path fill="none" stroke="midnightblue" d="M746.09,-184.93C755.01,-182.82 764.67,-180.68 773.66,-179 889.63,-157.33 920.16,-161.66 1036.66,-143 1037.96,-142.79 1039.27,-142.58 1040.6,-142.36"/>
<polygon fill="midnightblue" stroke="midnightblue" points="1041.63,-145.73 1050.89,-140.59 1040.45,-138.83 1041.63,-145.73"/>
</g>
<!-- Node5&#45;&gt;Node22 -->
<g id="edge28" class="edge">
<title>Node5&#45;&gt;Node22</title>
<path fill="none" stroke="midnightblue" d="M759.2,-186.36C775.75,-183.91 794.52,-181.22 811.66,-179 949.41,-161.12 988.27,-169.91 1127.77,-143.11"/>
<polygon fill="midnightblue" stroke="midnightblue" points="1128.85,-146.46 1138,-141.11 1127.51,-139.59 1128.85,-146.46"/>
</g>
<!-- Node8&#45;&gt;Node3 -->
<g id="edge13" class="edge">
<title>Node8&#45;&gt;Node3</title>
<path fill="none" stroke="midnightblue" d="M502.58,-123.91C448.38,-113.74 354.85,-96.19 292.37,-84.46"/>
<polygon fill="midnightblue" stroke="midnightblue" points="292.71,-80.96 282.24,-82.56 291.42,-87.84 292.71,-80.96"/>
</g>
<!-- Node8&#45;&gt;Node4 -->
<g id="edge15" class="edge">
<title>Node8&#45;&gt;Node4</title>
<path fill="none" stroke="midnightblue" d="M519.88,-123.44C497.41,-115.48 464.34,-102.53 437.66,-87 418.22,-75.69 418.31,-64.91 397.66,-56 313.26,-19.58 203.57,-12.21 147.38,-10.98"/>
<polygon fill="midnightblue" stroke="midnightblue" points="147.25,-7.48 137.2,-10.82 147.14,-14.48 147.25,-7.48"/>
</g>
<!-- Node9 -->
<g id="node9" class="node">
<title>Node9</title>
<g id="a_node9"><a xlink:href="device__qualifier_8hpp.html" target="_top" xlink:title=" ">
<polygon fill="none" stroke="black" points="713.66,-62 713.66,-81 829.66,-81 829.66,-62 713.66,-62"/>
<text text-anchor="middle" x="771.66" y="-69" font-family="Helvetica,sans-Serif" font-size="10.00">device_qualifier.hpp</text>
</a>
</g>
</g>
<!-- Node8&#45;&gt;Node9 -->
<g id="edge8" class="edge">
<title>Node8&#45;&gt;Node9</title>
<path fill="none" stroke="midnightblue" d="M578.04,-123.48C617.9,-112.98 685.68,-95.14 729.55,-83.59"/>
<polygon fill="midnightblue" stroke="midnightblue" points="730.56,-86.94 739.34,-81.01 728.78,-80.17 730.56,-86.94"/>
</g>
<!-- Node8&#45;&gt;Node10 -->
<g id="edge14" class="edge">
<title>Node8&#45;&gt;Node10</title>
<path fill="none" stroke="midnightblue" d="M576.98,-123.46C602.17,-115.87 637.97,-103.43 666.66,-87 685.57,-76.17 687.15,-68.98 704.66,-56 719.29,-45.15 736.34,-33.72 749.58,-25.09"/>
<polygon fill="midnightblue" stroke="midnightblue" points="751.56,-27.98 758.06,-19.61 747.76,-22.1 751.56,-27.98"/>
</g>
<!-- Node11 -->
<g id="node11" class="node">
<title>Node11</title>
<g id="a_node11"><a xlink:href="get_8hpp.html" target="_top" xlink:title=" ">
<polygon fill="none" stroke="black" points="446.16,-62 446.16,-81 499.16,-81 499.16,-62 446.16,-62"/>
<text text-anchor="middle" x="472.66" y="-69" font-family="Helvetica,sans-Serif" font-size="10.00">get.hpp</text>
</a>
</g>
</g>
<!-- Node8&#45;&gt;Node11 -->
<g id="edge10" class="edge">
<title>Node8&#45;&gt;Node11</title>
<path fill="none" stroke="midnightblue" d="M535.2,-123.48C523.71,-114.11 505.03,-98.88 491.07,-87.51"/>
<polygon fill="midnightblue" stroke="midnightblue" points="493.06,-84.61 483.1,-81.01 488.64,-90.04 493.06,-84.61"/>
</g>
<!-- Node8&#45;&gt;Node13 -->
<g id="edge16" class="edge">
<title>Node8&#45;&gt;Node13</title>
<path fill="none" stroke="midnightblue" d="M517.82,-123.47C489.12,-114.62 443.14,-100.23 403.66,-87 401.22,-86.18 398.7,-85.32 396.16,-84.45"/>
<polygon fill="midnightblue" stroke="midnightblue" points="397.06,-81.06 386.46,-81.07 394.75,-87.67 397.06,-81.06"/>
</g>
<!-- Node14 -->
<g id="node14" class="node">
<title>Node14</title>
<g id="a_node14"><a xlink:title=" ">
<polygon fill="none" stroke="#bfbfbf" points="517.16,-62 517.16,-81 574.16,-81 574.16,-62 517.16,-62"/>
<text text-anchor="middle" x="545.66" y="-69" font-family="Helvetica,sans-Serif" font-size="10.00">ostream</text>
</a>
</g>
</g>
<!-- Node8&#45;&gt;Node14 -->
<g id="edge17" class="edge">
<title>Node8&#45;&gt;Node14</title>
<path fill="none" stroke="midnightblue" d="M545.66,-123.48C545.66,-115.08 545.66,-101.98 545.66,-91.16"/>
<polygon fill="midnightblue" stroke="midnightblue" points="549.16,-91.01 545.66,-81.01 542.16,-91.01 549.16,-91.01"/>
</g>
<!-- Node15 -->
<g id="node15" class="node">
<title>Node15</title>
<g id="a_node15"><a xlink:title=" ">
<polygon fill="none" stroke="#bfbfbf" points="592.16,-62 592.16,-81 657.16,-81 657.16,-62 592.16,-62"/>
<text text-anchor="middle" x="624.66" y="-69" font-family="Helvetica,sans-Serif" font-size="10.00">stdexcept</text>
</a>
</g>
</g>
<!-- Node8&#45;&gt;Node15 -->
<g id="edge18" class="edge">
<title>Node8&#45;&gt;Node15</title>
<path fill="none" stroke="midnightblue" d="M556.98,-123.48C569.53,-114.02 590.01,-98.6 605.16,-87.19"/>
<polygon fill="midnightblue" stroke="midnightblue" points="607.48,-89.82 613.36,-81.01 603.27,-84.23 607.48,-89.82"/>
</g>
<!-- Node9&#45;&gt;Node10 -->
<g id="edge9" class="edge">
<title>Node9&#45;&gt;Node10</title>
<path fill="none" stroke="midnightblue" d="M771.66,-61.98C771.66,-53.58 771.66,-40.48 771.66,-29.66"/>
<polygon fill="midnightblue" stroke="midnightblue" points="775.16,-29.51 771.66,-19.51 768.16,-29.51 775.16,-29.51"/>
</g>
<!-- Node11&#45;&gt;Node4 -->
<g id="edge11" class="edge">
<title>Node11&#45;&gt;Node4</title>
<path fill="none" stroke="midnightblue" d="M451.2,-62C444.97,-59.78 438.11,-57.58 431.66,-56 330.32,-31.24 207.43,-18.75 147.34,-13.73"/>
<polygon fill="midnightblue" stroke="midnightblue" points="147.46,-10.23 137.21,-12.91 146.89,-17.21 147.46,-10.23"/>
</g>
<!-- Node12 -->
<g id="node12" class="node">
<title>Node12</title>
<g id="a_node12"><a xlink:title=" ">
<polygon fill="none" stroke="#bfbfbf" points="452.16,-0.5 452.16,-19.5 493.16,-19.5 493.16,-0.5 452.16,-0.5"/>
<text text-anchor="middle" x="472.66" y="-7.5" font-family="Helvetica,sans-Serif" font-size="10.00">tuple</text>
</a>
</g>
</g>
<!-- Node11&#45;&gt;Node12 -->
<g id="edge12" class="edge">
<title>Node11&#45;&gt;Node12</title>
<path fill="none" stroke="midnightblue" d="M472.66,-61.98C472.66,-53.58 472.66,-40.48 472.66,-29.66"/>
<polygon fill="midnightblue" stroke="midnightblue" points="476.16,-29.51 472.66,-19.51 469.16,-29.51 476.16,-29.51"/>
</g>
</g>
</svg>
        <g id="navigator" transform="translate(0 0)" fill="#404254">
                <rect fill="#f2f5e9" fill-opacity="0.5" stroke="#606060" stroke-width=".5" x="0" y="0" width="60" height="60"/>
                <use id="zoomplus" xlink:href="#zoomPlus" x="17" y="9" onmousedown="handleZoom(evt,'in')"/>
                <use id="zoomminus" xlink:href="#zoomMin" x="42" y="9" onmousedown="handleZoom(evt,'out')"/>
                <use id="reset" xlink:href="#resetDef" x="30" y="36" onmousedown="handleReset()"/>
                <g id="arrowUp" xlink:href="#dirArrow" transform="translate(30 24)" onmousedown="handlePan(0,-1)">
                  <use xlink:href="#rim" fill="#404040">
                        <set attributeName="fill" to="#808080" begin="arrowUp.mouseover" end="arrowUp.mouseout"/>
                  </use>
                  <path fill="none" stroke="white" stroke-width="1.5" d="M0,-3.0v7 M-2.5,-0.5L0,-3.0L2.5,-0.5"/>
                </g>
                <g id="arrowRight" xlink:href="#dirArrow" transform="rotate(90) translate(36 -43)" onmousedown="handlePan(1,0)">
                  <use xlink:href="#rim" fill="#404040">
                        <set attributeName="fill" to="#808080" begin="arrowRight.mouseover" end="arrowRight.mouseout"/>
                  </use>
                  <path fill="none" stroke="white" stroke-width="1.5" d="M0,-3.0v7 M-2.5,-0.5L0,-3.0L2.5,-0.5"/>
                </g>
                <g id="arrowDown" xlink:href="#dirArrow" transform="rotate(180) translate(-30 -48)" onmousedown="handlePan(0,1)">
                  <use xlink:href="#rim" fill="#404040">
                        <set attributeName="fill" to="#808080" begin="arrowDown.mouseover" end="arrowDown.mouseout"/>
                  </use>
                  <path fill="none" stroke="white" stroke-width="1.5" d="M0,-3.0v7 M-2.5,-0.5L0,-3.0L2.5,-0.5"/>
                </g>
                <g id="arrowLeft" xlink:href="#dirArrow" transform="rotate(270) translate(-36 17)" onmousedown="handlePan(-1,0)">
                  <use xlink:href="#rim" fill="#404040">
                        <set attributeName="fill" to="#808080" begin="arrowLeft.mouseover" end="arrowLeft.mouseout"/>
                  </use>
                  <path fill="none" stroke="white" stroke-width="1.5" d="M0,-3.0v7 M-2.5,-0.5L0,-3.0L2.5,-0.5"/>
                </g>
        </g>
        <svg viewBox="0 0 15 15" width="100%" height="30px" preserveAspectRatio="xMaxYMin meet">
         <g id="arrow_out" transform="scale(0.3 0.3)">
          <a xlink:href="Variant_8hpp__incl_org.svg" target="_base">
           <rect id="button" ry="5" rx="5" y="6" x="6" height="38" width="38"
                fill="#f2f5e9" fill-opacity="0.5" stroke="#606060" stroke-width="1.0"/>
           <path id="arrow"
             d="M 11.500037,31.436501 C 11.940474,20.09759 22.043105,11.32322 32.158766,21.979434 L 37.068811,17.246167 C 37.068811,17.246167 37.088388,32 37.088388,32 L 22.160133,31.978069 C 22.160133,31.978069 26.997745,27.140456 26.997745,27.140456 C 18.528582,18.264221 13.291696,25.230495 11.500037,31.436501 z"
             style="fill:#404040;"/>
          </a>
         </g>
        </svg>
</svg>
