<?xml version="1.0" encoding="UTF-8" standalone="no"?>
<!DOCTYPE svg PUBLIC "-//W3C//DTD SVG 1.1//EN"
 "http://www.w3.org/Graphics/SVG/1.1/DTD/svg11.dtd">
<!-- Generated by graphviz version 2.43.0 (0)
 -->
<!-- Title: vec_rotate.hpp Pages: 1 -->
<!--zoomable 386 -->
<svg id="main" version="1.1" xmlns="http://www.w3.org/2000/svg" xmlns:xlink="http://www.w3.org/1999/xlink" xml:space="preserve" onload="init(evt)">
<style type="text/css"><![CDATA[
.edge:hover path { stroke: red; }
.edge:hover polygon { stroke: red; fill: red; }
]]></style>
<script type="text/javascript"><![CDATA[
var edges = document.getElementsByTagName('g');
if (edges && edges.length) {
  for (var i=0;i<edges.length;i++) {
    if (edges[i].id.substr(0,4)=='edge') {
      edges[i].setAttribute('class','edge');
    }
  }
}
]]></script>
        <defs>
                <circle id="rim" cx="0" cy="0" r="7"/>
                <circle id="rim2" cx="0" cy="0" r="3.5"/>
                <g id="zoomPlus">
                        <use xlink:href="#rim" fill="#404040">
                                <set attributeName="fill" to="#808080" begin="zoomplus.mouseover" end="zoomplus.mouseout"/>
                        </use>
                        <path d="M-4,0h8M0,-4v8" fill="none" stroke="white" stroke-width="1.5" pointer-events="none"/>
                </g>
                <g id="zoomMin">
                        <use xlink:href="#rim" fill="#404040">
                                <set attributeName="fill" to="#808080" begin="zoomminus.mouseover" end="zoomminus.mouseout"/>
                        </use>
                        <path d="M-4,0h8" fill="none" stroke="white" stroke-width="1.5" pointer-events="none"/>
                </g>
                <g id="dirArrow">
                        <path fill="none" stroke="white" stroke-width="1.5" d="M0,-3.0v7 M-2.5,-0.5L0,-3.0L2.5,-0.5"/>
                </g>
               <g id="resetDef">
                       <use xlink:href="#rim2" fill="#404040">
                               <set attributeName="fill" to="#808080" begin="reset.mouseover" end="reset.mouseout"/>
                       </use>
               </g>
        </defs>

<script type="text/javascript">
var viewWidth = 2784;
var viewHeight = 386;
var sectionId = 'dynsection-0';
</script>
<script xlink:href="svgpan.js"/>
<svg id="graph" class="graph">
<g id="viewport">
<title>vec_rotate.hpp</title>
<!-- Node1 -->
<g id="node1" class="node">
<title>Node1</title>
<g id="a_node1"><a xlink:title=" ">
<polygon fill="#bfbfbf" stroke="black" points="155,-358.5 155,-377.5 244,-377.5 244,-358.5 155,-358.5"/>
<text text-anchor="middle" x="199.5" y="-365.5" font-family="Helvetica,sans-Serif" font-size="10.00">vec_rotate.hpp</text>
</a>
</g>
</g>
<!-- Node2 -->
<g id="node2" class="node">
<title>Node2</title>
<g id="a_node2"><a xlink:title=" ">
<polygon fill="none" stroke="#bfbfbf" points="144.5,-235.5 144.5,-265.5 260.5,-265.5 260.5,-235.5 144.5,-235.5"/>
<text text-anchor="start" x="152.5" y="-253.5" font-family="Helvetica,sans-Serif" font-size="10.00">boost/qvm/quat_vec</text>
<text text-anchor="middle" x="202.5" y="-242.5" font-family="Helvetica,sans-Serif" font-size="10.00">_operations.hpp</text>
</a>
</g>
</g>
<!-- Node1&#45;&gt;Node2 -->
<g id="edge1" class="edge">
<title>Node1&#45;&gt;Node2</title>
<path fill="none" stroke="midnightblue" d="M204.88,-358.44C210.06,-349.68 217.51,-335.47 220.5,-322 223.97,-306.37 219.59,-288.95 214.29,-275.33"/>
<polygon fill="midnightblue" stroke="midnightblue" points="217.34,-273.55 210.17,-265.75 210.91,-276.32 217.34,-273.55"/>
</g>
<!-- Node3 -->
<g id="node3" class="node">
<title>Node3</title>
<g id="a_node3"><a xlink:href="Vector_8hpp.html" target="_top" xlink:title=" ">
<polygon fill="none" stroke="black" points="2359,-179.5 2359,-198.5 2452,-198.5 2452,-179.5 2359,-179.5"/>
<text text-anchor="middle" x="2405.5" y="-186.5" font-family="Helvetica,sans-Serif" font-size="10.00">utils/Vector.hpp</text>
</a>
</g>
</g>
<!-- Node1&#45;&gt;Node3 -->
<g id="edge2" class="edge">
<title>Node1&#45;&gt;Node3</title>
<path fill="none" stroke="midnightblue" d="M244.04,-363.51C402.02,-351.09 950.38,-307.51 1402.5,-266 1540.83,-253.3 1575.01,-245.81 1713.5,-235 1992.89,-213.19 2066.9,-229.55 2348.63,-199.1"/>
<polygon fill="midnightblue" stroke="midnightblue" points="2349.18,-202.56 2358.74,-198 2348.42,-195.6 2349.18,-202.56"/>
</g>
<!-- Node11 -->
<g id="node11" class="node">
<title>Node11</title>
<g id="a_node11"><a xlink:title=" ">
<polygon fill="none" stroke="#bfbfbf" points="0,-0.5 0,-19.5 41,-19.5 41,-0.5 0,-0.5"/>
<text text-anchor="middle" x="20.5" y="-7.5" font-family="Helvetica,sans-Serif" font-size="10.00">tuple</text>
</a>
</g>
</g>
<!-- Node1&#45;&gt;Node11 -->
<g id="edge69" class="edge">
<title>Node1&#45;&gt;Node11</title>
<path fill="none" stroke="midnightblue" d="M154.8,-360.84C96.67,-350.02 2.5,-321.67 2.5,-251.5 2.5,-251.5 2.5,-251.5 2.5,-132 2.5,-95.5 10.61,-53.47 15.95,-29.79"/>
<polygon fill="midnightblue" stroke="midnightblue" points="19.43,-30.27 18.29,-19.74 12.61,-28.68 19.43,-30.27"/>
</g>
<!-- Node17 -->
<g id="node17" class="node">
<title>Node17</title>
<g id="a_node17"><a xlink:title=" ">
<polygon fill="none" stroke="#bfbfbf" points="132,-123.5 132,-142.5 179,-142.5 179,-123.5 132,-123.5"/>
<text text-anchor="middle" x="155.5" y="-130.5" font-family="Helvetica,sans-Serif" font-size="10.00">cmath</text>
</a>
</g>
</g>
<!-- Node1&#45;&gt;Node17 -->
<g id="edge68" class="edge">
<title>Node1&#45;&gt;Node17</title>
<path fill="none" stroke="midnightblue" d="M154.99,-359.02C133.78,-352.75 110.29,-341.62 97.5,-322 60.86,-265.79 114.61,-185.14 141.59,-150.66"/>
<polygon fill="midnightblue" stroke="midnightblue" points="144.56,-152.56 148.11,-142.58 139.11,-148.17 144.56,-152.56"/>
</g>
<!-- Node23 -->
<g id="node23" class="node">
<title>Node23</title>
<g id="a_node23"><a xlink:href="sqr_8hpp.html" target="_top" xlink:title=" ">
<polygon fill="none" stroke="black" points="107,-302.5 107,-321.5 212,-321.5 212,-302.5 107,-302.5"/>
<text text-anchor="middle" x="159.5" y="-309.5" font-family="Helvetica,sans-Serif" font-size="10.00">utils/math/sqr.hpp</text>
</a>
</g>
</g>
<!-- Node1&#45;&gt;Node23 -->
<g id="edge27" class="edge">
<title>Node1&#45;&gt;Node23</title>
<path fill="none" stroke="midnightblue" d="M192.89,-358.08C187.24,-350.46 178.96,-339.26 172.05,-329.94"/>
<polygon fill="midnightblue" stroke="midnightblue" points="174.75,-327.7 165.98,-321.75 169.12,-331.87 174.75,-327.7"/>
</g>
<!-- Node24 -->
<g id="node24" class="node">
<title>Node24</title>
<g id="a_node24"><a xlink:href="quaternion_8hpp.html" target="_top" xlink:title="This file contains a matrix implementation and the trait types needed for the boost qvm interoperabil...">
<polygon fill="none" stroke="black" points="1831.5,-302.5 1831.5,-321.5 1945.5,-321.5 1945.5,-302.5 1831.5,-302.5"/>
<text text-anchor="middle" x="1888.5" y="-309.5" font-family="Helvetica,sans-Serif" font-size="10.00">utils/quaternion.hpp</text>
</a>
</g>
</g>
<!-- Node1&#45;&gt;Node24 -->
<g id="edge29" class="edge">
<title>Node1&#45;&gt;Node24</title>
<path fill="none" stroke="midnightblue" d="M244.24,-365.57C476.15,-358.16 1541.38,-324.1 1821.08,-315.16"/>
<polygon fill="midnightblue" stroke="midnightblue" points="1821.59,-318.64 1831.48,-314.82 1821.37,-311.64 1821.59,-318.64"/>
</g>
<!-- Node4 -->
<g id="node4" class="node">
<title>Node4</title>
<g id="a_node4"><a xlink:title=" ">
<polygon fill="none" stroke="#bfbfbf" points="2508.5,-123.5 2508.5,-142.5 2658.5,-142.5 2658.5,-123.5 2508.5,-123.5"/>
<text text-anchor="middle" x="2583.5" y="-130.5" font-family="Helvetica,sans-Serif" font-size="10.00">boost/qvm/deduce_vec.hpp</text>
</a>
</g>
</g>
<!-- Node3&#45;&gt;Node4 -->
<g id="edge3" class="edge">
<title>Node3&#45;&gt;Node4</title>
<path fill="none" stroke="midnightblue" d="M2433.7,-179.44C2463.91,-170.28 2512.01,-155.69 2545.53,-145.52"/>
<polygon fill="midnightblue" stroke="midnightblue" points="2546.87,-148.77 2555.43,-142.52 2544.84,-142.07 2546.87,-148.77"/>
</g>
<!-- Node5 -->
<g id="node5" class="node">
<title>Node5</title>
<g id="a_node5"><a xlink:title=" ">
<polygon fill="none" stroke="#bfbfbf" points="2274.5,-123.5 2274.5,-142.5 2414.5,-142.5 2414.5,-123.5 2274.5,-123.5"/>
<text text-anchor="middle" x="2344.5" y="-130.5" font-family="Helvetica,sans-Serif" font-size="10.00">boost/qvm/vec_traits.hpp</text>
</a>
</g>
</g>
<!-- Node3&#45;&gt;Node5 -->
<g id="edge4" class="edge">
<title>Node3&#45;&gt;Node5</title>
<path fill="none" stroke="midnightblue" d="M2395.7,-179.32C2386.68,-171.34 2373.09,-159.31 2362.18,-149.65"/>
<polygon fill="midnightblue" stroke="midnightblue" points="2364.29,-146.84 2354.48,-142.83 2359.65,-152.08 2364.29,-146.84"/>
</g>
<!-- Node6 -->
<g id="node6" class="node">
<title>Node6</title>
<g id="a_node6"><a xlink:href="Array_8hpp.html" target="_top" xlink:title=" ">
<polygon fill="none" stroke="black" points="201.5,-123.5 201.5,-142.5 287.5,-142.5 287.5,-123.5 201.5,-123.5"/>
<text text-anchor="middle" x="244.5" y="-130.5" font-family="Helvetica,sans-Serif" font-size="10.00">utils/Array.hpp</text>
</a>
</g>
</g>
<!-- Node3&#45;&gt;Node6 -->
<g id="edge5" class="edge">
<title>Node3&#45;&gt;Node6</title>
<path fill="none" stroke="midnightblue" d="M2358.75,-179.88C2355.96,-179.54 2353.2,-179.24 2350.5,-179 1458.87,-98.5 1230.26,-194.62 336.5,-143 323.86,-142.27 310.27,-141.13 297.52,-139.91"/>
<polygon fill="midnightblue" stroke="midnightblue" points="297.8,-136.42 287.5,-138.92 297.11,-143.39 297.8,-136.42"/>
</g>
<!-- Node8 -->
<g id="node8" class="node">
<title>Node8</title>
<g id="a_node8"><a xlink:title=" ">
<polygon fill="none" stroke="#bfbfbf" points="2416.5,-0.5 2416.5,-19.5 2468.5,-19.5 2468.5,-0.5 2416.5,-0.5"/>
<text text-anchor="middle" x="2442.5" y="-7.5" font-family="Helvetica,sans-Serif" font-size="10.00">cassert</text>
</a>
</g>
</g>
<!-- Node3&#45;&gt;Node8 -->
<g id="edge18" class="edge">
<title>Node3&#45;&gt;Node8</title>
<path fill="none" stroke="midnightblue" d="M2409.73,-179.25C2413.86,-170.33 2420.02,-156 2423.5,-143 2434.05,-103.63 2439.07,-55.99 2441.18,-30.07"/>
<polygon fill="midnightblue" stroke="midnightblue" points="2444.7,-30.03 2441.96,-19.79 2437.72,-29.5 2444.7,-30.03"/>
</g>
<!-- Node10 -->
<g id="node10" class="node">
<title>Node10</title>
<g id="a_node10"><a xlink:title=" ">
<polygon fill="none" stroke="#bfbfbf" points="108,-0.5 108,-19.5 161,-19.5 161,-0.5 108,-0.5"/>
<text text-anchor="middle" x="134.5" y="-7.5" font-family="Helvetica,sans-Serif" font-size="10.00">cstddef</text>
</a>
</g>
</g>
<!-- Node3&#45;&gt;Node10 -->
<g id="edge20" class="edge">
<title>Node3&#45;&gt;Node10</title>
<path fill="none" stroke="midnightblue" d="M2358.73,-180.1C2355.95,-179.7 2353.19,-179.33 2350.5,-179 2314.26,-174.49 1731.91,-125.86 1695.5,-123 1086.61,-75.13 343.43,-24.97 171.29,-13.45"/>
<polygon fill="midnightblue" stroke="midnightblue" points="171.45,-9.96 161.23,-12.78 170.98,-16.94 171.45,-9.96"/>
</g>
<!-- Node13 -->
<g id="node13" class="node">
<title>Node13</title>
<g id="a_node13"><a xlink:title=" ">
<polygon fill="none" stroke="#bfbfbf" points="674,-62 674,-81 727,-81 727,-62 674,-62"/>
<text text-anchor="middle" x="700.5" y="-69" font-family="Helvetica,sans-Serif" font-size="10.00">iterator</text>
</a>
</g>
</g>
<!-- Node3&#45;&gt;Node13 -->
<g id="edge23" class="edge">
<title>Node3&#45;&gt;Node13</title>
<path fill="none" stroke="midnightblue" d="M2358.74,-180.03C2355.95,-179.65 2353.19,-179.31 2350.5,-179 2267.59,-169.56 973.74,-89.39 737.41,-74.78"/>
<polygon fill="midnightblue" stroke="midnightblue" points="737.47,-71.28 727.27,-74.15 737.03,-78.26 737.47,-71.28"/>
</g>
<!-- Node16 -->
<g id="node16" class="node">
<title>Node16</title>
<g id="a_node16"><a xlink:title=" ">
<polygon fill="none" stroke="#bfbfbf" points="1294.5,-123.5 1294.5,-142.5 1358.5,-142.5 1358.5,-123.5 1294.5,-123.5"/>
<text text-anchor="middle" x="1326.5" y="-130.5" font-family="Helvetica,sans-Serif" font-size="10.00">algorithm</text>
</a>
</g>
</g>
<!-- Node3&#45;&gt;Node16 -->
<g id="edge17" class="edge">
<title>Node3&#45;&gt;Node16</title>
<path fill="none" stroke="midnightblue" d="M2358.74,-179.96C2355.96,-179.6 2353.19,-179.28 2350.5,-179 2155.33,-158.82 1536.57,-140.01 1368.81,-135.19"/>
<polygon fill="midnightblue" stroke="midnightblue" points="1368.74,-131.69 1358.65,-134.9 1368.54,-138.68 1368.74,-131.69"/>
</g>
<!-- Node3&#45;&gt;Node17 -->
<g id="edge19" class="edge">
<title>Node3&#45;&gt;Node17</title>
<path fill="none" stroke="midnightblue" d="M2358.75,-179.88C2355.96,-179.54 2353.2,-179.24 2350.5,-179 1872.79,-136.16 668.22,-204.06 192.5,-143 191.42,-142.86 190.32,-142.7 189.22,-142.53"/>
<polygon fill="midnightblue" stroke="midnightblue" points="189.72,-139.06 179.24,-140.6 188.39,-145.93 189.72,-139.06"/>
</g>
<!-- Node18 -->
<g id="node18" class="node">
<title>Node18</title>
<g id="a_node18"><a xlink:title=" ">
<polygon fill="none" stroke="#bfbfbf" points="1950,-123.5 1950,-142.5 2015,-142.5 2015,-123.5 1950,-123.5"/>
<text text-anchor="middle" x="1982.5" y="-130.5" font-family="Helvetica,sans-Serif" font-size="10.00">functional</text>
</a>
</g>
</g>
<!-- Node3&#45;&gt;Node18 -->
<g id="edge21" class="edge">
<title>Node3&#45;&gt;Node18</title>
<path fill="none" stroke="midnightblue" d="M2358.72,-180.17C2355.94,-179.76 2353.18,-179.37 2350.5,-179 2209.32,-159.67 2170.14,-166 2025.59,-143.02"/>
<polygon fill="midnightblue" stroke="midnightblue" points="2025.88,-139.52 2015.46,-141.39 2024.77,-146.44 2025.88,-139.52"/>
</g>
<!-- Node19 -->
<g id="node19" class="node">
<title>Node19</title>
<g id="a_node19"><a xlink:title=" ">
<polygon fill="none" stroke="#bfbfbf" points="2033,-123.5 2033,-142.5 2116,-142.5 2116,-123.5 2033,-123.5"/>
<text text-anchor="middle" x="2074.5" y="-130.5" font-family="Helvetica,sans-Serif" font-size="10.00">initializer_list</text>
</a>
</g>
</g>
<!-- Node3&#45;&gt;Node19 -->
<g id="edge22" class="edge">
<title>Node3&#45;&gt;Node19</title>
<path fill="none" stroke="midnightblue" d="M2358.99,-180.38C2356.12,-179.91 2353.27,-179.45 2350.5,-179 2253.65,-163.33 2227.01,-160 2126.23,-143.1"/>
<polygon fill="midnightblue" stroke="midnightblue" points="2126.68,-139.63 2116.24,-141.42 2125.52,-146.53 2126.68,-139.63"/>
</g>
<!-- Node20 -->
<g id="node20" class="node">
<title>Node20</title>
<g id="a_node20"><a xlink:title=" ">
<polygon fill="none" stroke="#bfbfbf" points="2134.5,-123.5 2134.5,-142.5 2190.5,-142.5 2190.5,-123.5 2134.5,-123.5"/>
<text text-anchor="middle" x="2162.5" y="-130.5" font-family="Helvetica,sans-Serif" font-size="10.00">numeric</text>
</a>
</g>
</g>
<!-- Node3&#45;&gt;Node20 -->
<g id="edge24" class="edge">
<title>Node3&#45;&gt;Node20</title>
<path fill="none" stroke="midnightblue" d="M2365.77,-179.48C2324.44,-170.57 2257.87,-156.09 2200.5,-143 2200.4,-142.98 2200.3,-142.95 2200.2,-142.93"/>
<polygon fill="midnightblue" stroke="midnightblue" points="2201.24,-139.58 2190.71,-140.74 2199.66,-146.4 2201.24,-139.58"/>
</g>
<!-- Node21 -->
<g id="node21" class="node">
<title>Node21</title>
<g id="a_node21"><a xlink:title=" ">
<polygon fill="none" stroke="#bfbfbf" points="346,-123.5 346,-142.5 415,-142.5 415,-123.5 346,-123.5"/>
<text text-anchor="middle" x="380.5" y="-130.5" font-family="Helvetica,sans-Serif" font-size="10.00">type_traits</text>
</a>
</g>
</g>
<!-- Node3&#45;&gt;Node21 -->
<g id="edge25" class="edge">
<title>Node3&#45;&gt;Node21</title>
<path fill="none" stroke="midnightblue" d="M2358.75,-179.9C2355.96,-179.55 2353.2,-179.25 2350.5,-179 2153.23,-160.7 699.96,-138.67 425.24,-134.65"/>
<polygon fill="midnightblue" stroke="midnightblue" points="425.28,-131.15 415.23,-134.5 425.18,-138.15 425.28,-131.15"/>
</g>
<!-- Node22 -->
<g id="node22" class="node">
<title>Node22</title>
<g id="a_node22"><a xlink:title=" ">
<polygon fill="none" stroke="#bfbfbf" points="2209,-123.5 2209,-142.5 2256,-142.5 2256,-123.5 2209,-123.5"/>
<text text-anchor="middle" x="2232.5" y="-130.5" font-family="Helvetica,sans-Serif" font-size="10.00">vector</text>
</a>
</g>
</g>
<!-- Node3&#45;&gt;Node22 -->
<g id="edge26" class="edge">
<title>Node3&#45;&gt;Node22</title>
<path fill="none" stroke="midnightblue" d="M2378.09,-179.44C2347.61,-169.93 2298.38,-154.56 2265.73,-144.37"/>
<polygon fill="midnightblue" stroke="midnightblue" points="2266.76,-141.03 2256.17,-141.39 2264.67,-147.71 2266.76,-141.03"/>
</g>
<!-- Node7 -->
<g id="node7" class="node">
<title>Node7</title>
<g id="a_node7"><a xlink:href="device__qualifier_8hpp.html" target="_top" xlink:title=" ">
<polygon fill="none" stroke="black" points="539.5,-62 539.5,-81 655.5,-81 655.5,-62 539.5,-62"/>
<text text-anchor="middle" x="597.5" y="-69" font-family="Helvetica,sans-Serif" font-size="10.00">device_qualifier.hpp</text>
</a>
</g>
</g>
<!-- Node6&#45;&gt;Node7 -->
<g id="edge6" class="edge">
<title>Node6&#45;&gt;Node7</title>
<path fill="none" stroke="midnightblue" d="M287.74,-125.17C360.69,-113.64 502.56,-91.15 525.5,-87 532.24,-85.78 539.33,-84.44 546.32,-83.07"/>
<polygon fill="midnightblue" stroke="midnightblue" points="547.3,-86.44 556.43,-81.07 545.94,-79.58 547.3,-86.44"/>
</g>
<!-- Node6&#45;&gt;Node8 -->
<g id="edge12" class="edge">
<title>Node6&#45;&gt;Node8</title>
<path fill="none" stroke="midnightblue" d="M287.73,-124.69C356.06,-113.04 482.27,-91.19 491.5,-87 511.66,-77.85 509.68,-63.54 530.5,-56 622.01,-22.85 2150.29,-12.67 2406.27,-11.2"/>
<polygon fill="midnightblue" stroke="midnightblue" points="2406.52,-14.7 2416.5,-11.14 2406.48,-7.7 2406.52,-14.7"/>
</g>
<!-- Node9 -->
<g id="node9" class="node">
<title>Node9</title>
<g id="a_node9"><a xlink:href="get_8hpp.html" target="_top" xlink:title=" ">
<polygon fill="none" stroke="black" points="108,-62 108,-81 161,-81 161,-62 108,-62"/>
<text text-anchor="middle" x="134.5" y="-69" font-family="Helvetica,sans-Serif" font-size="10.00">get.hpp</text>
</a>
</g>
</g>
<!-- Node6&#45;&gt;Node9 -->
<g id="edge8" class="edge">
<title>Node6&#45;&gt;Node9</title>
<path fill="none" stroke="midnightblue" d="M228.74,-123.48C210.52,-113.62 180.33,-97.29 159.03,-85.77"/>
<polygon fill="midnightblue" stroke="midnightblue" points="160.69,-82.69 150.23,-81.01 157.36,-88.85 160.69,-82.69"/>
</g>
<!-- Node6&#45;&gt;Node10 -->
<g id="edge13" class="edge">
<title>Node6&#45;&gt;Node10</title>
<path fill="none" stroke="midnightblue" d="M236.59,-123.3C218.28,-103.15 172.73,-53.06 149.16,-27.12"/>
<polygon fill="midnightblue" stroke="midnightblue" points="151.66,-24.67 142.34,-19.62 146.48,-29.38 151.66,-24.67"/>
</g>
<!-- Node12 -->
<g id="node12" class="node">
<title>Node12</title>
<g id="a_node12"><a xlink:title=" ">
<polygon fill="none" stroke="#bfbfbf" points="218,-56.5 218,-86.5 325,-86.5 325,-56.5 218,-56.5"/>
<text text-anchor="start" x="226" y="-74.5" font-family="Helvetica,sans-Serif" font-size="10.00">boost/serialization</text>
<text text-anchor="middle" x="271.5" y="-63.5" font-family="Helvetica,sans-Serif" font-size="10.00">/access.hpp</text>
</a>
</g>
</g>
<!-- Node6&#45;&gt;Node12 -->
<g id="edge11" class="edge">
<title>Node6&#45;&gt;Node12</title>
<path fill="none" stroke="midnightblue" d="M248.37,-123.48C251.65,-116.25 256.51,-105.53 260.94,-95.78"/>
<polygon fill="midnightblue" stroke="midnightblue" points="264.19,-97.08 265.14,-86.52 257.82,-94.18 264.19,-97.08"/>
</g>
<!-- Node6&#45;&gt;Node13 -->
<g id="edge14" class="edge">
<title>Node6&#45;&gt;Node13</title>
<path fill="none" stroke="midnightblue" d="M287.58,-127.71C391.05,-117.35 646.38,-91.53 664.5,-87 667.17,-86.33 669.9,-85.51 672.6,-84.6"/>
<polygon fill="midnightblue" stroke="midnightblue" points="674,-87.81 682.14,-81.03 671.55,-81.26 674,-87.81"/>
</g>
<!-- Node14 -->
<g id="node14" class="node">
<title>Node14</title>
<g id="a_node14"><a xlink:title=" ">
<polygon fill="none" stroke="#bfbfbf" points="343,-62 343,-81 400,-81 400,-62 343,-62"/>
<text text-anchor="middle" x="371.5" y="-69" font-family="Helvetica,sans-Serif" font-size="10.00">ostream</text>
</a>
</g>
</g>
<!-- Node6&#45;&gt;Node14 -->
<g id="edge15" class="edge">
<title>Node6&#45;&gt;Node14</title>
<path fill="none" stroke="midnightblue" d="M262.7,-123.48C284.01,-113.49 319.53,-96.85 344.16,-85.31"/>
<polygon fill="midnightblue" stroke="midnightblue" points="345.77,-88.42 353.34,-81.01 342.8,-82.08 345.77,-88.42"/>
</g>
<!-- Node15 -->
<g id="node15" class="node">
<title>Node15</title>
<g id="a_node15"><a xlink:title=" ">
<polygon fill="none" stroke="#bfbfbf" points="418,-62 418,-81 483,-81 483,-62 418,-62"/>
<text text-anchor="middle" x="450.5" y="-69" font-family="Helvetica,sans-Serif" font-size="10.00">stdexcept</text>
</a>
</g>
</g>
<!-- Node6&#45;&gt;Node15 -->
<g id="edge16" class="edge">
<title>Node6&#45;&gt;Node15</title>
<path fill="none" stroke="midnightblue" d="M277.98,-123.49C311.25,-114.88 363.65,-100.88 408.5,-87 411.26,-86.14 414.12,-85.23 416.98,-84.29"/>
<polygon fill="midnightblue" stroke="midnightblue" points="418.24,-87.56 426.6,-81.05 416.01,-80.92 418.24,-87.56"/>
</g>
<!-- Node7&#45;&gt;Node8 -->
<g id="edge7" class="edge">
<title>Node7&#45;&gt;Node8</title>
<path fill="none" stroke="midnightblue" d="M631.03,-61.95C641.66,-59.59 653.51,-57.32 664.5,-56 1019.31,-13.5 2185.98,-11.07 2406.4,-10.99"/>
<polygon fill="midnightblue" stroke="midnightblue" points="2406.46,-14.49 2416.46,-10.99 2406.46,-7.49 2406.46,-14.49"/>
</g>
<!-- Node9&#45;&gt;Node10 -->
<g id="edge9" class="edge">
<title>Node9&#45;&gt;Node10</title>
<path fill="none" stroke="midnightblue" d="M134.5,-61.98C134.5,-53.58 134.5,-40.48 134.5,-29.66"/>
<polygon fill="midnightblue" stroke="midnightblue" points="138,-29.51 134.5,-19.51 131,-29.51 138,-29.51"/>
</g>
<!-- Node9&#45;&gt;Node11 -->
<g id="edge10" class="edge">
<title>Node9&#45;&gt;Node11</title>
<path fill="none" stroke="midnightblue" d="M118.17,-61.98C99.29,-52.12 67.99,-35.79 45.92,-24.27"/>
<polygon fill="midnightblue" stroke="midnightblue" points="47.29,-21.03 36.8,-19.51 44.05,-27.24 47.29,-21.03"/>
</g>
<!-- Node23&#45;&gt;Node7 -->
<g id="edge28" class="edge">
<title>Node23&#45;&gt;Node7</title>
<path fill="none" stroke="midnightblue" d="M152.17,-302.04C141.04,-287.25 122.46,-257.19 135.5,-235 141.98,-223.98 324.48,-127.36 336.5,-123 416.88,-93.82 441.59,-103.44 525.5,-87 532.06,-85.72 538.95,-84.35 545.76,-82.99"/>
<polygon fill="midnightblue" stroke="midnightblue" points="546.52,-86.41 555.64,-81.01 545.14,-79.54 546.52,-86.41"/>
</g>
<!-- Node24&#45;&gt;Node2 -->
<g id="edge37" class="edge">
<title>Node24&#45;&gt;Node2</title>
<path fill="none" stroke="midnightblue" d="M1831.28,-310.72C1581.5,-309.27 585.4,-301.38 274.5,-266 273.22,-265.85 271.92,-265.7 270.62,-265.53"/>
<polygon fill="midnightblue" stroke="midnightblue" points="270.92,-262.04 260.52,-264.07 269.92,-268.96 270.92,-262.04"/>
</g>
<!-- Node24&#45;&gt;Node3 -->
<g id="edge40" class="edge">
<title>Node24&#45;&gt;Node3</title>
<path fill="none" stroke="midnightblue" d="M1831.46,-303.8C1771.18,-294.02 1689.44,-273.2 1725.5,-235 1771.53,-186.25 2245.24,-205.12 2348.71,-198.81"/>
<polygon fill="midnightblue" stroke="midnightblue" points="2349.06,-202.3 2358.74,-197.99 2348.49,-195.32 2349.06,-202.3"/>
</g>
<!-- Node24&#45;&gt;Node4 -->
<g id="edge32" class="edge">
<title>Node24&#45;&gt;Node4</title>
<path fill="none" stroke="midnightblue" d="M1945.82,-302.52C1981.73,-295.77 2028.28,-284.34 2066.5,-266 2087.1,-256.11 2086.07,-242.9 2107.5,-235 2171.21,-211.52 2670.93,-248.4 2717.5,-199 2743.28,-171.66 2696.6,-154.41 2651.42,-144.61"/>
<polygon fill="midnightblue" stroke="midnightblue" points="2652.03,-141.16 2641.53,-142.57 2650.62,-148.02 2652.03,-141.16"/>
</g>
<!-- Node24&#45;&gt;Node6 -->
<g id="edge39" class="edge">
<title>Node24&#45;&gt;Node6</title>
<path fill="none" stroke="midnightblue" d="M1831.18,-310.86C1575.06,-310.02 541.88,-304.27 402.5,-266 343.22,-249.72 325.22,-242.21 281.5,-199 267.96,-185.62 257.79,-166.24 251.57,-152.13"/>
<polygon fill="midnightblue" stroke="midnightblue" points="254.67,-150.44 247.6,-142.55 248.2,-153.13 254.67,-150.44"/>
</g>
<!-- Node24&#45;&gt;Node8 -->
<g id="edge65" class="edge">
<title>Node24&#45;&gt;Node8</title>
<path fill="none" stroke="midnightblue" d="M1945.69,-309.89C2133.96,-305.99 2724.23,-291.75 2755.5,-266 2782.38,-243.87 2774.5,-224.82 2774.5,-190 2774.5,-190 2774.5,-190 2774.5,-132 2774.5,-69.58 2564.68,-29.93 2478.65,-16.3"/>
<polygon fill="midnightblue" stroke="midnightblue" points="2478.97,-12.81 2468.55,-14.73 2477.89,-19.73 2478.97,-12.81"/>
</g>
<!-- Node24&#45;&gt;Node10 -->
<g id="edge66" class="edge">
<title>Node24&#45;&gt;Node10</title>
<path fill="none" stroke="midnightblue" d="M1831.11,-311.09C1566.1,-311.28 467.32,-309.4 320.5,-266 295.06,-258.48 293.34,-246.64 269.5,-235 193,-197.65 147.6,-214.57 101.5,-143 80.33,-110.13 73.34,-92.04 88.5,-56 93.53,-44.05 103.44,-33.69 112.79,-25.93"/>
<polygon fill="midnightblue" stroke="midnightblue" points="114.94,-28.69 120.71,-19.81 110.66,-23.15 114.94,-28.69"/>
</g>
<!-- Node24&#45;&gt;Node21 -->
<g id="edge67" class="edge">
<title>Node24&#45;&gt;Node21</title>
<path fill="none" stroke="midnightblue" d="M1831.35,-311.42C1561.28,-312.8 421.62,-311.88 316.5,-199 299.46,-180.71 327.76,-160.26 351.97,-147.27"/>
<polygon fill="midnightblue" stroke="midnightblue" points="353.64,-150.35 360.95,-142.68 350.45,-144.12 353.64,-150.35"/>
</g>
<!-- Node25 -->
<g id="node25" class="node">
<title>Node25</title>
<g id="a_node25"><a xlink:title=" ">
<polygon fill="none" stroke="#bfbfbf" points="1735,-241 1735,-260 1890,-260 1890,-241 1735,-241"/>
<text text-anchor="middle" x="1812.5" y="-248" font-family="Helvetica,sans-Serif" font-size="10.00">boost/qvm/deduce_quat.hpp</text>
</a>
</g>
</g>
<!-- Node24&#45;&gt;Node25 -->
<g id="edge30" class="edge">
<title>Node24&#45;&gt;Node25</title>
<path fill="none" stroke="midnightblue" d="M1877.61,-302.48C1865.53,-293.02 1845.83,-277.6 1831.26,-266.19"/>
<polygon fill="midnightblue" stroke="midnightblue" points="1833.4,-263.42 1823.37,-260.01 1829.09,-268.93 1833.4,-263.42"/>
</g>
<!-- Node26 -->
<g id="node26" class="node">
<title>Node26</title>
<g id="a_node26"><a xlink:title=" ">
<polygon fill="none" stroke="#bfbfbf" points="2546.5,-179.5 2546.5,-198.5 2708.5,-198.5 2708.5,-179.5 2546.5,-179.5"/>
<text text-anchor="middle" x="2627.5" y="-186.5" font-family="Helvetica,sans-Serif" font-size="10.00">boost/qvm/deduce_scalar.hpp</text>
</a>
</g>
</g>
<!-- Node24&#45;&gt;Node26 -->
<g id="edge31" class="edge">
<title>Node24&#45;&gt;Node26</title>
<path fill="none" stroke="midnightblue" d="M1926.81,-302.5C1956.37,-295.1 1997.76,-282.91 2031.5,-266 2052.56,-255.44 2052.38,-243.11 2074.5,-235 2170.35,-199.85 2430.79,-207.81 2532.5,-199 2533.78,-198.89 2535.06,-198.78 2536.36,-198.66"/>
<polygon fill="midnightblue" stroke="midnightblue" points="2536.75,-202.14 2546.4,-197.77 2536.13,-195.17 2536.75,-202.14"/>
</g>
<!-- Node27 -->
<g id="node27" class="node">
<title>Node27</title>
<g id="a_node27"><a xlink:title=" ">
<polygon fill="none" stroke="#bfbfbf" points="1908.5,-241 1908.5,-260 2022.5,-260 2022.5,-241 1908.5,-241"/>
<text text-anchor="middle" x="1965.5" y="-248" font-family="Helvetica,sans-Serif" font-size="10.00">boost/qvm/quat.hpp</text>
</a>
</g>
</g>
<!-- Node24&#45;&gt;Node27 -->
<g id="edge33" class="edge">
<title>Node24&#45;&gt;Node27</title>
<path fill="none" stroke="midnightblue" d="M1899.53,-302.48C1911.77,-293.02 1931.73,-277.6 1946.49,-266.19"/>
<polygon fill="midnightblue" stroke="midnightblue" points="1948.72,-268.89 1954.49,-260.01 1944.44,-263.35 1948.72,-268.89"/>
</g>
<!-- Node28 -->
<g id="node28" class="node">
<title>Node28</title>
<g id="a_node28"><a xlink:title=" ">
<polygon fill="none" stroke="#bfbfbf" points="2116.5,-241 2116.5,-260 2268.5,-260 2268.5,-241 2116.5,-241"/>
<text text-anchor="middle" x="2192.5" y="-248" font-family="Helvetica,sans-Serif" font-size="10.00">boost/qvm/quat_access.hpp</text>
</a>
</g>
</g>
<!-- Node24&#45;&gt;Node28 -->
<g id="edge34" class="edge">
<title>Node24&#45;&gt;Node28</title>
<path fill="none" stroke="midnightblue" d="M1932.06,-302.48C1986.69,-291.78 2080.31,-273.46 2139.17,-261.94"/>
<polygon fill="midnightblue" stroke="midnightblue" points="2139.88,-265.36 2149.03,-260.01 2138.54,-258.5 2139.88,-265.36"/>
</g>
<!-- Node29 -->
<g id="node29" class="node">
<title>Node29</title>
<g id="a_node29"><a xlink:title=" ">
<polygon fill="none" stroke="#bfbfbf" points="2287,-241 2287,-260 2458,-260 2458,-241 2287,-241"/>
<text text-anchor="middle" x="2372.5" y="-248" font-family="Helvetica,sans-Serif" font-size="10.00">boost/qvm/quat_operations.hpp</text>
</a>
</g>
</g>
<!-- Node24&#45;&gt;Node29 -->
<g id="edge35" class="edge">
<title>Node24&#45;&gt;Node29</title>
<path fill="none" stroke="midnightblue" d="M1945.6,-305.05C2021.5,-296.99 2159.75,-281.79 2277.5,-266 2287.65,-264.64 2298.39,-263.1 2308.86,-261.54"/>
<polygon fill="midnightblue" stroke="midnightblue" points="2309.42,-264.99 2318.79,-260.05 2308.38,-258.07 2309.42,-264.99"/>
</g>
<!-- Node30 -->
<g id="node30" class="node">
<title>Node30</title>
<g id="a_node30"><a xlink:title=" ">
<polygon fill="none" stroke="#bfbfbf" points="2476,-241 2476,-260 2621,-260 2621,-241 2476,-241"/>
<text text-anchor="middle" x="2548.5" y="-248" font-family="Helvetica,sans-Serif" font-size="10.00">boost/qvm/quat_traits.hpp</text>
</a>
</g>
</g>
<!-- Node24&#45;&gt;Node30 -->
<g id="edge36" class="edge">
<title>Node24&#45;&gt;Node30</title>
<path fill="none" stroke="midnightblue" d="M1945.81,-308.44C2049.99,-303.37 2277.24,-290.36 2467.5,-266 2476.55,-264.84 2486.13,-263.36 2495.41,-261.78"/>
<polygon fill="midnightblue" stroke="midnightblue" points="2496.08,-265.22 2505.32,-260.05 2494.87,-258.32 2496.08,-265.22"/>
</g>
<!-- Node31 -->
<g id="node31" class="node">
<title>Node31</title>
<g id="a_node31"><a xlink:title=" ">
<polygon fill="none" stroke="#bfbfbf" points="2639,-235.5 2639,-265.5 2746,-265.5 2746,-235.5 2639,-235.5"/>
<text text-anchor="start" x="2647" y="-253.5" font-family="Helvetica,sans-Serif" font-size="10.00">boost/serialization</text>
<text text-anchor="middle" x="2692.5" y="-242.5" font-family="Helvetica,sans-Serif" font-size="10.00">/array.hpp</text>
</a>
</g>
</g>
<!-- Node24&#45;&gt;Node31 -->
<g id="edge38" class="edge">
<title>Node24&#45;&gt;Node31</title>
<path fill="none" stroke="midnightblue" d="M1945.62,-310.82C2068.93,-309.72 2369.26,-303.22 2628.85,-266.08"/>
<polygon fill="midnightblue" stroke="midnightblue" points="2629.44,-269.53 2638.84,-264.64 2628.44,-262.61 2629.44,-269.53"/>
</g>
<!-- Node32 -->
<g id="node32" class="node">
<title>Node32</title>
<g id="a_node32"><a xlink:href="matrix_8hpp.html" target="_top" xlink:title="This file contains a matrix implementation and the trait types needed for the boost qvm interoperabil...">
<polygon fill="none" stroke="black" points="1299.5,-241 1299.5,-260 1393.5,-260 1393.5,-241 1299.5,-241"/>
<text text-anchor="middle" x="1346.5" y="-248" font-family="Helvetica,sans-Serif" font-size="10.00">utils/matrix.hpp</text>
</a>
</g>
</g>
<!-- Node24&#45;&gt;Node32 -->
<g id="edge41" class="edge">
<title>Node24&#45;&gt;Node32</title>
<path fill="none" stroke="midnightblue" d="M1831.27,-304.72C1727.11,-293.28 1507.77,-269.2 1403.66,-257.78"/>
<polygon fill="midnightblue" stroke="midnightblue" points="1403.98,-254.29 1393.66,-256.68 1403.22,-261.25 1403.98,-254.29"/>
</g>
<!-- Node32&#45;&gt;Node3 -->
<g id="edge43" class="edge">
<title>Node32&#45;&gt;Node3</title>
<path fill="none" stroke="midnightblue" d="M1393.79,-244.03C1421.86,-240.97 1458.17,-237.3 1490.5,-235 1868.74,-208.06 1968.19,-237.43 2348.56,-199.08"/>
<polygon fill="midnightblue" stroke="midnightblue" points="2349.15,-202.54 2358.74,-198.04 2348.44,-195.57 2349.15,-202.54"/>
</g>
<!-- Node32&#45;&gt;Node4 -->
<g id="edge58" class="edge">
<title>Node32&#45;&gt;Node4</title>
<path fill="none" stroke="midnightblue" d="M1393.77,-247.6C1608.38,-238.98 2481.29,-203.63 2494.5,-199 2523.67,-188.77 2551.47,-165.56 2568.01,-149.83"/>
<polygon fill="midnightblue" stroke="midnightblue" points="2570.49,-152.3 2575.18,-142.8 2565.59,-147.3 2570.49,-152.3"/>
</g>
<!-- Node32&#45;&gt;Node6 -->
<g id="edge42" class="edge">
<title>Node32&#45;&gt;Node6</title>
<path fill="none" stroke="midnightblue" d="M1299.45,-249.05C1109.9,-246.97 407.98,-236.78 316.5,-199 291.81,-188.8 270.07,-166.29 257.11,-150.63"/>
<polygon fill="midnightblue" stroke="midnightblue" points="259.81,-148.41 250.85,-142.76 254.34,-152.77 259.81,-148.41"/>
</g>
<!-- Node32&#45;&gt;Node8 -->
<g id="edge49" class="edge">
<title>Node32&#45;&gt;Node8</title>
<path fill="none" stroke="midnightblue" d="M1393.84,-247.57C1605.71,-238.93 2456.81,-203.91 2461.5,-199 2506.25,-152.18 2470.67,-65.75 2452.05,-28.66"/>
<polygon fill="midnightblue" stroke="midnightblue" points="2455.05,-26.84 2447.33,-19.58 2448.84,-30.07 2455.05,-26.84"/>
</g>
<!-- Node32&#45;&gt;Node10 -->
<g id="edge50" class="edge">
<title>Node32&#45;&gt;Node10</title>
<path fill="none" stroke="midnightblue" d="M1299.27,-249.08C1119.85,-247.22 480.65,-237.92 281.5,-199 207.97,-184.63 177.2,-194.19 122.5,-143 93.21,-115.59 85.22,-93.85 98.5,-56 102.29,-45.21 109.87,-35.08 117.1,-27.18"/>
<polygon fill="midnightblue" stroke="midnightblue" points="119.83,-29.4 124.34,-19.81 114.83,-24.49 119.83,-29.4"/>
</g>
<!-- Node32&#45;&gt;Node16 -->
<g id="edge47" class="edge">
<title>Node32&#45;&gt;Node16</title>
<path fill="none" stroke="midnightblue" d="M1299.41,-249.54C1260.32,-246.77 1206.85,-235.85 1179.5,-199 1150.19,-159.51 1230.91,-143.59 1284.06,-137.5"/>
<polygon fill="midnightblue" stroke="midnightblue" points="1284.7,-140.95 1294.28,-136.41 1283.96,-133.99 1284.7,-140.95"/>
</g>
<!-- Node32&#45;&gt;Node21 -->
<g id="edge51" class="edge">
<title>Node32&#45;&gt;Node21</title>
<path fill="none" stroke="midnightblue" d="M1299.38,-248.96C1103.16,-246.47 359.47,-234.69 325.5,-199 309.45,-182.14 333.97,-161.42 355.21,-147.97"/>
<polygon fill="midnightblue" stroke="midnightblue" points="357.22,-150.85 363.99,-142.69 353.61,-144.85 357.22,-150.85"/>
</g>
<!-- Node32&#45;&gt;Node26 -->
<g id="edge57" class="edge">
<title>Node32&#45;&gt;Node26</title>
<path fill="none" stroke="midnightblue" d="M1393.78,-247.63C1600.26,-239.46 2417.68,-206.88 2532.5,-199 2533.78,-198.91 2535.07,-198.82 2536.36,-198.73"/>
<polygon fill="midnightblue" stroke="midnightblue" points="2536.71,-202.21 2546.42,-197.97 2536.18,-195.23 2536.71,-202.21"/>
</g>
<!-- Node33 -->
<g id="node33" class="node">
<title>Node33</title>
<g id="a_node33"><a xlink:href="flatten_8hpp.html" target="_top" xlink:title=" ">
<polygon fill="none" stroke="black" points="334.5,-179.5 334.5,-198.5 428.5,-198.5 428.5,-179.5 334.5,-179.5"/>
<text text-anchor="middle" x="381.5" y="-186.5" font-family="Helvetica,sans-Serif" font-size="10.00">utils/flatten.hpp</text>
</a>
</g>
</g>
<!-- Node32&#45;&gt;Node33 -->
<g id="edge44" class="edge">
<title>Node32&#45;&gt;Node33</title>
<path fill="none" stroke="midnightblue" d="M1299.04,-248.6C1165.35,-245.69 774.07,-234.65 438.9,-199.03"/>
<polygon fill="midnightblue" stroke="midnightblue" points="438.82,-195.5 428.51,-197.92 438.08,-202.46 438.82,-195.5"/>
</g>
<!-- Node34 -->
<g id="node34" class="node">
<title>Node34</title>
<g id="a_node34"><a xlink:title=" ">
<polygon fill="none" stroke="#bfbfbf" points="446.5,-179.5 446.5,-198.5 488.5,-198.5 488.5,-179.5 446.5,-179.5"/>
<text text-anchor="middle" x="467.5" y="-186.5" font-family="Helvetica,sans-Serif" font-size="10.00">array</text>
</a>
</g>
</g>
<!-- Node32&#45;&gt;Node34 -->
<g id="edge48" class="edge">
<title>Node32&#45;&gt;Node34</title>
<path fill="none" stroke="midnightblue" d="M1299.36,-248.14C1147.7,-243.53 672.58,-227.31 498.69,-198.73"/>
<polygon fill="midnightblue" stroke="midnightblue" points="499.11,-195.25 488.66,-197.01 497.92,-202.15 499.11,-195.25"/>
</g>
<!-- Node35 -->
<g id="node35" class="node">
<title>Node35</title>
<g id="a_node35"><a xlink:title=" ">
<polygon fill="none" stroke="#bfbfbf" points="507,-179.5 507,-198.5 552,-198.5 552,-179.5 507,-179.5"/>
<text text-anchor="middle" x="529.5" y="-186.5" font-family="Helvetica,sans-Serif" font-size="10.00">utility</text>
</a>
</g>
</g>
<!-- Node32&#45;&gt;Node35 -->
<g id="edge52" class="edge">
<title>Node32&#45;&gt;Node35</title>
<path fill="none" stroke="midnightblue" d="M1299.12,-250.04C1177.63,-250.66 845.2,-247.54 562.1,-198.91"/>
<polygon fill="midnightblue" stroke="midnightblue" points="562.5,-195.43 552.05,-197.17 561.3,-202.33 562.5,-195.43"/>
</g>
<!-- Node36 -->
<g id="node36" class="node">
<title>Node36</title>
<g id="a_node36"><a xlink:title=" ">
<polygon fill="none" stroke="#bfbfbf" points="570,-179.5 570,-198.5 739,-198.5 739,-179.5 570,-179.5"/>
<text text-anchor="middle" x="654.5" y="-186.5" font-family="Helvetica,sans-Serif" font-size="10.00">boost/qvm/mat_operations.hpp</text>
</a>
</g>
</g>
<!-- Node32&#45;&gt;Node36 -->
<g id="edge53" class="edge">
<title>Node32&#45;&gt;Node36</title>
<path fill="none" stroke="midnightblue" d="M1299.5,-245.74C1200.03,-237.73 960.67,-218.23 749.19,-199.14"/>
<polygon fill="midnightblue" stroke="midnightblue" points="749.42,-195.65 739.14,-198.24 748.79,-202.62 749.42,-195.65"/>
</g>
<!-- Node37 -->
<g id="node37" class="node">
<title>Node37</title>
<g id="a_node37"><a xlink:title=" ">
<polygon fill="none" stroke="#bfbfbf" points="757,-179.5 757,-198.5 948,-198.5 948,-179.5 757,-179.5"/>
<text text-anchor="middle" x="852.5" y="-186.5" font-family="Helvetica,sans-Serif" font-size="10.00">boost/qvm/vec_mat_operations.hpp</text>
</a>
</g>
</g>
<!-- Node32&#45;&gt;Node37 -->
<g id="edge54" class="edge">
<title>Node32&#45;&gt;Node37</title>
<path fill="none" stroke="midnightblue" d="M1299.13,-243.79C1214.76,-233.63 1037.58,-212.29 933.53,-199.76"/>
<polygon fill="midnightblue" stroke="midnightblue" points="933.73,-196.26 923.38,-198.54 932.89,-203.21 933.73,-196.26"/>
</g>
<!-- Node38 -->
<g id="node38" class="node">
<title>Node38</title>
<g id="a_node38"><a xlink:title=" ">
<polygon fill="none" stroke="#bfbfbf" points="966,-179.5 966,-198.5 1133,-198.5 1133,-179.5 966,-179.5"/>
<text text-anchor="middle" x="1049.5" y="-186.5" font-family="Helvetica,sans-Serif" font-size="10.00">boost/qvm/vec_operations.hpp</text>
</a>
</g>
</g>
<!-- Node32&#45;&gt;Node38 -->
<g id="edge55" class="edge">
<title>Node32&#45;&gt;Node38</title>
<path fill="none" stroke="midnightblue" d="M1303.95,-240.98C1250.69,-230.3 1159.48,-212.03 1101.96,-200.51"/>
<polygon fill="midnightblue" stroke="midnightblue" points="1102.47,-197.04 1091.97,-198.51 1101.09,-203.91 1102.47,-197.04"/>
</g>
<!-- Node39 -->
<g id="node39" class="node">
<title>Node39</title>
<g id="a_node39"><a xlink:title=" ">
<polygon fill="none" stroke="#bfbfbf" points="1188.5,-179.5 1188.5,-198.5 1340.5,-198.5 1340.5,-179.5 1188.5,-179.5"/>
<text text-anchor="middle" x="1264.5" y="-186.5" font-family="Helvetica,sans-Serif" font-size="10.00">boost/qvm/deduce_mat.hpp</text>
</a>
</g>
</g>
<!-- Node32&#45;&gt;Node39 -->
<g id="edge56" class="edge">
<title>Node32&#45;&gt;Node39</title>
<path fill="none" stroke="midnightblue" d="M1334.75,-240.98C1321.72,-231.52 1300.46,-216.1 1284.74,-204.69"/>
<polygon fill="midnightblue" stroke="midnightblue" points="1286.38,-201.55 1276.23,-198.51 1282.27,-207.21 1286.38,-201.55"/>
</g>
<!-- Node40 -->
<g id="node40" class="node">
<title>Node40</title>
<g id="a_node40"><a xlink:title=" ">
<polygon fill="none" stroke="#bfbfbf" points="1358.5,-179.5 1358.5,-198.5 1522.5,-198.5 1522.5,-179.5 1358.5,-179.5"/>
<text text-anchor="middle" x="1440.5" y="-186.5" font-family="Helvetica,sans-Serif" font-size="10.00">boost/qvm/map_mat_mat.hpp</text>
</a>
</g>
</g>
<!-- Node32&#45;&gt;Node40 -->
<g id="edge59" class="edge">
<title>Node32&#45;&gt;Node40</title>
<path fill="none" stroke="midnightblue" d="M1359.97,-240.98C1375.18,-231.34 1400.19,-215.52 1418.3,-204.05"/>
<polygon fill="midnightblue" stroke="midnightblue" points="1420.48,-206.81 1427.06,-198.51 1416.74,-200.9 1420.48,-206.81"/>
</g>
<!-- Node41 -->
<g id="node41" class="node">
<title>Node41</title>
<g id="a_node41"><a xlink:title=" ">
<polygon fill="none" stroke="#bfbfbf" points="1541,-179.5 1541,-198.5 1702,-198.5 1702,-179.5 1541,-179.5"/>
<text text-anchor="middle" x="1621.5" y="-186.5" font-family="Helvetica,sans-Serif" font-size="10.00">boost/qvm/map_mat_vec.hpp</text>
</a>
</g>
</g>
<!-- Node32&#45;&gt;Node41 -->
<g id="edge60" class="edge">
<title>Node32&#45;&gt;Node41</title>
<path fill="none" stroke="midnightblue" d="M1385.9,-240.98C1435.01,-230.35 1518.97,-212.18 1572.27,-200.65"/>
<polygon fill="midnightblue" stroke="midnightblue" points="1573.14,-204.04 1582.17,-198.51 1571.66,-197.2 1573.14,-204.04"/>
</g>
<!-- Node42 -->
<g id="node42" class="node">
<title>Node42</title>
<g id="a_node42"><a xlink:title=" ">
<polygon fill="none" stroke="#bfbfbf" points="1720,-179.5 1720,-198.5 1881,-198.5 1881,-179.5 1720,-179.5"/>
<text text-anchor="middle" x="1800.5" y="-186.5" font-family="Helvetica,sans-Serif" font-size="10.00">boost/qvm/map_vec_mat.hpp</text>
</a>
</g>
</g>
<!-- Node32&#45;&gt;Node42 -->
<g id="edge61" class="edge">
<title>Node32&#45;&gt;Node42</title>
<path fill="none" stroke="midnightblue" d="M1393.8,-243.3C1472.58,-232.98 1631.27,-212.18 1725.45,-199.84"/>
<polygon fill="midnightblue" stroke="midnightblue" points="1726.02,-203.29 1735.48,-198.52 1725.11,-196.35 1726.02,-203.29"/>
</g>
<!-- Node43 -->
<g id="node43" class="node">
<title>Node43</title>
<g id="a_node43"><a xlink:title=" ">
<polygon fill="none" stroke="#bfbfbf" points="1899.5,-179.5 1899.5,-198.5 2011.5,-198.5 2011.5,-179.5 1899.5,-179.5"/>
<text text-anchor="middle" x="1955.5" y="-186.5" font-family="Helvetica,sans-Serif" font-size="10.00">boost/qvm/mat.hpp</text>
</a>
</g>
</g>
<!-- Node32&#45;&gt;Node43 -->
<g id="edge62" class="edge">
<title>Node32&#45;&gt;Node43</title>
<path fill="none" stroke="midnightblue" d="M1393.51,-244.64C1421.64,-241.76 1458.11,-238.09 1490.5,-235 1664.98,-218.36 1711.49,-219.21 1889.21,-199.1"/>
<polygon fill="midnightblue" stroke="midnightblue" points="1889.61,-202.58 1899.15,-197.97 1888.82,-195.62 1889.61,-202.58"/>
</g>
<!-- Node44 -->
<g id="node44" class="node">
<title>Node44</title>
<g id="a_node44"><a xlink:title=" ">
<polygon fill="none" stroke="#bfbfbf" points="2029.5,-179.5 2029.5,-198.5 2179.5,-198.5 2179.5,-179.5 2029.5,-179.5"/>
<text text-anchor="middle" x="2104.5" y="-186.5" font-family="Helvetica,sans-Serif" font-size="10.00">boost/qvm/mat_access.hpp</text>
</a>
</g>
</g>
<!-- Node32&#45;&gt;Node44 -->
<g id="edge63" class="edge">
<title>Node32&#45;&gt;Node44</title>
<path fill="none" stroke="midnightblue" d="M1393.81,-244.34C1421.89,-241.38 1458.2,-237.72 1490.5,-235 1722.43,-215.45 1783.58,-219.46 2019.15,-199.09"/>
<polygon fill="midnightblue" stroke="midnightblue" points="2019.75,-202.55 2029.41,-198.19 2019.14,-195.57 2019.75,-202.55"/>
</g>
<!-- Node45 -->
<g id="node45" class="node">
<title>Node45</title>
<g id="a_node45"><a xlink:title=" ">
<polygon fill="none" stroke="#bfbfbf" points="2198,-179.5 2198,-198.5 2341,-198.5 2341,-179.5 2198,-179.5"/>
<text text-anchor="middle" x="2269.5" y="-186.5" font-family="Helvetica,sans-Serif" font-size="10.00">boost/qvm/mat_traits.hpp</text>
</a>
</g>
</g>
<!-- Node32&#45;&gt;Node45 -->
<g id="edge64" class="edge">
<title>Node32&#45;&gt;Node45</title>
<path fill="none" stroke="midnightblue" d="M1393.79,-244.15C1421.87,-241.12 1458.18,-237.46 1490.5,-235 1796.91,-211.69 1877.17,-223.89 2187.77,-199"/>
<polygon fill="midnightblue" stroke="midnightblue" points="2188.28,-202.47 2197.97,-198.18 2187.72,-195.5 2188.28,-202.47"/>
</g>
<!-- Node33&#45;&gt;Node13 -->
<g id="edge45" class="edge">
<title>Node33&#45;&gt;Node13</title>
<path fill="none" stroke="midnightblue" d="M406.61,-179.42C456.15,-162.4 569.89,-122.92 664.5,-87 666.34,-86.3 668.23,-85.57 670.14,-84.83"/>
<polygon fill="midnightblue" stroke="midnightblue" points="671.61,-88.01 679.62,-81.08 669.03,-81.5 671.61,-88.01"/>
</g>
<!-- Node33&#45;&gt;Node21 -->
<g id="edge46" class="edge">
<title>Node33&#45;&gt;Node21</title>
<path fill="none" stroke="midnightblue" d="M381.33,-179.08C381.2,-172.01 381.02,-161.86 380.85,-152.99"/>
<polygon fill="midnightblue" stroke="midnightblue" points="384.35,-152.68 380.66,-142.75 377.35,-152.81 384.35,-152.68"/>
</g>
</g>
</svg>
        <g id="navigator" transform="translate(0 0)" fill="#404254">
                <rect fill="#f2f5e9" fill-opacity="0.5" stroke="#606060" stroke-width=".5" x="0" y="0" width="60" height="60"/>
                <use id="zoomplus" xlink:href="#zoomPlus" x="17" y="9" onmousedown="handleZoom(evt,'in')"/>
                <use id="zoomminus" xlink:href="#zoomMin" x="42" y="9" onmousedown="handleZoom(evt,'out')"/>
                <use id="reset" xlink:href="#resetDef" x="30" y="36" onmousedown="handleReset()"/>
                <g id="arrowUp" xlink:href="#dirArrow" transform="translate(30 24)" onmousedown="handlePan(0,-1)">
                  <use xlink:href="#rim" fill="#404040">
                        <set attributeName="fill" to="#808080" begin="arrowUp.mouseover" end="arrowUp.mouseout"/>
                  </use>
                  <path fill="none" stroke="white" stroke-width="1.5" d="M0,-3.0v7 M-2.5,-0.5L0,-3.0L2.5,-0.5"/>
                </g>
                <g id="arrowRight" xlink:href="#dirArrow" transform="rotate(90) translate(36 -43)" onmousedown="handlePan(1,0)">
                  <use xlink:href="#rim" fill="#404040">
                        <set attributeName="fill" to="#808080" begin="arrowRight.mouseover" end="arrowRight.mouseout"/>
                  </use>
                  <path fill="none" stroke="white" stroke-width="1.5" d="M0,-3.0v7 M-2.5,-0.5L0,-3.0L2.5,-0.5"/>
                </g>
                <g id="arrowDown" xlink:href="#dirArrow" transform="rotate(180) translate(-30 -48)" onmousedown="handlePan(0,1)">
                  <use xlink:href="#rim" fill="#404040">
                        <set attributeName="fill" to="#808080" begin="arrowDown.mouseover" end="arrowDown.mouseout"/>
                  </use>
                  <path fill="none" stroke="white" stroke-width="1.5" d="M0,-3.0v7 M-2.5,-0.5L0,-3.0L2.5,-0.5"/>
                </g>
                <g id="arrowLeft" xlink:href="#dirArrow" transform="rotate(270) translate(-36 17)" onmousedown="handlePan(-1,0)">
                  <use xlink:href="#rim" fill="#404040">
                        <set attributeName="fill" to="#808080" begin="arrowLeft.mouseover" end="arrowLeft.mouseout"/>
                  </use>
                  <path fill="none" stroke="white" stroke-width="1.5" d="M0,-3.0v7 M-2.5,-0.5L0,-3.0L2.5,-0.5"/>
                </g>
        </g>
        <svg viewBox="0 0 15 15" width="100%" height="30px" preserveAspectRatio="xMaxYMin meet">
         <g id="arrow_out" transform="scale(0.3 0.3)">
          <a xlink:href="vec__rotate_8hpp__incl_org.svg" target="_base">
           <rect id="button" ry="5" rx="5" y="6" x="6" height="38" width="38"
                fill="#f2f5e9" fill-opacity="0.5" stroke="#606060" stroke-width="1.0"/>
           <path id="arrow"
             d="M 11.500037,31.436501 C 11.940474,20.09759 22.043105,11.32322 32.158766,21.979434 L 37.068811,17.246167 C 37.068811,17.246167 37.088388,32 37.088388,32 L 22.160133,31.978069 C 22.160133,31.978069 26.997745,27.140456 26.997745,27.140456 C 18.528582,18.264221 13.291696,25.230495 11.500037,31.436501 z"
             style="fill:#404040;"/>
          </a>
         </g>
        </svg>
</svg>
