<?xml version="1.0" encoding="UTF-8" standalone="no"?>
<!DOCTYPE svg PUBLIC "-//W3C//DTD SVG 1.1//EN"
 "http://www.w3.org/Graphics/SVG/1.1/DTD/svg11.dtd">
<!-- Generated by graphviz version 2.43.0 (0)
 -->
<!-- Title: WidomInsertion.hpp Pages: 1 -->
<!--zoomable 386 -->
<svg id="main" version="1.1" xmlns="http://www.w3.org/2000/svg" xmlns:xlink="http://www.w3.org/1999/xlink" xml:space="preserve" onload="init(evt)">
<style type="text/css"><![CDATA[
.edge:hover path { stroke: red; }
.edge:hover polygon { stroke: red; fill: red; }
]]></style>
<script type="text/javascript"><![CDATA[
var edges = document.getElementsByTagName('g');
if (edges && edges.length) {
  for (var i=0;i<edges.length;i++) {
    if (edges[i].id.substr(0,4)=='edge') {
      edges[i].setAttribute('class','edge');
    }
  }
}
]]></script>
        <defs>
                <circle id="rim" cx="0" cy="0" r="7"/>
                <circle id="rim2" cx="0" cy="0" r="3.5"/>
                <g id="zoomPlus">
                        <use xlink:href="#rim" fill="#404040">
                                <set attributeName="fill" to="#808080" begin="zoomplus.mouseover" end="zoomplus.mouseout"/>
                        </use>
                        <path d="M-4,0h8M0,-4v8" fill="none" stroke="white" stroke-width="1.5" pointer-events="none"/>
                </g>
                <g id="zoomMin">
                        <use xlink:href="#rim" fill="#404040">
                                <set attributeName="fill" to="#808080" begin="zoomminus.mouseover" end="zoomminus.mouseout"/>
                        </use>
                        <path d="M-4,0h8" fill="none" stroke="white" stroke-width="1.5" pointer-events="none"/>
                </g>
                <g id="dirArrow">
                        <path fill="none" stroke="white" stroke-width="1.5" d="M0,-3.0v7 M-2.5,-0.5L0,-3.0L2.5,-0.5"/>
                </g>
               <g id="resetDef">
                       <use xlink:href="#rim2" fill="#404040">
                               <set attributeName="fill" to="#808080" begin="reset.mouseover" end="reset.mouseout"/>
                       </use>
               </g>
        </defs>

<script type="text/javascript">
var viewWidth = 1929;
var viewHeight = 386;
var sectionId = 'dynsection-0';
</script>
<script xlink:href="svgpan.js"/>
<svg id="graph" class="graph">
<g id="viewport">
<title>WidomInsertion.hpp</title>
<!-- Node1 -->
<g id="node1" class="node">
<title>Node1</title>
<g id="a_node1"><a xlink:title=" ">
<polygon fill="#bfbfbf" stroke="black" points="1742,-358.5 1742,-377.5 1857,-377.5 1857,-358.5 1742,-358.5"/>
<text text-anchor="middle" x="1799.5" y="-365.5" font-family="Helvetica,sans-Serif" font-size="10.00">WidomInsertion.hpp</text>
</a>
</g>
</g>
<!-- Node2 -->
<g id="node2" class="node">
<title>Node2</title>
<g id="a_node2"><a xlink:href="ReactionAlgorithm_8hpp.html" target="_top" xlink:title=" ">
<polygon fill="none" stroke="black" points="1626.5,-302.5 1626.5,-321.5 1754.5,-321.5 1754.5,-302.5 1626.5,-302.5"/>
<text text-anchor="middle" x="1690.5" y="-309.5" font-family="Helvetica,sans-Serif" font-size="10.00">ReactionAlgorithm.hpp</text>
</a>
</g>
</g>
<!-- Node1&#45;&gt;Node2 -->
<g id="edge1" class="edge">
<title>Node1&#45;&gt;Node2</title>
<path fill="none" stroke="midnightblue" d="M1781.99,-358.32C1764.43,-349.62 1737.17,-336.12 1716.97,-326.11"/>
<polygon fill="midnightblue" stroke="midnightblue" points="1718.48,-322.96 1707.97,-321.65 1715.38,-329.23 1718.48,-322.96"/>
</g>
<!-- Node34 -->
<g id="node34" class="node">
<title>Node34</title>
<g id="a_node34"><a xlink:title=" ">
<polygon fill="none" stroke="#bfbfbf" points="1738,-129 1738,-148 1783,-148 1783,-129 1738,-129"/>
<text text-anchor="middle" x="1760.5" y="-136" font-family="Helvetica,sans-Serif" font-size="10.00">utility</text>
</a>
</g>
</g>
<!-- Node1&#45;&gt;Node34 -->
<g id="edge61" class="edge">
<title>Node1&#45;&gt;Node34</title>
<path fill="none" stroke="midnightblue" d="M1815.18,-358.34C1840.46,-343.37 1889.3,-309.98 1908.5,-266 1922.02,-235.05 1928.15,-217.47 1908.5,-190 1882.45,-153.58 1828.53,-143.13 1793.47,-140.3"/>
<polygon fill="midnightblue" stroke="midnightblue" points="1793.45,-136.79 1783.24,-139.65 1793,-143.78 1793.45,-136.79"/>
</g>
<!-- Node3 -->
<g id="node3" class="node">
<title>Node3</title>
<g id="a_node3"><a xlink:href="config_8hpp.html" target="_top" xlink:title=" ">
<polygon fill="none" stroke="black" points="1831.5,-246.5 1831.5,-265.5 1899.5,-265.5 1899.5,-246.5 1831.5,-246.5"/>
<text text-anchor="middle" x="1865.5" y="-253.5" font-family="Helvetica,sans-Serif" font-size="10.00">config.hpp</text>
</a>
</g>
</g>
<!-- Node2&#45;&gt;Node3 -->
<g id="edge2" class="edge">
<title>Node2&#45;&gt;Node3</title>
<path fill="none" stroke="midnightblue" d="M1718.23,-302.44C1747.93,-293.28 1795.22,-278.69 1828.17,-268.52"/>
<polygon fill="midnightblue" stroke="midnightblue" points="1829.38,-271.81 1837.9,-265.52 1827.31,-265.12 1829.38,-271.81"/>
</g>
<!-- Node5 -->
<g id="node5" class="node">
<title>Node5</title>
<g id="a_node5"><a xlink:href="SingleReaction_8hpp.html" target="_top" xlink:title=" ">
<polygon fill="none" stroke="black" points="397.5,-246.5 397.5,-265.5 507.5,-265.5 507.5,-246.5 397.5,-246.5"/>
<text text-anchor="middle" x="452.5" y="-253.5" font-family="Helvetica,sans-Serif" font-size="10.00">SingleReaction.hpp</text>
</a>
</g>
</g>
<!-- Node2&#45;&gt;Node5 -->
<g id="edge4" class="edge">
<title>Node2&#45;&gt;Node5</title>
<path fill="none" stroke="midnightblue" d="M1626.12,-308.19C1413.08,-298.9 732.43,-269.21 517.91,-259.85"/>
<polygon fill="midnightblue" stroke="midnightblue" points="517.89,-256.35 507.75,-259.41 517.59,-263.34 517.89,-256.35"/>
</g>
<!-- Node14 -->
<g id="node14" class="node">
<title>Node14</title>
<g id="a_node14"><a xlink:title=" ">
<polygon fill="none" stroke="#bfbfbf" points="240,-129 240,-148 287,-148 287,-129 240,-129"/>
<text text-anchor="middle" x="263.5" y="-136" font-family="Helvetica,sans-Serif" font-size="10.00">vector</text>
</a>
</g>
</g>
<!-- Node2&#45;&gt;Node14 -->
<g id="edge60" class="edge">
<title>Node2&#45;&gt;Node14</title>
<path fill="none" stroke="midnightblue" d="M1626.45,-310.17C1381.23,-306.8 509.71,-293.01 388.5,-266 326.7,-252.23 292.38,-262.85 257.5,-210 247.37,-194.66 251.14,-173.16 256.01,-157.94"/>
<polygon fill="midnightblue" stroke="midnightblue" points="259.44,-158.75 259.58,-148.15 252.87,-156.35 259.44,-158.75"/>
</g>
<!-- Node16 -->
<g id="node16" class="node">
<title>Node16</title>
<g id="a_node16"><a xlink:href="random_8hpp.html" target="_top" xlink:title=" ">
<polygon fill="none" stroke="black" points="1258,-246.5 1258,-265.5 1333,-265.5 1333,-246.5 1258,-246.5"/>
<text text-anchor="middle" x="1295.5" y="-253.5" font-family="Helvetica,sans-Serif" font-size="10.00">random.hpp</text>
</a>
</g>
</g>
<!-- Node2&#45;&gt;Node16 -->
<g id="edge16" class="edge">
<title>Node2&#45;&gt;Node16</title>
<path fill="none" stroke="midnightblue" d="M1627.91,-302.44C1548.81,-291.63 1414.4,-273.26 1343.14,-263.51"/>
<polygon fill="midnightblue" stroke="midnightblue" points="1343.48,-260.03 1333.1,-262.14 1342.54,-266.96 1343.48,-260.03"/>
</g>
<!-- Node17 -->
<g id="node17" class="node">
<title>Node17</title>
<g id="a_node17"><a xlink:href="Vector_8hpp.html" target="_top" xlink:title=" ">
<polygon fill="none" stroke="black" points="737,-190.5 737,-209.5 830,-209.5 830,-190.5 737,-190.5"/>
<text text-anchor="middle" x="783.5" y="-197.5" font-family="Helvetica,sans-Serif" font-size="10.00">utils/Vector.hpp</text>
</a>
</g>
</g>
<!-- Node2&#45;&gt;Node17 -->
<g id="edge55" class="edge">
<title>Node2&#45;&gt;Node17</title>
<path fill="none" stroke="midnightblue" d="M1626.15,-305.18C1540.19,-297.24 1383.21,-282.14 1249.5,-266 1101.48,-248.13 927.64,-222.7 840.05,-209.57"/>
<polygon fill="midnightblue" stroke="midnightblue" points="840.47,-206.1 830.06,-208.07 839.43,-213.02 840.47,-206.1"/>
</g>
<!-- Node24 -->
<g id="node24" class="node">
<title>Node24</title>
<g id="a_node24"><a xlink:title=" ">
<polygon fill="none" stroke="#bfbfbf" points="1268,-0.5 1268,-19.5 1309,-19.5 1309,-0.5 1268,-0.5"/>
<text text-anchor="middle" x="1288.5" y="-7.5" font-family="Helvetica,sans-Serif" font-size="10.00">tuple</text>
</a>
</g>
</g>
<!-- Node2&#45;&gt;Node24 -->
<g id="edge58" class="edge">
<title>Node2&#45;&gt;Node24</title>
<path fill="none" stroke="midnightblue" d="M1693.06,-302.25C1698.25,-283.74 1709.5,-239.18 1709.5,-201 1709.5,-201 1709.5,-201 1709.5,-137.5 1709.5,-55.94 1416.03,-22.39 1319.13,-13.54"/>
<polygon fill="midnightblue" stroke="midnightblue" points="1319.36,-10.04 1309.09,-12.64 1318.74,-17.02 1319.36,-10.04"/>
</g>
<!-- Node2&#45;&gt;Node34 -->
<g id="edge59" class="edge">
<title>Node2&#45;&gt;Node34</title>
<path fill="none" stroke="midnightblue" d="M1698.33,-302.3C1705.74,-293.65 1716.72,-279.73 1723.5,-266 1741.33,-229.88 1752.14,-183.62 1757.15,-158.24"/>
<polygon fill="midnightblue" stroke="midnightblue" points="1760.63,-158.64 1759.04,-148.17 1753.75,-157.34 1760.63,-158.64"/>
</g>
<!-- Node37 -->
<g id="node37" class="node">
<title>Node37</title>
<g id="a_node37"><a xlink:title=" ">
<polygon fill="none" stroke="#bfbfbf" points="1627.5,-190.5 1627.5,-209.5 1681.5,-209.5 1681.5,-190.5 1627.5,-190.5"/>
<text text-anchor="middle" x="1654.5" y="-197.5" font-family="Helvetica,sans-Serif" font-size="10.00">random</text>
</a>
</g>
</g>
<!-- Node2&#45;&gt;Node37 -->
<g id="edge57" class="edge">
<title>Node2&#45;&gt;Node37</title>
<path fill="none" stroke="midnightblue" d="M1687.68,-302.37C1681.84,-284.54 1668.34,-243.3 1660.48,-219.27"/>
<polygon fill="midnightblue" stroke="midnightblue" points="1663.75,-218.01 1657.31,-209.59 1657.1,-220.18 1663.75,-218.01"/>
</g>
<!-- Node38 -->
<g id="node38" class="node">
<title>Node38</title>
<g id="a_node38"><a xlink:title=" ">
<polygon fill="none" stroke="#bfbfbf" points="1775.5,-246.5 1775.5,-265.5 1813.5,-265.5 1813.5,-246.5 1775.5,-246.5"/>
<text text-anchor="middle" x="1794.5" y="-253.5" font-family="Helvetica,sans-Serif" font-size="10.00">map</text>
</a>
</g>
</g>
<!-- Node2&#45;&gt;Node38 -->
<g id="edge56" class="edge">
<title>Node2&#45;&gt;Node38</title>
<path fill="none" stroke="midnightblue" d="M1707.21,-302.32C1723.81,-293.7 1749.5,-280.36 1768.72,-270.39"/>
<polygon fill="midnightblue" stroke="midnightblue" points="1770.57,-273.37 1777.83,-265.65 1767.34,-267.16 1770.57,-273.37"/>
</g>
<!-- Node4 -->
<g id="node4" class="node">
<title>Node4</title>
<g id="a_node4"><a xlink:title=" ">
<polygon fill="none" stroke="#bfbfbf" points="1787.5,-190.5 1787.5,-209.5 1899.5,-209.5 1899.5,-190.5 1787.5,-190.5"/>
<text text-anchor="middle" x="1843.5" y="-197.5" font-family="Helvetica,sans-Serif" font-size="10.00">config&#45;features.hpp</text>
</a>
</g>
</g>
<!-- Node3&#45;&gt;Node4 -->
<g id="edge3" class="edge">
<title>Node3&#45;&gt;Node4</title>
<path fill="none" stroke="midnightblue" d="M1861.87,-246.08C1858.89,-238.77 1854.57,-228.18 1850.88,-219.1"/>
<polygon fill="midnightblue" stroke="midnightblue" points="1854.08,-217.69 1847.07,-209.75 1847.6,-220.33 1854.08,-217.69"/>
</g>
<!-- Node6 -->
<g id="node6" class="node">
<title>Node6</title>
<g id="a_node6"><a xlink:href="Accumulator_8hpp.html" target="_top" xlink:title=" ">
<polygon fill="none" stroke="black" points="267,-190.5 267,-209.5 390,-209.5 390,-190.5 267,-190.5"/>
<text text-anchor="middle" x="328.5" y="-197.5" font-family="Helvetica,sans-Serif" font-size="10.00">utils/Accumulator.hpp</text>
</a>
</g>
</g>
<!-- Node5&#45;&gt;Node6 -->
<g id="edge5" class="edge">
<title>Node5&#45;&gt;Node6</title>
<path fill="none" stroke="midnightblue" d="M432.85,-246.44C412.54,-237.6 380.6,-223.69 357.4,-213.59"/>
<polygon fill="midnightblue" stroke="midnightblue" points="358.62,-210.3 348.06,-209.52 355.83,-216.72 358.62,-210.3"/>
</g>
<!-- Node5&#45;&gt;Node14 -->
<g id="edge15" class="edge">
<title>Node5&#45;&gt;Node14</title>
<path fill="none" stroke="midnightblue" d="M447.49,-246.11C439.23,-232.21 421.46,-205.35 399.5,-190 359.41,-161.98 340.94,-172.11 295.5,-154 294.08,-153.44 292.64,-152.84 291.18,-152.23"/>
<polygon fill="midnightblue" stroke="midnightblue" points="292.22,-148.86 281.65,-148.07 289.42,-155.28 292.22,-148.86"/>
</g>
<!-- Node15 -->
<g id="node15" class="node">
<title>Node15</title>
<g id="a_node15"><a xlink:title=" ">
<polygon fill="none" stroke="#bfbfbf" points="452.5,-129 452.5,-148 508.5,-148 508.5,-129 452.5,-129"/>
<text text-anchor="middle" x="480.5" y="-136" font-family="Helvetica,sans-Serif" font-size="10.00">numeric</text>
</a>
</g>
</g>
<!-- Node5&#45;&gt;Node15 -->
<g id="edge14" class="edge">
<title>Node5&#45;&gt;Node15</title>
<path fill="none" stroke="midnightblue" d="M454.6,-246.32C459.12,-227.67 469.85,-183.44 475.98,-158.13"/>
<polygon fill="midnightblue" stroke="midnightblue" points="479.42,-158.83 478.37,-148.28 472.61,-157.18 479.42,-158.83"/>
</g>
<!-- Node7 -->
<g id="node7" class="node">
<title>Node7</title>
<g id="a_node7"><a xlink:title=" ">
<polygon fill="none" stroke="#bfbfbf" points="203,-56.5 203,-86.5 310,-86.5 310,-56.5 203,-56.5"/>
<text text-anchor="start" x="211" y="-74.5" font-family="Helvetica,sans-Serif" font-size="10.00">boost/serialization</text>
<text text-anchor="middle" x="256.5" y="-63.5" font-family="Helvetica,sans-Serif" font-size="10.00">/access.hpp</text>
</a>
</g>
</g>
<!-- Node6&#45;&gt;Node7 -->
<g id="edge6" class="edge">
<title>Node6&#45;&gt;Node7</title>
<path fill="none" stroke="midnightblue" d="M267,-193.42C241.15,-187.68 213.43,-176.31 197.5,-154 182.54,-133.04 204.38,-109.19 225.59,-92.73"/>
<polygon fill="midnightblue" stroke="midnightblue" points="227.95,-95.34 233.92,-86.59 223.79,-89.71 227.95,-95.34"/>
</g>
<!-- Node8 -->
<g id="node8" class="node">
<title>Node8</title>
<g id="a_node8"><a xlink:title=" ">
<polygon fill="none" stroke="#bfbfbf" points="0,-123.5 0,-153.5 107,-153.5 107,-123.5 0,-123.5"/>
<text text-anchor="start" x="8" y="-141.5" font-family="Helvetica,sans-Serif" font-size="10.00">boost/serialization</text>
<text text-anchor="middle" x="53.5" y="-130.5" font-family="Helvetica,sans-Serif" font-size="10.00">/vector.hpp</text>
</a>
</g>
</g>
<!-- Node6&#45;&gt;Node8 -->
<g id="edge7" class="edge">
<title>Node6&#45;&gt;Node8</title>
<path fill="none" stroke="midnightblue" d="M289.1,-190.48C244.31,-180.78 170.55,-164.83 117.48,-153.34"/>
<polygon fill="midnightblue" stroke="midnightblue" points="118.01,-149.88 107.5,-151.18 116.53,-156.72 118.01,-149.88"/>
</g>
<!-- Node9 -->
<g id="node9" class="node">
<title>Node9</title>
<g id="a_node9"><a xlink:title=" ">
<polygon fill="none" stroke="#bfbfbf" points="370.5,-129 370.5,-148 434.5,-148 434.5,-129 370.5,-129"/>
<text text-anchor="middle" x="402.5" y="-136" font-family="Helvetica,sans-Serif" font-size="10.00">algorithm</text>
</a>
</g>
</g>
<!-- Node6&#45;&gt;Node9 -->
<g id="edge8" class="edge">
<title>Node6&#45;&gt;Node9</title>
<path fill="none" stroke="midnightblue" d="M339.1,-190.48C350.75,-181.11 369.69,-165.88 383.83,-154.51"/>
<polygon fill="midnightblue" stroke="midnightblue" points="386.32,-157 391.92,-148.01 381.93,-151.55 386.32,-157"/>
</g>
<!-- Node10 -->
<g id="node10" class="node">
<title>Node10</title>
<g id="a_node10"><a xlink:title=" ">
<polygon fill="none" stroke="#bfbfbf" points="305,-129 305,-148 352,-148 352,-129 305,-129"/>
<text text-anchor="middle" x="328.5" y="-136" font-family="Helvetica,sans-Serif" font-size="10.00">cmath</text>
</a>
</g>
</g>
<!-- Node6&#45;&gt;Node10 -->
<g id="edge9" class="edge">
<title>Node6&#45;&gt;Node10</title>
<path fill="none" stroke="midnightblue" d="M328.5,-190.48C328.5,-182.08 328.5,-168.98 328.5,-158.16"/>
<polygon fill="midnightblue" stroke="midnightblue" points="332,-158.01 328.5,-148.01 325,-158.01 332,-158.01"/>
</g>
<!-- Node11 -->
<g id="node11" class="node">
<title>Node11</title>
<g id="a_node11"><a xlink:title=" ">
<polygon fill="none" stroke="#bfbfbf" points="1071,-0.5 1071,-19.5 1124,-19.5 1124,-0.5 1071,-0.5"/>
<text text-anchor="middle" x="1097.5" y="-7.5" font-family="Helvetica,sans-Serif" font-size="10.00">cstddef</text>
</a>
</g>
</g>
<!-- Node6&#45;&gt;Node11 -->
<g id="edge10" class="edge">
<title>Node6&#45;&gt;Node11</title>
<path fill="none" stroke="midnightblue" d="M266.94,-195.1C238.54,-189.85 207.25,-178.41 189.5,-154 178.35,-138.67 175.52,-73.81 193.5,-56 224.81,-25 895.38,-13.77 1060.84,-11.47"/>
<polygon fill="midnightblue" stroke="midnightblue" points="1061.05,-14.97 1071,-11.33 1060.95,-7.97 1061.05,-14.97"/>
</g>
<!-- Node12 -->
<g id="node12" class="node">
<title>Node12</title>
<g id="a_node12"><a xlink:title=" ">
<polygon fill="none" stroke="#bfbfbf" points="1003.5,-129 1003.5,-148 1047.5,-148 1047.5,-129 1003.5,-129"/>
<text text-anchor="middle" x="1025.5" y="-136" font-family="Helvetica,sans-Serif" font-size="10.00">limits</text>
</a>
</g>
</g>
<!-- Node6&#45;&gt;Node12 -->
<g id="edge11" class="edge">
<title>Node6&#45;&gt;Node12</title>
<path fill="none" stroke="midnightblue" d="M390.03,-197.73C532.45,-194.34 881.23,-183.22 994.5,-154 996.48,-153.49 998.5,-152.85 1000.5,-152.13"/>
<polygon fill="midnightblue" stroke="midnightblue" points="1002.3,-155.17 1010.15,-148.05 999.58,-148.72 1002.3,-155.17"/>
</g>
<!-- Node13 -->
<g id="node13" class="node">
<title>Node13</title>
<g id="a_node13"><a xlink:title=" ">
<polygon fill="none" stroke="#bfbfbf" points="405,-62 405,-81 470,-81 470,-62 405,-62"/>
<text text-anchor="middle" x="437.5" y="-69" font-family="Helvetica,sans-Serif" font-size="10.00">stdexcept</text>
</a>
</g>
</g>
<!-- Node6&#45;&gt;Node13 -->
<g id="edge12" class="edge">
<title>Node6&#45;&gt;Node13</title>
<path fill="none" stroke="midnightblue" d="M285.43,-190.49C265.1,-184.07 242.68,-172.99 230.5,-154 223.06,-142.4 221.99,-133.84 230.5,-123 250.52,-97.51 340.09,-83.26 394.64,-76.8"/>
<polygon fill="midnightblue" stroke="midnightblue" points="395.19,-80.26 404.72,-75.65 394.39,-73.31 395.19,-80.26"/>
</g>
<!-- Node6&#45;&gt;Node14 -->
<g id="edge13" class="edge">
<title>Node6&#45;&gt;Node14</title>
<path fill="none" stroke="midnightblue" d="M319.19,-190.48C309.05,-181.2 292.64,-166.17 280.25,-154.83"/>
<polygon fill="midnightblue" stroke="midnightblue" points="282.54,-152.18 272.8,-148.01 277.81,-157.34 282.54,-152.18"/>
</g>
<!-- Node16&#45;&gt;Node11 -->
<g id="edge52" class="edge">
<title>Node16&#45;&gt;Node11</title>
<path fill="none" stroke="midnightblue" d="M1257.78,-251.72C1206.96,-246.44 1120.64,-234.09 1101.5,-210 1095.97,-203.04 1095.7,-196.74 1101.5,-190 1171.57,-108.58 1253.78,-217.4 1340.5,-154 1377.6,-126.87 1403.27,-91.01 1373.5,-56 1358.17,-37.97 1206.07,-21.3 1134.44,-14.38"/>
<polygon fill="midnightblue" stroke="midnightblue" points="1134.37,-10.85 1124.08,-13.39 1133.7,-17.82 1134.37,-10.85"/>
</g>
<!-- Node16&#45;&gt;Node14 -->
<g id="edge54" class="edge">
<title>Node16&#45;&gt;Node14</title>
<path fill="none" stroke="midnightblue" d="M1257.93,-252.98C1099.08,-244.15 482.12,-207.06 295.5,-154 293.56,-153.45 291.6,-152.8 289.63,-152.09"/>
<polygon fill="midnightblue" stroke="midnightblue" points="290.66,-148.72 280.09,-148.14 287.99,-155.19 290.66,-148.72"/>
</g>
<!-- Node16&#45;&gt;Node17 -->
<g id="edge17" class="edge">
<title>Node16&#45;&gt;Node17</title>
<path fill="none" stroke="midnightblue" d="M1257.85,-251.03C1169.01,-241.66 945.89,-218.13 840.42,-207"/>
<polygon fill="midnightblue" stroke="midnightblue" points="840.6,-203.5 830.29,-205.93 839.86,-210.46 840.6,-203.5"/>
</g>
<!-- Node30 -->
<g id="node30" class="node">
<title>Node30</title>
<g id="a_node30"><a xlink:href="constants_8hpp.html" target="_top" xlink:title=" ">
<polygon fill="none" stroke="black" points="1364,-190.5 1364,-209.5 1473,-209.5 1473,-190.5 1364,-190.5"/>
<text text-anchor="middle" x="1418.5" y="-197.5" font-family="Helvetica,sans-Serif" font-size="10.00">utils/constants.hpp</text>
</a>
</g>
</g>
<!-- Node16&#45;&gt;Node30 -->
<g id="edge42" class="edge">
<title>Node16&#45;&gt;Node30</title>
<path fill="none" stroke="midnightblue" d="M1314.99,-246.44C1335.14,-237.6 1366.82,-223.69 1389.83,-213.59"/>
<polygon fill="midnightblue" stroke="midnightblue" points="1391.35,-216.74 1399.1,-209.52 1388.54,-210.33 1391.35,-216.74"/>
</g>
<!-- Node32 -->
<g id="node32" class="node">
<title>Node32</title>
<g id="a_node32"><a xlink:href="u32__to__u64_8hpp.html" target="_top" xlink:title=" ">
<polygon fill="none" stroke="black" points="1491.5,-190.5 1491.5,-209.5 1609.5,-209.5 1609.5,-190.5 1491.5,-190.5"/>
<text text-anchor="middle" x="1550.5" y="-197.5" font-family="Helvetica,sans-Serif" font-size="10.00">utils/u32_to_u64.hpp</text>
</a>
</g>
</g>
<!-- Node16&#45;&gt;Node32 -->
<g id="edge45" class="edge">
<title>Node16&#45;&gt;Node32</title>
<path fill="none" stroke="midnightblue" d="M1333.13,-247.03C1377.45,-237.65 1451.27,-222.01 1500.4,-211.61"/>
<polygon fill="midnightblue" stroke="midnightblue" points="1501.13,-215.03 1510.19,-209.54 1499.68,-208.18 1501.13,-215.03"/>
</g>
<!-- Node35 -->
<g id="node35" class="node">
<title>Node35</title>
<g id="a_node35"><a xlink:href="uniform_8hpp.html" target="_top" xlink:title=" ">
<polygon fill="none" stroke="black" points="1245.5,-190.5 1245.5,-209.5 1345.5,-209.5 1345.5,-190.5 1245.5,-190.5"/>
<text text-anchor="middle" x="1295.5" y="-197.5" font-family="Helvetica,sans-Serif" font-size="10.00">utils/uniform.hpp</text>
</a>
</g>
</g>
<!-- Node16&#45;&gt;Node35 -->
<g id="edge48" class="edge">
<title>Node16&#45;&gt;Node35</title>
<path fill="none" stroke="midnightblue" d="M1295.5,-246.08C1295.5,-239.01 1295.5,-228.86 1295.5,-219.99"/>
<polygon fill="midnightblue" stroke="midnightblue" points="1299,-219.75 1295.5,-209.75 1292,-219.75 1299,-219.75"/>
</g>
<!-- Node36 -->
<g id="node36" class="node">
<title>Node36</title>
<g id="a_node36"><a xlink:title=" ">
<polygon fill="none" stroke="#bfbfbf" points="1110,-190.5 1110,-209.5 1227,-209.5 1227,-190.5 1110,-190.5"/>
<text text-anchor="middle" x="1168.5" y="-197.5" font-family="Helvetica,sans-Serif" font-size="10.00">Random123/philox.h</text>
</a>
</g>
</g>
<!-- Node16&#45;&gt;Node36 -->
<g id="edge51" class="edge">
<title>Node16&#45;&gt;Node36</title>
<path fill="none" stroke="midnightblue" d="M1275.38,-246.44C1254.48,-237.56 1221.57,-223.56 1197.78,-213.45"/>
<polygon fill="midnightblue" stroke="midnightblue" points="1199.1,-210.21 1188.53,-209.52 1196.36,-216.65 1199.1,-210.21"/>
</g>
<!-- Node16&#45;&gt;Node37 -->
<g id="edge53" class="edge">
<title>Node16&#45;&gt;Node37</title>
<path fill="none" stroke="midnightblue" d="M1333.02,-251.09C1391.68,-244.68 1508.83,-230.75 1617.62,-209.99"/>
<polygon fill="midnightblue" stroke="midnightblue" points="1618.29,-213.43 1627.44,-208.09 1616.96,-206.55 1618.29,-213.43"/>
</g>
<!-- Node17&#45;&gt;Node9 -->
<g id="edge32" class="edge">
<title>Node17&#45;&gt;Node9</title>
<path fill="none" stroke="midnightblue" d="M736.74,-195.91C670.67,-190.84 546.55,-178.76 443.5,-154 440.27,-153.22 436.94,-152.29 433.64,-151.27"/>
<polygon fill="midnightblue" stroke="midnightblue" points="434.54,-147.88 423.95,-148.03 432.33,-154.52 434.54,-147.88"/>
</g>
<!-- Node17&#45;&gt;Node10 -->
<g id="edge34" class="edge">
<title>Node17&#45;&gt;Node10</title>
<path fill="none" stroke="midnightblue" d="M736.68,-195.83C642.11,-189.13 431.37,-172.59 361.5,-154 359.2,-153.39 356.86,-152.64 354.54,-151.81"/>
<polygon fill="midnightblue" stroke="midnightblue" points="355.85,-148.56 345.27,-148.06 353.22,-155.05 355.85,-148.56"/>
</g>
<!-- Node17&#45;&gt;Node11 -->
<g id="edge35" class="edge">
<title>Node17&#45;&gt;Node11</title>
<path fill="none" stroke="midnightblue" d="M736.71,-198.68C656.62,-196.5 506.51,-184.4 556.5,-123 620.67,-44.19 949.31,-19.11 1060.6,-12.81"/>
<polygon fill="midnightblue" stroke="midnightblue" points="1060.88,-16.3 1070.68,-12.26 1060.5,-9.31 1060.88,-16.3"/>
</g>
<!-- Node17&#45;&gt;Node14 -->
<g id="edge41" class="edge">
<title>Node17&#45;&gt;Node14</title>
<path fill="none" stroke="midnightblue" d="M736.89,-195.59C623.12,-187.14 337.5,-165.11 295.5,-154 293.34,-153.43 291.15,-152.73 288.98,-151.94"/>
<polygon fill="midnightblue" stroke="midnightblue" points="290.3,-148.7 279.72,-148.11 287.63,-155.17 290.3,-148.7"/>
</g>
<!-- Node17&#45;&gt;Node15 -->
<g id="edge39" class="edge">
<title>Node17&#45;&gt;Node15</title>
<path fill="none" stroke="midnightblue" d="M736.82,-193.27C684.22,-186.28 596.43,-173 522.5,-154 519.29,-153.17 515.97,-152.22 512.67,-151.2"/>
<polygon fill="midnightblue" stroke="midnightblue" points="513.56,-147.8 502.96,-148.01 511.37,-154.45 513.56,-147.8"/>
</g>
<!-- Node18 -->
<g id="node18" class="node">
<title>Node18</title>
<g id="a_node18"><a xlink:title=" ">
<polygon fill="none" stroke="#bfbfbf" points="835.5,-129 835.5,-148 985.5,-148 985.5,-129 835.5,-129"/>
<text text-anchor="middle" x="910.5" y="-136" font-family="Helvetica,sans-Serif" font-size="10.00">boost/qvm/deduce_vec.hpp</text>
</a>
</g>
</g>
<!-- Node17&#45;&gt;Node18 -->
<g id="edge18" class="edge">
<title>Node17&#45;&gt;Node18</title>
<path fill="none" stroke="midnightblue" d="M801.7,-190.48C823.01,-180.49 858.53,-163.85 883.16,-152.31"/>
<polygon fill="midnightblue" stroke="midnightblue" points="884.77,-155.42 892.34,-148.01 881.8,-149.08 884.77,-155.42"/>
</g>
<!-- Node19 -->
<g id="node19" class="node">
<title>Node19</title>
<g id="a_node19"><a xlink:title=" ">
<polygon fill="none" stroke="#bfbfbf" points="1065.5,-129 1065.5,-148 1205.5,-148 1205.5,-129 1065.5,-129"/>
<text text-anchor="middle" x="1135.5" y="-136" font-family="Helvetica,sans-Serif" font-size="10.00">boost/qvm/vec_traits.hpp</text>
</a>
</g>
</g>
<!-- Node17&#45;&gt;Node19 -->
<g id="edge19" class="edge">
<title>Node17&#45;&gt;Node19</title>
<path fill="none" stroke="midnightblue" d="M830.4,-191.53C884.82,-182.81 977.23,-167.81 1056.5,-154 1063.95,-152.7 1071.79,-151.3 1079.52,-149.91"/>
<polygon fill="midnightblue" stroke="midnightblue" points="1080.36,-153.31 1089.57,-148.08 1079.11,-146.42 1080.36,-153.31"/>
</g>
<!-- Node20 -->
<g id="node20" class="node">
<title>Node20</title>
<g id="a_node20"><a xlink:href="Array_8hpp.html" target="_top" xlink:title=" ">
<polygon fill="none" stroke="black" points="1223.5,-129 1223.5,-148 1309.5,-148 1309.5,-129 1223.5,-129"/>
<text text-anchor="middle" x="1266.5" y="-136" font-family="Helvetica,sans-Serif" font-size="10.00">utils/Array.hpp</text>
</a>
</g>
</g>
<!-- Node17&#45;&gt;Node20 -->
<g id="edge20" class="edge">
<title>Node17&#45;&gt;Node20</title>
<path fill="none" stroke="midnightblue" d="M830.11,-196.7C909.58,-192.22 1076.11,-180.33 1214.5,-154 1219.31,-153.08 1224.32,-151.94 1229.26,-150.7"/>
<polygon fill="midnightblue" stroke="midnightblue" points="1230.42,-154.01 1239.18,-148.05 1228.61,-147.24 1230.42,-154.01"/>
</g>
<!-- Node22 -->
<g id="node22" class="node">
<title>Node22</title>
<g id="a_node22"><a xlink:title=" ">
<polygon fill="none" stroke="#bfbfbf" points="1452.5,-0.5 1452.5,-19.5 1504.5,-19.5 1504.5,-0.5 1452.5,-0.5"/>
<text text-anchor="middle" x="1478.5" y="-7.5" font-family="Helvetica,sans-Serif" font-size="10.00">cassert</text>
</a>
</g>
</g>
<!-- Node17&#45;&gt;Node22 -->
<g id="edge33" class="edge">
<title>Node17&#45;&gt;Node22</title>
<path fill="none" stroke="midnightblue" d="M830.23,-198.91C926.61,-197.93 1154.07,-191.45 1340.5,-154 1363.99,-149.28 1531.43,-106.4 1545.5,-87 1553.59,-75.85 1551.98,-68.16 1545.5,-56 1537.95,-41.83 1523.74,-31.33 1510.34,-24.06"/>
<polygon fill="midnightblue" stroke="midnightblue" points="1511.8,-20.87 1501.29,-19.53 1508.67,-27.13 1511.8,-20.87"/>
</g>
<!-- Node25 -->
<g id="node25" class="node">
<title>Node25</title>
<g id="a_node25"><a xlink:title=" ">
<polygon fill="none" stroke="#bfbfbf" points="1311,-62 1311,-81 1364,-81 1364,-62 1311,-62"/>
<text text-anchor="middle" x="1337.5" y="-69" font-family="Helvetica,sans-Serif" font-size="10.00">iterator</text>
</a>
</g>
</g>
<!-- Node17&#45;&gt;Node25 -->
<g id="edge38" class="edge">
<title>Node17&#45;&gt;Node25</title>
<path fill="none" stroke="midnightblue" d="M830.34,-198.16C953.94,-195.52 1281.96,-185.58 1318.5,-154 1336.33,-138.58 1339.19,-109.97 1338.9,-91.08"/>
<polygon fill="midnightblue" stroke="midnightblue" points="1342.39,-90.85 1338.43,-81.02 1335.4,-91.17 1342.39,-90.85"/>
</g>
<!-- Node27 -->
<g id="node27" class="node">
<title>Node27</title>
<g id="a_node27"><a xlink:title=" ">
<polygon fill="none" stroke="#bfbfbf" points="565,-129 565,-148 630,-148 630,-129 565,-129"/>
<text text-anchor="middle" x="597.5" y="-136" font-family="Helvetica,sans-Serif" font-size="10.00">functional</text>
</a>
</g>
</g>
<!-- Node17&#45;&gt;Node27 -->
<g id="edge36" class="edge">
<title>Node17&#45;&gt;Node27</title>
<path fill="none" stroke="midnightblue" d="M755.28,-190.45C726.19,-181.57 679.56,-167.17 639.5,-154 636.91,-153.15 634.23,-152.26 631.55,-151.35"/>
<polygon fill="midnightblue" stroke="midnightblue" points="632.48,-147.97 621.89,-148.06 630.22,-154.6 632.48,-147.97"/>
</g>
<!-- Node28 -->
<g id="node28" class="node">
<title>Node28</title>
<g id="a_node28"><a xlink:title=" ">
<polygon fill="none" stroke="#bfbfbf" points="648,-129 648,-148 731,-148 731,-129 648,-129"/>
<text text-anchor="middle" x="689.5" y="-136" font-family="Helvetica,sans-Serif" font-size="10.00">initializer_list</text>
</a>
</g>
</g>
<!-- Node17&#45;&gt;Node28 -->
<g id="edge37" class="edge">
<title>Node17&#45;&gt;Node28</title>
<path fill="none" stroke="midnightblue" d="M770.03,-190.48C754.82,-180.84 729.81,-165.02 711.7,-153.55"/>
<polygon fill="midnightblue" stroke="midnightblue" points="713.26,-150.4 702.94,-148.01 709.52,-156.31 713.26,-150.4"/>
</g>
<!-- Node29 -->
<g id="node29" class="node">
<title>Node29</title>
<g id="a_node29"><a xlink:title=" ">
<polygon fill="none" stroke="#bfbfbf" points="749,-129 749,-148 818,-148 818,-129 749,-129"/>
<text text-anchor="middle" x="783.5" y="-136" font-family="Helvetica,sans-Serif" font-size="10.00">type_traits</text>
</a>
</g>
</g>
<!-- Node17&#45;&gt;Node29 -->
<g id="edge40" class="edge">
<title>Node17&#45;&gt;Node29</title>
<path fill="none" stroke="midnightblue" d="M783.5,-190.48C783.5,-182.08 783.5,-168.98 783.5,-158.16"/>
<polygon fill="midnightblue" stroke="midnightblue" points="787,-158.01 783.5,-148.01 780,-158.01 787,-158.01"/>
</g>
<!-- Node20&#45;&gt;Node7 -->
<g id="edge26" class="edge">
<title>Node20&#45;&gt;Node7</title>
<path fill="none" stroke="midnightblue" d="M1240.3,-128.94C1232.13,-126.61 1223.02,-124.36 1214.5,-123 855.12,-65.76 759.42,-113.76 396.5,-87 371.55,-85.16 344.17,-82.47 320.29,-79.91"/>
<polygon fill="midnightblue" stroke="midnightblue" points="320.6,-76.42 310.28,-78.82 319.85,-83.38 320.6,-76.42"/>
</g>
<!-- Node20&#45;&gt;Node11 -->
<g id="edge28" class="edge">
<title>Node20&#45;&gt;Node11</title>
<path fill="none" stroke="midnightblue" d="M1236.43,-128.97C1195.36,-117.07 1125.84,-95.94 1117.5,-87 1103.13,-71.6 1098.82,-47.14 1097.66,-30.14"/>
<polygon fill="midnightblue" stroke="midnightblue" points="1101.14,-29.63 1097.28,-19.77 1094.15,-29.89 1101.14,-29.63"/>
</g>
<!-- Node20&#45;&gt;Node13 -->
<g id="edge31" class="edge">
<title>Node20&#45;&gt;Node13</title>
<path fill="none" stroke="midnightblue" d="M1240.02,-128.98C1231.91,-126.68 1222.91,-124.43 1214.5,-123 937.66,-75.93 598.49,-72 480.43,-72.19"/>
<polygon fill="midnightblue" stroke="midnightblue" points="480.34,-68.69 470.35,-72.22 480.36,-75.69 480.34,-68.69"/>
</g>
<!-- Node21 -->
<g id="node21" class="node">
<title>Node21</title>
<g id="a_node21"><a xlink:href="device__qualifier_8hpp.html" target="_top" xlink:title=" ">
<polygon fill="none" stroke="black" points="1420.5,-62 1420.5,-81 1536.5,-81 1536.5,-62 1420.5,-62"/>
<text text-anchor="middle" x="1478.5" y="-69" font-family="Helvetica,sans-Serif" font-size="10.00">device_qualifier.hpp</text>
</a>
</g>
</g>
<!-- Node20&#45;&gt;Node21 -->
<g id="edge21" class="edge">
<title>Node20&#45;&gt;Node21</title>
<path fill="none" stroke="midnightblue" d="M1294.65,-128.87C1332.29,-117.33 1399.13,-96.84 1441.01,-84"/>
<polygon fill="midnightblue" stroke="midnightblue" points="1442.03,-87.34 1450.57,-81.06 1439.98,-80.65 1442.03,-87.34"/>
</g>
<!-- Node20&#45;&gt;Node22 -->
<g id="edge27" class="edge">
<title>Node20&#45;&gt;Node22</title>
<path fill="none" stroke="midnightblue" d="M1256.52,-128.85C1239.45,-113.04 1208.27,-78.98 1227.5,-56 1254.42,-23.82 1379.07,-14.62 1441.97,-12.02"/>
<polygon fill="midnightblue" stroke="midnightblue" points="1442.38,-15.51 1452.24,-11.63 1442.11,-8.51 1442.38,-15.51"/>
</g>
<!-- Node23 -->
<g id="node23" class="node">
<title>Node23</title>
<g id="a_node23"><a xlink:href="get_8hpp.html" target="_top" xlink:title=" ">
<polygon fill="none" stroke="black" points="1126,-62 1126,-81 1179,-81 1179,-62 1126,-62"/>
<text text-anchor="middle" x="1152.5" y="-69" font-family="Helvetica,sans-Serif" font-size="10.00">get.hpp</text>
</a>
</g>
</g>
<!-- Node20&#45;&gt;Node23 -->
<g id="edge23" class="edge">
<title>Node20&#45;&gt;Node23</title>
<path fill="none" stroke="midnightblue" d="M1251.13,-128.73C1231.98,-117.82 1199.06,-99.05 1176.56,-86.22"/>
<polygon fill="midnightblue" stroke="midnightblue" points="1178.05,-83.04 1167.63,-81.13 1174.58,-89.12 1178.05,-83.04"/>
</g>
<!-- Node20&#45;&gt;Node25 -->
<g id="edge29" class="edge">
<title>Node20&#45;&gt;Node25</title>
<path fill="none" stroke="midnightblue" d="M1276.08,-128.73C1287.47,-118.31 1306.69,-100.71 1320.6,-87.97"/>
<polygon fill="midnightblue" stroke="midnightblue" points="1323.06,-90.46 1328.08,-81.13 1318.34,-85.3 1323.06,-90.46"/>
</g>
<!-- Node26 -->
<g id="node26" class="node">
<title>Node26</title>
<g id="a_node26"><a xlink:title=" ">
<polygon fill="none" stroke="#bfbfbf" points="1236,-62 1236,-81 1293,-81 1293,-62 1236,-62"/>
<text text-anchor="middle" x="1264.5" y="-69" font-family="Helvetica,sans-Serif" font-size="10.00">ostream</text>
</a>
</g>
</g>
<!-- Node20&#45;&gt;Node26 -->
<g id="edge30" class="edge">
<title>Node20&#45;&gt;Node26</title>
<path fill="none" stroke="midnightblue" d="M1266.23,-128.73C1265.94,-119.18 1265.46,-103.62 1265.08,-91.28"/>
<polygon fill="midnightblue" stroke="midnightblue" points="1268.57,-91.01 1264.77,-81.13 1261.57,-91.23 1268.57,-91.01"/>
</g>
<!-- Node21&#45;&gt;Node22 -->
<g id="edge22" class="edge">
<title>Node21&#45;&gt;Node22</title>
<path fill="none" stroke="midnightblue" d="M1478.5,-61.98C1478.5,-53.58 1478.5,-40.48 1478.5,-29.66"/>
<polygon fill="midnightblue" stroke="midnightblue" points="1482,-29.51 1478.5,-19.51 1475,-29.51 1482,-29.51"/>
</g>
<!-- Node23&#45;&gt;Node11 -->
<g id="edge24" class="edge">
<title>Node23&#45;&gt;Node11</title>
<path fill="none" stroke="midnightblue" d="M1144.62,-61.98C1136.21,-52.87 1122.68,-38.24 1112.27,-26.98"/>
<polygon fill="midnightblue" stroke="midnightblue" points="1114.72,-24.48 1105.37,-19.51 1109.58,-29.23 1114.72,-24.48"/>
</g>
<!-- Node23&#45;&gt;Node24 -->
<g id="edge25" class="edge">
<title>Node23&#45;&gt;Node24</title>
<path fill="none" stroke="midnightblue" d="M1171.99,-61.98C1194.91,-51.95 1233.19,-35.2 1259.58,-23.65"/>
<polygon fill="midnightblue" stroke="midnightblue" points="1261.29,-26.72 1269.05,-19.51 1258.49,-20.31 1261.29,-26.72"/>
</g>
<!-- Node30&#45;&gt;Node21 -->
<g id="edge43" class="edge">
<title>Node30&#45;&gt;Node21</title>
<path fill="none" stroke="midnightblue" d="M1422.62,-190.31C1432.34,-169.81 1456.85,-118.15 1469.94,-90.54"/>
<polygon fill="midnightblue" stroke="midnightblue" points="1473.22,-91.79 1474.35,-81.26 1466.9,-88.79 1473.22,-91.79"/>
</g>
<!-- Node31 -->
<g id="node31" class="node">
<title>Node31</title>
<g id="a_node31"><a xlink:title=" ">
<polygon fill="none" stroke="#bfbfbf" points="1559.5,-123.5 1559.5,-153.5 1681.5,-153.5 1681.5,-123.5 1559.5,-123.5"/>
<text text-anchor="start" x="1567.5" y="-141.5" font-family="Helvetica,sans-Serif" font-size="10.00">boost/math/constants</text>
<text text-anchor="middle" x="1620.5" y="-130.5" font-family="Helvetica,sans-Serif" font-size="10.00">/constants.hpp</text>
</a>
</g>
</g>
<!-- Node30&#45;&gt;Node31 -->
<g id="edge44" class="edge">
<title>Node30&#45;&gt;Node31</title>
<path fill="none" stroke="midnightblue" d="M1447.44,-190.48C1477.48,-181.63 1525.28,-167.55 1563.03,-156.43"/>
<polygon fill="midnightblue" stroke="midnightblue" points="1564.29,-159.71 1572.89,-153.52 1562.31,-152.99 1564.29,-159.71"/>
</g>
<!-- Node33 -->
<g id="node33" class="node">
<title>Node33</title>
<g id="a_node33"><a xlink:title=" ">
<polygon fill="none" stroke="#bfbfbf" points="1479.5,-129 1479.5,-148 1541.5,-148 1541.5,-129 1479.5,-129"/>
<text text-anchor="middle" x="1510.5" y="-136" font-family="Helvetica,sans-Serif" font-size="10.00">cinttypes</text>
</a>
</g>
</g>
<!-- Node32&#45;&gt;Node33 -->
<g id="edge46" class="edge">
<title>Node32&#45;&gt;Node33</title>
<path fill="none" stroke="midnightblue" d="M1544.77,-190.48C1538.83,-181.64 1529.38,-167.59 1521.91,-156.48"/>
<polygon fill="midnightblue" stroke="midnightblue" points="1524.7,-154.36 1516.22,-148.01 1518.89,-158.26 1524.7,-154.36"/>
</g>
<!-- Node32&#45;&gt;Node34 -->
<g id="edge47" class="edge">
<title>Node32&#45;&gt;Node34</title>
<path fill="none" stroke="midnightblue" d="M1580.59,-190.48C1619.71,-179.39 1687.79,-160.1 1728.04,-148.7"/>
<polygon fill="midnightblue" stroke="midnightblue" points="1729.22,-152 1737.88,-145.91 1727.31,-145.27 1729.22,-152"/>
</g>
<!-- Node35&#45;&gt;Node12 -->
<g id="edge50" class="edge">
<title>Node35&#45;&gt;Node12</title>
<path fill="none" stroke="midnightblue" d="M1245.32,-191.07C1185.95,-181.43 1090.86,-165.07 1056.5,-154 1054.83,-153.46 1053.13,-152.85 1051.43,-152.2"/>
<polygon fill="midnightblue" stroke="midnightblue" points="1052.49,-148.85 1041.92,-148.12 1049.73,-155.28 1052.49,-148.85"/>
</g>
<!-- Node35&#45;&gt;Node33 -->
<g id="edge49" class="edge">
<title>Node35&#45;&gt;Node33</title>
<path fill="none" stroke="midnightblue" d="M1326.3,-190.48C1364.06,-180.03 1428.16,-162.29 1469.91,-150.73"/>
<polygon fill="midnightblue" stroke="midnightblue" points="1471.05,-154.05 1479.75,-148.01 1469.18,-147.3 1471.05,-154.05"/>
</g>
</g>
</svg>
        <g id="navigator" transform="translate(0 0)" fill="#404254">
                <rect fill="#f2f5e9" fill-opacity="0.5" stroke="#606060" stroke-width=".5" x="0" y="0" width="60" height="60"/>
                <use id="zoomplus" xlink:href="#zoomPlus" x="17" y="9" onmousedown="handleZoom(evt,'in')"/>
                <use id="zoomminus" xlink:href="#zoomMin" x="42" y="9" onmousedown="handleZoom(evt,'out')"/>
                <use id="reset" xlink:href="#resetDef" x="30" y="36" onmousedown="handleReset()"/>
                <g id="arrowUp" xlink:href="#dirArrow" transform="translate(30 24)" onmousedown="handlePan(0,-1)">
                  <use xlink:href="#rim" fill="#404040">
                        <set attributeName="fill" to="#808080" begin="arrowUp.mouseover" end="arrowUp.mouseout"/>
                  </use>
                  <path fill="none" stroke="white" stroke-width="1.5" d="M0,-3.0v7 M-2.5,-0.5L0,-3.0L2.5,-0.5"/>
                </g>
                <g id="arrowRight" xlink:href="#dirArrow" transform="rotate(90) translate(36 -43)" onmousedown="handlePan(1,0)">
                  <use xlink:href="#rim" fill="#404040">
                        <set attributeName="fill" to="#808080" begin="arrowRight.mouseover" end="arrowRight.mouseout"/>
                  </use>
                  <path fill="none" stroke="white" stroke-width="1.5" d="M0,-3.0v7 M-2.5,-0.5L0,-3.0L2.5,-0.5"/>
                </g>
                <g id="arrowDown" xlink:href="#dirArrow" transform="rotate(180) translate(-30 -48)" onmousedown="handlePan(0,1)">
                  <use xlink:href="#rim" fill="#404040">
                        <set attributeName="fill" to="#808080" begin="arrowDown.mouseover" end="arrowDown.mouseout"/>
                  </use>
                  <path fill="none" stroke="white" stroke-width="1.5" d="M0,-3.0v7 M-2.5,-0.5L0,-3.0L2.5,-0.5"/>
                </g>
                <g id="arrowLeft" xlink:href="#dirArrow" transform="rotate(270) translate(-36 17)" onmousedown="handlePan(-1,0)">
                  <use xlink:href="#rim" fill="#404040">
                        <set attributeName="fill" to="#808080" begin="arrowLeft.mouseover" end="arrowLeft.mouseout"/>
                  </use>
                  <path fill="none" stroke="white" stroke-width="1.5" d="M0,-3.0v7 M-2.5,-0.5L0,-3.0L2.5,-0.5"/>
                </g>
        </g>
        <svg viewBox="0 0 15 15" width="100%" height="30px" preserveAspectRatio="xMaxYMin meet">
         <g id="arrow_out" transform="scale(0.3 0.3)">
          <a xlink:href="WidomInsertion_8hpp__incl_org.svg" target="_base">
           <rect id="button" ry="5" rx="5" y="6" x="6" height="38" width="38"
                fill="#f2f5e9" fill-opacity="0.5" stroke="#606060" stroke-width="1.0"/>
           <path id="arrow"
             d="M 11.500037,31.436501 C 11.940474,20.09759 22.043105,11.32322 32.158766,21.979434 L 37.068811,17.246167 C 37.068811,17.246167 37.088388,32 37.088388,32 L 22.160133,31.978069 C 22.160133,31.978069 26.997745,27.140456 26.997745,27.140456 C 18.528582,18.264221 13.291696,25.230495 11.500037,31.436501 z"
             style="fill:#404040;"/>
          </a>
         </g>
        </svg>
</svg>
